<?xml version="1.0" encoding="utf-8"?>
<!-- Generator: Adobe Illustrator 15.0.0, SVG Export Plug-In . SVG Version: 6.00 Build 0)  -->
<!DOCTYPE svg PUBLIC "-//W3C//DTD SVG 1.1//EN" "http://www.w3.org/Graphics/SVG/1.1/DTD/svg11.dtd">
<svg version="1.1" id="Layer_1" xmlns="http://www.w3.org/2000/svg" xmlns:xlink="http://www.w3.org/1999/xlink" x="0px" y="0px"
	 width="32px" height="32px" viewBox="0 0 32 32" enable-background="new 0 0 32 32" xml:space="preserve">
<path fill="#C20000" d="M29.09,24.09L29.09,24.09L21,16l8.09-8.09l0,0c0.087-0.087,0.15-0.189,0.191-0.297
	c0.11-0.297,0.047-0.643-0.191-0.881l-3.821-3.822c-0.239-0.239-0.586-0.3-0.882-0.191c-0.107,0.041-0.21,0.104-0.297,0.19l0,0
	L16,10.999L7.91,2.91l0,0c-0.087-0.086-0.189-0.15-0.297-0.19C7.316,2.608,6.971,2.672,6.732,2.911L2.911,6.732
	c-0.239,0.238-0.3,0.584-0.191,0.881C2.76,7.721,2.823,7.823,2.911,7.91l0,0L11,16l-8.089,8.09l0,0
	c-0.087,0.088-0.151,0.189-0.191,0.297c-0.111,0.297-0.047,0.643,0.191,0.883l3.822,3.82c0.238,0.238,0.584,0.301,0.881,0.191
	c0.107-0.041,0.21-0.104,0.297-0.191l0,0L16,21l8.09,8.09l0,0c0.087,0.088,0.189,0.15,0.297,0.191
	c0.297,0.111,0.643,0.047,0.882-0.191l3.821-3.82c0.238-0.24,0.302-0.586,0.191-0.883C29.24,24.279,29.177,24.178,29.09,24.09z"/>
</svg>
