<?xml version="1.0" encoding="utf-8"?>
<!-- Generator: Adobe Illustrator 15.0.0, SVG Export Plug-In . SVG Version: 6.00 Build 0)  -->
<!DOCTYPE svg PUBLIC "-//W3C//DTD SVG 1.1//EN" "http://www.w3.org/Graphics/SVG/1.1/DTD/svg11.dtd">
<svg version="1.1" id="Layer_1" xmlns="http://www.w3.org/2000/svg" xmlns:xlink="http://www.w3.org/1999/xlink" x="0px" y="0px"
	 width="42.334px" height="32px" viewBox="-5.167 0 42.334 32" enable-background="new -5.167 0 42.334 32" xml:space="preserve">
<path opacity="0.25" fill="#FFFFFF" stroke="#000000" stroke-width="0.5" stroke-linecap="round" stroke-linejoin="round" stroke-miterlimit="10" d="
	M24,25.28H3.2v-14.4h4.152c0,0,1.102-1.434,3.472-3.2H1.6C0.717,7.68,0,8.397,0,9.28v17.6c0,0.886,0.717,1.601,1.6,1.601h24
	c0.885,0,1.601-0.715,1.601-1.601v-5.994L24,23.518V25.28z M21.379,14.16v5.68L32,11.518L21.379,3.52v5.008
	C8.48,8.53,8.48,21.28,8.48,21.28C12.131,15.283,14.378,14.16,21.379,14.16z"/>
</svg>
