<?xml version="1.0" encoding="utf-8"?>
<!-- Generator: Adobe Illustrator 15.0.0, SVG Export Plug-In  -->
<!DOCTYPE svg PUBLIC "-//W3C//DTD SVG 1.1//EN" "http://www.w3.org/Graphics/SVG/1.1/DTD/svg11.dtd" [
	<!ENTITY ns_flows "http://ns.adobe.com/Flows/1.0/">
]>
<svg version="1.1"
	 xmlns="http://www.w3.org/2000/svg" xmlns:xlink="http://www.w3.org/1999/xlink" xmlns:a="http://ns.adobe.com/AdobeSVGViewerExtensions/3.0/"
	 x="0px" y="0px" width="376px" height="362px" viewBox="0 -6.843 376 362" enable-background="new 0 -6.843 376 362"
	 xml:space="preserve">
<defs>
</defs>
<polygon fill-rule="evenodd" clip-rule="evenodd" fill="#E21C47" points="337.731,52.441 332.701,52.441 332.701,53.441 
	329.672,53.441 329.672,54.442 324.643,54.442 324.643,55.442 321.613,55.442 321.613,56.471 318.584,56.471 318.584,57.471 
	314.555,57.471 314.555,58.471 313.555,58.471 313.555,59.472 309.496,59.472 309.496,60.5 306.495,60.5 306.495,61.5 304.467,61.5 
	304.467,62.501 302.438,62.501 302.438,63.53 300.438,63.53 300.438,64.53 297.408,64.53 297.408,65.53 295.407,65.53 
	295.407,66.53 294.379,66.53 294.379,67.559 291.35,67.559 291.35,68.56 289.349,68.56 289.349,69.56 287.32,69.56 287.32,70.588 
	285.319,70.588 285.319,71.589 284.291,71.589 284.291,72.589 282.29,72.589 282.29,73.589 280.262,73.589 280.262,74.618 
	278.261,74.618 278.261,75.619 276.231,75.619 276.231,76.619 275.231,76.619 275.231,77.619 273.202,77.619 273.202,78.648 
	271.202,78.648 271.202,79.648 270.202,79.648 270.202,80.648 268.173,80.648 268.173,81.677 267.173,81.677 267.173,82.677 
	265.144,82.677 265.144,83.678 263.144,83.678 263.144,84.678 262.114,84.678 262.114,85.707 261.114,85.707 261.114,86.707 
	259.113,86.707 259.113,87.707 258.085,87.707 258.085,88.736 256.085,88.736 256.085,89.736 255.056,89.736 255.056,90.736 
	253.056,90.736 253.056,91.737 252.055,91.737 252.055,92.766 251.026,92.766 251.026,93.766 249.025,93.766 249.025,94.766 
	247.997,94.766 247.997,95.766 246.997,95.766 246.997,96.795 244.996,96.795 244.996,97.795 243.968,97.795 243.968,98.795 
	242.968,98.795 242.968,99.824 240.967,99.824 240.967,100.825 239.938,100.825 239.938,101.825 238.938,101.825 238.938,102.825 
	237.938,102.825 237.938,103.854 236.909,103.854 236.909,104.854 234.908,104.854 234.908,105.854 233.908,105.854 
	233.908,106.883 232.88,106.883 232.88,107.883 231.879,107.883 231.879,108.884 230.879,108.884 230.879,109.884 229.851,109.884 
	229.851,110.913 227.85,110.913 227.85,111.913 226.85,111.913 226.85,112.914 225.82,112.914 225.82,113.914 224.82,113.914 
	224.82,114.942 223.82,114.942 223.82,115.943 222.792,115.943 222.792,116.943 221.791,116.943 221.791,117.972 220.791,117.972 
	220.791,118.972 219.791,118.972 219.791,119.972 218.762,119.972 218.762,120.973 217.762,120.973 217.762,122.001 
	216.762,122.001 216.762,123.001 215.762,123.001 215.762,124.002 214.732,124.002 214.732,125.031 213.732,125.031 
	213.732,126.031 212.732,126.031 212.732,127.031 211.703,127.031 211.703,128.031 210.703,128.031 210.703,129.06 209.703,129.06 
	209.703,131.061 208.703,131.061 208.703,132.061 207.674,132.061 207.674,134.09 205.674,134.09 205.674,135.09 204.645,135.09 
	204.645,136.119 203.645,136.119 203.645,138.12 202.645,138.12 202.645,139.12 201.645,139.12 201.645,140.148 200.615,140.148 
	200.615,142.149 199.615,142.149 199.615,143.178 198.615,143.178 198.615,144.178 197.614,144.178 197.614,145.178 
	196.586,145.178 196.586,149.208 197.614,149.208 197.614,151.237 198.615,151.237 198.615,154.266 199.615,154.266 
	199.615,159.296 200.615,159.296 200.615,164.326 201.645,164.326 201.645,167.355 202.645,167.355 202.645,174.414 
	203.645,174.414 203.645,177.444 208.703,177.444 208.703,178.444 229.851,178.444 229.851,177.444 237.938,177.444 
	237.938,176.443 241.967,176.443 241.967,175.415 247.997,175.415 247.997,174.414 252.055,174.414 252.055,173.414 
	256.085,173.414 256.085,172.414 260.114,172.414 260.114,171.385 264.144,171.385 264.144,170.385 266.144,170.385 
	266.144,169.384 270.202,169.384 270.202,168.355 272.202,168.355 272.202,167.355 275.231,167.355 275.231,166.355 
	278.261,166.355 278.261,165.355 280.262,165.355 280.262,164.326 283.29,164.326 283.29,163.326 286.319,163.326 286.319,162.326 
	288.349,162.326 288.349,161.325 290.35,161.325 290.35,160.296 293.379,160.296 293.379,159.296 294.379,159.296 294.379,158.296 
	297.408,158.296 297.408,157.267 299.437,157.267 299.437,156.267 301.438,156.267 301.438,155.267 302.438,155.267 
	302.438,154.266 304.467,154.266 304.467,153.237 307.496,153.237 307.496,152.237 308.496,152.237 308.496,151.237 
	310.525,151.237 310.525,150.208 312.525,150.208 312.525,149.208 314.555,149.208 314.555,148.208 316.555,148.208 
	316.555,147.208 318.584,147.208 318.584,146.179 320.584,146.179 320.584,145.178 322.613,145.178 322.613,144.178 
	323.613,144.178 323.613,143.178 325.643,143.178 325.643,142.149 327.643,142.149 327.643,141.149 329.672,141.149 
	329.672,140.148 330.672,140.148 330.672,139.12 332.701,139.12 332.701,138.12 333.701,138.12 333.701,137.119 335.73,137.119 
	335.73,136.119 336.73,136.119 336.73,135.09 338.731,135.09 338.731,134.09 339.76,134.09 339.76,133.09 341.761,133.09 
	341.761,132.061 342.789,132.061 342.789,131.061 344.79,131.061 344.79,130.061 345.79,130.061 345.79,129.06 346.818,129.06 
	346.818,128.031 348.819,128.031 348.819,127.031 349.848,127.031 349.848,126.031 351.849,126.031 351.849,125.031 
	352.849,125.031 352.849,124.002 353.877,124.002 353.877,123.001 355.878,123.001 355.878,122.001 356.878,122.001 
	356.878,120.973 357.907,120.973 357.907,117.972 358.907,117.972 358.907,116.943 359.907,116.943 359.907,111.913 
	360.937,111.913 360.937,108.884 361.937,108.884 361.937,105.854 362.937,105.854 362.937,103.854 363.937,103.854 
	363.937,101.825 364.966,101.825 364.966,98.795 365.966,98.795 365.966,95.766 366.966,95.766 366.966,92.766 367.995,92.766 
	367.995,90.736 368.995,90.736 368.995,88.736 369.995,88.736 369.995,85.707 370.995,85.707 370.995,81.677 372.024,81.677 
	372.024,79.648 373.024,79.648 373.024,73.589 374.024,73.589 374.024,64.53 373.024,64.53 373.024,62.501 372.024,62.501 
	372.024,60.5 370.995,60.5 370.995,58.471 369.995,58.471 369.995,57.471 368.995,57.471 368.995,56.471 367.995,56.471 
	367.995,55.442 366.966,55.442 366.966,54.442 363.937,54.442 363.937,53.441 362.937,53.441 362.937,52.441 358.907,52.441 
	358.907,51.413 337.731,51.413 "/>
<polygon fill-rule="evenodd" clip-rule="evenodd" fill="#E21C47" points="19.147,51.413 16.146,51.413 16.146,52.441 12.088,52.441 
	12.088,53.441 11.088,53.441 11.088,54.442 9.087,54.442 9.087,55.442 7.059,55.442 7.059,56.471 6.058,56.471 6.058,57.471 
	5.029,57.471 5.029,59.472 4.029,59.472 4.029,61.5 3.029,61.5 3.029,65.53 2.029,65.53 2.029,72.589 3.029,72.589 3.029,79.648 
	4.029,79.648 4.029,81.677 5.029,81.677 5.029,84.678 6.058,84.678 6.058,86.707 7.059,86.707 7.059,90.736 8.059,90.736 
	8.059,93.766 9.087,93.766 9.087,95.766 10.088,95.766 10.088,97.795 11.088,97.795 11.088,101.825 12.088,101.825 12.088,103.854 
	13.117,103.854 13.117,107.883 14.117,107.883 14.117,109.884 15.118,109.884 15.118,111.913 16.146,111.913 16.146,115.943 
	17.146,115.943 17.146,117.972 18.146,117.972 18.146,120.973 19.147,120.973 19.147,122.001 20.176,122.001 20.176,123.001 
	22.176,123.001 22.176,124.002 23.176,124.002 23.176,125.031 25.206,125.031 25.206,126.031 26.206,126.031 26.206,127.031 
	27.234,127.031 27.234,128.031 29.235,128.031 29.235,129.06 30.235,129.06 30.235,130.061 31.264,130.061 31.264,131.061 
	33.264,131.061 33.264,132.061 34.293,132.061 34.293,133.09 36.293,133.09 36.293,134.09 37.294,134.09 37.294,135.09 
	39.323,135.09 39.323,136.119 40.323,136.119 40.323,137.119 42.352,137.119 42.352,138.12 44.353,138.12 44.353,139.12 
	45.381,139.12 45.381,140.148 47.382,140.148 47.382,141.149 48.382,141.149 48.382,142.149 50.411,142.149 50.411,143.178 
	52.44,143.178 52.44,144.178 53.44,144.178 53.44,145.178 55.44,145.178 55.44,146.179 57.47,146.179 57.47,147.208 58.47,147.208 
	58.47,148.208 60.499,148.208 60.499,149.208 62.499,149.208 62.499,150.208 64.528,150.208 64.528,151.237 66.529,151.237 
	66.529,152.237 67.558,152.237 67.558,153.237 70.587,153.237 70.587,154.266 72.587,154.266 72.587,155.267 74.616,155.267 
	74.616,156.267 76.617,156.267 76.617,157.267 78.646,157.267 78.646,158.296 80.646,158.296 80.646,159.296 82.675,159.296 
	82.675,160.296 84.676,160.296 84.676,161.325 87.705,161.325 87.705,162.326 88.733,162.326 88.733,163.326 92.763,163.326 
	92.763,164.326 94.764,164.326 94.764,165.355 97.792,165.355 97.792,166.355 99.822,166.355 99.822,167.355 101.822,167.355 
	101.822,168.355 106.88,168.355 106.88,169.384 108.881,169.384 108.881,170.385 110.91,170.385 110.91,171.385 114.939,171.385 
	114.939,172.414 118.969,172.414 118.969,173.414 121.998,173.414 121.998,174.414 127.028,174.414 127.028,175.415 
	133.086,175.415 133.086,176.443 139.116,176.443 139.116,177.444 169.38,177.444 169.38,175.415 170.38,175.415 170.38,170.385 
	171.38,170.385 171.38,164.326 172.409,164.326 172.409,162.326 173.409,162.326 173.409,158.296 174.41,158.296 174.41,154.266 
	175.41,154.266 175.41,152.237 176.438,152.237 176.438,148.208 177.438,148.208 177.438,146.179 178.439,146.179 178.439,145.178 
	177.438,145.178 177.438,143.178 176.438,143.178 176.438,142.149 175.41,142.149 175.41,141.149 174.41,141.149 174.41,139.12 
	173.409,139.12 173.409,138.12 172.409,138.12 172.409,137.119 171.38,137.119 171.38,136.119 170.38,136.119 170.38,135.09 
	169.38,135.09 169.38,133.09 168.351,133.09 168.351,132.061 167.351,132.061 167.351,131.061 166.351,131.061 166.351,130.061 
	165.351,130.061 165.351,129.06 164.322,129.06 164.322,128.031 163.321,128.031 163.321,127.031 162.321,127.031 162.321,125.031 
	161.321,125.031 161.321,124.002 160.292,124.002 160.292,123.001 159.292,123.001 159.292,122.001 158.292,122.001 
	158.292,120.973 157.263,120.973 157.263,119.972 156.263,119.972 156.263,118.972 155.263,118.972 155.263,117.972 
	154.262,117.972 154.262,116.943 153.233,116.943 153.233,115.943 152.233,115.943 152.233,114.942 151.233,114.942 
	151.233,113.914 149.204,113.914 149.204,112.914 148.204,112.914 148.204,111.913 147.204,111.913 147.204,110.913 
	146.175,110.913 146.175,109.884 145.174,109.884 145.174,108.884 144.174,108.884 144.174,107.883 143.174,107.883 
	143.174,106.883 141.145,106.883 141.145,105.854 140.145,105.854 140.145,104.854 139.116,104.854 139.116,103.854 
	138.116,103.854 138.116,102.825 137.116,102.825 137.116,101.825 136.115,101.825 136.115,100.825 135.086,100.825 135.086,99.824 
	133.086,99.824 133.086,98.795 132.057,98.795 132.057,97.795 131.057,97.795 131.057,96.795 129.057,96.795 129.057,95.766 
	128.028,95.766 128.028,94.766 127.028,94.766 127.028,93.766 125.027,93.766 125.027,92.766 123.999,92.766 123.999,91.737 
	121.998,91.737 121.998,90.736 120.969,90.736 120.969,89.736 119.969,89.736 119.969,88.736 117.969,88.736 117.969,87.707 
	116.94,87.707 116.94,86.707 114.939,86.707 114.939,85.707 113.911,85.707 113.911,84.678 112.91,84.678 112.91,83.678 
	110.91,83.678 110.91,82.677 108.881,82.677 108.881,81.677 107.881,81.677 107.881,80.648 105.852,80.648 105.852,79.648 
	104.852,79.648 104.852,78.648 102.822,78.648 102.822,77.619 100.822,77.619 100.822,76.619 99.822,76.619 99.822,75.619 
	97.792,75.619 97.792,74.618 95.764,74.618 95.764,73.589 93.763,73.589 93.763,72.589 92.763,72.589 92.763,71.589 90.734,71.589 
	90.734,70.588 88.733,70.588 88.733,69.56 86.705,69.56 86.705,68.56 84.676,68.56 84.676,67.559 82.675,67.559 82.675,66.53 
	81.675,66.53 81.675,65.53 78.646,65.53 78.646,64.53 76.617,64.53 76.617,63.53 73.587,63.53 73.587,62.501 71.587,62.501 
	71.587,61.5 68.558,61.5 68.558,60.5 66.529,60.5 66.529,59.472 64.528,59.472 64.528,58.471 60.499,58.471 60.499,57.471 
	58.47,57.471 58.47,56.471 56.469,56.471 56.469,55.442 52.44,55.442 52.44,54.442 47.382,54.442 47.382,53.441 44.353,53.441 
	44.353,52.441 38.323,52.441 38.323,51.413 32.264,51.413 32.264,50.412 19.147,50.412 "/>
<path fill-rule="evenodd" clip-rule="evenodd" fill="#C7559F" d="M271.202,291.357h-1v4.03h-1.029v3.029h-1v2.028h-1v1.001h-1.029
	v2.028h-1v1.001h-1v1h-2.029v1.028h-8.059v-1.028h-1v-1h-2.029v-2.029h-1v-1h-1.001v-2.001h-1.028v-2.029h-1v-3.029h-1v-3.029
	h-1.001V269.18h1.001v-2h1v-3.029h1v-3.029h1.028v-1.001h1.001v-2.028h1v-1.001h1.028v-1h1.001v-1.028h2v-1.001h7.059v1.001h1.029
	v1.028h1v1h1v1.001h1v1h1.029v2.029h1v1h1v2.029h1.029v5.029h1v3.029h1v16.147h-1V291.357z M207.674,236.916h-1v11.088h-1v10.089
	h-1.029v11.088h-1v8.06h-1v4.058h1v1.001h1v8.059h1.029v1h1v3.029h1v3.029h1.029v1.001h1v3.029h1v1h1v2.029h1.029v1h1v2.029h1v2
	h2.029v2.029h1v1h1v1h1.029v1.029h1v1h1v1h1.001v1.029h1.028v1h1v1h1v1.001h1.029v1.028h1v1.001h1v1h1.001v1.028h1.028v1.001h1v1
	h2.029v1h1v1.029h2.001v1h1.028v1h1v1h2.029v1.029h1v1h2.001v1h1.028v1.029h2.001v1h2.028v1h1.001v1.001h3.029v1.028h1v1h2.029
	v1.001h2v1.028h2.029v1h3.029v1.001h2v1h3.029v1.028h3.029v1.001h2v1h5.059v1h2.001v1.029h6.058v1h20.176v-1h3.001v-1.029h3.029v-1
	h1.029v-1h1v-2.029h-1v-2.001h-1.029v-1h-1v-1.028h-1v-1.001h-1.029v-1h-1v-1.028h-1v-1.001h-1.001v-1h-1.028v-1h-1v-1.029h-1v-1
	h-1.029v-1h-1v-1.029h-1v-1h-1.001v-2h-1.028v-1.029h-1v-2h-1.001v-1.001h-1v-2.028h-1.028v-2.029h-1v-3.001h-1.001v-3.029h-1.028
	v-2.029h-1v-3.029h-1.001v-24.177h1.001v-13.118h-1.001v-7.059h-1v-2.001h-1.028v-2.028h-1.001v-2.029h-1v-2.001h-1.028v-2.028
	h-1.001v-2.001h-1v-1h-1v-1.029h-1.028v-2h-1.001v-1.029h-1v-1h-1v-1h-1.029v-1h-1v-1.029h-1v-1h-1.029v-1h-1v-1.029h-1v-1h-2.029
	v-1h-1v-1.001h-1v-1.028h-1.029v-1.001h-2v-1h-1v-1h-1.029v-1.029h-2v-1h-2.029v-1h-2v-1.029h-2.029v-1h-2.001v-1h-2.028v-1h-2.029
	v-1.029h-2v-1h-3.029v-1h-2.001v-1.029h-3.029v-1h-2.029v-1h-3.028v-1.001h-3.029v-1.028h-4.03v-1h-4.029v-1.001h-5.029v-1h-3.029
	v-1.028h-3.029v-1.001h-3.029V236.916z"/>
<path fill-rule="evenodd" clip-rule="evenodd" fill="#C7559F" d="M133.086,293.386h-1.029v3.029h-1v2.001h-1v2.028h-1v1.001h-1.029
	v2.028h-1v1.001h-1v1h-2.029v1.028h-8.059v-1.028h-1v-1h-1.029v-1.001h-1v-1.028h-1v-1h-1v-2.001h-1.029v-2.029h-1v-4.029h-1v-3.029
	h-1v-19.147h1v-4.029h1v-3.029h1v-3.029h1.029v-2.029h1v-1h1v-1.001h1v-1h1.029v-1.028h2v-1.001h7.059v1.001h2.029v1.028h1v1h1
	v2.001h1.029v1.028h1v2.001h1v3.029h1v2.029h1.029v8.059h1v11.089h-1V293.386z M164.322,214.739h-3.001v1.028h-4.058v1h-5.029v1.001
	h-3.029v1h-3.029v1.028h-3.001v1.001h-2.029v1h-4.029v1h-2.029v1.029h-3.029v1h-2v1h-2.029v1.029h-3v1h-1.029v1h-2v1h-2.029v1.029
	h-2v1h-1.029v1h-2v1.029h-1.029v1h-2v1h-1v1.001h-2.029v1.028h-1v1.001h-2.029v1h-1v1h-1v1.029h-1.029v1h-1v1h-1v1.029h-1v1h-1.029
	v1h-1v1h-1v1.029h-1.029v2h-1v1.029h-1v1h-1v2.001h-1.029v2.028h-1v2.001h-1v2.029h-1v3.029h-1.029v3.029h-1v4.029h-1v11.089h1
	v24.205h-1v5.03h-1.028v4.029h-1v2.029h-1v3.001h-1v1.028h-1.029v2.001h-1v2.029h-1v2h-1.029v1.029h-1v1h-1v2h-1v1.029h-1.029v1h-1
	v1h-1v1.029h-1v1h-1.029v1h-1v1.001h-1v1.028h-1.029v1h-1v1.001h-1v1.028h-1v1h-1.029v1.001h-1v3.029h1v1h3.029v1h3.029v1.029h5.03
	v1h16.146v-1h3.029v-1.029h5.029v-1h4.03v-1h3.029v-1.001h3.029v-1.028h2v-1h3.029v-1.001h2.029v-1h2v-1.028h3.029v-1.001h1v-1
	h2.029v-1.028h2.029v-1.001h2v-1h1v-1h2.029v-1.029h2v-1h1.029v-1h2v-1.029h1.029v-1h2v-1h1v-1h1.029v-1.029h2v-1h1.028v-1h1v-1.001
	h2v-1.028h1.029v-1h1v-1.001h1v-1.028h1v-1.001h1.029v-1h1v-1h1v-1.029h1.029v-1h1v-1h1v-1.029h1v-1h1.029v-1h1v-2.029h1v-1h1.029
	v-1h1v-2.029h1v-1h1v-2.029h1.029v-1h1v-2.001h1v-2.029h1v-3.029h1.029v-2h1v-3.029h1V277.24h-1v-6.03h-1v-10.088h-1.029v-8.06h-1
	v-16.146h-1v-23.178h-2.029V214.739z"/>
<path fill-rule="evenodd" clip-rule="evenodd" fill="#1D1D1D" d="M85.704,271.209h1v-4.029h1v-3.029h1.029v-3.029h1v-2.029h1v-2.001
	h1v-2.028h1.029v-2.001h1v-1h1v-1.029h1v-2h1.029v-1.029h1v-1h1v-1h1.029v-1h1v-1.029h1v-1h1v-1h1.029v-1.029h1v-1h1v-1h2.029
	v-1.001h1v-1.028h2.029v-1.001h1v-1h2v-1h1.029v-1.029h2v-1h1.029v-1h2v-1.029h2.029v-1h2v-1h1.029v-1h3v-1.029h2.029v-1h2v-1h3.029
	v-1.029h2.029v-1h4.029v-1h2.029v-1.001h3.001v-1.028h3.029v-1h3.029v-1.001h5.029v-1h4.058v-1.028h3.001v-1.001h2.029v23.178h1
	v16.146h1v8.06h1.029v10.088h1v6.03h1v12.117h-1v3.029h-1v2h-1.029v3.029h-1v2.029h-1v2.001h-1v1h-1.029v2.029h-1v1h-1v2.029h-1v1
	h-1.029v1h-1v2.029h-1v1h-1.029v1h-1v1.029h-1v1h-1v1h-1.029v1.029h-1v1h-1v1h-1.029v1.001h-1v1.028h-1v1.001h-1v1h-1.029v1.028h-2
	v1.001h-1v1h-1.028v1h-2v1.029h-1.029v1h-1v1h-2v1h-1.029v1.029h-2v1h-1.029v1h-2v1.029h-2.029v1h-1v1h-2v1.001h-2.029v1.028h-2.029
	v1h-1v1.001h-3.029v1.028h-2v1h-2.029v1.001h-3.029v1h-2v1.028h-3.029v1.001h-3.029v1h-4.03v1h-5.029v1.029h-3.029v1H73.587v-1
	h-5.03v-1.029h-3.029v-1h-3.029v-1h-1v-3.029h1v-1.001h1.029v-1h1v-1.028h1v-1.001h1v-1h1.029v-1.028h1v-1.001h1v-1h1.029v-1h1
	v-1.029h1v-1h1v-1h1.029v-1.029h1v-2h1v-1h1v-1.029h1.029v-2h1v-2.029h1v-2.001h1.029v-1.028h1v-3.001h1v-2.029h1v-4.029h1.028
	v-5.03h1v-24.205h-1V271.209z M202.645,277.24h1v-8.06h1v-11.088h1.029v-10.089h1v-11.088h1v-23.178h3.029v1.001h3.029v1.028h3.029
	v1h5.029v1.001h4.029v1h4.03v1.028h3.029v1.001h3.028v1h2.029v1h3.029v1.029h2.001v1h3.029v1h2v1.029h2.029v1h2.028v1h2.001v1h2.029
	v1.029h2v1h2.029v1h2v1.029h1.029v1h1v1h2v1.001h1.029v1.028h1v1.001h1v1h2.029v1h1v1.029h1v1h1.029v1h1v1.029h1v1h1.029v1h1v1h1
	v1.029h1.001v2h1.028v1.029h1v1h1v2.001h1.001v2.028h1.028v2.001h1v2.029h1.001v2.028h1.028v2.001h1v7.059h1.001v13.118h-1.001
	v24.177h1.001v3.029h1v2.029h1.028v3.029h1.001v3.001h1v2.029h1.028v2.028h1v1.001h1.001v2h1v1.029h1.028v2h1.001v1h1v1.029h1v1
	h1.029v1h1v1.029h1v1h1.028v1h1.001v1.001h1v1.028h1v1h1.029v1.001h1v1.028h1v1h1.029v2.001h1v2.029h-1v1h-1.029v1h-3.029v1.029
	h-3.001v1h-20.176v-1h-6.058v-1.029h-2.001v-1h-5.059v-1h-2v-1.001h-3.029v-1.028h-3.029v-1h-2v-1.001h-3.029v-1h-2.029v-1.028h-2
	v-1.001h-2.029v-1h-1v-1.028h-3.029v-1.001h-1.001v-1h-2.028v-1h-2.001v-1.029h-1.028v-1h-2.001v-1h-1v-1.029h-2.029v-1h-1v-1
	h-1.028v-1h-2.001v-1.029h-1v-1h-2.029v-1h-1v-1.001h-1.028v-1.028h-1.001v-1h-1v-1.001h-1v-1.028h-1.029v-1.001h-1v-1h-1v-1h-1.028
	v-1.029h-1.001v-1h-1v-1h-1v-1.029h-1.029v-1h-1v-1h-1v-2.029h-2.029v-2h-1v-2.029h-1v-1h-1.029v-2.029h-1v-1h-1v-3.029h-1v-1.001
	h-1.029v-3.029h-1v-3.029h-1v-1h-1.029v-8.059h-1v-1.001h-1V277.24z M168.351,206.679h1.029v-13.117h1v-11.089h1v-6.03h1.029v-6.058
	h1v-4.03h1v-2.029h1v-4.03h1.029v-5.03h1v-3.029h1v-2.029h1.029v-3h1v-2.029h1v-3.029h1v-2h1.029v-2.029h1v-2h1v-2.029h1v-2.029
	h2.029v2.029h1v2.029h1.028v2h1v3.029h1.001v2.029h1v3.001h1.028v2.029h1.001v3.029h1v5.03h1.028v2.029h1.001v6.03h1v4.029h1v3.029
	h1.029v7.059h1v6.059h1v12.089h1v56.471h-1v8.06h-1v8.059h-1v6.059h-1.029v8.06h-1v7.059h-1v5.03h-1.001v6.059h-1.028v6.059h-1
	v3.029h-1.001v7.059h-1.028v3.001h-1v6.059h-1.001v5.029h-1v2.029h-1.028v5.03h-2.001v-2.001h-1.028v-4.029h-1v-3.029h-1v-4.029h-1
	v-2.029h-1.029v-4.03h-1v-4.029h-1v-4.029h-1v-4.029h-1.029v-6.059h-1v-3.029h-1v-5.03h-1.029v-5.029h-1v-6.059h-1v-7.06h-1v-6.059
	h-1.029v-10.088h-1v-6.03h-1v-24.206h-1.029v-15.118h1.029v-1h1v-2.029h-2.029V206.679z M20.176,125.031h1v1h1v1h2.029v1h1v1.029h1
	v1h2.029v1h1v1h1v1.029h2.029v1h2.029v1h1v1.029h1v1h2.029v1h1v1h2v1.029h2.029v1h1v1h2.029v1.029h1v1h2.029v1h2v1h1.029v1.029h2v1
	h2.029v1h1v1h2v1.029h2.029v1h2.029v1h2v1.029h1v1h2.029v1h2.029v1h2v1.029h2.029v1h2v1h3.029v1.029h2.029v1h1v1h3.029v1h3.029
	v1.029h3.001v1h2.029v1h2v1h2.029v1.029h3.029v1h3.029v1h3.029v1.029h4.029v1h2v1h4.03v1h5.058v1.028h3.029v1.001h5.03v1h5.029
	v1.028h11.088v1.001h19.176v-1.001h4.029v3.001h-1.029v9.088h-1v15.118h-1v5.03h-4.029v1.028h-5.059v1h-2v1.001h-4.03v1.028h-5.058
	v1h-3.001v1.001h-6.058v1h-6.059v1.028h-4.029v1.001h-8.059v1h-8.059v1H97.792v1.029H78.646v-1.029H68.558v-1h-5.03v-1H58.47v-1.001
	h-2v-1.028H53.44v-1h-2.029v-1.001h-2v-1h-2.029v-1.028h-1v-1.001h-1v-1h-1.029v-1.028h-1v-1.001h-1v-1h-1.029v-1h-1v-1.029h-1v-2
	h-1v-3.029h-1.029v-3.029h-1v-3.029h-1v-3.029h-1v-3.001h-1.029v-2.029h-1v-6.059h-1v-4.029h-1.029v-6.03h-1v-5.058h-1v-5.03h-1
	v-6.059h-1.029v-6.059h-1v-3h-1v-6.059h-1.029v-3.029h-1v-3.029h-1v-5.03h-1V125.031z M354.878,132.061h-1.001v4.058h-1.028v4.029
	h-1v4.03h-1.001v5.03h-1v4.029h-1.028v8.088h-1v4.03h-1.001v4.029h-1.028v9.06h-1v4.029h-1.001v5.059h-1v4.029h-1.028v3.029h-1.001
	v2.001h-1v3.029h-1.028v3.029h-1v3.029h-1.001v2h-1v2.029h-1.028v1h-1.001v1.001h-1v1.028h-1v1h-1.029v1.001h-1v1.028h-2.029v1h-1
	v1.001h-2v1h-4.059v1.028h-2v1.001h-5.029v1h-3.029v1h-7.059v1.029h-29.235v-1.029h-10.088v-1h-9.088v-1h-7.059v-1.001h-4.029
	v-1.028h-6.03v-1h-3.029v-1.001h-7.059v-1h-4.029v-1.028h-3.029v-1.001h-4.029v-1h-4.029v-1.028h-3.029v-1.001h-3.029v-12.088h-1
	v-13.118h-1.029v-6.03h3.029v1.001h20.176v-1.001h11.088v-1.028h5.03v-1h5.058v-1.001h5.03v-1.028h4.029v-1h4.029v-1h2.029v-1h4.029
	v-1.029h2.029v-1h4.029v-1h2v-1.029h3.029v-1h3.029v-1h2.001v-1h3.029v-1.029h2.028v-1h2.001v-1h3.029v-1h2.028v-1.029h2.001v-1
	h2.029v-1h2v-1.029h2.029v-1h2.028v-1h2.001v-1h2.029v-1.029h2v-1h2.029v-1h1v-1.029h2.029v-1h2v-1h2.029v-1h2v-1.029h1.029v-1h2v-1
	h2.029v-1h2v-1.029h1.029v-1h2v-1h1.001v-1.029h2.028v-1h1.001v-1h2.028v-1h1v-1.029h2.029v-1h1v-1h2.001v-1.029h1.028v-1h2.001v-1
	h1.028v-1h2.001v-1.029h1v-1h2.029v-1h1v3.029h-1V132.061z M178.439,85.707h2.029v-1.029h1v-1h9.087v1h5.03v1.029h1v7.059h1.028v2
	h1.001v1h2v1.029h1.029v1h6.029v1h1.029v2.029h1v9.059h-1v4.03h-1.029v2.029h-1v2.029h-1v2h-1.029v1h-1v1.029h-1v1h-1v1h-1.029
	v1.029h-3.001v1h-2.028v1h-2.029v1h-12.088v-1h-2v-1h-2.029v-1h-2.029v-1.029h-2v-1h-1v-1h-1.029v-1.029h-1v-1h-1v-2h-1.029v-1.029
	h-1v-3.029h-1v-3.001h-1v-9.088h1v-4.029h7.059v-1h1v-1.029h2.029v-1h1v-1h1v-2.029h1.029v-5.03h-1.029V85.707z M373.024,79.648h-1
	v2.029h-1.029v4.029h-1v3.029h-1v2h-1v2.029h-1.029v3h-1v3.029h-1v3.029h-1.029v2.029h-1v2h-1v3.029h-1v3.029h-1.029v5.03h-1v1.029
	h-1v3.001h-1.029v1.029h-1v1h-2.001v1h-1.028v1.029h-1v1h-2.001v1h-1.028v1h-2.001v1.029h-1.028v1h-1v1h-2.001v1h-1.028v1.029
	h-2.001v1h-1.028v1h-2.001v1.029h-1v1h-2.029v1h-1v1h-2.029v1.029h-1v1h-2.029v1h-2v1.029h-2.029v1h-1v1h-2.029v1h-2v1.029h-2.029v1
	h-2v1h-2.029v1h-2v1.029h-2.029v1h-1v1h-3.029v1.029h-2.029v1h-1v1h-2.001v1h-2.028v1.029h-3.029v1h-1v1h-3.029v1.029h-2.001v1
	h-2.029v1h-3.029v1h-3.028v1.029h-2.001v1h-3.029v1h-3.029v1h-2v1.029h-4.059v1h-2v1h-4.029v1.029h-4.029v1h-4.03v1h-4.058v1h-6.03
	v1.028h-4.029v1.001h-8.087v1h-21.147v-1h-5.059v-3.03h-1v-7.059h-1v-3.029h-1.029v-5.03h-1v-5.03h-1v-3.029h-1.001v-2.029h-1.028
	v-4.03h1.028v-1h1.001v-1h1v-1.029h1v-2h1.029v-1.029h1v-1h1v-2h1v-1.029h1.029v-1h2v-2.029h1.029v-1h1v-2h1v-1.029h1v-1h1.029v-1h1
	v-1h1v-1.029h1.029v-1h1v-1h1v-1.029h1v-1h1.029v-1h1v-1h1v-1.029h1.001v-1h1.028v-1h1v-1.029h1v-1h1.029v-1h1v-1h2.001v-1.029
	h1.028v-1h1v-1h1.001v-1h1.028v-1.029h1v-1h2.001v-1h1.028v-1.029h1v-1h1.001v-1h1.028v-1h2.001v-1.029h1v-1h1.028v-1h2.001v-1.029
	h1v-1h1.028v-1h2.001v-1h1.028v-1.029h1.001v-1h2v-1h1.029v-1h2v-1.029h1.028v-1h2.001v-1h1v-1.029h1.029v-1h2v-1h2.029v-1h1v-1.029
	h2.029v-1h1v-1h2v-1.029h2.029v-1h1v-1h2.029v-1h2.001v-1.029h2.028v-1h2.001v-1h1.028v-1h2.001V69.56h2.028v-1h2.001v-1h3.029
	V66.53h1.028v-1h2.001v-1h3.029v-1h2v-1.029h2.029v-1h2.028v-1h3.001v-1.029h4.059v-1h1v-1h4.029v-1h3.029v-1.029h3.029v-1h5.029v-1
	h3.029v-1h5.03v-1.029h21.176v1.029h4.029v1h1v1h3.029v1h1.029v1.029h1v1h1v1h1V60.5h1.029v2h1v2.029h1v9.06h-1V79.648z
	 M2.029,65.53h1V61.5h1v-2.029h1v-2h1.029v-1h1v-1.029h2.029v-1h2v-1h1v-1h4.058v-1.029h3v-1h13.117v1h6.059v1.029h6.03v1h3.029v1
	h5.058v1h4.029v1.029h2v1h2.029v1h4.029v1h2V60.5h2.029v1h3.029v1h2v1.029h3.029v1h2.029v1h3.029v1h1v1.029h2v1h2.029v1h2.029v1.029
	h2v1h2.029v1h1v1h2v1.029h2.029v1h2.029v1h1v1h2v1.029h2.029v1h1v1h2.029v1.029h1v1h2.029v1h2v1h1v1.029h1.029v1h2v1h1.029v1.029h2
	v1h1v1h1.029v1h2v1.029h1.029v1h2v1h1v1h1.029v1.029h2v1h1v1h1.029v1.029h2v1h1.029v1h1v1h1v1.029h1v1h1.029v1h1v1.029h2.029v1h1v1
	h1v1h1v1.029h1.029v1h1v1h1v1h2.029v1.029h1v1h1v1h1.029v1.029h1v1h1v1h1v1h1.029v1.029h1v1h1v1h1.029v1.029h1v2h1v1h1v1.029h1.029
	v1h1v1h1v1h1v1.029h1.029v2h1v1.029h1v1h1.029v1h1v1h1v2.029h1v1h1.029v1.029h1v2h1v1h-1v2.029h-1v4.03h-1.029v2.029h-1v4.03h-1
	v4.03h-1v2h-1.029v6.059h-1v5.03h-1v2.029h-30.264v-1.001h-6.03v-1.028h-6.058v-1h-5.03v-1h-3.029v-1h-4.029v-1.029h-4.03v-1h-2.029
	v-1h-2v-1.029h-5.058v-1h-2v-1h-2.029v-1h-3.029v-1.029h-2v-1h-4.03v-1h-1.029v-1h-3.029v-1.029h-2v-1h-2.029v-1h-2v-1.029h-2.029
	v-1h-2v-1h-2.029v-1h-2v-1.029h-3.029v-1h-1.029v-1h-2v-1.029h-2.029v-1h-2v-1H58.47v-1h-1v-1.029H55.44v-1h-2v-1h-1v-1h-2.029
	v-1.029h-2.029v-1h-1v-1h-2v-1.029h-1.029v-1h-2v-1h-2.029v-1h-1v-1.029h-2.029v-1h-1v-1h-2v-1.029h-1.029v-1h-2v-1h-1.029v-1h-1
	v-1.029h-2v-1h-1.029v-1h-1v-1h-2.029v-1.029h-1v-1h-2v-1h-1.029v-1.029h-1v-3.001h-1v-2.029h-1v-4.03h-1.029v-2.029h-1v-2h-1
	v-4.029h-1.029v-2.029h-1v-4.029h-1v-2.029h-1v-2H8.059v-3.029h-1v-4.029h-1v-2.029H5.029v-3h-1v-2.029h-1v-7.059h-1V65.53z
	 M141.145,1h-2.029v1.029h-3.001v1h-1.029v1h-2v1h-1.029v1.029h-1v1h-1v2.029h-1v2h-1.029v2.029h-1v2h-1v10.088h1v3.029h1v3.029
	h1.029v2h1v2.029h1v2h1v1.029h1.029v1h1v1h1v2.029h2.029v-2.029h-1v-2h-1.029v-1.029h-1v-2h-1v-1h-1.029v-2.029h-1v-3.029h-1v-2.001
	h-1V15.118h1v-4.029h1v-1h1v-1h1.029V8.059h1v-1h1v-1h1.029V5.03h1v-1h3.029v-1h3.029v-1h5.03v1h5.03v1h1.029v1h2v1.029h1v1h1.029v1
	h1v1.029h1v1h1.029v2h1v2.029h1v2.029h1v2h1.029v2.029h1v2h1v3.029h1v2.029h1.029v4.03h1v4.03h1v3.029h1.029v5.03h1v5.03h1v5.058h1
	v6.03h1.029v6.059h1v18.147h-1v1h-2.029v1.029h-1v1h-1v1h-2.029v1.029h-1v1h-1.029v2h-1v1.029h-1v2h-1v3.029h-1.029v2.029h-1v12.089
	h1v4.03h1.029v2.029h1v1h1v2h1v1.029h1.029v1h1v1h1v1.029h2.029v1h1v1h1v1h3.029v1.029h3.029v1h4.029v2h-1v2.029h-1v1h-1.029v2.029
	h-1v2h-1v2.029h-1v1h-1.029v-1h-1v-1h-1v-2.029h-1.029v-1h-1v-1h-1v-1.029h-1v-1h-1.029v-2.029h-1v-1h-1v-1h-1.029v-1h-1v-1.029h-1
	v-1h-1v-2h-1.029v-1.029h-1v-1h-1v-1h-1v-1.029h-1.029v-1h-1v-1h-1v-1h-1.029v-1.029h-1v-1h-1v-1h-1v-1.029h-1.029v-1h-1v-1h-1v-1
	h-1.029v-1.029h-1v-1h-1v-1h-2.029v-1h-1v-1.029h-1v-1h-1v-1h-1.028v-1.029h-2v-1h-1.029v-1h-1v-1h-1v-1.029h-1v-1h-2.029v-1h-1
	v-1.029h-1.029v-1h-1v-1h-2v-1h-1.029v-1.029h-2v-1h-1v-1h-1.029v-1h-2v-1.029h-1.029v-1h-2v-1h-1v-1.029h-2.029v-1h-1v-1h-1.029v-1
	h-2v-1.029h-1v-1h-2.029v-1h-2v-1.029h-1.029v-1h-2v-1h-1.029v-1h-2v-1.029h-2.029v-1h-2v-1h-1.029v-1h-2V69.56h-2.029v-1h-2v-1h-1
	V66.53h-3.029v-1h-2.029v-1h-2v-1h-2.029v-1.029h-2.029v-1h-3v-1h-2.029v-1.029h-2v-1h-3.029v-1h-2.029v-1h-2v-1.029H59.47v-1h-2v-1
	h-5.03v-1h-2.029v-1.029h-4.03v-1h-5.058v-1h-7.03v-1.029H18.146v1.029h-4.029v1h-2.029v1H9.087v1.029H8.059v1h-2v1H5.029v1h-1
	v1.029h-1v1h-1V60.5H1v3.029H0v12.089h1v5.03h1.029v3.029h1v2.029h1v3.029h1v3.001h1.029v2.029h1v3.029h1v3.029h1.029v2h1v4.03h1
	v2.029h1v3.029h1.029v2.001h1v3.029h1v4.029h1.029v3.029h1v4.03h1v3.029h1v3.029h1.029v5.03h1v5.058h1v3.001h1v5.058h1.029v7.059h1
	v6.03h1v6.059h1.029v4.029h1v6.059h1v3.029h1v5.029h1.029v4.029h1v2.029h1v3.029h1.029v3.001h1v3.029h1v3.029h1v1h1.029v2.029h1v1h1
	v1.001h1v2.028h1.029v1.001h2v1.028h1.029v1h1v1.001h2v1h2.029v1.028h2.029v1.001h3v1h2.029v1h3.029v1.029h5.029v1h7.059v1h25.205
	v-1h14.118v-1h7.059v-1.029h8.059v-1h3.029v1h-2.029v1.029h-1v1h-2v1h-2.029v1.029h-2.029v1h-2v1h-2.029v1h-1v1.029h-2.029v1h-2v1
	h-1v1.029h-2.029v1h-1v1h-2.029v1.001h-1v1.028h-1v1.001h-1.029v1h-1v1h-1v1.029h-1v1h-2.029v2.029h-1v1h-1.029v1h-1v1h-1v1.029h-1
	v2h-1.029v2.029h-1v1h-1v1.001h-1v3.029h-1.029v2.028h-1v2.001h-1v3.029h-1.028v7.059h-1v9.088h1v25.206h-1v5.03h-1v2h-1v4.059
	h-1.029v2h-1v2.029h-1v1.001h-1.029v2.028h-1v1.001h-1v2h-1v1.029h-1.029v1h-1v2h-1v1.029h-1v1h-1.029v1h-1v1.029h-1v1h-1.029v1h-1
	v1.001h-1v1.028h-2.029v1h-1v2.029h-1v1H59.47v5.03h1.029v1h1v1.029h2.029v1h4.03v1h3.029v1.029h18.146v-1.029h6.03v-1h3.029v-1
	h5.03v-1.029h3.029v-1h3.029v-1h3.029v-1.001h1v-1.028h3.029v-1h2.029v-1.001h3v-1h1.029v-1.028h3.029v-2.001h3v-1.028h2.029v-1.001
	h1v-1h2.029v-1h2v-1.029h1.029v-1h1v-1h2v-1.029h1.029v-1h2v-1h1.028v-1h1v-1.029h2v-1h1.029v-1h1v-1.001h1v-1.028h1v-1h1.029
	v-1.001h1v-1.028h1v-1.001h1.029v-1h1v-1h1v-1.029h1v-1h1.029v-1h1v-1.029h1v-1h1.029v-2h1v-1.029h1v-1h1v-2.001h1.029v-1.028h1
	v-2.001h1v-2.028h1v-1.001h1.029v-3.029h1v-2.028h1v-3.001h1.029v-1.029h1v2.029h1v6.059h1v4.029h1.029v4.03h1v4.029h1v4.029h1.029
	v4.029h1v4.03h1v4.029h1v3.029h1.029v3.029h1v3.029h1v3.029h1v3.029h1.028v3.001h2.001v-1h1.028v-3.029h1v-6.03h1.001v-3.029h1
	v-4.029h1.028v-7.06h1.001v-4.029h1v-5.059h1.028v-5.029h1.001v-6.059h1v-5.03h1v-7.059h1.029v-3.029h1v2.029h1v5.029h1v2.001h1.029
	v3.029h1v2.028h1v1.001h1.029v2.028h1v2.001h1v1.028h1v2.001h1.029v1h1v1.029h1v2h1.029v1h1v1.029h1v1h1v1h1.029v2.029h1v1h1v1.001
	h2.029v1.028h1v1.001h1v1h1.029v1.028h1v1.001h1v1h1.001v1h1.028v1.029h2.001v1h1.028v1h1v1h2.001v1.029h1.028v1h2.001v1h1.028
	v1.029h2.001v1h1v1h2.029v1.001h2v1.028h1.028v1h2.001v1.001h2.029v1.028h3.029v1h1v1.001h2.028v1h3.001v1.028h2.029v1.001h2v1
	h4.059v1h2v1.029h4.029v1h4.03v1h4.029v1.029h4.058v1h13.089v-1h5.058v-1.029h4.03v-1h2v-1h2.029v-1.029h2v-5.029h-1v-2.001h-1
	v-1.028h-1v-1.001h-1.029v-1h-1v-1.028h-1v-1.001h-1.029v-1h-1v-1h-1v-1.029h-1.001v-1h-1.028v-1h-1v-1.029h-1v-1h-1.029v-1h-1
	v-2.029h-1v-1h-1.001v-2.001h-1.028v-1.028h-1v-2.001h-1.001v-2.029h-1v-2h-1.028v-2.029h-1v-4.029h-1.001v-5.03h-1.028v-21.176
	h1.028v-12.118h-1.028v-8.059h-1v-2.001h-1.001v-3.029h-1v-2.028h-1.028v-2.001h-1.001v-2.029h-1v-2h-1.028v-1.029h-1.001v-2h-1
	v-1.029h-1v-1h-1.028v-1h-1.001v-1h-1v-1.029h-1v-1h-1.029v-1h-1v-1.029h-1v-1h-1.029v-1h-1v-1.001h-1v-1.028h-1v-1.001h-2.029v-1
	h-1v-1h-2.029v-1.029h-2v-1h-1.029v-1h-2v-1.029h-2.029v-1h-1v-1h-2.029v-1h-2v-1.029h-2.029v-1h-2.001v-1h-2.028v-1.029h-2.001v-1
	h3.001v1h5.059v1.029h10.088v1h11.088v1h29.235v-1h8.059v-1h5.029v-1.029h3.029v-1h3.029v-1h3.029v-1.001h1v-1.028h2.029v-1h2
	v-1.001h1.029v-1h1v-1.028h1v-1.001h1.001v-1h1.028v-1.028h1v-2.001h1.001v-1h1v-2.029h1.028v-2.029h1v-3h1.001v-3.029h1.028v-4.03
	h1v-3.029h1.001v-5.059h1v-4.029h1.028v-4.029h1.001v-4.03h1v-7.059h1.028v-5.03h1v-6.059h1.001v-5.03h1v-5.058h1.028v-4.03h1.001
	v-6.03h1v-3.029h1v-4.03h1.029v-3.029h1v-4.029h1v-2.029h1.029v-3.029h1v-2h1v-5.059h1v-2h1.029v-3.029h1v-3.029h1v-2h1.029v-2.029
	h1v-4.03h1v-2.029h1v-2h1.029v-3.029h1v-3.029h1v-4.03h1v-5.03h1.029V64.53h-1.029V61.5h-1v-2.029h-1v-2h-1v-1h-1.029v-1.029h-1v-1
	h-1v-1h-2.029v-1h-2v-1.029h-2.029v-1h-4.029v-1h-20.176v1h-7.03v1h-5.059v1.029h-2v1h-4.059v1h-4.029v1h-3v1.029h-2.029v1h-3.029v1
	h-3.029v1h-1V60.5h-3.029v1h-3.029v1h-2.001v1.029h-2.028v1h-2.001v1h-2.028v1h-2.001v1.029h-2.029v1h-2.028v1h-2.001v1.029h-2.028
	v1h-1.001v1h-2v1h-2.029v1.029h-1v1h-2.029v1h-2v1h-1.029v1.029h-2v1h-2.029v1h-1v1.029h-2.029v1h-1v1h-2.001v1h-1.028v1.029h-2v1
	h-1.029v1h-1v1.029h-2.001v1h-1.028v1h-2.001v1h-1.028v1.029h-2v1h-1.001v1h-1.028v1h-1v1.029h-1.001v1h-2.028v1h-1.001v1.029h-1v1
	h-1.028v1h-2.001v1h-1v1.029h-1.028v1h-1.001v1h-1v1.029h-1.028v1h-2.001v1h-1v1h-1.029v1.029h-1v1h-1v1h-1.028v1h-1.001v1.029h-1v1
	h-1v1h-1.029v1.029h-1v1h-1v1h-1v1h-1.029v1.029h-1v1h-1v1h-1.029v1.029h-1v1h-1v1h-1v1h-1.029v1.029h-1v2h-1v1h-1.029v1.029h-1v1
	h-1v1h-1v1.029h-1.029v2h-1v1h-1v2.029h-1.001v1h-1.028v1.029h-1v-1.029h-1.001v-1h-1.028v-4.03h-1v-2.029h-1.001v-2h-1v-3.029
	h3.001v-1h4.058v-1.029h2.001v-1h1v-1h2.029v-1h1v-1.029h1v-1h1.029v-1h1v-1.029h1v-2h1.029v-2.029h1v-2h1v-3.029h1V99.824h-1
	v-3.029h-1v-2.029h-1v-2h-1.029v-1.029h-1v-1h-1v-2h-1.029v-1.029h-2v-1h-1V65.53h1v-8.059h1v-6.059h1v-6.03h1.029v-5.058h1v-4.03h1
	v-2h1.029v-4.058h1v-4.03h1v-3.029h1v-2h1.029v-2.029h1v-2h1v-2.029h1.029v-2h1v-2.029h1v-1h1v-1h1.029V8.059h1v-1h1v-1h2.029V5.03
	h2v-1h1.029v-1h9.059v1h2.029v1h3.029v1.029h2.001v1h1v1h1.028v1.029h1.001v2h1v1h1v3.029h1.028v14.118h-1.028v2.029h-1v2h-1v2.029
	h-1.001v2h-1.028v1.029h-1v2h-1.001v1h-1v2.029h2.001v-1h1v-1.029h1.028v-2h1.001v-1h1v-2.029h1v-2h1.028v-2.029h1.001v-2.029h1
	v-5.03h1.028v-8.059h-1.028v-4.03h-1v-2.029h-1.001v-1h-1.028V8.059h-1v-1h-1v-1h-1.001V5.03h-2.028v-1h-1.001v-1h-2.028v-1h-4.03V1
	h-7.059v1.029h-5.029v1h-1.028v1h-2.001v1h-1v1.029h-1.029v1h-1v1h-1v1.029h-1v1h-1.029v2h-1v1.029h-1v2h-1.029v3.029h-1v2.029h-1v2
	h-1v3.029h-1.029v4.03h-1v2.029h-1v4.03h-1.029v5.03h-1v3.029h-1v6.059h-1v10.06h-1.029v4.058h-1v8.059h-1v12.089h-3.029v-1h-1.001
	v-1h-15.117V67.559h-1.029V57.471h-1v-4.03h-1v-8.059h-1.029v-2.029h-1v-6.059h-1v-4.029h-1v-2h-1.029v-5.059h-1v-1h-1v-4.03h-1.029
	v-2.029h-1v-2h-1v-2.029h-1v-2h-1.029v-2.029h-1v-1h-1V8.059h-1v-1h-1.029v-1h-1V5.03h-1v-1h-1.029v-1h-2v-1h-3.029V1h-1V0h-10.088
	V1z"/>
<path fill-rule="evenodd" clip-rule="evenodd" fill="#FBCA0D" d="M214.732,193.562h1.029v-2.001h1v-1h1v-1.029h1v-1h1.029v-1h2
	v-1.029h2.029v-1h7.059v1h3.029v1.029h2v1h1.001v1h1.028v1.029h1v2h1.001v2.029h1.028v10.06h-1.028v2.029h-1.001v2.029h-1v1h-1.028
	v1h-2.001v1.001h-2.028v1.028h-9.06v-1.028h-3.029v-1.001h-1v-1h-1.029v-1h-1v-1.029h-1v-1h-1v-2.029h-1.029V193.562z
	 M285.319,203.65h-1.028v2.029h-1.001v1h-1v1h-1v1.029h-2.029v1h-2v1h-9.088v-1h-2.029v-1h-2v-1.029h-1v-1h-1.029v-1h-1v-2.029h-1
	v-1h-1.001v-10.089h1.001v-2h1v-2.029h1v-1h1.029v-1.029h1v-1h2v-1h2.029v-1h7.059v1h3.029v1h2.001v1h1.028v1.029h1v1h1v1h1.001
	v2.029h1.028v2.001h1v8.088h-1V203.65z M302.438,189.532h1.029v-2h1v-1.029h1v-2h1.028v-1h1.001v-1.029h2v-1h3.029v-1h8.059v1h3.029
	v1h1.029v1.029h1v1h1v1h1v1h1.029v2.029h1v11.089h-1v2.029h-1.029v1h-1v1h-1v1h-1v1.029h-1.029v1h-3.029v1h-7.029v-1h-3.029v-1
	h-2.029v-1.029h-1v-1h-1.001v-1h-1.028v-1h-1v-2.029h-1v-2.001h-1.029V189.532z M354.878,127.031h-2.029v1h-1v1.029h-2.001v1h-1.028
	v1h-2.001v1h-1.028v1.029h-2.001v1h-1v1h-2.029v1.029h-1v1h-2.028v1h-1.001v1h-2.028v1.029h-1.001v1h-2v1h-1.029v1.029h-2v1h-2.029
	v1h-2v1h-1.029v1.029h-2v1h-2.029v1h-2v1h-2.029v1.029h-1v1h-2.029v1h-2v1.029h-2.029v1h-2.001v1h-2.028v1h-2.029v1.029h-2v1h-2.029
	v1h-2.001v1.029h-2.028v1h-3.029v1h-2.001v1h-2.028v1.029h-3.029v1h-2.001v1h-3.029v1h-3.029v1.029h-2v1h-4.029v1h-2.029v1.029
	h-4.029v1h-2.029v1h-4.029v1h-4.029v1.028h-5.03v1.001h-5.058v1h-5.03v1.028H227.85v1.001h-20.176v-1.001h-3.029v6.03h1.029v13.118
	h1v12.088h3.029v1.001h3.029v1.028h4.029v1h4.029v1.001h3.029v1.028h4.029v1h7.059v1.001h3.029v1h6.03v1.028h4.029v1.001h7.059v1
	h9.088v1h10.088v1.029h29.235v-1.029h7.059v-1h3.029v-1h5.029v-1.001h2v-1.028h4.059v-1h2v-1.001h1v-1h2.029v-1.028h1v-1.001h1.029
	v-1h1v-1.028h1v-1.001h1.001v-1h1.028v-2.029h1v-2h1.001v-3.029h1v-3.029h1.028v-3.029h1v-2.001h1.001v-3.029h1.028v-4.029h1v-5.059
	h1.001v-4.029h1v-9.06h1.028v-4.029h1.001v-4.03h1v-8.088h1.028v-4.029h1v-5.03h1.001v-4.03h1v-4.029h1.028v-4.058h1.001v-3.001h1
	v-3.029h-1V127.031z"/>
<path fill-rule="evenodd" clip-rule="evenodd" fill="#FBCA0D" d="M130.057,194.59h1v-2.029h1v-2h1.029v-1.029h1v-1h1v-1h3.029
	v-1.029h1v-1h9.087v1h2v1.029h2.029v1h1v1h1.029v1.029h1v2h1v2.029h1v9.06h-1v2.029h-1v1h-1v2.029h-1.029v1h-1v1h-2.029v1.001h-2
	v1.028h-9.087v-1.028h-2v-1.001h-2.029v-1h-1v-1h-1v-1.029h-1.029v-2h-1v-3.029h-1V194.59z M85.704,191.561h1v-2.029h1v-1h1.029v-1
	h1v-1.029h1v-1h1v-1h3.029v-1h9.087v1h2v1h1.029v1h1v1.029h1v1h1v1h1.029v2.029h1v11.089h-1v2h-1.029v1.029h-1v1h-1v1h-1v1.029
	h-2.029v1h-3.029v1h-7.059v-1h-2v-1h-2.029v-1.029h-1v-1h-1v-1h-1.029v-1.029h-1v-2h-1V191.561z M41.323,189.532h1.029v-2h1v-2.029
	h1v-1h1.029v-1h1v-1.029h1v-1h2.029v-1h11.088v1h2v1h1.029v1.029h1v1h1v1h1v1h1.029v2.029h1v10.089h-1v2h-1.029v1.029h-1v1h-1v1h-1
	v1h-1.029v1.029h-2v1H50.411v-1h-2.029v-1.029h-2v-1h-1v-1h-1.029v-2.029h-1v-1h-1v-3.029h-1.029V189.532z M20.176,130.061h1v5.03h1
	v3.029h1v3.029h1.029v6.059h1v3h1v6.059h1.029v6.059h1v5.03h1v5.058h1v6.03h1.029v4.029h1v6.059h1v2.029h1.029v3.001h1v3.029h1
	v3.029h1v3.029h1.029v3.029h1v2h1v1.029h1v1h1.029v1h1v1.001h1v1.028h1.029v1h1v1.001h1v1.028h2.029v1h2v1.001h2.029v1h3.029v1.028
	h2v1.001h5.058v1h5.03v1h10.088v1.029h19.147v-1.029h13.117v-1h8.059v-1h8.059v-1.001h4.029v-1.028h6.059v-1h6.058v-1.001h3.001v-1
	h5.058v-1.028h4.03v-1.001h2v-1h5.059v-1.028h4.029v-5.03h1v-15.118h1v-9.088h1.029v-3.001h-4.029v1.001h-19.176v-1.001h-11.088
	v-1.028h-5.029v-1h-5.03v-1.001h-3.029v-1.028h-5.058v-1h-4.03v-1h-2v-1h-4.029v-1.029h-3.029v-1h-3.029v-1h-3.029v-1.029h-2.029v-1
	h-2v-1h-2.029v-1h-3.001v-1.029h-3.029v-1h-3.029v-1h-1v-1h-2.029v-1.029h-3.029v-1h-2v-1h-2.029v-1.029h-2v-1h-2.029v-1h-2.029v-1
	h-1v-1.029h-2v-1h-2.029v-1H59.47v-1.029h-2v-1h-1v-1H54.44v-1h-2v-1.029h-1.029v-1h-2v-1h-2.029v-1h-1v-1.029h-2.029v-1h-1v-1
	h-2.029v-1.029h-2v-1h-1v-1h-2.029v-1h-1v-1.029h-1v-1h-2.029v-1h-2.029v-1.029h-1v-1h-1v-1h-2.029v-1h-1v-1.029h-1v-1h-2.029v-1h-1
	v-1h-1V130.061z"/>
<polygon fill-rule="evenodd" clip-rule="evenodd" fill="#D3BDC9" points="186.498,134.09 185.498,134.09 185.498,136.119 
	184.498,136.119 184.498,138.12 183.497,138.12 183.497,140.148 182.468,140.148 182.468,142.149 181.468,142.149 181.468,145.178 
	180.468,145.178 180.468,147.208 179.468,147.208 179.468,150.208 178.439,150.208 178.439,152.237 177.438,152.237 
	177.438,155.267 176.438,155.267 176.438,160.296 175.41,160.296 175.41,164.326 174.41,164.326 174.41,166.355 173.409,166.355 
	173.409,170.385 172.409,170.385 172.409,176.443 171.38,176.443 171.38,182.473 170.38,182.473 170.38,193.562 169.38,193.562 
	169.38,206.679 168.351,206.679 168.351,210.708 170.38,210.708 170.38,212.738 169.38,212.738 169.38,213.738 168.351,213.738 
	168.351,228.856 169.38,228.856 169.38,253.062 170.38,253.062 170.38,259.092 171.38,259.092 171.38,269.18 172.409,269.18 
	172.409,275.239 173.409,275.239 173.409,282.298 174.41,282.298 174.41,288.357 175.41,288.357 175.41,293.386 176.438,293.386 
	176.438,298.417 177.438,298.417 177.438,301.446 178.439,301.446 178.439,307.504 179.468,307.504 179.468,311.534 
	180.468,311.534 180.468,315.563 181.468,315.563 181.468,319.592 182.468,319.592 182.468,323.623 183.497,323.623 
	183.497,325.652 184.498,325.652 184.498,329.681 185.498,329.681 185.498,332.71 186.498,332.71 186.498,336.74 187.526,336.74 
	187.526,338.741 189.527,338.741 189.527,333.71 190.556,333.71 190.556,331.681 191.556,331.681 191.556,326.652 192.557,326.652 
	192.557,320.593 193.557,320.593 193.557,317.592 194.585,317.592 194.585,310.534 195.586,310.534 195.586,307.504 
	196.586,307.504 196.586,301.446 197.614,301.446 197.614,295.387 198.615,295.387 198.615,290.357 199.615,290.357 
	199.615,283.298 200.615,283.298 200.615,275.239 201.645,275.239 201.645,269.18 202.645,269.18 202.645,261.122 203.645,261.122 
	203.645,253.062 204.645,253.062 204.645,196.591 203.645,196.591 203.645,184.502 202.645,184.502 202.645,178.444 
	201.645,178.444 201.645,171.385 200.615,171.385 200.615,168.355 199.615,168.355 199.615,164.326 198.615,164.326 
	198.615,158.296 197.614,158.296 197.614,156.267 196.586,156.267 196.586,151.237 195.586,151.237 195.586,148.208 
	194.585,148.208 194.585,146.179 193.557,146.179 193.557,143.178 192.557,143.178 192.557,141.149 191.556,141.149 191.556,138.12 
	190.556,138.12 190.556,136.119 189.527,136.119 189.527,134.09 188.527,134.09 188.527,132.061 186.498,132.061 "/>
<polygon fill-rule="evenodd" clip-rule="evenodd" fill="#86D2DA" points="181.468,84.678 180.468,84.678 180.468,85.707 
	178.439,85.707 178.439,86.707 179.468,86.707 179.468,91.737 178.439,91.737 178.439,93.766 177.438,93.766 177.438,94.766 
	176.438,94.766 176.438,95.766 174.41,95.766 174.41,96.795 173.409,96.795 173.409,97.795 166.351,97.795 166.351,101.825 
	165.351,101.825 165.351,110.913 166.351,110.913 166.351,113.914 167.351,113.914 167.351,116.943 168.351,116.943 
	168.351,117.972 169.38,117.972 169.38,119.972 170.38,119.972 170.38,120.973 171.38,120.973 171.38,122.001 172.409,122.001 
	172.409,123.001 173.409,123.001 173.409,124.002 175.41,124.002 175.41,125.031 177.438,125.031 177.438,126.031 179.468,126.031 
	179.468,127.031 181.468,127.031 181.468,128.031 193.557,128.031 193.557,127.031 195.586,127.031 195.586,126.031 
	197.614,126.031 197.614,125.031 200.615,125.031 200.615,124.002 201.645,124.002 201.645,123.001 202.645,123.001 
	202.645,122.001 203.645,122.001 203.645,120.973 204.645,120.973 204.645,119.972 205.674,119.972 205.674,117.972 
	206.674,117.972 206.674,115.943 207.674,115.943 207.674,113.914 208.703,113.914 208.703,109.884 209.703,109.884 
	209.703,100.825 208.703,100.825 208.703,98.795 207.674,98.795 207.674,97.795 201.645,97.795 201.645,96.795 200.615,96.795 
	200.615,95.766 198.615,95.766 198.615,94.766 197.614,94.766 197.614,92.766 196.586,92.766 196.586,85.707 195.586,85.707 
	195.586,84.678 190.556,84.678 190.556,83.678 181.468,83.678 "/>
<polygon fill-rule="evenodd" clip-rule="evenodd" fill="#D17572" points="256.085,257.091 254.056,257.091 254.056,258.092 
	253.056,258.092 253.056,259.092 252.055,259.092 252.055,261.122 251.026,261.122 251.026,263.15 250.026,263.15 250.026,265.151 
	249.025,265.151 249.025,267.18 247.997,267.18 247.997,271.209 246.997,271.209 246.997,290.357 247.997,290.357 247.997,293.386 
	249.025,293.386 249.025,296.416 250.026,296.416 250.026,298.417 251.026,298.417 251.026,300.445 252.055,300.445 
	252.055,301.446 253.056,301.446 253.056,302.446 254.056,302.446 254.056,303.474 255.056,303.474 255.056,304.475 
	261.114,304.475 261.114,303.474 263.144,303.474 263.144,302.446 264.144,302.446 264.144,301.446 265.144,301.446 
	265.144,299.445 266.144,299.445 266.144,297.416 267.173,297.416 267.173,295.387 268.173,295.387 268.173,290.357 
	269.173,290.357 269.173,287.328 270.202,287.328 270.202,273.209 269.173,273.209 269.173,269.18 268.173,269.18 268.173,265.151 
	267.173,265.151 267.173,263.15 266.144,263.15 266.144,261.122 265.144,261.122 265.144,260.121 264.144,260.121 264.144,259.092 
	263.144,259.092 263.144,258.092 262.114,258.092 262.114,257.091 261.114,257.091 261.114,256.091 256.085,256.091 "/>
<polygon fill-rule="evenodd" clip-rule="evenodd" fill="#D17572" points="117.969,257.091 115.939,257.091 115.939,258.092 
	114.939,258.092 114.939,259.092 113.911,259.092 113.911,261.122 112.91,261.122 112.91,262.122 111.91,262.122 111.91,265.151 
	110.91,265.151 110.91,267.18 109.881,267.18 109.881,271.209 108.881,271.209 108.881,287.328 109.881,287.328 109.881,293.386 
	110.91,293.386 110.91,296.416 111.91,296.416 111.91,298.417 112.91,298.417 112.91,300.445 113.911,300.445 113.911,301.446 
	114.939,301.446 114.939,302.446 115.939,302.446 115.939,303.474 116.94,303.474 116.94,304.475 122.998,304.475 122.998,303.474 
	123.999,303.474 123.999,302.446 125.027,302.446 125.027,301.446 126.027,301.446 126.027,300.445 127.028,300.445 
	127.028,299.445 128.028,299.445 128.028,297.416 129.057,297.416 129.057,294.386 130.057,294.386 130.057,291.357 
	131.057,291.357 131.057,285.328 132.057,285.328 132.057,275.239 131.057,275.239 131.057,269.18 130.057,269.18 130.057,266.151 
	129.057,266.151 129.057,263.15 128.028,263.15 128.028,262.122 127.028,262.122 127.028,260.121 126.027,260.121 126.027,259.092 
	125.027,259.092 125.027,258.092 123.999,258.092 123.999,257.091 121.998,257.091 121.998,256.091 117.969,256.091 "/>
<polygon fill-rule="evenodd" clip-rule="evenodd" fill="#BAD532" points="224.82,188.532 221.791,188.532 221.791,189.532 
	220.791,189.532 220.791,190.561 219.791,190.561 219.791,191.561 218.762,191.561 218.762,192.561 217.762,192.561 217.762,194.59 
	216.762,194.59 216.762,204.65 217.762,204.65 217.762,205.679 218.762,205.679 218.762,206.679 219.791,206.679 219.791,207.679 
	220.791,207.679 220.791,208.708 221.791,208.708 221.791,209.708 223.82,209.708 223.82,210.708 231.879,210.708 231.879,209.708 
	232.88,209.708 232.88,208.708 234.908,208.708 234.908,207.679 235.908,207.679 235.908,206.679 237.938,206.679 237.938,204.65 
	238.938,204.65 238.938,194.59 237.938,194.59 237.938,192.561 236.909,192.561 236.909,191.561 235.908,191.561 235.908,190.561 
	234.908,190.561 234.908,189.532 232.88,189.532 232.88,188.532 230.879,188.532 230.879,187.532 224.82,187.532 "/>
<polygon fill-rule="evenodd" clip-rule="evenodd" fill="#BAD532" points="140.145,188.532 138.116,188.532 138.116,189.532 
	137.116,189.532 137.116,190.561 136.115,190.561 136.115,191.561 134.086,191.561 134.086,193.562 133.086,193.562 
	133.086,196.591 132.057,196.591 132.057,202.65 133.086,202.65 133.086,204.65 134.086,204.65 134.086,206.679 135.086,206.679 
	135.086,207.679 137.116,207.679 137.116,208.708 138.116,208.708 138.116,209.708 141.145,209.708 141.145,210.708 
	147.204,210.708 147.204,209.708 149.204,209.708 149.204,208.708 150.204,208.708 150.204,207.679 152.233,207.679 
	152.233,205.679 153.233,205.679 153.233,204.65 154.262,204.65 154.262,202.65 155.263,202.65 155.263,195.591 154.262,195.591 
	154.262,193.562 153.233,193.562 153.233,192.561 152.233,192.561 152.233,191.561 151.233,191.561 151.233,189.532 
	149.204,189.532 149.204,188.532 147.204,188.532 147.204,187.532 140.145,187.532 "/>
<polygon fill-rule="evenodd" clip-rule="evenodd" fill="#BAD532" points="50.411,183.502 48.382,183.502 48.382,184.502 
	47.382,184.502 47.382,185.502 46.381,185.502 46.381,186.502 45.381,186.502 45.381,188.532 44.353,188.532 44.353,189.532 
	43.352,189.532 43.352,197.62 44.353,197.62 44.353,198.621 45.381,198.621 45.381,200.621 46.381,200.621 46.381,201.65 
	47.382,201.65 47.382,202.65 49.411,202.65 49.411,203.65 50.411,203.65 50.411,204.65 59.47,204.65 59.47,203.65 61.499,203.65 
	61.499,202.65 62.499,202.65 62.499,201.65 63.528,201.65 63.528,200.621 64.528,200.621 64.528,199.621 65.528,199.621 
	65.528,197.62 66.529,197.62 66.529,189.532 65.528,189.532 65.528,187.532 64.528,187.532 64.528,186.502 63.528,186.502 
	63.528,185.502 62.499,185.502 62.499,184.502 61.499,184.502 61.499,183.502 60.499,183.502 60.499,182.473 50.411,182.473 "/>
<polygon fill-rule="evenodd" clip-rule="evenodd" fill="#BAD532" points="312.525,183.502 310.525,183.502 310.525,184.502 
	309.496,184.502 309.496,185.502 308.496,185.502 308.496,186.502 307.496,186.502 307.496,187.532 306.495,187.532 
	306.495,189.532 305.467,189.532 305.467,198.621 306.495,198.621 306.495,200.621 307.496,200.621 307.496,201.65 308.496,201.65 
	308.496,202.65 309.496,202.65 309.496,203.65 310.525,203.65 310.525,204.65 314.555,204.65 314.555,205.679 318.584,205.679 
	318.584,204.65 321.613,204.65 321.613,203.65 323.613,203.65 323.613,202.65 324.643,202.65 324.643,201.65 325.643,201.65 
	325.643,200.621 326.643,200.621 326.643,198.621 327.643,198.621 327.643,190.561 326.643,190.561 326.643,187.532 
	325.643,187.532 325.643,186.502 324.643,186.502 324.643,185.502 323.613,185.502 323.613,184.502 321.613,184.502 
	321.613,183.502 319.584,183.502 319.584,182.473 312.525,182.473 "/>
<polygon fill-rule="evenodd" clip-rule="evenodd" fill="#BAD532" points="270.202,186.502 268.173,186.502 268.173,187.532 
	266.144,187.532 266.144,188.532 264.144,188.532 264.144,190.561 263.144,190.561 263.144,191.561 262.114,191.561 
	262.114,193.562 261.114,193.562 261.114,200.621 262.114,200.621 262.114,202.65 263.144,202.65 263.144,204.65 264.144,204.65 
	264.144,205.679 265.144,205.679 265.144,206.679 267.173,206.679 267.173,207.679 269.173,207.679 269.173,208.708 
	276.231,208.708 276.231,207.679 278.261,207.679 278.261,206.679 280.262,206.679 280.262,205.679 281.29,205.679 281.29,204.65 
	282.29,204.65 282.29,202.65 283.29,202.65 283.29,192.561 282.29,192.561 282.29,190.561 281.29,190.561 281.29,189.532 
	280.262,189.532 280.262,188.532 279.261,188.532 279.261,187.532 278.261,187.532 278.261,186.502 274.231,186.502 
	274.231,185.502 270.202,185.502 "/>
<polygon fill-rule="evenodd" clip-rule="evenodd" fill="#BAD532" points="94.764,186.502 92.763,186.502 92.763,187.532 
	91.734,187.532 91.734,188.532 90.734,188.532 90.734,189.532 89.734,189.532 89.734,190.561 88.733,190.561 88.733,192.561 
	87.705,192.561 87.705,200.621 88.733,200.621 88.733,202.65 89.734,202.65 89.734,204.65 90.734,204.65 90.734,205.679 
	91.734,205.679 91.734,206.679 93.763,206.679 93.763,207.679 103.851,207.679 103.851,206.679 105.852,206.679 105.852,205.679 
	106.88,205.679 106.88,204.65 107.881,204.65 107.881,203.65 108.881,203.65 108.881,201.65 109.881,201.65 109.881,192.561 
	108.881,192.561 108.881,189.532 107.881,189.532 107.881,188.532 105.852,188.532 105.852,187.532 104.852,187.532 
	104.852,186.502 101.822,186.502 101.822,185.502 94.764,185.502 "/>
<path fill-rule="evenodd" clip-rule="evenodd" fill="#1D1D1D" d="M131.057,291.357h-1v3.029h-1v3.029h-1.029v2.029h-1v1h-1v1.001h-1
	v1h-1.029v1.028h-1v1.001h-6.058v-1.001h-1v-1.028h-1v-1h-1.029v-1.001h-1v-2.028h-1v-2.001h-1v-3.029h-1.029v-6.059h-1v-16.118h1
	v-4.029h1.029v-2.029h1v-3.029h1v-1h1v-2.029h1.029v-1h1v-1.001h2.029v-1h4.029v1h2v1.001h1.029v1h1v1.028h1v2.001h1v1.028h1.029
	v3.001h1v3.029h1v6.059h1v10.089h-1V291.357z M116.94,255.063h-2v1.028h-1.029v1h-1v1.001h-1v1h-1v2.029h-1.029v3.029h-1v3.029h-1
	v4.029h-1v19.147h1v3.029h1v4.029h1v2.029h1.029v2.001h1v1h1v1.028h1v1.001h1.029v1h1v1.028h8.059v-1.028h2.029v-1h1v-1.001h1
	v-2.028h1.029v-1.001h1v-2.028h1v-2.001h1v-3.029h1.029v-7.059h1v-11.089h-1v-8.059h-1.029v-2.029h-1v-3.029h-1v-2.001h-1v-1.028
	h-1.029v-2.001h-1v-1h-1v-1.028h-2.029v-1.001h-7.059V255.063z"/>
<path fill-rule="evenodd" clip-rule="evenodd" fill="#1D1D1D" d="M269.173,290.357h-1v5.03h-1v2.028h-1.029v2.029h-1v2.001h-1v1h-1
	v1.028h-2.029v1.001h-6.059v-1.001h-1v-1.028h-1v-1h-1.001v-1.001h-1.028v-2.028h-1v-2.001h-1.001v-3.029h-1.028v-3.029h-1v-19.147
	h1v-4.029h1.028v-2.029h1.001v-2.001h1v-2.028h1.028v-2.029h1.001v-1h1v-1.001h2.029v-1h5.029v1h1v1.001h1.029v1h1v1.028h1v1.001h1
	v2.028h1.029v2.001h1v4.029h1v4.029h1.029v14.118h-1.029V290.357z M255.056,255.063h-2v1.028h-1.001v1h-1.028v1.001h-1v2.028h-1.001
	v1.001h-1.028v3.029h-1v3.029h-1v2h-1.001v22.177h1.001v3.029h1v3.029h1v2.029h1.028v2.001h1.001v1h1v2.029h2.029v1h1v1.028h8.059
	v-1.028h2.029v-1h1v-1.001h1v-2.028h1.029v-1.001h1v-2.028h1v-3.029h1.029v-4.03h1v-3h1v-16.147h-1v-3.029h-1v-5.029h-1.029v-2.029
	h-1v-1h-1v-2.029h-1.029v-1h-1v-1.001h-1v-1h-1v-1.028h-1.029v-1.001h-7.059V255.063z"/>
<path fill-rule="evenodd" clip-rule="evenodd" fill="#1D1D1D" d="M305.467,189.532h1.028v-2h1.001v-1.029h1v-1h1v-1h1.029v-1h2
	v-1.029h7.059v1.029h2.029v1h2v1h1.029v1h1v1.029h1v3.029h1v8.06h-1v2h-1v1.029h-1v1h-1.029v1h-2v1h-3.029v1.029h-4.029v-1.029
	h-4.029v-1h-1.029v-1h-1v-1h-1v-1.029h-1.001v-2h-1.028V189.532z M312.525,181.473h-3.029v1h-2v1.029h-1.001v1h-1.028v2h-1v1.029h-1
	v2h-1.029v8.088h1.029v2.001h1v2.029h1v1h1.028v1h1.001v1h1v1.029h2.029v1h3.029v1h7.029v-1h3.029v-1h1.029v-1.029h1v-1h1v-1h1v-1
	h1.029v-2.029h1v-11.089h-1v-2.029h-1.029v-1h-1v-1h-1v-1h-1v-1.029h-1.029v-1h-3.029v-1h-8.059V181.473z"/>
<path fill-rule="evenodd" clip-rule="evenodd" fill="#1D1D1D" d="M261.114,193.562h1v-2.001h1.029v-1h1v-2.029h2v-1h2.029v-1.029
	h2.029v-1h4.029v1h4.029v1.029h1v1h1.001v1h1.028v1.029h1v2h1v10.089h-1v2h-1v1.029h-1.028v1h-2.001v1h-2.029v1.029h-7.059v-1.029
	h-2v-1h-2.029v-1h-1v-1.029h-1v-2h-1.029v-2.029h-1V193.562z M268.173,184.502h-2.029v1h-2v1h-1v1.029h-1.029v1h-1v2.029h-1v2
	h-1.001v10.089h1.001v1h1v2.029h1v1h1.029v1h1v1.029h2v1h2.029v1h9.088v-1h2v-1h2.029v-1.029h1v-1h1v-1h1.001v-2.029h1.028v-2h1
	v-8.088h-1v-2.001h-1.028v-2.029h-1.001v-1h-1v-1h-1v-1.029h-1.028v-1h-2.001v-1h-3.029v-1h-7.059V184.502z"/>
<path fill-rule="evenodd" clip-rule="evenodd" fill="#1D1D1D" d="M132.057,196.591h1.029v-3.029h1v-2.001h2.029v-1h1v-1.029h1v-1
	h2.029v-1h7.059v1h2v1h2.029v2.029h1v1h1v1.001h1.029v2.029h1v7.059h-1v2h-1.029v1.029h-1v2h-2.029v1.029h-1v1h-2v1h-6.059v-1
	h-3.029v-1h-1v-1.029h-2.029v-1h-1v-2.029h-1v-2h-1.029V196.591z M139.116,186.502h-1v1.029h-3.029v1h-1v1h-1v1.029h-1.029v2h-1
	v2.029h-1v8.06h1v3.029h1v2h1.029v1.029h1v1h1v1h2.029v1.001h2v1.028h9.087v-1.028h2v-1.001h2.029v-1h1v-1h1.029v-2.029h1v-1h1
	v-2.029h1v-9.06h-1v-2.029h-1v-2h-1v-1.029h-1.029v-1h-1v-1h-2.029v-1.029h-2v-1h-9.087V186.502z"/>
<path fill-rule="evenodd" clip-rule="evenodd" fill="#1D1D1D" d="M87.705,192.561h1.029v-2h1v-1.029h1v-1h1v-1h1.029v-1.029h2v-1
	h7.059v1h3.029v1.029h1v1h2.029v1h1v3.029h1v9.089h-1v2h-1v1h-1v1.029h-1.029v1h-2v1H93.763v-1h-2.029v-1h-1v-1.029h-1v-2h-1v-2.029
	h-1.029V192.561z M94.764,184.502h-3.029v1h-1v1h-1v1.029h-1v1h-1.029v1h-1v2.029h-1v11.089h1v2h1v1.029h1.029v1h1v1h1v1.029h2.029
	v1h2v1h7.059v-1h3.029v-1h2.029v-1.029h1v-1h1v-1h1v-1.029h1.029v-2h1v-11.089h-1v-2.029h-1.029v-1h-1v-1h-1v-1.029h-1v-1h-1.029v-1
	h-2v-1h-9.087V184.502z"/>
<path fill-rule="evenodd" clip-rule="evenodd" fill="#1D1D1D" d="M216.762,194.59h1v-2.029h1v-1h1.029v-1h1v-1.029h1v-1h3.029v-1
	h6.059v1h2.001v1h2.028v1.029h1v1h1.001v1h1.028v2.029h1v10.06h-1v2.029h-2.029v1h-1v1.029h-2.028v1h-1.001v1h-8.059v-1h-2.029v-1
	h-1v-1.029h-1v-1h-1.029v-1h-1v-1.029h-1V194.59z M223.82,186.502h-2.029v1.029h-2v1h-1.029v1h-1v1.029h-1v1h-1v2.001h-1.029v11.088
	h1.029v2.029h1v1h1v1.029h1v1h1.029v1h1v1.001h3.029v1.028h9.06v-1.028h2.028v-1.001h2.001v-1h1.028v-1h1v-2.029h1.001v-2.029h1.028
	v-10.06h-1.028v-2.029h-1.001v-2h-1v-1.029h-1.028v-1h-1.001v-1h-2v-1.029h-3.029v-1h-7.059V186.502z"/>
<path fill-rule="evenodd" clip-rule="evenodd" fill="#1D1D1D" d="M43.352,189.532h1v-1h1.029v-2.029h1v-1h1v-1h1v-1h2.029v-1.029
	h10.088v1.029h1v1h1v1h1.029v1h1v1.029h1v2h1v8.088h-1v2.001h-1v1h-1v1.029h-1.029v1h-1v1H59.47v1h-9.059v-1h-1v-1h-2.029v-1h-1
	v-1.029h-1v-2h-1.029v-1.001h-1V189.532z M49.411,181.473h-2.029v1h-1v1.029h-1v1h-1.029v1h-1v2.029h-1v2h-1.029v7.06h1.029v3.029h1
	v1h1v2.029h1.029v1h1v1h2v1.029h2.029v1h10.088v-1h2v-1.029h1.029v-1h1v-1h1v-1h1v-1.029h1.029v-2h1v-10.089h-1v-2.029h-1.029v-1h-1
	v-1h-1v-1h-1v-1.029h-1.029v-1h-2v-1H49.411V181.473z"/>
</svg>
