<?xml version="1.0" encoding="utf-8"?>
<!-- Generator: Adobe Illustrator 15.0.0, SVG Export Plug-In  -->
<!DOCTYPE svg PUBLIC "-//W3C//DTD SVG 1.1//EN" "http://www.w3.org/Graphics/SVG/1.1/DTD/svg11.dtd" [
	<!ENTITY ns_flows "http://ns.adobe.com/Flows/1.0/">
]>
<svg version="1.1"
	 xmlns="http://www.w3.org/2000/svg" xmlns:xlink="http://www.w3.org/1999/xlink" xmlns:a="http://ns.adobe.com/AdobeSVGViewerExtensions/3.0/"
	 x="0px" y="0px" width="376px" height="355px" viewBox="0 0 376 355" enable-background="new 0 0 376 355" xml:space="preserve">
<defs>
</defs>
<path fill-rule="evenodd" clip-rule="evenodd" fill="#E21C47" d="M113.996,130.061v-1h1v-1.029h1.029v-1h1v-1h2v-1h1.029v-1.029
	h8.059v1.029h2.029v1h2v1h1.029v1h1v1.029h1v1h1.029v2h1v3.029h1v6.059h-1v3.029h-1v2h-1.029v1.029h-1v1h-1v1h-2.029v1h-3.029v1.029
	h-8.059v-1.029h-2.029v-1h-2v-1h-1.029v-1h-1v-1.029h-1v-2h-1.029v-3.029h-1v-7.059h1v-2.029h1.029v-2H113.996z M97.85,123.001h-1v1
	h-1v2.029H93.82v1h-1v1h-1.029v1.029H79.703v-1.029h-1.029v-1h-1v-1h-2v-1h-1.029v-2.029h-1v-1h-1v-12.118h1v-2h1v-1h1.029v-1.029h1
	v-1h2v-1h2.029v-1.029h10.088v1.029h2.029v1h1v1h2.029v1.029h1v2h1v2.029h1v9.06h-1V123.001z M34.293,89.736h1.029v-3.029h1v-1h1
	v-2.029h1v-1h2.029v-1h1v-1.029h2.029v-1h9.087v1h2v1.029h2.029v1h1v1h1v2.029h1.029v1h1v3.029h1v7.059h-1v3.029h-1v1h-1.029v2h-1
	v1.029h-1v1h-2.029v1h-2v1.029h-8.087v-1.029h-3.029v-1h-2v-1h-1.029v-1.029h-1v-1h-1v-2h-1v-4.058h-1.029V89.736z M86.762,68.56
	h-2.029v-1h-1V66.53h-3.029v-1h-2.029v-1h-3.001v-1h-2.029v-1.029h-2.029v-1h-2v-1h-3.029v-1.029h-3.029v-1h-2.029v-1h-4.029v-1
	h-3.029v-1.029h-3.029v-1H47.41v-1h-3.029v-1h-7.059v-1.029H15.146v1.029h-3.029v1h-2.029v1h-1v1H7.059v1.029h-1v1h-1v2H4.029V60.5
	h-1v3.029h-1v13.089h1v5.059h1v2h1.029v3.029h1v2.029h1v2h1.029v4.03h1v2.029h1v4.03h1v2h1.029v3.029h1v3.029h1v2.029h1.029v4.03h1
	v3.029h1v2h1v1h1.029v1.029h1v1h1v1h2.029v1.029h1v1h1.029v1h2v1h1v1.029h2.029v1h1v1h1.029v1h2v1.029h1.029v1h2v1h1v1.029h1.029v1
	h2v1h2.029v1h1v1.029h2.029v1h1v1h2.029v1.029h2v1h1.029v1h2v1h1.029v1.029h2v1h2.029v1h2v1h2.029v1.029h2.029v1h2v1h1v1.029h3.029
	v1h2.029v1h2.029v1h1v1.029h3.029v1h2v1h2.029v1.029h2.029v1h2v1h2.029v1h4.029v1.029h2.029v1h2v1h3.029v1h3.029v1.029h4.029v1
	h2.029v1h5.03v1.029h1.029v1h6.03v1h4.058v1h4.029v1.028h6.059v1.001h8.059v1h24.206v-1h1v-2.029h1.029v-6.03h1v-4.029h1v-5.059
	h1.029v-3.029h1v-3.001h1v-4.058h1.029v-3h1v-3.029h-1v-1h-1.029v-2.029h-1v-1h-1v-1.029h-1.029v-1h-1v-2h-1v-1.029h-1.029v-1h-1v-1
	h-1v-1.029h-1v-1h-1.029v-2h-1v-1.029h-1v-1h-1.029v-1h-1v-1h-1v-1.029h-1.029v-1h-1v-1h-1v-1.029h-1v-1h-1.029v-1h-1v-1h-1v-1.029
	h-1.029v-1h-1v-1h-1v-1.029h-1.029v-1h-1v-1h-1v-1h-1v-1.029h-1.029v-1h-1v-1h-2.029v-1h-1v-1.029h-1v-1h-1.029v-1h-1v-1.029h-2v-1
	h-1.029v-1h-1v-1h-1v-1.029h-1.029v-1h-2v-1h-1.029v-1.029h-1v-1h-1v-1h-2.029v-1h-1v-1.029h-1v-1h-2.029v-1h-1v-1h-1.029v-1.029h-2
	v-1h-1v-1h-2.029v-1.029h-1v-1h-2.029v-1h-1v-1h-2.029v-1.029h-1v-1h-2.029v-1h-1v-1.029h-2.029v-1h-2v-1H97.85v-1h-2v-1.029H93.82
	v-1h-1v-1h-2.029v-1h-3.029V69.56h-1V68.56z"/>
<path fill-rule="evenodd" clip-rule="evenodd" fill="#E21C47" d="M234.051,133.09h1v-2.029h1.001v-2h1v-1.029h1.028v-1h2.001v-1
	h1.028v-1h2.001v-1.029h8.087v1.029h2.001v1h1.028v1h2.001v1h1v1.029h1.028v2h1.001v2.029h1v10.088h-1v2h-1.001v2.029h-1.028v1h-1v1
	h-2.001v1h-3.029v1.029h-8.087v-1.029h-3.029v-1h-1v-1h-2.029v-2.029h-1v-1h-1.001v-3.029h-1V133.09z M272.374,112.914h1v-3.03
	h1.028v-2h1.001v-1h1v-1.029h1v-1h2.029v-1h2.028v-1.029h10.089v1.029h2v1h1.028v1h2.001v2.029h1v1h1.029v3.029h1v10.088h-1v1
	h-1.029v2.029h-1v1h-1v1h-2.029v1h-2v1.029h-3.029v1h-5.059v-1h-2.001v-1.029h-3.028v-1h-1.029v-1h-1v-1h-1v-1.029h-1.001v-2h-1.028
	v-2.029h-1V112.914z M309.696,90.736h1v-3.029h1.029v-2h1v-1.029h1v-1h1.029v-1h1v-1h2v-1.029h4.059v-1h6.029v1h2.029v1.029h2.029v1
	h1v1h1v1h1.029v1.029h1v2h1v11.088h-1v2.029h-1v2h-1.029v1.029h-2v1h-1.029v1h-3.029v1.029h-9.059v-1.029h-2.029v-1h-2v-1h-1.029
	v-1.029h-1v-2h-1v-2.029h-1.029v-2h-1V90.736z M339.96,52.441h-4.029v1h-6.059v1h-3.029v1h-5.029v1.029h-3.029v1h-3.029v1h-2.029v1
	h-4.029V60.5h-2.029v1h-2v1h-3.029v1.029h-2.029v1h-2v1h-2.029v1h-3.029v1.029h-2v1h-2.029v1h-2.029v1.029h-2v1h-1.001v1h-2.028v1
	h-2.029v1.029h-2v1h-2.029v1h-1v1h-3.029v1.029h-1.001v1h-2.028v1h-1v1.029h-2.029v1h-1v1h-2.029v1h-1v1.029h-2.029v1h-1v1h-2.029
	v1.029h-1v1h-2.001v1h-1.028v1h-1v1.029h-2.029v1h-1v1h-2.029v1h-1v1.029h-1.001v1h-1v1h-2.028v1.029h-1.001v1h-1.028v1h-1v1h-1.001
	v1.029h-2.028v1h-1.001v1h-1v1.029h-1.028v1h-1v1h-2.029v1h-1v1.029h-1.001v1h-1.028v1h-1v1h-1.001v1.029h-1v1h-1.028v1h-1.001
	v1.029h-1v1h-1.028v1h-1v1h-1.001v1.029h-1v1h-1.028v1h-1.001v1.029h-1v1h-1.028v1h-1.001v1h-1v1.029h-1.028v1h-1v2h-1.001v1.029h-1
	v1h-1.028v1h-1.001v1.029h-1v1h-1.028v2h-1.001v1.029h-1v1h-1.028v2.029h-1.001v1h-1v1h-1v4.03h1v4.029h1v3.03h1.001v5.058h1.028
	v4.03h1v5.03h1.001v3.029h1.028v4.03h5.03v1h18.146v-1h8.087v-1.001h8.06v-1.028h4.029v-1h6.059v-1h4.029v-1h3.029v-1.029h3.029v-1
	h4.029v-1h2.029v-1.029h4.029v-1h2.029v-1h3.029v-1h3.028v-1.029h3.029v-1h1.001v-1h2v-1h3.029v-1.029h3.029v-1h2.029v-1h2v-1.029
	h2.029v-1h2.029v-1h2v-1h2.029v-1.029h2v-1h2.029v-1h1v-1.029h2.029v-1h3.029v-2h3.029v-1.029h2v-1h1.029v-1h2v-1h1.029v-1.029h2v-1
	h2.029v-1h1v-1.029h2.029v-1h2v-1h1.029v-1h1v-1.029h2v-1h2.029v-1h1v-1.029h2.029v-1h1v-1h2.029v-1h1v-1.029h2.029v-1h1v-1h2.029
	v-1h1v-1.029h1v-1h1.029v-1h2v-2.029h1v-2h1.029v-3.029h1v-4.03h1v-2.029h1.029v-3.029h1v-3.029h1v-3.001h1.029v-2.029h1v-3.029h1
	v-2h1v-3.029h1.029v-3.029h1v-2.029h1v-4.029h1.029v-3.029h1V64.53h-1V60.5h-1.029v-1.029h-1v-1h-1v-1h-1.029v-1h-1v-1.029h-2v-1
	h-1.029v-1h-4.029v-1h-2.029v-1.029H339.96V52.441z"/>
<path fill-rule="evenodd" clip-rule="evenodd" fill="#C7559F" d="M271.373,293.386h-1.028v3.029h-1v2.001h-1v2.028h-1.029v1.001h-1
	v2.028h-1v1.001h-1.001v1h-2.028v1.028h-1.001v1.001h-4.058v-1.001h-3.001v-1.028h-2.028v-1h-1.001v-1.001h-1.028v-2.028h-1v-2.001
	h-1.001v-1.028h-1.028v-3.029h-1v-3.001h-1.001v-22.177h1.001v-3.029h1v-3.029h1.028v-2.029h1.001v-2.001h1v-1.028h1.028v-1h1.001
	v-1.001h1v-1h1.028v-1.028h8.06v1.028h2.028v1h1.001v1.001h1v2.028h1v2.001h1.029v1.028h1v3.001h1v4.059h1.028v4.029h1.001v15.118
	h-1.001V293.386z M207.816,232.885h-1v13.118h-1.028v14.117h-1.001v10.089h-1v6.029h-1.028v6.06h1.028v4.029h1v4.029h1.001v2.029
	h1.028v3.001h1v2.028h1.001v2.029h1v2.001h1.028v1h1v2.029h1.001v2.028h1.028v1.001h1v1h1.001v2.029h1.028v1h1v1h1.001v1h1v1.029
	h1.028v1h1v1h1.001v1.029h1.028v2h2.001v1.001h1v1.028h1.028v1.001h1.001v1h1v1.028h1.028v1.001h1.001v1h1v1h2.028v1.029h1.001v1h1
	v1h2.029v1h1v1.029h2.029v1h2.028v1h1v1.029h2.001v1h1.028v1h2.001v1.001h2.029v1.028h2.028v1h1.001v1.001h2v1.028h3.029v1h2.029
	v1.001h3.029v1h1v1.028h3.029v1.001h4.029v1h2.029v1h4.029v1.029h4.029v1h8.088v1h10.088v-1h5.029v-1h3.029v-1.029h3.029v-1h1v-1
	h1.029v-2.029h-1.029v-1h-1v-1.001h-1v-1h-1.029v-1.028h-1v-1.001h-1v-1h-1.029v-1.028h-1v-1.001h-1v-1h-1.001v-2.029h-2.028v-1h-1
	v-2.029h-1.029v-1h-1v-1h-1v-2.029h-1.029v-1h-1v-2.001h-1v-2.028h-1.001v-2.029h-1.028v-2.001h-1v-2.029h-1v-4.029h-1.029v-3.029
	h-1v-5.029h-1v-14.118h1V267.18h-1v-3.029h-1.029v-3.029h-1v-2.029h-1v-2.001h-1.001v-1h-1.028v-2.029h-1v-2h-1.001v-1.029h-1.028
	v-1h-1v-1h-1v-2.029h-1.029v-1h-1v-1h-1v-1.029h-1.001v-1h-2.028v-1h-1.001v-1.029h-1.028v-1h-1v-1h-1v-1.001h-2.029v-1.028h-1
	v-1.001h-2.029v-1h-1v-1h-2.029v-1.029h-1v-1h-2.029v-1h-2v-1.029h-2.029v-1h-2.001v-1h-2.028v-1h-2.029v-1.029h-2.001v-1h-2.028v-1
	h-2.001v-1.029h-4.058v-1h-2.001v-1h-2.028v-1.001h-3.029v-1.028h-3.029v-1h-5.03v-1.001h-5.029v-1h-4.058v-1.028h-4.029v-1.001
	h-1.001V232.885z"/>
<path fill-rule="evenodd" clip-rule="evenodd" fill="#C7559F" d="M132.143,294.386h-1v3.029h-1v2.029h-1.029v2.001h-1v1h-1v2.029h-1
	v1h-2.029v1.028h-8.059v-1.028h-1.029v-1h-1v-1.001h-1v-1.028h-1.029v-1h-1v-2.001h-1v-2.029h-1.029v-3.029h-1v-4.029h-1v-17.147h1
	v-5.029h1v-4.029h1.029v-2.029h1v-2.001h1v-1.028h1.029v-1h1v-1.001h1v-1h1.029v-1.028h1v-1.001h4.029v1.001h4.03v1.028h1.029v1h1
	v2.001h1v1.028h1v2.001h1.029v2.029h1v3.029h1v3.029h1.029v19.147h-1.029V294.386z M137.201,221.797v1h-3.029v1.029h-2.029v1h-2v1
	h-2.029v1.029h-2v1h-2.029v1h-2.029v1h-2v1.029h-2.029v1h-1v1h-2.029v1.029h-2v1h-1.029v1h-2v1.001h-1.029v1.028h-1v1.001h-1v1
	h-2.029v1h-1v1.029h-1v1h-1.029v1h-1v1.029h-1v1H98.85v1h-1v1h-1v1.029h-1v2H94.82v1.029h-1v1h-1v2.001h-1.029v1.028h-1v3.001h-1
	v1.028h-1.029v4.03h-1v2h-1v6.059h-1v10.089h1v25.206h-1v5.029h-1.029v4.029h-1v2.029h-1v2.001h-1.029v2.029h-1v2.028h-1v1.001
	h-1.029v2h-1v1.029h-1v2h-1v1h-1.029v1.029h-1v1h-1v1h-1.029v2.029h-1v1h-1v1.001h-1.029v1.028h-1v1h-1v1.001h-1v1.028h-1.029v1h-1
	v1.001h-1v1h-1.029v3.029h2.029v1h2.029v1.029h3.001v1h7.087v1h12.088v-1h5.059v-1h5.029v-1.029h4.03v-1h2.029v-1h2.029v-1.001
	h4.029v-1.028h2v-1h2.029v-1.001h2.029v-1h2v-1.028h2.029v-1.001h2v-1h2.029v-1.028h2.029v-1.001h2v-1h1v-1h2.029v-1.029h1v-1h2.029
	v-1h1v-1.029h1.029v-1h2v-1h1v-1h2.029v-1.029h1v-1h1.029v-1h1v-1.001h1v-1.028h2.029v-1h1v-1.001h1v-1.028h1.029v-1.001h1v-1h1v-1
	h1.029v-1.029h1v-1h1v-1h1.029v-1.029h1v-2h1v-1h1v-1.029h1.029v-1h1v-2.001h1v-1.028h1.029v-1h1v-2.029h1v-2.001h1.029v-2.028h1
	v-2.001h1v-2.029h1v-3.029h1.029v-3h1v-10.089h-1v-4.029h-1.029v-7.059h-1v-13.118h-1v-14.117h-1v-25.206h-5.058v1.028h-4.03v1
	h-3.029v1.001h-5.058v1h-3v1.028h-2.029v1.001h-5.058v1H137.201z"/>
<polygon fill-rule="evenodd" clip-rule="evenodd" fill="#FBCA0D" points="352.077,128.031 351.048,128.031 351.048,129.06 
	350.048,129.06 350.048,130.061 348.019,130.061 348.019,131.061 347.019,131.061 347.019,132.061 345.019,132.061 345.019,133.09 
	343.989,133.09 343.989,134.09 341.989,134.09 341.989,135.09 340.96,135.09 340.96,136.119 338.96,136.119 338.96,137.119 
	337.931,137.119 337.931,138.12 335.931,138.12 335.931,139.12 334.931,139.12 334.931,140.148 332.901,140.148 332.901,141.149 
	330.872,141.149 330.872,142.149 329.872,142.149 329.872,143.178 327.843,143.178 327.843,144.178 326.843,144.178 
	326.843,145.178 324.843,145.178 324.843,146.179 322.813,146.179 322.813,147.208 320.784,147.208 320.784,148.208 
	319.784,148.208 319.784,149.208 317.755,149.208 317.755,150.208 315.755,150.208 315.755,151.237 313.726,151.237 
	313.726,152.237 311.726,152.237 311.726,153.237 310.696,153.237 310.696,154.266 308.696,154.266 308.696,155.267 
	306.667,155.267 306.667,156.267 304.666,156.267 304.666,157.267 302.638,157.267 302.638,158.296 301.638,158.296 
	301.638,159.296 299.608,159.296 299.608,160.296 296.579,160.296 296.579,161.325 293.55,161.325 293.55,162.326 291.55,162.326 
	291.55,163.326 289.521,163.326 289.521,164.326 286.491,164.326 286.491,165.355 284.49,165.355 284.49,166.355 281.461,166.355 
	281.461,167.355 280.433,167.355 280.433,168.355 277.403,168.355 277.403,169.384 273.374,169.384 273.374,170.385 
	271.373,170.385 271.373,171.385 267.315,171.385 267.315,172.414 265.315,172.414 265.315,173.414 262.286,173.414 
	262.286,174.414 257.228,174.414 257.228,175.415 253.198,175.415 253.198,176.443 248.168,176.443 248.168,177.444 243.11,177.444 
	243.11,178.444 238.08,178.444 238.08,179.472 233.022,179.472 233.022,180.473 204.787,180.473 204.787,186.502 205.788,186.502 
	205.788,195.591 206.816,195.591 206.816,211.709 211.846,211.709 211.846,212.738 216.904,212.738 216.904,213.738 
	220.934,213.738 220.934,214.739 222.935,214.739 222.935,215.767 227.992,215.767 227.992,216.767 232.022,216.767 
	232.022,217.768 236.052,217.768 236.052,218.768 241.109,218.768 241.109,219.796 249.169,219.796 249.169,220.797 
	254.227,220.797 254.227,221.797 264.314,221.797 264.314,222.797 270.345,222.797 270.345,223.827 301.638,223.827 
	301.638,222.797 311.726,222.797 311.726,221.797 314.755,221.797 314.755,220.797 318.784,220.797 318.784,219.796 
	321.813,219.796 321.813,218.768 323.813,218.768 323.813,217.768 325.843,217.768 325.843,216.767 327.843,216.767 
	327.843,215.767 328.872,215.767 328.872,214.739 329.872,214.739 329.872,213.738 331.901,213.738 331.901,212.738 
	332.901,212.738 332.901,211.709 333.901,211.709 333.901,209.708 334.931,209.708 334.931,208.708 335.931,208.708 
	335.931,206.679 336.931,206.679 336.931,205.679 337.931,205.679 337.931,202.65 338.96,202.65 338.96,199.621 339.96,199.621 
	339.96,195.591 340.96,195.591 340.96,193.562 341.989,193.562 341.989,189.532 342.989,189.532 342.989,186.502 343.989,186.502 
	343.989,181.473 345.019,181.473 345.019,175.415 346.019,175.415 346.019,169.384 347.019,169.384 347.019,163.326 
	348.019,163.326 348.019,156.267 349.048,156.267 349.048,152.237 350.048,152.237 350.048,147.208 351.048,147.208 
	351.048,143.178 352.077,143.178 352.077,139.12 353.077,139.12 353.077,135.09 354.077,135.09 354.077,130.061 355.106,130.061 
	355.106,127.031 352.077,127.031 "/>
<polygon fill-rule="evenodd" clip-rule="evenodd" fill="#FBCA0D" points="19.175,127.031 20.176,127.031 20.176,131.061 
	21.176,131.061 21.176,136.119 22.205,136.119 22.205,139.12 23.205,139.12 23.205,143.178 24.205,143.178 24.205,146.179 
	25.234,146.179 25.234,153.237 26.234,153.237 26.234,157.267 27.234,157.267 27.234,163.326 28.234,163.326 28.234,168.355 
	29.263,168.355 29.263,176.443 30.264,176.443 30.264,178.444 31.264,178.444 31.264,183.502 32.292,183.502 32.292,187.532 
	33.293,187.532 33.293,192.561 34.293,192.561 34.293,195.591 35.322,195.591 35.322,197.62 36.322,197.62 36.322,201.65 
	37.322,201.65 37.322,203.65 38.322,203.65 38.322,206.679 39.351,206.679 39.351,207.679 40.352,207.679 40.352,209.708 
	41.352,209.708 41.352,210.708 42.38,210.708 42.38,211.709 43.381,211.709 43.381,212.738 44.381,212.738 44.381,213.738 
	45.41,213.738 45.41,214.739 47.41,214.739 47.41,215.767 48.41,215.767 48.41,216.767 49.439,216.767 49.439,217.768 
	51.439,217.768 51.439,218.768 53.469,218.768 53.469,219.796 57.498,219.796 57.498,220.797 61.527,220.797 61.527,221.797 
	65.585,221.797 65.585,222.797 73.645,222.797 73.645,223.827 103.908,223.827 103.908,222.797 112.996,222.797 112.996,221.797 
	120.055,221.797 120.055,220.797 127.113,220.797 127.113,219.796 132.143,219.796 132.143,218.768 138.202,218.768 
	138.202,217.768 144.26,217.768 144.26,216.767 149.29,216.767 149.29,215.767 152.319,215.767 152.319,214.739 154.348,214.739 
	154.348,213.738 160.406,213.738 160.406,212.738 163.436,212.738 163.436,211.709 166.465,211.709 166.465,194.59 167.465,194.59 
	167.465,185.502 168.465,185.502 168.465,180.473 143.26,180.473 143.26,179.472 134.172,179.472 134.172,178.444 128.114,178.444 
	128.114,177.444 125.084,177.444 125.084,176.443 120.055,176.443 120.055,175.415 118.025,175.415 118.025,174.414 
	113.996,174.414 113.996,173.414 109.967,173.414 109.967,172.414 106.938,172.414 106.938,171.385 103.908,171.385 
	103.908,170.385 100.879,170.385 100.879,169.384 97.85,169.384 97.85,168.355 96.85,168.355 96.85,167.355 93.82,167.355 
	93.82,166.355 90.791,166.355 90.791,165.355 88.762,165.355 88.762,164.326 85.761,164.326 85.761,163.326 83.732,163.326 
	83.732,162.326 80.703,162.326 80.703,161.325 79.703,161.325 79.703,160.296 76.674,160.296 76.674,159.296 75.673,159.296 
	75.673,158.296 73.645,158.296 73.645,157.267 70.615,157.267 70.615,156.267 68.586,156.267 68.586,155.267 67.586,155.267 
	67.586,154.266 64.557,154.266 64.557,153.237 62.556,153.237 62.556,152.237 61.527,152.237 61.527,151.237 59.527,151.237 
	59.527,150.208 57.498,150.208 57.498,149.208 55.498,149.208 55.498,148.208 53.469,148.208 53.469,147.208 52.468,147.208 
	52.468,146.179 50.439,146.179 50.439,145.178 48.41,145.178 48.41,144.178 47.41,144.178 47.41,143.178 45.41,143.178 
	45.41,142.149 43.381,142.149 43.381,141.149 42.38,141.149 42.38,140.148 40.352,140.148 40.352,139.12 39.351,139.12 
	39.351,138.12 37.322,138.12 37.322,137.119 36.322,137.119 36.322,136.119 34.293,136.119 34.293,135.09 33.293,135.09 
	33.293,134.09 31.264,134.09 31.264,133.09 30.264,133.09 30.264,132.061 28.234,132.061 28.234,131.061 27.234,131.061 
	27.234,130.061 26.234,130.061 26.234,129.06 24.205,129.06 24.205,128.031 23.205,128.031 23.205,127.031 22.205,127.031 
	22.205,126.031 20.176,126.031 20.176,125.031 19.175,125.031 "/>
<path fill-rule="evenodd" clip-rule="evenodd" fill="#1D1D1D" d="M202.759,276.239h1.028v-6.029h1v-10.089h1.001v-14.117h1.028
	v-13.118h1v-19.147h1.001v1.001h4.029v1.028h4.058v1h5.029v1.001h5.03v1h3.029v1.028h3.029v1.001h2.028v1h2.001v1h4.058v1.029h2.001
	v1h2.028v1h2.001v1.029h2.029v1h2.028v1h2.001v1h2.029v1.029h2v1h2.029v1h1v1.029h2.029v1h1v1h2.029v1.001h1v1.028h2.029v1.001h1v1
	h1v1h1.028v1.029h1.001v1h2.028v1h1.001v1.029h1v1h1v1h1.029v2.029h1v1h1v1h1.028v1.029h1.001v2h1v2.029h1.028v1h1.001v2.001h1
	v2.029h1v3.029h1.029v3.029h1v23.177h-1v14.118h1v5.029h1v3.029h1.029v4.029h1v2.029h1v2.001h1.028v2.029h1.001v2.028h1v2.001h1v1
	h1.029v2.029h1v1h1v1h1.029v2.029h1v1h2.028v2.029h1.001v1h1v1.001h1v1.028h1.029v1h1v1.001h1v1.028h1.029v1h1v1.001h1v1h1.029
	v2.029h-1.029v1h-1v1h-3.029v1.029h-3.029v1h-5.029v1H291.55v-1h-8.088v-1h-4.029v-1.029h-4.029v-1h-2.029v-1h-4.029v-1.001h-3.029
	v-1.028h-1v-1h-3.029v-1.001h-2.029v-1h-3.029v-1.028h-2v-1.001h-1.001v-1h-2.028v-1.028h-2.029v-1.001h-2.001v-1h-1.028v-1h-2.001
	v-1.029h-1v-1h-2.028v-1h-2.029v-1.029h-1v-1h-2.029v-1h-1v-1h-1.001v-1.029h-2.028v-1h-1v-1h-1.001v-1.001h-1.028v-1.028h-1v-1
	h-1.001v-1.001h-1.028v-1.028h-1v-1.001h-2.001v-2h-1.028v-1.029h-1.001v-1h-1v-1h-1.028v-1.029h-1v-1h-1.001v-1h-1v-1h-1.028
	v-2.029h-1.001v-1h-1v-1.001h-1.028v-2.028h-1.001v-2.029h-1v-1h-1.028v-2.001h-1v-2.029h-1.001v-2.028h-1v-3.001h-1.028v-2.029
	h-1.001v-4.029h-1v-4.029h-1.028V276.239z M168.465,197.62h1v-8.088h1.029v-8.059h1v-6.059h1v-6.03h1.029v-2.029h1v-4.03h1v-5.03
	h1.029v-3.029h1v-3.029h1v-3.029h1v-3.029h1.029v-2h1v-2.029h1v-3.029h1.029v-2h1v-2.029h1v-1h1.029v-1h2v1h1.001v3.029h1.028v2h1
	v2.029h1.001v3.029h1.028v2h1v5.058h1.001v3.029h1.028v3.001h1v4.058h1v4.03h1.001v4.029h1.028v4.03h1v8.059h1.001v8.059h1.028
	v8.088h1v48.384h-1v14.117h-1.028v9.06h-1.001v7.059h-1v5.059h-1.028v6.03h-1.001v4.029h-1v9.088h-1v4.03H195.7v4.029h-1.001v8.059
	h-1v4.03h-1.028v3.029h-1.001v7.059h-1v4.029h-1.028v5.059h-2.001v-3.029h-1v-2.029h-1.029v-3.029h-1v-4.029h-1v-3.001h-1.029
	v-4.058h-1v-5.03h-1v-3.029h-1.029v-3.029h-1v-5.029h-1v-5.03h-1v-5.059h-1.029v-4.029h-1v-4.029h-1v-8.06h-1.029v-6.059h-1v-7.059
	h-1v-11.089h-1.029v-6.059h-1v-34.266h1v-3.029h-1V197.62z M204.787,184.502h-1v-5.03h10.088v1.001h19.147v-1.001h5.058v-1.028h5.03
	v-1h5.058v-1.001h5.03v-1.028h4.029v-1h5.059v-1h3.029v-1h2v-1.029h4.058v-1h2.001v-1h4.029v-1.029h3.029v-1h1.028v-1h3.029v-1
	h2.001v-1.029h3.029v-1h2.029v-1h2v-1h3.029v-1.029h3.029v-1h2.029v-1h1v-1.029h2.028v-1h2.001v-1h2.029v-1h2v-1.029h1.029v-1h2v-1
	h2.029v-1.029h2v-1h2.029v-1h1v-1h2.029v-1.029h2.029v-1h2v-1h1v-1h2.029v-1.029h1v-1h2.029v-1h2.029v-1.029h1v-1h2v-1h1.029v-1h2
	v-1.029h1.029v-1h2v-1h1.029v-1.029h2v-1h1v-1h2.029v-1h1v-1.029h1.029v-1h2v-1h1.029v-1h1v3h-1v2.029h-1.029v5.03h-1v4.029h-1
	v4.058h-1.029v4.03h-1v5.03h-1v4.03h-1.029v7.059h-1v6.059h-1v6.03h-1v6.059h-1.029v5.029h-1v3.029h-1v4.03h-1.029v2.029h-1v4.029
	h-1v3.029h-1.029v3.029h-1v1h-1v2.029h-1v1h-1.029v2.001h-1v1.028h-1v1h-2.029v1.001h-1v1.028h-1.029v1h-2v1.001h-2.029v1h-2v1.028
	h-3.029v1.001h-4.029v1h-3.029v1h-10.088v1.029h-31.293v-1.029h-6.03v-1h-10.088v-1h-5.058v-1.001h-8.06v-1.028h-5.058v-1h-4.029
	v-1.001h-4.03v-1h-5.058v-1.028h-2.001v-1.001h-4.029v-1h-5.059v-1.028h-5.029v-16.118h-1.028v-9.089h-1.001V184.502z
	 M208.817,114.942h-1.001v2h-1v1.029h-1.028v1h-1.001v2h-1v1.029h-1.028v1h-1.001v1h-2.028v1.029h-1.001v1h-2v1h-3.029v1h-13.117v-1
	h-2.029v-1h-2v-1h-2.029v-1.029h-1v-1h-1.029v-1h-1v-1.029h-1v-1h-1.029v-1h-1v-1h-1v-2.029h-1v-2.029h-1.029V99.824h1.029v-2.029
	h7.059v-1h2v-1.029h1.029v-1h1v-2h1v-8.088h3.029v-1h11.088v1h2.028v1.029h2.029v8.059h1v1h1v1h1.001v1.029h3.029v1h5.058v1h1.001
	v2.029h1v9.059h-1V114.942z M372.253,80.648h-1.029v4.029h-1v2.029h-1v3.029h-1.029v3.029h-1v2h-1v3.029h-1v2.029h-1.029v3.001h-1
	v3.029h-1v3.029h-1.029v2.029h-1v4.03h-1v3.029h-1.029v2h-1v2.029h-2v1h-1.029v1h-1v1.029h-1v1h-2.029v1h-1v1h-2.029v1.029h-1v1
	h-2.029v1h-1v1h-2.029v1.029h-1v1h-2.029v1h-2v1.029h-1v1h-1.029v1h-2v1h-2.029v1.029h-1v1h-2.029v1h-2v1.029h-1.029v1h-2v1h-1.029
	v1h-2v1.029h-3.029v2h-3.029v1h-2.029v1.029h-1v1h-2.029v1h-2v1.029h-2.029v1h-2v1h-2.029v1h-2.029v1.029h-2v1h-2.029v1h-3.029
	v1.029h-3.029v1h-2v1h-1.001v1h-3.029v1.029h-3.028v1h-3.029v1h-2.029v1h-4.029v1.029h-2.029v1h-4.029v1h-3.029v1.029h-3.029v1
	h-4.029v1h-6.059v1h-4.029v1.028h-8.06v1.001h-8.087v1h-18.146v-1h-5.03v-4.03h-1.028v-3.029h-1.001v-5.03h-1v-4.03h-1.028v-5.058
	h-1.001v-3.03h-1v-4.029h-1v-4.03h1v-1h1v-1h1.001v-2.029h1.028v-1h1v-1.029h1.001v-2h1.028v-1h1v-1.029h1.001v-1h1.028v-1h1v-1.029
	h1.001v-2h1v-1h1.028v-1.029h1v-1h1.001v-1h1.028v-1h1v-1.029h1.001v-1h1.028v-1h1v-1.029h1.001v-1h1v-1h1.028v-1h1v-1.029h1.001v-1
	h1.028v-1h1v-1.029h1.001v-1h1v-1h1.028v-1h1.001v-1.029h1v-1h2.029v-1h1v-1h1.028v-1.029h1v-1h1.001v-1h2.028v-1.029h1.001v-1h1v-1
	h1.028v-1h1.001v-1.029h2.028v-1h1v-1h1.001v-1.029h1v-1h2.029v-1h1v-1h2.029v-1.029h1v-1h1.028v-1h2.001v-1h1v-1.029h2.029v-1h1v-1
	h2.029v-1.029h1v-1h2.029v-1h1v-1h2.029v-1.029h1v-1h2.028v-1h1.001v-1.029h3.029v-1h1v-1h2.029v-1h2v-1.029h2.029v-1h2.028v-1
	h1.001v-1h2V69.56h2.029v-1h2.029v-1h2V66.53h3.029v-1h2.029v-1h2v-1h2.029v-1.029h3.029v-1h2v-1h2.029v-1.029h4.029v-1h2.029v-1
	h3.029v-1h3.029v-1.029h5.029v-1h3.029v-1h6.059v-1h4.029v-1.029h18.146v1.029h2.029v1h4.029v1h1.029v1h2v1.029h1v1h1.029v1h1v1h1
	V60.5h1.029v4.029h1v13.089h-1V80.648z M184.612,132.061v1.029h-1v2h-1.029v2.029h-1v2h-1v2.029h-1.029v1h-2v-1h-1v-2.029h-1.029v-1
	h-1v-2h-1v-1.029h-1.029v-1h-1v-1h-1v-1.029h-1.029v-1h-1v-2h-1v-1.029h-1v-1h-1.029v-1h-1v-1h-1v-1.029h-1.029v-1h-1v-1h-1v-1.029
	h-1.029v-1h-1v-1h-1v-1h-1v-1.029h-1.029v-1h-1v-1h-1v-1.029h-1.029v-1h-1v-1h-1v-1h-1.029v-1.029h-1v-1h-1v-1h-1v-1h-1.029v-1.029
	h-2v-1h-1.029v-1h-1v-1.029h-1v-1h-1.029v-1h-1v-1h-2v-1.029h-1.029v-1h-1v-1h-1v-1.029h-2.029v-1h-1v-1h-1.029v-1h-2v-1.029h-1v-1
	h-2.029v-1h-1v-1h-1.029v-1.029h-1v-1h-2.029v-1h-2v-1.029h-1v-1h-2.029v-1h-1v-1h-1.029v-1.029h-2v-1h-1.029v-1h-2v-1.029h-2.029
	v-1h-1v-1h-2.029v-1h-2v-1.029H98.85v-1h-2v-1H94.82v-1h-2V69.56h-2.029v-1h-2.029v1h1.029v1.029h1v1h2.029v1h1v1h2.029v1.029h2v1
	h2.029v1h2v1h2.029v1.029h1v1h2.029v1h1v1.029h2.029v1h1v1h2.029v1h1v1.029h2.029v1h1v1h2v1.029h1.029v1h1v1h2.029v1h1v1.029h1v1
	h2.029v1h1v1h1v1.029h1.029v1h2v1h1.029v1.029h1v1h1v1h1.029v1h2v1.029h1v1h1.029v1h1v1.029h1v1h2.029v1h1v1h1.029v1.029h1v1h1v1h1
	v1h1.029v1.029h1v1h1v1h1.029v1.029h1v1h1v1h1.029v1h1v1.029h1v1h1v1h1.029v1.029h1v1h1v1h1.029v1h1v1.029h1v2h1.029v1h1v1.029h1v1
	h1v1h1.029v1.029h1v2h1v1h1.029v1.029h1v1h1v2.029h1.029v1h1v3.029h-1v3h-1.029v4.058h-1v3.001h-1v3.029h-1.029v5.059h-1v4.029h-1
	v6.03h-1.029v2.029h-1v1H144.26v-1h-8.059v-1.001h-6.059v-1.028h-4.029v-1h-4.058v-1h-6.03v-1h-1.029v-1.029h-5.03v-1h-2.029v-1
	h-4.029v-1.029h-3.029v-1H97.85v-1h-2v-1H93.82v-1.029h-4.029v-1h-2.029v-1h-2v-1h-2.029v-1.029h-2.029v-1h-2v-1h-3.029v-1.029h-1
	v-1h-2.029v-1h-2.029v-1h-3.029v-1.029h-1v-1h-2v-1h-2.029v-1.029h-2.029v-1h-2v-1h-2.029v-1h-2v-1.029h-1.029v-1h-2v-1h-1.029v-1
	h-2v-1.029H47.41v-1h-1v-1h-2.029v-1.029h-1v-1h-2.029v-1h-2v-1h-1.029v-1.029h-1v-1h-2v-1h-1.029v-1.029h-2v-1h-1.029v-1h-1v-1
	h-2.029v-1.029h-1v-1h-2v-1h-1.029v-1h-1v-1.029h-2.029v-1h-1v-1h-1v-1.029h-1.029v-1h-1v-2h-1v-3.029h-1v-4.03h-1.029v-2.029h-1
	v-3.029h-1v-3.029h-1.029v-2h-1v-4.03h-1v-2.029h-1v-4.03H7.059v-2h-1v-2.029h-1v-3.029H4.029v-2h-1v-5.059h-1V63.53h1V60.5h1
	v-1.029h1.029v-2h1v-1h1v-1.029h2.029v-1h1v-1h2.029v-1h3.029v-1.029h22.176v1.029h7.059v1h3.029v1h4.029v1h3.029v1.029h3.029v1
	h4.029v1h2.029v1h3.029V60.5h3.029v1h2v1h2.029v1.029h2.029v1h3.001v1h2.029v1h3.029v1.029h1v1h3.029v-1h-1V66.53h-2.029v-1h-1v-1
	h-4.029v-1h-2.029v-1.029h-1v-1h-3.029v-1h-2.029v-1.029h-3.029v-1h-3.001v-1h-2.029v-1h-2.029v-1.029h-3.029v-1h-3v-1h-4.058v-1
	H47.41v-1.029h-4.029v-1h-4.03v-1h-8.087v-1.029H20.176v1.029h-4.03v1h-4.029v1h-2.029v1.029h-2v1H6.058v1h-1v1H4.029v1.029h-1v2h-1
	v1H1v3.029H0v14.118h1v5.059h1.029v3h1v2.029h1v3.029h1.029v3.029h1v2h1v4.029h1.029v2.029h1v3.029h1v2h1v3.029h1.029v3.029h1v4.03
	h1v3.029h1.029v2h1v4.058h1v4.029h1v4.03h1.029v2h1v4.029h1v4.058h1.029v6.03h1v3.029h1v7.059h1.029v6.059h1v5.03h1v6.058h1v3.029
	h1.029v6.03h1v4.029h1v2.029h1.029v4.03h1v4.029h1v3.029h1.029v1h1v4.029h1v1.029h1v2h1.029v1.001h1v1.028h1v1h1.029v1.001h1v1.028
	h1v1h2.029v1.001h1v1h2.029v1.028h2v1.001h4.058v-1.001h-2.029v-1.028h-2.029v-1h-2v-1.001H48.41v-1h-1v-1.028h-2v-1.001h-1.029v-1
	h-1v-1.028h-1v-1.001h-1.029v-1h-1v-2.029h-1v-1h-1.029v-3.029h-1v-2h-1v-4.03h-1v-2.028h-1.029v-3.03h-1v-5.029h-1v-4.029h-1.029
	v-5.059h-1v-2.001h-1v-8.087h-1.029v-5.03h-1v-6.059h-1v-4.03h-1v-7.059h-1.029v-3.001h-1v-4.058h-1v-3h-1.029v-5.059h-1v-4.029h-1
	v-2h1v1h2.029v1h1v1h1v1.029h2.029v1h1v1h1v1h2.029v1.029h1v1h2.029v1h1v1.029h2.029v1h1v1h2.029v1h1v1.029h2.029v1h1v1h2.029v1.029
	h2v1h1v1h2.029v1h2.029v1.029h1v1h2.029v1h2v1h2.029v1.029h2v1h1.029v1h2v1.029h3.029v1h1v1h2.029v1h3.029v1.029h2.029v1h1v1h3.029
	v1.029h1v1h3.029v1h2.029v1h3.001v1.029h2.029v1h3.029v1h3.029v1h1v1.029h3.029v1h3.029v1h3.029v1.029h3.029v1h4.029v1h4.029v1
	h2.029v1.028h5.03v1.001h3.029v1h6.058v1.028h9.088v1.001h25.206v5.029h-1v9.088h-1v17.119h-3.029v1.028h-3.029v1h-6.059v1.001
	h-2.029v1.028h-3.029v1h-5.03v1.001h-6.058v1h-2v2.029h1v1h2v-1h5.058v-1.001h2.029v-1.028h3v-1h5.058v-1.001h3.029v-1h4.03v-1.028
	h5.058v25.206h1v14.117h1v13.118h1v7.059h1.029v4.029h1v10.089h-1v3h-1.029v3.029h-1v2.029h-1v2.001h-1v2.028h-1.029v2.001h-1v2.029
	h-1v1h-1.029v1.028h-1v2.001h-1v1h-1.029v1.029h-1v1h-1v2h-1v1.029h-1.029v1h-1v1h-1v1.029h-1.029v1h-1v1h-1v2.029h2v-1.028h1.029
	v-1.001h1v-1h1v-1h1.029v-1.029h1v-1h1v-1h1v-2.029h1.029v-1h1v-1h1v-2.029h1.029v-1h1v-1.001h1v-2.028h1.029v-2.029h1v-2.001h1v-1
	h1v-2.029h1.029v-3.029h1v-3.029h1v-1h1.029v4.029h1v6.059h1v4.03h1.029v5.029h1v4.029h1v3.029h1v4.03h1.029v4.058h1v4.03h1v2h1.029
	v4.029h1v3.029h1v3.029h1.029v4.03h1v1h2.001v-3.001h1.028v-2.029h1v-6.059h1.001v-4.029h1.028v-6.03h1v-3.029h1.001v-6.059h1.028
	v-5.029h1v-6.059h1v-4.03h1.001v-6.059h1.028v-6.029h1v-2.029h1.001v3.029h1.028v3.029h1v3.001h1.001v2.028h1.028v3.029h1v2.001
	h1.001v1.028h1v2.001h1.028v1.028h1v2.001h1.001v1h1.028v2.029h1v1h1.001v1h1.028v1.029h1v1h1.001v2.029h1v1h1.028v1h1v1.001h1.001
	v1.028h1.028v1.001h2.001v1h1v1.028h1.028v1.001h1.001v1h1v1h1.028v1.029h2.001v1h1.028v1h1v1h1.001v1.029h2.028v1h1.001v1h2.028
	v1.029h1.001v1h2.028v1h1v1.001h2.001v1.028h2.029v1h1v1.001h2.029v1.028h2.028v1h3.001v1.001h1.028v1h3.029v1.028h2.001v1.001
	h2.029v1h4.029v1h2.028v1.029h4.03v1h3.029v1h3.028v1.029h6.03v1h18.176v-1h2v-1.029h4.059v-1h2v-1h2.029v-2.029h1v-4.029h-1v-1.001
	h-1v-1h-1.029v-1.028h-1v-1.001h-1v-1h-1.029v-2.029h-1v-1h-1v-1h-1.029v-1.029h-1v-1h-1v-1h-1.001v-1.029h-1.028v-1h-1v-1h-1v-1
	h-1.029v-2.029h-1v-1h-1v-2.029h-1.029v-2.001h-1v-1.028h-1v-3.001h-1.001v-3.029h-1.028v-2.029h-1v-4.029h-1v-25.206h1v-10.089h-1
	v-6.029h-1.029v-5.059h-1v-2.001h-1v-2.028h-1.029v-2.001h-1v-2.029h-1v-1h-1.001v-2.029h-1.028v-1h-1v-1h-1.001v-1.029h-1.028v-2
	h-1v-1h-1v-1.029h-1.029v-1h-1v-1h-1v-1.029h-1.001v-1h-1.028v-1h-2.001v-1.001h-1.028v-1.028h-1v-1.001h-1v-1h-2.029v-1h-2.001
	v-1.029h-1.028v-1h-1v-1h-2.029v-1.029h-2.001v-1h-2.028v-1h-1v-1h-2.029v-1.029h-2.001v-1h-2.028v-1h-4.03v-1.029h-1v-1h3.001v1
	h7.087v1.029h5.03v1h12.116v1h34.294v-1h6.059v-1h4.029v-1.029h3.029v-1h3.029v-1h3.029v-1.001h2v-1.028h2.029v-1h1v-1.001h2.029v-1
	h1v-1.028h1v-1.001h1.029v-1h1v-1.028h1v-2.001h1v-1h1.029v-3.029h1v-3.029h1v-1h1.029v-4.03h1v-3.029h1v-4.029h1.029v-5.059h1
	v-4.029h1v-6.059h1v-5.03h1.029v-5.03h1v-5.059h1v-6.03h1.029v-7.059h1v-4.03h1v-4.058h1.029v-4.029h1v-4.03h1v-2h1v-4.029h1.029
	v-4.058h1v-2h1v-4.03h1.029v-2.029h1v-3.03h1v-3h1.029v-3.029h1v-3.029h1v-2.029h1v-3.029h1.029v-2h1v-3.029h1v-2h1.029v-4.058h1v-2
	h1v-3.029h1.029v-5.03h1V64.53h-1v-2.029h-1.029v-2h-1v-2.029h-1v-1h-1.029v-2.029h-2v-1h-1.029v-1h-1v-1h-2v-1.029h-3.029v-1
	h-3.029v-1h-21.205v1h-5.029v1h-5.059v1.029h-2v1h-4.029v1h-3.029v1h-3.029v1.029h-4.029v1h-2.029v1h-2.029v1h-4.029V60.5h-2v1
	h-2.029v1h-2.029v1.029h-3.001v1h-2.028v1h-2.029v1h-1v1.029h-3.029v1h-2.001v1h-1.028v1.029h-2.001v1h-2.028v1h-2.029v1h-2v1.029
	h-1.001v1h-2.028v1h-2.029v1h-2v1.029h-1.029v1h-2v1h-1.001v1.029h-2.028v1h-1.001v1h-2.028v1h-1.001v1.029h-2.028v1h-1v1h-2.029
	v1.029h-1v1h-2.029v1h-1v1h-1.001v1.029h-2.028v1h-1.001v1h-1v1h-1.028v1.029h-2.001v1h-1.028v1h-1v1.029h-1.001v1h-2.028v1h-1.001
	v1h-1v1.029h-1.028v1h-1v1h-2.029v1.029h-1v1h-1.001v1h-1.028v1h-1v1.029h-1.001v1h-1v1h-1.028v1h-1.001v1.029h-1v1h-1.028v1h-1
	v1.029h-1.001v1h-1v1h-1.028v1h-1.001v1.029h-1v1h-1.028v1h-1.001v1.029h-1v1h-1.028v1h-1v1h-1.001v2.029h-1v1h-1.028v1h-1.001
	v1.029h-1v1h-1.028v1h-1.001v1.029h-1v2h-1.028v1h-1.001v1.029h-1v2h-1v1.029h-2.029v-2.029h-1v-3.029h-1.028v-2h-1.001v-2.029h-1
	v-2.029h-1.028v-1h1.028v-1h5.03v-1h2.028v-1.029h2.001v-1h1.028v-1h1v-1h2.029v-1.029h1v-1h1.001v-1h1.028v-2.029h1v-1h1.001
	v-2.029h1v-3.029h1.028v-3.001h1v-10.088h-1v-4.03h-1.028v-2.029h-1v-2h-1.001v-1.029h-1v-1h-1.028v-2h-2.001v-1.029h-1.028v-1
	h-1.001v-1h-1V74.618h1V63.53h1.001v-7.059h1.028v-4.029h1v-6.059h1.001v-4.03h1.028v-6.059h1v-3.029h1.001v-3.029h1v-3.001h1.028
	v-3.029h1v-3.029h1.001v-2.029h1.028v-2h1v-2.029h1.001v-1h1.028v-2.029h1v-2h1.001v-1h1V8.059h1.028v-1h1v-1h2.029V5.03h2.001v-1
	h2.028v-1h8.06v1h3.029v1h2.028v1.029h1.001v1h2.028v1h1v1.029h1.001v2h1v1h1.028v2.029h1.001v3.029h1v9.059h-1v3.03h-1.001v3.029
	h-1.028v2.029h-1v1h-1.001v2h-1v2.029h-1.028v1h-1v3.029h2.028v-2.029h1v-1h1.001v-2h1v-1.029h1.028v-2h1.001v-3.029h1v-3.029h1.028
	v-3.03h1.001v-9.059h-1.001v-4.03h-1.028v-2.029h-1v-1h-1.001V8.059h-1.028v-1h-1v-1h-1.001V5.03h-1v-1h-2.028v-1h-2.029v-1h-3.029
	V1h-10.088v1.029h-2.001v1h-2.028v1h-2.001v1h-1.028v1.029h-1v1h-1.001v1h-1v1.029h-1.028v2h-1.001v1h-1v2.029h-1.028v2.029h-1.001
	v2h-1v2.029h-1.028v3h-1v3.029h-1.001v2.029h-1v4.03h-1.028v4.029h-1.001v3.029h-1v5.03h-1.028v5.059h-1.001v8.059h-1v7.059h-1.028
	v4.03h-1.001v15.118h-2v-1h-2.029v-1h-15.146V71.589h-1v-9.088h-1v-7.059h-1v-6.03h-1.029v-7.059h-1v-4.029h-1v-4.03h-1.029v-3.029
	h-1v-3.029h-1v-3.029h-1.029v-3.029h-1v-2h-1v-3.029h-1v-2.029h-1.029v-2h-1v-1.029h-1v-2h-1.029v-1h-1V7.059h-1v-1h-1.029V5.03h-1
	v-1h-2v-1h-1.029v-1h-3.029V1h-2V0h-9.088v1h-3.029v1.029h-2v1h-1.029v1h-2v1h-1.029v1.029h-1v1h-1v2.029h-1.029v1h-1v2h-1v4.058h-1
	v9.06h1v3.029h1v4.03h2.029v3.029h1v2h1v1.029h1.029v2h1v1h1v1.029h1.029v-3.029h-1.029v-2.029h-1v-1h-1v-2h-1.029v-1.029h-1v-2h-1
	v-3.029h-1.029v-5.059h-1v-6.03h1v-5.059h1.029v-1h1v-2h1V8.059h1.029v-1h1v-1h2.029V5.03h1v-1h2v-1h3.029v-1h7.059v1h3.029v1h2.029
	v1h1v1.029h1.029v1h2v1h1v2.029h1.029v1h1v1h1v2.029h1.029v2.029h1v2h1v3.029h1.029v2h1v2.029h1v3.029h1v3.029h1.029v5.03h1v5.03h1
	v3.029h1.029v6.059h1v4.03h1V60.5h1.029v13.089h1v10.088h-1v1h-2.029v1.029h-2.029v1h-1v1h-1v1.029h-1.029v1h-1v1h-1v2.029h-1v1
	h-1.029v2h-1v3.029h-1v4.03h-1.029v6.059h1.029v4.03h1v4.029h1v1.029h1.029v2h1v1h1v1.029h1v2h2.029v1.029h1v1h1.029v1h2v1h1.029
	v1.029h2v1h7.059v2H184.612z"/>
<polygon fill-rule="evenodd" clip-rule="evenodd" fill="#D3BDC9" points="187.641,337.74 188.641,337.74 188.641,336.74 
	189.642,336.74 189.642,334.71 190.67,334.71 190.67,330.681 191.67,330.681 191.67,323.623 192.671,323.623 192.671,320.593 
	193.699,320.593 193.699,316.563 194.699,316.563 194.699,308.504 195.7,308.504 195.7,304.475 196.729,304.475 196.729,300.445 
	197.729,300.445 197.729,291.357 198.729,291.357 198.729,287.328 199.729,287.328 199.729,281.297 200.758,281.297 
	200.758,276.239 201.758,276.239 201.758,269.18 202.759,269.18 202.759,260.121 203.787,260.121 203.787,246.003 204.787,246.003 
	204.787,197.62 203.787,197.62 203.787,189.532 202.759,189.532 202.759,181.473 201.758,181.473 201.758,173.414 200.758,173.414 
	200.758,169.384 199.729,169.384 199.729,165.355 198.729,165.355 198.729,161.325 197.729,161.325 197.729,157.267 
	196.729,157.267 196.729,154.266 195.7,154.266 195.7,151.237 194.699,151.237 194.699,146.179 193.699,146.179 193.699,144.178 
	192.671,144.178 192.671,141.149 191.67,141.149 191.67,139.12 190.67,139.12 190.67,137.119 189.642,137.119 189.642,134.09 
	188.641,134.09 188.641,133.09 186.641,133.09 186.641,134.09 185.612,134.09 185.612,135.09 184.612,135.09 184.612,137.119 
	183.611,137.119 183.611,139.12 182.583,139.12 182.583,142.149 181.583,142.149 181.583,144.178 180.582,144.178 180.582,146.179 
	179.553,146.179 179.553,149.208 178.553,149.208 178.553,152.237 177.553,152.237 177.553,155.267 176.553,155.267 
	176.553,158.296 175.524,158.296 175.524,163.326 174.524,163.326 174.524,167.355 173.523,167.355 173.523,169.384 
	172.495,169.384 172.495,175.415 171.495,175.415 171.495,181.473 170.494,181.473 170.494,189.532 169.465,189.532 169.465,197.62 
	168.465,197.62 168.465,210.708 169.465,210.708 169.465,213.738 168.465,213.738 168.465,248.003 169.465,248.003 169.465,254.062 
	170.494,254.062 170.494,265.151 171.495,265.151 171.495,272.209 172.495,272.209 172.495,278.268 173.523,278.268 
	173.523,286.328 174.524,286.328 174.524,290.357 175.524,290.357 175.524,294.386 176.553,294.386 176.553,299.445 
	177.553,299.445 177.553,304.475 178.553,304.475 178.553,309.504 179.553,309.504 179.553,312.534 180.582,312.534 
	180.582,315.563 181.583,315.563 181.583,320.593 182.583,320.593 182.583,324.651 183.611,324.651 183.611,327.652 
	184.612,327.652 184.612,331.681 185.612,331.681 185.612,334.71 186.641,334.71 186.641,336.74 187.641,336.74 "/>
<polygon fill-rule="evenodd" clip-rule="evenodd" fill="#86D2DA" points="181.583,84.678 178.553,84.678 178.553,92.766 
	177.553,92.766 177.553,94.766 176.553,94.766 176.553,95.766 175.524,95.766 175.524,96.795 173.523,96.795 173.523,97.795 
	166.465,97.795 166.465,99.824 165.436,99.824 165.436,113.914 166.465,113.914 166.465,115.943 167.465,115.943 167.465,117.972 
	168.465,117.972 168.465,118.972 169.465,118.972 169.465,119.972 170.494,119.972 170.494,120.973 171.495,120.973 
	171.495,122.001 172.495,122.001 172.495,123.001 173.523,123.001 173.523,124.002 174.524,124.002 174.524,125.031 
	176.553,125.031 176.553,126.031 178.553,126.031 178.553,127.031 180.582,127.031 180.582,128.031 193.699,128.031 
	193.699,127.031 196.729,127.031 196.729,126.031 198.729,126.031 198.729,125.031 199.729,125.031 199.729,124.002 
	201.758,124.002 201.758,123.001 202.759,123.001 202.759,122.001 203.787,122.001 203.787,120.973 204.787,120.973 
	204.787,118.972 205.788,118.972 205.788,117.972 206.816,117.972 206.816,116.943 207.816,116.943 207.816,114.942 
	208.817,114.942 208.817,109.884 209.817,109.884 209.817,100.825 208.817,100.825 208.817,98.795 207.816,98.795 207.816,97.795 
	202.759,97.795 202.759,96.795 199.729,96.795 199.729,95.766 198.729,95.766 198.729,94.766 197.729,94.766 197.729,93.766 
	196.729,93.766 196.729,85.707 194.699,85.707 194.699,84.678 192.671,84.678 192.671,83.678 181.583,83.678 "/>
<polygon fill-rule="evenodd" clip-rule="evenodd" fill="#D17572" points="255.228,258.092 254.227,258.092 254.227,259.092 
	253.198,259.092 253.198,260.121 252.198,260.121 252.198,261.122 251.197,261.122 251.197,262.122 250.169,262.122 
	250.169,265.151 249.169,265.151 249.169,268.18 248.168,268.18 248.168,272.209 247.14,272.209 247.14,291.357 248.168,291.357 
	248.168,294.386 249.169,294.386 249.169,297.416 250.169,297.416 250.169,299.445 251.197,299.445 251.197,300.445 
	252.198,300.445 252.198,302.446 253.198,302.446 253.198,303.474 255.228,303.474 255.228,304.475 256.228,304.475 
	256.228,305.475 260.257,305.475 260.257,304.475 262.286,304.475 262.286,303.474 263.286,303.474 263.286,302.446 
	264.314,302.446 264.314,301.446 265.315,301.446 265.315,299.445 266.315,299.445 266.315,297.416 267.315,297.416 
	267.315,294.386 268.345,294.386 268.345,291.357 269.345,291.357 269.345,287.328 270.345,287.328 270.345,276.239 
	269.345,276.239 269.345,270.209 268.345,270.209 268.345,266.151 267.315,266.151 267.315,264.151 266.315,264.151 
	266.315,262.122 265.315,262.122 265.315,261.122 264.314,261.122 264.314,260.121 263.286,260.121 263.286,259.092 
	262.286,259.092 262.286,258.092 261.285,258.092 261.285,257.091 255.228,257.091 "/>
<polygon fill-rule="evenodd" clip-rule="evenodd" fill="#D17572" points="118.025,257.091 117.025,257.091 117.025,258.092 
	114.997,258.092 114.997,259.092 113.996,259.092 113.996,261.122 112.996,261.122 112.996,262.122 111.967,262.122 
	111.967,265.151 110.967,265.151 110.967,268.18 109.967,268.18 109.967,270.209 108.938,270.209 108.938,291.357 109.967,291.357 
	109.967,294.386 110.967,294.386 110.967,296.416 111.967,296.416 111.967,298.417 112.996,298.417 112.996,300.445 
	113.996,300.445 113.996,301.446 114.997,301.446 114.997,303.474 117.025,303.474 117.025,304.475 123.084,304.475 
	123.084,303.474 125.084,303.474 125.084,302.446 126.113,302.446 126.113,300.445 127.113,300.445 127.113,299.445 
	128.114,299.445 128.114,296.416 129.114,296.416 129.114,294.386 130.143,294.386 130.143,291.357 131.143,291.357 131.143,269.18 
	130.143,269.18 130.143,266.151 129.114,266.151 129.114,264.151 128.114,264.151 128.114,262.122 127.113,262.122 127.113,260.121 
	126.113,260.121 126.113,259.092 125.084,259.092 125.084,258.092 124.084,258.092 124.084,257.091 123.084,257.091 
	123.084,256.091 118.025,256.091 "/>
<polygon fill-rule="evenodd" clip-rule="evenodd" fill="#4B4B4B" points="55.498,219.796 55.498,220.797 53.469,220.797 
	53.469,221.797 57.498,221.797 57.498,222.797 60.527,222.797 60.527,223.827 65.585,223.827 65.585,224.827 71.615,224.827 
	71.615,225.827 98.85,225.827 98.85,224.827 111.967,224.827 111.967,223.827 120.055,223.827 120.055,222.797 128.114,222.797 
	128.114,221.797 132.143,221.797 132.143,222.797 130.143,222.797 130.143,223.827 127.113,223.827 127.113,224.827 
	125.084,224.827 125.084,225.827 123.084,225.827 123.084,226.856 121.055,226.856 121.055,227.856 120.055,227.856 
	120.055,228.856 118.025,228.856 118.025,229.856 116.025,229.856 116.025,230.885 114.997,230.885 114.997,231.885 
	112.996,231.885 112.996,232.885 111.967,232.885 111.967,233.915 109.967,233.915 109.967,234.915 108.938,234.915 
	108.938,235.915 106.938,235.915 106.938,236.916 105.938,236.916 105.938,237.944 104.908,237.944 104.908,238.945 
	103.908,238.945 103.908,239.945 101.879,239.945 101.879,240.945 100.879,240.945 100.879,241.974 99.879,241.974 99.879,242.974 
	98.85,242.974 98.85,243.974 97.85,243.974 97.85,245.003 96.85,245.003 96.85,246.003 95.849,246.003 95.849,247.003 
	94.82,247.003 94.82,249.033 93.82,249.033 93.82,250.033 92.82,250.033 92.82,251.033 91.792,251.033 91.792,253.062 
	90.791,253.062 90.791,255.063 89.791,255.063 89.791,256.091 88.762,256.091 88.762,258.092 87.762,258.092 87.762,260.121 
	86.762,260.121 86.762,264.151 85.761,264.151 85.761,267.18 84.732,267.18 84.732,272.209 83.732,272.209 83.732,284.298 
	84.732,284.298 84.732,308.504 83.732,308.504 83.732,311.534 82.732,311.534 82.732,314.563 81.703,314.563 81.703,318.592 
	80.703,318.592 80.703,319.592 79.703,319.592 79.703,321.622 78.674,321.622 78.674,323.623 77.674,323.623 77.674,324.651 
	76.674,324.651 76.674,326.652 75.673,326.652 75.673,327.652 74.645,327.652 74.645,329.681 73.645,329.681 73.645,330.681 
	72.644,330.681 72.644,331.681 71.615,331.681 71.615,332.71 70.615,332.71 70.615,334.71 68.586,334.71 68.586,336.74 
	67.586,336.74 67.586,337.74 66.586,337.74 66.586,338.741 65.585,338.741 65.585,339.769 63.557,339.769 63.557,340.769 
	62.556,340.769 62.556,341.77 61.527,341.77 61.527,343.798 60.527,343.798 60.527,344.799 59.527,344.799 59.527,349.829 
	60.527,349.829 60.527,350.858 62.556,350.858 62.556,351.858 65.585,351.858 65.585,352.858 67.586,352.858 67.586,353.887 
	71.615,353.887 71.615,354.887 85.761,354.887 85.761,353.887 91.792,353.887 91.792,352.858 95.849,352.858 95.849,351.858 
	100.879,351.858 100.879,350.858 104.908,350.858 104.908,349.829 107.938,349.829 107.938,348.829 108.938,348.829 
	108.938,347.829 111.967,347.829 111.967,346.828 113.996,346.828 113.996,345.799 117.025,345.799 117.025,344.799 
	120.055,344.799 120.055,343.798 121.055,343.798 121.055,342.798 123.084,342.798 123.084,341.77 125.084,341.77 125.084,340.769 
	126.113,340.769 126.113,339.769 128.114,339.769 128.114,338.741 130.143,338.741 130.143,337.74 131.143,337.74 131.143,336.74 
	133.172,336.74 133.172,335.74 134.172,335.74 134.172,334.71 136.201,334.71 136.201,333.71 138.202,333.71 138.202,332.71 
	139.202,332.71 139.202,331.681 140.23,331.681 140.23,330.681 142.231,330.681 142.231,329.681 143.26,329.681 143.26,328.681 
	144.26,328.681 144.26,327.652 145.26,327.652 145.26,326.652 146.289,326.652 146.289,325.652 148.29,325.652 148.29,324.651 
	149.29,324.651 149.29,323.623 150.318,323.623 150.318,322.623 151.319,322.623 151.319,321.622 150.318,321.622 150.318,320.593 
	149.29,320.593 149.29,321.622 148.29,321.622 148.29,322.623 147.289,322.623 147.289,323.623 145.26,323.623 145.26,324.651 
	144.26,324.651 144.26,325.652 143.26,325.652 143.26,326.652 142.231,326.652 142.231,327.652 141.23,327.652 141.23,328.681 
	139.202,328.681 139.202,329.681 138.202,329.681 138.202,330.681 136.201,330.681 136.201,331.681 135.172,331.681 135.172,332.71 
	134.172,332.71 134.172,333.71 132.143,333.71 132.143,334.71 131.143,334.71 131.143,335.74 129.114,335.74 129.114,336.74 
	128.114,336.74 128.114,337.74 126.113,337.74 126.113,338.741 124.084,338.741 124.084,339.769 122.055,339.769 122.055,340.769 
	120.055,340.769 120.055,341.77 118.025,341.77 118.025,342.798 116.025,342.798 116.025,343.798 113.996,343.798 113.996,344.799 
	111.967,344.799 111.967,345.799 109.967,345.799 109.967,346.828 105.938,346.828 105.938,347.829 103.908,347.829 
	103.908,348.829 101.879,348.829 101.879,349.829 97.85,349.829 97.85,350.858 92.82,350.858 92.82,351.858 87.762,351.858 
	87.762,352.858 75.673,352.858 75.673,351.858 68.586,351.858 68.586,350.858 65.585,350.858 65.585,349.829 63.557,349.829 
	63.557,348.829 61.527,348.829 61.527,345.799 62.556,345.799 62.556,344.799 63.557,344.799 63.557,343.798 64.557,343.798 
	64.557,342.798 65.585,342.798 65.585,341.77 66.586,341.77 66.586,340.769 67.586,340.769 67.586,339.769 68.586,339.769 
	68.586,338.741 69.615,338.741 69.615,337.74 70.615,337.74 70.615,336.74 71.615,336.74 71.615,334.71 72.644,334.71 
	72.644,333.71 73.645,333.71 73.645,332.71 74.645,332.71 74.645,331.681 75.673,331.681 75.673,330.681 76.674,330.681 
	76.674,328.681 77.674,328.681 77.674,327.652 78.674,327.652 78.674,325.652 79.703,325.652 79.703,324.651 80.703,324.651 
	80.703,322.623 81.703,322.623 81.703,320.593 82.732,320.593 82.732,318.592 83.732,318.592 83.732,316.563 84.732,316.563 
	84.732,312.534 85.761,312.534 85.761,307.504 86.762,307.504 86.762,282.298 85.761,282.298 85.761,272.209 86.762,272.209 
	86.762,266.151 87.762,266.151 87.762,264.151 88.762,264.151 88.762,260.121 89.791,260.121 89.791,259.092 90.791,259.092 
	90.791,256.091 91.792,256.091 91.792,255.063 92.82,255.063 92.82,253.062 93.82,253.062 93.82,252.062 94.82,252.062 
	94.82,251.033 95.849,251.033 95.849,249.033 96.85,249.033 96.85,248.003 97.85,248.003 97.85,247.003 98.85,247.003 
	98.85,246.003 99.879,246.003 99.879,245.003 100.879,245.003 100.879,243.974 101.879,243.974 101.879,242.974 102.908,242.974 
	102.908,241.974 103.908,241.974 103.908,240.945 104.908,240.945 104.908,239.945 106.938,239.945 106.938,238.945 
	107.938,238.945 107.938,237.944 108.938,237.944 108.938,236.916 109.967,236.916 109.967,235.915 111.967,235.915 
	111.967,234.915 112.996,234.915 112.996,233.915 114.997,233.915 114.997,232.885 117.025,232.885 117.025,231.885 
	118.025,231.885 118.025,230.885 120.055,230.885 120.055,229.856 122.055,229.856 122.055,228.856 124.084,228.856 
	124.084,227.856 126.113,227.856 126.113,226.856 128.114,226.856 128.114,225.827 130.143,225.827 130.143,224.827 
	132.143,224.827 132.143,223.827 134.172,223.827 134.172,222.797 137.201,222.797 137.201,220.797 136.201,220.797 
	136.201,218.768 132.143,218.768 132.143,219.796 127.113,219.796 127.113,220.797 120.055,220.797 120.055,221.797 
	112.996,221.797 112.996,222.797 103.908,222.797 103.908,223.827 73.645,223.827 73.645,222.797 65.585,222.797 65.585,221.797 
	61.527,221.797 61.527,220.797 57.498,220.797 57.498,219.796 "/>
<polygon fill-rule="evenodd" clip-rule="evenodd" fill="#BAD532" points="44.381,82.677 42.38,82.677 42.38,83.678 40.352,83.678 
	40.352,84.678 39.351,84.678 39.351,85.707 38.322,85.707 38.322,87.707 37.322,87.707 37.322,89.736 36.322,89.736 36.322,95.766 
	37.322,95.766 37.322,98.795 38.322,98.795 38.322,100.825 39.351,100.825 39.351,101.825 40.352,101.825 40.352,102.825 
	42.38,102.825 42.38,103.854 44.381,103.854 44.381,104.854 52.468,104.854 52.468,103.854 53.469,103.854 53.469,102.825 
	55.498,102.825 55.498,101.825 56.498,101.825 56.498,100.825 57.498,100.825 57.498,98.795 58.498,98.795 58.498,97.795 
	59.527,97.795 59.527,88.736 58.498,88.736 58.498,87.707 57.498,87.707 57.498,85.707 56.498,85.707 56.498,84.678 55.498,84.678 
	55.498,83.678 53.469,83.678 53.469,82.677 51.439,82.677 51.439,81.677 44.381,81.677 "/>
<polygon fill-rule="evenodd" clip-rule="evenodd" fill="#BAD532" points="281.461,105.854 280.433,105.854 280.433,106.883 
	278.433,106.883 278.433,107.883 277.403,107.883 277.403,108.884 276.403,108.884 276.403,110.913 275.403,110.913 
	275.403,113.914 274.402,113.914 274.402,118.972 275.403,118.972 275.403,122.001 276.403,122.001 276.403,123.001 
	277.403,123.001 277.403,124.002 278.433,124.002 278.433,125.031 279.433,125.031 279.433,126.031 281.461,126.031 
	281.461,127.031 283.462,127.031 283.462,128.031 288.521,128.031 288.521,127.031 291.55,127.031 291.55,126.031 292.55,126.031 
	292.55,125.031 294.578,125.031 294.578,123.001 295.579,123.001 295.579,122.001 296.579,122.001 296.579,118.972 297.579,118.972 
	297.579,111.913 296.579,111.913 296.579,109.884 295.579,109.884 295.579,108.884 294.578,108.884 294.578,107.883 293.55,107.883 
	293.55,106.883 292.55,106.883 292.55,105.854 291.55,105.854 291.55,104.854 281.461,104.854 "/>
<polygon fill-rule="evenodd" clip-rule="evenodd" fill="#BAD532" points="80.703,105.854 79.703,105.854 79.703,106.883 
	77.674,106.883 77.674,107.883 76.674,107.883 76.674,108.884 75.673,108.884 75.673,110.913 74.645,110.913 74.645,113.914 
	73.645,113.914 73.645,117.972 74.645,117.972 74.645,120.973 75.673,120.973 75.673,123.001 76.674,123.001 76.674,124.002 
	77.674,124.002 77.674,125.031 79.703,125.031 79.703,126.031 80.703,126.031 80.703,127.031 90.791,127.031 90.791,126.031 
	91.792,126.031 91.792,125.031 93.82,125.031 93.82,124.002 94.82,124.002 94.82,122.001 95.849,122.001 95.849,119.972 
	96.85,119.972 96.85,110.913 95.849,110.913 95.849,108.884 94.82,108.884 94.82,107.883 93.82,107.883 93.82,106.883 
	92.82,106.883 92.82,105.854 90.791,105.854 90.791,104.854 80.703,104.854 "/>
<polygon fill-rule="evenodd" clip-rule="evenodd" fill="#BAD532" points="114.997,131.061 114.997,132.061 113.996,132.061 
	113.996,135.09 112.996,135.09 112.996,141.149 113.996,141.149 113.996,143.178 114.997,143.178 114.997,145.178 116.025,145.178 
	116.025,146.179 117.025,146.179 117.025,147.208 118.025,147.208 118.025,148.208 120.055,148.208 120.055,149.208 
	129.114,149.208 129.114,148.208 130.143,148.208 130.143,147.208 132.143,147.208 132.143,146.179 133.172,146.179 
	133.172,145.178 134.172,145.178 134.172,143.178 135.172,143.178 135.172,139.12 136.201,139.12 136.201,135.09 135.172,135.09 
	135.172,133.09 134.172,133.09 134.172,131.061 133.172,131.061 133.172,130.061 132.143,130.061 132.143,129.06 131.143,129.06 
	131.143,128.031 130.143,128.031 130.143,127.031 128.114,127.031 128.114,126.031 122.055,126.031 122.055,127.031 
	119.026,127.031 119.026,128.031 118.025,128.031 118.025,129.06 117.025,129.06 117.025,130.061 116.025,130.061 116.025,131.061 
	"/>
<polygon fill-rule="evenodd" clip-rule="evenodd" fill="#BAD532" points="242.11,128.031 240.081,128.031 240.081,129.06 
	239.081,129.06 239.081,130.061 238.08,130.061 238.08,131.061 237.052,131.061 237.052,133.09 236.052,133.09 236.052,143.178 
	237.052,143.178 237.052,145.178 238.08,145.178 238.08,146.179 240.081,146.179 240.081,147.208 241.109,147.208 241.109,148.208 
	243.11,148.208 243.11,149.208 251.197,149.208 251.197,148.208 253.198,148.208 253.198,147.208 254.227,147.208 254.227,146.179 
	255.228,146.179 255.228,145.178 256.228,145.178 256.228,144.178 257.228,144.178 257.228,142.149 258.256,142.149 258.256,133.09 
	257.228,133.09 257.228,132.061 256.228,132.061 256.228,130.061 255.228,130.061 255.228,129.06 254.227,129.06 254.227,128.031 
	252.198,128.031 252.198,127.031 242.11,127.031 "/>
<polygon fill-rule="evenodd" clip-rule="evenodd" fill="#BAD532" points="318.784,83.678 316.755,83.678 316.755,84.678 
	315.755,84.678 315.755,85.707 314.755,85.707 314.755,86.707 313.726,86.707 313.726,89.736 312.726,89.736 312.726,98.795 
	313.726,98.795 313.726,99.824 314.755,99.824 314.755,101.825 316.755,101.825 316.755,102.825 317.755,102.825 317.755,103.854 
	319.784,103.854 319.784,104.854 327.843,104.854 327.843,103.854 329.872,103.854 329.872,102.825 330.872,102.825 
	330.872,101.825 331.901,101.825 331.901,100.825 332.901,100.825 332.901,99.824 333.901,99.824 333.901,97.795 334.931,97.795 
	334.931,88.736 333.901,88.736 333.901,87.707 332.901,87.707 332.901,85.707 331.901,85.707 331.901,84.678 329.872,84.678 
	329.872,83.678 328.872,83.678 328.872,82.677 318.784,82.677 "/>
<path fill-rule="evenodd" clip-rule="evenodd" fill="#1D1D1D" d="M269.345,291.357h-1v3.029h-1.029v3.029h-1v2.029h-1v2.001h-1.001
	v1h-1.028v1.028h-1v1.001h-2.029v1h-4.029v-1h-1v-1.001h-2.029v-1.028h-1v-2.001h-1.001v-1h-1.028v-2.029h-1v-3.029h-1.001v-3.029
	h-1.028v-19.147h1.028v-4.029h1.001v-3.029h1v-3.029h1.028v-1h1.001v-1.001h1v-1.028h1.028v-1h1.001v-1.001h6.058v1.001h1.001v1h1
	v1.028h1.028v1.001h1.001v1h1v2.029h1v2h1.029v4.059h1v6.029h1v11.089h-1V291.357z M254.227,256.091h-1.028v1h-1v1.001h-1.001v1
	h-1.028v1.028h-1v2.001h-1.001v2.029h-1.028v3.029h-1v3.029h-1.001v22.177h1.001v3.001h1v3.029h1.028v1.028h1.001v2.001h1v2.028
	h1.028v1.001h1.001v1h2.028v1.028h3.001v1.001h4.058v-1.001h1.001v-1.028h2.028v-1h1.001v-1.001h1v-2.028h1v-1.001h1.029v-2.028h1
	v-2.001h1v-3.029h1.028v-4.029h1.001v-15.118h-1.001v-4.029h-1.028v-4.059h-1v-3.001h-1v-1.028h-1.029v-2.001h-1v-2.028h-1v-1.001
	h-1.001v-1h-2.028v-1.028h-8.06V256.091z"/>
<path fill-rule="evenodd" clip-rule="evenodd" fill="#4B4B4B" d="M108.938,270.209h1.029v-2.029h1v-3.029h1v-3.029h1.029v-1h1
	v-2.029h1v-1h2.029v-1.001h1v-1h5.059v1h1v1.001h1v1h1.029v1.028h1v2.001h1v2.029h1v2h1.029v3.029h1v22.177h-1v3.029h-1.029v2.029
	h-1v3.029h-1v1h-1v2.001h-1.029v1.028h-2v1.001h-6.059v-1.001h-2.029v-2.028h-1v-1.001h-1v-2.028h-1.029v-2.001h-1v-2.029h-1v-3.029
	h-1.029V270.209z M117.025,255.063h-1v1.028h-1.029v1h-1v1.001h-1v1h-1.029v1.028h-1v2.001h-1v2.029h-1.029v4.029h-1v5.029h-1
	v17.147h1v4.029h1v3.029h1.029v2.029h1v2.001h1v1h1.029v1.028h1v1.001h1v1h1.029v1.028h8.059v-1.028h2.029v-1h1v-2.029h1v-1h1
	v-2.001h1.029v-2.029h1v-3.029h1v-5.029h1.029v-19.147h-1.029v-3.029h-1v-3.029h-1v-2.029h-1.029v-2.001h-1v-1.028h-1v-2.001h-1v-1
	h-1.029v-1.028h-4.03v-1.001h-4.029V255.063z"/>
<path fill-rule="evenodd" clip-rule="evenodd" fill="#1D1D1D" d="M333.901,99.824h-1v1h-1v1h-1.029v1h-1v1.029h-2.029v1h-8.059v-1
	h-2.029v-1.029h-1v-1h-2v-2h-1.029v-1.029h-1v-9.059h1v-3.029h1.029v-1h1v-1.029h1v-1h2.029v-1h10.088v1h1v1h2.029v1.029h1v2h1
	v1.029h1.029v9.06h-1.029V99.824z M321.813,80.648h-4.059v1.029h-2v1h-1v1h-1.029v1h-1v1.029h-1v2h-1.029v3.029h-1v6.059h1v2h1.029
	v2.029h1v2h1v1.029h1.029v1h2v1h2.029v1.029h9.059v-1.029h3.029v-1h1.029v-1h2v-1.029h1.029v-2h1v-2.029h1V87.707h-1v-2h-1v-1.029
	h-1.029v-1h-1v-1h-1v-1h-2.029v-1.029h-2.029v-1h-6.029V80.648z"/>
<path fill-rule="evenodd" clip-rule="evenodd" fill="#1D1D1D" d="M257.228,144.178h-1v1h-1v1h-1.001v1.029h-1.028v1h-2.001v1h-8.087
	v-1h-2.001v-1h-1.028v-1.029h-2.001v-1h-1.028v-2h-1V133.09h1v-2.029h1.028v-1h1.001v-1h1v-1.029h2.029v-1h10.088v1h2.028v1.029
	h1.001v1h1v2h1v1.029h1.028v9.059h-1.028V144.178z M243.11,125.031h-2.001v1h-1.028v1h-2.001v1h-1.028v1.029h-1v2h-1.001v2.029h-1
	v9.059h1v3.029h1.001v1h1v2.029h2.029v1h1v1h3.029v1.029h8.087v-1.029h3.029v-1h2.001v-1h1v-1h1.028v-2.029h1.001v-2h1V133.09h-1
	v-2.029h-1.001v-2h-1.028v-1.029h-1v-1h-2.001v-1h-1.028v-1h-2.001v-1.029h-8.087V125.031z"/>
<path fill-rule="evenodd" clip-rule="evenodd" fill="#1D1D1D" d="M274.402,113.914h1.001v-3.001h1v-2.029h1v-1h1.029v-1h2v-1.029
	h1.028v-1h10.089v1h1v1.029h1v1h1.028v1h1.001v1h1v2.029h1v7.059h-1v3.029h-1v1h-1.001v2.029h-2.028v1h-1v1h-3.029v1h-5.059v-1
	h-2.001v-1h-2.028v-1h-1v-1.029h-1.029v-1h-1v-1h-1v-3.029h-1.001V113.914z M281.461,103.854h-2.028v1h-2.029v1h-1v1.029h-1v1
	h-1.001v2h-1.028v3.03h-1v7.059h1v2.029h1.028v2h1.001v1.029h1v1h1v1h1.029v1h3.028v1.029h2.001v1h5.059v-1h3.029v-1.029h2v-1h2.029
	v-1h1v-1h1v-2.029h1.029v-1h1v-10.088h-1v-3.029h-1.029v-1h-1v-2.029h-2.001v-1h-1.028v-1h-2v-1.029h-10.089V103.854z"/>
<path fill-rule="evenodd" clip-rule="evenodd" fill="#4B4B4B" d="M36.322,89.736h1v-2.029h1v-2h1.029v-1.029h1v-1h2.029v-1h2v-1
	h7.059v1h2.029v1h2.029v1h1v1.029h1v2h1v1.029h1.029v9.06h-1.029v1h-1v2.029h-1v1h-1v1h-2.029v1.029h-1v1h-8.087v-1h-2v-1.029
	h-2.029v-1h-1v-1h-1.029v-2.029h-1v-3.029h-1V89.736z M43.381,80.648h-2.029v1.029h-1v1h-2.029v1h-1v2.029h-1v1h-1v3.029h-1.029
	v6.03h1.029v4.058h1v2h1v1h1v1.029h1.029v1h2v1h3.029v1.029h8.087v-1.029h2v-1h2.029v-1h1v-1.029h1v-2h1.029v-1h1v-3.029h1v-7.059
	h-1v-3.029h-1v-1h-1.029v-2.029h-1v-1h-1v-1h-2.029v-1.029h-2v-1h-9.087V80.648z"/>
<path fill-rule="evenodd" clip-rule="evenodd" fill="#4B4B4B" d="M73.645,113.914h1v-3.001h1.029v-2.029h1v-1h1v-1h2.029v-1.029h1
	v-1h10.088v1h2.029v1.029h1v1h1v1h1.029v2.029h1v9.06h-1v2.029H94.82v2h-1v1.029h-2.029v1h-1v1H80.703v-1h-1v-1h-2.029v-1.029h-1v-1
	h-1v-2.029h-1.029v-3.001h-1V113.914z M80.703,103.854h-2.029v1h-2v1h-1v1.029h-1.029v1h-1v2h-1v12.118h1v1h1v2.029h1.029v1h2v1h1v1
	h1.029v1.029h12.088v-1.029h1.029v-1h1v-1h2.029v-2.029h1v-1h1v-3.029h1v-9.06h-1v-2.029h-1v-2h-1v-1.029H93.82v-1h-1v-1h-2.029
	v-1.029H80.703V103.854z"/>
<polygon fill-rule="evenodd" clip-rule="evenodd" fill="#1D1D1D" points="125.084,149.208 125.084,150.208 123.084,150.208 
	123.084,151.237 128.114,151.237 128.114,150.208 131.143,150.208 131.143,149.208 133.172,149.208 133.172,148.208 
	134.172,148.208 134.172,147.208 135.172,147.208 135.172,146.179 136.201,146.179 136.201,144.178 137.201,144.178 
	137.201,141.149 138.202,141.149 138.202,135.09 137.201,135.09 137.201,132.061 136.201,132.061 136.201,130.061 135.172,130.061 
	135.172,129.06 134.172,129.06 134.172,128.031 133.172,128.031 133.172,127.031 132.143,127.031 132.143,126.031 130.143,126.031 
	130.143,125.031 128.114,125.031 128.114,124.002 120.055,124.002 120.055,125.031 119.026,125.031 119.026,126.031 
	117.025,126.031 117.025,127.031 116.025,127.031 116.025,128.031 114.997,128.031 114.997,129.06 113.996,129.06 113.996,131.061 
	116.025,131.061 116.025,130.061 117.025,130.061 117.025,129.06 118.025,129.06 118.025,128.031 119.026,128.031 119.026,127.031 
	122.055,127.031 122.055,126.031 128.114,126.031 128.114,127.031 130.143,127.031 130.143,128.031 131.143,128.031 131.143,129.06 
	132.143,129.06 132.143,130.061 133.172,130.061 133.172,131.061 134.172,131.061 134.172,133.09 135.172,133.09 135.172,135.09 
	136.201,135.09 136.201,139.12 135.172,139.12 135.172,143.178 134.172,143.178 134.172,145.178 133.172,145.178 133.172,146.179 
	132.143,146.179 132.143,147.208 130.143,147.208 130.143,148.208 129.114,148.208 129.114,149.208 "/>
<polygon fill-rule="evenodd" clip-rule="evenodd" fill="#4B4B4B" points="123.084,151.237 123.084,150.208 125.084,150.208 
	125.084,149.208 120.055,149.208 120.055,148.208 118.025,148.208 118.025,147.208 117.025,147.208 117.025,146.179 
	116.025,146.179 116.025,145.178 114.997,145.178 114.997,143.178 113.996,143.178 113.996,141.149 112.996,141.149 112.996,135.09 
	113.996,135.09 113.996,132.061 114.997,132.061 114.997,131.061 113.996,131.061 113.996,130.061 112.996,130.061 112.996,132.061 
	111.967,132.061 111.967,134.09 110.967,134.09 110.967,141.149 111.967,141.149 111.967,144.178 112.996,144.178 112.996,146.179 
	113.996,146.179 113.996,147.208 114.997,147.208 114.997,148.208 116.025,148.208 116.025,149.208 118.025,149.208 
	118.025,150.208 120.055,150.208 120.055,151.237 "/>
<polygon fill-rule="evenodd" clip-rule="evenodd" fill="#4B4B4B" points="204.787,184.502 204.787,180.473 213.875,180.473 
	213.875,179.472 203.787,179.472 203.787,184.502 "/>
<polygon fill-rule="evenodd" clip-rule="evenodd" fill="#939393" points="86.762,68.56 86.762,69.56 87.762,69.56 87.762,70.588 
	89.791,70.588 89.791,69.56 88.762,69.56 88.762,68.56 89.791,68.56 89.791,67.559 88.762,67.559 88.762,66.53 86.762,66.53 
	86.762,67.559 87.762,67.559 87.762,68.56 "/>
<polygon fill-rule="evenodd" clip-rule="evenodd" fill="#BCBCBC" points="187.641,337.74 187.641,339.769 189.642,339.769 
	189.642,336.74 188.641,336.74 188.641,337.74 "/>
<polygon fill-rule="evenodd" clip-rule="evenodd" fill="#939393" points="247.14,223.827 247.14,221.797 244.139,221.797 
	244.139,222.797 245.139,222.797 245.139,223.827 "/>
<polygon fill-rule="evenodd" clip-rule="evenodd" fill="#939393" points="184.612,132.061 185.612,132.061 185.612,130.061 
	182.583,130.061 182.583,131.061 184.612,131.061 "/>
<polygon fill-rule="evenodd" clip-rule="evenodd" fill="#939393" points="354.077,127.031 355.106,127.031 355.106,128.031 
	356.106,128.031 356.106,125.031 355.106,125.031 355.106,126.031 354.077,126.031 "/>
<polygon fill-rule="evenodd" clip-rule="evenodd" fill="#939393" points="171.495,292.386 173.523,292.386 173.523,290.357 
	172.495,290.357 172.495,291.357 171.495,291.357 "/>
</svg>
