<?xml version="1.0" encoding="utf-8"?>
<!-- Generator: Adobe Illustrator 15.0.0, SVG Export Plug-In  -->
<!DOCTYPE svg PUBLIC "-//W3C//DTD SVG 1.1//EN" "http://www.w3.org/Graphics/SVG/1.1/DTD/svg11.dtd" [
	<!ENTITY ns_flows "http://ns.adobe.com/Flows/1.0/">
]>
<svg version="1.1"
	 xmlns="http://www.w3.org/2000/svg" xmlns:xlink="http://www.w3.org/1999/xlink" xmlns:a="http://ns.adobe.com/AdobeSVGViewerExtensions/3.0/"
	 x="0px" y="0px" width="360px" height="178px" viewBox="0 0 360 178" enable-background="new 0 0 360 178" xml:space="preserve">
<defs>
</defs>
<path fill-rule="evenodd" clip-rule="evenodd" fill="#E42D37" d="M105.957,58.736c-0.543-1.914,0.942-6.115,1.543-7.145
	c0.657-1.143,0.285-1.029,0.686-2.229c0.314-1.001,0.515-0.601,0.771-2.115c0.286-1.887,0.371-0.801,0.857-2
	c0.457-1.201-0.143-0.715,0.801-2.145c0.686-1.028,0.428-1.457,0.8-2.086c1.257-2.058,0.343-0.629,0.914-2.058
	c0.429-1.028,0.972-1.171,1.544-2.829c0.314-0.857-0.058-0.285,0.485-0.886c0.2-0.171,0.086,0.058,0.372-0.314
	c0.085-0.114,0.085-0.114,0.285-0.458l1.429-2.172c1.458-2.229-0.143-0.656,2.029-3.114l1.857-2.429l0.915-0.086l-0.172,0.057
	c0.143-2.029,1.972-3,2.857-3.943c1.486-1.543,3.516-2.83,5.545-3.887c2.742-1.458,4.258-1.401,4.715-1.629
	c0.657-0.343,0.229-0.857,2.515-0.771c1.544,0.229,0.972-0.458,2.515-0.657c1.314-0.171,1.543-0.086,2.744-0.458
	c2.343-0.714,14.231-2.543,16.604-2.572l0.457-0.229c0.086-0.028,0.143-0.057,0.229-0.085c0.914-0.314,7.345-0.829,8.259-0.915
	c1.515-0.114,8.573-0.343,9.717-0.086c1.457,0.343,1.914,1.601,1.914,3.572l0.114,14.289c0.144,6.516,0.115,13.061,0.115,19.605
	c0,3.115,0.257,6.115,0.257,9.431c0,3.486,0.429,6.858-0.829,9.088c-5.602,0.857-13.518-0.229-19.518,0.144l-19.576-0.086
	c-6.516-0.115-13.089,0.113-19.604,0.113c-3.286,0-6.659-0.113-9.917-0.027c-3.086,0.057-4.457,0.57-6.001-1.287
	c-1.372-1.657-0.771-1.629-0.485-2.057l0.428-0.801c1.001-2.115,0.516-3.287,1.258-4.258
	C105.699,58.822,105.699,58.936,105.957,58.736L105.957,58.736z M245.73,24.185c0.028,0.571,0.6,0.914,0.8,1.143
	c0.714,0.2,0.571-0.457,0.6,0.229c0.715,0.629,0.229,0.371,0.772,0.914c1.543,1.602,0.028,0.258,1.514,2.258l3.516,7.145
	c0.314,0.572,0.6,0.943,0.857,1.887c0.543,2,0.543,0.572,0.886,1.515c0.058,0.515,0.028,1.229,0.143,1.715
	c0.229,0.886,0.286,0.429,0.657,1.028c0.515,0.857,0.029,1.772,0.543,2.916c0.572,1.343,0.629,0.514,0.829,2.571
	c0.114,1.572,0.457,1.058,0.743,2.286c0.286,1.115,0.229,1.857,0.571,2.858c0.715,1.886,1.687,9.374,1.715,11.803
	c0.028,3.687-2.915,3.43-6.944,3.173c-4.059-0.258-8.888,0.057-13.061,0.027c-8.887-0.113-17.746-0.171-26.634,0
	c-4.43,0.086-8.888-0.113-13.289,0.029c-2.2,0.057-4.344-0.057-6.544-0.029c-2.515,0.058-5.572,0.543-5.487-1.113
	c-0.371-0.172-0.2-0.029-0.543-0.43c-0.543-0.629-0.457-1.371-0.485-2.143c-0.372-7.688-0.229-16.462-0.4-24.464
	c-0.086-3.087-0.629-26.692,0.486-27.721c1.6-1.458,13.945-1.172,17.317-1c1.486,0.086,2.401,0.657,3.63,0.686
	c1.629,0.028,2.943,0.028,4.601,0.171c1.314,0.086,3.43,0.029,4.572,0.2c1.515,0.2-0.343,0.2,1.458,0.6
	c2.058,0.457,0.257-0.515,3.829,0.771c0.943,0.343,2.544,0.229,4.059,0.6c0.143,0.029,0.714,0.229,0.857,0.314
	c2.143,0.886,2.457,0.2,4.458,1.086c0.771,0.372,1.086,0.257,1.943,0.515c1.371,0.429,0.199,0.314,1.399,0.714
	c0.743,0.257,1.43,0.2,1.943,0.514c0.943,0.515-0.657,0,1.515,0.686l5.716,4.172c0.972,0.801-0.343-0.57,0.515,0.658
	C245.416,23.384,245.758,23.156,245.73,24.185L245.73,24.185z M119.644,18.955c-0.371,1.344-0.085,0.344-1.143,1.543
	c-0.6,0.658-0.429,0.572-1.229,1.201c-3.572,2.943-3.658,3.543-6.744,7.287l-3.001,4.229c-1.886,2.429-0.229,1.114-1.657,2.944
	c-0.371,0.514-1.058,2.715-1.973,3.829c-0.371,0.457-0.028,0.229-0.543,0.457c0.201,1.372-1.428,3.829-1.771,4.744
	c-0.457,1.171-0.285,0.657-0.742,1.4c-0.458,0.8-0.229,1.058-0.43,1.829c-0.314,1.143-0.428,0.428-0.8,1.343
	c-0.2,0.515-0.485,3.401-0.515,4.03c-1.515,0.656-1.029,1.371-2.314,4l-1.086,3.258c-0.172,0.543-0.229,1.258-0.429,1.772
	c-0.571,1.687-0.458-0.372-0.972,3.401c-1.486,0.857-2.973,1.229-4.943,1.314c-2.688,0.113-13.633,2.2-15.805,1.857
	c-1.143-0.2-1.257,0-2.229,0.199c-0.429,0.086-0.801,0.086-1.229,0.201c-3.801,0.971-7.602,0.457-8.888,0.828
	c-1.144,0.344-0.657,0.515-2.315,0.543c-1.629,0.057-3.543,0.314-5.314,0.515c-0.887,0.114-1.172,0.343-2.201,0.457
	c-6.173,0.715-2.086,1.144-7.259,1.4c-2.086,0.114-2.915,0.629-4.572,1.028L26.71,78.97c-1.829,0.828-1.744,0.428-2.83,1.285
	c-1.057,0.829-0.485,0.086-2.743,1.572c-0.257,0.172-0.601,0.4-0.914,0.543c-0.543,0.257-0.543,0.114-1.028,0.457l-2.602,2.258
	c-1.199,1.4-2.943,2.029-4.516,4.63c-0.428,0.743-0.628,1.114-1.113,1.8c-0.486,0.657-1.602,2.83-1.83,3.658
	c-0.171,0.915-0.342,2.086-0.8,2.915c-0.915,1.715-0.371,0.743-0.856,2.801c-0.229,1-0.602,0.915-0.83,2.515
	c-0.199,1.4-0.57,1.629-0.828,2.715l-1.172,5.83c-0.314,3.115-0.828,4.744-1,6.288c-0.2,2.2,0,4.743-0.229,6.915
	c-0.429,4.03-0.371,1.687-0.429,6.545c-0.028,1.715-0.4,12.089,1.086,13.231c1,0.772,14.346,0.286,16.832,0.314
	c3.515,0.058,5.944,1.314,6.345-1.8c0.371-3.087,0.514-5.916,1.657-7.316c-0.2-1.4,1.543-3.486,2.086-4.658
	c2.458-5.373,3.487-5.487,4.229-6.716c0.543-0.857-0.086-0.543,1.601-2.058c2.458-2.201,2.743-1.687,4.173-3.059
	c1.143-1.086,0.971-0.657,2.229-1.399l2.43-1.201c3.4-1.714,3-1.114,5.201-2.028c2-0.857,2.486,0.114,6.287-1.001
	c2.314-0.686,4.229,0.486,6.314,0.543c2.43,0.058,6.174,1.258,8.432,2.229l6.83,4.029c2.886,1.915,4.314,3.772,6.344,6.259
	c0.114,0.144,0.686,0.972,0.771,1.144l3.172,5.801c1.658,3.944,2.229,5.944,2.314,10.518c3.602,0.972,14.518,0.343,19.09,0.343
	c43.668,0.086,87.991,0.229,131.63,0.028c0.8-0.028,1.6-0.028,2.429-0.028c0.4,0.028,2.144,0.057,2.486-0.257l0.285-1.058
	c0.115-1.144-0.171-1.829,0.229-3.315l0.914-3.973c0.229-0.857,0.515-0.857,0.771-1.571c0.372-0.915,0.086-1.029,0.629-2.058
	l1.2-2.229c0.172-0.286,0.314-0.686,0.343-0.743c0.314-1.286,2.4-4.144,3.229-5.029l0.743-0.743
	c1.515-1.572,0.743-1.429,1.629-1.229c0.343-1.515,1.629-1.714,2.715-2.657c0.371-0.314-0.028,0,0.4-0.343l2.485-1.857
	c3.373-1.572,5.316-2.944,9.431-3.487c2.544-0.314-0.6-0.628,6.602-0.942c6.888-0.314,6.202,0.742,7.802,1.143l1.172,0.372
	c0.943,0.257,0.629,0.399,2.058,0.686c1.915,0.371,5.572,2.857,6.201,3.058c1.972,0.4,4.458,2.744,5.916,3.973l0.257,0.229
	c0.114,0.114,0.229,0.257,0.343,0.4l1.629,2c1.144,1.715,0.857,0.743,2.286,3.287c0.601,1.086,0.458,0.314,1.915,3.4
	c0.657,1.344,1.086,1,1.058,2.801c-0.114,1.029,0.257,0.657,0.543,1.887c0.171,0.686,0.285,1.6,0.429,2.229
	c0.229,1.2,0.771,3.63,0.686,4.572c1.543,1.201,0.286,1.372,4.973,1.172c1.915-0.086,3.887-0.057,5.83,0.029
	c8.545,0.257,20.176-0.344,29.492-0.2c5.944,0.085,4.973-0.486,5.029-7.631c0.058-5.602,0.743-3.658,0.743-6.287
	c0-2.258-0.058-4.772-0.172-7.03c-0.057-1.114-0.028-2.258-0.028-3.372l-1-12.604c-0.4-1.372-0.657-0.629-0.686-2.629
	c-0.058-2.715-2.144-9.859-2.172-11.832c-0.4-0.628-0.172-0.028-0.4-0.571c-0.8-0.657-1.458-3.344-2.029-4.315
	c-1.2-2.028-0.972-2.114-2.801-4.716c-1.314-1.914-1.657-1.571-3.572-3.686c-1.515-1.658-1.343-0.629-1.285-1.83
	c-0.801-0.629-2.001-1.514-2.915-2.143c-1.029-0.743-2.372-1.543-3.029-2.258c-2.515-0.258-2.744-0.857-4.315-1.829
	c-0.972-0.601-0.629-0.657-1.743-1.058c-0.343-0.143-0.657-0.199-1.114-0.371c-0.572-0.229-0.429-0.258-0.972-0.486
	c-3.059-1.343-4.03-1.057-5.716-1.515l-3.315-0.8c-6.315-1.314-14.003-1-15.86-1.4c-1.915-0.4-2.801-0.344-5.115-0.486
	c-3.286-0.171-5.83,0.058-7.173-1.486l-3.572-4.915c-0.801-1.458-5.173-10.317-5.43-11.431c-0.343-1.373-1.2-2.887-1.743-4.115
	c-0.657-1.458-1.344-2.201-1.544-4.23l-0.543,0.029c-0.171-1.572-0.314-1.201-0.771-2.087c-0.8-0.485-0.057,0-0.514-0.457
	c-0.058-0.058-0.229-0.229-0.286-0.286c-0.028-0.057-0.343-0.457-0.4-0.543c-2.144-2.601-0.686-1.314-1.715-2.629
	c-1.143-1.457-1-0.886-1.629-2.629l-2.771-3.63c-0.286-0.286-1.029-0.886-1.114-1c-0.372-0.601,0.057-0.543-0.743-1.486
	l-2.029-2.058c-0.343-0.4-0.571-0.771-0.972-1.229c-0.601-0.743-0.229-0.601-0.943-1.258c-1.543-1.4-5.43-5.059-6.915-5.858
	c-1.001-0.543-1.829-0.943-2.772-1.601c-1.601-1.143-7.145-3.258-8.945-3.601c-1.543-0.314-1.429-0.743-3.4-0.972
	c-0.943-0.114-1.086-0.057-1.829-0.371c-0.229-0.115-0.429-0.2-0.629-0.372c-0.514-0.4-0.199-0.029-0.571-0.657
	c-2.601,0.114-7.173-1.744-10.773-1.915c-1.629-0.085-2.658-0.457-3.944-0.686c-2.229-0.371-5.772-0.486-8.145-0.571
	c-1.6-0.057-1.829-0.486-3.857-0.515c-1.601,0-2.973-0.085-4.373-0.171c-5.829-0.4-29.435-0.628-34.207,0.515
	c-3.458,0.829-8.745,0.085-12.26,0.886c-2.657,0.6-6.544,0.572-7.916,1c-3.772,1.171-1.629,0.314-3.572,0.743
	c-1.028,0.257-2.515,0.629-3.544,0.8c-1.514,0.229-5.83,1.115-7.201,1.743c-0.629,0.286-1,0.314-1.715,0.429l-4.858,1.715
	c-0.771,0.429-2.4,0.743-3.458,1.2c-1.371,0.6-3.715,2.515-5.344,3.315L119.644,18.955z"/>
<path fill-rule="evenodd" clip-rule="evenodd" fill="#BBDEB5" d="M191.346,64.109c1.429-0.429,50.325-0.143,57.241-0.143
	c2.258,0,5.63,0.428,7.259-0.486c0.229-1.344-0.229-3.344-0.515-5.115c-0.114-0.686-0.172-2.029-0.314-2.572
	c-0.4-1.286-0.6-0.143-0.714-2.486c-0.114-2.572-0.772-2.687-1.058-4.658c-0.2-1.4,0.028-1.144-0.629-2.287
	c-0.571-1-0.314-1.485-0.657-2.571c-0.257-0.743-0.485-0.972-0.743-2.114c-0.257-1.172-3.715-9.203-4.572-10.403l-0.601-0.886
	c-0.571-0.943-1.571-1.915-1.6-2.943c-0.629-0.2-0.029,0.086-0.543-0.2c-0.572-0.314-0.543-0.543-0.915-1.028l-2.029-2.087
	c-0.428-0.601,0.2-0.171-0.485-0.687c-0.972-0.686-0.943,0.086-1.314-1.343c-0.972-0.485-0.886-0.515-1.771-1.144
	c-0.943-0.656-5.63-2.4-6.545-2.657c-0.828-0.229-1.829-0.257-2.715-0.457c-0.943-0.257-1.571-0.657-2.314-0.8
	c-1.086-0.2-1.943-0.029-2.887-0.286c-0.771-0.229-1.314-0.543-2.144-0.458c-4.829,0-4.772-0.743-9.83-1.057
	c-1.715-0.114-3.458-0.057-5.201-0.172c-1.687-0.114-2.829-0.314-4.83-0.343c-10.802-0.028-11.288-1.629-11.174,4.001
	c0.028,1.601,0.343,2.973,0.372,4.572l0.429,39.296l0.714,1.343C191.289,63.909,191.318,64.052,191.346,64.109L191.346,64.109z"/>
<path fill-rule="evenodd" clip-rule="evenodd" fill="#1A1A1B" d="M81.722,165.706l-0.857,1.086
	c-1.314,1.257-5.602,5.173-7.115,5.401l-0.029-0.229l-7.259,3.229c-2.4,0.4-7.687,1.058-9.831,0.629
	c-3.172-0.6-6.086-0.371-9.145-2.258l-6.229-3.658c-2.114-1.429-6.001-5.486-6.573-8.002c-0.172-0.543-0.457-0.514-0.629-1.028
	l-0.8-0.657c-0.687-0.715-0.485-1.172-1.028-2.315c-1.887-3.887-1.516-5.144-2.059-6.858c-0.686-2.086-0.771-5.802-0.514-8.06
	l1.715-6.944c0.285-0.8,0.143-1.058,0.514-1.629c0.572-0.886,0.229,0.229,0.829-1.314c0.286-0.8,0.457-0.943,0.857-1.601l2.4-4.087
	c3.058-4.029,8.087-7.373,13.117-8.974c4.658-1.485,6.201-1.829,11.488-1.771c5.173,0.058,5.087,0.886,9.316,2.029
	c1.571,0.399,5.544,2.771,7.059,3.887l6.487,6.802c1.771,2.4,3.715,5.83,4.458,8.888c0.314,1.343,0.286,2.657,0.601,3.829
	c0.257,0.943,0.371,0.486,0.485,1.687l-0.114,6.544c-0.029,0-0.057,0-0.086,0c-0.686,0.2-0.657,3.258-0.886,4.059
	c-0.229,0.886-0.515,1.143-0.714,2.058l-1.373,3.286L81.722,165.706z M261.99,121.894l3.115-1.972
	c0.372-0.229,1.486-0.829,1.715-0.914l5.944-2.029c3.344-0.601,6.716-0.571,10.174-0.457c2.058,0.057,4.544,1.057,6.258,1.886
	c1.544,0.743-0.085-0.6,3.572,1.515c4.802,2.715,4.315,3.172,5.487,3.915l2.114,2.029c2.516,3.058,2.43,2.258,4.401,6.287
	c0.486,0.943,0.571,0.629,1,1.629l1.915,6.059c0.485,2.087,0.343,8.202,0.2,10.746c-0.172,2.915-2.43,8.802-4.344,11.66
	l-5.059,5.601c-1.743,1.372-1.372,1.458-3.372,2.401c-0.486,0.229-0.172,0.085-0.486,0.257l-2.629,1.515
	c-0.771,0.371-0.6,0.629-1.601,1c-4.029,1.572-1.171,0.657-4.543,1.172c-1.973,0.286,1.485,0.915-7.03,0.915
	c-7.03,0-3.315-0.772-7.03-0.972c-0.372-0.029-1.029-0.029-1.4-0.144l-4.486-2.286c-1.029-0.771-0.629-0.343-1.829-0.8l-4.63-3.372
	c-0.857-0.915-2.029-1.829-2.515-2.83c-2.001-1.343-4.915-6.688-5.43-8.23c-0.172-0.543-0.172-1.114-0.372-1.657
	c-0.457-1.314-0.714-0.801-0.857-2.829c-0.257-3.144-1.886-3.973-0.229-10.402c0.314-1.201,0.114-2.486,0.429-3.487
	c0.343-0.972,0.2,0.114,0.657-1.2c0.572-1.486-0.399-0.114,1.029-2.857c1.886-3.602,0.314-1.715,3.543-6.373L261.99,121.894z
	 M28.911,136.126c0.058,1.915-0.829,3.344-0.972,5.173c-0.543,6.888-0.285,4.258-12.859,4.715
	c-1.458,0.029-10.604,0.029-11.289-0.343c-1.429-0.714-1.172-2.829-1.314-4.63c-0.686-9.088,0.229-16.575,0.972-25.291
	c0.114-1.172,0.372-1.229,0.629-2.144c0.515-1.601,0.171-3.602,0.686-5.145c1.286-3.801,1.028-6.201,3.229-11.174
	c0.914-2.058-0.343-1.572,1.143-2.115c0.229-0.828,1.344-3.001,1.83-3.658c0.485-0.686,0.686-1.057,1.113-1.8
	c1.572-2.601,3.316-3.229,4.516-4.63l2.602-2.258c0.485-0.343,0.485-0.2,1.028-0.457c0.313-0.143,0.657-0.371,0.914-0.543
	c2.258-1.486,1.687-0.743,2.743-1.572c1.086-0.857,1.001-0.457,2.83-1.285l12.831-4.402c1.657-0.399,2.486-0.914,4.572-1.028
	c5.173-0.257,1.086-0.686,7.259-1.4c1.029-0.114,1.314-0.343,2.201-0.457c1.771-0.2,3.686-0.458,5.314-0.515
	c1.658-0.028,1.172-0.199,2.315-0.543c1.286-0.371,5.087,0.143,8.888-0.828c0.428-0.115,0.8-0.115,1.229-0.201
	c0.972-0.199,1.086-0.399,2.229-0.199c0.344-0.314,0.172-0.2,0.687-0.457l2.315-0.515c4.258-0.286,7.258-0.972,9.916-1.114
	c1.114-0.058,5.516-0.715,6.115-1.115c0.629-0.457,0.429-0.371,1.029-1.429c0.057-0.058,0.171-0.257,0.199-0.314l1.172-3.2
	c0.543-1.801-0.314-0.115,0.943-2.858c0.285-0.657,0.2-0.857,0.429-1.601c0.286-0.771,0.257-0.257,0.601-1.057
	c0.229-0.572,0.171-1.001,0.399-1.544c0.2-0.485,0.372-0.399,0.571-1.144c0.543-1.971-0.257-0.857,0.829-2.686
	c0.257-0.457,0.915-2.029,1.114-2.516l1.572-3.973c0.314-0.656,0.285-0.399,0.6-1.113c0.258-0.572,0.258-0.973,0.457-1.43
	c0.572-1.258,0.486,0.057,0.715-0.8c0.029-0.086,0.114-0.058,0.143-0.086c-0.113-1.086,0.115-0.886,0.601-1.8
	c1.229-2.173,0.571-1.744,2.372-4.688l8.174-10.717c1.257-1.201,3.715-3.916,5.143-4.287l4.916-3.772
	c1.629-0.8,3.973-2.715,5.344-3.315c1.058-0.457,2.687-0.771,3.458-1.2l4.858-1.715c0.715-0.114,1.086-0.143,1.715-0.429
	c1.371-0.628,5.688-1.515,7.201-1.743c1.029-0.171,2.516-0.543,3.544-0.8c1.943-0.429-0.2,0.429,3.572-0.743
	c1.372-0.429,5.259-0.4,7.916-1c3.515-0.8,8.802-0.057,12.26-0.886c4.772-1.143,28.378-0.915,34.207-0.515
	c1.4,0.086,2.772,0.171,4.373,0.171c2.028,0.029,2.258,0.458,3.857,0.515c2.372,0.085,5.916,0.2,8.145,0.571
	c1.286,0.229,2.315,0.601,3.944,0.686c3.601,0.171,8.173,2.029,10.773,1.915l7.173,1.886c4.973,1.543,4.916,1.572,9.002,3.801
	c0.943,0.514,1.743,0.915,2.744,1.429l0.942,0.657c0.029,0.057,0.086,0.086,0.144,0.115l3.458,3.029
	c0.828,0.771,1.457,1.286,2.2,2.172l4.172,4.544c0.687,0.771,1.058,1.515,1.743,2.344c0.743,0.886,1.058,1.571,1.858,2.543
	c0.657,0.801,1.114,1.801,1.6,2.516c0.972,1.428,2.858,3.572,3.144,5.601c0.457,0.886,0.601,0.515,0.771,2.087l0.543-0.029
	c0.857,0.429,0.286-0.199,0.801,0.943l2.258,4.916c0.171,0.257,5.229,12.432,6.258,13.832c3.744,5.086,2.772,4.857,6.173,5.314
	c1.972,0.286,0.657,0.486,4.916,0.687c3.058,0.114,8.087,0.114,10.688,0.628c2.743,0.516,5.401,0.258,7.944,0.801
	c0.887,0.2,1.086,0.457,1.973,0.572c2.229,0.313,2.829,0.686,4.801,1.057c3.915,0.743,1.715,0.572,3.372,1.029
	c2.915,0.828,0.257,0.229,2.943,1.114c0.429,0.144,4.315,2.144,5.145,2.886c0.028,0.058,0.143,0.229,0.171,0.172
	c0.028-0.057,0.114,0.115,0.172,0.172c0.657,0.715,2,1.515,3.029,2.258c0.914,0.629,2.114,1.514,2.915,2.143
	c0.742,0.314,0.057-0.057,0.828,0.4c1.687,1.029,4.144,3.887,5.287,5.516c0.286,0.371,0.343,0.686,0.6,1.115
	c1.315,2.229,0.429,1.114,1.515,2.857c0.715,1.114,1.372,3.172,1.458,4.658c0.229,0.543,0-0.057,0.4,0.571
	c0.485,0.429,0.371,0.372,0.628,1.2c1.086,3.458,0.286,0.772,0.915,3.944c0.257,1.172,0.571,1.657,0.743,2.601
	c0.199,1.058,0.143,1.857,0.429,2.772c1.2,3.772,0.229,5.915,1.2,8.401c0.857,2.172,0.686,23.921,0.314,27.893
	c-0.629,6.431-1.801,5.087-7.859,5.116c-6.229,0-36.236,0.686-38.151-0.258l-0.229-1.286c0.086-0.942-0.457-3.372-0.686-4.572
	c-0.144-0.629-0.258-1.543-0.429-2.229c-0.286-1.229-0.657-0.857-0.543-1.887l-2.772-4.716c-0.429-0.657-0.886-1.6-1.371-2.286
	l-1.314-1.629c-1.344-1.457-0.857-1.429-1.887-2.429l-1.943-1.658c-2.172-1.914-3.601-2.429-4.115-3.372
	c-0.629-0.2-4.286-2.687-6.201-3.058c-1.429-0.286-1.114-0.429-2.058-0.686c-2.743-0.058-7.373-1.229-9.431-0.915l-6.544,0.915
	l-5.63,2c-0.686,0.343-0.857,0.486-1.572,0.857c-0.543,0.286-0.857,0.571-1.429,0.914l-0.714,0.544
	c-0.029,0.028-0.086,0.085-0.114,0.114c-0.372,0.257-0.229,0.143-0.743,0.371c-1.429,0.601-0.543,0.257-1.515,1
	c-0.515,0.4-2.4,1.915-2.915,1.972c-0.172,0.629-2.2,3.001-2.687,3.602c-0.457,0.6-1.028,1.172-1.372,1.715
	c-0.914,1.371,0.029,1.172-1.543,1.686c-0.028,0.058-0.171,0.457-0.343,0.743l-1.2,2.229c-0.543,1.028-0.257,1.143-0.629,2.058
	c-0.257,0.714-0.543,0.714-0.771,1.571l-0.914,3.973c-0.4,1.486-0.114,2.172-0.229,3.315l-0.285,1.058
	c-0.343,0.313-2.086,0.285-2.486,0.257c-0.829,0-1.629,0-2.429,0.028c-43.639,0.2-87.962,0.058-131.63-0.028
	c-4.572,0-15.488,0.629-19.09-0.343c-0.085-4.573-0.656-6.573-2.314-10.518l-3.172-5.801c-0.086-0.172-0.657-1-0.771-1.144
	c-2.029-2.486-3.458-4.344-6.344-6.259l-6.83-4.029c-2.258-0.972-6.002-2.172-8.432-2.229c-2.086-0.057-4-1.229-6.314-0.543
	c-3.801,1.115-4.287,0.144-6.287,1.001c-2.201,0.914-1.801,0.314-5.201,2.028l-2.43,1.201c-1.258,0.742-1.086,0.313-2.229,1.399
	c-1.43,1.372-1.715,0.857-4.173,3.059c-1.687,1.515-1.058,1.2-1.601,2.058c-0.742,1.229-1.771,1.343-4.229,6.716
	C30.454,132.64,28.71,134.726,28.911,136.126L28.911,136.126z M112.929,21.47c-0.429,1-1.172,1.457-1.857,2.258
	c-1.43,1.6-3.4,4.743-4.63,6.229c-0.601,0.714-0.942,1.343-1.486,2.144c-0.601,0.886-0.686,1.457-1.286,2.314
	c-2.086,3.029-4.4,8.831-5.772,12.375c-0.515,1.314-0.143,1.886-0.857,2.829c-1.144,1.571-1.229,3.172-2.086,5.115l-2.886,8.231
	c-0.344,0.914-0.857,1.342-2.115,1.543c-2.201,0.342-3.801,0.857-6.145,0.971c-1.629,0.086-1.972,0.258-3.201,0.572
	c-1.428,0.343-4.943,0.371-6.687,0.6c-1,0.143-2.028,0.515-2.972,0.601c-2.314,0.229-4.516,0.229-6.83,0.543
	c-1.314,0.144-2.029,0.485-3.059,0.571c-3.771,0.344-2.258-0.028-6.43,0.829c-1.086,0.2-2.086,0.171-3.229,0.372
	c-1.772,0.256-3.344,1.086-6.545,0.942c-1.286-0.114-1.029,0.372-2.115,0.714c-0.771,0.229-1.6,0.229-2.457,0.458
	c-2.372,0.571-3.059,0.601-4.658,1.4c-0.771,0.372-1.743,0.229-2.629,0.571l-4.545,1.515c-1.485,0.515-0.914,0.543-1.914,0.943
	l-8.201,3.915c-1.201,0.771-3.344,2.144-4.259,3.258c-0.399,0.486-0.229,0.286-0.628,0.857c-0.973,1.4-2.229,1.943-2.944,3.059
	l-4.087,8.03c-0.257,0.743-1.485,2.943-1.771,4.315c-0.229,1.057-0.028,1.515-0.543,2.314l-1.657,4.344
	c-0.458,1.772,0.085,3.973-0.458,5.659c-0.971,3.058-0.856,7.087-1.514,10.116c0.543,4.087-0.914,24.034,0.828,25.406
	c1.801,1.372,21.605,0.028,25.892,0.715c0.687,1.172,0.4,0.657,0.629,2.457l1.458,5.659c0.314,0.629,0.971,3.258,2.028,5.029
	c0.543,0.915,0.857,1.286,1.429,2.229c0.972,1.601,3.687,5.029,5.059,6.23c0.057,0.057,0.114,0.085,0.143,0.143l0.286,0.229
	c1.714,1.314,1.257,1.172,3.058,2.286c0.143,0.086,3.058,2.372,4.315,2.715c3.315,0.886,1.144,0.4,2.629,0.943
	c1.8,0.657,4.001,1.144,6.059,1.286c2.343,0.143,0.886,0.457,2.629,0.715l5.345-0.086c0.971-0.229,0.257-0.229,1.143-0.486
	c0.543-0.2,2.572-0.257,3.287-0.371l4-1.115c0.686-0.285,0.572-0.457,1.172-0.686c0.457-0.143,0.943-0.143,1.429-0.343
	c1.258-0.486,6.373-4.087,7.315-5.087l3.373-3.63c0.857-1.171,2.344-2.801,2.943-4.144l2.086-4.115c0.429-0.629,0-0.2,0.6-0.629
	c0.172-0.543,0.486-1.086,0.687-1.915c0.086-0.343,0.144-0.686,0.286-1.171c1.114-3.344,0.343-5.487,1-6.088
	c0.743-0.657,71.044-0.257,77.646-0.229c2.515,0,75.76-0.314,78.017,0.086c0.2,0.571,0.658,4.486,1.286,6.43l2.029,4.688
	c0.515,1.571,0.429,0.485,0.857,1.771c0.629,1.772,0.686,1.887,2.029,3.658c0.514,0.686,1.171,1.457,1.771,2.115
	c4.201,4.286,0.743,1.285,5.887,5.486c0.972,0.771,1.286,0.801,2.4,1.486l5.173,2.4c1.344,0.343,1.629,0.144,2.887,0.715
	c1.8,0.857,4.629,0.6,7.001,0.629c3.687,0,4.001,0.171,7.288-0.543c3.829-0.829,2.543-0.515,5.744-1.801
	c1.028-0.429,0.399-0.343,1.229-0.657c3.029-1.144,0.943-0.486,2.657-1.258c1.086-0.457,1.458-0.857,2.172-1.571l0.801-0.601
	c1.4-1.058,3-2.458,4.115-3.943c0.543-0.743,1.143-1.058,1.829-1.743c2.486-2.401,1.943-2.258,2.8-3.944l0.515-0.714
	c1.915-2.744,0.657-1.887,1.601-3.973c0.028-0.058,0.057-0.114,0.086-0.144c0.514-1.143,0.8-3.144,0.914-4.229
	c0.114-1.114,0.486-2.2,0.457-2.886c0.144-1.286,0.144-1.687,1.486-1.943c0.886-0.144,2.172-0.058,3.087-0.058l42.523-0.257
	c1.172-2.115,1.086-2.4,1.114-5.287c0.028-1.972,0.314-3.744,0.4-5.773c0.257-5.687,0.057-18.775-0.343-24.463
	c-0.086-1.286-0.458-1.143-0.687-2.258c-0.2-1-0.028-2.028-0.086-3.058c-0.114-1.801-0.714-4.43-0.714-5.658
	c0.057-1.001-0.372-2.258-0.657-3.201c-0.372-1.058-0.572-2.286-0.743-3.172c-0.543-0.4-0.172,0.343-0.686-0.715
	c-0.2-0.4-0.144-0.571-0.229-1c-0.257-1.144-0.371-0.857-0.714-1.657c-0.286-0.658-0.286-1.201-0.601-1.887
	c-0.229-0.515-0.485-0.886-0.8-1.571c-3.829-8.031-4.229-6.83-9.631-12.175c-1.058-1.058-3.4-1.829-4.172-3.115
	c-0.344-0.143-0.486-0.429-0.943-0.714l-3.715-1.857c-0.543-0.314-0.829-0.344-1.314-0.658c-2.172-1.371-1.144-0.114-2.687-1.172
	c-0.543-0.4-0.229-0.428-0.943-0.485c-2.114-0.144-5.372-1.515-6.001-1.687c-1.115-0.257-2.286-0.171-3.401-0.343
	c-1.2-0.171-1.629-0.543-2.743-0.714c-1.886-0.344-4.744-0.43-6.63-0.629c-3.286-0.371-16.175-0.658-17.118-1.201
	c-0.886-0.514-1-1.028-1.657-1.886c-1.258-1.601-1.887-2.772-2.743-4.487c-0.743-1.428-2.115-3.457-2.059-5.314
	c-0.714-0.286-1.571-2.688-1.828-3.401c-0.657-1.715-1.801-3.315-1.829-3.401c-0.144-0.428-0.144-0.885-0.314-1.457
	c-0.743-2.2-1.972-3.887-2.772-6.059c-0.2-0.571-0.457-0.801-0.686-1.229c-0.314-0.629-0.2-0.743-0.429-1.314l-3.601-5.059
	c-1.344-2.258-0.4-0.629-1.543-2.029l-2.144-2.943c-3.544-4.401-2.915-3.029-5.059-5.344c-0.714-0.801-1.2-1.258-1.515-2.115
	l-1.571-1.343c-0.601-0.686-0.857-0.943-1.429-1.486c-0.801-0.8-3.916-2.601-4.63-3.086c-3.001-2.029-0.915-0.2-2.887-1.486
	c-0.886-0.6-1.143-0.372-2.2-0.715l-4.201-1.8c-1.058-0.257-1.515-0.086-2.515-0.486l-14.261-3.543
	c-0.686-0.086-2.229-0.115-2.943-0.257c-0.857-0.171-0.886-0.515-2.2-0.629c-2-0.171-3.973,0-5.772-0.372l-5.145-0.829
	c-1.828-0.114-3.915-0.029-5.801-0.086c-4.001-0.085-7.116-0.514-11.374-0.514c-3.943,0-7.888-0.029-11.831,0.028
	c-4.115,0.057-7.401,0.543-11.631,0.572c-6.773,0-9.631,1.086-15.947,1.829c-1.686,0.2-3.972,0.171-5.572,0.514
	c-1,0.2-1.143,0.543-2.429,0.629c-5.516,0.486-3.944,0.943-7.345,1.4c-3.344,0.429-4.801,0.886-7.688,1.629l-4.314,1.686
	c-0.516,0.229-2.658,0.857-4.088,1.743L112.929,21.47z"/>
<path fill-rule="evenodd" clip-rule="evenodd" fill="#BBDEB5" d="M142.878,18.183c-0.801,0.686-1.143,0.914-1.972,1.058
	c-1.258,0.229-1.458-0.114-2.315,0.543c-1.285,1.028-0.686,0.2-2.229,0.686c-0.629,0.2-1.058,0.743-1.4,1.229
	c-1.486-0.915-0.943-0.144-3.314,0.571c-1.458,0.429-2.63,2.144-4.201,3.001c-2.086,1.172-2.516,2.515-3.059,3.058
	c-0.885,0.886-0.371,0.372-1.028,1.4l-0.485,0.714c-0.515,0.658-0.658,0.543-1.201,1.172l-3.914,5.83
	c-1.229,2.973-1.086,1.43-1.229,3.516c-0.515,0.4-1.086,0.629-1.601,2.029c-0.199,0.457-0.257,1.143-0.371,1.514
	c-0.086,0.229-0.229,0.515-0.344,0.715c-0.057,0.057-0.229,0.258-0.256,0.314l-0.314,0.258l-2.373,6.458
	c-1.686,3.201,0.086,2.344-1.343,4.716c-0.543,0.914-0.314,1.229-0.628,2.314c-0.601,2.029-1.287,1.457-0.601,4.63
	c5.001,0.399,12.003,0.114,17.204,0.086l34.121-0.058c3.314,0,14.031,0.572,16.203-0.457l-0.371-24.463
	c-0.143-4.029-0.028-8.23-0.285-12.061c-0.201-3.086,0.571-9.488-0.572-11.574c-5.83-0.829-12.517,0.543-16.918,0.715
	c-6.029,0.2-4.516,1.028-7.487,1.028C147.651,17.125,146.651,18.526,142.878,18.183L142.878,18.183z"/>
<path fill-rule="evenodd" clip-rule="evenodd" fill="#828282" d="M286.996,132.297l1.029-0.114c0.371,0.628,1.2,0.971,1.8,1.571
	l1.601,1.771c0.771,0.715,0.972,2.115,1.886,3.229c0.372,0.429,0.572,0.372,0.886,0.543l0.458,2.43
	c0.343,0.4,0.314,0.714,0.371,1.314c0.058,0.8,0.114,1.657,0.114,2.458c0.028,2.2-0.543,5.229-1.429,7.201
	c-1.2,2.715,0.457,0.915-0.829,2.229c-0.8,0.829-0.6,0.028-0.628,1.571c-0.572-0.199-0.344-0.171-1.144-0.199
	c0,1,0.028,0.743,0.229,1.457c-1.8-0.571-0.485-0.429-2.114,1.029c-0.172,0.143-0.229,0.199-0.4,0.343
	c-0.314,0.229-0.515,0.4-0.829,0.6l-5.829,2.658c-0.829,0.229-7.145-0.058-8.174-0.114c-0.057-0.086-0.171-0.372-0.257-0.515
	l-0.457-0.6c-1.344,0.171-1.001,0.057-1.715-0.429c-0.629-0.4-1.772-0.486-3.344-1.973c-0.058-0.028-0.086-0.085-0.143-0.114
	c-0.029-0.028-0.086-0.086-0.114-0.114c-1.943-2.114-3.858-3.857-4.03-6.658c0.029-0.687-0.399-1.229-0.6-2.058
	c-1.258-5.259-0.457-10.917,3.4-14.461c1.715-1.601,2.086-2.687,5.43-3.887c2.201-0.771,4.344-1.943,7.888-1.543
	c1.572,0.199,0.571,0.543,2.4,0.714C285.081,130.897,285.31,131.783,286.996,132.297L286.996,132.297z M261.99,121.894
	c-0.199,1.258,0.058,0.314-1.771,2.087l-3.772,3.743c-1.114,1.172-3.314,6.03-4.058,7.288c-0.886,1.515-0.371,1.4-0.829,2.801
	c-0.429,1.343-0.714,0.771-0.857,2.943c-0.285,4.829-0.371,6.145,0.114,10.803l1.43,4.772c2.028,2.772,0.371,2,3.2,5.772
	c0.915,1.229,1.4,1.029,1.486,2.601c0.485,1.001,1.657,1.915,2.515,2.83l4.63,3.372c1.2,0.457,0.8,0.028,1.829,0.8l4.486,2.286
	c0.371,0.114,1.028,0.114,1.4,0.144c3.715,0.199,0,0.972,7.03,0.972c8.516,0,5.058-0.629,7.03-0.915
	c3.372-0.515,0.514,0.4,4.543-1.172c1.001-0.371,0.829-0.629,1.601-1l2.629-1.515c0.314-0.172,0-0.028,0.486-0.257
	c2-0.943,1.629-1.029,3.372-2.401l5.059-5.601c1.914-2.858,4.172-8.745,4.344-11.66c0.143-2.544,0.285-8.659-0.2-10.746
	l-1.915-6.059c-0.429-1-0.514-0.686-1-1.629c-1.972-4.029-1.886-3.229-4.401-6.287l-2.114-2.029c-1.172-0.743-0.686-1.2-5.487-3.915
	c-3.657-2.114-2.028-0.771-3.572-1.515c-1.714-0.829-4.2-1.829-6.258-1.886c-3.458-0.114-6.83-0.144-10.174,0.457l-5.944,2.029
	c-0.229,0.085-1.343,0.686-1.715,0.914L261.99,121.894z"/>
<path fill-rule="evenodd" clip-rule="evenodd" fill="#828282" d="M73.063,138.641c2.486,1.372,2.372,6.287,2.286,8.803
	c0,0.828-0.057,1.8-0.199,2.486l-1.544,3.743c-0.429,0.629-0.171,0.314-0.515,0.943c-0.314,0.571-0.199,0.314-0.485,0.715
	c-0.687,0.914-0.314,0.972-1.144,1.771c-1.486,1.457-2.914,2.486-4.744,3.344c-0.885,0.4-0.543,0.485-1.714,0.914
	c-0.8,0.286-1.086,0.486-1.943,0.687c-0.485,0.086-4.544,0.657-4.858,0c-0.057-0.114-0.143-0.086-0.229-0.144
	c-1.887,0.429-6.487-1.314-7.888-2.515c-3.114-2.715-2.715-2.058-5.001-5.401c-1.114-1.629-2.172-7.145-1.972-8.716
	c0.114-0.915,0.457-1.486,0.601-2.087c0.942-3.658-0.687,0.086,1.943-5.858c0.971-2.229,3.686-3.772,5.658-4.973
	c3.2-2,9.773-2.314,13.488-1.028c1.829,0.628,1.6,0.8,2.771,1.371c1.801,0.915,0.915,0.687,2.201,1.658
	C71.005,135.269,72.92,136.926,73.063,138.641L73.063,138.641z M34.054,160.875c0.172,0.515,0.457,0.485,0.629,1.028l0.6,0.372
	c0.258,0.229,0.287,0.286,0.458,0.571l0.485,0.972c2.115,3.001,5.059,5.773,8.488,7.23c0.742,0.314,0.457,0.429,1.2,0.743
	c0.657,0.286,0.771,0.114,1.343,0.371c0.344,0.172,1,1.086,3.4,1.801c0.601,0.2,0.658,0.172,1.258,0.485
	c2.029,1.029,8.83,0.658,10.831,0.572c6.431-0.258,1.314-0.429,5.802-1.144c0.971-0.143,0.514,0.058,1.172-0.4
	c0.828-0.543,2.857-1.543,4-1.514l0.029,0.229c0.514-1.315,2.743-2.344,3.829-3.173l2.543-2.543c0.114-0.086,0.715-0.572,0.8-0.657
	c0.372-1.001,2.373-3.001,3.145-4.888c0.199-0.514,0.485-1.2,0.742-1.657l1.516-2.314c1.285-2.115,0.027-2.43,1.199-4.887
	c1.058-2.258,0.572-6.773,0.344-9.317l-0.344-2.429c-0.342-0.686-0.571-0.286-0.629-1.601c-0.143-2.857,0.058-0.972-0.771-3.001
	c-0.885-2.114-0.171-0.485-0.942-1.715c-0.372-0.571-0.086-0.171-0.343-0.857c-0.371-1-0.371-0.657-0.857-1.657
	c-0.515-1.058-1.344-1.972-1.943-2.857c-0.943-1.314-1.943-2.229-2.973-3.315l-3.457-2.857c-0.601-0.4-1.086-0.429-1.629-0.801
	c-0.457-0.314,0.086,0.029-0.4-0.314c-0.029-0.028-0.086-0.085-0.143-0.114c-0.029-0.028-0.086-0.057-0.144-0.086
	c-1.372-0.914-1.144-0.856-2.458-1.229c-1.828-0.485-0.171-0.485-1.771-0.857c-0.886-0.2-2.2-0.028-3.086-0.515l-0.601-0.399
	c-1.771-0.829-10.573-0.343-12.317-0.144c-1.971,0.2-0.428,0.314-1.886,0.801c-0.8,0.257-1.429,0.086-2.229,0.257
	c-1.428,0.286-0.285,0.372-1.6,0.829c-3.201,1.143,0.086,0-2.687,1.2c-1.058,0.457-0.257,0.429-1.515,0.943
	c-0.571,0.2-0.314,0.028-0.886,0.343c-1.144,0.686-2.972,2.515-3.944,3.515c-0.457,0.458-0.6,0.801-1.086,1.344
	c-0.543,0.629-0.971,0.771-1.229,1.114l-0.886,1.543c-0.457,0.857-0.399,1.058-0.886,1.772c-0.143,0.229-0.258,0.371-0.314,0.457
	c-0.057,0.028-0.086,0.086-0.143,0.114c-0.029,0.058-0.086,0.086-0.115,0.143c-0.485,0.543-0.199,0-0.457,0.657
	c-2.371,5.83-1.028,1.458-2.429,7.431c-0.571,2.458-0.399,0.058-0.543,4.287c-0.028,0.914,0.771,8.373,0.972,8.916
	c0.343,0.857,0.429,0.715,0.743,1.943C32.369,157.189,33.941,158.875,34.054,160.875L34.054,160.875z"/>
<path fill-rule="evenodd" clip-rule="evenodd" fill="#6CC9C9" d="M271.478,134.269c-0.114,1.314-0.286,0.371-2.086,2.286
	c-1.058,1.114-1,0.657-1.829,2.286c-1.4,2.772-1.943,3.058-1.915,6.659c0.058,3.857,0,3.743,1.687,6.858
	c0.8,1.429,1.343,2.43,2.857,3.658c0.915,0.715,0.686,0.485,1.029,1.172c1.2-0.086,6.058,3.286,10.945,1.601
	c1.429-0.515,5.601-3.201,6.229-3.973c0.543-0.629,0.943-1.229,1.314-1.857c0.4-1.458,0.143-0.314,0.543-1.086l1.058-3.029
	c1.143-3.344-0.257-9.06-3.286-12.032c-0.829-0.8-1.744-1.771-2.944-2.372c-1.2-0.657-2.715-1.314-4.086-1.4
	C272.021,132.64,274.593,134.183,271.478,134.269L271.478,134.269z"/>
<path fill-rule="evenodd" clip-rule="evenodd" fill="#6CC9C9" d="M52.43,134.983c-0.571,0.857-0.829,0.943-1.743,1.572
	c-3.658,2.515-3.486,5.087-4.258,6.401c-0.572,1-0.43,1.658-0.43,3.029c0,1.058-0.171,2.486,0.258,3.458
	c0.371,0.857,0.2-0.086,0.6,1.029c0.201,0.571,0.115,0.828,0.372,1.371c1.028,2.258,2.886,4.345,4.944,5.659
	c0.428,0.285,0.57,0.314,1.057,0.6c2.029,1.2,0.429,0.314,2.658,0.829c0.4,0.086,0.943,0.343,1.371,0.429
	c1.029,0.2,2.201,0.2,3.172,0c4.602-1,1.658,0.429,5.174-1.801l1.8-0.886c0.058-0.057,0.286-0.172,0.372-0.2l0.399-0.2
	c0.229-0.743-0.085,0.114,0.629-0.6l1.2-1.743c0.914-1.372,2.115-2.658,2.029-4.259c-0.286-2.771,1.143-3.943-1.229-9.174
	c-1.029-2.286-1.943-2.543-2.658-3.314c-0.629-0.657-0.972-1.429-2.801-2.058c-2.344-0.771,0.743-0.258-3.601-1.229
	c-2.544-0.571-1.343-1.543-5.772-0.028c-0.715,0.258-1.314,0.229-1.943,0.515C53.116,134.812,53.745,134.955,52.43,134.983
	L52.43,134.983z"/>
<path fill-rule="evenodd" clip-rule="evenodd" fill="#1A1A1B" d="M113.701,44.589c0-0.543,0.429-1.429,0.657-2.172
	c0.372-1.229,0.372-0.914,0.972-1.828c0.457-0.715,1.715-2.944,1.857-3.773c0.172-1.229,0.686-1.457,1.2-2.172
	c0.2-0.285,0.4-0.514,0.601-0.828c0.543-0.973,1.086-2.201,1.801-3.059c0.171-0.171,0.484-0.571,0.686-0.771
	c1.771-2.029,2.743-3.715,5.258-5.887c0.258-0.229,0.486-0.371,0.801-0.629c0.885-0.686-0.144-0.4,1.257-0.572
	c0.657-0.027,1.687-1.028,3.458-1.742c0.543-0.229,1.086-0.258,1.515-0.457c0.771-0.344,0-0.201,1-0.629
	c0.485-0.201,1.144-0.229,1.601-0.344c1.143-0.285,1.486-0.886,2.771-0.686l10.488-2.458c1.2-0.114,1.143-0.229,2.115-0.457
	l13.831-1.343c1.572-0.057,9.174-0.457,10.003,0.286c1.028,1.258,0.399,9.803,0.571,12.061c0.313,3.887,0.143,8.174,0.485,11.975
	l0.2,24.748c-1.886,1.115-5.601,0.601-8.087,0.572h-43.811c-19.146,0.057-18.518,1.629-16.488-5.602c0.257-1,0.57-1.314,0.771-2.4
	C109.5,54.621,112.329,45.904,113.701,44.589L113.701,44.589z M128.475,20.641c-1.114,0.485-3.114,1.657-4.001,2.458
	c-0.057,0.057-0.571,0.686-0.771,0.885l-2.629,2.744l0.172-0.057c-0.372,0.828-0.144,0.314-0.658,1.028
	c-0.971,1.343-2.2,2.657-3.058,4.173c-0.429,0.742-0.601,1.057-1.114,1.801l-2.144,3.572c-0.371,0.971-3.114,6.373-4.144,9.23
	c-0.229,0.6-0.229,0.428-0.457,1c-0.314,0.801-0.4,1.715-0.629,2.572c-0.457,1.543-1.029,2.801-1.515,4.287
	c-0.257,0.714-0.429,1.371-0.714,2.143c-0.172,0.515-0.201,0.486-0.372,1.086c-0.2,0.771-0.144,0.887-0.485,1.172
	c0.171,1.801-0.658,1.058-0.486,2.744c0.229,1.629-0.743,3.115-0.258,4.058c0.629,1.229,2.658,0.771,4.23,0.8
	c3.314,0.058,6.63,0.058,9.916,0.029c6.43-0.058,13.518-0.457,19.861-0.172l19.833,0.172c3.315-0.258,6.516,0.086,9.917,0.028
	c2.914-0.028,7.201,1.058,9.516-0.601c0.801-1.172-0.113-23.006-0.057-26.521c0.086-4.43-0.344-8.63-0.172-13.06
	c0.086-2.115,0.058-4.659-0.086-6.773c-0.086-1.344-0.199-5.145-0.485-6.23c-1-1.515-16.89-0.171-19.661,0.229
	c-4.145,0.629-3.858-0.057-7.859,1.2c-0.486,0.143-5.858,0.458-10.773,2.029l-5.744,1.515L128.475,20.641z"/>
<path fill-rule="evenodd" clip-rule="evenodd" fill="#1A1A1B" d="M220.781,16.297c0.829-0.085,1.372,0.229,2.144,0.458
	c0.943,0.257,1.801,0.085,2.887,0.286c0.743,0.143,1.371,0.543,2.314,0.8c0.886,0.2,1.887,0.229,2.715,0.457
	c0.915,0.257,5.602,2.001,6.545,2.657c0.886,0.629,0.8,0.658,1.771,1.144c0.686,0.172,1.257,0.458,1.886,0.972
	c0.372,0.314,0.972,1.115,1.258,1.486c0.629,0.857,2.286,1.629,2.144,2.887c0.8,0.199,0.114-0.515,1.4,1.514l2.8,4.659
	c1.258,2.257,3.487,7.802,3.916,10.088c0.257,1.515,1.171,2.972,1.571,4.401l1.972,10.26c0.143,0.428,0.771,4.772,0.143,5.486
	c-0.714,0.744-2.343,0.572-3.543,0.543l-60.527,0.029c-1.4-0.172-0.543,0-0.829-0.314c-1.915,0.114-1.457-2.058-1.457-3.772
	c0-1.8,0-3.572-0.058-5.345l-0.286-21.291c-0.085-3.543,0.144-7.344-0.057-10.888c-0.143-2.144-1.629-8.002,0.943-8.717
	c2.371-0.657,12.345-0.171,15.488,0.286c1.572,0.229,3.602,0.171,5.373,0.286c3.4,0.229,5.173,0.572,8.259,1.058
	C220.867,15.954,220.524,15.925,220.781,16.297L220.781,16.297z M257.99,66.453c1.457-0.829,1.057-2.258,0.828-4.002
	c-0.257-1.8-0.285-3.229-0.571-5.001l-3.115-13.346c-0.942-2.087-0.257-1.486-1.286-2.887l-3.4-8.974
	c-0.743-0.429-0.143,0.143-0.715-0.657c-0.686-0.915-2.8-5.03-4.258-6.602l-1.2-1.286c-1.343-1.943-2.144-1.143-2.372-2.658
	c-0.828-1-2.486-1.8-3.658-2.657c-0.828-0.629-1.229-0.429-2.229-0.915c-1.029-0.515-3.258-1.4-4.344-1.286
	c-2.001,0-3.43-0.857-5.173-1.143l-10.145-1.915c-6.944-0.257-9.545-1.229-17.633-1.086c-2.086,0.058-4.173,0.115-6.287,0.115
	c-2.829-0.029-2.915,0.314-5.259,0.771c-0.171,10.145,0.601,20.148,0.629,30.208c0.029,5.115,0.144,10.145,0.2,15.261
	c0.086,9.002-1.343,8.03,7.573,8.06C198.119,66.481,255.646,66.138,257.99,66.453L257.99,66.453z"/>
<path fill-rule="evenodd" clip-rule="evenodd" fill="#1A1A1B" d="M271.478,134.269c0.057-0.486-0.2-0.286,0.086-0.629
	c1.343-0.086,1.257-0.429,2.2-0.771c1.715-0.657,5.916-0.743,7.659-0.314c1.286,0.343,1.028,0.114,2.114,0.743
	c0.829,0.457,1.086,0.343,1.943,0.714c1.915,0.829,3.458,3.115,4.687,4.744l0.229,0.258c0.286,0.371,0.2,0.114,0.429,0.714
	c1.086,2.715,1.544,6.659,0.915,9.631c-0.229,1.144-0.372,0.743-0.801,2.058c-0.343,1.058-0.285,1.058-1.229,1.544
	c-0.371,0.628-0.771,1.229-1.314,1.857c-0.629,0.771-4.801,3.458-6.229,3.973c-4.888,1.686-9.745-1.687-10.945-1.601
	c-1.658-0.286-4.344-3.973-4.63-4.688c-0.743-1.828-1.943-5.001-1.943-7.001c0-1.629,0.314-0.857,0.829-3.772
	C265.762,140.07,269.02,134.726,271.478,134.269L271.478,134.269z M263.933,151.874c1.2,0.314,0.029,0.714,1.801,3.086
	c0.8,1.086,1.286,1.486,2.2,2.372c1.772,1.687,2.115,2.029,4.63,3.258c1.286,0.629,0.343,0.029,0.715,0.572
	c1.485-0.144,1.886,0.371,3.144,0.571c0.828,0.114,2.715,0.057,3.601,0c2.4-0.143,3.887-0.801,5.744-1.629
	c3.715-1.601,7.688-7.002,8.002-10.003c0.143-1.229,0.428-2.144,0.543-3.172c0.171-1.715-0.458-5.201-0.887-6.401
	c-1.028-3.001-3.229-5.259-5.486-7.288c-0.2-0.2-0.343-0.314-0.515-0.485c-0.286-0.286-0.172-0.114-0.429-0.457
	c-1.686-0.515-1.915-1.4-4.544-1.658c-1.829-0.171-0.828-0.515-2.4-0.714c-3.544-0.4-5.687,0.771-7.888,1.543
	c-3.344,1.2-3.715,2.286-5.43,3.887c-3.857,3.544-4.658,9.202-3.4,14.461C263.534,150.644,263.962,151.187,263.933,151.874
	L263.933,151.874z"/>
<path fill-rule="evenodd" clip-rule="evenodd" fill="#1A1A1B" d="M72.035,149.672c0.086,1.601-1.115,2.887-2.029,4.259l-1.2,1.743
	c-0.714,0.714-0.4-0.144-0.629,0.6l-0.171,0.972c-2.229,0.829-5.688,3.744-10.917,2.744c-1.229-0.258-2.887-0.657-3.915-1.344
	c-0.486-0.314-0.887-0.457-1.258-0.686c-2.915-1.829-5.029-4.487-6.087-7.888c-0.601-1.972-0.399-4.63-0.144-6.744
	c0.229-1.943,1.172-3.458,2.001-4.916c1.058-1.915,0.714-0.771,1.829-1.601l1.629-1.972l1.286,0.143
	c0.628-1.543,0.942-0.714,3.343-1.8c4.03-1.801,13.518,0.972,16.09,8.03c0.771,2.058,1.086,4.258,0.943,6.459
	C72.691,149.873,72.234,149.501,72.035,149.672L72.035,149.672z M57.974,161.904c2.143-0.143,2.973-0.199,4.858-0.6
	c4.286-0.915,1.399-0.515,3.715-1.372c1.343-0.485,2.315-1.286,3.2-2.086c1.229-1.144,1.516-1.829,2.258-2.829
	c5.887-8.031,1.144-14.89,1.058-16.376c-0.143-1.715-2.058-3.372-3.286-4.286c-1.286-0.972-0.4-0.743-2.201-1.658
	c-1.172-0.571-0.942-0.743-2.771-1.371c-3.715-1.286-10.288-0.972-13.488,1.028c-1.973,1.2-4.688,2.743-5.658,4.973
	c-2.63,5.944-1.001,2.2-1.943,5.858c-0.144,0.601-0.486,1.172-0.601,2.087c-0.2,1.571,0.857,7.087,1.972,8.716
	c2.286,3.344,1.887,2.687,5.001,5.401C51.487,160.589,56.087,162.333,57.974,161.904L57.974,161.904z"/>
<path fill-rule="evenodd" clip-rule="evenodd" fill="#9B9C9C" d="M89.609,157.332c-0.6,0.429-0.171,0-0.6,0.629l-2.086,4.115
	c-0.6,1.343-2.086,2.973-2.943,4.144l-3.373,3.63c-0.942,1-6.058,4.601-7.315,5.087c-0.485,0.2-0.972,0.2-1.429,0.343
	c-0.6,0.229-0.486,0.4-1.172,0.686l-4,1.115c-0.715,0.114-2.744,0.171-3.287,0.371c-0.886,0.258-0.172,0.258-1.143,0.486
	l-5.345,0.086c-1.743-0.258-0.286-0.572-2.629-0.715c-2.058-0.143-4.259-0.629-6.059-1.286c-1.485-0.543,0.687-0.058-2.629-0.943
	c-1.258-0.343-4.173-2.629-4.315-2.715c-1.801-1.114-1.344-0.972-3.058-2.286l-0.286-0.229c-0.028-0.058-0.086-0.086-0.143-0.143
	c-1.372-1.201-4.087-4.63-5.059-6.23c-0.571-0.943-0.886-1.314-1.429-2.229c-1.058-1.771-1.714-4.4-2.028-5.029l-1.458-5.659
	c-0.229-1.8,0.058-1.285-0.629-2.457c-4.286-0.687-24.091,0.657-25.892-0.715c-1.742-1.372-0.285-21.319-0.828-25.406l-0.172,0.372
	c-0.486,1.343,0.2-1.201-0.143,0.399l-0.086,5.573c-0.114,3.144-0.143,17.633,0.229,18.947c0.457,1.601,3.544,1.172,5.344,1.172
	c2.086-0.028,4.201,0.028,6.287,0c3.059-0.058,10.146-0.343,12.632,0.114c2.743,0.485,2.657,1.086,2.772,3.973
	c0.113,3.058,0.628,2.086,1.086,3.601c0.199,0.657,0,0.486,0.314,1.172c1.629,3.372-0.029,1.686,1.342,3.687l1.258,1.886
	c0.629,0.772,0.515,1.515,1.086,2.058c0.515,0.486,0.2,0.029,0.857,0.543c1.229,0.943,1.687,3.087,3.658,4.602
	c1.429,1.086,1.543,1.887,2.314,2.229l3.258,1.886c0.601,0.457,0.344,0.343,0.771,0.715c0.973,0.857,1,0.057,2.172,0.972
	c2.115,1.657,2.201-0.314,2.772,1.629c0.743,0,1.743-0.028,2.458,0.028c3.029,0.286-1.4,0.943,6.258,1
	c1.715,0,8.431,0.144,9.374-0.285c1.171-0.515,0-0.543,1.714-0.715c0.857-0.086,1.4,0.028,2.258-0.172l1.602-0.742
	c0.342-0.2,0.57-0.344,0.742-0.458c2.516-1.743,0.286,0.687,2.658-1.429l0.457-0.314c2.515-1.515,2.4-1.972,3.973-2.029
	c1.172-1.828,1.371-1.314,2.343-2.486c0.372-0.457,0.458-1.028,1.943-2.657l2.601-3.458
	C87.867,162.047,89.466,159.589,89.609,157.332L89.609,157.332z"/>
<path fill-rule="evenodd" clip-rule="evenodd" fill="#9B9C9C" d="M139.134,19.041c1.687,0.258,2.086-0.714,3.744-0.857
	c3.772,0.343,4.772-1.058,7.716-1.058c2.972,0,1.458-0.829,7.487-1.028c4.401-0.172,11.088-1.543,16.918-0.715
	c1.144,2.086,0.371,8.488,0.572,11.574c0.257,3.83,0.143,8.031,0.285,12.061l0.371,24.463c-2.172,1.029-12.889,0.457-16.203,0.457
	l-34.121,0.058c-5.201,0.028-12.203,0.313-17.204-0.086c-0.687-3.173,0-2.601,0.601-4.63c0.313-1.086,0.085-1.4,0.628-2.314
	c1.429-2.372-0.343-1.515,1.343-4.716l2.373-6.458l0.057-1.201c-1.372,1.314-4.201,10.031-4.486,11.832
	c-0.201,1.086-0.515,1.4-0.771,2.4c-2.029,7.23-2.658,5.658,16.488,5.602h43.811c2.486,0.028,6.201,0.543,8.087-0.572l-0.2-24.748
	c-0.343-3.801-0.172-8.088-0.485-11.975c-0.172-2.258,0.457-10.803-0.571-12.061c-0.829-0.743-8.431-0.343-10.003-0.286
	l-13.831,1.343c-0.973,0.229-0.915,0.343-2.115,0.457L139.134,19.041z"/>
<path fill-rule="evenodd" clip-rule="evenodd" fill="#5E5E5F" d="M158.568,12.811c-2.372,0.028-14.261,1.857-16.604,2.572
	c-1.201,0.372-1.43,0.286-2.744,0.458c-1.543,0.2-0.971,0.886-2.515,0.657c-1.058,1.372-2.829,1.057-4.43,1.8
	c-0.743,0.372-1.314,0.601-1.942,0.886c-1.943,0.973-1.602,0.829-1.858,1.458l5.173-2.458l5.744-1.515
	c4.915-1.572,10.287-1.886,10.773-2.029c4.001-1.257,3.715-0.571,7.859-1.2c2.771-0.4,18.661-1.743,19.661-0.229
	c0.286,1.086,0.399,4.887,0.485,6.23c0.144,2.114,0.172,4.658,0.086,6.773c-0.172,4.43,0.258,8.63,0.172,13.06
	c-0.057,3.515,0.857,25.349,0.057,26.521c-2.314,1.658-6.602,0.572-9.516,0.601c-3.401,0.058-6.602-0.286-9.917-0.028l-19.833-0.172
	c-6.344-0.285-13.432,0.114-19.861,0.172c-3.286,0.028-6.602,0.028-9.916-0.029c-1.572-0.028-3.602,0.43-4.23-0.8
	c-0.485-0.942,0.486-2.429,0.258-4.058l-0.657,1.972c-0.286,0.657-0.657,1.028-0.485,1.8c0.314,1.4,1.656,1.772,3.429,1.687
	c3.401-0.171,6.974,0.086,10.402,0.028c6.716-0.172,13.86-0.543,20.576-0.285c3.144,0.113,6.858,0.171,9.888,0.199l20.348,0.115
	c1.686,0,3.371,0.086,5.086,0.113c1.029,0,2.887,0.115,3.773-0.229c1.143-0.399,0.514-0.028,0.914-0.686
	c0.914-1.801,0.057-32.521,0.028-37.323c-0.028-3.058,0.114-6.116,0-9.174c-0.257-8.173,0.914-8.374-11.003-7.43
	C164.769,12.524,161.71,12.782,158.568,12.811L158.568,12.811z"/>
<path fill-rule="evenodd" clip-rule="evenodd" fill="#5E5E5F" d="M187.917,66.539c3.83,1.057,4.03,0.57,8.145,0.628h17.89
	c3.744-0.257,4.43-0.372,8.745-0.314c3.001,0.058,5.944-0.028,8.945-0.058c5.801-0.057,11.116,0.4,17.66,0.229
	c1.372-0.028,7.603,0.515,8.688-0.571c-2.344-0.314-59.871,0.028-62.414,0c-8.916-0.029-7.487,0.942-7.573-8.06
	c-0.057-5.116-0.171-10.146-0.2-15.261c-0.028-10.06-0.8-20.063-0.629-30.208c2.344-0.458,2.43-0.8,5.259-0.771
	c2.114,0,4.201-0.057,6.287-0.115c8.088-0.143,10.688,0.829,17.633,1.086l10.145,1.915c1.743,0.286,3.172,1.143,5.173,1.143
	c-0.515-0.8-0.028-0.257-1.144-0.686c-2.143-0.857-2.028-0.4-3.771-0.8c-0.801-0.2-1.43-0.515-2.401-0.686
	c-3.4-0.515-4.601-1.115-7.716-1.257c-2.144-0.114-3.715-0.372-5.572-0.6c-5.802-0.772-17.804-0.972-23.605-0.115
	c-0.771,1.4-0.743,1.144-0.714,3.029l0.114,10.402c0,11.718,0.657,22.635,0.742,34.381
	C187.602,61.879,187.946,65.081,187.917,66.539L187.917,66.539z"/>
<path fill-rule="evenodd" clip-rule="evenodd" fill="#CAC9C9" d="M158.568,12.811c3.143-0.029,6.201-0.286,9.201-0.543
	c11.917-0.943,10.746-0.743,11.003,7.43c0.114,3.058-0.028,6.116,0,9.174c0.028,4.802,0.886,35.522-0.028,37.323
	c-0.4,0.657,0.229,0.286-0.914,0.686c-0.887,0.344-2.744,0.229-3.773,0.229c-1.715-0.027-3.4-0.113-5.086-0.113l-20.348-0.115
	c-3.029-0.028-6.744-0.086-9.888-0.199c-6.716-0.258-13.86,0.113-20.576,0.285c-3.429,0.058-7.001-0.199-10.402-0.028
	c-1.772,0.086-3.114-0.286-3.429-1.687c-0.172-0.771,0.199-1.143,0.485-1.8l0.657-1.972c-0.172-1.687,0.657-0.943,0.486-2.744
	c-0.258,0.2-0.258,0.086-0.572,0.486c-0.742,0.971-0.257,2.143-1.258,4.258l-0.428,0.801c-0.286,0.428-0.887,0.399,0.485,2.057
	c1.544,1.857,2.915,1.344,6.001,1.287c3.258-0.086,6.631,0.027,9.917,0.027c6.516,0,13.089-0.229,19.604-0.113l19.576,0.086
	c6-0.372,13.916,0.714,19.518-0.144c1.258-2.229,0.829-5.602,0.829-9.088c0-3.315-0.257-6.315-0.257-9.431
	c0-6.545,0.028-13.09-0.115-19.605l-0.114-14.289c0-1.972-0.457-3.229-1.914-3.572c-1.144-0.257-8.202-0.028-9.717,0.086
	c-0.914,0.086-7.345,0.6-8.259,0.915c-0.086,0.028-0.143,0.057-0.229,0.085L158.568,12.811z"/>
<path fill-rule="evenodd" clip-rule="evenodd" fill="#9B9C9C" d="M34.054,160.875c-0.113-2.001-1.686-3.687-2.114-5.259
	c-0.314-1.229-0.4-1.086-0.743-1.943c-0.2-0.543-1-8.002-0.972-8.916c0.144-4.229-0.028-1.829,0.543-4.287
	c1.4-5.973,0.058-1.601,2.429-7.431c0.258-0.657-0.028-0.114,0.457-0.657c0.029-0.057,0.086-0.085,0.115-0.143
	c0.057-0.028,0.086-0.086,0.143-0.114c0.057-0.086,0.172-0.229,0.314-0.457c0.486-0.715,0.429-0.915,0.886-1.772l0.886-1.543
	c0.258-0.343,0.686-0.485,1.229-1.114c0.486-0.543,0.629-0.886,1.086-1.344c0.973-1,2.801-2.829,3.944-3.515
	c0.571-0.314,0.314-0.143,0.886-0.343c1.258-0.515,0.457-0.486,1.515-0.943c2.772-1.2-0.515-0.058,2.687-1.2
	c1.314-0.457,0.172-0.543,1.6-0.829c0.801-0.171,1.43,0,2.229-0.257c1.458-0.486-0.085-0.601,1.886-0.801
	c1.744-0.199,10.546-0.686,12.317,0.144l0.601,0.399c0.886,0.486,2.2,0.314,3.086,0.515c1.601,0.372-0.057,0.372,1.771,0.857
	c1.314,0.372,1.086,0.314,2.458,1.229c0.058,0.029,0.114,0.058,0.144,0.086c0.057,0.029,0.113,0.086,0.143,0.114
	c0.486,0.344-0.057,0,0.4,0.314c0.543,0.372,1.028,0.4,1.629,0.801l3.457,2.857c1.029,1.086,2.029,2.001,2.973,3.315
	c0.6,0.886,1.429,1.8,1.943,2.857c0.486,1,0.486,0.657,0.857,1.657c0.257,0.687-0.029,0.286,0.343,0.857
	c0.771,1.229,0.058-0.399,0.942,1.715c0.829,2.029,0.629,0.144,0.771,3.001c0.058,1.314,0.287,0.915,0.629,1.601l0.344,2.429
	c0.229,2.544,0.714,7.06-0.344,9.317c-1.172,2.457,0.086,2.771-1.199,4.887l-1.516,2.314c-0.257,0.457-0.543,1.144-0.742,1.657
	c-0.771,1.887-2.772,3.887-3.145,4.888l0.801-0.114l4.086-5.974l1.373-3.286c0.199-0.915,0.485-1.172,0.714-2.058
	c0.229-0.801,0.2-3.858,0.886-4.059c0.029,0,0.057,0,0.086,0l0.114-6.544c-0.114-1.2-0.229-0.743-0.485-1.687
	c-0.314-1.172-0.286-2.486-0.601-3.829c-0.743-3.058-2.687-6.487-4.458-8.888l-6.487-6.802c-1.515-1.115-5.487-3.487-7.059-3.887
	c-4.229-1.144-4.144-1.972-9.316-2.029c-5.287-0.058-6.83,0.286-11.488,1.771c-5.03,1.601-10.06,4.944-13.117,8.974l-2.4,4.087
	c-0.4,0.657-0.571,0.801-0.857,1.601c-0.601,1.543-0.257,0.429-0.829,1.314c-0.371,0.571-0.229,0.829-0.514,1.629l-1.715,6.944
	c-0.258,2.258-0.172,5.974,0.514,8.06c0.543,1.715,0.172,2.972,2.059,6.858c0.543,1.144,0.342,1.601,1.028,2.315L34.054,160.875z"/>
<path fill-rule="evenodd" clip-rule="evenodd" fill="#CAC9C9" d="M250.445,32.244l3.4,8.974c1.029,1.4,0.344,0.8,1.286,2.887
	l3.115,13.346c0.286,1.772,0.314,3.201,0.571,5.001c0.229,1.744,0.629,3.173-0.828,4.002c-1.086,1.086-7.316,0.543-8.688,0.571
	c-6.544,0.171-11.859-0.286-17.66-0.229c-3.001,0.029-5.944,0.115-8.945,0.058c-4.315-0.058-5.001,0.058-8.745,0.314h-17.89
	c-4.114-0.058-4.314,0.429-8.145-0.628c-0.085,1.656,2.973,1.171,5.487,1.113c2.2-0.027,4.344,0.086,6.544,0.029
	c4.401-0.143,8.859,0.057,13.289-0.029c8.888-0.171,17.747-0.113,26.634,0c4.173,0.029,9.002-0.285,13.061-0.027
	c4.029,0.257,6.973,0.514,6.944-3.173c-0.028-2.429-1-9.917-1.715-11.803c-0.343-1.001-0.285-1.743-0.571-2.858
	c-0.286-1.229-0.629-0.714-0.743-2.286c-0.2-2.058-0.257-1.229-0.829-2.571c-0.514-1.144-0.028-2.059-0.543-2.916
	c-0.371-0.6-0.429-0.143-0.657-1.028c-0.114-0.485-0.085-1.2-0.143-1.715c-0.343-0.942-0.343,0.485-0.886-1.515
	c-0.258-0.943-0.543-1.314-0.857-1.887l-3.516-7.145c-1.485-2,0.029-0.656-1.514-2.258c-0.543-0.543-0.058-0.285-0.772-0.914
	c-0.028-0.686,0.114-0.028-0.6-0.229c0.229,0.686,1.686,2.915,2.114,3.458l1.544,2.286
	C250.387,31.416,250.387,31.787,250.445,32.244L250.445,32.244z"/>
<path fill-rule="evenodd" clip-rule="evenodd" fill="#CAC9C9" d="M187.917,66.539c0.029-1.458-0.314-4.659-0.314-6.688
	c-0.085-11.746-0.742-22.663-0.742-34.381l-0.114-10.402c-0.029-1.886-0.058-1.629,0.714-3.029
	c5.802-0.857,17.804-0.657,23.605,0.115c1.857,0.229,3.429,0.486,5.572,0.6c3.115,0.143,4.315,0.743,7.716,1.257
	c0.972,0.171,1.601,0.486,2.401,0.686c1.743,0.4,1.629-0.058,3.771,0.8c1.115,0.429,0.629-0.114,1.144,0.686
	c1.086-0.114,3.314,0.771,4.344,1.286c1,0.486,1.4,0.286,2.229,0.915c1.172,0.857,2.83,1.657,3.658,2.657
	c0.972,0.4,1.172,0.744,2.058,1.572c0.857,0.801,0.657,1.029,1.772,1.572c0.028-1.029-0.314-0.801-0.943-1.715
	c-0.857-1.229,0.457,0.143-0.515-0.658l-5.716-4.172c-2.172-0.686-0.571-0.171-1.515-0.686c-0.514-0.314-1.2-0.257-1.943-0.514
	c-1.2-0.4-0.028-0.286-1.399-0.714c-0.857-0.257-1.172-0.143-1.943-0.515c-2.001-0.886-2.315-0.2-4.458-1.086
	c-0.144-0.086-0.715-0.286-0.857-0.314c-1.515-0.372-3.115-0.257-4.059-0.6c-3.572-1.286-1.771-0.314-3.829-0.771
	c-1.801-0.4,0.057-0.4-1.458-0.6c-1.143-0.171-3.258-0.114-4.572-0.2c-1.657-0.143-2.972-0.143-4.601-0.171
	c-1.229-0.029-2.144-0.6-3.63-0.686c-3.372-0.171-15.718-0.457-17.317,1c-1.115,1.029-0.572,24.634-0.486,27.721
	c0.172,8.002,0.028,16.776,0.4,24.464c0.028,0.771-0.058,1.514,0.485,2.143C187.716,66.509,187.545,66.367,187.917,66.539
	L187.917,66.539z"/>
<path fill-rule="evenodd" clip-rule="evenodd" fill="#9B9C9C" d="M310.772,149.387c0.771-0.601,0.314-1.172,2.144-1.258
	c0.943-0.028,1.972,0.028,2.915,0.028h18.146c4.03,0,8.088-0.057,12.117,0c3.458,0.029,8.487,0.172,11.86-0.086
	c0.229-0.229,1.257-1.515,1.371-1.857c0.286-0.686,0.229-2.2,0.229-3.144c0.058-5.915,0.343-3.172,0.687-5.858l0.057-19.548
	c-0.171-2.058-0.714-3.172-0.743-5.801l-0.543-5.944c-0.8-3.544-0.2-4.63-1.457-5.287c0,1.229,0.6,3.857,0.714,5.658
	c0.058,1.029-0.114,2.058,0.086,3.058c0.229,1.115,0.601,0.972,0.687,2.258c0.399,5.688,0.6,18.776,0.343,24.463
	c-0.086,2.029-0.372,3.802-0.4,5.773c-0.028,2.887,0.058,3.172-1.114,5.287l-42.523,0.257c-0.915,0-2.201-0.086-3.087,0.058
	C310.916,147.701,310.916,148.101,310.772,149.387L310.772,149.387z"/>
<path fill-rule="evenodd" clip-rule="evenodd" fill="#9B9C9C" d="M44.857,70.51c3.201,0.144,4.772-0.687,6.545-0.942
	c1.143-0.201,2.143-0.172,3.229-0.372c4.172-0.857,2.658-0.485,6.43-0.829c1.029-0.086,1.744-0.428,3.059-0.571
	c2.314-0.314,4.516-0.314,6.83-0.543c0.943-0.086,1.972-0.458,2.972-0.601c1.743-0.229,5.259-0.257,6.687-0.6
	c1.229-0.314,1.572-0.486,3.201-0.572c2.344-0.113,3.943-0.629,6.145-0.971c1.258-0.201,1.771-0.629,2.115-1.543l2.886-8.231
	c0.857-1.943,0.942-3.544,2.086-5.115c0.715-0.943,0.343-1.515,0.857-2.829c1.372-3.544,3.687-9.346,5.772-12.375
	c0.601-0.857,0.686-1.429,1.286-2.314c0.544-0.801,0.886-1.43,1.486-2.144c1.229-1.486,3.2-4.63,4.63-6.229
	c0.686-0.801,1.429-1.258,1.857-2.258c-0.686,0.171-0.515,0.113-1,0.428c-1.086,0.687-4.315,5.059-5.03,6.116
	c-0.485,0.743-1.086,1.343-1.657,2.258c-0.543,0.915-0.887,1.714-1.457,2.629c-0.973,1.571-1.001,0.114-1.687,2.344
	c-0.601,1.915-1.058,0.915-2.114,3.915l-0.314,0.715c-0.086,0.114-0.4,0.543-0.4,0.543c-0.457,0.8-0.2,0.686-0.371,1.771
	l-2.059,6.23c-0.143,0.514-1.4,2.229-1.828,3.943c-0.715,2.973-0.658,0.658-1.058,3.087c-0.172,1.086-0.172,0.856-0.571,1.629
	c-0.4,0.743-0.229,0.515-0.457,1.515c-0.229,1.172-0.744,1.914-1.172,2.915c-0.744,1.657-0.201,0.914-1.314,2.429
	c-3.744,0.344-4.344,0.887-5.459,0.972c-4.258,0.372-1.371-0.085-5.887,0.715c-1.973,0.343-4.173,0.314-6.173,0.485
	c-0.972,0.115-1.715,0.344-2.63,0.515c-2.657,0.515-6.086,0-8.602,1.058c-1.086,0.457-4.516,0.4-5.973,0.543
	c-2.543,0.2-1.343,0.429-2.686,0.657C51.744,69.11,45.714,69.796,44.857,70.51L44.857,70.51z"/>
<path fill-rule="evenodd" clip-rule="evenodd" fill="#9B9C9C" d="M310.858,143.414l0.229,1.286
	c1.915,0.943,31.922,0.258,38.151,0.258c6.059-0.029,7.23,1.314,7.859-5.116c0.371-3.972,0.543-25.721-0.314-27.893
	c-0.972-2.486,0-4.629-1.2-8.401c-0.286-0.915-0.229-1.715-0.429-2.772c-0.172-0.943-0.486-1.429-0.743-2.601
	c-0.629-3.172,0.171-0.486-0.915-3.944c-0.257-0.828-0.143-0.771-0.628-1.2c0.028,1.973,2.114,9.117,2.172,11.832
	c0.028,2,0.285,1.257,0.686,2.629l1,12.604c0,1.114-0.028,2.258,0.028,3.372c0.114,2.258,0.172,4.772,0.172,7.03
	c0,2.629-0.686,0.686-0.743,6.287c-0.057,7.145,0.915,7.716-5.029,7.631c-9.316-0.144-20.947,0.457-29.492,0.2
	c-1.943-0.086-3.915-0.115-5.83-0.029C311.144,144.786,312.401,144.615,310.858,143.414L310.858,143.414z"/>
<path fill-rule="evenodd" clip-rule="evenodd" fill="#9B9C9C" d="M191.346,64.109c0.286,0.314-0.571,0.143,0.829,0.314l60.527-0.029
	c1.2,0.029,2.829,0.201,3.543-0.543c0.629-0.714,0-5.059-0.143-5.486l-1.972-10.26c-0.4-1.43-1.314-2.887-1.571-4.401
	c-0.429-2.286-2.658-7.831-3.916-10.088l-2.8-4.659c-1.286-2.028-0.601-1.314-1.4-1.514c0.028,1.028,1.028,2,1.6,2.943l0.601,0.886
	c0.857,1.2,4.315,9.231,4.572,10.403c0.258,1.143,0.486,1.371,0.743,2.114c0.343,1.086,0.086,1.571,0.657,2.571
	c0.657,1.144,0.429,0.887,0.629,2.287c0.285,1.972,0.943,2.086,1.058,4.658c0.114,2.344,0.313,1.2,0.714,2.486
	c0.143,0.543,0.2,1.887,0.314,2.572c0.286,1.771,0.743,3.771,0.515,5.115c-1.629,0.914-5.001,0.486-7.259,0.486
	C241.671,63.966,192.775,63.68,191.346,64.109L191.346,64.109z"/>
<path fill-rule="evenodd" clip-rule="evenodd" fill="#9B9C9C" d="M191.346,64.109c-0.028-0.057-0.058-0.2-0.086-0.172l-0.714-1.343
	l-0.429-39.296c-0.029-1.6-0.344-2.972-0.372-4.572c-0.114-5.63,0.372-4.029,11.174-4.001c2.001,0.029,3.144,0.229,4.83,0.343
	c1.743,0.115,3.486,0.058,5.201,0.172c5.058,0.314,5.001,1.057,9.83,1.057c-0.257-0.372,0.086-0.343-1.229-0.571
	c-3.086-0.486-4.858-0.829-8.259-1.058c-1.771-0.114-3.801-0.057-5.373-0.286c-3.144-0.458-13.117-0.943-15.488-0.286
	c-2.572,0.715-1.086,6.573-0.943,8.717c0.2,3.544-0.028,7.345,0.057,10.888l0.286,21.291c0.058,1.772,0.058,3.545,0.058,5.345
	C189.889,62.051,189.431,64.223,191.346,64.109L191.346,64.109z"/>
<path fill-rule="evenodd" clip-rule="evenodd" fill="#5E5E5F" d="M28.911,136.126c-1.144,1.4-1.286,4.229-1.657,7.316
	c-0.4,3.114-2.83,1.857-6.345,1.8c-2.486-0.028-15.832,0.458-16.832-0.314c-1.486-1.143-1.114-11.517-1.086-13.231
	c0.058-4.858,0-2.515,0.429-6.545c0.229-2.172,0.028-4.715,0.229-6.915c0.172-1.544,0.686-3.173,1-6.288l1.172-5.83
	c0.258-1.086,0.629-1.314,0.828-2.715c0.229-1.6,0.601-1.515,0.83-2.515c0.485-2.058-0.059-1.086,0.856-2.801
	c0.458-0.829,0.629-2,0.8-2.915c-1.485,0.543-0.229,0.058-1.143,2.115c-2.201,4.973-1.943,7.373-3.229,11.174
	c-0.515,1.543-0.171,3.544-0.686,5.145c-0.257,0.914-0.515,0.972-0.629,2.144c-0.743,8.716-1.657,16.203-0.972,25.291
	c0.143,1.801-0.114,3.916,1.314,4.63c0.686,0.372,9.831,0.372,11.289,0.343c12.574-0.457,12.316,2.173,12.859-4.715
	C28.082,139.47,28.968,138.042,28.911,136.126L28.911,136.126z"/>
<path fill-rule="evenodd" clip-rule="evenodd" fill="#5E5E5F" d="M336.835,73.511c-0.058-0.057-0.144-0.229-0.172-0.172
	c-0.028,0.058-0.143-0.114-0.171-0.172c-0.829-0.742-4.716-2.742-5.145-2.886c-2.687-0.886-0.028-0.286-2.943-1.114
	c-1.657-0.457,0.543-0.286-3.372-1.029c-1.972-0.371-2.572-0.743-4.801-1.057c-0.887-0.115-1.086-0.372-1.973-0.572
	c-2.543-0.543-5.201-0.285-7.944-0.801c-2.601-0.514-7.63-0.514-10.688-0.628c-4.259-0.2-2.944-0.4-4.916-0.687
	c-3.4-0.457-2.429-0.229-6.173-5.314c-1.028-1.4-6.087-13.575-6.258-13.832l-2.258-4.916c-0.515-1.143,0.057-0.515-0.801-0.943
	c0.2,2.029,0.887,2.772,1.544,4.23c0.543,1.229,1.4,2.742,1.743,4.115c0.257,1.113,4.629,9.973,5.43,11.431l3.572,4.915
	c1.343,1.544,3.887,1.315,7.173,1.486c2.314,0.143,3.2,0.086,5.115,0.486c1.857,0.4,9.545,0.086,15.86,1.4l3.315,0.8
	c1.686,0.458,2.657,0.172,5.716,1.515c0.543,0.229,0.399,0.258,0.972,0.486c0.457,0.172,0.771,0.229,1.114,0.371
	c1.114,0.4,0.771,0.457,1.743,1.058C334.091,72.654,334.321,73.253,336.835,73.511L336.835,73.511z"/>
<path fill-rule="evenodd" clip-rule="evenodd" fill="#9B9C9C" d="M277.908,37.331c-0.285-2.028-2.172-4.173-3.144-5.601
	c-0.485-0.715-0.942-1.715-1.6-2.516c-0.801-0.972-1.115-1.657-1.858-2.543c-0.686-0.829-1.057-1.572-1.743-2.344l-4.172-4.544
	c-0.743-0.886-1.372-1.4-2.2-2.172l-3.458-3.029c-0.058-0.029-0.114-0.058-0.144-0.115l-0.942-0.657
	c-1.001-0.514-1.801-0.915-2.744-1.429c-4.086-2.229-4.029-2.258-9.002-3.801l-7.173-1.886c0.372,0.628,0.058,0.257,0.571,0.657
	c0.2,0.171,0.4,0.257,0.629,0.372c0.743,0.314,0.886,0.257,1.829,0.371c1.972,0.229,1.857,0.658,3.4,0.972
	c1.801,0.343,7.345,2.458,8.945,3.601c0.943,0.657,1.771,1.058,2.772,1.601c1.485,0.8,5.372,4.458,6.915,5.858
	c0.715,0.657,0.343,0.515,0.943,1.258c0.4,0.457,0.629,0.828,0.972,1.229l2.029,2.058c0.8,0.943,0.371,0.886,0.743,1.486
	c0.085,0.114,0.828,0.714,1.114,1l2.771,3.63c0.629,1.743,0.486,1.172,1.629,2.629c1.029,1.314-0.429,0.028,1.715,2.629
	c0.058,0.086,0.372,0.486,0.4,0.543c0.057,0.058,0.229,0.229,0.286,0.286C277.851,37.331,277.108,36.845,277.908,37.331
	L277.908,37.331z"/>
<path fill-rule="evenodd" clip-rule="evenodd" fill="#828282" d="M273.279,161.162l0.457,0.6c0.086,0.143,0.2,0.429,0.257,0.515
	c1.029,0.057,7.345,0.343,8.174,0.114l5.829-2.658c0.314-0.199,0.515-0.371,0.829-0.6c0.172-0.144,0.229-0.2,0.4-0.343
	c1.629-1.458,0.314-1.601,2.114-1.029c-0.2-0.714-0.229-0.457-0.229-1.457c0.8,0.028,0.571,0,1.144,0.199
	c0.028-1.543-0.172-0.742,0.628-1.571c1.286-1.314-0.371,0.485,0.829-2.229c0.886-1.972,1.457-5.001,1.429-7.201
	c0-0.801-0.057-1.658-0.114-2.458c-0.057-0.601-0.028-0.914-0.371-1.314l-0.458-2.43c-0.313-0.171-0.514-0.114-0.886-0.543
	c-0.914-1.114-1.114-2.515-1.886-3.229l-1.601-1.771c-0.6-0.601-1.429-0.943-1.8-1.571l-1.029,0.114
	c0.257,0.343,0.143,0.171,0.429,0.457c0.172,0.171,0.314,0.285,0.515,0.485c2.258,2.029,4.458,4.287,5.486,7.288
	c0.429,1.2,1.058,4.687,0.887,6.401c-0.115,1.028-0.4,1.943-0.543,3.172c-0.314,3.001-4.287,8.402-8.002,10.003
	c-1.857,0.828-3.344,1.486-5.744,1.629c-0.886,0.057-2.772,0.114-3.601,0C275.165,161.533,274.764,161.018,273.279,161.162
	L273.279,161.162z"/>
<path fill-rule="evenodd" clip-rule="evenodd" fill="#CAC9C9" d="M287.367,50.992c0.058-0.601-0.057-0.857-0.257-1.772
	c-0.086-0.314-0.171-0.714-0.286-1c-0.399-0.8-0.143-0.171-0.399-0.543c-0.915-1.458,0.028-1.343-0.915-2.515l-0.514-0.572
	c0.343-0.971,0.371-0.285,0.6-1.114c0.114-0.372,0.058-0.714,0.058-1.114c-0.687-0.058-0.4-0.143-1.2,0.428l-0.372,0.287
	c0-0.572,0-1.229-0.229-1.772l-1.2-2.229c-0.429-0.715-0.172,0.115-0.629-1.143c-0.543-1.572-0.143-0.371-0.828-1.516l-0.372-0.856
	c-0.543-1.114-0.8-0.743-0.943-2.572c-0.771-0.372-0.543,0.2-1.714-2.058l-0.801-1.629c-0.028-0.057-0.057-0.114-0.086-0.172
	l-0.343-0.8c-0.8-0.943-1.914-1.458-3.2-3.544l-3.258-4.001c-0.029-0.058-0.058-0.114-0.086-0.143
	c-0.058-0.058-0.4-0.543-0.429-0.571c-0.4-0.486-0.485-0.543-1-0.973c-0.028-0.028-0.086-0.086-0.114-0.113l-1.058-0.858
	c-1.572-1.458-1.114-1.286-2.144-1.486c0.314,0.857,0.801,1.314,1.515,2.115c2.144,2.314,1.515,0.942,5.059,5.344l2.144,2.943
	c1.143,1.4,0.199-0.229,1.543,2.029l3.601,5.059c0.229,0.571,0.114,0.686,0.429,1.314c0.229,0.428,0.485,0.657,0.686,1.229
	c0.801,2.172,2.029,3.858,2.772,6.059c0.171,0.572,0.171,1.029,0.314,1.457c0.028,0.086,1.172,1.687,1.829,3.401
	C285.795,48.304,286.653,50.706,287.367,50.992L287.367,50.992z"/>
<path fill-rule="evenodd" clip-rule="evenodd" fill="#9B9C9C" d="M73.548,69.396c2.172,0.343,13.117-1.744,15.805-1.857
	c1.971-0.086,3.457-0.457,4.943-1.314c0.514-3.773,0.4-1.715,0.972-3.401c0.2-0.515,0.257-1.229,0.429-1.772l1.086-3.258
	c1.285-2.629,0.8-3.344,2.314-4c0.029-0.629,0.314-3.516,0.515-4.03c0.372-0.915,0.485-0.2,0.8-1.343
	c0.2-0.771-0.028-1.029,0.43-1.829c0.457-0.743,0.285-0.229,0.742-1.4c0.344-0.915,1.973-3.372,1.771-4.744
	c-0.028,0.028-0.113,0-0.143,0.086c-0.229,0.856-0.143-0.458-0.715,0.8c-0.199,0.457-0.199,0.857-0.457,1.43
	c-0.314,0.714-0.285,0.457-0.6,1.113l-1.572,3.973c-0.199,0.486-0.857,2.059-1.114,2.516c-1.086,1.828-0.286,0.715-0.829,2.686
	c-0.199,0.744-0.371,0.658-0.571,1.144c-0.229,0.543-0.171,0.972-0.399,1.544c-0.344,0.8-0.314,0.285-0.601,1.057
	c-0.229,0.743-0.144,0.943-0.429,1.601c-1.258,2.743-0.4,1.058-0.943,2.858l-1.172,3.2c-0.028,0.058-0.143,0.257-0.199,0.314
	c-0.601,1.058-0.4,0.972-1.029,1.429c-0.6,0.4-5.001,1.058-6.115,1.115c-2.658,0.143-5.658,0.828-9.916,1.114l-2.315,0.515
	C73.72,69.196,73.892,69.082,73.548,69.396L73.548,69.396z"/>
<path fill-rule="evenodd" clip-rule="evenodd" fill="#9B9C9C" d="M329.719,67.252c-0.657-1.458-1.172-0.943-2.743-1.343
	c-1.2-0.314-1.029-0.687-2.744-0.829c-3.429-0.314-1.171-0.571-6.315-1.058c-4.544-0.4-8.516-1.057-13.202-1.172
	c-6.145-0.114-3.43-0.343-6.602-0.715c-5.002-0.57-3.772,1.373-8.202-6.315c-0.515-0.886-0.657-1.4-1.229-2.429l-0.887-2.001
	c-0.429-0.686,0.372-0.028-0.429-0.399c-0.057,1.857,1.315,3.887,2.059,5.314c0.856,1.715,1.485,2.887,2.743,4.487
	c0.657,0.857,0.771,1.372,1.657,1.886c0.943,0.543,13.832,0.83,17.118,1.201c1.886,0.199,4.744,0.285,6.63,0.629
	c1.114,0.171,1.543,0.543,2.743,0.714c1.115,0.172,2.286,0.086,3.401,0.343C324.347,65.738,327.605,67.109,329.719,67.252
	L329.719,67.252z"/>
<path fill-rule="evenodd" clip-rule="evenodd" fill="#9B9C9C" d="M256.932,164.705c-0.086-1.571-0.571-1.371-1.486-2.601
	c-2.829-3.772-1.172-3-3.2-5.772l-1.43-4.772c-0.485-4.658-0.399-5.974-0.114-10.803c0.144-2.172,0.429-1.601,0.857-2.943
	c0.458-1.4-0.057-1.286,0.829-2.801c0.743-1.258,2.943-6.116,4.058-7.288l3.772-3.743c1.829-1.772,1.572-0.829,1.771-2.087
	l-6.287,5.773c-3.229,4.658-1.657,2.771-3.543,6.373c-1.429,2.743-0.457,1.371-1.029,2.857c-0.457,1.314-0.314,0.229-0.657,1.2
	c-0.314,1.001-0.114,2.286-0.429,3.487c-1.657,6.43-0.028,7.259,0.229,10.402c0.144,2.028,0.4,1.515,0.857,2.829
	c0.2,0.543,0.2,1.114,0.372,1.657C252.017,158.017,254.931,163.362,256.932,164.705L256.932,164.705z"/>
<path fill-rule="evenodd" clip-rule="evenodd" fill="#CAC9C9" d="M139.134,19.041c-1.285-0.2-1.629,0.4-2.771,0.686
	c-0.457,0.115-1.115,0.143-1.601,0.344c-1,0.428-0.229,0.285-1,0.629c-0.429,0.199-0.972,0.229-1.515,0.457
	c-1.771,0.714-2.801,1.715-3.458,1.742l-0.8,1.059c-0.258,0.229-0.486,0.342-0.829,0.6c-2.028,1.457-5.744,6.145-7.287,8.431
	c-0.571,0.886-1.258,2.372-2.2,3.401c-0.344,0.371-0.144,0.113-0.486,0.428c-0.143,0.829-1.4,3.059-1.857,3.773
	c-0.6,0.914-0.6,0.6-0.972,1.828c-0.229,0.743-0.657,1.629-0.657,2.172l-0.057,1.201l0.314-0.258
	c0.027-0.057,0.199-0.258,0.256-0.314c0.115-0.2,0.258-0.486,0.344-0.715c0.114-0.371,0.172-1.057,0.371-1.514
	c0.515-1.4,1.086-1.629,1.601-2.029c0.144-2.086,0-0.543,1.229-3.516l3.914-5.83c0.543-0.629,0.687-0.514,1.201-1.172l0.485-0.714
	c0.657-1.028,0.144-0.515,1.028-1.4c0.543-0.543,0.973-1.886,3.059-3.058c1.571-0.857,2.743-2.572,4.201-3.001
	c2.371-0.715,1.828-1.486,3.314-0.571c0.343-0.486,0.771-1.029,1.4-1.229c1.543-0.485,0.943,0.343,2.229-0.686
	c0.857-0.657,1.058-0.314,2.315-0.543c0.829-0.144,1.171-0.372,1.972-1.058C141.22,18.326,140.821,19.298,139.134,19.041
	L139.134,19.041z"/>
<path fill-rule="evenodd" clip-rule="evenodd" fill="#CAC9C9" d="M105.957,58.736c0.342-0.285,0.285-0.4,0.485-1.172
	c0.171-0.6,0.2-0.571,0.372-1.086c0.285-0.771,0.457-1.429,0.714-2.143c0.485-1.486,1.058-2.744,1.515-4.287
	c0.229-0.857,0.314-1.771,0.629-2.572c0.229-0.572,0.229-0.4,0.457-1c1.029-2.857,3.772-8.26,4.144-9.23l2.144-3.572
	c0.514-0.744,0.686-1.059,1.114-1.801c0.857-1.516,2.087-2.83,3.058-4.173c0.515-0.714,0.286-0.2,0.658-1.028l-0.915,0.086
	l-1.857,2.429c-2.172,2.458-0.571,0.886-2.029,3.114l-1.429,2.172c-0.2,0.344-0.2,0.344-0.285,0.458
	c-0.286,0.372-0.172,0.144-0.372,0.314c-0.543,0.601-0.171,0.028-0.485,0.886c-0.572,1.658-1.115,1.801-1.544,2.829
	c-0.571,1.429,0.343,0-0.914,2.058c-0.372,0.629-0.114,1.058-0.8,2.086c-0.943,1.43-0.344,0.943-0.801,2.145
	c-0.486,1.199-0.571,0.113-0.857,2c-0.257,1.515-0.457,1.114-0.771,2.115c-0.4,1.199-0.028,1.086-0.686,2.229
	C106.899,52.621,105.414,56.822,105.957,58.736L105.957,58.736z"/>
<path fill-rule="evenodd" clip-rule="evenodd" fill="#5E5E5F" d="M68.176,156.274l-0.399,0.2c-0.086,0.028-0.314,0.144-0.372,0.2
	l-1.8,0.886c-3.516,2.229-0.572,0.801-5.174,1.801c-0.971,0.2-2.143,0.2-3.172,0c-0.428-0.086-0.971-0.343-1.371-0.429
	c-2.229-0.515-0.629,0.371-2.658-0.829c-0.486-0.285-0.629-0.314-1.057-0.6c-2.059-1.314-3.916-3.401-4.944-5.659
	c-0.257-0.543-0.171-0.8-0.372-1.371c-0.399-1.115-0.229-0.172-0.6-1.029c-0.429-0.972-0.258-2.4-0.258-3.458
	c0-1.371-0.143-2.029,0.43-3.029c0.771-1.314,0.6-3.887,4.258-6.401c0.914-0.629,1.172-0.715,1.743-1.572l-1.286-0.143l-1.629,1.972
	c-1.115,0.829-0.771-0.314-1.829,1.601c-0.829,1.458-1.771,2.973-2.001,4.916c-0.256,2.114-0.457,4.772,0.144,6.744
	c1.058,3.4,3.172,6.059,6.087,7.888c0.371,0.229,0.771,0.371,1.258,0.686c1.028,0.687,2.686,1.086,3.915,1.344
	c5.229,1,8.688-1.915,10.917-2.744L68.176,156.274z"/>
<path fill-rule="evenodd" clip-rule="evenodd" fill="#9B9C9C" d="M73.72,171.964c-1.143-0.029-3.172,0.971-4,1.514
	c-0.658,0.458-0.201,0.258-1.172,0.4c-4.487,0.715,0.629,0.886-5.802,1.144c-2.001,0.086-8.802,0.457-10.831-0.572
	c-0.6-0.313-0.657-0.285-1.258-0.485c-2.4-0.715-3.057-1.629-3.4-1.801c-0.571-0.257-0.686-0.085-1.343-0.371
	c-0.743-0.314-0.458-0.429-1.2-0.743c-3.43-1.457-6.373-4.229-8.488-7.23l-0.485-0.972c-0.171-0.285-0.2-0.343-0.458-0.571
	l-0.6-0.372c0.572,2.516,4.459,6.573,6.573,8.002l6.229,3.658c3.059,1.887,5.973,1.658,9.145,2.258
	c2.145,0.429,7.431-0.229,9.831-0.629L73.72,171.964z"/>
<path fill-rule="evenodd" clip-rule="evenodd" fill="#9B9C9C" d="M256.932,122.666c0.515-0.057,2.4-1.571,2.915-1.972
	c0.972-0.743,0.086-0.399,1.515-1c0.514-0.229,0.371-0.114,0.743-0.371c0.028-0.029,0.085-0.086,0.114-0.114l0.714-0.544
	c0.571-0.343,0.886-0.628,1.429-0.914c0.715-0.371,0.887-0.515,1.572-0.857l5.63-2l6.544-0.915c2.058-0.314,6.688,0.857,9.431,0.915
	l-1.172-0.372c-1.6-0.4-0.914-1.457-7.802-1.143c-7.201,0.314-4.058,0.628-6.602,0.942c-4.114,0.543-6.058,1.915-9.431,3.487
	l-2.485,1.857c-0.429,0.343-0.029,0.028-0.4,0.343C258.561,120.952,257.275,121.151,256.932,122.666L256.932,122.666z"/>
<path fill-rule="evenodd" clip-rule="evenodd" fill="#9B9C9C" d="M52.43,134.983c1.314-0.028,0.686-0.171,1.601-0.6
	c0.629-0.286,1.229-0.257,1.943-0.515c4.43-1.515,3.229-0.543,5.772,0.028c4.344,0.972,1.257,0.458,3.601,1.229
	c1.829,0.629,2.172,1.4,2.801,2.058c0.715,0.771,1.629,1.028,2.658,3.314c2.371,5.23,0.942,6.402,1.229,9.174
	c0.199-0.171,0.656,0.2,0.771-2c0.143-2.201-0.172-4.401-0.943-6.459c-2.572-7.059-12.06-9.831-16.09-8.03
	C53.373,134.269,53.058,133.44,52.43,134.983L52.43,134.983z"/>
<path fill-rule="evenodd" clip-rule="evenodd" fill="#5E5E5F" d="M57.974,161.904c0.086,0.058,0.172,0.029,0.229,0.144
	c0.314,0.657,4.373,0.086,4.858,0c0.857-0.2,1.144-0.4,1.943-0.687c1.171-0.429,0.829-0.514,1.714-0.914
	c1.83-0.857,3.258-1.887,4.744-3.344c0.829-0.8,0.457-0.857,1.144-1.771c0.286-0.4,0.171-0.144,0.485-0.715
	c0.344-0.629,0.086-0.314,0.515-0.943l1.544-3.743c0.143-0.687,0.199-1.658,0.199-2.486c0.086-2.516,0.2-7.431-2.286-8.803
	c0.086,1.486,4.829,8.345-1.058,16.376c-0.742,1-1.028,1.686-2.258,2.829c-0.885,0.8-1.857,1.601-3.2,2.086
	c-2.315,0.857,0.571,0.457-3.715,1.372C60.947,161.705,60.117,161.761,57.974,161.904L57.974,161.904z"/>
<path fill-rule="evenodd" clip-rule="evenodd" fill="#9B9C9C" d="M356.154,94.259c0.057-2.43-2.829-8.26-4.229-10.488l-0.943-1.516
	c-1-1.314,0.028-0.828-1.343-2.257c-0.172-0.172-0.343-0.372-0.571-0.629c-1.943-2.144-1.372-1.286-2.601-2.486l-0.229-0.257
	c-1-1.086-1.371-1.029-2.314-1.801c-0.515-0.429-0.829-1.029-1.143-1.258c-0.515-0.371-0.943-0.257-1.687-0.742
	c-0.857-0.516-0.543-0.658-1.771-0.687c0.771,1.286,3.114,2.058,4.172,3.115c5.401,5.345,5.802,4.144,9.631,12.175
	c0.314,0.686,0.571,1.057,0.8,1.571c0.314,0.686,0.314,1.229,0.601,1.887c0.343,0.8,0.457,0.514,0.714,1.657
	c0.086,0.429,0.029,0.6,0.229,1C355.982,94.602,355.611,93.859,356.154,94.259L356.154,94.259z"/>
<path fill-rule="evenodd" clip-rule="evenodd" fill="#5E5E5F" d="M271.478,134.269c3.115-0.086,0.543-1.629,9.517-1.229
	c1.371,0.086,2.886,0.743,4.086,1.4c1.2,0.601,2.115,1.572,2.944,2.372c3.029,2.973,4.429,8.688,3.286,12.032l-1.058,3.029
	c-0.4,0.771-0.143-0.372-0.543,1.086c0.943-0.486,0.886-0.486,1.229-1.544c0.429-1.314,0.572-0.914,0.801-2.058
	c0.629-2.972,0.171-6.916-0.915-9.631c-0.229-0.6-0.143-0.343-0.429-0.714l-0.229-0.258c-1.229-1.629-2.771-3.915-4.687-4.744
	c-0.857-0.371-1.114-0.257-1.943-0.714c-1.086-0.629-0.828-0.4-2.114-0.743c-1.743-0.429-5.944-0.343-7.659,0.314
	c-0.943,0.343-0.857,0.686-2.2,0.771C271.278,133.983,271.535,133.783,271.478,134.269L271.478,134.269z"/>
<path fill-rule="evenodd" clip-rule="evenodd" fill="#5E5E5F" d="M271.221,157.189c-0.344-0.687-0.114-0.457-1.029-1.172
	c-1.515-1.229-2.058-2.229-2.857-3.658c-1.687-3.115-1.629-3.001-1.687-6.858c-0.028-3.602,0.515-3.887,1.915-6.659
	c0.829-1.629,0.771-1.172,1.829-2.286c1.8-1.915,1.972-0.972,2.086-2.286c-2.458,0.457-5.716,5.801-6.001,7.459
	c-0.515,2.915-0.829,2.144-0.829,3.772c0,2,1.2,5.173,1.943,7.001C266.877,153.216,269.563,156.903,271.221,157.189L271.221,157.189
	z"/>
<path fill-rule="evenodd" clip-rule="evenodd" fill="#9B9C9C" d="M103.355,40.446c0.515-0.229,0.172,0,0.543-0.457
	c0.915-1.114,1.602-3.315,1.973-3.829c1.429-1.83-0.229-0.516,1.657-2.944l3.001-4.229c3.086-3.744,3.172-4.344,6.744-7.287
	c0.8-0.629,0.629-0.543,1.229-1.201c1.058-1.199,0.771-0.199,1.143-1.543c-1.428,0.371-3.886,3.086-5.143,4.287l-8.174,10.717
	c-1.801,2.943-1.143,2.515-2.372,4.688C103.47,39.56,103.242,39.36,103.355,40.446L103.355,40.446z"/>
<path fill-rule="evenodd" clip-rule="evenodd" fill="#9B9C9C" d="M309.201,134.726c0.028-1.801-0.4-1.457-1.058-2.801
	c-1.457-3.086-1.314-2.314-1.915-3.4c-1.429-2.544-1.143-1.572-2.286-3.287l-1.629-2c-0.114-0.144-0.229-0.286-0.343-0.4
	l-0.257-0.229c-1.458-1.229-3.944-3.572-5.916-3.973c0.515,0.943,1.943,1.458,4.115,3.372l1.943,1.658
	c1.029,1,0.543,0.972,1.887,2.429l1.314,1.629c0.485,0.687,0.942,1.629,1.371,2.286L309.201,134.726z"/>
<path fill-rule="evenodd" clip-rule="evenodd" fill="#CAC9C9" d="M121.074,26.728l2.629-2.744c0.2-0.199,0.715-0.828,0.771-0.885
	c0.887-0.801,2.887-1.973,4.001-2.458c0.257-0.629-0.085-0.485,1.858-1.458c0.628-0.285,1.199-0.514,1.942-0.886
	c1.601-0.743,3.372-0.429,4.43-1.8c-2.286-0.086-1.857,0.429-2.515,0.771c-0.457,0.229-1.973,0.171-4.715,1.629
	c-2.029,1.057-4.059,2.344-5.545,3.887C123.045,23.728,121.216,24.699,121.074,26.728L121.074,26.728z"/>
<path fill-rule="evenodd" clip-rule="evenodd" fill="#9B9C9C" d="M352.467,92.458c-0.086-1.486-0.743-3.544-1.458-4.658
	c-1.086-1.743-0.199-0.629-1.515-2.857c-0.257-0.43-0.313-0.744-0.6-1.115c-1.144-1.629-3.601-4.486-5.287-5.516
	c-0.771-0.457-0.086-0.086-0.828-0.4c-0.058,1.201-0.229,0.172,1.285,1.83c1.915,2.114,2.258,1.771,3.572,3.686
	c1.829,2.602,1.601,2.688,2.801,4.716C351.009,89.115,351.667,91.801,352.467,92.458L352.467,92.458z"/>
<path fill-rule="evenodd" clip-rule="evenodd" fill="#9B9C9C" d="M273.279,161.162c-0.372-0.543,0.571,0.057-0.715-0.572
	c-2.515-1.229-2.857-1.571-4.63-3.258c-0.914-0.886-1.4-1.286-2.2-2.372c-1.771-2.372-0.601-2.771-1.801-3.086
	c0.172,2.801,2.087,4.544,4.03,6.658c0.028,0.028,0.085,0.086,0.114,0.114c0.057,0.029,0.085,0.086,0.143,0.114
	c1.571,1.486,2.715,1.572,3.344,1.973C272.278,161.218,271.935,161.333,273.279,161.162L273.279,161.162z"/>
<path fill-rule="evenodd" clip-rule="evenodd" fill="#5E5E5F" d="M117.187,36.816c0.343-0.314,0.143-0.057,0.486-0.428
	c0.942-1.029,1.629-2.516,2.2-3.401c1.543-2.286,5.259-6.974,7.287-8.431c0.343-0.258,0.571-0.371,0.829-0.6l0.8-1.059
	c-1.4,0.172-0.372-0.113-1.257,0.572c-0.314,0.258-0.543,0.4-0.801,0.629c-2.515,2.172-3.486,3.857-5.258,5.887
	c-0.201,0.2-0.515,0.601-0.686,0.771c-0.715,0.857-1.258,2.086-1.801,3.059c-0.2,0.314-0.4,0.543-0.601,0.828
	C117.873,35.359,117.359,35.587,117.187,36.816L117.187,36.816z"/>
<path fill-rule="evenodd" clip-rule="evenodd" fill="#5E5E5F" d="M250.445,32.244c-0.058-0.457-0.058-0.828-0.257-1.172
	l-1.544-2.286c-0.429-0.543-1.886-2.772-2.114-3.458c-0.2-0.229-0.771-0.571-0.8-1.143c-1.115-0.543-0.915-0.771-1.772-1.572
	c-0.886-0.828-1.086-1.172-2.058-1.572c0.229,1.516,1.029,0.715,2.372,2.658l1.2,1.286c1.458,1.571,3.572,5.687,4.258,6.602
	C250.302,32.386,249.702,31.815,250.445,32.244L250.445,32.244z"/>
<path fill-rule="evenodd" clip-rule="evenodd" fill="#5E5E5F" d="M73.75,172.193c1.514-0.229,5.801-4.145,7.115-5.401l0.857-1.086
	l-0.801,0.114c-0.085,0.085-0.686,0.571-0.8,0.657l-2.543,2.543C76.493,169.849,74.263,170.877,73.75,172.193L73.75,172.193z"/>
<path fill-rule="evenodd" clip-rule="evenodd" fill="#9B9C9C" d="M251.331,129.667c1.572-0.514,0.629-0.314,1.543-1.686
	c0.344-0.543,0.915-1.115,1.372-1.715c0.486-0.601,2.515-2.973,2.687-3.602c-0.886-0.199-0.114-0.343-1.629,1.229l-0.743,0.743
	C253.731,125.524,251.645,128.381,251.331,129.667L251.331,129.667z"/>
<path fill-rule="evenodd" clip-rule="evenodd" fill="#9B9C9C" d="M244.444,27.443c0.143-1.258-1.515-2.029-2.144-2.887
	c-0.286-0.371-0.886-1.172-1.258-1.486c-0.629-0.514-1.2-0.8-1.886-0.972c0.371,1.429,0.343,0.657,1.314,1.343
	c0.686,0.516,0.058,0.086,0.485,0.687l2.029,2.087c0.372,0.485,0.343,0.714,0.915,1.028
	C244.415,27.529,243.815,27.243,244.444,27.443L244.444,27.443z"/>
</svg>
