<?xml version="1.0" encoding="utf-8"?>
<!-- Generator: Adobe Illustrator 15.0.0, SVG Export Plug-In  -->
<!DOCTYPE svg PUBLIC "-//W3C//DTD SVG 1.1//EN" "http://www.w3.org/Graphics/SVG/1.1/DTD/svg11.dtd" [
	<!ENTITY ns_flows "http://ns.adobe.com/Flows/1.0/">
]>
<svg version="1.1"
	 xmlns="http://www.w3.org/2000/svg" xmlns:xlink="http://www.w3.org/1999/xlink" xmlns:a="http://ns.adobe.com/AdobeSVGViewerExtensions/3.0/"
	 x="0px" y="0px" width="367px" height="335px" viewBox="0 -6.689 367 335" enable-background="new 0 -6.689 367 335"
	 xml:space="preserve">
<defs>
</defs>
<path fill-rule="evenodd" clip-rule="evenodd" fill="#F05B74" d="M83.361,88.908c-24.206,4.629-37.18,15.575-47.896,31.15
	c-12.345,17.976-15.632,38.267-13.803,63.873c1.6,22.148,11.545,42.324,21.576,58.186c6.858,10.859,11.459,16.032,21.576,17.861
	c12.917,2.344,24.376,3.115,37.979,0.801c68.701-11.632,76.931-107.198,40.123-153.781c-6.973-8.831-9.945-12.375-23.405-15.861
	C107.081,87.964,96.335,86.421,83.361,88.908L83.361,88.908z"/>
<path fill-rule="evenodd" clip-rule="evenodd" fill="#BAD532" d="M267.402,242.66l-0.657-5.944c-7.974,1.4-3.344,0.8-5.716-0.114
	c-0.2-0.058-0.457-0.314-0.657-0.457c-11.803-0.4-24.491-32.466-11.631-52.842l10.316-15.09c-5.201-4.344-9.974-7.688-11.66-16.632
	c-1.629-8.574,0.543-17.719,3.458-24.606l28.578-25.921c3.715-15.975,3.857-25.206,16.889-31.493
	c5.259-2.515,14.347-3.801,19.233-0.229l6.315,18.776c9.545-3.572,12.146-0.372,15.774,7.544c2.944,6.402,4.744,13.632,6.03,21.177
	l-12.06,40.524c9.688,11.746,9.145,24.549,3.258,40.438c-3.001,8.088-9.917,26.949-20.833,25.32l-4.173-0.743
	c-2.743,6.345-0.857,21.491-14.374,29.979C285.091,258.92,268.63,258.321,267.402,242.66L267.402,242.66z M214.218,90.193
	l10.174,238.23c2.972-0.686,30.636-19.891,35.379-23.263c15.004-10.66,36.151-24.178,52.44-35.151l52.24-35.666l-9.603-214.453
	c-11.146-0.2-58.612,27.064-71.415,33.808c-11.403,6.03-23.32,11.146-34.522,17.833c-5.602,3.344-11.116,5.63-17.232,9.002
	C226.821,83.249,218.962,86.735,214.218,90.193L214.218,90.193z"/>
<path fill-rule="evenodd" clip-rule="evenodd" fill="#DACD71" d="M88.448,85.878c39.437-3.83,78.246,23.92,95.621,51.612
	c21.52,34.323,32.293,82.163,12.031,117.114c-12.774,22.034-31.578,37.753-58.556,40.039c-56.384,4.829-99.65-43.582-112.367-85.85
	C8.145,152.18,29.95,91.594,88.448,85.878L88.448,85.878z M9.602,250.49l1.801,34.266c1.2,1.001-0.229,0.286,2.057,1.286
	c2.801,1.258,6.487,1.515,9.802,2.144c54.898,10.174,116.168,25.092,172.409,36.237l25.892,5.173
	c1.429-10.945-8.431-209.68-9.631-239.487L91.249,73.018c-26.234-1.4-53.154-7.859-79.103-11.489
	c-4.315-0.6-6.173,0.057-10.574,0.486L9.602,250.49z"/>
<path fill-rule="evenodd" clip-rule="evenodd" fill="#DFEFDC" d="M106.081,24.349c16.204-0.457,52.897,7.688,65.471,4.001
	c8.002-2.343,50.725-14.889,55.355-14.403l-16.175,19.976c4.372,0.4,69.13,4.887,72.959,7.859l-83.361,7.43
	c-9.174,0.886-17.976,18.805-27.492,26.006c-6.458-3.601-4.772-3.401-10.031-7.259c-22.291-16.347-15.346-14.403-36.037-12.746
	l-59.642,4.801c-0.343-0.028-0.628-0.085-0.915-0.143L64.643,59.3C64.5,58.986,64.1,59.1,63.9,58.929l61.213-18.147l-15.032-11.803
	C106.995,26.721,107.452,27.778,106.081,24.349L106.081,24.349z M20.576,51.413L6.23,58.929c4.258,0.629,87.305,10.917,90.906,13.46
	c11.517-1.601,88.305,12.518,109.996,14.889c9.002,1,19.689-6.887,30.035-12.403l109.624-57.271
	c-2.829-1.171-163.122-12.46-181.326-13.86c-26.834-2.086-16.718-2.801-39.666,6.116c-11.774,4.573-23.177,9.402-35.265,14.061
	C79.303,28.264,27.149,50.784,20.576,51.413L20.576,51.413z"/>
<path fill-rule="evenodd" clip-rule="evenodd" fill="#F05B74" d="M78.76,277.497c1.372-0.171,10.259,5.345,13.146,6.602
	c17.49,7.545,35.894,11.146,54.612,6.573c24.034-5.887,39.18-20.72,48.182-38.409c10.517-20.577,12.432-49.355,5.573-73.59
	c-6.802-23.892-15.633-38.838-31.35-55.813c0.257,1.114,7.145,15.146,9.831,23.863c14.289,46.554-1.572,122.059-67.129,130.375
	c-5.172,0.658-11.088,1.144-16.346,0.973C90.334,277.897,83.133,276.611,78.76,277.497L78.76,277.497z"/>
<path fill-rule="evenodd" clip-rule="evenodd" fill="#272626" d="M214.218,90.193c4.744-3.458,12.603-6.944,17.461-9.659
	c6.116-3.373,11.631-5.659,17.232-9.002c11.202-6.688,23.119-11.803,34.522-17.833c12.803-6.744,60.27-34.008,71.415-33.808
	l9.603,214.453l-52.24,35.666c-16.289,10.974-37.437,24.491-52.44,35.151c-4.743,3.372-32.407,22.577-35.379,23.263L214.218,90.193z
	 M19.719,50.956l0.857,0.457c6.573-0.629,58.727-23.148,69.958-27.493c12.088-4.658,23.491-9.488,35.265-14.061
	c22.948-8.917,12.831-8.202,39.666-6.116c18.204,1.4,178.497,12.689,181.326,13.86L237.167,74.875
	c-10.346,5.516-21.033,13.403-30.035,12.403c-21.69-2.372-98.479-16.49-109.996-14.889c-4.258,1-4.344-0.572-5.887,0.629
	l120.684,17.09c1.2,29.807,11.06,228.542,9.631,239.487l-25.892-5.173c-56.241-11.146-117.511-26.063-172.409-36.237
	c-3.315-0.629-7.001-0.886-9.802-2.144c-2.286-1-0.857-0.285-2.057-1.286L9.602,250.49l-0.486,0.801
	c-1.2,6.744,0.171,27.749,1,35.123c68.472,16.118,136.458,30.722,205.188,44.496c6.287,1.258,7.602,2.572,12.717-1.028
	l46.153-31.408c6.973-5.001,12.403-8.002,18.747-12.46c22.548-15.832,50.754-34.751,74.045-49.669l-9.603-217.74l-1.286-0.915
	c-0.229-0.143-1.086-0.657-1.371-0.8c-0.543-0.314-1.486-0.8-2.029-1.029C347.762,13.917,176.153,2.229,170.78,1.8
	c-6.23-0.486-19.633-2.2-25.177-1.715C141.917,0.4,96.621,19.09,91.049,21.462C86.362,23.463,22.319,49.041,19.719,50.956
	L19.719,50.956z"/>
<path fill-rule="evenodd" clip-rule="evenodd" fill="#FBCA0D" d="M60.613,261.521c7.001,11.175,16.689,13.261,29.578,13.946
	c37.437,2.001,67.1-11.889,81.732-48.068c12.488-30.95,13.489-76.133-6.83-105.255c-9.402-13.403-9.173-11.688-23.405-21.005
	c1.4,2.972,8.773,11.545,14.031,22.32c4.401,8.945,7.116,16.918,9.431,27.978c7.43,35.438-5.43,88.394-40.723,105.055
	C103.508,266.379,84.104,265.808,60.613,261.521L60.613,261.521z"/>
<path fill-rule="evenodd" clip-rule="evenodd" fill="#FDEC89" d="M111.682,27.121c8.859,6.401,9.859,7.43,17.976,14.661
	c-4.573,2.458-27.292,8.03-35.265,10.202c-5.973,1.658-6.801,1.343-11.488,4.258c16.347-0.085,36.494-2.743,52.64-4.172
	c11.146-1,8.345-1.257,20.262,7.745l16.032,12.203c4.687-2.658,18.147-20.748,22.034-23.492c3.915-2.8,52.325-5.058,63.557-5.916
	c1.629-0.143,1.829-0.028,3.515-0.457c1.114-0.257,0,0.057,1.486-0.486l1.4-0.657c-9.945-0.715-19.233-1.601-29.121-2.629
	c-4.515-0.458-9.259-0.943-13.803-1.315c-5.344-0.457-9.717-0.229-14.175-2.343l14.317-17.375
	c-17.004,3.401-34.55,9.717-50.697,13.946C158.835,34.294,125.084,26.006,111.682,27.121L111.682,27.121z"/>
<path fill-rule="evenodd" clip-rule="evenodd" fill="#272626" d="M297.093,133.404c23.12-7.002,19.49,49.726-2.771,56.042
	C270.831,196.077,272.002,140.978,297.093,133.404L297.093,133.404z M268.831,222.512l0.4,2.743l1.571-1.743
	c1.144-9.202,6.287-27.893,10.831-34.666l6.373,4.173l-4.43,20.262c-0.486,3.858-0.229,4.772,1.086,6.401
	c1.486-7.173,3.857-25.577,8.059-27.492l0.829,20.005c0,4.63-1.2,12.432-0.372,16.69c0.029,0.171,0.229,0.857,0.258,0.714
	c0.028-0.114,0.143,0.486,0.285,0.715l3.029-39.238c2.144,1.886,2.315,1.571,3.059,4.973c1.371,6.229,0.8,15.118,3,17.833
	l-1.857-25.807l3.515-2.687l-3.571,58.157c-2.372,7.145-37.38,27.035-30.836-16.604l-2.629-0.887
	c-0.8,18.262-13.289,4.059-16.461-1.371c-16.089-27.636,7.716-58.5,24.777-65.559c-1.258,16.947,2.601,9.488-21.634,31.464
	c7.573-5.944,2.772-4.601,9.545-9.545c2.743-2,7.487-4.973,11.66-5.973l-1.001,8.517c-0.828,1.972-13.688,13.889-10.802,21.033
	c3.857-4.944,7.487-18.176,14.975-20.604L268.831,222.512z M317.184,152.609c16.432,3.258,22.776,18.947,17.661,37.181
	c-2.687,9.631-11.574,38.323-24.749,28.378l-2.8-35.837c0.485-2.544,2.8-6.145,4.801-7.859l4.687,10.632
	c1.144,3.543,0.857,9.316,3.144,11.659l-3.115-17.718c-0.343-1.029-7.887-9.432-0.914-15.89c15.032,1.086,9.517,0.6,13.089,7.516
	c1.714-5.029,1.257-8.802-6.145-9.859l-7.773-0.143l0.114-8.488L317.184,152.609z M260.542,166.527
	c-7.373-7.259-12.631-10.146-11.03-25.893c1-9.888,6.144-19.033,10.745-26.492c17.203-27.893,29.292,1.515,32.121,17.376
	l-8.517,7.688l-18.775-18.404c6.602,4.916,7.716,4.858,11.831,11.374c7.859,12.375,4.487,10.345,2.887,15.775l-9.23-7.374
	c-3.115-2-7.573-4.715-12.031-2c5.516,2.258,2.344,0.772,6.344,1.772c2.029,0.486,3.858,1.543,5.373,2.572
	c3.201,2.143,6.259,4.801,7.573,8.745C273.717,155.724,265.23,164.469,260.542,166.527L260.542,166.527z M303.552,130.518
	c0.143-2.372,18.49-60.472,31.264-35.123c9.174,18.147,10.889,49.241-4.829,59.415l-14.432-5.659l5.087-13.917
	c4.372-7.802,11.345-5.23,12.631-5.745l-20.004,10.774l0.085-9.26c0.572-2.486,7.831-15.661,9.774-18.461
	c2.486-3.572,3.429-3.887,7.173-6.23l-3.115-0.8c-6.059-0.543-14.66,23.977-18.347,28.292L303.552,130.518z M293.064,121.916
	c-0.199-0.229-0.399-0.543-0.543-0.714l-0.972-1.4c-2.086-3.543-2.601-8.03-6.458-12.917c-4.544-5.687-3.43-8.116-1.572-15.833
	c5.602-23.377,30.293-27.75,34.665-13.26c1.972,6.602,2.286,12.003-1.4,16.375c-5.687,6.716-9.431,19.205-13.746,28.121
	l2.229-15.575c1.086-6.145,3.973-10.06,2.572-12.889c-4.229,12.146-6.401,15.661-7.602,27.921c-0.4,3.944,0.199,7.116-2.486,8.888
	l-2.315-15.261c-0.571-8.602,0.571-9.288-1-14.832l-0.715-1.572c-1.828,5.03-1.086,5.601-0.771,11.374
	C293.178,114.228,293.208,118,293.064,121.916L293.064,121.916z M260.372,236.144c4.515,0.6,3.029-0.343,6.658,0.143
	c0.743,3.4,0.457,2.772,0.372,6.373c1.229,15.661,17.689,16.261,28.092,9.688c13.517-8.488,11.631-23.635,14.374-29.979l4.173,0.743
	c10.916,1.629,17.832-17.232,20.833-25.32c5.887-15.89,6.43-28.692-3.258-40.438l12.06-40.524
	c-1.286-7.544-3.086-14.775-6.03-21.177c-3.629-7.916-6.229-11.117-15.774-7.544l-6.315-18.776
	c-4.887-3.572-13.975-2.286-19.233,0.229c-13.031,6.287-13.174,15.518-16.889,31.493l-28.578,25.921
	c-2.915,6.887-5.087,16.032-3.458,24.606c1.687,8.945,6.459,12.289,11.66,16.632l-10.316,15.09
	C235.88,203.678,248.569,235.744,260.372,236.144L260.372,236.144z"/>
<path fill-rule="evenodd" clip-rule="evenodd" fill="#272626" d="M83.361,88.908c12.974-2.486,23.719-0.943,36.151,2.229
	c13.46,3.486,16.432,7.03,23.405,15.861c36.808,46.583,28.578,142.149-40.123,153.781c-13.603,2.314-25.063,1.543-37.979-0.801
	c-10.117-1.829-14.718-7.002-21.576-17.861c-10.031-15.861-19.976-36.037-21.576-58.186c-1.829-25.606,1.458-45.897,13.803-63.873
	C46.182,104.483,59.156,93.537,83.361,88.908L83.361,88.908z M78.76,277.497c4.373-0.886,11.574,0.4,16.518,0.572
	c5.258,0.171,11.174-0.314,16.346-0.973c65.557-8.315,81.418-83.82,67.129-130.375c-2.686-8.716-9.573-22.749-9.831-23.863
	c15.717,16.976,24.548,31.922,31.35,55.813c6.858,24.234,4.943,53.013-5.573,73.59c-9.002,17.689-24.148,32.522-48.182,38.409
	c-18.719,4.572-37.123,0.972-54.612-6.573C89.02,282.841,80.132,277.326,78.76,277.497L78.76,277.497z M60.613,261.521
	c23.491,4.287,42.895,4.858,63.814-5.029c35.293-16.661,48.153-69.617,40.723-105.055c-2.314-11.06-5.029-19.033-9.431-27.978
	c-5.258-10.774-12.631-19.348-14.031-22.32c14.231,9.316,14.003,7.602,23.405,21.005c20.319,29.122,19.318,74.305,6.83,105.255
	c-14.632,36.18-44.295,50.069-81.732,48.068C77.303,274.782,67.615,272.696,60.613,261.521L60.613,261.521z M88.448,85.878
	C29.95,91.594,8.145,152.18,25.177,208.794c12.717,42.268,55.983,90.679,112.367,85.85c26.978-2.286,45.781-18.005,58.556-40.039
	c20.262-34.951,9.488-82.791-12.031-117.114C166.694,109.798,127.885,82.049,88.448,85.878L88.448,85.878z"/>
<path fill-rule="evenodd" clip-rule="evenodd" fill="#FFFFFF" d="M260.542,166.527c4.688-2.058,13.175-10.803,17.29-14.861
	c-1.314-3.944-4.372-6.602-7.573-8.745c-1.515-1.029-3.344-2.086-5.373-2.572c-4-1-0.828,0.486-6.344-1.772
	c4.458-2.715,8.916,0,12.031,2l9.23,7.374c1.601-5.43,4.973-3.401-2.887-15.775c-4.115-6.516-5.229-6.458-11.831-11.374
	l18.775,18.404l8.517-7.688c-2.829-15.861-14.918-45.269-32.121-17.376c-4.602,7.459-9.745,16.604-10.745,26.492
	C247.912,156.381,253.169,159.268,260.542,166.527L260.542,166.527z"/>
<path fill-rule="evenodd" clip-rule="evenodd" fill="#FFFFFF" d="M270.802,223.512l-0.743,3.43
	c-6.544,43.639,28.464,23.748,30.836,16.604l3.571-58.157l-3.515,2.687l1.857,25.807c-2.2-2.715-1.629-11.604-3-17.833
	c-0.743-3.401-0.915-3.087-3.059-4.973l-3.029,39.238c-0.143-0.229-0.257-0.829-0.285-0.715c-0.028,0.144-0.229-0.543-0.258-0.714
	c-0.828-4.259,0.372-12.061,0.372-16.69l-0.829-20.005c-4.201,1.915-6.572,20.319-8.059,27.492
	c-1.314-1.629-1.572-2.543-1.086-6.401l4.43-20.262l-6.373-4.173C277.089,195.62,271.946,214.31,270.802,223.512L270.802,223.512z"
	/>
<path fill-rule="evenodd" clip-rule="evenodd" fill="#FFFFFF" d="M303.552,130.518l5.287,3.287
	c3.687-4.315,12.288-28.835,18.347-28.292l3.115,0.8c-3.744,2.343-4.687,2.658-7.173,6.23c-1.943,2.801-9.202,15.975-9.774,18.461
	l-0.085,9.26l20.004-10.774c-1.286,0.515-8.259-2.058-12.631,5.745l-5.087,13.917l14.432,5.659
	c15.718-10.174,14.003-41.268,4.829-59.415C322.042,70.046,303.695,128.146,303.552,130.518L303.552,130.518z"/>
<path fill-rule="evenodd" clip-rule="evenodd" fill="#FBCA0D" d="M297.093,133.404c-25.091,7.573-26.263,62.672-2.771,56.042
	C316.583,183.13,320.213,126.402,297.093,133.404L297.093,133.404z"/>
<path fill-rule="evenodd" clip-rule="evenodd" fill="#FFFFFF" d="M267.43,226.055l1.4-3.543l9.659-38.495
	c-7.487,2.429-11.117,15.66-14.975,20.604c-2.887-7.145,9.974-19.062,10.802-21.033l1.001-8.517c-4.173,1-8.917,3.973-11.66,5.973
	c-6.772,4.944-1.972,3.601-9.545,9.545c24.234-21.977,20.376-14.518,21.634-31.464c-17.062,7.059-40.866,37.923-24.777,65.559
	C254.141,230.114,266.63,244.317,267.43,226.055L267.43,226.055z"/>
<path fill-rule="evenodd" clip-rule="evenodd" fill="#FFFFFF" d="M322.842,160.811c7.401,1.057,7.858,4.83,6.145,9.859
	c-3.572-6.916,1.943-6.43-13.089-7.516c-6.973,6.458,0.571,14.861,0.914,15.89l3.115,17.718c-2.286-2.343-2-8.116-3.144-11.659
	l-4.687-10.632c-2.001,1.715-4.315,5.315-4.801,7.859l2.8,35.837c13.175,9.945,22.063-18.747,24.749-28.378
	c5.115-18.233-1.229-33.923-17.661-37.181c-1.857,2.086-1.2,3.029-1.229,3.058c-0.057,0.4-0.143,3.286-0.343,4.43L322.842,160.811z"
	/>
<path fill-rule="evenodd" clip-rule="evenodd" fill="#FFFFFF" d="M293.064,121.916c0.144-3.915,0.114-7.688-0.114-11.574
	c-0.314-5.773-1.057-6.344,0.771-11.374l0.715,1.572c1.571,5.544,0.429,6.23,1,14.832l2.315,15.261
	c2.686-1.772,2.086-4.944,2.486-8.888c1.2-12.26,3.372-15.775,7.602-27.921c1.4,2.83-1.486,6.745-2.572,12.889l-2.229,15.575
	c4.315-8.917,8.06-21.405,13.746-28.121c3.687-4.373,3.372-9.774,1.4-16.375c-4.372-14.489-29.063-10.117-34.665,13.26
	c-1.857,7.716-2.972,10.146,1.572,15.833c3.857,4.887,4.372,9.374,6.458,12.917l0.972,1.4
	C292.665,121.373,292.865,121.687,293.064,121.916L293.064,121.916z"/>
<path fill-rule="evenodd" clip-rule="evenodd" fill="#272626" d="M111.682,27.121c13.403-1.115,47.153,7.173,58.67,4.172
	c16.147-4.229,33.693-10.545,50.697-13.946l-14.317,17.375c4.458,2.115,8.831,1.886,14.175,2.343
	c4.544,0.372,9.288,0.857,13.803,1.315c9.888,1.029,19.176,1.915,29.121,2.629l-1.4,0.657c-1.486,0.543-0.372,0.229-1.486,0.486
	c-1.686,0.429-1.886,0.314-3.515,0.457c-11.231,0.857-59.642,3.115-63.557,5.916c-3.887,2.744-17.347,20.834-22.034,23.492
	l-16.032-12.203c-11.917-9.002-9.116-8.745-20.262-7.745c-16.146,1.429-36.293,4.087-52.64,4.172
	c4.687-2.915,5.516-2.601,11.488-4.258c7.973-2.172,30.692-7.745,35.265-10.202C121.541,34.551,120.541,33.522,111.682,27.121
	L111.682,27.121z M106.081,24.349c1.372,3.43,0.915,2.372,4.001,4.63l15.032,11.803L63.9,58.929c0.2,0.171,0.6,0.057,0.743,0.372
	l1.571,0.571c0.286,0.058,0.572,0.115,0.915,0.143l59.642-4.801c20.69-1.657,13.746-3.601,36.037,12.746
	c5.258,3.858,3.572,3.658,10.031,7.259c9.516-7.202,18.318-25.12,27.492-26.006l83.361-7.43c-3.829-2.972-68.587-7.459-72.959-7.859
	l16.175-19.976c-4.63-0.486-47.353,12.06-55.355,14.403C158.978,32.037,122.284,23.892,106.081,24.349L106.081,24.349z"/>
<path fill-rule="evenodd" clip-rule="evenodd" fill="#4F4F4F" d="M9.116,251.291l0.486-0.801L1.572,62.015
	c4.401-0.429,6.259-1.086,10.574-0.486c25.949,3.629,52.869,10.088,79.103,11.489c1.543-1.201,1.629,0.371,5.887-0.629
	c-3.601-2.543-86.647-12.832-90.906-13.46l14.346-7.516l-0.857-0.457C15.318,51.927,3.515,56.5,0,58.929l1.601,48.383
	c1.515,37.267,2.972,84.021,5.573,120.602c0.257,3.601,0.229,8.259,0.428,12.488C7.745,243.631,7.288,248.776,9.116,251.291
	L9.116,251.291z"/>
<path fill-rule="evenodd" clip-rule="evenodd" fill="#A09F9F" d="M322.842,160.811l-7.23-0.714c0.2-1.144,0.286-4.03,0.343-4.43
	c0.029-0.029-0.628-0.972,1.229-3.058l-2.001-0.429l-0.114,8.488L322.842,160.811z"/>
<path fill-rule="evenodd" clip-rule="evenodd" fill="#717171" d="M267.402,242.66c0.085-3.601,0.371-2.973-0.372-6.373
	c-3.629-0.485-2.144,0.457-6.658-0.143c0.2,0.143,0.457,0.399,0.657,0.457c2.372,0.914-2.258,1.515,5.716,0.114L267.402,242.66z"/>
<polygon fill-rule="evenodd" clip-rule="evenodd" fill="#717171" points="267.43,226.055 270.059,226.942 270.802,223.512 
	269.231,225.255 268.831,222.512 "/>
</svg>
