<?xml version="1.0" encoding="utf-8"?>
<!-- Generator: Adobe Illustrator 15.0.0, SVG Export Plug-In  -->
<!DOCTYPE svg PUBLIC "-//W3C//DTD SVG 1.1//EN" "http://www.w3.org/Graphics/SVG/1.1/DTD/svg11.dtd" [
	<!ENTITY ns_flows "http://ns.adobe.com/Flows/1.0/">
]>
<svg version="1.1"
	 xmlns="http://www.w3.org/2000/svg" xmlns:xlink="http://www.w3.org/1999/xlink" xmlns:a="http://ns.adobe.com/AdobeSVGViewerExtensions/3.0/"
	 x="0px" y="0px" width="238px" height="567px" viewBox="0 0 238 567" enable-background="new 0 0 238 567" xml:space="preserve">
<defs>
</defs>
<path fill-rule="evenodd" clip-rule="evenodd" fill="#B0AC99" d="M59.156,253.771l1.943,2.858
	c2.658,4.315,34.522,49.441,37.065,51.327l133.115-83.649c-73.045-14.975-151.462-32.094-224.592-44.811
	C13.231,190.298,54.726,249.426,59.156,253.771L59.156,253.771z"/>
<path fill-rule="evenodd" clip-rule="evenodd" fill="#EAEC8C" d="M183.954,105.877l-62.585,93.48l113.797,22.005l-3.915-10.803
	c-1.229-1.572,0.171,1.4-1.372-2.058c-0.257-0.514-0.829-2.572-1.058-3.286l-1.172-5.173c-1.057-1.058-0.628-0.229-1.571-1.801
	c-0.372-0.628-0.915-2.058-1.2-2.8c-0.829-2.115-1.314-3.544-1.857-5.887l-10.146-24.435l-0.2-0.829l-1.857-4.858l-0.886-1.629
	l-1.172-3.201l-0.771-2.229l-20.376-50.126l-1.515,0.943C184.697,107.334,185.783,104.705,183.954,105.877L183.954,105.877z"/>
<path fill-rule="evenodd" clip-rule="evenodd" fill="#BAD532" d="M61.67,113.793l-2.058,2.744c-1.8,2.629-4.029,4.973-6.43,7.345
	L4.086,176.38l113.339,21.691l-25.32-114.6c-4.715,3.373-10.688,10.717-14.746,15.147C74.416,101.847,65.872,111.649,61.67,113.793
	L61.67,113.793z"/>
<path fill-rule="evenodd" clip-rule="evenodd" fill="#B0AC99" d="M183.669,103.305l-0.343-1.486
	c0.457-2.229,0.571-0.915-0.515-2.601L95.278,82.442l24.434,114.114c2.429-2.257,5.372-7.516,7.516-10.717l54.126-80.077
	c0.172-0.229,0.715-0.857,0.887-1.058C183.212,103.619,183.012,103.819,183.669,103.305L183.669,103.305z"/>
<path fill-rule="evenodd" clip-rule="evenodd" fill="#1A1A1A" d="M228.136,230.479c-1.229,2.029-3.944,4.887-5.858,7.001
	l-68.272,70.903c-10.259,10.831-7.658,10.603-17.317,8.431l-35.237-7.202c20.347-14.574,67.186-43.153,93.821-59.757
	c9.859-6.144,21.947-13.06,31.207-19.662l3.801-2.086C229.136,232.965,230.536,229.165,228.136,230.479L228.136,230.479z
	 M7.602,185.868l81.275,114.313c3.172,4.315,2.915,3.516,5.458,8.431c-6.316-1.028-41.152-7.173-43.181-10.031
	c-1.943-2.743-26.377-65.93-29.978-74.875c-4.915-12.175-11.002-25.178-14.946-37.638l-0.314-2.2L7.602,185.868z M61.099,256.628
	c-1.372-1-0.829,0.771-1.943-2.858c-4.43-4.344-45.924-63.473-52.469-74.275c73.13,12.717,151.547,29.836,224.592,44.811
	L98.164,307.955C95.621,306.069,63.757,260.943,61.099,256.628L61.099,256.628z M59.613,116.537l0.314-2.601l1.743-0.143
	c4.201-2.144,12.746-11.946,15.689-15.175c4.058-4.43,10.031-11.774,14.746-15.147l25.32,114.6L4.086,176.38l49.097-52.499
	C55.583,121.509,57.813,119.166,59.613,116.537L59.613,116.537z M182.812,99.218l2.429,0.771l-1.914,1.829l0.343,1.486
	c-0.657,0.515-0.457,0.314-1.429,1.4c-0.172,0.2-0.715,0.829-0.887,1.058l-54.126,80.077c-2.144,3.201-5.087,8.459-7.516,10.717
	L95.278,82.442L182.812,99.218z M95.506,79.756c0.743-1.028,6.344-7.602,7.23-8.259c3.144-2.372,7.745-0.515,12.631,0.457
	l63.214,12.432c4.087,1.601,5.572,8.459,6.487,13.032L95.506,79.756z M157.406,11.939c2.829,1.229,1.743,0.686,5.315,0.629
	c1.028-0.029,2.058-0.172,3.086,0.028c3.229,0.743,1.172-0.2,2.943,1.743c3.372,1.115,2.601,0.314,4.572,3.201
	c-1.686,10.402-10.916,2.486-13.26-1.286l-3.172,1.943l-3.43-0.086c-0.714-1.486-2.229-3.744-0.771-5.602
	C154.548,10.196,154.434,10.739,157.406,11.939L157.406,11.939z M146.261,16.112c-5.145,1.543-11.831,1.458-8.802-6.63l12.288,3.001
	C148.976,15.512,149.204,15.226,146.261,16.112L146.261,16.112z M141.974,5.624l3.144,1.4c-6.315,0.886-2.829,0.314-4.201-0.714
	c-8.772,1.857-7.944,6.087-4.543,12.117h10.888l-21.947,8.002l-2.544-9.888C122.084,11.025,124.541-2.35,141.974,5.624
	L141.974,5.624z M141.088,25.514l5.229-2.858c-1.086,3.544-0.657,2.601-3.572,4.258c-2.457,4.001-7.973,7.831-12.06,12.575
	l-2.058,2.8c-3.086,1.515-40.009,40.239-44.695,45.754c-4.515,5.287-10.031,10.374-14.689,15.575l-58.956,61.729l-2.344,2.286
	L0,175.294c1.772,11.231,63.643,157.496,73.587,185.389c1.658,0.828,0.829,0.743,1.458-1.715l-21.919-55.671
	c2.886-0.028,72.501,13.403,83.418,15.804c5.344,1.172,0.629-0.285,3.658,1.229l1.286,0.8l-10.316,10.831
	c-1.458,2.058-0.715,0.915-1.229,2.372l1.486-0.086c2.429-0.686,10.288-9.773,13.175-13.089c3.886-4.486,9.858-9.802,13.374-13.832
	c8.03-9.174,18.747-18.833,26.691-27.778c15.203-17.119,36.551-38.124,53.526-55.214c-0.314-3.801-2.915-9.802-4.544-13.432
	c-1.857-4.144-3.229-9.031-5.373-13.204l-1.314,0.229l0.686,2.115l1.172,5.173c3.144,1.429,2.258,1.143,2.43,5.344l3.915,10.803
	l-113.797-22.005l62.585-93.48l-0.285-2.572l2.429-0.114l1.515-0.943l20.376,50.126l1.229-0.486l-1.143-2.286
	c0.629-3.287-15.146-40.125-17.775-46.697c-2.486-6.288-17.261-44.525-18.661-46.04c-2.344-1.429-1.887,1.772-1.887-1.543
	l-0.028,0.915l9.517,25.549c-5.287-1-67.644-10.974-71.816-15.032c7.688-7.802,38.066-39.981,43.181-44.154
	c2.715-2.229-0.143-0.829,3.029-1.886l3.743,4.43l2.915-1.972l-0.686-2.915c2.286,1.2,2.058,0.8,3.344,2.4
	c3.029,1.029,5.516,2.658,9.23,1.4c5.144-3.372,4.601-10.517-2.258-11.574l-2.772-0.714c2.601-1.829,7.459-1.315,9.945-0.257
	c14.403,0.4,8.202,19.348,0.886,25.063l-9.116-5.087c-2.915-2.258-3.743-5.202-6.115-5.887l-1.344-0.6l-0.571,1.857
	c3.43,2.486,8.23,10.26,13.346,11.603c11.603,3.058,20.805-24.806,6.516-28.979c-7.315-2.143-15.432,0.543-22.662-0.314
	c-12.374-1.4-27.806-18.291-35.436-2.401c-2.715,5.63-2.944,15.175,0.628,20.005C127.685,32.773,135.63,27.058,141.088,25.514
	L141.088,25.514z"/>
<path fill-rule="evenodd" clip-rule="evenodd" fill="#E21C47" d="M75.045,358.968l1.857,4.516l6.145,14.175l2.686,0.943
	c3.543-1.915,16.204-16.004,20.833-20.806c3.916-4.087,6.373-7.316,10.146-11.031c2.858-2.829,7.258-8.174,10.802-9.917
	c0.972-2.114,0.171-1.457,2.429-2.515c0.515-1.457-0.229-0.314,1.229-2.372l10.316-10.831l-1.286-0.8
	c-3.029-1.515,1.686-0.058-3.658-1.229c-10.917-2.4-80.532-15.832-83.418-15.804L75.045,358.968z"/>
<path fill-rule="evenodd" clip-rule="evenodd" fill="#1A1A1A" d="M57.098,538.841c-0.429-6.145,3.944-8.345,13.06-10.031
	l-0.029,5.229C70.072,534.297,64.985,546.442,57.098,538.841L57.098,538.841z M72.73,523.551c2.687-1.114,4.373,0.458,5.887,1.544
	c1.458,7.401-1.058,7.544-5.801,5.058L72.73,523.551z M76.131,451.248c21.919-6.345,15.975,6.315,12.717,7.03
	C88.619,458.335,76.703,459.221,76.131,451.248L76.131,451.248z M66.9,451.676v-2.229l2.257-0.229l4.487,1.028
	c1.029,5.802,0.771,7.545-4.629,7.603C66.929,455.478,67.043,455.648,66.9,451.676L66.9,451.676z M50.554,459.449
	c-5.229-10.459,5.059-9.888,14.146-7.716c0.314,4.973-1.143,4.801-4.944,6.516C55.926,459.964,54.44,460.364,50.554,459.449
	L50.554,459.449z M89.334,383.945l15.403,4.744l-2.658,4.772C98.364,393.947,88.676,391.833,89.334,383.945L89.334,383.945z
	 M81.704,380.716c3.858-0.143,6.23,0.257,5.315,4.802c-0.714,3.543-2.972,3.857-6.173,2.172
	C79.103,384.031,80.303,383.488,81.704,380.716L81.704,380.716z M62.128,380.688c4.029-4.602,11.231-1.972,16.032,0.943
	c-4.287,4.115-5.944,7.173-13.889,5.486L62.128,380.688z M89.991,393.348c-1.858-1.687-1.086,2.515-1.829-3.315
	c4.487,0.886,0.915-0.086,2.115,1.658c3.401,1.943,5.973,4.973,11.917,4.258l4.772-8.773l-11.374-6.087l15.489-0.286
	c11.602,1.058,10.145,22.263-1.829,29.293l-6.659-2.572C100.279,406.094,91.763,396.034,89.991,393.348L89.991,393.348z
	 M75.474,389.232l1.743-1.629l-2.086,1.629c-4.087,3.943-16.547,10.974-24.377,9.517c-4.001-16.404-6.887-18.204,2.972-27.921
	l16.204,4.029l3.543,0.114c2.4,1.915,0.2-2.801,2.144,1.743c-0.2,0.058,0.314,2.058-2.458,0l-2.943-0.972
	c-11.774-0.914-11.831,6.059-7.802,13.317L75.474,389.232z M76.902,363.483c-1.229-1.344-0.6-1.258-1.486-0.314l3.629,12.975
	l-25.263-7.745c-4.572,2.4-7.973,6.802-9.116,13.261c-1.029,5.602,0.543,15.489,3.801,18.433l32.264-9.431l-9.031,55.557
	c-13.86,2.372-31.578-10.316-37.608,2.458c-1.715,3.601-2.915,8.602-1.829,12.603l1.486-6.03c0.114-0.628,0.372-0.714,0.657-0.971
	c3.172-8.603,5.258-11.746,24.206-6.488c-4.544,1.058-15.718,1.601-11.088,10.746c3.43,6.858,11.231,2.429,16.404,0.629
	c-21.09,20.348-17.49,15.175-26.063,13.604l-0.514,0.285l1.515,3.115c7.773,2.115,13.317-2.486,17.546-6.145l12.231-9.717
	c1.686,1.943,0.943-2.144,1.343,3.029c0,0.086-0.372,3.487-0.372,3.572c-0.372,3.001-0.4,5.545-0.515,8.517
	c-0.829,20.348,0.429,27.436,2.058,47.841c-12.402,3.543-32.35,4.058-29.492,20.719c2.172,12.575,21.748,26.864,25.634,10.831
	l-1.657-0.399c-4.458,6.973-8.059,6.744-14.775,0.6c-4.401-4.029-7.659-9.402-6.916-18.062c3.658-4.63,8.259-6.344,15.803-8.23
	l3.458-1.114l-2.858,2.344l-5.573,3.771l0.286,6.345l9.831,3.687l8.001-8.773c-1.057,7.202-3.943,11.889-6.201,17.747l2.029-0.171
	l7.23-16.49c1.915,2.372,3,5.802,4.715,8.288c6.001,8.716,20.461,13.917,29.292,11.431l37.294-16.518l0.715,4.258
	c1.086-2.172,1.057-0.4,0.628-5.401l3.173,0.715l2.8-1.829c-0.8-1.372,0.458-1.601-3.457-1.086c-6.944-0.657-5.63-7.03,1.343-7.659
	l3.286,2.572l-1.172,3.086l1.029,3.173c2.429,0.886,4.344,2.343,6.145,3.887c2.943,2.543,3.258,3.372,2.715,7.858
	c-2.858,2.372-3.602,2.43-7.773,1.801l-0.343,1.114c0.8,4.201,10.745,1.344,10.688-5.716c-0.028-5.001-6.201-8.345-8.916-11.316
	l7.002,2.629l1.515-2.429c-1.458-0.344-5.688-1.516-6.83-2.115c-3.087-1.629-1.943-1.629-3.572-5.173
	c-4.458-0.743-0.457-0.771-6.83-1.515l-3.43,1.572l-2.657-3.43c-11.174-14.976,6.887-17.376,5.887-3.144
	c0.857,1,0.257,0.2,1.143,1.515c0.115,0.143,0.4,0.771,0.544,1.086l0.143-4.229c0.314-5.315-0.571-6.888-3.43-9.488l-7.087-0.229
	c-3.372,3.458-3.944,4.344-3.286,9.974c1.371,1.2,0.085-1.028,2.114,2.258c0.715,1.172,0.8,1.857,1.286,3.315
	c-3.144-2.63-2.572-1.314-3.915-5.002l-4.173-4.115l-1.086,1.858l13.889,18.89c-6.344,6.059-24.862,14.747-35.064,16.262
	l-32.007-19.263l2.686-2.886l33.179,0.057c2.772-15.832-7.516-35.837-24.205-25.148c2.829-0.343,2.314-1.001,1.743,1.743
	c7.173-3.973,11.745-3.258,15.946,2.629c3.744,5.259,5.058,11.117,4.487,19.319c-6.745,4.572-17.204,1.086-25.52,0.571
	c-4.401-1.114-2.086,0.028-3.972-2.543l10.288-0.572l3.772-2.629l0.257-2.601l0.171-2.572c-1.029,0.715-1.458,0.286-2.144,1.114
	c-0.371,4.23-1.572,4.487-7.116,5.259c-5.63,0.771-5.858,0.829-8.173-2.857c1.658-2.201,2-2.172,4.43-3.973
	c1.543-1.172,2.801-1.972,4.544-2.973l1.458-1c2.257-1.857,0.543,0.372,1.886-2.114c-4.172,0.143-3.544,0.8-6.516,1.8
	c-1.086,1.429-0.4,0.687-1.743,1.973c-0.171,0.171-1.171,0.771-1.486,0.942l-3.172-0.114c-3.601,1.658-1.915,1.972-5.229,3.372
	c-1.4-14.975-5.887-47.982-0.771-61.301c3.629,1.258,5.458,3.144,7.516,5.859l2.058-0.086l0.915,2.114
	c3.344,2.658,9.574,7.145,14.86,7.603c6.144,0.543,9.974-7.03,9.402-12.775l0.428,0.029c-0.028,6.03,0.458,1.2-2.172,2.801
	c-1.257,1.629-2.572,4.858-4.887,7.315c-8.345,0.429-19.061-7.659-21.89-12.003c-1.658-1.028-1.229-0.114-2.401-2.314l2.315,1.343
	c21.348,5.002,14.403-9.487,12.688-10.888c-2.658-2.144-5.087-1.43-8.973-1.572l24.176,12.26l2.144-0.828
	c-2.629-23.292-9.488-17.49-34.836-11.518l9.631-55.014c3.601,0.4,0.543-1.943,5.716,5.201c6.544,9.031,8.716,8.631,20.49,15.519
	c6.116-3.458,13.746-15.146,10.231-26.063l-29.921-8.002l32.836-35.095c0.543-0.514,2.058-1.743,2.715-2.457
	c1.457-1.572,1.2-0.972,1.286-2.486c2.572-1.829,2.629-0.772,0.114-1.544c-3.544,1.743-7.944,7.088-10.802,9.917
	c-3.772,3.715-6.23,6.944-10.146,11.031c-4.629,4.802-17.29,18.891-20.833,20.806l-2.686-0.943L76.902,363.483z"/>
<path fill-rule="evenodd" clip-rule="evenodd" fill="#D9AFD2" d="M228.136,230.479l-1.657-0.286
	c-9.26,6.602-21.348,13.518-31.207,19.662c-26.635,16.604-73.474,45.183-93.821,59.757l35.237,7.202
	c9.659,2.172,7.059,2.4,17.317-8.431l68.272-70.903C224.191,235.366,226.907,232.508,228.136,230.479L228.136,230.479z"/>
<path fill-rule="evenodd" clip-rule="evenodd" fill="#D3BDC9" d="M7.602,185.868l-1.372,0.2
	c3.944,12.46,10.031,25.463,14.946,37.638c3.601,8.945,28.035,72.132,29.978,74.875c2.029,2.858,36.865,9.003,43.181,10.031
	c-2.543-4.915-2.286-4.115-5.458-8.431L7.602,185.868z"/>
<path fill-rule="evenodd" clip-rule="evenodd" fill="#F5853E" d="M169.723,56.236l-1.914-4.401
	c-1.572-3.058-5.401-11.517-5.744-15.175c-2.486-2.286-2.058-2.8-2.83-4.001l-1.857-7.516l-3.743-4.43
	c-3.172,1.058-0.314-0.343-3.029,1.886c-5.115,4.172-35.494,36.352-43.181,44.154c4.172,4.058,66.529,14.032,71.816,15.032
	L169.723,56.236z"/>
<path fill-rule="evenodd" clip-rule="evenodd" fill="#B471A2" d="M95.506,79.756l89.563,17.662
	c-0.915-4.572-2.4-11.431-6.487-13.032l-63.214-12.432c-4.887-0.972-9.488-2.829-12.631-0.457
	C101.851,72.154,96.25,78.728,95.506,79.756L95.506,79.756z"/>
<path fill-rule="evenodd" clip-rule="evenodd" fill="#BAD532" d="M90.277,391.69l-0.286,1.657
	c1.771,2.687,10.288,12.746,12.603,14.175l6.659,2.572c11.974-7.03,13.431-28.235,1.829-29.293l-15.489,0.286l11.374,6.087
	l-4.772,8.773C96.25,396.663,93.678,393.634,90.277,391.69L90.277,391.69z"/>
<path fill-rule="evenodd" clip-rule="evenodd" fill="#F58965" d="M65.643,554.416c-0.143-2.229-0.829-2.029,1.057-1.687
	c2.258-5.858,5.144-10.545,6.201-17.747l-8.001,8.773l-9.831-3.687l-0.286-6.345l5.573-3.771l-0.6-1.229
	c-7.544,1.887-12.146,3.601-15.803,8.23c-0.743,8.659,2.515,14.032,6.916,18.062C57.584,561.16,61.185,561.389,65.643,554.416
	L65.643,554.416z"/>
<path fill-rule="evenodd" clip-rule="evenodd" fill="#F5853E" d="M34.407,454.277c-0.657,10.773,1.801,10.488,3.458,18.49
	c8.573,1.571,4.973,6.744,26.063-13.604c-5.172,1.8-12.974,6.229-16.404-0.629c-4.629-9.146,6.544-9.688,11.088-10.746
	C39.666,442.531,37.58,445.675,34.407,454.277L34.407,454.277z"/>
<path fill-rule="evenodd" clip-rule="evenodd" fill="#A05D7E" d="M156.349,551.758c-3.172-1.8-2.515-1.515-3.744-4.772h-1
	l1.601,5.516l1.657,6.173c1.687,2.286,2.887,4.029,5.83,5.459c11.06,1.286,20.776-6.316,22.119-15.062
	c-2.743-5.458-9.202-9.059-15.804-11.116l-1.886-0.601l-7.002-2.629c2.715,2.972,8.888,6.315,8.916,11.316
	C167.094,553.102,157.148,555.959,156.349,551.758L156.349,551.758z"/>
<path fill-rule="evenodd" clip-rule="evenodd" fill="#F58965" d="M91.677,507.719c-2,1.801-2.086,1.543-4.001,3.687
	c-2.486,2.829,0.657,1.058-3.287,2.915l1.086,0.257c2.972-1,2.344-1.657,6.516-1.8l0.886,0.714l3.401,1.058l1.257,3.63
	c0.514,1.857,0.543-0.572,0.286,1.8c-0.171,1.801-0.257,0.972-0.886,1.915l-0.257,2.601l-3.772,2.629
	c-2.486,1.258-4.086,0.943-6.315,3.115c8.316,0.515,18.775,4.001,25.52-0.571c0.571-8.202-0.743-14.061-4.487-19.319
	C103.422,504.461,98.85,503.746,91.677,507.719L91.677,507.719z"/>
<path fill-rule="evenodd" clip-rule="evenodd" fill="#A05D7E" d="M129.8,513.32l2.029-0.114l0.714,3l4.173,4.115l0.515-0.571
	c-0.658-5.63-0.086-6.516,3.286-9.974l7.087,0.229c2.858,2.601,3.744,4.173,3.43,9.488c1.543,1.257,0.8-0.086,2.114,3.4l2.43-13.46
	l0.343-10.803c-3.516-6.202-12.402-3.83-17.719-1.115c-3.086,1.572-5.286,3.544-7.144,5.802
	C127.399,507.719,129.343,507.805,129.8,513.32L129.8,513.32z"/>
<path fill-rule="evenodd" clip-rule="evenodd" fill="#BAD532" d="M75.131,389.232h0.343l-13.06-0.172
	c-4.029-7.259-3.972-14.231,7.802-13.317l-0.286-0.886l-16.204-4.029c-9.859,9.717-6.973,11.517-2.972,27.921
	C58.584,400.206,71.044,393.176,75.131,389.232L75.131,389.232z"/>
<path fill-rule="evenodd" clip-rule="evenodd" fill="#E21C47" d="M162.95,22.656l-1.086,0.343l0.886,2.601
	c2.372,0.686,3.2,3.629,6.115,5.887l9.116,5.087c7.316-5.716,13.518-24.664-0.886-25.063l-7.173,0.972
	c6.858,1.058,7.401,8.202,2.258,11.574C168.466,25.314,165.979,23.685,162.95,22.656L162.95,22.656z"/>
<path fill-rule="evenodd" clip-rule="evenodd" fill="#E21C47" d="M140.916,6.31l1.058-0.686
	c-17.433-7.973-19.89,5.401-19.204,10.917l2.544,9.888l21.947-8.002h-10.888C132.972,12.396,132.144,8.167,140.916,6.31
	L140.916,6.31z"/>
<path fill-rule="evenodd" clip-rule="evenodd" fill="#F5853E" d="M79.217,459.335l0.086,0.972
	c2.829,4.344,13.545,12.432,21.89,12.003c2.315-2.457,3.629-5.687,4.887-7.315l1.029-5.859l-24.176-12.26
	c3.886,0.143,6.315-0.571,8.973,1.572C93.621,449.848,100.565,464.337,79.217,459.335L79.217,459.335z"/>
<path fill-rule="evenodd" clip-rule="evenodd" fill="#1A1A1A" d="M167.008,537.955c6.602,2.058,13.061,5.658,15.804,11.116
	c-1.343,8.745-11.06,16.348-22.119,15.062c-2.943-1.43-4.144-3.173-5.83-5.459l-1.058,1.629c3.059,9.231,14.775,7.603,22.348,2.258
	c2.144-1.515,6.402-5.858,7.945-9.23c2.943-6.487-0.943-9.031-4.144-11.203l-3.373-2.286l-8.487-4.059L167.008,537.955z"/>
<path fill-rule="evenodd" clip-rule="evenodd" fill="#3F3F3F" d="M128.143,513.635l1.657-0.314c-0.457-5.516-2.4-5.602,1.258-10.003
	c1.857-2.258,4.058-4.229,7.144-5.802c5.316-2.715,14.203-5.087,17.719,1.115c2.943,0,1.058,4.344,1.515,8.202l1.372-4.201
	c-0.544-3.944-1.801-6.773-2.83-9.316c-8.315-0.829-15.604-1.315-21.805,2.972C129.857,499.288,122.998,506.061,128.143,513.635
	L128.143,513.635z"/>
<path fill-rule="evenodd" clip-rule="evenodd" fill="#FBCA0D" d="M50.554,459.449c3.887,0.915,5.373,0.515,9.202-1.2
	c3.801-1.715,5.258-1.543,4.944-6.516C55.612,449.562,45.324,448.99,50.554,459.449L50.554,459.449z"/>
<path fill-rule="evenodd" clip-rule="evenodd" fill="#FBCA0D" d="M57.098,538.841c7.887,7.602,12.974-4.544,13.031-4.802
	l0.029-5.229C61.042,530.496,56.669,532.696,57.098,538.841L57.098,538.841z"/>
<path fill-rule="evenodd" clip-rule="evenodd" fill="#FBCA0D" d="M151.776,538.841c2,3.486,3.687,8.487,4.915,11.803
	c4.172,0.629,4.915,0.571,7.773-1.801c0.543-4.486,0.229-5.315-2.715-7.858c-1.801-1.544-3.716-3.001-6.145-3.887l-1.029-0.086
	L151.776,538.841z"/>
<path fill-rule="evenodd" clip-rule="evenodd" fill="#FBCA0D" d="M94.963,520.436l-0.257-1.629
	c-0.829-3.114,0.943-1.086-1.343-2.915h-4.715c-1.743,1.001-3,1.801-4.544,2.973c-2.429,1.801-2.772,1.771-4.43,3.973
	c2.315,3.687,2.543,3.629,8.173,2.857C93.392,524.923,94.592,524.666,94.963,520.436L94.963,520.436z"/>
<path fill-rule="evenodd" clip-rule="evenodd" fill="#FBCA0D" d="M76.131,451.248c0.572,7.973,12.488,7.087,12.717,7.03
	C92.106,457.563,98.05,444.903,76.131,451.248L76.131,451.248z"/>
<path fill-rule="evenodd" clip-rule="evenodd" fill="#FBCA0D" d="M149.404,526.123l-0.2-5.001c1-14.232-17.061-11.832-5.887,3.144
	l2.657,3.43L149.404,526.123z"/>
<path fill-rule="evenodd" clip-rule="evenodd" fill="#FBCA0D" d="M62.128,380.688l2.143,6.43c7.945,1.687,9.602-1.371,13.889-5.486
	C73.359,378.716,66.157,376.086,62.128,380.688L62.128,380.688z"/>
<path fill-rule="evenodd" clip-rule="evenodd" fill="#FBCA0D" d="M102.08,393.462l2.658-4.772l-15.403-4.744
	C88.676,391.833,98.364,393.947,102.08,393.462L102.08,393.462z"/>
<path fill-rule="evenodd" clip-rule="evenodd" fill="#FFFFFF" d="M160.063,16.255c2.344,3.772,11.574,11.688,13.26,1.286
	c-1.972-2.887-1.2-2.086-4.572-3.201l-7.059-0.371L160.063,16.255z"/>
<path fill-rule="evenodd" clip-rule="evenodd" fill="#3F3F3F" d="M147.976,543.527l2.543,8.145c1.258,1.43,0.915-2.886,1.058,2.887
	c3.658,0-0.028,0.486,1.629-2.058l-1.601-5.516l-0.4-3.486c0.486,1.114,1.001,2.657,1.4,3.486c1.229,3.258,0.572,2.973,3.744,4.772
	l0.343-1.114c-1.229-3.315-2.915-8.316-4.915-11.803l-3.173-0.715C149.032,543.127,149.062,541.355,147.976,543.527L147.976,543.527
	z"/>
<path fill-rule="evenodd" clip-rule="evenodd" fill="#FFFFFF" d="M149.747,12.482l-12.288-3.001
	c-3.029,8.088,3.657,8.174,8.802,6.63C149.204,15.226,148.976,15.512,149.747,12.482L149.747,12.482z"/>
<path fill-rule="evenodd" clip-rule="evenodd" fill="#1A1A1A" d="M223.021,189.555l0.771-1.486
	c0.028-4.973-6.916-17.661-8.459-23.234l-2.458,0.286L223.021,189.555z"/>
<path fill-rule="evenodd" clip-rule="evenodd" fill="#63AFB8" d="M66.9,451.676c0.143,3.973,0.028,3.802,2.115,6.174
	c5.401-0.058,5.658-1.801,4.629-7.603l-4.487-1.028C68.215,451.048,68.443,450.704,66.9,451.676L66.9,451.676z"/>
<path fill-rule="evenodd" clip-rule="evenodd" fill="#63AFB8" d="M80.846,387.689c3.201,1.686,5.458,1.371,6.173-2.172
	c0.915-4.545-1.458-4.944-5.315-4.802C80.303,383.488,79.103,384.031,80.846,387.689L80.846,387.689z"/>
<path fill-rule="evenodd" clip-rule="evenodd" fill="#63AFB8" d="M151.119,535.926l1.629-2.144l1.828,0.143l1.172-3.086
	l-3.286-2.572C145.489,528.896,144.175,535.269,151.119,535.926L151.119,535.926z"/>
<path fill-rule="evenodd" clip-rule="evenodd" fill="#63AFB8" d="M72.73,523.551l0.086,6.602c4.744,2.486,7.259,2.344,5.801-5.058
	C77.103,524.009,75.417,522.437,72.73,523.551L72.73,523.551z"/>
<path fill-rule="evenodd" clip-rule="evenodd" fill="#3F3F3F" d="M79.074,517.378l3.172,0.114c1-5.716-0.343-1.371,2.143-3.172
	c3.944-1.857,0.8-0.086,3.287-2.915c1.915-2.144,2-1.886,4.001-3.687c0.571-2.744,1.086-2.086-1.743-1.743
	C85.276,510.147,80.875,511.52,79.074,517.378L79.074,517.378z"/>
<path fill-rule="evenodd" clip-rule="evenodd" fill="#3F3F3F" d="M155.577,509.434l-2.43,13.46l-0.371,2.344l2.343-0.028
	c1.029-4.145,2.144-7.945,1.973-12.175l1.171-5.173C155.892,509.462,157.092,506.833,155.577,509.434L155.577,509.434z"/>
<path fill-rule="evenodd" clip-rule="evenodd" fill="#3F3F3F" d="M32.264,461.278c0.086,2.915,0.686,4.516,1.629,6.859
	c0.2,0.457,1.057,2.515,1.229,2.801c1.143,1.743,0.686,1.057,2.229,2.114l0.514-0.285c-1.657-8.002-4.115-7.717-3.458-18.49
	c-0.286,0.257-0.543,0.343-0.657,0.971L32.264,461.278z"/>
<path fill-rule="evenodd" clip-rule="evenodd" fill="#1A1A1A" d="M162.064,36.66c0.343,3.658,4.172,12.118,5.744,15.175h1.485
	l-6.315-18.147C161.063,34.773,161.75,32.087,162.064,36.66L162.064,36.66z"/>
<path fill-rule="evenodd" clip-rule="evenodd" fill="#FFFFFF" d="M156.892,18.198l0.515-6.259c-2.973-1.2-2.858-1.743-4.716,0.571
	c-1.457,1.858,0.058,4.116,0.771,5.602L156.892,18.198z"/>
<path fill-rule="evenodd" clip-rule="evenodd" fill="#3F3F3F" d="M157.377,25.143l1.857,7.516l2.801-0.543l-1.2-5.258
	c-0.229-0.171-0.743-0.714-0.657-0.543c0.058,0.143,0.086-0.515,0.172-0.6c0.2-0.229,0.714-0.486,1.057-0.714l1.344,0.6
	l-0.886-2.601l-1.572,0.172L157.377,25.143z"/>
<path fill-rule="evenodd" clip-rule="evenodd" fill="#3F3F3F" d="M156.892,18.198l3.172-1.943l1.629-2.286l7.059,0.371
	c-1.771-1.943,0.286-1-2.943-1.743c-1.028-0.2-2.058-0.057-3.086-0.028c-3.572,0.057-2.486,0.6-5.315-0.629L156.892,18.198z"/>
<path fill-rule="evenodd" clip-rule="evenodd" fill="#787878" d="M155.577,509.434c1.515-2.601,0.314,0.028,2.686-1.572
	l-1.171,5.173c2.657-0.657,1.6-7.916,1.715-10.402l-1.372,4.201c-0.457-3.858,1.429-8.202-1.515-8.202L155.577,509.434z"/>
<path fill-rule="evenodd" clip-rule="evenodd" fill="#3F3F3F" d="M223.021,189.555c0.543,2.343,1.028,3.772,1.857,5.887
	c0.285,0.743,0.828,2.172,1.2,2.8c0.943,1.572,0.515,0.743,1.571,1.801l-0.686-2.115l1.314-0.229c-0.657-2-1.058-3.029-1.829-4.973
	c-0.399-1-0.371-1.229-0.857-2.172c-1.371-2.658-0.571-1.2-1.8-2.486L223.021,189.555z"/>
<path fill-rule="evenodd" clip-rule="evenodd" fill="#787878" d="M149.204,521.122l0.2,5.001c6.373,0.743,2.372,0.771,6.83,1.515
	c-0.2-0.286-0.715-1.172-0.771-1.343c-0.058-0.086-0.2-0.486-0.229-0.572c-0.029-0.085-0.086-0.343-0.115-0.514l-2.343,0.028
	l0.371-2.344c-1.314-3.486-0.571-2.144-2.114-3.4l-0.143,4.229c-0.144-0.314-0.429-0.943-0.544-1.086
	C149.461,521.322,150.062,522.122,149.204,521.122L149.204,521.122z"/>
<path fill-rule="evenodd" clip-rule="evenodd" fill="#787878" d="M153.805,560.303l1.058-1.629l-1.657-6.173
	c-1.657,2.544,2.029,2.058-1.629,2.058c-0.143-5.772,0.2-1.457-1.058-2.887c0.143,2.372,0.058,2.944,0.657,4.83
	c0.229,0.743,0.571,1.515,0.972,2.086C152.977,559.874,152.947,559.531,153.805,560.303L153.805,560.303z"/>
<path fill-rule="evenodd" clip-rule="evenodd" fill="#9C9C9D" d="M86.59,530.238c2.229-2.172,3.83-1.857,6.315-3.115l-10.288,0.572
	C84.504,530.267,82.189,529.124,86.59,530.238L86.59,530.238z"/>
<path fill-rule="evenodd" clip-rule="evenodd" fill="#787878" d="M131.457,518.064l1.086-1.858l-0.714-3l-2.029,0.114l-1.657,0.314
	C129.6,517.692,128.628,516.32,131.457,518.064L131.457,518.064z"/>
<path fill-rule="evenodd" clip-rule="evenodd" fill="#3F3F3F" d="M93.363,515.892c2.286,1.829,0.514-0.199,1.343,2.915l2.829-0.628
	l-1.257-3.63l-3.401-1.058L93.363,515.892z"/>
<path fill-rule="evenodd" clip-rule="evenodd" fill="#3F3F3F" d="M106.08,464.994c2.629-1.601,2.144,3.229,2.172-2.801l-0.428-0.029
	c1.657,0,1.2-1.943,1.429-3.857l-2.144,0.828L106.08,464.994z"/>
<path fill-rule="evenodd" clip-rule="evenodd" fill="#3F3F3F" d="M212.675,164.291c2.029-0.028,1.544,0.486,1.544-1.515
	l-0.715-4.029l-2.687,0.686L212.675,164.291z"/>
<path fill-rule="evenodd" clip-rule="evenodd" fill="#787878" d="M169.923,12.482l7.173-0.972c-2.486-1.058-7.345-1.572-9.945,0.257
	L169.923,12.482z"/>
<path fill-rule="evenodd" clip-rule="evenodd" fill="#3F3F3F" d="M167.809,51.835l1.914,4.401l0.028-0.915
	c0,3.315-0.457,0.115,1.887,1.543c-0.657-2.744,0.057-1.314-0.829-3.029c-0.886-1.772-0.485-0.915-1.515-2H167.809z"/>
<path fill-rule="evenodd" clip-rule="evenodd" fill="#787878" d="M207.988,152.374l0.771,2.229l2.658-0.057
	c-0.286-0.743-0.314-1.458-0.771-2.201c-2.229-3.572,0-0.714-2.572-2.743l1.143,2.286L207.988,152.374z"/>
<path fill-rule="evenodd" clip-rule="evenodd" fill="#C3C3C3" d="M136.716,520.321c1.343,3.688,0.771,2.372,3.915,5.002
	c-0.486-1.458-0.571-2.144-1.286-3.315c-2.029-3.286-0.743-1.058-2.114-2.258L136.716,520.321z"/>
<path fill-rule="evenodd" clip-rule="evenodd" fill="#787878" d="M162.064,36.66c-0.314-4.572-1.001-1.886,0.914-2.972l-0.943-1.572
	l-2.801,0.543C160.007,33.859,159.578,34.374,162.064,36.66L162.064,36.66z"/>
<path fill-rule="evenodd" clip-rule="evenodd" fill="#C3C3C3" d="M141.088,25.514c2.286,0.2,2.058-0.514,1.657,1.4
	c2.915-1.658,2.486-0.714,3.572-4.258L141.088,25.514z"/>
<polygon fill-rule="evenodd" clip-rule="evenodd" fill="#1A1A1A" points="209.932,157.804 212.189,157.433 211.418,154.546 
	208.76,154.603 "/>
<path fill-rule="evenodd" clip-rule="evenodd" fill="#787878" d="M88.648,515.892h4.715l-0.486-2.4l-0.886-0.714
	c-1.343,2.486,0.371,0.257-1.886,2.114L88.648,515.892z"/>
<path fill-rule="evenodd" clip-rule="evenodd" fill="#3F3F3F" d="M127.514,336.848c2.515,0.771,2.458-0.285-0.114,1.544
	c3.772-2.287,1.829-0.258,4.029-4.145l-1.486,0.086C127.685,335.391,128.485,334.733,127.514,336.848L127.514,336.848z"/>
<path fill-rule="evenodd" clip-rule="evenodd" fill="#63AFB8" d="M151.119,535.926c3.915-0.515,2.657-0.286,3.457,1.086l1.029,0.086
	l-1.029-3.173l-1.828-0.143L151.119,535.926z"/>
<path fill-rule="evenodd" clip-rule="evenodd" fill="#787878" d="M231.251,210.56c-0.172-4.201,0.714-3.915-2.43-5.344
	c0.229,0.714,0.801,2.772,1.058,3.286C231.422,211.96,230.021,208.988,231.251,210.56L231.251,210.56z"/>
<path fill-rule="evenodd" clip-rule="evenodd" fill="#787878" d="M67.3,554.815c1.629-0.571,1,1.258,1.429-2.257l-2.029,0.171
	c-1.886-0.343-1.2-0.543-1.057,1.687L67.3,554.815z"/>
<path fill-rule="evenodd" clip-rule="evenodd" fill="#787878" d="M165.122,537.354l1.886,0.601l1.086-2.173
	c0.515-1.629,0.571-0.972-1.457-0.856L165.122,537.354z"/>
<path fill-rule="evenodd" clip-rule="evenodd" fill="#787878" d="M94.963,520.436c0.686-0.828,1.115-0.399,2.144-1.114l-0.171,2.572
	c0.628-0.943,0.714-0.114,0.886-1.915c0.257-2.372,0.229,0.058-0.286-1.8l-2.829,0.628L94.963,520.436z"/>
<path fill-rule="evenodd" clip-rule="evenodd" fill="#9C9C9D" d="M89.991,393.348l0.286-1.657c-1.2-1.744,2.372-0.772-2.115-1.658
	C88.905,395.862,88.133,391.661,89.991,393.348L89.991,393.348z"/>
<path fill-rule="evenodd" clip-rule="evenodd" fill="#9C9C9D" d="M160.292,23.171l1.572-0.172l1.086-0.343
	c-1.286-1.6-1.058-1.2-3.344-2.4L160.292,23.171z"/>
<path fill-rule="evenodd" clip-rule="evenodd" fill="#9C9C9D" d="M82.247,517.492c0.314-0.171,1.314-0.771,1.486-0.942
	c1.343-1.286,0.657-0.544,1.743-1.973l-1.086-0.257C81.904,516.121,83.247,511.776,82.247,517.492L82.247,517.492z"/>
<path fill-rule="evenodd" clip-rule="evenodd" fill="#3F3F3F" d="M73.587,360.683l1.829,2.486c0.886-0.943,0.257-1.029,1.486,0.314
	l-1.857-4.516C74.416,361.426,75.245,361.511,73.587,360.683L73.587,360.683z"/>
<path fill-rule="evenodd" clip-rule="evenodd" fill="#787878" d="M183.954,105.877c1.829-1.172,0.743,1.458,2.144-2.687
	l-2.429,0.114L183.954,105.877z"/>
<path fill-rule="evenodd" clip-rule="evenodd" fill="#3F3F3F" d="M73.473,374.972l-0.314,1.743c2.772,2.058,2.258,0.058,2.458,0
	C73.673,372.171,75.874,376.887,73.473,374.972L73.473,374.972z"/>
<polygon fill-rule="evenodd" clip-rule="evenodd" fill="#C3C3C3" points="73.159,376.715 73.473,374.972 69.93,374.857 
	70.215,375.743 "/>
<polygon fill-rule="evenodd" clip-rule="evenodd" fill="#787878" points="210.817,159.433 213.504,158.747 212.189,157.433 
	209.932,157.804 "/>
<path fill-rule="evenodd" clip-rule="evenodd" fill="#787878" d="M140.916,6.31c1.372,1.029-2.114,1.6,4.201,0.714l-3.144-1.4
	L140.916,6.31z"/>
<path fill-rule="evenodd" clip-rule="evenodd" fill="#9C9C9D" d="M83.561,467.337l-0.915-2.114l-2.058,0.086
	C81.932,467.366,78.703,466.395,83.561,467.337L83.561,467.337z"/>
<path fill-rule="evenodd" clip-rule="evenodd" fill="#9C9C9D" d="M226.479,230.193l1.657,0.286c2.4-1.314,1,2.486,2.144-2.372
	L226.479,230.193z"/>
<path fill-rule="evenodd" clip-rule="evenodd" fill="#787878" d="M66.9,451.676c1.543-0.972,1.314-0.628,2.257-2.457l-2.257,0.229
	V451.676z"/>
<polygon fill-rule="evenodd" clip-rule="evenodd" fill="#9C9C9D" points="60.356,529.953 63.214,527.609 59.756,528.724 "/>
<path fill-rule="evenodd" clip-rule="evenodd" fill="#787878" d="M212.675,164.291l0.2,0.829l2.458-0.286l-1.114-2.058
	C214.219,164.777,214.704,164.263,212.675,164.291L212.675,164.291z"/>
<polygon fill-rule="evenodd" clip-rule="evenodd" fill="#3F3F3F" points="59.613,116.537 61.67,113.793 59.927,113.936 "/>
<path fill-rule="evenodd" clip-rule="evenodd" fill="#9C9C9D" d="M183.326,101.819l1.914-1.829l-2.429-0.771
	C183.897,100.904,183.783,99.59,183.326,101.819L183.326,101.819z"/>
<path fill-rule="evenodd" clip-rule="evenodd" fill="#C3C3C3" d="M79.303,460.307l-0.086-0.972l-2.315-1.343
	C78.074,460.192,77.646,459.278,79.303,460.307L79.303,460.307z"/>
<path fill-rule="evenodd" clip-rule="evenodd" fill="#9C9C9D" d="M151.604,546.985h1c-0.399-0.829-0.914-2.372-1.4-3.486
	L151.604,546.985z"/>
<polygon fill-rule="evenodd" clip-rule="evenodd" fill="#9C9C9D" points="6.23,186.068 7.602,185.868 5.916,183.868 "/>
<path fill-rule="evenodd" clip-rule="evenodd" fill="#9C9C9D" d="M61.099,256.628l-1.943-2.858
	C60.271,257.4,59.728,255.628,61.099,256.628L61.099,256.628z"/>
<path fill-rule="evenodd" clip-rule="evenodd" fill="#C3C3C3" d="M160.835,26.857L161.406,25c-0.343,0.229-0.856,0.485-1.057,0.714
	c-0.086,0.085-0.114,0.743-0.172,0.6C160.092,26.143,160.606,26.686,160.835,26.857L160.835,26.857z"/>
<polygon fill-rule="evenodd" clip-rule="evenodd" fill="#787878" points="75.131,389.232 77.217,387.604 75.474,389.232 "/>
<path fill-rule="evenodd" clip-rule="evenodd" fill="#787878" d="M128.628,42.29l2.058-2.8L128.628,42.29z"/>
<path fill-rule="evenodd" clip-rule="evenodd" fill="#787878" d="M179.954,542.127l-3.373-2.286L179.954,542.127z"/>
<path fill-rule="evenodd" clip-rule="evenodd" fill="#787878" d="M7.944,167.635l2.344-2.286L7.944,167.635z"/>
</svg>
