<?xml version="1.0" encoding="utf-8"?>
<!-- Generator: Adobe Illustrator 15.0.0, SVG Export Plug-In . SVG Version: 6.00 Build 0)  -->
<!DOCTYPE svg PUBLIC "-//W3C//DTD SVG 1.1//EN" "http://www.w3.org/Graphics/SVG/1.1/DTD/svg11.dtd">
<svg version="1.1" id="Layer_1" xmlns="http://www.w3.org/2000/svg" xmlns:xlink="http://www.w3.org/1999/xlink" x="0px" y="0px"
	 width="20px" height="100px" viewBox="0 0 20 100" enable-background="new 0 0 20 100" xml:space="preserve">
<g transform="scale(0.01953125 0.01953125)">
	<path fill="#FFFFFF" d="M266.253,4249.704c0,54.401-36.35,101.201-102.451,101.201c-62.201,0-102.351-44.15-102.351-98.551
		c0-55.801,38.9-105.051,102.401-105.051S265.053,4193.903,266.253,4249.704z M61.451,5068.964v-665.658h204.803v665.658H61.451z"/>
	<path fill="#FFFFFF" d="M368.655,4630.809c0-79.101-2.6-145.202-5.2-202.253h184.002l9.1,88.201h3.9
		c25.9-41.5,89.401-102.401,195.703-102.401c129.602,0,226.953,86.801,226.953,273.554v381.055H778.26V4717.61
		c0-81.601-31.1-143.852-102.401-143.852c-54.401,0-81.601,44.05-95.901,80.351c-5.2,13-6.5,31.1-6.5,49.3v365.555H368.655V4630.809
		L368.655,4630.809z"/>
</g>
<path fill="#FFFFFF" d="M2.169,65.589c0,1.494,0.5,2.572,1.482,3.205c0.807,0.521,1.74,0.599,2.227,0.599
	c0.117,0,0.213-0.006,0.279-0.011c0,0-0.154,1.005,0.59,1.996H6.713c-1.289,0-5.493,0.269-5.493,3.728
	c0,3.517,3.861,3.694,4.636,3.694c0.062,0,0.097-0.002,0.097-0.002c0.008,0,0.063,0.002,0.158,0.002
	c0.497,0,1.782-0.062,2.975-0.643c1.549-0.75,2.334-2.06,2.334-3.886c0-1.765-1.196-2.813-2.069-3.582
	c-0.533-0.469-0.994-0.873-0.994-1.267c0-0.399,0.337-0.7,0.763-1.082c0.688-0.614,1.338-1.491,1.338-3.149
	c0-1.457-0.188-2.437-1.354-3.058c0.121-0.062,0.551-0.106,0.764-0.137c0.631-0.086,1.553-0.185,1.553-0.699V61.2h-4.6
	C6.774,61.202,2.169,61.372,2.169,65.589L2.169,65.589z M9.594,74.602c0.088,1.406-1.115,2.443-2.922,2.574
	c-1.835,0.135-3.345-0.691-3.433-2.096c-0.043-0.676,0.254-1.336,0.834-1.863c0.59-0.533,1.398-0.863,2.278-0.928
	c0.104-0.006,0.207-0.012,0.31-0.012C8.36,72.277,9.511,73.275,9.594,74.602z M8.393,64.626c0.451,1.588-0.229,3.246-1.315,3.554
	c-0.125,0.034-0.254,0.051-0.385,0.051c-0.994,0-1.979-1.006-2.345-2.393c-0.204-0.775-0.187-1.458,0.047-2.111
	c0.229-0.646,0.644-1.078,1.163-1.226c0.125-0.035,0.254-0.053,0.385-0.053C7.143,62.448,7.915,62.945,8.393,64.626z M16.182,68v-3
	h-2v3h-3v2h3v3h2v-3h3v-2H16.182z"/>
<path fill="#FFFFFF" d="M19.042,45.574c0.146,0.403-0.326,1.329-1.416,2.775c-0.151,0.201-0.354,0.47-0.612,0.803
	c-0.492,0.631-0.775,1.041-0.852,1.237c-0.107,0.257-0.063,0.511,0.133,0.765c0.107,0.132,0.362,0.39,0.766,0.773h0.01l0.037,0.038
	c0.888,0.823,1.488,1.521,1.804,2.086c0.019,0.031,0.039,0.071,0.062,0.118c0.022,0.048,0.045,0.13,0.066,0.251
	c0.021,0.12,0.02,0.228-0.005,0.32c-0.025,0.095-0.104,0.182-0.236,0.26s-0.317,0.118-0.557,0.118l-2.418,0.038
	c-0.15,0.03-0.327,0.017-0.528-0.048c-0.202-0.063-0.365-0.133-0.49-0.207l-0.188-0.113c-0.189-0.133-0.41-0.333-0.661-0.604
	c-0.252-0.271-0.469-0.516-0.646-0.732c-0.18-0.217-0.371-0.398-0.576-0.547c-0.203-0.149-0.383-0.196-0.533-0.146
	c-0.02,0.008-0.043,0.018-0.075,0.033s-0.085,0.061-0.16,0.137c-0.075,0.075-0.144,0.168-0.202,0.278
	c-0.062,0.11-0.113,0.272-0.162,0.491c-0.047,0.217-0.066,0.46-0.062,0.73c0,0.096-0.011,0.182-0.032,0.26s-0.046,0.138-0.07,0.176
	l-0.039,0.047c-0.112,0.121-0.278,0.189-0.5,0.208H9.808c-0.447,0.026-0.906-0.024-1.378-0.155c-0.472-0.13-0.887-0.296-1.242-0.501
	s-0.68-0.413-0.973-0.623S5.7,53.449,5.549,53.298L5.313,53.07c-0.063-0.063-0.15-0.157-0.26-0.282
	c-0.11-0.125-0.335-0.413-0.675-0.858c-0.34-0.447-0.674-0.924-1-1.427C3.05,50,2.665,49.334,2.221,48.511
	c-0.444-0.824-0.854-1.681-1.232-2.568c-0.038-0.102-0.057-0.187-0.057-0.255c0-0.069,0.009-0.121,0.028-0.151l0.038-0.057
	c0.095-0.12,0.274-0.18,0.539-0.18l2.587-0.019c0.076,0.012,0.148,0.033,0.217,0.062c0.07,0.028,0.119,0.054,0.151,0.08l0.047,0.028
	c0.101,0.068,0.176,0.17,0.227,0.302c0.126,0.314,0.271,0.64,0.435,0.978s0.292,0.593,0.387,0.77l0.151,0.273
	c0.183,0.378,0.359,0.706,0.529,0.982c0.17,0.276,0.322,0.493,0.458,0.646c0.136,0.154,0.266,0.276,0.392,0.364
	c0.126,0.087,0.232,0.132,0.321,0.132s0.173-0.017,0.255-0.047c0.013-0.008,0.028-0.021,0.047-0.048
	c0.019-0.025,0.057-0.094,0.113-0.207c0.056-0.113,0.099-0.263,0.127-0.444c0.028-0.181,0.058-0.437,0.09-0.765
	c0.032-0.328,0.032-0.72,0-1.181c-0.013-0.252-0.042-0.481-0.085-0.689c-0.044-0.207-0.089-0.352-0.132-0.434L7.797,45.97
	c-0.157-0.215-0.425-0.35-0.803-0.406c-0.082-0.012-0.066-0.088,0.047-0.227c0.107-0.12,0.227-0.215,0.359-0.283
	c0.334-0.163,1.086-0.238,2.257-0.227c0.516,0.007,0.94,0.047,1.274,0.122c0.127,0.031,0.231,0.073,0.316,0.128
	c0.085,0.055,0.148,0.13,0.193,0.227c0.043,0.097,0.076,0.198,0.099,0.302s0.033,0.248,0.033,0.43c0,0.182-0.003,0.356-0.011,0.52
	c-0.006,0.163-0.014,0.385-0.022,0.666c-0.009,0.28-0.015,0.54-0.015,0.779c0,0.068-0.004,0.2-0.01,0.396
	c-0.006,0.195-0.008,0.347-0.004,0.453s0.014,0.233,0.032,0.382s0.056,0.271,0.108,0.368c0.054,0.098,0.123,0.175,0.213,0.231
	c0.051,0.012,0.104,0.026,0.16,0.038c0.056,0.012,0.139-0.021,0.246-0.104c0.106-0.083,0.227-0.191,0.357-0.326
	c0.131-0.135,0.296-0.347,0.491-0.633c0.194-0.285,0.409-0.625,0.642-1.015c0.379-0.654,0.715-1.362,1.012-2.125
	c0.023-0.063,0.057-0.118,0.095-0.165c0.036-0.047,0.071-0.08,0.104-0.099l0.037-0.028l0.047-0.024c0,0,0.041-0.009,0.123-0.028
	s0.146-0.021,0.188-0.005l2.72-0.019c0.245-0.03,0.447-0.023,0.604,0.023c0.156,0.048,0.256,0.1,0.293,0.156L19.042,45.574z"/>
<path fill="#FFFFFF" d="M17.518,26.246c0.008,0.162,0.01,0.326,0.01,0.488c0,4.99-3.797,10.742-10.739,10.742
	c-2.133,0-4.115-0.625-5.787-1.697c0.297,0.035,0.596,0.053,0.9,0.053c1.77,0,3.397-0.604,4.688-1.615
	c-1.652-0.031-3.047-1.121-3.526-2.621c0.229,0.043,0.467,0.066,0.71,0.066c0.345,0,0.679-0.045,0.994-0.131
	C3.04,31.183,1.74,29.658,1.74,27.828c0-0.016,0-0.031,0-0.047c0.509,0.283,1.092,0.453,1.71,0.473
	c-1.014-0.678-1.68-1.832-1.68-3.143c0-0.691,0.186-1.34,0.512-1.898c1.86,2.285,4.644,3.787,7.78,3.945
	c-0.063-0.277-0.096-0.564-0.096-0.861c0-2.084,1.688-3.773,3.772-3.773c1.087,0,2.066,0.457,2.757,1.191
	c0.858-0.17,1.667-0.484,2.396-0.916c-0.281,0.881-0.881,1.621-1.658,2.088c0.764-0.092,1.488-0.293,2.168-0.594
	C18.895,25.051,18.255,25.715,17.518,26.246z"/>
<path fill="#FFFFFF" d="M17,1H3C1.9,1,1,1.9,1,3v14c0,1.102,0.9,2,2,2h7v-7H8V9.525h2v-2.05c0-2.164,1.212-3.684,3.766-3.684
	l1.803,0.002v2.605h-1.195C13.378,6.398,13,7.144,13,7.836v1.69h2.568L15,12h-2v7h4c1.1,0,2-0.898,2-2V3C19,1.9,18.1,1,17,1L17,1z"
	/>
</svg>
