<?xml version="1.0" encoding="utf-8"?>
<!-- Generator: Adobe Illustrator 15.0.0, SVG Export Plug-In  -->
<!DOCTYPE svg PUBLIC "-//W3C//DTD SVG 1.1//EN" "http://www.w3.org/Graphics/SVG/1.1/DTD/svg11.dtd" [
	<!ENTITY ns_flows "http://ns.adobe.com/Flows/1.0/">
]>
<svg version="1.1"
	 xmlns="http://www.w3.org/2000/svg" xmlns:xlink="http://www.w3.org/1999/xlink" xmlns:a="http://ns.adobe.com/AdobeSVGViewerExtensions/3.0/"
	 x="0px" y="0px" width="214px" height="148px" viewBox="0 0 214 148" enable-background="new 0 0 214 148" xml:space="preserve">
<defs>
</defs>
<path fill-rule="evenodd" clip-rule="evenodd" fill="#FBCA0D" d="M12.203,128.805c10.545,10.002,54.411,15.375,69.215,15.347
	c43.581-0.144,90.448-16.633,116.883-52.527c6.372-8.631,12.06-18.176,13.603-29.008c1.344-9.459-1.686-24.806-10.688-30.007
	l-13.718,20.919c-11.488,16.262-36.723,39.839-53.497,50.384c-15.175,9.546-33.808,15.89-51.583,17.947
	c-37.208,4.345-46.41-2.972-64.328-3.058L12.203,128.805z"/>
<path fill-rule="evenodd" clip-rule="evenodd" fill="#FBCA0D" d="M16.461,115.229c9.773,5.602,49.84,6.059,61.928,4.801
	c18.575-1.914,36.779-7.259,52.783-16.946c13.46-8.116,27.063-20.319,38.122-31.437l28.835-41.238
	c-11.803-11.518-29.292,11.831-38.723,22.262c-20.69,22.863-53.183,45.555-84.019,53.128
	C52.497,111.429,27.349,112.515,16.461,115.229L16.461,115.229z"/>
<path fill-rule="evenodd" clip-rule="evenodd" fill="#2B2C2B" d="M2.172,121.774c2.286-2.458,7.859-5.316,10.889-1.943
	c1.914,2.143-2.602,7.658-4.145,8.859C4.857,127.719,3.029,125.975,2.172,121.774L2.172,121.774z M11.402,130.719l5.887-10.03
	c17.918,0.114,27.148,7.43,64.357,3.086c17.775-2.086,36.408-8.431,51.583-17.976c16.746-10.517,42.009-34.123,53.497-50.355
	l13.717-20.919c8.974,5.201,12.031,20.547,10.688,30.007c-1.543,10.831-7.23,20.377-13.603,29.007
	c-26.435,35.866-73.331,52.385-116.912,52.499C65.843,146.095,21.977,140.722,11.402,130.719L11.402,130.719z M15.689,117.116
	c10.859-2.716,36.008-3.802,58.898-9.432c30.835-7.573,63.328-30.265,84.019-53.099c9.459-10.431,26.948-33.78,38.751-22.263
	l-28.835,41.239c-11.06,11.116-24.662,23.291-38.122,31.436c-16.004,9.66-34.236,15.004-52.783,16.947
	C65.528,123.203,25.434,122.746,15.689,117.116L15.689,117.116z M201.93,0.345c-1.2,5.601-5.201,15.632-4.258,20.977l6.315-19.434
	l6.259,1.314c-7.03,16.262-5.259,4.229-5.83,30.75l-10.545-6.944l3-5.229c-3.229,1.6-2.257,2.229-5.486,4.086
	c-3.229,1.801-3.572,0.915-7.03,2.001c-3.629,1.172-8.116,4.802-10.803,7.459c-6.172,6.116-12.002,13.175-17.89,19.319
	c-26.319,27.549-56.44,47.211-94.62,53.756C22.805,114.915,39.408,109.485,0,121.803c3.687,25.492,152.748,57.414,207.646-40.382
	c6.544-11.66,8.83-28.063,1.629-39.895c-7.487-12.318-0.457-28.064,3.973-40.068C209.589,0.229,205.73-0.456,201.93,0.345
	L201.93,0.345z"/>
<path fill-rule="evenodd" clip-rule="evenodd" fill="#4F4D43" d="M2.973,119.888c0.828,4.173,2.686,5.916,6.715,6.888
	c1.543-1.172,6.088-6.688,4.145-8.859C10.831,114.544,5.258,117.401,2.973,119.888L2.973,119.888z"/>
<line fill="none" stroke="#2B2C2B" stroke-width="0.4858" stroke-miterlimit="10" x1="196.357" y1="22.35" x2="197.9" y2="19.263"/>
<path fill-rule="evenodd" clip-rule="evenodd" fill="#323130" d="M203.987,1.888l0.601,0.371c0.914,0.543,4.515,1.743,5.486,1.314
	c0.029,2.086-3.258,5.23-3.743,7.688c-0.429,2.001-1.486,7.574-1.4,9.432c0.171,4.658-1.857,5.059-0.771,10.517
	c0,0.114,0.257,1.715,0.257,2.229c-0.743,0-0.257-0.058-0.743-0.258c-0.399-0.172-0.828-0.657-1.143-0.771
	c-0.343-0.114-0.029-0.114-0.543-0.314c-0.4-0.143-1.915-1.029-2.515-1.314c-0.2-0.086-0.058-0.086-0.344-0.258
	c-0.314-0.171-0.199-0.199-0.514-0.371c-2.344-0.571-2.029-2.286-3.401-2.771c-0.2-0.058-0.828-1.001-0.942-1.144
	c-0.029-0.171,2.143-2.144,2.515-2.772c1.485-1.285,1.657-7.088,2.343-8.744c0.058-0.601,1.515-2.201,2.001-4.23
	c0.485-2.058,2.314-5.916,2.771-7.688c0.172-0.314,0.2-0.143,0.314-0.457C204.244,2.087,204.359,2.116,203.987,1.888L203.987,1.888z
	"/>
</svg>
