<?xml version="1.0" encoding="utf-8"?>
<!-- Generator: Adobe Illustrator 15.0.0, SVG Export Plug-In . SVG Version: 6.00 Build 0)  -->
<!DOCTYPE svg PUBLIC "-//W3C//DTD SVG 1.1//EN" "http://www.w3.org/Graphics/SVG/1.1/DTD/svg11.dtd">
<svg version="1.1" id="Layer_1" xmlns="http://www.w3.org/2000/svg" xmlns:xlink="http://www.w3.org/1999/xlink" x="0px" y="0px"
	 width="1024px" height="1024px" viewBox="0 0 1024 1024" enable-background="new 0 0 1024 1024" xml:space="preserve">
<path fill="#4579CE" d="M512,96C282.24,96,96,282.24,96,512s186.24,416,416,416s416-186.24,416-416S741.76,96,512,96z
	 M577.248,665.056c-31.393,47.137-63.328,83.456-117.056,83.456c-36.673-5.983-51.744-32.256-43.809-59.04l69.12-228.928
	c1.696-5.6-1.12-11.584-6.24-13.408c-5.088-1.792-15.071,4.832-23.712,14.305l-41.792,50.271c-1.12-8.448-0.128-22.399-0.128-28.032
	c31.393-47.136,82.977-84.319,117.952-84.319c33.248,3.392,48.992,29.983,43.2,59.2l-69.601,230.048
	c-0.928,5.184,1.824,10.464,6.528,12.128c5.12,1.792,15.872-4.832,24.544-14.305l41.76-50.239
	C579.136,644.64,577.248,659.424,577.248,665.056z M567.936,366.048c-26.432,0-47.871-19.264-47.871-47.616
	s21.439-47.584,47.871-47.584c26.433,0,47.872,19.264,47.872,47.584C615.808,346.816,594.368,366.048,567.936,366.048z"/>
</svg>
