<?xml version="1.0" encoding="utf-8"?>
<!-- Generator: Adobe Illustrator 15.0.0, SVG Export Plug-In  -->
<!DOCTYPE svg PUBLIC "-//W3C//DTD SVG 1.1//EN" "http://www.w3.org/Graphics/SVG/1.1/DTD/svg11.dtd" [
	<!ENTITY ns_flows "http://ns.adobe.com/Flows/1.0/">
]>
<svg version="1.1"
	 xmlns="http://www.w3.org/2000/svg" xmlns:xlink="http://www.w3.org/1999/xlink" xmlns:a="http://ns.adobe.com/AdobeSVGViewerExtensions/3.0/"
	 x="0px" y="0px" width="340px" height="244px" viewBox="0 0 340 244" enable-background="new 0 0 340 244" xml:space="preserve">
<defs>
</defs>
<path fill-rule="evenodd" clip-rule="evenodd" fill="#F5853E" d="M208.235,140.436c-0.258-0.914-0.743-2.2,0.657-2.314
	c1.485-0.144,1.343,0.6,1.286,1.8C209.321,140.408,209.636,140.608,208.235,140.436L208.235,140.436z M187.373,122.603v7.259
	c0.258,0.629,0.601,0.343,0.372,1.601c-0.144,0.829-0.543,0.771-0.229,1.857c0.199,0.687,0.628,0.915,0.457,1.801
	c-0.144,0.657-0.657,0.743-0.515,1.686c0.114,0.887,0.515,0.314,0.314,1.943l-0.4,6.859c0.086,4.687,0.372,2.372,0.515,4.344
	c0.143,1.887-0.485,2.172-0.086,4.401c0.543,3.001,0.258,2.372-0.285,3.973c-0.486,1.429,0.028,3.172-0.258,4.572l0.715,1.2
	c0.657,2.229-0.543,3.172-0.543,4.973c-0.028,1.229,0.457,2,0.629,3.172c0.657,4.916-0.629,7.459-0.687,10.889
	c-0.057,2.601-1,2.687-5.115,2.4c-0.4,0.515-0.028,0.229-0.743,0.457l-5.058,0.029c-5.431-0.258-11.917,0-17.433-0.058
	c-7.716-0.086-15.518-0.143-23.234-0.028c-7.659,0.143-15.575-0.286-23.234-0.028c-3.629,0.114-7.916,0.114-11.603,0.085
	c-3.286-0.028-8.544,0.801-8.859-2.629v-46.726c0.086-7.373,0.229-15.89-0.229-23.034l0.2-11.317c0-0.972-0.286-1.857-0.343-2.515
	c-0.085-0.829,0.314-1.172,0.343-2.315c0.028-1.257-0.286-1.429-0.172-2.543c0.6-4.573-0.514-1.743,1.086-3.544
	c0.257-0.286,0.286-0.486,0.458-0.771c7.773-0.743,15.689,0.086,23.491-0.286c3.972-0.171,7.831,0.286,11.86,0.2
	c3.858-0.085,7.773-0.114,11.603-0.229c2.829-0.085,7.23,0.458,11.86,0.229c1.143-0.057,1.686-0.314,2.886-0.257
	c1.229,0.085,1.743,0.028,2.915,0c1.857-0.086,3.886,0.257,5.801,0.257c3.886-0.028,8.059-0.343,11.86-0.257
	c2.715,0.085,9.173,0,11.288,0.514c0.657,1.486,0.571,2.086,0.571,4.03c-0.028,4.944,1.515,1.629,0.314,7.688
	c-0.629,3.258-0.257,9.202-0.086,12.375c0.058,1.515-0.314,2.715,0.114,4.086C188.459,120.603,188.859,122.088,187.373,122.603
	L187.373,122.603z M202.806,63.703c-2.115,0.057-5.401-0.086-7.517,0c-2.657,0.486-7.173-0.057-10.116,0.114l-71.387,0.229
	c-3.458,0-6.573,0.257-9.917,0.257c-2.886,0-10.488-0.486-12.631-0.314c-1.429,0.114-0.857,0.429-1.972,0.628
	c-2.258,0.429-1.857-1.029-4.315-0.143c-3.029,1.057-8.43-1.458-11.66-0.229c-1.886,0.743-2.458,0-4.229,0.229
	c-3.943,0.429-8.373-0.086-12.403-0.086c-0.8,0-1.514,0.057-2.2-0.085c-2.172-0.515-4.744,0.057-6.973,0.143
	c-3.286,0.114-6.63,0.2-10.173,0.2l-0.715,0.943l-1.343-0.714c-0.029,1.772-0.286,5.687,0.143,7.087
	c0.486,1.601,0.6,0.515,0.572,2.972c-0.029,1.2,0.085,2.486,0.028,3.629c-0.028,1.486-0.771,1.772-0.771,6.316
	c-0.028,3.944-0.543,5.602,1.8,5.973l0.286-1.943c0.257,0.857,0.343,1.686-0.257,2.486c-1.686,2.143-1.029,2.772-1.086,5.801
	c-0.057,1.915-0.4,2.944-0.458,4.858c-0.028,1.086-0.257,1.372-0.314,2.429c-0.086,2.144,0.085,1.143,0.972,1.915
	c-0.229,0.572,0.143-0.085-0.486,0.543c-1.143,1.086,0.514,1.601,0.314,4.287c-0.085,1.029-0.343,0.915-0.171,1.915
	c0.114,0.743,0.429,0.857,0.314,1.829c-0.143,1.172-0.057,3.086-0.486,4.087c-0.686,1.572-0.4,2.601-0.4,4.515
	c0,2.486,0.171,2.144,0.514,4.115c0.372,1.915,0.486,6.83-0.085,8.631c-0.2,0.715-0.543,1.058-0.486,2.029
	c0.028,0.515-0.057-0.086,0.085,0.515c0.143,0.628,0.8,0.942,0.4,0.742c-0.543,0.801-0.486,1.344-0.458,2.544
	c0.458,0.171,0.771,0.314,1.2,0.543c-0.829,2.829-0.4,1.372-0.457,4.344c0,1.2,0.143,4.516-0.114,5.43
	c-0.458,1.743-0.429,2.63-0.143,4.802c0.086,0.686,0.229,4.715,0.171,5.115c-0.4,2.629,0.629,8.316-0.171,10.174
	c-0.771,1.857-0.543,8.23-0.457,10.746c1.515,0.742,0.686,2,0.686,3.915c-0.028,1.343,0.657,2.515,0.086,3.572
	c-0.515,0.943-0.458,0-0.8,0.771c-0.028,1.486-0.171,3.63,0.229,4.772c0.057,0.028,0.172,0,0.2,0.086l1.229,0.457
	c0.028,0.028,0.114,0.058,0.143,0.086c0.057,0.028,0.286,0.143,0.372,0.172c-0.857,0.257-1.714,0.199-2.143,1.2
	c1.229,1.057,1.171,0.028,1.886,1.028l-1.857,0.028c-0.114,2.544,0.057,2.258,0.6,4.201c0.286,0.943,0.057,3.287,0.057,4.43
	c0,2.058,0.4,2.372-0.457,4.001c-0.372,0.715-0.286,1.486-0.286,2.286c0.028,0.857,0.057,1.743,0.057,2.601
	c1.171,0.629,1.029,1.029,1.372,2.372c0.4,1.743-0.171,0.943-0.486,2.915l-0.143,6.602c0.143,0.543,0.114,0.4,0.229,0.629
	c-0.972,0.601-1.058,0.743-0.915,2.286c0.2,2.144-0.629,9.631,1.543,10.003c1.658,0.286,10.745-0.114,13.26,0.057
	c13.203,0.857,8.945-0.686,10.917-0.714c1.4,0-0.028,0.429,1.2,0.657c2,0.371,10.431-0.086,13.889,0.543
	c1.915,0.371,5.001,0.657,6.487-0.086c1.601-0.8,4.287-0.257,6.487-0.257c2.286,0,5.029-0.144,7.259,0.028
	c1.257,0.114,1.686,0.543,2.886,0.657c1.314,0.143,2.257,0.114,3.401-0.229c2.829-0.829,10.545-0.486,14.031-0.371l7.03-0.229
	c3.201,0,11.803,0.372,14.146,0.086c2-0.229,5.03-0.057,7.145-0.057l25.434-0.029c1.457-0.285,1.457-1.515,2.172,0.058
	c5.973,0.229,12.774-0.486,18.575,0.057c0.743,0.058,1.115,0.344,1.743,0.4c1.086,0.114,1.2-0.2,2.029-0.371
	c2.715-0.543,26.978,0.057,32.321-0.144l9.174,0.029c1.515,0.028,3.086,0.028,4.601,0c4.487-0.086,2.515,0.028,3.887-1.029
	c-0.485-2.515-0.657-0.143-0.771-4.915c-0.058-1.887,0.086-3.916,0.086-5.802c0-7.487-0.172-15.146,0.2-22.52
	c0.028-1.086,0.343-1.572,0.285-2.4c-0.086-1.144-0.457-0.801-0.515-2.43c-0.057-1.915-0.057-3.887-0.028-5.802
	c0.2-15.117,0.028-30.379-0.028-45.496c-0.028-15.147,0-30.322,0-45.498c0-3.687-0.715-10.316,0.571-13.518
	c0.571-1.372,0.229-6.316,0.229-8.002c0-2.286-0.629-3.201-0.457-5.058c0.229-2.429,0.886-2.315,0-4.973
	c-0.543-1.658-0.314-3.916-0.314-5.716c0-0.943-0.086-2,0.172-2.886c0.171-0.629,0.629-1.286-0.4-1.486
	c-1.429-0.857-28.635,0.257-33.407-0.257c-0.715-0.085-1.4-0.2-2.4-0.2C206.406,63.817,204.491,64.017,202.806,63.703
	L202.806,63.703z"/>
<path fill-rule="evenodd" clip-rule="evenodd" fill="#F1BC6B" d="M62.603,4.403C62.46,5.489,62.317,5.46,61.66,6.117
	c-0.486,0.486-0.657,0.772-1.058,1.115c-0.857,0.743-1.943,1.172-2.229,2.286c-0.286,1.115-0.829,1.029-1.6,1.915l-7.316,7.173
	c-1.515,1.143-1.143,1.343-1.572,1.829l-0.515,0.429c-1.686,1.286-0.771,1.372-1.829,1.772c-1.343-0.829-0.286-0.343-0.229-0.429
	h-0.286l-0.2,0.229c-0.543,1.314-2.029,2.315-3,3.315c-0.543,0.601-0.972,1.086-1.486,1.658c-0.829,0.886-0.485,0.6-1.514,1.372
	c-0.515,0.429-0.4,0.343-0.829,0.915c-1.171,1.572-0.714-0.057-2.314,1.972c-0.972,1.257-1.744,2.258-2.658,2.972
	c-0.372,1.172-1.886,2.429-2.944,3.029c-0.743,0.429-0.686,0.171-1.257,1.743c-0.514,1.4-0.714,0.943-1.114,1.658
	c0.257,0.571,0.686,0.743,0.743,0.829c-1.257,0.714-0.857-0.085-1.8-0.143c-1.2-0.114-0.629,0.4-1.915,1.058
	c-0.143,0.572-1.4,1.486-1.915,1.915c-1.572,1.314-1.686,1.915-2.4,1.657c-0.457,1.229-0.915,0.915-1.686,1.715
	c-0.515,0.514-1.029,1.429-1.886,1.543l0.171-0.085c-0.171,1.915-3.515,4.287-4.687,5.744c-0.629,0.743-0.314,0.343-1.029,0.915
	c-1.029,0.829-0.572,1.429-2.429,1.658c-0.429,0.743-0.4,0.514-0.915,1.029c-0.314,0.286-0.257,0.085-0.4,0.543
	c-0.314,0.915-0.114,0.486,0.057,0.686c1.086,0.829,13.546,0.343,15.918,0.257c5.258-0.2,10.659,0.6,16.061,0.114l15.86,0.143
	c2.744,0,5.516-0.257,7.973-0.257c2.801,0,5.144,0.286,8.002,0.257c10.831,0,21.49-0.257,32.436-0.171
	c10.86,0.057,21.776,0.085,32.665,0.028c2.715,0,4.629-0.229,7.487-0.028c3.515,0.257,20.233,0.028,24.691,0.028
	c10.889,0.029,21.776-0.171,32.664,0c2.858,0.057,14.089-0.514,15.489,0.171c0.629,0.314,0.486,0.572,1.4,0.486
	c1.543-0.172-1-0.572,5.602-0.658c7.373-0.085,36.751,0.429,40.494-0.372l7.83,0.314c-0.143-1.2,0.2-0.114-0.514-0.886l-4.772-4.658
	c-0.314-0.286-0.086-0.029-0.372-0.343l-1.743-1.886c-0.686-0.943,0.314-0.286-1.457-1.257c-1.4-0.771-4.201-4.572-6.173-6.373
	c-0.058-0.028-0.372-0.314-0.4-0.314l-0.886-1.058c-0.257-0.286-1-0.771-1.372-1.029c-0.714-0.515-0.771-0.543-1.2-1.2
	c-0.686-1-0.743-0.572-1.114-1.658c-0.028-0.686-0.486-0.886-1.058-1.314c-0.399-0.314-1.058-0.915-1.371-1.258
	c-0.601-0.6-1.801-2.172-2.43-2.515c-1.143-0.086-0.485,0.143-0.857-0.257c-0.828-0.114-0.485,0.057-0.886-0.514
	c-0.6-0.857-0.457-1.029-1.886-2.287c-1.943-1.686-0.515,0-1.715-1.6c-0.743-1.029-0.857,0.085-0.829-1.372L241.1,28.38
	c-0.771-0.343-1.743-1.286-2.344-1.943c-0.914-0.972-1-0.771-1.601-1.857l-0.2-0.4c-0.714-0.8-0.085,0.057-0.428-0.915
	c-0.915-0.314-5.573-5.601-6.03-5.973l-3.029-3.029c-1.258-1.086-3.029-2.4-4.001-3.801c-1.801-2.601-1.543-1.629-3.772-3.944
	c-0.657-0.715-0.743-0.915-1.571-1.543c-0.372-0.286-0.486-0.4-0.801-0.686c-2.686-2.372-2.257-0.972-9.431-1.686
	c-2-0.2-3.343,0.314-5.601,0.029c-1.887-0.229-3.858,0.286-6.002,0.257c-2.086,0-4.2-0.029-6.287-0.029
	c-2.257,0-3.943,0.257-6.058,0.257c-4.201,0-7.888-0.229-12.117-0.286c-1.943-0.028-3.744,0.286-6.03,0.257
	c-10.345-0.114-20.576,0.2-30.978,0c-1.743-0.057-3.344-0.829-5.401-0.314c-2.515,0.658-40.066,0.343-43.467,0.343H67.318
	C63.518,3.06,64.889,3.088,62.603,4.403L62.603,4.403z"/>
<path fill-rule="evenodd" clip-rule="evenodd" fill="#F5EA5F" d="M96.61,94.453c0,2,0.229,3.229,0.229,4.916
	c0,1.858-0.029,3.601,0.028,5.458c0.057,1.543-0.229,3.487-0.229,5.202c-0.029,1.943,0.085,3.658,0.171,5.573
	c0.2,3.572-0.086,7.516-0.143,11.117c-0.057,3.716,0.143,7.431,0.172,11.146c0,1.943-0.257,3.001-0.229,5.087
	c0,1.829,0,3.687,0,5.545c-0.028,2.143,0.257,3.372,0.229,5.344l-0.143,11.117c0.086,2-0.029,3.715,0,5.572
	c0.057,3.572-0.029,7.002,0.028,10.546c1.801,0.515,6.373-0.172,8.202,0.343c1.543,0.429-0.2,0.601,2.058,0.715l8.402-0.172
	c1.372-0.429-0.2-0.6,2-0.714c1.114-0.058,4.543-0.144,5.515,0.085c1.886,0.429-1.257,0.771,4.916,0.771
	c7.773-0.028-0.372-1.057,10.631-0.886c0.915,0.029,1.8-0.028,2.687,0.029c3.515,0.171-1.829,0.856,7.716,0.828
	c7.745-0.028,1.458-1.172,10.659-0.857c2.401,0.086,3.172,1.572,9.974,0.429c1.458-0.229,4.001-0.485,5.516-0.485
	c0.943,0,1.943,0,2.915,0.028c2.658,0.058,2.2,0.4,2.4,1c1.058,0.486,2.743,0,3.801-0.285c-0.2-2.315-0.057-5.63,0.4-7.859
	c0.429-1.915-0.172-6.459,0.028-8.002c-0.457-0.4-0.257,0.2-0.6-0.886l-0.086-3.344c0-3.63-0.144-26.35,0.2-27.464
	c0.514-1.772-0.2-1.629-0.229-3.744c-0.029-3.4,0.313-35.723-0.115-36.237c-1.571-0.829-8.573-0.057-10.916-0.114
	c-3.629-0.029-7.288-0.229-11.117-0.2c-3.744,0.029-7.002,0.429-10.974,0.086c-2.458-0.229-8.602-0.286-10.917,0.028
	c-3.172,0.458-7.544-0.2-11.002-0.114c-1.915,0.029-3.687,0-5.573,0c-1.829-0.028-3.229,0.314-5.315,0.229
	C115.157,94.196,97.782,93.967,96.61,94.453L96.61,94.453z"/>
<path fill-rule="evenodd" clip-rule="evenodd" fill="#111316" d="M306.143,206.167c-0.601,1.486,0.229,3.944,0.028,5.63
	l-0.144,10.774c0.229,3.372,3.287,2.915,5.173,2.915c1.058-0.029,2.144,0.057,3.172,0.028c1.515,0,1.601-0.343,2.687-0.515
	c1.058-0.143,5.03-0.057,6.173,0.058c15.232,1.371,13.203-2.915,13.231,8.859c0,2.571,0.601,7.259-0.543,8.974
	c-2.915,0.485-7.516,0.086-10.659,0.2c-3.572,0.143-7.516-0.058-11.146-0.058c-7.345,0.028-14.66-0.028-22.005,0
	c-1.886,0.028-3.486-0.143-5.087-0.2c-1.686-0.057-3.801,0.144-5.572,0.144c-4.544,0-32.207,0.343-32.722-0.115
	c-1.143-1.485-0.343-10.603-0.343-13.288c0-3.487-0.829-10.975-0.172-13.575l-0.085-22.72c-0.058-1.344,0.171-2.63,0.028-3.915
	c-0.172-1.744-2.286-5.116,3.058-4.688c2.029,0.172,3.258-0.028,5.087-0.143c3.4-0.2,7.201,0.028,10.659,0.028
	c1.629,0,3.144,0.372,4.63,0.457c1.372,0.058,2.915-1.086,4.087-0.199c1.229,0.914,0.457,2.286,0.371,3.829
	c-0.143,2.572-0.657,14.089,0.229,15.146c1.258,1.543,7.087,0.601,9.459,0.857c2.144,0.229,7.916,0.771,10.26,0.429
	c2.458-0.343,1.571-0.829,4.858-0.371c2.314,0.343,2.601-0.286,4.943,0.543L306.143,206.167z M245.558,92.596l-0.114,11.375
	c-0.086,3.886,0.028,7.745,0.114,11.631c0.114,3.601-0.114,7.687-0.114,11.375c0,3.715,0.285,7.973,0.057,11.603
	c-0.257,4.144,0.286,13.061,0,17.176c-0.143,1.829-0.086,3.943-0.057,5.801c0.028,3.744,0,7.688,0.143,11.375
	c0.143,3.772-0.286,7.744-0.086,11.631c0.2,3.858,0,7.517-0.028,11.374c-0.058,3.802,0.371,7.688,0.172,11.375
	c-0.172,3.715,0,7.658-0.086,11.374c-0.058,2.058,0.171,3.915,0.143,5.801l-0.229,11.375c-0.114,7.63,2.915,7.573-9.259,7.287
	c-2.286-0.057-2.858-0.657-5.173,0.286c-0.457,0.2-1.029-0.2-2.058-0.286c-3.829-0.257-20.776,0-25.92,0
	c-1.943,0-3.887,0.058-5.802,0.058c-2.172,0-3.114,0.514-5.344,0.457c-1.686-0.058-2.771-0.486-4.829-0.515l-28.635,0.086
	c-4.001,0.314-7.344-0.086-11.288-0.086c-3.772,0-7.402,0.2-11.117,0.286c-3.629,0.086-7.773-0.314-11.631-0.258
	c-1.714,0.029-3.915-0.114-5.573,0.058c-3.429,0.343-12.545-0.743-16.032,0.429c-1.572,0.543-4.03,0.2-5.573-0.286
	c-1.543-0.457-3.744-0.229-5.487-0.229c-1.915,0-3.887,0.028-5.801,0c-2.058,0-3.715,0.4-5.573,0.372l-16.689-0.629
	c-1.972,0.057-3.858,0.457-5.544,0.457c-3.83,0-7.773-0.2-11.631-0.229c-3.343-0.058-8.43,0.4-11.459-0.172
	c-0.372-1.686-0.229-3.058-0.8-4.458c-0.571-1.429-0.171-3.486-0.114-5.059c0.086-5.029,0.343-2.743,0.458-4.801
	c0.286-7.03-0.886-13.804,0-18.033c0.143-0.715,0.114-1.687,0.114-2.572c0.028-2.114-0.029-3.372-0.314-5.372l-0.257-10.346
	c0.114-1.687,0.543-2.772,0.572-4.83c0.057-7.23-1.601-0.515-0.143-14.604c0.372-3.601-0.429-7.259-0.086-10.488
	c0.143-1.429-0.257-6.287,0.086-10.231c0.143-1.714,0.171-3.343,0.143-5.115c0-0.886-0.086-1.571-0.114-2.429
	c-0.029-0.4,0.028-0.829-0.029-1.229c-0.086-1.229-0.086-0.629-0.314-1.2c-1.057-2.887,0.572-6.63,0.429-9.631
	c-0.171-3.572-0.257-7.316-0.257-10.888c-0.028-1.972,0.257-3.229,0.229-5.087c0-1.772,0-3.572,0-5.344
	c0.028-2-0.486-2.772-0.486-4.83l0.543-10.631c-0.029-1.029-0.257-1.601-0.2-2.687c0.286-4.573-0.343-3.458-0.314-7.745
	c0-0.886,0.057-1.772,0.057-2.658c0.029-2.115-0.257-2.201,0.6-2.658c-0.028-2.343,0.2-5.916-0.372-8.087
	c-0.286-1.172-0.314-7.002,0.229-8.116c0.714-0.886,8.145-0.429,9.63-0.4l30.493-0.085c3.458-0.029,6.544,0.343,9.917,0.229
	c3.4-0.114,6.516-0.143,9.917-0.2c2.115-0.028,2.886,0.314,4.572,0.372c4.744,0.114,5.315,0.029,9.716-0.343
	c1.601-0.143,3.429,0,5.058-0.029c20.004-0.171,41.009,0.286,60.985,0.029l19.776,0.057c0.714,0.229,0.057-0.114,0.514,0.257
	c2.115-0.086,5.401,0.057,7.517,0c0.057-0.057,0.143-0.172,0.171-0.115l0.801-0.257c1.314-0.172,8.001,0.229,9.43,0.257
	c2.058,0.029,3.344-0.2,5.087-0.286c4.059-0.143,12.061,0.171,16.232,0.257c1.886,0.057,9.288-0.686,10.316,0.086
	c1,0.829,0.429,1.572,0.314,2.829c-0.257,3.172,0.372,8.145,0.314,11.146C245.386,81.65,245.129,88.823,245.558,92.596
	L245.558,92.596z M12.135,54.386l4.001-4.229c0.743-0.714,0.143-0.257,0.886-0.6l-0.171,0.085c0.143-1-0.171-0.343,0.543-1.114
	c0.629-0.657,1.629-1.257,2.229-2.172l0.8,0.028c0.229-0.915,2.029-2.286,2.772-3c0.515-0.486,0.915-0.829,1.4-1.458
	c0.457-0.6,0.915-1.315,1.829-1.4c0.543-0.6,1.2-1.543,1.743-1.915c0.972-1.886,4.801-4.344,6.916-7.259l4.086-3.944
	c1.458-1.486,4.458-4.086,4.801-4.858l0.857-0.114l0.2-0.229l0.143-0.886c1.372-0.686,5.43-6.059,6.772-6.23
	c0.172-0.372,1.258-1.314,1.772-1.886c0.486-0.514,1.4-1.629,1.972-1.743l3.058-3.858c1.458-1.4,1.458-0.972,2.772-2.315
	l1.086-0.886c2.286-1.315,0.915-1.343,4.715-1.286h18.633c3.4,0,40.952,0.314,43.467-0.343c2.057-0.514,3.658,0.257,5.401,0.314
	c10.402,0.2,20.633-0.114,30.978,0c2.287,0.029,4.087-0.286,6.03-0.257c4.229,0.058,7.916,0.286,12.117,0.286
	c2.114,0,3.801-0.257,6.058-0.257c2.087,0,4.201,0.029,6.287,0.029c2.144,0.028,4.115-0.486,6.002-0.257
	c2.258,0.286,3.601-0.229,5.601-0.029c7.174,0.714,6.745-0.686,9.431,1.686c0.314,0.286,0.429,0.4,0.801,0.686
	c0.828,0.629,0.914,0.829,1.571,1.543c2.229,2.314,1.972,1.343,3.772,3.944c0.972,1.4,2.743,2.715,4.001,3.801l3.029,3.029
	c0.457,0.372,5.115,5.659,6.03,5.973c1.229,0.4,2.229,1.687,3.028,2.601c0.314,0.371,0.115,0.143,0.372,0.4l4.572,4.772
	c0.8,0.915,1.857,1.572,2.486,2.144c0.028,0.028,0.114,0.171,0.114,0.143c0.028-0.057,0.086,0.085,0.114,0.143
	c0.743,0.314,0.114-0.085,0.743,0.515l8.459,8.888c0.343,0.743,1.943,2.115,2.715,2.858c0.857,0.857,2.029,2.943,3.43,3.83
	c0.028,0.028,0.429,0.257,0.457,0.286l4.515,4.43c1.086,0.314,0.601,0.029,1.172,0.771l1.658,1.744
	c0.114,0.114,0.343,0.343,0.457,0.486c0.028,0.028,0.086,0.114,0.114,0.143c0.028,0.029,0.086,0.171,0.114,0.143
	c0-0.057,0.057,0.085,0.114,0.143c0.601,0.057,1,0.485,1.372,0.972c0.828,1.057,1.457,1.972,0.343,2.8
	c-0.543,0.372-1.058,0.372-1.801,0.343c-1.601-0.086-3.058-0.143-4.658-0.172c-2.457,0-0.942-1.114-3.543-0.714
	c-0.829,0.114-1.144,0.4-1.829,0.486h-15.89c-7.659-0.143-15.946,0.171-23.233,0c-1.629-0.028-2.857,0.486-4.372,0.4
	c-1.687-0.114-1.029-1.172-3.544-0.857c-1.543,0.2-2.4,0.372-4.173,0.457c-2.686,0.114-6.772,0.114-9.431-0.085
	c-1.972-0.171-1.543-0.629-3.657-0.029c-1.286,0.343-20.005,0.114-22.72,0.171c-8.659,0.2-20.062-0.343-27.834,0
	c-2.029,0.086-2.658-0.171-4.086-0.4c-1.915-0.343-2.772,0.171-4.201,0.343c-2.372,0.286-6.744,0.029-9.374,0.029l-8.973-0.286
	c-5.687,0.485-12.088,0.2-18.119,0.257c-3.172,0.029-6.315-0.028-9.43,0c-1.572,0-3.058,0.057-4.63,0.029
	c-1.657-0.057-2.486-0.429-4.344-0.2c-2.772,0.343-10.06,0.229-13.546,0.2c-1.715,0-2.429-0.314-3.915-0.4
	c-3.086-0.171-5.858,0.286-8.888,0.372c-2.972,0.086-6.258,0-9.202-0.171c-6.058-0.314-12.002,0.6-18.146,0.171
	c-1.115-0.085-0.658-0.257-1.915-0.429c-2.886-0.372-4.058,0.4-6.315,0.429c-3.058,0.029-6.116-0.085-9.202,0.086
	c-1.601,0.085-1.658-0.2-4.001-0.543c-1.515-0.2-1.743-1.2-0.771-2.144C7.648,58.302,11.249,54.844,12.135,54.386L12.135,54.386z
	 M60.888,1.773c-0.428,1.171-1.086,1.314-1.886,2.201l-3.401,4.086c-0.257,0.229-1.458,0.972-1.601,1.743
	c-0.4,1.058,0.058,0.429-0.829,1.144c-3.258,2.743-6.544,5.687-9.431,8.745l-2.486,2.572c-0.628,0.514-0.229,0.143-0.743,0.714
	l-4.801,5.116c-0.771,0.743-1.057,0.714-1.657,1.486l-2.687,2.429c-0.029,0.029-0.171,0.2-0.286,0.372l-0.343,0.429
	c-0.371,0.4-2.772,2.772-3.629,3.058c-0.571,0.514-0.714,1.372-1.686,1.543c-0.114,0.114-0.6,0.543-0.771,0.657
	c-0.571,1.429-5.516,5.573-6.744,7.059l-2.086,1.886c-0.028,0.028-0.143,0.171-0.171,0.114c-0.028-0.057-0.114,0.086-0.2,0.143
	l-0.085-0.029c-0.343,0.657,0.028,0.029-0.314,0.572c-0.771,1.229-1.772,1.629-2.572,2.314l-7.973,7.745
	c-0.229,0.972-0.058,0.657-1.258,1.857c-1.915,1.915-0.628,0.943-1.572,1.115c0.057,2.715,0.458,2.915,5.916,2.286
	c2.201-0.229,5.858-0.057,8.202-0.029c1.629,0.029,2.629-0.143,3.886-0.2c1.029-0.029,1.915,0.457,3.601,0.429
	c1.8,0,3.829-0.372,6.087-0.286c1.543,0.057,1.343,0.429,1.486,0.629c1.057,0,0.886,0.6,0.857,1.829
	c0,0.886-0.057,1.715,0.057,2.629L31.71,84.137c-0.028,3.744,0.2,7.402,0.086,11.146c-0.057,1.4-0.114,9.831-0.314,10.488
	c0.829,1.086,0.458,7.345,0.372,8.602c-0.343,7.602,0.171,17.547-0.029,25.892c-0.057,3.115,0.286,5.688,0.257,8.717l-0.314,8.717
	c0,3.115,0.486,5.201,0.458,8.459c-0.029,2.915-0.229,5.744-0.372,8.717c-0.114,3.029,0.372,5.458,0.314,8.459
	c-0.143,7.259-0.515,9.802-0.086,17.689c0.2,4.001-0.829,12.746-0.143,17.548c0.428,2.972-0.115,5.83-0.029,8.802
	c0.086,3.058,0.2,5.744,0.257,8.717c0.028,2.458-0.4,6.658,0.4,8.631c1.086,0.314,15.146,1.086,17.404,0.628
	c2.029-0.399,3.744-0.313,5.973-0.285c4.144,0.057,7.63,0.457,11.86,0.457c2.029,0.028,4.029,0,6.059,0
	c1.257,0,1.771-0.2,2.886-0.229c1.172-0.028,1.686,0.229,2.915,0.229c2,0.028,4.029-0.028,6.059,0
	c2.286,0.058,4.058-0.257,6.03-0.257c6.144,0,11.774,0.343,18.146,0.285c2.401-0.028,3.287-0.485,5.887-0.2
	c3.515,0.4,8.545,0.458,12.289,0.314c1.943-0.057,3.486-0.514,5.801-0.343c3.943,0.286,15.118,0.715,18.204,0.2
	c1.629-0.257,11.431,0.229,14.946,0.172c1.115-0.029,1.572-0.429,2.629-0.515c2.258-0.2,3.658,0.571,5.63,0.343
	c2.486-0.314,5.887,0.629,11.631-0.229c2.857-0.429,8.688,0.286,11.774,0.371c1.743,0.029,4.344,0.144,6.001-0.057
	c6.401-0.715,5.001-0.143,11.688,0c4.086,0.114,3.486-0.829,4.829-0.515c0.886,0.172,0.457,0,0.715,0.4
	c2.2,0.143,4.4-0.114,7.03-0.028c2.343,0.057,4.887,0.229,7.487,0.257c5.172,0.086,9.659-0.286,14.774-0.028
	c4.944,0.257,10.316,0.114,15.003-0.172c3.144-0.2,11.717,0.629,15.232,0.229c1.4-0.143,1.028-0.8,3.029-0.343
	c2.486,0.543,15.632,0,18.747-0.086c3.086-0.114,12.06,1.144,14.546,0.229c1.715-0.657,5.001-0.571,6.858-0.114
	c0.715,0.172,13.403,0.857,14.346-0.886c0.772-6.345-0.285-13.946,0.229-20.319c-1.029-0.8-0.515-1.086-2.83-1.2
	c-4.857-0.257-26.463,0.657-27.463-0.601c-0.515-1.571-0.371-3.314-0.171-4.973c0.371-3.144-0.2-7.716-0.114-9.916
	c0.057-1.715,0.199-3.516-0.857-4.544c-0.486-0.286-22.319-0.114-24.863-0.144c-5.887-0.057-4.43,0.543-4.4-13.946
	c0-2.657-0.629-3.943-0.743-6.001c-0.972-0.515-1.715-0.2-3.087-0.314c-1.343-0.143-1.543-0.543-3.372-0.515
	c-1.571,0.028-6.229-0.2-7.344,0.314c-0.2,0.229,0.257,0.486-1.858,0.4c-2.257-0.114-12.917,0.028-13.574-0.657
	c-0.771-1.887-0.257-4.63-0.285-6.773c-0.029-2.2-0.172-4.458-0.058-6.659c0.2-1.771,0.114-3.114-0.086-4.601
	c0.258-3.258,0.314-9.603-0.229-12.803c-0.771-4.602,0.114-8.46,0.314-12.232c0.114-1.943,0.086-4.572-0.028-6.544
	c-0.086-1.372-0.372-2.058-0.486-2.943c-0.171-1.372-0.057-7.917,0.229-9.431c0.458-2.543-0.343-3.401-0.371-5.745
	c-0.086-4.315-0.086-8.773,0.028-13.089c0.029-1.629,0.629-1.486,0.4-2.886c-0.143-0.943-0.457-0.857-0.486-2.658
	c-0.028-2.058,0-4.229,0-6.316c0-2.201-0.199-3.973-0.199-6.287c0.057-5.859-0.086-13.546,0.257-19.119
	c1.829-1.372,3.829-1.143,6.688-0.829c2.629,0.314,4.801-0.314,7.401-0.314c3.743,0,12.317,0.286,15.632-0.343
	c0.229-1.343-1.286-2.4-2.029-3.144c-0.886-0.886-2.086-1.629-2.486-2.858c-0.886-0.8-0.571-0.2-1.2-1.458
	c-0.343-0.686-0.628-1.143-1.2-1.515c-1.857-0.628-2.286-2.257-3.857-3.543c-0.915-0.743-2.658-2.144-3.315-3.058
	c-0.343-0.486,0.058,0.171-0.343-0.6l-3.001-3.029c-0.229-0.229-0.686-0.629-0.857-0.857c-1.914-2.4-1.515-0.771-2.143-2.4
	c-0.629,0-0.515,0.6-0.515-0.086l-3.4-3.515c-0.029-0.114-0.058-0.143-0.086-0.2c-1.286-0.343-1.887-1.915-2.915-2.658
	c-3.115-2.172-5.373-5.687-8.259-8.145c-0.715-0.657-0.972-0.829-1.543-1.372l-4.001-4.229c-1.772-1.772-4.688-4.029-5.459-5.744
	c-0.143-0.143-0.485-0.543-0.657-0.714c-0.515-0.572-0.429-0.629-0.828-1.115c-0.601-0.657-1.458-1.029-1.973-1.743
	c-0.857-0.229-0.543-0.086-1.028-0.572l-1.829-1.772c-2.229-2.943-2.429-0.943-2.486-2.857l-0.114-0.257
	c-0.371-0.686-3.572-3.572-3.601-3.572l-1.458-1.172c-1-0.572-14.003-0.343-15.432,0.114c-1.086,0.314-0.8,0.372-2.286,0.343
	c-0.972,0-1.687-0.143-2.258-0.372c-2.029-0.714-7.716-0.314-10.316-0.314l-63.9-0.029c-3.429-0.028-7.201-0.085-10.631,0.057
	c-1.086,0.057-1.4,0.286-2.4,0.229c-0.829-0.029-1.343-0.229-2.429-0.286c-11.603-0.343-25.405,0.2-37.265,0.057
	c-1.715-0.028-3.658-0.143-5.344-0.057C61.517,0.259,62.375,1.459,60.888,1.773L60.888,1.773z"/>
<path fill-rule="evenodd" clip-rule="evenodd" fill="#57BA5F" d="M305.399,206.167c-2.201-0.829-0.286-0.485-3.63-0.515
	c-1.829-0.028-2.258-0.886-3.801-0.457c-0.914,0.257-0.457,0.457-1.515,0.629c-1.4,0.2-9.459,0-10.573-0.258
	c-2.544-0.628-9.46,1.229-10.316-1.886c-0.829-0.257-0.486-2.887-0.486-4.372c0.028-1.486,0.058-3.087,0.028-4.602
	c-0.028-1.687,0.715-7.916-0.057-8.831c-0.657-0.657-1-0.057-2.772,0l-10.174-0.143c-2.343-0.086-3.771-0.314-6.372,0
	c-2.286,0.257-4.688-0.086-6.888,0.114l-0.143,53.385c-0.028,0.771-0.114,2.715,0.571,3.201l35.493-0.058
	c0.829-0.086,1.544-0.515,2.486-0.343c3.201,0.515,1.115,0.371,5.087,0.371c7.345,0,14.689,0,22.033,0.029h16.689
	c1.372-0.029,3.973,0.257,4.573-0.829c0.485-1.029,0.399-14.433-0.115-15.433c-3.972-0.028-8.43,0.028-11.859-0.429
	c-5.344-0.714-7.287,0.372-8.802,0.429c-1.114,0.058-2.286-0.057-3.4-0.028C303.056,226.171,305.999,224.914,305.399,206.167
	L305.399,206.167z"/>
<path fill-rule="evenodd" clip-rule="evenodd" fill="#111316" d="M184.544,166.042c-0.2,1.543,0.4,6.087-0.028,8.002
	c-0.457,2.229-0.601,5.544-0.4,7.859c-0.229,0.8,0.114,0.742-1.143,0.857c-3.144,0.257-3.486-0.229-5.545-0.286
	c-2.571-0.058-4.801,0.229-7.258,0.229c-2.515,0-5.287-0.086-7.773,0.028c-2.486,0.144-4.344-0.485-7.259-0.229
	c-4.315,0.4-7.43,0.086-11.374,0.258c-2.572,0.114-5.944-0.772-10.945-0.086c-2.972,0.429-11.488-0.229-14.717-0.029
	c-1.943,0.115-5.63,0.286-7.459,0.172c-2.572-0.172-5.03-0.057-7.516-0.257c-1.886-0.144-5.773,0.657-6.916-0.515
	c-1.743-1.829,0.057-3.516-0.486-6.773c-0.257-1.571,0.686-1.886,0.143-3.458c-0.657-1.886-0.486-0.942-0.229-3
	c0.229-1.715-0.257-6.487,0.143-11.146c0.114-1.257-0.257-2.571,0.486-3.4l-0.028-1.801c-0.486-0.457-0.715-0.857-0.8-1.6v-5.745
	c-0.057-4.801,0.657-4.915,0.486-7.516c-0.286-5.001-0.915-9.631-0.429-15.176c0.229-2.714,0.915-4.315,0.143-7.344
	c-0.943-3.772,0.143-8.545,0.115-11.346c0-1.286,0.028-2.572,0.114-3.887c0.229-3.172-1.572-4.058,0.514-6.201
	c1.029-0.115,1.857,0.028,2.886,0.028c1.201,0.029,1.629-0.2,2.658-0.257c1.201-0.057,3.858,0.2,5.315,0.229
	c3.572,0.114,7.431-0.257,11.146,0c2.115,0.143,3.687-0.257,5.801-0.115c2.972,0.172,7.03-0.171,11.117,0.086
	c2.172,0.114,3.401-0.143,5.315-0.2c3.258-0.114,7.973-0.085,11.203,0.143c4.029,0.286,6.887-0.257,10.316-0.086l13.803,0.172
	c2.286-0.172,6.115-0.6,8.116,0.057c1.2,2.543-0.2,35.438,0.399,37.81c0.229,0.886,0.943,1.285,0.314,3.029
	c-0.6,1.657-0.371,11.374-0.343,13.46l0.028,7.03c0,0.743,0.2,1.4,0.229,2.2c0,1.229-0.313,2.658-0.285,4.315
	C184.401,162.927,184.63,165.013,184.544,166.042L184.544,166.042z M148.851,185.104c1.972-0.343,6.087,0,8.03,0.172
	c0.886,0.086,3.229,0.171,4.086,0.057c1-0.143,2.201-1.028,3.144-0.429c3.858-0.028,8.231,0.029,12.088,0.2
	c2.4,0.086,3.001,0.515,5.487-0.143c1.2-0.343,4.43,0.2,5.058-0.829c0.086-3.915,0.658-7.659,0.314-11.546
	c-0.199-2.229-0.257-3.458-0.085-5.687c0.114-2.001-0.172-3.858-0.172-5.802c0.028-1.771,0.429-4.144,0.286-5.544l-0.114-17.204
	c0.028-3.887-0.086-7.745-0.144-11.632c-0.028-2.086,0.172-3.858,0.2-5.801c0.028-1.857-0.171-3.83-0.143-5.801
	c0.028-2.315,0.086-20.948-0.2-23.092c-1.515-0.171-4.572-0.114-5.658-0.4c-3.63-1-7.345-0.657-10.945-0.057
	c-6.03,1-13.403-1.515-16.918-0.2c-1.601,0.6-9.374,0.743-10.746,0.114c-1-0.429-0.686-0.4-2.743-0.457
	c-0.943-0.029-2-0.057-2.915,0.028c-1,0.086-1.915,0.372-2.915,0.314c-1.2-0.057-1.429-0.372-2.8-0.085
	c-4.258,0.886-6.945-0.143-10.974-0.171c-2.086-0.029-3.658,0.286-5.544,0.429c-2.172,0.171-3.687-0.257-5.573-0.229
	c-1.943,0.029-10.031,0.057-11.374-0.372l-0.257,0.229c-1.572,1.2-1.429,0.085-3.772,1.057c-0.714,2.744-0.2,14.975-0.229,18.776
	c-0.171,12.317,0.171,24.949-0.029,37.266c-0.057,2.887,0.4,3.658,0.143,8.717c-0.171,3.172-0.114,6.487-0.086,9.659v14.032
	c0.029,1.687-0.314,3.029,0.972,3.687s7.288,0.715,8.602,0.458c5.516-1.029,12.603,0.628,17.89-0.258
	c3.744-0.6,14.174,0.4,18.604,0.515l7.03-0.515C147.422,184.533,148.165,184.475,148.851,185.104L148.851,185.104z"/>
<path fill-rule="evenodd" clip-rule="evenodd" fill="#D0D0CE" d="M34.854,80.021l0.057,25.892c0,1.687,0.314,3.772,0.257,5.03
	c-0.114,1.915-0.028,2.944-0.028,4.887c0.028,2.029-0.229,3.401-0.257,5.087c-0.029,3.601,0.257,6.745,0.257,10.174
	c0,3.543-0.372,6.602-0.257,10.174c0.143,3.687,0.372,5.973,0.257,10.146l-0.115,15.003c0.115,1.486,0.115,3.801,0.058,5.316
	c-0.143,3.372-0.372,6.772-0.314,10.174c0.028,1.657,0.314,3,0.314,4.829c-0.029,1.973-0.2,3.287-0.286,5.059
	c-0.114,1.743,0.057,3.601,0.057,5.345l0.229,25.892c0.085,3.315-0.115,6.858-0.172,10.174c-0.057,1.801-0.2,3.458,0,5.259
	c0.057,0.714,0.114,1.771,0.2,2.486c0.2,1.143,0.372,0.886,0.857,1.743c3.515,0.229,7.859-0.114,11.517-0.028
	c5.944,0.085,8.288,0.771,13.689-0.314c2.772-0.543,3.858,0.028,5.201,0.257c0.943,0.172,1.915,0.058,2.886,0.058
	c3.772,0.028,7.401,0.314,11.117,0.343c1.943,0.028,3.229-0.429,5.344-0.343l16.604,0.314c5.229-0.572,16.146-0.2,22.348-0.286
	c3.715-0.028,7.802,0.343,11.374,0.229c3.829-0.114,7.516-0.229,11.374-0.229c3.744,0,7.144,0.4,10.888,0.114
	c3.83-0.343,7.773,0.028,11.603-0.028l33.636-0.086c3.83,0,7.773-0.086,11.603-0.028c3.801,0.085,7.602,0.085,11.374,0.057
	c2.001-0.028,3.63,0.086,5.573-0.086c1.343-0.085,7.887,0.372,11.116,0.258c1.972-0.086,2.172-1.286,2.001-3.401
	c-0.572-7.944,0.314-25.549,0.085-34.38c-0.028-1.743-0.371-3.2-0.429-5.059c-0.028-1.828-0.057-3.943,0.058-5.772l0.114-45.04
	c0.086-3.857-0.114-7.688,0-11.631c0.114-3.401-0.172-7.517-0.172-11.117c0-3.572,0.286-7.945,0.115-11.374l-0.115-20.091
	c0.058-0.8,0.144-1.829,0.687-2.429c-0.429-3.772-0.172-10.945-0.086-14.975c0.058-3.001-0.571-7.974-0.314-11.146
	c0.114-1.257,0.686-2-0.314-2.829c-1.028-0.772-8.431-0.029-10.316-0.086c-4.172-0.086-12.174-0.4-16.232-0.257
	c-1.743,0.086-3.029,0.314-5.087,0.286c-1.429-0.028-8.115-0.429-9.43-0.257l-0.801,0.257c-0.028-0.057-0.114,0.058-0.171,0.115
	c1.686,0.314,3.601,0.114,5.344,0.114c1,0,1.686,0.114,2.4,0.2c4.772,0.515,31.979-0.6,33.407,0.257
	c1.029,0.2,0.571,0.857,0.4,1.486c-0.258,0.886-0.172,1.943-0.172,2.886c0,1.8-0.229,4.058,0.314,5.716
	c0.886,2.658,0.229,2.543,0,4.973c-0.172,1.857,0.457,2.772,0.457,5.058c0,1.686,0.343,6.63-0.229,8.002
	c-1.286,3.201-0.571,9.831-0.571,13.518c0,15.175-0.028,30.35,0,45.498c0.057,15.117,0.229,30.379,0.028,45.496
	c-0.028,1.915-0.028,3.887,0.028,5.802c0.058,1.629,0.429,1.286,0.515,2.43c0.058,0.828-0.257,1.314-0.285,2.4
	c-0.372,7.373-0.2,15.032-0.2,22.52c0,1.886-0.144,3.915-0.086,5.802c0.114,4.772,0.286,2.4,0.771,4.915
	c-1.372,1.058,0.601,0.943-3.887,1.029c-1.515,0.028-3.086,0.028-4.601,0l-9.174-0.029c-5.344,0.2-29.606-0.399-32.321,0.144
	c-0.829,0.171-0.943,0.485-2.029,0.371c-0.628-0.057-1-0.343-1.743-0.4c-5.801-0.543-12.603,0.172-18.575-0.057
	c-0.715-1.572-0.715-0.343-2.172-0.058l-25.434,0.029c-2.115,0-5.144-0.172-7.145,0.057c-2.343,0.286-10.945-0.086-14.146-0.086
	l-7.03,0.229c-3.486-0.115-11.202-0.458-14.031,0.371c-1.144,0.343-2.086,0.371-3.401,0.229c-1.2-0.114-1.629-0.543-2.886-0.657
	c-2.229-0.172-4.973-0.028-7.259-0.028c-2.201,0-4.887-0.543-6.487,0.257c-1.486,0.743-4.572,0.457-6.487,0.086
	c-3.458-0.629-11.888-0.172-13.889-0.543c-1.229-0.229,0.2-0.657-1.2-0.657c-1.972,0.028,2.286,1.571-10.917,0.714
	c-2.515-0.171-11.603,0.229-13.26-0.057c-2.172-0.372-1.343-7.859-1.543-10.003c-0.143-1.543-0.057-1.686,0.915-2.286
	c-0.115-0.229-0.086-0.086-0.229-0.629l0.143-6.602c0.314-1.972,0.886-1.172,0.486-2.915c-0.343-1.343-0.2-1.743-1.372-2.372
	c0-0.857-0.029-1.743-0.057-2.601c0-0.8-0.086-1.571,0.286-2.286c0.857-1.629,0.457-1.943,0.457-4.001
	c0-1.143,0.229-3.486-0.057-4.43c-0.543-1.943-0.714-1.657-0.6-4.201l1.857-0.028c-0.714-1-0.657,0.028-1.886-1.028
	c0.429-1.001,1.286-0.943,2.143-1.2c-0.085-0.029-0.314-0.144-0.372-0.172c-0.028-0.028-0.114-0.058-0.143-0.086l-1.229-0.457
	c-0.028-0.086-0.143-0.058-0.2-0.086c-0.4-1.143-0.257-3.286-0.229-4.772c0.343-0.771,0.286,0.172,0.8-0.771
	c0.571-1.058-0.114-2.229-0.086-3.572c0-1.915,0.829-3.173-0.686-3.915c-0.086-2.516-0.314-8.889,0.457-10.746
	c0.8-1.857-0.229-7.545,0.171-10.174c0.057-0.4-0.085-4.43-0.171-5.115c-0.286-2.172-0.314-3.059,0.143-4.802
	c0.257-0.914,0.114-4.229,0.114-5.43c0.057-2.972-0.372-1.515,0.457-4.344c-0.429-0.229-0.743-0.372-1.2-0.543
	c-0.028-1.2-0.085-1.743,0.458-2.544c0.4,0.2-0.257-0.114-0.4-0.742c-0.143-0.601-0.057,0-0.085-0.515
	c-0.057-0.972,0.286-1.314,0.486-2.029c0.571-1.801,0.457-6.716,0.085-8.631c-0.343-1.972-0.514-1.629-0.514-4.115
	c0-1.915-0.286-2.943,0.4-4.515c0.429-1,0.343-2.915,0.486-4.087c0.114-0.972-0.2-1.086-0.314-1.829
	c-0.171-1,0.086-0.886,0.171-1.915c0.2-2.687-1.457-3.201-0.314-4.287c0.628-0.628,0.257,0.029,0.486-0.543
	c-0.886-0.771-1.058,0.229-0.972-1.915c0.057-1.058,0.286-1.343,0.314-2.429c0.057-1.915,0.4-2.943,0.458-4.858
	c0.057-3.029-0.6-3.658,1.086-5.801c0.6-0.8,0.514-1.629,0.257-2.486l-0.286,1.943c-2.343-0.372-1.829-2.029-1.8-5.973
	c0-4.544,0.743-4.83,0.771-6.316c0.057-1.143-0.057-2.429-0.028-3.629c0.028-2.458-0.086-1.372-0.572-2.972
	c-0.429-1.4-0.171-5.315-0.143-7.087l1.343,0.714l0.715-0.943c3.543,0,6.887-0.086,10.173-0.2c2.229-0.085,4.801-0.657,6.973-0.143
	c0.686,0.143,1.4,0.085,2.2,0.085c4.03,0,8.459,0.515,12.403,0.086c1.772-0.229,2.343,0.514,4.229-0.229
	c3.229-1.229,8.63,1.286,11.66,0.229c2.458-0.886,2.058,0.571,4.315,0.143c1.114-0.2,0.543-0.514,1.972-0.628
	c2.144-0.171,9.745,0.314,12.631,0.314c3.344,0,6.458-0.257,9.917-0.257l71.387-0.229c2.943-0.171,7.459,0.372,10.116-0.114
	c-0.457-0.372,0.2-0.029-0.514-0.257l-19.776-0.057c-19.976,0.257-40.98-0.2-60.985-0.029c-1.629,0.029-3.458-0.114-5.058,0.029
	c-4.401,0.372-4.973,0.457-9.716,0.343c-1.686-0.057-2.458-0.4-4.572-0.372c-3.401,0.057-6.516,0.086-9.917,0.2
	c-3.373,0.114-6.459-0.257-9.917-0.229l-30.493,0.085c-1.486-0.028-8.916-0.486-9.63,0.4c-0.543,1.114-0.515,6.944-0.229,8.116
	C35.054,74.105,34.826,77.678,34.854,80.021L34.854,80.021z"/>
<path fill-rule="evenodd" clip-rule="evenodd" fill="#D0D0CE" d="M248.101,164.099c0.2,1.486,0.286,2.829,0.086,4.601
	c0.429,0.429,0.172-0.199,0.429,0.857l-0.028,2.43c-0.058,9.202-0.829,9.745,1.886,9.745c0.886,0,3.058-0.172,3.772,0.114
	c0.943,0.372,0,0.343,0.829,0.543h8.888c1.114-0.515,5.772-0.286,7.344-0.314c1.829-0.028,2.029,0.372,3.372,0.515
	c1.372,0.114,2.115-0.2,3.087,0.314c1.028,0.6,0.886,0.829,0.972,2.114c0.371,4.744,0.257,8.346,0.057,13.089
	c-0.143,3.802,0.515,2.687,1.086,4.373c4.544,0.229,10.174-0.457,12.003-0.2c4.115,0.571,8.059-0.114,12.06,0.2
	c1.972,0.143,4.516-0.771,5.001,1.286c0.372,1.715-0.171,4.144,0.2,6.059c1.629,8.745-3.172,12.975,3.287,12.832
	c1.371-0.029,2.743-0.029,4.115-0.058l16.203,0.028c3.887,0,6.373-0.485,6.459,1.601c-0.515,6.373,0.543,13.975-0.229,20.319
	c-0.942,1.743-13.631,1.058-14.346,0.886c-1.857-0.457-5.144-0.543-6.858,0.114c-2.486,0.915-11.46-0.343-14.546-0.229
	c-3.115,0.086-16.261,0.629-18.747,0.086c-2.001-0.457-1.629,0.2-3.029,0.343c-3.516,0.4-12.089-0.429-15.232-0.229
	c-4.687,0.286-10.059,0.429-15.003,0.172c-5.115-0.258-9.603,0.114-14.774,0.028c-2.601-0.028-5.145-0.2-7.487-0.257
	c-2.63-0.086-4.83,0.171-7.03,0.028c0.028,0.143-0.172,0.457,0.515,0.857c0.6,0.314,4.915-0.286,7.744,0
	c4.858,0.457,13.203-0.058,18.376,0.028c10.03,0.172,22.576,0.343,32.436,0.114c1.086,0,1.429-0.229,2.2-0.286
	c0.829-0.085,1.229,0.172,1.857,0.258l27.863,0.028c3.144,0.028,5.944-0.371,8.716-0.2c4.63,0.258,9.174,0.2,13.774,0.2
	c1.973,0.028,3.602,0.028,4.115-2.029l0.144-3.286c0.086-3.058,1.057-6.888,0.629-10.889c-0.086-0.886-0.314-0.829-0.486-1.601
	c-0.343-1.657,0.457-2.629,0.371-3.972c-0.085-1.458-1.171-2.058-1.629-2.973c-0.942,0-1.457-0.171-2.058-0.143l-7.144,0.114
	c-1.515-0.028-2.772-0.258-4.573-0.229c-0.771,0-1.714,0.086-2.457,0.028c-1.086-0.114-0.857-0.229-1.658-0.486
	c-1.057,0.4,0.458,0.2-0.972,0.629c-0.457,0.114-0.971,0.086-1.457,0.086c-2.372,0-6.944,0.172-8.745-0.257
	c-0.143-0.857-0.085-0.829,0.029-1.629c0.171-1.172-0.029-0.486,0-1.229c0-1.429,0-0.314,0.429-1.143
	c0.257-0.486,0.285-0.801,0.285-1.458c0.029-1.972,0.314-5.001-0.543-6.43c-1.543-2.658,1.543-6.517-2.028-8.374
	c-1.144-0.6-1.4-0.057-2.258,0.314c-1.2,0.486-1.515-0.028-3.144,0c-1.943,0.028-1.2,0.715-6.287,0.543
	c-1.229-0.028-1.801-0.314-2.887-0.543c-1.715-0.371-4.829-0.371-6.516,0.058c-2.543,0.629-3.887,0.057-6.459,0.028l-0.8-1.657
	c-0.515-1.601,0.657-2.058,0.571-6.202v-7.287c-0.085-1-0.343-0.972-0.485-1.144l-0.257-0.285c0.028-0.058,0.114-0.114,0.143-0.172
	c0.429-0.485,1.2-0.714-0.314-1.601c0.314-1.314,0.886-1.257,0.429-1.343c-0.343-0.058-0.058,0.057-0.657,0.171
	c-2.887,0.515-3.801-0.714-4.544-0.828c-1.972-0.286-7.059-0.086-9.202,0c-2.943,0.114-0.2,0.828-3.601,0.714
	c-1.458-0.028-3.286,0.114-4.63,0c-2.029-0.171,0.314-0.828-3.601-0.771c-1.372,0-2.915,0.229-4.201-0.143
	c0-2.458,0.086-4.944,0.058-7.402c-0.029-6.687,0.2-16.175-0.114-22.262c-0.258-4.888,0.143-10.06,0.143-15.004
	c0-4.772-0.485-10.089-0.143-14.775c0.2-2.601,0-4.887-0.114-7.288l-0.029-27.778c-0.143-0.886-0.314-0.715-0.429-1.315
	c-0.313-1.915,0.629,0.057,0.229-3.086c-0.2-1.429,0.285-17.49,0.571-17.747c1.286-0.829,5.458,0.372,7.145,0.143
	c1.229-0.171,1.8-0.571,3.657-0.571c1.286-0.029,2.572,0,3.858,0.028c2.657,0.057,5.373,0.114,8.002,0
	c4.001-0.171,0.114,1.4,3.2,0.143c1.658-0.686,3.173,0.686,3.287-2.029c0-0.601-0.144-1.201-0.258-1.715l-0.972-0.143l0.229,0.372
	c0.772,1.286,0.772,1.601-0.171,2.943c-4.772,0-9.488,0.058-14.289,0.029c-2.458-0.029-4.944,0.257-7.259,0.257
	c-3.4-0.029-6.602-1.2-7.173,0.8L247.93,76.22c-0.172,2.144-0.229,4.315-0.2,6.459c0.028,1.4-0.143,1.972,0.086,3.4
	c0.229,1.258,0.229,1.886,0.2,3.144c-0.029,1.8,0.343,1.629,0.371,2.886c0.057,0.915-0.172,2.115-0.172,3.172
	c0.029,2.343,0.372,3.601,0.2,6.116c-0.285,3.772-0.343,8.974-0.143,12.746c0.114,2.029,0.429,4.058,0.229,6.23
	c-0.172,2.229-0.229,4.03-0.143,6.344c0.171,4.115,0.371,8.402,0.229,12.604c-0.144,4.344-0.601,8.03-0.144,12.231
	c0.344,3.2,0.229,6.315,0.115,9.545C248.501,162.871,248.958,163.584,248.101,164.099L248.101,164.099z"/>
<path fill-rule="evenodd" clip-rule="evenodd" fill="#726F6F" d="M245.558,92.596c-0.543,0.6-0.629,1.629-0.687,2.429l0.115,20.091
	c0.171,3.429-0.115,7.802-0.115,11.374c0,3.601,0.286,7.716,0.172,11.117c-0.114,3.943,0.086,7.773,0,11.631l-0.114,45.04
	c-0.114,1.829-0.086,3.944-0.058,5.772c0.058,1.858,0.4,3.315,0.429,5.059c0.229,8.831-0.657,26.436-0.085,34.38
	c0.171,2.115-0.029,3.315-2.001,3.401c-3.229,0.114-9.773-0.343-11.116-0.258c-1.943,0.172-3.572,0.058-5.573,0.086
	c-3.772,0.028-7.573,0.028-11.374-0.057c-3.829-0.058-7.772,0.028-11.603,0.028l-33.636,0.086
	c-3.829,0.057-7.773-0.314-11.603,0.028c-3.744,0.286-7.144-0.114-10.888-0.114c-3.858,0-7.545,0.114-11.374,0.229
	c-3.572,0.114-7.659-0.257-11.374-0.229c-6.201,0.086-17.118-0.286-22.348,0.286l-16.604-0.314
	c-2.115-0.086-3.401,0.371-5.344,0.343c-3.715-0.028-7.344-0.314-11.117-0.343c-0.972,0-1.943,0.114-2.886-0.058
	c-1.343-0.229-2.429-0.8-5.201-0.257c-5.401,1.086-7.745,0.399-13.689,0.314c-3.658-0.086-8.001,0.257-11.517,0.028
	c-0.486-0.857-0.657-0.601-0.857-1.743c-0.086-0.715-0.143-1.772-0.2-2.486c-0.2-1.801-0.057-3.458,0-5.259
	c0.057-3.315,0.257-6.858,0.172-10.174l-0.229-25.892c0-1.744-0.171-3.602-0.057-5.345c0.086-1.771,0.257-3.086,0.286-5.059
	c0-1.829-0.286-3.172-0.314-4.829c-0.057-3.401,0.171-6.802,0.314-10.174c0.057-1.516,0.057-3.83-0.058-5.316l0.115-15.003
	c0.114-4.173-0.115-6.459-0.257-10.146c-0.114-3.572,0.257-6.631,0.257-10.174c0-3.43-0.286-6.573-0.257-10.174
	c0.028-1.686,0.286-3.058,0.257-5.087c0-1.943-0.086-2.972,0.028-4.887c0.057-1.257-0.257-3.343-0.257-5.03l-0.057-25.892
	c-0.857,0.458-0.571,0.543-0.6,2.658c0,0.886-0.057,1.771-0.057,2.658c-0.028,4.287,0.6,3.172,0.314,7.745
	c-0.057,1.086,0.171,1.658,0.2,2.687l-0.543,10.631c0,2.058,0.514,2.83,0.486,4.83c0,1.772,0,3.572,0,5.344
	c0.028,1.857-0.257,3.115-0.229,5.087c0,3.572,0.086,7.316,0.257,10.888c0.143,3.001-1.486,6.744-0.429,9.631
	c0.229,0.571,0.229-0.028,0.314,1.2c0.057,0.4,0,0.829,0.029,1.229c0.028,0.857,0.114,1.543,0.114,2.429
	c0.028,1.772,0,3.401-0.143,5.115c-0.343,3.944,0.057,8.803-0.086,10.231c-0.343,3.229,0.458,6.888,0.086,10.488
	c-1.458,14.089,0.2,7.373,0.143,14.604c-0.029,2.058-0.458,3.144-0.572,4.83l0.257,10.346c0.286,2,0.343,3.258,0.314,5.372
	c0,0.886,0.028,1.857-0.114,2.572c-0.886,4.229,0.286,11.003,0,18.033c-0.115,2.058-0.372-0.229-0.458,4.801
	c-0.057,1.572-0.457,3.63,0.114,5.059c0.572,1.4,0.429,2.772,0.8,4.458c3.029,0.572,8.116,0.114,11.459,0.172
	c3.858,0.028,7.802,0.229,11.631,0.229c1.686,0,3.572-0.4,5.544-0.457l16.689,0.629c1.857,0.028,3.515-0.372,5.573-0.372
	c1.915,0.028,3.886,0,5.801,0c1.743,0,3.944-0.229,5.487,0.229c1.543,0.486,4.001,0.829,5.573,0.286
	c3.486-1.172,12.603-0.086,16.032-0.429c1.658-0.172,3.858-0.028,5.573-0.058c3.858-0.057,8.002,0.344,11.631,0.258
	c3.715-0.086,7.344-0.286,11.117-0.286c3.944,0,7.287,0.4,11.288,0.086l28.635-0.086c2.058,0.028,3.144,0.457,4.829,0.515
	c2.229,0.057,3.172-0.457,5.344-0.457c1.915,0,3.858-0.058,5.802-0.058c5.144,0,22.091-0.257,25.92,0
	c1.028,0.086,1.601,0.486,2.058,0.286c2.314-0.943,2.887-0.343,5.173-0.286c12.174,0.286,9.145,0.343,9.259-7.287l0.229-11.375
	c0.028-1.886-0.2-3.743-0.143-5.801c0.086-3.716-0.086-7.659,0.086-11.374c0.199-3.688-0.229-7.573-0.172-11.375
	c0.028-3.857,0.229-7.516,0.028-11.374c-0.2-3.887,0.229-7.858,0.086-11.631c-0.143-3.687-0.114-7.631-0.143-11.375
	c-0.029-1.857-0.086-3.972,0.057-5.801c0.286-4.115-0.257-13.032,0-17.176c0.229-3.63-0.057-7.888-0.057-11.603
	c0-3.688,0.229-7.774,0.114-11.375c-0.086-3.887-0.2-7.745-0.114-11.631L245.558,92.596z"/>
<path fill-rule="evenodd" clip-rule="evenodd" fill="#4D4B49" d="M271.163,57.702c0.371,1,0.515,0.743,1.028,1.343
	c0.572,0.743,0.887,1.943-0.428,2.201l-1.572-0.114c-1.886-0.286-5.029,0.057-5.83-1c-3.743,0.8-33.121,0.286-40.494,0.372
	c-6.602,0.086-4.059,0.486-5.602,0.658c-0.914,0.085-0.771-0.172-1.4-0.486c-1.4-0.686-12.631-0.114-15.489-0.171
	c-10.888-0.171-21.775,0.029-32.664,0c-4.458,0-21.176,0.229-24.691-0.028c-2.858-0.2-4.772,0.028-7.487,0.028
	c-10.888,0.057-21.805,0.029-32.665-0.028c-10.945-0.086-21.604,0.171-32.436,0.171c-2.858,0.028-5.201-0.257-8.002-0.257
	c-2.458,0-5.229,0.257-7.973,0.257l-15.86-0.143c-5.401,0.486-10.802-0.314-16.061-0.114C21.166,60.474,8.706,60.959,7.62,60.13
	c-0.171-0.2-0.372,0.229-0.057-0.686c0.143-0.458,0.085-0.257,0.4-0.543c0.515-0.515,0.486-0.286,0.915-1.029
	c0.629-1.058,1.686-1.601,2.572-2.486l0.686-1c-0.886,0.458-4.487,3.916-5.001,4.43c-0.972,0.943-0.743,1.943,0.771,2.144
	c2.343,0.343,2.4,0.628,4.001,0.543c3.086-0.171,6.144-0.057,9.202-0.086c2.257-0.028,3.429-0.8,6.315-0.429
	c1.257,0.172,0.8,0.343,1.915,0.429c6.144,0.429,12.088-0.486,18.146-0.171c2.944,0.171,6.23,0.257,9.202,0.171
	c3.029-0.085,5.801-0.543,8.888-0.372c1.486,0.086,2.2,0.4,3.915,0.4c3.486,0.028,10.774,0.143,13.546-0.2
	c1.857-0.229,2.687,0.143,4.344,0.2c1.572,0.028,3.058-0.029,4.63-0.029c3.115-0.028,6.258,0.029,9.43,0
	c6.03-0.057,12.432,0.229,18.119-0.257l8.973,0.286c2.629,0,7.001,0.257,9.374-0.029c1.429-0.171,2.286-0.686,4.201-0.343
	c1.429,0.229,2.058,0.486,4.086,0.4c7.773-0.343,19.176,0.2,27.834,0c2.715-0.057,21.434,0.171,22.72-0.171
	c2.114-0.6,1.686-0.143,3.657,0.029c2.658,0.2,6.745,0.2,9.431,0.085c1.772-0.085,2.63-0.257,4.173-0.457
	c2.515-0.314,1.857,0.743,3.544,0.857c1.515,0.085,2.743-0.429,4.372-0.4c7.287,0.171,15.574-0.143,23.233,0h15.89
	c0.686-0.085,1-0.372,1.829-0.486c2.601-0.4,1.086,0.714,3.543,0.714c1.601,0.029,3.058,0.086,4.658,0.172
	c0.743,0.028,1.258,0.028,1.801-0.343c1.114-0.829,0.485-1.743-0.343-2.8C272.163,58.187,271.764,57.759,271.163,57.702
	L271.163,57.702z"/>
<path fill-rule="evenodd" clip-rule="evenodd" fill="#A2A1A5" d="M31.339,134.463c0.458,2.486-0.771,1.571-0.428,4.029
	c0.286,2.029-0.143,2.515-0.057,4.43c0.085,1.657,0.571,2.029,0.6,4.115l-0.2,9.945c-0.029,1.687,0,3.144,0.2,4.83
	c0.314,3.058-0.057,6.573-0.086,9.688c-0.114,6.402,0.457,13.175-0.372,19.033c-0.2,1.515-0.114,3.087-0.171,4.688
	c-0.057,2.601,0.372,1.571,0.486,3.115c0.6,7.001-0.314,7.315-0.286,10.174c0.028,3.229-0.086,6.658,0.257,9.631
	c0.629,5.258-0.286,8.03-0.2,8.888c0.286,2.601,0.429,6.63,0.457,9.316c0.029,2.086-0.657,8.116,0.714,8.917
	c0.686,0.429,16.918,1.314,18.461,0.857c0.829-0.258,0.829-0.486,1.829-0.543c1.314-0.086,5.229,0.485,6.601,0.6
	c2.915,0.229,6.63,0.114,9.631,0.086l58.556,0.028c1.8,0,3.029-0.257,4.601-0.314c1.458-0.028,2.886,0.229,4.601,0.229l29.263,0.086
	c1.744,0,3.086-0.314,4.602-0.285c1.485,0,2.829,0.285,4.601,0.229c3.201-0.058,6.459,0.114,9.688,0.057
	c1.629-0.028,2.973-0.314,4.83-0.257l14.261,0.257c1.714,0,3.114-0.314,4.601-0.314c1.657-0.028,2.857,0.258,4.601,0.258
	c1.629,0.028,3.229,0.028,4.83,0.057c2.601,0.028,2-0.257,2.829-0.6l1.286-0.2c-0.258-0.4,0.171-0.229-0.715-0.4
	c-1.343-0.314-0.743,0.629-4.829,0.515c-6.688-0.143-5.287-0.715-11.688,0c-1.657,0.2-4.258,0.086-6.001,0.057
	c-3.087-0.085-8.917-0.8-11.774-0.371c-5.744,0.857-9.145-0.086-11.631,0.229c-1.972,0.229-3.372-0.543-5.63-0.343
	c-1.058,0.086-1.515,0.485-2.629,0.515c-3.515,0.057-13.317-0.429-14.946-0.172c-3.086,0.515-14.261,0.086-18.204-0.2
	c-2.315-0.171-3.858,0.286-5.801,0.343c-3.744,0.144-8.773,0.086-12.289-0.314c-2.601-0.285-3.486,0.172-5.887,0.2
	c-6.373,0.058-12.002-0.285-18.146-0.285c-1.972,0-3.744,0.314-6.03,0.257c-2.029-0.028-4.058,0.028-6.059,0
	c-1.229,0-1.743-0.257-2.915-0.229c-1.115,0.028-1.629,0.229-2.886,0.229c-2.029,0-4.03,0.028-6.059,0
	c-4.229,0-7.716-0.4-11.86-0.457c-2.229-0.028-3.943-0.114-5.973,0.285c-2.258,0.458-16.318-0.313-17.404-0.628
	c-0.8-1.973-0.372-6.173-0.4-8.631c-0.057-2.973-0.171-5.659-0.257-8.717c-0.086-2.972,0.457-5.83,0.029-8.802
	c-0.686-4.802,0.343-13.547,0.143-17.548c-0.429-7.888-0.057-10.431,0.086-17.689c0.057-3.001-0.429-5.43-0.314-8.459
	c0.143-2.973,0.343-5.802,0.372-8.717c0.028-3.258-0.458-5.344-0.458-8.459l0.314-8.717c0.029-3.029-0.314-5.602-0.257-8.717
	c0.2-8.345-0.314-18.29,0.029-25.892c0.086-1.257,0.457-7.516-0.372-8.602c-0.314,2.429,0.143,4.858,0.057,7.43
	c-0.057,2.201-0.429,4.63-0.343,7.002c0.085,2.344,0.171,4.772,0.372,7.002C32.082,132.863,31.167,131.833,31.339,134.463
	L31.339,134.463z"/>
<path fill-rule="evenodd" clip-rule="evenodd" fill="#D0D0CE" d="M182.258,185.533l-16.946-0.028
	c-1.972-0.314-0.543,0.114-1.201-0.601c-0.943-0.6-2.143,0.286-3.144,0.429c-0.857,0.114-3.201,0.029-4.086-0.057
	c-1.943-0.172-6.059-0.515-8.03-0.172c-1.572,0.086-3.229,0.028-4.83,0.114c-1.572,0.086-2.486,0.4-4.344,0.372
	c-3.086-0.058-6.202-0.515-8.974-0.429c-3.029,0.114-6.43-0.515-9.288,0c-4.715,0.886-11.831-0.601-17.833,0.257
	c-1.658,0.229-8.173,0.286-9.259-0.314c-2.058-1.172-1.486-4.115-1.458-8.059l0.029-19.119c0.057-1.515,0.171-3.087,0.2-4.572
	c0.057-1.772-0.314-3.001-0.4-4.602c-0.057-1.687,0.257-2.601,0.171-4.372c-0.229-5.059-0.028-18.348,0.029-23.949
	c0.028-3.144-0.229-6.259-0.114-9.202c0.2-5.116-0.257-15.718,0.171-19.147c1.086-0.829,2.486-1.515,4.629-1.144
	c0.114-0.057,0.057-0.085,0.515-0.171l14.946,0.143c2.601,0,5.144-0.286,7.745-0.229c6.087,0.114,9.031,0.429,15.489,0
	c3.601-0.2,4.544,0.171,7.259,0.4c5.172,0.429,9.974-0.543,15.003-0.429c2.658,0.086,4.658,0.343,7.487,0.286
	c5.086-0.057,9.945-0.543,15.003-0.028c2.172,0.229,5.801-0.629,6.144,1.686c0.172,0.972-0.057,2.715,0,3.887
	c0.086,1.515,0.458,1.915,0.314,3.658c-0.485,5.744-0.085,9.773-0.171,15.204c-0.058,2.458,0.543,5.458,0.057,7.259
	c1.486-0.515,1.086-2,0.543-3.658c-0.429-1.372-0.057-2.572-0.114-4.086c-0.171-3.172-0.543-9.117,0.086-12.375
	c1.2-6.059-0.343-2.744-0.314-7.688c0-1.943,0.086-2.543-0.571-4.03c-2.115-0.514-8.573-0.429-11.288-0.514
	c-3.801-0.086-7.974,0.229-11.86,0.257c-1.915,0-3.944-0.343-5.801-0.257c-1.172,0.028-1.686,0.085-2.915,0
	c-1.2-0.057-1.743,0.2-2.886,0.257c-4.63,0.229-9.031-0.314-11.86-0.229c-3.83,0.114-7.745,0.143-11.603,0.229
	c-4.029,0.086-7.888-0.371-11.86-0.2c-7.802,0.372-15.718-0.458-23.491,0.286c-0.171,0.286-0.2,0.486-0.458,0.771
	c-1.6,1.801-0.486-1.029-1.086,3.544c-0.114,1.114,0.2,1.286,0.172,2.543c-0.029,1.143-0.429,1.486-0.343,2.315
	c0.057,0.657,0.343,1.543,0.343,2.515l-0.2,11.317c0.457,7.145,0.314,15.661,0.229,23.034v46.726
	c0.314,3.43,5.573,2.601,8.859,2.629c3.687,0.029,7.974,0.029,11.603-0.085c7.659-0.258,15.575,0.171,23.234,0.028
	c7.716-0.114,15.518-0.058,23.234,0.028c5.515,0.058,12.002-0.2,17.433,0.058l5.058-0.029
	C182.229,185.761,181.857,186.047,182.258,185.533L182.258,185.533z"/>
<path fill-rule="evenodd" clip-rule="evenodd" fill="#A2A1A5" d="M248.215,215.998c-0.657,2.601,0.172,10.088,0.172,13.575
	c0,2.686-0.8,11.803,0.343,13.288c0.515,0.458,28.178,0.115,32.722,0.115c1.771,0,3.887-0.2,5.572-0.144
	c1.601,0.058,3.201,0.229,5.087,0.2c7.345-0.028,14.66,0.028,22.005,0c3.63,0,7.573,0.2,11.146,0.058
	c3.144-0.114,7.744,0.285,10.659-0.2c1.144-1.715,0.543-6.402,0.543-8.974c-0.028-11.774,2.001-7.488-13.231-8.859
	c-1.143-0.114-5.115-0.2-6.173-0.058c-1.086,0.172-1.172,0.515-2.687,0.515c-1.028,0.028-2.114-0.058-3.172-0.028
	c-1.886,0-4.943,0.457-5.173-2.915l0.144-10.774c0.2-1.686-0.629-4.144-0.028-5.63h-0.743c0.6,18.747-2.344,20.005,6.059,19.977
	c1.114-0.028,2.286,0.086,3.4,0.028c1.515-0.057,3.458-1.143,8.802-0.429c3.43,0.457,7.888,0.4,11.859,0.429
	c0.515,1,0.601,14.403,0.115,15.433c-0.601,1.086-3.201,0.8-4.573,0.829h-16.689c-7.344-0.029-14.688-0.029-22.033-0.029
	c-3.972,0-1.886,0.144-5.087-0.371c-0.942-0.172-1.657,0.257-2.486,0.343l-35.493,0.058c-0.686-0.486-0.6-2.43-0.571-3.201
	l0.143-53.385c2.2-0.2,4.602,0.143,6.888-0.114c2.601-0.314,4.029-0.086,6.372,0l10.174,0.143c1.772-0.057,2.115-0.657,2.772,0
	c0.771,0.915,0.028,7.145,0.057,8.831c0.029,1.515,0,3.115-0.028,4.602c0,1.485-0.343,4.115,0.486,4.372
	c-0.029-3.315,0-6.63-0.029-9.917c-0.028-2.457,0.915-7.145-0.229-8.83c-1.429-0.144-1.943,0.457-3.286,0.514l-10.659-0.543
	c-3.144-0.199-4.516,0.2-7.23,0.344c-4.458,0.257-3.544-0.857-6.115,0.771c0.028,1.286,0.371,2.058,0.457,3.372l0.086,19.119
	c0,1.286,0,2.571-0.029,3.857C248.529,213.654,248.758,215.026,248.215,215.998L248.215,215.998z"/>
<path fill-rule="evenodd" clip-rule="evenodd" fill="#726F6F" d="M96.239,152.467c0.028-1.171-0.257-2-0.229-3.486
	c0.057-1.343,0.086-2.515,0.057-3.858c-0.057-2.629,0.286-4.658,0.286-7.259c0-5.029-0.343-9.888-0.2-15.004
	c0.086-2.515,0.457-4.658,0.2-7.258c-0.257-2.486-0.286-4.659-0.229-7.259c0.029-1.6,0.429-9.859,0.172-10.974
	c-0.257-1.114-0.686-2.143,0.314-2.915c1.172-0.486,18.547-0.257,21.291-0.171c2.086,0.086,3.486-0.257,5.315-0.229
	c1.886,0,3.658,0.029,5.573,0c3.458-0.086,7.83,0.572,11.002,0.114c2.315-0.314,8.459-0.257,10.917-0.028
	c3.972,0.343,7.23-0.057,10.974-0.086c3.829-0.028,7.487,0.171,11.117,0.2c2.343,0.057,9.345-0.715,10.916,0.114
	c0.429,0.514,0.086,32.837,0.115,36.237c0.028,2.115,0.742,1.972,0.229,3.744c-0.344,1.114-0.2,23.834-0.2,27.464l0.086,3.344
	c0.343,1.086,0.143,0.485,0.6,0.886c0.086-1.029-0.143-3.115-0.143-4.487c-0.028-1.657,0.285-3.086,0.285-4.315
	c-0.028-0.8-0.229-1.457-0.229-2.2l-0.028-7.03c-0.028-2.086-0.257-11.803,0.343-13.46c0.629-1.744-0.086-2.144-0.314-3.029
	c-0.6-2.372,0.801-35.266-0.399-37.81c-2.001-0.657-5.83-0.229-8.116-0.057l-13.803-0.172c-3.429-0.171-6.287,0.372-10.316,0.086
	c-3.229-0.229-7.945-0.257-11.203-0.143c-1.915,0.057-3.144,0.314-5.315,0.2c-4.086-0.257-8.145,0.086-11.117-0.086
	c-2.115-0.143-3.687,0.257-5.801,0.115c-3.715-0.257-7.573,0.114-11.146,0c-1.457-0.029-4.115-0.286-5.315-0.229
	c-1.029,0.057-1.457,0.286-2.658,0.257c-1.029,0-1.857-0.143-2.886-0.028c-2.086,2.143-0.286,3.029-0.514,6.201
	c-0.086,1.315-0.114,2.601-0.114,3.887c0.028,2.801-1.058,7.573-0.115,11.346c0.772,3.029,0.086,4.63-0.143,7.344
	c-0.486,5.545,0.143,10.175,0.429,15.176c0.171,2.601-0.543,2.715-0.486,7.516v5.745C95.524,151.61,95.753,152.01,96.239,152.467
	L96.239,152.467z"/>
<path fill-rule="evenodd" clip-rule="evenodd" fill="#726F6F" d="M186.744,184.132c0.572-1,0.372-4.058,0.572-5.115
	c1.286-6.145-0.429-6.059-0.114-10.889c0.057-0.743,0.285-1.629,0.314-2.458c0.057-1.057-0.286-1.571-0.258-2.771
	c0.286-1.4-0.229-3.144,0.258-4.572c0.543-1.601,0.828-0.972,0.285-3.973c-0.399-2.229,0.229-2.515,0.086-4.401
	c-0.143-1.972-0.429,0.343-0.515-4.344l0.4-6.859c0.2-1.629-0.2-1.057-0.314-1.943c-0.143-0.942,0.371-1.028,0.515-1.686
	c0.171-0.886-0.258-1.114-0.457-1.801c-0.314-1.086,0.085-1.028,0.229-1.857c0.229-1.258-0.114-0.972-0.372-1.601v-7.259
	c0.486-1.8-0.114-4.801-0.057-7.259c0.086-5.43-0.314-9.459,0.171-15.204c0.144-1.744-0.229-2.144-0.314-3.658
	c-0.057-1.172,0.172-2.915,0-3.887c-0.343-2.315-3.972-1.458-6.144-1.686c-5.059-0.515-9.917-0.029-15.003,0.028
	c-2.83,0.057-4.83-0.2-7.487-0.286c-5.03-0.114-9.831,0.857-15.003,0.429c-2.715-0.229-3.658-0.6-7.259-0.4
	c-6.458,0.429-9.402,0.114-15.489,0c-2.601-0.057-5.144,0.229-7.745,0.229l-14.946-0.143c-0.458,0.086-0.4,0.114-0.515,0.171
	c1.343,0.429,9.431,0.4,11.374,0.372c1.886-0.028,3.401,0.4,5.573,0.229c1.886-0.143,3.458-0.458,5.544-0.429
	c4.029,0.028,6.716,1.057,10.974,0.171c1.372-0.286,1.6,0.028,2.8,0.085c1,0.057,1.915-0.229,2.915-0.314
	c0.915-0.085,1.972-0.057,2.915-0.028c2.058,0.057,1.743,0.028,2.743,0.457c1.372,0.629,9.145,0.486,10.746-0.114
	c3.515-1.314,10.888,1.2,16.918,0.2c3.601-0.6,7.315-0.943,10.945,0.057c1.086,0.286,4.144,0.229,5.658,0.4
	c0.286,2.144,0.229,20.777,0.2,23.092c-0.028,1.972,0.171,3.944,0.143,5.801c-0.028,1.943-0.229,3.715-0.2,5.801
	c0.058,3.887,0.172,7.745,0.144,11.632l0.114,17.204c0.143,1.4-0.258,3.772-0.286,5.544c0,1.943,0.286,3.801,0.172,5.802
	c-0.172,2.229-0.114,3.458,0.085,5.687C187.402,176.473,186.83,180.217,186.744,184.132L186.744,184.132z"/>
<path fill-rule="evenodd" clip-rule="evenodd" fill="#D0D0CE" d="M31.339,134.463c-0.171-2.63,0.743-1.601,0.229-7.259
	c-0.2-2.229-0.286-4.658-0.372-7.002c-0.086-2.372,0.286-4.801,0.343-7.002c0.086-2.572-0.372-5.001-0.057-7.43
	c0.2-0.657,0.257-9.088,0.314-10.488c0.114-3.744-0.114-7.402-0.086-11.146l0.057-16.004c-0.114-0.914-0.057-1.743-0.057-2.629
	c0.029-1.229,0.2-1.829-0.857-1.829c-3.172,0.543-10.517-0.143-11.917,0c-1.572,0.171-8.773-0.114-12.346,0.114
	c-2.744,0.171-4.916,0.657-5.315-1.143c-0.143-0.686-0.086-1.515,0.4-1.8c0.171-0.686,1.343-1.829,1.943-2.401l0.886-0.571
	l7.973-7.745c0.8-0.686,1.8-1.086,2.572-2.314c0.343-0.543-0.029,0.085,0.314-0.572l-0.972-0.086
	c-0.143,0.915-0.029,0.486-0.629,1.115l-1.143,0.886c-2.658,1.258-3.172,3.43-3.858,4.001c-0.457,0.372-0.657,0.458-1.115,0.829
	c-0.2,0.171-0.343,0.286-0.514,0.429c-0.457,0.429-0.229,0.229-0.486,0.486c-0.057,0.028-0.086,0.085-0.143,0.114l-5.572,5.544
	c-0.458,0.601-1.343,2.201-0.715,2.858c0.4,0.4,0.429,0.229,1.172,0.4c0.857,0.2,0.743,0.143,1.372,0.457
	c1.801,0.886,1.143,0.314,2.372-0.286c1.857,0.628,0.6,0.085,2.886,0l12.117,0.028c1.458,0.572-0.372,0.686,2.172,0.657
	c1.286,0,2.572,0.172,3.515-0.286c1.486-0.657,2.629-0.486,4.601-0.343c-0.029,1.172,0.057,2.201,0.028,3.429
	c-0.057,1.4,0.486,1.744,0.458,3.115c0,1.286-0.257,1.886-0.257,3.372l-0.029,10.66c0,1.457-0.486,3.687,0.029,4.772
	c0.429,0.915,1.372,0.314,0.314,2.201c-0.686,1.286-0.257,1.286-0.286,3.429l-0.057,10.66c0.029,1.372,0.314,4.115,0.2,5.001
	c-0.6,4.629-0.257,10.717-0.143,15.318c0,0.914,0,1.771,0,2.686c0,1.486,0.229,1.286,0.314,1.43c0,0.028,0.714-0.458,0,2.486
	C30.51,134.606,31.167,134.349,31.339,134.463L31.339,134.463z"/>
<path fill-rule="evenodd" clip-rule="evenodd" fill="#D0D0CE" d="M96.239,152.467l0.028,1.801c0.286,2.344-0.171,4.716-0.2,7.059
	c-0.028,2.172,0.4,5.545,0.2,7.288c-0.143,1.515-0.314,1.343,0.057,2.943l-0.143,6.973c-0.229,1.772-0.143,2.144,0.543,3.229
	c1.429,0.229,3.944,0.144,5.458,0.086c1.658-0.028,2.858,0.601,5.058,0.601c3.801,0,7.173,0.028,10.888-0.4
	c2.658-0.343,2.515-0.371,4.83,0.229c1,0.286,8.945,0.257,10.402-0.229c1.372-0.429,6.688-0.486,7.859-0.2
	c1.029,0.257,0.943,0.515,2.315,0.571c1.772,0.086,3.744,0,5.573,0c5.973,0.058,6.373-1.314,10.374-0.714
	c1.943,0.285-0.057,0.657,4.858,0.686c1.857,0.028,3.543-0.057,5.372-0.086c2.144-0.085,3.344-0.6,5.03-0.628
	c2.457-0.058,3.601,0.257,5.572,0.514c-0.2-0.6,0.258-0.942-2.4-1c-0.972-0.028-1.972-0.028-2.915-0.028
	c-1.515,0-4.058,0.257-5.516,0.485c-6.801,1.144-7.573-0.343-9.974-0.429c-9.202-0.314-2.915,0.829-10.659,0.857
	c-9.545,0.028-4.201-0.657-7.716-0.828c-0.886-0.058-1.772,0-2.687-0.029c-11.002-0.171-2.858,0.857-10.631,0.886
	c-6.173,0-3.029-0.343-4.916-0.771c-0.972-0.229-4.401-0.143-5.515-0.085c-2.201,0.114-0.629,0.285-2,0.714l-8.402,0.172
	c-2.258-0.114-0.515-0.286-2.058-0.715c-1.829-0.515-6.401,0.172-8.202-0.343c-0.057-3.544,0.029-6.974-0.028-10.546
	c-0.029-1.857,0.086-3.572,0-5.572l0.143-11.117c0.028-1.972-0.257-3.201-0.229-5.344c0-1.858,0-3.716,0-5.545
	c-0.028-2.086,0.229-3.144,0.229-5.087c-0.029-3.715-0.229-7.43-0.172-11.146c0.057-3.601,0.343-7.544,0.143-11.117
	c-0.086-1.915-0.2-3.629-0.171-5.573c0-1.715,0.286-3.658,0.229-5.202c-0.057-1.857-0.028-3.601-0.028-5.458
	c0-1.686-0.229-2.915-0.229-4.916c-1,0.772-0.571,1.801-0.314,2.915c0.257,1.115-0.143,9.374-0.172,10.974
	c-0.057,2.601-0.028,4.773,0.229,7.259c0.257,2.601-0.114,4.744-0.2,7.258c-0.143,5.116,0.2,9.975,0.2,15.004
	c0,2.601-0.343,4.63-0.286,7.259c0.029,1.344,0,2.516-0.057,3.858C95.982,150.467,96.268,151.296,96.239,152.467L96.239,152.467z"/>
<path fill-rule="evenodd" clip-rule="evenodd" fill="#726F6F" d="M248.101,164.099c0.857-0.515,0.4-1.229,0.458-3.001
	c0.114-3.229,0.229-6.345-0.115-9.545c-0.457-4.201,0-7.888,0.144-12.231c0.143-4.201-0.058-8.488-0.229-12.604
	c-0.086-2.314-0.029-4.115,0.143-6.344c0.2-2.172-0.114-4.201-0.229-6.23c-0.2-3.772-0.143-8.974,0.143-12.746
	c0.172-2.515-0.171-3.772-0.2-6.116c0-1.058,0.229-2.258,0.172-3.172c-0.028-1.257-0.4-1.086-0.371-2.886
	c0.028-1.258,0.028-1.886-0.2-3.144c-0.229-1.429-0.058-2-0.086-3.4c-0.028-2.144,0.028-4.315,0.2-6.459l0.457-11.546
	c0.571-2,3.772-0.829,7.173-0.8c2.314,0,4.801-0.286,7.259-0.257c4.801,0.029,9.517-0.029,14.289-0.029
	c0.943-1.343,0.943-1.657,0.171-2.943l-0.229-0.372c-0.429-0.257-1.371-1.686-2.058-1.8c-0.629-0.486-0.629-0.572-1.114-1.115
	c-0.657-0.771-0.257-0.457-1.144-0.8c0.4,1.229,1.601,1.972,2.486,2.858c0.743,0.743,2.258,1.801,2.029,3.144
	c-3.314,0.629-11.889,0.343-15.632,0.343c-2.601,0-4.772,0.628-7.401,0.314c-2.858-0.314-4.858-0.543-6.688,0.829
	c-0.343,5.573-0.2,13.26-0.257,19.119c0,2.314,0.199,4.086,0.199,6.287c0,2.086-0.028,4.258,0,6.316
	c0.029,1.8,0.344,1.714,0.486,2.658c0.229,1.4-0.371,1.257-0.4,2.886c-0.114,4.315-0.114,8.774-0.028,13.089
	c0.028,2.344,0.829,3.201,0.371,5.745c-0.285,1.515-0.399,8.059-0.229,9.431c0.114,0.886,0.4,1.571,0.486,2.943
	c0.114,1.972,0.143,4.601,0.028,6.544c-0.2,3.772-1.086,7.631-0.314,12.232C248.415,154.497,248.358,160.841,248.101,164.099
	L248.101,164.099z"/>
<path fill-rule="evenodd" clip-rule="evenodd" fill="#726F6F" d="M148.851,185.104c-0.686-0.629-1.429-0.571-2.4-0.543l-7.03,0.515
	c-4.43-0.114-14.86-1.114-18.604-0.515c-5.287,0.886-12.374-0.771-17.89,0.258c-1.314,0.257-7.316,0.199-8.602-0.458
	s-0.943-2-0.972-3.687v-14.032c-0.028-3.172-0.085-6.487,0.086-9.659c0.257-5.059-0.2-5.83-0.143-8.717
	c0.2-12.316-0.143-24.948,0.029-37.266c0.028-3.801-0.486-16.033,0.229-18.776c2.343-0.972,2.201,0.143,3.772-1.057l0.257-0.229
	c-2.143-0.371-3.543,0.314-4.629,1.144c-0.429,3.429,0.028,14.032-0.171,19.147c-0.114,2.943,0.143,6.059,0.114,9.202
	c-0.057,5.602-0.257,18.891-0.029,23.949c0.086,1.771-0.229,2.686-0.171,4.372c0.086,1.601,0.458,2.829,0.4,4.602
	c-0.029,1.485-0.143,3.058-0.2,4.572l-0.029,19.119c-0.028,3.943-0.6,6.887,1.458,8.059c1.086,0.601,7.602,0.543,9.259,0.314
	c6.001-0.857,13.117,0.629,17.833-0.257c2.858-0.515,6.258,0.114,9.288,0c2.772-0.086,5.887,0.371,8.974,0.429
	c1.857,0.028,2.772-0.286,4.344-0.372C145.621,185.132,147.279,185.19,148.851,185.104L148.851,185.104z"/>
<path fill-rule="evenodd" clip-rule="evenodd" fill="#726F6F" d="M184.115,181.904c-1.058,0.285-2.743,0.771-3.801,0.285
	c-1.972-0.257-3.115-0.571-5.572-0.514c-1.687,0.028-2.887,0.543-5.03,0.628c-1.829,0.029-3.515,0.114-5.372,0.086
	c-4.916-0.028-2.915-0.4-4.858-0.686c-4.001-0.601-4.401,0.771-10.374,0.714c-1.829,0-3.801,0.086-5.573,0
	c-1.372-0.057-1.286-0.314-2.315-0.571c-1.171-0.286-6.487-0.229-7.859,0.2c-1.458,0.485-9.402,0.515-10.402,0.229
	c-2.314-0.6-2.172-0.571-4.83-0.229c-3.715,0.429-7.087,0.4-10.888,0.4c-2.2,0-3.4-0.629-5.058-0.601
	c-1.515,0.058-4.029,0.143-5.458-0.086c-0.686-1.086-0.771-1.457-0.543-3.229l0.143-6.973c-0.372-1.601-0.2-1.429-0.057-2.943
	c0.2-1.743-0.229-5.116-0.2-7.288c0.029-2.343,0.486-4.715,0.2-7.059c-0.743,0.829-0.372,2.144-0.486,3.4
	c-0.4,4.659,0.086,9.432-0.143,11.146c-0.257,2.058-0.428,1.114,0.229,3c0.543,1.572-0.4,1.887-0.143,3.458
	c0.543,3.258-1.257,4.944,0.486,6.773c1.143,1.172,5.03,0.371,6.916,0.515c2.486,0.2,4.944,0.085,7.516,0.257
	c1.829,0.114,5.516-0.057,7.459-0.172c3.229-0.199,11.745,0.458,14.717,0.029c5.001-0.687,8.374,0.2,10.945,0.086
	c3.944-0.172,7.059,0.143,11.374-0.258c2.915-0.257,4.772,0.372,7.259,0.229c2.486-0.114,5.258-0.028,7.773-0.028
	c2.457,0,4.687-0.286,7.258-0.229c2.059,0.057,2.401,0.543,5.545,0.286C184.229,182.646,183.887,182.704,184.115,181.904
	L184.115,181.904z"/>
<path fill-rule="evenodd" clip-rule="evenodd" fill="#4D4B49" d="M248.215,215.998c0.543-0.972,0.314-2.344,0.314-3.63
	c0.029-1.286,0.029-2.571,0.029-3.857l-0.086-19.119c-0.086-1.314-0.429-2.086-0.457-3.372c2.571-1.629,1.657-0.515,6.115-0.771
	c2.715-0.144,4.087-0.543,7.23-0.344l10.659,0.543c1.343-0.057,1.857-0.657,3.286-0.514c1.144,1.686,0.2,6.373,0.229,8.83
	c0.029,3.287,0,6.602,0.029,9.917c0.856,3.115,7.772,1.258,10.316,1.886c1.114,0.258,9.173,0.458,10.573,0.258
	c1.058-0.172,0.601-0.372,1.515-0.629c1.543-0.429,1.972,0.429,3.801,0.457c3.344,0.029,1.429-0.314,3.63,0.515h0.743l-0.344-0.914
	c-2.343-0.829-2.629-0.2-4.943-0.543c-3.287-0.458-2.4,0.028-4.858,0.371c-2.344,0.343-8.116-0.2-10.26-0.429
	c-2.372-0.257-8.201,0.686-9.459-0.857c-0.886-1.058-0.371-12.574-0.229-15.146c0.086-1.543,0.857-2.915-0.371-3.829
	c-1.172-0.887-2.715,0.257-4.087,0.199c-1.486-0.085-3.001-0.457-4.63-0.457c-3.458,0-7.259-0.229-10.659-0.028
	c-1.829,0.114-3.058,0.314-5.087,0.143c-5.344-0.429-3.229,2.943-3.058,4.688c0.143,1.285-0.086,2.571-0.028,3.915L248.215,215.998z
	"/>
<path fill-rule="evenodd" clip-rule="evenodd" fill="#726F6F" d="M339.207,224.228c-0.086-2.086-2.572-1.601-6.459-1.601
	l-16.203-0.028c-1.372,0.028-2.744,0.028-4.115,0.058c-6.459,0.143-1.658-4.087-3.287-12.832c-0.371-1.915,0.172-4.344-0.2-6.059
	c-0.485-2.058-3.029-1.144-5.001-1.286c-4.001-0.314-7.944,0.371-12.06-0.2c-1.829-0.257-7.459,0.429-12.003,0.2
	c-0.571-1.687-1.229-0.571-1.086-4.373c0.2-4.743,0.314-8.345-0.057-13.089c-0.086-1.285,0.057-1.515-0.972-2.114
	c0.114,2.058,0.743,3.344,0.743,6.001c-0.029,14.489-1.486,13.89,4.4,13.946c2.544,0.029,24.377-0.143,24.863,0.144
	c1.057,1.028,0.914,2.829,0.857,4.544c-0.086,2.2,0.485,6.772,0.114,9.916c-0.2,1.658-0.344,3.401,0.171,4.973
	c1,1.258,22.605,0.344,27.463,0.601C338.692,223.142,338.178,223.428,339.207,224.228L339.207,224.228z"/>
<path fill-rule="evenodd" clip-rule="evenodd" fill="#D0D0CE" d="M264.361,60.13c0.801,1.058,3.944,0.715,5.83,1l1.572,0.114
	c1.314-0.257,1-1.458,0.428-2.201c-0.514-0.6-0.657-0.343-1.028-1.343c-1.114,0.028-1.343-0.8-1.972-1.458
	c-0.572-0.601-1.229-1.144-1.658-1.972l-4.515-4.43c-0.028-0.028-0.429-0.257-0.457-0.286c-1.4-0.886-2.572-2.972-3.43-3.83
	c-0.771-0.743-2.372-2.115-2.715-2.858c-1.144-0.229-2.372-1.458-3.058-2.258l-1.172-0.829c0.371,1.086,0.429,0.657,1.114,1.658
	c0.429,0.657,0.486,0.686,1.2,1.2c0.372,0.257,1.115,0.743,1.372,1.029l0.886,1.058c0.028,0,0.343,0.286,0.4,0.314
	c1.972,1.801,4.772,5.602,6.173,6.373c1.771,0.972,0.771,0.314,1.457,1.257l1.743,1.886c0.286,0.314,0.058,0.057,0.372,0.343
	l4.772,4.658c0.714,0.771,0.371-0.314,0.514,0.886L264.361,60.13z"/>
<path fill-rule="evenodd" clip-rule="evenodd" fill="#A2A1A5" d="M186.744,184.132c-0.628,1.029-3.857,0.486-5.058,0.829
	c-2.486,0.657-3.087,0.229-5.487,0.143c-3.857-0.171-8.23-0.229-12.088-0.2c0.658,0.715-0.771,0.286,1.201,0.601l16.946,0.028
	c4.115,0.286,5.059,0.2,5.115-2.4c0.058-3.43,1.344-5.973,0.687-10.889c-0.172-1.172-0.657-1.943-0.629-3.172
	c0-1.801,1.2-2.743,0.543-4.973l-0.715-1.2c-0.028,1.2,0.314,1.715,0.258,2.771c-0.029,0.829-0.258,1.715-0.314,2.458
	c-0.314,4.83,1.4,4.744,0.114,10.889C187.116,180.075,187.316,183.132,186.744,184.132L186.744,184.132z"/>
<path fill-rule="evenodd" clip-rule="evenodd" fill="#726F6F" d="M252.816,36.296c-0.114-1.086-0.657-1.172-2.344-2.944
	L240.042,22.95c-0.028-0.029-0.086-0.086-0.114-0.115l-8.145-8.03c-0.829-0.714,0.114-0.314-1.144-0.657
	c0.771,1.715,3.687,3.972,5.459,5.744l4.001,4.229c0.571,0.543,0.828,0.715,1.543,1.372c2.886,2.458,5.144,5.973,8.259,8.145
	C250.93,34.381,251.53,35.953,252.816,36.296L252.816,36.296z"/>
<path fill-rule="evenodd" clip-rule="evenodd" fill="#D0D0CE" d="M31.511,30.923c1.915-1.029,3.4-2.858,4.887-4.344l13.174-13.346
	c-1.086,0.2-0.772,0.143-2.029,1.257l-1.915,1.972c-0.943,0.771-1.029,0.457-1.629,0.829c-0.8,0.515-0.314,0.343-0.629,1
	c-0.314,0.601-1.114,1.201-2.029,2.315l-1.601,1.572c-0.028,0.057-0.057,0.114-0.085,0.143l-1.686,1.715
	c-0.772,0.829-1.172,1.086-1.629,1.857c-0.857-0.2-0.2-0.314-1.2-0.4l-3.086,4.458C31.454,30.666,31.825,29.352,31.511,30.923
	L31.511,30.923z"/>
<path fill-rule="evenodd" clip-rule="evenodd" fill="#A2A1A5" d="M30.854,63.674c-0.143-0.2,0.057-0.572-1.486-0.629
	c-2.258-0.085-4.287,0.286-6.087,0.286c-1.686,0.028-2.572-0.458-3.601-0.429c-1.257,0.057-2.257,0.229-3.886,0.2
	c-2.344-0.028-6.001-0.2-8.202,0.029c-5.458,0.629-5.858,0.429-5.916-2.286c-0.486,0.286-0.543,1.114-0.4,1.8
	c0.4,1.8,2.572,1.314,5.315,1.143c3.572-0.229,10.774,0.057,12.346-0.114C20.337,63.531,27.681,64.217,30.854,63.674L30.854,63.674z
	"/>
<path fill-rule="evenodd" clip-rule="evenodd" fill="#4D4B49" d="M49.543,13.119l0.029,0.114L36.397,26.58
	c-1.486,1.486-2.972,3.315-4.887,4.344l-1.858,2c-0.457,0.429-1.714,1.343-2.029,1.858l-0.515,1.086
	c0.857-0.286,3.258-2.658,3.629-3.058l0.343-0.429c0.114-0.171,0.257-0.343,0.286-0.372l2.687-2.429
	c0.6-0.771,0.886-0.743,1.657-1.486l4.801-5.116c0.514-0.571,0.114-0.2,0.743-0.714l2.486-2.572
	c2.886-3.058,6.173-6.001,9.431-8.745c0.886-0.715,0.429-0.086,0.829-1.144C52.629,10.232,51.086,12.405,49.543,13.119
	L49.543,13.119z"/>
<path fill-rule="evenodd" clip-rule="evenodd" fill="#A2A1A5" d="M28.167,38.611c0.686-0.171,0.771-0.4,1.257-0.8l1.429-1.229
	c1.086-0.915,0.971-1.543,2.172-1.943c0.914-0.714,1.686-1.715,2.658-2.972c1.6-2.029,1.143-0.4,2.314-1.972
	c0.429-0.571,0.314-0.486,0.829-0.915c1.029-0.771,0.686-0.485,1.514-1.372c0.515-0.571,0.943-1.057,1.486-1.658
	c0.972-1,2.458-2,3-3.315L43.97,22.55c-0.343,0.772-3.343,3.373-4.801,4.858l-4.086,3.944
	C32.968,34.267,29.139,36.725,28.167,38.611L28.167,38.611z"/>
<path fill-rule="evenodd" clip-rule="evenodd" fill="#D0D0CE" d="M49.543,13.119c1.543-0.714,3.086-2.887,4.458-3.315
	c0.143-0.771,1.343-1.515,1.601-1.743l3.401-4.086c0.8-0.886,1.458-1.029,1.886-2.201l-0.943,0.028
	c-0.114,0.2-0.343,0.6-0.457,0.715l-2.658,2.486c-1.886,0.915-1.029,0.886-1.915,1.886c-0.857,1-0.257-0.257-1.286,1.572
	l-1.172,1.314c-1.515,1.115,0.057,0.457-2.744,2.286L49.543,13.119z"/>
<path fill-rule="evenodd" clip-rule="evenodd" fill="#726F6F" d="M263.962,182.389h-8.888c-0.829-0.2,0.114-0.171-0.829-0.543
	c-0.715-0.286-2.887-0.114-3.772-0.114c-2.715,0-1.943-0.543-1.886-9.745l0.028-2.43c-0.257-1.057,0-0.429-0.429-0.857
	c-0.114,2.201,0.028,4.459,0.058,6.659c0.028,2.144-0.486,4.887,0.285,6.773c0.657,0.686,11.317,0.543,13.574,0.657
	C264.219,182.875,263.762,182.618,263.962,182.389L263.962,182.389z"/>
<path fill-rule="evenodd" clip-rule="evenodd" fill="#D0D0CE" d="M55.688,11.461c-0.572,0.114-1.486,1.229-1.972,1.743
	c-0.514,0.572-1.6,1.515-1.772,1.886c-0.114,1,0.058,0.714-1.8,2.287l-0.4,0.343c-1.857,1.486-2.058,2.086-2.687,2.601
	c-0.543,0.486-0.371,0.143-0.914,0.8c-0.257,0.314-0.486,0.657-0.829,1.086c-0.057,0.085-1.114-0.4,0.229,0.429
	c1.058-0.4,0.143-0.486,1.829-1.772l0.515-0.429c0.429-0.486,0.057-0.686,1.572-1.829l7.316-7.173c0.771-0.886,1.314-0.8,1.6-1.915
	l-0.886,0.657c-0.029,0.029-0.086,0.086-0.114,0.114c-0.029,0.058-0.057,0.115-0.114,0.143C56.602,11.176,56.43,11.29,55.688,11.461
	L55.688,11.461z"/>
<path fill-rule="evenodd" clip-rule="evenodd" fill="#D0D0CE" d="M262.818,46.384c1.372,0.143,2.601,2.629,4.058,3.029
	c-0.114-0.714-0.199-0.771-1.543-2.143l-1.314-1.115c-0.028-0.029-0.086-0.086-0.114-0.143c-0.028-0.028-0.086-0.085-0.114-0.143
	c-0.8-0.943-0.058-0.229-1.086-0.772c-0.601-0.343-0.371-0.286-0.743-0.743c-0.057-0.057-0.086-0.115-0.114-0.143l-3.344-3.401
	c-0.629-0.743-0.6-1.172-1.686-0.714c0.628,1.629,0.229,0,2.143,2.4c0.172,0.229,0.629,0.629,0.857,0.857L262.818,46.384z"/>
<path fill-rule="evenodd" clip-rule="evenodd" fill="#726F6F" d="M247.329,34.696c0.629,0.343,1.829,1.915,2.43,2.515
	c0.313,0.343,0.972,0.943,1.371,1.258c0.571,0.429,1.029,0.628,1.058,1.314l1.172,0.829c0.686,0.8,1.914,2.029,3.058,2.258
	l-8.459-8.888c-0.629-0.6,0-0.2-0.743-0.515L247.329,34.696z"/>
<path fill-rule="evenodd" clip-rule="evenodd" fill="#D0D0CE" d="M28.167,38.611c-0.543,0.372-1.2,1.315-1.743,1.915
	c-0.458,0.771-0.343,0.686-0.886,1.143c-0.8,0.657-0.486,0-0.8,1.143c1.286-0.657,0.714-1.172,1.915-1.058
	c0.943,0.058,0.543,0.857,1.8,0.143c-0.057-0.085-0.486-0.257-0.743-0.829c0.4-0.714,0.6-0.257,1.114-1.658
	c0.572-1.572,0.515-1.314,1.257-1.743c1.058-0.6,2.572-1.857,2.944-3.029c-1.201,0.4-1.086,1.029-2.172,1.943l-1.429,1.229
	C28.938,38.211,28.853,38.439,28.167,38.611L28.167,38.611z"/>
<path fill-rule="evenodd" clip-rule="evenodd" fill="#A2A1A5" d="M12.135,54.386l-0.686,1c-0.886,0.886-1.943,1.429-2.572,2.486
	c1.857-0.229,1.4-0.829,2.429-1.658c0.714-0.572,0.4-0.171,1.029-0.915c1.172-1.458,4.515-3.83,4.687-5.744
	c-0.743,0.343-0.143-0.114-0.886,0.6L12.135,54.386z"/>
<path fill-rule="evenodd" clip-rule="evenodd" fill="#726F6F" d="M236.955,24.179c1.001,0.4,0.687,0.515,1.286,1.086
	c0.715,0.686,0.229,0,0.972,0.857s1.314,1.258,1.887,2.258l0.057,0.286c1.086,0.515,2.572,2.372,3.458,3.287
	c1.429,1.486,1.543,1.543,2.601,1.515c-0.028-0.057-0.086-0.2-0.114-0.143c0,0.028-0.086-0.115-0.114-0.143
	c-0.629-0.572-1.687-1.229-2.486-2.144l-4.572-4.772c-0.257-0.257-0.058-0.029-0.372-0.4c-0.8-0.915-1.8-2.201-3.028-2.601
	C236.87,24.236,236.241,23.379,236.955,24.179L236.955,24.179z"/>
<path fill-rule="evenodd" clip-rule="evenodd" fill="#A2A1A5" d="M270.334,53.586c0.572,0.372,0.857,0.829,1.2,1.515
	c0.629,1.258,0.314,0.658,1.2,1.458c0.887,0.343,0.486,0.029,1.144,0.8c0.485,0.543,0.485,0.629,1.114,1.115l-0.114-0.915
	c-1.571-0.943-0.6-1.172-1.857-2c-0.943-0.6-0.515,0.143-1.028-0.915c-1.115-2.343-1.687-1.658-2.772-3.029
	c-0.485-0.6-0.286-0.6-0.829-1.115l-1.515-1.086c0.029,0.915,0.144,0.629,0.801,1.286c0.028,0.028,0.086,0.086,0.114,0.114
	c0.057,0.057,0.171,0.229,0.229,0.286L270.334,53.586z"/>
<path fill-rule="evenodd" clip-rule="evenodd" fill="#A2A1A5" d="M15.45,47.271c0.086-0.057,0.172-0.2,0.2-0.143
	c0.029,0.057,0.143-0.086,0.171-0.114l2.086-1.886c1.229-1.486,6.173-5.63,6.744-7.059c-0.714,0.086-0.6-0.343-0.628,0.172
	c-0.058,0.028-0.143,0.028-0.172,0.143l-7.116,7.03c-0.771,0.771,0.086,0.429-1.171,0.972L15.45,47.271z"/>
<path fill-rule="evenodd" clip-rule="evenodd" fill="#A2A1A5" d="M55.688,11.461c0.743-0.171,0.914-0.286,1.572-1.029
	c0.057-0.028,0.085-0.085,0.114-0.143c0.028-0.028,0.085-0.085,0.114-0.114l0.886-0.657c0.286-1.114,1.372-1.543,2.229-2.286
	c0.4-0.343,0.572-0.629,1.058-1.115c0.657-0.657,0.8-0.628,0.943-1.714l-1.086,0.886c-1.314,1.343-1.314,0.915-2.772,2.315
	L55.688,11.461z"/>
<path fill-rule="evenodd" clip-rule="evenodd" fill="#A2A1A5" d="M45.028,22.207h0.286c0.343-0.429,0.572-0.771,0.829-1.086
	c0.543-0.657,0.371-0.314,0.914-0.8c0.629-0.515,0.829-1.115,2.687-2.601l0.4-0.343c1.858-1.572,1.686-1.286,1.8-2.287
	c-1.343,0.171-5.401,5.544-6.772,6.23L45.028,22.207z"/>
<path fill-rule="evenodd" clip-rule="evenodd" fill="#A2A1A5" d="M20.422,46.384c0.714,0.257,0.829-0.343,2.4-1.657
	c0.515-0.429,1.772-1.343,1.915-1.915c0.314-1.143,0-0.486,0.8-1.143c0.543-0.458,0.429-0.372,0.886-1.143
	c-0.915,0.085-1.372,0.8-1.829,1.4c-0.486,0.628-0.886,0.972-1.4,1.458C22.452,44.098,20.651,45.47,20.422,46.384L20.422,46.384z"/>
<path fill-rule="evenodd" clip-rule="evenodd" fill="#D0D0CE" d="M247.329,34.696l-0.114-1.229
	c-1.058,0.029-1.172-0.028-2.601-1.515c-0.886-0.915-2.372-2.772-3.458-3.287c-0.028,1.458,0.086,0.343,0.829,1.372
	c1.2,1.6-0.229-0.086,1.715,1.6c1.429,1.258,1.286,1.429,1.886,2.287c0.4,0.571,0.058,0.4,0.886,0.514
	C246.844,34.839,246.187,34.61,247.329,34.696L247.329,34.696z"/>
<path fill-rule="evenodd" clip-rule="evenodd" fill="#726F6F" d="M270.334,53.586L268.02,51.1c-0.058-0.057-0.172-0.229-0.229-0.286
	c-0.028-0.028-0.086-0.086-0.114-0.114c-0.657-0.657-0.771-0.372-0.801-1.286c-1.457-0.4-2.686-2.886-4.058-3.029
	c0.4,0.771,0,0.114,0.343,0.6c0.657,0.915,2.4,2.315,3.315,3.058C268.048,51.329,268.477,52.958,270.334,53.586L270.334,53.586z"/>
<path fill-rule="evenodd" clip-rule="evenodd" fill="#D0D0CE" d="M208.235,140.436c1.4,0.172,1.086-0.028,1.943-0.515
	c0.057-1.2,0.199-1.943-1.286-1.8C207.492,138.236,207.978,139.522,208.235,140.436L208.235,140.436z"/>
<path fill-rule="evenodd" clip-rule="evenodd" fill="#4D4B49" d="M227.182,10.576l-1.143-1.372
	c-0.486-0.628-0.829-0.886-1.258-1.458c-0.743-0.972-1.829-1.829-2.943-2.372c0.058,1.915,0.257-0.086,2.486,2.857l1.829,1.772
	C226.639,10.49,226.324,10.347,227.182,10.576L227.182,10.576z"/>
<path fill-rule="evenodd" clip-rule="evenodd" fill="#726F6F" d="M256.817,40.097l-0.029-0.714c-1-0.486-1.171-0.8-1.828-1.572
	c-1.344-1.486-1.4-1.515-2.144-1.515c0.028,0.057,0.057,0.085,0.086,0.2l3.4,3.515C256.303,40.697,256.188,40.097,256.817,40.097
	L256.817,40.097z"/>
<path fill-rule="evenodd" clip-rule="evenodd" fill="#726F6F" d="M16.85,49.642c0.857-0.114,1.372-1.029,1.886-1.543
	c0.771-0.8,1.229-0.486,1.686-1.715l-0.8-0.028c-0.6,0.915-1.6,1.515-2.229,2.172C16.679,49.299,16.993,48.642,16.85,49.642
	L16.85,49.642z"/>
<path fill-rule="evenodd" clip-rule="evenodd" fill="#A2A1A5" d="M241.1,28.38c-0.572-1-1.144-1.4-1.887-2.258
	s-0.257-0.171-0.972-0.857c-0.6-0.571-0.285-0.686-1.286-1.086l0.2,0.4c0.601,1.086,0.687,0.886,1.601,1.857
	C239.356,27.094,240.328,28.037,241.1,28.38L241.1,28.38z"/>
<path fill-rule="evenodd" clip-rule="evenodd" fill="#726F6F" d="M271.163,57.702c-0.058-0.058-0.114-0.2-0.114-0.143
	c-0.028,0.028-0.086-0.114-0.114-0.143c-0.028-0.028-0.086-0.114-0.114-0.143c-0.114-0.143-0.343-0.372-0.457-0.486l-1.658-1.744
	c-0.571-0.743-0.086-0.457-1.172-0.771c0.429,0.829,1.086,1.372,1.658,1.972C269.82,56.901,270.049,57.73,271.163,57.702
	L271.163,57.702z"/>
<path fill-rule="evenodd" clip-rule="evenodd" fill="#726F6F" d="M1.675,60.845c0.943-0.172-0.343,0.8,1.572-1.115
	c1.2-1.2,1.029-0.886,1.258-1.857l-0.886,0.571C3.019,59.016,1.847,60.159,1.675,60.845L1.675,60.845z"/>
<path fill-rule="evenodd" clip-rule="evenodd" fill="#A2A1A5" d="M25.423,37.411c0.972-0.171,1.115-1.029,1.686-1.543l0.515-1.086
	c-0.886,0.343-0.657,0.171-1.2,0.743c-0.429,0.486-0.572,0.6-0.829,1.2C25.224,36.954,25.566,36.725,25.423,37.411L25.423,37.411z"
	/>
</svg>
