<?xml version="1.0" encoding="utf-8"?>
<!-- Generator: Adobe Illustrator 15.0.0, SVG Export Plug-In  -->
<!DOCTYPE svg PUBLIC "-//W3C//DTD SVG 1.1//EN" "http://www.w3.org/Graphics/SVG/1.1/DTD/svg11.dtd" [
	<!ENTITY ns_flows "http://ns.adobe.com/Flows/1.0/">
]>
<svg version="1.1"
	 xmlns="http://www.w3.org/2000/svg" xmlns:xlink="http://www.w3.org/1999/xlink" xmlns:a="http://ns.adobe.com/AdobeSVGViewerExtensions/3.0/"
	 x="0px" y="0px" width="275px" height="307px" viewBox="0 0.668 275 307" enable-background="new 0 0.668 275 307"
	 xml:space="preserve">
<defs>
</defs>
<path fill-rule="evenodd" clip-rule="evenodd" fill="#F5853E" d="M186.236,244.259l-0.457,0.771
	c-1.771,2.944-2.543,1.172-5.602,1.829l-46.581-0.028c-3.915,0-7.487-0.371-11.374-0.143c-1.2,0.086-1.572-0.172-2.744,0
	c-2,0.285-6.43,0.086-8.659,0.086c-6.259,0-6.373-1.687-10.345-0.2c-1.229,0.485-4.144,0.257-5.63,0.2
	c-1.143-0.029-0.943,0.057-1.829-0.515c-0.057-0.058-0.229-0.172-0.286-0.2c-1.343-1-0.372-0.943-1.572-1.458
	c-0.372-3-2-5.087-0.771-6.372c0.028-0.029,0.085-0.086,0.114-0.086c1-0.943-0.343,0.571,0.372-0.314l0.171-28.293
	c0-5.744-0.743-2.4-0.915-4.858c-0.229-2.915,0.829-6.973,0.886-7.716c0.029-0.943,0.029-1.972,0-2.915
	c-0.057-3.83-0.486-2.286-0.4-4.573c0.143-3.657-0.886-6.059,0.143-10.603c0.743-3.2-0.343-12.488,0.114-17.032
	c0.371-3.772-0.6-9.174,1.257-10.403c1.086-0.714,41.638,0.2,46.525-0.114c1.114-0.085,1.828,0.114,2.914,0.114
	c0.972,0,1.887-0.2,2.915-0.2l11.603,0.257c1.943,0,3.858-0.2,5.802-0.2c4.001,0.028,7.573-0.057,11.631,0.2
	c3.715,0.229,8.059-0.371,11.603,0.114c1.687,2.258,1.314,1.144,1.343,4.201c0.029,1.943,0.2,4.229,0.172,6.059
	c0,1.029,0.028,1.887,0.058,2.629c0.057,2.144-0.344,6.06-0.2,8.745c0.343,7.859-0.058,15.805,0.057,23.721
	c0.086,3.943,0.2,7.916-0.028,11.831c-0.314,5.573,0.229,16.833,0.028,23.721c-0.057,1.257,0.2,9.859,0,10.888
	c-0.343,1.572,0.4-1.172-0.143,0.429c-0.028,0.086-0.058,0.172-0.086,0.229C186.294,244.116,186.266,244.202,186.236,244.259
	L186.236,244.259z M243.449,282.354v-1.687c-1.144-0.943,0.086-7.002-0.629-9.631c-0.371-1.429-0.371-8.23-0.086-9.859
	c0.286-1.372-0.114-3.059-0.143-4.716c0-0.857,0.143-1.715,0.143-2.2c0.029-0.601-0.2-1.544-0.2-2.4
	c0.029-1.772,0.601-2.486,0.429-4.544c-0.114-1.001-0.028-0.144-0.229-0.857c-0.571-2.172,1.058-8.631,0.058-12.89
	c-0.857-3.572,0.2-13.403,0-14.746c-0.457-3.172-0.143-11.432-0.114-15.09c0-1.657-0.172-3.172-0.144-4.858
	c0.029-1.6,0.2-3.515,0.2-4.801c0-0.829-0.314-1.229-0.143-2.2c0.172-1.001,0.686-0.886,0.629-2.201
	c-0.058-1.371-1.058-1.257-0.915-4.001c0.344-6.658,0-13.518,0.429-19.947c0.086-1.658-0.285-2.943-0.285-4.83v-10.174
	c-0.029-1.8,0.314-3.144,0.229-4.83c-0.172-3.258-0.314-6.43-0.229-9.917c0.085-2.572,0.257-7.745-0.029-10.117
	c-1.6-0.629-10.287-0.028-12.773-0.085c-4.516-0.115-9.06-0.115-13.546-0.057c-3.858,0.085-9.603,0.343-13.289-0.058
	c-1.114-0.114-1.515-0.514-2.687-0.657c-2.086-0.229-2.257,0.314-2.886,0.543c-0.915,0.314-11.488,0.257-13.089,0.143
	c-1.143-0.086-1.801-0.372-2.715-0.6c-2.687-0.657-5.287,0.314-6.259,0.429c-1.485,0.2-2.771-0.972-5.286-0.429
	c-1.458,0.314-0.114,0.657-3.658,0.629c-1.829-0.029-4.344-0.229-5.83-0.572c-2.972-0.686-9.974-0.029-13.003,0.343
	c-4.144,0.458-1.657-0.429-4.115-0.4l-14.774-0.143c-4.487-0.085-9.059,0.143-13.546,0.057c-4.401-0.057-8.945-0.143-13.317,0.029
	c-4.486,0.143-9.03-0.229-13.545,0c-4.201,0.2-9.088,0.057-13.317-0.029l-26.863,0.057c-4.372,0.143-9.002-0.229-13.289,0.029
	c-0.514,1.286-0.4,40.267-0.257,44.754c0.257,7.259,0,15.175-0.029,22.52c-0.028,7.573,0.029,15.146,0,22.749
	c0,3.629,0.286,7.573,0.086,11.116c-0.143,2.486-0.314,26.607,0.143,27.778c0.515,1.315,0.657-0.057,0.629,2.201
	c0,0.972,0,1.943,0,2.915c0.028,2.972,0.2,26.035-0.171,27.893c-0.4,2.114-0.515-0.086-0.657,2.086
	c-0.286,4.087,0.6,3.144,0.8,4.687c0.114,0.801,0,2.001,0,2.858c0.029,1.972,0.057,3.943,0.086,5.916
	c8.545,0.114,17.518,0.343,26.206,0.085c3.43-0.085,10.145-0.371,13.289,0.058c1,0.143,1.601,0.6,2.658,0.515
	c0.915-0.086,1.658-0.515,2.915-0.572c6.43-0.285,14.26,0.486,19.862,0.172c4.344-0.257,9.002-0.372,13.317-0.028
	c4.086,0.314,17.118-0.629,19.662,0.085c1.6,0.486,0.571,0.687,2.658,0.429c1.085-0.143,2.229-0.085,3.315-0.114
	c4.029-0.114,8.545-0.743,12.546-0.371c0.886,0.086,1.886,0.371,2.715,0.429c1.286,0.086,1.943-0.114,3.2,0.086
	c1.543,0.2,1.829-0.144,3.087-0.172c1.143-0.028,1.857,0.343,3.058,0.172c2.114-0.286,4.058-0.172,6.173,0.057c2,0.2,4.63,0,6.744,0
	c4.087,0.028,9.402,0.4,13.317,0.144c1.028-0.058,1.657-0.4,2.829-0.258c1.114,0.114,1.743,0.314,3.2,0.172
	c2.087-0.2,4.201-0.2,6.545-0.2c4.258,0,2.486,0.028,6.029,0.314c2.258,0.171,4.516-0.144,6.773-0.144
	c4.344-0.028,8.888,0.115,13.06,0.029c13.746-0.314,14.146,2.028,14.261-4.373c0.057-2.172,0.343-3.458,0.314-5.602
	c-0.029-1.543-0.801-4.572-0.515-6.744c0.172-1.258,0.172-0.4,0.314-1.086c0.171-0.743-0.2-1.771-0.086-2.801L243.449,282.354z"/>
<path fill-rule="evenodd" clip-rule="evenodd" fill="#F1BC6B" d="M119.536,20.318l-0.829,0.571c-0.2,1.172-0.2,0.743-1.086,1.601
	c-0.6,0.543-0.915,0.886-1.829,0.857l-0.372,0.286c-0.514,1.086-0.514,0.886-1.114,1.4c-0.4,0.372-0.6,0.714-0.829,1.057h-0.743
	c-0.029,1.201-0.343,0.629-2.058,2.287c-1.829,1.743-2.629,2.801-4.601,3.858l-6.573,6.03c-1,0.943-3.086,3.515-4.573,3.658
	c-0.143,1.144-2.4,3.115-3.429,3.315c0.114,0.8-0.6,1.257-1.6,2.058c-0.714,0.571-1.086,1.286-1.658,1.714
	c-0.514,0.372-0.8,0.372-1.257,0.743l-6.258,5.773c-1.4,1.058-2.486,2.858-3.944,2.829l-0.057,0.915
	c-0.429,0.257-0.458,0.086-1.172,0.8c-1.686,1.715-1.229,0.943-2.658,2.372l-2.658,2.429c-0.514,0.486-0.314,0.4-1.114,0.629
	l-0.057,1.6c-2.258,0.029-0.943,0.029-2.172,0.972l-4.887,4.058c-1.943,2.058-1.657,1.258-2.257,1.858l-1.629,1.771
	c-2.086,1.629-1.915,1.943-2.601,1.715c-0.4,0.943-0.657,0.686-1.429,1.286c-0.972,0.743-0.4,1.029-2.715,2.601
	c-1.857,1.229-1.343,0.972-2.743,2.343l-2.515,2.543c-2.314,2.401-0.829,0.829-2.772,2.315c-3.229,2.543-3.601,2.744-6.659,5.944
	c-0.714,0.743-2.115,2.144-3.172,2.115c-0.572,0.143-0.915,0.572-1.286,0.943l-0.057,0.886c-1.343,0.572-1.572,1.515-2.286,2.058
	c-0.314,0.2-0.372,0.057-0.771,0.429c-0.086,0.086-0.029,0.143-0.429,0.543c-0.743,0.686-0.343-0.057-1.029,0.943l-0.572-0.115
	c-0.114,0.743,0.143,0.286-0.486,0.972c-1.171,1.343-2.429,1.715-3.972,3.229l-0.915,0.629c-0.143,0.372-0.171,0.314-0.514,0.657
	c-0.486,0.457-0.257,0.4-0.715,0.486c-1.086,2.286-1.286,0.429-2.572,2.258l-2.372,2.258c-0.143,0.114-0.543,0.428-0.686,0.514
	c-1.515,1.2-2.543,3.115-4.687,3.544c-0.943,1.972-3.629,2.029-3.287,4.487c4.229,0.543,11.517,0.057,16.118,0.114
	c11.945,0.143,29.892-0.486,40.895,0.229l8.002-0.229c6.173,0.057,61.585-0.286,65.243,0.085c3.172-0.429,13.202-0.257,16.774-0.171
	c5.63,0.143,11.288-0.028,16.918-0.028c22.462,0.028,45.354,0.286,67.758,0.085c2.743-0.028,5.772-0.057,8.487,0.029
	c1.258,0.028,2.715,0.943,5.545,0.714c1.143-0.057,0.942-0.314,1.571-0.515c1.286-0.371,6.602-0.114,8.345-0.143
	c1.229-0.029,3.229-0.143,4.372-0.057c1.687,0.143,0.915,1.057,3.63,0.657l0.114-1.029c-1.058,0-0.629-0.057-1.887-1.257
	l-6.887-6.202c-1.172-1-2.286-2.058-3.658-2.887c-1.257-0.743-1.286-1-2-1.829c-1.629-1.915-1.743-0.8-1.715-2.172
	c-0.486-0.571-0.601-0.085-0.914-1.057l-0.857-0.086c-1.001-1.6-0.229-0.372-1.801-1.572c-0.686-0.543-1.2-0.714-1.715-1.4
	c-1.229-1.572-1.886-1.829-3.372-3.229c-0.657-0.6-0.943-1.144-1.686-1.658c-0.543-0.372-0.486-0.229-1.001-0.686l-4.058-3.658
	c-0.8-0.229-2.229-1.058-2.743-1.687c-1.915-2.458-3.087-2.229-3.687-2.8c-0.429-0.429-0.029-0.143-0.429-0.743
	c-0.771-1.2-2.144-1.029-2.486-2.772c-0.343-0.372-0.286-0.515-0.543-0.715c-1.001-0.286-1.743-1.029-2.229-1.943l-1.571-0.114
	c-0.029-1.486,0.057-0.771-0.629-1.314l-2.887-2.687c-1.543,0.486,0.058,0.458-1.058,0.572c-0.428-0.686-0.114-0.629-0.399-1.458
	c-0.687-2.029-2.515-1.658-2.43-3.201c-1.171,0.085-1.285-0.143-1.943-1c-0.514-0.714-0.914-0.886-1.514-1.343
	c-3.173-2.543-0.943-1.543-4.688-4.058c-0.657-0.457-0.743-0.915-1.371-1.515c-2.058-2.086-1.4-2.315-3.544-2.429
	c-0.4-1.257-2.658-3.058-3.658-4.201c-0.543-0.601-0.114,0.114-0.457-0.715c-0.543-0.457-1.172-1.057-1.715-1.657
	c-0.399-0.429-1.286-1.258-2.144-1.515l0.058-0.743c-1.829-0.086-3.258-2.715-4.63-3.858c-0.343-0.286-0.657-0.371-1-0.657
	l-5.344-4.601c-0.801-0.571-0.771-0.314-1.829-1.572c-0.257-0.257-0.457-0.543-0.743-0.915c-0.829-0.972-0.257,0.057-0.629-1.114
	c-0.571-0.486-0.942-0.486-1.601-1.286c-0.485-0.6-1-1.229-1.571-1.343c-2.258,0.057-2.658-2.372-5.059-3.687l-2.515-2.286
	c-1.429-1.058-0.8-0.658-2.343-2.258l-0.344-0.4c-0.028-0.028-0.085-0.085-0.114-0.114c-1.314-1.229-1.629-1.114-2.143-1.486
	l-1.315-1.315c-1.257-1.572-3.601-2.601-3.972-4.544c-0.086-0.2-0.114-0.2-0.172-0.257c-1.515-0.372-1.715-0.8-2.687-1.658
	c-0.485-0.4-0.285-0.314-0.6-0.657c-0.943-1.029-2.572-1.058-2.572-2.515l-0.714-0.028c-0.486-0.686-0.715-0.972-1.344-1.515
	c-1.543-1.315-1.114-0.458-1.4-1.801l-0.457-0.429l-0.914-0.114c-0.887-1.458-2.458-1.314-2.801-3.058
	c-1.572,0.229,0.028,0-1.801-0.915l-0.371-0.171c-0.657-0.4-1.258-1.115-1.658-1.572c-1.515-1.687-0.771-0.372-2.286-2.029
	l-1.914-1.743c-1.543-1.4-2.658-0.171-3.287,0.229l-1,0.743c-0.2,0.171-0.429,0.429-0.743,0.714c-0.543,0.543-0.458,0.4-0.886,0.771
	c-0.286,0.229-0.114,0.057-0.4,0.372c-1.715,2.058-0.372,0.486-2.258,1.829l-5.401,5.001c-2.944,3.029-1.4,1.028-3.144,2.257
	c-0.943,0.657,0.829-0.8-0.229,0.2l-1.144,1.486c-0.057,0.058-0.085,0.086-0.143,0.143l-0.714,0.743
	C120.251,20.347,120.336,20.261,119.536,20.318L119.536,20.318z"/>
<path fill-rule="evenodd" clip-rule="evenodd" fill="#E9E014" d="M152.2,243.173c2.344,0.058,5.116,0.372,7.259-0.257
	c1.772-0.515,8.745-0.601,11.174-0.429c1.943,0.171,0.543,0.771,3.115,0.8c7.202,0.029,8.517,0.657,8.316-2.086
	c-0.114-1.801,1.343-3.087,0.285-6.888c-0.771-2.801,0.601-3.629,0.286-4.829c-0.2-0.801-0.571-0.543-0.657-2.029
	c-0.114-1.601-0.057-6.859,0.257-7.945c0.2-0.657,0.486-1.257,0.515-2.229c0-1.486-0.343-1.314-0.485-2.258
	c-0.258-1.515,0.257-1.144,0.429-2.144c0.199-1.2-0.344-1.286-0.572-2c-0.886-3.001,0.601-4.002,0.601-4.487
	c-0.4-1.657-0.771-0.229-0.715-2.915c0.058-1.657-0.257-1.629,0.4-2.943c0.972-2.001-0.286-7.631-0.4-9.146
	c-0.085-1.114,0-2.258-0.028-3.4c-0.028-2.258,0.143-4.516,0.058-6.773l-0.058-10.174c0.028-1.229,0.571-2.058,0.4-2.772
	c-0.144-0.686-0.286-0.371-0.4-1.343c-0.086-0.571,0-1.114,0.058-1.687l-0.2-9.773c0,0.686,0.229,0.172-0.286,0.485
	c-1.686-1.515-3.258-0.143-4.601-0.257c-1.4-0.114-0.829-0.457-2.458,0.058c-0.8,0.257-1.543,0.371-2.429,0.371
	c-2.372,0.058-9.288,0.058-10.945-0.543c-1.601-0.571-3.687-0.343-5.516-0.371c-1.943-0.029-1.657,0.229-2.43,0.514
	c-0.742,0.229-1.629,0.2-2.429,0.2c-3.058,0-0.172-0.8-4.83-0.485c-1.857,0.114-3.715-0.086-5.544-0.172
	c-3.572-0.2-7.744-0.057-11.374-0.086l-22.519-0.028c-2.801,0.058-8.202,0.286-10.831,0.028l0.028,9.603
	c-0.057,2.687,0.229,1.972,0.543,2.658c-1.086,1.715-0.571,1.829-0.514,3.857l-0.029,16.233c0.257,1.571,0.515,0.229,0.486,1.657
	c-0.028,0.829-0.343,0.8-0.486,1.915v29.807c-0.114,5.373-0.372,13.203,0.086,18.376l0.771,0.372c0.257,0.085,0.286,0,0.6,0.114
	v1.543l-1.2-0.601c-0.057-0.114-0.143-0.085-0.286-0.114l0.314,1.601c9.402,0.058,18.775-0.028,28.177,0.028l21.547-0.028
	C147.257,242.201,151.2,241.687,152.2,243.173L152.2,243.173z"/>
<path fill-rule="evenodd" clip-rule="evenodd" fill="#151011" d="M243.335,302.845c-0.429,1.086-0.686,1.114-2.314,1.144
	l-10.66,0.257c-4.744-0.028-9.517-0.286-14.289-0.2c-2.371,0.029-4.229,0.572-6.973,0.286c-3.772-0.429-10.03-0.286-14.061-0.2
	c-1.942,0.028-4.972,0.343-6.544,0.2c-2.114-0.229-2.372,0.6-4.229,0.2c-2.372-0.543-10.116-0.343-12.688-0.258
	c-5.516,0.2-11.603-0.057-17.175-0.057c-3.001,0-5.23-0.314-8.23-0.086l-12.832,0.114c-1.686-0.143-2.029-0.457-4.115-0.4
	c-2.915,0.029-5.373,0-8.23,0.2c-5.83,0.429-10.602-0.457-16.432-0.285c-2.886,0.085-5.115,0.429-8.259,0.457
	c-1.515,0-2.572-0.314-4.087-0.286c-2.972,0-10.888-0.143-12.803,0.114c-3.229,0.429-4.887-0.343-7.773-0.285
	c-2.886,0.028-5.83-0.086-8.716,0c-1.458,0.028-2.601,0.285-4.115,0.314c-1.486,0-2.486-0.286-3.858-0.314
	c-2.858-0.058-5.858-0.058-8.716,0c-2.458,0.028-6.03,0.6-8.459,0.285c-3.601-0.457-4.029-0.514-3.972-4.515
	c0.029-2.83-0.143-5.631-0.143-8.46c-0.057-5.716,0.143-11.46,0.2-17.176l-0.171-17.175c0-5.716-0.057-11.461-0.057-17.176
	c0.028-5.688,0.171-11.546,0-17.176c-0.143-5.659,0-11.518,0.028-17.204c0-5.688-0.257-11.746-0.028-17.404h0.171
	c-0.372-0.4-0.171,0.343-0.457-0.972l0.286-6.545c0.057-2.687-0.114-5.315-0.057-7.974c0.085-5.229,0.085-10.745,0.085-15.975
	c-0.028-5.345-0.028-10.631,0-15.976c0-4.258-0.6-11.889,0.2-15.718c2.029-1.515,2.772-0.857,5.144-0.515
	c1.372,0.2,5.315,0.143,6.659,0c4.83-0.4,8.116-0.372,12.917-0.114c4.344,0.229,8.573,0,13.06-0.143
	c4.144-0.115,8.916,0.229,13.317,0.257c4.572,0.029,8.887-0.143,13.545-0.028c4.401,0.114,8.974-0.515,13.117-0.171
	c1.972,0.171,11.803,0.257,13.346,0.028l6.43-0.286c1.772,0.085,4.172,0.429,6.288,0.572c4.458,0.314,9.087-0.257,13.574-0.143
	l26.605,0.114c4.372-0.029,9.23-0.171,13.546,0.057c2.314,0.114,4.458,0.114,6.772-0.028c3.201-0.229,3.716,0.428,6.487-0.257
	c1.715-0.429,4.145,0.343,6.087,0.372c2.258,0.028,4.544,0.028,6.773-0.057c4.43-0.143,9.116,0.057,13.574,0.085
	c2.715,0.029,11.003-0.629,12.574,0.486l0.086,16.947c-0.028,5.487,0.257,11.574,0.114,16.947l-0.143,17.176
	c0,2.829,0.143,5.658,0.028,8.459c-0.086,1.687-0.543,2.258,0.314,3.716c0.8,1.371,0.399,1.8-0.144,3.086l-0.028-0.257
	c-0.285,2.943-0.057,24.206,0,28.55c0.086,4.458-0.571,9.802-0.028,14.203c0.515,4.201-0.229,9.174,0.028,13.632
	c0.086,2.001-0.028,5.116-0.086,7.259l0.2,17.404c0.058,1.2-0.2,2.258-0.143,3.401l0.143,7.23c-0.257,1.543-0.314,5.115-0.285,6.802
	l-0.086,12.803C243.478,302.788,243.649,302.444,243.335,302.845L243.335,302.845z M112.735,26.091
	c0.143-0.543-0.029-0.257,0.429-0.771c0.229-0.229,0.314-0.314,0.628-0.6c0.715-0.686,0.715-1.029,1.629-1.086l0.372-0.286
	c0.372-0.771-0.2-0.114,0.6-0.886c0.143-0.114,0.486-0.372,0.657-0.514c0.8-0.657,0.629-0.743,1.658-1.058l0.829-0.571
	c0.372-1.086,0.172-0.429,1.143-1.315c1.715-1.572,6.145-5.973,7.573-6.916c0.314-0.743,2.172-2.572,2.458-2.801l5.201-4.544
	c0.4-0.314,0.343-0.172,0.743-0.429c1.601-1.058,2.857-1.343,3.887,0.343c1.257,1.172,2.572,2.515,3.887,3.601
	c1.172,1,3.458,2.601,3.801,3.629c1.343,0.114,0.657,0.6,1.972,1.486c0.6,0.4,0.485,0.143,1.028,0.657l0.715,1.029l0.457,0.429
	l2.115,1.572c0.743,0.629,1.143,1,1.343,1.772c0.857,0.114,1.743,1.029,2.458,1.658c0.771,0.628,0.086,0.028,0.629,0.628
	c0.257,0.286,1.086,1.029,1.371,1.258c1.314,1,0.886-0.715,1.4,1.286c0.058,0.057,0.086,0.057,0.172,0.257
	c1.686,0.6,0.457,0.486,2.457,2.201c0.972,0.829,1.344,0.829,2.286,1.8l1.172,1.029c1.687,1.143,1.486,1.343,3.087,2.944
	c0.942,0.972,1.543,1.086,2.343,2l4.259,3.972c1.543,1.543,1.6,0.857,2.2,2.144c0.571,0.114,1.086,0.743,1.571,1.343
	c0.658,0.8,1.029,0.8,1.601,1.286c0.943,0.314,4.373,3.715,5.516,4.916l3.572,2.943c0.4,0.286,0.686,0.4,1,0.686l2.572,2.515
	c1.314,1.2,1.229,0.743,1.515,1.658c0.057,0,0.143,0.028,0.172,0.057l0.343,0.114c0.057,0.057,0.2,0.171,0.257,0.2l3.572,2.943
	c0.515,0.714,0.114,0.143,0.485,0.829c2.658,1.886,2.401,2.515,4.059,3.658c2.515,1.715,3.887,4.258,5.001,4.858
	c2.629,1.458,1.343,1.257,3.115,2.744c0.714,0.571,1.172,0.543,2.144,1.743c1.229,1.543,1.371,1.029,1.828,2.029
	c0.915,0,1.286,0.6,1.887,1.257l4.658,4.287c0.857,0.114,3.314,2.172,3.943,2.83c2.857,2.915,3.286,2.743,5.259,4.887l0.399,0.372
	c0.172,0.114,3.801,3,4.487,4.172l0.028,0.057c0.886,0.229,1.601,0.972,2.144,1.629c1.429,1.658,2.286,1.886,3.887,3.201
	c0.828,0.686,0.856,1.115,1.571,1.772c1.657,1.515,1.829,1.143,3.772,3.315c1.286,1.429,2.801,1.687,3.544,3.373
	c0.313,0.972,0.428,0.486,0.914,1.057c1.343,0.658,1.429,0.972,2.314,1.801l6.23,5.144c2.829,2.144,2.886,2.829,3.857,3.629
	c1.029,0.857,3.43,2.687,3.744,3.772c0.657,0.4,0.515,0.629,0.6,1.086c-0.972,0.771-2.515,0.572-3.857,0.457l-12.832,0.029
	c-4.601,0.229-5.658-0.372-7.973-0.4c-19.462-0.2-39.923,0.057-59.527,0.114c-2.829,0-5.658-0.029-8.487,0
	c-2.829,0-5.688-0.286-8.202-0.257c-5.001,0.085-12.402,0.514-16.975-0.086c-5.287-0.714-14.175,0.286-15.461-0.057
	c-0.686-0.171-0.4-0.057-0.8-0.429c-3.658-0.372-59.07-0.028-65.243-0.085l-8.002,0.229c-11.002-0.714-28.949-0.086-40.895-0.229
	c-4.601-0.057-11.889,0.429-16.118-0.114c-0.343-2.458,2.344-2.515,3.287-4.487c0.143-0.314,0.143-0.743,1.229-1.372
	c1.829-1.057,3.372-2.943,4.973-4.287c1.571-1.286,0.428-1.286,2.486-2.144c1.343-0.543,0.229-0.829,1.629-0.771
	c0.458-0.086,0.229-0.029,0.715-0.486c0.343-0.343,0.371-0.286,0.514-0.657c0.2-1.143,0.915-1.572,2.486-2.801
	c0.343-0.257,0.343-0.2,0.743-0.543c0.143-0.114,0.457-0.4,0.628-0.6c1.286-1.286,0.915-0.829,1.515-0.886v-0.714
	c1.2-0.571,2.486-1.972,3.801-3.029l1.143-0.857c0.029-0.114,0.143-0.114,0.2-0.143c0.372-0.372,0.714-0.8,1.286-0.943
	c0.314-0.543,0.028-0.171,0.343-0.571c0.829-1.029,3.486-3.058,4.058-3.715c3.086-3.458,1.486-1.458,4.401-3.83l2.315-1.829
	c1.229-1,4.572-4.801,6.344-5.744c0.372-1.172,0.457-0.6,1.229-1.715c0.515-0.771,0.515-0.686,1.343-1.257
	c3.144-2.172,5.801-4.801,8.516-7.487c0.886-0.886,1.886-1.429,2.944-2.315l2.772-2.601c1.2-1.143,4.715-4.458,5.801-4.83
	c0.514-0.628,0.8-0.6,1.486-1.171c0.314-0.257,0.343-0.372,0.743-0.715c0.829-0.657,0.114-0.343,0.972-0.486
	c0.085-0.543-0.143-0.4,0.457-0.972c0.458-0.428,0.314-0.143,0.743-0.486c0.657-0.457,0.429-0.628,1.143-1.029l0.2-0.743
	c1.458-0.572,0.457-0.543,1.686-1.458c0.972-0.714,0.829-0.972,2.058-1.4l3.086-2.687c0.372-0.314,0.486-0.457,1.029-0.886
	l3.029-2.772c0.571-0.571,0.6-0.6,1.286-0.686c0.029-0.572-0.571-0.372,0.086-0.486c0.571-0.743,0.972-0.915,1.657-1.629
	c0.458-0.486,0.915-1.315,1.686-1.201c0.143-0.686-0.343-0.286,1-1.229c1.115-0.772,3-3.001,4.458-4.201
	c0.143-0.143,0.515-0.486,0.629-0.6c0.028-0.029,0.085-0.086,0.114-0.143c0.057-0.028,0.085-0.085,0.114-0.114
	c0.057-0.057,0.171-0.229,0.229-0.286c0.4-0.458,1.601-1.343,2.229-1.829c0.543-0.457,0.629-0.629,1.143-1.058
	c0.6-0.571,0.629-0.514,1.258-0.943C106.991,30.921,111.563,26.377,112.735,26.091L112.735,26.091z M123.452,12.917
	c-0.4,1.171-0.8,1.057-1.658,1.886c-0.6,0.571-1.086,1.114-1.743,1.657l-3.287,2.772c-0.486,0.314,0.114,0.028-0.486,0.229
	c-0.4,1.057-3.829,3.515-4.201,3.543c-0.114,0.143-0.343,0.515-0.657,0.772c-0.343,0.343-0.515,0.4-0.943,0.771
	c-0.657,0.6-1.029,1.058-1.686,1.458c-0.314,0.915,0,0.486-1.343,1.6l-3.886,3.544c-0.343,0.286-0.515,0.4-0.8,0.714
	c-0.343,0.343-0.257,0.343-0.543,0.629l-10.945,9.402c-0.915,0.886-2.115,2.601-4.144,3.287l-3.687,3.401
	c-0.257,0.286-0.343,0.457-0.658,0.8c-0.714,0.8-0.914,0.572-1.657,1.258c-0.515,0.457-0.886,0.943-1.486,1.372
	c-0.886,0.657-0.886,0.714-1.543,1.4l-2.829,2.429l-2.915,3c-1.172,1.315-1,1.372-1.857,1.458c-1.058,0.743-1.915,1.543-2.886,2.429
	c-0.658,0.629-0.772,0.772-1.629,1.315c-0.829,0.514-0.8,0.771-1.286,1.086c-0.314,1.343-0.029,0.486-1.686,2.2
	c-1.115,1.144-1.257,0.715-2.144,1.515c-0.886,0.772-3.429,3.458-4.715,4.401c-1.686,1.2-5.287,5.373-6.773,5.83
	c-0.229,0.229-0.571,0.686-0.686,0.8c-0.458,0.428-2.401,1.972-3.172,2.257c-0.114,0.458-1.629,1.629-2.515,2.401l-0.314,0.286
	l-0.4,0.486c-0.029,0.057-0.172,0.229-0.229,0.286l-1.972,1.686c-0.543,0.372-0.8,0.601-1.4,1.029
	c-0.486,0.372-0.771,0.743-1.171,0.972c-0.429,1-0.314,0.715-1.058,1.315c-0.314,0.257-0.457,0.457-0.657,0.571
	c-0.515,0.372-0.171,0.143-0.829,0.4l-10.231,9.374c-2.829,2.115-2.029,1.972-4.058,3.687l-2.086,1.429
	c-0.057,0.028-0.172,0.171-0.2,0.114c-0.057-0.086-0.143,0.057-0.229,0.086l-0.086,0.114c-0.143,0.914-1,1.515-1.657,2l-0.286,0.2
	c-1.086,0.8-0.171,0.972-2.4,2.201c-0.972,0.543-1.115,1.115-2.058,2.029c-0.714,0.714-1.286,1.314-2.029,2.086l-4.516,3.658
	c-2.715,1.629-1.114,1.114-3.372,2.943c-0.972,0.8-0.686-0.171-0.628,1.543c1.972,1,9.745,0.429,12.688,0.429
	c2.286-0.029,4.201,0.257,6.258,0.314c2.343,0.057,4.201-0.115,6.287-0.172c2.144-0.057,4.601-0.829,4.658,1.715
	c0.028,1.115-0.2,2.144-0.114,3.401c0.057,1.086,0.257,2.029,0.286,3.144c0.086,4.287-0.085,8.545-0.171,12.832
	c-0.086,4.258,0.229,8.716,0.114,13.06c-0.2,10.288,0,22.148-0.028,32.665c0,1.115,0.257,4.573-0.086,5.516
	c-0.286,0.857,0.286,0.258-0.314,0.515l0.286,53.728c0,3.458-0.457,7.088-0.257,10.66c0.486,8.888,0.314,22.634,0.2,32.179
	c-0.028,2.858-0.229,8.26,0.086,10.889c0.314,2.887,4.658,2.144,8.659,2.172c10.059,0,22.69,0.172,32.178-0.057
	c3.572-0.115,7.288,0.085,10.917,0.057c1.858-0.028,3.344,0.172,5.059,0.2c1.829,0.028,3.372-0.257,5.344-0.257
	c5.373,0,27.606-0.2,32.15,0.257c1.486,0.171,3.258,0.4,4.858,0.429c2.543,0.057,3.086-0.229,5.087-0.515
	c3.629-0.485,6.316,0.657,10.145,0.486c3.258-0.144,7.83,0.457,10.831,0.028c6.401-0.915,3.743-0.114,10.23-0.114
	c1.801,0,12.003,0.371,13.231,0.114c4.516-1,1.801,0.114,6.858,0.114l54.184,0.114c5.059,0.058,5.516,0.286,5.63-5.459
	c0.058-3.629,0.143-7.145,0.2-10.888c0.143-3.173,0.429-19.376,0.086-21.663c-0.343-2.314,0.143-4.4,0.143-6.887s0-5.002,0-7.488
	c0-2.543-0.286-4.458-0.286-7.03c0-2.571,0.314-4.743,0.286-7.259c0-1.8-0.229-5.63-0.114-6.944
	c-0.515-0.371-0.172,0.114-0.485-0.629c-0.572-1.343,0.085-4.658,0.257-5.801c0.457-2.83-0.2-10.488-0.314-13.718
	c-0.086-2.63,0.343-4.459,0.429-6.773c0.114-4.772-0.657-9.202-0.515-13.575c0.086-2.114,0.486-4.001,0.457-6.516
	c0-2.344-0.028-4.658-0.057-7.03c-0.028-2.572-0.515-3.943-0.086-6.602l0.2-6.944c-0.028-2.172-0.143-4.716-0.314-6.773
	c-0.371-4.829,0.314-4.372,0.314-6.516c0-4.63-0.257-9.088-0.257-13.804c0-3.629,0.371-6.944,0.229-10.631
	c-0.029-0.543-0.114-1.229-0.114-1.715c0.028-0.686,0.085-1.058,0.429-1.4c1.114-0.857,24.548-0.286,28.006-0.257v-3.915
	c-1.229-0.143-0.657-0.343-1.657-1.2c-0.515-0.458-0.915-0.772-1.486-1l-0.771-0.143c-0.486-1.172-3.544-3.601-4.716-4.716
	c-0.457-0.486-0.457-0.628-0.942-1c-0.743-0.543-1.801-1.058-1.973-1.943l-2.657-2.172c-0.429-0.343-0.743-0.572-1.286-1.086
	c-0.257-0.257-0.343-0.286-0.629-0.6c-0.285-0.343-0.143-0.172-0.314-0.429l-0.171-0.286c-1.372-0.114-2.858-2.458-3.858-3.172
	c-0.6-0.458-0.8-0.343-1.4-0.8c-0.8-0.657-1.4-1.629-2.258-2.315l-3.429-3.344c-0.457-0.372-0.771-0.571-1.229-0.943
	c-0.914-0.8-1.485-1.458-2.257-2.115c-0.887-0.743-1.743-1.286-2.572-2.029c-0.571-0.486-0.571-0.657-1.086-1.086
	c-0.229-0.2-0.857-0.714-1.144-0.829c-1-0.229-1.6-1-2.771-2.029l-4.83-4.373c-0.771-0.743-1.629-1.458-2.4-2.2l-9.174-8.06
	c-0.285-0.428-0.143-0.143-0.399-0.8l0.143-0.086l-2-1.143c-1.458-1.314-0.601-1.172-4.201-3.801l-5.516-5.344
	c-2.2-1.943-6.63-6.288-8.545-7.688c-1.057-0.771-2.314-1.515-2.829-2.686c-0.943-1.343-3.629-3.373-5.229-4.715
	c-0.2-0.172-0.571-0.515-0.771-0.715c-1.4-1.4-0.801-0.571-1.687-1.2l-4.2-4.086l-5.888-4.944c-0.457-0.4-0.886-0.686-1.457-1.2
	l-4.001-3.487c-1.144-0.314-1.629-0.914-2.229-1.657c-1.371-1.687-2.371-2.258-3.857-3.43c-0.486-0.4-1.286-1.2-1.715-1.657
	l-1.915-1.687c-0.828-0.686-4.601-3.829-5.087-4.601c-0.485-0.771,0.058,0.714-0.229-0.543l-0.543-0.372
	c-0.057-0.028-0.114-0.085-0.143-0.114l-5.687-5.201c-0.687-0.714-1.229-1.286-1.973-1.886l-5.601-4.573
	c-1.372-1.143-4.544-4.201-5.459-4.458c-1.457-0.4-2,0.457-2.686,1.058c-1.572,1.343-2.886,2.314-4.344,3.658
	c-1.4,1.286-3.344,3.258-4.83,4.344C125.509,10.887,124.309,12.659,123.452,12.917L123.452,12.917z"/>
<path fill-rule="evenodd" clip-rule="evenodd" fill="#151011" d="M96.331,154.522l0.314-0.343c0.543-0.485-0.657-0.4,0.657-0.4
	c2.515,0.058-0.486,0.943,4.83,0.715c6.659-0.257,8.402-0.429,15.718,0.057c3.229,0.229,7.459-0.171,10.888-0.143
	c3.629,0.028,7.259,0.172,10.888,0.2c7.174,0.058,14.547-0.229,21.662,0.058c1.801,0.057,3.658,0.085,5.43,0.114
	c1.801,0,3.458,0.257,5.087,0.229c3.115-0.058,7.145-0.857,10.402-0.144l0.657,5.545c0,1.028,0.086,2.086,0.086,3.144
	c0,1.143-0.286,1.914-0.314,2.687c0,1.057,0.601,1.4,0.486,2.629c-0.086,1.4-0.543,0.943-0.657,2.229
	c-0.486,5.286,0.8,4.515,0.257,8.287c-0.172,1.086,0.171,1.658,0.143,2.544c-0.086,1.601-0.429,3.829-0.399,5.572
	c0,6.059,0.285,2.572,0.6,5.345c0.486,4.772-0.4,9.745-0.2,11.574c0.114,1.114,0.601,1.457,0.172,2.915
	c-0.943,3.286,0.171,2.457,0.143,5.087c0,1.028-0.314,1.543-0.2,2.543c0.286,2.286,0.314,3.087-0.2,5.459
	c-0.285,1.4-0.171,4.115-0.171,5.83c0.028,2.2,0.943,1.914,0.571,4.687c-0.229,1.943,0.028,3.829,0.028,5.944
	c0,0.915,0,1.972-0.085,2.887c-0.4,3.915,1,0.857-1.144,3.915c-2.029,0.2-8.916,0.286-10.803,0c-2.629-0.4-7.772-0.229-10.745-0.114
	c-7.087,0.314-14.003-0.086-21.29-0.086c-7.259,0.028-14.518-0.057-21.776,0.028c-6.973,0.058-14.603,0.229-21.519-0.028
	c-1.372-2.058-1.486-0.972-1.458-4.201c0.172-14.203-0.428-83.077,0.2-84.478L96.331,154.522z M93.645,245.603
	c4.229,0.143,7.745-0.344,11.86-0.258c4,0.058,7.916,0.429,12.117,0.372c1.143-0.029,1.658-0.286,2.458-0.343
	c1.029-0.058,1.458,0.199,2.858,0.085c2.029-0.171,4.172,0.029,6.059,0.144c4.058,0.285,8.344-0.144,12.317,0.143
	c3.486,0.257,7.716-0.086,11.631-0.058l12.089,0.344c2.114,0.143,3.572,0.143,5.83,0.085c1.343-0.028,2.028-0.399,5.801-0.399
	c4.772,0,7.859,2.086,9.002-2.201c0.571-2.114-0.229-9.631,0.058-11.603c0.257-1.687-1.029-2.772-0.314-5.373
	c0.457-1.743,0.6-6.63,0.485-8.802c-0.057-1.029-0.515-1.829-0.429-2.887c0.058-0.914,0.543-1.429,0.372-2.601
	c-0.144-1.172-0.515-0.314-0.429-2.715c0.114-2.258,0.514-3.058,0.485-5.572c-0.028-2.087,0.028-4.173-0.028-6.288
	c-0.028-1.857,0.257-4.115-0.172-5.744l0.058-11.945c0.028-2.286-0.114-1.2-0.515-2.486c-0.286-0.972,0.028-2.058,0-3.059
	c-0.143-6.059,0.972-4.258,0.657-8.487c-0.114-1.572-0.743-0.972-0.686-2.372c0.086-1.4,0.886-0.515,0.6-2.144
	c-0.199-1.2-0.657-0.314-0.657-2.458c-0.085-7.144,1.372-6.401-6.572-6.258l-4.973-0.086c-1.4-0.229-0.771,0.057-1.314-0.686
	c-1.458,0.229-3.887-0.057-5.573-0.057c-4.601-0.057-8.23,0.715-10.631,0.743c-1.972,0.028-3.144-0.486-4.887-0.658
	c-1.686-0.171-4.001-0.085-5.772-0.114c-1.629,0-4.173,0.657-5.001,0.515c-1.314-0.257-0.4-0.543-2.314-0.286
	c-1.258,0.2-1.658,0.057-2.658-0.115c-1.943-0.286-33.464-0.057-39.609-0.085c-2.058,0-3.687-0.286-4.086,1.543l-0.2,16.576
	c0.486,3.657-0.114,7.373-0.171,10.974c-0.028,3.744,0.114,7.602,0.286,11.117c0.2,3.715-0.143,7.431-0.229,11.146
	c-0.057,2.2,0.286,3.458,0.286,5.544c-0.029,7.659,0.286,21.777-0.086,28.321C91.559,238.915,90.701,245.03,93.645,245.603
	L93.645,245.603z"/>
<path fill-rule="evenodd" clip-rule="evenodd" fill="#D5D2CC" d="M33.803,187.76h-0.171c0.2,0.285,0.171,0.171,0.314,0.714
	c0.114,0.343,0.114,0.601,0.143,0.972l0.057,70.646c0,2.429,0.029,4.858-0.028,7.259c-0.057,2.344,0.514,5.029,0.372,6.773
	c-0.086,1.285-0.429,1.828-0.343,3.4c0.057,1.2,0.172,2.429,0.172,3.63c0,2.2-0.172,4.772-0.257,7.03l0.314,14.26
	c2.429,1.715,6.715,0.772,8.23,0.743c3.944-0.057,11.203-0.429,14.86,0.229c1.201,0.229,2.972-0.257,4.487-0.313
	c3.315-0.144,6.859-0.058,10.174-0.058c2.143,0,2.772,0.629,4.344,0.743c2.4,0.143,2.572-0.629,4.115-0.715
	c2.515-0.143,12.403-0.371,14.746,0.429c1.286,0.429,3.344,0.429,4.715,0.086c3.058-0.771,6.287-0.515,9.831-0.543
	c2.629-0.028,2.515,0.4,4.344,0.686c1.829,0.286,7.916-0.543,9.688-0.628l7.487,0.028c0.8,0.143,1.172,0.515,1.972,0.629h10.145
	c1.687-0.086,3.458-0.429,4.83-0.458c1.343-0.028,3.086,0.4,4.63,0.458c4.486,0.199,10.517-0.058,15.203,0.028
	c3.029,0.057,13.06-0.172,15.231,0.057c3.287,0.372,2.286,0,3.658,0.029l1.429,0.457c1.572,0.143,4.602-0.172,6.544-0.2
	c4.03-0.086,10.288-0.229,14.061,0.2c2.743,0.286,4.602-0.257,6.973-0.286c4.772-0.086,9.545,0.172,14.289,0.2l10.66-0.257
	c1.629-0.029,1.886-0.058,2.314-1.144l0.114-20.49l-0.743,0.485c-0.114,1.029,0.257,2.058,0.086,2.801
	c-0.143,0.686-0.143-0.172-0.314,1.086c-0.286,2.172,0.485,5.201,0.515,6.744c0.028,2.144-0.258,3.43-0.314,5.602
	c-0.114,6.401-0.515,4.059-14.261,4.373c-4.172,0.086-8.716-0.058-13.06-0.029c-2.258,0-4.516,0.314-6.773,0.144
	c-3.543-0.286-1.771-0.314-6.029-0.314c-2.344,0-4.458,0-6.545,0.2c-1.457,0.143-2.086-0.058-3.2-0.172
	c-1.172-0.143-1.801,0.2-2.829,0.258c-3.915,0.257-9.23-0.115-13.317-0.144c-2.114,0-4.744,0.2-6.744,0
	c-2.115-0.229-4.059-0.343-6.173-0.057c-1.2,0.171-1.915-0.2-3.058-0.172c-1.258,0.028-1.544,0.372-3.087,0.172
	c-1.257-0.2-1.914,0-3.2-0.086c-0.829-0.058-1.829-0.343-2.715-0.429c-4.001-0.372-8.517,0.257-12.546,0.371
	c-1.086,0.029-2.229-0.028-3.315,0.114c-2.086,0.258-1.058,0.058-2.658-0.429c-2.543-0.714-15.575,0.229-19.662-0.085
	c-4.315-0.344-8.973-0.229-13.317,0.028c-5.602,0.314-13.432-0.457-19.862-0.172c-1.257,0.058-2,0.486-2.915,0.572
	c-1.057,0.085-1.657-0.372-2.658-0.515c-3.144-0.429-9.859-0.143-13.289-0.058c-8.688,0.258-17.661,0.029-26.206-0.085
	c-0.029-1.973-0.057-3.944-0.086-5.916c0-0.857,0.114-2.058,0-2.858c-0.2-1.543-1.086-0.6-0.8-4.687
	c0.143-2.172,0.257,0.028,0.657-2.086c0.372-1.857,0.2-24.921,0.171-27.893c0-0.972,0-1.943,0-2.915
	c0.028-2.258-0.114-0.886-0.629-2.201c-0.457-1.171-0.286-25.292-0.143-27.778c0.2-3.543-0.086-7.487-0.086-11.116
	c0.029-7.603-0.028-15.176,0-22.749c0.029-7.345,0.286-15.261,0.029-22.52c-0.143-4.487-0.257-43.468,0.257-44.754
	c4.287-0.257,8.917,0.114,13.289-0.029l26.863-0.057c4.229,0.086,9.116,0.229,13.317,0.029c4.515-0.229,9.059,0.143,13.545,0
	c4.373-0.171,8.917-0.086,13.317-0.029c4.487,0.086,9.059-0.143,13.546-0.057l14.774,0.143c2.458-0.029-0.028,0.857,4.115,0.4
	c3.029-0.372,10.031-1.029,13.003-0.343c1.486,0.343,4.001,0.543,5.83,0.572c3.544,0.028,2.2-0.314,3.658-0.629
	c2.515-0.543,3.801,0.629,5.286,0.429c0.972-0.114,3.572-1.086,6.259-0.429c0.914,0.229,1.572,0.514,2.715,0.6
	c1.601,0.114,12.174,0.171,13.089-0.143c0.629-0.229,0.8-0.771,2.886-0.543c1.172,0.143,1.572,0.543,2.687,0.657
	c3.687,0.4,9.431,0.143,13.289,0.058c4.486-0.058,9.03-0.058,13.546,0.057c2.486,0.057,11.174-0.543,12.773,0.085
	c0.286,2.372,0.114,7.545,0.029,10.117c-0.086,3.487,0.057,6.659,0.229,9.917c0.086,1.686-0.258,3.029-0.229,4.83v10.174
	c0,1.887,0.371,3.172,0.285,4.83c-0.429,6.43-0.085,13.289-0.429,19.947c-0.143,2.744,0.857,2.63,0.915,4.001
	c0.057,1.315-0.457,1.2-0.629,2.201c-0.172,0.972,0.143,1.371,0.143,2.2c0,1.286-0.171,3.201-0.2,4.801
	c-0.028,1.687,0.144,3.201,0.144,4.858c-0.028,3.658-0.343,11.918,0.114,15.09c0.2,1.343-0.857,11.174,0,14.746
	c1,4.259-0.629,10.718-0.058,12.89c0.2,0.714,0.114-0.144,0.229,0.857c0.172,2.058-0.399,2.771-0.429,4.544
	c0,0.856,0.229,1.8,0.2,2.4c0,0.485-0.143,1.343-0.143,2.2c0.028,1.657,0.429,3.344,0.143,4.716
	c-0.285,1.629-0.285,8.431,0.086,9.859c0.715,2.629-0.515,8.688,0.629,9.631c-0.172-13.261-0.086-26.606,0-39.924
	c0.057-6.573-0.343-12.975-0.114-19.605l-0.028-19.604c-0.114-2.344-0.258-7.631,0.028-9.831c0.543-4.087,0.371-2.286-0.4-4.344
	c-0.485-1.286,0.2-3.087,0.343-4.201l0.086-19.833c-0.4-6.145-0.028-22.349-0.086-29.779c0-1.6-0.028-3.229,0-4.83
	c0-1.429,0.4-3.172-1.057-3.858c-4.087-0.629-8.917,0.286-13.061,0.143c-4.058-0.171-8.744-0.4-12.66-0.085
	c-3.286,0.257-9.545,0.257-12.803-0.057l-25.834-0.229c-4.258,0.057-8.83,0.143-13.06,0.057c-4.344-0.085-8.717-0.085-13.061-0.114
	c-4.315-0.057-8.802,0.314-13.088,0.172c-8.802-0.343-17.376-0.058-26.121-0.229c-8.573-0.171-17.546-0.057-26.12,0.086
	c-4.772,0.085-51.525-0.343-52.068,0.2c-0.657,1.314-0.286,27.549-0.286,31.494C34.061,161.467,34.232,184.444,33.803,187.76
	L33.803,187.76z"/>
<path fill-rule="evenodd" clip-rule="evenodd" fill="#6C6E71" d="M33.803,187.76c0.429-3.315,0.257-26.293,0.257-31.465
	c0-3.944-0.372-30.179,0.286-31.494c0.543-0.543,47.296-0.115,52.068-0.2c8.574-0.143,17.547-0.257,26.12-0.086
	c8.745,0.171,17.318-0.114,26.121,0.229c4.286,0.143,8.772-0.229,13.088-0.172c4.344,0.029,8.717,0.029,13.061,0.114
	c4.229,0.086,8.802,0,13.06-0.057l25.834,0.229c3.258,0.314,9.517,0.314,12.803,0.057c3.916-0.314,8.603-0.086,12.66,0.085
	c4.144,0.143,8.974-0.771,13.061-0.143c1.457,0.686,1.057,2.429,1.057,3.858c-0.028,1.601,0,3.229,0,4.83
	c0.058,7.431-0.314,23.635,0.086,29.779l-0.086,19.833c-0.143,1.114-0.828,2.915-0.343,4.201c0.771,2.058,0.943,0.257,0.4,4.344
	c-0.286,2.2-0.143,7.487-0.028,9.831l0.028,19.604c-0.229,6.631,0.171,13.032,0.114,19.605c-0.086,13.317-0.172,26.663,0,39.924
	v1.687l-0.114,20.49c0.314-0.4,0.143-0.057,0.314-0.657l0.086-12.803c-0.029-1.687,0.028-5.259,0.285-6.802l-0.143-7.23
	c-0.058-1.144,0.2-2.201,0.143-3.401l-0.2-17.404c0.058-2.143,0.172-5.258,0.086-7.259c-0.257-4.458,0.486-9.431-0.028-13.632
	c-0.543-4.401,0.114-9.745,0.028-14.203c-0.057-4.344-0.285-25.606,0-28.55l0.028,0.257c0.543-1.286,0.943-1.715,0.144-3.086
	c-0.857-1.458-0.4-2.029-0.314-3.716c0.114-2.801-0.028-5.63-0.028-8.459l0.143-17.176c0.143-5.373-0.143-11.46-0.114-16.947
	l-0.086-16.947c-1.571-1.115-9.859-0.457-12.574-0.486c-4.458-0.028-9.145-0.229-13.574-0.085c-2.229,0.085-4.516,0.085-6.773,0.057
	c-1.942-0.029-4.372-0.8-6.087-0.372c-2.771,0.686-3.286,0.028-6.487,0.257c-2.314,0.143-4.458,0.143-6.772,0.028
	c-4.315-0.229-9.174-0.086-13.546-0.057l-26.605-0.114c-4.487-0.114-9.116,0.457-13.574,0.143c-2.115-0.143-4.516-0.486-6.288-0.572
	l-6.43,0.286c-1.543,0.229-11.374,0.143-13.346-0.028c-4.144-0.343-8.716,0.286-13.117,0.171c-4.658-0.114-8.973,0.057-13.545,0.028
	c-4.401-0.028-9.174-0.372-13.317-0.257c-4.487,0.143-8.716,0.372-13.06,0.143c-4.801-0.257-8.087-0.286-12.917,0.114
	c-1.343,0.143-5.287,0.2-6.659,0c-2.372-0.343-3.115-1-5.144,0.515c-0.8,3.83-0.2,11.46-0.2,15.718
	c-0.028,5.344-0.028,10.631,0,15.976c0,5.229,0,10.745-0.085,15.975c-0.057,2.658,0.114,5.287,0.057,7.974l-0.286,6.545
	C33.632,188.103,33.432,187.359,33.803,187.76L33.803,187.76z"/>
<path fill-rule="evenodd" clip-rule="evenodd" fill="#D5D2CC" d="M180.178,246.859c-0.057-0.028-0.171-0.171-0.199-0.114
	l-5.03-0.371c-6.887,0.2-8.659,0.429-16.432,0.114c-3.602-0.143-7.259-0.257-10.889-0.257c-2.028,0.028-3.458,0.313-5.572,0.171
	c-1.915-0.143-3.915-0.086-5.801-0.086c-5.23,0-11.06-0.657-16.204-0.399c-1.743,0.114-0.943,0.457-5.344,0.371
	c-3.572-0.057-7.144-0.457-10.631-0.601c-2.4-0.114-3.201,0.344-5.315,0.458c-1.029,0.057-3.601,0.285-4.572-0.144
	c-0.829-0.343,0.057,0.543-0.543-0.399c-2.944-0.572-2.086-6.688-2-8.488c0.372-6.544,0.057-20.662,0.086-28.321
	c0-2.086-0.343-3.344-0.286-5.544c0.086-3.715,0.429-7.431,0.229-11.146c-0.171-3.516-0.314-7.373-0.286-11.117
	c0.057-3.601,0.657-7.316,0.171-10.974l0.2-16.576c0.4-1.829,2.029-1.543,4.086-1.543c6.145,0.028,37.666-0.2,39.609,0.085
	c1,0.172,1.4,0.314,2.658,0.115c1.914-0.257,1,0.028,2.314,0.286c0.828,0.143,3.372-0.515,5.001-0.515
	c1.771,0.029,4.087-0.057,5.772,0.114c1.743,0.172,2.915,0.686,4.887,0.658c2.4-0.028,6.03-0.8,10.631-0.743
	c1.687,0,4.115,0.286,5.573,0.057c2.086-0.086,4.315,0.257,6.772,0.171c8.373-0.314,6.23,0.372,6.63,7.088
	c0.086,1.457,0.629,1.257,0.601,2.629c-0.058,1.857-0.372-0.429-0.028,3.172c0.114,1.286,0.057,5.345-0.258,6.487
	c-0.515,1.943-0.429,0.915,0,2.572c0.4,1.629-0.571,1.515-0.143,3.144c1.028,4.001,0.2,8.974,0.143,13.203
	c0,1,0.314,2.058,0.314,3.144c0,1.144-0.114,2.229-0.086,3.401c0.144,6.373-0.285,14.86,0.058,20.548
	c0.229,3.658,0.143,6.315-0.429,9.717c-0.2,1.2,0.2,2.086,0.343,3.172c0.343,2.915-0.172,10.517,0.028,13.86
	c0.029-0.057,0.058-0.143,0.086-0.2c0.028-0.057,0.058-0.143,0.086-0.229c0.543-1.601-0.2,1.144,0.143-0.429
	c0.2-1.028-0.057-9.631,0-10.888c0.2-6.888-0.343-18.147-0.028-23.721c0.229-3.915,0.114-7.888,0.028-11.831
	c-0.114-7.916,0.286-15.861-0.057-23.721c-0.144-2.686,0.257-6.602,0.2-8.745c-0.029-0.742-0.058-1.6-0.058-2.629
	c0.028-1.829-0.143-4.115-0.172-6.059c-0.028-3.058,0.344-1.943-1.343-4.201c-3.544-0.485-7.888,0.115-11.603-0.114
	c-4.058-0.257-7.63-0.171-11.631-0.2c-1.943,0-3.858,0.2-5.802,0.2l-11.603-0.257c-1.028,0-1.943,0.2-2.915,0.2
	c-1.086,0-1.8-0.2-2.914-0.114c-4.887,0.314-45.439-0.6-46.525,0.114c-1.857,1.229-0.886,6.63-1.257,10.403
	c-0.458,4.544,0.628,13.832-0.114,17.032c-1.029,4.544,0,6.945-0.143,10.603c-0.086,2.287,0.343,0.743,0.4,4.573
	c0.029,0.943,0.029,1.972,0,2.915c-0.057,0.743-1.114,4.801-0.886,7.716c0.171,2.458,0.915-0.886,0.915,4.858l-0.171,28.293
	c-0.715,0.886,0.628-0.629-0.372,0.314c-0.029,0-0.086,0.057-0.114,0.086c-1.229,1.285,0.4,3.372,0.771,6.372
	c1.2,0.515,0.229,0.458,1.572,1.458c0.057,0.028,0.229,0.143,0.286,0.2c0.886,0.571,0.686,0.485,1.829,0.515
	c1.486,0.057,4.401,0.285,5.63-0.2c3.972-1.486,4.086,0.2,10.345,0.2c2.229,0,6.658,0.199,8.659-0.086
	c1.172-0.172,1.543,0.086,2.744,0c3.887-0.229,7.459,0.143,11.374,0.143L180.178,246.859z"/>
<path fill-rule="evenodd" clip-rule="evenodd" fill="#B0B1A9" d="M246.593,290.585c-0.058,3.743-0.143,7.259-0.2,10.888
	c-0.114,5.745-0.571,5.517-5.63,5.459l-54.184-0.114c-5.058,0-2.343-1.114-6.858-0.114c-1.229,0.257-11.431-0.114-13.231-0.114
	c-6.487,0-3.829-0.801-10.23,0.114c-3.001,0.429-7.573-0.172-10.831-0.028c-3.829,0.171-6.516-0.972-10.145-0.486
	c-2,0.286-2.543,0.571-5.087,0.515c-1.601-0.028-3.372-0.258-4.858-0.429c-4.543-0.457-26.777-0.257-32.15-0.257
	c-1.972,0-3.515,0.285-5.344,0.257c-1.715-0.028-3.201-0.229-5.059-0.2c-3.629,0.028-7.344-0.172-10.917-0.057
	c-9.488,0.229-22.119,0.057-32.178,0.057c-4.001-0.028-8.345,0.715-8.659-2.172c-0.314-2.629-0.114-8.03-0.086-10.889
	c0.114-9.545,0.286-23.291-0.2-32.179c-0.2-3.572,0.257-7.202,0.257-10.66l-0.286-53.728c-0.629,0.457-0.857,1.543-0.857,2.429
	c-0.028,0.801,0.229,1.943,0.314,2.887c0.458,4.516,0.343,7.373,0.343,11.889c0,2.144-0.371,1.601-0.571,2.286
	c-0.314,1.001,0.143,1.687,0.143,2.544c0,0.771-0.4,1.8-0.2,2.857c0.229,1.058,0.628,0.286,0.628,2.201c0,2.028,0,4.058,0,6.087
	c0,2.058-0.286,4.201-0.257,6.03c0,1.2,0.257,1.686,0.257,2.886v12.375c0,1.657-0.171,0.829-0.571,2.086
	c-0.4,1.172,0.143,1.629,0.057,2.715c-0.057,0.943-0.257,1.601-0.257,2.915c0.029,1.115,0,2.087,0.086,3.173
	c0.143,1.686,0.343,1.229,0.6,2.229c0.171,0.743,0.085,5.173,0.085,6.23c-0.057,2-0.314,1.515-0.571,2.515
	c-0.171,0.657-0.057,1.915-0.171,2.743c-0.343,2.43,0.372,3.229,0.4,5.373c0.029,2.858-0.629,0.687-0.486,5.573
	c0.257,0.257,0.543,0.485,0.771,0.657c-0.028,5.458,0.143,10.859,0.114,16.289c-0.028,3.658,1.343,3.115,4.773,3.229l15.975,0.229
	c2.687-0.199,4.887-0.229,7.745-0.229c2.286-0.028,5.658-0.371,7.716,0.2c2.144,0.601,9.088-0.371,11.374-0.229
	c1.314,0.058,2.286,0.257,3.887,0.2c2.715-0.086,5.229,0.543,7.745,0.229c4.944-0.601,10.202-0.028,15.489,0
	c1.972,0.028,2.086-0.485,3.629-0.485c1.458-0.029,2.344,0.257,3.858,0.229c2.658-0.029,5.344,0,8.002,0
	c2.343,0.028,4.83,0.429,7.487,0.457c4.944,0.114,3.915-0.086,7.745-0.286c2.887-0.171,5.229,0.429,8.002,0.372
	c2.657-0.058,5.315-0.058,7.973,0c15.204,0.229,33.322-0.601,47.954,0.171c2.972,0.172,11.259-0.229,15.917-0.114
	c6.659,0.144,17.719-0.285,23.948,0.229c1.429,0.114,2.715,0.058,4.144,0.058c1.544,0,2.287-0.143,2.687-1.4
	c0.629-1.857,0.429-10.66,0.457-13.746C247.107,290.471,246.879,290.842,246.593,290.585L246.593,290.585z"/>
<path fill-rule="evenodd" clip-rule="evenodd" fill="#8E8D8D" d="M181.836,155.466l0.2,9.773c-0.058,0.572-0.144,1.115-0.058,1.687
	c0.114,0.972,0.257,0.657,0.4,1.343c0.171,0.715-0.372,1.544-0.4,2.772l0.058,10.174c0.085,2.258-0.086,4.516-0.058,6.773
	c0.028,1.143-0.057,2.286,0.028,3.4c0.114,1.515,1.372,7.145,0.4,9.146c-0.657,1.314-0.343,1.286-0.4,2.943
	c-0.057,2.687,0.314,1.258,0.715,2.915c0,0.485-1.486,1.486-0.601,4.487c0.229,0.714,0.771,0.8,0.572,2
	c-0.172,1-0.687,0.629-0.429,2.144c0.143,0.943,0.485,0.771,0.485,2.258c-0.028,0.972-0.314,1.571-0.515,2.229
	c-0.313,1.086-0.371,6.345-0.257,7.945c0.086,1.486,0.457,1.229,0.657,2.029c0.314,1.2-1.058,2.028-0.286,4.829
	c1.058,3.801-0.399,5.087-0.285,6.888c0.2,2.743-1.114,2.115-8.316,2.086c-2.572-0.028-1.172-0.629-3.115-0.8
	c-2.429-0.172-9.401-0.086-11.174,0.429c-2.143,0.629-4.915,0.314-7.259,0.257c-1.314-0.086-2.257-0.399-3.601-0.457
	c-1.2-0.028-2.429,0.058-3.658,0.058l-48.067,0.143c-0.914-0.143-1.372-0.972-2.115-1.515c0.229-6.974,0.286-14.718,0.114-21.72
	c-0.171-7.173,0.115-14.347-0.028-21.52c-0.143-7.23,0-14.318,0.057-21.548c0.028-3.572-0.229-6.888-0.143-10.403
	c0.086-3.601,0.229-7.315,0.057-10.888c0.743-0.429,0.772-0.086,1.515-0.801l-1.743,0.286c-0.628,1.4-0.028,70.274-0.2,84.478
	c-0.028,3.229,0.086,2.144,1.458,4.201c6.916,0.258,14.546,0.086,21.519,0.028c7.259-0.085,14.518,0,21.776-0.028
	c7.287,0,14.203,0.4,21.29,0.086c2.973-0.114,8.116-0.286,10.745,0.114c1.887,0.286,8.773,0.2,10.803,0
	c2.144-3.058,0.743,0,1.144-3.915c0.085-0.915,0.085-1.972,0.085-2.887c0-2.115-0.257-4.001-0.028-5.944
	c0.372-2.772-0.543-2.486-0.571-4.687c0-1.715-0.114-4.43,0.171-5.83c0.515-2.372,0.486-3.173,0.2-5.459
	c-0.114-1,0.2-1.515,0.2-2.543c0.028-2.63-1.086-1.801-0.143-5.087c0.429-1.458-0.058-1.801-0.172-2.915
	c-0.2-1.829,0.687-6.802,0.2-11.574c-0.314-2.772-0.6,0.714-0.6-5.345c-0.029-1.743,0.313-3.972,0.399-5.572
	c0.028-0.886-0.314-1.458-0.143-2.544c0.543-3.772-0.743-3.001-0.257-8.287c0.114-1.286,0.571-0.829,0.657-2.229
	c0.114-1.229-0.486-1.572-0.486-2.629c0.028-0.772,0.314-1.544,0.314-2.687c0-1.058-0.086-2.115-0.086-3.144l-0.657-5.545
	c-3.258-0.714-7.287,0.086-10.402,0.144c-1.629,0.028-3.286-0.229-5.087-0.229c-1.771-0.029-3.629-0.058-5.43-0.114
	c-7.115-0.286-14.488,0-21.662-0.058c-3.629-0.028-7.258-0.172-10.888-0.2c-3.429-0.028-7.659,0.372-10.888,0.143
	c-7.316-0.485-9.059-0.313-15.718-0.057c-5.315,0.229-2.314-0.657-4.83-0.715c-1.314,0-0.114-0.085-0.657,0.4
	c2.086,0.2,2,0.943,4.744,0.8c5.944-0.285,10.374-0.343,16.46,0.058c3.258,0.2,7.43-0.2,10.888-0.172
	c6.716,0.029,15.003-0.057,21.548,0.229c3.515,0.143,7.087-0.314,10.888-0.058l10.402,0.571
	C172.862,155.638,179.835,154.065,181.836,155.466L181.836,155.466z"/>
<path fill-rule="evenodd" clip-rule="evenodd" fill="#6C6E71" d="M188.494,304.331l-1.429-0.457
	c-1.372-0.029-0.371,0.343-3.658-0.029c-2.172-0.229-12.202,0-15.231-0.057c-4.687-0.086-10.717,0.171-15.203-0.028
	c-1.544-0.058-3.287-0.486-4.63-0.458c-1.372,0.029-3.144,0.372-4.83,0.458h-10.145c-0.8-0.114-1.172-0.486-1.972-0.629
	l-7.487-0.028c-1.772,0.085-7.859,0.914-9.688,0.628c-1.829-0.285-1.714-0.714-4.344-0.686c-3.543,0.028-6.773-0.229-9.831,0.543
	c-1.372,0.343-3.429,0.343-4.715-0.086c-2.343-0.8-12.231-0.571-14.746-0.429c-1.543,0.086-1.715,0.857-4.115,0.715
	c-1.572-0.114-2.201-0.743-4.344-0.743c-3.315,0-6.859-0.086-10.174,0.058c-1.515,0.057-3.286,0.543-4.487,0.313
	c-3.658-0.657-10.917-0.285-14.86-0.229c-1.515,0.029-5.801,0.972-8.23-0.743l-0.314-14.26c0.085-2.258,0.257-4.83,0.257-7.03
	c0-1.201-0.115-2.43-0.172-3.63c-0.085-1.572,0.257-2.115,0.343-3.4c0.143-1.744-0.429-4.43-0.372-6.773
	c0.057-2.4,0.028-4.83,0.028-7.259l-0.057-70.646c-0.028-0.371-0.028-0.629-0.143-0.972c-0.143-0.543-0.114-0.429-0.314-0.714
	c-0.229,5.658,0.028,11.717,0.028,17.404c-0.028,5.687-0.171,11.545-0.028,17.204c0.171,5.63,0.028,11.488,0,17.176
	c0,5.715,0.057,11.46,0.057,17.176l0.171,17.175c-0.057,5.716-0.257,11.46-0.2,17.176c0,2.829,0.172,5.63,0.143,8.46
	c-0.057,4.001,0.372,4.058,3.972,4.515c2.429,0.314,6.001-0.257,8.459-0.285c2.858-0.058,5.858-0.058,8.716,0
	c1.372,0.028,2.372,0.314,3.858,0.314c1.515-0.029,2.658-0.286,4.115-0.314c2.886-0.086,5.83,0.028,8.716,0
	c2.886-0.058,4.544,0.714,7.773,0.285c1.915-0.257,9.831-0.114,12.803-0.114c1.515-0.028,2.572,0.286,4.087,0.286
	c3.144-0.028,5.373-0.372,8.259-0.457c5.83-0.172,10.603,0.714,16.432,0.285c2.858-0.2,5.315-0.171,8.23-0.2
	c2.086-0.057,2.429,0.258,4.115,0.4l12.832-0.114c3-0.229,5.229,0.086,8.23,0.086c5.572,0,11.659,0.257,17.175,0.057
	c2.572-0.085,10.316-0.285,12.688,0.258C186.122,304.931,186.38,304.103,188.494,304.331L188.494,304.331z"/>
<path fill-rule="evenodd" clip-rule="evenodd" fill="#D5D2CC" d="M96.331,154.522c-0.743,0.715-0.771,0.372-1.515,0.801
	c0.172,3.572,0.029,7.287-0.057,10.888c-0.085,3.516,0.171,6.831,0.143,10.403c-0.057,7.229-0.2,14.317-0.057,21.548
	c0.143,7.173-0.143,14.347,0.028,21.52c0.172,7.002,0.115,14.746-0.114,21.72c0.743,0.543,1.201,1.372,2.115,1.515l48.067-0.143
	c1.229,0,2.458-0.086,3.658-0.058c1.344,0.058,2.286,0.371,3.601,0.457c-1-1.486-4.943-0.972-6.516-0.972l-21.547,0.028
	c-9.402-0.057-18.775,0.029-28.177-0.028l-0.314-1.601c0.143,0.029,0.229,0,0.286,0.114l1.2,0.601v-1.543
	c-0.314-0.114-0.343-0.029-0.6-0.114l-0.771-0.372c-0.458-5.173-0.2-13.003-0.086-18.376v-29.807
	c0.143-1.115,0.458-1.086,0.486-1.915c0.029-1.429-0.229-0.086-0.486-1.657l0.029-16.233c-0.057-2.028-0.572-2.143,0.514-3.857
	c-0.314-0.687-0.6,0.028-0.543-2.658l-0.028-9.603c2.629,0.258,8.03,0.029,10.831-0.028l22.519,0.028
	c3.629,0.029,7.801-0.114,11.374,0.086c1.829,0.086,3.687,0.286,5.544,0.172c4.658-0.314,1.772,0.485,4.83,0.485
	c0.8,0,1.687,0.028,2.429-0.2c0.772-0.285,0.486-0.543,2.43-0.514c1.829,0.028,3.915-0.2,5.516,0.371
	c1.657,0.601,8.573,0.601,10.945,0.543c0.886,0,1.629-0.114,2.429-0.371c1.629-0.515,1.058-0.172,2.458-0.058
	c1.343,0.114,2.915-1.258,4.601,0.257c0.515-0.313,0.286,0.2,0.286-0.485c-2.001-1.4-8.974,0.172-10.26,0.143l-10.402-0.571
	c-3.801-0.257-7.373,0.2-10.888,0.058c-6.545-0.286-14.832-0.2-21.548-0.229c-3.458-0.028-7.63,0.372-10.888,0.172
	c-6.087-0.4-10.517-0.343-16.46-0.058c-2.744,0.144-2.658-0.6-4.744-0.8L96.331,154.522z"/>
<path fill-rule="evenodd" clip-rule="evenodd" fill="#8E8D8D" d="M137.141,121.543c0.399,0.372,0.114,0.257,0.8,0.429
	c1.286,0.343,10.174-0.657,15.461,0.057c4.572,0.6,11.974,0.171,16.975,0.086c2.515-0.029,5.373,0.257,8.202,0.257
	c2.829-0.029,5.658,0,8.487,0c19.604-0.057,40.065-0.314,59.527-0.114c2.314,0.028,3.372,0.628,7.973,0.4l12.832-0.029
	c1.343,0.115,2.886,0.314,3.857-0.457c-0.085-0.457,0.058-0.686-0.6-1.086l-0.114,1.029c-2.715,0.4-1.943-0.515-3.63-0.657
	c-1.143-0.086-3.144,0.028-4.372,0.057c-1.743,0.028-7.059-0.229-8.345,0.143c-0.629,0.2-0.429,0.458-1.571,0.515
	c-2.83,0.229-4.287-0.686-5.545-0.714c-2.715-0.086-5.744-0.057-8.487-0.029c-22.404,0.2-45.296-0.057-67.758-0.085
	c-5.63,0-11.288,0.171-16.918,0.028C150.343,121.286,140.313,121.114,137.141,121.543L137.141,121.543z"/>
<path fill-rule="evenodd" clip-rule="evenodd" fill="#8E8D8D" d="M93.645,245.603c0.6,0.942-0.286,0.057,0.543,0.399
	c0.972,0.429,3.543,0.2,4.572,0.144c2.115-0.114,2.915-0.572,5.315-0.458c3.487,0.144,7.059,0.544,10.631,0.601
	c4.401,0.086,3.601-0.257,5.344-0.371c5.144-0.258,10.974,0.399,16.204,0.399c1.886,0,3.886-0.057,5.801,0.086
	c2.114,0.143,3.544-0.143,5.572-0.171c3.63,0,7.287,0.114,10.889,0.257c7.772,0.314,9.545,0.086,16.432-0.114l5.03,0.371
	c0.028-0.057,0.143,0.086,0.199,0.114c3.059-0.657,3.83,1.115,5.602-1.829l0.457-0.771c-0.2-3.344,0.314-10.945-0.028-13.86
	c-0.143-1.086-0.543-1.972-0.343-3.172c0.571-3.401,0.657-6.059,0.429-9.717c-0.343-5.688,0.086-14.175-0.058-20.548
	c-0.028-1.172,0.086-2.258,0.086-3.401c0-1.086-0.314-2.144-0.314-3.144c0.058-4.229,0.886-9.202-0.143-13.203
	c-0.429-1.629,0.543-1.515,0.143-3.144c-0.429-1.657-0.515-0.629,0-2.572c0.314-1.143,0.372-5.201,0.258-6.487
	c-0.344-3.601-0.029-1.314,0.028-3.172c0.028-1.372-0.515-1.172-0.601-2.629c-0.399-6.716,1.743-7.402-6.63-7.088
	c-2.457,0.086-4.687-0.257-6.772-0.171c0.543,0.743-0.086,0.457,1.314,0.686l4.973,0.086c7.944-0.144,6.487-0.886,6.572,6.258
	c0,2.144,0.458,1.258,0.657,2.458c0.286,1.629-0.514,0.743-0.6,2.144c-0.058,1.4,0.571,0.8,0.686,2.372
	c0.314,4.229-0.8,2.429-0.657,8.487c0.028,1.001-0.286,2.087,0,3.059c0.4,1.286,0.543,0.2,0.515,2.486l-0.058,11.945
	c0.429,1.629,0.144,3.887,0.172,5.744c0.057,2.115,0,4.201,0.028,6.288c0.028,2.515-0.371,3.314-0.485,5.572
	c-0.086,2.4,0.285,1.543,0.429,2.715c0.171,1.172-0.314,1.687-0.372,2.601c-0.086,1.058,0.372,1.857,0.429,2.887
	c0.114,2.172-0.028,7.059-0.485,8.802c-0.715,2.601,0.571,3.687,0.314,5.373c-0.286,1.972,0.514,9.488-0.058,11.603
	c-1.143,4.287-4.229,2.201-9.002,2.201c-3.772,0-4.458,0.371-5.801,0.399c-2.258,0.058-3.716,0.058-5.83-0.085l-12.089-0.344
	c-3.915-0.028-8.145,0.314-11.631,0.058c-3.973-0.286-8.259,0.143-12.317-0.143c-1.886-0.114-4.03-0.314-6.059-0.144
	c-1.4,0.114-1.829-0.143-2.858-0.085c-0.8,0.057-1.314,0.313-2.458,0.343c-4.201,0.057-8.116-0.314-12.117-0.372
	C101.39,245.259,97.875,245.745,93.645,245.603L93.645,245.603z"/>
<path fill-rule="evenodd" clip-rule="evenodd" fill="#8E8D8D" d="M246.707,233.313c0.143-1.2-0.028-2.486,0-3.715
	c0.028-1.229,0.229-1.801,0.343-2.887c0.2-1.972,0.058-4.744,0-6.773c-0.257-6.602-0.229-6.744,0.058-13.061
	c0.2-4.629-0.343-8.973-0.258-13.546c0.114-8.573,0-18.919,0.258-27.121c0.143-4.515-0.2-8.859,0-13.546
	c0.257-6.202-0.258-12.917,0-20.319c0.057-1.743-0.229-5.344,0.028-6.716c2.144-0.286,4.973-0.086,7.201-0.086
	c1.601-0.028,2.915-0.943,6.716-0.457c4.115,0.543,9.202,0.457,13.832,0.457v-0.915c-3.458-0.028-26.892-0.6-28.006,0.257
	c-0.344,0.343-0.4,0.714-0.429,1.4c0,0.486,0.085,1.172,0.114,1.715c0.143,3.687-0.229,7.001-0.229,10.631
	c0,4.716,0.257,9.174,0.257,13.804c0,2.144-0.686,1.687-0.314,6.516c0.172,2.058,0.286,4.602,0.314,6.773l-0.2,6.944
	c-0.429,2.658,0.058,4.029,0.086,6.602c0.028,2.372,0.057,4.687,0.057,7.03c0.029,2.515-0.371,4.401-0.457,6.516
	c-0.143,4.373,0.629,8.803,0.515,13.575c-0.086,2.314-0.515,4.144-0.429,6.773c0.114,3.229,0.771,10.888,0.314,13.718
	c-0.172,1.143-0.829,4.458-0.257,5.801C246.535,233.428,246.192,232.942,246.707,233.313L246.707,233.313z"/>
<path fill-rule="evenodd" clip-rule="evenodd" fill="#6C6E71" d="M13.513,110.083l-3.344,3.373
	c-1.114,1.143-2.172,2.086-3.315,2.915c-0.743,0.571-1,0.886-1.743,1.458c-0.857,0.714-1.486,0.943-2.629,2.229
	c-1.229,1.343-2.229,1.629-1.886,2.858c1,1.886,4.858,1.429,6.973,1.114c2-0.286,5.858-0.085,7.544,0.2
	c3.801,0.657,13.317-0.314,15.375,0.372c0.257,1.458-0.286,1.686-0.429,2.943c-0.143,1.286,0.343,1.744,0.514,2.83
	c0.314,1.372,0.115,6.401,0.115,8.259c-0.029,2.601-0.314,5.83-0.115,8.06c0.429,4.315,0.257,12.603-0.085,16.861
	c-0.257,2.886,0.8,10.859-0.2,16.519c-0.343,1.857,0.286,1.972,0.343,3.801c0.085,3.058-0.2,10.803,0.085,12.574
	c0.6-0.257,0.029,0.343,0.314-0.515c0.343-0.942,0.086-4.4,0.086-5.516c0.028-10.517-0.172-22.377,0.028-32.665
	c0.114-4.344-0.2-8.802-0.114-13.06c0.086-4.287,0.257-8.545,0.171-12.832c-0.028-1.114-0.229-2.058-0.286-3.144
	c-0.086-1.257,0.143-2.286,0.114-3.401c-0.057-2.543-2.515-1.772-4.658-1.715c-2.086,0.057-3.944,0.229-6.287,0.172
	c-2.058-0.058-3.972-0.343-6.258-0.314c-2.944,0-10.717,0.571-12.688-0.429c-0.057-1.715-0.343-0.743,0.628-1.543
	c2.258-1.829,0.657-1.314,3.372-2.943l4.516-3.658c0.743-0.771,1.314-1.372,2.029-2.086c0.943-0.915,1.086-1.486,2.058-2.029
	c2.229-1.229,1.314-1.4,2.4-2.201l0.286-0.2c0.657-0.486,1.514-1.086,1.657-2c-1.171,0.286-1.743,1.2-2.515,1.857
	C14.771,108.883,14.513,109.769,13.513,110.083L13.513,110.083z"/>
<path fill-rule="evenodd" clip-rule="evenodd" fill="#D5D2CC" d="M59.895,68.759c0.057-0.029,0.143-0.171,0.2-0.114l1.2-0.657
	c1.286-0.629,1.857-1.915,3.401-2.858c0.486-0.314,0.457-0.572,1.286-1.086c0.857-0.543,0.971-0.686,1.629-1.315
	c0.972-0.886,1.829-1.686,2.886-2.429l1.086-1.314c1.086-1.058,2.572-2.886,3.687-3.144l2.829-2.429
	c0.657-0.686,0.657-0.743,1.543-1.4c0.601-0.429,0.972-0.915,1.486-1.372c0.743-0.686,0.943-0.458,1.657-1.258
	c0.314-0.343,0.4-0.514,0.658-0.8l3.687-3.401c0.743-1.372,1.343-1.172,2.715-2.572l13.174-11.688
	c1.486-1.515,4.172-4.401,5.772-4.916c0.657-0.4,1.029-0.857,1.686-1.458c0.429-0.372,0.6-0.429,0.943-0.771
	c0.314-0.257,0.543-0.629,0.657-0.772l1.086-1.343c0.6-0.543,0.543-0.371,0.886-1.229c-0.686,0.057-0.4,0.028-0.829,0.314
	c-0.057,0.028-0.486,0.486-0.486,0.486c-0.572,0.628-0.229,0.085-0.686,1.029c-1.029-0.029-0.4,0.085-1.057-0.343
	c-0.171,0.314,0.057,0.086-0.314,0.429c-0.029,0.029-0.086,0.086-0.143,0.114c-0.714,0.629-0.4,0.029-1.171,1.172l-0.2,0.314
	c-0.886,1.429-0.086,0.771-1.086,1.572c-2.772,2.144-1.772,0.257-2.915,2.144c-1.257,2.143-2.629,2.572-3.229,3.115
	c-0.686,0.6-0.114,0.772-1.572,0.857c-0.114,1.229-0.6,1.429-1.201,1.943l-0.943,0.686c-0.057,0.028-0.114,0.057-0.171,0.085
	l-2.715,2.372c-0.057,0.029-0.086,0.086-0.114,0.143l-2.086,1.343c-0.429,0.286-0.143,0.514-0.085,1.257
	c-1.858,0.086-0.857,0-1.829,0.915c-0.829,0.771-0.171-0.343-1.372,1.257c-0.372,0.486-0.886,0.915-1.372,1.286l-1.343,1.086
	c-1.601,1.543-0.915-0.286-2.144,1.943c-0.486,0.857-0.743,0.571-1.515,1.2l-2.257,2.029c-0.029,0.057-0.086,0.114-0.115,0.171
	c-0.028,0.028-0.057,0.085-0.085,0.143c-0.057,0.028-0.086,0.085-0.143,0.114c-0.171,0.2-0.343,0.343-0.628,0.6l-2.772,2.543
	c-0.457,0.514-0.771,0.743-1.257,1.2l-1.4,1.257c-0.971,0.886-0.829-0.057-1.857,1.229c-0.686,0.829-0.628,0.429-1.486,1.2
	c-0.057,0.029-0.086,0.086-0.114,0.114c-0.629,0.543-0.143,0.343-1,0.458l-0.028,1.4c-1,0.057-0.943,0.171-1.658-0.171
	c0.171,0.171,0.143-0.543,0.229,0.8L66.039,63.1c-0.029,0.057-0.086,0.114-0.114,0.143L65.382,63.7
	c-1.343,0.886-1.629,0.171-1.715,1.886c-2.058,0.057-1.4,0.114-2.086,1.915C60.266,67.787,59.78,67.53,59.895,68.759L59.895,68.759z
	"/>
<path fill-rule="evenodd" clip-rule="evenodd" fill="#B0B1A9" d="M114.421,20.547l0.886-0.114c0.286-0.829,0.143-0.714,0.972-0.972
	c0.257-0.743,0.572-0.829,1.601-1.743c1.629-1.4,1.743-1.058,3.629-3.172c0.457-0.515,0.229-0.4,0.771-0.943
	c0.572-0.543,0.4-0.458,1.172-0.686c0.857-0.257,2.057-2.029,3.543-3.086c1.486-1.086,3.429-3.058,4.83-4.344
	c1.458-1.343,2.772-2.315,4.344-3.658c0.686-0.601,1.229-1.458,2.686-1.058c0.915,0.257,4.087,3.315,5.459,4.458l5.601,4.573
	c0.743,0.6,1.286,1.172,1.973,1.886l5.687,5.201c0.028,0.029,0.086,0.086,0.143,0.114l0.543,0.372l0.2-0.886l-1.857-1.515
	c-0.314-0.229-0.485-0.314-0.715-0.486c-0.457-0.314-0.371-0.257-0.657-0.6c-0.399-0.429-0.114-0.143-0.6-0.6l-6.201-5.659
	c-0.4-0.429-0.687-0.686-1.115-1.029c-0.914-0.657-0.657-0.4-1.343-1.086l-5.115-4.344c-3.601-2.43-4.201-0.543-5.973,0.857
	L133.739,2.8c-1.543,1.458-3.715,3.944-5.744,4.544c-1.572,0.457-0.429,0.486-1.857,1.886l-3,3.058
	c-0.2,0.229-0.143,0.114-0.372,0.343c-0.515,0.514-0.915,0.857-1.4,1.286l-3.429,3.086c-0.4,0.286-0.458,0.257-0.857,0.601
	C115.878,18.604,114.85,19.432,114.421,20.547L114.421,20.547z"/>
<path fill-rule="evenodd" clip-rule="evenodd" fill="#D5D2CC" d="M30.574,130.374c-0.171-1.086-0.657-1.543-0.514-2.83
	c0.143-1.257,0.686-1.486,0.429-2.943c-2.058-0.686-11.574,0.286-15.375-0.372c-1.686-0.286-5.544-0.486-7.544-0.2
	c-2.115,0.314-5.973,0.772-6.973-1.114c-0.343-1.229,0.657-1.515,1.886-2.858c1.143-1.286,1.772-1.515,2.629-2.229
	c0.743-0.572,1-0.886,1.743-1.458c1.143-0.829,2.201-1.772,3.315-2.915l3.344-3.373h-0.915c-0.686,1.772,0.4,0.057-1.314,1.601
	l-10.917,9.66c-0.372,0.543-0.429,0.915-0.314,1.6c0.171,1,0.229,0.743,0.771,1.115c0.2,0.143,0.915,0.571,1.086,0.657
	c1.171,0.458,26.777-0.086,28.149,0.372c-0.086,0.372-0.886,2.915-0.429,4.373C29.945,130.431,29.717,130.088,30.574,130.374
	L30.574,130.374z"/>
<path fill-rule="evenodd" clip-rule="evenodd" fill="#D5D2CC" d="M128.252,12.088c-1.429,0.943-5.858,5.344-7.573,6.916
	c-0.971,0.886-0.771,0.229-1.143,1.315c0.8-0.057,0.715,0.028,1.315-0.372l0.714-0.743c0.057-0.057,0.085-0.085,0.143-0.143
	l1.144-1.486c1.057-1-0.715,0.457,0.229-0.2c1.743-1.229,0.2,0.772,3.144-2.257l5.401-5.001c1.886-1.343,0.543,0.229,2.258-1.829
	c0.286-0.314,0.114-0.143,0.4-0.372c0.429-0.372,0.343-0.229,0.886-0.771c0.314-0.286,0.543-0.543,0.743-0.714l1-0.743
	c0.629-0.4,1.744-1.629,3.287-0.229l1.914,1.743c1.515,1.658,0.771,0.343,2.286,2.029c0.4,0.457,1.001,1.171,1.658,1.572
	l0.371,0.171c1.829,0.915,0.229,1.143,1.801,0.915c-0.343-1.029-2.629-2.629-3.801-3.629c-1.314-1.086-2.63-2.429-3.887-3.601
	c-1.343-0.229-1.029-0.771-2.286-0.515C136.168,4.6,130.11,11.487,128.252,12.088L128.252,12.088z"/>
<path fill-rule="evenodd" clip-rule="evenodd" fill="#D5D2CC" d="M239.048,89.507c0.286,0.114,0.915,0.628,1.144,0.829
	c0.515,0.429,0.515,0.6,1.086,1.086c0.829,0.743,1.686,1.286,2.572,2.029c0.771,0.657,1.343,1.314,2.257,2.115
	c0.458,0.372,0.772,0.571,1.229,0.943l3.429,3.344c0.857,0.686,1.458,1.658,2.258,2.315c0.601,0.457,0.801,0.343,1.4,0.8
	c1,0.714,2.486,3.058,3.858,3.172c-0.086-1.458-0.886-1.057-2.144-2.458l-0.4-0.543c-0.714-0.972-1.914-1.543-2.915-2.258
	l-2.857-3.172c-0.485-0.829-1.515-1.572-2.314-1.972c-0.972-0.458-0.086,0.057-0.886-0.6c0,0-0.372-0.314-0.4-0.343l-1.972-1.858
	c-0.458-0.343,0.114,0.171-0.429-0.314l-1.629-1.515c-0.229-0.171-0.2-0.114-0.429-0.314c-0.343-0.229-0.515-0.343-0.771-0.714
	c-1.172-1.515-0.372,0-2.829-2.458c-0.258-0.257-0.144-0.2-0.344-0.372l-1.485-1.172c-0.029-0.028-0.086-0.085-0.114-0.114
	l-3.544-2.486c0.515,1.229,1.571,1.515,3.172,3.058C238.19,88.649,238.19,87.678,239.048,89.507L239.048,89.507z"/>
<path fill-rule="evenodd" clip-rule="evenodd" fill="#B0B1A9" d="M219.615,71.959c-0.2-1.8-0.571-0.572-1.543-1.601
	c-0.229-0.257-0.2-0.457-0.571-0.886l-2.029-1.886c-0.829-0.629-2.458-1.829-2.972-2.572c-0.486-0.743-0.629-0.772-1.344-1.286
	c-1.486-1.115-1.229-1.229-2.2-2.172l-4.487-4.201c-0.828-0.629-0.972-0.543-1.714-1.458c-0.687-0.829,0.628,0.857-0.229-0.286
	c-0.029-0.057-0.058-0.115-0.086-0.143c-0.457-0.657,0.086-0.229-1.086-0.771c-1.058-0.486-0.457-0.458-1.429-1.286
	c-0.543-0.486-1.115-0.657-1.572-1.086c-0.715-0.686-0.4-0.915-1.829-1.029c0.515,1.171,1.772,1.915,2.829,2.686
	c1.915,1.4,6.345,5.745,8.545,7.688l5.516,5.344c3.601,2.629,2.743,2.486,4.201,3.801L219.615,71.959z"/>
<path fill-rule="evenodd" clip-rule="evenodd" fill="#B0B1A9" d="M39.69,87.049c-0.829,0-0.458,0.029-0.857,0.372l-0.515,0.458
	c-0.028,0.028-0.085,0.057-0.143,0.085l-1.315,1.086c-2.857,1.972-1.629,1.543-2.715,2.401c-0.2,0.171-0.6,0.4-0.829,0.628
	c-0.286,0.286-0.343,0.429-0.543,0.657l-3.715,3.573c-2,1.943-2.429,1.457-3.544,2.715c-0.171,0.2-0.4,0.457-0.571,0.657
	c-0.372,0.343-0.886,0.771-1.372,1.114c-1.429,1-2.486,2.544-3.772,3.658c-0.686,0.6-0.515,0.486-1.429,0.972l-0.2,0.829
	c0.085-0.029,0.171-0.172,0.229-0.086c0.028,0.057,0.143-0.086,0.2-0.114l2.086-1.429c2.029-1.714,1.229-1.572,4.058-3.687
	l10.231-9.374c0.543-0.829,0.571-0.686,1.171-1.2c0.972-0.829,0.257-0.629,1.372-1.086c0.4-0.229,0.686-0.6,1.171-0.972
	c0.6-0.428,0.857-0.657,1.4-1.029l1.972-1.686c0.057-0.057,0.2-0.229,0.229-0.286l0.4-0.486
	C40.919,84.906,41.348,85.877,39.69,87.049L39.69,87.049z"/>
<path fill-rule="evenodd" clip-rule="evenodd" fill="#B0B1A9" d="M50.979,80.933c-1.772,0.943-5.116,4.744-6.344,5.744l-2.315,1.829
	c-2.915,2.372-1.314,0.372-4.401,3.83c-0.572,0.657-3.229,2.687-4.058,3.715c-0.314,0.4-0.028,0.028-0.343,0.571
	c1.057,0.029,2.458-1.372,3.172-2.115c3.058-3.201,3.43-3.401,6.659-5.944c1.943-1.486,0.458,0.086,2.772-2.315l2.515-2.543
	c1.4-1.372,0.886-1.114,2.743-2.343c2.315-1.572,1.743-1.857,2.715-2.601c0.772-0.6,1.029-0.343,1.429-1.286
	c-1.343,0.2-2.572,1.829-3.287,2.543L50.979,80.933z"/>
<path fill-rule="evenodd" clip-rule="evenodd" fill="#B0B1A9" d="M179.692,40.009c-0.601-1.286-0.657-0.6-2.2-2.144l-4.259-3.972
	c-0.8-0.915-1.4-1.029-2.343-2c-1.601-1.601-1.4-1.801-3.087-2.944l-1.172-1.029c-0.942-0.972-1.314-0.972-2.286-1.8
	c-2-1.715-0.771-1.601-2.457-2.201c0.371,1.943,2.715,2.972,3.972,4.544l1.315,1.315c0.514,0.372,0.828,0.257,2.143,1.486
	c0.029,0.029,0.086,0.086,0.114,0.114l0.344,0.4c1.543,1.6,0.914,1.2,2.343,2.258l2.515,2.286
	C177.034,37.637,177.435,40.066,179.692,40.009L179.692,40.009z"/>
<path fill-rule="evenodd" clip-rule="evenodd" fill="#D5D2CC" d="M173.291,30.949l4.001,3.487c0.571,0.514,1,0.8,1.457,1.2
	l5.888,4.944c-0.058-2.401-2.315-2.715-3.201-3.544l-1.172-1.2c-1.2-1.315-0.399-0.829-1.571-1.543l-1.801-1.4
	c-0.028-0.028-0.086-0.057-0.143-0.085c-0.028-0.057-0.086-0.086-0.114-0.143c-0.943-0.857-0.343-0.543-1.572-1.172
	c0.086-0.943,0.229-0.771,0.229-1.572c-0.343-0.028-0.6-0.057-0.914,0.029l-0.486,0.286c-0.028-0.057-0.085,0.086-0.143,0.114
	l-0.6-0.972c-0.458-0.457-0.887-0.343-1.687-1.2l-1.258-1.429c-0.514-0.543-1.314-1.429-2.771-1.486l1.686,1.4
	C169.805,27.148,172.805,29.978,173.291,30.949L173.291,30.949z"/>
<path fill-rule="evenodd" clip-rule="evenodd" fill="#D5D2CC" d="M218.015,74.532c-0.457-1-0.6-0.486-1.828-2.029
	c-0.972-1.2-1.43-1.172-2.144-1.743c-1.772-1.486-0.486-1.286-3.115-2.744c-1.114-0.6-2.486-3.144-5.001-4.858
	c-1.657-1.143-1.4-1.772-4.059-3.658l-1.028-0.229c0.343,0.829-0.086,0.114,0.457,0.715c1,1.143,3.258,2.943,3.658,4.201
	c2.144,0.114,1.486,0.343,3.544,2.429c0.628,0.6,0.714,1.058,1.371,1.515c3.744,2.515,1.515,1.515,4.688,4.058
	c0.6,0.458,1,0.629,1.514,1.343C216.729,74.389,216.844,74.617,218.015,74.532L218.015,74.532z"/>
<path fill-rule="evenodd" clip-rule="evenodd" fill="#D5D2CC" d="M73.583,60.728c-0.314,0.657,0.028,0.171-0.543,0.886
	c-0.171,0.2-0.314,0.314-0.515,0.486c-0.429,0.343-0.829,0.657-1.2,1c-0.686,0.6-1.657,1.343-2.4,1.972l-2.144,2.172
	c-2.2,2.229-10.088,8.402-11.259,10.231c0.686,0.229,0.514-0.085,2.601-1.715l1.629-1.771c0.6-0.6,0.314,0.2,2.257-1.858
	l4.887-4.058c1.229-0.943-0.085-0.943,2.172-0.972l0.057-1.6c0.8-0.229,0.6-0.143,1.114-0.629l2.658-2.429
	c1.429-1.429,0.972-0.657,2.658-2.372c0.714-0.714,0.743-0.543,1.172-0.8l0.057-0.915c-0.857,0.143-0.143-0.171-0.972,0.486
	c-0.4,0.343-0.429,0.458-0.743,0.715C74.384,60.128,74.098,60.1,73.583,60.728L73.583,60.728z"/>
<path fill-rule="evenodd" clip-rule="evenodd" fill="#D5D2CC" d="M263.339,110.712c1.029,0.343,0-0.257,1.001,0.486
	c1.629,1.172,6.887,6.259,7.401,7.316c0.571,0.229,0.972,0.543,1.486,1c1,0.857,0.429,1.057,1.657,1.2v-1.543l-1.543-0.114
	c-0.258-3.029-0.772-2.086-1.829-2.058l-0.229-0.372c-0.972-1.657-0.572-0.771-1.743-1.657c-0.029-0.057-0.086-0.086-0.114-0.114
	l-9.146-7.802c-0.686-0.486-0.771-1.257-2-0.915l0.171,0.286c0.172,0.257,0.029,0.085,0.314,0.429
	c0.286,0.314,0.372,0.343,0.629,0.6c0.543,0.514,0.857,0.743,1.286,1.086L263.339,110.712z"/>
<path fill-rule="evenodd" clip-rule="evenodd" fill="#6C6E71" d="M239.048,89.507c-0.857-1.829-0.857-0.857-3.058-2.972
	c-1.601-1.543-2.657-1.829-3.172-3.058c-0.429-0.514-0.343-0.286-0.8-0.657c-1.943-1.601-3.315-3.43-5.516-5.173
	c-1.658-1.286-4.916-5.115-7.03-5.601c0.257,0.657,0.114,0.372,0.399,0.8l9.174,8.06c0.771,0.743,1.629,1.458,2.4,2.2l4.83,4.373
	C237.448,88.506,238.048,89.278,239.048,89.507L239.048,89.507z"/>
<path fill-rule="evenodd" clip-rule="evenodd" fill="#8E8D8D" d="M94.931,41.923c1.486-0.143,3.572-2.715,4.573-3.658l6.573-6.03
	c1.972-1.057,2.772-2.115,4.601-3.858c1.715-1.658,2.029-1.086,2.058-2.287c-1.172,0.286-5.744,4.83-6.63,5.43
	c-0.629,0.429-0.658,0.372-1.258,0.943c-0.514,0.429-0.6,0.601-1.143,1.058c-0.628,0.486-1.829,1.372-2.229,1.829
	c-0.057,0.057-0.171,0.229-0.229,0.286c-0.029,0.029-0.057,0.086-0.114,0.114c-0.029,0.057-0.086,0.114-0.114,0.143
	c-0.114,0.114-0.486,0.457-0.629,0.6c-1.458,1.2-3.343,3.429-4.458,4.201C94.588,41.638,95.074,41.238,94.931,41.923L94.931,41.923z
	"/>
<path fill-rule="evenodd" clip-rule="evenodd" fill="#6C6E71" d="M50.979,80.933l1.257-0.915c0.714-0.714,1.943-2.343,3.287-2.543
	c1.171-1.829,9.059-8.002,11.259-10.231l2.144-2.172c0.743-0.629,1.714-1.372,2.4-1.972c0.372-0.343,0.771-0.657,1.2-1
	c0.2-0.171,0.343-0.286,0.515-0.486c0.571-0.715,0.229-0.229,0.543-0.886c-1.086,0.372-4.601,3.687-5.801,4.83l-2.772,2.601
	c-1.058,0.886-2.058,1.429-2.944,2.315c-2.715,2.686-5.373,5.315-8.516,7.487c-0.829,0.572-0.829,0.486-1.343,1.257
	C51.436,80.333,51.35,79.761,50.979,80.933L50.979,80.933z"/>
<path fill-rule="evenodd" clip-rule="evenodd" fill="#6C6E71" d="M87.129,45.182c2.029-0.686,3.229-2.401,4.144-3.287l10.945-9.402
	c0.286-0.286,0.2-0.286,0.543-0.629c0.286-0.314,0.457-0.429,0.8-0.714l3.886-3.544c1.343-1.114,1.029-0.686,1.343-1.6
	c-1.6,0.514-4.287,3.401-5.772,4.916L89.844,42.609C88.472,44.01,87.872,43.81,87.129,45.182L87.129,45.182z"/>
<path fill-rule="evenodd" clip-rule="evenodd" fill="#B0B1A9" d="M270.655,121.086c-0.314-1.086-2.715-2.915-3.744-3.772
	c-0.972-0.8-1.028-1.486-3.857-3.629l-6.23-5.144c-0.886-0.829-0.972-1.143-2.314-1.801c-0.028,1.372,0.086,0.257,1.715,2.172
	c0.714,0.829,0.743,1.086,2,1.829c1.372,0.829,2.486,1.886,3.658,2.887l6.887,6.202
	C270.026,121.029,269.598,121.086,270.655,121.086L270.655,121.086z"/>
<path fill-rule="evenodd" clip-rule="evenodd" fill="#D5D2CC" d="M83.071,52.269c-0.4,1.086,0.114,0.057-0.343,0.686l-3.601,2.915
	c-0.714,0.4-0.486,0.572-1.143,1.029c-0.429,0.343-0.286,0.058-0.743,0.486c-0.6,0.572-0.372,0.429-0.457,0.972
	c1.458,0.029,2.543-1.771,3.944-2.829l6.258-5.773c0.457-0.372,0.743-0.372,1.257-0.743c0.572-0.428,0.943-1.143,1.658-1.714
	c1-0.8,1.714-1.257,1.6-2.058c-0.686,0.085-0.714,0.114-1.286,0.686l-3.029,2.772c-0.543,0.429-0.657,0.571-1.029,0.886
	L83.071,52.269z"/>
<path fill-rule="evenodd" clip-rule="evenodd" fill="#8E8D8D" d="M239.105,93.394l4.058,3.658c0.515,0.458,0.458,0.314,1.001,0.686
	c0.742,0.514,1.028,1.058,1.686,1.658c1.486,1.4,2.144,1.657,3.372,3.229c0.515,0.686,1.029,0.857,1.715,1.4
	c1.572,1.2,0.8-0.028,1.801,1.572l0.857,0.086c-0.743-1.686-2.258-1.943-3.544-3.373c-1.943-2.172-2.115-1.8-3.772-3.315
	c-0.715-0.657-0.743-1.086-1.571-1.772c-1.601-1.314-2.458-1.543-3.887-3.201c-0.543-0.657-1.258-1.4-2.144-1.629
	C238.905,93.222,238.42,92.507,239.105,93.394L239.105,93.394z"/>
<path fill-rule="evenodd" clip-rule="evenodd" fill="#6C6E71" d="M173.291,30.949c-0.486-0.972-3.486-3.801-4.173-4.287l-1.686-1.4
	c-0.657-0.314-1.857-2.258-2.687-2.715c-1.657-0.915-2.515-2.086-3.801-3.201c-0.857-0.771-1.657-1.801-2.687-1.972
	c0.286,1.257-0.257-0.229,0.229,0.543c0.486,0.772,4.259,3.916,5.087,4.601l1.915,1.687c0.429,0.457,1.229,1.257,1.715,1.657
	c1.486,1.172,2.486,1.743,3.857,3.43C171.662,30.035,172.147,30.635,173.291,30.949L173.291,30.949z"/>
<path fill-rule="evenodd" clip-rule="evenodd" fill="#8E8D8D" d="M197.039,55.355c-0.286-0.915-0.2-0.458-1.515-1.658l-2.572-2.515
	c-0.314-0.286-0.6-0.4-1-0.686l-3.572-2.943c-1.143-1.201-4.572-4.602-5.516-4.916c0.372,1.171-0.2,0.143,0.629,1.114
	c0.286,0.372,0.486,0.657,0.743,0.915c1.058,1.257,1.028,1,1.829,1.572l5.344,4.601c0.343,0.286,0.657,0.372,1,0.657
	C193.781,52.641,195.21,55.27,197.039,55.355L197.039,55.355z"/>
<path fill-rule="evenodd" clip-rule="evenodd" fill="#D5D2CC" d="M229.218,84.677c-0.286-0.6-0.144-0.372-0.486-0.8
	c-1.058-1.343-3.086-2.229-4.172-3.801l-4.658-4.287c-0.601-0.657-0.972-1.257-1.887-1.257c-0.085,1.543,1.743,1.171,2.43,3.201
	c0.285,0.829-0.028,0.771,0.399,1.458c1.115-0.114-0.485-0.086,1.058-0.572l2.887,2.687c0.686,0.543,0.6-0.171,0.629,1.314
	l1.571,0.114C227.475,83.648,228.217,84.391,229.218,84.677L229.218,84.677z"/>
<path fill-rule="evenodd" clip-rule="evenodd" fill="#6C6E71" d="M59.895,68.759l-0.057,0.057l-0.915,1.229
	c-0.514,0.543-0.6,0.6-1.171,0.743c-0.229,0.857-3.058,3.144-3.973,3.487c-0.171,0.743-0.2,0.372-0.771,0.943
	c-0.486,0.515-0.4,0.458-1,0.972c-0.743,0.657-1.314,1.086-1.972,1.715l-0.657,1.172c1.486-0.458,5.087-4.63,6.773-5.83
	c1.286-0.943,3.83-3.629,4.715-4.401c0.886-0.8,1.029-0.371,2.144-1.515c1.657-1.714,1.372-0.857,1.686-2.2
	c-1.543,0.943-2.115,2.229-3.401,2.858l-1.2,0.657C60.038,68.587,59.952,68.73,59.895,68.759L59.895,68.759z"/>
<path fill-rule="evenodd" clip-rule="evenodd" fill="#6C6E71" d="M229.218,84.677c0.257,0.2,0.2,0.343,0.543,0.715
	c1.371,0.314,3.829,2.743,5.001,3.858l1.486,1.372c0.856,0.915,0.972,1.515,2.4,1.715c-0.687-1.172-4.315-4.058-4.487-4.172
	l-0.399-0.372c-1.973-2.144-2.401-1.972-5.259-4.887c-0.629-0.658-3.086-2.715-3.943-2.83c1.086,1.572,3.114,2.458,4.172,3.801
	C229.074,84.305,228.932,84.077,229.218,84.677L229.218,84.677z"/>
<path fill-rule="evenodd" clip-rule="evenodd" fill="#6C6E71" d="M128.252,12.088c1.857-0.601,7.916-7.488,10.002-7.945
	c1.257-0.257,0.943,0.286,2.286,0.515c-1.029-1.686-2.286-1.4-3.887-0.343c-0.4,0.257-0.343,0.114-0.743,0.429l-5.201,4.544
	C130.424,9.516,128.567,11.345,128.252,12.088L128.252,12.088z"/>
<path fill-rule="evenodd" clip-rule="evenodd" fill="#D5D2CC" d="M239.105,93.394c-0.686-0.886-0.2-0.172-0.429-1l-0.028-0.057
	c-1.429-0.2-1.544-0.8-2.4-1.715l-1.486-1.372c-1.172-1.115-3.63-3.544-5.001-3.858c0.343,1.743,1.715,1.572,2.486,2.772
	c0.399,0.6,0,0.314,0.429,0.743c0.6,0.571,1.771,0.343,3.687,2.8C236.876,92.336,238.306,93.165,239.105,93.394L239.105,93.394z"/>
<path fill-rule="evenodd" clip-rule="evenodd" fill="#6C6E71" d="M10.169,116.856c2.144-0.429,3.172-2.344,4.687-3.544
	c0.143-0.086,0.543-0.4,0.686-0.514l2.372-2.258c1.286-1.829,1.486,0.028,2.572-2.258c-1.4-0.057-0.286,0.229-1.629,0.771
	c-2.058,0.857-0.915,0.857-2.486,2.144c-1.601,1.343-3.144,3.229-4.973,4.287C10.313,116.113,10.313,116.542,10.169,116.856
	L10.169,116.856z"/>
<path fill-rule="evenodd" clip-rule="evenodd" fill="#D5D2CC" d="M39.69,87.049c1.657-1.172,1.229-2.143,3-2.229l0.314-0.286
	c0.886-0.772,2.4-1.943,2.515-2.401c0.543-0.714,0.686-0.714,1.172-1.429c-1.772,0.628-1.029,0.486-1.8,0
	c-0.058-0.029-0.115-0.086-0.143-0.086c-0.343-0.229,0.314-0.143-0.6-0.229c0.085,1,0.229,0.458,0.714,1.458
	c-0.714,0.486-0.486,0.629-1.372,1.086c-0.943,0.486-0.714,0.171-1.429,0.943c-0.257,0.286-0.343,0.428-0.571,0.657
	c-0.4,0.429-0.171,0.114-0.572,0.628c-0.8,0.972,0.143,0.257-1.086,0.972L39.69,87.049z"/>
<path fill-rule="evenodd" clip-rule="evenodd" fill="#6C6E71" d="M271.741,118.514c-0.515-1.057-5.772-6.144-7.401-7.316
	c-1.001-0.743,0.028-0.143-1.001-0.486c0.172,0.886,1.229,1.4,1.973,1.943c0.485,0.372,0.485,0.514,0.942,1
	c1.172,1.115,4.229,3.544,4.716,4.716L271.741,118.514z"/>
<path fill-rule="evenodd" clip-rule="evenodd" fill="#8E8D8D" d="M21.715,107.14l0.915-0.629c1.543-1.515,2.801-1.886,3.972-3.229
	c0.629-0.686,0.372-0.229,0.486-0.972c-0.6,0.058-0.229-0.4-1.515,0.886c-0.171,0.2-0.486,0.486-0.628,0.6
	c-0.4,0.343-0.4,0.286-0.743,0.543C22.629,105.568,21.915,105.997,21.715,107.14L21.715,107.14z"/>
<path fill-rule="evenodd" clip-rule="evenodd" fill="#8E8D8D" d="M161.717,23.662c-0.515-2.001-0.086-0.286-1.4-1.286
	c-0.285-0.229-1.114-0.972-1.371-1.258c-0.543-0.6,0.143,0-0.629-0.628c-0.715-0.629-1.601-1.543-2.458-1.658
	c0,1.458,1.629,1.486,2.572,2.515c0.314,0.343,0.114,0.257,0.6,0.657C160.002,22.862,160.202,23.291,161.717,23.662L161.717,23.662z
	"/>
<path fill-rule="evenodd" clip-rule="evenodd" fill="#B0B1A9" d="M27.087,102.31l0.572,0.115c0.686-1,0.286-0.257,1.029-0.943
	c0.4-0.4,0.343-0.457,0.429-0.543c0.4-0.372,0.457-0.229,0.771-0.429c0.714-0.543,0.943-1.486,2.286-2.058l0.057-0.886
	c-0.057,0.028-0.171,0.028-0.2,0.143l-1.143,0.857c-1.314,1.058-2.601,2.458-3.801,3.029V102.31z"/>
<path fill-rule="evenodd" clip-rule="evenodd" fill="#D5D2CC" d="M53.779,74.274c0.915-0.343,3.744-2.629,3.973-3.487
	c-0.771,0.115-1.572,0.686-1.972,1.172l-1.743,0.429C54.008,73.188,53.922,73.731,53.779,74.274L53.779,74.274z"/>
<path fill-rule="evenodd" clip-rule="evenodd" fill="#B0B1A9" d="M46.692,80.705c-0.486,0.714-0.629,0.714-1.172,1.429
	c0.771-0.286,2.715-1.829,3.172-2.257c0.114-0.115,0.457-0.572,0.686-0.8l0.657-1.172c-0.972,0.2-1.257,0.429-1.771,1.058
	c-0.486,0.571-0.429,0.915-1.429,1L46.692,80.705z"/>
<path fill-rule="evenodd" clip-rule="evenodd" fill="#8E8D8D" d="M200.84,59.271l1.028,0.229c-0.371-0.686,0.029-0.115-0.485-0.829
	l-3.572-2.943c-0.057-0.029-0.2-0.143-0.257-0.2l-0.343-0.114c-0.029-0.029-0.115-0.057-0.172-0.057l-0.058,0.743
	c0.857,0.257,1.744,1.086,2.144,1.515C199.668,58.213,200.297,58.813,200.84,59.271L200.84,59.271z"/>
<path fill-rule="evenodd" clip-rule="evenodd" fill="#6C6E71" d="M116.278,19.461c0.6-0.2,0,0.085,0.486-0.229l3.287-2.772
	c0.657-0.543,1.143-1.086,1.743-1.657c0.857-0.829,1.257-0.715,1.658-1.886c-0.772,0.229-0.6,0.143-1.172,0.686
	c-0.543,0.543-0.314,0.428-0.771,0.943c-1.886,2.115-2,1.772-3.629,3.172C116.85,18.632,116.536,18.718,116.278,19.461
	L116.278,19.461z"/>
<path fill-rule="evenodd" clip-rule="evenodd" fill="#8E8D8D" d="M151.943,15.06l-0.715-1.029c-0.543-0.514-0.429-0.257-1.028-0.657
	c-1.314-0.886-0.629-1.372-1.972-1.486c0.343,1.743,1.914,1.6,2.801,3.058L151.943,15.06z"/>
<path fill-rule="evenodd" clip-rule="evenodd" fill="#8E8D8D" d="M155.858,18.832c-0.2-0.771-0.6-1.143-1.343-1.772l-2.115-1.572
	c0.286,1.343-0.143,0.486,1.4,1.801c0.629,0.543,0.857,0.829,1.344,1.515L155.858,18.832z"/>
<path fill-rule="evenodd" clip-rule="evenodd" fill="#6C6E71" d="M70.497,60.299c0.857-0.085,0.686-0.143,1.857-1.458l2.915-3
	c-1.115,0.257-2.601,2.086-3.687,3.144L70.497,60.299z"/>
<path fill-rule="evenodd" clip-rule="evenodd" fill="#B0B1A9" d="M115.792,23.348c0.915,0.028,1.229-0.314,1.829-0.857
	c0.886-0.857,0.886-0.429,1.086-1.601c-1.029,0.314-0.857,0.4-1.658,1.058c-0.171,0.143-0.514,0.4-0.657,0.514
	C115.593,23.233,116.164,22.576,115.792,23.348L115.792,23.348z"/>
<path fill-rule="evenodd" clip-rule="evenodd" fill="#6C6E71" d="M114.421,20.547l-0.372-0.114
	c-0.343,0.857-0.286,0.686-0.886,1.229l-1.086,1.343c0.372-0.028,3.801-2.486,4.201-3.543c-0.829,0.257-0.686,0.143-0.972,0.972
	L114.421,20.547z"/>
<path fill-rule="evenodd" clip-rule="evenodd" fill="#6C6E71" d="M79.127,55.87l3.601-2.915c0.458-0.629-0.057,0.4,0.343-0.686
	c-1.229,0.429-1.086,0.686-2.058,1.4c-1.229,0.915-0.229,0.886-1.686,1.458L79.127,55.87z"/>
<path fill-rule="evenodd" clip-rule="evenodd" fill="#8E8D8D" d="M112.735,26.091h0.743c0.229-0.343,0.428-0.686,0.829-1.057
	c0.6-0.515,0.6-0.314,1.114-1.4c-0.914,0.057-0.914,0.4-1.629,1.086c-0.314,0.286-0.4,0.372-0.628,0.6
	C112.706,25.834,112.878,25.548,112.735,26.091L112.735,26.091z"/>
<path fill-rule="evenodd" clip-rule="evenodd" fill="#D5D2CC" d="M57.751,70.788c0.571-0.143,0.657-0.2,1.171-0.743l0.915-1.229
	c-1.686,0.114-0.6,0.114-1.086,0.572c-0.543,0.514-0.257,0.2-0.857,0.543L57.751,70.788z"/>
<path fill-rule="evenodd" clip-rule="evenodd" fill="#6C6E71" d="M34.975,91.564c0.657-0.257,0.314-0.029,0.829-0.4
	c0.2-0.114,0.343-0.314,0.657-0.571c0.743-0.6,0.629-0.314,1.058-1.315c-1.115,0.458-0.4,0.257-1.372,1.086
	C35.546,90.878,35.518,90.735,34.975,91.564L34.975,91.564z"/>
</svg>
