<?xml version="1.0" encoding="utf-8"?>
<!-- Generator: Adobe Illustrator 15.0.0, SVG Export Plug-In . SVG Version: 6.00 Build 0)  -->
<!DOCTYPE svg PUBLIC "-//W3C//DTD SVG 1.1//EN" "http://www.w3.org/Graphics/SVG/1.1/DTD/svg11.dtd">
<svg version="1.1" id="Layer_1" xmlns="http://www.w3.org/2000/svg" xmlns:xlink="http://www.w3.org/1999/xlink" x="0px" y="0px"
	 width="32px" height="32px" viewBox="0 0 32 32" enable-background="new 0 0 32 32" xml:space="preserve">
<path fill="#007AFF" d="M20.822,5.333c0.368,0,0.683,0.13,0.942,0.391c0.262,0.261,0.392,0.575,0.392,0.943
	c0,0.375-0.128,0.691-0.385,0.948L13.375,16l8.396,8.397c0.257,0.256,0.385,0.572,0.385,0.947c0,0.367-0.13,0.68-0.392,0.938
	c-0.26,0.258-0.574,0.387-0.942,0.385c-0.376,0-0.691-0.127-0.948-0.385l-9.333-9.332c-0.257-0.271-0.385-0.587-0.385-0.949
	c0-0.354,0.128-0.667,0.385-0.938l9.333-9.333C20.138,5.465,20.454,5.333,20.822,5.333L20.822,5.333z"/>
</svg>
