<?xml version="1.0" encoding="utf-8"?>
<!-- Generator: Adobe Illustrator 15.0.0, SVG Export Plug-In  -->
<!DOCTYPE svg PUBLIC "-//W3C//DTD SVG 1.1//EN" "http://www.w3.org/Graphics/SVG/1.1/DTD/svg11.dtd" [
	<!ENTITY ns_flows "http://ns.adobe.com/Flows/1.0/">
]>
<svg version="1.1"
	 xmlns="http://www.w3.org/2000/svg" xmlns:xlink="http://www.w3.org/1999/xlink" xmlns:a="http://ns.adobe.com/AdobeSVGViewerExtensions/3.0/"
	 x="0px" y="0px" width="269px" height="269px" viewBox="0 0 269 269" enable-background="new 0 0 269 269" xml:space="preserve">
<defs>
</defs>
<path fill-rule="evenodd" clip-rule="evenodd" fill="#E9E014" d="M4.408,147.206c2.344,0.429,66.443,0.058,68.415,0.058
	c22.833-0.086,45.667,0.143,68.472,0.057c22.805-0.085,45.667-0.028,68.473,0.029c11.431,0.028,22.947-0.2,34.379-0.114
	c5.687,0.028,11.488-0.144,17.175,0c1.657,0.028,2.943,0.485,3.486-0.801c0.515-1.2,0.743-10.288,0.543-11.859
	c-0.285-2.401-0.057-5.974-0.143-8.574c-0.143-4.287-0.571-4.372-2.172-4.43l-156.091-0.057
	c-11.346-0.028-22.805,0.229-34.122,0.029c-11.317-0.171-22.776,0.057-34.122,0.028c-11.231-0.057-23.091-0.314-34.265,0.029
	c-1.086,2.086-0.629,3.287-0.714,6.116C3.579,132.574,3.265,143.52,4.408,147.206L4.408,147.206z"/>
<path fill-rule="evenodd" clip-rule="evenodd" fill="#443494" d="M10.438,176.1l0.514,0.914c1.314,0.086,2.629-0.286,3.458-0.114
	c0.514,0.114,0.571,0.371,1.486,0.286c0.486-0.029,1.143-0.258,1.572-0.344c1.715-0.285,5.716,0.029,7.688,0.029
	c5.03,0.028,10.545,0.143,15.489,0.028c10.031-0.257,20.69-0.457,30.978-0.314c20.662,0.286,41.523-0.4,62.185,0.058
	c20.09,0.429,41.866-0.258,62.185,0.057c4.973,0.086,10.518,0.114,15.489-0.028c5.001-0.143,10.517,0.629,15.461,0.171
	c9.659-0.886,21.033,0.4,30.979-0.343c1.086-0.514,2.172-4.258,2.429-5.315c0.229-0.943,0.314-1.372,0.914-2.086
	c0.086-2.4,0.687-3.087,0.943-4.173c0.258-1.2,0.372-3.286,1.314-4.029c-0.257-1.229,0.429-3.43,0.629-4.887
	c0.2-1.4,0.457-3.658,0.172-5.173c-1.943-0.543-13.432-0.086-16.318-0.058l-48.639-0.057c-21.662-0.143-43.41,0.2-65.072,0.028
	c-11.716-0.086-128.342-0.314-129.685,0.286c-0.457,1.571,0.143,4.144,0.543,5.401c0.343,1,0.229,1.943,0.429,3.029
	c0.4,2.343,0.429-0.743,1.114,5.315c0.286,2.515,0.4,1.4,0.686,2.458c0.429,1.515-0.343,1.171,0.771,2.429
	c0.657,0.771,0.429,1.4,0.486,2.715c1.4,0.771,0.857,0.4,1.2,3.315L10.438,176.1z"/>
<path fill-rule="evenodd" clip-rule="evenodd" fill="#BBDEB5" d="M264.293,117.799l0.058-4.001
	c-0.372-0.343-0.257-0.143-0.571-0.686l-4.602-18.147c-0.257-0.857-0.229-2.143-1.371-2.886l-40.523,0.286
	c-5.772,0.143-11.631-0.143-17.433-0.114c-5.716,0.057-11.745,0.2-17.403,0.086c-11.574-0.257-23.263,0.028-34.865-0.114
	c-2.857-0.058-5.487,0.229-8.459,0.085c-6.201-0.286-10.859,0.286-17.204-0.2l-12.803,0.143c-2.372-0.057-3.744-0.543-8.23-0.486
	c-1.829,0.029-1.4,0.572-3.601,0.572c-17.404-0.172-35.064,0.171-52.269,0.028c-5.772-0.028-11.688,0.114-17.432,0
	c-2.944-0.085-5.773-0.028-8.716,0.029c-11.117,0.229-8.002-1.258-9.545,3.058c-0.4,1.143-0.657,1.458-0.714,3.229
	c-0.086,2.915-0.458,1.229-0.915,2.915c-0.372,1.257,0.086,2.086-0.515,3.372c-0.829,1.829-0.371,0.8-0.714,3.144
	c-0.229,1.458-0.628,1.429-0.857,2.915c-0.314,2.172-1.314,4.601-0.714,6.888c10.717,0.372,21.633-0.143,32.378,0.057
	c10.688,0.2,21.691,0.085,32.407,0c53.84-0.4,108.167,0.171,162.122-0.029c5.372-0.028,10.859-0.143,16.203-0.085
	S258.949,117.999,264.293,117.799L264.293,117.799z"/>
<path fill-rule="evenodd" clip-rule="evenodd" fill="#783695" d="M16.639,192.389l0.886,0.829c1.8,2.915,0.629,0.543,1.315,2.687
	c0.4,1.229,0.028-0.172,1.114,1.857l1.543,2.601c1.229,1.743,0.857,1.572,1.429,2.715c0.314,0.571,0.343,0.229,1.171,1.458
	c0.458,0.657,0.658,0.743,0.829,1.943c0.857,0.886,11.259,0.343,13.289,0.313l41.152-0.057c36.608-0.114,73.244,0.172,109.853,0
	l41.123-0.028c4.458-0.058,9.088,0.229,13.546-0.058c0.372-0.686,0.429-1.058,1.486-1.486c-0.028-0.485-0.172-0.485,0.286-1.143
	c0,0,0.313-0.343,0.371-0.4c0.4-0.371-0.028-0.028,0.571-0.371c0.058-0.429,0.314-0.743,0.601-1.372
	c0.457-1.058,0.285-0.829,0.886-1.2c0.172-1.029,1.229-2.887,1.915-3.687l0.514-0.486l-0.057-0.314l5.572-11.803
	c1.029-3.314,2.486-4.286-0.743-4.344c-0.686,0-1.285-0.028-1.972-0.028c-1.286,0-2.572-0.028-3.857-0.028h-84.447
	c-10.116,0-20.376-0.086-30.492,0.028c-20.376,0.2-40.81-0.058-61.214,0.028l-45.981,0.028c-2.601,0-4.887,0.229-7.487,0.2
	c-7.402-0.143-8.802-1.2-7.316,2.973l2.144,4.829c0.286,0.601,0.486,0.715,0.743,1.43L16.639,192.389z"/>
<path fill-rule="evenodd" clip-rule="evenodd" fill="#F5853E" d="M18.125,72.731L11.409,87.62c-0.171,1.343,0.286,1.429,1.629,1.458
	c0.629,0.029,1.343,0,1.972,0c1.286-0.028,2.572-0.057,3.858-0.028c17.604,0.257,36.008-0.143,53.726-0.029
	c40.895,0.257,81.79-0.286,122.656-0.028h53.726c2.915,0,3.915,0.2,6.516-0.372c0.086,0,0.144-0.029,0.229-0.057
	c0.657-0.143,0.515-0.343,0.515-0.343c0.028,0.028,0.058-0.172,0.086-0.229c0.057-0.372,0.086-0.229,0.086-0.686
	c0-0.343-0.172-1.029-0.258-1.315c-0.371-1.057,0-0.057-0.429-0.829c-0.343-0.629-0.085-0.2-0.429-0.972
	c-0.686-1.715-0.485-0.229-1.028-1.601c-0.286-0.714,0.028-0.314-0.429-1.086c-0.286-0.429-0.286-0.171-0.571-0.829
	c-0.086-0.229-0.172-0.629-0.286-0.915l-2-5.059c-0.486-1.029-0.829-0.543-0.687-2.058l-0.343-0.257
	c-1.143-0.857-3.715-5.773-4.687-7.288c-0.372-0.629-1.286-2-1.743-2.086c-1.515-0.085-2.715-0.257-4.458-0.286
	c-9.06-0.2-21.862,0.771-30.293-0.029c-1.629-0.171-2.657,0.257-4.314,0.286c-3.287,0.028-10.717-0.458-12.66-0.2
	c-2.201,0.286-6.401,0.229-8.487,0.028c-2.973-0.286-5.602-0.028-8.374,0.115c-2.857,0.114-6.029-0.058-8.944-0.086
	c-2.915-0.029-5.802,0.114-8.717,0.086c-3.058-0.029-5.687-0.343-8.716-0.229c-2.772,0.086-5.458,0.229-8.459,0.171
	c-1.657-0.028-2.887-0.257-4.344-0.257c-1.601,0-2.458,0.343-4.115,0.314c-2.943-0.058-5.744-0.229-8.488-0.286
	c-2.543-0.028-5.572,0.343-8.459,0.314l-6.315-0.314c-1.658-0.028-1.486-0.2-1.8-0.6c-2.715,0.543-9.345,0.229-12.46,0.229
	c-4.315-0.028-21.833,0.572-24.32,0.257l-11.974,0.114c-8.287-0.057-16.604,0.057-24.919,0c-2.144,0-7.716-0.457-8.802,0.6
	c-0.028,0-1.114,1.772-1.114,1.801L18.125,72.731z"/>
<path fill-rule="evenodd" clip-rule="evenodd" fill="#151617" d="M210.139,242.029c-0.086,0.029-0.543,0.172-0.715,0.258
	c-0.857,0.485-0.229,0.2-0.771,0.686c-0.257,0.229-1.371,0.829-1.515,0.886l-0.857,0.887c-0.257,0.257-0.343,0.343-0.628,0.543
	c-0.4,0.343-1.058,0.686-1.601,1.057c-1.086,0.715-2.258,1.144-3.286,1.829c-0.687,0.486-0.687,0.829-1.43,1.115l-1.686,0.8
	c-0.886,0.485-0.915,0.229-1.801,0.857c-0.457,0.343-0.943,0.657-1.486,0.943c-0.742,0.399-1.229,0.457-1.914,0.8l-12.432,5.459
	l-0.543-0.058c-1.028,1.314-2.743,1.114-4.315,1.972l-5.058,1.258l0.086-0.172l-0.372,0.258c-2.114,1.4-4.058,0.886-6.115,1.715
	l-11.746,2.286c-1.743,0.114-3.486,0.229-5.344,0.314c-1.601,0.085-3.086,0.514-4.829,0.6c-5.773,0.286-20.948,0-26.32-1.457
	c-1.515-0.4-3.744-0.229-5.001-0.629c-0.771-0.229-0.8-0.486-1.886-0.686c-3.916-0.715-6.43-1.63-9.031-2.115
	c-1.343-0.257-1.172-0.429-2.086-0.771c-0.772-0.286-1.429-0.172-2.258-0.457l-1.972-1.172c-0.886,0.114-0.715,0-1.4-0.286
	c-0.915-0.4-0.4-0.229-1.572-0.4c-1.543-0.229-1.743-1.086-2.658-1.114c-1.4-0.114-1.086-0.371-2.201-0.571
	c-2.486-0.343-2.886-1.544-6.03-2.286c-1.058-0.258-1.058-0.429-1.601-1.086c-0.686-0.144-2.143-1.029-2.629-1.344
	c-1.372-0.857-1.886-0.828-2.572-1.801l-0.229,0.029c-0.771-0.114-5.258-2.63-6.03-3.201c-0.829-0.571-1.715-1.086-2.601-1.743
	c-1.8-1.372-2.029-0.686-2.4-1.943c-1.429,0.058-1.858-1.028-2.772-1.601c-0.343-0.2-2-0.6-2.229-2.2
	c1.171-0.857,2.943-0.457,4.687-0.486c1.829-0.057,2.429-0.457,4.572-0.429c3.086,0.086,6.316,0.344,9.688,0.286l19.547-0.257
	c6.315,0.543,12.831-0.4,19.375,0.057l19.376,0.258c13.174-0.258,26.72,0.057,39.923,0.085c4.973,0,37.808-0.571,39.466,0.229
	C213.025,240.687,211.367,241.658,210.139,242.029L210.139,242.029z M238.345,215.108c-0.2,0.572-0.515,1.086-1.229,1.4
	c0.314,1.801,0.285-1.229,0.057,0.515c-0.257,1.829,0.429-0.314-0.657,1c-1.143,1.344-2.258,2.944-3.2,3.315
	c-0.458,0.486-0.458,0.829-1.086,1.4c-0.515,0.515-0.743,0.601-1.286,1.144l-5.916,6.173c-0.543,0.571-0.743,0.828-1.457,0.972
	c0,1.057,0.4,0.057-0.4,1.028c-0.857,1.058-5.001,4.315-5.544,4.487c-1.258,0.429-31.149,0.257-33.75,0.229l-44.925,0.114
	c-4.086-0.457-17.661-0.2-22.576-0.2c-7.516,0.058-15.003-0.086-22.49-0.058c-7.516,0-15.032,0.4-22.52,0.258
	c-3.715-0.058-7.63-0.114-11.374-0.058c-1.886,0.029-3.658,0.114-5.544,0.114c-2.086,0-3.829-0.114-4.344-1.657v-0.2l-1.029-0.629
	c-0.429-0.343-0.457-0.399-0.771-0.686c-0.6-0.515-1-0.743-1.458-1.286c-0.8-0.257-1.4-0.972-2.543-1.972
	c-0.714-0.601-1.314-1.344-2.143-2.2c-1.601-1.63-3.629-3.145-4.401-4.516l-0.028-0.286c-1.058-0.543-0.8-0.485-1.772-1.571
	l-5.544-6.773c-0.515-0.657-0.915-0.915-1.4-1.543c-0.343-0.458-0.886-1.286-1.286-1.858c-0.686-0.914-0.514-1.343-0.2-2.343
	c0.915-0.4,28.092-0.4,33.436-0.286c2.315,0.028,4.287-0.2,6.544-0.143c4.458,0.114,8.859,0,13.317-0.028l40.151-0.086
	c4.43-0.028,8.859,0.257,13.317,0.143c16.89-0.429,36.865,0.486,53.698-0.028c8.916-0.258,17.976,0.171,26.862,0
	c4.459-0.058,8.859-0.028,13.317,0.028c3.572,0.028,10.088-0.571,13.289,0.2c0.857,1.229,0.229,1.857-0.601,3.087
	C239.917,213.708,239.345,214.852,238.345,215.108L238.345,215.108z M250.462,196.189l0.057,0.314
	c-0.085,1.601-0.429,1.115-1.028,2.401c-0.314,0.714-0.515,1.629-1.4,1.771c-0.601,0.371-0.429,0.143-0.886,1.2
	c-0.286,0.629-0.543,0.943-0.601,1.372c-0.057,0.714,0.058,0.657-0.371,1.314c-0.229,0.343-0.114,0.2-0.343,0.4
	c-0.572,0.457,0.257-0.029-0.515,0.199c-0.143,2.372-2.743,1.943-4.858,2.029c-2.429,0.144-4.601,0.114-7.03,0.028
	c-4.4-0.171-9.545,0.029-14.031,0.086c-9.345,0.058-18.747,0.058-28.063-0.057c-18.633-0.258-37.465,0.057-56.127,0.028
	c-23.205-0.028-47.01-0.286-70.187-0.058c-4.601,0.058-9.23,0.258-13.774,0.2c-4.887-0.057-24.091,0.715-26.406-0.257
	c-0.486-0.2-2.058-2.572-2.343-3.058l-1.915-3.144c-1.286-2.001-2.486-4.373-3.658-6.573l-2.972-6.173
	c-0.028-0.058-0.057-0.114-0.085-0.144l-1.029-2.314c-0.429-0.857-2.058-4.744-1.543-5.573c1.229-1.028,5.287-0.514,7.288-0.514
	c2.572,0.028,5.144-0.058,7.745-0.029c5.144,0.029,10.345-0.114,15.46-0.028h30.978c10.145-0.086,20.233-0.143,30.264-0.314
	c2.543-0.057,4.973,0.086,7.488,0.2c2.657,0.114,4.915-0.143,7.487-0.172c5.144-0.057,10.002,0.372,15.26,0.2
	c2.601-0.085,5.144,0.029,7.745,0.058c2.601,0.057,5.173-0.143,7.744-0.114c5.259,0.057,10.202,0.171,15.489,0.028
	c2.515-0.057,5.173,0.143,7.745,0.143c7.716,0,15.574-0.457,23.205-0.143c5.201,0.229,10.259-0.172,15.488,0.058
	c5.059,0.229,10.346,0,15.489,0.057c3.144,0.028,29.207-0.257,30.979-0.028c1.172,1.715,0.286,2.715-0.371,4.486
	c-0.286,0.801-0.543,1.544-0.915,2.172c-0.343,0.629-0.6,1.286-0.914,1.973c-0.886,1.857-0.829,2.457-2.029,4.229
	c-0.4,0.629-0.6,1.314-1.058,2.086C250.805,196.333,251.69,195.904,250.462,196.189L250.462,196.189z M263.521,160.896
	c0.343,1.572-0.686,3.372-0.942,4.887c-0.172,1.058-0.114,1.458-0.458,2.4c-0.171,0.458-0.199,0.601-0.343,1.001
	c-0.114,0.285-0.114,0.314-0.257,0.6l-0.258,0.4c0.058,1.172-1.429,4.716-1.972,6.059c-0.543,1.4-1.2,1.286-2.801,1.258
	c-1.257,0-2.629,0.114-3.801-0.086l-0.399,0.2c-1.344,0.485-10.803,0.171-14.689,0.199c-15.117,0.172-30.435-0.143-45.495,0.086
	c-20.091,0.258-40.381-0.229-60.471-0.143c-20.147,0.086-40.352,0.057-60.499-0.058c-4.887-0.028-10.402-0.114-15.232,0.114
	c-5.001,0.229-10.002-0.057-15.003,0.115c-6.373,0.171-16.575-0.314-22.748-0.086c-1.886,0.086-5.801,0.314-7.516-0.029
	c-1.629-0.771-4.258-10.688-4.458-12.374c-0.429-3.801-2.829-11.231-2.086-14.775c2.029-0.942,27.777-0.343,32.436-0.371
	c10.859-0.086,22.09-0.4,32.921-0.172c5.516,0.114,10.717-0.057,16.204,0c2.715,0.029,5.115-0.285,7.973-0.314
	c2.715-0.028,5.144,0.4,8.001,0.286c5.602-0.2,10.688,0.114,16.204,0.086c2.801,0,4.944-0.258,7.802-0.086
	c2.715,0.172,5.458,0.114,8.173,0.114c10.945,0.058,21.947-0.143,32.893,0s21.977-0.2,32.922-0.057h24.662
	c2.687-0.029,5.573,0.199,8.202,0c6.087-0.429,12.031,0.429,16.004,0.143c1.543-0.143,1.714-0.457,3.629-0.372
	c4.687,0.172,7.773-0.199,12.089-0.199c0.628,1.143,1.028,0.657,1.028,2.172c0,1,0.114,2.429-0.229,3.258
	c-0.371,0.943-0.343,1.601-0.515,3.029C264.407,159.01,264.15,160.381,263.521,160.896L263.521,160.896z M3.236,121.743
	c0.314-0.857,0.372-0.686,0.628-1.286c13.203-0.171,26.492,0.143,39.694-0.029c13.089-0.171,26.578-0.257,39.666-0.085
	c6.516,0.085,13.375,0.114,19.861,0c3.344-0.057,6.573-0.057,9.917,0c2.972,0.028,6.916-0.286,9.574-0.114
	c6.344,0.343,13.174,0.114,19.69,0.114l69.215,0.057c3.287,0,6.63,0.229,9.659,0.229l19.604-0.286
	c6.602,0.028,13.261,0.114,19.833,0.028c6.23-0.085,4.516,0.314,5.516,4.201c0.515,2.144,0.314,6.944,0.4,9.431
	c0.114,3.458-0.086,6.545-0.286,9.688c-0.086,1.372,0.172,0.857,0,2.144l-0.229,1.114c-0.914,1.943-2.743,1.229-4.173,1.172
	c-5.315-0.258-16.203,0.343-19.747,0.028l-59.612-0.057c-6.431-0.058-25.521,0.371-30.007,0c-4.658-0.4-9.888-0.115-14.774-0.144
	l-44.524,0.028c-9.831,0.058-19.947,0.286-29.75,0.058c-2.715-0.058-4.715,0.229-7.259,0.229c-2.486,0-5.001-0.028-7.487-0.057
	c-4.858-0.029-10.23-0.114-15.003,0.057c-4.001,0.114-26.521,0.172-29.664-0.114c-0.886-1.258-0.771-4.544-0.972-6.23
	c-0.371-3.144-0.428-10.859-0.229-13.975C2.865,126.487,3.436,124.287,3.236,121.743L3.236,121.743z M264.351,113.798l-0.058,4.001
	c-0.543,0.771,0.372,0.286-1.028,0.6h-7.03c-2.743,0.143-5.487,0-8.23,0c-5.372-0.029-10.831,0.028-16.203,0.057
	c-32.579,0.114-65.243-0.257-97.765-0.029c-10.888,0.086-21.776-0.085-32.664-0.057c-10.803,0.029-21.348,0.2-32.179,0.2
	L7.98,118.542c-1.8,0-2.743,0.372-3.515-0.371c-0.972-0.943-0.028-6.173,0.286-7.288c0.2-0.629,0.4-0.515,0.543-1.572
	c0.085-0.686,0.028-1.115,0.2-1.772c0.229-1.029,0.572-2.115,0.8-3.287l2.458-9.888c0.372-0.8,0.229-0.372,0.543-1.458
	c0.2-0.714,0.286-0.714,0.658-1.2c2.658-0.171,5.487,0.057,8.202-0.029c2.601-0.085,4.916-0.257,7.745-0.229
	c2.8,0.057,4.572,0.314,7.516,0.029c2.572-0.257,5.401,0,7.716,0.171c2.915,0.2,5.373-0.143,7.973-0.2
	c2.829-0.085,5.001,0.229,7.745,0.229c2.829,0.029,5.144-0.257,7.744-0.286c2.658,0,5.315,0.143,8.002,0.114
	c2.915-0.028,4.687-0.343,7.745-0.114c2.858,0.229,5.087-0.143,7.716-0.2c2.687-0.085,5.344,0.058,8.002,0.115
	c2.658,0.028,5.287-0.172,7.973-0.143c2.743,0.028,4.687,0.4,7.516,0.429c2.972,0.057,4.858-0.343,7.488-0.4
	c2.857-0.028,4.772,0.4,7.516,0.458c2.829,0.028,9.116-0.486,11.831-0.2c1.258,0.143,1.972,0.372,3.658,0.372
	c3.115,0.029,1.829-0.114,3.486-0.486c1.2-0.257,9.859,0.057,11.517,0.114c1.658,0.057,2.486-0.171,3.858-0.229l11.603,0.486
	c2.801,0,4.801-0.4,7.744-0.257c5.345,0.257,10.631-0.571,15.547,0c2.086,0.229,5.458-0.257,7.944-0.229
	c7.973,0.114,6.43,0.8,15.003,0.086c4.001-0.314,20.69,0.343,23.52,0c2.086-0.257,5.716-0.086,7.916-0.057
	c2.4,0.057,5.83-0.229,8.002-0.029c0.743,0.372,2.086,4.344,2.229,4.887c0.143,0.629,0.143,0.972,0.371,1.572
	c0.257,0.743,0.314,0.601,0.543,1.172c0.314,0.829,0.4,1.829,0.686,2.687l2.001,8.945
	C264.322,111.426,264.351,112.741,264.351,113.798L264.351,113.798z M18.125,72.731c0.2-1.458,0.486-1.314,1.315-3.086
	c0.4-0.857,0.343-0.458,0.743-1.115c1.058-1.8-0.057-0.429,2.286-3.801c2.887-4.144,1.801-2.858,8.974-2.858
	c13.231-0.028,26.435-0.2,39.694-0.028c7.659,0.085,24.348,0.2,31.521-0.2c5.172-0.257,10.374,0.229,15.66,0.114
	c5.258-0.086,10.488,0.2,15.718-0.029c5.03-0.229,10.831,0.029,15.975,0c26.435-0.114,52.927,0.286,79.36,0.086
	c2.687,0,5.315-0.143,8.002-0.057c6.888,0.2,5.83-1.115,9.374,4.544c0.8,1.314,3.515,5.059,3.543,6.344
	c-0.143,1.515,0.2,1.029,0.687,2.058l2,5.059c0.114,0.286,0.2,0.686,0.286,0.915c0.285,0.657,0.285,0.4,0.571,0.829
	c0.457,0.772,0.143,0.372,0.429,1.086c0.543,1.372,0.343-0.114,1.028,1.601c0.344,0.771,0.086,0.343,0.429,0.972
	c0.429,0.771,0.058-0.229,0.429,0.829c0.086,0.286,0.258,0.972,0.258,1.315c0,0.457-0.029,0.314-0.086,0.686
	c-0.028,0.057-0.058,0.257-0.086,0.229c0,0,0.143,0.2-0.515,0.343c-0.085,0.028-0.143,0.057-0.229,0.057
	c-2.601,0.571-3.601,0.372-6.516,0.372H195.25c-40.866-0.257-81.761,0.286-122.656,0.028c-17.718-0.114-36.122,0.286-53.726,0.029
	c-1.286-0.029-2.572,0-3.858,0.028c-0.629,0-1.343,0.029-1.972,0c-1.343-0.028-1.8-0.114-1.629-1.458L18.125,72.731z M30.728,53.24
	l1.029-1.486c0.257-0.286,0.6-0.657,0.915-0.972c0.686-0.686,1.143-1.458,1.743-2.172l3.172-3.544
	c2.829-3.372,5.059-5.373,8.402-8.316c0.857-0.743,1.486-1.257,2.201-1.915c0.771-0.686,1.372-1.257,2.086-1.829
	c1.343-1.029,5.059-0.572,7.059-0.543c5.172,0.086,10.345-0.086,15.489,0c5.116,0.057,10.631,0.086,15.747-0.029
	c5.029-0.114,10.259,0.172,15.232-0.057c5.172-0.229,10.145,0.314,15.232,0.057c5.115-0.286,10.345,0.086,15.489,0
	c20.833-0.314,41.809,0.229,62.671,0.029c5.144-0.057,10.602-0.143,15.718-0.029c5.115,0.115,3.801-0.371,10.059,5.373
	c3.201,2.915,14.546,14.003,15.004,16.461c0.2,1.086,0.2-0.143,1.457,1.943c1.086,1.772,3.4,3.515-0.371,3.544
	c-1.115,0-2.258,0-3.401,0c-4.572,0-9.23,0.057-13.774,0c-20.09-0.229-193.985,0.343-194.557-0.171
	c-0.257-0.429-0.114,0.028-0.171-0.572c-0.057-0.857,0.743-1.314,1.629-2.915C29.442,54.955,30.528,54.098,30.728,53.24
	L30.728,53.24z M67.936,21.204c0.771-0.2,1.886-1.115,2.601-1.543c1.029-0.6,1.515-1.229,3.029-1.372
	c0.571-0.4,0.257-0.686,1.286-0.6c0.314-0.543-0.172-0.2,0.657-0.8l7.116-3.458c0.686-0.2,1.2-0.171,1.8-0.486
	c0.829-0.4,0.629-0.372,1.715-0.686c1-0.257,0.686-0.429,1.686-0.457c0.114-0.771-0.314,0.057,0.286-0.458l9.631-3.401
	c1.057-0.514,6.03-1.629,6.659-1.572c0.714,0.143,1.6-0.114,1.972-0.2c0.143-0.486-0.2-0.715,1.572-0.886
	c2.943-0.286,4.401-0.743,5.573-0.886c1.486-0.171,2.458-0.143,4.001-0.429c1.4-0.257,1.857-0.6,3.458-0.629
	c2.772-0.028,5.516-0.229,8.23-0.372c2.687-0.171,5.715,0,8.488-0.028c2.429-0.029,9.459,0.286,12.003,0.943
	c1.114,0.314,2.457,0.257,3.687,0.4c1.686,0.171,2.143,0.686,3.629,0.857c1.086,0.114,2.801,0.143,3.772,0.4
	c0.828,0.2,0.485,0.314,1.457,0.571l5.145,1.172c1.515,0.286,1.972,0.743,3.429,1l6.573,2.086c1.657,0.343,5.858,2.429,7.43,3.058
	c6.002,2.458,7.174,2.943,12.432,6.03l0.286,0.172c0.057,0.028,0.114,0.057,0.171,0.085c0.029,0.029,0.086,0.057,0.144,0.086
	c1.714,1.029,3.771,2.029,5.4,3.086l5.201,3.315c1.772,1.458,3.973,2.286,4.287,4.001c-2.515,1.115-6.287,0.372-9.259,0.486
	c-3.173,0.086-6.745,0.086-9.917,0.029c-6.602-0.143-13.231,0-19.833-0.029c-6.63-0.028-13.231,0.029-19.833,0.057
	c-3.344,0-6.572-0.171-9.944-0.057c-1.744,0.057-3.315-0.143-5.059-0.085c-1.657,0.085-3.229,0.085-4.858,0.028
	c-10.773-0.486-28.263,0-39.666,0.029c-6.63,0-13.231-0.171-19.862-0.057c-3.229,0.057-6.687,0.229-9.917,0.085
	c-2.429-0.114-12.488,1.115-8.945-1.915l8.374-5.687C64.792,22.547,66.85,21.375,67.936,21.204L67.936,21.204z M121.462,1.399
	l-0.257-0.085c-0.629,0.571-2.372,0.714-4.172,1c-1.372,0.229-2.887,0.114-4.144,0.343c-1.171,0.2-2.343,0.771-3.601,0.943
	l-6.087,1.058c-1.086,0.2-1,0.429-1.515,0.571c-0.515,0.171-1.601,0.2-2.172,0.314c-1.886,0.372,0.257,0.257-3.458,1.086
	c-0.915,0.2-0.886,0.343-1.629,0.6c-0.657,0.229-1.286,0.229-1.972,0.429l-1.372,0.543c-0.057,0.029-0.171,0.171-0.229,0.114
	c-0.057-0.085-0.143,0.057-0.229,0.114c-1.229-0.372-2.315,0.829-3.515,0.915l-4.43,2.172c-1.029,0.343-0.6,0.143-1.314,0.572
	l-12.974,6.43c-3.601,1.943-4.573,2.943-8.002,5.03c-0.972,0.572-1.743,0.972-2.543,1.572l-6.801,5.087
	c-0.829,0.714-1.429,1.172-2.201,1.886c-0.972,0.915-1.257,1.486-2.429,1.743c-0.915,0.372-1.829,1.886-2.829,2.287
	c-0.6,1.029-1.257,1.629-2.343,2.115l-1.058,1.029c-1.057,1.629-3.944,4.086-5.344,5.687c-0.229,0.857-1.601,2.629-2.287,3.258
	c-1.486,1.372-1.714,2.629-2.658,2.458c-0.028,1.029-0.114,0.829-0.686,1.458l-4.258,5.687c-0.229,0.372-0.457,0.857-0.743,1.2
	l-0.915,1c-0.143,0.743-1.486,2.772-1.943,3.429c-0.572,0.771-2.229,2.972-2.687,4.087c-0.972,2.257-1.171,2.115-2.229,4.315
	c-0.057,0.143-0.314,0.572-0.429,0.715c-0.314,0.457-0.085,0.143-0.4,0.457c-0.029,0.057-0.143,0.2-0.171,0.143
	c-0.029-0.057-0.143,0.114-0.2,0.143c0.029,0.628-1.229,2.257-1.572,2.972l-1.429,3.144c-0.372,0.771-0.429,0.486-0.743,1.629
	c-0.343,1.314-0.286,0.771-0.743,1.686c-1.229,2.515-1.458,4.83-2.343,7.23c-0.257,0.771-0.457,1-0.686,1.686
	c-0.229,0.686-0.229,1.172-0.4,1.829c-0.171,0.6-0.429,0.857-0.686,1.686l-2.515,9.316l-2.715,16.204
	c-0.057,1.543,0.057,2.915-0.257,4.287c-1.343,6.116,0.343,24.377,1.343,30.979l2.515,11.518c1.744,5.372,0.686,1.829,1.429,5.744
	c0.229,1.058,0.372,0.743,0.6,1.543l1.857,5.487c0.6,1.114,0.314,0.2,0.6,1.457c0.372,1.858,0.2,0.543,0.8,1.687l4.144,9.945
	c0.257,0.601,0.458,1.2,0.543,1.629c0.657,0.257,0.286,0,0.772,0.743c0.114,0.172,0.371,0.571,0.457,0.743
	c0.372,0.571,0.572,1.143,0.886,1.771c0.629,1.2,1.229,2.315,1.829,3.258l5.03,8.031c1.257,1.886,4.801,5.915,6.001,7.973
	c0.028,0.029,0.085,0.086,0.114,0.144c0.771,1.2,1.543,1.257,1.543,2.372c1.086,0.429,2.172,2.257,2.915,3.086
	c0.915,1.029,2.315,2.344,2.972,3.401c0.314,1.028,2.257,2.2,2.8,3c0.857,0.372,0.543,0.344,1.143,0.972
	c0.2,0.229,0.372,0.344,0.515,0.486c0.257,0.286,0.114,0.143,0.343,0.485c0.286,0.172,0.458,0.344,0.857,0.743
	c0.4,0.429,0.343,0.515,0.657,0.771c0.857,0.172,1.2,0.687,1.857,1.315c0.372,0.371,0.229,0.313,0.743,0.686
	c1.886,1.314,0.829,0.257,1.257,1.229c0.314,0.258,0.543,0.687,0.915,0.943l3.315,2.486c1.515,1.258,2.944,2.458,4.573,3.43
	l4.687,3.286c1.972,1.629,3.572,1.743,4.487,3.43c1.057-0.114,2.572,1.457,3.543,1.771c0.972,0.028,6.401,3.144,8.259,3.915
	l4.144,1.915c0.486,0.143,0.771,0.172,1.143,0.343l2.429,1.144c0.6,0.457,0.2,0.057,0.571,0.629c1.115-0.144,1,0.371,1.687,0.714
	c0.686,0.372,1.171,0.2,1.915,0.515c1.143,0.486,0.114,0.429,1.857,0.771c0.943,0.2,1.086,0.314,1.8,0.629
	c0.8,0.371,1.172,0.429,1.943,0.715c3.715,1.343,0.743,0.371,4.001,0.886l5.973,1.543c3.372,1,7.288,0.829,10.488,2.086l6.63,0.857
	c4.201,0.829,19.748,0.286,24.605,0.144c1.658-0.029,6.859-1.001,8.688-0.943c0.429-1.229,2.687-0.857,5.316-1.657
	c0.971-0.286,2.057-0.286,3.058-0.486l8.116-2.114c0.886-0.286,4.314-1.772,5.286-1.372c0.144-0.143,0.029-0.172,0.515-0.429
	c0.829-0.457,8.173-2.801,9.23-3.401c1.058-0.628,2.001-1.2,3.372-1.457c0.801-0.143,1.258-0.086,1.743-0.686
	c-0.057-1.058-0.457-0.2,1.629-1.315c1.172-0.657,4.516-2.486,5.63-2.515l0.144,0.143c0.257-0.714,0.028-0.343,0.485-0.771
	c0,0,0.571-0.343,0.601-0.343c0.828-0.515,0.485-0.515,1.429-0.515c0.114-0.714-0.457-0.285,1.543-1.343l5.315-2.887
	c0.371-1,0.114-0.514,0.886-1.143l7.716-5.773c0.572-0.457,1.001-0.886,1.601-1.257c1.344-0.801,0.715-0.657,1.629-1.544
	c0.801-0.8,3.516-2.629,4.915-4.058l5.944-6.116c1.2-1.057,1.344-1.601,2.029-2.343l0.972-0.715c0.343-0.2,1.429-1.457,1.771-1.886
	l1.258-1.629c0.629-0.572,0.028-0.115,0.743-0.458c0-0.028,0.028-0.229,0.086-0.429c0.199-1.2-0.058-0.314,0.6-1.114
	c0.229-0.286,0.343-0.429,0.629-0.771c1.515-1.743,2.857-3.944,3.772-4.487c0.086-0.657-0.086-0.229,0.343-0.628
	c0.515-0.458,0.229-0.172,0.6-0.314c0.058-1.144,0.486-1.058,1.115-2.058l3.715-5.745c2.258-3.2,7.201-13.432,8.459-16.689
	l2.801-6.602c0.314-1.172,0.229-1.058,0.743-1.972c0.628-4.401,0.857-3.058,1.257-5.059l1.4-4.658
	c0.686-1.857,1.857-8.488,1.857-8.545c0.144-0.429-0.114,0.028,0.258-0.457c0.314-0.429,0.057-0.086,0.457-0.4
	c0.114-1.943,0.771-4.029,1.028-6.002c0.314-2.172-0.028-4.515,0.601-6.658c0.8-2.772,0.543-10.546,0.429-13.946
	c-0.028-1.658,0.2-5.887-0.086-7.173c-0.257-1.2-0.457-1.143-0.629-2.972c-0.086-1.086-0.2-2.144-0.257-3.401l-0.915-6.287
	c-0.343-4.172-1.2-2.772-1-5.887l-0.429-0.743c-0.028-0.057-0.057-0.114-0.086-0.171l-0.628-2.886
	c-0.372-2.486-1.115-3.916-1.715-5.516c-0.258-0.715-0.429-2.915-1.572-5.573c-0.429-0.972-0.399-0.4-0.657-1.657
	c-0.457-2.229-1.886-4.687-2.028-5.201c-1.086-4.173-4.802-10.031-6.116-13.118c-0.686-1.601-4.915-8.116-5.344-8.945
	c-0.601-1.229-5.458-7.487-5.63-8.374c-0.657-0.2-0.172,0.343-0.857-0.628l-2.972-3.772c-0.4-0.4-0.886-1.086-1.001-1.686
	c-0.485-0.2-3.172-3.172-4.229-4.229c-0.886-0.829-1.229-1.343-2.2-2.172c-1.257-1.114-1.657-1.458-1.829-2.458
	c-0.514-0.4-0.886-0.771-1.4-1.314c-0.457-0.515-0.714-0.686-1.229-1.144c-1.943-0.743-0.657-0.457-2.086-1.6l-2.743-2.343
	c-2.201-1.829-1.344-1.429-4.573-3.687l-5.601-4.487c-0.286-0.057-4.516-2.886-5.201-3.315c-0.801-0.514-1.715-1.343-2.572-1.743
	c-0.829-0.372-2.144-1.372-2.658-1.543c-0.914-0.229-3-1.486-4.229-2.029l-10.316-4.858c-0.343-0.171-0.686-0.314-0.972-0.515
	c-0.8-0.486-0.657-0.571-0.742-0.714c-1.086,0.2-8.146-2.715-9.974-3.201c-0.772-0.229-0.915-0.429-1.601-0.6
	c-0.343-0.114-0.771-0.086-0.972-0.171c-0.801-0.286-0.486,0.057-0.829-0.572c-0.828-0.171-0.857-0.6-2.314-0.743
	c-1.4-0.143-1.543-0.2-2.658-0.571c-0.914-0.314-1.914-0.314-2.886-0.543c-1.2-0.257-0.629-0.486-2.315-0.772L150.24,1.942
	c-0.972-0.257-0.829-0.343-1.029-0.628l-0.028,0.229c-4.315,0.343-9.374-0.457-13.918-0.486c-2.343,0-4.687,0.057-7.03,0.114
	C125.92,1.199,123.834,1.485,121.462,1.399L121.462,1.399z"/>
<path fill-rule="evenodd" clip-rule="evenodd" fill="#B269AB" d="M50.104,235.085v0.2c2.286,0.515-0.028,0.829,5.058,0.857
	c1.858,0,3.715-0.028,5.573-0.028l33.636-0.058c14.917,0.172,29.835-0.114,44.752,0.114c14.86,0.2,29.863-0.114,44.753-0.028
	c2.543,0,32.121,0.172,33.265-0.143c0.657-0.2,4.314-3.201,4.801-3.716c0.886-0.914,0.771-1.028,1.629-1.257
	c0-0.943-0.4-0.229,1.229-1.887l9.26-9.888c0.571-0.771,0.914-1.429,2.058-1.601c0.028-0.286-0.058-0.343,0.229-0.686
	c0.8-0.915-0.657,0.457,0.257-0.229c0.314-0.229,0.2-0.085,0.515-0.229c-0.343-1.857-0.486,1.629,0-0.657
	c0.229-1.028,3.458-4.087,3.629-5.63c-5.287-0.285-20.833-0.086-26.862-0.028c-8.831,0.114-17.747-0.114-26.606,0
	c-17.718,0.172-35.521-0.172-53.24-0.028c-4.429,0.028-8.888-0.229-13.06-0.229c-4.515,0.028-8.487,0.199-13.06,0.171
	c-8.859-0.057-17.747,0.028-26.605,0.028c-8.859,0.029-17.804-0.057-26.635,0.058c-5.287,0.058-23.262-0.2-26.52,0.114
	c0.057,0.886,1.229,1.801,1.715,2.715c1.429-0.171,1.143-0.4,1.172-0.457c0,1.114,0.257,1.972,0.914,2.915
	c0.257,0.4,0.057,0.114,0.343,0.429l6.458,7.345c0.028,0.028,0.057,0.086,0.085,0.143l0.572,0.629
	c0.629,0.743,0.429,0.972,1.429,1.743c1.658,1.258,1.572,1.743,2.658,2.43c1.372,0.856,0.8,0.886,2,1.886
	c0.257,0.2,0.4,0.314,0.657,0.515l1,0.914c0.028,0.028,0.085,0.086,0.114,0.114l0.743,0.972c0.886,1.029,1.029,1.115,1.972,1.572
	L50.104,235.085z"/>
<path fill-rule="evenodd" clip-rule="evenodd" fill="#DD2E27" d="M34.929,49.182c0.029,1.343,0.029,0.972-1.057,2.086l-4.458,5.43
	c-1.058,1.315-1.4,1.658-1.458,2.543l6.401-0.171c2.143,0.114,4.629,0.143,6.773,0.086c1.286-0.057,1.771-0.314,3.144-0.314
	c2.857,0,7.916,0.314,10.059,0.114c7.145-0.657,7.316,0.086,13.174-0.057c1.172-0.029,1.915-0.286,3.144-0.314
	c3.315-0.085,7.402,0.372,10.174,0.257c8.888-0.372,18.147,0.057,27.091-0.314c4.601-0.2,9.202,0.314,13.775,0.057
	c4.687-0.257,9.202,0.057,13.375,0.4c2.429,0.2,4.344-0.257,6.486-0.229c3.087,0,11.003,0.314,13.432,0
	c3.944-0.514,9.345,0.601,13.175,0.286c5.887-0.543,9.716,0.229,13.317,0c2.172-0.143,3.943-0.458,6.544-0.372
	c2.086,0.057,4.258,0.257,6.516,0.2c2.172-0.028,4.144-0.371,6.544-0.286c2.344,0.086,4.001,0.543,6.287,0.515
	c2.344-0.029,4.516-0.143,6.745-0.286c5.286-0.257,6.744,0.257,9.944,0.229c1.544,0,1.857-0.4,3.144-0.486
	c1.086-0.086,1.772,0.2,3.144,0.2l9.688,0.229c0-1.458,0-0.2-0.829-1.4c-0.886-1.258,0.2-0.6-0.857-1.515
	c-1.172-1-1.543-1.686-2.286-2.801c-1.715-2.572-4.058-3.115-4.516-5.687c-0.143-0.572-1.114-1.172-1.657-1.915
	c-0.485-0.657-1.114-1.458-1.743-1.715l-0.857-0.286c-1.2-0.571-1.258-1.4-1.657-2.029c-0.429-0.629-0.657-0.343-1.4-0.972
	c-1.114-1-1.172-0.715-2.486-2.115c-1.687-1.801-1.543-1.343-2.601-3.001c-0.371-0.572-0.058,0.057-0.4-0.629
	c-1.515-1.229-1.515-2.029-4.372-2.058c-2.058-0.028-4.201,0.029-6.287,0.057c-12.46,0.172-25.52-0.057-37.979-0.028
	c-16.804,0.057-33.836-0.314-50.583-0.029c-16.803,0.314-33.75-0.2-50.554,0.057c-5.115,0.086-11.088-0.257-15.775,0.143
	c-1.429,0.143-1.686-0.171-2.572,0.572l-1.658,1.486c-0.2,0.171-0.657,0.629-0.857,0.829l-1.6,1.543
	c-0.286,0.229-0.171,0.114-0.4,0.343l-5.601,5.487c-0.057,0.057-0.343,0.314-0.4,0.372c-1.4,1.343-0.657,1-2.201,2.343l-2.829,2.744
	C34.786,49.239,35.015,48.782,34.929,49.182L34.929,49.182z"/>
<path fill-rule="evenodd" clip-rule="evenodd" fill="#FAE00B" d="M106.373,6.172c-0.372,0.085-1.257,0.343-1.972,0.2l-1.029,0.714
	c-1.372,0.629-2.515,0.343-3.544,0.629c-0.286,0.086-0.286,0.229-0.886,0.515c-0.4,0.171-0.572,0.2-0.943,0.286
	c-2.772,0.629-1.458,0.543-4.087,1.372c-2.857,0.886-3.086,1.886-6.087,1.915c0.057,1,0.543,0.2-0.457,0.8
	c-0.229,0.143-0.658,0.172-0.943,0.257c-0.686,0.257-0.857,0.629-1.543,0.772c-0.972,0.2-1.143-0.058-2,0.514l-6.23,2.944
	c-0.886,0.543-0.229,0.571-1.8,0.6c-1.029-0.086-0.715,0.2-1.286,0.6c-0.657,0.886-1.915,1.572-3.115,2.286
	c-1.857,1.086-0.943,0.943-2.057,1.286c-0.743,0.2-0.515-0.057-1.258,0.486c-2.115,1.543-2.229,1.286-3.144,1.915l-1.057,0.629
	c-0.743,0.4-0.572,0.486-0.972,0.714c-0.458,0.314-0.515,0.143-1.143,0.6c-1.172,0.857-2.687,2.201-4.058,2.687l-0.943,0.857
	c-0.515,0.657,0.085,0.114-0.229,0.229c1.972,0.686,16.175,0.143,19.404,0.057c3.372-0.057,6.83,0.114,10.174,0.086
	c1.8,0,2.915-0.343,4.858-0.257c6.116,0.229,3.487,0.2,9.402-0.086l15.003,0.029c3.429,0.028,6.344,0.286,9.688,0.286
	c2.515,0,5.773-0.915,9.259-0.229c1.629,0.343,17.204,0.314,19.29,0.343c3.458,0.057,6.573-0.514,9.916-0.257
	c4.83,0.371,14.203,0.143,19.862,0.286c4.601,0.085,4.429-0.343,9.401-0.086l19.891,0.029c-0.2-1.658-0.058-0.743-1.658-1.744
	c-0.057-0.057-0.229-0.171-0.285-0.229l-0.314-0.2c-1.657-0.829-0.257,0.4-1.771-1.058c-0.887-0.886-1.658-0.886-2.172-1.257
	c-0.515-0.372,0.114-0.057-0.601-0.6l-5.059-3.373c-3.086-1.4-5.601-3.515-8.658-4.887l-6.002-2.486
	c-2.229-1.2-2.144-0.486-3.286-1.115c-0.028-0.028-0.429-0.257-0.429-0.286l-1.172-0.343c-0.371-0.114-1.715-1.086-4.201-1.972
	l-12.002-3.458c-3.344-1.229-2.63-0.343-4.458-0.915c-1.43-0.457-1.943-0.457-3.602-0.743c-1.171-0.172-2.028-0.658-3.172-0.8
	c-1.4-0.143-2.743-0.143-4.115-0.314c-1.715-0.2-1.457-0.515-3.601-0.486c-2.915,0-5.145-0.458-7.744-0.429
	c-2.83,0.028-5.688-0.086-8.488,0c-8.659,0.343-7.858,0.429-15.117,1.686C111.431,5.571,108.745,5.743,106.373,6.172L106.373,6.172z
	"/>
<path fill-rule="evenodd" clip-rule="evenodd" fill="#57BA5F" d="M61.306,243.287c1.057-0.057,0.429,0.143,1.657,0.686l8.945,5.373
	c0.657,0.715,0.086-0.057,0.429,0.829l0.229-0.029c1.172,0.058,2.258,0.772,3.43,1.229c0.915,0.371,0.486,0.371,1.429,0.771
	l6.516,2.972c0.229,0.058,0.714,0.058,1,0.058c0.829,1.543,1.2,0.629,2.086,1.314c0.543,0.4,0.2-0.057,0.572,0.743
	c0.915,0.028,1.114,0.886,2.658,1.114c1.171,0.172,0.657,0,1.572,0.4c0.686,0.286,0.514,0.4,1.4,0.286
	c2.286,0.028,2.058,0.828,4.515,1.057c1.458,0.144,0.943,0.2,1.915,0.658c1.029,0.514,9.116,2.114,10.974,2.771
	c2.115,0.743,5.544,0.572,7.173,0.857c0.714,0.143,1.429,0.4,2.4,0.543c3.229,0.486,7.288,0.2,10.66,0.543
	c3.4,0.343,17.433-0.171,20.805-0.686c1.371-0.2,5.372-0.771,6.687-1.258l7.145-1.429c1.629-0.286,2.772-1.229,4.688-0.943
	l-0.086,0.172l0.485-0.515c1.458-1.028,1.857-0.171,3.915-1.372c0.543-0.313,1.486-0.371,2.229-0.714
	c0.829-0.429,1.657-0.629,2.743-0.629l0.543,0.058c0.058-0.058,0.086-0.144,0.143-0.172c0.029-0.058,0.086-0.143,0.144-0.2
	c0.771-0.857,1.058-0.629,1.943-1.086c0.485-0.286,0.371-0.314,1.086-0.571c0.485-0.172,0.8-0.2,1.343-0.429
	c2.887-1.286,3.201-0.886,4.201-2.486c2.629-0.028,1.372-0.4,2.657-0.943c0.601-0.229,0.687-0.086,1.315-0.4l6.944-3.972
	c1.485-1.086,1.257-0.743,2.771-1.601c2.172-1.229,3.001-2.258,4.572-2.43c0.144-0.057,1.258-0.657,1.515-0.886
	c0.543-0.485-0.086-0.2,0.771-0.686c0.172-0.086,0.629-0.229,0.715-0.258c0.114-1.057-0.286-0.199,0.457-1
	c0.286-0.314,0.314-0.2,0.743-0.515l0.743-0.657c-0.886-0.686-34.379-0.229-38.608-0.257c-12.889-0.028-25.806-0.086-38.694-0.086
	c-12.917,0.028-26.091,0.229-38.951-0.028l-38.666,0.143c0.2,0.715,2.486,2.058,3.229,2.63L61.306,243.287z"/>
<path fill-rule="evenodd" clip-rule="evenodd" fill="#AFB1B1" d="M264.293,117.799c-5.344,0.2-10.945,0.114-16.289,0.057
	s-10.831,0.057-16.203,0.085c-53.955,0.2-108.281-0.372-162.122,0.029c-10.716,0.085-21.719,0.2-32.407,0
	c-10.745-0.2-21.662,0.314-32.378-0.057c-0.6-2.287,0.4-4.715,0.714-6.888c0.229-1.486,0.629-1.458,0.857-2.915
	c0.343-2.343-0.114-1.314,0.714-3.144c0.601-1.286,0.143-2.115,0.515-3.372c0.457-1.686,0.829,0,0.915-2.915
	c0.057-1.772,0.314-2.086,0.714-3.229c1.543-4.315-1.572-2.829,9.545-3.058c2.943-0.057,5.772-0.114,8.716-0.029
	c5.744,0.114,11.66-0.028,17.432,0c17.204,0.143,34.865-0.2,52.269-0.028c2.201,0,1.772-0.543,3.601-0.572
	c4.487-0.057,5.858,0.429,8.23,0.486l12.803-0.143c6.344,0.486,11.002-0.085,17.204,0.2c2.972,0.143,5.602-0.143,8.459-0.085
	c11.603,0.143,23.291-0.143,34.865,0.114c5.658,0.114,11.688-0.029,17.403-0.086c5.802-0.028,11.66,0.257,17.433,0.114l40.523-0.286
	c1.143,0.743,1.114,2.029,1.371,2.886l4.602,18.147c0.314,0.543,0.199,0.343,0.571,0.686c0-1.058-0.028-2.372-0.343-3.315
	l-2.001-8.945c-0.285-0.857-0.371-1.857-0.686-2.687c-0.229-0.571-0.286-0.429-0.543-1.172c-0.229-0.6-0.229-0.943-0.371-1.572
	c-0.144-0.543-1.486-4.515-2.229-4.887c-2.172-0.2-5.602,0.086-8.002,0.029c-2.2-0.029-5.83-0.2-7.916,0.057
	c-2.829,0.343-19.519-0.314-23.52,0c-8.573,0.714-7.03,0.028-15.003-0.086c-2.486-0.029-5.858,0.457-7.944,0.229
	c-4.916-0.571-10.202,0.257-15.547,0c-2.943-0.143-4.943,0.257-7.744,0.257l-11.603-0.486c-1.372,0.057-2.2,0.286-3.858,0.229
	c-1.657-0.057-10.316-0.372-11.517-0.114c-1.657,0.372-0.371,0.515-3.486,0.486c-1.687,0-2.4-0.229-3.658-0.372
	c-2.715-0.286-9.002,0.229-11.831,0.2c-2.743-0.057-4.658-0.486-7.516-0.458c-2.629,0.058-4.516,0.458-7.488,0.4
	c-2.829-0.029-4.772-0.4-7.516-0.429c-2.687-0.029-5.315,0.171-7.973,0.143c-2.658-0.057-5.315-0.2-8.002-0.115
	c-2.629,0.058-4.858,0.429-7.716,0.2c-3.058-0.229-4.83,0.086-7.745,0.114c-2.687,0.029-5.344-0.114-8.002-0.114
	c-2.601,0.029-4.915,0.314-7.744,0.286c-2.744,0-4.916-0.314-7.745-0.229c-2.601,0.057-5.059,0.4-7.973,0.2
	c-2.315-0.171-5.144-0.429-7.716-0.171c-2.943,0.286-4.715,0.028-7.516-0.029c-2.829-0.028-5.144,0.143-7.745,0.229
	c-2.715,0.086-5.544-0.143-8.202,0.029c-0.372,0.486-0.458,0.486-0.658,1.2c-0.314,1.086-0.171,0.657-0.543,1.458l-2.458,9.888
	c-0.229,1.172-0.571,2.258-0.8,3.287c-0.171,0.657-0.114,1.086-0.2,1.772c-0.143,1.057-0.343,0.943-0.543,1.572
	c-0.314,1.114-1.258,6.344-0.286,7.288c0.772,0.743,1.715,0.371,3.515,0.371l61.213,0.029c10.831,0,21.376-0.171,32.179-0.2
	c10.888-0.028,21.776,0.143,32.664,0.057c32.521-0.229,65.186,0.143,97.765,0.029c5.372-0.029,10.831-0.086,16.203-0.057
	c2.743,0,5.487,0.143,8.23,0h7.03C264.665,118.085,263.75,118.571,264.293,117.799L264.293,117.799z"/>
<path fill-rule="evenodd" clip-rule="evenodd" fill="#AFB1B1" d="M4.408,147.206c-1.143-3.687-0.829-14.632-0.686-19.49
	c0.085-2.829-0.372-4.029,0.714-6.116c11.174-0.343,23.034-0.086,34.265-0.029c11.345,0.029,22.805-0.2,34.122-0.028
	c11.317,0.2,22.776-0.057,34.122-0.029l156.091,0.057c1.601,0.058,2.029,0.143,2.172,4.43c0.086,2.601-0.143,6.173,0.143,8.574
	c0.2,1.571-0.028,10.659-0.543,11.859c-0.543,1.286-1.829,0.829-3.486,0.801c-5.687-0.144-11.488,0.028-17.175,0
	c-11.432-0.086-22.948,0.143-34.379,0.114c-22.806-0.058-45.668-0.114-68.473-0.029c-22.805,0.086-45.639-0.143-68.472-0.057
	C70.851,147.264,6.751,147.635,4.408,147.206L4.408,147.206z M3.236,121.743c0.2,2.543-0.372,4.744-0.458,6.201
	c-0.2,3.115-0.143,10.831,0.229,13.975c0.2,1.687,0.086,4.973,0.972,6.23c3.144,0.286,25.663,0.229,29.664,0.114
	c4.772-0.171,10.145-0.086,15.003-0.057c2.486,0.028,5.001,0.057,7.487,0.057c2.543,0,4.544-0.286,7.259-0.229
	c9.802,0.229,19.919,0,29.75-0.058l44.524-0.028c4.887,0.028,10.116-0.257,14.774,0.144c4.486,0.371,23.576-0.058,30.007,0
	l59.612,0.057c0.771-0.629,1.858-0.543,3.029-0.515l15.004-0.057c7.229,0.171,4.629,1,5.973-8.745
	c0.343-2.4,0.086-6.516-0.172-8.974c-0.972-10.203,1.372-8.859-8.944-8.917c-6.116-0.057-12.26,0-18.404-0.029
	c-2.887,0-5.83,0.171-8.916,0.143c-2.943-0.057-5.888,0.2-8.745,0.171c-12.06-0.171-24.177-0.2-36.265-0.2
	c-6.116,0.029-12.289-0.085-18.404,0.029l-18.146,0.057c-12.089-0.257-24.206,0-36.294-0.314c-3.115-0.085-6.059,0.029-9.174,0.086
	c-3.115,0.057-6.115-0.2-9.202-0.171c-5.716,0.028-11.974,0.343-17.918,0.286c-6.059-0.086-12.346-0.171-18.375-0.057
	c-5.858,0.114-12.031,0.314-17.918,0.171c-3.001-0.057-6.202-0.143-9.173-0.114c-2.972,0.057-6.001,0.257-8.974,0.171
	c-4.83-0.143-10.059,0.171-13.774,0.029C5.065,121.143,4.779,120.857,3.236,121.743L3.236,121.743z"/>
<path fill-rule="evenodd" clip-rule="evenodd" fill="#6C6B6B" d="M252.69,177.414L114.918,177.3c-4.63,0-18.547-0.4-22.091-0.058
	l-15.403,0.114c-2.572,0.029-5.115-0.229-7.745-0.2c-4.944,0.086-10.116-0.057-15.003,0.258c-2.686,0.171-5.086-0.058-7.744-0.028
	l-22.977,0.143c-2.858-0.028-4.858-0.143-7.745,0.057c-1.2,0.086-2.601-0.028-3.887,0c-2.058,0.058-1.372-0.257-2.458-1.257
	c0.572-0.801-0.714,0.028,0.229-0.258c1.058-0.314-0.2-0.2,0.343,0.029l-0.601-0.4c-0.343-2.915,0.2-2.544-1.2-3.315
	c-0.057-1.314,0.171-1.943-0.486-2.715c-1.114-1.258-0.343-0.914-0.771-2.429c-0.286-1.058-0.4,0.057-0.686-2.458
	c-0.686-6.059-0.714-2.973-1.114-5.315c-0.2-1.086-0.086-2.029-0.429-3.029c-0.4-1.258-1-3.83-0.543-5.401
	c1.343-0.601,117.969-0.372,129.685-0.286c21.662,0.172,43.41-0.171,65.072-0.028l48.639,0.057
	c2.887-0.028,14.375-0.485,16.318,0.058c0.285,1.515,0.028,3.772-0.172,5.173c-0.2,1.457-0.886,3.658-0.629,4.887
	c0.629-0.515,0.886-1.886,0.972-2.715c0.172-1.429,0.144-2.086,0.515-3.029c0.343-0.829,0.229-2.258,0.229-3.258
	c0-1.515-0.4-1.029-1.028-2.172c-4.315,0-7.402,0.371-12.089,0.199c-1.915-0.085-2.086,0.229-3.629,0.372
	c-3.973,0.286-9.917-0.571-16.004-0.143c-2.629,0.199-5.516-0.029-8.202,0h-24.662c-10.945-0.144-21.977,0.199-32.922,0.057
	s-21.947,0.058-32.893,0c-2.715,0-5.458,0.058-8.173-0.114c-2.857-0.172-5.001,0.086-7.802,0.086
	c-5.515,0.028-10.602-0.286-16.204-0.086c-2.857,0.114-5.287-0.314-8.001-0.286c-2.858,0.029-5.258,0.344-7.973,0.314
	c-5.487-0.057-10.688,0.114-16.204,0c-10.831-0.229-22.062,0.086-32.921,0.172c-4.658,0.028-30.407-0.571-32.436,0.371
	c-0.743,3.544,1.657,10.975,2.086,14.775c0.2,1.687,2.829,11.603,4.458,12.374c1.715,0.344,5.63,0.115,7.516,0.029
	c6.173-0.229,16.375,0.257,22.748,0.086c5.001-0.172,10.002,0.114,15.003-0.115c4.83-0.229,10.345-0.143,15.232-0.114
	c20.147,0.114,40.352,0.144,60.499,0.058c20.09-0.086,40.38,0.4,60.471,0.143c15.061-0.229,30.378,0.086,45.495-0.086
	c3.887-0.028,13.346,0.286,14.689-0.199L252.69,177.414z"/>
<path fill-rule="evenodd" clip-rule="evenodd" fill="#6C6B6B" d="M245.375,205.163c-1.058,0.429-1.114,0.801-1.486,1.486
	c-4.458,0.286-9.088,0-13.546,0.058l-41.123,0.028c-36.608,0.172-73.245-0.114-109.853,0l-41.152,0.057
	c-2.029,0.029-12.431,0.572-13.289-0.313c-1.143-1.058-7.802-11.774-8.288-14.09l-1.229-2.886c-0.257-0.715-0.457-0.829-0.743-1.43
	l-2.144-4.829c-1.486-4.173-0.086-3.115,7.316-2.973c2.601,0.028,4.887-0.2,7.487-0.2l45.981-0.028
	c20.404-0.086,40.837,0.172,61.214-0.028c10.116-0.114,20.376-0.028,30.492-0.028h84.447c1.285,0,2.571,0.028,3.857,0.028
	c0.687,0,1.286,0.028,1.972,0.028c3.229,0.058,1.772,1.029,0.743,4.344l-5.572,11.803c1.229-0.285,0.343,0.144,1.457-1.657
	c0.458-0.771,0.657-1.457,1.058-2.086c1.2-1.772,1.144-2.372,2.029-4.229c0.314-0.687,0.571-1.344,0.914-1.973
	c0.372-0.628,0.629-1.371,0.915-2.172c0.657-1.771,1.543-2.771,0.371-4.486c-1.771-0.229-27.835,0.057-30.979,0.028
	c-5.144-0.057-10.431,0.172-15.489-0.057c-5.229-0.229-10.287,0.171-15.488-0.058c-7.631-0.314-15.489,0.143-23.205,0.143
	c-2.572,0-5.23-0.199-7.745-0.143c-5.287,0.143-10.23,0.028-15.489-0.028c-2.571-0.028-5.144,0.171-7.744,0.114
	c-2.601-0.028-5.144-0.143-7.745-0.058c-5.258,0.172-10.117-0.257-15.26-0.2c-2.572,0.029-4.83,0.286-7.487,0.172
	c-2.515-0.114-4.944-0.257-7.488-0.2c-10.031,0.172-20.119,0.229-30.264,0.314H41.845c-5.116-0.086-10.316,0.058-15.46,0.028
	c-2.601-0.028-5.173,0.058-7.745,0.029c-2,0-6.059-0.515-7.288,0.514c-0.514,0.829,1.115,4.716,1.543,5.573l1.029,2.314
	c0.028,0.029,0.057,0.086,0.085,0.144l2.972,6.173c1.172,2.2,2.372,4.572,3.658,6.573l1.915,3.144
	c0.286,0.485,1.857,2.857,2.343,3.058c2.315,0.972,21.519,0.2,26.406,0.257c4.544,0.058,9.173-0.143,13.774-0.2
	c23.177-0.229,46.982,0.029,70.187,0.058c18.662,0.028,37.494-0.286,56.127-0.028c9.316,0.114,18.719,0.114,28.063,0.057
	c4.486-0.057,9.631-0.257,14.031-0.086c2.43,0.086,4.602,0.115,7.03-0.028C242.632,207.106,245.232,207.535,245.375,205.163
	L245.375,205.163z"/>
<path fill-rule="evenodd" clip-rule="evenodd" fill="#AFB1B1" d="M34.929,49.182c-1.857,1.372-2.429,3.601-4.201,4.058
	c-0.2,0.857-1.286,1.715-1.943,2.858c-0.886,1.601-1.686,2.058-1.629,2.915c0.057,0.6-0.086,0.143,0.171,0.572
	c0.572,0.514,174.467-0.057,194.557,0.171c4.544,0.057,9.202,0,13.774,0c1.144,0,2.286,0,3.401,0
	c3.771-0.029,1.457-1.772,0.371-3.544c-1.257-2.086-1.257-0.857-1.457-1.943c-1.058-0.457-0.314,0-1.029-0.943
	c-1.4-1.772-3.029-3.287-3.629-4.058c-0.943-1.229-0.458-1.058-1.772-1.686c0.458,2.572,2.801,3.115,4.516,5.687
	c0.743,1.115,1.114,1.8,2.286,2.801c1.058,0.915-0.028,0.257,0.857,1.515c0.829,1.2,0.829-0.057,0.829,1.4l-9.688-0.229
	c-1.371,0-2.058-0.286-3.144-0.2c-1.286,0.085-1.6,0.486-3.144,0.486c-3.2,0.028-4.658-0.486-9.944-0.229
	c-2.229,0.143-4.401,0.257-6.745,0.286c-2.286,0.028-3.943-0.429-6.287-0.515c-2.4-0.085-4.372,0.257-6.544,0.286
	c-2.258,0.058-4.43-0.143-6.516-0.2c-2.601-0.086-4.372,0.229-6.544,0.372c-3.602,0.229-7.431-0.543-13.317,0
	c-3.83,0.314-9.23-0.8-13.175-0.286c-2.429,0.314-10.345,0-13.432,0c-2.143-0.028-4.058,0.429-6.486,0.229
	c-4.173-0.343-8.688-0.658-13.375-0.4c-4.573,0.257-9.174-0.257-13.775-0.057c-8.944,0.372-18.204-0.057-27.091,0.314
	c-2.772,0.114-6.859-0.343-10.174-0.257c-1.229,0.029-1.972,0.286-3.144,0.314c-5.858,0.143-6.03-0.6-13.174,0.057
	c-2.143,0.2-7.202-0.114-10.059-0.114c-1.372,0-1.858,0.257-3.144,0.314c-2.144,0.057-4.63,0.028-6.773-0.086l-6.401,0.171
	c0.057-0.886,0.4-1.229,1.458-2.543l4.458-5.43C34.958,50.154,34.958,50.525,34.929,49.182L34.929,49.182z"/>
<path fill-rule="evenodd" clip-rule="evenodd" fill="#6C6B6B" d="M3.236,121.743c1.543-0.886,1.829-0.601,4.029-0.543
	c3.715,0.143,8.945-0.172,13.774-0.029c2.972,0.086,6.001-0.114,8.974-0.171c2.972-0.029,6.172,0.057,9.173,0.114
	c5.887,0.143,12.06-0.057,17.918-0.171c6.03-0.114,12.317-0.029,18.375,0.057c5.944,0.057,12.203-0.257,17.918-0.286
	c3.086-0.029,6.087,0.229,9.202,0.171c3.115-0.057,6.059-0.171,9.174-0.086c12.088,0.314,24.205,0.057,36.294,0.314l18.146-0.057
	c6.115-0.114,12.288,0,18.404-0.029c12.088,0,24.205,0.029,36.265,0.2c2.857,0.029,5.802-0.229,8.745-0.171
	c3.086,0.028,6.029-0.143,8.916-0.143c6.145,0.029,12.288-0.028,18.404,0.029c10.316,0.057,7.973-1.286,8.944,8.917
	c0.258,2.458,0.515,6.573,0.172,8.974c-1.344,9.745,1.257,8.916-5.973,8.745l-15.004,0.057c-1.171-0.028-2.258-0.114-3.029,0.515
	c3.544,0.314,14.432-0.286,19.747-0.028c1.43,0.057,3.259,0.771,4.173-1.172l0.229-1.114c0.172-1.286-0.086-0.771,0-2.144
	c0.2-3.144,0.4-6.23,0.286-9.688c-0.086-2.486,0.114-7.287-0.4-9.431c-1-3.887,0.715-4.287-5.516-4.201
	c-6.572,0.086-13.231,0-19.833-0.028l-19.604,0.286c-3.029,0-6.372-0.229-9.659-0.229l-69.215-0.057
	c-6.516,0-13.346,0.229-19.69-0.114c-2.658-0.172-6.602,0.143-9.574,0.114c-3.343-0.057-6.573-0.057-9.917,0
	c-6.487,0.114-13.346,0.085-19.861,0c-13.088-0.171-26.577-0.086-39.666,0.085c-13.203,0.171-26.491-0.143-39.694,0.029
	C3.608,121.057,3.551,120.886,3.236,121.743L3.236,121.743z"/>
<path fill-rule="evenodd" clip-rule="evenodd" fill="#6C6B6B" d="M106.373,6.172c2.372-0.429,5.058-0.601,7.459-1
	c7.259-1.257,6.458-1.343,15.117-1.686c2.801-0.086,5.658,0.028,8.488,0c2.6-0.029,4.829,0.429,7.744,0.429
	c2.144-0.029,1.886,0.286,3.601,0.486c1.372,0.171,2.715,0.171,4.115,0.314c1.144,0.143,2.001,0.628,3.172,0.8
	c1.658,0.286,2.172,0.286,3.602,0.743c1.828,0.572,1.114-0.314,4.458,0.915l12.002,3.458c2.486,0.886,3.83,1.857,4.201,1.972
	l1.172,0.343c0,0.028,0.4,0.257,0.429,0.286c1.143,0.629,1.058-0.085,3.286,1.115l6.002,2.486c3.058,1.372,5.572,3.486,8.658,4.887
	l5.059,3.373c0.715,0.543,0.086,0.229,0.601,0.6c0.514,0.372,1.285,0.372,2.172,1.257c1.515,1.458,0.114,0.229,1.771,1.058
	l0.314,0.2c0.057,0.057,0.229,0.171,0.285,0.229c1.601,1,1.458,0.086,1.658,1.744l-19.891-0.029
	c-4.973-0.257-4.801,0.171-9.401,0.086c-5.659-0.143-15.032,0.085-19.862-0.286c-3.343-0.257-6.458,0.314-9.916,0.257
	c-2.086-0.028-17.661,0-19.29-0.343c-3.486-0.686-6.744,0.229-9.259,0.229c-3.343,0-6.258-0.257-9.688-0.286l-15.003-0.029
	c-5.916,0.286-3.287,0.314-9.402,0.086c-1.943-0.086-3.058,0.257-4.858,0.257c-3.344,0.028-6.802-0.143-10.174-0.086
	c-3.229,0.086-17.432,0.629-19.404-0.057c0.314-0.114-0.286,0.429,0.229-0.229l0.943-0.857c0.286-1.029,0.829-0.915,3.172-2.629
	c2.315-1.743,5.03-2.886,7.288-4.544l0.714-0.514c-1.086,0.171-3.144,1.343-3.915,1.886l-8.374,5.687
	c-3.543,3.029,6.516,1.8,8.945,1.915c3.229,0.143,6.688-0.028,9.917-0.085c6.63-0.114,13.231,0.057,19.862,0.057
	c11.402-0.029,28.892-0.515,39.666-0.029c1.629,0.057,3.201,0.057,4.858-0.028c1.743-0.057,3.314,0.143,5.059,0.085
	c3.372-0.114,6.601,0.057,9.944,0.057c6.602-0.028,13.203-0.085,19.833-0.057c6.602,0.029,13.231-0.114,19.833,0.029
	c3.172,0.057,6.744,0.057,9.917-0.029c2.972-0.114,6.744,0.629,9.259-0.486c-0.314-1.715-2.515-2.543-4.287-4.001l-5.201-3.315
	c-1.629-1.058-3.687-2.058-5.4-3.086c-0.058-0.029-0.114-0.057-0.144-0.086c-0.057-0.028-0.114-0.057-0.171-0.085l-0.286-0.172
	c-5.258-3.086-6.43-3.572-12.432-6.03c-1.571-0.629-5.772-2.715-7.43-3.058l-6.573-2.086c-1.457-0.257-1.914-0.714-3.429-1
	l-5.145-1.172c-0.972-0.257-0.629-0.371-1.457-0.571c-0.972-0.257-2.687-0.286-3.772-0.4c-1.486-0.172-1.943-0.686-3.629-0.857
	c-1.229-0.143-2.572-0.086-3.687-0.4c-2.544-0.657-9.574-0.972-12.003-0.943c-2.772,0.028-5.801-0.143-8.488,0.028
	c-2.715,0.143-5.458,0.343-8.23,0.372c-1.6,0.029-2.058,0.372-3.458,0.629c-1.543,0.286-2.515,0.257-4.001,0.429
	c-1.172,0.143-2.629,0.6-5.573,0.886C106.173,5.457,106.516,5.686,106.373,6.172L106.373,6.172z"/>
<path fill-rule="evenodd" clip-rule="evenodd" fill="#AFB1B1" d="M10.438,176.1c-0.543-0.229,0.714-0.344-0.343-0.029
	c-0.943,0.286,0.343-0.543-0.229,0.258c1.086,1,0.4,1.314,2.458,1.257c1.286-0.028,2.687,0.086,3.887,0
	c2.886-0.199,4.887-0.085,7.745-0.057l22.977-0.143c2.658-0.029,5.058,0.199,7.744,0.028c4.887-0.314,10.06-0.172,15.003-0.258
	c2.629-0.028,5.173,0.229,7.745,0.2l15.403-0.114c3.544-0.343,17.461,0.058,22.091,0.058l137.772,0.114
	c1.172,0.2,2.544,0.086,3.801,0.086c1.601,0.028,2.258,0.143,2.801-1.258c0.543-1.343,2.029-4.887,1.972-6.059v-1.086
	c-0.6,0.714-0.686,1.143-0.914,2.086c-0.257,1.058-1.343,4.802-2.429,5.315c-9.945,0.743-21.319-0.543-30.979,0.343
	c-4.944,0.458-10.46-0.313-15.461-0.171c-4.972,0.143-10.517,0.114-15.489,0.028c-20.318-0.314-42.095,0.372-62.185-0.057
	c-20.662-0.458-41.523,0.229-62.185-0.058c-10.288-0.143-20.947,0.058-30.978,0.314c-4.944,0.114-10.459,0-15.489-0.028
	c-1.972,0-5.973-0.314-7.688-0.029c-0.429,0.086-1.086,0.314-1.572,0.344c-0.915,0.085-0.972-0.172-1.486-0.286
	c-0.829-0.172-2.144,0.2-3.458,0.114L10.438,176.1z"/>
<path fill-rule="evenodd" clip-rule="evenodd" fill="#AFB1B1" d="M37.729,223.511l0.028,0.286c1.286,0.543,1.458,1.486,2.372,2.172
	c1.972,1.571,1.458,1.515,3.401,3.115c0.514,0.429,0.686,0.657,1.143,1.057c0.8,0.801,1.629,1.4,2.172,2.344
	c0.457,0.543,0.857,0.771,1.458,1.286c0.314,0.286,0.343,0.343,0.771,0.686l1.029,0.629l-0.114-0.914
	c-0.943-0.457-1.086-0.543-1.972-1.572l-0.743-0.972c-0.029-0.028-0.086-0.086-0.114-0.114l-1-0.914
	c-0.257-0.2-0.4-0.314-0.657-0.515c-1.2-1-0.628-1.029-2-1.886c-1.086-0.687-1-1.172-2.658-2.43c-1-0.771-0.8-1-1.429-1.743
	l-0.572-0.629c-0.028-0.057-0.057-0.114-0.085-0.143l-6.458-7.345c-0.286-0.314-0.086-0.028-0.343-0.429
	c-0.657-0.943-0.914-1.801-0.914-2.915c-0.029,0.057,0.257,0.286-1.172,0.457c-0.486-0.914-1.658-1.829-1.715-2.715
	c3.258-0.314,21.233-0.057,26.52-0.114c8.831-0.114,17.775-0.028,26.635-0.058c8.859,0,17.747-0.085,26.605-0.028
	c4.573,0.028,8.545-0.143,13.06-0.171c4.172,0,8.631,0.257,13.06,0.229c17.719-0.144,35.522,0.2,53.24,0.028
	c8.859-0.114,17.775,0.114,26.606,0c6.029-0.058,21.575-0.257,26.862,0.028c-0.171,1.543-3.4,4.602-3.629,5.63
	c-0.486,2.286-0.343-1.2,0,0.657c0.714-0.314,1.028-0.828,1.229-1.4l0.571-0.886c0.2-0.314,0.172-0.314,0.372-0.6
	c2.572-3.716,3.314-4.059-1.2-4.259c-4.201-0.171-6.516,0.144-10.174,0.114c-4.486-0.085-8.802-0.143-13.289,0
	c-8.001,0.229-18.976-0.429-26.862,0l-13.546,0.086c-2.229-0.028-4.544-0.114-6.773-0.171c-2.343-0.058-4.086,0.143-6.287,0.171
	c-8.83,0.086-17.832-0.229-26.634-0.057c-4.602,0.085-8.859-0.258-13.289-0.258c-6.258,0-13.946-0.114-20.09,0.144
	c-2.287,0.085-4.516-0.115-6.773-0.086l-26.635,0.2c-2.286-0.029-4.486,0.199-6.773,0.143c-6.916-0.172-12.974,0.257-19.833,0.028
	l-13.174,0.144c-0.429,1.114-0.257,1.285,0.371,2.058l6.802,8.23c0.457,0.514,0.771,1,1.286,1.571
	C36.986,222.339,37.444,222.625,37.729,223.511L37.729,223.511z"/>
<path fill-rule="evenodd" clip-rule="evenodd" fill="#6C6B6B" d="M18.125,72.731l4.858-7.688c0-0.029,1.086-1.801,1.114-1.801
	c1.086-1.057,6.659-0.6,8.802-0.6c8.316,0.057,16.632-0.057,24.919,0l11.974-0.114c2.486,0.314,20.004-0.286,24.32-0.257
	c3.115,0,9.745,0.314,12.46-0.229c2.543-0.257,5.887,0.286,8.602,0.257c2.744,0,5.744-0.343,8.459-0.2
	c7.23,0.372,18.062,0.086,25.663,0c2.915-0.028,5.801,0.229,8.688,0.257c2.943,0,5.801-0.286,8.716-0.171
	c6.83,0.229,11.146-0.171,17.433,0.114c2.943,0.143,5.772-0.114,8.717-0.2c2.657-0.085,5.687,0.2,8.459,0.229
	c2.914,0.029,5.629-0.343,8.459-0.171c5.744,0.314,11.202-0.028,16.946,0.143c2.886,0.086,5.83-0.229,8.716-0.257
	c0.657,0,6.716,0.029,7.259,0.257c1,0.457,0.457,0.229,0.829,0.714c0.457,0.086,1.371,1.458,1.743,2.086
	c0.972,1.515,3.544,6.43,4.687,7.288l0.343,0.257c-0.028-1.286-2.743-5.03-3.543-6.344c-3.544-5.659-2.486-4.344-9.374-4.544
	c-2.687-0.086-5.315,0.057-8.002,0.057c-26.434,0.2-52.926-0.2-79.36-0.086c-5.144,0.029-10.944-0.229-15.975,0
	c-5.229,0.229-10.459-0.057-15.718,0.029c-5.287,0.114-10.488-0.372-15.66-0.114c-7.173,0.4-23.863,0.286-31.521,0.2
	c-13.26-0.172-26.463,0-39.694,0.028c-7.173,0-6.087-1.286-8.974,2.858c-2.343,3.372-1.229,2-2.286,3.801
	c-0.4,0.657-0.343,0.257-0.743,1.115C18.611,71.417,18.325,71.273,18.125,72.731L18.125,72.731z"/>
<path fill-rule="evenodd" clip-rule="evenodd" fill="#AFB1B1" d="M61.306,243.287l-0.915-1.028c-0.743-0.572-3.029-1.915-3.229-2.63
	l38.666-0.143c12.86,0.257,26.034,0.057,38.951,0.028c12.889,0,25.806,0.058,38.694,0.086c4.229,0.028,37.723-0.429,38.608,0.257
	l-0.743,0.657c-0.429,0.314-0.457,0.2-0.743,0.515c-0.743,0.801-0.343-0.057-0.457,1c1.229-0.371,2.887-1.343,2.801-2.8
	c-1.658-0.801-34.493-0.229-39.466-0.229c-13.203-0.028-26.749-0.343-39.923-0.085l-19.376-0.258
	c-6.544-0.457-13.06,0.486-19.375-0.057l-19.547,0.257c-3.372,0.058-6.602-0.2-9.688-0.286c-2.143-0.028-2.743,0.372-4.572,0.429
	c-1.743,0.029-3.515-0.371-4.687,0.486c0.229,1.601,1.886,2,2.229,2.2C59.448,242.259,59.877,243.345,61.306,243.287L61.306,243.287
	z"/>
<path fill-rule="evenodd" clip-rule="evenodd" fill="#6C6B6B" d="M30.728,53.24c1.771-0.457,2.343-2.686,4.201-4.058
	c0.086-0.4-0.143,0.057,0.143-0.4l2.829-2.744c1.543-1.343,0.8-1,2.201-2.343c0.057-0.057,0.343-0.314,0.4-0.372l5.601-5.487
	c0.229-0.229,0.114-0.114,0.4-0.343l1.6-1.543c0.2-0.2,0.657-0.657,0.857-0.829l1.658-1.486c0.886-0.743,1.143-0.429,2.572-0.572
	c4.687-0.4,10.66-0.057,15.775-0.143c16.804-0.257,33.75,0.257,50.554-0.057c16.747-0.286,33.779,0.086,50.583,0.029
	c12.46-0.029,25.52,0.2,37.979,0.028c2.086-0.028,4.229-0.085,6.287-0.057c2.857,0.029,2.857,0.829,4.372,2.058
	c0.886,0.372,5.145,4.487,6.287,5.458c1,0.886,2.801,2.344,3.115,3.572c0.629,0.257,1.258,1.058,1.743,1.715
	c0.543,0.743,1.515,1.343,1.657,1.915c1.314,0.628,0.829,0.457,1.772,1.686c0.6,0.771,2.229,2.286,3.629,4.058
	c0.715,0.943-0.028,0.486,1.029,0.943c-0.458-2.458-11.803-13.546-15.004-16.461c-6.258-5.744-4.943-5.258-10.059-5.373
	c-5.116-0.114-10.574-0.028-15.718,0.029c-20.862,0.2-41.838-0.343-62.671-0.029c-5.145,0.086-10.374-0.286-15.489,0
	c-5.087,0.257-10.06-0.286-15.232-0.057c-4.973,0.229-10.203-0.057-15.232,0.057c-5.116,0.115-10.631,0.086-15.747,0.029
	c-5.144-0.086-10.316,0.086-15.489,0c-2-0.029-5.716-0.486-7.059,0.543c-0.714,0.572-1.314,1.143-2.086,1.829
	c-0.714,0.657-1.343,1.172-2.201,1.915c-3.343,2.944-5.573,4.944-8.402,8.316l-3.172,3.544c-0.6,0.714-1.058,1.486-1.743,2.172
	c-0.314,0.314-0.658,0.686-0.915,0.972L30.728,53.24z"/>
<path fill-rule="evenodd" clip-rule="evenodd" fill="#6C6B6B" d="M50.104,235.285c0.515,1.543,2.258,1.657,4.344,1.657
	c1.886,0,3.658-0.085,5.544-0.114c3.744-0.057,7.659,0,11.374,0.058c7.487,0.143,15.003-0.258,22.52-0.258
	c7.487-0.028,14.975,0.115,22.49,0.058c4.916,0,18.49-0.257,22.576,0.2l44.925-0.114c2.601,0.028,32.492,0.2,33.75-0.229
	c0.543-0.172,4.687-3.43,5.544-4.487c0.801-0.972,0.4,0.028,0.4-1.028c-0.857,0.229-0.743,0.343-1.629,1.257
	c-0.486,0.515-4.144,3.516-4.801,3.716c-1.144,0.314-30.722,0.143-33.265,0.143c-14.89-0.086-29.893,0.229-44.753,0.028
	c-14.917-0.229-29.835,0.058-44.752-0.114l-33.636,0.058c-1.857,0-3.715,0.028-5.573,0.028
	C50.075,236.114,52.39,235.8,50.104,235.285L50.104,235.285z"/>
<path fill-rule="evenodd" clip-rule="evenodd" fill="#6C6B6B" d="M37.729,223.511c-0.286-0.886-0.743-1.172-1.314-1.829
	c-0.515-0.571-0.829-1.058-1.286-1.571l-6.802-8.23c-0.628-0.772-0.8-0.943-0.371-2.058l13.174-0.144
	c6.858,0.229,12.917-0.2,19.833-0.028c2.287,0.057,4.487-0.172,6.773-0.143l26.635-0.2c2.257-0.029,4.486,0.171,6.773,0.086
	c6.144-0.258,13.832-0.144,20.09-0.144c4.43,0,8.688,0.343,13.289,0.258c8.802-0.172,17.804,0.143,26.634,0.057
	c2.201-0.028,3.944-0.229,6.287-0.171c2.229,0.057,4.544,0.143,6.773,0.171l13.546-0.086c7.887-0.429,18.861,0.229,26.862,0
	c4.487-0.143,8.803-0.085,13.289,0c3.658,0.029,5.973-0.285,10.174-0.114c4.515,0.2,3.772,0.543,1.2,4.259
	c-0.2,0.285-0.172,0.285-0.372,0.6l-0.571,0.886c1-0.257,1.572-1.4,2.515-2.8c0.829-1.229,1.458-1.858,0.601-3.087
	c-3.201-0.771-9.717-0.172-13.289-0.2c-4.458-0.057-8.858-0.086-13.317-0.028c-8.887,0.171-17.946-0.258-26.862,0
	c-16.833,0.515-36.809-0.4-53.698,0.028c-4.458,0.114-8.887-0.171-13.317-0.143l-40.151,0.086
	c-4.458,0.028-8.859,0.143-13.317,0.028c-2.257-0.058-4.229,0.171-6.544,0.143c-5.344-0.114-32.521-0.114-33.436,0.286
	c-0.314,1-0.486,1.429,0.2,2.343c0.4,0.572,0.943,1.4,1.286,1.858c0.486,0.628,0.886,0.886,1.4,1.543l5.544,6.773
	C36.929,223.025,36.672,222.968,37.729,223.511L37.729,223.511z"/>
<path fill-rule="evenodd" clip-rule="evenodd" fill="#AFB1B1" d="M14.981,194.961c-0.085-0.429-0.286-1.028-0.543-1.629
	l-4.144-9.945c-0.6-1.144-0.429,0.172-0.8-1.687c-0.286-1.257,0-0.343-0.6-1.457l-1.857-5.487c-0.229-0.8-0.372-0.485-0.6-1.543
	c-0.743-3.915,0.314-0.372-1.429-5.744l-2.515-11.518c-1-6.602-2.687-24.863-1.343-30.979c0.314-1.372,0.2-2.743,0.257-4.287
	l2.715-16.204l2.515-9.316c0.257-0.829,0.515-1.086,0.686-1.686c0.171-0.657,0.171-1.143,0.4-1.829
	c0.229-0.686,0.429-0.915,0.686-1.686c0.886-2.401,1.115-4.716,2.343-7.23c0.458-0.915,0.4-0.372,0.743-1.686
	c0.314-1.143,0.372-0.857,0.743-1.629l1.429-3.144c0.343-0.714,1.601-2.343,1.572-2.972c0.486-2.086,2.372-3.715,2.915-5.773
	c-1.2,0.514-1.343,1.657-2.201,2.8c-0.771,1-1.829,1.058-1.8,2.315c0.057,2.229,0.2,0.6-1.143,3.515
	c-0.457,1.029-0.486,0.314-0.829,1.515l-1.258,3.43c-0.628,1.6-2.257,4.43-2.658,6.516c-0.657,3.172-0.114,0.915-1.143,3.401
	c-0.571,1.315,0.143,0.2-0.886,1.115l-0.143,2.801c-1.286,0.743-0.686-0.629-0.972,2.772c-0.171,2.115-0.657,1.743-0.943,2.943
	c-0.114,0.515-0.114,1.229-0.229,1.715c-0.286,1.143-0.343,0.6-0.629,1.315c-0.343,0.943-0.2,2.257-0.4,3.286
	c-0.286,1.372-0.686,1.058-0.8,3.058C1.893,114.341,0.95,116.57,0.95,120.2c0.028,3.287-0.601,3.858-0.857,6.516
	c-0.2,2.229-0.086,16.519,0.429,18.49c0.286,1.229,0.314,1.915,0.4,3.314c0.057,1.001,0.114,2.602,0.286,3.573
	c0.229,1.229,0.543,1.657,0.686,3.2c0.114,1.172,0.171,2.43,0.314,3.601c0.171,1.315,0.571,1.544,0.771,2.83
	c0.257,1.686,0.057,1.886,0.629,3.258l1.486,5.83c0.057,0.714,0.057,1.257,0.229,1.857c0.257,0.886,0.286,0.429,0.515,1.114
	c0.543,1.572,0,1.515,0.886,3.058c0.372,0.658,0.229,0.572,0.514,1.4l0.972,2.687c0.257,0.857,0.343,0.629,0.629,0.972l2.543,6.745
	c0.6,1.4,2.572,4.801,2.886,6.373C15.153,195.333,14.467,195.161,14.981,194.961L14.981,194.961z"/>
<path fill-rule="evenodd" clip-rule="evenodd" fill="#AFB1B1" d="M265.465,107.054c-0.2,3.115,0.657,1.715,1,5.887l0.915,6.287
	c0.057,1.257,0.171,2.315,0.257,3.401c0.172,1.829,0.372,1.772,0.629,2.972c0.286,1.286,0.058,5.516,0.086,7.173
	c0.114,3.4,0.371,11.174-0.429,13.946c-0.629,2.144-0.286,4.486-0.601,6.658c-0.257,1.973-0.914,4.059-1.028,6.002
	c0,0.629-0.743,4.258-0.972,4.973c-0.286,1.058-0.486,1.058-0.657,2.314c-0.372,2.915-0.943,2.887-1.286,4.858l-2.314,6.974
	c-0.515,0.914-0.429,0.8-0.743,1.972l-2.801,6.602c-1.258,3.258-6.201,13.489-8.459,16.689l-3.715,5.745
	c-0.629,1-1.058,0.914-1.115,2.058c0.543-0.144,0.258,0,0.687-0.314c0.171-0.144,0.229-0.2,0.343-0.372
	c0.229-0.314,0.371-0.714,0.543-0.972c0.343-0.514,1.086-1.057,1.429-1.657l6.83-11.603c0.657-0.915,0.743-2.001,0.771-2.058
	l1.029-1.458c1.457-1.771,0.229-1.715,1.171-2.943c0.658-0.857,0.857-0.286,1.201-1.572c0.886-3.572,0.914-2.2,1.485-4.801
	c0.4-1.915,0.715-0.371,0.972-2.172c0.314-2.372-0.143-0.886,0.972-1.915c0.086-2.801,0.601-2.286,1.058-4.486
	c0.343-1.572,0.314-0.887,0.743-1.801c0.343-0.8,0.143-1.486,0.485-2.258c0.515-1.028,0.429,0.114,0.715-1.857
	c0.314-2.058,0.429-0.429,1-4.344c0.229-1.515-0.172-1.001,1-1.229c0.2-8.201,0.972-2.343,1.144-10.888
	c0.028-1.001-0.114-2.087,0.171-2.944c0.286-0.8,0.572-0.8,0.687-2.143c0.314-3.658,0.2-13.861,0.143-17.662
	c-0.028-4.115,0.143-7.973-0.657-10.259c-1.086-3.115,0.429-4.773-1.086-8.574c-0.771-2,0.314-1.829-1.058-4.715
	c-0.543-1.172,0.028-2.029-0.972-4.83c-0.257-0.743-0.343-1.715-0.571-2.372c-0.371-1.144-0.629-0.743-0.829-2.401l-1.114-4.658
	c-0.143-0.372-0.286-0.457-0.515-0.886c-0.6-1.058-0.143-0.943-0.828-2.058c-0.372-0.6-0.2,0.085-0.486-1.058
	c-0.114-0.457-0.057-0.743-0.229-1.172c-0.485-1.086-0.114,0.286-0.571-0.857c-0.601-1.429,0.343-0.972-0.715-2.144
	c-0.543-0.6-0.543-0.229-0.714-2.229l-0.943-0.172c0.086,0.857,1.943,4.858,2.429,6.001c0.601,1.486,0.458,1.601,0.715,2.401
	c0.2,0.6-0.058-0.086,0.286,0.6c0.457,0.972,0.514,1.886,1.028,3.115C263.064,96.394,265.379,104.253,265.465,107.054
	L265.465,107.054z"/>
<path fill-rule="evenodd" clip-rule="evenodd" fill="#AFB1B1" d="M243.518,63.014c-0.372-0.486,0.171-0.257-0.829-0.714
	c-0.543-0.229-6.602-0.257-7.259-0.257c-2.886,0.029-5.83,0.343-8.716,0.257c-5.744-0.171-11.202,0.171-16.946-0.143
	c-2.83-0.171-5.545,0.2-8.459,0.171c-2.772-0.028-5.802-0.314-8.459-0.229c-2.944,0.086-5.773,0.343-8.717,0.2
	c-6.287-0.286-10.603,0.114-17.433-0.114c-2.915-0.114-5.772,0.171-8.716,0.171c-2.887-0.029-5.772-0.286-8.688-0.257
	c-7.602,0.086-18.433,0.372-25.663,0c-2.715-0.143-5.715,0.2-8.459,0.2c-2.715,0.028-6.058-0.515-8.602-0.257
	c0.314,0.4,0.143,0.572,1.8,0.6l6.315,0.314c2.887,0.029,5.916-0.343,8.459-0.314c2.744,0.057,5.544,0.229,8.488,0.286
	c1.658,0.028,2.515-0.314,4.115-0.314c1.457,0,2.687,0.229,4.344,0.257c3.001,0.058,5.687-0.085,8.459-0.171
	c3.029-0.114,5.658,0.2,8.716,0.229c2.915,0.028,5.802-0.115,8.717-0.086c2.915,0.028,6.087,0.2,8.944,0.086
	c2.772-0.143,5.401-0.4,8.374-0.115c2.086,0.2,6.286,0.257,8.487-0.028c1.943-0.257,9.373,0.229,12.66,0.2
	c1.657-0.029,2.686-0.458,4.314-0.286c8.431,0.8,21.233-0.171,30.293,0.029C240.803,62.757,242.003,62.929,243.518,63.014
	L243.518,63.014z"/>
<path fill-rule="evenodd" clip-rule="evenodd" fill="#AFB1B1" d="M170.188,261.148c-1.915-0.285-3.059,0.657-4.688,0.943
	l-7.145,1.429c-1.314,0.486-5.315,1.058-6.687,1.258c-3.372,0.515-17.404,1.028-20.805,0.686c-3.372-0.343-7.43-0.057-10.66-0.543
	c-0.972-0.143-1.686-0.4-2.4-0.543c-1.629-0.285-5.058-0.114-7.173-0.857c-1.858-0.657-9.945-2.258-10.974-2.771
	c-0.972-0.458-0.457-0.515-1.915-0.658c-2.458-0.229-2.229-1.028-4.515-1.057l1.972,1.172c0.829,0.285,1.486,0.171,2.258,0.457
	c0.914,0.343,0.743,0.515,2.086,0.771c2.601,0.485,5.115,1.4,9.031,2.115c1.086,0.199,1.114,0.457,1.886,0.686
	c1.258,0.4,3.487,0.229,5.001,0.629c5.373,1.457,20.547,1.743,26.32,1.457c1.743-0.086,3.229-0.515,4.829-0.6
	c1.857-0.086,3.601-0.2,5.344-0.314l11.746-2.286c2.058-0.829,4.001-0.314,6.115-1.715L170.188,261.148z"/>
<path fill-rule="evenodd" clip-rule="evenodd" fill="#DFDFDF" d="M65.65,249.746c-0.915-1.687-2.515-1.801-4.487-3.43l-4.687-3.286
	c-1.629-0.972-3.058-2.172-4.573-3.43l-3.315-2.486c-0.372-0.257-0.6-0.686-0.915-0.943c-1.171-0.257-2.286-1.429-3.115-2.258
	l-0.743-0.972c-0.314-0.257-0.257-0.343-0.657-0.771c-0.4-0.399-0.571-0.571-0.857-0.743l-0.915,0.086
	c-0.514-0.828-1.086-0.657-1.086-2.029c-0.543-0.8-2.486-1.972-2.8-3c-1.115-0.286-0.543,0-1.229-0.801l-3.572-3.915
	c-0.628-0.829-1-0.914-1.086-1.771l-0.286-0.2c-0.029-0.028-0.086-0.086-0.143-0.114c-0.028-0.058-0.2-0.172-0.257-0.229
	c-0.371-0.344-0.229-0.229-0.571-0.657l-1.229-1.315c-0.028,1.2,1.658,3.115,2.515,3.973c0.714,0.743,0.686,1.258,1.457,1.887
	c0.886,0.714,0.343-0.086,0.915,0.771l2.858,3.458c1.143,1.6,0.829,0.285,1.601,1.543c1.029,1.743,0.257,0.543,1.515,1.572
	l3.687,3.343c0.8,0.743,1.086,0.515,1.857,1.315l1.143,1.314c0.114,0.086,0.343,0.257,0.4,0.285l1.515,1.372
	c0.057,0.028,0.086,0.086,0.143,0.114c0.028,0.058,0.085,0.114,0.114,0.143c0.057,0.029,0.114,0.086,0.143,0.115l1.6,1.057
	c4.544,2.772,1.629,2.486,4.201,2.973c0,0.857-0.086,0.943,0.229,1.515c0.714,0,0.486-0.2,1.343-0.429
	c1.229,1.857,1.771,1.601,4.258,3.314l2.372,1.572C65.192,249.86,64.649,249.946,65.65,249.746L65.65,249.746z"/>
<path fill-rule="evenodd" clip-rule="evenodd" fill="#6C6B6B" d="M53.533,27.177c-0.314,0.458-0.057,0.143-0.371,0.486l-5.001,4.258
	c-0.886,0.771-1.286,0.8-1.743,1.915c1.172-0.257,1.458-0.829,2.429-1.743c0.771-0.714,1.372-1.172,2.201-1.886l6.801-5.087
	c0.8-0.6,1.572-1,2.543-1.572c3.429-2.086,4.401-3.086,8.002-5.03l12.974-6.43c0.714-0.429,0.286-0.229,1.314-0.572l4.43-2.172
	c-1.543,0.057-7.888,2.858-9.459,3.658c-1,0.515-0.2-0.114-2.314,1.058c-1.858,1.057-2.372,1.028-3.373,1.515l-2.058,1.086
	c-1.486,0.943-0.971,0.371-2.486,1.372c-1.172,0.8-0.829,0.314-2.458,1.629c-1.2,1-2.543,1.601-3.886,2.429l-6.716,4.658
	C53.904,27.091,54.276,27.091,53.533,27.177L53.533,27.177z"/>
<path fill-rule="evenodd" clip-rule="evenodd" fill="#6C6B6B" d="M265.465,107.054c-0.086-2.801-2.4-10.66-3.486-13.203
	c-0.515-1.229-0.571-2.144-1.028-3.115c-0.344-0.686-0.086,0-0.286-0.6c-0.257-0.8-0.114-0.915-0.715-2.401
	c-0.485-1.143-2.343-5.144-2.429-6.001c-0.086-0.971-1.029-2.943-1.486-3.658c-0.485-0.743-0.229-0.171-0.6-1.115
	c-0.972-2.515-1.887-3.458-3.029-5.973l-4.572-7.23c-0.601-0.486-0.029,0.171-0.543-0.714l-4.315-6.259
	c-0.286-0.4-0.515-0.771-0.771-1.172c-0.601-0.886-0.629-0.686-0.943-0.743c0.172,0.886,5.029,7.145,5.63,8.374
	c0.429,0.829,4.658,7.345,5.344,8.945c1.314,3.086,5.03,8.945,6.116,13.118c0.143,0.514,1.571,2.972,2.028,5.201
	c0.258,1.257,0.229,0.686,0.657,1.657c1.144,2.658,1.314,4.858,1.572,5.573c0.6,1.6,1.343,3.029,1.715,5.516l0.628,2.886
	c0.029,0.057,0.058,0.114,0.086,0.171L265.465,107.054z"/>
<path fill-rule="evenodd" clip-rule="evenodd" fill="#DFDFDF" d="M243.289,212.508c-0.229,1.544-3.544,5.773-5.001,6.373
	c-0.058,0.2-0.086,0.4-0.086,0.429c-0.028,0.943,0,0.915-1.372,2.172c-1.601,1.458-1.143,1.344-2.343,2.801l-4.259,4.173
	l-3.314,3.486c-0.601,0.629-0.943,0.943-1.772,1.629c-0.743,0.657-1.143,0.743-1.914,1.458l-3.572,3.229
	c-0.886,0.657-3.173,2.257-3.687,3.286c0.942,0,0.972,0.057,1.629-0.515c0.514-0.457,1.686-1.943,2.457-2.429
	c1.601-1.001,0.572,0.114,1.629-1.229c1.201-1.543,1.086-0.543,2.601-2.2l0.486-0.543c0.829,0.257,0.4,0.286,1.086,0.371
	c0.114-2.086-0.114-0.514,1.943-3.114l0.8-0.887c0.457-0.485-0.028-0.028,0.629-0.6l1.314-1.372
	c0.028-0.028,0.086-0.086,0.114-0.143l3.973-3.744c1.086-0.828,0.543-1.229,1.571-2.286c0.2-0.229,0.144-0.172,0.4-0.343l0.314-0.2
	c0.571-0.4,0.286-0.143,0.743-0.657c1.743-2.144,0.028,0.6,1.457-1.915c0.343-0.629-0.2,0.172,0.2-0.285
	c0.686-0.801,0.2,0.199,1.144-1.286c0.771-1.229,0.8-0.515,1.485-1.2c0.286-0.314,0.515-1.372,0.743-1.943
	c0.4-0.972,0.657-0.943,1.058-1.887c0.028-0.057,0.057-0.114,0.086-0.171l0.399-1.4c-0.371,0.143-0.085-0.144-0.6,0.314
	C243.203,212.279,243.375,211.851,243.289,212.508L243.289,212.508z"/>
<path fill-rule="evenodd" clip-rule="evenodd" fill="#DFDFDF" d="M170.473,6.086c1.743,0.171,5.287,1.029,6.716,1.8
	c0.915,0.486,2.058,0.572,3.115,0.972c1.114,0.4,1.943,1,3.029,1.286c0.057-1.2-0.258-0.743-1-1.2
	c-0.801-0.458-0.4-0.343-0.857-0.857c-4.229-0.057-4.03-1.486-7.773-2.086c-3.001-0.457-9.773-2.943-11.346-3.144l-4.115-0.8
	c-1.686-0.2-3.286,0-4.772-0.2c-1.6-0.2-1.829-1.086-4.258-0.543c0.2,0.286,0.058,0.372,1.029,0.628l10.059,1.515
	c1.687,0.286,1.115,0.515,2.315,0.772c0.972,0.229,1.972,0.229,2.886,0.543c1.115,0.372,1.258,0.429,2.658,0.571
	C169.615,5.486,169.645,5.915,170.473,6.086L170.473,6.086z"/>
<path fill-rule="evenodd" clip-rule="evenodd" fill="#AFB1B1" d="M121.462,1.399c2.372,0.086,4.458-0.2,6.773-0.229
	c2.343-0.057,4.687-0.114,7.03-0.114c4.544,0.029,9.603,0.829,13.918,0.486c-0.457-0.4,0.028-0.143-0.629-0.343
	c-0.972-0.314-4.001-0.058-5.772-0.4c-1.229-0.257-0.972-0.571-2.687-0.628c-4.544-0.115-11.66-0.572-15.975,0.743
	c-0.143,0.057-1.171-0.171-1.943,0.114C121.519,1.256,121.919,1.027,121.462,1.399L121.462,1.399z"/>
<path fill-rule="evenodd" clip-rule="evenodd" fill="#6C6B6B" d="M90.627,8.429c0.085-0.057,0.171-0.2,0.229-0.114
	c0.057,0.057,0.171-0.085,0.229-0.114l1.372-0.543c0.686-0.2,1.315-0.2,1.972-0.429c0.743-0.257,0.714-0.4,1.629-0.6
	c3.715-0.829,1.572-0.714,3.458-1.086c0.571-0.114,1.657-0.143,2.172-0.314c0.514-0.143,0.429-0.372,1.515-0.571l6.087-1.058
	c1.257-0.171,2.429-0.743,3.601-0.943c1.257-0.229,2.772-0.115,4.144-0.343c1.8-0.286,3.543-0.429,4.172-1
	c-3.086-0.114-5.43,0.628-8.716,0.771c-0.714,0.057-1.458,0.114-1.972,0.229c-0.857,0.229-1,0.486-1.743,0.657
	c-1.686,0.429-2.143,0.029-3.886,0.715c-1.4,0.571-2.629,0.4-3.801,0.8l-8.944,2.658C90.855,7.458,90.941,7.258,90.627,8.429
	L90.627,8.429z"/>
<path fill-rule="evenodd" clip-rule="evenodd" fill="#6C6B6B" d="M208.738,246.23c1.058-0.399,0.086,0.029,0.629-0.314l3.229-2.372
	c0.514-0.229,1.171-0.6,1.686-1c0.601-0.429,0.857-1.028,1.687-1c0.514-1.029,2.801-2.629,3.687-3.286l3.572-3.229
	c0.771-0.715,1.171-0.801,1.914-1.458c0.829-0.686,1.172-1,1.772-1.629l3.314-3.486l2.172-2.372
	c0.572-0.601,1.829-2.058,2.029-2.801l-0.972,0.715c-0.686,0.742-0.829,1.286-2.029,2.343l-5.944,6.116
	c-1.399,1.429-4.114,3.258-4.915,4.058c-0.914,0.887-0.285,0.743-1.629,1.544c-0.6,0.371-1.028,0.8-1.601,1.257l-7.716,5.773
	C208.853,245.717,209.109,245.23,208.738,246.23L208.738,246.23z"/>
<path fill-rule="evenodd" clip-rule="evenodd" fill="#AFB1B1" d="M200.107,18.746c0.515,0.171,1.829,1.172,2.658,1.543
	c0.857,0.4,1.771,1.229,2.572,1.743c0.686,0.429,4.915,3.258,5.201,3.315c1.371,0.286,0.942,0.543,2.257,1.315l4.087,3.201
	c0.486,0.4,0.429,0.343,1,0.714c0.086,0.086,0.572,0.4,0.572,0.4l0.571,0.314c0.028,0.029,0.114,0.086,0.2,0.114
	c-0.314-1.229-0.086-0.628-1.144-1.314c-1.543-1.029-2.144-2.029-5.344-4.058l-11.146-7.488c-1.086-0.628-1.143-0.028-1.486-1.229
	c-2.601-0.143-3.543-1.972-6.001-2.172L200.107,18.746z"/>
<path fill-rule="evenodd" clip-rule="evenodd" fill="#AFB1B1" d="M180.018,258.148l12.432-5.459c0.686-0.343,1.172-0.4,1.914-0.8
	c0.543-0.286,1.029-0.601,1.486-0.943c0.886-0.629,0.915-0.372,1.801-0.857l1.686-0.8c0.743-0.286,0.743-0.629,1.43-1.115
	c1.028-0.686,2.2-1.114,3.286-1.829c0.543-0.371,1.2-0.714,1.601-1.057c0.285-0.2,0.371-0.286,0.628-0.543l0.857-0.887
	c-1.571,0.172-2.4,1.2-4.572,2.43c-1.515,0.857-1.286,0.515-2.771,1.601l-6.944,3.972c-0.629,0.314-0.715,0.172-1.315,0.4
	c-1.285,0.543-0.028,0.915-2.657,0.943c-1,1.601-1.314,1.2-4.201,2.486c-0.543,0.229-0.857,0.257-1.343,0.429
	c-0.715,0.257-0.601,0.285-1.086,0.571c-0.886,0.457-1.172,0.229-1.943,1.086c-0.058,0.058-0.114,0.143-0.144,0.2
	C180.104,258.005,180.075,258.091,180.018,258.148L180.018,258.148z"/>
<path fill-rule="evenodd" clip-rule="evenodd" fill="#DFDFDF" d="M22.755,59.385l0.571-0.143c0.314-0.457,0.4-0.486,0.714-0.886
	l5.287-7.316c0.571-0.572-0.343-0.143,0.571-0.372c0.257-0.886,1.601-2.229,2.229-2.858c0.543-0.543,2.029-2.286,2.257-2.858
	c0.171-0.829,2.286-2.829,2.972-3.543c0.714-0.715,0.429-0.086,1.115-1.286l-2.658,1.915c-0.143,0.171-0.314,0.543-0.458,0.743
	c-0.829,1.171-0.657-0.143-2.372,3.029c-0.371,0.714,0.057-0.029-0.486,0.657l-0.8,0.886c-0.057,0.057-0.114,0.086-0.143,0.115
	c-0.6,0.543-1.229,1.086-1.314,1.686c-1.058,0.229-0.429,0.028-1.4-0.029c0.372,0.543,0.429,0.572,0.257,1.229h-0.458
	c-0.486-0.114-0.286-0.257-0.686-0.4c-0.143,1.857,0.628,0.4-0.629,2.458c-0.486,0.8-0.171,0.4-0.686,1.029
	c-0.743,0.886-0.429,1.343-0.657,0.886c0-0.028-0.057,0.143-0.085,0.2c-0.057-0.057-0.143-0.114-0.171-0.143
	c-0.029-0.029-0.115-0.086-0.143-0.115l-0.657-0.486c-0.6,0.943,0.514,0.601,0.314,1.572c-0.486,0.714-0.543,0.514-0.829,0.971
	c-0.429,0.658-0.114,0.314-0.429,1.086C23.326,59.013,23.041,57.384,22.755,59.385L22.755,59.385z"/>
<path fill-rule="evenodd" clip-rule="evenodd" fill="#AFB1B1" d="M236.43,48.782c1.687,0.257,0.029-0.171,1.286,1.4
	c0.429,0.543,0.771,0.829,1.2,1.429c0.543,0.743,1.887,1.601,2.344,3.258c0.314,0.058,0.343-0.143,0.943,0.743
	c0.257,0.4,0.485,0.771,0.771,1.172l4.315,6.259c0.514,0.886-0.058,0.229,0.543,0.714c-0.258-2.086-0.258-1.229-1.658-3.629
	c-0.628-1.086-1.057-1.229-1.629-2l-1.629-2.258c-2.2-3-0.771-2.086-1.829-3.029l-1.2-1.2c-0.229-0.229-0.057,0-0.343-0.429
	c-1.172-1.629-1.515-1.658-1.914-2.172c-0.029-0.057-0.086-0.115-0.115-0.172c-0.686-1.057,0.115-0.514-1.086-1.257
	c-1.143-0.714-0.428-0.143-1.143-1.314c-0.543-0.886-4.315-4.544-4.944-4.887l1.258,2.029c0.629,0.572,1.086,1,1.771,1.629
	l1.658,1.743C235.772,47.639,236.259,47.954,236.43,48.782L236.43,48.782z"/>
<path fill-rule="evenodd" clip-rule="evenodd" fill="#6C6B6B" d="M29.127,217.48l1.229,1.315c0.343,0.428,0.2,0.313,0.571,0.657
	c0.058,0.057,0.229,0.171,0.257,0.229c0.057,0.028,0.114,0.086,0.143,0.114l0.286,0.2c0-1.115-0.771-1.172-1.543-2.372
	c-0.029-0.058-0.086-0.114-0.114-0.144c-1.201-2.058-4.744-6.087-6.001-7.973l-5.03-8.031c-0.6-0.942-1.2-2.058-1.829-3.258
	c-0.314-0.629-0.514-1.2-0.886-1.771c-0.086-0.172-0.343-0.571-0.457-0.743c-0.486-0.743-0.115-0.486-0.772-0.743
	c0.057,0.771,0.229,1.314,0.572,1.857c0.486,0.801,0.286,0.286,0.771,1.429c0.657,1.515,1.8,3.087,2.629,4.373l9.974,14.661
	c0.028,0.028,0.085,0.143,0.114,0.114C29.042,217.338,29.099,217.452,29.127,217.48L29.127,217.48z"/>
<path fill-rule="evenodd" clip-rule="evenodd" fill="#DFDFDF" d="M39.187,39.323l1-0.057l1.058-1.029l0.085-0.8
	c1.743-0.543,0.686-1.458,2.258-1.314c1-0.4,1.915-1.915,2.829-2.287c0.458-1.114,0.857-1.143,1.743-1.915l5.001-4.258
	c0.314-0.343,0.057-0.028,0.371-0.486c-1.458-0.057-2,1.143-4.315,2.887c-0.743,0.6-1.314,1.057-2,1.629
	c-1.829,1.6-1.543,0.628-2.172,1.2c-0.686,0.686,1.171,0.229-3,3.086c-1.343,0.943-1.029,1.372-2.144,2.429
	C39.187,39.065,39.644,37.951,39.187,39.323L39.187,39.323z"/>
<path fill-rule="evenodd" clip-rule="evenodd" fill="#6C6B6B" d="M155.326,267.379c1.915,0,1.486-0.372,2.944-0.601
	c3-0.485,5.258-0.6,8.602-1.686c0.943-0.343,1.886-0.314,2.915-0.543l3.687-1.344c1.543-0.857,2-0.085,3.286-1.086
	c0.343-0.257,0.143-0.057,0.343-0.371c-0.972-0.4-4.4,1.086-5.286,1.372l-8.116,2.114c-1.001,0.2-2.087,0.2-3.058,0.486
	C158.013,266.521,155.755,266.15,155.326,267.379L155.326,267.379z"/>
<path fill-rule="evenodd" clip-rule="evenodd" fill="#AFB1B1" d="M223.57,231.027c0.714-0.144,0.914-0.4,1.457-0.972l5.916-6.173
	c0.543-0.543,0.771-0.629,1.286-1.144c0.628-0.571,0.628-0.914,1.086-1.4c0.257-0.629-0.029-0.143,0.399-0.743l1.029-1.143
	c0.515-0.629,0.886-0.943,1.372-1.801c-1.144,0.172-1.486,0.829-2.058,1.601l-9.26,9.888
	C223.17,230.799,223.57,230.084,223.57,231.027L223.57,231.027z"/>
<path fill-rule="evenodd" clip-rule="evenodd" fill="#DFDFDF" d="M225.542,37.465c0.515,0.458,0.771,0.629,1.229,1.144
	c0.515,0.543,0.887,0.915,1.4,1.314c0.601,0.257,0.172,0.028,0.601,0.286c0.229,0.171,0.314,0.257,0.515,0.486
	c0.742,0.743-0.058,0.4,1.057,0.715v-0.857c-0.686-0.343-1.943-1.687-2.515-2.258c-0.714-0.686-0.429-0.8-1.028-1.4l-3.973-3.315
	c-0.829-0.857-0.172-0.743-1.2-1.172c-1.172-0.543-0.743,0.114-1.229-1.172l-0.972,0.029l0.257,0.343
	c0.028,0.057,0.172,0.257,0.229,0.314C221.026,33.292,225.37,36.008,225.542,37.465L225.542,37.465z"/>
<path fill-rule="evenodd" clip-rule="evenodd" fill="#AFB1B1" d="M77.767,253.29c0.829,0.057,3.315,1.028,4.03,1.429
	c0.571,0.314,1.114,0.629,1.771,0.914l1.829,1.029c1.115,0.2,0.8,0.457,2.201,0.571c-0.372-0.8-0.029-0.343-0.572-0.743
	c-0.886-0.686-1.257,0.229-2.086-1.314c-0.286,0-0.772,0-1-0.058l-6.516-2.972c-0.943-0.4-0.514-0.4-1.429-0.771
	c-1.172-0.457-2.258-1.172-3.43-1.229c0.686,0.973,1.201,0.943,2.572,1.801C75.624,252.261,77.081,253.146,77.767,253.29
	L77.767,253.29z"/>
<path fill-rule="evenodd" clip-rule="evenodd" fill="#AFB1B1" d="M67.936,21.204l-0.714,0.514c-2.258,1.658-4.973,2.801-7.288,4.544
	c-2.343,1.715-2.886,1.601-3.172,2.629c1.372-0.486,2.886-1.829,4.058-2.687c0.628-0.457,0.686-0.286,1.143-0.6
	c0.4-0.229,0.229-0.314,0.972-0.714l1.057-0.629c0.915-0.628,1.029-0.372,3.144-1.915c0.743-0.543,0.515-0.286,1.258-0.486
	c1.114-0.343,0.2-0.2,2.057-1.286c1.201-0.714,2.458-1.4,3.115-2.286c-1.515,0.143-2,0.771-3.029,1.372
	C69.822,20.089,68.708,21.004,67.936,21.204L67.936,21.204z"/>
<path fill-rule="evenodd" clip-rule="evenodd" fill="#6C6B6B" d="M200.107,18.746l-6.001-3.601
	c-0.857-0.172-0.543-0.229-1.143-0.572c-0.4-0.2-1.001-0.4-1.43-0.572c-1.171-0.429-1.257-0.628-2.286-1.257
	c-1-0.657-4.344-2.258-5.4-2.115c0.085,0.143-0.058,0.229,0.742,0.714c0.286,0.2,0.629,0.343,0.972,0.515l10.316,4.858
	C197.107,17.26,199.193,18.518,200.107,18.746L200.107,18.746z"/>
<path fill-rule="evenodd" clip-rule="evenodd" fill="#AFB1B1" d="M177.103,261.749c1.658,0.457,2.829-0.571,3.63-0.857
	c0.714-0.286,1.058-0.114,1.914-0.571c0.887-0.515,0.344-0.429,1.715-0.629c1.687-0.229,2.858-1.601,4.602-2.029
	c1.143-0.286,0.972-0.114,1.257-1.2c-1.371,0.257-2.314,0.829-3.372,1.457c-1.058,0.601-8.401,2.944-9.23,3.401
	C177.132,261.577,177.246,261.606,177.103,261.749L177.103,261.749z"/>
<path fill-rule="evenodd" clip-rule="evenodd" fill="#6C6B6B" d="M87.826,11.802c3-0.029,3.229-1.029,6.087-1.915
	C96.542,9.058,95.228,9.144,98,8.515c0.371-0.086,0.543-0.114,0.943-0.286c0.6-0.286,0.6-0.429,0.886-0.515
	c1.029-0.286,2.172,0,3.544-0.629l1.029-0.714c-0.629-0.057-5.602,1.058-6.659,1.572l-9.631,3.401
	C87.512,11.859,87.94,11.03,87.826,11.802L87.826,11.802z"/>
<path fill-rule="evenodd" clip-rule="evenodd" fill="#AFB1B1" d="M74.852,17.689c1.572-0.029,0.915-0.057,1.8-0.6l6.23-2.944
	c0.857-0.572,1.029-0.314,2-0.514c0.686-0.143,0.857-0.515,1.543-0.772c0.286-0.085,0.714-0.114,0.943-0.257
	c1-0.6,0.514,0.2,0.457-0.8c-1,0.028-0.686,0.2-1.686,0.457c-1.086,0.314-0.886,0.286-1.715,0.686c-0.6,0.314-1.114,0.286-1.8,0.486
	l-7.116,3.458C74.68,17.489,75.166,17.146,74.852,17.689L74.852,17.689z"/>
<path fill-rule="evenodd" clip-rule="evenodd" fill="#6C6B6B" d="M225.542,37.465c-0.172-1.457-4.516-4.172-5.63-5.544
	c-0.057-0.057-0.2-0.257-0.229-0.314l-0.257-0.343l-0.2,0.143c-0.086-0.028-0.172-0.085-0.2-0.114l-0.571-0.314
	c0,0-0.486-0.314-0.572-0.4c-0.571-0.372-0.514-0.314-1-0.714l-4.087-3.201c-1.314-0.772-0.886-1.029-2.257-1.315l5.601,4.487
	c3.229,2.258,2.372,1.858,4.573,3.687l2.743,2.343C224.885,37.008,223.599,36.722,225.542,37.465L225.542,37.465z"/>
<path fill-rule="evenodd" clip-rule="evenodd" fill="#AFB1B1" d="M72.337,250.175c-0.343-0.886,0.229-0.114-0.429-0.829
	l-8.945-5.373c-1.229-0.543-0.6-0.742-1.657-0.686c0.372,1.258,0.6,0.571,2.4,1.943c0.886,0.657,1.772,1.172,2.601,1.743
	C67.079,247.545,71.565,250.061,72.337,250.175L72.337,250.175z"/>
<path fill-rule="evenodd" clip-rule="evenodd" fill="#DFDFDF" d="M228.143,43.952c-0.314-1.229-2.115-2.686-3.115-3.572
	c-1.143-0.972-5.401-5.087-6.287-5.458c0.343,0.686,0.029,0.057,0.4,0.629c1.058,1.658,0.914,1.2,2.601,3.001
	c1.314,1.4,1.372,1.114,2.486,2.115c0.743,0.628,0.972,0.343,1.4,0.972c0.399,0.628,0.457,1.458,1.657,2.029L228.143,43.952z"/>
<path fill-rule="evenodd" clip-rule="evenodd" fill="#AFB1B1" d="M24.927,206.479c-0.171-1.2-0.372-1.286-0.829-1.943
	c-0.829-1.229-0.857-0.887-1.171-1.458c-0.572-1.143-0.2-0.972-1.429-2.715l-1.543-2.601c-1.086-2.029-0.714-0.629-1.114-1.857
	c-0.686-2.144,0.485,0.229-1.315-2.687l-0.886-0.829C17.125,194.704,23.784,205.421,24.927,206.479L24.927,206.479z"/>
<path fill-rule="evenodd" clip-rule="evenodd" fill="#6C6B6B" d="M183.848,10.63l-0.515-0.486c-1.086-0.286-1.915-0.886-3.029-1.286
	c-1.058-0.4-2.2-0.486-3.115-0.972c-1.429-0.771-4.973-1.629-6.716-1.8c0.343,0.629,0.028,0.286,0.829,0.572
	c0.2,0.085,0.629,0.057,0.972,0.171c0.686,0.171,0.828,0.372,1.601,0.6C175.702,7.915,182.762,10.83,183.848,10.63L183.848,10.63z"
	/>
<path fill-rule="evenodd" clip-rule="evenodd" fill="#6C6B6B" d="M261.064,178.5l2.314-6.974c0.343-1.972,0.914-1.943,1.286-4.858
	c0.171-1.257,0.371-1.257,0.657-2.314c0.229-0.715,0.972-4.344,0.972-4.973c-0.4,0.314-0.143-0.028-0.457,0.4
	c-0.372,0.485-0.114,0.028-0.258,0.457c0,0.057-1.172,6.688-1.857,8.545l-1.4,4.658C261.922,175.442,261.692,174.099,261.064,178.5
	L261.064,178.5z"/>
<path fill-rule="evenodd" clip-rule="evenodd" fill="#6C6B6B" d="M21.04,62.528c-0.4,0.686-1.286,1.715-1.6,2.372
	c-0.429,0.915-0.229,0.629-0.772,1.4c-0.343,0.457-0.4,0.572-0.514,1.229c-0.543,2.058-2.429,3.687-2.915,5.773
	c0.057-0.029,0.171-0.2,0.2-0.143c0.028,0.057,0.143-0.086,0.171-0.143c0.314-0.314,0.086,0,0.4-0.457
	c0.114-0.143,0.372-0.572,0.429-0.715c1.058-2.2,1.257-2.058,2.229-4.315c0.458-1.115,2.115-3.315,2.687-4.087
	c0.457-0.657,1.8-2.687,1.943-3.429l-0.6,0.343C22.098,60.957,22.098,61.814,21.04,62.528L21.04,62.528z"/>
<path fill-rule="evenodd" clip-rule="evenodd" fill="#AFB1B1" d="M85.74,259.463c-0.371-0.572,0.029-0.172-0.571-0.629l-2.429-1.144
	c-0.372-0.171-0.657-0.2-1.143-0.343l-4.144-1.915c-1.858-0.771-7.288-3.887-8.259-3.915c0.486,1.229,0.543,0.687,1.829,1.429
	L85.74,259.463z"/>
<path fill-rule="evenodd" clip-rule="evenodd" fill="#6C6B6B" d="M236.43,48.782c-0.171-0.829-0.657-1.143-1.399-1.972l-1.658-1.743
	c-0.686-0.628-1.143-1.057-1.771-1.629l-1.258-2.029c-1.114-0.314-0.314,0.028-1.057-0.715c-0.2-0.229-0.286-0.314-0.515-0.486
	c-0.429-0.257,0-0.028-0.601-0.286c0.172,1,0.572,1.343,1.829,2.458c0.972,0.829,1.314,1.343,2.2,2.172
	C233.258,45.61,235.944,48.582,236.43,48.782L236.43,48.782z"/>
<path fill-rule="evenodd" clip-rule="evenodd" fill="#6C6B6B" d="M261.264,169.098v1.086l0.258-0.4
	c0.143-0.285,0.143-0.314,0.257-0.6c0.144-0.4,0.172-0.543,0.343-1.001c0.344-0.942,0.286-1.343,0.458-2.4
	c0.257-1.515,1.285-3.314,0.942-4.887c-0.942,0.743-1.057,2.829-1.314,4.029C261.95,166.011,261.35,166.697,261.264,169.098
	L261.264,169.098z"/>
<path fill-rule="evenodd" clip-rule="evenodd" fill="#AFB1B1" d="M170.102,261.32l5.058-1.258c1.572-0.857,3.287-0.657,4.315-1.972
	c-1.086,0-1.914,0.2-2.743,0.629c-0.743,0.343-1.687,0.4-2.229,0.714c-2.058,1.201-2.457,0.344-3.915,1.372L170.102,261.32z"/>
<path fill-rule="evenodd" clip-rule="evenodd" fill="#AFB1B1" d="M208.738,246.23l-5.315,2.887c-2,1.058-1.429,0.629-1.543,1.343
	c1.2,0.086,0.8-0.171,1.515-0.571c0.571-0.314,1.086-0.314,1.715-0.543l7.487-5.802l-3.229,2.372
	C208.824,246.26,209.796,245.831,208.738,246.23L208.738,246.23z"/>
<path fill-rule="evenodd" clip-rule="evenodd" fill="#6C6B6B" d="M23.326,59.242l-0.028,0.772l0.915-1
	c0.286-0.343,0.514-0.829,0.743-1.2l4.258-5.687c0.571-0.629,0.657-0.429,0.686-1.458c-0.914,0.229,0-0.2-0.571,0.372l-5.287,7.316
	C23.727,58.756,23.641,58.785,23.326,59.242L23.326,59.242z"/>
<path fill-rule="evenodd" clip-rule="evenodd" fill="#6C6B6B" d="M191.963,255.776c0.943-0.144,1.515-0.286,2.144-0.715
	c0.601-0.429,1.029-0.629,1.657-1.029c1.258-0.8,0.114,0.314,2.715-1.371l0.743-0.715c-1.114,0.028-4.458,1.857-5.63,2.515
	C191.506,255.576,191.906,254.719,191.963,255.776L191.963,255.776z"/>
<path fill-rule="evenodd" clip-rule="evenodd" fill="#AFB1B1" d="M38.473,40.123c-0.686,1.2-0.4,0.571-1.115,1.286
	c-0.686,0.714-2.801,2.715-2.972,3.543h0.458c1.4-1.601,4.287-4.058,5.344-5.687l-1,0.057
	C38.958,39.637,38.787,39.923,38.473,40.123L38.473,40.123z"/>
<path fill-rule="evenodd" clip-rule="evenodd" fill="#6C6B6B" d="M238.288,218.881c1.457-0.6,4.772-4.829,5.001-6.373
	c-0.915,0.543-2.258,2.744-3.772,4.487c-0.286,0.343-0.4,0.485-0.629,0.771C238.23,218.566,238.487,217.681,238.288,218.881
	L238.288,218.881z"/>
<path fill-rule="evenodd" clip-rule="evenodd" fill="#6C6B6B" d="M46.846,232.484c-0.543-0.943-1.372-1.543-2.172-2.344
	c-0.457-0.399-0.629-0.628-1.143-1.057c-1.943-1.601-1.429-1.544-3.401-3.115c-0.915-0.686-1.086-1.629-2.372-2.172
	c0.772,1.371,2.801,2.886,4.401,4.516c0.829,0.856,1.429,1.6,2.143,2.2C45.445,231.513,46.045,232.228,46.846,232.484
	L46.846,232.484z"/>
<path fill-rule="evenodd" clip-rule="evenodd" fill="#AFB1B1" d="M234.43,223.282c-0.2,0.743-1.457,2.2-2.029,2.801l-2.172,2.372
	l4.259-4.173c1.2-1.457,0.742-1.343,2.343-2.801c1.372-1.257,1.344-1.229,1.372-2.172c-0.715,0.343-0.114-0.114-0.743,0.458
	l-1.258,1.629C235.858,221.825,234.772,223.082,234.43,223.282L234.43,223.282z"/>
<path fill-rule="evenodd" clip-rule="evenodd" fill="#6C6B6B" d="M37.501,226.483c-0.657-1.058-2.058-2.372-2.972-3.401
	c-0.743-0.829-1.829-2.657-2.915-3.086c0.086,0.857,0.458,0.942,1.086,1.771l3.572,3.915
	C36.958,226.483,36.386,226.197,37.501,226.483L37.501,226.483z"/>
<path fill-rule="evenodd" clip-rule="evenodd" fill="#6C6B6B" d="M29.899,50.668c0.943,0.171,1.172-1.086,2.658-2.458
	c0.686-0.628,2.058-2.4,2.287-3.258h-0.458c-0.229,0.572-1.714,2.315-2.257,2.858C31.5,48.439,30.156,49.782,29.899,50.668
	L29.899,50.668z"/>
<path fill-rule="evenodd" clip-rule="evenodd" fill="#6C6B6B" d="M241.26,54.869c-0.457-1.657-1.801-2.515-2.344-3.258
	c-0.429-0.6-0.771-0.886-1.2-1.429c-1.257-1.572,0.4-1.143-1.286-1.4c0.115,0.6,0.601,1.286,1.001,1.686l2.972,3.772
	C241.088,55.212,240.603,54.669,241.26,54.869L241.26,54.869z"/>
<path fill-rule="evenodd" clip-rule="evenodd" fill="#6C6B6B" d="M85.397,256.662l-1.829-1.029c-0.657-0.285-1.2-0.6-1.771-0.914
	c-0.714-0.4-3.201-1.372-4.03-1.429c0.543,0.657,0.543,0.828,1.601,1.086C82.511,255.118,82.911,256.319,85.397,256.662
	L85.397,256.662z"/>
<path fill-rule="evenodd" clip-rule="evenodd" fill="#6C6B6B" d="M236.116,217.652c-0.486,0.857-0.857,1.172-1.372,1.801
	l-1.029,1.143c-0.429,0.601-0.143,0.114-0.399,0.743c0.942-0.371,2.058-1.972,3.2-3.315c1.086-1.314,0.4,0.829,0.657-1
	c0.229-1.743,0.258,1.286-0.057-0.515c-0.314,0.144-0.2,0-0.515,0.229c-0.914,0.687,0.543-0.686-0.257,0.229
	C236.059,217.31,236.145,217.366,236.116,217.652L236.116,217.652z"/>
<path fill-rule="evenodd" clip-rule="evenodd" fill="#6C6B6B" d="M248.09,200.677c0.886-0.143,1.086-1.058,1.4-1.771
	c0.6-1.286,0.943-0.801,1.028-2.401l-0.514,0.486C249.318,197.79,248.262,199.647,248.09,200.677L248.09,200.677z"/>
<path fill-rule="evenodd" clip-rule="evenodd" fill="#6C6B6B" d="M47.674,236.171c-0.429-0.972,0.629,0.086-1.257-1.229
	c-0.514-0.372-0.372-0.314-0.743-0.686c-0.657-0.629-1-1.144-1.857-1.315l0.743,0.972C45.388,234.742,46.503,235.914,47.674,236.171
	L47.674,236.171z"/>
<path fill-rule="evenodd" clip-rule="evenodd" fill="#AFB1B1" d="M21.04,62.528c1.058-0.714,1.058-1.572,1.658-2.172l0.6-0.343
	l0.028-0.772l-0.571,0.143C21.926,60.213,21.383,60.928,21.04,62.528L21.04,62.528z"/>
<path fill-rule="evenodd" clip-rule="evenodd" fill="#AFB1B1" d="M199.365,252.089c0.6-0.114,0.972-0.257,1.6-0.543
	c0.629-0.285,1.029-0.457,0.915-1.086c-0.943,0-0.601,0-1.429,0.515c-0.029,0-0.601,0.343-0.601,0.343
	C199.394,251.746,199.622,251.375,199.365,252.089L199.365,252.089z"/>
<path fill-rule="evenodd" clip-rule="evenodd" fill="#AFB1B1" d="M42.302,231.427c-0.229-0.343-0.085-0.199-0.343-0.485
	c-0.143-0.143-0.314-0.257-0.515-0.486c-0.6-0.628-0.286-0.6-1.143-0.972c0,1.372,0.572,1.201,1.086,2.029L42.302,231.427z"/>
<path fill-rule="evenodd" clip-rule="evenodd" fill="#AFB1B1" d="M41.245,38.237c1.086-0.486,1.743-1.086,2.343-2.115
	c-1.572-0.143-0.515,0.771-2.258,1.314L41.245,38.237z"/>
<path fill-rule="evenodd" clip-rule="evenodd" fill="#6C6B6B" d="M245.375,205.163c0.771-0.229-0.058,0.258,0.515-0.199
	c0.229-0.2,0.114-0.058,0.343-0.4c0.429-0.657,0.314-0.601,0.371-1.314c-0.6,0.343-0.171,0-0.571,0.371
	c-0.058,0.058-0.371,0.4-0.371,0.4C245.203,204.678,245.347,204.678,245.375,205.163L245.375,205.163z"/>
</svg>
