<?xml version="1.0" encoding="utf-8"?>
<!-- Generator: Adobe Illustrator 15.0.0, SVG Export Plug-In  -->
<!DOCTYPE svg PUBLIC "-//W3C//DTD SVG 1.1//EN" "http://www.w3.org/Graphics/SVG/1.1/DTD/svg11.dtd" [
	<!ENTITY ns_flows "http://ns.adobe.com/Flows/1.0/">
]>
<svg version="1.1"
	 xmlns="http://www.w3.org/2000/svg" xmlns:xlink="http://www.w3.org/1999/xlink" xmlns:a="http://ns.adobe.com/AdobeSVGViewerExtensions/3.0/"
	 x="0px" y="0px" width="258px" height="98px" viewBox="0 0 258 98" enable-background="new 0 0 258 98" xml:space="preserve">
<defs>
</defs>
<path fill-rule="evenodd" clip-rule="evenodd" fill="#D8D9D9" d="M235.962,23.286C216.3-0.348,90.016-0.634,52.492,5.824
	c-84.475,14.576-48.096,29.865,2.4,37.238c38.409,5.573,92.249,5.201,130.829,0.229c11.146-1.429,31.922-5.201,42.209-10.174
	C234.39,30.031,235.818,27.859,235.962,23.286L235.962,23.286z"/>
<path fill-rule="evenodd" clip-rule="evenodd" fill="#00A3D3" d="M225.788,49.493c-26.406,7.315-19.404,6.315-48.754,10.345
	c-35.322,4.858-106.48,3.772-141.288-4.516l-23.634-6.858c6.544,10.574,29.206,22.405,43.866,27.035
	c38.409,12.089,87.248,13.689,125.229,0.629C199.696,69.783,217.243,61.209,225.788,49.493L225.788,49.493z"/>
<path fill-rule="evenodd" clip-rule="evenodd" fill="#00A3D3" d="M235.161,31.602c-4.315,2.058-6.029,3.772-10.488,5.315
	c-2.028,0.715-4.372,1.258-6.087,1.857c-12.488,4.287-21.805,5.373-35.465,7.26c-20.176,2.771-43.009,3.486-63.871,3.314
	c-28.749-0.229-62.928-1.943-90.705-8.945c-14.031-3.543-13.003-3.686-25.749-9.659c2.515,13.146,7.087,14.747,18.776,18.604
	C66.268,64.153,174.605,64.353,217.5,49.95c2.772-0.943,11.174-4.573,12.46-5.688C232.275,42.205,234.676,35.46,235.161,31.602
	L235.161,31.602z"/>
<path fill-rule="evenodd" clip-rule="evenodd" fill="#2E2E2E" d="M63.952,80.643c7.773,0.743,16.918,3.601,25.319,4.715
	c34.294,4.516,51.354,1.544,84.076-4.201c-0.171,6.717-1.886,6.373-7.773,8.546c-20.833,7.658-56.983,6.858-78.703,3.4
	C80.041,92.017,63.838,89.302,63.952,80.643L63.952,80.643z M225.788,49.493c-8.545,11.717-26.092,20.29-44.581,26.635
	c-37.98,13.061-86.819,11.46-125.229-0.629c-14.66-4.63-37.322-16.461-43.866-27.035l23.634,6.858
	c34.808,8.288,105.966,9.374,141.288,4.516C206.384,55.808,199.382,56.808,225.788,49.493L225.788,49.493z M235.161,31.602
	c-0.485,3.858-2.886,10.603-5.201,12.66c-1.286,1.114-9.688,4.744-12.46,5.688C174.605,64.353,66.268,64.153,21.572,49.349
	C9.883,45.492,5.311,43.891,2.796,30.745c12.746,5.974,11.718,6.116,25.749,9.659c27.777,7.002,61.956,8.717,90.705,8.945
	c20.862,0.172,43.695-0.543,63.871-3.314c13.66-1.887,22.977-2.973,35.465-7.26c1.715-0.6,4.059-1.143,6.087-1.857
	C229.132,35.375,230.846,33.66,235.161,31.602L235.161,31.602z M235.962,23.286c-0.144,4.573-1.572,6.745-8.031,9.831
	c-10.287,4.973-31.063,8.745-42.209,10.174c-38.58,4.973-92.42,5.345-130.829-0.229C4.396,35.689-31.982,20.4,52.492,5.824
	C90.016-0.634,216.3-0.348,235.962,23.286L235.962,23.286z M175.72,79.872c24.233-5.659,61.585-24.206,62.557-52.585
	c0.2-5.801-1.743-7.688-5.916-10.23C195.467-5.522,38.918-5.607,5.426,16.341c-4.773,3.144-5.859,5.315-5.287,12.003
	c2.943,35.895,58.326,48.983,61.213,51.413l8.031,10.603c5.457,4.286,37.321,7.401,45.838,7.401
	c20.604-0.028,46.953-0.343,60.156-11.06L175.72,79.872z"/>
<path fill-rule="evenodd" clip-rule="evenodd" fill="#8773B4" d="M89.271,85.358c-8.401-1.114-17.546-3.972-25.319-4.715
	c-0.114,8.659,16.089,11.374,22.919,12.46c21.72,3.458,57.87,4.258,78.703-3.4c5.888-2.173,7.603-1.829,7.773-8.546
	C140.626,86.902,123.565,89.874,89.271,85.358L89.271,85.358z"/>
</svg>
