<?xml version="1.0" encoding="utf-8"?>
<!-- Generator: Adobe Illustrator 15.0.0, SVG Export Plug-In  -->
<!DOCTYPE svg PUBLIC "-//W3C//DTD SVG 1.1//EN" "http://www.w3.org/Graphics/SVG/1.1/DTD/svg11.dtd" [
	<!ENTITY ns_flows "http://ns.adobe.com/Flows/1.0/">
]>
<svg version="1.1"
	 xmlns="http://www.w3.org/2000/svg" xmlns:xlink="http://www.w3.org/1999/xlink" xmlns:a="http://ns.adobe.com/AdobeSVGViewerExtensions/3.0/"
	 x="0px" y="0px" width="351px" height="541px" viewBox="0 0 351 541" enable-background="new 0 0 351 541" xml:space="preserve">
<defs>
</defs>
<path fill-rule="evenodd" clip-rule="evenodd" fill="#783695" d="M302.956,89.63c0.115,0.629,1.344,2.2,1.857,3.086l2.516,3.801
	c1.029,0.486,1.486,1.887,2.229,2.658c1.258,1.343,0.658,1.829,1.457,3.086c0.658,1,0.373,0.029,0.658,1.744
	c0.314,1.629,1.199,2.314,1.771,3.771c0.744,1.887,0.857,1.144,1.029,2.287c0.113,0.714,0.027,1.172,0.258,1.943
	c0.428,1.571,0.771,0.514,0.971,3.601c0.172,2.857,0.914,4.058,1.086,8.03c0.143,3.086,0.029,6.059-0.086,9.174
	c-0.113,3.229-0.514,1.829-0.971,3.516l-1.916,4.715c0,0.057-0.027,0.143-0.057,0.2c-0.4,1.2-0.543,0.8-1.143,1.715
	c-0.686,1.114-1,1.058-1.801,1.8c-0.514,0.486-0.457,0.943-1.029,1.344c-0.457,0.285-1.086,0.285-1.629,0.514
	c-1.229,0.543,0-0.027-0.742,0.543c-0.629,0.486-1.543,0.372-2.486,0.572c-1.715,0.343-1.229,0.715-3.887,0.686
	c-2.143,0-2.314-0.371-3.887-0.686c-3.115-0.629-3.516-1.572-4.658-2c-0.658-0.258-0.943-0.144-1.658-0.516
	c-1.943-1.057-3.344-2.229-4.857-3.629l-1.285-1.086c-0.059-0.028-0.115-0.086-0.145-0.114c-1.629-1.058-2.828-2.372-3.771-3.058
	c-1.172-0.857-0.314-0.258-1.029-1.372c-0.484-0.714-1.285-0.829-1.656-1.657c-0.115-0.2-0.115-0.344-0.229-0.543l-1.43-2.001
	c-0.057-0.058-0.199-0.2-0.229-0.257l-2.887-3.887c-0.857-0.972-0.172-1.229-1.057-2.344l-1.543-2.801
	c-0.201-0.457-0.115-0.4-0.373-0.828l-0.857-1.372c-1-1.314-0.457-1.801-1.229-2.887c-0.027-0.028-0.086-0.085-0.113-0.114
	l-0.344-0.715c-0.113-0.686-0.057-1.428-0.4-2.057c-0.713,0.314-0.256,0.028-0.771,0.571c-0.172,0.171-0.285,0.543,0,0.114
	c-0.656-0.6-0.027-1.801-0.027-2.486c-0.029-1.857-0.516-0.344-0.83-2.4c-0.314-2.029-0.6-1.201-0.828-2.258
	c-0.143-0.629-0.086-2.144-0.199-3.001c-0.115-1.028-0.029-2.144-0.172-3.001c-0.172-1.429-0.6-0.8-0.715-2.371
	c-0.658-9.174,0.4-5.945,0.801-11.117c0.256-3.459-0.4-2.458,0.885-4.573l2.4-3.887c1.43-2.314,2.459-3.001,4.83-4.286l5.145-1.229
	c4.629-0.543,8.145,1.486,12.145,2.973l1.973,1.144c0.715,0.371-0.057-0.029,0.572,0.371c0.627,0.4,1.113,0.485,1.629,1.028
	c0.027,0.028,0.057,0.086,0.113,0.144l2.857,2.486C298.327,83.457,302.585,88.316,302.956,89.63L302.956,89.63z M129.119,8.781
	l-4.945,1.515c-1.971,0.286-0.941,0.658-2.428,0.943c-1.457,0.257-2.602,0.543-3.887,1.257c-0.629,0.343-0.314,0.372-1,0.629
	c-0.371,0.143-0.83,0.114-1.4,0.286c-1.143,0.372-0.229,0.171-1.059,0.686c-0.828,0.514-1.713,0-2.828,0.6
	c-0.914,0.486-0.914,0.8-2.373,0.628c-0.514,0.8-0.484,0.772-1.686,1.144l-6.258,2.915c-1.801,0.914,0.914,0.2-2.43,1.171
	c-0.943,0.257-2.486,1.4-3.314,1.744c-3.545,1.4-2.887,1.714-6.744,3.486c-1.943,0.886-4.83,3.515-6.488,3.887l0.201-0.086
	c-0.314,1.429-0.715,0.458-3.459,2.658l-3.199,2.372c-1.059,0.8-2.115,1.515-3.287,2.287c-2.801,1.886-1.371,1.057-3.086,2.458
	c-3.172,2.601-6.174,4.745-9.117,7.802c-1.801,1.886-2.086,1.286-2.857,2.715l-0.744-0.028c-0.084,1.314-0.143,0.543-0.799,1.143
	l-3.23,2.857c-0.084,0.229-0.342,0.572-0.57,0.857c-0.115,0.115-0.229,0.229-0.314,0.344c-0.715,0.8,0.229-0.229-0.229,0.257
	c-0.371,1.715-1.457,1.544-3.316,4.229l-2.629,2.943c-0.342,0.43-0.484,0.515-0.799,0.887c-1.83,2.172-1.258,1.199-2.373,3.229
	c-0.543,0.973-0.113,0.058-0.799,0.887c-0.43,0.514-0.373,0.657-0.744,1.2l-0.199,0.286c-1.287,1.771-1.744,1.943-1.801,2
	l-0.514,0.371c0.371,1.058,0.057,0.172,0.484,0.857c-0.742-0.285-0.371-0.257-1.4-0.257c-0.113,1.314-0.229,1.229-0.857,1.886
	c-1.199,1.286-1.314,1.286-0.857,2.516c-0.686-0.286-0.314-0.229-1.285-0.344c-0.057,1.857-0.143,1.344-1.172,2.458
	c-0.714,0.772-0.657,1.687-2.086,1.829c-0.172,0.629-0.429,0.686-0.828,1.344c-0.201,0.285-0.258,0.428-0.457,0.771
	c-0.314,0.514-0.086,0.057-0.4,0.571c-0.086,1.915-0.887,2.715-1.83,4.144c-0.543,0.771-0.313,0.943-1,1.915l-1.028,1.687
	c-1.515,2.486-1.343,2.657-2.458,4.772l-0.629,0.886c-0.485,1,0,1.258,0.029,2.144c-0.743-0.543,0-0.286-1.172-0.458l-0.057,1.83
	c-1.629,0.885-0.201-0.115-1.801,2.886c-0.429,0.771-0.486,2.2-2.314,5.116l-2.801,6.63c-0.314,1.058-0.029,2.086-1.086,1.886
	c0.229,0.972-0.143,2.029-0.572,2.801c-0.571,1.058-0.314,1.515-0.771,2.543c-0.514,1.172-0.4,1.486-0.8,2.688
	c-0.485,1.429-0.829,0-0.943,2.543c-0.171,5.315-0.942,1.943-1.171,5.572c-0.115,2.258,0,1.115-0.715,2.602
	c-0.457,0.914-0.314,2.057-0.314,3.2c-0.2,1.001,0.429-1.144-0.6,0.743l-1.086,3.858c-0.115,0.914-0.115,2.343-0.286,3.114
	c-0.257,1.344-0.601,0.973-0.772,2.43c-0.171,1.715,0.058,4.944-0.256,6.402c-0.516,2.229-0.715-1.115-0.857,5.715l-0.229,16.204
	c-0.028,1.114-0.457,1.743-0.229,2.944c0.171,1.113,0.286,0.543,0.485,1.143l-0.085,4.4c-0.028,3.602-0.257,6.517,0.657,9.375
	c0.657,1.914,0.057,6.544,0.943,8.944c0.257,0.743,0.028-0.114,0.229,0.771l0.343,1.943c0.457,4.83,0.515,1.601,0.886,4.087
	c0.086,0.486,0.086,1,0.172,1.515c0.6,4.544,0.485,2.458,1,4.802c0.086,0.285,0.057,0.371,0.114,0.628l1.144,3.63
	c1.371,3.086,0.342,2.601,1,3.801c1.199,2.143,0.257,1.258,1.4,4.001c0.686,1.601-0.457-0.086,0.285,0.543
	c0,2.887,0.086,1.2,0.572,2.43c0.571,1.371-0.029-0.572,0.113,0.399c0.115,0.601,0.029,0.543-0.057,1.028
	c-0.057,1.315,0.914,2.115,1.4,3.572l2.715,7.488c0.2,0.486,1.029,1.457,1.686,3.086c1.201,2.916,1.857,3.744,3.258,6.717
	l0.943,1.686c1,2.086,1.344,2.086,1.857,2.943c0.344,0.572,0.829,2.229,1.744,3.373c1.943,2.486,1.057,1.514,2.543,4.229
	c0.543,0.973,0.629,0.83,1.086,1.572c1.515,2.516,1.657,2.086,2.058,2.744l2.4,3.916c0.115,0.199,0.373,0.543,0.516,0.713
	l5.686,7.174c0.4,0.344,0.43,0.344,0.602,1.086c0.857,0.371,0.457,0.143,1.143,0.771c0.887,0.83,1.229,1.715,2.287,2.773
	c1.143,1.17,1.799,2.457,2.943,3.572l4.285,4.201c1.801,1.686,2.459,3,3.945,4.285c0.514,0.486,1.086,1.029,1.799,1.572l2.801,2.314
	c0.059,0.059,0.115,0.086,0.172,0.115c0.029,0.027,0.086,0.057,0.143,0.086l1.83,1.971c0.885,1,1.199,1.029,1.943,1.688l9.258,7.459
	c0.543,0.4,1.486,0.971,1.943,1.229c1.486,0.857,2.4,1.914,3.859,2.857l3.914,2.629c2.4,1.771,6.344,3.629,8.373,4.945l8.287,4.771
	c0.029-0.027,0.086,0.143,0.115,0.229c0.057,0,2.43,0.83,2.744,1.059c2.543,1.656,11.26,5.172,14.031,5.771
	c2.201,0.457,3.172,1.688,5.801,2.145l6.373,1.686c3.029,1.086,3.715,1.029,6.115,1.828c0.486,0.172,6.201,1.086,8.373,1.773
	c2.688,0.828,2.43,0.342,5.029,0.799c1.659,0.287,1.802,0.373,3.716,0.43c1.371,0.057,1.973,0.4,3.373,0.457
	c1.857,0.057,2.256,0.113,3.686,0.457c2.914,0.744,22.291,0.514,27.063,0.344c4.488-0.172,5.488-0.688,7.26-0.771
	c1.629-0.086,6.344-0.115,7.373-0.629c1.457-0.715,1.686-0.43,3.4-0.686l5.086-0.943c0.115,0,0.744-0.115,0.83-0.115
	c1.6-0.428,0.342-0.629,2.172-0.715c4.857-0.229,2.6-0.629,5.145-0.971l15.518-4.373c0.742-0.342,0.57-0.428,1.4-0.742l9.943-3.859
	c0.744-0.229,1.059-0.17,1.715-0.484l6.631-3.287c1.629-0.943,3.172-1.43,5.229-2.715c0.459-0.287,2.145-1.172,2.572-1.373
	c1.314-0.57,1.086-0.371,1.916-1.143c1.885-1.715,3.229-1.656,5.229-3.744c0.686-0.686,2.773-1.428,4.945-3.029l4.629-3.371
	c2.973-1.744,4.4-3.688,5.572-4.344c0.857-0.457,9.26-7.117,9.402-8.145c0.543-2.23,1-0.145,1.143-2.115
	c1.229-0.086,0.43,0.172,1.887-1.229l1.486-1.459c1.4-1.342,0.914-1.258,2.143-1.457c0.973-0.428,1.029-0.742,1.744-1.658
	c0.514-0.629,1.027-1.027,1.686-1.715c0.371-0.398,2.943-3.4,3-3.486c0.115-1.229,0.572-1.686,1.172-2.258
	c1.43-1.457,0.4-0.199,1.229-2c0.314-0.686,0.744-0.342,1.516-1.572c0.4-0.629,0.572-1.57,1.086-2.029
	c0.656-0.656-0.115,0.115,0.771-0.342l1.344-1.172c0.57-1.115-0.344-0.4,0.941-1.715l2.973-3.602
	c0.344-0.686,0.115-0.686,0.486-1.258c0.143-0.229,0.629-0.6,0.914-0.941c0.658-0.857,0.201-0.059,0.543-1.201
	c0.543-1.742,0.115-0.285,0.887-1.285l0.172-0.314c0.027-0.059,0.057-0.143,0.084-0.201c0.83-1.885,0.344-0.143,1.115-1.486
	l0.629-1.027c1-1.145,0.199-1.344,1.771-1.857c0.543-0.943,1.43-1.4,1.914-2.945c0.373-1.199,0.115-0.685,0.857-1.571
	c0.459-0.515,0.744-0.743,0.771-1.372c0.059-1.828,1.516-2.771,2.287-5.858c0.229-0.972,0.199-0.399,0.686-1.114l1.973-3.83
	c1.543-3.115,0.486-2.172,2.029-4.43c0.027-0.028,0.057-0.086,0.086-0.143c0.313-0.571,0.113-0.801,0.656-1.6
	c0-0.029,0.057-0.086,0.086-0.115l0.199-0.285c0.201-0.314,0.43-0.973,0.602-1.344l3.057-8.573c1.059-2.029-0.057-1.372,0.914-2.943
	l2.688-9.031c0.457-3.115,0.199-1.286,0.801-3.058c0.313-0.943,0.398-1.972,0.713-2.944c0.43-1.343,0.43-1.857,0.43-3.543
	c0-2.115,0.715-0.601,1-2.687c0.199-1.257,0.057-2.572,0.172-3.829c0.113-1.258,0.715-1.687,0.828-2.887
	c0.258-2.658,0.543-4.459,0.887-6.773c0.371-2.344-0.145-4.744,0.57-7.059c0.887-2.943,0.287-11.117,0.371-14.975l-0.914-14.204
	c-0.4-0.8-1.629-0.485-1.086-1.972l0.143-0.344c0.459-1.285,0.145-3.143,0.059-4.543c-0.115-2.087-0.373-1.058-0.771-2.087
	c-0.516-1.286,0.371-1.687-0.744-5.058c-0.486-1.516-0.172-3.716-0.885-4.944c-0.43-0.687-1.115-0.915-1.059-1.63
	c0.086-0.856,0.771-0.543,0.229-2.371c-0.256-0.771-0.484-1.372-0.686-2.172c-0.057-0.2-0.086-0.43-0.143-0.601
	c-0.143-0.372-0.285-0.515-0.285-0.515c-0.287-0.485-0.229,0.115-0.486-0.857c-0.229-0.857-0.029-1.857-0.258-2.743
	c-0.371-1.629-0.656-0.257-0.828-1.915c-0.115-1.143,0.057-1.6-0.514-2.601c-0.572-1.058-0.602-0.972-0.602-2.458
	c0.143-1-0.229-0.971-0.484-1.514c-0.572-0.4-0.287-0.058-0.629-0.857l-0.83-2.144c-0.229-0.657-0.172-0.772-0.484-1.372
	c-0.344-0.686-0.314-0.4-0.543-1.371c-0.43-1.887-1.572-3.459-1.801-3.973c-0.229-0.543-0.143-0.857-0.486-1.486
	c-0.428-0.829-0.371-0.143-0.715-1.372c-0.314-1.144-2.629-6.087-3.457-7.059c-1.201-1.4-0.287-2.001-0.887-2.458
	c-1.428-1.086-0.027,0.086-0.885-1.029c-0.916-1.143-1.172-0.457-1.43-1.857c-0.314-1.715-0.428-2.172-1.686-3.972l-3.344-5.145
	c-0.371-0.543-0.43-1.343-0.457-2.286c-0.916-0.028-0.629-0.143-1.314,0.172c-0.4-1.543-0.602-0.486-0.801-2.715l-3.486-5.088
	c-1.943-2.857-0.143-0.6-1.715-1.943c-0.629-0.543-1.029-2.515-4.145-3.086c-0.057-0.6-0.371-2.572-0.57-3.001l-0.857-1.144
	c-0.287-0.342-0.43-0.628-0.715-0.971c-1.771-2.086-1.744-1.915-3.602-3.459c-0.857-0.714-1.027-1.771-2.172-3.114l-0.885-0.8
	c-0.057-0.029-0.115-0.058-0.172-0.086c-0.486-0.314-0.514-0.172-0.943-0.715c-0.857-1.143-0.6-1.115-2.229-2.887
	c-0.914-1-0.887-1-2-1.629l-3.973-3.771c-2.172-1.658-1.4-1.373-2.145-1.943c-2.742-2.145-0.371-0.83-3.172-2.658l-0.457-0.286
	c-1.113-0.743-0.514-0.515-1.285-1.314c-1.059-1.086-1.201-0.6-1.744-1.915c-0.629-0.543-0.857-0.714-1.656-1.229
	c-0.771-0.543-0.916-0.943-1.629-1.515l-2.631-2c-0.027-0.029-0.084-0.057-0.113-0.086l-4.688-3.058
	c-0.4-0.257-0.742-0.4-1.057-0.629c-1.287-0.943-0.285-0.572-2.572-1.772l-3.059-1.886c-0.6-0.343-0.342-0.085-0.914-0.514
	c-1.828-1.315-5.771-4.03-7.629-4.601c-1.258-0.4-2.43-1.4-4.23-1.943l-5.916-2.972c-3.057-1.115-2.229-1.4-4.086-1.943
	c-1.686-0.515-2.914-1.372-4.43-1.886c-0.828-0.257-1.514-0.2-2.344-0.6c-0.656-0.314-0.143-0.171-1.199-0.486l-3.373-1.229
	c-0.771-0.257-1.371-0.771-2.057-0.972l-2.145-0.743c-0.828-0.257-1.914-0.2-2.742-0.514l-3.658-1.172
	c-2.145-0.943-1.629-0.171-3.486-0.829c-0.887-0.314-1.314-0.543-2.486-0.657c-4.059-0.314-2.115-0.743-5.174-1.144
	c-1.113-0.143-1.715-0.2-2.629-0.514c-2.514-0.857-10.201-1.286-13.402-2.058c-1.172-0.257-7.287-0.4-8.83-0.458
	c-4.002-0.171-7.545-0.485-11.832-0.457c-2.744,0-14.717,0.457-17.461,1.172l-10.888,1.486c-1.086,0.171-1.572,0.4-2.6,0.6
	c-0.602,0.114-1.773,0.257-2.344,0.458c-3.629,1.286-2,0.457-5.029,1.2C132.119,8.381,131.861,8.524,129.119,8.781L129.119,8.781z"
	/>
<path fill-rule="evenodd" clip-rule="evenodd" fill="#3A3A39" d="M77.422,378.416l0.113-0.115c0.857,0.143,2.83,2.344,3.773,3.287
	c0.113,0.143,0.514,0.543,0.57,0.629c0.543,0.713,0.23,0.143,0.4,0.799c0.943,0.115,1.486,1.029,3.002,2.088
	c2.057,1.428,2.486,1.143,3.086,2.514c1.029,0.201,2.201,0.887,2.914,1.229c3.344,1.602,3.201,1.801,7.117,3.23l6.686,2.029
	c1.486,0.027,4.031,0.799,5.889,1.143c3.656,0.686,0.713,0.486,5.914,0.943c3.059,0.258-0.086,0.629,5.803,0.857
	c3.143,0.143,9.943,0.57,12.66-0.457c1.17-0.43,1.484-0.344,2.857-0.486c2.113-0.258,7.201-4.23,10.402-0.744
	c1.086,1.172,1.8,4.66-1.314,7.146l-0.688,0.514c-6.572,4.744-21.176,4.4-28.291,3.029c-1.744-0.314-4.201-0.43-5.916-0.914
	c-2.172-0.602-4.602-0.602-5.457-1.83c-0.086,0-0.572,0-0.83-0.057c-0.057,0-0.543-0.143-0.57-0.143
	c-0.572-0.229-0.314-0.172-0.486-0.258c-1.602-0.943-1.029-0.057-4.088-1.258c-0.713-0.285-1.398-0.256-2.143-0.484
	c-1.057-0.314-0.686-0.516-2-0.715l-3.973-1.344c-0.686-0.428-0.629-0.656-1.572-0.828c-1.143-0.115-1.6-0.543-2.629-0.857
	c-1.514-0.457-1.086-0.344-2.199-1.086l-8.203-4.887c-0.656-0.4-1.4-0.943-1.943-1.43c-0.629-0.543-1.229-0.943-1.828-1.543
	c-0.486-0.43-3.857-4.688-4.172-5.773c-0.201-0.686-0.602-2.172-0.516-2.801c0.086-0.686,2.887-5.059,5.945-3.344
	C76.564,376.986,77.078,377.615,77.422,378.416L77.422,378.416z M81.107,375.043c0.629-0.6,1.086-1.344,1.773-1.658l0.199-0.398
	c0.686-1.344,1.172-1.801,2.229-2.973l3.002-2.801c1.314-1.029,2.656-2.602,4.6-4.088c0.457-0.342,0.344-0.199,0.857-0.629
	c0.258-0.199,0.572-0.57,0.629-0.6c0.344-1.086,2.43-1.943,4.373-3.857c1.6-1.543,4.143-2.744,5.83-4.088l2.486-1.4
	c0.57-0.313,0.799-0.428,1.371-0.742c0.344-0.199,1.115-0.656,1.201-0.686c1.57-0.715,3.342-1.715,4.314-1
	c4.344,3.172,4.744-0.029,4.744,7.23c0,1.457-0.486,1.943-0.629,3.4c-0.143,1.285-0.057,2.543-0.143,3.857
	c-0.201,4.059-0.43,1.602-0.543,3.602c-0.115,2.371,0.799-0.143-0.201,3.201c-0.314,1.027-0.371,2.658-0.143,3.371
	c0.143,0.486,0.172,0.457,0.344,0.688c1.113-0.602,0.686-1.4,1.4-2.258c0.027-1.973,0.428-3.115,0.686-4.574l0.656-10.088
	c-0.027-2.543-0.113-2.914,0.943-4.543l1.314,0.027l3.658,9.117c0.201,1.314,0.115,0.686,0.6,1.6l2.316,8.574
	c0.199,1.887,0.828,1.572,0.857,3.344c0.057,1.516-0.145,2.887,0.113,4.4c2.686,0.229,2.172-2.027,1.744-4.801
	c-0.287-2.057-0.715-4.086-0.857-6.486c-0.373,0.057-0.516-1.715-0.486-1.973c-0.771-0.742-1.029-2.086-1.43-3.314
	c-0.799-2.43-1.057-3.631-2.143-5.887c-0.115-0.287-1.973-3.287-0.914-4.43c2.143-2.287,7.029,7.771,8.002,9.459
	c0.229,0.4,0.543,0.885,0.799,1.342l2.172,4.574c0.229,0.484,0.344,1.086,0.602,1.6c0.686,1.543,0.484,1.715,0.771,2.373
	c0.629,1.484,0.199-0.629,1.057,2.57l2.887,10.404c0.314,2.113,2.258,4.887-0.658,6.486l-7.172,2.086
	c-1.887,0.457-10.975,0.201-13.289,0.201c-2,0-1.857-0.602-3.629-0.771c-5.115-0.459-1.83,0.229-5.717-0.973l-5.6-1.229
	c-0.629-0.143-0.83-0.4-1.572-0.6c-0.658-0.201-1.373-0.229-1.857-0.373c-0.715-0.199-0.771-0.371-1.4-0.686
	c-0.973-0.486-2.516-0.342-5.002-1.801l-3.285-1.371c-2.83-0.857-0.602-0.344-3.029-1.344c-0.629-0.229-0.715-0.4-1.344-0.771
	c-0.543-0.371-5.316-3.801-5.801-4.516c-2.145-3.172-3.43-2.943-2.973-4.486C79.965,375.785,80.395,375.271,81.107,375.043
	L81.107,375.043z M121.859,351.295l-0.027-1.115c1.172-0.6,4.572-2.629,4.629-0.115C126.49,352.037,123.375,352.58,121.859,351.295
	L121.859,351.295z M117.23,342.863c0.514-1.771,3.543-1.371,5.23-1c2.256,0.514,2.971,1.287,4.457,2.314
	c-0.4,2.287-2.457,3.258-4.715,3.973c-3.629,1.086-4.715,1.143-6.916-0.314c0-1.086,0.258-3.43,0.914-4.258
	C117.174,342.32,116.344,343.035,117.23,342.863L117.23,342.863z M74.506,32.245c-0.484,0.057-2.57,1.629-3.113,2.029l-5.773,4.401
	c-0.514,0.4-0.771,0.943-1.285,1.372c-0.258,0.2-1.287,0.857-1.373,0.886c-0.57,1.115-2.371,2.315-3.285,3.144
	c-0.572,0.543-1.029,0.887-1.658,1.486l-6.23,5.916c-1.086,1.543-2.344,2.143-4.143,4.314l-8.518,9.604
	c-0.371,1.143,0.029,0.057-0.256,0.628l-0.83,1.2c-3.43,4.258-3.543,4.887-6.144,8.402l-2.058,2.801
	c-0.428,0.657-1.057,2.144-2.143,3.372c-0.029,0.028-0.086,0.086-0.115,0.114c-1.314,1.543-0.971,1.658-1.4,2.543
	c-0.371,0.744-0.457,0.172-1.028,1.258l-0.399,0.801c-0.172,0.285-0.287,0.485-0.43,0.8c-0.257,0.485-0.457,1.028-1.257,1.429
	c-0.144,0.887-0.257,0.857-1.028,1.943c-2.801,3.858-0.973,1.344-2.258,4.002c-0.43,0.914-0.229-0.172-1.144,1.971
	c-0.571,1.344-1.4,3.145-2.172,4.145c-1.058,1.314-0.171,0.857-0.714,2.4c-0.201,0.543-0.058,0.086-0.287,0.486
	c-0.285,0.514,0-0.115-0.256,0.457l-1.059,2.058c-0.199,0.429-0.199,0.743-0.314,1.171c-0.313,1.201-1.028,1.688-1.857,4.373
	c-0.113,0.314-0.342,0.914-0.399,1.058l-1.258,3.401c-0.399,0.971-0.343,1.485-0.571,2.543c-0.285,1.229-0.657,0.972-0.943,2.2
	c-0.485,2.344-1.2,4.001-1.914,7.374c-0.229,1.086-0.686,1.229-0.943,2.086c-0.229,0.857-0.143,1.686-0.486,2.457
	c-0.285,0.715-0.257,0.144-0.514,1.144c-0.2,0.857-0.143,1.772-0.515,2.63c-0.257,0.6-0.343,0.428-0.485,0.914
	c-0.516,1.457-1.973,11.631-2.087,13.403c-0.143,2.114-0.515,0.628-0.886,2.028c-0.371,1.458-0.028,9.803-0.514,11.918
	c-0.772,3.458-0.344,8.059-0.344,11.917c0,3.829-0.314,5.687,0.429,9.003c0.4,1.656,0.372,7.087,0.372,8.916
	c0.028,4.229,0.885,0.857,0.914,5.087c0,2.028,0.314,1.144,0.743,2.314c0.343,0.972,0.286,4.744,0.628,5.659
	c0.314,0.857,0.572,1,0.687,2.2c0.229,1.972,1.058,6.116,1.687,7.802c0.457,1.286,1.285,5.973,1.914,7.26
	c0.086,0.171,2.229,7.915,2.973,9.373c0.514,0.972,0.314,1.629,0.686,2.486l0.8,2.114c0.343,1.001,0.458,0.458,0.829,1.602
	c0.801,2.486,0.743,1.343,1.114,2.771c0.229,0.972,1.315,2.857,1.886,3.857c1.001,0.801,1.372,2.373,1.857,3.201l2.373,4.916
	c0.485,1.143,0.457,0.571,0.943,1.429l0.799,1.601c0.229,0.371,0.258,0.457,0.43,0.8l1.257,2.372
	c0.485,0.801,0.343,0.43,0.886,1.516c0.829,1.715,2.115,3.086,2.857,4.4l7.917,11.461c0.143,0.17,0.258,0.4,0.457,0.713l1.086,1.344
	c2.887,3.688,2.344,3.602,6.002,7.346c1.143,1.172,0.686,1.57,3.229,4.029c0.314,0.342,0.258,0.229,0.572,0.629l0.6,0.914
	l-0.027-0.229c1.027,0.428,2.514,2,3.115,2.943c0.713,1.057,0.713,0.914,1.799,1.744l11.604,10.717l9.945,7.715
	c1,0.771,0.543,0.287,0.715,1c1.17-0.027,2.428,1.258,3.371,1.887c1.285,0.857,1.943,1.486,3.314,2.258c0.688,0.4,1.172,0.6,1.688,1
	c0.713,0.6,1.113,0.686,1.742,1.172l1.486,1.115c2.201,1.113,1.572,0.342,1.6,1.4c1.43,0.113,5.688,2.887,7.117,3.744l6.086,3.113
	c1.572,0.658,0.258-0.313,2.543,1.059c1.23,0.715,3.572,1.457,3.887,1.715c1.688,0.371,8.66,2.6,8.717,4.115
	c-0.258,0.742-0.656,1.629-1.086,2.344c-1.6,2.6-0.314,5.83-4.744,6.344c-0.686,0.229-0.57,0.371-1.285,0.686
	c-2.459,1.029-1.43,0.801-3.029,1.344c-1,0.342-0.516,0.342-1.258,0.857c-0.857,1.629-0.457,0.285-1.771,1.428
	c-0.43,0.373-0.086,0.23-0.801,0.658L88.738,364.24c-1.887,1.201-1.828,1.6-3.344,2.943c-1.686,1.516-3.658,4.631-5.943,6.658
	c-0.914,0.801-1.201,1.344-1.744,1.4c-1.6-0.084-1.199-0.6-2.229-0.713l-3.715,0.514l-1.973,1.516c-1.428,1.086-0.971,1.686-2,2.799
	c0,0-0.371,2.316,0.457,3.43c1.172,1.543-0.486,0.115,1.344,2.516l1.342,1.514c0.602,0.857,1.086,1.459,1.744,2.145
	c2.686,2.828,1.914,1.658,4.145,3.43c2.629,2.057,1.57,1.172,3.428,2.115c1.658,0.855,3.83,2.656,8.146,4.629
	c2.57,1.172,1.885,0.6,3.943,1.686l2.656,1.201c1.516,0.57,1.029-0.201,3.201,0.914c0.029,0.029,0.115,0.057,0.143,0.086
	l2.344,0.656c0.887,0.314,1.086,0.344,1.287,0.773c1.086-0.086,9.715,2.199,11.631,2.629c1.543,0.314,3.314,0.086,4.686,0.371
	c1.145,0.229,0.086,0.656,3.715,0.771c6.059,0.172,7.488,0.457,14.033,0.029c0.629-0.059,1.57-0.059,2.172-0.145
	c1.086-0.17,0.656-0.342,1.715-0.627c0.686-0.145,1.484-0.201,2.143-0.373c4-0.971,11.603-5.943,9.146-10.803
	c-0.543-1.057-1.002-2-2.058-2.742c-1.629-1.172-0.916-1-3.516-1.344c-0.973-1.258-0.43-2.373-1.057-3.715
	c-0.887-1.887-0.486-1.973-0.771-4.316c-0.172-1.6-0.314-0.771-0.688-1.656c-0.229-0.543-0.17-1.543-0.314-2.145
	c-0.285-1.229-0.457-0.742-0.713-1.629c-0.344-1.057-0.229-1.199-0.688-2.115l-3.715-9.773c-0.285-0.57-0.256-0.371-0.457-0.742
	l-0.857-1.572c-0.285-0.514-0.4-1.4-0.514-2.371c-0.914-1.029-0.973-1.629-1.686-2.773c-0.83-1.314-1.486-1.172-1.145-3.371
	c0.857-0.145,1-0.145,1.715,0.199l1.602,0.629c0.885,0.344,0.17,0.314,2.086,1.201l5.516,2.486c0.713,0.484-0.059,0.084,0.771,0.457
	l10.802,5.658c1.314,0.742,2.029,1.057,3.229,2.057c1.145,1.029,4.344,2.83,6.717,4.658c3.715,2.887,4.029,2.459,7.572,6.23
	l2.287,2.287c2.285,2.344,4.4,4.658,6.115,7.486l1.715,2.887c0.457,0.771,0.57,0.801,0.857,1.373
	c1.172,2.258,2.143,4.229,2.572,6.486c0.17,0.801,0.428,1.029,0.6,1.801c0.801,3.543,0.514,8.658-0.486,12.402
	c-0.143,0.602-0.172,1.201-0.342,1.887l-4.26,7.26c-1.514,1.914-8.4,7.744-10.4,8.201c-0.773,0.857-1.23,0.857-2.43,1.457
	c-0.658,0.314-2.258,1.086-2.916,1.029l-6.83,3.287c-1,0.428-2.4,0.828-3.715,1.172l-3.887,1.199
	c-0.629,0.201-0.799,0.486-1.6,0.744c-0.515,0.143-1.485,0.285-2.001,0.428c-1.057,0.285-0.715,0.4-1.742,0.658
	c-0.914,0.229-1.314,0.143-2.172,0.514c-1.029,0.457-0.371,0.4-1.801,0.6c-1.973,0.258-4.059,1.115-5.801,1.658l-8.26,1.658
	c-1.6,0.457-2,0.629-4.143,0.742c-1.688,0.115-0.744,0.4-4.145,0.973l-8.402,1.543c-1.229,0.457-2.658,0.428-3.973,0.857
	c-0.713,0.256-1.113,0.484-1.857,0.57c-4.43,0.486-2.199,0.543-4.115,0.857c-0.742,0.115-1.715,0.086-2.371,0.201
	c-1.029,0.199-0.828,0.543-1.457,0.799c-1.115,0.457-1.916-0.199-3.402,0.516c-1.484,0.742-0.941,0.484-2.742,0.715
	c-3.145,0.398,0.543,0.771-4.059,1.027c-1.887,0.115-2.344,0.572-4.029,0.943c-0.428,0.115-0.656,0.172-0.943,0.314
	c-2.543,1.229-1.514,0.143-4.801,1.486l-10.975,3.801c-1.371,0.828-0.742,0.314-1.799,0.828c-4.717,2.23-8.459,3.945-12.461,7.432
	c-1.771,1.543-3.6,4.486-5.145,5.287c-0.057,0.113-1.371,1.971-1.771,2.543l-1.629,2.973c-1.113,1.971-1.172,2.658-1.457,3.143
	c-1.115,1.688-1.658,4.658-2.457,6.688c-1.344,3.43-1.029,5.201-1.344,7.83c-0.199,1.486-0.715,1.83-0.715,3.859
	c0,2.771-0.172,6.545,0.287,8.945c0.199,1.086,0.342,0.686,0.457,1.943c0.057,0.713-0.029,1.484,0,2.199
	c0.086,1.314,0.771,2.115,1.057,3.373c0.285,1.143,0.887,5.801,1.6,7.631l1.973,7.059c0.6,0.4,0.115-0.143,0.457,0.428
	c0.172,0.314,0.115,0.229,0.229,0.572l1.4,3.4c0.801,1.629,0.857,3.887,2.857,2.459l-0.027-1.688l-5.201-14.832
	c-0.201-1.143-0.115-1.943-0.457-2.973c-0.602-1.771-0.258-1-0.486-2.656l-0.887-5.916c0-2.314-0.285-3.943-0.285-6.287
	c0-2.4,0.199-4.43,0.258-6.545c0.057-1.801,0.285-1.4,0.6-2.83c0.229-1.027,0.029-1.971,0.229-2.943
	c0.172-0.799,0.771-1.428,0.971-2.344c0.516-2.086,1.572-5.943,2.545-7.688c0.256-0.457,0.342-0.742,0.57-1.143l6.201-8.803
	c0.771-0.914,0.744-0.885,1.715-1.686l1.744-1.6c0.6-0.543,1.285-0.715,1.971-1.23c2.373-1.799,3.002-2.027,5.574-2.971l1.229-0.658
	c0.057-0.027,0.113-0.057,0.172-0.086c0.713-0.256,1.229-0.199,1.57-0.686c0.516-0.943,2.4-1.543,3.373-1.828l5.43-2.029
	c0.943-0.314,0.857-0.43,1.715-0.658c0.6-0.172,1.4-0.199,2.057-0.428c0.744-0.229,1.059-0.602,1.801-0.801
	c0.744-0.229,1.287-0.143,2.059-0.4l9.688-2.6c1-0.115,1.258-0.059,2.086-0.4c3.029-1.258,1.943-0.201,4.115-1
	c1.115-0.43,1-0.229,2.115-0.373c1.6-0.229,2.801-0.914,3.971-1.057c3.572-0.486,4.744-0.857,8.26-1.6
	c1.314-0.287,2.658-0.516,4-0.83c1.801-0.4,2.088-0.686,4.174-0.828c1.771-0.115,2.371-0.686,3.943-0.943
	c3.258-0.514,0.314,0.344,4.314-0.857l18.09-4.229c0.828-0.145,0.973-0.43,1.629-0.688l7.688-2.258
	c1.457-0.428,0.285-0.143,1.543-0.828c0.771-0.428,1.285-0.258,2.086-0.6l2.486-1.143c1.801-1.145,1.258-0.029,2.629-1.029
	c1.229-0.887,0.686-0.314,1.887-0.744c1.943-0.742,7.715-4.029,9.344-5.43l2.658-2.4c0.828-0.828,1.857-1.258,2.658-2.457
	c0.742-1.086,0.17-0.43,1.172-1.229c1.027-0.83,0.428-0.801,1.6-1.287c0.086-1.143,0.857-0.943,1.258-2.115
	c0.371-1.057,0.086-0.514,0.57-1.4l1.516-3.801c0.229-0.686,0.428-0.656,0.6-1.342l0.572-4.773c0-2.143,0.057-8.916-0.486-10.23
	c-0.314-0.771-0.4-0.229-0.686-1.172c-0.514-1.801,0-0.914-1.229-4.115c-0.287-0.744-0.371-0.686-0.715-1.201
	c-0.486-0.715-0.973-2.029-1.857-3.229c-0.801-1.029-0.771-1.086-1.43-2.201c-0.514-0.914-0.4-0.4-0.857-1.057
	c-0.256-0.371-0.256-0.629-0.6-1.115l-1.285-1.629c-0.344-0.514-0.086-0.143-0.314-0.428c-0.4-0.459-0.4-0.287-0.83-0.887
	c-0.543-0.801,0.229-0.543-0.629-0.771c-1.256-0.514-1.771-1.371-2.742-2.344l-9.402-8.059c-1.201-0.83-0.371,0.172-1.914-1.201
	l-5.688-3.828c-3.23-1.801-5.602-3.344-9.517-5.373c-2.143-1.115-4.486-2.172-6.629-3.316c-2.344-1.229-4.43-1.943-4.973-2.285
	c-1.314-0.83-8.174-2.887-9.002-3.83c-0.688-0.801-0.029-6.459,0.629-6.945c1.828-0.543,3.172-0.17,4.629,0.459
	c1.543,0.627,5.943,1.086,8.631,1.943l9.372,1.371c1.314,0.143,3.887,0.199,4.859,0.457c4.543,1.229,26.32,0.914,31.264,0.686
	l14.717-1.428c1.258-0.4,3.344-0.83,5.029-0.744c0.373,0.057,2.486-0.543,3.602-0.686l7.545-1.658
	c0.715-0.229,1.258-0.256,1.943-0.457c0.771-0.229,0.799-0.428,1.514-0.656c1.229-0.373,2.4-0.486,3.715-0.916l3.43-1.143
	c0.771-0.229,1.344-0.172,2.115-0.371c0.943-0.258,3.744-1.771,4.943-1.686c0.744-1.43,3.459-1.344,6.002-2.83
	c0.715-0.4,1.258-0.514,2.029-0.857l4.057-1.715c1.172-0.371,1.002-0.543,2.029-0.885c1.744-0.572,7.803-3.83,9.66-4.916
	c2.543-1.543,7.059-3.973,9.029-5.488c0.83-0.6,0.973-0.57,1.859-1.086c0.6-0.342,1.086-0.799,1.656-1.199l13.375-9.832
	c0.742-0.6,0.801-0.941,1.486-1.428c2-1.373,5.43-4.773,6.658-5.201c0.199-0.516,1.486-1.486,1.801-1.801
	c0.285-0.943,0.256-0.801,0.971-1.486l3.658-3.602c0.486-0.514,0.887-1.285,1.371-1.771l4.658-4.801
	c1.172-1.314,0.715-1.314,1.943-1.686c0.4-1.145,0.715-1.145,1.4-1.943l3.43-4.373c0.686-0.887,0.973-1.314,1.686-2.143
	l7.916-11.232c0.43-0.658,1.059-1.486,1.572-2.258l6.916-12.46c0.629-1.343,0.629-1.629,1.715-2.4
	c-0.199-1.086,1.658-3.543,1.887-4.687c0.17-0.915-0.086-0.687,0.428-1.486l3.459-8.202c0.457-1.514,0.514-0.543,1.027-2.314
	l1.715-5.059c1.43-3.258,1.172-4.286,1.486-5.315c0.115-0.4,0.344-0.543,0.543-1.115l2.258-9.716
	c0.258-2.058,0.314-1.001,0.715-2.372c0.229-0.829,0.256-2,0.428-2.973c0.258-1.514,0.629-1.229,0.801-2.572
	c0.285-2.229,0.086-4,0.715-6.059l1-9.145c0.086-0.972,0.4-1.914,0.486-2.943c0.199-3.201-0.086-7.316,0.027-10.146
	c0.057-1.257,0.314-1.687,0.258-3.144c-0.172-4.315-0.029-8.831-0.314-13.089c-0.057-1.001-0.258-1.915-0.258-3.144l-1.229-8.945
	c-0.656-1.857-0.229-4.658-0.771-6.059c-0.801-2.144-0.229,0.114-0.742-2.601c-0.658-3.572-1.115-2.715-1.258-5.373
	c-0.086-1.144-1.086-4.115-1.543-5.315c-0.314-0.828-0.201-1.915-0.602-2.801c-0.627-1.371-0.6-0.371-0.771-2.543
	c-0.113-1.658-0.484-1.372-0.857-2.602c-0.742-2.543,0.344-0.229-1.314-3.801c-0.256-0.571-0.314-0.571-0.484-0.943
	c-0.744-1.6,0.457-0.57-1.145-3.972c-0.199-0.485-0.229-0.715-0.457-1.229c-0.771-1.943-1.572-3.4-1.914-4.829
	c-0.486-2.087-1.43-2.829-2.172-4.602L325.39,85c-0.486-0.742-1.656-2.172-1.771-3.029c-0.771-0.457-0.514-0.229-1.057-1
	c-0.629-0.914-3.773-5.372-4.973-4.801l0.314,1.314l3.115,4.63c1.371,1.972,1.914,3.344,2.828,4.915
	c0.514,0.887,1.229,1.629,1.629,2.458c1.658,3.173,3.229,5.573,4.857,8.917c0.258,0.543,0.314,0.943,0.545,1.429l1.371,2.429
	c0.885,1.83,1.715,3.602,2.285,5.602l2.943,6.916c0.572,1.372,1.172,3.086,1.316,4.688c0.256,0.543,0.627,0.514,0.484,1.514
	c0.457,0.372,0.059,0,0.43,0.458c0.742,0.942,1.742,4.515,1.885,5.43c0.314,2.086,1.115,4.286,1.744,6.259
	c0.543,1.657,0.172,2.943,0.914,4.4c1.059,2.087,1.115,6.402,1.916,8.688c0.484,1.458,0.484,3.2,0.57,4.973
	c0.143,2.114,0.887,1.972,0.943,3.858c0.029,1.686,0.314,3.314,0.314,5.086c0,2.258,0.572,2.688,0.629,4.602l0.057,21.063
	l-0.971,9.402c-0.059,0.828,0.027,1.857-0.115,2.629c-0.113,0.715-0.457,1.286-0.572,2.029c-0.57,3.201,0.029,5.145-0.771,6.716
	c-0.027,0.058-0.057,0.114-0.084,0.144l-0.516,2.457c-0.486,3.43-0.828,2.516-0.914,4.173c-0.258,4.173-0.744,1.915-1.086,4.144
	c-0.344,2.029-0.314,2.687-0.973,4.373c-1.314,3.344-0.6,1.6-1.143,4.287c-0.027,0.199-1.6,3.914-1.943,5.743l-2.115,5.83
	c-0.686,1.772-1.342,3.887-2.4,5.573l-2.428,5.287c-0.43,1.028-0.543,1-0.916,1.714c-0.828,1.602-1.371,3.401-2.57,5.431
	c-0.4,0.686-0.486,1.028-0.887,1.8l-1.201,1.486c-0.027,0.629-0.313,0.857-0.771,1.372c-0.742,0.886-0.484,0.372-0.857,1.571
	c-0.484,1.545-1.371,2.002-1.914,2.945c-0.428,1.713-3.115,5.086-3.857,6.516c-1.172,2.172,0.086,0.371-1.914,3.199
	c-0.486,0.688-0.688,0.887-1.115,1.545c-0.143,0.229-0.314,0.514-0.457,0.742c-0.287,0.371-0.314,0.314-0.686,0.771
	c-2.201,2.715-1.172,2.287-3.344,4.402c-2.115,2.086-2.658,3.943-5.23,6.344l-1.029,0.742c-0.057,0.086-2.629,3.088-3,3.486
	c-0.658,0.688-1.172,1.086-1.686,1.715c-0.715,0.916-0.771,1.23-1.744,1.658l-0.143,0.771c-1.086,0.314-4.201,4.459-5.773,5.201
	c-0.543,0.258,0.287-0.086-0.742,0.287c-0.143,1.027-8.545,7.688-9.402,8.145c-1.172,0.656-2.6,2.6-5.572,4.344l-4.629,3.371
	c-2.172,1.602-4.26,2.344-4.945,3.029c-2,2.088-3.344,2.029-5.229,3.744c-0.83,0.771-0.602,0.572-1.916,1.143
	c-0.428,0.201-2.113,1.086-2.572,1.373c-2.057,1.285-3.6,1.771-5.229,2.715l-6.631,3.287c-0.656,0.314-0.971,0.256-1.715,0.484
	l-9.943,3.859c-0.83,0.314-0.658,0.4-1.4,0.742l-15.518,4.373c-2.545,0.342-0.287,0.742-5.145,0.971
	c-1.83,0.086-0.572,0.287-2.172,0.715c-0.086,0-0.715,0.115-0.83,0.115l-5.086,0.943c-1.715,0.256-1.943-0.029-3.4,0.686
	c-1.029,0.514-5.744,0.543-7.373,0.629c-1.771,0.084-2.771,0.6-7.26,0.771c-4.771,0.17-24.148,0.4-27.063-0.344
	c-1.43-0.344-1.828-0.4-3.686-0.457c-1.4-0.057-2.002-0.4-3.373-0.457c-1.914-0.057-2.057-0.143-3.716-0.43
	c-2.6-0.457-2.342,0.029-5.029-0.799c-2.172-0.688-7.887-1.602-8.373-1.773c-2.4-0.799-3.086-0.742-6.115-1.828l-6.373-1.686
	c-2.629-0.457-3.6-1.688-5.801-2.145c-2.771-0.6-11.488-4.115-14.031-5.771c-0.314-0.229-2.688-1.059-2.744-1.059
	c-2-0.342-3.143-1.629-4.857-2.115c-1.258-0.371-0.602-0.199-1.486-0.857l-0.457-0.285c-2.059-1.314-1.029-0.543-2.316-1.086
	l-3.943-2.572c-0.457-0.256-0.715-0.342-1.113-0.6l-3.344-1.943c-0.029-0.029-0.086-0.086-0.115-0.115l-13.174-9.545
	c-0.4-0.342-0.514-0.514-0.887-0.828l-4.6-3.602c-3.258-2.656-6.316-5.658-9.316-8.602L42.1,284.764c-0.828-0.943-0.486,0-0.6-1.258
	c-0.172-0.742-0.201-0.742-0.602-1.086l-5.686-7.174c-0.143-0.17-0.4-0.514-0.516-0.713l-2.4-3.916
	c-0.4-0.658-0.543-0.229-2.058-2.744c-0.457-0.742-0.543-0.6-1.086-1.572c-1.486-2.715-0.6-1.742-2.543-4.229
	c-0.915-1.143-1.4-2.8-1.744-3.373c-0.514-0.857-0.857-0.857-1.857-2.943l-0.943-1.686c-1.4-2.973-2.057-3.801-3.258-6.717
	c-0.656-1.629-1.485-2.6-1.686-3.086l-2.715-7.488c-0.486-1.457-1.457-2.257-1.4-3.572c-1.029-0.714-0.943-1.771-1.286-3.2
	c-0.2-0.886-0.628-2.543-0.942-3.43L9.75,223.32c-0.715-2.601-2.687-7.145-2.801-9.945l-1.371-7.201
	c-0.43-0.915-0.457-0.229-0.572-1.516c-0.285-2.943,0.172-3.058-0.715-5.943c-0.428-1.458-0.457-5.973-0.628-7.831l-0.601-3.715
	c-0.4-4.229,0-16.719-0.057-21.463c-0.058-4.915,0.715-4.115,0.742-7.745c0-2.801,0.458-5.086,0.915-7.773
	c0.314-1.656-0.058-4.572,0.714-6.029l0.486-1.258c0.314-2,0.172-1.828,0.771-3.515c0.429-1.229,0.115-2.63,0.601-3.802
	c0.856-2.114,1.314-4.572,1.714-6.83l1.973-6.544c0.172-1.144,0.086-0.743,0.571-1.429l1.2-3.172
	c0.286-1.001-0.057-1.315,0.715-1.201c-0.029-0.742,0.343-1.686,0.6-2.543l3.572-8.803l11.832-21.891
	c0.027-0.114,0.085-0.143,0.143-0.2c0.314-0.515,0.086-0.058,0.4-0.571c0.199-0.344,0.256-0.486,0.457-0.771
	c0.399-0.658,0.656-0.715,0.828-1.344l2.401-3.687c0.801-1.229,1.457-2.229,2.287-3.229l3.6-4.887
	c2.086-3.144,6.344-7.888,8.916-10.46c0.973-0.972,1.602-2.486,3.145-2.715c0.457-0.485-0.486,0.543,0.229-0.257
	c0.086-0.115,0.199-0.229,0.314-0.344c0.229-0.285,0.486-0.629,0.57-0.857c0.201-0.828,0-0.314,0.344-0.885
	c0.199-0.286,2.686-2.887,3.686-3.115l0.145-0.344c0.457-0.886,5.057-4.915,5.658-5.458l4.771-3.944
	c1.602-1.515,7.717-5.916,9.66-7.23l1.113-0.857c0.029-0.028,0.086-0.085,0.145-0.114c0.941-0.8,2.715-1.886,4.258-2.315
	l-0.201,0.086c0.373-1.257,2.059-1.943,3.145-2.601c0.57-0.314,0.285-0.171,0.6-0.4c0.172-0.114,0.715-0.457,1.143-0.8
	c1.287-0.972,0.373-0.114,1.916-0.972c1.885-1.058,2.715-1.115,3.143-2.658c-1.943-0.028-1.629,0.2-2.887,0.886l-5.4,3.372
	c-0.029,0.029-0.086,0.086-0.115,0.114l-0.256,0.229c-0.029,0.028-0.086,0.057-0.115,0.085c-0.057,0.029-0.113,0.086-0.143,0.086
	c-2.029,1.257-4.314,2.315-6.373,4.086C75.736,32.13,75.592,32.245,74.506,32.245L74.506,32.245z"/>
<path fill-rule="evenodd" clip-rule="evenodd" fill="#B269AB" d="M282.952,134.726c0.629,1.172,2.887,2.744,4.287,4.145
	c1.4,1.429,1.771,1.172,2.543,1.801c1.658,1.4,0.229,0.657,2.543,1.543c1.172,0.028,1,0.086,1.715,0.514
	c2.771,1.63,3.629,1.059,4.943,1.63c1.002,0.399-0.256,0.743,3.545,0.628c1.029-0.027,1,0,1.656-0.342l4.23-2.315
	c0.656-0.571,0.457-0.543,1-1.172l1.744-2.601c0.941-2.4,0.457-0.457,1.143-3.229c0.371-1.372,0.801-1.257,0.971-1.372l-0.086-0.686
	c-0.057-3.887,0.201-7.973,0-11.859c-0.113-2.744-0.457,0.028-0.971-4.83l-1.086-4.572l-6.201-13.832
	c-0.258-0.457-0.229-0.286-0.572-0.915c-0.143-0.257-0.229-0.543-0.4-0.8c-0.143-0.172-0.484-0.486-0.686-0.715
	c-0.199-0.229-0.113-0.172-0.314-0.4c-0.027-0.057-0.086-0.113-0.113-0.143l-4.887-6.002c-0.029-0.027-0.086-0.085-0.115-0.113
	l-0.428-0.515c-1.801-2.743-4.145-4.43-6.688-6.202l-0.857-0.6c-0.029-0.029-0.828-0.6-0.828-0.6
	c-2.23-1.344-0.801-0.973-2.943-1.315l-1.715-0.429c-1.916-0.371-1.086-0.6-2.344-1.2c-1.344-0.601-3.943-0.229-5.602-0.2
	c-1,1.715-1.172,0.143-1.771,1.829c-2.287,0.028-1.887-0.058-3.373,1.915c-0.6,0.771-1.629,1.857-1.971,2.771
	c-1.887,4.916-3.201,11.66-1.602,16.719c0.43,1.372,0.314,2.887,0.543,4.401s0.486,0.515,1.029,3.772l1.201,3.572
	c0.342,0.972,0.457,0.657,0.742,1.686c0.857,3.059,1.115,2.943,2.086,5.173l8.516,13.261c0.145,0.172,0.486,0.457,0.572,0.629
	C282.981,134.47,282.638,133.784,282.952,134.726L282.952,134.726z"/>
<path fill-rule="evenodd" clip-rule="evenodd" fill="#783695" d="M105.799,354.123c-0.514,1.029-0.256,0.602-1.113,1.145
	c-1.086,0.686-0.229-0.115-0.83,0.971c-1.113,0.086-0.971,0.029-1.857,0.686l-0.715,0.516c-0.428,0.342-0.428,0.457-0.828,0.857
	c-0.371,0.314-0.6,0.484-0.971,0.771c-0.857,0.629-1,0.828-2.059,1.514c-1.543,0.973-1.258,1.143-1.801,1.572l-1.143,0.828
	c-2.115,2.287-0.514,0.516-2.43,1.887l-4.115,3.83l0.43,0.629c0.172,0.398,0.086,0.256,0.086,0.656
	c-1.145,0.029-0.629-0.514-1.887,0c-0.887,0.371-0.629,0.6-1.115,1.115c-1.713,1.943-1.713,2.344-2.57,2.285
	c-0.688,0.314-1.145,1.059-1.773,1.658c-0.113,2.516-1.143,1.314,1.943,4.516l1.516,1.658c0.027,0.027,0.086,0.084,0.143,0.113
	c3.143,3.029,0.457,0.371,3.486,2.344c0.457,0.314,0.457,0.229,0.828,0.4l3.059,1.914c1,0.486,0.514,0.486,1.457,0.914
	c0.4,0.145,0.43,0.086,0.914,0.344c2.23,1.086,1.486,0.543,2.402,0.943c1.113,0.514,0.057,0.715,3.742,1.543
	c3.287,0.715,2.314,0.914,3.744,1.172c3.115,0.6,1.115,0.771,4.115,1.057c3.258,0.314,1.486,0.801,3.83,1
	c3.371,0.258,2.143-0.371,4.314,0.744c1.686,0.857,16.146,0.514,19.205,0.285l4.258-1.658c0.57-0.514-0.629,0.201,0.4-0.229
	c1.113-0.398,0.285,0.258,1.256-0.398c0.086-8.66-0.484-1.943-1.027-8.23c-0.145-1.916-0.658-1.801-1-3.744
	c-0.287-1.516-0.23-0.715-0.715-1.629c-0.602-1.086,0-1.172-0.801-2.572c-0.314-0.572-0.086,0.113-0.4-0.801l-3.572-9.031
	c-1.113-1.885-0.656-1.113-1.656-1.57c-0.029-0.287,0-0.715-0.059-1.002l-1.514-2.885c-1.486-2.029-1.258-2.486-1.973-3.373
	c-1.258-1.543-0.857-1.43-2.113-1.658c0.084,0.916,0.313,2.715,0.771,3.516c0.627,1.143,1.799,5.23,2.057,5.744
	c0.486,0.973,0.801,2.029,0.629,3.344c-0.029,0.258,0.113,2.029,0.486,1.973c0.629,0.514,0.4,0.057,0.629,1.086
	c0,0.027-0.029,1.086-0.029,1.229c1.172,1.285,0.828,2.314,1.057,4.602c0.572,5.457-0.143,4-0.828,5.086
	c-5.172,0-2.086-2.857-3.4-8.887c-0.143-0.715-0.314-0.715-0.516-1.572c-0.113-0.4-0.143-1.229-0.229-1.801
	c-0.199-1.629-0.57-1.686-0.971-2.973c-0.658-2.029-0.201,0.344-1.086-3.314c-0.229-0.943-0.314-0.543-0.715-1.457
	c-0.229-0.543-0.229-0.771-0.543-1.314c-0.629-1.172-0.457-2.029-1.029-3.115c-0.686-1.258-0.371-2.002-1.857-2.172
	c-0.371,1.885,0.086,4.201-0.285,6.229c-0.686,3.572-0.514-0.229-0.742,5.602c-0.145,3.115,0,3.373-0.744,5.945
	c-0.686,2.516,0.658,4.115-2.801,3.943c-1.486-2.057-1.285-2.801-0.543-5.373c0.686-2.314,0.115-10.459,0.83-12.432
	c0.398-1.027,0.199,0.314,0.428-1.258v-4.857c-0.314-0.742-0.658-0.457-1.457-0.771c-1.771-0.715-1.658-2.516-4.459-1.201
	l-4.572,2.43C106.428,353.781,106.514,353.895,105.799,354.123L105.799,354.123z"/>
<path fill-rule="evenodd" clip-rule="evenodd" fill="#783695" d="M91.281,398.221c0.943,0.172,0.887,0.4,1.572,0.828l3.973,1.344
	c1.314,0.199,0.943,0.4,2,0.715c0.744,0.229,1.43,0.199,2.143,0.484c3.059,1.201,2.486,0.314,4.088,1.258
	c0.172,0.086-0.086,0.029,0.486,0.258c0.027,0,0.514,0.143,0.57,0.143c0.258,0.057,0.744,0.057,0.83,0.057
	c1.6,0.143,1.484,0.314,2.686,0.629c1,0.285,2,0.229,2.973,0.486c2.027,0.543,3.371,0.742,5.771,0.943
	c1.314,0.113,1.258,0.371,2.572,0.57l10.002,0.258c6.43-0.086,13.547-1.029,17.49-5.973c0.484-0.6,0.371,0.029,0.457-1.258
	c0.285-4.43-4.314-5.602-7.631-3c-1.428,1.113-0.629,0.143-2.143,0.971c-0.801,0.43,0.086,0.314-1.172,0.43
	c-1.172,0.086-1.914,0.199-3.115,0.199c-6.773,0.057-3.115,0.857-12.66,0c-1.086-0.113-2.172,0.029-3.172-0.143
	c-1.314-0.229-1.371-0.486-2.801-0.572c-1.828-0.113-4.486-0.256-5.916-0.941c-2.143-1.029-1.314,0.484-4.514-1.316l-0.688-0.484
	l-6.686-2.029c-3.916-1.43-3.773-1.629-7.117-3.23c-0.713-0.342-1.885-1.027-2.914-1.229c-0.715-0.113-3.373-1.715-3.658-1.943
	c-1.686-1.543-2.229-1.572-2.43-2.658c-0.857,0-0.971-0.342-1.57-0.857c-0.486-0.398-0.688-0.656-1.086-1.086
	c-0.857-0.971-1.602-1.256-2.088-2.771l-0.113,0.115c-1.314,0.027-3.314-3.287-6.258,0.428c-0.572,0.686-0.459,1.658-0.373,2.658
	c0.086,1.285,0.287,1.115,0.771,1.857l0.688,1c0.229,0.258,0.543,0.543,0.799,0.887c1.029,1.229,1.486,2.572,2.773,3.486
	c2.229,1.6,0.971,1.285,3.486,2.486l6.801,3.914c1.115,0.658-0.057,0.344,1.029,0.83c0.057,0,0.143,0.027,0.17,0.057
	c0.059,0,0.145,0.029,0.201,0.057l3.314,1.373C91.168,397.791,91.025,397.535,91.281,398.221L91.281,398.221z"/>
<path fill-rule="evenodd" clip-rule="evenodd" fill="#3A3A39" d="M313.187,133.269l0.086,0.686c0.172,2.172-2.486,7.23-4.371,8.859
	c-1.43,1.201-4.258,2.602-6.145,2.658c-5.23,0.143-3.658-0.429-5.631-0.886c-1.027-0.229-3.285-0.829-4.143-1.486
	c-0.658-0.543-0.287,0.144-0.658-0.886c-2.314-0.886-0.885-0.143-2.543-1.543c-0.771-0.629-1.143-0.372-2.543-1.801
	c-1.4-1.4-3.658-2.973-4.287-4.145c-1.086-0.285-1.086-0.428-1.801-1.399l-4.629-6.487c-0.344-0.543-0.572-1.115-1-1.658
	c-1.801-2.258-1.373-2.657-1.973-3.629c-0.4-0.629-0.742-1.201-1.086-1.744c-1.285-1.943-1.371-3-1.771-3.801
	c-0.6-1.285-0.629-2.229-1.4-4.172c-0.314-0.801-0.229-1.43-0.457-2.258c-0.344-1.314-0.543-0.429-0.744-1.743
	c-0.799-4.744-1.398-7.316-1.371-12.546c0.029-3.373-0.143-4.658,0.887-7.259c0.742-1.915-0.229-1.486,1-3.43
	c0.027-0.028,0.057-0.086,0.086-0.144l0.314-0.656c0.342-0.771,0.484-0.943,0.971-1.715c3.744-5.688,10.145-5.631,15.947-3.458
	c4.914,1.886,9.002,5.858,12.545,9.573c2.029,2.172,2.516,3.602,2.916,4.115c0.428,0.515-0.029,0,0.342,0.286
	c0.057,0.058,0.258,0.144,0.314,0.2l5.258,8.688c0.543,1.229,0.516,0.658,1.059,1.801c1.686,3.772,2.342,6.287,3.715,9.831
	c0.543,1.343,1.715,7.858,1.742,9.517c0,1.743,0.229,7.83-0.17,9.488L313.187,133.269z M268.263,114.464
	c-0.113,1.229,0.086,0.857,0.516,1.744c0.371,0.771,0.256,0.914,0.484,1.742l3.088,5.602c0.857,0.943,0.342,0.058,0.771,1.258
	c1.285,3.687,4.857,7.43,7.23,10.545c1.457,1.915,6,5.773,8.287,7.23c0.514,0.314,0.715,0.543,1.199,0.943
	c0.887,0.715,2.572,1.314,4.201,2.314c2.602,1.544,8.459,1.83,11.316,1.201c1.688-0.372,4.43-2.344,5.574-3.401
	c4.656-4.229,6.371-16.118,5.172-20.576c-0.201-0.772-0.4-1.028-0.457-1.886c-0.059-0.801,0.027-1.315-0.115-2.115l-4.572-15.061
	c-1.172-2.172-0.57-1.572-2.172-4.344c-0.543-0.915-1.258-2.001-1.457-3.145l-2.516-3.801c-0.514-0.886-1.742-2.457-1.857-3.086
	c-1.086-0.286-0.57,0.028-1.285-0.801c-0.172-0.172-0.486-0.6-0.771-0.914l-3.029-3.258c-1.115-1.229-7.346-6.459-8.916-6.545
	l-6.574-2.144c-0.914-0.2-3.285-0.143-4.314-0.143c-3.857,0.028-6.801,1.943-9.145,4.801c-2.943,3.601-2,4.201-3.145,8.116
	c-1.885,6.316,0.229,14.176,0.629,19.233C266.548,109.75,268.263,113.122,268.263,114.464L268.263,114.464z"/>
<path fill-rule="evenodd" clip-rule="evenodd" fill="#3A3A39" d="M109.199,15.326c1.459,0.172,1.459-0.143,2.373-0.628
	c1.115-0.6,2-0.086,2.828-0.6c0.83-0.515-0.084-0.314,1.059-0.686c0.57-0.171,1.029-0.143,1.4-0.286
	c0.686-0.257,0.371-0.286,1-0.629c1.285-0.714,2.43-1,3.887-1.257c1.486-0.286,0.457-0.657,2.428-0.943l4.945-1.515
	c0.543-1.086,1.029-0.514,3.457-1.257l10.66-2.372c2.486-0.429,3.086-0.028,5.686-0.829c2.087-0.657,4.573-0.229,5.745-0.743
	c1.943-0.857,17.719-1.486,20.318-1.486c2.172,0,6.402-0.057,8.402,0.286c2.857,0.458,5.373,0.4,8.316,0.629
	c2.887,0.2,4.715,0.686,7.715,0.943c1.543,0.114,2.316,0.429,3.658,0.743c1.287,0.286,2.572,0.229,3.943,0.486
	c1.258,0.229,2.201,0.514,3.516,0.743c1.4,0.257,1.973,0.772,3.4,0.915c1.688,0.171,2.314,0.314,3.688,0.771
	c1.258,0.429,2.715,0.457,3.973,0.8c0.627,0.2,0.457,0.343,1.543,0.629c0.771,0.171,1.086,0.171,1.742,0.4
	c0.486,0.171,0.83,0.4,1.457,0.543c0.973,0.229,0.857,0.085,1.744,0.486c2.229,1,4.373,1.429,6.43,2.314l6.459,2.344
	c2.973,1.2,4.4,2.257,7.088,2.257c-0.229-0.829-0.4-1.086-0.973-1.486l-4.457-1.857c-0.916-0.429-1.715-0.743-2.83-1.201l-9.031-3.4
	c-1.543-0.343-2.086-0.429-3.428-0.886l-3.174-1.429c-0.771,0.085-1.686-0.086-2.342-0.343c-0.516-0.2-0.086-0.143-0.943-0.457
	c-0.4-0.143-1.029-0.229-1.4-0.286c-1.572-0.257-3.287-1.372-4.916-0.915c-0.771,0.057-5.172-0.771-6.145-1.286
	c-1.027-0.515-3.057-0.229-5.744-0.972c-1.172-0.343-2.828-0.286-4.115-0.515l-3.686-0.857l-22.32-0.886
	c-2.771,0.057-15.402,0.657-17.432,1.029c-1.229,0.257-2.457,0.629-3.857,0.772c-1.372,0.143-2.944,0.057-4.058,0.514
	c-1.373,0.543-2.486,0.171-3.859,0.657c-1.715,0.629-1.914,0.543-3.887,0.743c-1.543,0.143-2.484,0.572-3.742,0.829
	c-0.857,0.172-1.486,0.114-2.145,0.286c-0.857,0.257-0.543,0.429-1.457,0.714c-0.715,0.257-1.4,0.171-2.057,0.4
	c-0.973,0.343-0.029,0.286-1.516,0.543c-4.602,0.771-1.828,0.6-3.543,1.029c-1.029,0.257-1.059-0.114-2.115,0.486
	c-0.572,0.314-0.486,0.429-1.43,0.629c-3.572,0.743-4.943,1.743-7.143,2.115c-1.145,0.2-1.287,0.543-3.201,1.343l-7.316,3.172
	c-0.4,0.286-2.543,1.029-3.887,1.915c-0.943,0.6-1.943,0.571-4.602,2.144c-1.6,0.943-2.285,0.857-2.828,2.286
	c1.629,0,2.973-0.829,4.602-1.743c1.57-0.886,1.514-0.029,2.971-1.315c0.029-0.028,0.086-0.085,0.115-0.114
	c0.057-0.028,0.113-0.085,0.143-0.114c1.6-1.2,4.857-2.172,6.744-3C108.143,15.469,107.771,15.126,109.199,15.326L109.199,15.326z"
	/>
<path fill-rule="evenodd" clip-rule="evenodd" fill="#909092" d="M129.119,8.781c2.742-0.257,3-0.4,5.373-1
	c3.029-0.743,1.4,0.085,5.029-1.2c0.57-0.2,1.742-0.343,2.344-0.458c1.027-0.2,1.514-0.429,2.6-0.6l10.888-1.486
	c2.744-0.715,14.717-1.172,17.461-1.172c4.287-0.028,7.83,0.286,11.832,0.457c1.543,0.058,7.658,0.2,8.83,0.458
	c3.201,0.771,10.889,1.2,13.402,2.058c0.914,0.314,1.516,0.372,2.629,0.514c3.059,0.4,1.115,0.829,5.174,1.144
	c1.172,0.114,1.6,0.343,2.486,0.657c1.857,0.657,1.342-0.114,3.486,0.829l3.658,1.172c0.828,0.314,1.914,0.257,2.742,0.514
	l2.145,0.743c0.686,0.2,1.285,0.714,2.057,0.972l3.373,1.229c1.057,0.314,0.543,0.171,1.199,0.486c0.83,0.4,1.516,0.343,2.344,0.6
	c1.516,0.514,2.744,1.372,4.43,1.886c1.857,0.543,1.029,0.829,4.086,1.943l5.916,2.972c1.801,0.543,2.973,1.543,4.23,1.943
	c1.857,0.571,5.801,3.286,7.629,4.601c0.572,0.429,0.314,0.171,0.914,0.514l3.059,1.886c2.287,1.2,1.285,0.829,2.572,1.772
	c0.314,0.229,0.656,0.372,1.057,0.629l4.688,3.058c0.029,0.029,0.086,0.057,0.113,0.086l2.631,2
	c0.713,0.571,0.857,0.972,1.629,1.515c0.799,0.514,1.027,0.686,1.656,1.229c0.686,0.229,0.83,0.4,1.229,0.743l2.059,1.743
	c0.057,0.029,0.086,0.086,0.113,0.143c1.658,1.744,1.602,0.629,2.545,2.145c0.027,0.027,0.057,0.113,0.086,0.143
	c0.484,0.828,0.057,0.172,0.143,0.314c0.57,0.714,0.4-0.115,1.686,1.172l17.346,17.775c4.287,4.458,0.943,3.744,3.631,5.229
	l1.686,1.258c3.229,2.801,2.486,4.401,4.201,5.802c0.057,0.057,0.143,0.113,0.199,0.143c0.029,0.028,0.115,0.086,0.201,0.143
	l-0.314-1.314c1.199-0.571,4.344,3.887,4.973,4.801c0.543,0.771,0.285,0.543,1.057,1c-0.486-3.086-4.086-5.687-6.172-7.688
	c-0.43-0.428-0.373-0.285-0.771-0.656c-2.201-1.915-3.029-3.401-4.459-5.717c-0.715-1.143-1.457-1.8-1.914-3.086
	c-0.715-2-1.801-3.314-2.744-4.858c-0.4-0.628-0.629-1-1.057-1.458c-1.029-0.229-0.4-0.085-1.086-0.714l-2.545-2.286
	c0.629,1.686,2.688,3.144,4.631,5.773c0.371,0.514,0.484,0.342,0.742,1c0.6,1.371-0.086,1.371-0.172,1.514
	c-1.4-0.399-0.713-0.628-1.742-1.6c-1.771-1.687-0.629-0.914-1.543-1.801c-0.172-0.172-0.658-0.543-0.83-0.715
	c-0.514-0.543-0.398-0.571-0.713-0.971l-6.488-6.803c-0.715-0.8-0.715-0.428-1.887-1.485l-2.486-2.344
	c-2.857-2.886-3.285-2.972-6.201-5.43l-3.572-3.144c-0.57-0.343-0.428-0.114-1.086-0.657l-2.715-2.115
	c-0.371-0.229-0.742-0.429-1.027-0.686l-1.801-1.314c-0.658-0.458-0.371-0.229-1.059-0.629l-0.971-0.743
	c-0.172-0.114-0.229-0.114-0.428-0.286l-1.43-1c-1.344-0.771-0.801-0.886-3.029-2l-2.943-2.2c-0.715-0.686-1.287-0.543-2.973-1.858
	c-1.6-1.229-2.943-1.429-4.371-2.429c-0.172-0.114-8.545-3.772-9.918-5.058l-1.027-1.144c4.115,0,2.314,0.486,4.572,0.915
	l-1.744-1.601c-0.371-0.143-0.715-0.343-1.344-0.543c-1.229-0.486-0.713-0.429-1.4-0.8l-1.057-0.372
	c-2.086-0.886,0.514-0.286-2.086-1.029c-1.344-0.4-0.572-0.4-1.457-0.743c-0.572-0.229-1.172-0.171-1.83-0.429l-3.172-1.372
	c-0.971-0.543-0.629-0.229-1.629-0.486c-1.857-0.486,0.057-0.572-2.172-0.943l-3.914-1.258c-1.629-0.628-0.172-0.543-2.373-0.714
	c-2.229-0.2-1.686-0.972-4.059-0.886l3.174,1.429c1.342,0.458,1.885,0.543,3.428,0.886l9.031,3.4
	c1.115,0.458,1.914,0.772,2.83,1.201l4.457,1.857c0.572,0.4,0.744,0.657,0.973,1.486c-2.688,0-4.115-1.057-7.088-2.257l-6.459-2.344
	c-2.057-0.886-4.201-1.314-6.43-2.314c-0.887-0.4-0.771-0.257-1.744-0.486c-0.627-0.143-0.971-0.372-1.457-0.543
	c-0.656-0.229-0.971-0.229-1.742-0.4c-1.086-0.286-0.916-0.429-1.543-0.629c-1.258-0.343-2.715-0.371-3.973-0.8
	c-1.373-0.458-2-0.6-3.688-0.771c-1.428-0.143-2-0.658-3.4-0.915c-1.314-0.229-2.258-0.514-3.516-0.743
	c-1.371-0.257-2.656-0.2-3.943-0.486c-1.342-0.314-2.115-0.629-3.658-0.743c-3-0.257-4.828-0.743-7.715-0.943
	c-2.943-0.229-5.459-0.171-8.316-0.629c-2-0.343-6.23-0.286-8.402-0.286c-2.6,0-18.375,0.628-20.318,1.486
	c-1.172,0.515-3.658,0.086-5.745,0.743c-2.6,0.8-3.199,0.4-5.686,0.829l-10.66,2.372C130.148,8.267,129.662,7.695,129.119,8.781
	L129.119,8.781z"/>
<path fill-rule="evenodd" clip-rule="evenodd" fill="#C8C9C9" d="M307.329,96.517c0.199,1.144,0.914,2.229,1.457,3.145
	c1.602,2.771,1,2.172,2.172,4.344l4.572,15.061c0.143,0.8,0.057,1.314,0.115,2.115c0.057,0.857,0.256,1.113,0.457,1.886
	c1.199,4.458-0.516,16.347-5.172,20.576c-1.145,1.058-3.887,3.029-5.574,3.401c-2.857,0.629-8.715,0.343-11.316-1.201
	c-1.629-1-3.314-1.6-4.201-2.314c-0.484-0.4-0.686-0.629-1.199-0.943c-2.287-1.457-6.83-5.315-8.287-7.23
	c-2.373-3.115-5.945-6.858-7.23-10.545c-0.43-1.2,0.086-0.314-0.771-1.258l-3.088-5.602c-0.229-0.828-0.113-0.971-0.484-1.742
	c-0.43-0.887-0.629-0.516-0.516-1.744c-1.914-1.686-2.428-8.345-3.057-10.202c-0.516-1.458-0.857-10.146-0.486-12.203
	c0.629-3.458-0.086-1.372,1-5.516c0.229-0.8,0.115-1.257,0.4-2.001c0.686-1.715,2.973-5.344,4.457-6.43l4.402-2.344
	c4.744-1.258,8.172-0.457,12.346,1.286c0.17,0.058,0.713,0.314,0.857,0.4c1.256,0.8-0.744-0.601,0.314,0.229
	c0.428,0.343,0.027-0.058,0.457,0.429c1.57,0.086,7.801,5.315,8.916,6.545l3.029,3.258c0.285,0.314,0.6,0.742,0.771,0.914
	c0.715,0.829,0.199,0.515,1.285,0.801c-0.371-1.314-4.629-6.174-5.744-6.916l-2.857-2.486c-0.057-0.058-0.086-0.115-0.113-0.144
	c-0.516-0.543-1.002-0.628-1.629-1.028c-0.629-0.4,0.143,0-0.572-0.371l-1.973-1.144c-4-1.486-7.516-3.516-12.145-2.973
	l-5.145,1.229c-2.371,1.285-3.4,1.972-4.83,4.286l-2.4,3.887c-1.285,2.115-0.629,1.114-0.885,4.573
	c-0.4,5.172-1.459,1.943-0.801,11.117c0.115,1.571,0.543,0.942,0.715,2.371c0.143,0.857,0.057,1.973,0.172,3.001
	c0.113,0.857,0.057,2.372,0.199,3.001c0.229,1.057,0.514,0.229,0.828,2.258c0.314,2.057,0.801,0.543,0.83,2.4
	c0,0.686-0.629,1.887,0.027,2.486c-0.285,0.429-0.172,0.057,0-0.114c0.516-0.543,0.059-0.257,0.771-0.571
	c0.344,0.629,0.287,1.371,0.4,2.057l0.344,0.715c0.027,0.029,0.086,0.086,0.113,0.114c0.771,1.086,0.229,1.572,1.229,2.887
	l0.857,1.372c0.258,0.428,0.172,0.371,0.373,0.828l1.543,2.801c0.885,1.115,0.199,1.372,1.057,2.344l2.887,3.887
	c0.029,0.057,0.172,0.199,0.229,0.257l1.43,2.001c0.113,0.199,0.113,0.343,0.229,0.543c0.371,0.828,1.172,0.943,1.656,1.657
	c0.715,1.114-0.143,0.515,1.029,1.372c0.943,0.686,2.143,2,3.771,3.058c0.029,0.028,0.086,0.086,0.145,0.114l1.285,1.086
	c1.514,1.4,2.914,2.572,4.857,3.629c0.715,0.372,1,0.258,1.658,0.516c1.143,0.428,1.543,1.371,4.658,2
	c1.572,0.314,1.744,0.686,3.887,0.686c2.658,0.029,2.172-0.343,3.887-0.686c0.943-0.2,1.857-0.086,2.486-0.572
	c0.742-0.57-0.486,0,0.742-0.543c0.543-0.229,1.172-0.229,1.629-0.514c0.572-0.4,0.516-0.857,1.029-1.344
	c0.801-0.742,1.115-0.686,1.801-1.8c0.6-0.915,0.742-0.515,1.143-1.715c0.029-0.058,0.057-0.144,0.057-0.2l1.916-4.715
	c0.457-1.687,0.857-0.286,0.971-3.516c0.115-3.115,0.229-6.088,0.086-9.174c-0.172-3.973-0.914-5.173-1.086-8.03
	c-0.199-3.087-0.543-2.029-0.971-3.601c-0.23-0.771-0.145-1.229-0.258-1.943c-0.172-1.144-0.285-0.4-1.029-2.287
	c-0.572-1.457-1.457-2.143-1.771-3.771c-0.285-1.715,0-0.744-0.658-1.744c-0.799-1.257-0.199-1.743-1.457-3.086
	C308.815,98.404,308.358,97.003,307.329,96.517L307.329,96.517z"/>
<path fill-rule="evenodd" clip-rule="evenodd" fill="#3A3A39" d="M302.87,55.507l-5.486-5.201
	c-4.602-5.401-12.316-10.946-17.775-15.347c-2.344-1.915-2.258-1.172-3.287-2.058c-0.342-0.286-0.914-0.915-1.4-1.258l-8.314-5.658
	c-0.801-0.486-0.83-0.486-1.773-0.915c-1.314-0.6-2.229-1.629-5.371-2.944c-1.459-0.6-5.688-3.486-7.059-3.829
	c-2.258-0.429-0.457-0.915-4.572-0.915l1.027,1.144c1.373,1.286,9.746,4.944,9.918,5.058c1.428,1,2.771,1.201,4.371,2.429
	c1.686,1.314,2.258,1.172,2.973,1.858l2.943,2.2c2.229,1.115,1.686,1.229,3.029,2l1.43,1c0.199,0.171,0.256,0.171,0.428,0.286
	l0.971,0.743c0.688,0.4,0.4,0.171,1.059,0.629l1.801,1.314c0.285,0.257,0.656,0.457,1.027,0.686l2.715,2.115
	c0.658,0.543,0.516,0.314,1.086,0.657l3.572,3.144c2.916,2.458,3.344,2.544,6.201,5.43l2.486,2.344
	c1.172,1.058,1.172,0.686,1.887,1.485l6.488,6.803c0.314,0.399,0.199,0.428,0.713,0.971c0.172,0.172,0.658,0.543,0.83,0.715
	c0.914,0.887-0.229,0.114,1.543,1.801c1.029,0.972,0.342,1.2,1.742,1.6c0.086-0.143,0.771-0.143,0.172-1.514
	c-0.258-0.658-0.371-0.486-0.742-1C305.558,58.651,303.499,57.193,302.87,55.507L302.87,55.507z"/>
<path fill-rule="evenodd" clip-rule="evenodd" fill="#696B6B" d="M74.506,32.245c1.086,0,1.23-0.115,2.43-1.144
	c2.059-1.771,4.344-2.829,6.373-4.086c0.029,0,0.086-0.057,0.143-0.086c0.029-0.028,0.086-0.057,0.115-0.085l0.256-0.229
	c0.029-0.028,0.086-0.085,0.115-0.114l5.4-3.372c1.258-0.686,0.943-0.915,2.887-0.886c-0.428,1.543-1.258,1.601-3.143,2.658
	c-1.543,0.857-0.629,0-1.916,0.972c-0.428,0.343-0.971,0.686-1.143,0.8c-0.314,0.229-0.029,0.086-0.6,0.4
	c-1.086,0.657-2.771,1.343-3.145,2.601c1.658-0.372,4.545-3.001,6.488-3.887c3.857-1.772,3.199-2.086,6.744-3.486
	c0.828-0.343,2.371-1.486,3.314-1.744c3.344-0.972,0.629-0.257,2.43-1.171l6.258-2.915c1.201-0.372,1.172-0.343,1.686-1.144
	c-1.428-0.2-1.057,0.143-2.143,0.601c-1.887,0.829-5.145,1.8-6.744,3c-0.029,0.029-0.086,0.086-0.143,0.114
	c-0.029,0.029-0.086,0.086-0.115,0.114c-1.457,1.286-1.4,0.429-2.971,1.315c-1.629,0.915-2.973,1.743-4.602,1.743
	c0.543-1.429,1.229-1.343,2.828-2.286c2.658-1.572,3.658-1.543,4.602-2.144c1.344-0.886,3.486-1.629,3.887-1.915l7.316-3.172
	c1.914-0.8,2.057-1.143,3.201-1.343c2.199-0.372,3.57-1.372,7.143-2.115c0.943-0.2,0.857-0.314,1.43-0.629
	c1.057-0.6,1.086-0.229,2.115-0.486c1.715-0.429-1.059-0.257,3.543-1.029c1.486-0.257,0.543-0.2,1.516-0.543
	c0.656-0.229,1.342-0.143,2.057-0.4c0.914-0.286,0.6-0.458,1.457-0.714c0.658-0.172,1.287-0.114,2.145-0.286
	c1.258-0.257,2.199-0.686,3.742-0.829c1.973-0.2,2.172-0.114,3.887-0.743c1.373-0.486,2.486-0.114,3.859-0.657
	c1.113-0.457,2.686-0.372,4.058-0.514c1.4-0.143,2.629-0.515,3.857-0.772c2.029-0.372,14.66-0.972,17.432-1.029l22.32,0.886
	l3.686,0.857c1.287,0.229,2.943,0.172,4.115,0.515c2.688,0.743,4.717,0.457,5.744,0.972c0.973,0.515,5.373,1.343,6.145,1.286
	L201.048,1.98c-2.113-0.257-2.428-0.686-4.771-0.829c-2.887-0.171-7.574-0.229-10.26-0.714c-2.543-0.486-18.662-0.543-21.689-0.286
	l-4.83,0.657c-1.715,0.114-3.486,0.229-5.115,0.429l-9.632,1.515c-1.686,0.2-3.172,0.657-4.658,0.915
	c-2,0.372-7.602,1.2-9.059,1.943l-16.861,5.172c-0.771,0.229-1.4,0.114-2.143,0.515c-1,0.571-0.199,0.486-1.887,0.972l-2.857,1.257
	c-0.428,0.2-0.486,0.314-0.943,0.486c-1,0.372-1.086,0.257-2,0.714c-2.516,1.286-2.4,0.943-5.572,2.658
	c-1.314,0.686-1.172,0.343-1.887,0.772c-1.6,1-3.744,2.343-5.4,3.058c-0.801,0.314-1.145,0.515-1.83,0.857l-12.059,7.516
	C76.336,30.53,74.793,31.53,74.506,32.245L74.506,32.245z"/>
<path fill-rule="evenodd" clip-rule="evenodd" fill="#C8C9C9" d="M327.075,259.014l1.201-1.486c0.4-0.771,0.486-1.114,0.887-1.8
	c1.199-2.029,1.742-3.829,2.57-5.431c0.373-0.714,0.486-0.686,0.916-1.714l2.428-5.287c1.059-1.687,1.715-3.801,2.4-5.573
	l2.115-5.83c0.344-1.829,1.916-5.544,1.943-5.743c0.543-2.688-0.172-0.943,1.143-4.287c0.658-1.687,0.629-2.344,0.973-4.373
	c0.342-2.229,0.828,0.029,1.086-4.144c0.086-1.657,0.428-0.743,0.914-4.173l0.516-2.457c0.027-0.029,0.057-0.086,0.084-0.144
	c0.801-1.571,0.201-3.515,0.771-6.716c0.115-0.743,0.459-1.314,0.572-2.029c0.143-0.771,0.057-1.801,0.115-2.629l0.971-9.402
	l-0.057-21.063c-0.057-1.914-0.629-2.344-0.629-4.602c0-1.771-0.285-3.4-0.314-5.086c-0.057-1.887-0.801-1.744-0.943-3.858
	c-0.086-1.772-0.086-3.515-0.57-4.973c-0.801-2.286-0.857-6.602-1.916-8.688c-0.742-1.457-0.371-2.743-0.914-4.4
	c-0.629-1.973-1.43-4.173-1.744-6.259c-0.143-0.915-1.143-4.487-1.885-5.43c-0.371-0.458,0.027-0.086-0.43-0.458
	c0,1.486,0.029,1.4,0.602,2.458c0.57,1.001,0.398,1.458,0.514,2.601c0.172,1.658,0.457,0.286,0.828,1.915
	c0.229,0.886,0.029,1.886,0.258,2.743c0.258,0.973,0.199,0.372,0.486,0.857c0,0,0.143,0.143,0.285,0.515
	c0.057,0.171,0.086,0.4,0.143,0.601c0.201,0.8,0.43,1.4,0.686,2.172c0.543,1.828-0.143,1.515-0.229,2.371
	c-0.057,0.715,0.629,0.943,1.059,1.63c0.713,1.229,0.398,3.429,0.885,4.944c1.115,3.371,0.229,3.771,0.744,5.058
	c0.398,1.029,0.656,0,0.771,2.087c0.086,1.4,0.4,3.258-0.059,4.543l-0.143,0.344c-0.543,1.486,0.686,1.172,1.086,1.972l0.914,14.204
	c-0.084,3.857,0.516,12.031-0.371,14.975c-0.715,2.314-0.199,4.715-0.57,7.059c-0.344,2.314-0.629,4.115-0.887,6.773
	c-0.113,1.2-0.715,1.629-0.828,2.887c-0.115,1.257,0.027,2.572-0.172,3.829c-0.285,2.086-1,0.571-1,2.687c0,1.686,0,2.2-0.43,3.543
	c-0.314,0.973-0.4,2.001-0.713,2.944c-0.602,1.771-0.344-0.058-0.801,3.058l-2.688,9.031c-0.971,1.571,0.145,0.914-0.914,2.943
	l-3.057,8.573c-0.172,0.371-0.4,1.029-0.602,1.344l-0.199,0.285c-0.029,0.029-0.086,0.086-0.086,0.115
	c-0.543,0.799-0.344,1.028-0.656,1.6c-0.029,0.057-0.059,0.114-0.086,0.143c-1.543,2.258-0.486,1.314-2.029,4.43l-1.973,3.83
	c-0.486,0.715-0.457,0.143-0.686,1.114C328.591,256.243,327.134,257.186,327.075,259.014L327.075,259.014z"/>
<path fill-rule="evenodd" clip-rule="evenodd" fill="#C8C9C9" d="M130.348,367.813c0.172-1.314-0.143-2.371-0.629-3.344
	c-0.258-0.514-1.43-4.602-2.057-5.744c-0.459-0.801-0.688-2.6-0.771-3.516c1.256,0.229,0.855,0.115,2.113,1.658
	c0.715,0.887,0.486,1.344,1.973,3.373l1.514,2.885c0.059,0.287,0.029,0.715,0.059,1.002c1,0.457,0.543-0.314,1.656,1.57l3.572,9.031
	c0.314,0.914,0.086,0.229,0.4,0.801c0.801,1.4,0.199,1.486,0.801,2.572c0.484,0.914,0.428,0.113,0.715,1.629
	c0.342,1.943,0.855,1.828,1,3.744c0.543,6.287,1.113-0.43,1.027,8.23c-0.971,0.656-0.143,0-1.256,0.398
	c-1.029,0.43,0.17-0.285-0.4,0.229l-4.258,1.658c-3.059,0.229-17.52,0.572-19.205-0.285c-2.172-1.115-0.943-0.486-4.314-0.744
	c-2.344-0.199-0.572-0.686-3.83-1c-3-0.285-1-0.457-4.115-1.057c-1.43-0.258-0.457-0.457-3.744-1.172
	c-3.686-0.828-2.629-1.029-3.742-1.543c-0.916-0.4-0.172,0.143-2.402-0.943c-0.484-0.258-0.514-0.199-0.914-0.344
	c-0.943-0.428-0.457-0.428-1.457-0.914l-3.059-1.914c-0.371-0.172-0.371-0.086-0.828-0.4c-3.029-1.973-0.344,0.686-3.486-2.344
	c-0.057-0.029-0.115-0.086-0.143-0.113l-1.516-1.658c-3.086-3.201-2.057-2-1.943-4.516c-0.713,0.229-1.143,0.742-1.285,1.314
	c-0.457,1.543,0.828,1.314,2.973,4.486c0.484,0.715,5.258,4.145,5.801,4.516c0.629,0.371,0.715,0.543,1.344,0.771
	c2.428,1,0.199,0.486,3.029,1.344l3.285,1.371c2.486,1.459,4.029,1.314,5.002,1.801c0.629,0.314,0.686,0.486,1.4,0.686
	c0.484,0.145,1.199,0.172,1.857,0.373c0.742,0.199,0.943,0.457,1.572,0.6l5.6,1.229c3.887,1.201,0.602,0.514,5.717,0.973
	c1.771,0.17,1.629,0.771,3.629,0.771c2.314,0,11.402,0.256,13.289-0.201l7.172-2.086c2.916-1.6,0.973-4.373,0.658-6.486
	l-2.887-10.404c-0.857-3.199-0.428-1.086-1.057-2.57c-0.287-0.658-0.086-0.83-0.771-2.373c-0.258-0.514-0.373-1.115-0.602-1.6
	l-2.172-4.574c-0.256-0.457-0.57-0.941-0.799-1.342c-0.973-1.688-5.859-11.746-8.002-9.459c-1.059,1.143,0.799,4.143,0.914,4.43
	c1.086,2.256,1.344,3.457,2.143,5.887C129.318,365.727,129.576,367.07,130.348,367.813L130.348,367.813z"/>
<path fill-rule="evenodd" clip-rule="evenodd" fill="#C8C9C9" d="M47.729,474.982c1.545-0.801,3.373-3.744,5.145-5.287
	c4.002-3.486,7.744-5.201,12.461-7.432c1.057-0.514,0.428,0,1.799-0.828l10.975-3.801c3.287-1.344,2.258-0.258,4.801-1.486
	c0.287-0.143,0.516-0.199,0.943-0.314c1.686-0.371,2.143-0.828,4.029-0.943c4.602-0.256,0.914-0.629,4.059-1.027
	c1.801-0.23,1.258,0.027,2.742-0.715c1.486-0.715,2.287-0.059,3.402-0.516c0.629-0.256,0.428-0.6,1.457-0.799
	c0.656-0.115,1.629-0.086,2.371-0.201c1.916-0.314-0.314-0.371,4.115-0.857c0.744-0.086,1.145-0.314,1.857-0.57
	c1.314-0.43,2.744-0.4,3.973-0.857l8.402-1.543c3.4-0.572,2.457-0.857,4.145-0.973c2.143-0.113,2.543-0.285,4.143-0.742l8.26-1.658
	c1.742-0.543,3.828-1.4,5.801-1.658c1.43-0.199,0.771-0.143,1.801-0.6c0.857-0.371,1.258-0.285,2.172-0.514
	c1.027-0.258,0.686-0.373,1.742-0.658c0.516-0.143,1.486-0.285,2.001-0.428c0.801-0.258,0.971-0.543,1.6-0.744l3.887-1.199
	c1.314-0.344,2.715-0.744,3.715-1.172l6.83-3.287c-3.715,0.029-1.057,0.686-3.971,1.285c-1.086,0.229-2.744,1.145-3.516,1.486
	l-11.688,3.516c-1.029,0.115-1.029,0.199-1.742,0.543c-1.115,0.6-1.002,0.285-1.973,0.543c-1.258,0.344-0.314,0.486-1.857,0.744
	c-1.943,0.342-1.771,0.057-4.086,0.771c-0.602,0.199-1.201,0.285-1.887,0.514c-3.029,0.914-3.145,0.629-4.145,0.914
	c-1.572,0.457,0.686,0.344-3.715,0.943c-1.629,0.199-1.371,0.4-2.086,0.629c-0.572,0.199-1.6,0.285-2.258,0.285
	c-3.229,0.115-1.973,0.629-3.857,0.973c-1.572,0.285-3.373,0.057-4.715,0.486c-3.344,1.143-3.572,0.342-5.059,1.143
	c-1.857,0.971-1.801,0.113-2.916,0.742c-1.086,0.572,0.287,0.543-1.801,0.658c-0.828,0.027-1.457,0-2.314,0.113
	c-3.258,0.4-1.6,0.43-3.029,0.857c-0.314,0.086-0.742,0.115-1.086,0.143c-0.514,0.059-1.6,0.059-2.229,0.201
	c-1.086,0.199-0.742,0.371-1.658,0.656c-1.086,0.314-3.314,0.373-4.543,0.629c-2.314,0.486-3.059,1.201-3.373,1.344
	c-0.799,0.344-1.543,0.086-2.428,0.285c-1.857,0.43,0.342,0.287-1.572,0.857c-0.6,0.172-1.457,0.059-2.115,0.314
	c-0.801,0.287-0.314,0.486-1.6,0.715c-1.115,0.201-1.4-0.029-2.258,0.457c-0.973,0.572-0.314,0.4-1.801,0.658
	c-1.199,0.199-0.914,0.229-1.771,0.629c-0.914,0.428-1.172,0.256-2.059,0.457c-1,0.285-0.229,0.486-1.6,0.885
	c-2.973,0.887-5.887,2.344-8.545,3.801c-0.885,0.486-1.258,0.145-1.914,0.602c-0.973,0.656-0.314,1.027-2.229,1.656
	c-0.857,0.258-0.543,0.172-1.258,0.857l-1.602,1.258c-1.143,0.857-3.113,2.486-3.801,3.545
	C49.129,473.152,48.102,472.725,47.729,474.982L47.729,474.982z"/>
<path fill-rule="evenodd" clip-rule="evenodd" fill="#C8C9C9" d="M66.676,464.465c2.316-0.314,2.287-0.887,3.715-1.314l3.658-1.115
	c0.857-0.229,0.744-0.428,1.688-0.686c0.629-0.199,1.4-0.258,2.027-0.486c1.744-0.627,1.086-0.686,3.83-0.885
	c0.258-0.857-0.57-0.686,2.314-0.973c2.029-0.199,1.229-0.428,2.314-0.771c1.287-0.457,1.287,0.059,2.658-0.686
	c0.943-0.486,1.658-0.715,2.4,0.029c0.258-0.572,0.172-0.344,0.686-0.629l1.459-0.715c0.314-0.057,0.428-0.057,0.742-0.086
	c2.258-0.113,1.314,0.371,3.059-0.686c1.172-0.715,3.543-0.229,4.629-0.715c3.172-1.428,2.373-0.4,4.516-0.885
	c1.314-0.314,0.285-0.486,1.828-0.744c0.857-0.172,1.658-0.113,2.344-0.342c0.715-0.23,1-0.516,1.83-0.629
	c0.799-0.115,1.742-0.029,2.486-0.314c0.914-0.344,0.313-0.516,1.971-0.629c1.943-0.172,3.059-0.059,4.629-0.744
	c1.344-0.57,2.773-0.285,4.373-0.943c2.059-0.828,5.402-0.457,8.975-1.771c0.914-0.342,0.742-0.57,1.941-0.715
	c1.002-0.084,1.572,0.115,2.287-0.313c0.971-0.572-0.4-0.145,0.887-0.543c1.4-0.459,1,0.371,4.43-0.916
	c1.771-0.656,2.229,0.059,3.742-0.857c1.229-0.771,1.43-0.199,3.487-1.143c1.027-0.457,1.229-0.229,2.258-0.486
	c1.143-0.256-0.258,0.115,0.514-0.172c2.771-0.941,3.4-1.656,5.629-1.742c0.459-1.314-0.17-0.514,1.43-0.973
	c1.629-0.484,0.229-0.514,1.887-0.914c3.057-0.742,0.113,0.057,2.371-0.943c0.457-0.199,0.201-0.057,0.6-0.17
	c2.088-0.572,0.373-0.314,1.715-0.857l2.744-1.172c3.314-1.459,3.688-2.086,6.602-4.029l4.771-3.945
	c0.258-0.229,0.23-0.172,0.4-0.342c0.83-0.916,2.801-3.088,2.744-4.002c-1.172,0.486-0.572,0.457-1.6,1.287
	c-1.002,0.799-0.43,0.143-1.172,1.229c-0.801,1.199-1.83,1.629-2.658,2.457l-2.658,2.4c-1.629,1.4-7.4,4.688-9.344,5.43
	c-1.201,0.43-0.658-0.143-1.887,0.744c-1.371,1-0.828-0.115-2.629,1.029l-2.486,1.143c-0.801,0.342-1.314,0.172-2.086,0.6
	c-1.258,0.686-0.086,0.4-1.543,0.828l-7.688,2.258c-0.656,0.258-0.801,0.543-1.629,0.688l-18.09,4.229
	c-4,1.201-1.057,0.344-4.314,0.857c-1.572,0.258-2.172,0.828-3.943,0.943c-2.086,0.143-2.373,0.428-4.174,0.828
	c-1.342,0.314-2.686,0.543-4,0.83c-3.516,0.742-4.688,1.113-8.26,1.6c-1.17,0.143-2.371,0.828-3.971,1.057
	c-1.115,0.145-1-0.057-2.115,0.373c-2.172,0.799-1.086-0.258-4.115,1c-0.828,0.342-1.086,0.285-2.086,0.4l-9.688,2.6
	c-0.771,0.258-1.314,0.172-2.059,0.4c-0.742,0.199-1.057,0.572-1.801,0.801c-0.656,0.229-1.457,0.256-2.057,0.428
	c-0.857,0.229-0.771,0.344-1.715,0.658l-5.43,2.029C69.076,462.922,67.191,463.521,66.676,464.465L66.676,464.465z"/>
<path fill-rule="evenodd" clip-rule="evenodd" fill="#909092" d="M178.843,382.045c-0.484-1.629-2.172-2.715-3.285-3.744
	c-0.543-0.514-0.658-0.514-0.715-1.486c-1.344-0.057-0.971-0.027-1.629-0.771c-0.543-0.656-0.457-0.514-1.143-1.029l-0.543-0.484
	c-0.029-0.029-0.059-0.086-0.115-0.115c-0.258-0.285-0.143-0.172-0.457-0.457l-0.4-0.344c-1.172-1.086,0.6,0.145-1.057-0.799
	l-0.314-0.201c-0.057-0.027-0.115-0.057-0.172-0.086c-0.371-0.229-0.371-0.256-0.715-0.484l-2.428-1.943
	c-0.4-0.314-0.145-0.086-0.43-0.314c-0.027-0.059-0.086-0.086-0.113-0.143c-1.258-1.145-0.344-0.43-1.43-0.887l-6.115-3.857
	c-0.658-0.344-0.943-0.543-1.43-0.771c-3.344-1.658-1.914-1.4-4.486-2.344c-0.914-0.314-0.428-0.373-1.314-0.801l-13.003-6.602
	c-0.057-0.029-0.113-0.057-0.143-0.086c-1.658-1.086-1.344,0.143-3.373-1.029c-1.229-0.686-3.342-1.057-4.686-1.742
	c-0.229-1.145,0.027-2.172,0.314-3.258c0.57-2.23,0.199-0.801,0.4-2.916c2.199-0.57,7.258,1.658,8.857,1.744l9.23,1.771
	c1.744,0.314,3.372,0.113,5.001,0.572c2.773,0.742,11.775,0.885,14.832,1.172c7.545,0.656,13.518,0.113,20.805-0.4
	c3.859-0.258,6.574-0.115,10.088-0.801c1.602-0.314,3.459-0.285,4.945-0.486c0.457-0.057,3.857-0.656,4.057-1.172
	c0.059-0.113,0.172-0.086,0.229-0.143c-1.686-0.086-3.771,0.344-5.029,0.744l-14.717,1.428c-4.943,0.229-26.721,0.543-31.264-0.686
	c-0.973-0.258-3.545-0.314-4.859-0.457l-9.372-1.371c-2.688-0.857-7.088-1.316-8.631-1.943c-1.457-0.629-2.801-1.002-4.629-0.459
	c-0.658,0.486-1.316,6.145-0.629,6.945c0.828,0.943,7.688,3,9.002,3.83c0.543,0.342,2.629,1.057,4.973,2.285
	c2.143,1.145,4.486,2.201,6.629,3.316c3.915,2.029,6.286,3.572,9.517,5.373l5.688,3.828c1.543,1.373,0.713,0.371,1.914,1.201
	l9.402,8.059C177.071,380.674,177.587,381.531,178.843,382.045L178.843,382.045z"/>
<path fill-rule="evenodd" clip-rule="evenodd" fill="#C8C9C9" d="M13.007,233.208c0.086-0.485,0.172-0.428,0.057-1.028
	c-0.143-0.972,0.458,0.972-0.113-0.399c-0.486-1.229-0.572,0.457-0.572-2.43c-0.742-0.629,0.4,1.058-0.285-0.543
	c-1.144-2.743-0.201-1.858-1.4-4.001c-0.658-1.2,0.371-0.715-1-3.801l-1.144-3.63c-0.058-0.257-0.028-0.343-0.114-0.628
	c-0.515-2.344-0.4-0.258-1-4.802c-0.086-0.515-0.086-1.028-0.172-1.515c-0.371-2.486-0.429,0.743-0.886-4.087l-0.343-1.943
	c-0.2-0.886,0.028-0.028-0.229-0.771c-0.887-2.4-0.286-7.03-0.943-8.944c-0.914-2.858-0.686-5.773-0.657-9.375l0.085-4.4
	c-0.199-0.6-0.314-0.029-0.485-1.143c-0.229-1.201,0.2-1.83,0.229-2.944l0.229-16.204c0.143-6.83,0.342-3.486,0.857-5.715
	c0.313-1.458,0.085-4.688,0.256-6.402c0.172-1.457,0.516-1.086,0.772-2.43c0.171-0.771,0.171-2.2,0.286-3.114l1.086-3.858
	c1.028-1.887,0.399,0.258,0.6-0.743c0-1.144-0.143-2.286,0.314-3.2c0.715-1.486,0.6-0.344,0.715-2.602
	c0.229-3.629,1-0.257,1.171-5.572c0.114-2.543,0.458-1.114,0.943-2.543c0.399-1.201,0.286-1.516,0.8-2.688
	c0.457-1.028,0.2-1.485,0.771-2.543c0.43-0.771,0.801-1.829,0.572-2.801c-0.771-0.114-0.429,0.2-0.715,1.201l-1.2,3.172
	c-0.485,0.686-0.399,0.285-0.571,1.429l-1.973,6.544c-0.399,2.258-0.857,4.716-1.714,6.83c-0.485,1.172-0.172,2.572-0.601,3.802
	c-0.6,1.687-0.457,1.515-0.771,3.515l-0.486,1.258c-0.771,1.457-0.399,4.373-0.714,6.029c-0.457,2.688-0.915,4.973-0.915,7.773
	c-0.027,3.63-0.8,2.83-0.742,7.745c0.057,4.744-0.344,17.233,0.057,21.463l0.601,3.715c0.171,1.858,0.2,6.373,0.628,7.831
	c0.887,2.886,0.43,3,0.715,5.943c0.115,1.287,0.143,0.601,0.572,1.516l1.371,7.201c0.114,2.801,2.086,7.345,2.801,9.945l1.029,3.258
	c0.314,0.887,0.742,2.544,0.942,3.43C12.064,231.436,11.978,232.494,13.007,233.208L13.007,233.208z"/>
<path fill-rule="evenodd" clip-rule="evenodd" fill="#909092" d="M282.952,134.726c-0.314-0.942,0.029-0.256-0.543-0.971
	c-0.086-0.172-0.428-0.457-0.572-0.629l-8.516-13.261c-0.971-2.229-1.229-2.114-2.086-5.173c-0.285-1.028-0.4-0.714-0.742-1.686
	l-1.201-3.572c-0.543-3.258-0.801-2.258-1.029-3.772s-0.113-3.029-0.543-4.401c-1.6-5.059-0.285-11.803,1.602-16.719
	c0.342-0.914,1.371-2,1.971-2.771c1.486-1.973,1.086-1.887,3.373-1.915c0.6-1.687,0.771-0.114,1.771-1.829
	c1.658-0.028,4.258-0.4,5.602,0.2c1.258,0.601,0.428,0.829,2.344,1.2l1.715,0.429c2.143,0.343,0.713-0.028,2.943,1.315
	c0,0,0.799,0.57,0.828,0.6l0.857,0.6c2.543,1.772,4.887,3.459,6.688,6.202l0.428,0.515c0.029,0.028,0.086,0.086,0.115,0.113
	l4.887,6.002c0.027,0.029,0.086,0.086,0.113,0.143c0.201,0.229,0.115,0.172,0.314,0.4c0.201,0.229,0.543,0.543,0.686,0.715
	c0.172,0.257,0.258,0.543,0.4,0.8c0.344,0.629,0.314,0.458,0.572,0.915l6.201,13.832l1.086,4.572
	c0.514,4.858,0.857,2.086,0.971,4.83c0.201,3.887-0.057,7.973,0,11.859l0.459-1.143c0.398-1.658,0.17-7.745,0.17-9.488
	c-0.027-1.658-1.199-8.174-1.742-9.517c-1.373-3.544-2.029-6.059-3.715-9.831c-0.543-1.143-0.516-0.572-1.059-1.801l-5.258-8.688
	c-0.057-0.057-0.258-0.143-0.314-0.2c-0.371-0.286,0.086,0.229-0.342-0.286c-0.4-0.514-0.887-1.943-2.916-4.115
	c-3.543-3.715-7.631-7.688-12.545-9.573c-5.803-2.173-12.203-2.229-15.947,3.458c-0.486,0.771-0.629,0.943-0.971,1.715l-0.314,0.656
	c-0.029,0.058-0.059,0.115-0.086,0.144c-1.229,1.943-0.258,1.515-1,3.43c-1.029,2.601-0.857,3.886-0.887,7.259
	c-0.027,5.229,0.572,7.802,1.371,12.546c0.201,1.314,0.4,0.429,0.744,1.743c0.229,0.828,0.143,1.457,0.457,2.258
	c0.771,1.943,0.801,2.887,1.4,4.172c0.4,0.801,0.486,1.857,1.771,3.801c0.344,0.543,0.686,1.115,1.086,1.744
	c0.6,0.972,0.172,1.371,1.973,3.629c0.428,0.543,0.656,1.115,1,1.658l4.629,6.487C281.866,134.298,281.866,134.441,282.952,134.726
	L282.952,134.726z"/>
<path fill-rule="evenodd" clip-rule="evenodd" fill="#C8C9C9" d="M135.863,362.184c0.057,0.057,0.113,0.143,0.143,0.199
	c0.914,1.314,1.686,3.229,2.172,3.658c0.057-1.629-2.715-5.486-3.059-6.574c-0.428-1.256-0.686-0.627-1.086-2.143
	c1.486-0.086,1.201,0.029,2.172,0.572l17.634,8.945c0.57,0.314,0.428,0.199,1,0.457c1.057,0.428,0.656,0.543,1.572,1.086
	c0.084,0.027,0.256,0.143,0.342,0.172l1.973,1.371c0.713,0.543,1.086,0.428,1.828,0.885l9.059,6.889
	c0.658,0.514,1.029,0.629,1.602,1.086c1.342,1.057,1.457,1.887,2.658,2.887c0.057,0.027,0.113,0.057,0.143,0.086l0.857,0.885
	c0.027,0.029,0.057,0.086,0.086,0.115c0.914,1.086,0.855,0.514,1.514,1.342l3.457,4.574c0.602,0.543,0.83,0.799,1.201,1.484
	c0.428,0.715,0.887,1.029,0.943,1.773c0.113,1.143-0.43,0.941-0.4,2.029c1.086-0.115-0.514-0.201,1.486-0.543l1.113,2.57
	c0.43,0.887,0.373,0.172,0.715,1.287l1.059,4.314c0.057,0.543,0.057,1.145,0.229,1.629c0.371,0.943,0-0.143,0.629,0.83
	c0.17,1.6,0.17,3.943,0.057,5.572c-0.057,1.457-0.201,1.086-0.543,2.029c-0.629,1.686-0.057,4.059-3.314,8.744
	c-1.602,2.314-0.943,1.771-1.373,2.545l-8.516,7.287c-1.143,0.6-1-0.029-1.514,1.457c2-0.457,8.887-6.287,10.4-8.201l4.26-7.26
	c0.17-0.686,0.199-1.285,0.342-1.887c1-3.744,1.287-8.859,0.486-12.402c-0.172-0.771-0.43-1-0.6-1.801
	c-0.43-2.258-1.4-4.229-2.572-6.486c-0.287-0.572-0.4-0.602-0.857-1.373l-1.715-2.887c-1.715-2.828-3.83-5.143-6.115-7.486
	l-2.287-2.287c-3.543-3.771-3.857-3.344-7.572-6.23c-2.373-1.828-5.572-3.629-6.717-4.658c-1.199-1-1.914-1.314-3.229-2.057
	l-10.802-5.658c-0.83-0.373-0.059,0.027-0.771-0.457l-5.516-2.486c-1.916-0.887-1.201-0.857-2.086-1.201l-1.602-0.629
	c-0.715-0.344-0.857-0.344-1.715-0.199c-0.342,2.199,0.314,2.057,1.145,3.371C134.891,360.555,134.949,361.154,135.863,362.184
	L135.863,362.184z"/>
<path fill-rule="evenodd" clip-rule="evenodd" fill="#C8C9C9" d="M338.794,119.466c-0.145-1.602-0.744-3.315-1.316-4.688
	l-2.943-6.916c-0.57-2-1.4-3.771-2.285-5.602l-1.371-2.429c-0.23-0.485-0.287-0.886-0.545-1.429
	c-1.629-3.344-3.199-5.744-4.857-8.917c-0.4-0.829-1.115-1.571-1.629-2.458c-0.914-1.571-1.457-2.943-2.828-4.915l-3.115-4.63
	c-0.086-0.057-0.172-0.114-0.201-0.143c-0.057-0.029-0.143-0.086-0.199-0.143c-1.715-1.4-0.973-3.001-4.201-5.802l-1.686-1.258
	c-2.688-1.485,0.656-0.771-3.631-5.229L290.64,47.134c-1.285-1.287-1.115-0.458-1.686-1.172c-0.086-0.143,0.342,0.514-0.143-0.314
	c-0.029-0.029-0.059-0.115-0.086-0.143c-0.943-1.516-0.887-0.4-2.545-2.145c-0.027-0.057-0.057-0.113-0.113-0.143l-2.059-1.743
	c-0.398-0.343-0.543-0.514-1.229-0.743c0.543,1.315,0.686,0.829,1.744,1.915c0.771,0.8,0.172,0.571,1.285,1.314l0.457,0.286
	c2.801,1.828,0.43,0.514,3.172,2.658c0.744,0.57-0.027,0.285,2.145,1.943l3.973,3.771c1.113,0.629,1.086,0.629,2,1.629
	c1.629,1.771,1.371,1.744,2.229,2.887c0.43,0.543,0.457,0.4,0.943,0.715c0.057,0.028,0.115,0.057,0.172,0.086l0.885,0.8
	c1.145,1.343,1.314,2.4,2.172,3.114c1.857,1.544,1.83,1.373,3.602,3.459c0.285,0.343,0.428,0.629,0.715,0.971l0.857,1.144
	c0.199,0.429,0.514,2.401,0.57,3.001c3.115,0.571,3.516,2.543,4.145,3.086c1.572,1.344-0.229-0.914,1.715,1.943l3.486,5.088
	c0.199,2.229,0.4,1.172,0.801,2.715c0.686-0.314,0.398-0.2,1.314-0.172c0.027,0.943,0.086,1.743,0.457,2.286l3.344,5.145
	c1.258,1.8,1.371,2.257,1.686,3.972c0.258,1.4,0.514,0.715,1.43,1.857c0.857,1.115-0.543-0.057,0.885,1.029
	c0.6,0.457-0.314,1.058,0.887,2.458c0.828,0.972,3.143,5.915,3.457,7.059c0.344,1.229,0.287,0.543,0.715,1.372
	c0.344,0.629,0.258,0.943,0.486,1.486c0.229,0.514,1.371,2.086,1.801,3.973c0.229,0.971,0.199,0.686,0.543,1.371
	c0.313,0.6,0.256,0.715,0.484,1.372l0.83,2.144C338.507,119.409,338.222,119.066,338.794,119.466L338.794,119.466z"/>
<path fill-rule="evenodd" clip-rule="evenodd" fill="#909092" d="M101.971,404.451c0.256,0.57-0.715,0.113,0.771,0.742
	c0.285,0.113,0.629,0.172,1,0.258l8.059,1.971c0.828,0.229,1.371,0.115,2.229,0.229c1.172,0.143,0.943,0.344,2.115,0.572
	c2.914,0.572,4.344,0.371,6.859,0.629c5,0.486,3.143,0.715,9.658,0.543c1.887-0.029,2.688-0.514,4.344-0.686
	c3.145-0.287,1.83,0.057,4.287-0.857c0.801-0.287,1.514-0.172,2.285-0.43l3.344-1.686c0.658-0.43,0.83-0.486,1.4-1
	c1.858-1.658,2.573-2.029,3.087-2.715l0.715-1.172c0.314-0.973,0.371-3.572,0.086-4.658l-2.172-2.801
	c-2.116-1.83-3.144-1.516-4.601-2.43c-0.314-3.943-1.002-5-1.145-7.002l-1.686-6.344c-0.486-1.029-0.742-1.744-1.172-2.857
	c-0.285-0.744-0.199-0.572-0.457-1.43l-1.658-4.516c-0.543-1.629-0.256-0.486-0.914-1.486c-0.285-0.428-0.172,0.43-0.229-1.285
	c-0.486-0.43-1.258-2.344-2.172-3.658c-0.029-0.057-0.086-0.143-0.143-0.199c0.113,0.971,0.229,1.857,0.514,2.371l0.857,1.572
	c0.201,0.371,0.172,0.172,0.457,0.742l3.715,9.773c0.459,0.916,0.344,1.059,0.688,2.115c0.256,0.887,0.428,0.4,0.713,1.629
	c0.145,0.602,0.086,1.602,0.314,2.145c0.373,0.885,0.516,0.057,0.688,1.656c0.285,2.344-0.115,2.43,0.771,4.316
	c0.627,1.342,0.084,2.457,1.057,3.715c2.6,0.344,1.887,0.172,3.516,1.344c1.056,0.742,1.515,1.686,2.058,2.742
	c2.457,4.859-5.146,9.832-9.146,10.803c-0.658,0.172-1.457,0.229-2.143,0.373c-1.059,0.285-0.629,0.457-1.715,0.627
	c-0.602,0.086-1.543,0.086-2.172,0.145c-6.545,0.428-7.975,0.143-14.033-0.029c-3.629-0.115-2.57-0.543-3.715-0.771
	c-1.371-0.285-3.143-0.057-4.686-0.371C111.686,406.65,103.057,404.365,101.971,404.451L101.971,404.451z"/>
<path fill-rule="evenodd" clip-rule="evenodd" fill="#C8C9C9" d="M130.834,369.785c0.143,2.4,0.57,4.43,0.857,6.486
	c0.428,2.773,0.941,5.029-1.744,4.801c-0.258-1.514-0.057-2.885-0.113-4.4c-0.029-1.771-0.658-1.457-0.857-3.344l-2.316-8.574
	c-0.484-0.914-0.398-0.285-0.6-1.6l-3.658-9.117l-1.314-0.027c-1.057,1.629-0.971,2-0.943,4.543l-0.656,10.088
	c-0.258,1.459-0.658,2.602-0.686,4.574c0.113,1.4,0.172,2.656-0.973,2.914c-2.4,0.543-1.086-4.115-0.971-5.516
	c0.143-1.285,0-2.516,0.143-3.857c0.086-1.059,0.457-1.973,0.572-2.943c0.057-0.543,0.6-9.461,0.371-10.117
	c-0.201-0.629,0.113-0.344-0.486-0.715v4.857c-0.229,1.572-0.029,0.23-0.428,1.258c-0.715,1.973-0.145,10.117-0.83,12.432
	c-0.742,2.572-0.943,3.316,0.543,5.373c3.459,0.172,2.115-1.428,2.801-3.943c0.744-2.572,0.6-2.83,0.744-5.945
	c0.229-5.83,0.057-2.029,0.742-5.602c0.371-2.027-0.086-4.344,0.285-6.229c1.486,0.17,1.172,0.914,1.857,2.172
	c0.572,1.086,0.4,1.943,1.029,3.115c0.314,0.543,0.314,0.771,0.543,1.314c0.4,0.914,0.486,0.514,0.715,1.457
	c0.885,3.658,0.428,1.285,1.086,3.314c0.4,1.287,0.771,1.344,0.971,2.973c0.086,0.572,0.115,1.4,0.229,1.801
	c0.201,0.857,0.373,0.857,0.516,1.572c1.314,6.029-1.771,8.887,3.4,8.887c0.686-1.086,1.4,0.371,0.828-5.086
	c-0.229-2.287,0.115-3.316-1.057-4.602c0-0.143,0.029-1.201,0.029-1.229C131.234,369.842,131.463,370.299,130.834,369.785
	L130.834,369.785z"/>
<path fill-rule="evenodd" clip-rule="evenodd" fill="#783695" d="M105.084,394.105l0.688,0.484c3.199,1.801,2.371,0.287,4.514,1.316
	c1.43,0.686,4.088,0.828,5.916,0.941c1.43,0.086,1.486,0.344,2.801,0.572c1,0.172,2.086,0.029,3.172,0.143
	c9.545,0.857,5.887,0.057,12.66,0c1.201,0,1.943-0.113,3.115-0.199c1.258-0.115,0.371,0,1.172-0.43
	c1.514-0.828,0.715,0.143,2.143-0.971c3.316-2.602,7.916-1.43,7.631,3c-0.086,1.287,0.027,0.658-0.457,1.258
	c-3.943,4.943-11.061,5.887-17.49,5.973l-10.002-0.258c-1.314-0.199-1.258-0.457-2.572-0.57c-2.4-0.201-3.744-0.4-5.771-0.943
	c-0.973-0.258-1.973-0.201-2.973-0.486c-1.201-0.314-1.086-0.486-2.686-0.629c0.855,1.229,3.285,1.229,5.457,1.83
	c1.715,0.484,4.172,0.6,5.916,0.914c7.115,1.371,21.719,1.715,28.291-3.029l0.688-0.514c3.114-2.486,2.4-5.975,1.314-7.146
	c-3.201-3.486-8.289,0.486-10.402,0.744c-1.373,0.143-1.688,0.057-2.857,0.486c-2.717,1.027-9.518,0.6-12.66,0.457
	c-5.889-0.229-2.744-0.6-5.803-0.857c-5.201-0.457-2.258-0.258-5.914-0.943C109.115,394.904,106.57,394.133,105.084,394.105
	L105.084,394.105z"/>
<path fill-rule="evenodd" clip-rule="evenodd" fill="#C8C9C9" d="M252.403,18.298c1.371,0.343,5.6,3.229,7.059,3.829
	c3.143,1.315,4.057,2.344,5.371,2.944c0.943,0.429,0.973,0.429,1.773,0.915l8.314,5.658c0.486,0.343,1.059,0.972,1.4,1.258
	c1.029,0.886,0.943,0.143,3.287,2.058c5.459,4.401,13.174,9.945,17.775,15.347l5.486,5.201l2.545,2.286
	c0.686,0.629,0.057,0.485,1.086,0.714c-0.314-1.171-0.344-0.742-1.086-1.485c-0.029-0.028-0.086-0.086-0.115-0.114
	c-0.314-0.344-0.113-0.143-0.314-0.429c-0.229-0.314-0.199-0.314-0.514-0.657l-2.658-2.658c-1.457-1.258-3.287-2.543-4.258-4.258
	c-0.572-1.058-1.43-1.43-2.287-2.258c-0.086-0.057-0.457-0.371-0.514-0.457c-0.057-0.029-0.086-0.086-0.143-0.115l-0.457-0.485
	c-0.059-0.028-0.115-0.085-0.143-0.114l-4.973-4.001c-0.887-0.8-0.629,0.286-0.744-1.657c-0.943-0.114-1.742-0.601-2.514-1.144
	l-2.059-1.343c-1.6-1.229-1.344-1.515-4.344-3.572c-3-2.086-2.715-2.83-4.201-3.258c-2.344-0.686-5.459-3.201-7.373-4.772
	l-1.887-1.286c-0.371-0.229-0.686-0.286-1.143-0.572c-0.428-0.257-0.514-0.543-1.086-0.743c-1.801-0.629-1.229-0.572-2.6-1.372
	c-0.801-0.514-1.602-0.628-2.459-1.143c-0.656-0.4-1.971-1.086-2.514-1.372c-0.744-0.372-0.744-0.171-1.229-0.771
	c-0.314-0.343-0.43-0.8-0.771-1.086c-0.516-0.428-2.486-0.371-3.459-0.686L252.403,18.298z"/>
<path fill-rule="evenodd" clip-rule="evenodd" fill="#909092" d="M79.08,372.986c-1.002,0.371-0.258,0.686-1.459,1.027
	c-0.799,0.258-1.172-0.057-2.086-0.113c-1.514-0.115-3.314-0.229-4.229,0.484c-2.201,1.744-4.029,2.916-4.029,5.945
	c0,3.744,0.342,2.115,1.057,4.086c0.486,1.373,3.115,4.316,4.258,5.373c3.83,3.516,1.086,1.086,4.172,3.344
	c2.744,2,2.029,1.115,3.029,1.83c0.744,0.514,0.572,0.514,1.486,0.971c1.629,0.771,1.801,1.4,4.572,2.658
	c0.83,0.371,0.887,0.572,1.516,0.857c1.742,0.828,0.715-0.057,3.514,1.572c0.688,0.4,1.029,0.314,1.744,0.686
	c0.857,0.457,0.486,0.486,1.629,0.771c1.943,0.457,6.344,2.172,7.717,1.973c-0.201-0.43-0.4-0.459-1.287-0.773l-2.344-0.656
	c-0.027-0.029-0.113-0.057-0.143-0.086c-2.172-1.115-1.686-0.344-3.201-0.914l-2.656-1.201c-2.059-1.086-1.373-0.514-3.943-1.686
	c-4.316-1.973-6.488-3.773-8.146-4.629c-1.857-0.943-0.799-0.059-3.428-2.115c-2.23-1.771-1.459-0.602-4.145-3.43
	c-0.658-0.686-1.143-1.287-1.744-2.145l-1.342-1.514c-1.83-2.4-0.172-0.973-1.344-2.516c-0.828-1.113-0.457-3.43-0.457-3.43
	c1.029-1.113,0.572-1.713,2-2.799l1.973-1.516l3.715-0.514c1.029,0.113,0.629,0.629,2.229,0.713c0.543-0.057,0.83-0.6,1.744-1.4
	c2.285-2.027,4.258-5.143,5.943-6.658c1.516-1.344,1.457-1.742,3.344-2.943l13.031-10.174c0.715-0.428,0.371-0.285,0.801-0.658
	c1.314-1.143,0.914,0.201,1.771-1.428c-0.914,0.229-1.4,0.543-2.086,1.115c-0.857,0.686-0.771,0.514-1.744,1.143
	c-4.543,2.771-15.316,12.088-18.461,15.889c-0.543,0.658-0.742,1-1.314,1.572C79.793,372.672,79.965,372.613,79.08,372.986
	L79.08,372.986z"/>
<path fill-rule="evenodd" clip-rule="evenodd" fill="#C8C9C9" d="M236.913,340.035c2.43,0.428,0.715-0.572,2.459-0.83l9.486-3.543
	c1.201-0.771,1.172-0.344,2.516-0.771l2.143-0.914c1.172-0.688-0.027-0.857,2.287-1.029c0.342-1.115,0.686-0.715,1.6-1.172
	c0.516-0.258,0.801-1.086,2.201-0.514c0.027-1.002,1.543-1.23,2.229-1.773l2.344-1.742c0.914-0.543,1.543-1.172,2.457-1.629
	c1.83-0.943,1.857-1.43,2.943-0.801c0.373-0.686-0.086-0.4,0.373-1l1.314-0.914c0.686-0.43,0.686-0.344,1.543-0.344
	c1.229-2.143,0.715-1.457,2.914-2.229l0.887-0.543c1.4-1,2.057-2.23,3.285-3.002c0.373-0.229,0.459-0.17,0.857-0.371l0.715-0.629
	c0.771-0.885,0.973-0.771,1.715-1.486l2.943-2.371c0.43-0.371,0.143-0.143,0.686-0.486c0.744-0.486,0.201-0.086,0.857-0.656
	c0.314-0.258,0.258-0.229,0.658-0.516l6.029-5.115c0.686-1.029,0.201-0.057,0.4-1.057c-1.229,0.428-4.658,3.828-6.658,5.201
	c-0.686,0.486-0.744,0.828-1.486,1.428l-13.375,9.832c-0.57,0.4-1.057,0.857-1.656,1.199c-0.887,0.516-1.029,0.486-1.859,1.086
	c-1.971,1.516-6.486,3.945-9.029,5.488c-1.857,1.086-7.916,4.344-9.66,4.916c-1.027,0.342-0.857,0.514-2.029,0.885l-4.057,1.715
	c-0.771,0.344-1.314,0.457-2.029,0.857C240.372,338.691,237.657,338.605,236.913,340.035L236.913,340.035z"/>
<path fill-rule="evenodd" clip-rule="evenodd" fill="#909092" d="M100.541,330.975c-0.029-0.086-0.086-0.256-0.115-0.229
	l-8.287-4.771c-2.029-1.316-5.973-3.174-8.373-4.945l-3.914-2.629c-1.459-0.943-2.373-2-3.859-2.857
	c-0.457-0.258-1.4-0.828-1.943-1.229l-9.258-7.459c-0.744-0.658-1.059-0.688-1.943-1.688l-1.83-1.971
	c-0.057-0.029-0.113-0.059-0.143-0.086c-0.057-0.029-0.113-0.057-0.172-0.115l-2.801-2.314c-0.713-0.543-1.285-1.086-1.799-1.572
	c-1.486-1.285-2.145-2.6-3.945-4.285l-4.285-4.201c-1.145-1.115-1.801-2.402-2.943-3.572c-1.059-1.059-1.4-1.943-2.287-2.773
	c-0.686-0.629-0.285-0.4-1.143-0.771c0.113,1.258-0.229,0.314,0.6,1.258l12.832,14.061c3,2.943,6.059,5.945,9.316,8.602l4.6,3.602
	c0.373,0.314,0.486,0.486,0.887,0.828l13.174,9.545c0.029,0.029,0.086,0.086,0.115,0.115l3.344,1.943
	c0.398,0.258,0.656,0.344,1.113,0.6l3.943,2.572c1.287,0.543,0.258-0.229,2.316,1.086l0.457,0.285
	c0.885,0.658,0.229,0.486,1.486,0.857C97.398,329.346,98.541,330.633,100.541,330.975L100.541,330.975z"/>
<path fill-rule="evenodd" clip-rule="evenodd" fill="#C8C9C9" d="M79.08,372.986c0.885-0.373,0.713-0.314,1.656-1.287
	c0.572-0.572,0.771-0.914,1.314-1.572c3.145-3.801,13.918-13.117,18.461-15.889c0.973-0.629,0.887-0.457,1.744-1.143
	c0.686-0.572,1.172-0.887,2.086-1.115c0.742-0.516,0.258-0.516,1.258-0.857c1.6-0.543,0.57-0.314,3.029-1.344
	c0.715-0.314,0.6-0.457,1.285-0.686c0.314-0.285,0.258-0.285,0.744-0.543c0.256-0.143,0.229-0.086,0.514-0.229
	c2.287-1.057,1.857-3.658,2.887-5.516c0.514-0.943,0.828-1.287,0.914-2.887l-6.115-2.6c-1.943-0.715-1.314-0.23-1.83-1.029
	c-0.314-0.258-2.656-1-3.887-1.715c-2.285-1.371-0.971-0.4-2.543-1.059l-6.086-3.113c-1.43-0.857-5.688-3.631-7.117-3.744
	c0.201,1.314-0.6-0.314,0.602,0.828l7.258,4.115c0.314,0.201,0.4,0.258,0.744,0.457l11.402,5.287
	c0.027,0.029,0.086,0.057,0.143,0.086l0.57,0.371c1.258,0.572,0.486-0.314,2.658,0.973l3.43,1.514
	c0.029-0.057,0.143,0.059,0.199,0.115c-0.314,0.857-0.713,1.199-1.428,1.686c0.086,0.828,0.086,0.314,0.457,1.201l-0.801,1.457
	c-0.6,3.715-0.686,2.229-3.973,4.059l-1.885,0.943c-2.658,1.4-3.002,1.256-5.572,3.486c-0.486,0.428-0.715,0.314-1.287,0.629
	l-8.83,6.658l-10.26,10.088C80.021,371.471,79.422,371.613,79.08,372.986L79.08,372.986z"/>
<path fill-rule="evenodd" clip-rule="evenodd" fill="#C8C9C9" d="M47.043,293.938l-0.6-0.914c-0.314-0.4-0.258-0.287-0.572-0.629
	c-2.543-2.459-2.086-2.857-3.229-4.029c-3.658-3.744-3.115-3.658-6.002-7.346l-1.086-1.344c-0.199-0.313-0.314-0.543-0.457-0.713
	l-7.917-11.461c-0.742-1.314-2.028-2.686-2.857-4.4c-0.543-1.086-0.4-0.715-0.886-1.516l-1.257-2.372
	c-0.172-0.343-0.2-0.429-0.43-0.8l-0.799-1.601c-0.486-0.857-0.458-0.286-0.943-1.429l-2.373-4.916
	c-0.485-0.828-0.856-2.4-1.857-3.201c0,2.544,1.744,4.345,2.916,6.916c1.629,3.63,1.485,2.544,2.028,3.516
	c0.028,0.057,0.058,0.114,0.086,0.143l1.343,2.602c0.2,0.285,1.771,3.744,3.486,6.201c1.172,1.686,2.229,4.029,3.173,5.373
	c0.286,0.4,0.143,0.199,0.429,0.457c1.2,1.057,0.943,1.973,1.828,3.029l2.344,2.486c0.4,0.486,0.486,0.943,0.887,1.516l3.371,4.4
	c0.029,0.029,0.086,0.086,0.115,0.143l0.57,0.6c1.314,1.258,2.029,2.658,3.373,4.115l1.971,2.43
	c0.029,0.029,0.086,0.086,0.115,0.115c0.914,1.113,1.771,1.6,2.258,2.572L47.043,293.938z"/>
<path fill-rule="evenodd" clip-rule="evenodd" fill="#783695" d="M117.23,342.863c-0.172,1.516-0.629,0.686-1,2.115
	c-0.771,2.887-0.057,3.287,3.086,2.914c2.229-0.256,6.258-0.857,6.773-3.6c-1.744-1.258-4.258-2.23-6.516-2.086
	C117.744,342.293,118.43,342.863,117.23,342.863L117.23,342.863z"/>
<path fill-rule="evenodd" clip-rule="evenodd" fill="#C8C9C9" d="M309.157,289.451c-0.6,1.486-1.027,0.885-1.656,2.457
	c0.914-0.285,1.715-1.143,2.172-1.887c0.914-1.486,0.828-1.514,2.086-1.57c0-1.973-0.143-1.258,1.344-2.773
	c0.627-0.656,0.514-0.914,1.342-1.572c1.973-1.57,0.4-0.857,1.658-2.457l5.486-7.002c0.943-2.143,0.771-1.086,1.744-2.43
	c0.457-0.686,0.086-0.17,0.4-1c0.371-0.971,0.057-0.285,0.57-0.943c1.059-1.371,1.172-2.172,1.916-2.943
	c1-1.029,0.371-0.943,1.17-2.229c2.029-3.258,0.572-2.258,2.373-3.172c0.057-1.658,1.229-3.144,2-4.515
	c0.572-1.001,2.086-3.887,2.029-4.773c-1.086,0.771-1.086,1.058-1.715,2.4l-6.916,12.46c-0.514,0.771-1.143,1.6-1.572,2.258
	l-7.916,11.232c-0.713,0.828-1,1.256-1.686,2.143l-3.43,4.373C309.872,288.307,309.558,288.307,309.157,289.451L309.157,289.451z"/>
<path fill-rule="evenodd" clip-rule="evenodd" fill="#C8C9C9" d="M33.898,71.311l1.885-2.2c0.658-0.887,2.43-3.258,3.344-3.715
	l8.518-9.604c1.799-2.172,3.057-2.771,4.143-4.314l6.23-5.916c0.629-0.6,1.086-0.943,1.658-1.486
	c0.914-0.828,2.715-2.029,3.285-3.144c-1.143-0.114-0.771-0.057-1.4,0.458c-0.229,0.2-0.229,0.314-0.484,0.486
	c-0.629,0.429-0.373,0.143-0.688,0.314c-1.229,0.714,0.373-0.458-0.371,0.286l-0.314,0.399c-0.027,0.058-0.086,0.114-0.113,0.144
	l-3.172,2.457c-1.316,0.771-3.344,3.486-3.658,3.801c-0.602,0.572-1.258,1.201-1.887,1.801c-0.629,0.629-0.258,0.086-0.771,0.801
	c-1.973,2.6-2.715,1.943-3.801,3.743c-0.543,0.886-0.057,0.457-1.086,0.942c-1.516,0.744-0.314,0.543-1.457,2.087
	c-1.029,1.4-0.943,1.657-2.145,2.515l-7.002,8.66C34.068,70.482,34.041,70.225,33.898,71.311L33.898,71.311z"/>
<path fill-rule="evenodd" clip-rule="evenodd" fill="#696B6B" d="M94.396,361.896c1.516-0.543,9.145-7.23,11.402-7.773
	c0.715-0.229,0.629-0.342,1.172-0.686l4.572-2.43c2.801-1.314,2.688,0.486,4.459,1.201c0.799,0.314,1.143,0.029,1.457,0.771
	c0.6,0.371,0.285,0.086,0.486,0.715c0.229,0.656-0.314,9.574-0.371,10.117c-0.115,0.971-0.486,1.885-0.572,2.943
	c-0.143,1.342,0,2.572-0.143,3.857c-0.115,1.4-1.43,6.059,0.971,5.516c1.145-0.258,1.086-1.514,0.973-2.914
	c-0.715,0.857-0.287,1.656-1.4,2.258c-0.172-0.23-0.201-0.201-0.344-0.688c-0.229-0.713-0.172-2.344,0.143-3.371
	c1-3.344,0.086-0.83,0.201-3.201c0.113-2,0.342,0.457,0.543-3.602c0.086-1.314,0-2.572,0.143-3.857
	c0.143-1.457,0.629-1.943,0.629-3.4c0-7.26-0.4-4.059-4.744-7.23c-0.973-0.715-2.744,0.285-4.314,1
	c-0.086,0.029-0.857,0.486-1.201,0.686c-0.572,0.314-0.801,0.43-1.371,0.742l-2.486,1.4c-1.688,1.344-4.23,2.545-5.83,4.088
	C96.826,359.953,94.74,360.811,94.396,361.896L94.396,361.896z"/>
<path fill-rule="evenodd" clip-rule="evenodd" fill="#C8C9C9" d="M31.24,80.285c1.43-0.143,1.372-1.057,2.086-1.829
	c1.029-1.114,1.115-0.601,1.172-2.458c0.971,0.115,0.6,0.058,1.285,0.344c-0.457-1.229-0.342-1.229,0.857-2.516
	c0.629-0.657,0.744-0.571,0.857-1.886c1.029,0,0.658-0.028,1.4,0.257c-0.428-0.686-0.113,0.2-0.484-0.857l0.514-0.371
	c0.057-0.057,0.514-0.229,1.801-2l0.199-0.286c0.371-0.543,0.314-0.687,0.744-1.2c0.686-0.829,0.256,0.086,0.799-0.887
	c1.115-2.029,0.543-1.057,2.373-3.229c0.314-0.372,0.457-0.457,0.799-0.887l2.629-2.943c1.859-2.686,2.945-2.515,3.316-4.229
	c-1.543,0.229-2.172,1.743-3.145,2.715c-2.572,2.572-6.83,7.316-8.916,10.46l-3.6,4.887c-0.83,1-1.486,2-2.287,3.229L31.24,80.285z"
	/>
<path fill-rule="evenodd" clip-rule="evenodd" fill="#696B6B" d="M268.263,114.464c0-1.343-1.715-4.715-1.857-6.487
	c-0.4-5.058-2.514-12.917-0.629-19.233c1.145-3.915,0.201-4.516,3.145-8.116c2.344-2.857,5.287-4.772,9.145-4.801
	c1.029,0,3.4-0.058,4.314,0.143l6.574,2.144c-0.43-0.486-0.029-0.086-0.457-0.429c-1.059-0.829,0.941,0.571-0.314-0.229
	c-0.145-0.086-0.688-0.343-0.857-0.4c-4.174-1.743-7.602-2.544-12.346-1.286l-4.402,2.344c-1.484,1.086-3.771,4.715-4.457,6.43
	c-0.285,0.744-0.172,1.201-0.4,2.001c-1.086,4.144-0.371,2.058-1,5.516c-0.371,2.058-0.029,10.745,0.486,12.203
	C265.835,106.12,266.349,112.779,268.263,114.464L268.263,114.464z"/>
<path fill-rule="evenodd" clip-rule="evenodd" fill="#909092" d="M74.193,317.828c-0.172-0.713,0.285-0.229-0.715-1l-9.945-7.715
	L51.93,298.396c-1.086-0.83-1.086-0.688-1.799-1.744c-0.602-0.943-2.088-2.516-3.115-2.943l0.086,0.857
	c1.342,0.629,0.686,0.656,1.484,1.656l4.744,4.688c2.459,2.258,2.658,3.145,4.002,3.943c1.113,0.658,0.857,0.887,1.686,1.486
	c0.514,0.4,0.43,0.229,0.914,0.543c0.457,0.287,0.486,0.43,0.914,0.801c0.258,0.199,0.459,0.344,0.801,0.629l5.115,4.145
	c1.486,1.199,1.744,1.742,2.715,2.314l0.572,0.4C70.85,315.828,73.449,317.801,74.193,317.828L74.193,317.828z"/>
<path fill-rule="evenodd" clip-rule="evenodd" fill="#C8C9C9" d="M91.281,398.221c-0.256-0.686-0.113-0.43-0.457-0.771l-3.314-1.373
	c-0.057-0.027-0.143-0.057-0.201-0.057c-0.027-0.029-0.113-0.057-0.17-0.057c-1.086-0.486,0.086-0.172-1.029-0.83l-6.801-3.914
	c-2.516-1.201-1.258-0.887-3.486-2.486c-1.287-0.914-1.744-2.258-2.773-3.486c-0.256-0.344-0.57-0.629-0.799-0.887l-0.688-1
	c-0.484-0.742-0.686-0.572-0.771-1.857c-0.086-1-0.199-1.973,0.373-2.658c2.943-3.715,4.943-0.4,6.258-0.428
	c-0.344-0.801-0.857-1.43-1.686-1.916c-3.059-1.715-5.859,2.658-5.945,3.344c-0.086,0.629,0.314,2.115,0.516,2.801
	c0.314,1.086,3.686,5.344,4.172,5.773c0.6,0.6,1.199,1,1.828,1.543c0.543,0.486,1.287,1.029,1.943,1.43l8.203,4.887
	c1.113,0.742,0.686,0.629,2.199,1.086C89.682,397.678,90.139,398.105,91.281,398.221L91.281,398.221z"/>
<path fill-rule="evenodd" clip-rule="evenodd" fill="#C8C9C9" d="M305.899,289.164l1.029-0.742c2.572-2.4,3.115-4.258,5.23-6.344
	c2.172-2.115,1.143-1.688,3.344-4.402c0.371-0.457,0.398-0.4,0.686-0.771c0.143-0.229,0.314-0.514,0.457-0.742
	c0.428-0.658,0.629-0.857,1.115-1.545c2-2.828,0.742-1.027,1.914-3.199c0.742-1.43,3.43-4.803,3.857-6.516
	c-1.572,0.514-0.771,0.713-1.771,1.857l-0.629,1.027c-0.771,1.344-0.285-0.398-1.115,1.486c-0.027,0.059-0.057,0.143-0.084,0.201
	l-0.172,0.314c-0.771,1-0.344-0.457-0.887,1.285c-0.342,1.143,0.115,0.344-0.543,1.201c-0.285,0.342-0.771,0.713-0.914,0.941
	c-0.371,0.572-0.143,0.572-0.486,1.258l-2.973,3.602c-1.285,1.314-0.371,0.6-0.941,1.715l-1.344,1.172
	c-0.887,0.457-0.115-0.314-0.771,0.342c-0.514,0.459-0.686,1.4-1.086,2.029c-0.771,1.23-1.201,0.887-1.516,1.572
	c-0.828,1.801,0.201,0.543-1.229,2C306.472,287.479,306.015,287.936,305.899,289.164L305.899,289.164z"/>
<path fill-rule="evenodd" clip-rule="evenodd" fill="#909092" d="M56.73,49.849l0.744,0.028c0.771-1.429,1.057-0.829,2.857-2.715
	c2.943-3.058,5.945-5.202,9.117-7.802c1.715-1.4,0.285-0.572,3.086-2.458c1.172-0.772,2.229-1.486,3.287-2.287l3.199-2.372
	c2.744-2.201,3.145-1.229,3.459-2.658c-1.543,0.429-3.316,1.515-4.258,2.315c-0.059,0.029-0.115,0.086-0.145,0.114l-1.113,0.857
	c-1.943,1.314-8.059,5.716-9.66,7.23l-4.771,3.944c-0.602,0.543-5.201,4.572-5.658,5.458L56.73,49.849z"/>
<path fill-rule="evenodd" clip-rule="evenodd" fill="#C8C9C9" d="M94.396,361.896c-0.057,0.029-0.371,0.4-0.629,0.6
	c-0.514,0.43-0.4,0.287-0.857,0.629c-1.943,1.486-3.285,3.059-4.6,4.088l-3.002,2.801c-1.057,1.172-1.543,1.629-2.229,2.973
	l-0.199,0.398c0.857,0.059,0.857-0.342,2.57-2.285c0.486-0.516,0.229-0.744,1.115-1.115c1.258-0.514,0.742,0.029,1.887,0
	c0-0.4,0.086-0.258-0.086-0.656l-0.43-0.629l4.115-3.83c1.916-1.371,0.314,0.4,2.43-1.887l1.143-0.828
	c0.543-0.43,0.258-0.6,1.801-1.572c1.059-0.686,1.201-0.885,2.059-1.514c0.371-0.287,0.6-0.457,0.971-0.771
	c0.4-0.4,0.4-0.516,0.828-0.857l0.715-0.516c0.887-0.656,0.744-0.6,1.857-0.686c0.602-1.086-0.256-0.285,0.83-0.971
	c0.857-0.543,0.6-0.115,1.113-1.145C103.541,354.666,95.912,361.354,94.396,361.896L94.396,361.896z"/>
<path fill-rule="evenodd" clip-rule="evenodd" fill="#C8C9C9" d="M13.408,116.408c1.057,0.2,0.771-0.828,1.086-1.886l2.801-6.63
	c1.828-2.916,1.886-4.345,2.314-5.116c1.6-3.001,0.172-2.001,1.801-2.886l0.057-1.83c1.172,0.172,0.429-0.085,1.172,0.458
	c-0.029-0.886-0.515-1.144-0.029-2.144l0.629-0.886c1.115-2.115,0.943-2.286,2.458-4.772l1.028-1.687
	c0.687-0.972,0.457-1.144,1-1.915c0.943-1.429,1.744-2.229,1.83-4.144c-0.058,0.058-0.115,0.086-0.143,0.2L17.58,105.062
	l-3.572,8.803C13.75,114.722,13.378,115.666,13.408,116.408L13.408,116.408z"/>
<path fill-rule="evenodd" clip-rule="evenodd" fill="#909092" d="M33.898,71.311c-0.287,1.001-2.344,2.772-2.831,3.973l-4.115,6.259
	c-0.342,0.629-0.229,0.457-0.686,1l-1.4,2.172c-0.656,2.086-1.715,2.258-1.8,4.029c0.8-0.4,1-0.943,1.257-1.429
	c0.143-0.314,0.258-0.515,0.43-0.8l0.399-0.801c0.571-1.086,0.657-0.514,1.028-1.258c0.43-0.885,0.086-1,1.4-2.543
	c0.029-0.028,0.086-0.086,0.115-0.114c1.086-1.229,1.715-2.715,2.143-3.372l2.058-2.801c2.601-3.516,2.714-4.145,6.144-8.402
	l0.83-1.2c0.285-0.571-0.115,0.515,0.256-0.628c-0.914,0.457-2.686,2.828-3.344,3.715L33.898,71.311z"/>
<path fill-rule="evenodd" clip-rule="evenodd" fill="#909092" d="M117.23,342.863c1.199,0,0.514-0.57,2.344-0.656
	c2.258-0.145,4.771,0.828,6.516,2.086c-0.516,2.742-4.545,3.344-6.773,3.6c-3.143,0.373-3.857-0.027-3.086-2.914
	C116.602,343.549,117.059,344.379,117.23,342.863L117.23,342.863z M117.23,342.863c-0.887,0.172-0.057-0.543-1.029,0.715
	c-0.656,0.828-0.914,3.172-0.914,4.258c2.201,1.457,3.287,1.4,6.916,0.314c2.258-0.715,4.314-1.686,4.715-3.973
	c-1.486-1.027-2.201-1.801-4.457-2.314C120.773,341.492,117.744,341.092,117.23,342.863L117.23,342.863z"/>
<path fill-rule="evenodd" clip-rule="evenodd" fill="#909092" d="M292.325,142.214c0.371,1.029,0,0.343,0.658,0.886
	c0.857,0.657,3.115,1.258,4.143,1.486c1.973,0.457,0.4,1.028,5.631,0.886c1.887-0.057,4.715-1.457,6.145-2.658
	c1.885-1.629,4.543-6.688,4.371-8.859c-0.17,0.115-0.6,0-0.971,1.372c-0.686,2.772-0.201,0.829-1.143,3.229l-1.744,2.601
	c-0.543,0.629-0.344,0.601-1,1.172l-4.23,2.315c-0.656,0.342-0.627,0.314-1.656,0.342c-3.801,0.115-2.543-0.229-3.545-0.628
	c-1.314-0.571-2.172,0-4.943-1.63C293.325,142.3,293.497,142.243,292.325,142.214L292.325,142.214z"/>
<path fill-rule="evenodd" clip-rule="evenodd" fill="#909092" d="M296.556,302.797c1.172-0.4,0.229,0.172,1.086-0.686l3.4-3.316
	c0.428-0.398,1.086-0.941,1.4-1.285l2.514-3.029c0.602-0.6,1.887-2.201,2.545-2.572c0.629-1.572,1.057-0.971,1.656-2.457
	c-1.229,0.371-0.771,0.371-1.943,1.686l-4.658,4.801c-0.484,0.486-0.885,1.258-1.371,1.771l-3.658,3.602
	C296.812,301.996,296.841,301.854,296.556,302.797L296.556,302.797z"/>
<path fill-rule="evenodd" clip-rule="evenodd" fill="#909092" d="M87.395,326.66c-0.027-1.059,0.602-0.287-1.6-1.4l-1.486-1.115
	c-0.629-0.486-1.029-0.572-1.742-1.172c-0.516-0.4-1-0.6-1.688-1c-1.371-0.771-2.029-1.4-3.314-2.258
	c-0.943-0.629-2.201-1.914-3.371-1.887c0.17,0.715,1.971,1.973,2.943,2.602c2.285,1.43,7.059,4.715,9.344,5.887
	C87.252,326.717,86.338,326.488,87.395,326.66L87.395,326.66z"/>
<path fill-rule="evenodd" clip-rule="evenodd" fill="#909092" d="M109.914,349.094c4.43-0.514,3.145-3.744,4.744-6.344
	c0.43-0.715,0.828-1.602,1.086-2.344c-0.057-1.516-7.029-3.744-8.717-4.115c0.516,0.799-0.113,0.314,1.83,1.029l6.115,2.6
	c-0.086,1.6-0.4,1.943-0.914,2.887c-1.029,1.857-0.6,4.459-2.887,5.516c-0.285,0.143-0.258,0.086-0.514,0.229
	C110.172,348.809,110.229,348.809,109.914,349.094L109.914,349.094z"/>
<path fill-rule="evenodd" clip-rule="evenodd" fill="#C8C9C9" d="M48.645,538.34l0.027,1.688c-2,1.428-2.057-0.83-2.857-2.459
	l-1.4-3.4c-0.113-0.344-0.057-0.258-0.229-0.572c-0.342-0.57,0.143-0.027-0.457-0.428c-0.199,2.514,0.658,3.086,1,3.744
	c0.658,1.229,0.828,3.371,2.059,4.115c0.742,0.428,0.17,0.256,1.4,0.457c0.256-0.4,1.6-1.287,1.17-2.459
	C49.072,538.197,49.559,538.627,48.645,538.34L48.645,538.34z"/>
<path fill-rule="evenodd" clip-rule="evenodd" fill="#C8C9C9" d="M292.812,302.283c1.029-0.373,0.199-0.029,0.742-0.287
	c1.572-0.742,4.688-4.887,5.773-5.201l0.143-0.771c-1.229,0.199-0.742,0.115-2.143,1.457l-1.486,1.459
	c-1.457,1.4-0.658,1.143-1.887,1.229C293.812,302.139,293.354,300.053,292.812,302.283L292.812,302.283z"/>
<path fill-rule="evenodd" clip-rule="evenodd" fill="#909092" d="M125.746,349.666c0.229,0.914,0.486,0.771-0.371,1.314
	c-1.658,1.086-2.43,0-2.914-0.371l1.457-0.801C124.832,349.465,124.803,349.293,125.746,349.666L125.746,349.666z M121.859,351.295
	c1.516,1.285,4.631,0.742,4.602-1.23c-0.057-2.514-3.457-0.484-4.629,0.115L121.859,351.295z"/>
<path fill-rule="evenodd" clip-rule="evenodd" fill="#909092" d="M88.367,387.617c-0.6-1.371-1.029-1.086-3.086-2.514
	c-1.516-1.059-2.059-1.973-3.002-2.088c0.201,1.086,0.744,1.115,2.43,2.658C84.994,385.902,87.652,387.504,88.367,387.617
	L88.367,387.617z"/>
<path fill-rule="evenodd" clip-rule="evenodd" fill="#909092" d="M82.279,383.016c-0.17-0.656,0.143-0.086-0.4-0.799
	c-0.057-0.086-0.457-0.486-0.57-0.629c-0.943-0.943-2.916-3.145-3.773-3.287c0.486,1.516,1.23,1.801,2.088,2.771
	c0.398,0.43,0.6,0.688,1.086,1.086C81.309,382.674,81.422,383.016,82.279,383.016L82.279,383.016z"/>
<path fill-rule="evenodd" clip-rule="evenodd" fill="#C8C9C9" d="M125.746,349.666c-0.943-0.373-0.914-0.201-1.828,0.143
	l-1.457,0.801c0.484,0.371,1.256,1.457,2.914,0.371C126.232,350.438,125.975,350.58,125.746,349.666L125.746,349.666z"/>
<path fill-rule="evenodd" clip-rule="evenodd" fill="#909092" d="M52.701,53.849l3.23-2.857c0.656-0.6,0.715,0.172,0.799-1.143
	c-1,0.229-3.486,2.829-3.686,3.115C52.701,53.535,52.902,53.021,52.701,53.849L52.701,53.849z"/>
</svg>
