<?xml version="1.0" encoding="utf-8"?>
<!-- Generator: Adobe Illustrator 15.0.0, SVG Export Plug-In  -->
<!DOCTYPE svg PUBLIC "-//W3C//DTD SVG 1.1//EN" "http://www.w3.org/Graphics/SVG/1.1/DTD/svg11.dtd" [
	<!ENTITY ns_flows "http://ns.adobe.com/Flows/1.0/">
]>
<svg version="1.1"
	 xmlns="http://www.w3.org/2000/svg" xmlns:xlink="http://www.w3.org/1999/xlink" xmlns:a="http://ns.adobe.com/AdobeSVGViewerExtensions/3.0/"
	 x="0px" y="0px" width="224px" height="210px" viewBox="0 0 224 210" enable-background="new 0 0 224 210" xml:space="preserve">
<defs>
</defs>
<path fill-rule="evenodd" clip-rule="evenodd" fill="#F05B74" d="M116.711,46.703c2.086,4.601,1.286,3.115,1.458,4.487l0.257,6.43
	c0.028,0.314,0.058,0.543,0.086,0.857l0.485,19.919c0.086,8.945-0.229,23.663,1.058,32.008c7.545-4.829,38.666-24.12,43.21-27.949
	l-0.172-72.418c-15.146,7.373-30.121,15.661-44.896,24.006l-0.028,12.688c-2.973-6.059-0.657-2.029-1.687-12.316l-62.214-7.889
	l2.314,71.875l61.214,12.575L116.711,46.703z"/>
<polygon fill-rule="evenodd" clip-rule="evenodd" fill="#0292CA" points="99.965,190.167 169.723,208.343 168.665,122.322 
	98.964,109.891 "/>
<path fill-rule="evenodd" clip-rule="evenodd" fill="#BAD532" d="M3.029,165.104l62.356,16.833l-0.771-77.305
	c-7.631-3.144-60.07-12.117-62.528-12.146L3.029,165.104z"/>
<path fill-rule="evenodd" clip-rule="evenodd" fill="#0292CA" d="M171.608,207.057c6.202-2.258,20.348-12.488,26.149-16.433
	c8.201-5.602,16.832-10.859,24.405-16.718l-0.629-77.248c-9.488,4.573-43.896,20.72-50.411,25.092L171.608,207.057z"/>
<path fill-rule="evenodd" clip-rule="evenodd" fill="#303030" d="M98.964,109.891l69.701,12.432l1.058,86.021l-69.758-18.176
	L98.964,109.891z M171.608,207.057l-0.485-85.307c6.516-4.372,40.923-20.519,50.411-25.092l0.629,77.248
	c-7.573,5.858-16.204,11.116-24.405,16.718C191.956,194.568,177.811,204.799,171.608,207.057L171.608,207.057z M67.614,180.45
	l-0.828-77.275l29.863,6.486c1.029,8.859,1.801,41.039,0.914,49.441c-0.543,4.915-5.058,5.744-13.717,11.346
	C79.646,173.135,72.244,179.107,67.614,180.45L67.614,180.45z M2.086,92.485c2.458,0.029,54.897,9.003,62.528,12.146l0.771,77.305
	L3.029,165.104L2.086,92.485z M122.912,111.548c1.4-1.486,38.209-25.692,40.009-26.293l55.556,9.402
	c-4.373,3.744-14.86,8.117-20.776,11.203c-7.315,3.801-14.346,7.002-21.633,10.574c-9.917,4.887-8.23,2.943-25.691-0.086
	C141.459,114.777,131.743,112.776,122.912,111.548L122.912,111.548z M52.269,68.681l0.972,30.864l-48.183-9.26
	C11.374,86.771,47.811,67.994,52.269,68.681L52.269,68.681z M117.797,110.977L56.583,98.401l-2.314-71.875l62.214,7.889
	c1.029,10.287-1.286,6.258,1.687,12.316l0.028-12.688c14.774-8.345,29.749-16.633,44.896-24.006l0.172,72.418
	c-4.544,3.829-35.665,23.12-43.21,27.949c-1.286-8.345-0.972-23.063-1.058-32.008l-0.485-19.919
	c-0.028-0.314-0.058-0.543-0.086-0.857l-0.257-6.43c-0.172-1.372,0.628,0.113-1.458-4.487L117.797,110.977z M58.441,23.954
	c4.458-2.886,40.895-21.947,43.323-22.348c4.572-0.743,54.526,5.688,57.642,7.23l-10.888,6.487
	c-4.059,2.286-6.287,3.63-10.402,5.744c-28.692,14.774-15.575,12.746-66.072,5.602l-12.316-1.972L58.441,23.954z M52.239,24.669
	l0.486,41.067C45.038,66.68,9.345,85.655,0,90.399l1.229,76.391l52.298,14.146c14.374,3.458,12.23,4.286,23.434-3.258l20.576-12.775
	l0.914,26.492c2.486,1.544,67.186,18.605,70.986,18.72c3.973,0.085,10.66-5.487,13.946-7.659c4.516-2.973,8.745-5.858,13.374-8.803
	l27.692-18.461l-2.772-81.449c-3.515-1.572-8.573-2.086-12.517-2.829l-43.81-8.03l-0.687-75.647
	c-7.001-1.257-61.185-8.23-64.528-7.116L52.239,24.669z"/>
<path fill-rule="evenodd" clip-rule="evenodd" fill="#BAD532" d="M67.614,180.45c4.63-1.343,12.031-7.315,16.232-10.002
	c8.659-5.602,13.174-6.431,13.717-11.346c0.887-8.402,0.115-40.582-0.914-49.441l-29.863-6.486L67.614,180.45z"/>
<path fill-rule="evenodd" clip-rule="evenodd" fill="#FDDBCB" d="M58.441,23.954l1.286,0.744l12.316,1.972
	c50.497,7.145,37.38,9.173,66.072-5.602c4.115-2.114,6.344-3.458,10.402-5.744l10.888-6.487c-3.115-1.543-53.069-7.974-57.642-7.23
	C99.336,2.007,62.899,21.068,58.441,23.954L58.441,23.954z"/>
<path fill-rule="evenodd" clip-rule="evenodd" fill="#B0DBF1" d="M122.912,111.548c8.831,1.229,18.547,3.229,27.464,4.801
	c17.461,3.029,15.774,4.973,25.691,0.086c7.287-3.572,14.317-6.773,21.633-10.574c5.916-3.086,16.403-7.459,20.776-11.203
	l-55.556-9.402C161.121,85.855,124.313,110.062,122.912,111.548L122.912,111.548z"/>
<path fill-rule="evenodd" clip-rule="evenodd" fill="#EAEC8C" d="M52.269,68.681c-4.458-0.687-40.895,18.09-47.211,21.604
	l48.183,9.26L52.269,68.681z"/>
</svg>
