<?xml version="1.0" encoding="utf-8"?>
<!-- Generator: Adobe Illustrator 15.0.0, SVG Export Plug-In  -->
<!DOCTYPE svg PUBLIC "-//W3C//DTD SVG 1.1//EN" "http://www.w3.org/Graphics/SVG/1.1/DTD/svg11.dtd" [
	<!ENTITY ns_flows "http://ns.adobe.com/Flows/1.0/">
]>
<svg version="1.1"
	 xmlns="http://www.w3.org/2000/svg" xmlns:xlink="http://www.w3.org/1999/xlink" xmlns:a="http://ns.adobe.com/AdobeSVGViewerExtensions/3.0/"
	 x="0px" y="0px" width="348px" height="304px" viewBox="0 0 348 304" enable-background="new 0 0 348 304" xml:space="preserve">
<defs>
</defs>
<path fill-rule="evenodd" clip-rule="evenodd" fill="#D9AFD2" d="M294.107,136.719c-1.943-2.172-0.886-0.543-1.915-3.372
	l-6.087-28.15c-1.943-11.832-1.343-23.034-4.572-34.866c-2.915-10.746-6.001-20.691-6.887-32.608
	c-1.115-15.461,1.714-20.919,4.115-34.866l-34.723,7.888l12.146,78.048c6.373,31.607-12.402,56.5-4.801,79.391
	c3.086,9.259,10.146,25.263,11.031,34.837c1.8,19.49-14.546,45.239-6.802,81.049c1.915,8.916,2.115,10.374,10.803,12.517
	c5.372,1.315,11.888,3.144,17.86,4.401l-3-33.065c2.229-12.632,6.001-17.719,5.43-32.579c-0.687-17.519-11.203-46.669,3.372-62.93
	l20.919,20.833c3.629,4.487,17.146,21.006,24.834,8.831l-21.434-18.262c-6.458-5.087-5.544-3.458-6.544-7.145
	c9.831,7.145,13.488,9.46,22.548,17.348l5.258,3.972c1.887,1.229-0.857-0.114,2.286,1.315l4.259-16.404l-27.949-12.117
	c6.401-1.344,4.772,0.114,14.26,3.915c4.459,1.801,10.46,4.601,14.804,5.029l1.743-14.975c-9.745-3.687-23.52-1.915-32.035-5.059
	c10.088-3.344,19.375,2.629,31.863,1.458l0.372-15.204l-31.121-1.4c4.973-2.972,2.657-1.257,3.172-1.372
	c3.829-0.8,21.376,0.657,27.178-0.629l-1.743-18.748c-5.659,2.201-25.349,11.375-28.492,9.66l27.178-11.86l-24.177-3.315
	C313.626,119.229,300.938,135.262,294.107,136.719L294.107,136.719z"/>
<path fill-rule="evenodd" clip-rule="evenodd" fill="#AD79B5" d="M99.093,136.52c19.861-5.688,23.777,22.233,8.545,26.464
	C89.463,168.041,80.546,141.835,99.093,136.52L99.093,136.52z M136.358,184.417c-3.515,8.487-12.317,15.232-17.432,10.603
	c3.515-2.458,5.973-0.258,10.431-4.544c7.716-7.459,9.202-22.177,9.802-32.809c0.714-12.403-0.915-24.806-8.116-34.58
	c-2.515-3.401-5.373-4.487-5.029-8.459l3.972,3.516C145.818,135.09,143.76,166.556,136.358,184.417L136.358,184.417z
	 M168.594,249.805c-0.572-9.402-3-14.375-0.886-25.721c1.629-8.773,5.23-14.347,7.087-22.377
	c4.229-18.348-14.975-27.007-12.089-44.497c3.058-18.662,13.889-22.806,4.83-46.383c-7.745-20.148-8.688-23.034-10.746-46.726
	l-25.577,33.437c-2.601,3.315-5.887,7.974-8.859,10.346c-6.916,5.43-16.003,7.716-33.921,24.52
	c-2.258,2.115-7.859,7.974-9.002,9.974l-12.231-3.029c-2.829,1.429-6.344,7.116-4.658,11.803
	c2.972,8.402,16.089,9.545,20.404,13.575l-13.031,4.715c-3.172,3.716-2.943,8.26,1.229,11.803l12.26-3.429
	c30.549,24.092,48.182,39.952,75.645,63.587C161.364,243.374,167.908,248.861,168.594,249.805L168.594,249.805z"/>
<path fill-rule="evenodd" clip-rule="evenodd" fill="#F4B4D1" d="M213.976,22.463c-0.972,31.236,7.63,46.897,12.889,73.304
	c6.03,30.321-13.917,49.526-4.258,74.961c3.629,9.545,10.116,22.148,10.116,33.352c0.057,17.976-15.746,46.668-5.687,76.161
	c2.715,8.002,4.114,6.83,12.174,9.116c5.201,1.458,11.002,3.458,16.489,4.173c-7.116-32.751-5.259-37.952,2.572-71.846
	c7.544-32.608-12.518-42.497-11.317-67.988c0.486-10.889,5.03-23.406,7.002-34.123c2.571-14.175,1.657-22.749-1.629-36.18
	c-6.002-24.721-11.546-42.982-10.974-71.161L213.976,22.463z"/>
<path fill-rule="evenodd" clip-rule="evenodd" fill="#917993" d="M184.427,38.667c0.856,12.603,0.6,25.778,3.601,37.438
	c2.743,10.631,7.344,20.233,9.431,31.093c5.43,28.493-14.918,40.238-3.772,66.302c3.915,9.23,10.26,18.719,9.373,30.379
	c-0.8,10.603-6.344,20.548-7.83,32.465c-1.257,10.146-1.457,26.864,3.516,34.923c3.886,6.259,18.375,11.432,27.234,13.832
	l2.457-67.073c7.459-30.465-11.831-39.124-11.259-62.387c0.257-10.889,5.058-22.406,7.059-32.58
	c6.772-34.78-13.403-49.869-12.46-99.967C192.257,32.637,199.344,29.693,184.427,38.667L184.427,38.667z"/>
<path fill-rule="evenodd" clip-rule="evenodd" fill="#D9AFD2" d="M182.226,40.582c-3.943,1.743-20.662,16.947-22.09,19.291
	c-3.458,5.63,1.286,28.149,3.515,34.723c3.401,9.945,9.773,19.833,9.688,31.808c-0.114,13.061-7.23,21.749-8.544,32.294
	c-1.257,10.174,8.887,21.434,11.802,29.808c4.145,12.031-3.286,21.319-5.572,31.636c-2.172,9.745-3.458,25.664,2.715,33.809
	c2.743,3.63,16.946,16.547,22.091,17.376l3.2-59.501c6.83-24.092-13.174-35.437-11.659-54.928c0.628-8.116,5.43-19.633,7.315-28.149
	C200.887,100.739,182.854,91.508,182.226,40.582L182.226,40.582z"/>
<path fill-rule="evenodd" clip-rule="evenodd" fill="#181818" d="M168.594,249.805c-0.686-0.943-7.23-6.431-9.545-8.402
	c-27.463-23.635-45.096-39.495-75.645-63.587l-12.26,3.429c-4.172-3.543-4.401-8.087-1.229-11.803l13.031-4.715
	c-4.315-4.03-17.432-5.173-20.404-13.575c-1.686-4.687,1.829-10.374,4.658-11.803l12.231,3.029c1.144-2,6.745-7.859,9.002-9.974
	c17.918-16.804,27.006-19.09,33.921-24.52c2.972-2.372,6.259-7.03,8.859-10.346l25.577-33.437
	c2.058,23.691,3.001,26.578,10.746,46.726c9.059,23.577-1.772,27.721-4.83,46.383c-2.886,17.49,16.318,26.149,12.089,44.497
	c-1.857,8.03-5.458,13.604-7.087,22.377C165.594,235.43,168.022,240.402,168.594,249.805L168.594,249.805z M182.226,40.582
	c0.629,50.927,18.661,60.158,12.46,88.165c-1.886,8.516-6.688,20.033-7.315,28.149c-1.515,19.491,18.489,30.836,11.659,54.928
	l-3.2,59.501c-5.145-0.829-19.348-13.746-22.091-17.376c-6.173-8.145-4.887-24.063-2.715-33.809
	c2.286-10.316,9.717-19.604,5.572-31.636c-2.915-8.374-13.06-19.634-11.802-29.808c1.314-10.545,8.43-19.233,8.544-32.294
	c0.086-11.974-6.287-21.862-9.688-31.808c-2.229-6.573-6.973-29.093-3.515-34.723C161.564,57.528,178.282,42.325,182.226,40.582
	L182.226,40.582z M184.427,38.667c14.917-8.974,7.83-6.03,27.349-15.575c-0.943,50.098,19.232,65.188,12.46,99.967
	c-2.001,10.174-6.802,21.691-7.059,32.58c-0.572,23.263,18.718,31.922,11.259,62.387l-2.457,67.073
	c-8.859-2.4-23.349-7.573-27.234-13.832c-4.973-8.059-4.772-24.777-3.516-34.923c1.486-11.917,7.03-21.862,7.83-32.465
	c0.887-11.66-5.458-21.148-9.373-30.379c-11.146-26.064,9.202-37.81,3.772-66.302c-2.087-10.86-6.688-20.462-9.431-31.093
	C185.026,64.444,185.283,51.27,184.427,38.667L184.427,38.667z M213.976,22.463l27.378-10.231
	c-0.572,28.179,4.972,46.44,10.974,71.161c3.286,13.432,4.2,22.005,1.629,36.18c-1.972,10.717-6.516,23.234-7.002,34.123
	c-1.2,25.491,18.861,35.38,11.317,67.988c-7.831,33.894-9.688,39.095-2.572,71.846c-5.487-0.715-11.288-2.715-16.489-4.173
	c-8.06-2.286-9.459-1.114-12.174-9.116c-10.06-29.493,5.743-58.186,5.687-76.161c0-11.203-6.487-23.807-10.116-33.352
	c-9.659-25.435,10.288-44.64,4.258-74.961C221.605,69.36,213.004,53.699,213.976,22.463L213.976,22.463z M294.107,136.719
	c6.83-1.458,19.519-17.49,23.148-18.433l24.177,3.315l-27.178,11.86c3.144,1.715,22.833-7.459,28.492-9.66l1.743,18.748
	c-5.802,1.286-23.349-0.171-27.178,0.629c-0.515,0.114,1.801-1.601-3.172,1.372l31.121,1.4l-0.372,15.204
	c-12.488,1.171-21.775-4.802-31.863-1.458c8.516,3.144,22.29,1.372,32.035,5.059l-1.743,14.975
	c-4.344-0.429-10.345-3.229-14.804-5.029c-9.487-3.801-7.858-5.259-14.26-3.915l27.949,12.117l-4.259,16.404
	c-3.144-1.43-0.399-0.086-2.286-1.315l-5.258-3.972c-9.06-7.888-12.717-10.203-22.548-17.348c1,3.687,0.086,2.058,6.544,7.145
	l21.434,18.262c-7.688,12.175-21.205-4.344-24.834-8.831l-20.919-20.833c-14.575,16.261-4.059,45.411-3.372,62.93
	c0.571,14.86-3.201,19.947-5.43,32.579l3,33.065c-5.973-1.258-12.488-3.086-17.86-4.401c-8.688-2.143-8.888-3.601-10.803-12.517
	c-7.744-35.81,8.602-61.559,6.802-81.049c-0.886-9.574-7.945-25.578-11.031-34.837c-7.602-22.892,11.174-47.784,4.801-79.391
	l-12.146-78.048l34.723-7.888c-2.401,13.946-5.23,19.405-4.115,34.866c0.886,11.917,3.972,21.862,6.887,32.608
	c3.229,11.832,2.629,23.034,4.572,34.866l6.087,28.15C293.222,136.176,292.164,134.547,294.107,136.719L294.107,136.719z
	 M78.375,139.234c-17.433-8.802-26.72,10.774-9.859,21.291l5.058,3.2c-4.887,3.401-10.488,6.916-7.458,15.204
	c19.119,2.058,16.518-0.257,28.863,10.603c14.003,12.317,30.321,25.178,44.039,37.581c11.374,10.288,44.952,40.581,55.154,46.726
	c24.92,15.004,63.957,22.892,93.335,30.493c-2.144-12.374-6.744-18.891-4.43-33.58c1.743-11.202,5.83-18.575,6.059-31.321
	c0.343-19.319-7.145-34.237-3.915-50.299c0.515-2.486,1.114-4.515,2.115-7.001c0.543-1.372,0.857-2.201,1.543-3.458l2.229-3.201
	c10.803,6.858,22.52,29.265,34.18,32.837c27.006,8.23,28.32-90.479,11.488-98.396l-41.638,23.72
	c-7.773-14.689-6.859-47.612-11.889-65.988C274.417,35.352,274.503,29.75,282.19,0c-17.004,0.143-53.098,12.546-67.415,18.719
	C185.94,31.15,160.649,52.07,143.703,75.733c-6.001,8.402-12.002,16.718-18.175,25.206c-5.23,7.202-21.833,13.289-36.151,27.407
	C84.748,132.89,81.804,136.348,78.375,139.234L78.375,139.234z"/>
<path fill-rule="evenodd" clip-rule="evenodd" fill="#BBDEB5" d="M28.249,58.786c4.83-16.604-20.861-24.892-25.72-7.287
	c-2.372,8.63,3.258,14.718,9.173,16.575C19.247,70.446,26.563,64.587,28.249,58.786L28.249,58.786z"/>
<path fill-rule="evenodd" clip-rule="evenodd" fill="#181818" d="M91.492,153.181c-1.029-13.261,9.888-19.662,19.119-12.632
	c7.659,5.83,4.858,19.233-7.288,20.319l1-14.032c-2.543-1.543-5.659-1.714-8.23,0.229C94.321,148.437,93.092,151.552,91.492,153.181
	L91.492,153.181z M99.093,136.52c-18.547,5.315-9.63,31.521,8.545,26.464C122.87,158.753,118.955,130.832,99.093,136.52
	L99.093,136.52z"/>
<path fill-rule="evenodd" clip-rule="evenodd" fill="#FFFFFF" d="M91.492,153.181c1.6-1.629,2.829-4.744,4.601-6.116
	c2.572-1.943,5.687-1.772,8.23-0.229l-1,14.032c12.146-1.086,14.946-14.489,7.288-20.319
	C101.379,133.519,90.463,139.92,91.492,153.181L91.492,153.181z"/>
<path fill-rule="evenodd" clip-rule="evenodd" fill="#181818" d="M118.926,195.02c5.115,4.63,13.917-2.115,17.432-10.603
	c7.402-17.861,9.459-49.327-6.373-66.273l-3.972-3.516c-0.343,3.973,2.515,5.059,5.029,8.459c7.202,9.774,8.831,22.177,8.116,34.58
	c-0.6,10.632-2.086,25.35-9.802,32.809C124.899,194.762,122.441,192.562,118.926,195.02L118.926,195.02z"/>
<path fill-rule="evenodd" clip-rule="evenodd" fill="#181818" d="M28.249,58.786c-1.686,5.802-9.002,11.66-16.546,9.288
	c-5.916-1.857-11.545-7.945-9.173-16.575C7.388,33.894,33.079,42.182,28.249,58.786L28.249,58.786z M10.76,40.124
	c-19.347,6.259-10.374,36.438,9.288,30.007C39.28,63.873,30.364,33.78,10.76,40.124L10.76,40.124z"/>
<path fill-rule="evenodd" clip-rule="evenodd" fill="#BBDEB5" d="M14.046,120.572c2.629,2.515,4.573,4.887,9.316,3.229
	c2.915-1.029,5.258-4.858,3.944-8.831C25.249,108.855,12.56,106.769,14.046,120.572L14.046,120.572z"/>
<path fill-rule="evenodd" clip-rule="evenodd" fill="#BBDEB5" d="M49.339,144.721c-15.089-2.086-14.574,15.175,0,12.832
	C53.826,152.409,53.998,150.266,49.339,144.721L49.339,144.721z"/>
<path fill-rule="evenodd" clip-rule="evenodd" fill="#181818" d="M51.34,79.134l0.029,13.203l-7.459-0.4
	c-2.429-2.744-4.429-4.773-2.886-8.974C42.738,78.219,46.396,78.133,51.34,79.134L51.34,79.134z M39.109,90.308
	c3.115,2.829,6.173,6.344,12.117,3.886c4.258-1.743,7.001-7.516,4.887-13.003C53.512,74.418,35.937,72.189,39.109,90.308
	L39.109,90.308z"/>
<path fill-rule="evenodd" clip-rule="evenodd" fill="#BBDEB5" d="M51.34,79.134c-4.944-1-8.602-0.915-10.316,3.83
	c-1.543,4.201,0.457,6.23,2.886,8.974l7.459,0.4L51.34,79.134z"/>
<path fill-rule="evenodd" clip-rule="evenodd" fill="#181818" d="M49.339,144.721c4.658,5.544,4.487,7.688,0,12.832
	C34.765,159.896,34.25,142.635,49.339,144.721L49.339,144.721z M43.396,142.207c-12.46,3.629-7.087,20.891,5.115,17.862
	c4.229-1.029,7.43-6.573,5.973-11.775C53.397,144.407,48.54,140.72,43.396,142.207L43.396,142.207z"/>
<path fill-rule="evenodd" clip-rule="evenodd" fill="#181818" d="M14.046,120.572c-1.486-13.803,11.203-11.717,13.26-5.601
	c1.314,3.972-1.029,7.802-3.944,8.831C18.619,125.459,16.675,123.087,14.046,120.572L14.046,120.572z M16.418,109.541
	c-12.346,7.945-0.057,21.634,9.517,15.804C34.508,120.087,27.535,102.368,16.418,109.541L16.418,109.541z"/>
</svg>
