<?xml version="1.0" encoding="utf-8"?>
<!-- Generator: Adobe Illustrator 15.0.0, SVG Export Plug-In  -->
<!DOCTYPE svg PUBLIC "-//W3C//DTD SVG 1.1//EN" "http://www.w3.org/Graphics/SVG/1.1/DTD/svg11.dtd" [
	<!ENTITY ns_flows "http://ns.adobe.com/Flows/1.0/">
]>
<svg version="1.1"
	 xmlns="http://www.w3.org/2000/svg" xmlns:xlink="http://www.w3.org/1999/xlink" xmlns:a="http://ns.adobe.com/AdobeSVGViewerExtensions/3.0/"
	 x="0px" y="0px" width="273px" height="245px" viewBox="1.486 2.507 273 245" enable-background="new 1.486 2.507 273 245"
	 xml:space="preserve">
<defs>
</defs>
<path fill-rule="evenodd" clip-rule="evenodd" fill="#F5853E" d="M36.608,217.846c-0.029-1.028,0.057-2.029,1.286-1.829
	c0.972,0.172,0.943,1.258,0.571,2.058C37.522,218.417,37.494,218.218,36.608,217.846L36.608,217.846z M63.271,91.672
	c1.2,0.086,4.401-0.171,6.087-0.171c2.201-0.029,3.944,0.314,6.201,0.229c0.172-0.229-0.314-0.429,0.343-0.2
	c0.429-0.915-0.114-0.6,1.429-0.743L87.733,90.7c4.086-0.028,8.059,0.029,12.117,0.029c3.972,0,8.145-0.229,12.088-0.029
	l12.088,0.057c0.086,0.143,0.314,0.771,0.314,0.8c3.001,0.286,2.058,3.229,2.058,5.944c0.029,2.658,0.286,5.458,0.257,8.002
	c-0.086,5.344-0.343,10.888-0.114,16.204v16.204c-0.114,2.515,0.171,5.572,0.114,8.23c-0.057,2.715-0.229,5.229-0.171,7.974
	c0.2,8.888-0.114,15.489,0.143,24.463c0.286,9.517,0.086,7.745-8.888,7.545c-2.458-0.029-5.401,0.171-7.973,0.2
	c-5.287,0-10.688-0.286-15.975-0.029c-5.201,0.258-10.945-0.086-16.204-0.143c-2.829-0.028-5.401,0.2-8.23,0.114
	c-4.172-0.143-8.373,1-8.059-4.315l-0.028-11.917c-0.429-5.115,0.314-10.746,0.2-15.918c-0.029-2.772-0.286-5.373-0.257-8.202
	c0.028-2.687,0.229-5.345,0.257-8.002c0-5.116-0.429-10.46-0.115-15.747c0.314-5.458-0.343-10.717-0.028-16.175
	c0.086-1.4,0.028-2.744,0.057-4.115c0.029-1.429-0.257-2.572-0.114-3.887C61.556,95.13,60.099,91.786,63.271,91.672L63.271,91.672z
	 M153.52,92.472c0.2-0.829,1.229-0.657,2.258-0.6c0.686-0.543,5.229-0.286,6.001-0.286c6.516,0,18.633-0.371,24.177,0
	c2.172,0.143,3.601-0.257,5.83-0.229c4.115,0,8.23-0.028,12.345,0.029c0.887,1.143,0.801,0.972,2.658,0.972h7.259
	c2.715-0.429,0.515,0.057,2.657,0.2c0.058-0.057,0.086-0.143,0.114-0.2l0.486-1.258c0.686,1.4-0.229,0.886-0.172,2.744
	c0.058,1.629,0.2,2.172,0.114,3.916c-0.085,2.458,0.114,5.201,0.058,7.745c-0.028,1.286-0.257,26.121,0.028,26.979
	c0.4,1.171,0.915,0.942,0.144,2.771c-0.543,1.314-0.172,8.831-0.229,11.374c-0.057,3.059,0.372,2.344,1.001,2.658
	c0.028,0.886-0.172,2.144-0.2,3.4c-0.058,1.601-0.515,1.829-0.715,2.887c-0.257,1.229-0.057,5.373-0.086,7.03
	c-0.028,1.144,0.029,2.43,0.029,3.63c0,2.715,0.429,1.457,0.771,2.715c0.2,0.743,0.028,2.715,0,3.572
	c0,1.543,0.086,1.515-0.743,2.286c-0.028,2.515,0.229,7.888-0.114,10.288c-0.143,1.029-0.571,1.086-1.2,1.801
	c-0.657,0.371-18.09,0.086-20.319,0.086c-9.688-0.058-20.833-0.2-30.492,0.057c-2.086,0.058-8.373,0.058-9.944-0.257
	c-3.858-0.801-2.372-3.772-2.344-4.315c0.457-5.573-0.829-0.771-0.686-6.802c0.143-6.316-0.572-25.893,0.457-29.664
	c0.399-1.458,0.086-1.258-0.258-2.059c-0.399-0.914-0.285-10.717-0.257-12.088c0.028-1.629,0.4-2.915,0.286-4.83l-0.258-19.605
	c-0.057-2.343,0.572-1.771,0.144-4.287c-0.372-2.315-0.172-7.059-0.086-9.745L153.52,92.472z M35.322,64.837
	c0.743,0.371,0.257-0.058,0.429,0.714l-0.085,10.688c-0.029,1.629-0.172,1.629-0.686,2.887c0.286,0.743,0.629,0.915,0.714,1.915
	l0.029,38.496c-0.2,13.546-0.171,27.578,0,41.124c0.057,3.372-0.257,7.145-0.114,10.402c0.428,9.574-0.286,69.932,0.314,71.732
	c1.029,0.4,9.745,0.2,11.631,0.143c11.26-0.285,24.262,0.086,35.836-0.028c7.973-0.058,16.261,0.286,24.205-0.172l18.147,0.114
	c1.343,0.058,1.343,0.372,2.429,0.515c3.058,0.372,2.601,0.258,3.429-0.857c1.372,0.457,1.058,0.601,3.086,0.457l10.888-0.114
	c0.715,0.029,1.172,0.086,1.744,0.286c0.886,0.286,0.428,0.286,1.143,0.457c0.657,0.172,2.515,0.058,3.315,0.058
	c2.257-0.028,4.629,0,6.887-0.028c1.314-0.029,1.915-0.544,3.115-0.658c1.8-0.171,4.144,0.715,6.544,0.687h46.696
	c9.402,0,19.261,0.285,28.577,0l0.114,0.143c0.458-11.803,0.115-22.662,0.115-34.266c0-1.943,0.371-3.515,0.257-5.315
	c-0.486-8.974-0.257-18.747-0.257-27.835c0-3.83,0.285-7.574,0.313-11.117c0-5.744-0.657-10.031-0.085-16.462
	c0.199-1.972-0.229-3.343-0.229-5.315c0-3.658,0-7.315,0.143-10.888c0.143-3.83-0.143-7.26-0.143-11.146V98.959
	c0.057-3.744-0.115-7.402-0.144-11.117c-0.028-3.744,0.144-7.602,0.144-11.374c0-2.029-0.258-3.601-0.286-5.316
	c-0.058-2.314,0.457-3.058-0.028-5.344c-0.486,0.143-4.602-0.314-6.145-0.143c-1.943,0.229-4.229,0.171-6.373,0.143l-39.208-0.172
	c-8.745-0.028-17.633,0.086-26.378-0.114c-4.4-0.085-8.916,0.114-13.06-0.229s-8.487-0.057-12.831-0.2
	c-8.574-0.343-17.404-0.114-26.121-0.2l-52.354-0.143C59.013,64.979,35.894,65.037,35.322,64.837L35.322,64.837z"/>
<path fill-rule="evenodd" clip-rule="evenodd" fill="#F1BC6B" d="M139.259,61.379V60.75c-0.6-0.114-1.429-0.257-1.943-0.486v-1.257
	c2.458-0.086,1.314,0.514,2.315,1.372c0.314,0.286,0.028,0.143,0.429,0.257c0.343,0.085,0.856,0.057,1.2,0.057
	c0.229,0.257,0.057,0.257,0.257,0.629c1.372-0.115,4.115,0.143,5.744,0.143c4.344,0.057,15.261-0.286,17.633-0.085
	c3.515,0.286,13.574,0.229,17.946,0.143c1.943-0.028,3.516,0.372,5.373,0.229c1.714-0.686,1.714-0.571,3.629-0.314
	c1.829,0.257,2.43-0.229,3.801-0.229c2.286,0,5.315,0.314,8.002,0.257c2.743-0.028,5.487,0.029,8.23,0.086l16.146-0.372
	c1.429-0.257,1.857-0.572,3.601-0.314c1.715,0.257,2.086,0.143,3.772-0.057c1.028-0.114,0.942-0.029,1.601,0.229
	c2.028,0.772,5.973-0.143,7.916,0.343c0.856,0.2,0.199,0.371,1.771,0.4c1.457,0.057,3.001,0,4.458,0v-0.743
	c1.771,0,2.915-0.314,4.772-0.229l1.4,0.257c0.485,0.171,0.457,0.2,0.485,0.229c0.829,0.314,1.829,0.343,2.744,0.343l1.657-0.085
	c2.572-0.029,2.172,1.286,7.345,0.571l0.257-1.086c1.4,0,1.2-0.143,1.829-0.972c1.114,0.4-0.058,0.714,2.172,0.743
	c0.229-2.715-0.601-9.145,0.972-10.459c0.086-1.144,0.114-2.258,0.086-3.401c0-2.458-0.314-1.858-0.629-2.83
	c-0.543-1.714,0.2-1.857,0.429-2.629c0.314-1.172-0.4-0.857-0.686-2.172c-0.515-2.458,0.942-7.544,0.657-8.688
	c-0.486-1.858,0.257-0.515,0.2-2.344c-0.058-1.743-0.687-0.486-0.857-2.4c-0.086-1-0.029-2.058,0.114-3.001
	c0.399-2.943-0.857-5.03,0.543-8.745c0.314-0.886,0.285-1.915-0.114-2.772c-0.801-1.629-0.258-0.543-0.372-2.915
	c-0.057-1.2-0.285-1.429-0.229-2.915c-8.631-0.286-17.604,0.172-26.234,0.172c-2.886-0.029-5.801-0.114-8.716-0.114l-69.673-0.172
	c-8.087-0.085-18.09,0.257-25.892-0.2c-0.942-0.057-3.801,0.171-4,0.143c-0.972-0.229-0.943-1.114-3.258-0.714
	c-0.857,0.143-0.657,0.343-1.515,0.515c-2.658,0.571-12.346,0.229-14.26-0.286c-1.629-0.429-6.516-0.429-8.459-0.314
	c-1.458,0.058-1.572,0.715-3.601,0.686c-1.4,0-2.972-0.114-4.373-0.057c-0.714,0.029-1.458,0.229-1.857,0.171
	c-1.943-0.343,1.629-0.743-5.63-0.771c-6.944-0.057-3.344,0.429-5.602,0.829c-1.029,0.172-5.629-0.286-6.03-0.4
	c-1.829-0.686-0.857-0.429-3.858-0.314c-2.343,0.086-6.344-0.457-8.459-0.114c-1.143,0.171-0.629,0.372-1.543,0.6
	C69.158,5.651,66.1,4.736,65.243,4.65c-2.372-0.229-6.23-0.114-8.716-0.114C52.812,4.564,8.459,4.365,7.458,4.65
	c-1.8,0.515,0.057,0.029-2.115-0.114l0.343,10.345c-0.229,1.4-0.429,0.343-0.286,3.029c0.229,4.401,0,9.517,0,14.032
	c0.029,9.402-0.2,19.033,0.029,28.407c2.372,0.286,6.001,0.057,8.516,0.057c3.572,0,2.029,0.286,3.858,0.4
	c1.314,0.086,2.801,0.029,4.144,0.057c5.658,0.029,10.688,0.429,16.432,0.4c5.687-0.029,11.288-0.115,16.946,0.028
	c5.487,0.114,11.26-0.314,16.689-0.086c16.29,0.686,34.179-0.257,50.583,0.029C127.799,61.322,134.287,60.893,139.259,61.379
	L139.259,61.379z"/>
<path fill-rule="evenodd" clip-rule="evenodd" fill="#E9E014" d="M65.814,96.102l-0.057,12.774c0,0.715,0.057,1.515,0.028,2.201
	c-0.057,1.229-0.257,0.972-0.429,1.772c-0.2,0.943,0.458,2.086,0.429,3.772c0,1.457,0,2.915,0,4.372
	c0,2.144,0.171,6.545-0.114,8.174c-0.143,2.343,0.143,4.258,0.143,6.573c0.057,7.688,0.286,27.664-0.229,33.693
	c-0.086,1.115,0.286,1.801,0.314,3.087c0,1.343-0.229,8.202,0.057,9.03c0.2,0.572,0.086,0.286,0.372,0.572
	c0.343,0.199,54.355,0.628,55.612,0.143c0.085-0.886,0.114-2.172,0.2-2.915c0.457-2.943,0.543-0.2,0.486-5.401
	c0-1.915-0.257-1-0.657-2.258c-0.458-1.4,0-9.773,0.2-11.488c0.114-1.029,0.486-1.058,0.458-2.458
	c-0.029-1.229-0.314-1.229-0.572-2.314c-0.286-1.086-0.257-13.375,0.171-15.49c0.171-0.856,0.8-2.257,0.4-4.2
	c-0.286-1.315-0.657-0.829-0.857-2.001c-0.229-1.457-0.171-9.888,0.4-11.031c1.429-2.829-0.143-2.915-0.286-4.858
	c-0.171-3.115-0.171-8.488,0.028-11.631c0.086-1.314,0.515-1.229,0.686-2.201l-0.943-7.973c-0.6-0.886-5.602-0.657-6.573-0.657
	l-21.776-0.143c-3.858-0.028-15.146,0.915-17.318,0.257c-1.572-0.486-5.287-0.143-7.116-0.086
	C66.872,95.473,67.443,95.759,65.814,96.102L65.814,96.102z"/>
<path fill-rule="evenodd" clip-rule="evenodd" fill="#E9E014" d="M213.418,135.74c0-1.515,0.058-3.087,0-4.602
	c-0.086-2.144-0.629-2.229-0.686-3.629c-0.343-5.545,0.629-1.172,0.657-7.974c0.028-3.544,0.257-1.486-0.4-4.258
	c-0.171-0.829,0.172-1.115,0.258-1.629c0.343-1.886-1.315-0.458-0.687-5.373c0.258-1.915,0.857-1,0.857-3.515
	c0-1.972,0.172-7.001-0.257-8.288c-2.029-0.515-24.52-0.286-28.378-0.229l-24.92-0.343c-0.771-0.028-2.629-0.057-3.058,0.629
	c-0.571,1.029,0.2,12.203,0.058,13.575c-0.2,1.943,0.085,2.601,0.085,4.344l-0.229,6.773c0,1,0.172,1.943,0.2,2.915
	c0.028,1.001-0.143,1.915-0.114,2.887c0.058,1.486,0.571,1.2,0.543,2.4c-0.028,1.115-0.343,1.029-0.114,2.601
	c0.229,1.515-0.515,2.772-0.515,4.916v4.601c0,3.43,0.601,7.345,0.629,10.203c0,1-0.686,1.2-0.629,4.801
	c0,1.771,0,3.544,0.086,5.315c0.058,1.372,0.343,1.4,0.485,2.258c0.144,0.657,0.086,1.857,0.086,2.601
	c-0.028,2.915,0.286,2.572-0.399,4.83c-0.486,1.601-0.2,8.659-0.029,10.659c1.829,0.372,1.058,0.458,3.144,0.114
	c2.258-0.343,5.23-0.229,7.316,0.429c1.086,0.344,9.459,0.286,10.288,0.086c0.914-0.229,1.6-0.714,2.943-0.629
	c1.601,0.114,1.086,0.515,2.943,0.172c2.114-0.371,1.829,0.114,3.086,0.515l17.204-0.457c1.144,0.143,0.686,0.514,2.2,0.514
	c8.459,0,5.773,0.429,6.916-2.343c0.457-1.144,0.429-1.4,0.429-3.001l-0.314-12.832c-1.229-1.486,0.343-3.144,0.314-4.601V135.74z"
	/>
<path fill-rule="evenodd" clip-rule="evenodd" fill="#0D0E10" d="M244.396,72.725c0.743,3.629-0.2,11.774,0.028,16.089
	c0.286,5.287,0.372,10.688-0.114,15.976c-0.229,2.458,0.314,5.63,0.314,7.973l-0.229,12.346c-0.028,1.973,0.515,1.857,0.515,3.602
	c0,4.658-1.229,10.431-0.144,15.718c0.515,2.515,0.2,5.315-0.143,7.573c-0.743,5.145,0.571,10.831,0.343,16.176
	c-0.114,2.915-0.829,8.802-0.371,11.774c0.972,6.201-0.172,6.516-0.114,11.688c0.057,2.571,0.429,5.744,0.199,8.087l0.229,0.4
	c0.343,0.972,0.313,5.716,0.171,6.745c-0.114,1-0.343,1.171-0.4,2.172c-0.143,2.601-0.114,4.658,0.258,7.059
	c0.257,1.657-0.372,0.8,0.057,4.544c0.086,0.8,0.058,1.657-0.057,2.429c-0.4,3.145-0.571,8.889-0.4,12.089
	c0.028,0.915,0.286,1.286,0.372,2.172c0.143,1.572,0.143,3.373-0.086,4.773c-0.801,4.572-2.001,2.486-6.573,2.515
	c-1.715,0-3.4-0.086-5.087-0.086c-3.172,0.028-6.658,0.314-9.688,0.286l-19.833-0.114c-5.229,0.028-33.321-0.314-34.779-0.058
	c-2.857,0.543-1.857-0.114-3.915-0.229c-3.286-0.229-10.631,0.2-14.774,0.2c-4.915,0-7.944-0.857-15.118-0.258
	c-0.372-0.171-7.773-0.199-8.431-0.143c-3.601,0.229-7.887,0.028-11.545,0c-1.886-0.028-3.543,0.058-5.458-0.114
	c-1.601-0.143-3.687,0.114-5.43,0.143c-7.688,0.058-15.289,0.058-22.977-0.028c-7.573-0.057-14.975,0.172-22.52,0.028
	c-2.972-0.085-22.176,0.229-22.976-0.114c-0.515-0.399-0.857-1.028-1.343-1.457c-0.057-14.832-0.257-29.95,0-44.754
	c0.057-3.658-0.2-7.487-0.143-11.146c0.057-3.716,0.171-7.373,0.171-11.117c0-1.801-0.286-3.801-0.257-5.287
	c0.114-5.716,0.571-10.488,0.2-16.719c-0.2-3.629,0.057-7.487,0.057-11.146c0-3.715-0.114-7.43-0.114-11.117
	c0-3.687,0.114-7.43,0.114-11.145c0-1.801-0.314-3.401-0.143-5.116c0.257-2.601,0.2-14.632,0.057-16.918
	c-0.229-3.687,0.114-7.087,0.085-10.86c0-1.772,0.086-3.83-0.028-5.573c-0.057-0.943-0.314-1.743-0.343-2.658
	c-0.029-0.972,0.171-1.886,0.2-2.915c0.086-3.315-0.114-8.116,0.229-11.203c0.543-1.058,6.087-0.886,7.316-0.886
	c1.286,0,2.086,0.029,3.373,0.172c1.4,0.143,2.286-0.143,3.629-0.115c3,0.029,7.201,0.458,10.173,0.115
	c1.086-0.143,1.772-0.486,3.144-0.543c1.8-0.029,5.201-0.029,6.944,0.143c2.886,0.286,1.858,0.6,6.373,0.572
	c2.2-0.029,4.715,0.028,6.63-0.372c2.286-0.458,1.029,0.486,5.944,0.286c4.058-0.171,10.23,0.572,13.917-0.085
	c1.772-0.314,4.058-0.857,6.059-0.229c1.743,0.572,4.544,0.4,6.63,0.4c4.687,0.057,9.345-0.086,14.031-0.057l28.063,0.171
	c6.802,0.057,14.46-0.057,21.062,0.171c2.658,0.114,1.372-0.343,6.516,0.057c3.43,0.286,11.231-0.343,14.061-0.171
	c7.973,0.486,6.43,0.2,13.546,0.143l13.774,0.229c2.314-0.086,4.715-0.057,7.03-0.029c2.457,0,4.572-0.314,6.772-0.257
	C247.34,64.894,243.91,67.123,244.396,72.725L244.396,72.725z M27.606,61.607l-9.602,0.2c-2.172,0.2-4.944-0.029-7.202-0.029
	c-2.687-0.029-4.201,0.429-6.516-0.543c-0.543-9.231-0.143-19.462-0.143-28.807c0-3.887-0.486-26.807,0.2-28.55
	c1.257-1.715,18.833,0.286,25.148-0.543c2.772-0.372,5.315,0.372,8.173,0.343c2.944,0,6.03-0.028,8.945,0.086
	c3.258,0.114,2.343-0.286,3.915-0.458c2.572-0.257,6.401,0.229,8.659,0.257c1.458,0.029,2.915,0,4.373,0
	c2.715,0.029,5.315,0.686,8.145,0.229c1.315-0.229,14.689,0.143,17.261,0.172c1.572,0.028,3.029-0.2,4.601-0.2l13.06,0.171
	c3.229,0.114,1.486,0.286,4.229-0.343c1.458-0.314,10.088,0.343,12.46,0.372c5.916,0.085,11.774-0.086,17.661-0.029
	c5.744,0.029,11.603,0.143,17.433,0.229c2.972,0.029,5.944-0.085,8.944-0.057l17.433,0.286c2.829,0.029,5.43-0.257,8.459-0.229
	c2.658,0.029,15.689,0.972,16.861,0.629c0.657-0.2,0.886-0.486,1.771-0.6c1.915-0.2,4.372,0.171,6.059,0.371
	c2.715,0.286,5.601,0.229,8.459,0.314c5.544,0.229,2.114-0.657,8.459-0.486c6.83,0.171,8.659,0.8,16.689,0.286
	c1.943-0.115,1.886-0.286,3.972-0.029l12.975,0.257c3.086-0.171,4.286-1.343,6.83,0.886c0.028,2.429,0.2,4.858,0.172,7.259
	c-0.058,4.915-0.2,9.574,0,14.518c0.199,4.801-0.229,6.859-0.314,10.403c0,1.372,0.314,2.029,0.285,3.401
	c-0.057,3.115,0.029,20.033-0.343,20.833c-0.714,1.115-1.743,0.943-3.258,0.915c-1.372,0-2.172,0.229-3.601,0.229l-23.377-0.314
	c-1.829-0.343-12.574,0.114-15.604,0.029c-5.201-0.2-9.974-0.515-15.231-0.086c-2.2,0.171-5.373-0.085-7.745-0.2
	c-2.543-0.086-5.2-0.029-7.744-0.029c-2.601,0-5.029,0.257-7.744,0.286c-2.601,0-5.116-0.257-7.745-0.257
	c-5.144-0.029-10.659,0.286-15.718,0.085c-7.744-0.314-15.746,0-23.49-0.171c-1.286-0.029-2.486-0.343-3.858-0.257
	c-1.829,0.114-2,0.114-3.687-0.085c-5.83-0.715-16.747,0.314-23.176,0c-5.659-0.257-9.545-0.486-15.489-0.257
	c-1.286,0.028-2.201,0.257-3.601,0.257c-1.486-0.029-2.257-0.314-3.629-0.343c-5.258-0.057-10.488,0.057-15.747,0.029l-31.436-0.029
	c-2.658,0.029-5.373,0.114-8.001,0.086l-5.801-0.114C28.035,61.979,28.12,61.979,27.606,61.607L27.606,61.607z M31.378,64.58
	c0.857,2.286-0.314,30.179,0.2,35.294c0.286,2.658-0.028,5.858-0.028,8.773c0,3.029,0.2,5.773,0.229,8.716
	c0.028,3.029-0.2,5.831-0.2,8.688c-0.028,2.344,0.229,6.888-0.085,8.945c0.057,0.086,0.457,0.257,0.628,1.086l0.286,6.401
	c-0.257,1.715-0.658-0.886-0.658,4.144c0,1.973,0,4.544,0.229,6.459c0.171,1.343,1.229,5.487-0.143,6.315
	c-0.314,0.629-0.286,7.402-0.143,8.231c0.229,1.229,0.572,0.686,0.6,2.229l-0.543,11.346c-0.257,3.716,0.486,7.688,0.143,10.746
	c-0.171,1.714,1.058,1.114-0.057,4.743c-0.457,1.458-0.343,9.632-0.257,11.632c0.057,1.801,0.6,1.458,0.543,5.315
	c-0.057,3.458-0.714,6.716-0.372,11.374c0.372,5.659,0.715,11.375,0.2,16.976c-0.114,1.229,0.086,1.658,0.343,2.43
	c0.372,1.143,0.029,1.457,1.258,1.687c7.773-0.029,20.204,0.257,27.577-0.172c3.229-0.172,6.059,0.143,9.202,0.172
	c7.859,0.085,14.518-0.2,22.748,0.028c1.886,0.057,2.943-0.314,4.572-0.343c2.858-0.086,6.287,0.199,9.202,0.257
	c6.144,0.143,12.688-0.314,18.632,0c3.172,0.143,6.287,0.086,9.431,0.086c3.458,0.028,5.716,0.4,8.974,0
	c2.029-0.258,6.916,0.028,9.173,0.114l13.575,0.686c1.657,0,3-0.399,4.829-0.371c1.943,0.057,7.659-0.086,8.717,0.257
	c0.485,0.143,0.371,0.114,0.657,0.314c2.229-0.286,38.122-0.114,42.409-0.057c2.486,0.028,6.059,0.143,8.459-0.086
	c3.601-0.343,12.488,0.543,14.346-0.114c1.086-0.4,0.372-0.286,1.144-0.801c0.057-1.257,0.229-2.429,0.285-3.4
	c0.029-1.144-0.371-2.001-0.457-3.144c-0.657-7.488,1.286-15.375,0.2-20.119c-1.058-4.573,0.657-10.632,0.086-12.89
	c-0.572-2.229,0.457-0.371,0.114-4.286c-0.086-0.801,0.114-1.2,0.086-1.715c0-0.486-0.515-1.2-0.572-2.829
	c-0.143-5.802,0.743-7.06,0.771-9.945c0.029-3.744-0.828-1.743-0.8-6.517c0.028-2.028-0.143-5.115,0.058-6.973
	c0.343-2.801,1.229-1.058,0.257-6.116c-0.343-1.886-0.486-12.003-0.114-13.975c0.229-1.343,1.143-3.43,0.4-6.173
	c-0.743-2.857-0.743-10.574-0.429-13.718c0.199-1.943-0.172-11.346-0.144-14.261c0.029-2.314,0.372-5.087,0.172-7.259
	c-0.343-4.401-0.372-9.888-0.172-14.289c0.114-2.687,1.058-1.086,0.4-3.973l-0.571-4.973c0-3.915,0.657-14.403,0.314-17.375
	c-0.887-7.802,0.114-6.773,7.144-6.83c6.773-0.057,14.004,0.514,20.805-0.029c3.544-0.257,2.943-3.429,3.001-4.43
	c-0.457-0.114-0.229,0.429-0.657-0.486l-0.086-2.772c0.143-1.429,0.143-2.429,0.229-3.887c0.172-2.543,0.771-4.43,0.457-7.516
	c-0.143-1.372-0.657-1.886-0.742-3.373c-0.372-5.658,0.628-6.144,0.771-7.259c0.171-1.572-0.601-2.029-0.429-3.315
	c1.058-6.802-0.2-4.001-0.372-7.316c-0.429-7.917,1.4-2.887,0.486-14.976c-0.114-1.343-0.515-1.886-0.486-3.687
	c0-1.143,0-2.286,0-3.458c-1.857-0.972-0.714,0.257-4.258-0.286l-13.889-0.143c-1.657-0.028-3.001,0.372-4.601,0.286
	c-7.545-0.372-15.403-0.229-22.977-0.257c-3.001-0.029-6.145-0.286-8.945-0.286c-3.144,0.028-6.087,0.371-9.202,0.371
	c-3.086,0-6.173-0.371-9.202-0.286c-9.002,0.286-8.858,0.343-17.89-0.085c-6.001-0.286-12.345,0.514-18.203,0.085
	c-3.087-0.229-6.287-0.114-9.402-0.114c-3.058,0-6.059-0.2-8.945-0.229c-1.857-0.029-2.143,0.4-4.4,0.2h-11.574
	c-1.657,0.029-1.6-0.085-1.8-0.571c-2.115,0.743-4.772-0.343-7.03,0.171c-1.943,0.429-8.288,0.629-10.031,0.171
	c-3.429-0.886-9.917-0.6-13.403,0.086c-3.315,0.657-7.544-0.6-10.088-0.6c-4.629,0.028-9.431,0.771-13.803,0.628
	c-1.515-0.028-1.686-0.457-2.915-0.514L56.784,1.707c-2.515-0.114-4.629-0.4-7.259-0.343c-2.286,0.029-4.858-0.2-7.03,0.257
	c-3.258,0.743-3.058,0.515-6.145-0.028C33.093,1.05,12.974,1.421,7.659,1.335C5.744,1.307,1.972,0.792,1.486,2.507
	c-0.257,0.8-0.143,20.52-0.085,21.634c0.314,4.43-0.286,9.288-0.029,13.832C1.657,42.717,1.4,47.29,1.343,52.034
	c-0.029,2.4,0.171,4.83,0.085,7.259c-0.085,2.915-0.314,4.172,2.829,4.43c2.229,0.171,4.801,0.629,6.916,0.085
	c1.657-0.428,1.886-0.028,3.286,0.086c2.372,0.2,2.915-1,10.002,0.314c2.687,0.486,4.544-0.457,6.201,0
	C31.235,64.379,31.035,64.322,31.378,64.58L31.378,64.58z"/>
<path fill-rule="evenodd" clip-rule="evenodd" fill="#0D0E10" d="M123.255,123.88c-0.171,3.63-0.057,7.145,0.171,10.688
	c0.314,4.687-0.314,9.431-0.028,15.461c0.057,1.715-0.229,3.115-0.057,5.059c0.314,3.515-0.171,6.973-0.2,10.402
	c0,3.4,0.143,7.03,0.286,10.402c0.314,7.487-0.028,7.431-3,7.459c-3.429,0.058-7.173,0.114-10.431-0.172
	c-3.029-0.229-7.602,0.115-10.888,0.086c-7.831-0.057-19.204,0.286-26.606-0.114c-7.745-0.429-7.802,2.515-7.688-8.459
	c0.029-1.857-0.286-3.544-0.229-5.087c0.029-1.687,0.286-3.172,0.286-5.059c-0.085-10.774,0.086-21.691-0.143-32.437
	c0-1.886,0.229-2.658,0.372-4.144l0.028-9.889c0.057-4.401-0.486-2.686-0.486-4.601c0-2.029,0.486,0.172,0.458-4.344l0.028-9.917
	c0.057-4.858-1.515-5.344,11.488-4.63c3.029,0.143,8.116,0.086,10.945-0.229c3.258-0.372,7.23,0.085,10.602,0.143
	c3.858,0.086,7.202-0.286,10.888-0.257c3.572,0.028,6.859,0.343,10.631,0.257c3.772-0.057,3.43,1.029,3.658,7.602L123.255,123.88z
	 M62.271,95.645c0.772,3.372-0.8,14.346,0.086,18.033c1.029,4.43-1.2,14.661-0.229,18.347c1.657,6.373-0.8,10.518,0.085,18.062
	c1.115,9.402-0.257,8.717-0.343,10.803c-0.086,2.029,0.171,5.545-0.143,7.23c0.057,0.058,0.114,0.086,0.114,0.172l0.4,0.743
	c0.743,1.829,0.4,7.03,0.429,9.545c0,4.115-1.543,6.916,3.772,6.716c1.915-0.058,3.715,0.143,5.573,0.114l38.952,0.086
	c3.715,0.028,7.43,0,11.145,0.028c5.658,0.028,3.401-4.572,3.887-7.688l-0.6-0.914c-0.458-1.286,0.229-0.4-0.257-3.688
	c-0.114-0.886-0.086-1.972-0.057-2.886c0.085-3.001,0.028-2.258,0.714-2.658c0.458-2.572,0.515-8.202,0.171-11.06
	c-0.628-5.544,0.743-14.489-0.171-17.062c-1.172-3.229,0.086-8.088,0.229-10.346c0.114-1.943-0.143-4.058,0.057-5.944l-0.286-0.371
	c-0.086-0.171-0.2-0.4-0.257-0.6c-0.143-0.4-0.171-0.886-0.2-1.315c-0.057-0.886,0.085-1.771,0.028-2.629
	c-0.057-0.886-0.429-2.858-0.257-3.944c0.115-0.657,0.2-0.743,0.715-1.143l0.114-1.515l-0.114-8.659
	c-1.858-0.943-0.057-8.517-0.943-9.746c-1.629-1.143-10.974-0.4-13.917-0.743c-2.229-0.286-5.087,0.143-7.23,0.172
	c-2.486,0-5.058-0.029-7.516,0.028c-1.086,0.029-2.715,0.086-3.744-0.171c-0.829-0.2-0.4-0.343-1.572-0.372
	c-0.628,0-0.943,0.114-1.514,0.171c-2.315,0.229-4.944,0.086-7.259,0.286c-3.43,0.314-7.459,0.343-10.86-0.229
	c-1.4-0.229-2.715,0.057-3.429-0.4c-3.086,0.2-3.401-0.314-5.687,1.286L62.271,95.645z"/>
<path fill-rule="evenodd" clip-rule="evenodd" fill="#0D0E10" d="M213.818,95.816c0.8,1.372-0.114,13.717,0,16.461l-0.086-0.2
	c0.4,0.571,0.371,0.829,0.4,1.143l0.143,3.401c0.058,1.543-0.114,3.058-0.086,4.601c0.029,1.686-0.257,3.058-0.2,4.601
	c0.344,6.087,0.344,7.087,0.229,13.546c-0.058,3.001,0.085,6.002,0.057,8.945c0,2.801,0.028,11.317-0.2,13.804
	c-0.2,1.886,0.457,7.459,0.314,8.659c-0.4,3.086,0.4,11.745-0.914,12.803c-0.857,0.601-25.463,0.2-28.692,0.143
	c-4.801-0.085-9.717,0.086-14.518,0.086c-2.372,0.029-4.858-0.285-7.03-0.257c-2.4,0.028-4.315,0.371-6.772,0.114
	c-2.058-4.944-0.457-11.688-0.314-17.204c0.086-3.287-1.286-9.945-0.257-13.175c0.856-2.715-0.2-6.287-0.229-6.459
	c-0.028-0.657,0.4-0.771,0.286-1.857c-0.057-0.657-0.371-1.114-0.429-1.943v-7.287c0-0.657,0.629-4.516,0.571-6.545
	c-0.028-0.943-0.313-1.4-0.343-2.4c-0.057-1.572,0-2.772-0.114-4.344c-0.2-3.258,0.4-6.287,0.258-9.374l0.028-2.829
	c0.057-1.286,0.257-1.229-0.172-2.344c-0.686-1.886-0.314-4.172-0.285-6.516c0-3.83-0.857-6.487,2.429-6.773
	c3.172-0.286,6.287,0.115,9.202,0.372c1.172,0.086,3.286-0.143,4.601-0.171c10.46-0.171,22.233,0.314,32.665,0.057
	c2.657-0.085,6.486-0.057,9.145,0.086L213.818,95.816z M155.691,92.672c-0.915,0.972-1.515,0.058-2.058,1.201
	c-0.543,1.8,0.057,8.23,0.086,10.402c0,0.943-0.2,1.686-0.172,2.658c0.058,1,0.229,1.601,0.172,2.687
	c-0.086,1.772-0.172,3.544-0.2,5.315c-0.058,3.458-0.172,7.402,0.086,10.831c0.257,3.43-0.144,6.974-0.144,10.46
	c0.028,3.458,0.343,7.316,0.2,10.631c-0.286,8.66-0.057,13.175,0.114,21.549c0.028,1.657-0.229,3.544-0.229,5.315
	c0,1.657,0.172,3.715-0.086,5.287l-0.2,0.143c1.344,1.743-0.399,5.487,1.486,6.287c0.371,0.172,11.717,0.801,13.317,0.629
	c0.914-0.114,1.229-0.371,2.2-0.314c1.314,0.086,0.771,0.457,1.915,0.429c0.143,0,1.914-0.371,4.115-0.429
	c4.4-0.114,9.916,0.515,14.289,0.258c7.229-0.4,15.603,0.114,23.49-0.229c2.943-0.144,2.515-1.344,2.544-6.974
	c0.028-1.743-0.229-3.858,0.399-4.744c-0.314-1.629,0.172-3.4-0.085-5.059c-0.314-1.743-0.2-3.2-0.229-4.943
	c-0.028-3.43,0.029-7.002,0.114-10.403c0.144-6.772-0.285-13.889-0.057-20.576l-0.715-1.058l0.029-3.772
	c0.171-1.571,0.485,0.144,0.514-4.601c0.029-1.801,0.029-3.544-0.028-5.344c-0.114-3.229,0.257-1.858-0.571-4.487
	c-0.258-0.8,0.485-7.374,0.515-9.288c0-2.772-0.344-7.716,0.057-10.174c-0.257-1.943-2.943-1.429-5.173-1.429
	c-2.114,0-4.515-0.114-6.544,0c-8.316,0.229-16.832-0.085-25.148-0.085c-2.086,0-4.201,0.114-6.287,0.085
	c-3.915-0.028-3.801-0.4-5.801-0.486C164.379,92.329,157.377,92.758,155.691,92.672L155.691,92.672z"/>
<path fill-rule="evenodd" clip-rule="evenodd" fill="#8C8370" d="M18.004,61.808c-1.343-1-0.8-0.372-0.915-0.4
	c-0.029,0-0.657-0.057-0.714-0.057c-0.429-0.028-1,0-1.486-0.028c-1.029-0.029-2.058-0.029-3.115-0.057
	c-5.315-0.086-7.116,1.286-7.145-2.687L4.572,33.4c0-9.603-0.057-19.233-0.057-28.807C7.001,3.107,16.975,4.25,20.719,4.25
	l34.351-0.057C59.87,4.25,67.529,4.822,71.815,4.279l16.89,0.171c1.657,0.086,2.801-0.2,4.373-0.257l12.803,0.2
	c2.972,0.086,5.544-0.2,8.487-0.143l16.689,0.343c2.915,0.029,5.115-0.4,8.23-0.229c5.602,0.314,11.317,0.286,16.947,0.286
	c5.63,0.029,11.517-0.286,17.146,0.029c8.23,0.429,8.059,0.429,16.232,0.171l16.946,0.372c1.429,0.028,2.886,0.229,4.315-0.057
	c1.686-0.372,1.657-0.572,3.915-0.372c9.03,0.743,16.061,0.257,25.148,0.429l25.891,0.057c9.031,0.028,7.916-1.115,8.745,1.8
	c1.4,4.916-0.286,9.774,0.172,12.746c0.686,4.258-0.486,2.943-0.172,5.373c0.114,0.886,0.286,0.772,0.429,1.515
	c0.457,2.687-0.057,7.659-0.485,10.403c-0.344,2.2,0.057,1.8,0.457,3.086c0.371,1.257-0.172,2.372-0.028,3.83
	c0.571,5.43,0.114,5.83-0.458,10.974c-0.114,1.057,0.2,4.201,0.086,7.202l-0.914,0.286c-16.176,0.429-32.579-0.4-48.726-0.114
	c-2.172,0-4.344-0.057-6.544-0.086c-2.086,0-4.229,0.314-6.287,0.257c-4.058-0.114-8.002-0.2-12.088-0.2
	c-4.173-0.029-8.06,0.314-12.146,0.085c-3.915-0.229-8.344-0.171-12.288-0.085c-4.286,0.114-8.345-0.058-12.574-0.115l-18.661-0.057
	c-2.4-0.057-2.572-0.714-5.344-0.286c-0.143,0.029-9.574-0.343-12.06-0.114h-12.574c-2.086,0.029-4.144-0.229-6.287-0.2
	c-2.029,0-4.029,0-6.058,0c-2.115,0.029-4.172,0.029-6.287,0.143c-2.029,0.114-4.03-0.143-6.059-0.143
	c-6.916,0-60.242-0.314-62.071,0.029c0.514,0.372,0.429,0.372,1.829,0.372l5.801,0.114c2.629,0.028,5.344-0.057,8.001-0.086
	l31.436,0.029c5.258,0.028,10.488-0.086,15.747-0.029c1.372,0.029,2.143,0.314,3.629,0.343c1.4,0,2.315-0.229,3.601-0.257
	c5.944-0.229,9.831,0,15.489,0.257c6.43,0.314,17.347-0.715,23.176,0c1.686,0.2,1.857,0.2,3.687,0.085
	c1.372-0.085,2.572,0.229,3.858,0.257c7.744,0.171,15.746-0.143,23.49,0.171c5.059,0.2,10.574-0.114,15.718-0.085
	c2.629,0,5.145,0.257,7.745,0.257c2.715-0.028,5.144-0.286,7.744-0.286c2.544,0,5.201-0.057,7.744,0.029
	c2.372,0.114,5.545,0.371,7.745,0.2c5.258-0.429,10.03-0.114,15.231,0.086c3.029,0.085,13.774-0.372,15.604-0.029l23.377,0.314
	c1.429,0,2.229-0.229,3.601-0.229c1.515,0.028,2.544,0.2,3.258-0.915c0.372-0.8,0.286-17.719,0.343-20.833
	c0.029-1.372-0.285-2.029-0.285-3.401c0.085-3.544,0.514-5.602,0.314-10.403c-0.2-4.944-0.058-9.603,0-14.518
	c0.028-2.401-0.144-4.83-0.172-7.259c-2.544-2.229-3.744-1.057-6.83-0.886L255.513,4.65c-2.086-0.257-2.028-0.086-3.972,0.029
	c-8.03,0.514-9.859-0.115-16.689-0.286c-6.345-0.171-2.915,0.715-8.459,0.486c-2.858-0.085-5.744-0.028-8.459-0.314
	c-1.687-0.2-4.144-0.571-6.059-0.371c-0.886,0.114-1.114,0.4-1.771,0.6c-1.172,0.343-14.203-0.6-16.861-0.629
	c-3.029-0.028-5.63,0.257-8.459,0.229l-17.433-0.286c-3-0.028-5.973,0.086-8.944,0.057c-5.83-0.085-11.688-0.2-17.433-0.229
	c-5.887-0.057-11.746,0.114-17.661,0.029c-2.372-0.029-11.002-0.686-12.46-0.372c-2.743,0.628-1,0.457-4.229,0.343l-13.06-0.171
	c-1.572,0-3.029,0.229-4.601,0.2c-2.572-0.029-15.946-0.4-17.261-0.172c-2.829,0.458-5.43-0.2-8.145-0.229
	c-1.458,0-2.915,0.029-4.373,0c-2.257-0.028-6.087-0.515-8.659-0.257c-1.572,0.171-0.657,0.572-3.915,0.458
	c-2.915-0.114-6.001-0.086-8.945-0.086c-2.857,0.029-5.401-0.714-8.173-0.343C23.176,4.165,5.601,2.164,4.344,3.879
	c-0.686,1.743-0.2,24.663-0.2,28.55c0,9.345-0.4,19.576,0.143,28.807c2.315,0.972,3.829,0.514,6.516,0.543
	C13.06,61.779,15.832,62.007,18.004,61.808L18.004,61.808z"/>
<path fill-rule="evenodd" clip-rule="evenodd" fill="#CBCBCD" d="M18.004,61.808l9.602-0.2c1.829-0.343,55.155-0.029,62.071-0.029
	c2.029,0,4.029,0.257,6.059,0.143c2.115-0.114,4.172-0.114,6.287-0.143c2.029,0,4.029,0,6.058,0c2.144-0.028,4.201,0.229,6.287,0.2
	h12.574c2.486-0.229,11.917,0.143,12.06,0.114c2.771-0.429,2.943,0.229,5.344,0.286l18.661,0.057
	c4.229,0.057,8.288,0.229,12.574,0.115c3.944-0.086,8.373-0.143,12.288,0.085c4.087,0.229,7.974-0.114,12.146-0.085
	c4.086,0,8.03,0.085,12.088,0.2c2.058,0.057,4.201-0.257,6.287-0.257c2.2,0.029,4.372,0.086,6.544,0.086
	c-0.942-0.714-2.886-0.429-4.601-0.429c-1.543,0-3.286-0.085-4.83,0.029c-3.086,0.2-6.087,0.314-9.145-0.086
	c-2.458-0.314-6.544-0.229-9.259-0.143c-1.544,0.058-2.486,0.515-4.344,0.543c-0.801,0-1.601,0-2.43,0l-1.429-0.085
	c-1.286-0.429-0.2,0.085-0.686-0.458c-1.857,0.143-3.43-0.257-5.373-0.229c-4.372,0.086-14.432,0.143-17.946-0.143
	c-2.372-0.2-13.289,0.143-17.633,0.085c-1.629,0-4.372-0.257-5.744-0.143l-2.258,0.057c-4.972-0.486-11.459-0.057-16.661-0.143
	c-16.404-0.286-34.293,0.657-50.583-0.029c-5.43-0.229-11.203,0.2-16.689,0.086c-5.658-0.143-11.259-0.057-16.946-0.028
	c-5.744,0.028-10.774-0.372-16.432-0.4c-1.343-0.028-2.83,0.029-4.144-0.057c-1.829-0.114-0.286-0.4-3.858-0.4
	c-2.515,0-6.144,0.229-8.516-0.057c-0.229-9.374,0-19.005-0.029-28.407c0-4.515,0.229-9.631,0-14.032
	c-0.143-2.686,0.057-1.629,0.286-3.029L5.344,4.536C7.516,4.679,5.658,5.165,7.458,4.65c1-0.286,45.353-0.086,49.068-0.114
	c2.486,0,6.344-0.114,8.716,0.114c0.857,0.086,3.915,1,5.716,0.543c0.914-0.229,0.4-0.429,1.543-0.6
	c2.115-0.343,6.116,0.2,8.459,0.114c3-0.114,2.029-0.372,3.858,0.314c0.4,0.114,5.001,0.572,6.03,0.4
	c2.258-0.4-1.343-0.886,5.602-0.829c7.259,0.029,3.687,0.429,5.63,0.771c0.4,0.057,1.143-0.143,1.857-0.171
	c1.4-0.057,2.972,0.057,4.373,0.057c2.029,0.029,2.143-0.628,3.601-0.686c1.943-0.114,6.83-0.114,8.459,0.314
	c1.915,0.515,11.603,0.857,14.26,0.286c0.857-0.172,0.657-0.372,1.515-0.515c2.315-0.4,2.287,0.486,3.258,0.714
	c0.199,0.029,3.058-0.2,4-0.143c7.802,0.457,17.805,0.114,25.892,0.2l69.673,0.172c2.915,0,5.83,0.085,8.716,0.114
	c8.631,0,17.604-0.458,26.234-0.172c-0.057,1.486,0.172,1.715,0.229,2.915c0.114,2.372-0.429,1.286,0.372,2.915
	c0.399,0.857,0.429,1.886,0.114,2.772c-1.4,3.715-0.144,5.801-0.543,8.745c-0.144,0.943-0.2,2-0.114,3.001
	c0.171,1.915,0.8,0.657,0.857,2.4c0.057,1.829-0.687,0.486-0.2,2.344c0.285,1.143-1.172,6.23-0.657,8.688
	c0.285,1.315,1,1,0.686,2.172c-0.229,0.771-0.972,0.915-0.429,2.629c0.314,0.972,0.629,0.372,0.629,2.83
	c0.028,1.143,0,2.257-0.086,3.401c-0.172,0.886-0.571,1.343-0.629,2.4c-0.086,1.029-0.143,2.372-0.171,3.372
	c-0.029,2.144,0.571,4.716-0.314,6.373l0.914-0.286c0.114-3.001-0.2-6.145-0.086-7.202c0.572-5.145,1.029-5.544,0.458-10.974
	c-0.144-1.458,0.399-2.572,0.028-3.83c-0.4-1.286-0.801-0.886-0.457-3.086c0.429-2.744,0.942-7.716,0.485-10.403
	c-0.143-0.743-0.314-0.628-0.429-1.515c-0.314-2.429,0.857-1.114,0.172-5.373c-0.458-2.972,1.229-7.831-0.172-12.746
	c-0.829-2.915,0.286-1.772-8.745-1.8l-25.891-0.057c-9.088-0.171-16.118,0.314-25.148-0.429c-2.258-0.2-2.229,0-3.915,0.372
	c-1.43,0.286-2.887,0.085-4.315,0.057l-16.946-0.372c-8.174,0.257-8.002,0.257-16.232-0.171c-5.63-0.314-11.517,0-17.146-0.029
	c-5.63,0-11.346,0.029-16.947-0.286c-3.115-0.171-5.315,0.257-8.23,0.229L114.368,4.25c-2.943-0.057-5.515,0.229-8.487,0.143
	l-12.803-0.2c-1.572,0.057-2.715,0.343-4.373,0.257l-16.89-0.171C67.529,4.822,59.87,4.25,55.069,4.193L20.719,4.25
	c-3.744,0-13.717-1.143-16.204,0.343c0,9.574,0.057,19.205,0.057,28.807l0.057,25.178c0.029,3.972,1.829,2.601,7.145,2.687
	c1.057,0.028,2.086,0.028,3.115,0.057c0.486,0.028,1.058,0,1.486,0.028c0.057,0,0.686,0.057,0.714,0.057
	C17.204,61.436,16.661,60.807,18.004,61.808L18.004,61.808z"/>
<path fill-rule="evenodd" clip-rule="evenodd" fill="#5F5858" d="M126.627,244.224c-0.085-0.057-0.171-0.2-0.229-0.143
	l-67.701-0.429c-7.659-0.144-15.089,0.343-22.719,0.086c-1.343-1.544-1.086-1.801-1.086-4.201c0.029-4.43-0.257-14.404-0.057-17.404
	c0.458-7.259,0.086-15.633,0.086-23.006c0-5.059,0.4-24.264-0.257-27.893c-0.114-0.686,0.2-4.572,0.286-5.315
	c0.658-5.401-0.343-13.489-0.028-16.719c0.286-2.657,0.028-14.518-0.086-17.09c-0.171-3.458,0.057-7.802,0.057-11.374
	c0-1.858-0.4-3.801-0.171-5.458c0.229-1.572,0.2-3.916,0.2-5.659c0.028-3.287,0.229-8.23-0.086-11.346
	c-0.457-4.287,0.458-12.432,0.029-16.747c-0.486-5.03-0.2-1.086-0.114-5.315c0.085-3.229,0.085-8.345,0.571-11.374
	c0.572,0.2,23.691,0.143,25.72-0.086l52.354,0.143c8.716,0.085,17.547-0.143,26.121,0.2c4.344,0.143,8.688-0.143,12.831,0.2
	s8.659,0.143,13.06,0.229c8.745,0.2,17.633,0.086,26.378,0.114l39.208,0.172c2.144,0.028,4.43,0.085,6.373-0.143
	c1.543-0.171,5.658,0.286,6.145,0.143c1.143,0.771,0.828,2.115,0.571,3.4c-0.114,0.686-0.286,1.886-0.086,2.658
	c0.028,0.085,0.028,0.143,0.058,0.229c0.028,0.085,0.085,0.143,0.114,0.2l0.229,0.429c-0.486-5.602,2.943-7.831-4.944-8.002
	c-2.2-0.057-4.315,0.257-6.772,0.257c-2.315-0.028-4.716-0.057-7.03,0.029l-13.774-0.229c-7.116,0.058-5.573,0.343-13.546-0.143
	c-2.829-0.171-10.631,0.457-14.061,0.171c-5.144-0.4-3.857,0.057-6.516-0.057c-6.602-0.229-14.26-0.114-21.062-0.171l-28.063-0.171
	c-4.687-0.029-9.345,0.114-14.031,0.057c-2.086,0-4.887,0.171-6.63-0.4c-2-0.628-4.287-0.085-6.059,0.229
	c-3.687,0.657-9.859-0.086-13.917,0.085c-4.916,0.2-3.658-0.743-5.944-0.286c-1.915,0.4-4.43,0.343-6.63,0.372
	c-4.515,0.028-3.487-0.286-6.373-0.572c-1.743-0.171-5.144-0.171-6.944-0.143c-1.372,0.057-2.058,0.4-3.144,0.543
	c-2.972,0.343-7.173-0.086-10.173-0.115c-1.343-0.028-2.229,0.257-3.629,0.115c-1.286-0.143-2.086-0.172-3.373-0.172
	c-1.229,0-6.772-0.171-7.316,0.886c-0.343,3.086-0.143,7.888-0.229,11.203c-0.028,1.029-0.229,1.943-0.2,2.915
	c0.028,0.915,0.286,1.715,0.343,2.658c0.114,1.743,0.028,3.801,0.028,5.573c0.029,3.772-0.314,7.173-0.085,10.86
	c0.143,2.286,0.2,14.318-0.057,16.918c-0.171,1.715,0.143,3.315,0.143,5.116c0,3.715-0.114,7.458-0.114,11.145
	c0,3.688,0.114,7.402,0.114,11.117c0,3.658-0.257,7.517-0.057,11.146c0.372,6.23-0.085,11.003-0.2,16.719
	c-0.029,1.486,0.257,3.486,0.257,5.287c0,3.744-0.114,7.401-0.171,11.117c-0.057,3.658,0.2,7.487,0.143,11.146
	c-0.257,14.804-0.057,29.922,0,44.754c0.486,0.429,0.829,1.058,1.343,1.457c0.8,0.343,20.004,0.029,22.976,0.114
	c7.545,0.144,14.946-0.085,22.52-0.028c7.688,0.086,15.289,0.086,22.977,0.028c1.743-0.028,3.829-0.285,5.43-0.143
	c1.915,0.172,3.572,0.086,5.458,0.114C118.74,244.252,123.027,244.452,126.627,244.224L126.627,244.224z"/>
<path fill-rule="evenodd" clip-rule="evenodd" fill="#CBCBCD" d="M236.795,1.993c4.2,0.085,39.694-0.114,40.266,0.286
	c1.457,0.8,0.8,3.058,1.172,6.716c0.229,2.058,0.2,5.544,0.143,7.688c-0.057,2.543-0.371,4.801-0.4,7.516
	c-0.057,2.543,0.629,4.373,0.314,7.402c-0.171,1.572,0.172,2.515,0.086,3.972c-0.086,1.429-0.828,5.401-0.629,7.259
	c0.144,1.315,0.515,1.715,0.601,3.373c0.143,2.687-0.143,5.144-0.172,7.745c0,1.658,0.086,2.086-0.257,3.601
	c-0.4,1.686,0.057,2.086,0.114,3.315c0.2,0.229,0.114-0.028,0.314,0.6l0.028,1.686c-0.485,2.715-2.486,2.715-4.572,2.687
	c-3.229-0.057-5.83,0.229-9.174,0l-13.803-0.057c-3.687,0.2-3.687,1.172-3.601,4.401c0.028,1.515,0.429,1.543,0.571,2.458
	c0.258,1.886-1,2.086-0.171,5.287L247.197,89.3c0.028,1.857,0.514,1.601,0.714,2.486c0.629,2.829-0.657,6.973-0.657,8.145
	c-0.057,2.658-0.257,9.859,0.4,11.832c0.571,1.6,0.4,3.572,0,5.144c-1.144,4.572,0.429,8.774-0.114,10.917
	c-0.571,2.258,0.629,3.658,0.343,5.773c-0.114,0.857-0.457,1.571-0.486,2.629l0.172,8.717c0.172,2.144,0.601,3.115,0.601,5.572
	c0,4.688-0.715,3.144-0.772,5.287c-0.057,3.315-0.199,8.803,0.286,11.832c0.257,1.714,0.886,3.286,0.172,5.458
	c-0.657,1.972-0.515,3.458-0.543,5.716c0,3.144-0.314,3.344,0.514,5.573c0.458,1.143,0.344,4.486,0.258,5.801
	c-0.144,1.601-0.543,1.2-0.687,2.4l0.058,6.03c0.2,0.801,0.601,1.114,0.629,2.201l-0.086,9.23c0.028,2.515-1.343,1.943-0.485,5.115
	l0.6,8.402c-0.057,1.943,0.058,3.973-0.257,5.858c-0.429,2.572-0.801,8.517-0.114,10.889l0.229,4.601
	c-0.2,1.172,0.485,1.144-0.771,1.172c-0.771,0.515-0.058,0.4-1.144,0.801c-1.857,0.657-10.745-0.229-14.346,0.114
	c-2.4,0.229-5.973,0.114-8.459,0.086c-4.287-0.058-40.181-0.229-42.409,0.057c-3.401,0.172-7.145-0.143-10.574-0.057
	c-7.602,0.171-12.917-0.115-20.348-0.172c-1.686-0.028-3.372-0.143-5.086-0.086c-1.887,0.028-2.658,0.429-4.772,0.2
	c-9.459-0.914-20.862,0.058-30.55-0.229c-3.172-0.086-6.802-0.4-10.145-0.314c0.057,0.058,0.143,0.114,0.2,0.172
	c0.057,0.057,0.114,0.114,0.171,0.171c0.086,0.058,0.115,0.114,0.2,0.143c0.686,0.4,8.488,0.458,9.574,0.515
	c3.458,0.114,6.973-0.086,10.431-0.057l62.414,0.257c7.029,0,14.031-0.172,21.062,0c6.887,0.2,13.831-0.172,20.805,0.028
	c3.4,0.114,6.973-0.2,10.402-0.171c3.4,0.028,7.029,0.371,10.402,0.2c1.943-0.114,3.229-0.314,3.457-2.144
	c0.2-1.772-0.371-10.889-0.171-15.004c0.314-6.974,0-14.203,0.086-20.576l0.028-10.374c-0.114-0.915-0.4-1.144-0.486-2.201
	l0.172-5.173c0.914-3.915,0.143-8.459,0.143-12.488c0-6.573,0.486-13.918-0.085-20.605c-0.344-3.601,0.742-9.859,0.143-15.403
	c-0.457-4.258-0.114-6.345,0.114-10.202c0.143-2.602-0.486-11.917-0.286-15.261c0.114-1.715,0.343-3.086,0.258-5.059
	c-0.172-4.83-0.886-10.459-0.229-15.175c0.399-2.772-0.086-30.579,0.199-31.064c1.658-1.429,8.688-0.657,11.403-0.715
	c1.886-0.028,4-0.286,5.744,0.143c1.657,0.4,4.086,0.143,5.601-0.143c1.657-0.343,3.944,0.314,5.83-0.257
	c2.915-0.886,1.571-5.916,1.629-7.488l0.2-8.945c-0.058-3.887-0.457-8.602-0.143-12.346c0.343-4.029,0.057-8.03-0.058-12.088
	c-0.143-4.03,0.229-8.031,0.172-12.117c0-2.058-0.086-3.973-0.172-6.03c-0.114-2.543,0.686-3.544-0.715-5.258
	c-3.657-0.372-21.976-0.057-27.52-0.057c-3.944,0.028-2.344-0.114-4.772-0.772c-1.629-0.428-3.059,0.515-5.116,0.057
	c-0.886-0.2-0.942-0.457-1.914-0.171c-1.314,0.372-1.543,1.058-1.572,1C236.938,1.764,236.852,1.936,236.795,1.993L236.795,1.993z"
	/>
<path fill-rule="evenodd" clip-rule="evenodd" fill="#CBCBCD" d="M126.627,244.224c0.658-0.057,8.059-0.028,8.431,0.143
	c0.114-0.199-0.143-0.571,1.543-0.628l11.66,0.371c3.915,0.4,9.631-0.114,13.518-0.314c2.229-0.114,4.344,0.4,6.544,0.372
	c15.375-0.286,32.321,0.085,47.896,0c7.059-0.058,16.918-0.172,23.948,0.028h2.657c0.829-0.286,0.314,0.143,0.771-0.543
	c-9.316,0.285-19.175,0-28.577,0h-46.696c-2.4,0.028-4.744-0.857-6.544-0.687c-1.2,0.114-1.801,0.629-3.115,0.658
	c-2.258,0.028-4.63,0-6.887,0.028c-0.801,0-2.658,0.114-3.315-0.058c-0.715-0.171-0.257-0.171-1.143-0.457
	c-0.572-0.2-1.029-0.257-1.744-0.286l-10.888,0.114c-2.029,0.144-1.715,0-3.086-0.457c-0.829,1.115-0.372,1.229-3.429,0.857
	c-1.086-0.143-1.086-0.457-2.429-0.515l-18.147-0.114c-7.944,0.458-16.232,0.114-24.205,0.172
	c-11.574,0.114-24.577-0.257-35.836,0.028c-1.886,0.058-10.603,0.258-11.631-0.143c-0.6-1.801,0.114-62.158-0.314-71.732
	c-0.143-3.258,0.171-7.03,0.114-10.402c-0.171-13.546-0.2-27.578,0-41.124l-0.029-38.496c-0.085-1-0.429-1.171-0.714-1.915
	c0.514-1.257,0.657-1.257,0.686-2.887l0.085-10.688c-0.171-0.772,0.314-0.343-0.429-0.714c-0.486,3.029-0.486,8.145-0.571,11.374
	c-0.086,4.229-0.372,0.286,0.114,5.315c0.429,4.315-0.486,12.46-0.029,16.747c0.314,3.115,0.114,8.059,0.086,11.346
	c0,1.743,0.028,4.087-0.2,5.659c-0.229,1.657,0.171,3.601,0.171,5.458c0,3.572-0.229,7.916-0.057,11.374
	c0.114,2.572,0.372,14.433,0.086,17.09c-0.314,3.229,0.686,11.317,0.028,16.719c-0.085,0.743-0.4,4.63-0.286,5.315
	c0.657,3.629,0.257,22.834,0.257,27.893c0,7.373,0.372,15.747-0.086,23.006c-0.2,3,0.086,12.975,0.057,17.404
	c0,2.4-0.257,2.657,1.086,4.201c7.63,0.257,15.061-0.229,22.719-0.086l67.701,0.429
	C126.456,244.023,126.542,244.167,126.627,244.224L126.627,244.224z"/>
<path fill-rule="evenodd" clip-rule="evenodd" fill="#CBCBCD" d="M31.064,65.323c-0.429-1.144-3.515-0.257-5.516-0.343
	c-0.771-0.028-1.429-0.085-2.058-0.457c-1.772,0.028-3.601-0.543-6.116-0.2c-1.086,0.114-1.943,0.343-3.201,0.2
	c-1.114-0.114-1.743-0.6-2.715-0.2c-1.743,0.657-4.344,0.286-6.258,0.143c-6.688-0.458-3.601-3.801-4.172-16.547
	c-0.2-4.287-0.057-9.431-0.057-13.804c0-9.173-0.057-18.404,0-27.578C1,0.021-0.086,0.935,9.116,1.021
	c7.487,0.057,20.862-0.343,27.349,0.086c2.772,0.2,3.43,0.257,6.259,0c3.658-0.314,29.721-0.057,34.379,0.085
	c4.515,0.114,9.259-0.2,13.803-0.229c2.315,0,4.373,0.343,6.516,0.343c2.372,0,4.687-0.229,7.03-0.257
	c6.716-0.058,14.46,0.543,20.805,0.085l5.087,0.029c0.229,0,0.743,0,0.943,0.057c0.657,0.143,0.429,0.057,0.629,0.286
	c3.287-0.572,7.373,0.028,10.774-0.028c1.028,0,1.429-0.257,2.343-0.172c0.943,0.057,1.172,0.343,2.43,0.143l16.032-0.086
	c3.572,0.057,6.658,0.886,10.345,0.4c2.029-0.229,10.803-0.4,13.374-0.2c1.144,0.086,1.229,0.343,2.201,0.458
	c3.601,0.4,11.545-0.372,15.918-0.486c2.143-0.057,2.914,0.486,4.829,0.543l5.315-0.286c-1.601-0.286-3.43-0.085-5.087-0.085
	c-2.058,0-1.229-0.743-4.315-0.743l-7.516,0.314c-4.572,0.714-1.943,0.372-7.001,0.429c-4.287,0.028-1.029-0.715-4.115-0.886
	c-6.345-0.343-13.003,0.429-19.833,0.029c-8.202-0.486-35.008,0.457-40.209-0.229c-1.486-0.172-3.43,0.085-5.059,0.114
	l-14.917-0.286c-3.086-0.686-9.63,0.857-11.688,0.229c-1.458-0.429,0.4,0.085-0.743-0.429c-1.2-0.515-8.859,0.114-10.888,0.114
	c-4.287-0.029-2.601,0.229-4.572,0.372c-3.544,0.257-3.401-0.314-4.601-0.4c-1.486-0.085-3.572-0.057-5.087-0.028
	c-1,0-1.829,0.143-2.458,0.2c-0.943,0.057-1.086-0.143-2.144-0.2c-1.743-0.057-2.658,0.4-4.372,0.372
	c-0.857-0.029-1.572-0.286-1.972-0.229c-0.771,0.143-0.943,0.372-2.115,0.314c-5.687-0.286-8.544-0.457-14.774-0.085
	c-1.744,0.114-3.315,0.057-5.087-0.057c-0.886-0.058-1.772,0.028-2.601-0.058c-0.886-0.085-0.829-0.257-1.972-0.286L12.088,0.392
	c-0.314,0.029-0.686,0.2-1.286,0.115C9.545,0.364,10.831,0.421,9.917,0.25c-0.572-0.143-0.8,0.114-1.886-0.029
	c-1.915-0.2-7.373-0.857-7.945,1.772C-0.2,3.25,0.343,25.37,0.114,26.742L0.085,41.859c0.057,0.972,0.314,1.286,0.257,2.429
	C0.286,45.403,0,45.375,0.028,46.432c0,0.943,0.286,1.314,0.286,2.458c0,1.029-0.2,1.229-0.257,2.172
	c-0.086,1.486-0.057,3.344-0.029,4.83c0.143,7.888-1.714,9.917,11.031,9.174C12.174,65.008,29.892,65.065,31.064,65.323
	L31.064,65.323z"/>
<path fill-rule="evenodd" clip-rule="evenodd" fill="#CBCBCD" d="M155.777,91.872c3.286,0.429,9.23,0.085,12.773,0.085
	c2.087-0.028,4.602,0.4,6.316,0.171l9.431-0.2c1.457,0.028,3.429,0.2,4.829,0.6c2.544,0.714,13.632-1.086,15.718,0.4
	c2.029-0.114,4.43,0,6.544,0c2.229,0,4.916-0.514,5.173,1.429c0.286,0.372,0.086-0.057,0.257,0.543l0.086,1.886
	c-0.028,0.915-0.028,1.486,0,2.429c0.144,4.058-0.399,12.289-0.2,14.489c0.657,6.344-0.057,12.975,0.058,19.376
	c-0.229,6.688,0.2,13.804,0.057,20.576c-0.085,3.401-0.143,6.974-0.114,10.403c0.029,1.743-0.085,3.2,0.229,4.943
	c0.257,1.658-0.229,3.43,0.085,5.059c0.114,3.001,0.058,6.83-0.143,9.859c-0.2,3.115-2.543,2.601-6.688,2.658
	c-6.487,0.143-12.917-0.143-19.375,0.028c-3.229,0.058-6.431,0-9.659-0.028c-5.659-0.086-24.978,0.714-27.721-1.344l-0.172-6.087
	l0.2-0.143l-0.171-0.314c-0.029-0.058-0.058-0.114-0.086-0.172c-0.372-1.143-0.058-11.631-0.058-12.774
	c0.114-4.43-0.171-8.888-0.086-13.317c0.115-4.544,0-8.802,0-13.289c0.029-4.258-0.143-9.26,0.172-13.403
	c-0.943-1.372,0.058-14.261-0.172-17.118c-0.199-2.429-0.057-5.373-0.114-8.202c-0.057-1.515,0.058-2.887,0.058-4.373
	c0-3.944,0.172-1.772,0.515-3.572l-1.286,0.915c-0.086,2.686-0.286,7.43,0.086,9.745c0.429,2.515-0.2,1.943-0.144,4.287
	l0.258,19.605c0.114,1.915-0.258,3.201-0.286,4.83c-0.028,1.371-0.143,11.174,0.257,12.088c0.344,0.801,0.657,0.601,0.258,2.059
	c-1.029,3.771-0.314,23.348-0.457,29.664c-0.144,6.03,1.143,1.229,0.686,6.802c-0.028,0.543-1.515,3.515,2.344,4.315
	c1.571,0.314,7.858,0.314,9.944,0.257c9.659-0.257,20.805-0.114,30.492-0.057c2.229,0,19.662,0.285,20.319-0.086
	c0.629-0.715,1.058-0.771,1.2-1.801c0.343-2.4,0.086-7.773,0.114-10.288c0.829-0.771,0.743-0.743,0.743-2.286
	c0.028-0.857,0.2-2.829,0-3.572c-0.343-1.258-0.771,0-0.771-2.715c0-1.2-0.058-2.486-0.029-3.63c0.029-1.657-0.171-5.802,0.086-7.03
	c0.2-1.058,0.657-1.286,0.715-2.887c0.028-1.257,0.229-2.515,0.2-3.4c-0.629-0.314-1.058,0.4-1.001-2.658
	c0.058-2.543-0.313-10.06,0.229-11.374c0.771-1.829,0.257-1.601-0.144-2.771c-0.285-0.857-0.057-25.692-0.028-26.979
	c0.057-2.543-0.143-5.287-0.058-7.745c0.086-1.744-0.057-2.287-0.114-3.916c-0.057-1.857,0.857-1.343,0.172-2.744l-0.486,1.258
	c-0.028,0.057-0.057,0.143-0.114,0.2c-2.143-0.143,0.058-0.628-2.657-0.2h-7.259c-1.857,0-1.771,0.171-2.658-0.972
	c-4.114-0.057-8.229-0.029-12.345-0.029c-2.229-0.028-3.658,0.372-5.83,0.229c-5.544-0.371-17.661,0-24.177,0
	C161.007,91.586,156.463,91.329,155.777,91.872L155.777,91.872z"/>
<path fill-rule="evenodd" clip-rule="evenodd" fill="#CBCBCD" d="M75.902,91.529c-0.657-0.229-0.171-0.028-0.343,0.2
	c1.372,0.314,13.66-0.429,17.519-0.085c5.715,0.543,11.945-0.286,17.661-0.029c3.287,0.143,5.744,0,8.974-0.057
	c9.602-0.143,5.03,3.572,6.516,11.574c0.171,0.915,0.257,6.916-0.086,8.173l-0.2,0.458l-0.114,1.515l0.257,10.002
	c-0.2,1.887,0.057,4.001-0.057,5.944c-0.143,2.258-1.4,7.116-0.229,10.346c0.915,2.572-0.457,11.518,0.171,17.062
	c0.343,2.857,0.286,8.487-0.171,11.06c0.029,1.801-0.229,3.486-0.028,5.315c0.143,1.43,0.429,3.344,0.229,4.83
	c0.028,0.028,0.085,0.058,0.085,0.143c0.029,0.314,0.286-0.057,0.257,2.286c0,7.374-0.915,5.459-8.831,5.487
	c-1.915,0-3.801,0.258-5.801,0.229c-3.801-0.057-7.602-0.085-11.374-0.143c-3.829-0.057-7.63,0.229-11.374,0.058
	c-6.458-0.258-10.888-0.086-16.947,0c-1.943,0.028-3.801-0.144-5.801-0.086c-6.201,0.2-4.086-4.544-4.058-6.517l-0.028-8.602
	c-0.229-1.086-0.6-1.114-0.4-2.572c0.314-1.686,0.057-5.201,0.143-7.23c0.086-2.086,1.458-1.4,0.343-10.803
	c-0.886-7.544,1.572-11.688-0.085-18.062c-0.972-3.687,1.257-13.917,0.229-18.347c-0.886-3.687,0.686-14.661-0.086-18.033
	c-0.686-0.486-0.028,0.257-0.429-0.458c-1.086-1.886,0.943-2.801,1.429-3.515c-3.172,0.114-1.715,3.458-2,6.316
	c-0.143,1.314,0.143,2.458,0.114,3.887c-0.029,1.372,0.029,2.715-0.057,4.115c-0.314,5.458,0.343,10.717,0.028,16.175
	c-0.314,5.287,0.115,10.631,0.115,15.747c-0.029,2.657-0.229,5.315-0.257,8.002c-0.029,2.829,0.229,5.43,0.257,8.202
	c0.114,5.172-0.629,10.803-0.2,15.918l0.028,11.917c-0.314,5.315,3.887,4.173,8.059,4.315c2.829,0.086,5.401-0.143,8.23-0.114
	c5.258,0.057,11.002,0.4,16.204,0.143c5.287-0.257,10.688,0.029,15.975,0.029c2.572-0.029,5.516-0.229,7.973-0.2
	c8.974,0.2,9.174,1.972,8.888-7.545c-0.257-8.974,0.057-15.575-0.143-24.463c-0.057-2.744,0.114-5.259,0.171-7.974
	c0.057-2.658-0.229-5.716-0.114-8.23v-16.204c-0.229-5.316,0.028-10.86,0.114-16.204c0.028-2.543-0.229-5.344-0.257-8.002
	c0-2.715,0.943-5.659-2.058-5.944c-2.458-0.029-3.915-0.343-6.344-0.029c-1.4,0.172-4.658,0.172-6.059-0.028
	c-3.486-0.486-8.459,0.028-12.088,0.114c-4.087,0.086-7.573-0.429-11.631-0.343C84.447,91.329,79.503,91.872,75.902,91.529
	L75.902,91.529z"/>
<path fill-rule="evenodd" clip-rule="evenodd" fill="#CBCBCD" d="M213.418,135.74v24.435c0.028,1.457-1.543,3.114-0.314,4.601
	l0.314,12.832c0,1.601,0.028,1.857-0.429,3.001c-1.143,2.771,1.543,2.343-6.916,2.343c-1.515,0-1.057-0.371-2.2-0.514l-17.204,0.457
	c-1.257-0.4-0.972-0.886-3.086-0.515c-1.857,0.343-1.343-0.058-2.943-0.172c-1.344-0.085-2.029,0.4-2.943,0.629
	c-0.829,0.2-9.202,0.258-10.288-0.086c-2.086-0.657-5.059-0.771-7.316-0.429c-2.086,0.344-1.314,0.258-3.144-0.114
	c-0.171-2-0.457-9.059,0.029-10.659c0.686-2.258,0.371-1.915,0.399-4.83c0-0.743,0.058-1.943-0.086-2.601
	c-0.143-0.857-0.428-0.886-0.485-2.258c-0.086-1.771-0.086-3.544-0.086-5.315c-0.057-3.601,0.629-3.801,0.629-4.801
	c-0.028-2.858-0.629-6.773-0.629-10.203v-4.601c0-2.144,0.743-3.401,0.515-4.916c-0.229-1.571,0.086-1.485,0.114-2.601
	c0.028-1.2-0.485-0.914-0.543-2.4c-0.028-0.972,0.143-1.886,0.114-2.887c-0.028-0.972-0.2-1.915-0.2-2.915l0.229-6.773
	c0-1.743-0.285-2.4-0.085-4.344c0.143-1.372-0.629-12.546-0.058-13.575c0.429-0.686,2.286-0.657,3.058-0.629l24.92,0.343
	c3.858-0.057,26.349-0.286,28.378,0.229c0.429,1.286,0.257,6.316,0.257,8.288c0,2.515-0.6,1.601-0.857,3.515
	c-0.629,4.916,1.029,3.487,0.687,5.373c-0.086,0.514-0.429,0.8-0.258,1.629c0.657,2.772,0.429,0.714,0.4,4.258
	c-0.028,6.802-1,2.429-0.657,7.974c0.057,1.399,0.6,1.485,0.686,3.629C213.476,132.653,213.418,134.226,213.418,135.74
	L213.418,135.74z M155.92,110.248l-0.028,2.829c1.143,0.4,0.457,2.886,0.371,3.801c-0.143,1.429-0.058,3.144-0.028,4.601
	c0.028,2.83,0.314,6.001,0.229,8.945c-0.172,5.944-0.343,11.918,0.028,17.891c0.2,3.058-0.229,5.887-0.2,8.974
	c0.029,3.087,0.286,5.973,0.286,8.945c0,3.687-1.314,14.918,0.485,17.004c2.401,0.343,4.344-0.371,6.916-0.286
	c4.916,0.172,7.802,0.829,14.003,0.486c1.314-0.058,1.629-0.515,3.115-0.286c1.829,0.258,1.601,0.086,3.229-0.028
	c1.028-0.086,2,0.343,3.344,0.343h18.146c2.115,0.028,5.43,0.143,7.431-0.171c1.114-5.259,0.399-11.975,0.514-17.548
	c0-1.571-0.285-2.372-0.086-4.029c0.172-1.458,0.058-2.943,0.086-4.43c0.086-6.516,0.372-22.549,0.029-27.35
	c-0.4-5.229,0.028-4.915-0.029-8.459c-0.057-3.086-0.086-6.344-0.028-9.402l0.086,0.2c-0.629-0.457-0.2,0-0.571-0.6
	c-0.915-1.572,0.428-4.63,0.485-6.659c0.028-1.972,0.371-7.516-0.314-8.831c-1-0.486-8.916-0.486-10.431-0.372
	c-1.601,0.143-3.286,0.028-4.887-0.029c-2.001-0.028-4.516,0.2-5.259-0.514c-2.486,0.171-6.887,0.057-9.516,0
	c-2.887-0.057-6.116,0.2-9.202,0.2c-2.658,0-6.659,0.372-8.316-0.057c-2.029-0.543-6.716-0.429-9.03-0.229
	c-0.915,2.258-0.543,4.744-0.572,7.402c0,1.286-0.143,2.572-0.028,3.887C156.291,107.904,156.834,109.533,155.92,110.248
	L155.92,110.248z"/>
<path fill-rule="evenodd" clip-rule="evenodd" fill="#989898" d="M31.064,65.323l0.028,44.782
	c-0.028,14.947-0.114,30.036,0.086,44.983c0.229,14.946-0.029,30.064-0.057,45.011c-0.029,7.516,0.171,15.004,0.028,22.52
	c-0.171,7.373,0.543,14.318,0,21.634c1.143,0.857-0.085,1.001,1.515,2.229l0.771,0.857c2.572-0.314,52.012-0.086,58.413-0.086
	c6.801,0,2.658-0.714,7.745-0.686c-0.629-0.543,0.886-0.343-0.972-0.486c-1.829,0-2.258,0.314-3.687,0.515
	c-1.429,0.2-10.174-0.286-12.26-0.286c-2.829,0-5.43,0.372-8.23,0.344c-2.687,0-5.544-0.144-8.23-0.258
	c-2.943-0.114-5.172,0.2-7.973,0.258c-2.629,0.057-5.858,0.028-8.488-0.086c-1.372-0.086-2.743-0.2-4.115-0.258
	c-1.744-0.028-2.429,0.4-4.087,0.372c-1.572,0-7.001,0.314-8.001-0.571c-1.229-0.229-0.886-0.544-1.258-1.687
	c-0.257-0.771-0.457-1.2-0.343-2.43c0.515-5.601,0.171-11.316-0.2-16.976c-0.343-4.658,0.314-7.916,0.372-11.374
	c0.057-3.857-0.486-3.515-0.543-5.315c-0.085-2-0.2-10.174,0.257-11.632c1.115-3.629-0.114-3.029,0.057-4.743
	c0.343-3.059-0.4-7.03-0.143-10.746l0.543-11.346c-0.028-1.543-0.371-1-0.6-2.229c-0.143-0.829-0.171-7.603,0.143-8.231
	c0.229-3.743-0.314-8.315-0.372-12.288c0-2.201,0.429-4.144,0.4-6.059c-0.058-2.001-0.4-4.087-0.372-6.059
	c0.314-2.058,0.057-6.602,0.085-8.945c0-2.857,0.229-5.659,0.2-8.688c-0.029-2.943-0.229-5.687-0.229-8.716
	c0-2.915,0.314-6.116,0.028-8.773c-0.514-5.116,0.657-33.008-0.2-35.294c-1.687-0.143-2.458-0.114-4.115,0.085
	c-1.4,0.143-2.401-0.143-3.772-0.143c0.629,0.372,1.286,0.429,2.058,0.457C27.549,65.065,30.635,64.179,31.064,65.323L31.064,65.323
	z"/>
<path fill-rule="evenodd" clip-rule="evenodd" fill="#989898" d="M243.71,243.795c0.543-0.314,0.629,0.2,0.601-2.572
	c-0.028-0.942-0.028-1.914-0.028-2.886l0.257-16.69c0.028-0.857,0.143-4.887,0.086-5.287c-0.143-1.057-0.4-1.172-0.372-2.715
	c0-5.001,0.2-3.973,0.544-7.974c0.143-1.886-0.2-3.886-0.115-5.944c0.229-2.343-0.143-5.516-0.199-8.087
	c-0.058-5.173,1.086-5.487,0.114-11.688c-0.458-2.973,0.257-8.859,0.371-11.774c0.229-5.345-1.086-11.031-0.343-16.176
	c0.343-2.258,0.657-5.059,0.143-7.573c-1.086-5.287,0.144-11.06,0.144-15.718c0-1.744-0.543-1.629-0.515-3.602l0.229-12.346
	c0-2.343-0.543-5.516-0.314-7.973c0.486-5.287,0.4-10.688,0.114-15.976c-0.229-4.315,0.715-12.46-0.028-16.089l-0.229-0.429
	c-0.029-0.058-0.086-0.115-0.114-0.2c-0.029-0.086-0.029-0.143-0.058-0.229c-0.2-0.772-0.028-1.972,0.086-2.658
	c0.257-1.286,0.571-2.629-0.571-3.4c0.485,2.286-0.029,3.029,0.028,5.344c0.028,1.715,0.286,3.287,0.286,5.316
	c0,3.772-0.172,7.63-0.144,11.374c0.028,3.715,0.2,7.374,0.144,11.117v22.491c0,3.886,0.285,7.316,0.143,11.146
	c-0.143,3.572-0.143,7.229-0.143,10.888c0,1.973,0.428,3.344,0.229,5.315c-0.572,6.431,0.085,10.718,0.085,16.462
	c-0.028,3.543-0.313,7.287-0.313,11.117c0,9.088-0.229,18.861,0.257,27.835c0.114,1.801-0.257,3.372-0.257,5.315
	C243.825,221.133,244.168,231.992,243.71,243.795L243.71,243.795z"/>
<path fill-rule="evenodd" clip-rule="evenodd" fill="#5F5858" d="M131.915,1.507c0.2,0.486,0.143,0.6,1.8,0.571h11.574
	c2.258,0.2,2.543-0.229,4.4-0.2c2.887,0.028,5.888,0.229,8.945,0.229c3.115,0,6.315-0.114,9.402,0.114
	c5.858,0.429,12.202-0.372,18.203-0.085c9.031,0.429,8.888,0.371,17.89,0.085c3.029-0.085,6.116,0.286,9.202,0.286
	c3.115,0,6.059-0.343,9.202-0.371c2.801,0,5.944,0.257,8.945,0.286c7.573,0.028,15.432-0.114,22.977,0.257
	c1.6,0.085,2.943-0.314,4.601-0.286l13.889,0.143c3.544,0.543,2.4-0.686,4.258,0.286c0,1.172,0,2.315,0,3.458
	c-0.028,1.801,0.372,2.344,0.486,3.687c0.914,12.089-0.915,7.059-0.486,14.976c0.172,3.315,1.43,0.514,0.372,7.316
	c-0.172,1.286,0.6,1.743,0.429,3.315c-0.144,1.115-1.144,1.601-0.771,7.259c0.085,1.486,0.6,2.001,0.742,3.373
	c0.314,3.086-0.285,4.973-0.457,7.516c-0.086,1.458-0.086,2.458-0.229,3.887l0.086,2.772c0.429,0.915,0.2,0.372,0.657,0.486
	c-0.058-1.229-0.515-1.629-0.114-3.315c0.343-1.515,0.257-1.943,0.257-3.601c0.029-2.601,0.314-5.058,0.172-7.745
	c-0.086-1.658-0.457-2.058-0.601-3.373c-0.199-1.857,0.543-5.83,0.629-7.259c0.086-1.458-0.257-2.4-0.086-3.972
	c0.314-3.029-0.371-4.858-0.314-7.402c0.029-2.715,0.344-4.973,0.4-7.516c0.058-2.144,0.086-5.63-0.143-7.688
	c-0.372-3.658,0.285-5.916-1.172-6.716c-0.571-0.4-36.065-0.2-40.266-0.286c-1.572-0.114-3.83-0.029-5.573-0.029
	c-4.058-0.057-1.686,0.286-5.258-0.571c-3.544-0.8-7.487,0.8-10.488,0.4l-5.315,0.286c-1.915-0.057-2.687-0.6-4.829-0.543
	c-4.373,0.115-12.317,0.886-15.918,0.486c-0.972-0.115-1.058-0.372-2.201-0.458c-2.571-0.2-11.345-0.029-13.374,0.2
	c-3.687,0.486-6.772-0.343-10.345-0.4L147.461,1.45c-1.258,0.2-1.486-0.086-2.43-0.143c-0.914-0.085-1.314,0.172-2.343,0.172
	C139.287,1.535,135.201,0.935,131.915,1.507L131.915,1.507z"/>
<path fill-rule="evenodd" clip-rule="evenodd" fill="#5F5858" d="M23.491,64.522c1.372,0,2.372,0.286,3.772,0.143
	c1.657-0.2,2.429-0.229,4.115-0.085c-0.343-0.257-0.143-0.2-0.715-0.372c-1.657-0.457-3.515,0.486-6.201,0
	c-7.087-1.314-7.63-0.114-10.002-0.314c-1.4-0.114-1.629-0.514-3.286-0.086c-2.115,0.543-4.687,0.086-6.916-0.085
	c-3.144-0.257-2.915-1.515-2.829-4.43c0.086-2.429-0.114-4.858-0.085-7.259C1.4,47.29,1.657,42.717,1.372,37.973
	C1.114,33.429,1.714,28.571,1.4,24.141C1.343,23.026,1.229,3.307,1.486,2.507c0.486-1.714,4.258-1.2,6.173-1.171
	c5.315,0.085,25.434-0.286,28.692,0.257c3.086,0.543,2.887,0.771,6.145,0.028c2.172-0.457,4.744-0.229,7.03-0.257
	c2.629-0.057,4.744,0.229,7.259,0.343L74.645,1.45c1.229,0.057,1.4,0.486,2.915,0.514c4.373,0.143,9.174-0.6,13.803-0.628
	c2.543,0,6.773,1.257,10.088,0.6c3.486-0.686,9.974-0.972,13.403-0.086c1.743,0.458,8.087,0.257,10.031-0.171
	c2.258-0.514,4.916,0.572,7.03-0.171c-0.2-0.229,0.028-0.143-0.629-0.286c-0.2-0.057-0.714-0.057-0.943-0.057l-5.087-0.029
	c-6.344,0.458-14.089-0.143-20.805-0.085c-2.343,0.028-4.658,0.257-7.03,0.257c-2.144,0-4.201-0.343-6.516-0.343
	c-4.543,0.028-9.288,0.343-13.803,0.229c-4.658-0.143-30.721-0.4-34.379-0.085c-2.829,0.257-3.486,0.2-6.259,0
	C29.978,0.678,16.604,1.078,9.116,1.021c-9.202-0.086-8.116-1-8.145,5.516c-0.057,9.174,0,18.405,0,27.578
	c0,4.373-0.143,9.517,0.057,13.804C1.6,60.664-1.486,64.008,5.201,64.465c1.915,0.143,4.515,0.514,6.258-0.143
	c0.972-0.4,1.601,0.086,2.715,0.2c1.257,0.143,2.115-0.086,3.201-0.2C19.89,63.979,21.719,64.551,23.491,64.522L23.491,64.522z"/>
<path fill-rule="evenodd" clip-rule="evenodd" fill="#8C8370" d="M247.197,246.081c1.257-0.028,0.571,0,0.771-1.172l-0.229-4.601
	c-0.687-2.372-0.314-8.316,0.114-10.889c0.314-1.886,0.2-3.915,0.257-5.858l-0.6-8.402c-0.857-3.172,0.514-2.601,0.485-5.115
	l0.086-9.23c-0.028-1.087-0.429-1.4-0.629-2.201l-0.058-6.03c0.144-1.2,0.543-0.8,0.687-2.4c0.086-1.314,0.2-4.658-0.258-5.801
	c-0.828-2.229-0.514-2.43-0.514-5.573c0.028-2.258-0.114-3.744,0.543-5.716c0.714-2.172,0.085-3.744-0.172-5.458
	c-0.485-3.029-0.343-8.517-0.286-11.832c0.058-2.144,0.772-0.6,0.772-5.287c0-2.457-0.429-3.429-0.601-5.572l-0.172-8.717
	c0.029-1.058,0.372-1.771,0.486-2.629c0.286-2.115-0.914-3.516-0.343-5.773c0.543-2.143-1.029-6.344,0.114-10.917
	c0.4-1.572,0.571-3.544,0-5.144c-0.657-1.972-0.457-9.174-0.4-11.832c0-1.172,1.286-5.316,0.657-8.145
	c-0.2-0.886-0.686-0.629-0.714-2.486l0.429-11.374c-0.829-3.201,0.429-3.401,0.171-5.287c-0.143-0.915-0.543-0.943-0.571-2.458
	c-0.086-3.229-0.086-4.201,3.601-4.401l13.803,0.057c3.344,0.229,5.944-0.057,9.174,0c2.086,0.029,4.087,0.029,4.572-2.687
	l-0.028-1.686c-0.2-0.628-0.114-0.372-0.314-0.6c-0.058,1,0.543,4.172-3.001,4.43c-6.801,0.543-14.031-0.028-20.805,0.029
	c-7.029,0.057-8.03-0.972-7.144,6.83c0.343,2.972-0.314,13.46-0.314,17.375l0.571,4.973c0.657,2.887-0.286,1.286-0.4,3.973
	c-0.2,4.401-0.171,9.888,0.172,14.289c0.2,2.172-0.143,4.944-0.172,7.259c-0.028,2.915,0.343,12.317,0.144,14.261
	c-0.314,3.144-0.314,10.86,0.429,13.718c0.742,2.743-0.172,4.83-0.4,6.173c-0.372,1.972-0.229,12.089,0.114,13.975
	c0.972,5.059,0.086,3.315-0.257,6.116c-0.2,1.857-0.029,4.944-0.058,6.973c-0.028,4.773,0.829,2.772,0.8,6.517
	c-0.028,2.886-0.914,4.144-0.771,9.945c0.058,1.629,0.572,2.343,0.572,2.829c0.028,0.515-0.172,0.914-0.086,1.715
	c0.343,3.915-0.687,2.058-0.114,4.286c0.571,2.258-1.144,8.316-0.086,12.89c1.086,4.744-0.857,12.631-0.2,20.119
	c0.086,1.143,0.486,2,0.457,3.144C247.426,243.652,247.254,244.824,247.197,246.081L247.197,246.081z"/>
<path fill-rule="evenodd" clip-rule="evenodd" fill="#5F5858" d="M155.892,113.077c0.143,3.086-0.458,6.116-0.258,9.374
	c0.114,1.572,0.058,2.772,0.114,4.344c0.029,1,0.314,1.457,0.343,2.4c0.058,2.029-0.571,5.888-0.571,6.545v7.287
	c0.058,0.829,0.372,1.286,0.429,1.943c0.114,1.086-0.314,1.2-0.286,1.857c0.029,0.172,1.086,3.744,0.229,6.459
	c-1.029,3.229,0.343,9.888,0.257,13.175c-0.143,5.516-1.743,12.26,0.314,17.204c2.457,0.257,4.372-0.086,6.772-0.114
	c2.172-0.028,4.658,0.286,7.03,0.257c4.801,0,9.717-0.171,14.518-0.086c3.229,0.058,27.835,0.458,28.692-0.143
	c1.314-1.058,0.514-9.717,0.914-12.803c0.143-1.2-0.515-6.773-0.314-8.659c0.229-2.486,0.2-11.003,0.2-13.804
	c0.028-2.943-0.114-5.944-0.057-8.945c0.114-6.459,0.114-7.459-0.229-13.546c-0.057-1.543,0.229-2.915,0.2-4.601
	c-0.028-1.543,0.144-3.058,0.086-4.601l-0.143-3.401c-0.029-0.314,0-0.572-0.4-1.143c-0.058,3.058-0.028,6.315,0.028,9.402
	c0.058,3.544-0.371,3.23,0.029,8.459c0.343,4.801,0.057,20.834-0.029,27.35c-0.028,1.486,0.086,2.972-0.086,4.43
	c-0.199,1.657,0.086,2.458,0.086,4.029c-0.114,5.573,0.601,12.289-0.514,17.548c-2.001,0.313-5.315,0.199-7.431,0.171H187.67
	c-1.344,0-2.315-0.429-3.344-0.343c-1.629,0.114-1.4,0.286-3.229,0.028c-1.486-0.229-1.801,0.229-3.115,0.286
	c-6.201,0.343-9.087-0.314-14.003-0.486c-2.572-0.085-4.515,0.629-6.916,0.286c-1.8-2.086-0.485-13.317-0.485-17.004
	c0-2.973-0.257-5.858-0.286-8.945c-0.028-3.087,0.4-5.916,0.2-8.974c-0.371-5.973-0.2-11.946-0.028-17.891
	c0.086-2.943-0.2-6.115-0.229-8.945c-0.029-1.458-0.114-3.172,0.028-4.601C156.349,115.963,157.034,113.477,155.892,113.077
	L155.892,113.077z"/>
<path fill-rule="evenodd" clip-rule="evenodd" fill="#CBCBCD" d="M65.814,96.102c1.629-0.343,1.057-0.629,3.058-0.686
	c1.829-0.057,5.544-0.4,7.116,0.086c2.172,0.657,13.46-0.286,17.318-0.257l21.776,0.143c0.972,0,5.973-0.229,6.573,0.657
	l0.943,7.973c-0.171,0.972-0.6,0.886-0.686,2.201c-0.2,3.144-0.2,8.517-0.028,11.631c0.143,1.943,1.715,2.029,0.286,4.858
	c-0.571,1.144-0.628,9.574-0.4,11.031c0.2,1.172,0.571,0.686,0.857,2.001c0.4,1.943-0.229,3.344-0.4,4.2
	c-0.429,2.115-0.457,14.404-0.171,15.49c0.257,1.086,0.543,1.086,0.572,2.314c0.028,1.4-0.343,1.429-0.458,2.458
	c-0.2,1.715-0.657,10.088-0.2,11.488c0.4,1.258,0.657,0.343,0.657,2.258c0.057,5.201-0.029,2.458-0.486,5.401
	c-0.086,0.743-0.115,2.029-0.2,2.915c0.572-0.257,0.686-0.028,0.771-2.001c0.143-3.543,0.6-2.857,0.2-8.23
	c-0.372-3.458-0.4-6.487-0.057-9.888c0.372-3.544-0.2-6.974,0-10.432c0.143-2.058-0.314-3.086-0.2-5.087l0.4-10.402
	c0-1.743-0.4-3.43-0.257-5.144c-0.057-0.086-0.086-0.172-0.114-0.229c-0.029-0.057-0.057-0.143-0.086-0.199l-0.2-1.201
	c-0.143-3.657,0.743-7.43,0.515-9.831c-1.029-9.774,0.628-13.003-0.515-23.006c-0.257-2.2-2.086-1.572-4.172-1.543
	c-1.857,0-3.943-0.086-5.801-0.2c-4.058-0.257-8.059,0.229-12.088,0.171c-3.915-0.028-7.944-0.371-11.859-0.2
	c-3.744,0.171-7.888,0.372-11.631,0.229c-2.143-0.086-3.829-0.2-6.03-0.114C67.186,95.073,65.843,94.558,65.814,96.102
	L65.814,96.102z"/>
<path fill-rule="evenodd" clip-rule="evenodd" fill="#5F5858" d="M122.798,131.082c-0.143,1.714,0.257,3.4,0.257,5.144l-0.4,10.402
	c-0.114,2.001,0.343,3.029,0.2,5.087c-0.2,3.458,0.372,6.888,0,10.432c-0.343,3.4-0.314,6.43,0.057,9.888
	c0.085,0.2,0.114,0.144,0.257,0.715l0.028,1.943c-0.057,2.772,0.229,4.372-0.4,7.745c-1.886,0.886-11.174,0.229-14.003,0.229
	c-6.63,0-41.237,0.6-43.066-0.2c-0.686-2.144-0.343-6.916-0.314-9.488c0.029-1.314-0.314-1.601-0.429-2.658
	c-0.143-1.229,0.257-1.714,0.4-2.886c0.343-3.087-0.086-31.008-0.086-34.809c-0.429-0.829-0.028-0.086-0.571-0.515
	c0.229,10.745,0.057,21.662,0.143,32.437c0,1.887-0.257,3.372-0.286,5.059c-0.057,1.543,0.257,3.229,0.229,5.087
	c-0.114,10.974-0.057,8.03,7.688,8.459c7.402,0.4,18.775,0.058,26.606,0.114c3.286,0.029,7.859-0.314,10.888-0.086
	c3.258,0.286,7.001,0.229,10.431,0.172c2.972-0.028,3.315,0.028,3-7.459c-0.143-3.372-0.286-7.002-0.286-10.402
	c0.029-3.43,0.515-6.888,0.2-10.402c-0.171-1.943,0.114-3.344,0.057-5.059c-0.286-6.03,0.343-10.774,0.028-15.461
	c-0.229-3.544-0.343-7.059-0.171-10.688C122.513,124.88,122.798,129.938,122.798,131.082L122.798,131.082z"/>
<path fill-rule="evenodd" clip-rule="evenodd" fill="#F7F2D7" d="M188.213,61.75c0.485,0.543-0.601,0.029,0.686,0.458l1.429,0.085
	c0.829,0,1.629,0,2.43,0c1.857-0.028,2.8-0.485,4.344-0.543c2.715-0.085,6.801-0.171,9.259,0.143c3.058,0.4,6.059,0.286,9.145,0.086
	c1.544-0.114,3.287-0.029,4.83-0.029c1.715,0,3.658-0.286,4.601,0.429c16.146-0.286,32.55,0.543,48.726,0.114
	c0.886-1.657,0.285-4.229,0.314-6.373c0.028-1,0.085-2.343,0.171-3.372c0.058-1.058,0.457-1.515,0.629-2.4
	c-1.572,1.314-0.743,7.745-0.972,10.459c-2.229-0.029-1.058-0.343-2.172-0.743c-0.629,0.829-0.429,0.972-1.829,0.972l-0.257,1.086
	c-5.173,0.715-4.772-0.6-7.345-0.571l-1.657,0.085c-0.915,0-1.915-0.028-2.744-0.343c-0.028-0.028,0-0.057-0.485-0.229l-1.4-0.257
	c-1.857-0.086-3.001,0.229-4.772,0.229v0.743c-1.457,0-3.001,0.057-4.458,0c-1.572-0.029-0.915-0.2-1.771-0.4
	c-1.943-0.486-5.888,0.429-7.916-0.343c-0.658-0.257-0.572-0.343-1.601-0.229c-1.687,0.2-2.058,0.314-3.772,0.057
	c-1.743-0.257-2.172,0.057-3.601,0.314l-16.146,0.372c-2.743-0.057-5.487-0.114-8.23-0.086c-2.687,0.057-5.716-0.257-8.002-0.257
	c-1.371,0-1.972,0.486-3.801,0.229C189.927,61.179,189.927,61.064,188.213,61.75L188.213,61.75z"/>
<path fill-rule="evenodd" clip-rule="evenodd" fill="#5F5858" d="M33.55,246.11c1,0.886,6.43,0.571,8.001,0.571
	c1.658,0.028,2.343-0.4,4.087-0.372c1.372,0.058,2.743,0.172,4.115,0.258c2.629,0.114,5.859,0.143,8.488,0.086
	c2.801-0.058,5.03-0.372,7.973-0.258c2.687,0.114,5.544,0.258,8.23,0.258c2.801,0.028,5.401-0.344,8.23-0.344
	c2.086,0,10.831,0.486,12.26,0.286c1.429-0.2,1.857-0.515,3.687-0.515c1.857,0.144,0.343-0.057,0.972,0.486l-0.229-0.086
	c3.343-0.086,6.973,0.229,10.145,0.314c9.688,0.286,21.09-0.686,30.55,0.229c2.114,0.229,2.886-0.172,4.772-0.2
	c1.714-0.057,3.4,0.058,5.086,0.086c7.431,0.057,12.746,0.343,20.348,0.172c3.43-0.086,7.173,0.229,10.574,0.057
	c-0.286-0.2-0.172-0.172-0.657-0.314c-1.058-0.343-6.773-0.2-8.717-0.257c-1.829-0.028-3.172,0.371-4.829,0.371l-13.575-0.686
	c-2.257-0.086-7.144-0.372-9.173-0.114c-3.258,0.4-5.516,0.028-8.974,0c-3.144,0-6.258,0.057-9.431-0.086
	c-5.944-0.314-12.488,0.143-18.632,0c-2.915-0.058-6.344-0.343-9.202-0.257c-1.629,0.028-2.687,0.399-4.572,0.343
	c-8.23-0.229-14.889,0.057-22.748-0.028c-3.144-0.029-5.973-0.344-9.202-0.172C53.754,246.367,41.323,246.081,33.55,246.11
	L33.55,246.11z"/>
<path fill-rule="evenodd" clip-rule="evenodd" fill="#8C8370" d="M64.729,132.11c0.543,0.429,0.143-0.314,0.571,0.515
	c-0.143-0.571-0.314-1.115-0.314-1.743c0-0.429,0-0.543,0.172-0.943c0.343-0.857,0.257-0.486,0.514-0.771
	c0.286-1.629,0.114-6.03,0.114-8.174c0-1.457,0-2.915,0-4.372c0.029-1.687-0.628-2.83-0.429-3.772
	c0.171-0.8,0.372-0.543,0.429-1.772c0.029-0.686-0.028-1.486-0.028-2.201l0.057-12.774c0.028-1.543,1.372-1.029,5.001-1.143
	c2.201-0.086,3.887,0.028,6.03,0.114c3.744,0.143,7.888-0.057,11.631-0.229c3.915-0.171,7.944,0.171,11.859,0.2
	c4.03,0.057,8.031-0.429,12.088-0.171c1.858,0.114,3.944,0.2,5.801,0.2c2.086-0.029,3.916-0.657,4.172,1.543
	c1.143,10.002-0.514,13.232,0.515,23.006c0.229,2.401-0.657,6.173-0.515,9.831l0.2,1.201c0.029,0.057,0.057,0.143,0.086,0.199
	c0.028,0.058,0.057,0.144,0.114,0.229c0-1.144-0.286-6.202,0.457-7.202l0.086-21.777c-0.229-6.573,0.114-7.659-3.658-7.602
	c-3.772,0.086-7.059-0.229-10.631-0.257c-3.687-0.029-7.03,0.343-10.888,0.257c-3.372-0.057-7.344-0.514-10.602-0.143
	c-2.829,0.314-7.916,0.372-10.945,0.229c-13.003-0.714-11.431-0.229-11.488,4.63l-0.028,9.917c0.028,4.516-0.458,2.315-0.458,4.344
	c0,1.915,0.543,0.2,0.486,4.601l-0.028,9.889C64.957,129.452,64.729,130.225,64.729,132.11L64.729,132.11z"/>
<path fill-rule="evenodd" clip-rule="evenodd" fill="#5F5858" d="M243.71,243.795l-0.114-0.143
	c-0.457,0.686,0.058,0.257-0.771,0.543h-2.657c-7.03-0.2-16.89-0.086-23.948-0.028c-15.575,0.085-32.521-0.286-47.896,0
	c-2.2,0.028-4.315-0.486-6.544-0.372c-3.887,0.2-9.603,0.715-13.518,0.314l-11.66-0.371c-1.686,0.057-1.429,0.429-1.543,0.628
	c7.173-0.6,10.203,0.258,15.118,0.258c4.144,0,11.488-0.429,14.774-0.2c2.058,0.114,1.058,0.771,3.915,0.229
	c1.458-0.257,29.55,0.086,34.779,0.058l19.833,0.114c3.029,0.028,6.516-0.258,9.688-0.286c1.687,0,3.372,0.086,5.087,0.086
	c4.572-0.028,5.772,2.058,6.573-2.515c0.229-1.4,0.229-3.201,0.086-4.773c-0.086-0.886-0.344-1.257-0.372-2.172
	c-0.171-3.2,0-8.944,0.4-12.089c0.114-0.771,0.143-1.629,0.057-2.429c-0.429-3.744,0.2-2.887-0.057-4.544
	c-0.372-2.4-0.4-4.458-0.258-7.059c0.058-1.001,0.286-1.172,0.4-2.172c0.143-1.029,0.172-5.773-0.171-6.745l-0.229-0.4
	c-0.085,2.059,0.258,4.059,0.115,5.944c-0.344,4.001-0.544,2.973-0.544,7.974c-0.028,1.543,0.229,1.658,0.372,2.715
	c0.057,0.4-0.058,4.43-0.086,5.287l-0.257,16.69c0,0.972,0,1.943,0.028,2.886C244.339,243.995,244.253,243.48,243.71,243.795
	L243.71,243.795z"/>
<path fill-rule="evenodd" clip-rule="evenodd" fill="#989898" d="M65.3,132.625c0,3.801,0.429,31.722,0.086,34.809
	c-0.143,1.172-0.543,1.657-0.4,2.886c0.115,1.058,0.458,1.344,0.429,2.658c-0.028,2.572-0.372,7.345,0.314,9.488
	c1.829,0.8,36.437,0.2,43.066,0.2c2.83,0,12.117,0.657,14.003-0.229c0.628-3.373,0.343-4.973,0.4-7.745l-0.028-1.943
	c-0.143-0.571-0.172-0.515-0.257-0.715c0.4,5.373-0.057,4.688-0.2,8.23c-0.085,1.973-0.2,1.744-0.771,2.001
	c-1.257,0.485-55.269,0.057-55.612-0.143c-0.286-0.286-0.171,0-0.372-0.572c-0.286-0.828-0.057-7.688-0.057-9.03
	c-0.028-1.286-0.4-1.972-0.314-3.087c0.514-6.029,0.286-26.006,0.229-33.693c0-2.315-0.286-4.23-0.143-6.573
	c-0.257,0.285-0.171-0.086-0.514,0.771c-0.172,0.4-0.172,0.515-0.172,0.943C64.985,131.51,65.157,132.054,65.3,132.625L65.3,132.625
	z"/>
<path fill-rule="evenodd" clip-rule="evenodd" fill="#8C8370" d="M153.262,179.15l0.172,6.087
	c2.743,2.058,22.062,1.258,27.721,1.344c3.229,0.028,6.43,0.086,9.659,0.028c6.458-0.171,12.888,0.114,19.375-0.028
	c4.145-0.058,6.487,0.457,6.688-2.658c0.2-3.029,0.257-6.858,0.143-9.859c-0.628,0.886-0.371,3.001-0.399,4.744
	c-0.029,5.63,0.399,6.83-2.544,6.974c-7.888,0.343-16.261-0.172-23.49,0.229c-4.373,0.257-9.889-0.372-14.289-0.258
	c-2.201,0.058-3.973,0.429-4.115,0.429c-1.144,0.028-0.601-0.343-1.915-0.429c-0.972-0.057-1.286,0.2-2.2,0.314
	c-1.601,0.172-12.946-0.457-13.317-0.629C152.862,184.638,154.605,180.894,153.262,179.15L153.262,179.15z"/>
<path fill-rule="evenodd" clip-rule="evenodd" fill="#989898" d="M153.52,92.472c-0.343,1.8-0.515-0.372-0.515,3.572
	c0,1.486-0.114,2.858-0.058,4.373c0.058,2.829-0.085,5.773,0.114,8.202c0.229,2.857-0.771,15.746,0.172,17.118l0.058-30.893
	c0-2.029,0.399-2.058,2.4-2.172c1.686,0.086,8.688-0.343,11.917-0.229c2,0.086,1.886,0.458,5.801,0.486
	c2.086,0.029,4.201-0.085,6.287-0.085c8.316,0,16.832,0.314,25.148,0.085c-2.086-1.486-13.174,0.314-15.718-0.4
	c-1.4-0.4-3.372-0.572-4.829-0.6l-9.431,0.2c-1.715,0.229-4.229-0.2-6.316-0.171c-3.543,0-9.487,0.343-12.773-0.085
	C154.748,91.815,153.72,91.644,153.52,92.472L153.52,92.472z"/>
<path fill-rule="evenodd" clip-rule="evenodd" fill="#5F5858" d="M155.92,110.248c0.914-0.715,0.371-2.344,0.257-3.772
	c-0.114-1.314,0.028-2.601,0.028-3.887c0.029-2.658-0.343-5.144,0.572-7.402c2.314-0.2,7.001-0.314,9.03,0.229
	c1.657,0.429,5.658,0.057,8.316,0.057c3.086,0,6.315-0.257,9.202-0.2c2.629,0.057,7.029,0.171,9.516,0
	c3.315-0.086,7.316,0.543,10.402,0.114c1.715-0.257,9.431-0.029,10.574,0.429l-0.314-0.857c-2.658-0.143-6.487-0.171-9.145-0.086
	c-10.432,0.257-22.205-0.229-32.665-0.057c-1.314,0.029-3.429,0.257-4.601,0.171c-2.915-0.257-6.03-0.657-9.202-0.372
	c-3.286,0.286-2.429,2.944-2.429,6.773c-0.029,2.343-0.4,4.629,0.285,6.516C156.177,109.019,155.977,108.962,155.92,110.248
	L155.92,110.248z"/>
<path fill-rule="evenodd" clip-rule="evenodd" fill="#8C8370" d="M63.271,91.672c-0.486,0.714-2.515,1.629-1.429,3.515
	c0.4,0.714-0.257-0.029,0.429,0.458l-0.114-2.258c2.286-1.601,2.601-1.086,5.687-1.286c3.029-0.257,5.401,0.514,8.374,0.2
	c2.458-0.257,5.887-0.2,8.373-0.229c2.829,0,5.715-0.229,8.488,0.029l26.12-0.086c0.886-0.028,3.43,0.143,4.344,0.286
	c1.258,0.171,1.858,0.886,1.886,2.286c0.086,2.4-0.4,6.63,0.4,8.517l0.114,8.659l0.2-0.458c0.343-1.257,0.257-7.259,0.086-8.173
	c-1.486-8.002,3.086-11.717-6.516-11.574c-3.229,0.057-5.687,0.2-8.974,0.057c-5.715-0.257-11.945,0.572-17.661,0.029
	c-3.858-0.343-16.146,0.4-17.519,0.085c-2.257,0.086-4-0.257-6.201-0.229C67.672,91.5,64.471,91.758,63.271,91.672L63.271,91.672z"
	/>
<path fill-rule="evenodd" clip-rule="evenodd" fill="#8C8370" d="M125.999,177.836c-0.486,3.115,1.771,7.716-3.887,7.688
	c-3.715-0.028-7.43,0-11.145-0.028l-38.952-0.086c-1.857,0.028-3.658-0.172-5.573-0.114c-5.315,0.2-3.772-2.601-3.772-6.716
	c-0.029-2.515,0.314-7.716-0.429-9.545l-0.4-0.743c0-0.086-0.057-0.114-0.114-0.172c-0.2,1.458,0.172,1.486,0.4,2.572l0.028,8.602
	c-0.028,1.973-2.143,6.717,4.058,6.517c2-0.058,3.858,0.114,5.801,0.086c6.059-0.086,10.488-0.258,16.947,0
	c3.744,0.171,7.544-0.114,11.374-0.058c3.772,0.058,7.573,0.086,11.374,0.143c2,0.029,3.887-0.229,5.801-0.229
	c7.916-0.028,8.831,1.887,8.831-5.487c0.029-2.343-0.229-1.972-0.257-2.286C126.084,177.894,126.027,177.864,125.999,177.836
	L125.999,177.836z"/>
<path fill-rule="evenodd" clip-rule="evenodd" fill="#5F5858" d="M153.233,125.737c-0.314,4.144-0.143,9.146-0.172,13.403
	c0,4.487,0.115,8.745,0,13.289c-0.085,4.43,0.2,8.888,0.086,13.317c0,1.144-0.314,11.632,0.058,12.774
	c0.028,0.058,0.057,0.114,0.086,0.172l0.171,0.314c0.258-1.572,0.086-3.63,0.086-5.287c0-1.771,0.257-3.658,0.229-5.315
	c-0.171-8.374-0.4-12.889-0.114-21.549c0.143-3.314-0.172-7.173-0.2-10.631c0-3.486,0.4-7.03,0.144-10.46
	c-0.258-3.429-0.144-7.373-0.086-10.831c0.028-1.771,0.114-3.543,0.2-5.315c0.057-1.086-0.114-1.686-0.172-2.687
	c-0.028-0.972,0.172-1.714,0.172-2.658c-0.029-2.172-0.629-8.602-0.086-10.402c0.543-1.143,1.143-0.229,2.058-1.201
	c-2.001,0.115-2.4,0.143-2.4,2.172L153.233,125.737z"/>
<path fill-rule="evenodd" clip-rule="evenodd" fill="#433D23" d="M67.843,92.101c0.714,0.457,2.029,0.171,3.429,0.4
	c3.401,0.572,7.43,0.543,10.86,0.229c2.314-0.2,4.944-0.058,7.259-0.286c0.571-0.057,0.886-0.171,1.514-0.171
	c1.172,0.029,0.743,0.171,1.572,0.372c1.028,0.257,2.657,0.2,3.744,0.171c2.458-0.057,5.029-0.028,7.516-0.028
	c2.144-0.029,5.001-0.458,7.23-0.172c2.943,0.343,12.288-0.4,13.917,0.743c0.886,1.229-0.915,8.802,0.943,9.746
	c-0.8-1.886-0.314-6.116-0.4-8.517c-0.028-1.4-0.628-2.115-1.886-2.286c-0.914-0.143-3.458-0.314-4.344-0.286l-26.12,0.086
	c-2.772-0.257-5.659-0.029-8.488-0.029c-2.486,0.029-5.916-0.028-8.373,0.229C73.245,92.615,70.873,91.843,67.843,92.101
	L67.843,92.101z"/>
<path fill-rule="evenodd" clip-rule="evenodd" fill="#F7F2D7" d="M75.902,91.529c3.601,0.343,8.544-0.2,12.317-0.257
	c4.058-0.086,7.544,0.429,11.631,0.343c3.629-0.086,8.602-0.6,12.088-0.114c1.4,0.2,4.658,0.2,6.059,0.028
	c2.429-0.314,3.887,0,6.344,0.029c0-0.029-0.229-0.657-0.314-0.8L111.938,90.7c-3.943-0.2-8.116,0.029-12.088,0.029
	c-4.058,0-8.031-0.057-12.117-0.029l-10.402,0.086C75.788,90.929,76.331,90.614,75.902,91.529L75.902,91.529z"/>
<path fill-rule="evenodd" clip-rule="evenodd" fill="#5F5858" d="M216.762,133.082c-0.114-6.401,0.6-13.032-0.058-19.376
	c-0.199-2.201,0.344-10.431,0.2-14.489c-0.028-0.943-0.028-1.515,0-2.429l-0.086-1.886c-0.171-0.6,0.029-0.171-0.257-0.543
	c-0.4,2.458-0.057,7.402-0.057,10.174c-0.029,1.915-0.772,8.488-0.515,9.288c0.828,2.629,0.457,1.257,0.571,4.487
	c0.058,1.8,0.058,3.543,0.028,5.344c-0.028,4.744-0.343,3.029-0.514,4.601l-0.029,3.772L216.762,133.082z"/>
<path fill-rule="evenodd" clip-rule="evenodd" fill="#989898" d="M213.818,112.277c-0.114-2.744,0.8-15.089,0-16.461
	c-1.144-0.458-8.859-0.686-10.574-0.429c-3.086,0.429-7.087-0.2-10.402-0.114c0.743,0.714,3.258,0.486,5.259,0.514
	c1.601,0.057,3.286,0.171,4.887,0.029c1.515-0.114,9.431-0.114,10.431,0.372c0.686,1.314,0.343,6.858,0.314,8.831
	c-0.058,2.029-1.4,5.087-0.485,6.659C213.618,112.277,213.189,111.82,213.818,112.277L213.818,112.277z"/>
<path fill-rule="evenodd" clip-rule="evenodd" fill="#5F5858" d="M31.835,159.402c1.372-0.828,0.314-4.973,0.143-6.315
	c-0.229-1.915-0.229-4.486-0.229-6.459c0-5.029,0.4-2.429,0.658-4.144l-0.286-6.401c-0.171-0.829-0.571-1-0.628-1.086
	c-0.029,1.972,0.314,4.058,0.372,6.059c0.028,1.915-0.4,3.857-0.4,6.059C31.521,151.087,32.064,155.659,31.835,159.402
	L31.835,159.402z"/>
<path fill-rule="evenodd" clip-rule="evenodd" fill="#5F5858" d="M125.999,177.836c0.2-1.486-0.086-3.4-0.229-4.83
	c-0.2-1.829,0.057-3.515,0.028-5.315c-0.686,0.4-0.629-0.343-0.714,2.658c-0.029,0.914-0.057,2,0.057,2.886
	c0.486,3.287-0.2,2.401,0.257,3.688L125.999,177.836z"/>
<path fill-rule="evenodd" clip-rule="evenodd" fill="#5F5858" d="M126.084,123.279l-0.257-10.002c-0.515,0.4-0.6,0.486-0.715,1.143
	c-0.171,1.086,0.2,3.058,0.257,3.944c0.057,0.857-0.085,1.743-0.028,2.629c0.028,0.429,0.057,0.915,0.2,1.315
	c0.057,0.2,0.171,0.429,0.257,0.6L126.084,123.279z"/>
<path fill-rule="evenodd" clip-rule="evenodd" fill="#F7F2D7" d="M139.259,61.379l2.258-0.057c-0.2-0.372-0.028-0.372-0.257-0.629
	c-0.344,0-0.857,0.028-1.2-0.057c-0.4-0.114-0.114,0.028-0.429-0.257c-1.001-0.857,0.143-1.458-2.315-1.372v1.257
	c0.515,0.229,1.344,0.372,1.943,0.486V61.379z"/>
<path fill-rule="evenodd" clip-rule="evenodd" fill="#CBCBCD" d="M36.608,217.846c0.886,0.372,0.915,0.571,1.857,0.229
	c0.372-0.8,0.4-1.886-0.571-2.058C36.665,215.816,36.579,216.817,36.608,217.846L36.608,217.846z"/>
<path fill-rule="evenodd" clip-rule="evenodd" fill="#F7F2D7" d="M33.436,247.339l-0.771-0.857c-1.6-1.229-0.372-1.372-1.515-2.229
	l-0.171,1.772c0.6,0.314,0.6,0.143,1.229,0.686C32.778,247.196,32.493,247.339,33.436,247.339L33.436,247.339z"/>
</svg>
