<?xml version="1.0" encoding="utf-8"?>
<!-- Generator: Adobe Illustrator 15.0.0, SVG Export Plug-In  -->
<!DOCTYPE svg PUBLIC "-//W3C//DTD SVG 1.1//EN" "http://www.w3.org/Graphics/SVG/1.1/DTD/svg11.dtd" [
	<!ENTITY ns_flows "http://ns.adobe.com/Flows/1.0/">
]>
<svg version="1.1"
	 xmlns="http://www.w3.org/2000/svg" xmlns:xlink="http://www.w3.org/1999/xlink" xmlns:a="http://ns.adobe.com/AdobeSVGViewerExtensions/3.0/"
	 x="0px" y="0px" width="421px" height="315px" viewBox="1.721 0 421 315" enable-background="new 1.721 0 421 315"
	 xml:space="preserve">
<defs>
</defs>
<path fill-rule="evenodd" clip-rule="evenodd" fill="#F6A8C1" d="M421.188,146.363c0,2.029,0.144,4.172-0.114,6.173
	c-0.2,1.372,0,2.915-0.171,4.201c-0.258,1.715-0.429,1.743-0.429,3.915c0,2.486,0.229,5.63-0.629,7.773
	c-0.543,1.372-0.429,2-0.485,3.829c-0.058,1.857,0.057,2.458-0.543,3.887c-0.658,1.601-0.258,1.887-0.543,3.801l-0.715,3.373
	c-0.343,2.629-1.029,4.801-1.086,5.401c-0.314,3.114-1.114,2.629-2.086,8.63c-0.258,1.458-0.687,2.144-0.915,3.458
	c-0.2,1.172-0.629,1.344-0.914,2.229c-0.4,1.258-0.229,1.372-0.886,2.486c-0.543,0.914-0.715,1.972-1.086,3.001l-2.486,6.201
	c-0.286,0.715-0.4,0.771-0.601,1.601c-0.285,1.2-0.828,1.972-1.457,2.943c-0.029,0.028-0.058,0.086-0.086,0.143
	c-0.829,1.172-0.515,1.572-1.2,2.658c-0.486,0.771-0.343,0.629-0.657,1.486c-0.429,1.143-0.629,0.743-0.857,1.343
	c-0.629,1.629,0.2,0.943-1.258,3.144l-1.686,2.63c-0.486,0.972-1.144,1.571-1.743,2.4c-0.344,0.515-0.372,0.943-0.687,1.457
	l-3.4,5.373c-1.972,2.943-2.772,3.087-5.001,5.858c-0.515,0.601-0.372,0.743-0.801,1.372c-0.485,0.714-0.6,0.571-1.143,1.058
	c-0.857,0.714-1.229,1.543-1.943,2.429c-1.028,1.286-1.4,1.029-2.4,1.943l-6.573,6.259c-0.828,0.486-3.972,2.887-4.658,3.772
	c-1.057,1.343-1.914,1.657-3.286,2.543c-0.229,0.144-0.286,0.144-0.457,0.286l-2.486,1.629c-0.686,0.515-0.629,0.629-1.229,0.943
	l-8.316,4.744c-0.601,0.429-0.314,0.429-1.029,0.857c-0.514,0.285-0.914,0.371-1.657,0.571c-1.258,0.343-1.886,0.914-2.915,1.429
	l-4.658,1.887c-0.943,0.371-0.457,0.371-1.486,0.714l-6.087,2.344c-1.629,0.771-1.629,0.543-3.458,0.943
	c-0.714,0.143-0.8,0.457-1.399,0.714c-0.572,0.229-1.086,0.2-1.744,0.457l-10.145,2.658c-1.314,0.172-2.544,0.114-3.772,0.601
	c-1.314,0.485-4.286,0.543-5.059,1.143c-0.485,0.372,0.029,0.429-1.143,0.515c-1.343,0.057-3.001,0.057-4.372,0.086
	c-2.486,0.028-2.258,0.399-3.858,0.543c-10.116,0.942-14.688,1.114-24.205,1.114c-2.887,0-5.259-0.229-8.002-0.257l-11.603-0.887
	c-1.229-0.371-2.144-0.571-3.658-0.742c-1.943-0.2-5.315-0.687-7.087-1.372c-0.857-0.343,0.229-0.172-1.258-0.629l-7.802-2.629
	c-0.285-0.144-5.029-1.658-6.201-2.315l-13.26-7.744c-0.343-0.286-0.657-0.572-1.086-0.829c-0.914-0.6-1.2-0.515-2.058-1.114
	l-5.458-4.229c-0.486-0.458-0.601-0.572-1.2-0.972c-1.887-1.286-3.315-2.944-4.973-4.459l-2.172-1.943
	c-2.029-1.886-4.173-3.657-6.087-5.744l-3.029-3.258c-0.457-0.457-0.715-0.714-1.029-1.143l-5.43-7.174
	c-0.571-0.886-1.343-1.114-1.886-2.229c-0.571-1.144-0.801-1.772-1.601-2.516c-0.429-0.429-0.829-0.514-1.144-1
	c-0.285-0.4-0.399-0.972-0.742-1.486c-0.687-1.028-0.857-1-1.629-2.486c-0.629-1.2-1.372-1.515-1.857-2.486l-1.544-2.515
	c-0.371-0.571-0.514-0.8-0.828-1.372l-7.116-13.46c-1.114-2.486-1.943-5.201-3.344-7.573c-0.485-0.857-1.229-3.772-1.571-4.772
	c-0.172-0.486-0.601-0.743-0.829-1.258c-0.257-0.515-0.257-0.886-0.515-1.457c-0.857-1.915-1.229-4.43-2.086-6.402l-4.058-15.061
	c-0.543-1.515-0.4-1.715-0.629-3.486c-0.2-1.286-0.771-1.943-0.886-3.458c-0.229-2.943-0.915-4.572-0.972-7.487
	c-0.029-1.744-0.4-6.202-0.743-7.717c-1.058-4.372,0.4-22.034,0.8-25.892l0.543-2.572c0.429-1.629,0.343-3.229,0.972-5.344
	c0.515-1.629,0.4-3.43,1.029-5.002c0.343-0.857,0.399-1.515,0.771-2.371c0.485-1.201,0.457-0.801,0.657-2.401
	c0.257-1.772,0.571-0.714,0.914-2.229l4.087-11.517l3.115-6.345c0.886-1.572,2.4-2.972,3.029-4.629l2.829-4.973
	c0.314-0.458,0.371-0.486,0.629-0.829c0.257-0.372,0.313-0.629,0.657-1.029l8.602-10.06c0.543-0.828,0.886-0.828,1.657-1.429
	c0.715-0.543,1.029-1.058,1.543-1.629l11.203-8.859c1.485-1.314-0.144-0.399,2.715-2.144l7.83-4.772
	c1.4-0.571,0.343-0.485,1.801-1.286c0.742-0.429,1.285-0.6,1.972-0.943l4.058-2.2c1.144-0.629,1.486-0.286,2.515-0.714
	c0.601-0.258,1.201-0.744,2.001-1.115l8.831-3.772c1.629-0.286,1.171-0.628,2.257-0.886c1.314-0.343,1.314-0.028,2.543-0.6
	c1.2-0.572,2.315-0.657,3.372-1.2l3.487-1.286c4.887-0.515,2-0.972,5.544-0.8l-7.431,3.715c-0.515,0.229-0.285,0.143-0.686,0.486
	c-0.857,0.715-1.887,1-2.772,1.601c-0.571,0.399-1.057,0.914-1.6,1.286c-1.4,0.943-1.4,0.514-3.458,2.114
	c-0.543,0.4-1.143,0.687-1.743,1.144c-1.144,0.857-2.372,1.6-3.401,2.429l-5.258,4.659c-4.087,3.172-5.858,5.801-9.459,8.916
	c-1.743,1.515-0.258,0.857-2.772,3.058c-0.485,0.4-0.771,0.857-1.229,1.429c-0.457,0.601-0.743,1.144-1.2,1.687l-6.316,7.974
	c-0.6,0.686-0.543,1.057-0.971,1.886c-0.029,0.058-0.058,0.114-0.086,0.171c-0.029,0.058-0.058,0.115-0.086,0.172l-4.486,9.117
	c-0.314,0.8-0.887,1.285-1.544,2.771l-1.457,2.887c-0.314,0.801-0.172,1.172-0.629,2.058l-0.8,2.114
	c-0.857,1.973-1.572,4.859-2.286,6.174c-0.572,1.028-1.658,5.115-2.144,6.602c-0.4,1.229-0.829,3.144-1.144,4.458
	c-0.399,1.743-0.686,3.144-1.028,4.744c-0.314,1.458-0.771,3.001-1.029,4.544c-0.285,1.715-0.285,3.715-0.429,5.43l-0.771,4.772
	c-0.6,5.458-0.543,11.288-0.399,16.775l0.657,7.859c0.485,2.4,0.686,4.973,1.286,7.173l1.514,7.03
	c0.314,1.486,1.115,2.658,1.744,3.973l3.372,9.517c0.257,0.457,0.399,0.543,0.6,0.829c0.972,1.657,1.887,4.687,3.915,7.487
	c0.943,1.286,1.229,2.4,2.115,3.458c1.314,1.543,0.629,1.915,2.172,3.63l9.545,11.002c0.143,0.172,0.2,0.229,0.343,0.372l7.83,7.173
	c0.058,0.029,0.086,0.086,0.114,0.114c0.058,0.029,0.086,0.086,0.144,0.144l1.515,1.172c1.314,0.886,2.829,1.828,3.943,2.943
	l0.171,0.2c0.029,0.028,0.057,0.085,0.086,0.114l3.943,2.629c1.601,0.8,4.03,2.486,5.43,3.058c2.028,0.801,2.914,1.572,3.886,1.915
	l9.917,4.058c0.657,0.314,1.429,0.372,2.258,0.687c2.829,1.058,6.001,1.686,8.802,2.515c2.258,0.629,12.917,1.543,15.774,1.543
	l13.774-0.343c2.144-0.114,3.144-0.657,4.858-0.914c2.001-0.314,3.258-0.172,5.229-0.857c0.829-0.286,1.286-0.258,2.458-0.429
	c1.429-0.2,3.258-0.857,4.43-1.372l2.344-0.829c1.343-0.886,2.914-1,4.372-1.629c3.4-1.515,6.944-2.743,10.06-4.715
	c0.543-0.343,0.371-0.2,0.972-0.486c0.571-0.285,0.514-0.314,1.086-0.629c3.144-1.686,6.087-3.715,8.916-5.829
	c1.172-0.915,2.314-1.486,3.344-2.486l3.172-2.887c0.229-0.2,0.171-0.114,0.371-0.343c1.314-1.458,3.059-2.63,4.373-4.087
	l2.829-3.001c1.657-1.829,4.973-5.229,6.258-7.03l2.172-3.144c0-0.028,0.058-0.114,0.086-0.143c0.029-0.058,0.058-0.114,0.086-0.144
	l5.658-9.373c0.372-1.115,0.114-0.344,0.572-1.144l2.743-6.201c0.686-0.915,0.457-0.972,0.914-2.001l1.687-4.4
	c0.257-1.115,0.171-1.172,0.686-2.173c0.686-1.285,0.972-3.172,1.344-4.743c0.657-2.716,0.828-0.601,1.086-4.973l1.399-7.517
	c0.972-5.573,1.086-14.403,0.601-20.29c-0.086-1.258-0.457-2.401-0.743-3.545c-0.485-2.143-0.257-3.114-1-5.801l-1.029-3.315
	c-0.657-1.543-0.742-3.486-1.657-4.858c-1.229-1.828-2.258-5.458-3.458-7.658l-4.086-7.06c-0.943-1.257-1.943-2.743-3.115-3.915
	c-0.058-0.029-0.114-0.086-0.143-0.114l-1.172-1.372c-0.029-0.057-0.058-0.114-0.086-0.172l-1.2-1.8
	c-1.4-2.687-2.43-2.601-4.173-4.772c-1.2-1.486-2.515-1.715-3.543-2.973c-0.058-0.057-0.172-0.229-0.229-0.314
	c-1.286-1.828-0.344-0.371-2.087-1.715c-0.714-0.57-0.743-0.428-1.543-0.857c-1.028-0.543-1.686-1.171-2.543-1.828l-4.001-2.516
	c-1.715-1.057-4.087-2.4-6.03-2.943c-1.915-0.514-1.172-0.914-3.058-1.258c-1.314-0.257-1.172-0.57-3.286-1.086
	c-0.715-0.171-1.001-0.342-1.658-0.571l-7.001-1.886c-1.515-0.457-2.001-0.371-3.687-0.658c-5.688-0.942-12.374-1.199-18.232-0.313
	c-1.887,0.257-3.83,0.286-5.602,0.857c-1.915,0.601-4.173,0.515-5.43,1.086l-4.772,1.714c-0.943,0.287-0.743,0.344-1.601,0.601
	c-0.485,0.172-1.314,0.286-1.771,0.458c-2.4,0.8-7.83,3.771-10.202,5.058l-5.573,3.829c-1.343,1.029-2.4,2.201-3.915,2.916
	c-0.629,0.285-1.229,1.028-1.829,1.514l-2.229,2.087c-0.829,0.771,0.143,0.515-1.4,0.8l-0.114,1.572
	c-1.543,0.629-0.457-0.029-1.486,1.4l-4.115,5.059c-0.285,0.4-0.285,0.457-0.6,0.886l-1.772,2.8
	c-0.399,0.658-0.857,0.943-1.429,1.688l-0.343,0.428c-0.543,0.658-0.257,0.686-1.258,0.943c-0.057,1.801-0.485,2.144-1.028,3.458
	l-0.601,0.942c-0.571,0.658-1.485,2.916-2.114,3.887c-0.657,0.973-0.314,1.001-0.4,2.373l-1.172,3.372
	c-1.086,2.343-0.429,1.543-1,3.772c-0.171,0.686-0.6-0.115-0.743,1.314l-1.372,15.718c-0.029,2.172,0.171,7.145,0.571,9.088
	l0.857,3.944c0.2,1.314,0.6,2.543,0.943,4.058l2.83,6.773c0.371,0.886,0.543,0.771,0.914,1.486c0.543,1.086,0,0.657,0.829,1.543
	c0.6,0.629,0.571,0.571,1.086,1.343c0.371,0.543,0.571,0.943,1,1.43l1.686,2.4c0.915,0.886,1.629,2.086,2.63,2.943
	c0.828,0.686,0.514,0.343,1.171,1.286c0.715,1.058,0.429,0.314,1.344,1.058c0.8,0.657,0.771,1.286,1.715,1.886l2.972,2.144
	c0.915,0.829,2.001,1.144,2.915,1.943c0.314,0.257,0.114,0.229,0.629,0.515c0.6,0.343,0.942,0.285,1.686,0.743
	c0.972,0.6,0.458,0.399,1.772,0.6l3.515,1.372c1.429,0.771,2.286,0.571,3.687,1.172c1.286,0.571,2.629,0.485,3.829,1
	c1.943,0.857,6.659,0.657,9.316,0.686c2.029,0,7.431-0.2,9.06-0.657l5.716-1.543c1.515-0.2,2.286-0.8,3.601-1.429l7.83-4.059
	c3.658-2.172,6.373-4.772,9.316-7.888c1.2-1.257,1.915-2.687,3.314-3.915c0.601-0.543,1.515-2.229,1.915-2.972
	c0.4-0.687,0.457-1.087,0.743-1.715c0.028-0.058,0.058-0.114,0.086-0.172c0-0.028,0.057-0.086,0.086-0.143l0.771-1.115
	c0.972-1.571,1.485-3.743,2.343-4.915c0.601-0.8,0.429-0.915,0.743-1.943c0.229-0.715,0.543-1.086,0.715-1.629
	c0.229-0.657,0.171-1.4,0.371-2.058c0.657-2.029,0.601-1.715,0.829-4.029l0.771-9.002l-1-6.288c-0.4-1.771-1.4-3.544-2.172-5.058
	l-2.144-3.002c-2.572-2.771-1.715-2.4-4.858-4.829l-3.029-1.857c-5.173-2.115-6.201-2.572-12.031-2.63
	c-2.629-0.028-4.115,0.372-6.401,1c-1.771,0.486-3.943,1.287-5.315,2.23c-1.372,0.942-2.687,1.285-3.601,2.429
	c-1.972,2.486-2.743,2.114-4.887,6.116c-0.258,0.543-0.086,0.171-0.457,0.686c-0.857,1.229-1.314,2.658-1.943,4.172
	c-0.657,1.629-0.372,2.516-0.829,3.973c-0.229,0.715-0.886,1.943-0.485,3.772c0.143,0.657,0,0.257,0.199,0.571l1.229,0.114
	c0.229-0.314,0.171-0.143,0.343-0.6c0.515-1.114,0.229-2.486,0.657-3.658c0.257-0.629,0.257-0.771,0.4-1.601
	c0.343-1.857,1.143-3.629,1.972-4.973c0.371-0.6,0.171-0.457,0.657-1.029c0.229-0.285,0.114-0.143,0.343-0.399
	c0.2-0.257,0.2-0.286,0.4-0.543l1.543-2.087c1.372-1.857,2.144-2.028,3.687-3.344c1.543-1.314,2.515-1.742,4.315-2.715
	c3.572-1.886,1.4-0.629,5.173-1.771c2.657-0.8,6.516-0.343,9.145,0.486c1.058,0.314,2.029,0.143,2.886,0.686l4.573,2.515
	c1.086,0.515,1.4,1.029,2.286,1.772l2.915,3.344c0.314,0.371,0.371,0.514,0.628,1l2.744,6.201c0.543,2.744,1.057,6.431,0.743,9.688
	c-0.086,0.972-0.486,1.715-0.657,2.886c-0.144,0.972-0.115,2.115-0.286,3.115c-0.486,2.601-1.743,5.659-2.572,8.088l-1.857,3.201
	c-0.343,0.485-0.257,0.771-0.571,1.343c-0.486,0.943-0.229,0.143-0.687,1c-0.199,0.429-0.229,0.715-0.514,1.2l-4.315,6.345
	l-5.458,4.944c-0.515,0.485-1.286,1.143-1.943,1.686c-0.486,0.372-0.543,0.344-1.001,0.715c-0.8,0.686-2.343,1.286-3.286,2.029
	c-1.2,0.914-1.229,0.457-2.372,1.028c-0.457,0.258-0.429,0.372-1.028,0.657l-3.516,1.772c-1.343,0.8-3.943,1.086-5.63,1.4
	c-0.886,0.143-1.857,0.6-2.8,0.743c-3.973,0.6-9.603,0.6-13.66,0.229c-1.458-0.114-1.458-0.314-2.572-0.687
	c-0.972-0.343-2.2-0.257-3.058-0.571c-1.258-0.457-0.144-0.257-1.058-0.6c-0.857-0.314-1.915-0.286-2.743-0.687
	c-1.801-0.8-2.087-0.657-4.059-1.943c-0.429-0.257-0.057-0.057-0.6-0.371c-0.515-0.314-0.743-0.4-1.229-0.686
	c-2.086-1.315-3.943-1.658-5.516-3.772l-0.371-0.543c-0.028-0.029-0.086-0.058-0.114-0.114l-0.286-0.2
	c-0.828-0.687-1.343-0.572-1.429-1.973c-1.543-0.057-1.972-0.543-2.172-1.972c-0.343-0.114-0.657-0.114-1.028-0.285
	c-0.657-0.314-0.344-0.114-0.715-0.657c-0.715-0.943-1.571-1.544-2.172-2.658c-0.601-1.172-1.229-1.172-1.771-2.115l-0.886-1.543
	c-1.658-3.086-1.172-1.114-3.487-6.401l-0.885-2.772c-0.4-0.943-0.458-0.057-0.857-1.8c-0.314-1.286-0.915-2.801-1.057-4.03
	c-0.086-0.743-0.029-1.543-0.2-2.229c-0.314-1.2-0.515-0.486-0.629-2.058c-0.171-2.486-0.657-12.146,0.429-14.232
	c0.886-1.715,0.286-5.458,1.8-8.116c0.915-1.629,0.372-2.771,1.029-4.059c0.457-0.886,0.429-0.371,0.657-1.686
	c0.257-1.515,0.657-1.572,1.486-3.658c0.743-1.915,1.4-4.373,2.771-6.002c0.286-0.342,0.258-0.171,0.515-0.629
	c0.829-1.543,1.028-2.715,2.2-4.143c0.601-0.744,1.058-1.572,1.772-2.145c0.657-0.514,1.6-2.057,2.114-2.886
	c0.743-1.229-0.057-1.372,2.973-4.573c2.771-2.943,7.258-7.173,10.773-9.259l4.315-3.201c0.771-0.485,0.914-0.485,1.629-1.028
	c0.6-0.457,0.914-0.457,1.543-0.857c0.257-0.172,0.601-0.457,0.686-0.515c2.772-1.543,0.515-0.485,4.287-2.001l7.573-2.657
	c1.229-0.515,2.972-0.2,4.029-0.8c2.229-1.258,2.286-0.258,4.058-1c1.2-0.516,2.687-0.629,4.229-0.658
	c6.002-0.086,6.401-1.2,13.832-0.199c1.543,0.199,3.286,0.113,4.772,0.342c1.343,0.201,0.457,0.372,4.315,0.829
	c1.943,0.229,2.257,0.8,3.943,0.943c0.686,0.085,1.457,0.085,1.943,0.314l0.257,0.171c0.058,0.029,0.086,0.086,0.144,0.115
	c0.914,0.656,3.601,1.343,5.001,2.057c3.172,1.572,8.659,3.688,11.146,6.23c1.399,1.4,3.229,1.943,4.772,3.001
	c1.057,0.714,1.457,1.543,2.601,2.229c2.6,1.571,8.401,7.516,9.916,10.116c1.086,1.829,2.657,3.173,3.2,4.286l1.915,3.201
	c0.028,0.029,0.058,0.086,0.086,0.143l3.2,6.488c0.029,0.057,0.144,0.257,0.172,0.314l0.715,1.429
	c0.8,2.114,1.457,3.515,1.914,5.601c0.314,1.486,0.572,1.001,0.801,1.858c0.371,1.314-0.058,3.144,0.485,4.458
	c0.515,1.286,0.771,2.715,0.915,4.172c0.514,4.888,0.914,2.287,0.914,9.203c0,4.001,0.457,10.031-0.4,13.46
	c-0.257,1.001-0.399,0.429-0.571,1.544c-0.429,3.314,0.2,1.714-0.943,6.115c-0.2,0.743-0.171,1.029-0.343,1.829
	c-0.143,0.857-0.457,1.086-0.629,1.771c-0.429,1.658-0.171,2.172-0.886,3.744l-1.114,3.516c-0.371,1.343-0.829,2.086-1.286,3.286
	l-2.629,6.373c-0.286,0.972-0.314,1.372-0.801,2l-3.058,5.487c-0.171,0.286-0.229,0.4-0.429,0.771c-0.257,0.458-0.2,0.4-0.457,0.771
	c-0.028,0.029-0.057,0.086-0.086,0.114c-1.371,1.915-2.972,3.887-4.029,5.944l-0.914,1.4c-0.029,0.058-0.086,0.086-0.114,0.144
	l-7.888,8.773c-0.915,0.6-1.258,0.6-2.001,1.429l-5.144,5.229l-6.573,4.802c-1.828,0.829-1.914,1.543-3.343,2.258
	c-0.772,0.371-0.2,0.028-0.743,0.429l-7.173,4.458c-2.401,1.743-3.201,1.771-5.315,2.601l-5.916,2.058
	c-0.857,0.4-0.829,0.286-1.801,0.457c-1.771,0.314-1.086,0.857-3.429,1.086c-2.001,0.229-0.657,0.086-1.601,0.657
	c-0.629,0.372-1.114,0.2-2,0.344c-0.687,0.114-1.086,0.371-1.658,0.514c-0.571,0.172-1.571,0.229-2.114,0.286
	c-1.543,0.229-2.744,0.2-4.115,0.571c-1.715,0.486-1.943,0.457-4.001,0.543c-2.458,0.114-6.315,0.572-8.716,0.486
	c-2.744-0.086-5.545-0.429-8.459-0.457c-3.315-0.029-5.373-0.829-8.23-1.001c-2.315-0.114-8.545-2-10.975-2.743
	c-2.486-0.8-3.229-1.486-4.629-2.086c-0.629-0.258-1.029-0.2-1.772-0.4c-0.857-0.2-0.742-0.371-1.515-0.657l-3.457-1.2
	c-0.772-0.343-1.058-0.457-1.715-0.743c-1.887-0.801-11.46-6.516-12.86-7.659c-1.886-1.572-3.172-2.258-5.03-4.144
	c-0.601-0.629-0.715-0.572-1.343-1.086l-2.43-2.172c-0.743-0.687-0.343-0.601-0.943-1.229c-0.771-0.8-1.714-1.371-2.371-2.258
	c-0.172-0.229-0.286-0.371-0.543-0.6c-2.372-2.029-2.344-2.544-3.858-4.173c-0.286-0.314-0.371-0.285-0.629-0.571
	c-0.857-1.086-1.485-2.258-2.486-3.315c-1.515-1.543-2.486-3.458-3.887-5.059c-0.714-0.828-1.371-1.714-1.8-2.8
	c-0.372-0.887-0.086-0.801-0.571-1.658l-1.058-2.343c-0.258-0.629-0.086-0.372-0.372-0.829c-0.171-0.258-0.343-0.372-0.543-0.601
	l-0.543-0.714c-1.429-1.943-1.743-3.887-2.601-5.373c-0.343-0.601-0.085-0.058-0.399-0.857c-0.286-0.715-0.372-0.829-0.687-1.457
	c-0.314-0.658-0.371-1.058-0.628-1.829c-0.258-0.743-0.486-0.887-0.601-1.144c-0.257-0.485-0.257-1.058-0.429-1.657l-0.943-3.687
	c-0.771-1.572-0.657-1.687-1.143-3.43c-2.029-7.03-2.658-12.746-2.772-20.233c-0.057-3.173-0.343-12.403,0.343-15.433l0.314-1.857
	c0.543-1.973,0.429-4.315,0.572-6.459c0.114-1.686,0.171-0.801,0.628-1.743c0.515-1,0.114-2.372,0.829-3.801
	c0.543-1.114,0.229-2.515,0.743-3.829c0.657-1.602,0.4-2.115,0.829-3.773l1.714-5.059c0.314-0.686,0.172-1.199,0.486-1.942
	c0.314-0.715,0.429-0.314,0.657-1.458c0.229-1.143-0.028-1.028,0.485-2.029c0.771-1.428,1.086-3.515,1.943-4.829
	c0.515-0.772,0.972-2.401,1.314-3.286l5.087-10.889c0.657-1.144,1.115-1.744,1.829-2.772c0.915-1.343,1.486-2.858,2.572-4.201
	c0.6-0.714,0.485-0.457,1.028-1.429c1.058-1.943,2.829-3.344,4.087-5.059c0.657-0.914,1.372-1.629,1.972-2.629
	c1.4-2.286,4.572-4.973,6.602-6.945l5.801-5.572c1.086-0.972,3.115-2.058,5.258-3.943c1.229-1.058,2.687-1.915,3.772-2.973
	l3.029-1.629c1.4-0.371,0.743-0.028,1.629-0.743l2.429-1.943c0.601-0.399,1.029-0.399,1.629-0.8l12.432-5.916
	c0.828-0.286,0.543-0.343,1.543-0.657c1.4-0.4,1.943-0.886,3.372-1.229l7.83-2.543l21.205-3.258
	c3.144-0.429,11.031-0.143,14.403-0.057c1.629,0.057,1.714,0.429,3.372,0.514c2.058,0.086,11.717,1.315,13.146,1.829
	c1.629,0.572,3.4,0.6,6.287,1.486c0.914,0.257,1.886,0.8,2.629,0.943c0.601,0.086,1.286,0.057,1.829,0.171
	c0.8,0.2,0.486,0.314,1.229,0.658c1.144,0.486,2.63,0.428,3.858,1l2.086,0.8c1.829,0.743,4.43,1.229,5.658,1.857
	c0.943,0.486-0.171,0.257,1.258,0.686l4.115,1.686c0.543,0.257,0.857,0.257,1.258,0.457c0.657,0.286-0.144,0.229,1.229,0.715
	l2.715,1.086c0.943,0.629,2.543,1.857,3.544,2.258l10.888,6.315c1.572,0.972,2.887,2.087,4.572,2.915
	c1.601,0.771,3.029,2.43,4.315,3.43c2.172,1.686,4.572,3.314,6.573,5.258l0.8,0.658c0.485,0.428,0.457,0.6,0.914,1.028
	c0.715,0.629,1.172,0.857,1.973,1.657c0.714,0.658,1.343,1.258,1.972,1.887c0.686,0.657,1.486,1.114,1.972,1.887
	c0.829,1.4,1,1.086,1.801,2.086c0.485,0.629,0.143,0.343,0.771,0.914c2.058,1.887,2.314,3.144,3.657,4.115
	c1.029,0.743,2.172,1.943,2.744,3.029c1.485,2.83,3.801,5.03,5.544,7.803c1.257,1.971,2.572,3.686,3.601,5.83
	c0.8,1.656,1.972,3.258,2.887,4.829c0.399,0.657,0.2,0.485,0.514,1.172l0.658,1.314c0.485,1.2,0.714,1.144,1.229,2.601
	c0.285,0.743,0.343,0.429,0.657,1.286c0.2,0.457,0.229,0.915,0.485,1.485c0.258,0.572,0.114,0.201,0.344,0.601l1.515,3.058
	c0.285,0.658,0.371,0.4,0.628,1.258l0.943,2.973c0.371,1.172,0.371,2.086,0.686,3.2c0.314,1.029,0.372,0.458,0.629,1.315
	c0.143,0.514,0.086,1.086,0.229,1.715c0.258,1.143,0.657,1.543,0.801,2.771c0.199,1.457,0.457,2.144,0.714,3.229
	c0.743,3.429,0.2,3.544,1.058,6.63c0.6,2.201,0.143,6.573,0.515,8.974c0.143,0.915,0.257,0.458,0.371,1.515
	C421.303,143.62,421.188,145.191,421.188,146.363L421.188,146.363z"/>
<path fill-rule="evenodd" clip-rule="evenodd" fill="#E6E756" d="M56.681,102.095c0-1.6,0.172-2.457,0.2-3.887
	c0.028-1.199,1.086-4.887,1.715-6.401c0.914-2.144,1.515-3.657,3-5.516c0.657-0.829,4.259-3.344,4.973-3.572
	c2.258-0.657,1.344-0.601,2.344-0.829c0.828-0.171,4.315-0.171,5.258,0.172c3.173,1.115,5.03,2.601,7.202,5.401
	c1.657,2.144,3.458,5.888,3.687,8.831c0.143,1.657,0.371,2.6,0.514,3.887c0.314,2.771-0.914,7.545-1.857,10.346
	c-0.285,0.914-1,2.114-1.485,2.914c-1.172,1.829-0.771,1.486-2.344,3.229l-1.543,1.372c-1.972,1.657-3.516,2.172-6.287,2.258
	c-1.258,0.057-2.829,0.172-3.973-0.2l-2.972-1.144c-2.058-1.143-3.486-2.658-4.802-4.629l-1.771-3.516
	c-0.229-0.828-0.371-0.972-0.629-1.543c-0.514-1.144-0.343-2.144-0.628-3.516C56.909,103.952,56.652,105.782,56.681,102.095
	L56.681,102.095z M124.924,35.907c-0.571-0.257-1.371-0.486-1.914-0.771s-0.886-0.8-1.515-1.086
	c-0.715-0.343-1.314-0.314-1.943-0.743c-1.114-0.743-0.172-0.714-2.144-0.829l-1.886,2.972c-0.543,0.886-0.172,0.972-0.543,1.857
	c-0.258,0.6-0.515,0.686-0.857,1.543l-4.087,9.459c-0.257,0.657-0.086,0.143-0.457,0.771c-0.343,0.629-0.372,1.058-0.686,1.715
	c-0.486,1.028-1.344,2.086-1.801,3.229l-0.8,1.629c-0.172,0.371-0.115,0.457-0.258,0.943c-0.285,1.028-0.857,1.657-1.429,2.515
	c-1.114,1.601-1.543,3.114-2.658,4.601c-1.114,1.458-0.714,1.43-2.172,2.943c-0.429,0.43-0.628,0.887-0.942,1.43
	c-1,1.686-2.687,3.344-4.287,4.516l-2.715,2.086c-0.857,0.657-1.601,0.857-2.543,1.343c-1.086,0.571-0.286,0.458-1.715,0.743
	c-3.001,0.629-5.83,0.543-8.974-0.028c-1.372-0.229-5.572-2.458-6.572-3.43c-0.658-0.686-0.658-0.515-1.4-0.972
	c-2.458-1.543-6.459-6.944-7.859-9.602c-0.629-1.144-1.028-2.315-1.629-3.43c-1.286-2.344-1.229-3.001-2.114-5.173l-1.2-3.915
	c-0.258-0.887-0.114-1.144-0.458-1.943c-0.371-0.829-0.543-0.687-0.8-1.572c-0.257-0.914-0.028-1.258-0.486-2.201
	c-0.485-1-0.6-2.828-0.742-4.143c-0.144-1.544-0.144-0.887-0.515-1.858c-0.314-0.771-0.229-1.515-0.457-2.229
	c-0.229-0.686-0.629-1-0.801-1.543c-0.485-1.858-0.257-4.116-1.571-5.944c-1.743-0.115-3.772,0.4-6.059,0.428
	c-1.486,4.573,0.8,24.691,1.343,28.95c0.687,5.315,1.658,16.89,0.943,22.005c-0.229,1.602,0.058,6.059,0.485,7.432
	c0.086,0.371,0.372,0.686,0.629,1.171c0.886,1.715,0.372,7.316,0.058,9.088c-0.058,0.314-0.086,0.543-0.143,0.857l-0.857,4.03
	c-0.144,0.457-0.515,0.971-0.657,1.285c-0.4,1-0.544,1.658-1.286,2.658l-1.115,1.771c-1.571,2.258-5.144,4.744-8.087,4.83
	c-3.372,0.114-3.744,0-6.716-1.314c-2.144-0.943-5.373-3.229-6.116-5.573c-0.543-1.657-0.257-1.601-1.457-2.601
	c-2.372,0.743-4.458,4.23-6.602,6.23c-0.371,0.343-1.143,1.258-1.429,1.686l-1.543,1.857c-0.687,0.687-0.687,1.201-1.229,1.943
	c-0.399,0.543-1.285,1.258-1.543,1.887c-0.257,0.629-0.057,0.657-0.314,1.086l-0.857,0.771c-1.6,1.629-2.114,3.344-3,5.316
	c-0.515,1.143-0.172,0.143-0.629,1.057c-0.515,1.058-0.172,1.144-0.915,2.172c-0.457,0.658-0.6,1.687-1,2.43
	c-0.543,0.971-0.857,3.486-1.343,5.201c-1.086,3.801,0.429,13.518,2.229,16.976c0.486,0.914,0.429,1.486,0.857,2.286
	c0.857,1.687,0.572,1.715,0.943,2.429c0.743,1.4,1.801,2.486,2.486,4.03c0.543,1.257,0.857,1.286,1.829,2.114
	c0.343,0.286-0.028-0.171,0.4,0.486c0.657,1,1.371,1.915,2.286,2.629c0.028,0.028,0.085,0.086,0.143,0.114l0.286,0.2
	c0.886,0.715,1.343,0.857,2.057,1.943l1.601,1.657c0.771,0.486,1.001,1.029,1.743,1.601c1.029,0.743,2.315,1.114,3.43,1.687
	c1.629,0.8,2.458,1.515,4.458,2.029l5.087,1.485c1.687,0.601,3.858,0.4,5.63,0.915c1.229,0.371,0.886,0.485,2.572,0.514
	c3.915,0.115,16.146,0.601,19.004-0.6c1.343-0.543,1.543-0.2,2.972-0.457c0.687-0.144,1.572-0.429,2.43-0.657
	c1.8-0.429,3.943-0.372,5.601-0.943c1.001-0.372,1.687-0.314,2.772-0.629c3.258-0.914,6.259-2.114,9.202-3.858
	c2.086-1.229,3.572-2.857,5.544-4.144l1.771-1.629c1.172-1.029,1.857-2.544,2.801-3.715l2.144-2.658
	c0.429-0.371,0.515-0.543,0.8-1.028c-0.229-0.743-0.429-0.772-0.8-1.43c-0.4-0.686-0.457-0.657-0.886-1.6
	c-0.486-1.087-0.915-2.059-1.629-2.944c-0.715-0.942-0.629-2.229-1.029-3.601c-0.515-1.801,0.571-2.973,1.801-1.801
	c0.942,0.887,1.114,4.03,3.086,7.088l2.572,3.486c2.458,2.544,7.63,3.087,11.088,2.687c1.658-0.172,0.258-0.314,1.715-0.629
	c2.543-0.571,4.201,2.4-2.2,2.915c-9.517,0.771-9.517-2.601-11.632-2.258c-0.942,0.172-1.314,1.286-1.886,2.029
	c-0.286,0.4-0.143,0.143-0.429,0.515l-3.772,4.658c-2.972,3.515-7.458,6.173-11.573,7.888c-1.115,0.429-1.172,0.6-2.001,1.086
	l-3.058,1.058c-0.028,0.028-0.515,0.199-0.571,0.199c-0.515,0.144-0.886,0.115-1.458,0.258c-0.857,0.2-1.571,0.629-2.486,0.829
	c-1.057,0.257-1.743,0.085-2.715,0.428c-1.343,0.486-1.229,0.286-2.857,0.543c-0.343,1.687,0.2,2.144,0.6,3.287
	c0.629,1.829,1.4,4.258,2.83,5.658l4.715,3.716c0.771,0.457,0.886,0.114,1.572,0.628c1.314,0.943,2.343,1.43,4.344,1.943
	c1.828,0.458,1.457,0.658,3.743,0.772c2.772,0.114,4.687,0.942,7.487,0.942c2.772,0.029,5.744,0.114,8.487,0
	c1.572-0.086,3.658-0.914,7.487-0.972c4.001-0.028,2.087-0.972,7.659-1.2c0.343-0.457,0.286-0.285,0.571-0.886l2.172-0.086
	c0.372-0.399,0.229,0.258,0.486-0.857c0.657-0.028,1.058,0.029,1.686-0.143l2.229-0.943c0.571-0.2,0.943-0.743,1.486-0.857
	c1.4-0.343,1.515-0.085,2.915-0.857c1.057-0.571,1.485-0.543,2.457-1.429c0.543-0.485,0.086-0.371,0.886-0.743
	c1.772-0.857,3.115-1.629,4.573-2.972c0.257-0.229,0.285-0.258,0.514-0.486l2.63-2.172c0.343-0.285,0.485-0.485,0.8-0.914
	c0.057-0.058,0.4-0.572,0.4-0.572l2.715-3.857c0.257-0.457,0.485-0.601,0.828-1.115c0.629-0.914,1.486-1.515,2.087-2.515
	l2.972-5.487c0.686-1.686,1.144-1.8,1.829-3.943c0.6-1.943,0.972-3.744,1.771-5.716c0.771-1.857,0.343-4.658,0.829-6.716
	c1.229-5.401,0.143-5.688-0.172-9.859c-0.086-1.344-0.171-2.458-0.285-3.63c-0.229-2.4-0.943-5.229-1.973-7.202l-0.8-1.086
	c-0.457-0.828,0.2-0.514-0.943-2.943c-0.199-0.457-0.229-0.886-0.429-1.285c-0.229-0.4-0.257-0.314-0.429-0.543l-5.715-10.289
	c-1.058-1.4-1.943-2.943-3.287-3.973l-5.229-4.915c-0.828-0.857-1.543-1.629-2.601-2.258c-0.828-0.515-1.058-1.314-1.886-1.972
	l-4.687-3.516c-1.286-1.028-2.258-2.258-3.544-3.2c-1.058-0.8-0.914-1.001-1.829-1.858c-0.972-0.857-1.058-0.857-1.743-2.143
	c-0.4-0.801-0.857-1.543-1.114-2.516c-0.743-2.771-0.743-5.544,0.143-8.173c0.2-0.571,0.429-0.743,0.601-1.315
	c0.313-0.942,0.257-1.971,0.6-3c0.457-1.229,0.457-1.629,0.857-3.059l0.771-2.886c0.143-0.714,0.343-0.857,0.543-1.4
	c0.172-0.543,0.229-1.229,0.286-1.657c0.285-1.857,0.515-1.372,0.972-2.602c0.543-1.428-0.058-1.656,0.8-3.057
	c0.771-1.287,0.143-1.801,0.601-3.059l0.942-2.973c0.058-0.399,0.144-1,0.314-1.343c0.4-0.915,0.343,0.172,0.571-1.4
	c0.286-2.257-0.114-1.657,0.743-3.801c0.2-0.543,0.058-0.2,0.2-0.8c0.286-1.601,0.801-3.115,0.972-4.859
	C124.21,39.88,124.953,38.708,124.924,35.907L124.924,35.907z"/>
<path fill-rule="evenodd" clip-rule="evenodd" fill="#E6E756" d="M119.323,314.204c0-1.571,0.514-1.257,1.914-2.771
	c0.771-0.829,1.258-1.772,2.058-2.544l4.544-4.658c0.801-0.771,1.2-1.601,2.086-2.486l4.23-4.486c1-1.086,1.543-1.229,2.515-2.544
	c1.343-1.829,3.172-3.172,4.515-4.915c0.715-0.943,1.458-1.544,2.201-2.43l5.572-5.802c0.028-0.028,0.086-0.085,0.143-0.114
	l4.001-7.373c1.458-3.486,1.486-3.772,1.4-7.944c-0.057-2.229,0.258-4.315-0.686-6.287c-0.543-1.144-1.058-2.144-1.258-3.401
	c-0.257-1.515,0.144-0.543-0.571-1.486l-0.857-1.6c-1.086-1.887-2.086-4.03-3.4-5.773l-6.201-7.63
	c-0.429-0.572-0.572-0.601-1.001-1.201c-0.571-0.771,0.086-0.057-0.485-0.657c-0.058-0.028-0.114-0.085-0.144-0.114l-5.344-5.544
	c-0.028-0.058-0.057-0.086-0.114-0.143l-0.686-0.429c-0.4-0.229-0.172-0.058-0.515-0.258c-0.057-0.057-0.229-0.171-0.286-0.199
	l-1.886-1.544c-1.058-0.771-1.801-1.8-2.887-2.657l-0.686-0.572c-2.029-2.114-1.172-1-2.715-2.343c-0.515-0.458,0.058,0-0.629-0.515
	c-0.057-0.058-0.257-0.172-0.314-0.229c-0.857-0.687-2.114-1.572-2.686-2.458c-0.715-1.144-2.286-1.601-3.372-2.344l-0.658-0.6
	c-0.686-0.601,0.687,0.4-0.371-0.286l-3.486-3.344c-0.028-0.028-0.086-0.086-0.114-0.114c-0.857-0.8-1.429-0.457-2.315-1.343
	l-2.857-2.915c-0.4-0.372,0.172,0.143-0.4-0.314c-0.028-0.028-0.114-0.058-0.143-0.086l-3.4-3.658
	c-0.543-0.629-0.114-0.057-0.629-0.543c-1.343-1.286-1.943-3.429-3.201-4.801c-2.343-2.544,3.801-1.772,5.888-2.229
	c2.686-0.6,6.572-1.257,9.173-2.144c0.058,0,0.114-0.028,0.172-0.057c1.943-0.657,4.144-0.657,7.173-2.286
	c0.515-0.286,1-0.4,1.543-0.657c1.058-0.515,1.857-1.115,2.887-1.687c0.515-0.257,1-0.571,1.486-0.943
	c1.028-0.686,2.058-0.972,2.943-1.686c1.485-1.229,3.086-2.201,4.344-3.658c0.028-0.028,0.057-0.086,0.114-0.143
	c0.028-0.029,0.057-0.086,0.086-0.114l1.057-0.829c0.258-0.172,0.314-0.2,0.572-0.429l4.515-4.687
	c0.515-0.658,0.543-0.801,1.229-1.258l1.114-0.943c0.028-0.057,0.114-0.257,0.171-0.314l2.486-4.058
	c0.372-0.601,0.344-0.829,0.687-1.515c0.828-1.658,2.2-4.802,2.629-6.545c0.429-1.8,0.686-2.943,1.543-3.314
	c0.314,0.972,0.172,2.515,0.372,3.829c0.429,3.144,1.771,6.944,1.943,9.831l4.943,19.062c0.286,0.886,0.343,0.286,0.801,1.314
	c0.257,0.601,0.229,2.858,1.828,6.202c0.372,0.771,0.2,0.714,0.458,1.515c0.314,0.942,0.314,0.457,0.686,1.229
	c0.257,0.543,0.229,0.857,0.515,1.4l0.629,1.343c0.371,1.029,0.199,0.429,0.686,1.172l1.371,3.772
	c0.4,1.458,1.687,2.915,2.486,4.229c0.772,1.286,0.429,1.801,1.258,2.858c0.601,0.743,0.286,0.399,0.715,1.229
	c1.571,2.887,1.714,3.572,3.601,6.316l2.543,4.743c0.029,0.029,0.086,0.086,0.114,0.115c0.029,0.057,0.058,0.114,0.114,0.143
	c0.543,0.857,0.2,1.028,0.743,1.629c0.028,0.028,0.114,0.086,0.144,0.114l2.571,3.001c0.601,0.714,1.029,1.8,1.515,2.629l1.629,2.2
	c0.429,0.4,0-0.057,0.4,0.314l3.4,3.858c0.972,0.943,2.087,2.943,3.458,4.315c0.801,0.829,1.114,1.457,1.857,2.258
	c0.687,0.686,1.086,1.314,1.801,2.058l3.743,4.258c0.829,0.829,1.315,1.258,2.058,2.058c1.258,1.372,2.43,1.857,3.287,2.744
	c0.429,0.429,0.429,0.543,1,0.942c1.086,0.857,2.4,1.658,3.229,2.83c0.514,0.771,0.143,0.457,0.857,1.057l4.857,3.173
	c1.915,1,3.201,2.571,4.658,3.314c2.772,1.4,2.315,1.572,4.744,3.001l5.201,2.801c0.686,0.429,1.686,0.943,2.515,1.343l4.201,1.887
	c1.543,0.571,2.601,1.286,4.201,1.8l7.43,2.486c1.687,0.314,0.571,0.058,1.343,0.572c1.086,0.686,2.173,0.2,3.487,0.657l3.2,0.686
	c1.286,0.172,0.743-0.028,1.629,0.515c1.314,0.771,3.401,0.629,5.03,0.686c2.972,0.058,4.258,0.601,7.287,0.715l23.69,0.257
	c1.543-0.028,3.287-0.485,4.858-0.571l4.801-0.486c1.715-0.085,3.716-0.028,5.173-0.285c1.457-0.229,3.058-0.715,4.516-0.801
	c0.828-0.057,1.771,0.115,2.543-0.114c0.886-0.285,0.429-0.514,2.058-0.657c1.543-0.143,3.372-0.114,4.602-0.657l8.772-2
	c0.857,1.4,2.201,2.801,3.201,4.087c0.943,1.229,2.429,2.058,3.743,2.8l2.915,1.915c0.314,0.258,0.258,0.286,0.657,0.515l5.315,2.2
	c0.857,0.258,1.029,0.515,1.687,0.743l5.602,1.687c0.657,0.343,0.229,0.2,0.828,0.371l8.202,2.943c0.657,0.258,0.371,0.058,1,0.429
	c0.715,0.4,1.887,0.572,2.658,1.001c1.343,0.8,3.515,1.543,4.943,2.515l2.172,1.457c0.4,0.258,0.372,0.229,0.715,0.486
	c0.314,0.2,0.4,0.285,0.714,0.515l2.944,2.372c1.257,0.914,2.515,1.285,2.515,3.114l-15.032-0.028
	c-2.486,0.229-14.603-0.429-17.661-0.429L119.323,314.204z"/>
<path fill-rule="evenodd" clip-rule="evenodd" fill="#3A3A39" d="M119.323,314.204c0-1.571,0.514-1.257,1.914-2.771
	c0.771-0.829,1.258-1.772,2.058-2.544l4.544-4.658c0.801-0.771,1.2-1.601,2.086-2.486l4.23-4.486c1-1.086,1.543-1.229,2.515-2.544
	c1.343-1.829,3.172-3.172,4.515-4.915c0.715-0.943,1.458-1.544,2.201-2.43l5.572-5.802c0.028-0.028,0.086-0.085,0.143-0.114
	l4.001-7.373c1.458-3.486,1.486-3.772,1.4-7.944c-0.057-2.229,0.258-4.315-0.686-6.287c-0.543-1.144-1.058-2.144-1.258-3.401
	c-0.257-1.515,0.144-0.543-0.571-1.486l-0.857-1.6c-1.086-1.887-2.086-4.03-3.4-5.773l-6.201-7.63
	c-0.429-0.572-0.572-0.601-1.001-1.201c-0.571-0.771,0.086-0.057-0.485-0.657c-0.058-0.028-0.114-0.085-0.144-0.114l-5.344-5.544
	c-0.028-0.058-0.057-0.086-0.114-0.143l-0.686-0.429c-0.4-0.229-0.172-0.058-0.515-0.258c-0.057-0.057-0.229-0.171-0.286-0.199
	l-1.886-1.544c-1.058-0.771-1.801-1.8-2.887-2.657l-0.686-0.572c-2.029-2.114-1.172-1-2.715-2.343c-0.515-0.458,0.058,0-0.629-0.515
	c-0.057-0.058-0.257-0.172-0.314-0.229c-0.857-0.687-2.114-1.572-2.686-2.458c-0.715-1.144-2.286-1.601-3.372-2.344l-0.658-0.6
	c-0.686-0.601,0.687,0.4-0.371-0.286l-3.486-3.344c-0.028-0.028-0.086-0.086-0.114-0.114c-0.857-0.8-1.429-0.457-2.315-1.343
	l-2.857-2.915c-0.4-0.372,0.172,0.143-0.4-0.314c-0.028-0.028-0.114-0.058-0.143-0.086l-3.4-3.658
	c-0.543-0.629-0.114-0.057-0.629-0.543c-1.343-1.286-1.943-3.429-3.201-4.801c-2.343-2.544,3.801-1.772,5.888-2.229
	c2.686-0.6,6.572-1.257,9.173-2.144c0.058,0,0.114-0.028,0.172-0.057c1.943-0.657,4.144-0.657,7.173-2.286
	c0.515-0.286,1-0.4,1.543-0.657c1.058-0.515,1.857-1.115,2.887-1.687c0.515-0.257,1-0.571,1.486-0.943
	c1.028-0.686,2.058-0.972,2.943-1.686c1.485-1.229,3.086-2.201,4.344-3.658c0.028-0.028,0.057-0.086,0.114-0.143
	c0.028-0.029,0.057-0.086,0.086-0.114l1.057-0.829c0.258-0.172,0.314-0.2,0.572-0.429l4.515-4.687
	c0.515-0.658,0.543-0.801,1.229-1.258l1.114-0.943c0.028-0.057,0.114-0.257,0.171-0.314l2.486-4.058
	c0.372-0.601,0.344-0.829,0.687-1.515c0.828-1.658,2.2-4.802,2.629-6.545c0.429-1.8,0.686-2.943,1.543-3.314
	c0.314,0.972,0.172,2.515,0.372,3.829c0.429,3.144,1.771,6.944,1.943,9.831l4.943,19.062c0.286,0.886,0.343,0.286,0.801,1.314
	c0.257,0.601,0.229,2.858,1.828,6.202c0.372,0.771,0.2,0.714,0.458,1.515c0.314,0.942,0.314,0.457,0.686,1.229
	c0.257,0.543,0.229,0.857,0.515,1.4l0.629,1.343c0.371,1.029,0.199,0.429,0.686,1.172l1.371,3.772
	c0.4,1.458,1.687,2.915,2.486,4.229c0.772,1.286,0.429,1.801,1.258,2.858c0.601,0.743,0.286,0.399,0.715,1.229
	c1.571,2.887,1.714,3.572,3.601,6.316l2.543,4.743c0.029,0.029,0.086,0.086,0.114,0.115c0.029,0.057,0.058,0.114,0.114,0.143
	c0.543,0.857,0.2,1.028,0.743,1.629c0.028,0.028,0.114,0.086,0.144,0.114l2.571,3.001c0.601,0.714,1.029,1.8,1.515,2.629l1.629,2.2
	c0.429,0.4,0-0.057,0.4,0.314l3.4,3.858c0.972,0.943,2.087,2.943,3.458,4.315c0.801,0.829,1.114,1.457,1.857,2.258
	c0.687,0.686,1.086,1.314,1.801,2.058l3.743,4.258c0.829,0.829,1.315,1.258,2.058,2.058c1.258,1.372,2.43,1.857,3.287,2.744
	c0.429,0.429,0.429,0.543,1,0.942c1.086,0.857,2.4,1.658,3.229,2.83c0.514,0.771,0.143,0.457,0.857,1.057l4.857,3.173
	c1.915,1,3.201,2.571,4.658,3.314c2.772,1.4,2.315,1.572,4.744,3.001l5.201,2.801c0.686,0.429,1.686,0.943,2.515,1.343l4.201,1.887
	c1.543,0.571,2.601,1.286,4.201,1.8l7.43,2.486c1.687,0.314,0.571,0.058,1.343,0.572c1.086,0.686,2.173,0.2,3.487,0.657l3.2,0.686
	c1.286,0.172,0.743-0.028,1.629,0.515c1.314,0.771,3.401,0.629,5.03,0.686c2.972,0.058,4.258,0.601,7.287,0.715l23.69,0.257
	c1.543-0.028,3.287-0.485,4.858-0.571l4.801-0.486c1.715-0.085,3.716-0.028,5.173-0.285c1.457-0.229,3.058-0.715,4.516-0.801
	c0.828-0.057,1.771,0.115,2.543-0.114c0.886-0.285,0.429-0.514,2.058-0.657c1.543-0.143,3.372-0.114,4.602-0.657l8.772-2
	c0.857,1.4,2.201,2.801,3.201,4.087c0.943,1.229,2.429,2.058,3.743,2.8l2.915,1.915c0.314,0.258,0.258,0.286,0.657,0.515l5.315,2.2
	c0.857,0.258,1.029,0.515,1.687,0.743l5.602,1.687c0.657,0.343,0.229,0.2,0.828,0.371l8.202,2.943c0.657,0.258,0.371,0.058,1,0.429
	c0.715,0.4,1.887,0.572,2.658,1.001c1.343,0.8,3.515,1.543,4.943,2.515l2.172,1.457c0.4,0.258,0.372,0.229,0.715,0.486
	c0.314,0.2,0.4,0.285,0.714,0.515l2.944,2.372c1.257,0.914,2.515,1.285,2.515,3.114l-15.032-0.028
	c-2.486,0.229-14.603-0.429-17.661-0.429L119.323,314.204L119.323,314.204z M33.361,89.721c0.601,0.2,1.172,0.114,1.571,0.399
	l3.087,3.401c0.4,0.629,0.686,2.429,1.086,3.286c0.515,1.229,0.429,2.258,0.371,3.83c-0.057,1.143-0.914,4.172-1.8,5.258
	c-0.286,0.314-0.286,0.372-0.543,0.715c-1.915,2.372-3.058,3.287-5.716,2.973c-1.114-0.115-2.2-0.629-2.715-1.4
	c-1.886-2.687-1.028-1.286-2.429-4.115c-1.115-2.229-1.058-2.287-0.915-5.631c0.086-2.2,1.144-5.4,2.572-6.858
	C29.961,89.521,31.933,89.292,33.361,89.721L33.361,89.721z M36.647,110.868c-0.028-0.971,2.687-2.114,3.687-5.572
	c0.687-2.344,1.314-6.173,0.657-8.631l-0.743-3.029c-0.257-0.771-2.314-3.801-3.144-4.315c-2.257-1.485-1.257-1.429-3.258-1.657
	c-0.856-0.086-2.972-0.914-5.144,0.543c-0.8,0.543-0.943,1.057-1.172,1.314c-0.857,0.914-0.314-0.514-2.144,1.943l-1.571,1.543
	c-0.629-2.258-0.086-2.229,0.371-4.201c0.343-1.543,1.086-3.973,1.887-5.4l1.314-2.059c5.544-7.145,13.66-5.629,17.232,0.715
	l1.571,2.286l1.458,5.659c0.914,5.486,0.057,7.801-1.001,12.23c-0.285,1.144-0.428,0.658-0.886,1.658
	C44.335,107.039,40.134,111.897,36.647,110.868L36.647,110.868z M124.924,35.907c0.029,2.801-0.714,3.973-1,6.658
	c-0.171,1.744-0.686,3.259-0.972,4.859c-0.143,0.6,0,0.257-0.2,0.8c-0.857,2.144-0.457,1.544-0.743,3.801
	c-0.229,1.572-0.171,0.485-0.571,1.4c-0.171,0.343-0.257,0.943-0.314,1.343l-0.942,2.973c-0.458,1.258,0.171,1.771-0.601,3.059
	c-0.857,1.4-0.257,1.629-0.8,3.057c-0.457,1.229-0.687,0.744-0.972,2.602c-0.058,0.428-0.114,1.114-0.286,1.657
	c-0.2,0.543-0.4,0.687-0.543,1.4l-0.771,2.886c-0.4,1.43-0.4,1.83-0.857,3.059c-0.343,1.029-0.286,2.058-0.6,3
	c-0.172,0.572-0.4,0.744-0.601,1.315c-0.886,2.629-0.886,5.401-0.143,8.173c0.257,0.973,0.714,1.715,1.114,2.516
	c0.686,1.285,0.771,1.285,1.743,2.143c0.915,0.857,0.771,1.059,1.829,1.858c1.286,0.942,2.258,2.172,3.544,3.2l4.687,3.516
	c0.828,0.657,1.058,1.457,1.886,1.972c1.058,0.629,1.772,1.4,2.601,2.258l5.229,4.915c1.344,1.029,2.229,2.572,3.287,3.973
	l5.715,10.289c0.172,0.229,0.2,0.143,0.429,0.543c0.2,0.399,0.229,0.828,0.429,1.285c1.144,2.43,0.486,2.115,0.943,2.943l0.8,1.086
	c1.029,1.973,1.744,4.802,1.973,7.202c0.114,1.172,0.199,2.286,0.285,3.63c0.314,4.172,1.4,4.458,0.172,9.859
	c-0.486,2.058-0.058,4.858-0.829,6.716c-0.8,1.972-1.172,3.772-1.771,5.716c-0.686,2.144-1.144,2.258-1.829,3.943l-2.972,5.487
	c-0.601,1-1.458,1.601-2.087,2.515c-0.343,0.515-0.571,0.658-0.828,1.115l-2.715,3.857c0,0-0.344,0.515-0.4,0.572
	c-0.314,0.429-0.457,0.629-0.8,0.914l-2.63,2.172c-0.229,0.229-0.257,0.258-0.514,0.486c-1.458,1.343-2.801,2.114-4.573,2.972
	c-0.8,0.372-0.343,0.258-0.886,0.743c-0.972,0.886-1.4,0.857-2.457,1.429c-1.4,0.772-1.515,0.515-2.915,0.857
	c-0.543,0.114-0.915,0.657-1.486,0.857l-2.229,0.943c-0.628,0.172-1.028,0.114-1.686,0.143c-0.257,1.115-0.114,0.458-0.486,0.857
	l-2.172,0.086c-0.285,0.601-0.229,0.429-0.571,0.886c-5.572,0.229-3.658,1.172-7.659,1.2c-3.829,0.058-5.915,0.886-7.487,0.972
	c-2.743,0.114-5.715,0.029-8.487,0c-2.801,0-4.715-0.828-7.487-0.942c-2.286-0.114-1.915-0.314-3.743-0.772
	c-2.001-0.514-3.029-1-4.344-1.943c-0.687-0.514-0.801-0.171-1.572-0.628l-4.715-3.716c-1.43-1.4-2.201-3.829-2.83-5.658
	c-0.399-1.144-0.942-1.601-0.6-3.287c1.629-0.257,1.515-0.057,2.857-0.543c0.972-0.343,1.658-0.171,2.715-0.428
	c0.915-0.2,1.629-0.629,2.486-0.829c0.572-0.143,0.943-0.114,1.458-0.258c0.057,0,0.543-0.171,0.571-0.199l3.058-1.058
	c0.829-0.486,0.886-0.657,2.001-1.086c4.115-1.715,8.602-4.373,11.573-7.888l3.772-4.658c0.286-0.372,0.143-0.114,0.429-0.515
	c0.571-0.743,0.943-1.857,1.886-2.029c2.115-0.343,2.115,3.029,11.632,2.258c6.401-0.515,4.743-3.486,2.2-2.915
	c-1.457,0.314-0.057,0.457-1.715,0.629c-3.458,0.4-8.63-0.143-11.088-2.687l-2.572-3.486c-1.972-3.058-2.144-6.201-3.086-7.088
	c-1.229-1.172-2.315,0-1.801,1.801c0.4,1.372,0.314,2.658,1.029,3.601c0.714,0.886,1.143,1.857,1.629,2.944
	c0.429,0.942,0.485,0.914,0.886,1.6c0.371,0.657,0.571,0.687,0.8,1.43c-0.285,0.485-0.371,0.657-0.8,1.028l-2.144,2.658
	c-0.943,1.171-1.629,2.686-2.801,3.715l-1.771,1.629c-1.972,1.286-3.458,2.915-5.544,4.144c-2.943,1.744-5.944,2.944-9.202,3.858
	c-1.086,0.314-1.771,0.257-2.772,0.629c-1.657,0.571-3.801,0.515-5.601,0.943c-0.857,0.229-1.743,0.514-2.43,0.657
	c-1.429,0.257-1.629-0.086-2.972,0.457c-2.857,1.2-15.089,0.715-19.004,0.6c-1.687-0.028-1.344-0.143-2.572-0.514
	c-1.771-0.515-3.943-0.314-5.63-0.915l-5.087-1.485c-2-0.515-2.829-1.229-4.458-2.029c-1.114-0.572-2.4-0.943-3.43-1.687
	c-0.742-0.571-0.972-1.114-1.743-1.601l-1.601-1.657c-0.714-1.086-1.171-1.229-2.057-1.943l-0.286-0.2
	c-0.058-0.028-0.114-0.086-0.143-0.114c-0.915-0.714-1.629-1.629-2.286-2.629c-0.429-0.657-0.058-0.2-0.4-0.486
	c-0.972-0.828-1.286-0.857-1.829-2.114c-0.686-1.544-1.743-2.63-2.486-4.03c-0.371-0.714-0.086-0.742-0.943-2.429
	c-0.429-0.8-0.371-1.372-0.857-2.286c-1.8-3.458-3.314-13.175-2.229-16.976c0.485-1.715,0.8-4.23,1.343-5.201
	c0.4-0.743,0.543-1.771,1-2.43c0.743-1.028,0.4-1.114,0.915-2.172c0.457-0.914,0.114,0.086,0.629-1.057
	c0.886-1.973,1.4-3.688,3-5.316l0.857-0.771c0.258-0.429,0.058-0.457,0.314-1.086c0.258-0.629,1.144-1.344,1.543-1.887
	c0.543-0.742,0.543-1.257,1.229-1.943l1.543-1.857c0.286-0.428,1.058-1.343,1.429-1.686c2.144-2,4.229-5.487,6.602-6.23
	c1.2,1,0.914,0.943,1.457,2.601c0.743,2.344,3.973,4.63,6.116,5.573c2.972,1.314,3.344,1.429,6.716,1.314
	c2.943-0.086,6.516-2.572,8.087-4.83l1.115-1.771c0.742-1,0.886-1.658,1.286-2.658c0.143-0.314,0.514-0.828,0.657-1.285l0.857-4.03
	c0.057-0.314,0.085-0.543,0.143-0.857c0.314-1.771,0.828-7.373-0.058-9.088c-0.257-0.485-0.543-0.8-0.629-1.171
	c-0.428-1.373-0.714-5.83-0.485-7.432c0.715-5.115-0.257-16.689-0.943-22.005c-0.543-4.259-2.829-24.377-1.343-28.95
	c2.286-0.028,4.315-0.543,6.059-0.428c1.314,1.829,1.086,4.086,1.571,5.944c0.172,0.543,0.572,0.857,0.801,1.543
	c0.229,0.714,0.143,1.458,0.457,2.229c0.371,0.972,0.371,0.314,0.515,1.858c0.143,1.314,0.257,3.143,0.742,4.143
	c0.458,0.943,0.229,1.287,0.486,2.201c0.257,0.886,0.429,0.743,0.8,1.572c0.344,0.8,0.2,1.057,0.458,1.943l1.2,3.915
	c0.886,2.172,0.828,2.829,2.114,5.173c0.601,1.114,1,2.286,1.629,3.43c1.4,2.657,5.401,8.059,7.859,9.602
	c0.742,0.457,0.742,0.286,1.4,0.972c1,0.972,5.2,3.201,6.572,3.43c3.144,0.571,5.973,0.657,8.974,0.028
	c1.429-0.285,0.629-0.172,1.715-0.743c0.942-0.485,1.686-0.686,2.543-1.343l2.715-2.086c1.601-1.172,3.287-2.83,4.287-4.516
	c0.314-0.543,0.514-1,0.942-1.43c1.458-1.514,1.058-1.485,2.172-2.943c1.115-1.486,1.544-3,2.658-4.601
	c0.571-0.857,1.144-1.486,1.429-2.515c0.143-0.486,0.086-0.572,0.258-0.943l0.8-1.629c0.457-1.144,1.314-2.201,1.801-3.229
	c0.313-0.657,0.343-1.086,0.686-1.715c0.371-0.629,0.2-0.114,0.457-0.771l4.087-9.459c0.343-0.857,0.6-0.943,0.857-1.543
	c0.371-0.886,0-0.972,0.543-1.857l1.886-2.972c1.972,0.114,1.029,0.085,2.144,0.829c0.629,0.429,1.229,0.4,1.943,0.743
	c0.629,0.286,0.972,0.8,1.515,1.086S124.353,35.65,124.924,35.907L124.924,35.907z M421.188,146.363
	c0,2.029,0.144,4.172-0.114,6.173c-0.2,1.372,0,2.915-0.171,4.201c-0.258,1.715-0.429,1.743-0.429,3.915
	c0,2.486,0.229,5.63-0.629,7.773c-0.543,1.372-0.429,2-0.485,3.829c-0.058,1.857,0.057,2.458-0.543,3.887
	c-0.658,1.601-0.258,1.887-0.543,3.801l-0.715,3.373c-0.343,2.629-1.029,4.801-1.086,5.401c-0.314,3.114-1.114,2.629-2.086,8.63
	c-0.258,1.458-0.687,2.144-0.915,3.458c-0.2,1.172-0.629,1.344-0.914,2.229c-0.4,1.258-0.229,1.372-0.886,2.486
	c-0.543,0.914-0.715,1.972-1.086,3.001l-2.486,6.201c-0.286,0.715-0.4,0.771-0.601,1.601c-0.285,1.2-0.828,1.972-1.457,2.943
	c-0.029,0.028-0.058,0.086-0.086,0.143c-0.829,1.172-0.515,1.572-1.2,2.658c-0.486,0.771-0.343,0.629-0.657,1.486
	c-0.429,1.143-0.629,0.743-0.857,1.343c-0.629,1.629,0.2,0.943-1.258,3.144l-1.686,2.63c-0.486,0.972-1.144,1.571-1.743,2.4
	c-0.344,0.515-0.372,0.943-0.687,1.457l-3.4,5.373c-1.972,2.943-2.772,3.087-5.001,5.858c-0.515,0.601-0.372,0.743-0.801,1.372
	c-0.485,0.714-0.6,0.571-1.143,1.058c-0.857,0.714-1.229,1.543-1.943,2.429c-1.028,1.286-1.4,1.029-2.4,1.943l-6.573,6.259
	c-0.828,0.486-3.972,2.887-4.658,3.772c-1.057,1.343-1.914,1.657-3.286,2.543c-0.229,0.144-0.286,0.144-0.457,0.286l-2.486,1.629
	c-0.686,0.515-0.629,0.629-1.229,0.943l-8.316,4.744c-0.601,0.429-0.314,0.429-1.029,0.857c-0.514,0.285-0.914,0.371-1.657,0.571
	c-1.258,0.343-1.886,0.914-2.915,1.429l-4.658,1.887c-0.943,0.371-0.457,0.371-1.486,0.714l-6.087,2.344
	c-1.629,0.771-1.629,0.543-3.458,0.943c-0.714,0.143-0.8,0.457-1.399,0.714c-0.572,0.229-1.086,0.2-1.744,0.457l-10.145,2.658
	c-1.314,0.172-2.544,0.114-3.772,0.601c-1.314,0.485-4.286,0.543-5.059,1.143c-0.485,0.372,0.029,0.429-1.143,0.515
	c-1.343,0.057-3.001,0.057-4.372,0.086c-2.486,0.028-2.258,0.399-3.858,0.543c-10.116,0.942-14.688,1.114-24.205,1.114
	c-2.887,0-5.259-0.229-8.002-0.257l-11.603-0.887c-1.229-0.371-2.144-0.571-3.658-0.742c-1.943-0.2-5.315-0.687-7.087-1.372
	c-0.857-0.343,0.229-0.172-1.258-0.629l-7.802-2.629c-0.285-0.144-5.029-1.658-6.201-2.315l-13.26-7.744
	c-0.343-0.286-0.657-0.572-1.086-0.829c-0.914-0.6-1.2-0.515-2.058-1.114l-5.458-4.229c-0.486-0.458-0.601-0.572-1.2-0.972
	c-1.887-1.286-3.315-2.944-4.973-4.459l-2.172-1.943c-2.029-1.886-4.173-3.657-6.087-5.744l-3.029-3.258
	c-0.457-0.457-0.715-0.714-1.029-1.143l-5.43-7.174c-0.571-0.886-1.343-1.114-1.886-2.229c-0.571-1.144-0.801-1.772-1.601-2.516
	c-0.429-0.429-0.829-0.514-1.144-1c-0.285-0.4-0.399-0.972-0.742-1.486c-0.687-1.028-0.857-1-1.629-2.486
	c-0.629-1.2-1.372-1.515-1.857-2.486l-1.544-2.515c-0.371-0.571-0.514-0.8-0.828-1.372l-7.116-13.46
	c-1.114-2.486-1.943-5.201-3.344-7.573c-0.485-0.857-1.229-3.772-1.571-4.772c-0.172-0.486-0.601-0.743-0.829-1.258
	c-0.257-0.515-0.257-0.886-0.515-1.457c-0.857-1.915-1.229-4.43-2.086-6.402l-4.058-15.061c-0.543-1.515-0.4-1.715-0.629-3.486
	c-0.2-1.286-0.771-1.943-0.886-3.458c-0.229-2.943-0.915-4.572-0.972-7.487c-0.029-1.744-0.4-6.202-0.743-7.717
	c-1.058-4.372,0.4-22.034,0.8-25.892l0.543-2.572c0.429-1.629,0.343-3.229,0.972-5.344c0.515-1.629,0.4-3.43,1.029-5.002
	c0.343-0.857,0.399-1.515,0.771-2.371c0.485-1.201,0.457-0.801,0.657-2.401c0.257-1.772,0.571-0.714,0.914-2.229l4.087-11.517
	l3.115-6.345c0.886-1.572,2.4-2.972,3.029-4.629l2.829-4.973c0.314-0.458,0.371-0.486,0.629-0.829
	c0.257-0.372,0.313-0.629,0.657-1.029l8.602-10.06c0.543-0.828,0.886-0.828,1.657-1.429c0.715-0.543,1.029-1.058,1.543-1.629
	l11.203-8.859c1.485-1.314-0.144-0.399,2.715-2.144l7.83-4.772c1.4-0.571,0.343-0.485,1.801-1.286
	c0.742-0.429,1.285-0.6,1.972-0.943l4.058-2.2c1.144-0.629,1.486-0.286,2.515-0.714c0.601-0.258,1.201-0.744,2.001-1.115
	l8.831-3.772c1.629-0.286,1.171-0.628,2.257-0.886c1.314-0.343,1.314-0.028,2.543-0.6c1.2-0.572,2.315-0.657,3.372-1.2l3.487-1.286
	c4.887-0.515,2-0.972,5.544-0.8l-7.431,3.715c-0.515,0.229-0.285,0.143-0.686,0.486c-0.857,0.715-1.887,1-2.772,1.601
	c-0.571,0.399-1.057,0.914-1.6,1.286c-1.4,0.943-1.4,0.514-3.458,2.114c-0.543,0.4-1.143,0.687-1.743,1.144
	c-1.144,0.857-2.372,1.6-3.401,2.429l-5.258,4.659c-4.087,3.172-5.858,5.801-9.459,8.916c-1.743,1.515-0.258,0.857-2.772,3.058
	c-0.485,0.4-0.771,0.857-1.229,1.429c-0.457,0.601-0.743,1.144-1.2,1.687l-6.316,7.974c-0.6,0.686-0.543,1.057-0.971,1.886
	c-0.029,0.058-0.058,0.114-0.086,0.171c-0.029,0.058-0.058,0.115-0.086,0.172l-4.486,9.117c-0.314,0.8-0.887,1.285-1.544,2.771
	l-1.457,2.887c-0.314,0.801-0.172,1.172-0.629,2.058l-0.8,2.114c-0.857,1.973-1.572,4.859-2.286,6.174
	c-0.572,1.028-1.658,5.115-2.144,6.602c-0.4,1.229-0.829,3.144-1.144,4.458c-0.399,1.743-0.686,3.144-1.028,4.744
	c-0.314,1.458-0.771,3.001-1.029,4.544c-0.285,1.715-0.285,3.715-0.429,5.43l-0.771,4.772c-0.6,5.458-0.543,11.288-0.399,16.775
	l0.657,7.859c0.485,2.4,0.686,4.973,1.286,7.173l1.514,7.03c0.314,1.486,1.115,2.658,1.744,3.973l3.372,9.517
	c0.257,0.457,0.399,0.543,0.6,0.829c0.972,1.657,1.887,4.687,3.915,7.487c0.943,1.286,1.229,2.4,2.115,3.458
	c1.314,1.543,0.629,1.915,2.172,3.63l9.545,11.002c0.143,0.172,0.2,0.229,0.343,0.372l7.83,7.173
	c0.058,0.029,0.086,0.086,0.114,0.114c0.058,0.029,0.086,0.086,0.144,0.144l1.515,1.172c1.314,0.886,2.829,1.828,3.943,2.943
	l0.171,0.2c0.029,0.028,0.057,0.085,0.086,0.114l3.943,2.629c1.601,0.8,4.03,2.486,5.43,3.058c2.028,0.801,2.914,1.572,3.886,1.915
	l9.917,4.058c0.657,0.314,1.429,0.372,2.258,0.687c2.829,1.058,6.001,1.686,8.802,2.515c2.258,0.629,12.917,1.543,15.774,1.543
	l13.774-0.343c2.144-0.114,3.144-0.657,4.858-0.914c2.001-0.314,3.258-0.172,5.229-0.857c0.829-0.286,1.286-0.258,2.458-0.429
	c1.429-0.2,3.258-0.857,4.43-1.372l2.344-0.829c1.343-0.886,2.914-1,4.372-1.629c3.4-1.515,6.944-2.743,10.06-4.715
	c0.543-0.343,0.371-0.2,0.972-0.486c0.571-0.285,0.514-0.314,1.086-0.629c3.144-1.686,6.087-3.715,8.916-5.829
	c1.172-0.915,2.314-1.486,3.344-2.486l3.172-2.887c0.229-0.2,0.171-0.114,0.371-0.343c1.314-1.458,3.059-2.63,4.373-4.087
	l2.829-3.001c1.657-1.829,4.973-5.229,6.258-7.03l2.172-3.144c0-0.028,0.058-0.114,0.086-0.143c0.029-0.058,0.058-0.114,0.086-0.144
	l5.658-9.373c0.372-1.115,0.114-0.344,0.572-1.144l2.743-6.201c0.686-0.915,0.457-0.972,0.914-2.001l1.687-4.4
	c0.257-1.115,0.171-1.172,0.686-2.173c0.686-1.285,0.972-3.172,1.344-4.743c0.657-2.716,0.828-0.601,1.086-4.973l1.399-7.517
	c0.972-5.573,1.086-14.403,0.601-20.29c-0.086-1.258-0.457-2.401-0.743-3.545c-0.485-2.143-0.257-3.114-1-5.801l-1.029-3.315
	c-0.657-1.543-0.742-3.486-1.657-4.858c-1.229-1.828-2.258-5.458-3.458-7.658l-4.086-7.06c-0.943-1.257-1.943-2.743-3.115-3.915
	c-0.058-0.029-0.114-0.086-0.143-0.114l-1.172-1.372c-0.029-0.057-0.058-0.114-0.086-0.172l-1.2-1.8
	c-1.4-2.687-2.43-2.601-4.173-4.772c-1.2-1.486-2.515-1.715-3.543-2.973c-0.058-0.057-0.172-0.229-0.229-0.314
	c-1.286-1.828-0.344-0.371-2.087-1.715c-0.714-0.57-0.743-0.428-1.543-0.857c-1.028-0.543-1.686-1.171-2.543-1.828l-4.001-2.516
	c-1.715-1.057-4.087-2.4-6.03-2.943c-1.915-0.514-1.172-0.914-3.058-1.258c-1.314-0.257-1.172-0.57-3.286-1.086
	c-0.715-0.171-1.001-0.342-1.658-0.571l-7.001-1.886c-1.515-0.457-2.001-0.371-3.687-0.658c-5.688-0.942-12.374-1.199-18.232-0.313
	c-1.887,0.257-3.83,0.286-5.602,0.857c-1.915,0.601-4.173,0.515-5.43,1.086l-4.772,1.714c-0.943,0.287-0.743,0.344-1.601,0.601
	c-0.485,0.172-1.314,0.286-1.771,0.458c-2.4,0.8-7.83,3.771-10.202,5.058l-5.573,3.829c-1.343,1.029-2.4,2.201-3.915,2.916
	c-0.629,0.285-1.229,1.028-1.829,1.514l-2.229,2.087c-0.829,0.771,0.143,0.515-1.4,0.8l-0.114,1.572
	c-1.543,0.629-0.457-0.029-1.486,1.4l-4.115,5.059c-0.285,0.4-0.285,0.457-0.6,0.886l-1.772,2.8
	c-0.399,0.658-0.857,0.943-1.429,1.688l-0.343,0.428c-0.543,0.658-0.257,0.686-1.258,0.943c-0.057,1.801-0.485,2.144-1.028,3.458
	l-0.601,0.942c-0.571,0.658-1.485,2.916-2.114,3.887c-0.657,0.973-0.314,1.001-0.4,2.373l-1.172,3.372
	c-1.086,2.343-0.429,1.543-1,3.772c-0.171,0.686-0.6-0.115-0.743,1.314l-1.372,15.718c-0.029,2.172,0.171,7.145,0.571,9.088
	l0.857,3.944c0.2,1.314,0.6,2.543,0.943,4.058l2.83,6.773c0.371,0.886,0.543,0.771,0.914,1.486c0.543,1.086,0,0.657,0.829,1.543
	c0.6,0.629,0.571,0.571,1.086,1.343c0.371,0.543,0.571,0.943,1,1.43l1.686,2.4c0.915,0.886,1.629,2.086,2.63,2.943
	c0.828,0.686,0.514,0.343,1.171,1.286c0.715,1.058,0.429,0.314,1.344,1.058c0.8,0.657,0.771,1.286,1.715,1.886l2.972,2.144
	c0.915,0.829,2.001,1.144,2.915,1.943c0.314,0.257,0.114,0.229,0.629,0.515c0.6,0.343,0.942,0.285,1.686,0.743
	c0.972,0.6,0.458,0.399,1.772,0.6l3.515,1.372c1.429,0.771,2.286,0.571,3.687,1.172c1.286,0.571,2.629,0.485,3.829,1
	c1.943,0.857,6.659,0.657,9.316,0.686c2.029,0,7.431-0.2,9.06-0.657l5.716-1.543c1.515-0.2,2.286-0.8,3.601-1.429l7.83-4.059
	c3.658-2.172,6.373-4.772,9.316-7.888c1.2-1.257,1.915-2.687,3.314-3.915c0.601-0.543,1.515-2.229,1.915-2.972
	c0.4-0.687,0.457-1.087,0.743-1.715c0.028-0.058,0.058-0.114,0.086-0.172c0-0.028,0.057-0.086,0.086-0.143l0.771-1.115
	c0.972-1.571,1.485-3.743,2.343-4.915c0.601-0.8,0.429-0.915,0.743-1.943c0.229-0.715,0.543-1.086,0.715-1.629
	c0.229-0.657,0.171-1.4,0.371-2.058c0.657-2.029,0.601-1.715,0.829-4.029l0.771-9.002l-1-6.288c-0.4-1.771-1.4-3.544-2.172-5.058
	l-2.144-3.002c-2.572-2.771-1.715-2.4-4.858-4.829l-3.029-1.857c-5.173-2.115-6.201-2.572-12.031-2.63
	c-2.629-0.028-4.115,0.372-6.401,1c-1.771,0.486-3.943,1.287-5.315,2.23c-1.372,0.942-2.687,1.285-3.601,2.429
	c-1.972,2.486-2.743,2.114-4.887,6.116c-0.258,0.543-0.086,0.171-0.457,0.686c-0.857,1.229-1.314,2.658-1.943,4.172
	c-0.657,1.629-0.372,2.516-0.829,3.973c-0.229,0.715-0.886,1.943-0.485,3.772c0.143,0.657,0,0.257,0.199,0.571l1.229,0.114
	c0.229-0.314,0.171-0.143,0.343-0.6c0.515-1.114,0.229-2.486,0.657-3.658c0.257-0.629,0.257-0.771,0.4-1.601
	c0.343-1.857,1.143-3.629,1.972-4.973c0.371-0.6,0.171-0.457,0.657-1.029c0.229-0.285,0.114-0.143,0.343-0.399
	c0.2-0.257,0.2-0.286,0.4-0.543l1.543-2.087c1.372-1.857,2.144-2.028,3.687-3.344c1.543-1.314,2.515-1.742,4.315-2.715
	c3.572-1.886,1.4-0.629,5.173-1.771c2.657-0.8,6.516-0.343,9.145,0.486c1.058,0.314,2.029,0.143,2.886,0.686l4.573,2.515
	c1.086,0.515,1.4,1.029,2.286,1.772l2.915,3.344c0.314,0.371,0.371,0.514,0.628,1l2.744,6.201c0.543,2.744,1.057,6.431,0.743,9.688
	c-0.086,0.972-0.486,1.715-0.657,2.886c-0.144,0.972-0.115,2.115-0.286,3.115c-0.486,2.601-1.743,5.659-2.572,8.088l-1.857,3.201
	c-0.343,0.485-0.257,0.771-0.571,1.343c-0.486,0.943-0.229,0.143-0.687,1c-0.199,0.429-0.229,0.715-0.514,1.2l-4.315,6.345
	l-5.458,4.944c-0.515,0.485-1.286,1.143-1.943,1.686c-0.486,0.372-0.543,0.344-1.001,0.715c-0.8,0.686-2.343,1.286-3.286,2.029
	c-1.2,0.914-1.229,0.457-2.372,1.028c-0.457,0.258-0.429,0.372-1.028,0.657l-3.516,1.772c-1.343,0.8-3.943,1.086-5.63,1.4
	c-0.886,0.143-1.857,0.6-2.8,0.743c-3.973,0.6-9.603,0.6-13.66,0.229c-1.458-0.114-1.458-0.314-2.572-0.687
	c-0.972-0.343-2.2-0.257-3.058-0.571c-1.258-0.457-0.144-0.257-1.058-0.6c-0.857-0.314-1.915-0.286-2.743-0.687
	c-1.801-0.8-2.087-0.657-4.059-1.943c-0.429-0.257-0.057-0.057-0.6-0.371c-0.515-0.314-0.743-0.4-1.229-0.686
	c-2.086-1.315-3.943-1.658-5.516-3.772l-0.371-0.543c-0.028-0.029-0.086-0.058-0.114-0.114l-0.286-0.2
	c-0.828-0.687-1.343-0.572-1.429-1.973c-1.543-0.057-1.972-0.543-2.172-1.972c-0.343-0.114-0.657-0.114-1.028-0.285
	c-0.657-0.314-0.344-0.114-0.715-0.657c-0.715-0.943-1.571-1.544-2.172-2.658c-0.601-1.172-1.229-1.172-1.771-2.115l-0.886-1.543
	c-1.658-3.086-1.172-1.114-3.487-6.401l-0.885-2.772c-0.4-0.943-0.458-0.057-0.857-1.8c-0.314-1.286-0.915-2.801-1.057-4.03
	c-0.086-0.743-0.029-1.543-0.2-2.229c-0.314-1.2-0.515-0.486-0.629-2.058c-0.171-2.486-0.657-12.146,0.429-14.232
	c0.886-1.715,0.286-5.458,1.8-8.116c0.915-1.629,0.372-2.771,1.029-4.059c0.457-0.886,0.429-0.371,0.657-1.686
	c0.257-1.515,0.657-1.572,1.486-3.658c0.743-1.915,1.4-4.373,2.771-6.002c0.286-0.342,0.258-0.171,0.515-0.629
	c0.829-1.543,1.028-2.715,2.2-4.143c0.601-0.744,1.058-1.572,1.772-2.145c0.657-0.514,1.6-2.057,2.114-2.886
	c0.743-1.229-0.057-1.372,2.973-4.573c2.771-2.943,7.258-7.173,10.773-9.259l4.315-3.201c0.771-0.485,0.914-0.485,1.629-1.028
	c0.6-0.457,0.914-0.457,1.543-0.857c0.257-0.172,0.601-0.457,0.686-0.515c2.772-1.543,0.515-0.485,4.287-2.001l7.573-2.657
	c1.229-0.515,2.972-0.2,4.029-0.8c2.229-1.258,2.286-0.258,4.058-1c1.2-0.516,2.687-0.629,4.229-0.658
	c6.002-0.086,6.401-1.2,13.832-0.199c1.543,0.199,3.286,0.113,4.772,0.342c1.343,0.201,0.457,0.372,4.315,0.829
	c1.943,0.229,2.257,0.8,3.943,0.943c0.686,0.085,1.457,0.085,1.943,0.314l0.257,0.171c0.058,0.029,0.086,0.086,0.144,0.115
	c0.914,0.656,3.601,1.343,5.001,2.057c3.172,1.572,8.659,3.688,11.146,6.23c1.399,1.4,3.229,1.943,4.772,3.001
	c1.057,0.714,1.457,1.543,2.601,2.229c2.6,1.571,8.401,7.516,9.916,10.116c1.086,1.829,2.657,3.173,3.2,4.286l1.915,3.201
	c0.028,0.029,0.058,0.086,0.086,0.143l3.2,6.488c0.029,0.057,0.144,0.257,0.172,0.314l0.715,1.429
	c0.8,2.114,1.457,3.515,1.914,5.601c0.314,1.486,0.572,1.001,0.801,1.858c0.371,1.314-0.058,3.144,0.485,4.458
	c0.515,1.286,0.771,2.715,0.915,4.172c0.514,4.888,0.914,2.287,0.914,9.203c0,4.001,0.457,10.031-0.4,13.46
	c-0.257,1.001-0.399,0.429-0.571,1.544c-0.429,3.314,0.2,1.714-0.943,6.115c-0.2,0.743-0.171,1.029-0.343,1.829
	c-0.143,0.857-0.457,1.086-0.629,1.771c-0.429,1.658-0.171,2.172-0.886,3.744l-1.114,3.516c-0.371,1.343-0.829,2.086-1.286,3.286
	l-2.629,6.373c-0.286,0.972-0.314,1.372-0.801,2l-3.058,5.487c-0.171,0.286-0.229,0.4-0.429,0.771c-0.257,0.458-0.2,0.4-0.457,0.771
	c-0.028,0.029-0.057,0.086-0.086,0.114c-1.371,1.915-2.972,3.887-4.029,5.944l-0.914,1.4c-0.029,0.058-0.086,0.086-0.114,0.144
	l-7.888,8.773c-0.915,0.6-1.258,0.6-2.001,1.429l-5.144,5.229l-6.573,4.802c-1.828,0.829-1.914,1.543-3.343,2.258
	c-0.772,0.371-0.2,0.028-0.743,0.429l-7.173,4.458c-2.401,1.743-3.201,1.771-5.315,2.601l-5.916,2.058
	c-0.857,0.4-0.829,0.286-1.801,0.457c-1.771,0.314-1.086,0.857-3.429,1.086c-2.001,0.229-0.657,0.086-1.601,0.657
	c-0.629,0.372-1.114,0.2-2,0.344c-0.687,0.114-1.086,0.371-1.658,0.514c-0.571,0.172-1.571,0.229-2.114,0.286
	c-1.543,0.229-2.744,0.2-4.115,0.571c-1.715,0.486-1.943,0.457-4.001,0.543c-2.458,0.114-6.315,0.572-8.716,0.486
	c-2.744-0.086-5.545-0.429-8.459-0.457c-3.315-0.029-5.373-0.829-8.23-1.001c-2.315-0.114-8.545-2-10.975-2.743
	c-2.486-0.8-3.229-1.486-4.629-2.086c-0.629-0.258-1.029-0.2-1.772-0.4c-0.857-0.2-0.742-0.371-1.515-0.657l-3.457-1.2
	c-0.772-0.343-1.058-0.457-1.715-0.743c-1.887-0.801-11.46-6.516-12.86-7.659c-1.886-1.572-3.172-2.258-5.03-4.144
	c-0.601-0.629-0.715-0.572-1.343-1.086l-2.43-2.172c-0.743-0.687-0.343-0.601-0.943-1.229c-0.771-0.8-1.714-1.371-2.371-2.258
	c-0.172-0.229-0.286-0.371-0.543-0.6c-2.372-2.029-2.344-2.544-3.858-4.173c-0.286-0.314-0.371-0.285-0.629-0.571
	c-0.857-1.086-1.485-2.258-2.486-3.315c-1.515-1.543-2.486-3.458-3.887-5.059c-0.714-0.828-1.371-1.714-1.8-2.8
	c-0.372-0.887-0.086-0.801-0.571-1.658l-1.058-2.343c-0.258-0.629-0.086-0.372-0.372-0.829c-0.171-0.258-0.343-0.372-0.543-0.601
	l-0.543-0.714c-1.429-1.943-1.743-3.887-2.601-5.373c-0.343-0.601-0.085-0.058-0.399-0.857c-0.286-0.715-0.372-0.829-0.687-1.457
	c-0.314-0.658-0.371-1.058-0.628-1.829c-0.258-0.743-0.486-0.887-0.601-1.144c-0.257-0.485-0.257-1.058-0.429-1.657l-0.943-3.687
	c-0.771-1.572-0.657-1.687-1.143-3.43c-2.029-7.03-2.658-12.746-2.772-20.233c-0.057-3.173-0.343-12.403,0.343-15.433l0.314-1.857
	c0.543-1.973,0.429-4.315,0.572-6.459c0.114-1.686,0.171-0.801,0.628-1.743c0.515-1,0.114-2.372,0.829-3.801
	c0.543-1.114,0.229-2.515,0.743-3.829c0.657-1.602,0.4-2.115,0.829-3.773l1.714-5.059c0.314-0.686,0.172-1.199,0.486-1.942
	c0.314-0.715,0.429-0.314,0.657-1.458c0.229-1.143-0.028-1.028,0.485-2.029c0.771-1.428,1.086-3.515,1.943-4.829
	c0.515-0.772,0.972-2.401,1.314-3.286l5.087-10.889c0.657-1.144,1.115-1.744,1.829-2.772c0.915-1.343,1.486-2.858,2.572-4.201
	c0.6-0.714,0.485-0.457,1.028-1.429c1.058-1.943,2.829-3.344,4.087-5.059c0.657-0.914,1.372-1.629,1.972-2.629
	c1.4-2.286,4.572-4.973,6.602-6.945l5.801-5.572c1.086-0.972,3.115-2.058,5.258-3.943c1.229-1.058,2.687-1.915,3.772-2.973
	l3.029-1.629c1.4-0.371,0.743-0.028,1.629-0.743l2.429-1.943c0.601-0.399,1.029-0.399,1.629-0.8l12.432-5.916
	c0.828-0.286,0.543-0.343,1.543-0.657c1.4-0.4,1.943-0.886,3.372-1.229l7.83-2.543l21.205-3.258
	c3.144-0.429,11.031-0.143,14.403-0.057c1.629,0.057,1.714,0.429,3.372,0.514c2.058,0.086,11.717,1.315,13.146,1.829
	c1.629,0.572,3.4,0.6,6.287,1.486c0.914,0.257,1.886,0.8,2.629,0.943c0.601,0.086,1.286,0.057,1.829,0.171
	c0.8,0.2,0.486,0.314,1.229,0.658c1.144,0.486,2.63,0.428,3.858,1l2.086,0.8c1.829,0.743,4.43,1.229,5.658,1.857
	c0.943,0.486-0.171,0.257,1.258,0.686l4.115,1.686c0.543,0.257,0.857,0.257,1.258,0.457c0.657,0.286-0.144,0.229,1.229,0.715
	l2.715,1.086c0.943,0.629,2.543,1.857,3.544,2.258l10.888,6.315c1.572,0.972,2.887,2.087,4.572,2.915
	c1.601,0.771,3.029,2.43,4.315,3.43c2.172,1.686,4.572,3.314,6.573,5.258l0.8,0.658c0.485,0.428,0.457,0.6,0.914,1.028
	c0.715,0.629,1.172,0.857,1.973,1.657c0.714,0.658,1.343,1.258,1.972,1.887c0.686,0.657,1.486,1.114,1.972,1.887
	c0.829,1.4,1,1.086,1.801,2.086c0.485,0.629,0.143,0.343,0.771,0.914c2.058,1.887,2.314,3.144,3.657,4.115
	c1.029,0.743,2.172,1.943,2.744,3.029c1.485,2.83,3.801,5.03,5.544,7.803c1.257,1.971,2.572,3.686,3.601,5.83
	c0.8,1.656,1.972,3.258,2.887,4.829c0.399,0.657,0.2,0.485,0.514,1.172l0.658,1.314c0.485,1.2,0.714,1.144,1.229,2.601
	c0.285,0.743,0.343,0.429,0.657,1.286c0.2,0.457,0.229,0.915,0.485,1.485c0.258,0.572,0.114,0.201,0.344,0.601l1.515,3.058
	c0.285,0.658,0.371,0.4,0.628,1.258l0.943,2.973c0.371,1.172,0.371,2.086,0.686,3.2c0.314,1.029,0.372,0.458,0.629,1.315
	c0.143,0.514,0.086,1.086,0.229,1.715c0.258,1.143,0.657,1.543,0.801,2.771c0.199,1.457,0.457,2.144,0.714,3.229
	c0.743,3.429,0.2,3.544,1.058,6.63c0.6,2.201,0.143,6.573,0.515,8.974c0.143,0.915,0.257,0.458,0.371,1.515
	C421.303,143.62,421.188,145.191,421.188,146.363L421.188,146.363z M130.011,8.529c0.972,0.229,1.572,0.257,2.43,0.6
	c1.686,0.657,4.144,2.486,5.201,4.115c1.629,2.515,3.372,6.802,2.257,9.631c-1.314,3.401-0.399,3.715-4.657,7.63
	c-1.744,1.601-6.573,3.086-9.803,2.429c-2.429-0.514-6.487-2.829-7.401-4.858c-0.857-1.857-1.2,0.314-2.029-4.315
	c-0.429-2.515-0.943-2.344-0.2-5.202c0.258-0.915,0.172-1.686,0.4-2.543c0.114-0.4,0.8-1.372,1.172-1.943
	C120.237,9.844,125.038,7.3,130.011,8.529L130.011,8.529z M49.879,2.528c1.286,0.286,1.314,0.114,2.372,0.571
	c0.801,0.314,1.314,0.6,2.058,1.086c1.572,0.972,3.572,3.029,4.229,4.716l0.972,2.2c0.2,0.886,0.143,5.059,0.028,6.059
	c-0.314,3.544-4.801,8.774-8.773,9.317c-2.571,0.372-2.457,0.4-5.315,0.2c-2.771-0.2-3.629-1.772-5.658-3.115
	c-0.314-0.229-0.143-0.029-0.457-0.286c-0.8-0.686-0.2-0.571-1.028-1.4c-1.744-1.715-1.43-2.201-2.172-3.858
	c-0.887-1.943-0.629-5.658,0.257-7.973c0.457-1.115,1.686-2.658,2.486-3.572C41.62,3.385,45.593,1.613,49.879,2.528L49.879,2.528z
	 M127.524,35.822c2.172-0.257,4.973-0.886,6.716-1.772l2.344-1.257c0.057-0.029,0.114-0.057,0.143-0.115
	c0.058-0.028,0.114-0.057,0.144-0.085l3.715-4.715c1.771-2.772,0.285-0.8,1.028-3.115c0.314-0.915,0.429-0.571,0.657-1.972
	c0.372-2.344,0.144-5.23-0.771-7.316c-2.314-5.401-2.972-5.801-8.259-8.659c-2.657-1.4-10.23-0.943-12.745,1.172
	c-1.801,1.543-3.744,2.429-5.059,4.629c-1.058,1.829-1.086,1.744-1.657,3.887c-0.772,2.83-0.801,7.03,0.514,9.917
	c0.515,1.114,1.887,2.486,1.314,3.801l-0.514,1c-0.172,0.571-0.058,0.514-0.343,1.114l-1.744,3.801
	c-0.714,2.172-2.057,4.516-2.943,6.717c-0.886,2.229-2.229,4.372-3.058,6.629c-0.485,1.229-1.286,2.344-1.915,3.602
	c-0.399,0.801-0.8,1.229-1.028,1.887c-0.657,1.886-1.629,3.771-2.743,5.486l-3.372,5.115c-3.115,3.658-4.173,5.287-8.659,8.002
	c-1.915,1.172-4.544,1.314-6.83,1.258c-2.772-0.086-2.772-0.143-4.572-1.057l-6.888-4.259c-0.6-0.601-0.886-0.743-1.4-1.486
	l-1.286-1.399c-0.743-0.687-0.114-0.029-0.629-0.801c-0.285-0.4,0.058,0.028-0.313-0.429c-1.344-1.772-2.201-3.716-3.344-5.602
	c-0.943-1.571-1-2.4-1.601-3.972c-0.343-0.943-0.629-1.029-0.886-1.943l-1.458-4.145c-0.229-0.771-0.229-1.486-0.457-2.258
	c-0.314-1.086-0.571-0.828-0.857-1.972l-1.485-6.773c-0.2-0.857-0.458-1.144-0.687-2.172l-1.086-4.43
	c-0.8-2.915-2.058-4.172,0.743-6.087c0.343-0.229,0.229-0.114,0.457-0.286l2.201-1.915c2.429-3.115,2.257-4.458,3.2-7.716
	c0.286-0.914,0.429-1.429,0.343-2.601c-0.086-1.314-0.343-1.114-0.571-2.086c-0.486-1.943-0.257-2.144-1.457-4.173l-2.001-2.629
	c-2.114-2.201-4.572-3.801-7.744-4.401c-3.315-0.657-9.088,0-10.945,2.315c-0.058,0.057-0.258,0.372-0.286,0.429
	c-1.058,1.286-1.543,0.629-2.972,2.572l-2.029,3.601c-1.4,3.43-1.629,8.545,0.086,11.917c0.2,0.429,0.771,1.057,1.2,1.686l1.2,1.429
	c1.629,1.886,2.572,2.572,4.687,3.572c0.571,0.286,1.029,0.686,1.629,1.029c0.114,4.544,0.028,8.859,0.229,13.289
	c0.058,1.943,0.286,4.487,0.657,6.116c0.429,1.886,0.2,4.201,0.429,6.059c0.172,1.2,0.058,2.172,0.144,3.314
	c0.057,1.115,0.371,1.516,0.485,2.887c0.486,5.916,1.286,11.717,0.943,17.69c-0.2,3.2-1.772,0.171-1.801,0.143
	c-0.429-0.515-1.114-1.028-1.771-1.429c-1.058-0.657-2.829-1.771-3.973-2.029c-2.457-0.6-5.915-0.343-8.002,1l-1.743,1.144
	c-1.286,0.687-2.372,2.087-3.172,3.144c-3.515,4.688-4.915,11.86-3.801,17.747c0.601,3.201,0.286,3.144-1.771,4.772
	c-0.029,0.029-0.086,0.086-0.144,0.115l-2.058,2.258c-1.343,1.714-3.029,3.114-4.4,4.801c-0.857,1.028-1.086,1.143-2.029,2.086
	c-0.743,0.715-0.943,1.601-1.571,2.286l-1.086,1.114c-0.344,0.486-0.429,0.687-0.772,1.172c-0.571,0.771-0.429,0.344-0.828,1.372
	c-0.543,1.343-1.629,2.486-2.258,3.772c-1.229,2.486-3.029,5.858-3.744,8.545c-0.714,2.687-1.114,3.43-1.114,7.002
	c0,2.371-0.4,7.716,0.429,9.859c0.515,1.343,0.372,0.886,0.686,2.687c0.344,1.943,1.486,3.458,1.887,4.801
	c0.171,0.629,0.114,0.829,0.371,1.372c0.286,0.629,0.229,0.257,0.572,1.114l2.172,4.401c1.371,2.687,1.543,2.286,2.686,4.115
	c0.687,1.086,1.372,1.429,2.258,2.543c0.801,1.001,1.772,1.601,2.658,2.458c1.686,1.629,3.801,2.829,5.601,4.315
	c1.2,0.972,0.972,0.601,2.315,1.286c3.829,1.943,3.372,1.144,4.858,1.743c1.485,0.601,3.114,1.572,4.857,1.829
	c0.972,0.172,1.972,0.229,2.887,0.543c2,0.657,13.346,0.972,15.718,0.8c1.886-0.143,4.515-0.199,6.373-0.428l5.915-0.572
	c0.172,2.601,0.429,3.229,1.229,5.059c0.399,0.914,0.657,1.2,1.086,2.029c0.343,0.657-0.344-0.543,0.171,0.343l1.086,1.601
	c0.314,0.485,1.029,1.229,1.486,1.657l0.657,0.571c0.914,0.743,1.686,1.801,2.743,2.344c2.887,1.572,1.601,1.286,4.029,2.258
	c1.572,0.629,0.2,0.371,3.458,1.372c0.543,0.171,0.4,0.171,1.058,0.399c5.858,1.943,6.744,0.915,11.002,1.572l6.402,0.429
	l7.287,10.803c1.6,1.886,3.771,3.629,5.658,5.229c0.686,0.543,1.457,0.915,2.114,1.515c0.715,0.601,1.2,1.144,1.915,1.715
	l6.087,4.83c0.457,0.314,0.629,0.543,1.029,0.857l2.972,2.429c0.943,0.629,0.743,1,1.687,1.657c2.114,1.486,3.857,3.344,5.801,5.059
	c0.429,0.343,0.686,0.571,1.058,0.886c0.371,0.344,0.543,0.429,0.914,0.771c1.4,1.286,2.516,2.401,3.772,3.487
	c0.743,0.657,1.258,1.086,1.801,1.8l1.715,1.943c0.028,0.029,0.057,0.086,0.114,0.114c0.028,0.058,0.057,0.114,0.085,0.144
	l8.288,12.831c0.857,1.915,1.886,2.43,2.343,4.602c0.543,2.687,1.4,6.545,0.515,9.46c-0.371,1.143-0.4,1.629-0.714,2.943
	l-2.315,4.887c-0.429,0.686-1.2,1.286-1.686,1.943c-2.715,3.601-2.372,2.601-3.43,3.829c-0.543,0.657-0.2,0.572-0.743,1.2
	l-4.544,4.373c-1.114,0.857-1.715,2-2.629,2.972l-4.258,4.43c-1.943,1.629-3.372,3.973-5.201,5.688l-3.458,3.829
	c-0.343,0.4-0.601,0.572-0.972,0.915l-3.344,3.687c-0.314,0.343-0.6,0.571-0.914,0.8c-1.314,0.943-0.629,1.029-1.658,1.973
	c-0.628,0.571-1.571,0.942-1.114,2.429c0.457,1.515,4.344,1,6.259,1l156.319,0.515c1.887-0.286,4.115,0.314,6.03,0.4
	c4.715,0.229,14.746,0.057,19.833,0.057h74.53c1.4-0.028,5.944,0.715,6.116-1.429c0.085-1.314-3.544-4.144-3.716-4.344
	c-0.828-0.886-1.457-1.943-2.429-2.629l-4.63-2.887c-0.028-0.028-0.086-0.086-0.143-0.114c-0.857-0.715-2.4-1.172-3.401-1.915
	c-0.771-0.515-0.6-0.515-1.714-0.943c-0.629-0.229-1.001-0.457-1.658-0.742l-0.686-0.286c-2.286-1.172-1.601-0.515-3.029-1.114
	c-0.857-0.372-0.743-0.486-1.915-0.743c-1.171-0.286-0.886-0.314-1.686-0.715l-13.46-4.944c-2.229-1-1.486-0.171-5.373-2.372
	c-0.6-0.343-1.371-0.6-1.829-0.886c-1.229-0.771-5.286-4.058-5.744-5.287l-0.085-1.2c1.4-0.828,3.943-1.172,5.601-1.657
	c0.801-0.258,0.572-0.343,1.286-0.629c0.457-0.172,0.8-0.2,1.4-0.343c1.457-0.314,1.229-0.657,2.372-1
	c0.857-0.229,0.743-0.029,1.515-0.4c0.457-0.229,0.6-0.372,1.143-0.543l3.801-1.543c0.857-0.429,1.515-0.486,2.287-1.086
	c2.485-1.943,3.571-1.687,6.087-2.915l1.371-0.572c1.286-0.657,1.857-1.485,3.087-2c0.771-0.314,0.485-0.286,1.172-0.715l3.314-1.8
	c0.114-0.058,0.2-0.114,0.314-0.172l0.343-0.172c0.601-0.343,0.972-1,2.43-1.886l2.571-2.001c0.058-0.057,0.314-0.313,0.372-0.371
	c0.171-0.143,0.314-0.286,0.543-0.429l3.4-2.857c1.058-1.315,2.344-2.372,3.486-3.544c0.886-0.886,0.886-0.715,1.972-1.429
	c1.058-0.687,1.687-1.887,2.63-2.687l11.288-13.347c0.828-1.485,1.972-2.629,2.857-4.172l1.915-3.43
	c0.485-0.829,1.086-1.543,1.372-2.258l0.686-1.229c1.114-1.286,1.686-2.915,2.4-4.401l1.258-2.372
	c0.914-1.114,1.343-3.286,2.257-4.744c0.743-1.172,1.172-2.486,1.687-3.801c0.028-0.057,0.057-0.143,0.086-0.2
	c0.028-0.057,0.114-0.257,0.143-0.343c0.143-0.343,0.058-0.086,0.257-0.686c0.543-1.772,1.001-1.715,1.258-3.858
	c0.172-1.743,0.601-0.972,0.972-2.658c0.371-1.714,0.829-1.057,1.086-2.257c0.286-1.458,0.086-1.63,0.686-3.001
	c0.372-0.857,0.144-0.258,0.372-1.286l3.372-12.632c0.371-2.086,0.629-3.943,1.143-5.887c0.486-1.887,0.344-4.315,0.857-6.173
	c0.829-2.944,1.086-9.089,1.572-12.432l0.399-13.689c0-5.287,0.258-16.404-1.057-19.776c-0.687-1.743-0.144-3.458-1.258-6.459
	c-0.4-1.114-0.2-2.086-0.657-3.229c-0.286-0.742-0.257-0.543-0.485-1.457l-0.458-1.229c-0.485-0.857-0.343,0.028-0.429-1.458
	c-0.057-0.972,0.029-0.972-0.257-1.743l-0.914-2.943c-0.429-1.258-0.743-1.086-1.058-2.858c-0.2-1.229-0.657-1.457-1.172-2.657
	l-3.086-6.573c-1.43-2.972-3.087-5.688-4.772-8.545l-2.83-4.915c-0.942-1.373-2.515-3.859-3.657-5.059
	c-0.029-0.029-0.086-0.086-0.114-0.115c-0.058-0.028-0.086-0.086-0.144-0.113l-0.914-1.544c-0.8-1.829-2.314-2.486-3.544-3.915
	c-1.229-1.4-2.172-2.973-3.543-4.201l-4.516-4.943c-0.229-0.287-0.657-0.687-0.972-0.943c-1.429-1.229-2.344-2.486-3.829-3.658
	c-0.429-0.314-0.657-0.457-1.086-0.887l-5.63-5.029c-1.429-1.572-9.031-6.916-11.688-8.345l-7.259-4.372
	c-0.571-0.229-0.457-0.201-1.144-0.572c-1.257-0.686-2.571-1.172-3.743-2.029l-11.889-5.344c-0.514-0.171-1.028-0.229-1.515-0.4
	l-4.115-1.657c-0.628-0.171-1-0.143-1.629-0.343c-0.857-0.286-0.485-0.343-1.314-0.629l-11.945-3.258
	c-1.857-0.172-1.314-0.629-3.115-0.772c-5.772-0.486-3.887-0.972-6.258-1.2l-18.69-1.229l-7.516,0.229
	c-1.543,0-2.2,0.257-3.43,0.372l-6.944,0.771c-3.887,0.2-3.972,0.486-7.259,0.743c-1.371,0.085-2.114,0.429-3.286,0.686
	c-1,0.257-2.4,0.314-3.344,0.515c-1.286,0.257-2.058,0.628-3.086,0.8l-6.487,1.229c-1.314,0.2-1.715,0.772-2.915,0.915l-12.66,3.172
	c-1.457,0.486-0.972,0.6-3.086,0.829c-1.172,0.143-1.657,0.743-2.801,1.029l-13.717,5.859c-1.801,0.886-1.829,0.371-5.173,2.571
	c-1.172,0.771-4.144,2.258-5.373,2.516c-1.371,0.285-1.743,1.086-2.972,1.771l-3.344,2.43c-0.8,0.6-1.914,1.028-2.543,1.771
	c-0.029,0.057-0.058,0.114-0.114,0.143l-4.373,3.858c-1.314,1.086-2.372,1.601-4.344,3.401c-1.286,1.172-2.457,1.943-3.486,3.314
	l-3.572,3.43c-0.657,0.743-0.972,1.572-1.743,2.086c-0.857,0.572-5.486,5.716-6.201,6.859c-0.028,0.057-0.058,0.114-0.086,0.172
	l-10.23,17.375c-0.314,0.771-1.144,1.771-1.429,2.4c-0.372,0.686-0.515,1.943-0.943,2.943l-1.286,2.602
	c-0.143,0.485-0.172,1.028-0.343,1.571c-0.286,0.829-0.343,0.571-0.629,1.314l-1.4,4.63c-0.285,1.086-0.2,0.543-0.543,1.4
	c-0.828,1.914-0.943,4.287-1.457,6.259c-0.2,0.771-0.372,0.543-0.572,1.343c-0.313,1.115-0.171,2.372-0.429,3.459
	c-0.229,0.942-0.313,0.57-0.6,1.342c-0.629,1.801,0.2,4.373-0.515,6.26c-0.229,0.629-0.114,0.4-0.429,0.771
	c-1.028-1.43-0.2,0.943-1.629-3.001l-1.343-3.001c-0.4-0.972-0.343-0.828-0.8-1.6c-1.144-2.001-1.744-3.83-3.259-5.688
	c-1.028-1.258-1.629-2.543-2.601-3.916c-1.543-2.172-3.314-4.058-5.029-6.144l-2.229-2.115c-2.658-2.515-5.802-4.658-8.459-7.259
	c-1.344-1.286-3.315-2.115-4.459-3.486c-0.057-0.057-0.085-0.086-0.143-0.143c-0.886-0.973-1.715-1.287-2.572-2.258l-1.657-1.973
	c-1.972-2.114-1.829-5.029-1.314-7.716c0.143-0.829,0.114-1.001,0.4-1.715c0.457-1.114,0.657-2.571,1.171-3.458
	c0.515-0.886,0.258-0.486,0.429-1.715c0.144-0.886,0.2-0.943,0.543-1.629l1.115-3.229c0.285-0.601,0.314-1.001,0.457-1.715
	c0.257-1.458,0.829-1.887,0.943-3.401c0.199-2.087,0.742-1.972,1.028-3.572l0.914-3.487c0.172-0.714,0.2-1.342,0.429-1.971
	c0.687-2.029,0.572-3.344,1.4-5.145c0.572-1.286,0.144-2.601,0.601-4.059c0.314-0.971,0.286-0.343,0.571-1.543
	c0.086-0.457,0.2-1.258,0.286-1.887C126.811,40.823,127.182,38.565,127.524,35.822L127.524,35.822z"/>
<path fill-rule="evenodd" clip-rule="evenodd" fill="#DC1D44" d="M130.011,8.529c0.972,0.229,1.572,0.257,2.43,0.6
	c1.686,0.657,4.144,2.486,5.201,4.115c1.629,2.515,3.372,6.802,2.257,9.631c-1.314,3.401-0.399,3.715-4.657,7.63
	c-1.744,1.601-6.573,3.086-9.803,2.429c-2.429-0.514-6.487-2.829-7.401-4.858c-0.857-1.857-1.2,0.314-2.029-4.315
	c-0.429-2.515-0.943-2.344-0.2-5.202c0.258-0.915,0.172-1.686,0.4-2.543c0.114-0.4,0.8-1.372,1.172-1.943
	C120.237,9.844,125.038,7.3,130.011,8.529L130.011,8.529z"/>
<path fill-rule="evenodd" clip-rule="evenodd" fill="#DC1D44" d="M49.879,2.528c1.286,0.286,1.314,0.114,2.372,0.571
	c0.801,0.314,1.314,0.6,2.058,1.086c1.572,0.972,3.572,3.029,4.229,4.716l0.972,2.2c0.2,0.886,0.143,5.059,0.028,6.059
	c-0.314,3.544-4.801,8.774-8.773,9.317c-2.571,0.372-2.457,0.4-5.315,0.2c-2.771-0.2-3.629-1.772-5.658-3.115
	c-0.314-0.229-0.143-0.029-0.457-0.286c-0.8-0.686-0.2-0.571-1.028-1.4c-1.744-1.715-1.43-2.201-2.172-3.858
	c-0.887-1.943-0.629-5.658,0.257-7.973c0.457-1.115,1.686-2.658,2.486-3.572C41.62,3.385,45.593,1.613,49.879,2.528L49.879,2.528z"
	/>
<path fill-rule="evenodd" clip-rule="evenodd" fill="#3A3A39" d="M74.142,106.925c-0.086,0.486-0.371,1.143-0.429,1.743
	c-0.057,0.601,0.028,1.315-0.086,1.886c-0.257,1.4-0.229,0.344-0.8,1.43c-0.371,0.715-0.028,0.571-0.601,1.371
	c-0.343,0.486-0.742,0.687-1.143,1.059l-1.743,1.199c-0.915,0.457-1.687,0.515-2.858,0.372c-2.686-0.343-5.258-4.345-5.572-6.858
	c-0.143-1.172-0.058-2.916-0.058-4.145c-0.028-2.973,0.372-2.058,0.772-3.372c0.628-2.172,0.143-0.8,1.285-2.858
	c0.344-0.6,0.029-0.143,0.515-0.714c0.829-0.886,1.857-1.886,3.058-2.001c0.344-0.028,1.687-0.057,1.973-0.028
	c1.8,0.2,0.429,0.028,1.343,0.829c0.371,0.343-0.114-0.029,0.571,0.371c1.086,0.657,1.801,1.715,2.372,2.772
	c0.857,1.629,0.629,0.914,1.029,3.172C73.97,104.238,74.398,105.496,74.142,106.925L74.142,106.925z M72.056,117.813
	c0.086-0.486,0-0.172,0.2-0.543c0.543-0.973,1.886-1.229,2.601-2.973c2.314-5.602,3.029-9.574,0.571-15.318
	c-0.457-1.057-0.571-1.172-1.286-1.857c-2.114-2.057-2.4-3.344-6.201-3.43c-3.001-0.057-4.944,0.915-6.602,3.029
	c-0.601,0.772-0.886,1.629-1.372,1.858c-1.2-1.286,0.372-4.372,0.543-4.915c1.029-3.259,0.114-1.144,2.172-4.631
	c0.172-0.257,0.372-0.6,0.572-0.828c0.028-0.057,0.085-0.086,0.114-0.143l0.257-0.229c1.486-1.658,2.458-2.602,4.516-3.201
	c2.801-0.829,4.086-1.144,6.83,0.314c2.372,1.229,1.457,0.8,3.086,2.457l2.286,3.001c1.314,1.601,2.201,4.716,2.372,6.831
	c0.343,4.658,0.972,3.515-0.2,9.859c-0.257,1.457-1.343,3.801-2,5.229l-0.571,0.886c-0.029,0.029-0.086,0.057-0.114,0.057
	L79.6,113.47c-0.742,0.686-2.571,2.943-4.572,3.686C73.913,117.556,73.627,117.87,72.056,117.813L72.056,117.813z M56.681,102.095
	c-0.028,3.688,0.229,1.857,0.601,3.658c0.285,1.372,0.114,2.372,0.628,3.516c0.258,0.571,0.4,0.715,0.629,1.543l1.771,3.516
	c1.315,1.971,2.744,3.486,4.802,4.629l2.972,1.144c1.144,0.372,2.715,0.257,3.973,0.2c2.771-0.086,4.315-0.601,6.287-2.258
	l1.543-1.372c1.572-1.743,1.172-1.4,2.344-3.229c0.485-0.8,1.2-2,1.485-2.914c0.943-2.801,2.172-7.574,1.857-10.346
	c-0.143-1.287-0.371-2.229-0.514-3.887c-0.229-2.943-2.029-6.688-3.687-8.831c-2.172-2.801-4.029-4.286-7.202-5.401
	c-0.942-0.343-4.43-0.343-5.258-0.172c-1,0.229-0.086,0.172-2.344,0.829c-0.714,0.229-4.315,2.743-4.973,3.572
	c-1.485,1.858-2.086,3.372-3,5.516c-0.629,1.515-1.687,5.202-1.715,6.401C56.853,99.638,56.681,100.495,56.681,102.095
	L56.681,102.095z"/>
<path fill-rule="evenodd" clip-rule="evenodd" fill="#FFFFFF" d="M72.056,117.813c0.086-0.486,0-0.172,0.2-0.543
	c0.543-0.973,1.886-1.229,2.601-2.973c2.314-5.602,3.029-9.574,0.571-15.318c-0.457-1.057-0.571-1.172-1.286-1.857
	c-2.114-2.057-2.4-3.344-6.201-3.43c-3.001-0.057-4.944,0.915-6.602,3.029c-0.601,0.772-0.886,1.629-1.372,1.858
	c-1.2-1.286,0.372-4.372,0.543-4.915c1.029-3.259,0.114-1.144,2.172-4.631c0.172-0.257,0.372-0.6,0.572-0.828
	c0.028-0.057,0.085-0.086,0.114-0.143l0.257-0.229c1.486-1.658,2.458-2.602,4.516-3.201c2.801-0.829,4.086-1.144,6.83,0.314
	c2.372,1.229,1.457,0.8,3.086,2.457l2.286,3.001c1.314,1.601,2.201,4.716,2.372,6.831c0.343,4.658,0.972,3.515-0.2,9.859
	c-0.257,1.457-1.343,3.801-2,5.229l-0.571,0.886c-0.029,0.029-0.086,0.057-0.114,0.057L79.6,113.47
	c-0.742,0.686-2.571,2.943-4.572,3.686C73.913,117.556,73.627,117.87,72.056,117.813L72.056,117.813z"/>
<path fill-rule="evenodd" clip-rule="evenodd" fill="#FFFFFF" d="M38.648,109.868c0.143-1,0.171-0.857,0.686-1.572
	c1.657-2.314,2.344-3.943,2.429-7.172c0.258-7.717-0.313-5.202-0.942-7.773c-0.687-2.688-1.829-3.63-3.887-5.002
	c-1.743-1.172-1.515-1.572-4.315-1.743c-2.887-0.2-3.086,0.229-4.801,1.257l-1.972,1.658c-0.429,0.371-0.086,0.057-0.344,0.343
	c-0.085,0.086-0.257,0.372-0.313,0.429c-0.4,0.429,0.028,0.229-0.601,0.486c0-2.144,1.258-5.973,2.344-7.488l2.058-2.743
	c0.6-0.629,0.742-0.429,1.429-1c0.057-0.028,0.2-0.2,0.229-0.229c0.686-0.543,0.714-0.342,1.343-0.656
	c0.743-0.4-0.285-0.029,0.743-0.486c0.058-0.028,0.114-0.057,0.2-0.057c0.058-0.029,0.114-0.058,0.2-0.086
	c0.285-0.086,0.371-0.058,0.6-0.115c1.086-0.313,0.458-0.543,1.572-0.771c1.4-0.285,1.601,0.344,3.857,0.943
	c0.972,0.258,2.144,1.344,2.858,2.029c0.485,0.457,0.714,0.857,1.086,1.314c0.4,0.457,0.943,0.829,1.143,1.201l2.772,6.943
	c0.857,2.516,0.229,10.317-1.114,12.746l-0.771,1.772C44.621,105.382,41.105,109.84,38.648,109.868L38.648,109.868z"/>
<path fill-rule="evenodd" clip-rule="evenodd" fill="#020202" d="M33.361,89.721c0.601,0.2,1.172,0.114,1.571,0.399l3.087,3.401
	c0.4,0.629,0.686,2.429,1.086,3.286c0.515,1.229,0.429,2.258,0.371,3.83c-0.057,1.143-0.914,4.172-1.8,5.258
	c-0.286,0.314-0.286,0.372-0.543,0.715c-1.915,2.372-3.058,3.287-5.716,2.973c-1.114-0.115-2.2-0.629-2.715-1.4
	c-1.886-2.687-1.028-1.286-2.429-4.115c-1.115-2.229-1.058-2.287-0.915-5.631c0.086-2.2,1.144-5.4,2.572-6.858
	C29.961,89.521,31.933,89.292,33.361,89.721L33.361,89.721z"/>
<path fill-rule="evenodd" clip-rule="evenodd" fill="#020202" d="M74.142,106.925c-0.086,0.486-0.371,1.143-0.429,1.743
	c-0.057,0.601,0.028,1.315-0.086,1.886c-0.257,1.4-0.229,0.344-0.8,1.43c-0.371,0.715-0.028,0.571-0.601,1.371
	c-0.343,0.486-0.742,0.687-1.143,1.059l-1.743,1.199c-0.915,0.457-1.687,0.515-2.858,0.372c-2.686-0.343-5.258-4.345-5.572-6.858
	c-0.143-1.172-0.058-2.916-0.058-4.145c-0.028-2.973,0.372-2.058,0.772-3.372c0.628-2.172,0.143-0.8,1.285-2.858
	c0.344-0.6,0.029-0.143,0.515-0.714c0.829-0.886,1.857-1.886,3.058-2.001c0.344-0.028,1.687-0.057,1.973-0.028
	c1.8,0.2,0.429,0.028,1.343,0.829c0.371,0.343-0.114-0.029,0.571,0.371c1.086,0.657,1.801,1.715,2.372,2.772
	c0.857,1.629,0.629,0.914,1.029,3.172C73.97,104.238,74.398,105.496,74.142,106.925L74.142,106.925z"/>
<path fill-rule="evenodd" clip-rule="evenodd" fill="#9B9C9C" d="M38.648,109.868c0.143-1,0.171-0.857,0.686-1.572
	c1.657-2.314,2.344-3.943,2.429-7.172c0.258-7.717-0.313-5.202-0.942-7.773c-0.687-2.688-1.829-3.63-3.887-5.002
	c-1.743-1.172-1.515-1.572-4.315-1.743c-2.887-0.2-3.086,0.229-4.801,1.257l-1.972,1.658c-0.429,0.371-0.086,0.057-0.344,0.343
	c-0.085,0.086-0.257,0.372-0.313,0.429c-0.4,0.429,0.028,0.229-0.601,0.486c0-2.144,1.258-5.973,2.344-7.488l2.058-2.743
	c0.6-0.629,0.742-0.429,1.429-1c0.057-0.028,0.2-0.2,0.229-0.229c0.686-0.543,0.714-0.342,1.343-0.656
	c0.743-0.4-0.285-0.029,0.743-0.486c0.058-0.028,0.114-0.057,0.2-0.057c0.058-0.029,0.114-0.058,0.2-0.086
	c0.285-0.086,0.371-0.058,0.6-0.115c1.086-0.313,0.458-0.543,1.572-0.771c1.4-0.285,1.601,0.344,3.857,0.943
	c0.972,0.258,2.144,1.344,2.858,2.029c0.485,0.457,0.714,0.857,1.086,1.314c0.4,0.457,0.943,0.829,1.143,1.201l2.772,6.943
	c0.857,2.516,0.229,10.317-1.114,12.746l-0.771,1.772C44.621,105.382,41.105,109.84,38.648,109.868L38.648,109.868z M36.647,110.868
	c3.486,1.029,7.688-3.829,9.116-6.973c0.458-1,0.601-0.515,0.886-1.658c1.058-4.43,1.915-6.744,1.001-12.23l-1.458-5.659
	l-1.571-2.286c-3.572-6.344-11.688-7.859-17.232-0.715l-1.314,2.059c-0.801,1.428-1.544,3.857-1.887,5.4
	c-0.457,1.973-1,1.943-0.371,4.201l1.571-1.543c1.829-2.457,1.286-1.029,2.144-1.943c0.229-0.258,0.372-0.771,1.172-1.314
	c2.172-1.457,4.287-0.629,5.144-0.543c2.001,0.229,1.001,0.172,3.258,1.657c0.829,0.515,2.887,3.544,3.144,4.315l0.743,3.029
	c0.657,2.458,0.029,6.287-0.657,8.631C39.334,108.754,36.619,109.897,36.647,110.868L36.647,110.868z"/>
</svg>
