<?xml version="1.0" encoding="utf-8"?>
<!-- Generator: Adobe Illustrator 15.0.0, SVG Export Plug-In . SVG Version: 6.00 Build 0)  -->
<!DOCTYPE svg PUBLIC "-//W3C//DTD SVG 1.1//EN" "http://www.w3.org/Graphics/SVG/1.1/DTD/svg11.dtd">
<svg version="1.1" id="Layer_1" xmlns="http://www.w3.org/2000/svg" xmlns:xlink="http://www.w3.org/1999/xlink" x="0px" y="0px"
	 width="178.982px" height="151.021px" viewBox="0 0 178.982 151.021" enable-background="new 0 0 178.982 151.021"
	 xml:space="preserve">
<g>
	<path fill-rule="evenodd" clip-rule="evenodd" fill="#FDEC89" d="M110.624,56.877c2.572,12.289,5.602,34.323,7.831,48.555
		c0.914,6.002,1.343,3.716-0.344,6.116c-3-4.602-4.029-20.491-5.115-27.007l-3.344-21.063
		C108.424,57.449,109.081,58.249,110.624,56.877L110.624,56.877z M80.074,142.727c3.572,1.344,6.287,3.602,10.231,5.002
		c9.831,3.515,15.289-3.887,22.434-7.03c15.975-7.06,42.724,11.431,51.04-15.547c3.715-12.061,6.144-6.316,12.859-10.346
		l-18.118-43.468c-5.544-13.346-13.603-29.465-18.861-42.324l-13.288,4.144c2.486,8.745,17.317,64.931,15.946,66.959l-18.519-66.53
		l-16.461,1.743l1.458,11.831c-0.029,0.229-0.144,0.601-0.172,0.801c-0.028,0.199-0.257,0.914-0.286,0.801
		c-0.028-0.144-0.143,0.514-0.314,0.771l-2.8-13.375l-15.918-0.058l0.914,63.701c0.144,7.002-1.2,5.487-2.172,5.773l-0.972-69.389
		l-16.604-0.114c-0.972,9.288-6.401,74.047-9.83,77.305l7.458-77.505l-12.46-0.942c-1.143,4.801-9.373,44.953-12.117,48.954
		c-1.742-6.802,2.544-17.804,4.087-24.435c1.829-7.859,4.087-16.918,5.259-25.035l-15.432-3.686L2.314,116.949l19.462,12.518
		c4.2,6.145,8.345,12.546,17.804,13.203c9.431,0.629,16.518-4.602,27.777-3.115C71.273,140.069,76.246,141.298,80.074,142.727
		L80.074,142.727z"/>
	<path fill-rule="evenodd" clip-rule="evenodd" fill="#343434" d="M126.371,33.157l13.288-4.144
		c5.259,12.859,13.317,28.979,18.861,42.324l18.118,43.468c-6.716,4.029-9.145-1.715-12.859,10.346
		c-8.316,26.978-35.065,8.487-51.04,15.547c-7.145,3.144-12.603,10.545-22.434,7.03c-3.944-1.4-6.659-3.658-10.231-5.002
		c-3.828-1.429-8.801-2.657-12.717-3.172c-11.26-1.486-18.347,3.744-27.777,3.115c-9.459-0.657-13.604-7.059-17.804-13.203
		L2.314,116.949l35.123-86.221l15.432,3.686c-1.172,8.117-3.43,17.176-5.259,25.035c-1.543,6.631-5.829,17.633-4.087,24.435
		c2.744-4.001,10.975-44.153,12.117-48.954l12.46,0.942l-7.458,77.505c3.429-3.258,8.858-68.017,9.83-77.305l16.604,0.114
		l0.972,69.389c0.972-0.286,2.315,1.229,2.172-5.773l-0.914-63.701l15.918,0.058l2.8,13.375c0.172-0.258,0.286-0.915,0.314-0.771
		c0.029,0.113,0.258-0.602,0.286-0.801c0.028-0.2,0.143-0.572,0.172-0.801l-1.458-11.831l16.461-1.743l18.519,66.53
		C143.688,98.088,128.857,41.902,126.371,33.157L126.371,33.157z M94.507,32.986c-1.743,0.885-10.632,1.886-12.546,0.057
		c-2.086-2.029-0.857-9.688-1-12.86l14.46,0.314l0.172,10.488C95.106,33.357,95.593,31.671,94.507,32.986L94.507,32.986z
		 M104.795,33.014l-7.916,1.373c-0.144-8.06-3.115-16.233,5.744-15.719c10.802,1.657,26.177-3.201,35.95-5.973l0.086,13.402
		C131.144,31.128,114.883,32.986,104.795,33.014L104.795,33.014z M78.703,20.097c0.801,1.4,0.6,0.114,0.886,2.944l0.2,10.916
		l-14.26-0.8c-5.115-0.114-20.119-1.515-24.92-4.144c-3.744-2.059-2.544-3.029-3.201-14.518L78.703,20.097z M37.865,10.98
		c5.173-10.688,81.504-10.66,96.736-4.43c4.629,1.887,2.743,0.8,3.943,3.801l-50.668,7.116
		C76.531,17.639,44.981,17.668,37.865,10.98L37.865,10.98z M0,117.835c7.717,4.544,15.746,7.059,19.69,12.689
		c4.715,6.716,8.116,12.488,18.118,14.089c9.145,1.457,17.318-3.973,27.834-3.144c11.346,0.914,14.604,4.601,23.777,8.202
		c10.888,4.229,15.146-2.486,22.776-6.487c14.175-7.459,39.923,8.944,50.183-10.346c7.229-13.546-0.172-11.717,16.604-15.718
		L159.436,68.48c-4.944-12.117-18.062-37.953-18.29-49.47c-0.286-14.718-2.4-15.003-17.061-17.004
		c-10.117-1.4-20.662-1.915-31.179-2.001C74.645-0.08,48.782,0.549,35.637,9.037l-0.286,18.004C34.951,32.9,0.4,111.319,0,117.835
		L0,117.835z"/>
	<path fill-rule="evenodd" clip-rule="evenodd" fill="#FFD9A9" d="M37.865,10.98c7.116,6.688,38.666,6.658,50.012,6.487
		l50.668-7.116c-1.2-3.001,0.686-1.914-3.943-3.801C119.369,0.32,43.038,0.292,37.865,10.98L37.865,10.98z"/>
	<path fill-rule="evenodd" clip-rule="evenodd" fill="#F05B74" d="M65.529,33.157l13.288,0.601l-0.114-13.661l-41.295-5.601
		c0.657,11.488-0.543,12.459,3.201,14.518C45.41,31.643,60.414,33.043,65.529,33.157L65.529,33.157z"/>
	<path fill-rule="evenodd" clip-rule="evenodd" fill="#F05B74" d="M102.623,18.668L97.65,21.04l0.399,12.317l6.745-0.344
		c10.088-0.027,26.349-1.886,33.864-6.916l-0.086-13.402C128.8,15.467,113.425,20.325,102.623,18.668L102.623,18.668z"/>
	<path fill-rule="evenodd" clip-rule="evenodd" fill="#F5908D" d="M84.904,22.297l6.602,0.344l-0.086,8.516l-6.516-0.229V22.297z
		 M94.507,32.986c1.086-1.315,0.6,0.371,1.086-2.001l-0.172-10.488l-14.46-0.314c0.143,3.172-1.086,10.831,1,12.86
		C83.875,34.872,92.764,33.871,94.507,32.986L94.507,32.986z"/>
	<path fill-rule="evenodd" clip-rule="evenodd" fill="#343434" d="M118.455,105.432c-2.229-14.231-5.259-36.266-7.831-48.555
		c-1.543,1.372-2.2,0.572-0.972,6.602l3.344,21.063c1.086,6.516,2.115,22.405,5.115,27.007
		C119.798,109.147,119.369,111.434,118.455,105.432L118.455,105.432z"/>
	<path fill-rule="evenodd" clip-rule="evenodd" fill="#343434" d="M87.877,23.813c4.2,6.772,1,4.943,0,5.486
		c-0.829-1.258-1.172,2.001-1.086-3.115C86.904,21.439,86.419,26.184,87.877,23.813L87.877,23.813z M84.904,30.928l6.516,0.229
		l0.086-8.516l-6.602-0.344V30.928z"/>
	<path fill-rule="evenodd" clip-rule="evenodd" fill="#7C7C7C" d="M104.795,33.014l-6.745,0.344L97.65,21.04l4.973-2.372
		c-8.859-0.515-5.888,7.659-5.744,15.719L104.795,33.014z"/>
	<path fill-rule="evenodd" clip-rule="evenodd" fill="#7C7C7C" d="M65.529,33.157l14.26,0.8l-0.2-10.916
		c-0.286-2.83-0.085-1.544-0.886-2.944l0.114,13.661L65.529,33.157z"/>
	<path fill-rule="evenodd" clip-rule="evenodd" fill="#FFFFFF" d="M87.877,29.299c1-0.543,4.2,1.286,0-5.486
		c-1.458,2.371-0.973-2.373-1.086,2.371C86.705,31.3,87.048,28.041,87.877,29.299L87.877,29.299z"/>
</g>
</svg>
