<?xml version="1.0" encoding="utf-8"?>
<!-- Generator: Adobe Illustrator 15.0.0, SVG Export Plug-In  -->
<!DOCTYPE svg PUBLIC "-//W3C//DTD SVG 1.1//EN" "http://www.w3.org/Graphics/SVG/1.1/DTD/svg11.dtd" [
	<!ENTITY ns_flows "http://ns.adobe.com/Flows/1.0/">
]>
<svg version="1.1"
	 xmlns="http://www.w3.org/2000/svg" xmlns:xlink="http://www.w3.org/1999/xlink" xmlns:a="http://ns.adobe.com/AdobeSVGViewerExtensions/3.0/"
	 x="0px" y="0px" width="277px" height="495px" viewBox="0 0 277 495" enable-background="new 0 0 277 495" xml:space="preserve">
<defs>
</defs>
<path fill-rule="evenodd" clip-rule="evenodd" fill="#DD2E27" d="M198.172,50.577c1.571-0.143,0.714-0.143,1.515,0.486l8.201,8.03
	c0.629,0.657,1.115,1.372,1.715,1.915c0.515,0.486,0.515,0.371,0.915,1.029c1.2,2,1.657,0.915,2.058,3.201
	c0.285,0.686,1.429,1.943,2.058,2.829l9.773,14.661c0.285,0.514,0.543,0.886,0.914,1.515c0.486,0.886,0.629,0.743,0.943,1.429
	c1.629,3.572,1.8,2.687,2.629,4.887c0.457,1.2,1.743,3.916,2.515,4.773l1.629,3.201c0.258,0.543,0.429,1.172,0.715,1.715l3.715,8.63
	c0.258,1.229,2.458,6.03,3.172,9.174c0.286,1.172,0.314,0.857,0.629,1.772c0.314,1.086,0.629,3,0.886,4.001
	c0.344,1.343,0.715,2.687,0.857,4.058l0.715,4.172c0.343,4.058,0.114,8.173-0.8,11.688c-0.286,1.143-1.601,4.115-2.344,4.944
	c-1.829,2.029-3.801,2.886-7.459,2.629c-2.972-0.2-7.888-2.915-10.06-4.801l-11.174-11.575c-0.057-0.028-0.2-0.2-0.257-0.257
	c-0.943-1.086-1.515-2.401-2.515-3.487c-1.572-1.715-1.943-2.687-3.229-4.315c-0.457-0.571-0.601-0.8-1-1.429
	c-2.201-3.544-5.602-7.859-7.716-11.86l-3.43-6.258c-1.314-2.429-3.973-7.288-4.973-9.774c-0.429-1.029-0.314-0.2-0.743-1.772
	l-3.743-8.488c-1.601-3.229-2.744-8.316-3.687-10.888c-2.144-5.802-4.229-19.376-1.344-25.606c0.458-0.972,2.258-3.344,3.258-3.944
	c2.458-1.486,6.345-1.314,8.088-0.714C192.742,46.861,197.543,50.291,198.172,50.577L198.172,50.577z M2.043,150.687
	c0,7.63,0.571,14.632,1.028,22.263c0.086,1.714,0.43,2.857,0.543,4.572l1.973,13.203c0.172,0.915,0.343,1.172,0.457,1.886
	c0.114,0.886,0,1.601,0.229,2.486c0.172,0.743,0.429,1.143,0.543,1.858L9.017,207.7c0.313,1.486,0.171,0.772,0.686,1.63
	c0.428,0.743,0.229,1.372,0.343,2.314c0.114,0.915,0.886,3.058,1.2,3.915c0.285,0.771,0.2,1.172,0.429,2.059l1.4,3.857
	c0.229,0.801,0.313,1.344,0.543,2.086c0.829,2.43,1.829,5.145,2.571,7.688c0.43,1.516,0.771,2.373,1.258,3.801l3.086,7.002
	c0.258,0.629,0.344,1.201,0.601,1.887c0.743,1.886,1.715,3.286,2.544,5.173c0.028,0.057,0.057,0.114,0.086,0.171l6.572,13.518
	c0.828,1.715,2.058,3.115,2.771,4.773c1.287,3.114,3.858,5.43,5.487,8.459c0.4,0.743,0,0.114,0.458,0.629
	c1.257,1.4,1.885,3.086,3.029,4.601l1.656,2.2c0.029,0.058,0.086,0.115,0.115,0.144l11.174,13.774
	c0.143,0.172,0.171,0.2,0.343,0.372l9.173,9.23c2.229,1.972,4.315,4.258,6.744,6.03c1.258,0.914,1.83,1.429,2.858,2.258l2.858,2.2
	c1.257,0.715,1.914,1.543,3.086,2.229c0.028,0.028,0.114,0.057,0.143,0.086l12.518,7.573c2.258,1.257,5.83,2.314,8.059,3.601
	c0.057,0.028,0.114,0.057,0.143,0.086l2.344,1c0.8,0.257,1.057,0.371,1.743,0.715c2.286,1.171,5.087,1.6,7.544,2.629
	c2.4,1,5.287,1.743,7.859,2.2c1.029,0.2,1.057,0.343,2.143,0.486l13.575,1.686c7.688,0.572,10.717,0.172,18.347-0.2
	c1.343-0.057,2.801-0.114,4.144-0.114l15.433-2.857c0.8-0.172,0.914-0.2,1.571-0.486c1.086-0.457,2.115-0.371,3.258-0.856
	c1.629-0.715,3.829-0.943,5.487-1.601l3.972-1.344c0.543-0.229,0.772-0.371,1.344-0.571c0.8-0.257,0.857-0.143,1.629-0.515
	l11.488-5.173c4.515-2.2,8.974-4.772,13.174-7.43l4.802-3.401c1.457-1.229,3.229-2.144,4.687-3.515l10.717-9.86
	c0.371-0.429,0.686-0.6,1.143-1.028c0.4-0.4,0.629-0.771,1.029-1.172c0.343-0.343,0.686-0.571,0.942-0.972
	c0.429-0.6,0.344-0.857,0.801-1.4c0.686-0.8,1.429-1.114,2.086-2.029l5.287-7.03c1.4-1.343,3.4-4.058,4.2-5.887
	c0.972-2.314,2.516-4.516,3.802-6.659c0.514-0.857,1-1.743,1.429-2.687c0.285-0.543,0.343-0.914,0.571-1.399l2.258-3.973
	c1.829-3.915,3.372-7.945,4.829-11.946c0.314-0.886,1.029-2.2,1.229-2.771l5.001-17.748c0.143-1,0.257-0.8,0.485-1.715
	c0.314-1.229,0.144-2.6,0.457-3.743l0.658-3.458c0.143-1.2,0.6-2.115,0.686-3.43c0.143-1.571,0.086-2.057,0.657-3.372
	c0.343-0.829,0.343-5.973,0.743-7.517c1.086-4.201-0.114-9.717,0.743-14.089c0.371-2.086-0.258-4.229-0.114-6.173
	c0.085-1.114,0.428-1.743,0.114-3.144c-0.715-3.086-0.515-9.002-0.515-12.632c0-0.8,0.086-1.6-0.058-2.372
	c-0.114-0.743-0.429-1.029-0.514-1.801c-0.314-2.086-0.172-4.544-0.715-6.516c-0.343-1.2-0.943-8.145-1.601-10.545l-1.457-8.259
	c-0.515-1.172-0.571-2.543-0.943-3.83c-0.2-0.771-0.229-1.286-0.4-2.029l-0.514-1.915c-0.2-2.058-0.629-2.458-0.915-3.944
	c-0.257-1.343-0.114-0.886-0.543-1.915c-0.371-0.886-0.171-1.058-0.399-2.029c-0.258-1.115-0.4-0.6-0.658-1.686
	c-0.514-2-1.371-3.544-1.657-5.659c-0.086-0.886-0.743-3.029-1.086-3.744c-0.6-1.2-0.857-2.286-1.286-3.629
	c-0.314-1.029-0.942-2.429-1.314-3.515c-0.2-0.6-0.229-1.486-0.429-2.029c-0.2-0.514,0,0.114-0.429-0.714
	c-0.972-1.8-1.515-4.03-2.601-5.858c-0.942-1.629-1.371-3.401-2.086-5.173c-0.371-0.886-0.257-0.886-0.743-1.686
	c-0.314-0.515-0.571-1-0.828-1.601l-3.001-6.659c-0.314-0.457-0.829-0.857-1.029-1.343c-0.886-2.258-1.972-4.458-3.286-6.43
	l-0.229-0.286c-0.571-0.686-0.343,0.057-0.771-1.058c-1.2-3.144-2.601-5.058-4.372-7.83c-0.372-0.572-0.458-1.086-0.915-1.486
	c-1.829-1.601-0.571-0.543-2-2.829c-0.344-0.572-0.743-0.829-1.058-1.315c-1.4-2.2-0.657-1.543-3.029-4.515
	c-3.515-4.458-3.744-5.802-8.459-10.889c-3.4-3.715-6.888-7.944-10.574-11.231c-1.657-1.486-2.972-3.487-5.115-4.601l-5.029-4.573
	c-0.686-0.572-0.657-0.515-1.458-1c-0.886-0.543-1.6-1.572-2.601-2.2l-8.602-6.145c-0.6-0.372-1.028-0.457-1.629-0.829l-4.544-2.715
	c-1.486-0.857-4.172-1.771-4.858-2.372c-0.742-0.686-0.543-0.458-1.6-0.857l-6.573-3.115c-0.914-0.429-0.371-0.4-1.629-0.743
	c-1.2-0.314-0.829-0.286-1.715-0.714c-1.429-0.657-2.601-0.686-3.972-1.2c-0.058-0.029-0.114-0.057-0.172-0.057
	c-1.058-0.4-1.801-0.943-3.029-1.257c-1.886-0.515-3.887-1.372-5.858-1.486c-1.886-0.114-0.743-0.086-1.801-0.543
	c-0.914-0.372-1.314-0.086-2.2-0.314c-0.485-0.114-0.8-0.457-1.686-0.628c-2.973-0.658-5.773-0.915-8.859-0.972
	c-2.115-0.057-1.114-0.686-4.315-0.686c-2.686,0-5.544-0.257-8.487-0.257c-3.229-0.028-9.888-0.028-12.746,0.657
	c-0.714,0.171-3.114,0.286-3.943,0.372c-3.43,0.257-2.172,0.515-3.63,0.686c-2.943,0.314-2.657,0.743-5.572,1.086
	c-1.486,0.171-2.086,0.657-3.629,0.743c-1.486,0.057-1.029,0.143-1.83,0.429c-0.686,0.257-1.086,0.229-1.828,0.343
	c-1.43,0.257-0.6,0.286-1.601,0.6c-0.714,0.257-1.086,0.057-1.857,0.372c-1.086,0.458-0.058,0.314-1.829,0.572
	c-1.258,0.2-2.058,0.829-3.115,1.229c-0.656,0.257-1.2,0.172-1.943,0.343l-15.346,6.859c-0.371,0.257-0.972,0.657-1.314,0.829
	c-1.086,0.514-2.144,0.943-3.115,1.515l-13.031,9.202c-0.857,0.714-1.543,1.143-2.486,1.886c-0.886,0.686-1.572,1.372-2.314,2.029
	l-2.344,2.257c-1.543,1.429-3.287,2.687-4.544,4.43c-0.829,1.143-1.286,1.143-2.258,2.115l-4.001,4.916
	c-0.656,0.857-1.258,1.258-2,2.344l-1.801,2.572c-0.742,1.058-1.314,1.429-2,2.629c-1.029,1.8-2.258,3.401-3.4,5.287
	c-0.744,1.257-0.915,1.572-1.687,2.658l-3.173,5.773c-1.057,2.486-2.715,4.744-3.543,7.373c-0.285,0.915-3.172,6.745-4.001,9.517
	c-0.2,0.686-0.343,0.886-0.628,1.572c-0.772,1.829-0.601,2-1.059,3.572l-1.172,3.144c-0.256,0.743-0.229,1.058-0.428,1.801
	c-0.286,0.915-0.4,0.486-0.572,1.543c-0.428,2.372-1.086,3.401-1.715,7.345l-1.314,5.173c-0.257,0.857-0.171,1.229-0.285,2.201
	l-1.029,5.458c-0.857,2.372-0.543,3.344-1.114,5.601c-0.085,0.314-0.429,5.258-0.915,7.745c-0.256,1.343-0.057,2.915-0.371,4.287
	C1.729,137.398,2.043,146.257,2.043,150.687L2.043,150.687z"/>
<path fill-rule="evenodd" clip-rule="evenodd" fill="#F5853E" d="M213.661,133.769l0.942,0.6c1.258,1.143,4.001,4.658,6.516,6.83
	l3.029,2.772c1.001,1,1.286,0.715,1.544,1.886c0.914,0.915,1.515,1.115,2.571,1.715c1.029,0.6,2.201,1.229,3.173,1.658
	c1.828,0.829,5.058,0.8,7.087-1.4c2.172-2.372,1.857-3.544,2.372-4.63c0.4-0.915,0.4-0.543,0.457-1.943
	c0.086-1.686,0.429-2.686,0.515-4.115c0.171-3.543-0.229-2.829-0.429-4.373c-0.343-2.629-0.429-6.059-1.314-8.145
	c-0.429-1-0.972-5.087-1.229-5.944c-0.143-0.515-0.485-0.943-0.742-1.543c-0.772-1.772-1.744-5.344-2.344-7.202l-3.658-8.088
	c-0.257-0.514-0.629-1.086-0.857-1.572l-12.859-22.691c-1.801-3.458-0.429-1.086-2.829-4.43l-4.087-5.373
	c-0.8-0.943-1.086-1.772-1.886-2.715l-6.888-7.602c-2.658-2.744-5.802-5.373-9.03-7.402l-2.315-1.143
	c-0.6-0.257-0.457-0.114-0.972-0.286c-0.972-0.286-0.6-0.915-4.229-0.686c-1.943,0.143-3.372,1.4-4.314,2.858
	c-1.829,2.801-2.401,8.716-1.887,12.203c0.258,1.8,0.715,7.059,1.286,8.202c1.086,2.258,0.143,1.486,1,3.601
	c0.258,0.714,0.343,1.143,0.515,1.886l3.029,9.06c0.429,1,0.829,2.343,1.286,3.343c0.4,0.857,0.485,0.715,0.857,1.515l0.828,1.572
	c0.258,0.515,0.344,1,0.601,1.572l2.372,4.915c1.886,4.63,2.657,5.316,4.887,9.402l2.915,5.602c0.028,0.029,0.057,0.086,0.085,0.143
	c0.029,0.057,0.058,0.114,0.086,0.143c0.058,0.086,0.144,0.257,0.2,0.314c1.429,2.287,0.486,1.601,1.772,2.972l0.914,1.343
	c0.257,0.458,0.629,0.886,1,1.4c0.429,0.628,0.457,0.886,0.886,1.543l3.944,5.772c0.771,1.343,2.457,2.744,3.172,3.801
	C212.432,132.311,212.746,132.683,213.661,133.769L213.661,133.769z"/>
<path fill-rule="evenodd" clip-rule="evenodd" fill="#49494A" d="M212.347,384.944l-3.287,1.515c-0.629,0.229-1.2,0.4-1.743,0.687
	c-0.6,0.313-1.114,0.628-1.743,0.886l-9.631,3.2c-0.972,0.2-1.057,0.515-2.028,0.657c-0.887,0.144-1.315,0.086-2.115,0.344
	c-2.772,0.857-8.002,1.857-10.888,2.172c-7.631,0.8-15.118,1.343-22.291-2.001c-1.743-0.8-0.743,0.086-2.372-1.457l-0.257-0.258
	c-0.801-0.686-0.915-0.657-1.515-1.6c-0.372-0.658-0.601-1.029-0.601-2.001c-0.028-2.629,3.144-4.63,6.316-3.229
	c0.543,0.229,1.028,0.601,1.543,0.829c4.144,1.857,11.745,1.886,16.489,1.8c1.743-0.028,2.657-0.399,4.601-0.571l13.003-2.543
	l3.572-1.458c1.771-0.629,6.116-2.258,7.287-3.115l3.401-1.743c0.714-0.257,1-0.657,1.571-1.058
	c0.657-0.428,0.972-0.543,1.629-1.028c2.258-1.743,2.915-2.887,4.401-4.572c0.343-0.4-0.286-0.172,0.714-0.515
	c2.172-5.544,11.089-0.343,5.802,6.087c-2.258,2.772-4.772,5.001-7.63,6.859c-0.915,0.571-2.658,1.2-3.029,1.886L212.347,384.944z
	 M175.224,349.793c-0.086,1.857-1.543,1.943-2.314,5.802l-2.658,9.717c-0.399,1.914-0.485,4.515-0.143,6.687
	c3.43,0.286,0.601-3.715,3.172-11.174c0.314-0.886,0.286-0.257,0.486-1.144c0.171-0.571,0.057-0.886,0.257-1.485
	c0.372-1.058,2.029-4.573,2.258-5.716c0.229-1.4,0.286-0.571,0.657-1.801c0.343-1.086-0.028-0.714,0.657-1.943l0.314-0.686
	c0.172-0.286,0.257-0.515,0.543-0.657c0.743-0.429,1.2-0.172,1.343,0.457l1.2,10.288c0.058,1.743,0.372,3.486,0.572,5.059
	c0.229,1.572-0.2,4.144,1.571,3.915c0.229-0.8-0.629-8.545-0.828-10.23c-0.2-1.801-0.943-8.859-0.486-10.488
	c0.486-0.372,1.515-0.687,2.115-1.029c0.686-0.4,1.429-1.086,2.028-1.258c1.687-0.457,4.401,1.029,4.916,2.001
	c0.657,0,1.257,0.429,1.914,0.8c0.543,0.344,0.343,0.229,0.829,0.572l17.204,13.774l5.772,6.002c0.943,1.8-2.887,4.857-4.315,6.229
	c-0.371,0.314-0.2,0.2-0.657,0.486c-1.258,0.8-1.486,0.371-2.887,1.314l-5.144,2.829c-0.743,0.371-1.029,0.343-1.829,0.8
	c-1.114,0.629-1,0.286-2.172,0.572c-0.8,0.2-0.028-0.086-0.771,0.399c-0.086,0.058-0.058,0.058-0.429,0.258
	c-1.801,0.857-6.23,2.258-8.545,2.601c-0.343,0.829-1.028,0.543-3.2,1.086c-1.743,0.457-10.288,1.314-12.061,1.314
	c-3.515,0-5.029-0.172-8.059-0.715c-1.114-0.199-5.716-1.457-6.43-2.486c-1.4-3.286,1.172-8.431,1.657-11.26
	c0.4-2.286,1.657-4.715,2.515-7.315l4.858-9.86c0.371-0.686,0.172-0.229,0.601-1.086l3.172-4.772
	c0.028-0.057,0.086-0.114,0.114-0.143l0.771-0.601c1.2-0.429,1.629,0.114,2.314,0.629c0.029,0.687,0.144,1.029-0.571,1.915
	L175.224,349.793z M174.566,342.991c1.486-0.229,4.201,0.771,4.83,1.743c-0.601,0.771-2.372,0.972-3.602,0.857
	C175.023,344.678,174.566,344.648,174.566,342.991L174.566,342.991z M174.195,339.19c0.657-1.229,1.057-1.343,2.715-1.771
	c0.857-0.229,3.114-0.887,3.743-0.972c3.001-0.429,4.173,2.857,4.201,5.516c-2.344,1.171-2.572,1.2-6.087,0.229l-2.086-0.829
	c-0.144-0.057-0.629-0.172-0.743-0.229c-0.801-0.286,0.028,0.371-0.972-0.857C174.566,339.762,174.48,339.705,174.195,339.19
	L174.195,339.19z M2.043,150.687c0-4.43-0.314-13.289,0.571-17.347c0.314-1.372,0.115-2.944,0.371-4.287
	c0.486-2.486,0.83-7.43,0.915-7.745c0.571-2.257,0.257-3.229,1.114-5.601l1.029-5.458c0.114-0.972,0.028-1.343,0.285-2.201
	l1.314-5.173c0.629-3.944,1.287-4.973,1.715-7.345c0.172-1.057,0.286-0.628,0.572-1.543c0.199-0.743,0.172-1.058,0.428-1.801
	l1.172-3.144c0.458-1.572,0.286-1.743,1.059-3.572c0.285-0.686,0.428-0.886,0.628-1.572c0.829-2.772,3.716-8.602,4.001-9.517
	c0.828-2.629,2.486-4.887,3.543-7.373l3.173-5.773c0.771-1.086,0.942-1.4,1.687-2.658c1.143-1.886,2.371-3.487,3.4-5.287
	c0.686-1.2,1.258-1.572,2-2.629l1.801-2.572c0.742-1.086,1.344-1.486,2-2.344l4.001-4.916c0.972-0.972,1.429-0.972,2.258-2.115
	c1.257-1.743,3.001-3,4.544-4.43l2.344-2.257c0.742-0.658,1.429-1.343,2.314-2.029c0.943-0.743,1.629-1.172,2.486-1.886L65.8,18.912
	c0.972-0.572,2.029-1,3.115-1.515c0.343-0.171,0.943-0.572,1.314-0.829l15.346-6.859c0.743-0.171,1.287-0.086,1.943-0.343
	c1.058-0.4,1.857-1.029,3.115-1.229c1.771-0.257,0.743-0.114,1.829-0.572c0.771-0.314,1.144-0.114,1.857-0.372
	c1.001-0.314,0.171-0.343,1.601-0.6c0.742-0.114,1.143-0.085,1.828-0.343c0.801-0.286,0.344-0.372,1.83-0.429
	c1.543-0.086,2.143-0.572,3.629-0.743c2.915-0.343,2.629-0.771,5.572-1.086c1.458-0.171,0.2-0.429,3.63-0.686
	c0.829-0.085,3.229-0.2,3.943-0.372c2.858-0.686,9.517-0.686,12.746-0.657c2.943,0,5.802,0.257,8.487,0.257
	c3.201,0,2.2,0.629,4.315,0.686c3.086,0.057,5.887,0.314,8.859,0.972c0.886,0.171,1.2,0.514,1.686,0.628
	c0.886,0.229,1.286-0.057,2.2,0.314c1.058,0.457-0.085,0.429,1.801,0.543c1.972,0.114,3.973,0.972,5.858,1.486
	c1.229,0.314,1.972,0.857,3.029,1.257c0.058,0,0.114,0.028,0.172,0.057c1.371,0.515,2.543,0.543,3.972,1.2
	c0.886,0.429,0.515,0.4,1.715,0.714c1.258,0.343,0.715,0.314,1.629,0.743l6.573,3.115c1.057,0.4,0.857,0.171,1.6,0.857
	c0.687,0.6,3.372,1.515,4.858,2.372l4.544,2.715c0.601,0.372,1.029,0.457,1.629,0.829l8.602,6.145
	c1.001,0.628,1.715,1.657,2.601,2.2c0.801,0.486,0.772,0.429,1.458,1l5.029,4.573c2.144,1.114,3.458,3.115,5.115,4.601
	c3.687,3.287,7.174,7.516,10.574,11.231c4.715,5.087,4.944,6.43,8.459,10.889c2.372,2.972,1.629,2.315,3.029,4.515
	c0.314,0.486,0.714,0.743,1.058,1.315c1.429,2.286,0.171,1.229,2,2.829c0.457,0.4,0.543,0.915,0.915,1.486
	c1.771,2.772,3.172,4.687,4.372,7.83c0.429,1.115,0.2,0.372,0.771,1.058l0.229,0.286c1.314,1.972,2.4,4.172,3.286,6.43
	c0.2,0.486,0.715,0.886,1.029,1.343l3.001,6.659c0.257,0.6,0.514,1.086,0.828,1.601c0.486,0.8,0.372,0.8,0.743,1.686
	c0.715,1.772,1.144,3.544,2.086,5.173c1.086,1.829,1.629,4.058,2.601,5.858c0.429,0.829,0.229,0.2,0.429,0.714
	c0.2,0.543,0.229,1.429,0.429,2.029c0.372,1.086,1,2.486,1.314,3.515c0.429,1.343,0.687,2.429,1.286,3.629
	c0.343,0.714,1,2.858,1.086,3.744c0.286,2.115,1.144,3.658,1.657,5.659c0.258,1.086,0.4,0.571,0.658,1.686
	c0.229,0.972,0.028,1.143,0.399,2.029c0.429,1.029,0.286,0.571,0.543,1.915c0.286,1.486,0.715,1.886,0.915,3.944l0.514,1.915
	c0.172,0.743,0.2,1.258,0.4,2.029c0.372,1.286,0.429,2.658,0.943,3.83l1.457,8.259c0.657,2.4,1.258,9.345,1.601,10.545
	c0.543,1.972,0.4,4.43,0.715,6.516c0.085,0.772,0.399,1.058,0.514,1.801c0.144,0.771,0.058,1.572,0.058,2.372
	c0,3.63-0.2,9.545,0.515,12.632c0.313,1.4-0.029,2.029-0.114,3.144c-0.144,1.943,0.485,4.087,0.114,6.173
	c-0.857,4.372,0.343,9.888-0.743,14.089c-0.4,1.544-0.4,6.688-0.743,7.517c-0.571,1.315-0.515,1.801-0.657,3.372
	c-0.086,1.314-0.543,2.229-0.686,3.43l-0.658,3.458c-0.313,1.144-0.143,2.515-0.457,3.743c-0.229,0.915-0.343,0.715-0.485,1.715
	l-5.001,17.748c-0.2,0.571-0.915,1.886-1.229,2.771c-1.457,4.001-3,8.031-4.829,11.946l-2.258,3.973
	c-0.229,0.485-0.286,0.856-0.571,1.399c-0.429,0.943-0.915,1.829-1.429,2.687c-1.286,2.144-2.83,4.345-3.802,6.659
	c-0.8,1.829-2.8,4.544-4.2,5.887l-5.287,7.03c-0.657,0.915-1.4,1.229-2.086,2.029c-0.457,0.543-0.372,0.801-0.801,1.4
	c-0.257,0.4-0.6,0.629-0.942,0.972c-0.4,0.4-0.629,0.771-1.029,1.172c-0.457,0.429-0.771,0.6-1.143,1.028l-10.717,9.86
	c-1.458,1.371-3.229,2.286-4.687,3.515l-4.802,3.401c-4.2,2.657-8.659,5.229-13.174,7.43l-11.488,5.173
	c-0.771,0.372-0.829,0.258-1.629,0.515c-0.571,0.2-0.801,0.343-1.344,0.571l-3.972,1.344c-1.658,0.657-3.858,0.886-5.487,1.601
	c-1.143,0.485-2.172,0.399-3.258,0.856c-0.657,0.286-0.771,0.314-1.571,0.486l-15.433,2.857c-1.343,0-2.801,0.058-4.144,0.114
	c-7.63,0.372-10.659,0.772-18.347,0.2l-13.575-1.686c-1.086-0.144-1.113-0.286-2.143-0.486c-2.572-0.457-5.459-1.2-7.859-2.2
	c-2.457-1.029-5.258-1.458-7.544-2.629c-0.687-0.344-0.943-0.458-1.743-0.715l-2.344-1c-0.028-0.029-0.086-0.058-0.143-0.086
	c-2.229-1.286-5.801-2.344-8.059-3.601l-12.518-7.573c-0.028-0.029-0.114-0.058-0.143-0.086c-1.172-0.687-1.829-1.515-3.086-2.229
	l-2.858-2.2c-1.028-0.829-1.601-1.344-2.858-2.258c-2.429-1.772-4.515-4.059-6.744-6.03l-9.173-9.23
	c-0.172-0.172-0.2-0.2-0.343-0.372l-11.174-13.774c-0.029-0.028-0.086-0.086-0.115-0.144l-1.656-2.2
	c-1.145-1.515-1.772-3.2-3.029-4.601c-0.458-0.515-0.058,0.114-0.458-0.629c-1.629-3.029-4.2-5.345-5.487-8.459
	c-0.714-1.658-1.943-3.059-2.771-4.773l-6.572-13.518c-0.029-0.057-0.058-0.114-0.086-0.171c-0.829-1.887-1.801-3.287-2.544-5.173
	c-0.257-0.686-0.343-1.258-0.601-1.887l-3.086-7.002c-0.486-1.428-0.828-2.285-1.258-3.801c-0.742-2.543-1.742-5.258-2.571-7.688
	c-0.229-0.742-0.314-1.285-0.543-2.086l-1.4-3.857c-0.229-0.887-0.144-1.287-0.429-2.059c-0.314-0.857-1.086-3-1.2-3.915
	c-0.114-0.942,0.085-1.571-0.343-2.314c-0.515-0.857-0.372-0.144-0.686-1.63l-2.201-10.745c-0.114-0.715-0.371-1.115-0.543-1.858
	c-0.229-0.886-0.114-1.6-0.229-2.486c-0.114-0.714-0.285-0.972-0.457-1.886l-1.973-13.203c-0.113-1.715-0.457-2.858-0.543-4.572
	C2.614,165.319,2.043,158.317,2.043,150.687L2.043,150.687z M165.65,339.934c0.686-0.657,0.629-0.486,1.886-0.515
	c1.115-0.028,2.144-1,4.63-0.485c0.286,2.601,0.8,4.001,0.943,5.115c0.2,1.771-0.4,1.258-0.687,1.372
	c-0.8,0.571-2.058,0.886-3.458,1.257c-1.057,0.286-1,0.457-1.714,0.715c-1.486,0.485-0.458-0.143-1.629,0.686l-3.43,1.458
	c-1.144,0.514-2.086,0.942-3.115,1.485l-9.516,5.002c-1.315,0.914-1.029,0.743-2.516,1.571c-2.143,1.172-3.4,2.43-4.258,2.943
	c-3.029,1.801-7.916,5.202-10.031,7.974c-0.399,0.486-0.143,0.2-0.6,0.543c-2.515,1.772-3.887,2.915-5.944,5.973
	c-0.371,0.572-0.143,0.2-0.515,0.658l-1.571,2.086c-2.229,3.43-3.344,5.83-4.601,9.688c-1.258,3.802-1.887,12.689,0.371,16.576
	c0.886,1.515,0.172,1.943,1.429,3.4c1.028,1.2,0.771,1.829,2.087,2.801c0.828,0.601,0.57,0.429,1.086,1.258
	c1.343,2.114,5.286,4.572,6.43,5.487c2.286,1.8,1.429,0.886,2.857,1.743c1.058,0.628,1.771,1.485,2.887,1.886
	c1.285,0.486,2.143,0.771,3.343,1.344l3.458,1.399c1.144,0.458,2.115,1.001,3.315,1.43c0.8,0.285,1.114,0.543,1.743,0.686
	l12.975,3.772c0.6,0.229,1.229,0.314,1.829,0.543c0.856,0.371,0.571,0.429,1.828,0.543l11.917,2.458
	c1.029,0.229,1.086,0.285,1.915,0.514c0.743,0.229,1.314,0.2,2.086,0.372c0.771,0.171,1.029,0.457,1.772,0.6
	c0.686,0.144,1.371,0.086,2.058,0.2c1.285,0.2,2.371,0.657,3.972,0.829c1.144,0.114,1.114,0.057,2.001,0.4
	c2.286,0.857,7.287,1.515,9.573,2.258l3.801,1c4.43,0.828,7.373,1.943,11.288,3.029c1.601,0.429,2.544,0.285,3.858,0.943
	c3.229,1.657,1.943,0.628,3.572,1.285c2.715,1.086,10.859,4.544,12.859,6.23l1.4,1.058c0.486,0.314,0.943,0.686,1.343,1.058
	c4.229,3.857,1.687,1.686,4.602,4.829l1.943,2.63c0.343,0.457,0.543,1.171,0.771,1.657c0.6,1.172,0.743,0.972,1.715,3.144
	c0.343,0.743,0.143,0.543,0.743,1.144c0.914,0.942,1.657,4.829,2.257,6.315c1.001,2.601,1.029,12.489,0.972,15.232
	c-0.057,1.2,0.086,2.887-0.171,3.829c-0.372,1.458-0.372,2.344-0.286,4.087c0.058-0.057,0.114-0.257,0.143-0.229l0.429-0.886
	c0.086-0.286,0.144-0.743,0.229-1.114c0.856-2.944,0.543-4.602,0.686-7.859c0.485-10.717-0.715-9.26-1.657-15.232
	c-0.4-2.4-1.286-5.03-2.401-7.202c-0.543-1.057-0.971-1.086-1.6-2.571c-0.629-1.486-0.715-1.001-0.972-2.144
	c-0.687-0.886-0.972-1.715-1.743-2.572c-2.144-2.314-4.115-4.43-6.859-6.459c-0.942-0.686-1.972-1.2-2.857-1.771
	c-0.457-0.286-0.914-0.515-1.429-0.743c-0.601-0.314-0.972-0.343-1.601-0.629c-0.6-0.286-0.028-0.028-0.657-0.457l-5.115-2.4
	c-1.029-0.458-2.458-0.572-3.572-1.058c-0.657-0.286-0.715-0.429-1.543-0.657l-6.944-1.829c-1.629-0.457-2.058-1-5.23-1.543
	c-0.972-0.172-1.057-0.286-1.714-0.458c-0.344-0.085-1.43-0.085-1.943-0.229c-0.429-0.143-0.314-0.457-1.314-0.743
	c-2.172-0.657-7.116-1.171-9.231-1.972c-1.285-0.515-2.143-0.343-3.515-0.8c-2.915-0.943-9.316-1.458-14.66-3.229
	c-1-0.343-2.572-0.314-3.601-0.771c-2.115-0.886-5.259-0.771-7.288-1.658c-1.371-0.6-9.545-2.601-12.174-3.372
	c-0.8-0.257-1.058-0.171-1.686-0.457l-7.945-2.943c-0.514-0.2-0.828-0.515-1.343-0.771c-0.715-0.372-1.058-0.314-1.857-0.629
	l-7.287-3.83c-0.486-0.343-0.658-0.6-1.201-0.942c-0.543-0.4-0.857-0.429-1.4-0.801c-1.686-1.172-3.172-2.915-4.601-4.344
	l-3.458-5.229c-1.086-2.229-1.4-4.83-1.657-7.345c-0.286-3.201-0.058-8.803,1.343-11.604l1.344-3
	c0.257-0.458,0.543-0.687,0.886-1.286c2.2-4.145,3.601-6.002,7.259-9.488l8.602-7.83c1.715-1.344,3.458-2.173,5.315-3.401
	c2.001-1.286,3.716-2.2,5.602-3.344c0.829-0.485,1.943-1.257,2.715-1.657l1.972-0.915c0.058-0.028,0.114-0.057,0.172-0.085
	l3.915-1.887c0.429-0.229,0.229-0.143,0.8-0.399c2.172-0.973,1.058-1.001,5.087-2.401c0.429-0.143,0.629-0.171,1-0.285
	c0.801-0.258,0.029,0.028,0.629-0.286c0.943-0.486,0.629-0.429,1.915-0.4c0.028,2.229-2.144,3.059-3.344,6.945
	c-0.371,1.143-0.743,1.257-1.114,2.314c-1.229,3.344-2.772,6.43-3.744,9.831l-2.114,8.088c-0.943,7.116-0.801,3.601-4.001,6.029
	c-5.401,4.087-1.086,9.574,3.429,11.774l3.716,1.372c1.686,0.743,2.486,0.372,4.314,0.771c3.029,0.629,6.631,0.457,9.803,0.372
	c2.515-0.058,3.829-0.458,6.287-0.572c4.43-0.199,5.63-1.257,8.259-1.743l13.06-3.715c4.602-1.915,9.631-3.772,13.66-6.63
	c0.772-0.572,1.458-0.629,2.201-1.229c2.601-1.972,4.829-4.172,6.772-6.772c0.571-0.801,0.629-1.286,1.029-2.087
	c1.857-3.772-1.058-9.116-7.602-8.03c-2.344,0.4-2.63-1.486-4.888-3.401c-0.171-0.143-0.742-0.6-0.914-0.771
	c-1.657-1.629-3.172-3.715-5.087-5.087c-1.943-1.371-2.258-2.114-3.572-3.2l-5.544-4.201c-1.2-0.086-0.914-0.144-1.771-0.829
	c-3.201-2.515-4.287-2.801-7.23-4.458c-2.172-1.229-2.229-1-3.115-1.486c-1.829-0.943-1.286-2.572-2.314-4.372
	c-0.371-0.657-1.058-2.4-0.114-3.144c0.314-0.229,4.172-1.829,5.229-1.772c1.657,0.172,7.802-2.886,9.688-3.687l6.802-3.344
	c1.086-0.515,0.972-0.771,2.086-1.286c1.572-0.714,3.001-1.371,4.43-2.372c0.943-0.657,1.286-0.6,2.144-1.229l8.088-5.487
	c1.515-0.942,5.801-4.715,7.173-6.115l7.944-7.316c1.943-2,3.544-4.401,5.401-6.459l4.486-5.716c0.486-0.742,1-1.2,1.458-1.886
	l5.144-8.174c0.372-0.8,0.801-1.457,1.258-2.114c0.914-1.286,0.857-2.001,1.743-3.372c1.172-1.858,2.229-4.602,2.857-5.602
	c0.515-0.801,0.857-1.029,1.286-2.029l1.429-3.687c0.258-0.915,0.2-0.515,0.515-1.2l1.486-3.601c0.199-0.4,0.285-0.772,0.485-1.201
	c0.343-0.742,0.286-0.229,0.486-1.229c0.371-1.629,1.143-3.4,1.686-5.087c0.657-2.058,1.114-4.144,1.972-6.23l3.486-13.375
	c0.172-1.113,0.229-2.057,0.372-3.114l1.143-5.544c0.2-2.229,0.286-4.516,0.458-6.545c0.114-1.371,0.457-1.429,0.6-2.687
	c0.114-1.114-0.057-2.257,0.028-3.344c0.258-2.857,0.486-0.972,0.515-6.087c0-2.314,0.286-4.087,0.258-6.516
	c0-4.373,0.285-19.119-0.458-21.662c-0.371-1.286-0.229-3.144-0.543-4.487c-0.657-2.658-0.343-5.145-0.743-7.745
	c-0.143-0.943-0.229-0.543-0.371-1.286c-0.172-0.915-0.086-2.229-0.2-3.258l-1.943-10.631c-1.2-3.572-1.2-8.316-2.629-11.66
	c-0.657-1.543-0.715-3.772-1.286-5.487c-0.371-1.057-0.285-0.2-0.515-1.143c-1.114-4.515-2.771-9.945-4.372-14.318l-1.915-4.572
	c-0.171-0.429-0.229-0.771-0.428-1.258c-0.286-0.771-0.2-0.229-0.458-1.257c-0.457-1.886-1.229-3.287-1.743-5.03
	c-0.429-1.372-1.515-3.115-2.114-4.658l-4.315-9.259c-1-1.801-2.829-6.145-3.372-6.802c-1.058-1.257-1.572-2.972-2.4-4.373
	c-1.601-2.658-3.173-5.716-5.03-8.259c-0.571-0.8-0.743-1.229-1.314-2.086l-15.946-21.32c-0.515-0.714-1.143-1.057-1.743-1.657
	l-1.286-1.687c-0.886-0.343-1.314-1.171-1.857-1.686l-3.314-3.201c-1.943-2.315-4.773-4.287-5.173-4.772l-0.657-0.772
	c-0.258-0.257-0.543-0.543-0.857-0.857c-0.629-0.572-1.058-0.943-1.687-1.458l-11.088-8.574c-1.2-0.657-2.086-1.029-3.086-1.915
	l-0.772-0.972c-0.628-0.143-0.828-0.657-1.543-1.028l-7.43-4.03c-0.887-0.486-0.829-0.572-1.829-1.058
	c-0.743-0.343-0.943-0.571-1.915-0.971c-0.657-0.286-1.2-0.486-1.857-0.829c-1.515-0.714-2.144-1.458-3.744-2l-7.173-2.772
	l-16.632-4.487c-0.943-0.171-1.4-0.486-2.2-0.657c-0.857-0.143-1.829-0.086-2.715-0.2c-0.857-0.143-1.344-0.372-2.144-0.486
	l-10.316-1c-3.715-0.029-7.431-0.029-11.117,0l-10.116,1.114c-1.571,0.229-3.829,0.429-5.03,0.8
	c-1.629,0.514-3.258,0.286-4.829,0.771c-0.972,0.257-1.229,0.372-2.315,0.572l-9.173,2.258c-2.001,0.229-6.315,1.943-8.288,2.8
	l-9.773,4.23c-2.657,1.314-2.686,1.029-5.629,2.886l-2.801,1.515c-0.344,0.2-0.429,0.286-0.914,0.543
	c-0.543,0.314-1.145,0.6-1.688,1l-6.629,4.486c-3.973,2.83-9.746,7.288-13.203,11.032c-1.143,1.229-2.258,2.543-3.602,3.601
	c-1,0.8-1.656,2.058-2.6,3.029l-6.487,7.545c-1.801,2.286-4.115,5.944-5.716,8.545l-2.086,3.486
	c-1.915,2.658-3.229,6.316-3.916,7.488l-2.828,5.373c-0.314,0.686-0.486,1.315-0.857,2.058c-1.029,2.115-1.457,4.401-2.601,6.602
	c-0.886,1.743-0.829,1.829-1.4,3.715C9.33,89.643,6.302,96.474,5.93,100.617c-0.229,2.258-1.086,4.458-1.544,6.63
	c-0.543,2.458-0.771,5.144-1.4,7.316c-0.885,3.058-1.428,11.375-1.828,15.061c-0.086,0.886-0.344,1.429-0.429,2.429
	c-0.657,6.202-1.229,33.522-0.028,38.152c0.943,3.715,0.714,11.545,1.771,15.204c0.828,2.944,0.801,6.516,1.743,9.574l1.544,6.859
	c0.199,0.885,0.199,1.742,0.371,2.572l1.2,4.372c0.429,1.515-0.028,0.914,0.856,3.486c0.115,0.343,0.201,0.886,0.258,1.172
	l1.515,5.573c0.372,0.885,0.171,0.171,0.485,0.914c0.286,0.715,0.286,1.4,0.486,2.143l2.771,8.746
	c0.543,1.571,1.172,2.314,1.629,3.829c0.43,1.4,1.029,3.001,1.544,4.315l5.115,11.803c1.257,2.314,2.286,5.229,3.716,7.431
	c0.799,1.257,1.086,2.515,1.857,3.973l2.028,3.515c0.543,1.058,0.229,1.029,1.001,1.943c1.8,2.115,2.571,4.63,4.229,6.859
	c3.229,4.344,5.63,9.259,9.316,13.231c1,1.086,2.915,4.115,3.658,4.772l5.287,6.087c0.715,1.229,1.943,1.943,2.771,3.059
	c1.543,2.086,3.916,3.572,5.602,5.544c0.914,1.058,1.943,1.601,3,2.543l6.059,5.287c0.687,0.543,1.029,0.657,1.687,1.229
	l4.858,3.601c0.571,0.429,1,0.771,1.686,1.229c2.201,1.43,4.887,2.772,7.002,4.373c0.486,0.371,0.2,0.257,0.743,0.686
	c0.743,0.543,1.629,1.258,2.515,1.543c2.229,0.743,3.629,1.772,5.916,2.658c2.486,1,5.258,2.715,7.858,3.544
	c1.829,0.571,3.2,1.4,5.001,1.972c2.516,0.8,4.858,1.943,7.545,2.314c1.343,0.2,1.143,0.486,2.2,0.715l4.772,0.829
	c1.2,0.171,0.972,0.429,2,0.629c1.572,0.257,3.858,0.343,5.345,0.543c1.829,0.257,3.286,0.257,5.144,0.457
	c1.572,0.171,3.83-0.058,5.315,0.257l2.544,0.286c0.886,0,1.8,0,2.686,0.028L165.65,339.934z"/>
<path fill-rule="evenodd" clip-rule="evenodd" fill="#DD2E27" d="M180.168,352.279c-1.486-1.4-0.486-1.457-1.029-3.115
	c-2.172,0.172-0.771,1.258-2.028,2.687l-0.829,0.629c-0.229,1.143-1.886,4.658-2.258,5.716c-0.2,0.6-0.086,0.914-0.257,1.485
	c-0.2,0.887-0.172,0.258-0.486,1.144c-2.571,7.459,0.258,11.46-3.172,11.174c-0.343-2.172-0.257-4.772,0.143-6.687l2.658-9.717
	c0.771-3.858,2.229-3.944,2.314-5.802c0.058-1.601,0.429-1.258-0.028-2.515c-1.743-0.258-2.544,1.571-3.315,2.743
	c-0.457,0.687-0.8,1.114-1.286,1.857c-0.229,0.344-0.371,0.601-0.543,0.887c-0.057,0.057-0.143,0.229-0.199,0.285l-0.372,0.543
	c-0.314,0.515-0.257,0.629-0.543,1.172l-2.629,5.087c-0.314,0.801-0.371,1.543-0.715,2.286c-0.229,0.486-0.857,1.629-1.028,2.087
	c-0.457,1.485,0,1.057-0.829,2.343c-1.114,1.743-0.771,2.43-1.114,3.516c-0.286,0.972-0.114,0.028-0.457,0.914
	c-0.343,0.972-0.144,1.543-0.629,2.601c-0.771,1.687-1.372,5.773-1.114,7.859c2.915,2.2,2.915,1.486,4.658,1.915
	c1.143,0.285-0.172,0.257,1.515,0.6c6.801,1.314,9.744,0.486,15.774,0.028c2.544-0.199,5.001-0.942,7.487-1.257
	c2.314-0.343,6.744-1.743,8.545-2.601c0.371-0.2,0.343-0.2,0.429-0.258c0.743-0.485-0.028-0.199,0.771-0.399
	c1.172-0.286,1.058,0.057,2.172-0.572c0.8-0.457,1.086-0.429,1.829-0.8l5.144-2.829c1.4-0.943,1.629-0.515,2.887-1.314
	c0.457-0.286,0.286-0.172,0.657-0.486c1.429-1.372,5.259-4.43,4.315-6.229l-5.772-6.002l-17.204-13.774
	c-0.486-0.344-0.286-0.229-0.829-0.572c-0.657-0.371-1.257-0.8-1.914-0.8c-1.687-0.172-3.201-2.058-4.802-1.486
	c-0.143,0.058-1.4,1-1.886,1.258c-1.058,0.571-1.144,0.429-2.029,1.058l1.429,16.689c0.229,3.458,0.743,4.344-1.743,4.087
	C180.968,365.825,179.91,352.794,180.168,352.279L180.168,352.279z"/>
<path fill-rule="evenodd" clip-rule="evenodd" fill="#DD2E27" d="M218.404,369.884c-1,0.343-0.371,0.114-0.714,0.515
	c-1.486,1.686-2.144,2.829-4.401,4.572c-0.657,0.485-0.972,0.601-1.629,1.028c-0.571,0.4-0.857,0.801-1.571,1.058l-3.401,1.743
	c-1.171,0.857-5.516,2.486-7.287,3.115l-3.572,1.458l-13.003,2.543c-1.943,0.172-2.857,0.543-4.601,0.571
	c-4.744,0.086-12.346,0.058-16.489-1.8c-0.515-0.229-1-0.601-1.543-0.829c-3.173-1.4-6.345,0.601-6.316,3.229
	c0,0.972,0.229,1.343,0.601,2.001c0.6,0.942,0.714,0.914,1.515,1.6l0.257,0.258c1.629,1.543,0.629,0.657,2.372,1.457
	c7.173,3.344,14.66,2.801,22.291,2.001c2.886-0.314,8.115-1.314,10.888-2.172c0.8-0.258,1.229-0.2,2.115-0.344
	c0.972-0.143,1.057-0.457,2.028-0.657l9.631-3.2c0.629-0.258,1.144-0.572,1.743-0.886c0.543-0.286,1.114-0.458,1.743-0.687
	l3.287-1.515c0.571-0.857,0.428-0.629,1.6-1.172l4.145-2.771c2.4-1.743,9.287-7.545,6.658-10.917
	c-1.258-1.572-2.943-2.601-4.887-1.144C219.033,369.569,219.205,369.655,218.404,369.884L218.404,369.884z"/>
<path fill-rule="evenodd" clip-rule="evenodd" fill="#49494A" d="M225.692,145.857c-2.001-0.857-9.174-8.288-10.774-10.288
	c-0.371-0.457-1.058-1.057-1.257-1.8c-0.915-1.086-1.229-1.458-2.029-2.658c-0.715-1.058-2.4-2.458-3.172-3.801l-3.944-5.772
	c-0.429-0.658-0.457-0.915-0.886-1.543c-0.371-0.515-0.743-0.943-1-1.4l-0.914-1.343c-1.286-1.372-0.344-0.686-1.772-2.972
	c-0.057-0.057-0.143-0.229-0.2-0.314c-0.028-0.028-0.057-0.085-0.086-0.143c-0.028-0.057-0.057-0.114-0.085-0.143l-2.915-5.602
	c-2.229-4.086-3.001-4.772-4.887-9.402l-2.372-4.915c-0.257-0.572-0.343-1.058-0.601-1.572l-0.828-1.572
	c-0.372-0.8-0.457-0.657-0.857-1.515c-0.457-1-0.857-2.343-1.286-3.343l-3.029-9.06c-0.172-0.743-0.257-1.172-0.515-1.886
	c-0.857-2.115,0.086-1.343-1-3.601c-0.571-1.143-1.028-6.401-1.286-8.202c-0.515-3.487,0.058-9.402,1.887-12.203
	c0.942-1.458,2.371-2.715,4.314-2.858c3.63-0.229,3.258,0.4,4.229,0.686c0.515,0.171,0.372,0.028,0.972,0.286l2.315,1.143
	c3.229,2.029,6.372,4.658,9.03,7.402l6.888,7.602c0.8,0.943,1.086,1.772,1.886,2.715l4.087,5.373c2.4,3.344,1.028,0.972,2.829,4.43
	l12.859,22.691c0.229,0.486,0.601,1.058,0.857,1.572l3.658,8.088c0.6,1.857,1.571,5.43,2.344,7.202c0.257,0.6,0.6,1.029,0.742,1.543
	c0.258,0.857,0.801,4.944,1.229,5.944c0.886,2.086,0.972,5.516,1.314,8.145c0.2,1.543,0.6,0.829,0.429,4.373
	c-0.086,1.429-0.429,2.429-0.515,4.115c-0.057,1.4-0.057,1.029-0.457,1.943c-0.515,1.086-0.2,2.258-2.372,4.63
	c-2.029,2.201-5.259,2.229-7.087,1.4c-0.972-0.429-2.144-1.058-3.173-1.658C227.207,146.972,226.606,146.771,225.692,145.857
	L225.692,145.857z M212.575,65.237c-1.229-0.486-0.458-0.057-1.144-0.972l-7.63-8.602c-1.943-1.915-5.059-4.172-5.63-5.087
	c-0.629-0.286-5.43-3.715-7.573-4.43c-1.743-0.6-5.63-0.772-8.088,0.714c-1,0.6-2.8,2.972-3.258,3.944
	c-2.886,6.23-0.8,19.805,1.344,25.606c0.942,2.572,2.086,7.659,3.687,10.888l3.743,8.488c0.429,1.572,0.314,0.743,0.743,1.772
	c1,2.486,3.658,7.345,4.973,9.774l3.43,6.258c2.114,4.001,5.515,8.316,7.716,11.86c0.399,0.629,0.543,0.857,1,1.429
	c1.286,1.629,1.657,2.601,3.229,4.315c1,1.086,1.571,2.401,2.515,3.487c0.057,0.057,0.2,0.229,0.257,0.257l11.174,11.575
	c2.172,1.886,7.088,4.601,10.06,4.801c3.658,0.257,5.63-0.6,7.459-2.629c0.743-0.829,2.058-3.801,2.344-4.944
	c0.914-3.515,1.143-7.63,0.8-11.688l-0.715-4.172c-0.143-1.372-0.514-2.715-0.857-4.058c-0.257-1-0.571-2.915-0.886-4.001
	c-0.314-0.915-0.343-0.6-0.629-1.772c-0.714-3.144-2.914-7.945-3.172-9.174l-3.715-8.63c-0.286-0.543-0.457-1.172-0.715-1.715
	l-1.629-3.201c-0.771-0.857-2.058-3.573-2.515-4.773c-0.829-2.2-1-1.314-2.629-4.887c-0.314-0.686-0.457-0.543-0.943-1.429
	c-0.371-0.629-0.629-1-0.914-1.515l-9.773-14.661C214.004,67.181,212.86,65.923,212.575,65.237L212.575,65.237z"/>
<path fill-rule="evenodd" clip-rule="evenodd" fill="#868687" d="M189.855,382.744c-2.486,0.314-4.943,1.058-7.487,1.257
	c-6.03,0.458-8.974,1.286-15.774-0.028c-1.687-0.343-0.372-0.314-1.515-0.6c-1.743-0.429-1.743,0.285-4.658-1.915
	c-0.258-2.086,0.343-6.173,1.114-7.859c0.485-1.058,0.286-1.629,0.629-2.601c0.343-0.886,0.171,0.058,0.457-0.914
	c0.343-1.086,0-1.772,1.114-3.516c0.829-1.286,0.372-0.857,0.829-2.343c0.171-0.458,0.8-1.601,1.028-2.087
	c0.344-0.743,0.4-1.485,0.715-2.286l2.629-5.087c0.286-0.543,0.229-0.657,0.543-1.172l0.372-0.543
	c0.057-0.057,0.143-0.229,0.199-0.285c0.172-0.286,0.314-0.543,0.543-0.887c0.486-0.743,0.829-1.171,1.286-1.857
	c0.771-1.172,1.572-3.001,3.315-2.743c0.457,1.257,0.086,0.914,0.028,2.515l0.314-0.343c0.715-0.886,0.601-1.229,0.571-1.915
	c-0.686-0.515-1.114-1.058-2.314-0.629l-0.771,0.601c-0.028,0.028-0.086,0.086-0.114,0.143l-3.172,4.772
	c-0.429,0.857-0.229,0.4-0.601,1.086l-4.858,9.86c-0.857,2.601-2.114,5.029-2.515,7.315c-0.485,2.829-3.058,7.974-1.657,11.26
	c0.714,1.029,5.315,2.287,6.43,2.486c3.029,0.543,4.544,0.715,8.059,0.715c1.772,0,10.317-0.857,12.061-1.314
	C188.827,383.287,189.513,383.573,189.855,382.744L189.855,382.744z"/>
<path fill-rule="evenodd" clip-rule="evenodd" fill="#DD2E27" d="M175.053,339.19c1.399,2.458,6.486,3.658,8.944,2.658
	c0.429-2.372-0.972-5.116-3.001-4.83C179.425,337.247,176.109,337.647,175.053,339.19L175.053,339.19z"/>
<path fill-rule="evenodd" clip-rule="evenodd" fill="#D8D9D8" d="M222.177,43.746c-0.371-1.686-1.257-2.257-2.886-3.801
	l-3.287-3.258c-1.4-2.086-2.601-2.086-3.458-3.058c-1.771-1.943-2.914-2.343-4.286-3.972c-1.458-1.743-2.973-2.144-4.687-3.515
	l-3.744-2.83c-1.372-0.714-1.143-1.229-2.372-1.8c-0.657-0.314,0.486,0.229-0.543-0.2c-0.857-0.372-1.086-0.857-1.943-1.372
	c-0.771-0.457,0.314-0.286-1.286-0.4l0.772,0.972c1,0.886,1.886,1.258,3.086,1.915L208.631,31c0.629,0.514,1.058,0.886,1.687,1.458
	c0.314,0.314,0.6,0.6,0.857,0.857l0.657,0.772c0.399,0.486,3.229,2.458,5.173,4.772l3.314,3.201
	C220.862,42.575,221.291,43.403,222.177,43.746L222.177,43.746z"/>
<path fill-rule="evenodd" clip-rule="evenodd" fill="#AAAAAB" d="M179.796,347.85l0.372,4.43c-0.258,0.515,0.8,13.546,1.686,15.433
	c2.486,0.257,1.972-0.629,1.743-4.087l-1.429-16.689c0.886-0.629,0.972-0.486,2.029-1.058c0.485-0.258,1.743-1.2,1.886-1.258
	c1.601-0.571,3.115,1.314,4.802,1.486c-0.515-0.972-3.229-2.458-4.916-2.001c-0.6,0.172-1.343,0.857-2.028,1.258
	c-0.601,0.343-1.629,0.657-2.115,1.029c-0.457,1.629,0.286,8.688,0.486,10.488c0.199,1.686,1.057,9.431,0.828,10.23
	c-1.771,0.229-1.343-2.343-1.571-3.915c-0.2-1.572-0.515-3.315-0.572-5.059L179.796,347.85z"/>
<path fill-rule="evenodd" clip-rule="evenodd" fill="#AAAAAB" d="M218.404,369.884c0.801-0.229,0.629-0.314,1.458-0.943
	c1.943-1.457,3.629-0.429,4.887,1.144c2.629,3.372-4.258,9.174-6.658,10.917l-4.145,2.771c-1.172,0.543-1.028,0.314-1.6,1.172
	l1.2-0.229c0.371-0.686,2.114-1.314,3.029-1.886c2.857-1.858,5.372-4.087,7.63-6.859
	C229.493,369.541,220.576,364.34,218.404,369.884L218.404,369.884z"/>
<path fill-rule="evenodd" clip-rule="evenodd" fill="#868687" d="M199.715,349.336l-1.972-1.801c-1.2-0.686-1.029-0.943-1.972-1.429
	c-0.943-0.486-1.572-0.771-2.344-1.314c-1.4-1-2.943-1.629-4.772-2.286c-1.058-0.4-1.4-0.601-1.743-1.629
	c-0.571-1.801-1.687-4.373-1.743-5.202c0.972-0.457,1.801-0.6,2.771-1.057c0.943-0.429,1.973-0.771,2.458-1.344
	c-1.058-0.057-4.915,1.544-5.229,1.772c-0.943,0.743-0.257,2.486,0.114,3.144c1.028,1.8,0.485,3.429,2.314,4.372
	c0.886,0.486,0.943,0.258,3.115,1.486c2.943,1.657,4.029,1.943,7.23,4.458C198.801,349.192,198.515,349.25,199.715,349.336
	L199.715,349.336z"/>
<path fill-rule="evenodd" clip-rule="evenodd" fill="#AAAAAB" d="M175.053,339.19c1.057-1.543,4.372-1.943,5.943-2.172
	c2.029-0.286,3.43,2.458,3.001,4.83C181.539,342.849,176.452,341.648,175.053,339.19L175.053,339.19z M174.195,339.19
	c0.285,0.515,0.371,0.571,0.771,1.086c1,1.229,0.171,0.571,0.972,0.857c0.114,0.057,0.6,0.172,0.743,0.229l2.086,0.829
	c3.515,0.972,3.743,0.942,6.087-0.229c-0.028-2.658-1.2-5.944-4.201-5.516c-0.629,0.085-2.886,0.742-3.743,0.972
	C175.252,337.848,174.853,337.962,174.195,339.19L174.195,339.19z"/>
<path fill-rule="evenodd" clip-rule="evenodd" fill="#D8D9D8" d="M212.575,65.237c-0.4-2.286-0.857-1.2-2.058-3.201
	c-0.4-0.658-0.4-0.543-0.915-1.029c-0.6-0.543-1.086-1.258-1.715-1.915l-8.201-8.03c-0.801-0.629,0.057-0.629-1.515-0.486
	c0.571,0.915,3.687,3.172,5.63,5.087l7.63,8.602C212.117,65.18,211.346,64.751,212.575,65.237L212.575,65.237z"/>
<path fill-rule="evenodd" clip-rule="evenodd" fill="#AAAAAB" d="M225.692,145.857c-0.258-1.171-0.543-0.886-1.544-1.886
	l-3.029-2.772c-2.515-2.172-5.258-5.687-6.516-6.83l-0.942-0.6c0.199,0.743,0.886,1.343,1.257,1.8
	C216.519,137.569,223.691,145,225.692,145.857L225.692,145.857z"/>
<path fill-rule="evenodd" clip-rule="evenodd" fill="#D8D9D8" d="M179.396,344.734c-0.629-0.972-3.344-1.972-4.83-1.743
	c0,1.657,0.457,1.687,1.229,2.601C177.024,345.706,178.796,345.506,179.396,344.734L179.396,344.734z"/>
<path fill-rule="evenodd" clip-rule="evenodd" fill="#D8D9D8" d="M176.281,352.479l0.829-0.629c1.257-1.429-0.144-2.515,2.028-2.687
	c0.543,1.658-0.457,1.715,1.029,3.115l-0.372-4.43c-0.143-0.629-0.6-0.886-1.343-0.457c-0.286,0.143-0.371,0.371-0.543,0.657
	l-0.314,0.686c-0.686,1.229-0.314,0.857-0.657,1.943C176.567,351.908,176.51,351.079,176.281,352.479L176.281,352.479z"/>
<path fill-rule="evenodd" clip-rule="evenodd" fill="#868687" d="M165.65,339.934c1.601-0.058,5.173-0.801,6.03-0.286
	c0.457,0.801,0.199,1.943,0.457,2.973c0.285,1.086,0.657,1.371,0.285,2.801c0.286-0.114,0.887,0.399,0.687-1.372
	c-0.144-1.114-0.657-2.515-0.943-5.115c-2.486-0.515-3.515,0.457-4.63,0.485C166.279,339.447,166.336,339.276,165.65,339.934
	L165.65,339.934z"/>
</svg>
