<?xml version="1.0" encoding="utf-8"?>
<!-- Generator: Adobe Illustrator 15.0.0, SVG Export Plug-In . SVG Version: 6.00 Build 0)  -->
<!DOCTYPE svg PUBLIC "-//W3C//DTD SVG 1.1//EN" "http://www.w3.org/Graphics/SVG/1.1/DTD/svg11.dtd">
<svg version="1.1" id="Layer_1" xmlns="http://www.w3.org/2000/svg" xmlns:xlink="http://www.w3.org/1999/xlink" x="0px" y="0px"
	 width="20px" height="100px" viewBox="0 0 20 100" enable-background="new 0 0 20 100" xml:space="preserve">
<g transform="scale(0.01953125 0.01953125)">
	<path fill="#444444" d="M266.253,4249.654c0,54.4-36.35,101.201-102.451,101.201c-62.201,0-102.351-44.151-102.351-98.551
		c0-55.801,38.9-105.051,102.401-105.051S265.053,4193.854,266.253,4249.654z M61.451,5068.865v-665.609h204.803v665.609H61.451z"/>
	<path fill="#444444" d="M368.655,4630.759c0-79.101-2.6-145.202-5.2-202.252h184.002l9.1,88.201h3.9
		c25.9-41.5,89.401-102.401,195.703-102.401c129.602,0,226.903,86.801,226.903,273.554v381.005H778.26V4717.56
		c0-81.601-31.1-143.852-102.401-143.852c-54.401,0-81.601,44.051-95.901,80.351c-5.2,13-6.5,31.101-6.5,49.301v365.505H368.655
		V4630.759L368.655,4630.759z"/>
</g>
<path fill="#444444" d="M2.169,65.589c0,1.494,0.5,2.572,1.482,3.205c0.807,0.521,1.74,0.599,2.227,0.599
	c0.117,0,0.213-0.006,0.279-0.011c0,0-0.154,1.005,0.59,1.996H6.713c-1.289,0-5.493,0.269-5.493,3.728
	c0,3.516,3.861,3.694,4.636,3.694c0.062,0,0.097-0.002,0.097-0.002c0.008,0,0.063,0.002,0.158,0.002
	c0.497,0,1.782-0.062,2.975-0.643c1.549-0.75,2.334-2.06,2.334-3.886c0-1.764-1.196-2.813-2.069-3.582
	c-0.533-0.469-0.994-0.873-0.994-1.266c0-0.4,0.337-0.701,0.763-1.082c0.688-0.615,1.338-1.492,1.338-3.15
	c0-1.457-0.188-2.436-1.354-3.057c0.121-0.062,0.551-0.107,0.764-0.137c0.631-0.086,1.553-0.184,1.553-0.699V61.2H6.821
	C6.774,61.202,2.169,61.372,2.169,65.589L2.169,65.589z M9.594,74.602c0.088,1.406-1.115,2.443-2.922,2.574
	c-1.835,0.135-3.345-0.691-3.433-2.096c-0.043-0.676,0.254-1.336,0.834-1.863c0.59-0.533,1.398-0.863,2.278-0.928
	c0.104-0.006,0.207-0.012,0.31-0.012C8.36,72.277,9.511,73.275,9.594,74.602z M8.393,64.626c0.451,1.588-0.229,3.246-1.315,3.554
	c-0.125,0.034-0.254,0.051-0.385,0.051c-0.994,0-1.979-1.006-2.345-2.393c-0.204-0.775-0.187-1.458,0.047-2.111
	c0.229-0.646,0.644-1.078,1.163-1.226c0.125-0.035,0.254-0.053,0.385-0.053C7.143,62.448,7.915,62.945,8.393,64.626z M16.181,68v-3
	h-2v3h-3v2h3v3h2v-3h3v-2H16.181z"/>
<path fill="#444444" d="M19.042,45.574c0.146,0.403-0.326,1.329-1.416,2.775c-0.151,0.201-0.355,0.47-0.613,0.803
	c-0.491,0.631-0.774,1.041-0.851,1.237c-0.107,0.257-0.063,0.512,0.133,0.765c0.107,0.132,0.362,0.39,0.765,0.774h0.01l0.037,0.038
	c0.888,0.823,1.488,1.52,1.804,2.086c0.019,0.031,0.039,0.071,0.062,0.118c0.022,0.048,0.044,0.13,0.066,0.251
	c0.022,0.12,0.02,0.227-0.005,0.32c-0.025,0.095-0.104,0.182-0.236,0.26s-0.317,0.118-0.557,0.118l-2.418,0.038
	c-0.15,0.03-0.327,0.017-0.528-0.048c-0.202-0.063-0.365-0.132-0.491-0.207l-0.188-0.113c-0.189-0.133-0.41-0.333-0.661-0.604
	c-0.252-0.271-0.468-0.515-0.647-0.732c-0.179-0.217-0.371-0.398-0.575-0.547c-0.204-0.149-0.383-0.196-0.534-0.146
	c-0.019,0.007-0.043,0.017-0.075,0.033s-0.085,0.061-0.16,0.137c-0.076,0.075-0.144,0.167-0.203,0.278
	c-0.061,0.111-0.113,0.273-0.161,0.491c-0.047,0.217-0.067,0.46-0.062,0.731c0,0.095-0.01,0.182-0.032,0.26
	s-0.046,0.137-0.071,0.175l-0.038,0.047c-0.113,0.121-0.279,0.189-0.5,0.208H9.808c-0.447,0.026-0.906-0.025-1.378-0.155
	s-0.887-0.296-1.242-0.501c-0.355-0.205-0.68-0.413-0.973-0.623c-0.293-0.21-0.515-0.392-0.666-0.543l-0.236-0.227
	c-0.063-0.063-0.15-0.158-0.26-0.283s-0.335-0.413-0.675-0.859c-0.34-0.446-0.674-0.923-1-1.426C3.05,50,2.665,49.334,2.221,48.511
	c-0.444-0.824-0.854-1.681-1.232-2.568c-0.038-0.102-0.057-0.187-0.057-0.255c0-0.069,0.009-0.121,0.028-0.151l0.038-0.057
	c0.095-0.12,0.274-0.18,0.539-0.18l2.587-0.019c0.076,0.012,0.148,0.033,0.217,0.062c0.07,0.028,0.119,0.054,0.151,0.08l0.047,0.028
	c0.101,0.068,0.176,0.17,0.227,0.302c0.126,0.314,0.271,0.64,0.435,0.978s0.292,0.593,0.387,0.77l0.151,0.273
	c0.183,0.378,0.359,0.706,0.529,0.982s0.322,0.493,0.458,0.646c0.136,0.154,0.266,0.276,0.392,0.364
	c0.126,0.087,0.232,0.132,0.321,0.132s0.173-0.017,0.255-0.047c0.013-0.008,0.028-0.021,0.047-0.048
	c0.019-0.025,0.057-0.094,0.113-0.207s0.099-0.263,0.127-0.444s0.058-0.437,0.09-0.765s0.032-0.72,0-1.181
	c-0.013-0.252-0.042-0.481-0.085-0.689c-0.044-0.207-0.089-0.352-0.132-0.434l-0.057-0.113c-0.157-0.215-0.425-0.35-0.803-0.406
	c-0.082-0.012-0.066-0.088,0.047-0.227c0.107-0.12,0.227-0.215,0.359-0.283c0.334-0.163,1.086-0.238,2.257-0.227
	c0.516,0.007,0.941,0.047,1.275,0.122c0.126,0.031,0.231,0.073,0.316,0.128s0.149,0.13,0.193,0.227s0.076,0.198,0.099,0.302
	c0.022,0.104,0.033,0.248,0.033,0.43s-0.003,0.356-0.01,0.52c-0.006,0.163-0.014,0.385-0.023,0.666
	c-0.009,0.28-0.014,0.54-0.014,0.779c0,0.068-0.004,0.2-0.01,0.396c-0.006,0.195-0.008,0.347-0.005,0.453
	c0.004,0.106,0.015,0.233,0.033,0.382c0.019,0.149,0.056,0.271,0.108,0.368c0.054,0.098,0.124,0.175,0.213,0.231
	c0.051,0.012,0.104,0.026,0.16,0.038s0.139-0.021,0.246-0.104c0.107-0.083,0.227-0.191,0.358-0.326s0.296-0.347,0.491-0.633
	c0.194-0.285,0.409-0.625,0.642-1.015c0.378-0.654,0.715-1.362,1.011-2.125c0.024-0.063,0.057-0.118,0.095-0.165
	c0.037-0.047,0.071-0.08,0.104-0.099l0.038-0.028l0.047-0.024c0,0,0.041-0.009,0.123-0.028c0.081-0.019,0.145-0.021,0.188-0.005
	l2.72-0.019c0.245-0.03,0.447-0.023,0.604,0.023c0.156,0.048,0.255,0.1,0.292,0.156L19.042,45.574z"/>
<path fill="#444444" d="M17.517,26.246c0.008,0.162,0.011,0.326,0.011,0.488c0,4.99-3.798,10.742-10.74,10.742
	c-2.133,0-4.115-0.625-5.787-1.697c0.297,0.035,0.596,0.053,0.9,0.053c1.77,0,3.397-0.604,4.688-1.615
	c-1.652-0.031-3.047-1.121-3.526-2.621c0.229,0.043,0.467,0.066,0.71,0.066c0.345,0,0.679-0.045,0.994-0.131
	c-1.727-0.348-3.027-1.873-3.027-3.703c0-0.016,0-0.031,0-0.047c0.509,0.283,1.092,0.453,1.71,0.473
	c-1.014-0.678-1.68-1.832-1.68-3.143c0-0.691,0.186-1.34,0.512-1.898c1.86,2.285,4.644,3.787,7.78,3.945
	c-0.063-0.277-0.096-0.564-0.096-0.861c0-2.084,1.688-3.773,3.773-3.773c1.086,0,2.066,0.457,2.756,1.191
	c0.859-0.17,1.667-0.484,2.396-0.916c-0.281,0.881-0.881,1.621-1.659,2.088c0.764-0.092,1.489-0.293,2.168-0.594
	C18.894,25.051,18.255,25.715,17.517,26.246z"/>
<path fill="#444444" d="M17,1H3C1.9,1,1,1.9,1,3v14c0,1.102,0.9,2,2,2h7v-7H8V9.525h2v-2.05c0-2.164,1.212-3.684,3.766-3.684
	l1.803,0.002v2.605h-1.196C13.378,6.398,13,7.144,13,7.836v1.69h2.568L15,12h-2v7h4c1.1,0,2-0.898,2-2V3C19,1.9,18.1,1,17,1L17,1z"
	/>
</svg>
