<?xml version="1.0" encoding="utf-8"?>
<!-- Generator: Adobe Illustrator 15.0.0, SVG Export Plug-In . SVG Version: 6.00 Build 0)  -->
<!DOCTYPE svg PUBLIC "-//W3C//DTD SVG 1.1//EN" "http://www.w3.org/Graphics/SVG/1.1/DTD/svg11.dtd">
<svg version="1.1" id="Layer_1" xmlns="http://www.w3.org/2000/svg" xmlns:xlink="http://www.w3.org/1999/xlink" x="0px" y="0px"
	 width="52px" height="54px" viewBox="0 0 52 54" enable-background="new 0 0 52 54" xml:space="preserve">
<g style="-webkit-svg-shadow: 1px 1px 4px rgba(0, 0, 0, 0.5)">
	<linearGradient id="SVGID_1_" gradientUnits="userSpaceOnUse" x1="31.0171" y1="46" x2="31.0171" y2="6.0483">
		<stop  offset="0" style="stop-color:#0CAC35"/>
		<stop  offset="1" style="stop-color:#2CDE14"/>
	</linearGradient>
	<path fill="url(#SVGID_1_)" stroke="#000000" stroke-width="0.25" d="M13.979,26.781c-0.688,0-4.922,0-5.578,0
		S7.167,27.328,7.167,28s0,15.375,0,16s0.609,1.25,1.234,1.25s5.031,0,5.578,0s1.219-0.563,1.219-1.25s0-15.25,0-16
		S14.667,26.781,13.979,26.781z"/>
	<path fill="url(#SVGID_1_)" stroke="#000000" stroke-width="0.25" d="M43.979,28.609c0.052-0.484,1.438-1.686,1.368-2.501
		s-1.561-3.712-3.165-3.952s-0.969-0.089-2.849-0.177c-3.636-0.17-6.094,0.036-7.188-0.042c-0.512-0.037-0.767-1.206-0.167-2.391
		c2.416-4.771,3.5-7.234,2.271-10.547s-4.333-3.156-4.676-2.723c-0.461,0.582-0.744,5.969-1.47,7.129s-0.636,1.64-3.781,4.203
		c-0.295,0.241-2.531,5.669-3.078,6.406c-0.365,0.491-1.555,2.489-2.594,3.219c-0.4,0.281-1.969,0.281-1.969,0.281v16.469
		c0,0,4.266,1.109,8.068,1.599s12.932,0.62,14.167,0s2.969-1.739,3.219-2.833s-0.234-1.656,0.109-2.438s2.203-1.969,2.25-2.906
		s-1.021-2.729-0.906-3.156s1.656-1.875,1.759-2.417S43.927,29.094,43.979,28.609z"/>
</g>
</svg>
