<?xml version="1.0" encoding="utf-8"?>
<!-- Generator: Adobe Illustrator 15.0.0, SVG Export Plug-In . SVG Version: 6.00 Build 0)  -->
<!DOCTYPE svg PUBLIC "-//W3C//DTD SVG 1.1//EN" "http://www.w3.org/Graphics/SVG/1.1/DTD/svg11.dtd">
<svg version="1.1" id="Layer_1" xmlns="http://www.w3.org/2000/svg" xmlns:xlink="http://www.w3.org/1999/xlink" x="0px" y="0px"
	 width="38.375px" height="38.375px" viewBox="0 0 38.375 38.375" enable-background="new 0 0 38.375 38.375" xml:space="preserve">
<g>
	<polygon fill="#FFFFFF" stroke="#1A1A1A" stroke-linecap="round" stroke-linejoin="round" stroke-miterlimit="10" points="
		33.875,22.63 32.229,21.276 31.188,22.28 31.188,31.276 7.188,31.276 7.188,21.729 6.208,22.63 4.563,21.276 3.188,22.601 
		3.188,35.276 35.188,35.276 35.188,21.423 	"/>
	<path fill="#FFFFFF" stroke="#1A1A1A" stroke-linecap="round" stroke-linejoin="round" stroke-miterlimit="10" d="M4.563,18.215
		l1.229,1.062l1.396-1.167V7.277h2v10h18v-10h2.343l1.657,1.657v10.153l1.042-0.873l1.229,1.063l1.729-1.446V7.277l-4-4h-28v16.089
		L4.563,18.215z M19.188,7.277h4v8h-4V7.277z"/>
</g>
</svg>
