<?xml version="1.0" encoding="utf-8"?>
<!-- Generator: Adobe Illustrator 15.0.0, SVG Export Plug-In . SVG Version: 6.00 Build 0)  -->
<!DOCTYPE svg PUBLIC "-//W3C//DTD SVG 1.1//EN" "http://www.w3.org/Graphics/SVG/1.1/DTD/svg11.dtd">
<svg version="1.1" id="Layer_1" xmlns="http://www.w3.org/2000/svg" xmlns:xlink="http://www.w3.org/1999/xlink" x="0px" y="0px"
	 width="36.25px" height="36.25px" viewBox="-2 -2 36.25 36.25" enable-background="new -2 -2 36.25 36.25" xml:space="preserve">
<path opacity="0.3" d="M7.531,33.25h20l2-22h-24L7.531,33.25z M21.531,5.25v-4h-8v4h-10v6l2-2h24l2,2v-6H21.531z M19.531,5.25h-4v-2
	h4V5.25z"/>
<path fill="#FFFFFF" d="M6,32h20l2-22H4L6,32z M20,4V0h-8v4H2v6l2-2h24l2,2V4H20z M18,4h-4V2h4V4z"/>
</svg>
