<?xml version="1.0" encoding="utf-8"?>
<!-- Generator: Adobe Illustrator 15.0.0, SVG Export Plug-In . SVG Version: 6.00 Build 0)  -->
<!DOCTYPE svg PUBLIC "-//W3C//DTD SVG 1.1//EN" "http://www.w3.org/Graphics/SVG/1.1/DTD/svg11.dtd">
<svg version="1.1" id="Layer_1" xmlns="http://www.w3.org/2000/svg" xmlns:xlink="http://www.w3.org/1999/xlink" x="0px" y="0px"
	 width="32px" height="32px" viewBox="0 -2.411 32 32" enable-background="new 0 -2.411 32 32" xml:space="preserve">
<path fill="#FFFFFF" stroke="#000000" stroke-linecap="round" stroke-linejoin="round" stroke-miterlimit="10" d="M19.679,13.816
	v3.616h4.283l-4.856,4.855c-3.063,3.068-8.414,3.068-11.48,0l-2.56,2.555c2.216,2.215,5.166,3.439,8.303,3.439
	c3.14,0,6.078-1.225,8.292-3.439l5.251-5.244v5.066h3.614V13.819H19.679V13.816z M12.448,10.201H8.163l4.856-4.855
	c3.063-3.069,8.413-3.069,11.48,0l2.56-2.552c-2.213-2.218-5.166-3.441-8.304-3.441c-3.136,0-6.078,1.223-8.291,3.441L5.216,8.036
	V2.97H1.6v10.846h10.847v-3.615H12.448z"/>
</svg>
