<?xml version="1.0" encoding="utf-8"?>
<!-- Generator: Adobe Illustrator 15.0.0, SVG Export Plug-In . SVG Version: 6.00 Build 0)  -->
<!DOCTYPE svg PUBLIC "-//W3C//DTD SVG 1.1//EN" "http://www.w3.org/Graphics/SVG/1.1/DTD/svg11.dtd">
<svg version="1.1" id="Layer_1" xmlns="http://www.w3.org/2000/svg" xmlns:xlink="http://www.w3.org/1999/xlink" x="0px" y="0px"
	 width="33.666px" height="34.896px" viewBox="0 -1.229 33.666 34.896" enable-background="new 0 -1.229 33.666 34.896"
	 xml:space="preserve">
<path fill="#FFFFFF" stroke="#000000" stroke-width="2" stroke-linecap="round" stroke-linejoin="round" stroke-miterlimit="100" d="
	M30.017,19.418c-1.682-2.907-0.67-6.633,2.254-8.327l-3.146-5.447c-0.896,0.527-1.941,0.829-3.059,0.829
	c-3.359,0-6.084-2.742-6.084-6.125h-6.293c0.008,1.044-0.252,2.103-0.811,3.07c-1.678,2.908-5.41,3.897-8.338,2.211l-3.144,5.447
	c0.905,0.515,1.689,1.268,2.246,2.234c1.676,2.903,0.672,6.622-2.241,8.319l3.145,5.445c0.895-0.521,1.935-0.818,3.044-0.818
	c3.35,0,6.067,2.725,6.084,6.092h6.291c-0.004-1.035,0.26-2.08,0.813-3.039c1.678-2.9,5.396-3.895,8.324-2.219l3.145-5.447
	c-0.896-0.514-1.68-1.266-2.229-2.227V19.418L30.017,19.418z M16.832,22.829c-3.578,0-6.479-2.9-6.479-6.479
	c0-3.58,2.901-6.479,6.479-6.479c3.579,0,6.481,2.901,6.481,6.479C23.313,19.926,20.411,22.829,16.832,22.829z"/>
</svg>
