<?xml version="1.0" encoding="utf-8"?>
<!-- Generator: Adobe Illustrator 15.0.0, SVG Export Plug-In . SVG Version: 6.00 Build 0)  -->
<!DOCTYPE svg PUBLIC "-//W3C//DTD SVG 1.1//EN" "http://www.w3.org/Graphics/SVG/1.1/DTD/svg11.dtd">
<svg version="1.1" id="Layer_1" xmlns="http://www.w3.org/2000/svg" xmlns:xlink="http://www.w3.org/1999/xlink" x="0px" y="0px"
	 width="36.5px" height="36.5px" viewBox="-2.167 -2.167 36.5 36.5" enable-background="new -2.167 -2.167 36.5 36.5"
	 xml:space="preserve">
<path opacity="0.3" d="M17.084,7.372V5.334h4v-2c0-1.105-0.895-2-2-2h-6c-1.105,0-2,0.895-2,2v2h4v2.038
	c-6.712,0.511-12,6.119-12,12.962c0,7.18,5.82,13,13,13c7.18,0,13-5.82,13-13C29.084,13.491,23.796,7.883,17.084,7.372z
	 M23.154,27.404c-1.889,1.89-4.399,2.93-7.07,2.93s-5.182-1.04-7.071-2.93c-1.889-1.889-2.929-4.399-2.929-7.07
	s1.04-5.182,2.929-7.071c1.814-1.814,4.201-2.844,6.754-2.923l-0.678,9.813c-0.058,0.822,0.389,1.182,0.995,1.182
	c0.606,0,1.054-0.359,0.995-1.182l-0.678-9.813c2.553,0.079,4.94,1.11,6.755,2.923c1.889,1.889,2.929,4.4,2.929,7.071
	s-1.04,5.182-2.929,7.07H23.154z"/>
<path fill="#FFFFFF" stroke="#000000" stroke-width="0.25" stroke-linecap="round" stroke-linejoin="round" stroke-miterlimit="10" d="
	M16,6.038V4h4V2c0-1.105-0.895-2-2-2h-6c-1.105,0-2,0.895-2,2v2h4v2.038C7.288,6.549,2,12.157,2,19c0,7.18,5.82,13,13,13
	c7.18,0,13-5.82,13-13C28,12.157,22.712,6.549,16,6.038z M22.07,26.07C20.182,27.96,17.671,29,15,29s-5.182-1.04-7.071-2.93
	C6.04,24.182,5,21.671,5,19s1.04-5.182,2.929-7.071c1.814-1.814,4.201-2.844,6.754-2.923l-0.677,9.813
	C13.948,19.641,14.395,20,15.001,20s1.053-0.359,0.995-1.182l-0.677-9.813c2.552,0.079,4.94,1.11,6.754,2.923
	c1.889,1.889,2.929,4.4,2.929,7.071s-1.04,5.182-2.929,7.07H22.07z"/>
</svg>
