<?xml version="1.0" encoding="utf-8"?>
<!-- Generator: Adobe Illustrator 15.0.0, SVG Export Plug-In . SVG Version: 6.00 Build 0)  -->
<!DOCTYPE svg PUBLIC "-//W3C//DTD SVG 1.1 Tiny//EN" "http://www.w3.org/Graphics/SVG/1.1/DTD/svg11-tiny.dtd">
<svg version="1.1" baseProfile="tiny" id="Layer_1" xmlns="http://www.w3.org/2000/svg" xmlns:xlink="http://www.w3.org/1999/xlink"
	 x="0px" y="0px" width="569.32px" height="196.333px" viewBox="0 0 569.32 196.333" xml:space="preserve">
<g>
	<path d="M197.463,168.151c0,4.807,1.103,5.911,6.541,5.911h19.624c5.438,0,6.227-2.916,6.936-14.816
		c1.419,1.024,3.704,2.049,5.359,2.443c-1.024,13.162-2.838,17.575-12.137,17.575h-19.939c-9.222,0-11.979-2.286-11.979-11.27V142.3
		l-21.674,3.468l-0.945-5.202l22.619-3.704v-26.56l7.172,0.473c-0.079,0.552-0.474,0.946-1.576,1.104v24.116l42.794-7.014
		l0.867,5.359l-43.661,7.015V168.151z"/>
	<path d="M265.163,124.489v31.682c4.729-1.024,9.772-2.207,14.658-3.31l0.552,4.965c-11.033,2.68-22.855,5.438-30.105,7.172
		c-0.079,0.552-0.552,1.025-1.104,1.182l-2.286-6.147c3.626-0.709,8.039-1.655,12.926-2.68v-32.864h-11.979v-5.202h29.633v5.202
		H265.163z M320.567,118.42h-26.639c-1.261,6.305-2.837,13.319-4.335,19.624h24.511l1.261-0.157l3.074,0.63
		c-0.079,0.473-0.158,1.104-0.315,1.655c-1.971,25.771-3.861,35.387-7.329,38.854c-2.128,2.285-4.256,2.68-9.615,2.68
		c-2.68,0-6.068-0.158-9.536-0.395c-0.236-1.576-0.946-3.783-1.892-5.359c5.438,0.552,10.719,0.552,12.768,0.552
		c1.733,0,2.758-0.079,3.704-0.946c2.758-2.443,4.571-11.27,6.305-32.392h-24.116c-0.631,2.364-1.183,4.65-1.734,6.542l-5.517-0.946
		c2.364-7.724,5.28-20.176,7.251-30.343H276.59v-5.28h43.978V118.42z"/>
	<path d="M344.449,138.281c2.521,2.758,9.457,11.585,11.112,13.792l-3.389,4.177c-1.419-2.601-4.887-7.802-7.724-11.743v37.042
		h-5.123V142.3c-2.995,9.379-7.093,18.679-11.271,24.195c-0.551-1.418-1.891-3.546-2.916-4.729
		c5.438-6.857,10.955-19.782,13.556-31.052H327.11v-4.965h12.216v-17.338l6.62,0.473c-0.079,0.552-0.473,0.867-1.497,1.024v15.841
		h10.64v4.965h-10.64V138.281z M393.706,134.104l0.946-0.236c2.521,0.867,2.916,1.024,3.23,1.261
		c-0.078,0.394-0.394,0.709-0.63,0.867c-2.522,12.216-7.251,22.146-13.398,29.87c4.65,5.044,10.246,9.063,16.708,11.506
		c-1.261,1.024-2.758,3.074-3.546,4.414c-6.384-2.758-11.9-6.856-16.472-12.058c-4.887,5.123-10.482,9.063-16.393,11.9
		c-0.71-1.261-2.128-3.152-3.311-4.177c5.911-2.522,11.507-6.463,16.393-11.743c-5.044-6.778-8.827-14.896-11.428-24.038
		l4.414-1.104c2.285,7.881,5.753,15.132,10.324,21.279c4.729-6.305,8.59-13.95,10.876-22.855h-26.954
		c-0.236,13.162-2.128,30.5-11.033,42.479c-0.867-1.024-3.074-2.679-4.256-3.231c9.221-12.374,10.167-29.712,10.167-42.479v-22.383
		h39.169v4.965h-34.047v15.762H393.706z"/>
</g>
<g>
	<path d="M30.072,37.224c0-7.326-0.198-21.978-0.495-24.255c-15.84,0-22.968,2.475-25.641,4.158
		c-0.792,2.178-1.386,6.039-1.98,9.306l-2.277,0.594C0.076,22.275,1.264,9.9,1.165,2.079l2.277,0.396
		C3.541,3.762,3.739,6.831,4.036,8.91C5.62,9.207,22.647,9.9,36.012,9.9c14.355,0,31.481-0.693,33.065-0.99
		c0.396-1.188,0.99-4.257,1.386-6.138l2.475-0.396c-0.594,2.277-2.871,22.572-3.168,25.542l-2.277-0.594
		c0.198-3.96,0.297-8.019,0.198-10.197c-2.475-1.98-16.236-4.158-25.839-4.158c-0.297,2.673-0.495,17.127-0.495,24.255v4.455
		c0,8.712,0.198,25.443,0.495,33.363c1.881,0.297,10.89,1.188,12.771,1.386l0.396,2.079c-2.376-0.198-13.959-0.396-19.404-0.396
		c-4.455,0-16.335,0.198-19.206,0.396l0.495-2.079c2.277-0.198,10.296-1.089,12.672-1.386c0.297-7.722,0.495-24.75,0.495-33.363
		V37.224z"/>
	<path d="M111.45,76.427c3.465-0.297,6.93-0.693,9.999-1.386c-1.782-5.148-8.811-26.136-10.395-29.007
		c-3.465,0-19.206,0.693-22.869,1.287c-0.594,1.386-5.94,20.097-6.93,27.72c2.475,0.693,5.742,1.089,8.514,1.386l0.396,2.079
		c-3.069-0.198-12.078-0.396-14.949-0.396c-2.574,0-9.207,0.198-11.484,0.396l0.297-2.079c2.871-0.297,5.841-0.792,8.514-1.386
		c3.563-6.237,23.265-59.499,24.65-63.26c-2.178-0.594-5.445-0.99-7.821-1.287l-0.099-2.079c2.97,0.198,11.187,0.396,12.87,0.396
		c4.158,0,14.058-0.198,16.929-0.396l-0.297,2.079c-2.574,0.297-5.247,0.693-7.524,1.287c1.188,4.355,6.633,19.898,10.395,30.293
		c2.771,7.623,8.91,24.255,13.464,32.967c2.871,0.594,5.742,0.99,8.712,1.386l0.297,2.079c-1.188-0.198-11.187-0.396-16.434-0.396
		c-2.871,0-14.058,0.198-16.731,0.396L111.45,76.427z M100.263,13.464h-0.198c-3.069,8.811-9.504,25.938-10.494,29.205l20.79,0.396
		C108.183,36.531,101.946,18.909,100.263,13.464z"/>
	<path d="M143.625,8.811c5.544-0.198,14.85-0.297,22.572-0.693c2.178,3.366,22.077,28.313,23.76,30.096
		c2.574,2.772,18.315,21.879,21.483,24.552c0-10.989-0.099-45.738-2.079-50.886c-1.98-0.396-7.227-1.188-9.999-1.386l-0.495-2.079
		c1.881,0.198,12.573,0.396,14.751,0.396c2.178,0,10.395-0.198,12.474-0.396l-0.396,2.079c-1.287,0.198-4.851,0.99-7.524,1.386
		c-1.188,3.861-1.683,17.82-1.881,20.988c-0.297,4.653-1.089,46.233-1.683,50.193c-2.97-2.772-30.393-34.749-32.67-37.323
		c-1.386-1.485-20.196-24.453-23.463-28.215c-0.297,1.98,0.891,53.955,2.178,57.519c1.485,0.495,8.91,1.188,10.791,1.386
		l0.297,2.079c-1.782-0.198-12.078-0.396-14.652-0.396c-2.871,0-10.593,0.198-13.464,0.396l0.297-2.079
		c2.772-0.396,5.94-0.693,8.217-1.386c1.683-4.158,2.772-59.697,2.772-62.963c-2.277-0.495-7.128-0.99-10.89-1.188L143.625,8.811z"
		/>
	<path d="M306.182,64.746c0,3.663,0,8.91,0.197,11.682c-5.742,1.683-18.612,3.267-25.344,3.267c-6.435,0-17.918-0.594-26.234-4.752
		C242.327,68.706,235.1,57.519,235.1,45.144c0-13.959,6.93-23.958,15.642-29.897c9.009-6.138,19.008-8.019,29.105-8.019
		c8.514,0,18.909,1.287,22.176,2.475c0.396-1.584,1.484-7.128,1.781-9.207L306.082,0c-0.594,3.861-1.684,21.384-1.387,30.591
		l-2.275-1.188c-0.199-3.366-0.693-6.831-1.09-9.108c-2.574-3.069-9.603-9.603-25.74-9.603c-17.226,0-28.71,12.771-28.71,28.611
		c0,16.137,13.761,36.828,35.145,36.828c2.574,0,8.415-0.396,12.573-2.574c0.198-1.485,0.297-4.851,0.297-9.801v-5.247
		c0-3.069-0.099-6.138-0.396-7.92c-1.98-0.198-8.118-0.693-9.999-1.089l-0.595-2.079c5.148,0.198,12.771,0.297,16.237,0.297
		c4.752,0,14.354-0.099,15.543-0.297l-0.496,2.079c-0.891,0.099-6.434,0.594-8.613,1.089c-0.297,1.683-0.395,8.217-0.395,10.989
		V64.746z"/>
	<path d="M335.188,36.333c0-3.564-0.1-22.572-0.494-24.453c-1.684-0.396-8.416-0.99-10.594-1.188l-0.297-2.079l21.385-0.099
		c9.404,0,21.186,0.099,27.916,2.772c5.248,2.079,8.516,5.841,8.516,11.286c0,6.237-6.336,14.454-13.959,18.711
		c1.088,2.475,17.027,28.413,27.322,39.303l-4.355,0.693c-6.93-3.168-33.264-33.561-34.848-35.64
		c-3.762,0.297-7.82,0.594-9.504,0.594v2.574c0,6.435,0.199,21.681,0.496,26.235c1.682,0.495,8.217,1.188,10.395,1.386l0.395,2.079
		c-2.475-0.198-12.473-0.396-17.027-0.396c-4.059,0-14.453,0.198-16.73,0.396l0.396-2.079c1.385-0.099,7.721-0.693,10.494-1.386
		c0.395-2.871,0.494-22.275,0.494-32.67V36.333z M346.275,43.164c3.564,0,7.82-0.297,12.078-1.881s11.285-6.138,11.285-15.939
		c0-6.336-5.74-14.058-22.867-14.058c-0.297,4.059-0.496,21.78-0.496,28.809V43.164z"/>
	<path d="M434.979,76.427c3.465-0.297,6.93-0.693,10-1.386c-1.783-5.148-8.811-26.136-10.395-29.007
		c-3.465,0-19.207,0.693-22.869,1.287c-0.594,1.386-5.939,20.097-6.93,27.72c2.475,0.693,5.742,1.089,8.514,1.386l0.395,2.079
		c-3.068-0.198-12.076-0.396-14.947-0.396c-2.574,0-9.207,0.198-11.484,0.396l0.297-2.079c2.871-0.297,5.842-0.792,8.514-1.386
		c3.564-6.237,23.266-59.499,24.65-63.26c-2.178-0.594-5.443-0.99-7.82-1.287l-0.1-2.079c2.971,0.198,11.188,0.396,12.871,0.396
		c4.158,0,14.057-0.198,16.928-0.396l-0.297,2.079c-2.574,0.297-5.246,0.693-7.523,1.287c1.188,4.355,6.633,19.898,10.395,30.293
		c2.771,7.623,8.91,24.255,13.465,32.967c2.871,0.594,5.742,0.99,8.711,1.386l0.297,2.079c-1.188-0.198-11.188-0.396-16.434-0.396
		c-2.871,0-14.059,0.198-16.73,0.396L434.979,76.427z M423.793,13.464h-0.199c-3.068,8.811-9.504,25.938-10.494,29.205l20.791,0.396
		C431.713,36.531,425.475,18.909,423.793,13.464z"/>
	<path d="M537.244,76.427c1.387-0.099,8.91-0.99,10.891-1.188c-0.197-3.663-8.811-48.212-10-55.538h-0.395
		c-2.674,6.039-22.176,53.558-25.146,59.201c-2.771-6.138-21.383-55.539-22.572-59.3h-0.395c-2.574,15.147-8.416,42.668-8.02,55.439
		c1.781,0.396,7.326,1.188,8.811,1.386l0.396,2.079c-1.387-0.198-12.871-0.396-14.752-0.396c-2.672,0-7.721,0.198-10.988,0.396
		l0.693-2.079c1.684-0.297,4.852-0.693,7.029-1.287c2.178-6.237,12.969-55.143,14.453-63.261c-2.672-0.396-8.711-1.188-9.801-1.386
		l-0.594-2.079c1.287,0.198,9.008,0.396,14.256,0.396c4.256,0,12.078-0.198,14.85-0.396l-0.396,2.079
		c-2.771,0.297-5.543,0.99-7.424,1.386c2.871,9.009,14.949,41.382,18.018,48.906c2.871-5.643,19.998-46.628,20.195-48.906
		c-1.881-0.693-4.949-1.089-6.732-1.386l-0.494-2.079c3.168,0.198,9.9,0.396,13.365,0.396c3.168,0,11.482-0.198,13.76-0.396
		l-0.297,2.079c-1.385,0.198-6.236,0.891-8.316,1.386c1.883,11.088,11.287,56.925,12.971,63.162
		c2.475,0.594,6.434,1.089,8.217,1.386l0.494,2.079c-3.365-0.198-9.307-0.396-13.959-0.396c-4.555,0-15.443,0.198-18.314,0.396
		L537.244,76.427z"/>
</g>
</svg>
