<?xml version="1.0" encoding="utf-8"?>
<!-- Generator: Adobe Illustrator 15.0.0, SVG Export Plug-In . SVG Version: 6.00 Build 0)  -->
<!DOCTYPE svg PUBLIC "-//W3C//DTD SVG 1.1//EN" "http://www.w3.org/Graphics/SVG/1.1/DTD/svg11.dtd">
<svg version="1.1" id="Layer_1" xmlns="http://www.w3.org/2000/svg" xmlns:xlink="http://www.w3.org/1999/xlink" x="0px" y="0px"
	 width="2289.229px" height="1386.138px" viewBox="0 0 2289.229 1386.138" enable-background="new 0 0 2289.229 1386.138"
	 xml:space="preserve">
<g>
	<linearGradient id="SVGID_1_" gradientUnits="userSpaceOnUse" x1="1154.5024" y1="1052.6255" x2="1154.5024" y2="1172.3221">
		<stop  offset="0" style="stop-color:#000000"/>
		<stop  offset="1" style="stop-color:#474747"/>
	</linearGradient>
	<path fill="url(#SVGID_1_)" d="M993.421,1037.958c0,17.449,3.352,50,44.019,54.666s198.001,3.334,228.667,0
		s48.287-25.332,49.477-54.666C1270.107,1037.958,1028.107,1037.958,993.421,1037.958z"/>
	<path fill="#474747" d="M1145.107,1051.841c0,8.586,0,40.605,0,40.605c11.669-0.025,18.666-4.354,18.666-12.688
		c0-8.332,0-22.42,0-27.918S1145.107,1043.257,1145.107,1051.841z"/>
	<path fill="#595757" d="M1115.441,1037.958c-57.182,0-107.576,0-122.02,0c0,2.949,0.103,6.338,0.458,9.943
		c27.397,4.309,86.548,7.139,121.562,7.139V1037.958z"/>
	<path fill="#595757" d="M1190.107,1037.958v17.082c36.309,0,98.573-3.043,124.469-7.623c0.531-3.055,0.876-6.209,1.008-9.459
		C1297.128,1037.958,1246.305,1037.958,1190.107,1037.958z"/>
	<rect x="1115.441" y="1035.292" fill="#FFFFFF" width="74.666" height="19.748"/>
	<g>
		<linearGradient id="SVGID_2_" gradientUnits="userSpaceOnUse" x1="1660.6206" y1="742.8159" x2="1278.8623" y2="870.069">
			<stop  offset="0" style="stop-color:#000000"/>
			<stop  offset="1" style="stop-color:#474747"/>
		</linearGradient>
		<path fill="url(#SVGID_2_)" d="M1321.036,797.615c45.996-10.943,135.146-47.115,169.6-96.918
			c18.867-27.273,243.34,92.15,230.797,102.486c-119.162,98.186-366.405,92.115-408.856,89.414
			C1264.796,889.556,1275.038,808.558,1321.036,797.615z"/>
		<linearGradient id="SVGID_3_" gradientUnits="userSpaceOnUse" x1="926.5664" y1="1012.3335" x2="926.5664" y2="829.202">
			<stop  offset="0" style="stop-color:#000000"/>
			<stop  offset="1" style="stop-color:#474747"/>
		</linearGradient>
		<path fill="url(#SVGID_3_)" d="M978.993,804.113c-46,14.666-138.75,58.133-138.75,116.984c0,64,40.176,106.365,82.482,131.744
			c7.982-17.615,29.854-54.873,41.033-66.707c-12.445-8.666-52.103-42.834-52.103-61.686c0-21.613,54.808-49.533,68.438-56.27
			C1023.015,846.968,1024.993,789.447,978.993,804.113z"/>
		<path fill="#EDB570" d="M954,996.929c5.904-13.635,13.647-31.17,25.146-36.236s3.319,20.605-3.224,25.439
			C969.379,990.968,954,996.929,954,996.929z"/>
		<g>
			<rect x="992.33" y="809.748" fill="#FFFFFF" width="322.162" height="234.553"/>
			<g>
				<g>
					<path fill="#858585" d="M1153.681,874.3c-44.667,0-79.334-14-79.334-14l11.334-40.666l123.333,2.666l8,40
						C1217.014,862.3,1197.681,874.3,1153.681,874.3z"/>
					<g>
						<path fill="#858585" d="M1130.015,808.095H994.739c0.539,5.066-15.419,21.816-15.593,44.033
							c25.192,20.605,73.869,40.672,115.869,54.672C1102.992,868.994,1130.015,808.095,1130.015,808.095z"/>
					</g>
					<g>
						<g>
							<path fill="#858585" d="M1176.806,808.095h151.022c-0.539,5.066-0.327,21.816-0.153,44.033
								c-25.192,20.605-73.869,40.672-115.869,54.672C1203.83,868.994,1176.806,808.095,1176.806,808.095z"/>
						</g>
					</g>
					<g>
						<polygon fill="#858585" points="1173.681,897.285 1147.015,897.285 1120.985,1012.595 1160.349,1046.32 1199.712,1012.595 
													"/>
						<g>
							<path fill="#858585" d="M1098.349,844.63h124l6,12c0,0-55.334,36.668-60.668,38.668c-5.332,2-15.999,2-19.332-0.668
								c-3.334-2.666-57.334-38.666-57.334-38.666L1098.349,844.63z"/>
						</g>
						<g>
							<path fill="#FF5C00" d="M1093.492,829.095h124l6,12c0,0-55.334,36.668-60.668,38.668c-5.332,2-15.998,2-19.332-0.668
								c-3.334-2.666-57.334-38.666-57.334-38.666L1093.492,829.095z"/>
							<polygon fill="#FF5C00" points="1168.824,875.248 1142.158,875.248 1116.128,990.558 1155.492,1024.283 1194.855,990.558 
															"/>
						</g>
						<g>
							<g>
								<path fill="#D5DBDE" d="M1317.447,805.896c-0.991-1.514-2.129-2.898-3.374-4.188c-37.952-7.227-137.267,6.387-137.267,6.387
									s18.213,23.707,32.958,47.631C1263.052,845.273,1325.056,817.521,1317.447,805.896z"/>
							</g>
						</g>
						<g>
							<g>
								<path fill="#D5DBDE" d="M989.375,805.896c0.991-1.514,2.129-2.898,3.374-4.188c37.952-7.227,137.267,6.387,137.267,6.387
									s-18.213,23.707-32.958,47.631C1043.769,845.273,981.765,817.521,989.375,805.896z"/>
							</g>
						</g>
					</g>
				</g>
				<g>
					
						<linearGradient id="SVGID_4_" gradientUnits="userSpaceOnUse" x1="-420.6074" y1="1025.647" x2="-420.6074" y2="779.9235" gradientTransform="matrix(-1 0 0 1 815.127 0)">
						<stop  offset="0" style="stop-color:#000000"/>
						<stop  offset="1" style="stop-color:#474747"/>
					</linearGradient>
					<path fill="url(#SVGID_4_)" d="M1301.141,789.46c16.962-1.131,27.598,15.135,37,35c0,40.791-2.444,249.957-5.482,271.834
						c-9.189,1.254-112.284,13.033-198.667,10.668c-3-29,5.148-154.502,5.148-154.502s109-135,124.001-161
						C1275.141,791.46,1286.141,790.46,1301.141,789.46z"/>
					
						<linearGradient id="SVGID_5_" gradientUnits="userSpaceOnUse" x1="-477.1777" y1="1051.4917" x2="-477.1777" y2="988.6112" gradientTransform="matrix(-1 0 0 1 779.9814 0)">
						<stop  offset="0" style="stop-color:#000000"/>
						<stop  offset="1" style="stop-color:#474747"/>
					</linearGradient>
					<path fill="url(#SVGID_5_)" d="M1213.16,1015.292c0.332,6,0,10.334,0,15.334c15.332,1.334,72.333,0,87.999-2.334
						c0-7.666,0-12.666,0-17C1287.826,1013.292,1233.16,1015.626,1213.16,1015.292z"/>
					
						<linearGradient id="SVGID_6_" gradientUnits="userSpaceOnUse" x1="-358.4458" y1="903.2974" x2="-358.4458" y2="778.0663" gradientTransform="matrix(-1 0 0 1 854.0117 0)">
						<stop  offset="0" style="stop-color:#000000"/>
						<stop  offset="1" style="stop-color:#474747"/>
					</linearGradient>
					<path fill="url(#SVGID_6_)" d="M1262.141,790.46l-123.001,162c20.5-3,112.5-66,115.001-68c2.5-2-8.501-27.5-7.001-30
						s32.001-8.5,32.001-8.5c3-3,8.5-55.5,6-55.5S1262.141,790.46,1262.141,790.46z"/>
				</g>
				<g>
					
						<linearGradient id="SVGID_7_" gradientUnits="userSpaceOnUse" x1="-916.0645" y1="1062.5269" x2="-916.0645" y2="821.545" gradientTransform="matrix(1 0 0 1 1995.5107 0)">
						<stop  offset="0" style="stop-color:#000000"/>
						<stop  offset="1" style="stop-color:#474747"/>
					</linearGradient>
					<path fill="url(#SVGID_7_)" d="M1016.515,796.083c-18,1.473-27.777,3.512-37.522,8.029c0,40.791-1.22,270.305,1.818,292.182
						c9.189,1.254,112.284,13.033,198.667,10.668c3-29-5.149-154.502-5.149-154.502s-106.818-130.377-121.819-156.377
						C1040.509,796.083,1031.499,794.857,1016.515,796.083z"/>
					<linearGradient id="SVGID_8_" gradientUnits="userSpaceOnUse" x1="1056.1597" y1="1051.4917" x2="1056.1597" y2="988.6112">
						<stop  offset="0" style="stop-color:#000000"/>
						<stop  offset="1" style="stop-color:#474747"/>
					</linearGradient>
					<path fill="url(#SVGID_8_)" d="M1100.16,1015.292c-0.334,6,0,10.334,0,15.334c-15.334,1.334-72.334,0-88-2.334
						c0-7.666,0-12.666,0-17C1025.493,1013.292,1080.16,1015.626,1100.16,1015.292z"/>
					<linearGradient id="SVGID_9_" gradientUnits="userSpaceOnUse" x1="1097.0938" y1="900.1362" x2="1097.0938" y2="774.5187">
						<stop  offset="0" style="stop-color:#000000"/>
						<stop  offset="1" style="stop-color:#474747"/>
					</linearGradient>
					<path fill="url(#SVGID_9_)" d="M1047.739,789.96l126.59,162.5c-20.5-3-120.336-66.5-122.836-68.5s8.5-27.5,7-30s-32-8.5-32-8.5
						c-3-3-8.5-55.5-6-55.5S1047.739,789.96,1047.739,789.96z"/>
					<linearGradient id="SVGID_10_" gradientUnits="userSpaceOnUse" x1="1146.1587" y1="987.5112" x2="1146.1587" y2="974.1115">
						<stop  offset="0" style="stop-color:#000000"/>
						<stop  offset="1" style="stop-color:#474747"/>
					</linearGradient>
					<circle fill="url(#SVGID_10_)" cx="1146.159" cy="983.294" r="8.667"/>
					<linearGradient id="SVGID_11_" gradientUnits="userSpaceOnUse" x1="1146.8252" y1="1038.1772" x2="1146.8252" y2="1024.7776">
						<stop  offset="0" style="stop-color:#000000"/>
						<stop  offset="1" style="stop-color:#474747"/>
					</linearGradient>
					<circle fill="url(#SVGID_11_)" cx="1146.825" cy="1033.962" r="8.667"/>
				</g>
			</g>
		</g>
		<linearGradient id="SVGID_12_" gradientUnits="userSpaceOnUse" x1="979.4531" y1="973.2749" x2="979.4531" y2="1054.1379">
			<stop  offset="0" style="stop-color:#FFE0B3"/>
			<stop  offset="1" style="stop-color:#FFC47D"/>
		</linearGradient>
		<path fill="url(#SVGID_12_)" d="M954,996.929c6.742-11.832,32.053-35.855,53.141-27.189c21.09,8.666,27.756,20.666,25.09,26.666
			c-2.668,6-15.852,5.826-15.852,5.826s15.246,7.736,12.783,18.545c-2.283,10.023-14.793,6.998-14.793,6.998
			s14.545,12.467,11.193,18.379c-5.184,9.146-23.01,1.559-30.209-0.598c-8.977-2.689-15.871,7.285-15.871,17.414
			c-18.99,1.127-46.906-11.965-53.365-16.65C933.309,1032.207,946.887,1009.408,954,996.929z"/>
		<g>
			<path fill="#EB9E4D" d="M1017.143,997.527c-10.35-6.215-20.264-14.477-27.514-10.227c-3.377,1.979-13,6.5-19.5,12.5
				c4.5-2,12.25-5.25,18.564-8.25s17.928,4,27.686,10.682c0,0,13.184,0.174,15.852-5.826
				C1029.52,999.376,1022.592,1000.8,1017.143,997.527z"/>
			<path fill="#EB9E4D" d="M1028.467,1022.839c-0.002,0-0.002,0-0.002,0.002c-2.662,4.039-8.336,2.959-12.086,0.709
				s-19.75-10.25-24.25-12.75s-14.25,3.25-20.75,9.977c8-4.523,15-7.227,18-5.885s16.25,7.158,24.99,12.883
				C1014.37,1027.775,1025.04,1030.349,1028.467,1022.839z"/>
		</g>
	</g>
	<g>
		<path fill="#4A4A4A" d="M1066.271,1251.791c-5.333,8.668-23.333,16-31.333,18.668c-8,2.666-34,5.998-47.333,6.666
			c-13.334,0.666-17.334,14.666-8,19.334c9.333,4.666,41.333,8.666,54,2.666c12.666-6,34.666-12,40-13.334c1,3.668,0.666,7,0.666,7
			s38.667-3.332,38-12.666c-0.549-7.676-2.666-31-2.666-31L1066.271,1251.791z"/>
		<linearGradient id="SVGID_13_" gradientUnits="userSpaceOnUse" x1="1084.0542" y1="1049.7925" x2="1084.0542" y2="1169.4908">
			<stop  offset="0" style="stop-color:#000000"/>
			<stop  offset="1" style="stop-color:#474747"/>
		</linearGradient>
		<path fill="url(#SVGID_13_)" d="M1045.503,1087.123c0,39.438,1.102,100.75,3.102,154.734c8,0.871,74,0,74,0
			c-4.013-58.338-9-115.297-9-153.027C1113.605,1052.542,1045.503,1062.212,1045.503,1087.123z"/>
		<polygon fill="#1F1F1F" points="1041.605,1228.125 1044.105,1256.625 1128.105,1254.625 1127.105,1230.625 		"/>
	</g>
	<g>
		<path fill="#4A4A4A" d="M1239.938,1251.791c5.333,8.668,23.333,16,31.333,18.668c8,2.666,34,5.998,47.334,6.666
			c13.333,0.666,17.333,14.666,8,19.334c-9.334,4.666-41.334,8.666-54,2.666c-12.667-6-34.667-12-40-13.334
			c-1,3.668-0.667,7-0.667,7s-38.667-3.332-38-12.666c0.549-7.676,2.667-31,2.667-31L1239.938,1251.791z"/>
		<linearGradient id="SVGID_14_" gradientUnits="userSpaceOnUse" x1="1223.8735" y1="1049.7925" x2="1223.8735" y2="1169.4908">
			<stop  offset="0" style="stop-color:#000000"/>
			<stop  offset="1" style="stop-color:#474747"/>
		</linearGradient>
		<path fill="url(#SVGID_14_)" d="M1262.424,1084.687c0,39.438-1.102,100.75-3.102,154.734c-8,0.871-74,0-74,0
			c4.013-58.338,9-115.297,9-153.027C1194.323,1050.107,1262.424,1059.777,1262.424,1084.687z"/>
		<polygon fill="#1F1F1F" points="1266.105,1228.125 1263.605,1256.625 1179.605,1254.625 1180.605,1230.625 		"/>
	</g>
	<g>
		<g>
			<g>
				<g>
					<path fill="#FFE0B3" d="M973.974,576.396v118.997c-29.244,4.285-77.725-2.35-77.725-59.672
						C896.25,578.792,944.062,568.958,973.974,576.396z"/>
				</g>
				<path fill="#FFBD65" d="M974.474,609.468c-12.027-7.518-45.1-7.016-45.1,26.057s33.072,31.568,44.6,27.561
					C973.974,651.058,974.474,609.468,974.474,609.468z"/>
			</g>
			<g>
				<g>
					<path fill="#FFE0B3" d="M1350.502,576.396v118.997c29.244,4.285,77.723-2.35,77.723-59.672
						C1428.225,578.792,1380.413,568.958,1350.502,576.396z"/>
				</g>
				<path fill="#FFBD65" d="M1350,609.468c12.027-7.518,45.1-7.016,45.1,26.057s-33.072,31.568-44.598,27.561
					C1350.502,651.058,1350,609.468,1350,609.468z"/>
			</g>
			<linearGradient id="SVGID_15_" gradientUnits="userSpaceOnUse" x1="1162.4438" y1="719.188" x2="1162.4438" y2="818.9628">
				<stop  offset="0" style="stop-color:#FFE0B3"/>
				<stop  offset="1" style="stop-color:#FFBD6D"/>
			</linearGradient>
			<path fill="url(#SVGID_15_)" d="M1357.776,485.358c0-23.234-13.188-36.4-42.068-42.068c-30.037-5.895-91.083-9.604-153.265-9.873
				c-62.182,0.27-123.225,3.979-153.264,9.873c-28.879,5.668-42.066,18.834-42.066,42.068c0,0-13.49,246.833,19.357,291.62
				c15.85,21.607,45.705,37.111,73.09,42.066c49.953,9.037,164.316,8.336,205.766,0c27.284-5.488,57.241-20.459,73.091-42.066
				C1371.264,732.191,1357.776,485.358,1357.776,485.358z"/>
			<g>
				<linearGradient id="SVGID_16_" gradientUnits="userSpaceOnUse" x1="1162.5747" y1="643.1846" x2="1162.5747" y2="534.4169">
					<stop  offset="0" style="stop-color:#FFE0B3"/>
					<stop  offset="1" style="stop-color:#FFBD6D"/>
				</linearGradient>
				<path fill="url(#SVGID_16_)" d="M1358.463,485.358c0-8.275-1.684-15.266-5.143-21.104l-383.114,5.834
					c-1.613,4.514-2.406,9.588-2.406,15.27c0,0-3.115,57.025-2.705,121.23l-0.039,42.367
					c1.801-25.738,25.471-131.332,39.838-145.773c14.365-14.439,91.926,7.684,160.063,7.334
					c72.318-0.369,140.079-21.416,156.079-4.082c16,17.332,32.43,124.072,39.002,150.246
					C1360.448,592.479,1358.463,485.358,1358.463,485.358z"/>
			</g>
			<linearGradient id="SVGID_17_" gradientUnits="userSpaceOnUse" x1="1161.2979" y1="544.7681" x2="1161.2979" y2="651.594">
				<stop  offset="0" style="stop-color:#664000"/>
				<stop  offset="1" style="stop-color:#6B4000"/>
			</linearGradient>
			<path fill="url(#SVGID_17_)" d="M1368.561,478.517c-9.961-46.58-34.254-92-99.462-97c-42.232-3.238-90.49-27-105.391-38
				c4.098,15,8.457,36,8.457,36s-67.889-28-77.125-40c0.766,15-1.764,30,4,38c-23.234-5-74.895-36.184-81.064-49.092
				c-3.17,19.092-3.83,34.092,0,45.092c-16.17-4-40.176-17-54.674-32c-0.496,20,17.555,73.039,1.756,112.996
				c-29.26,74.004-18.057,186.262-0.002,194.443c0-33.486,12.217-128.922,25.773-153.229c1.848-2.029,3.557-4.537,5.072-7.592
				c0.674-0.805,1.244-1.633,1.738-2.475c16.207-17.408,97.977,5,165.49,3.951c67.262-1.047,150.126-17.188,166.28,1.164
				c21.779,24.74,30.627,131.121,30.627,165.904C1373.237,629.489,1382.561,543.991,1368.561,478.517z"/>
			<ellipse fill="#FFD4AB" cx="1019.042" cy="672.979" rx="23.827" ry="16.301"/>
			<ellipse fill="#FFD4AB" cx="1307.591" cy="672.979" rx="23.827" ry="16.301"/>
		</g>
		<g>
			<g>
				<path fill="#FFAB5C" d="M1171.214,656.974c-22.084-4.582-40.488,3.83-45.221,19.08c-4.732,15.249,14.938,20.952,33.498,23.096
					C1124.867,689.001,1146.279,654.683,1171.214,656.974z"/>
			</g>
			<g>
				<linearGradient id="SVGID_18_" gradientUnits="userSpaceOnUse" x1="1094.5269" y1="664.1143" x2="1094.5269" y2="595.0699">
					<stop  offset="0" style="stop-color:#FFE0B3"/>
					<stop  offset="1" style="stop-color:#FFBD6D"/>
				</linearGradient>
				<path fill="url(#SVGID_18_)" d="M1094.529,667.815c-21.488,0-38.969-17.48-38.969-38.967c0-21.484,17.48-38.965,38.969-38.965
					c21.484,0,38.965,17.48,38.965,38.965C1133.494,650.335,1116.013,667.815,1094.529,667.815L1094.529,667.815z"/>
				<path fill="#FFFFFF" d="M1129.494,628.849c0,19.314-15.656,34.967-34.965,34.967c-19.314,0-34.969-15.652-34.969-34.967
					c0-19.311,15.654-34.965,34.969-34.965C1113.837,593.884,1129.494,609.538,1129.494,628.849z"/>
				<linearGradient id="SVGID_19_" gradientUnits="userSpaceOnUse" x1="1094.5278" y1="612.4155" x2="1094.5278" y2="649.8044">
					<stop  offset="0" style="stop-color:#664000"/>
					<stop  offset="1" style="stop-color:#6B4000"/>
				</linearGradient>
				<path fill="url(#SVGID_19_)" d="M1094.527,649.835c-11.57,0-20.984-9.414-20.984-20.986c0-11.57,9.414-20.984,20.984-20.984
					c11.572,0,20.986,9.414,20.986,20.984C1115.513,640.421,1106.099,649.835,1094.527,649.835L1094.527,649.835z"/>
				<circle fill="#FFFFFF" cx="1100.107" cy="616.614" r="4.5"/>
			</g>
			<g>
				<linearGradient id="SVGID_20_" gradientUnits="userSpaceOnUse" x1="1208.1987" y1="664.1143" x2="1208.1987" y2="595.0699">
					<stop  offset="0" style="stop-color:#FFE0B3"/>
					<stop  offset="1" style="stop-color:#FFBD6D"/>
				</linearGradient>
				<path fill="url(#SVGID_20_)" d="M1208.199,668.817c-21.486,0-38.967-17.48-38.967-38.967c0-21.484,17.48-38.965,38.967-38.965
					s38.967,17.48,38.967,38.965C1247.166,651.337,1229.685,668.817,1208.199,668.817L1208.199,668.817z"/>
				<path fill="#FFFFFF" d="M1243.166,629.851c0,19.314-15.656,34.967-34.967,34.967c-19.313,0-34.967-15.652-34.967-34.967
					c0-19.311,15.654-34.965,34.967-34.965C1227.509,594.886,1243.166,610.54,1243.166,629.851z"/>
				<linearGradient id="SVGID_21_" gradientUnits="userSpaceOnUse" x1="1208.8911" y1="613.8818" x2="1208.8911" y2="647.5419">
					<stop  offset="0" style="stop-color:#664000"/>
					<stop  offset="1" style="stop-color:#6B4000"/>
				</linearGradient>
				<path fill="url(#SVGID_21_)" d="M1208.892,650.837c-11.572,0-20.986-9.414-20.986-20.986c0-11.57,9.414-20.984,20.986-20.984
					c11.57,0,20.984,9.414,20.984,20.984C1229.876,641.423,1220.462,650.837,1208.892,650.837L1208.892,650.837z"/>
				<circle fill="#FFFFFF" cx="1214.107" cy="616.614" r="4.5"/>
			</g>
			<path fill="#9E6600" d="M1124.214,557.409c-1.429,0-2.847-0.609-3.836-1.79c-4.996-5.965-16.761-10.13-29.971-10.612
				c-10.639-0.384-19.864,1.806-23.532,5.587c-1.923,1.984-5.088,2.03-7.07,0.108c-1.981-1.923-2.03-5.088-0.107-7.07
				c5.72-5.897,17.355-9.122,31.074-8.619c12.662,0.461,29.103,4.43,37.272,14.184c1.773,2.117,1.494,5.271-0.622,7.043
				C1126.486,557.026,1125.347,557.409,1124.214,557.409z"/>
			<path fill="#9E6600" d="M1181.285,557.409c-1.133,0-2.271-0.383-3.208-1.167c-2.116-1.773-2.396-4.927-0.622-7.043
				c8.17-9.754,24.61-13.723,37.272-14.184c13.714-0.505,25.354,2.721,31.074,8.619c1.923,1.982,1.874,5.147-0.107,7.07
				s-5.147,1.875-7.07-0.108c-3.668-3.781-12.91-5.974-23.532-5.587c-13.21,0.481-24.975,4.647-29.971,10.612
				C1184.131,556.8,1182.713,557.409,1181.285,557.409z"/>
			<g>
				<g>
					<linearGradient id="SVGID_22_" gradientUnits="userSpaceOnUse" x1="1169.2432" y1="770.561" x2="1169.2432" y2="725.651">
						<stop  offset="0" style="stop-color:#FFA78C"/>
						<stop  offset="1" style="stop-color:#ED7A57"/>
					</linearGradient>
					<path fill="url(#SVGID_22_)" d="M1282.894,706.648c-20.987,7.025-63.396,10.77-114.627,10.77
						c-51.232,0-92.876-3.744-112.675-10.77c11.395,38.09,40.354,64.791,112.137,64.791
						C1239.51,771.439,1269.461,743.783,1282.894,706.648z"/>
				</g>
				<g>
					<path fill="#FFFFFF" d="M1085.421,737.419c10.799,7.121,44.322,7.744,83.822,7.744s73.023-0.623,83.822-7.744
						c6.734-4.443,9.268-17.17,10.221-26.117c-23.181,4.012-56.621,6.115-95.02,6.115c-37.938,0-70.605-2.055-93.051-5.973
						C1076.181,720.384,1078.722,733,1085.421,737.419z"/>
				</g>
				<g>
					<path fill="#FFFFFF" d="M1255.057,747.312c-0.62-0.639-1.28-1.203-1.991-1.672c-10.799-7.121-44.322-7.744-83.822-7.744
						s-73.023,0.623-83.822,7.744c-1.128,0.744-2.131,1.73-3.035,2.883c17.771,14.348,44.687,22.916,85.343,22.916
						C1209.142,771.439,1236.63,762.234,1255.057,747.312z"/>
				</g>
			</g>
		</g>
	</g>
	<g>
		
			<linearGradient id="SVGID_23_" gradientUnits="userSpaceOnUse" x1="4046.188" y1="-231.1777" x2="4046.188" y2="250.0079" gradientTransform="matrix(0.1039 0.9946 -0.9946 0.1039 1239.6027 -3282.1165)">
			<stop  offset="0" style="stop-color:#FFE0B3"/>
			<stop  offset="1" style="stop-color:#FFB063"/>
		</linearGradient>
		<path fill="url(#SVGID_23_)" d="M1513.844,994.134c-69.27-28.4-126.441-96.75-79.055-225.768
			c-38.821-116.221-33.833-205.747,27.481-275.256c47.693-54.075,199.836-39.756,267.762-32.609
			c77.006,8.103,102.781,15.824,140.732,79.958c99.774,168.617-19.012,483.064-105.895,487.478
			C1693.695,1031.554,1592.07,1026.203,1513.844,994.134z"/>
		
			<linearGradient id="SVGID_24_" gradientUnits="userSpaceOnUse" x1="1580.5708" y1="232.1494" x2="1471.8123" y2="791.4816" gradientTransform="matrix(0.9987 -0.0507 0.0507 0.9987 36.7292 31.3053)">
			<stop  offset="0" style="stop-color:#FFE0B3"/>
			<stop  offset="0.5091" style="stop-color:#FFD39C"/>
			<stop  offset="1" style="stop-color:#FCAD6B"/>
		</linearGradient>
		<path fill="url(#SVGID_24_)" d="M1469.856,754.167c-4.58-2.375-9.163-5.012-13.737-7.912
			c-61.25-38.846-51.68-122.848-37.767-181.986c16.243-69.046,63.104-138.626,98.073-199.24
			c18.83-32.644,6.802-124.183,13.314-160.78c8.079-45.414,6.542-81.514,54.604-98.149
			c90.129-31.199,150.723,51.676,156.244,127.794c5.084,70.072-15.001,141.015-3,249.025c6.731,60.584-49.995,138.271-84.832,201.61
			C1611.935,758.75,1540.812,790.949,1469.856,754.167z"/>
		
			<linearGradient id="SVGID_25_" gradientUnits="userSpaceOnUse" x1="2072.0933" y1="955.1958" x2="2018.6144" y2="1088.8932" gradientTransform="matrix(1.158 -0.0588 0.0507 0.9987 -709.0942 69.1602)">
			<stop  offset="0" style="stop-color:#FFE0B3"/>
			<stop  offset="0.5091" style="stop-color:#FFD39C"/>
			<stop  offset="1" style="stop-color:#FCAD6B"/>
		</linearGradient>
		<path fill="url(#SVGID_25_)" d="M1834.262,900.832c-35.824-10.932-97.84-8.236-138.102-8.568
			c-43.807-0.365-101.538,0.457-130.015,29.643c-20.026,20.52-15.165,60.529,4.407,78.98c23.143,21.83,64.959,28.314,104.141,30.25
			c59.15,2.918,151.364,10.816,188.447-32.594C1890.847,966.109,1886.013,916.623,1834.262,900.832z"/>
		
			<linearGradient id="SVGID_26_" gradientUnits="userSpaceOnUse" x1="2101.7759" y1="811.9731" x2="2058.4475" y2="978.7869" gradientTransform="matrix(1.158 -0.0588 0.0507 0.9987 -709.0942 69.1602)">
			<stop  offset="0" style="stop-color:#FFE0B3"/>
			<stop  offset="0.5091" style="stop-color:#FFD39C"/>
			<stop  offset="1" style="stop-color:#FCAD6B"/>
		</linearGradient>
		<path fill="url(#SVGID_26_)" d="M1890.817,762.435c-43.266-12.664-118.207-9.393-166.854-9.691
			c-52.939-0.332-122.7,0.758-157.175,34.844c-24.242,23.969-18.455,70.611,5.151,92.082
			c27.926,25.396,78.438,32.873,125.782,35.043c71.472,3.273,182.888,12.283,227.787-38.41
			C1959.061,838.429,1953.327,780.734,1890.817,762.435z"/>
		
			<linearGradient id="SVGID_27_" gradientUnits="userSpaceOnUse" x1="2126.0747" y1="678.6797" x2="2084.7146" y2="839.767" gradientTransform="matrix(1.158 -0.0588 0.0507 0.9987 -709.0942 69.1602)">
			<stop  offset="0" style="stop-color:#FFE0B3"/>
			<stop  offset="0.5091" style="stop-color:#FFD39C"/>
			<stop  offset="1" style="stop-color:#FCAD6B"/>
		</linearGradient>
		<path fill="url(#SVGID_27_)" d="M1928.346,620.403c-47.928-13.693-130.973-10.048-184.884-10.318
			c-58.661-0.299-135.965,0.967-174.21,37.984c-26.89,26.029-20.531,76.614,5.602,99.881
			c30.918,27.518,86.878,35.566,139.342,37.863c79.195,3.467,202.643,13.109,252.458-41.936
			C2003.879,702.751,1997.588,640.177,1928.346,620.403z"/>
		
			<linearGradient id="SVGID_28_" gradientUnits="userSpaceOnUse" x1="2113.896" y1="523.5742" x2="2072.9866" y2="682.9058" gradientTransform="matrix(1.158 -0.0588 0.0507 0.9987 -709.0942 69.1602)">
			<stop  offset="0" style="stop-color:#FFE0B3"/>
			<stop  offset="0.5091" style="stop-color:#FFD39C"/>
			<stop  offset="1" style="stop-color:#FCAD6B"/>
		</linearGradient>
		<path fill="url(#SVGID_28_)" d="M1900.19,465.646c-46.054-13.788-125.796-10.312-177.567-10.69
			c-56.332-0.416-130.567,0.693-167.215,37.629c-25.771,25.975-19.564,76.565,5.579,99.882
			c29.743,27.579,83.499,35.739,133.887,38.142c76.058,3.626,194.626,13.518,242.353-41.422
			C1972.89,548.139,1966.723,485.557,1900.19,465.646z"/>
	</g>
</g>
</svg>
