<?xml version="1.0" encoding="utf-8"?>
<!-- Generator: Adobe Illustrator 14.0.0, SVG Export Plug-In . SVG Version: 6.00 Build 43363)  -->
<!DOCTYPE svg PUBLIC "-//W3C//DTD SVG 1.1//EN" "http://www.w3.org/Graphics/SVG/1.1/DTD/svg11.dtd">
<svg version="1.1" id="Layer_1" xmlns="http://www.w3.org/2000/svg" xmlns:xlink="http://www.w3.org/1999/xlink" x="0px" y="0px"
	 width="32px" height="32px" viewBox="0 0 32 32" enable-background="new 0 0 32 32" xml:space="preserve">
<path fill="#333333" d="M24.5,13H24V7c0-3.308-2.691-6-6-6h-4c-3.308,0-6,2.692-6,6v6H7.5C6.675,13,6,13.675,6,14.5v15
	C6,30.325,6.675,31,7.5,31h17c0.825,0,1.5-0.675,1.5-1.5v-15C26,13.675,25.325,13,24.5,13z M12,7c0-1.103,0.897-2,2-2h4
	c1.104,0,2,0.897,2,2v6h-8V7z"/>
</svg>
