<?xml version="1.0" encoding="utf-8"?>
<!-- Generator: Adobe Illustrator 15.0.0, SVG Export Plug-In  -->
<!DOCTYPE svg PUBLIC "-//W3C//DTD SVG 1.1//EN" "http://www.w3.org/Graphics/SVG/1.1/DTD/svg11.dtd" [
	<!ENTITY ns_flows "http://ns.adobe.com/Flows/1.0/">
]>
<svg version="1.1"
	 xmlns="http://www.w3.org/2000/svg" xmlns:xlink="http://www.w3.org/1999/xlink" xmlns:a="http://ns.adobe.com/AdobeSVGViewerExtensions/3.0/"
	 x="0px" y="0px" width="146px" height="213px" viewBox="0 0 146 213" enable-background="new 0 0 146 213" xml:space="preserve">
<defs>
</defs>
<path fill-rule="evenodd" clip-rule="evenodd" fill="#66A979" d="M143.146,192.048c3.858-14.861-6.658-24.921-21.318-23.406
	c-14.804,1.515-27.435,3.43-43.41,3.716c-14.603,0.257-30.035-0.458-44.467-2.201c-6.944-0.857-14.889-2.829-21.091-0.371
	c-5.286,2.086-9.63,6.772-10.345,13.175c-3.2,29.035,42.81,27.178,65.843,27.521C89.105,210.767,138.431,210.166,143.146,192.048
	L143.146,192.048z"/>
<path fill-rule="evenodd" clip-rule="evenodd" fill="#DD2E27" d="M27.807,130.175c-11.231,3.772-19.548,10.031-13.889,24.664
	c5.172,13.432,12.717,12.688,27.234,13.946c23.834,2.058,54.697,2.4,78.131-1.486c13.432-2.229,23.263-26.063,4.115-35.323
	c-8.03-3.887-9.259-2.572-18.347-1.715c-12.774,1.2-25.834,1.314-38.751,1.2C56.783,131.375,34.15,128.061,27.807,130.175
	L27.807,130.175z"/>
<path fill-rule="evenodd" clip-rule="evenodd" fill="#00A3D3" d="M103.823,96.996c-26.035,3.086-35.552,4.629-62.214,0.686
	c-10.574-1.572-18.404,3.744-17.689,14.718c0.886,12.86,7.287,14.661,18.461,15.519c21.947,1.686,42.609,2.172,64.414-0.086
	C130.6,125.374,127.143,94.224,103.823,96.996L103.823,96.996z"/>
<path fill-rule="evenodd" clip-rule="evenodd" fill="#B2A4D0" d="M44.268,68.875c-11.432,4.943-16.805,25.006,8.459,27.949
	c15.803,1.829,34.149,1.686,49.524-2.058c14.66-3.572,11.517-29.321-7.974-26.035C68.329,73.133,51.555,65.702,44.268,68.875
	L44.268,68.875z"/>
<path fill-rule="evenodd" clip-rule="evenodd" fill="#303030" d="M143.146,192.048c-4.715,18.118-54.04,18.719-74.788,18.433
	c-23.033-0.343-69.043,1.515-65.843-27.521c0.715-6.402,5.059-11.089,10.345-13.175c6.202-2.458,14.146-0.486,21.091,0.371
	c14.432,1.743,29.864,2.458,44.467,2.201c15.976-0.286,28.606-2.201,43.41-3.716C136.487,167.127,147.004,177.187,143.146,192.048
	L143.146,192.048z M27.807,130.175c6.344-2.114,28.977,1.2,38.494,1.286c12.917,0.114,25.977,0,38.751-1.2
	c9.088-0.857,10.316-2.172,18.347,1.715c19.147,9.26,9.316,33.094-4.115,35.323c-23.434,3.887-54.297,3.544-78.131,1.486
	c-14.518-1.258-22.063-0.515-27.234-13.946C8.259,140.206,16.575,133.947,27.807,130.175L27.807,130.175z M103.823,96.996
	c23.319-2.772,26.776,28.378,2.972,30.836c-21.805,2.258-42.467,1.771-64.414,0.086c-11.174-0.857-17.575-2.658-18.461-15.519
	c-0.715-10.974,7.115-16.29,17.689-14.718C68.271,101.625,77.788,100.082,103.823,96.996L103.823,96.996z M44.268,68.875
	c7.287-3.173,24.062,4.258,50.01-0.144c19.49-3.286,22.634,22.463,7.974,26.035c-15.375,3.743-33.722,3.887-49.524,2.058
	C27.463,93.881,32.836,73.818,44.268,68.875L44.268,68.875z M62.442,42.554c5.802-1.001,4.801,0.058,9.087,0.143
	c3.345,0.086,18.634-2.4,27.121,4.116c4.458,3.429,6.858,8.315,2.829,15.031c-3.315,5.516-8.745,5.287-16.004,5.83
	c-7.229,0.543-35.235,1.4-39.637-4.344c-3.601-4.715-4.115-10.803-0.257-15.032C50.954,42.41,53.669,44.068,62.442,42.554
	L62.442,42.554z M72.787,2.915c35.437,46.526-20.348,45.783-11.145,20.091C63.242,18.548,69.443,5.916,72.787,2.915L72.787,2.915z
	 M63.328,39.953c-10.088,2.086-12.031-0.029-18.719,6.344l0.229,18.719c-4.058,5.174-8.145,2.658-11.174,11.718l4.059,17.947
	c-23.319,4.173-14.403,16.661-9.659,32.923c-18.062,3.687-22.577,20.062-13.317,33.322l3.516,5.401
	c-22.777,2.943-23.663,30.007-5.916,38.409c23.805,11.231,100.365,10.717,121.569-0.515c7.516-3.972,14.003-10.202,11.745-21.977
	c-2.086-10.974-9.345-12.346-17.946-16.404c2.172-3.743,4.229-4.43,6.43-9.802c1.743-4.287,2.43-9.231,1.314-13.918l-17.461-14.604
	c3.544-4.688,8.03-11.546,6.373-20.834l-15.489-12.432c10.431-14.146,2.315-18.205-7.201-28.207
	c7.201-19.09,7.087-16.689-19.29-26.234c1.058-2.516,1.114-1.372,3.115-4.002c5.544-7.173-1.943-19.861-6.23-27.063
	c-3.2-5.372-2.458-4.144-6.888-8.745c-3.886,3.201-14.603,22.291-14.402,29.75C58.127,35.866,61.414,36.209,63.328,39.953
	L63.328,39.953z"/>
<path fill-rule="evenodd" clip-rule="evenodd" fill="#FBCA0D" d="M62.442,42.554c-8.773,1.515-11.488-0.144-16.86,5.744
	c-3.858,4.229-3.344,10.317,0.257,15.032c4.401,5.744,32.407,4.887,39.637,4.344c7.259-0.543,12.688-0.314,16.004-5.83
	c4.029-6.716,1.629-11.603-2.829-15.031c-8.487-6.517-23.776-4.03-27.121-4.116C67.243,42.611,68.244,41.553,62.442,42.554
	L62.442,42.554z"/>
<path fill-rule="evenodd" clip-rule="evenodd" fill="#D17572" d="M72.787,2.915c-3.344,3.001-9.545,15.633-11.145,20.091
	C52.439,48.698,108.224,49.441,72.787,2.915L72.787,2.915z"/>
</svg>
