<?xml version="1.0" encoding="utf-8"?>
<!-- Generator: Adobe Illustrator 15.0.0, SVG Export Plug-In  -->
<!DOCTYPE svg PUBLIC "-//W3C//DTD SVG 1.1//EN" "http://www.w3.org/Graphics/SVG/1.1/DTD/svg11.dtd" [
	<!ENTITY ns_flows "http://ns.adobe.com/Flows/1.0/">
]>
<svg version="1.1"
	 xmlns="http://www.w3.org/2000/svg" xmlns:xlink="http://www.w3.org/1999/xlink" xmlns:a="http://ns.adobe.com/AdobeSVGViewerExtensions/3.0/"
	 x="0px" y="0px" width="225px" height="161px" viewBox="0.761 0 225 161" enable-background="new 0.761 0 225 161"
	 xml:space="preserve">
<defs>
</defs>
<path fill-rule="evenodd" clip-rule="evenodd" fill="#E8E9E0" d="M29.37,140.383c-0.313,1.629,0.086,3.401,1.602,4.487
	c0.399,0.285,0.485,0.257,0.857,0.571c0.771,0.629-0.258,0.114,0.971,0.743c0.629,0.314,1.715,0.886,2.258,0.857
	c2.058,0,2.973,0.514,4.688,0.686c1.656,0.172,4.4-0.601,3.515,2.258c-0.286,0.886-0.772,0.829-1.943,0.886
	c-1.801,0.143-6.345-0.057-7.716-0.485c-1.314-0.4-2.372-1.144-3.486-1.829c-1.029-0.629-1.887-1.629-2.602-2.687
	c-2-2.943-2.285-8.459,1.516-7.059C29.399,139.64,29.399,139.326,29.37,140.383L29.37,140.383z M9.252,102.174
	c-0.942-0.058-0.915-1.2-0.915-3.059c0.029-1.457,0.344-2.343,1.001-3.229c1.543-2.087,3.144-2.572,5.344-1.544
	c0.229,3.315-1.829,2.001-2.629,3.344c-1.601,3.258,1.772,7.688,0.714,10.546l-2.086,0.057c-0.199-0.485-0.229-0.771-0.428-1.257
	C9.853,105.889,8.853,105.003,9.252,102.174L9.252,102.174z M217.04,55.962c-1.229,0.257-1.057,1.001-2.457,0.829l-0.114,1.057
	c-1.601,0.115-2.858,0.201-4.487,0.229c-1.943,0.028-1.972,0.856-3.286-0.571c-0.4-4.316,3.943-2.172,6.63-3.688
	c0.515-0.285,0.2-0.143,0.771-0.428l0.801-0.43c2.343-1.514,1.314-3.715,2.457-5.516l1.772-0.028c0.628,0.915,0.886,0.886,1,2.087
	c0.286,3.229,0.143,1.514-0.629,3.715l-1.257,2.143C217.841,55.934,217.783,55.82,217.04,55.962L217.04,55.962z M191.606,11.037
	c1.372,0.4,1.086,0.429,1.857,1.315c0.686,0.829,1.372,0.829,1.687,1.486c1.399,0.4,1.028,0.486,1.8,1.572
	c0.601,0.886,0.771,0.572,2.086,2.715l0.314,0.658c0.486,0.886,0.886,0.372,0.886,2.372c-0.942,0.601-1.743,0.915-3.286,0.515
	c-0.457-1.229-0.143-0.314,0-0.972c-0.629-0.343-4.687-5.973-6.63-7.087c-0.286-0.171-0.515-0.229-0.829-0.4
	c-0.6-0.343-1.171-0.857-2.229-0.915c-5.201-0.115-3.601,1.286-6.287,1.029c-0.486-1.029-0.601-2-0.343-3.229
	c1.886-1.058,0.914-0.972,2.257-1.115C185.662,8.694,190.349,8.408,191.606,11.037L191.606,11.037z M170.944,9.751
	c-1.371,4.458-0.571,3.515-1.286,6.916c-0.485,2.343-0.571,5.287-0.886,7.859l-0.6,3.744c-0.629,3.487-0.4,3.744-2.144,6.545
	c-0.601,1.028-0.914,1.914-2.229,2.143c0,1.572-2.457,2.315-3.515,3.001c-0.857,0.543-0.2,0.429-1.515,1.001l-1.2,0.656
	c-2.429,1.458-5.115,2.458-7.545,4.088c-1,0.686-1.972,0.856-3.058,1.571l-2.886,1.657c-0.915,0.572-0.258,0.486-1.372,0.887
	c-2.857,0.971-1.486,1.113-4.516,2.285l-4.286,2.401c-0.372,0.286-0.028,0.114-0.715,0.429c-2.458,1.172-2.458,1.771-3.772,2.058
	c-1.857,0.399-2.943,1.601-4.743,2.172c-0.887,0.286-0.114-0.086-0.715,0.399c-1.457,1.172-3.344,1.658-3.829,2.001
	c-0.144,0.086-0.486,0.343-0.543,0.372c-0.886,0.714-1.458,1.343-2.658,0.914c-0.629,0.857-0.972,0.771-2,1.229
	c-1.029,0.486-0.972,1.029-2.229,0.887c-0.171,0.399,0.258,0.229-0.515,0.714l-4.829,2.458c-0.486,0.314-0.028,0.314-0.771,0.629
	c-2.172,0.914-0.601-0.43-3.315,1.771c-0.399,0.343-1.143,0.258-1.8,0.629c-1.058,0.6,0.085,0.742-2.029,0.828
	c-0.543,0.201-1.829,0.915-2.4,1.258c-1.086,0.686-1.629,0.457-2.715,1.172c-0.801,0.515-4.287,2.515-5.001,2.43
	c-0.4,0.942-1.572,1.571-2.458,1.943l-7.602,3.343c-1.028,0.429-0.629,0.486-1.315,0.801c-1.314,0.629,0.058-0.429-2.914,1.457
	c-0.829,0.515-0.457,0.343-1.457,0.657l-2.172,1.258c-0.058,0.028-0.115,0.086-0.144,0.114c-1.028,0.715-0.686,0.4-2.086,0.743
	l-2.2,1c-0.857,0.457-0.172,0.143-0.687,0.543c-0.771,0.601-0.343,0.143-1.399,0.486c-1.4,0.485-0.344,0.628-2.029,1.057
	c-1.486,0.4-1.4,0.658-2.544,0.857c-4.401,0.801-1.257,0.801-7.602,1.115c-2.372,0.114-6.259,0.343-8.23-0.314
	c-2.172-0.743-5.173-0.572-7.516-1.172c-1.028-0.286-2.258-0.543-3.601-0.629c-4.029-0.286-1.43-0.286-3.516-0.8l-7.401-1.229
	c-7.544-0.571-7.688-0.914-13.632,1.001c-1.029,0.343-1.258,0.686-2.229,1.886c-2.572,3.115-1,0.943-2.344,4.115
	c-0.828,2.029-0.571,5.973-0.514,8.402c0.027,2.486,0.628,1.571,1.057,3.314c0.258,1.087,0.057,0.801,0.543,1.715l4.544,4.487
	c1.028,0.543,0.915,0.143,1.058,0.6c1.715,0.286,1.457,0.543,2.4,0.972c0.571,0.229,0.828,0.172,1.371,0.344
	c1,0.313,0.4,0.313,1.115,0.6c0.715,0.314,3.086,0.229,4.458,0.457l1,0.687c1.343-0.086,3.687-0.229,4.458,0.514
	c1.457,1.544-1.172,3.887-1.572,4.63c-0.57,0.972,0,0.801-1.113,1.515l-3.23,6.974c-0.371,1.143,0,0.8-0.799,0.914
	c0,2.201-0.715,3.115-0.943,3.858c-0.515,1.629-0.686,8.23,0.428,10.917c0.258,0.6,0.286,1.657,0.486,1.915
	c0.914,0.085,0.801,0.257,1.086,1.086c0.743,0.114,0.515,0.314,1.115-0.144l-0.029,1.43c0.743,0.114,0.972,0.257,1.4,0.543
	c0.028,0.771,0.114,1,0.314,1.515c0.686,0.543,0.314,0.429,1.229,0.857c2.144,1,0.229,1.114,2.915,1.942
	c1.343,0.4,0.886,0.801,4.744,2.201c0.743,0.257,1,0.543,1.687,0.714c0.229,0.058,0.942,0.144,1.057,0.2
	c0.686,0.344,0.457,0,0.686,0.801v-0.144c3.087,0,7.402,0.458,9.488-0.399c0.771-0.314-0.143,0,0.972-0.286
	c0.771-0.2,2.801-1.343,3.687-2.229c1.286-1.285,0.258-0.8,1.6-1.743c2.059-1.457,2.258-3.172,2.887-4.43
	c0.429-0.914,0.371-0.114,0.743-1.457l1.028-3.744c0.229-1.715,0.058-0.629,0.601-1.771c0.687-1.4,0.172-2.858,0.543-4.229
	c0.4-1.344,0.657,0.6,0.915-3.858c0.199-3.515,0.656-1.571,0.886-3.658c0.114-1.4-0.058-3.544,0.171-4.801
	c0.115-0.601,0.457-0.829,0.658-1.372c0.257-0.715,0.171-1.571,0.199-2.344l1.543-5.401c2.201-3.286,1.372-3.114,3.944-3.486
	c0.143-0.057,1.571-1,1.8-1.172c0.715-0.571,1.372-1.028,2.315-1.286c0.515-0.514,1.829-1.171,2.687-1.515
	c0.199-1,0-0.571,0.656-1.229c1.144-1.143,1.086-0.229,2.658-1.457l7.23-4.087c0.571-0.2,0.8-0.143,1.343-0.429l5.916-3.001
	c1.457-0.4,0.515-0.143,1.114-0.543c0.229-0.143,0.058-0.086,0.486-0.286c2.114-0.972,3.4-1.743,5.458-2.4l2.829-1.515
	c0.028,0,0.715-0.2,0.715-0.2l0.257-0.143c1.028-0.771,1.486-1.229,3.172-1.743c2.515-0.801,5.573-2.829,8.116-3.944
	c2.314-1,0.771-0.771,2.172-1.2l3.801-1.571c1.515-0.743,2.544-0.972,4.716-2.201c0.686-0.399,0.543-0.114,1.285-0.399
	c0.857-0.314,0.258-0.258,1.144-0.657c0.543-0.229,0.743-0.144,1.314-0.4c0.829-0.429,0.229-0.4,1.114-0.771
	c0.372-0.144,1.029-0.229,1.4-0.372c0.343-0.143,0,0,0.429-0.257l5.516-2.486c1.172-0.343,3.087-1.458,4.915-2.058l4.772-2.286
	c0.857-0.515,1.4-1.229,2.915-0.601c0.114-0.828,0.314-0.771,1.029-0.914c2.144-0.486,1.2-0.429,1.515-0.686
	c0.714-0.486,0.714-0.201,1.429-0.516c0.686-0.285,0.4-0.428,1.429-0.714c1.687-0.457,3.944-2.172,6.459-2.315
	c0.543-0.027,2.886-1.171,3.458-1.371c0.771-0.285,1.314-0.343,2.028-0.657c0.486-0.171,1.144-0.571,1.629-0.687
	c0.086-1.314,0.058-0.285,2.172-1.514c1.001-0.572,1.544-0.457,2.458-0.943c1.2-0.6,1.114-0.457,2.544-0.857
	c1.457-0.429,0.886-0.943,2.771-0.829c1.2,0.028,1.601-0.914,3.058-0.714c0.372-0.314-0.085-0.058,0.543-0.258l2.029-0.4
	c1-0.199,1.915-0.342,2.972-0.371l9.288,0.686c1.372,0.229,2.372,0.829,5.315,1.314c2.629,0.4,1.657,0.486,2.601,0.658
	c7.944,0.143,4.087,1.258,8.773,0.857c4.087-0.344,8.287-0.486,10.288-4.602c0.314-0.629,0.543-1.029,0.828-1.572
	c0.344-0.686,0.658-1.028,0.887-1.514c0.972-2.029,1.114-3.459,1.543-5.773c0.172-0.828,0.485-0.943,0.429-1
	c0.114-1.143,0.371-5.43-0.028-6.545c-0.258-0.686-0.429-0.571-0.857-1.543c-0.972-2.286-2.4-3.344-4.973-4.087
	c-2.973-0.829-4.458-1-8.145-0.485c-4.287,0.6-5.087,1.857-7.545,1.686c-1.715-2.258,0.314-4.857,0.543-5.916
	c0.229-0.943,0.172-1.229,0.515-2.115c1.114-2.658,0.171-8.431,0.286-10.203c-0.286-0.457-0.515-1.257-0.658-1.743l-0.971-0.229
	c-0.172-0.486-0.172-0.886-0.344-1.429c-0.371-1.229-0.143-0.314-0.628-1c-0.429-0.629-0.2-0.629-0.486-1.2l-4.201-3.772
	c-0.514-0.4,0.086,0.114-0.457-0.486c-1.143-1.314-2.657-1.229-3.601-1.972c-0.943-0.743-0.172-0.372-0.8-0.886
	c-0.486-0.429-4.744-2.115-6.03-2.286c-3.144-0.372-2.314-1.686-8.545-0.972c-1.286,0.143-1.601,0.8-2.801,1.486
	c-0.114,0.057-0.429,0.229-0.485,0.257c-1.144,0.743-0.687,1.029-1.743,2.115C171.459,8.837,172.545,9.408,170.944,9.751
	L170.944,9.751z"/>
<path fill-rule="evenodd" clip-rule="evenodd" fill="#282828" d="M176.231,61.478l-9.945,4.144
	c-0.485,0.115-1.143,0.516-1.629,0.687c-0.714,0.314-1.257,0.372-2.028,0.657c-0.572,0.2-2.915,1.344-3.458,1.371
	c-0.829,1.201-1.857,1.086-3.058,1.544c-0.715,0.257-0.772,0.485-1.4,0.8l-2.887,1.201c-0.743,0.314-2.486,1.771-4.516,1.6
	l-11.859,5.516c-0.571,0.286-0.715,0.543-1.314,0.801c-2.486,1.172-9.088,3.486-10.631,4.687l-4.372,2.4
	c-4.115,1.486-7.431,3.772-11.26,5.116c-0.771,0.257-1.743,0.857-1.601,1.743c1.457,0.343,0.515-0.515,2.857-0.572
	c0.657,0,4.059-1.657,4.43-2.028c0.257-1.115-0.714,0.229,2.086-1.172c1.43-0.715,1.172-0.114,1.943-1.258l0.915,0.258l7.201-3.716
	c1.229-0.629,2.486-1.086,3.801-1.571c1.114-0.429,0.771-0.629,1.687-0.943l7.658-3.287c2.687-0.6,6.63-3.371,10.031-4.201
	c0.371-0.199,1.4-0.428,1.915-0.742l3.943-1.857c1.229-0.4,0.943-0.658,1.543-0.801c0.743-0.657,1.915-1.086,2.772-1.4
	c1.686-0.629,3.229-2.058,6.887-2.972c0.857-0.2,0.629-0.229,1.172-0.601c0.857-0.6,0.686-0.229,1.372-0.543
	c0.942-0.457,0.028-0.343,1.2-0.742c0.514-0.172,1.143-0.172,1.629-0.4c0.657-0.286,0.2-0.372,1.257-0.629
	c0.943-0.258,0.629,0,1.515-0.429c0.943-0.458,3.258-1.687,4.287-1.4l-0.058,0.143c0.058-0.058,0.144-0.143,0.229-0.2
	c1.058-0.629,0.429-0.199,1.229-0.343c2.715-0.972,15.832-0.571,17.289,1.144c0.829-0.258,1.629-0.229,2.544-0.029
	c2.629,0.601,1.972,0.144,2.343-0.143c-1.028-0.571-3.687-1.343-5.001-1.457c-1.972-0.172-3.258-0.629-5.315-0.801
	c-1.886-0.114-4.201-0.428-6.059-0.371c-2,0.057-4.286,0.486-6.287,0.086C177.832,60.564,177.432,61.506,176.231,61.478
	L176.231,61.478z"/>
<path fill-rule="evenodd" clip-rule="evenodd" fill="#282828" d="M101.615,94.772c-0.886,0.429-0.886,0.114-1.857,0.801
	l-0.915,0.485c-2.4,0.857-2.657,1.372-4.772,2.286c-0.457,0.2-0.543,0.286-1.057,0.457c-2.63,0.915-0.857,0.601-2.944,1.201
	c-0.457,0.143-0.571,0.199-0.971,0.457l-0.4,0.285c-1.629,1.172-3.887,2.486-5.83,3.145c-1.857,0.657-8.688,4.857-11.002,5.829
	c-0.857,0.344-2.172,1.001-2.687,1.515c-0.286,1.572,0,0.543-1.886,1.772c-0.029,0.028-0.115,0.086-0.144,0.114
	c-0.058,0.028-0.114,0.057-0.143,0.086l-0.687,0.485c-0.342,0.372-0.342,0.743-0.857,1.086c-0.457,0.314,0.086,0-0.543,0.258
	c-0.543,0.229-0.457,0.085-0.857,0.314l-1.571,2.2c-0.515,0.657-0.229,0.857-0.829,1.915c-0.686,1.229-0.314,0.972-0.543,2
	c-0.314,1.486-0.571,0.8-0.885,1.857c-0.086,0.829,0.342,3.401-0.629,6.173c-0.486,1.43-0.4,4.145-0.915,6.23l-0.857,5.83
	c-0.2,0.743-0.657,0.114-0.743,2.458c-0.028,1.057,0,1.028-0.656,2c-0.058,0.058-0.201,0.286-0.258,0.343
	c-0.057,0.086-0.114,0.172-0.143,0.229c-0.058,0.058-0.115,0.144-0.172,0.2c-0.114,1.715-0.686,1.4-0.629,2.286
	c-0.172,1.344-1.486,3.602-2.086,4.659c-0.486,0.828-0.114,0.313-0.629,0.856l-1.657,1.658c-0.972,0.972-0.515-0.286-0.714,1.429
	c2.199,0,1.285-0.571,2.343-0.943c-0.372-0.942,0.143,0,1.171-1.257c0.43-0.543,0.715-0.943,1.258-1.4
	c0.258-0.972,0-0.114,0.314-0.657c0.371-0.715,1.4-2.887,1.601-4.173c0.314-1.915,0.257,0.857,0.942-3.144
	c0.201-1.2,0.314-0.886,0.601-1.543c0.4-0.972,0.114-2.486,0.715-3.944c1.058-2.572,0.743-4.63,0.914-5.83
	c0.144-0.972,0.943-2.486,0.943-5.658l1.515-7.145c0.229-0.715,0.285-1.372,0.429-1.972l2.486-3.887l4.172-2.858
	c0.028-0.028,0.086-0.057,0.144-0.086c0.057-0.028,0.257-0.114,0.314-0.143l3.914-2.372c1.602-0.943,4.316-2.743,5.744-2.915
	c0.629,0,1.086-0.543,1.83-0.886l8.001-3.858c2.829-1.286,0.543-0.886,3.63-2.143c0.972-0.372,1.314-0.801,2.457-0.772
	c0.372-1.057,2.201-1.515,3.944-2.314c0.857-0.429,3.572-1.972,4.486-2.086c-0.057-1.2,0.114-0.601,0.172-1.172
	c0.028-0.114,0.143-0.286,0.114-0.172l-0.258,0.172c-0.314-0.372-0.229-0.343-1-0.144C102.358,94.515,102.473,94.629,101.615,94.772
	L101.615,94.772z"/>
<path fill-rule="evenodd" clip-rule="evenodd" fill="#282828" d="M204.924,29.413c0.171,0.886-1.172,5.116-1.2,5.173
	c-0.458,0.857-0.629,0.399-0.515,1.943c2.801,0.6,5.344-0.973,6.344-1.059c4.802-0.457,12.146-0.656,14.746,4.287
	c1.915,3.63,1.258,5.373,0.915,10.26c-0.114,1.687-0.571,1.372-0.857,3.087c-0.371,2.314-2.515,6.144-3.858,7.63
	c-1.057,1.172-2.943,2.458-4.658,2.916l-1.457,0.457c-3.172,0.457-1.486,0.229-5.087,0.113c-3.001-0.085-5.029-1.113-6.744-0.6
	c0.229,0.657-0.258,0.801,1.886,0.943c0.771,0.057,1.458,0.057,2.115,0.343c1.2,0.543,2.343,0.601,4.172,0.657
	c2.058,0.086,5.401-0.2,7.373-1.229c1.058-0.543,1.429-0.601,2.2-1.372c0.687-0.714,0.486-0.714,1.001-1.429
	c1.314-1.801,1.686-0.229,3.687-5.973c0.571-1.629,0.686-1.144,0.972-2.458c0.285-1.4,0.143-0.972,0.6-1.286
	c0.286-0.2,0.229-0.057,0.258-0.572c-0.172-1,1.028-6.629-0.286-9.659c-0.943-2.172-0.571-2.915-2.543-4.601
	c-0.258-0.2-0.4-0.344-0.629-0.543c-0.543-0.543-0.086-0.286-0.743-0.658c-3.601-1.943-8.517-2.285-12.803-1.742
	c-1.801,0.199-2.086,1.143-4.401,0.485c-0.285-1.172-0.028-0.943,0.486-2.915c0.257-1,0.714-1.829,0.8-2.744
	c0.229-2.229,0.172-4.687,0.086-6.716c-0.144-2.658-1.515-7.059-3.315-8.917c-0.743-0.771-0.314-0.629-1.172-0.8
	c0.058,1,0.458,1.4,0.743,1.943l2.172,5.916c0.229,2.286,1.2,1.657,0.687,4.458C205.724,25.612,205.438,28.67,204.924,29.413
	L204.924,29.413z"/>
<path fill-rule="evenodd" clip-rule="evenodd" fill="#282828" d="M1.65,96.03c0.144,2.029-0.743,8.831,0.515,10.116
	c0.914-1.114,0.371-2.058,0.172-3.286c-0.43-2.772,0.742-4.772,0.914-5.658c0.257-1.2-0.143-2.229,0.314-3.229
	c0.629-1.429,1.057-2.001,2-3.058l0.857-1.087c1.4-2.143,2.658-1.543,4.572-2.429c2.172-1.058,11.06-0.771,12.432-0.114
	c0.715,0.314-0.972-0.286,0.514,0.229c1.772,0.629,2.63-0.286,5.602,0.8c1.887,0.658,2.4,0.372,4.315,0.801
	c0.4,0.086,0.515,0.114,0.687,0.2c0.027,0.028,0.085,0.057,0.143,0.085l0.314,0.314c1.571-0.171,3,0.172,4.543,0.629
	c0.572,0.172,11.86,1.572,13.346,0.943c0.801-0.314,0.572-0.4,0.771-0.886c-1.143-0.601-3.857-0.258-5.286-0.314l-3.858-0.372
	c-0.371-0.028-0.371,0-0.742-0.114c-0.744-0.285-0.172,0.086-0.715-0.429c-0.314-0.143-0.086,0-0.457-0.229l-0.715-0.457v0.172
	c-2.515,0-2.172-0.258-3.258-0.486c-1-0.2-2.058-0.2-3.058-0.371c-1.286-0.2-1.001-0.486-2.657-0.687
	c-0.658-0.057-2.43-0.257-3.059-0.429l-2.715-0.571c-0.886-0.114-2.058-0.229-3.144-0.343c-1.114-0.143-1.543-0.543-2.715-0.629
	c-4.944-0.4-11.174-0.314-14.804,2.344c-1.656,1.172-2.028,2.086-3.229,3.544c-1.029,1.229-0.314,1.257-0.943,2.457
	c-0.258,0.543-0.285,0.086-0.571,1.172C1.564,95.258,1.507,95.344,1.65,96.03L1.65,96.03z"/>
<path fill-rule="evenodd" clip-rule="evenodd" fill="#282828" d="M12.682,117.035c1.058,0.343,1.171,0.629,2.458,0.886
	c0.857,0.172,2,0.372,2.914,0.429c0.115,0.114,0.2,0.486,0.286,0.629l0.457-0.114l2.486-0.028c1.058,1.429,0.886,2.029-0.571,4.172
	c-1.344,1.973-0.972,1.601-1.829,3.916c-0.343,0.942-1.601,2.943-2.001,5.401c-0.629,3.657-0.656,0.686-1.086,3.314l-0.171,5.83
	c0.114,2.001,0.343,3.43,0.857,5.03l1.857,4.001c0.314,0.429,0.257,0.171,0.601,0.828c1.485,2.801,1.314,0.801,1.857,2.715
	c0.543,0.857,2.771,2.173,3.743,2.801c0.915,0.629,1.315,0.543,2.229,1.144c0.514,0.371,1.715,1,2.2,1.028
	c1.028,0.029,1.715,0.344,3.2,0.344c-0.143-0.429,0.086-1.086-1.742-1.658c-0.43-0.114-0.943-0.171-1.201-0.229
	c-0.943-0.314-0.714-0.114-1-0.886c-3.943-1.515-8.573-5.373-9.916-9.23c-0.572-1.658-1.801-6.459-1.372-8.26
	c0.171-0.743,0.458-0.857,0.543-1.8c0.171-2.058,0.028-3.001,0.886-5.23c0.4-1.058-0.086-0.515,0.658-0.857
	c-0.115-1.371,2.057-5.658,2.657-6.716c3.915-6.802,4.858-6.888-2.344-7.259c-1.915-0.114-3.058-0.743-4.829-1.144
	C13.053,116.035,12.538,115.634,12.682,117.035L12.682,117.035z"/>
<path fill-rule="evenodd" clip-rule="evenodd" fill="#999A9A" d="M87.384,77.568l-0.343,0.086c-0.2,0.257-0.086,0.171-0.4,0.399
	c-0.028,0.029-0.086,0.086-0.144,0.115c-0.027,0.028-0.085,0.057-0.143,0.086l-2.2,1.171c-0.4,0.2-1.058,0.286-1.657,0.544
	c-1.516,0.628-6.402,3.543-7.602,3.601l-3.715,2.172l-12.632,4.973c-0.2,0.2-1.258,0.343-1.4,0.371
	c-3.315,0.972-1.2,0.515-2.315,0.286l-1.285,0.171c-3.115,0.857-17.004-1.057-18.547-1.829c-1.029,0.114-6.402-1.114-7.345-1.457
	c-1.028-0.371-6.573-0.715-8.259-0.886c-3.229-0.314-4.716-0.743-7.916,0.2c-3.744,1.114-3.373,0.942-5.487,3.286
	c-1.429,1.601-2.372,3.43-2.629,6.487c-0.372,4.602-1.315,1.029-0.086,7.545c0.886,4.715,2.915,6.173,6.001,8.487l0.515,0.429
	c0.286,0.229,0.687,0.229,0.829,1.058c1.371,0,2.743,0.686,3.887,1.229c1.771,0.4,2.914,1.029,4.829,1.144
	c7.202,0.371,6.259,0.457,2.344,7.259c-0.601,1.058-2.772,5.345-2.657,6.716c0.799-0.114,0.428,0.229,0.799-0.914l3.23-6.974
	c0.828-3.115,6.001-5.915-1.059-6.401c-1.857-0.114-10.573-1.743-10.916-3.144c-0.028-0.086-0.114-0.114-0.143-0.172
	c-0.143-0.457-0.029-0.057-1.058-0.6l-4.544-4.487c-0.486-0.914-0.285-0.628-0.543-1.715c-0.429-1.743-1.029-0.828-1.057-3.314
	c-0.058-2.43-0.314-6.373,0.514-8.402c1.344-3.172-0.229-1,2.344-4.115c0.971-1.2,1.199-1.543,2.229-1.886
	c5.944-1.915,6.088-1.572,13.632-1.001l7.401,1.229c2.086,0.514-0.514,0.514,3.516,0.8c1.343,0.086,2.572,0.343,3.601,0.629
	c2.343,0.6,5.344,0.429,7.516,1.172c1.972,0.657,5.858,0.429,8.23,0.314c6.345-0.314,3.2-0.314,7.602-1.115
	c1.144-0.199,1.058-0.457,2.544-0.857c1.686-0.429,0.629-0.571,2.029-1.057c1.057-0.344,0.628,0.114,1.399-0.486
	c0.515-0.4-0.171-0.086,0.687-0.543l2.2-1c1.4-0.343,1.058-0.028,2.086-0.743c0.028-0.028,0.086-0.086,0.144-0.114l2.172-1.258
	c1-0.314,0.628-0.143,1.457-0.657c2.972-1.886,1.6-0.828,2.914-1.457c0.687-0.314,0.287-0.372,1.315-0.801l7.602-3.343
	c0.886-0.372,2.058-1.001,2.458-1.943C88.041,77.111,88.47,77.225,87.384,77.568L87.384,77.568z"/>
<path fill-rule="evenodd" clip-rule="evenodd" fill="#282828" d="M93.471,72.739c-0.972,0.229-1.687,0.714-2.715,1.086
	c-0.715,0.285-1.687,0.971-2.4,1.428c-1.344,0.83-3.744,2.029-5.573,2.401v-0.171c-0.285,0.399-0.028,0.113-0.4,0.457
	c-0.027,0-0.57,0.371-0.6,0.399c-0.343,0.2-0.914,0.458-1.172,0.543c-0.571,1.458,0.115,0.343-1.629,1.172
	c-0.8,0.372-1.143,0.886-1.572,1.629c1.973,0,3.459-1.543,5.002-2.086c1.486-0.515,3.801-1.801,4.63-1.943l0.343-0.086
	c0.229-0.657-0.4-0.343,1.571-1.086l5.03-2.4c0.771-0.601,0.771-0.343,1.629-0.743l5.229-2.687c1.058-0.114,0.828-0.257,1.601-0.714
	l4.286-2.258c1.4-0.629,4.772-2.744,5.973-2.715c0.429-0.915,1.572-1.172,2.43-1.629c0.886-0.486,0.771-0.744,1.8-0.486
	c0.144-0.314-0.028-0.086,0.258-0.4l5.315-2.857c1.4-0.543,0.628-0.4,1.543-0.914l4.258-2.173c0.343-0.829,0.143-0.628,1.172-1.2
	c0.543-0.285,0.914-0.514,1.429-0.742c0.715-0.314,0.657-0.201,1.429-0.658c0.086-0.057,0.572-0.371,0.629-0.429
	c0.715-0.686-0.086,0.657,0.571-0.8c-2.486,0-1.914,0.429-3.314,1.029l-7.202,3.829c-0.743,0.313-0.628,0.085-1.4,0.601
	c-0.714,0.457-0.285,0.371-1.285,0.771l-4.63,2.543c-2.4,1.172-5.401,3.086-7.373,3.744l-1.915,1
	c-1.257,0.8-0.314,0.028-2.028,0.828c-0.772,0.372-2.858,2.087-4.83,2.63C97.7,70.195,95.356,72.367,93.471,72.739L93.471,72.739z"
	/>
<path fill-rule="evenodd" clip-rule="evenodd" fill="#D3D2D1" d="M226.814,51.247c-0.029,0.516,0.028,0.372-0.258,0.572
	c-0.343,3.458-1.2,3.857-2.258,6.63c-0.972,2.572-4.857,6.603-7.087,7.088c-5.059,1.058-8.745,0.485-13.289-0.515
	c-0.886-0.2-1.6-0.2-2.515-0.371c-1.485-0.286-0.143-0.314-3.486-0.857c-1.429-0.229-0.543,0.057-0.857-0.314
	c-2.058,0.257-2.372-0.572-4.458-0.715c-1.601-0.086-3.058-0.199-4.601-0.229c-5.087-0.143-6.116,0.314-9.688,0.343l0.058-0.143
	c-0.571,0.8-4.572,2.001-5.487,2.372c-0.857,0.371-1.8,0.771-2.715,1.172l-2.629,1.2c-0.657,0.343-2.058,0.686-2.887,1.058
	l-2.686,1.143c-1.144,0.486-4.744,2.144-5.688,2.172c-0.6,0.143-0.314,0.4-1.543,0.801l-3.943,1.857
	c-0.515,0.314-1.544,0.543-1.915,0.742c-0.515,0.973-0.486,0.486-1.687,1.029c-0.485,0.229-1.229,0.715-1.686,0.943
	c-1.144,0.571-2.772,0.914-3.687,1.829c2-0.086,1.686-0.2,2.144-0.515l5.629-2.771c0.715-0.458-0.199-0.258,0.943-0.543
	c1.601-0.372,1.114,0.457,2.086-0.516c1.115-1.113,0.771-0.229,2.144-1.086c1.372-0.885,1-0.342,2.4-0.8
	c1.2-0.399-0.257,0.257,0.429-0.229l0.372-0.343c0.571-0.429,0.399-0.2,1.028-0.486c1.372-0.629-0.657-0.143,2.258-0.886
	c1.114-0.286,0.371-0.399,2.258-0.914c1.086-0.314,0.171,0.058,1.028-0.544l3.058-1.371c0.515-0.172,0.801-0.2,1.315-0.4
	c1.314-0.6,3.629-1.229,5.172-2.229c0.144-0.115,0.114-0.143,0.429-0.258l2.115-0.257c0.143-0.314,0.2-0.543,0.343-0.857
	c0.972-0.086,2.229,0,3.086-0.286c0.887-0.285,0.601-0.6,2.115-0.686c2.829-0.172,8.974-0.229,11.46,0.686
	c1,0.372,1.571,0.2,2.571,0.372c1.4,0.229,0.372,0.399,2.172,0.571c1.772,0.172,1.372,0.2,2.516,0.657l5.4,0.8
	c1.4,0.172,1.2,0.314,2.172,0.601c1.001,0.286,4.772,0.314,5.773,0.086c1.629-0.4,1.657-0.886,4.972-1.058
	c0.286-0.857,0.943-1.286,1.715-1.743l0.629-0.343c1.029-0.629,0.429-0.801,1.458-1.715c1.828-1.601,0.543-0.857,2.257-3.801
	l2.058-5.087l1.058-7.944c-0.086-3.459-0.286-1.602-0.886-5.002c-0.2-1-0.571-1.229-0.972-2.086c-0.629-1.4-3.458-4.029-5.059-3.858
	c0.4,0.657-0.057,0.058,0.4,0.515l1.314,0.914c0.372,0.314,0.343,0.4,0.743,0.686c1.601,1.144,1.857,1.4,3.001,4.173
	c0.714,1.687,0.628,6.145,0.457,8.259C227.328,49.561,227.357,50.647,226.814,51.247L226.814,51.247z"/>
<path fill-rule="evenodd" clip-rule="evenodd" fill="#D3D2D1" d="M71.866,109.718c2.314-0.972,9.145-5.172,11.002-5.829
	c1.943-0.658,4.201-1.973,5.83-3.145l0.4-0.285c0.399-0.258,0.514-0.314,0.971-0.457c2.087-0.601,0.314-0.286,2.944-1.201
	c0.514-0.171,0.6-0.257,1.057-0.457c2.115-0.914,2.372-1.429,4.772-2.286l0.915-0.485c0.972-0.687,0.972-0.372,1.857-0.801
	c0.4-0.714-0.286-0.143,0.715-0.714l2.028-0.857c2.315-0.601,1.086-0.515,2.601-1.286c1.887-0.943,3.458-1.572,5.459-2.572
	c1.828-0.886,3.058-1.687,5.315-2.601c0.771-0.314,2.257-0.8,2.886-1.086c1.2-0.601,0.829-0.886,2.887-1.172
	c1.543-1.2,8.145-3.515,10.631-4.687c0.6-0.258,0.743-0.515,1.314-0.801l11.859-5.516c-1.515-0.629-2.058,0.086-2.915,0.601
	l-4.772,2.286c-1.828,0.6-3.743,1.715-4.915,2.058l-5.516,2.486c-0.429,0.257-0.086,0.114-0.429,0.257
	c-0.371,0.144-1.028,0.229-1.4,0.372c-0.886,0.371-0.285,0.343-1.114,0.771c-0.571,0.257-0.771,0.172-1.314,0.4
	c-0.886,0.399-0.286,0.343-1.144,0.657c-0.742,0.285-0.6,0-1.285,0.399c-2.172,1.229-3.201,1.458-4.716,2.201l-3.801,1.571
	c-1.4,0.429,0.143,0.2-2.172,1.2c-2.543,1.115-5.602,3.144-8.116,3.944c-1.686,0.515-2.144,0.972-3.172,1.743l-0.257,0.143
	c0,0-0.687,0.2-0.715,0.2l-2.829,1.515c-2.058,0.657-3.344,1.429-5.458,2.4c-0.429,0.2-0.258,0.144-0.486,0.286
	c-0.6,0.4,0.343,0.143-1.114,0.543l-5.916,3.001c-0.543,0.286-0.771,0.229-1.343,0.429l-7.23,4.087
	c-1.572,1.229-1.515,0.314-2.658,1.457C71.866,109.147,72.065,108.718,71.866,109.718L71.866,109.718z"/>
<path fill-rule="evenodd" clip-rule="evenodd" fill="#535454" d="M166.887,25.498l0.571-1.429c0.486,7.716-0.429,4.973-0.828,7.517
	c-0.458,2.857-0.344,0.743-1.201,2.915c-0.428,1.057,0.2,0.285-0.8,1.114c-1.058,0.886-0.829,0.714-0.829,1.343
	c1.315-0.229,1.629-1.114,2.229-2.143c1.743-2.801,1.515-3.058,2.144-6.545l0.6-3.744c0.314-2.572,0.4-5.516,0.886-7.859
	c0.715-3.401-0.085-2.458,1.286-6.916c0.429-3.772,3.716-5.259,4.716-6.259l0.285-0.286l-1.028-0.085
	c-0.2,0.343-0.286,0.657-0.743,0.915c-0.457,0.229-0.886,0.2-1.229,0c0.2-0.686,0.257-0.486,0.942-1l1.486-0.943
	c4.001-1.743,8.717-0.343,12.632,0.486c1.457,0.286,0.571,0.286,1.485,0.743c0.687,0.314,0.972,0.171,1.687,0.4l4.572,2
	c1,0.514,1.172,1.372,2.515,1.686c-1.657-2-3.743-2.458-4.887-3.115c-0.6-0.343-0.343-0.2-0.714-0.629
	c-0.172-0.057-1.372-0.657-1.915-0.943c-0.886-0.429-1-0.743-2.344-0.572c-2.571-0.114-10.088-3.258-14.546,0.343
	c-0.886,0.714-2.457,2.144-3.029,3.058c-1,1.715-2.629,6.516-2.972,8.888L166.887,25.498z"/>
<path fill-rule="evenodd" clip-rule="evenodd" fill="#282828" d="M166.887,25.498l0.171,0.028c0.258,1.458-1.485,7.66-2.686,8.859
	l-15.289,9.061c-0.429,0.199-0.657,0.199-1.2,0.514c-3.229,1.829-2.772,2.229-7.288,4.173l-6.601,3.601
	c-0.543,0.457,0.143-0.429-0.429,0.457c0.314,0.258-0.344,0.743,1.371,0.314c0.915-0.229-0.086-0.257,1.372-0.571l6.916-3.401
	c0.886-0.656,0.714-0.428,1.771-0.914c1.943-0.828-0.886,0.057,2.058-1.229c0.058-0.029,0.143-0.058,0.172-0.086
	c0.057-0.029,0.114-0.057,0.171-0.086c1.258-0.771,0.314-0.429,2.572-1.543c2.915-1.4,4.829-2.887,6.887-3.772
	c2.915-1.229,6.002-3.687,6.944-3.944c0-0.629-0.229-0.457,0.829-1.343c1-0.829,0.372-0.058,0.8-1.114
	c0.857-2.172,0.743-0.058,1.201-2.915c0.399-2.544,1.314,0.2,0.828-7.517L166.887,25.498z"/>
<path fill-rule="evenodd" clip-rule="evenodd" fill="#535454" d="M165.743,29.099c-0.171,1.972-0.714,1.857-1.028,2.972
	c-0.172,1.201-0.314,1.4-1.058,2.059c-0.485,0.457-0.972,0.914-1.457,1.229c-0.801,0.543-2.458,1.886-3.687,1.943
	c-0.144,0.199-0.943,0.857-1.258,1.057c-0.2,0.115-1.601,0.857-1.743,0.915c-0.457,0.601,0.058,0.058-0.485,0.515
	c-0.972,0.742-6.259,3.486-6.859,3.515l-3.772,1.829c-1.028,0.743-2.114,1.715-3.801,2.258l-5.258,2.687
	c-0.715,0.485-0.629,0.286-1.314,0.657c-1.058,0.514-1.801,1.314-2.515,1.572c-1.029,0.399-0.687,0-1.629,0.57l-2.63,1.344
	l-0.514,0.371c-3.401,2.229-7.688,4.173-8.974,5.03c-0.715,0.485-1.114,0.687-1.829,1.086l-9.517,4.802
	c-2.144,0.686-3.772,2.114-6.087,3.115c-3.144,1.343-2.172,1.742-4.172,2.057c-0.172,0.172-0.687,0.743-1.314,0.857l-1.372,1.201
	c1.886-0.372,4.229-2.544,6.087-3.087c1.972-0.543,4.058-2.258,4.83-2.63c1.714-0.8,0.771-0.028,2.028-0.828l1.915-1
	c1.972-0.658,4.973-2.572,7.373-3.744l4.63-2.543c1-0.4,0.571-0.314,1.285-0.771c0.772-0.516,0.657-0.287,1.4-0.601l7.202-3.829
	c1.4-0.601,0.828-1.029,3.314-1.029c-0.657,1.457,0.144,0.114-0.571,0.8c-0.057,0.058-0.543,0.372-0.629,0.429
	c-0.771,0.457-0.714,0.344-1.429,0.658c-0.515,0.229-0.886,0.457-1.429,0.742c-1.029,0.572-0.829,0.371-1.172,1.2
	c0.743-0.229,1.286-0.571,2.058-0.972c0.743-0.371,1.229-0.6,2.2-1c0.801-0.371,0.772-0.543,1.829-1.058
	c2.029-0.942,1.601-0.771,1.915-1.543c-1.458,0.314-0.457,0.343-1.372,0.571c-1.715,0.429-1.057-0.057-1.371-0.314
	c0.571-0.886-0.114,0,0.429-0.457l6.601-3.601c4.516-1.943,4.059-2.344,7.288-4.173c0.543-0.314,0.771-0.314,1.2-0.514l15.289-9.061
	c1.2-1.199,2.943-7.401,2.686-8.859l-0.371,1C166.515,27.127,166.144,28.67,165.743,29.099L165.743,29.099z"/>
<path fill-rule="evenodd" clip-rule="evenodd" fill="#999A9A" d="M202.037,62.393c0.172,0.971,0.857,0.257,3.058,0.8
	c5.487,1.343,5.459,0.458,10.745,0.458c1.715-0.458,3.602-1.744,4.658-2.916c1.344-1.486,3.487-5.315,3.858-7.63
	c0.286-1.715,0.743-1.4,0.857-3.087c0.343-4.887,1-6.63-0.915-10.26c-2.601-4.943-9.944-4.744-14.746-4.287
	c-1,0.086-3.543,1.658-6.344,1.059c-0.114-1.544,0.057-1.086,0.515-1.943c0.028-0.058,1.371-4.287,1.2-5.173
	c0.343-2.572,0.743-5.144,0.285-7.516c-0.143-0.714-0.143-1.714-0.628-2.315c-0.115,1.772,0.828,7.545-0.286,10.203
	c-0.343,0.886-0.286,1.172-0.515,2.115c-0.229,1.058-2.258,3.658-0.543,5.916c2.458,0.172,3.258-1.086,7.545-1.686
	c3.687-0.515,5.172-0.344,8.145,0.485c2.572,0.743,4.001,1.801,4.973,4.087c0.429,0.972,0.6,0.857,0.857,1.543
	c0.399,1.115,0.143,5.402,0.028,6.545c0.057,0.057-0.257,0.172-0.429,1c-0.429,2.314-0.571,3.744-1.543,5.773
	c-0.229,0.485-0.543,0.828-0.887,1.514c-0.285,0.543-0.514,0.943-0.828,1.572c-2.001,4.115-6.201,4.258-10.288,4.602
	C206.124,63.651,209.981,62.536,202.037,62.393L202.037,62.393z"/>
<path fill-rule="evenodd" clip-rule="evenodd" fill="#D3D2D1" d="M3.251,110.576c-0.829-1.229-0.486-0.686-1.058-1.972
	c-0.343-0.857-0.771-1.114-0.886-2.515c0.114-2.515-1.2-4.687-0.114-8.773L1.65,96.03c-0.144-0.686-0.086-0.771,0.086-1.372
	c0.286-1.086,0.313-0.629,0.571-1.172c0.629-1.2-0.086-1.229,0.943-2.457c1.2-1.458,1.572-2.372,3.229-3.544
	c3.63-2.658,9.859-2.744,14.804-2.344c1.172,0.086,1.601,0.486,2.715,0.629c1.086,0.114,2.258,0.229,3.144,0.343l2.715,0.571
	c0.629,0.172,2.4,0.372,3.059,0.429c1.656,0.2,1.371,0.486,2.657,0.687c1,0.171,2.058,0.171,3.058,0.371
	c1.086,0.229,0.743,0.486,3.258,0.486c-0.8-1.258-2.058-0.943-4.144-1.172c-2.087-0.229-2.343-0.771-4.058-0.943
	c-2.029-0.172-2.344-0.229-3.887-0.8c-0.915-0.343-3.373-0.314-4.63-0.4c-0.829-0.058-1.343-0.172-2.114-0.429
	c-2.029-0.657-9.117-0.715-11.574-0.343c-1.344,0.2-0.857,0.143-1.887,0.6c-0.6,0.286-1.314,0.4-2.114,0.486
	c-0.172,0.343-0.144,0.457-0.372,0.829c-0.742,0.114-1.657,0.171-2.086,0.514c-0.429,0.372-0.143,0.144-0.429,0.687l-0.485,0.886
	c-1.915-0.172-0.086-0.343-1.314-0.429c0.086,0.943,0.428,0.028,0.428,1.314c0,1.2,0.058,0.286-1.257,2.229
	c-1.544,2.286-0.343,1.743-1.4,4.144c-0.714,1.572-0.8,8.517,0.028,10.174c0.629,1.2,0.4,1.943,0.801,2.858
	C2.022,110.291,2.508,110.433,3.251,110.576L3.251,110.576z"/>
<path fill-rule="evenodd" clip-rule="evenodd" fill="#535454" d="M203.923,17.839c0.144,0.486,0.372,1.286,0.658,1.743
	c0.485,0.601,0.485,1.601,0.628,2.315c0.458,2.372,0.058,4.944-0.285,7.516c0.514-0.743,0.8-3.801,0.972-4.658
	c0.514-2.801-0.458-2.172-0.687-4.458l-2.172-5.916c-0.285-0.543-0.686-0.943-0.743-1.943c0.857,0.171,0.429,0.029,1.172,0.8
	c1.801,1.857,3.172,6.259,3.315,8.917c0.086,2.029,0.143,4.487-0.086,6.716c-0.086,0.915-0.543,1.744-0.8,2.744
	c-0.515,1.972-0.771,1.743-0.486,2.915c2.315,0.657,2.601-0.286,4.401-0.485c4.286-0.543,9.202-0.201,12.803,1.742
	c0.657,0.372,0.2,0.115,0.743,0.658c0.229,0.199,0.371,0.343,0.629,0.543c1.972,1.686,1.6,2.429,2.543,4.601
	c1.314,3.03,0.114,8.659,0.286,9.659c0.543-0.6,0.514-1.686,0.571-2.486c0.171-2.114,0.257-6.572-0.457-8.259
	c-1.144-2.772-1.4-3.029-3.001-4.173c-0.4-0.285-0.371-0.371-0.743-0.686l-1.314-0.914c-0.457-0.457,0,0.143-0.4-0.515l-0.686-0.028
	c-1.314-0.258-0.515-0.344-1.829-0.543c-0.571-0.086-1.257-0.143-1.743-0.172c-1.2-0.114-2.601-0.114-3.829-0.086
	c-5.145,0.086-5.658,0.744-7.145,0.771c-0.114-2.543,1.886-6.029,0.8-14.146c-0.714-5.287-4.744-8.431-5.058-9.917
	c-0.515,0.028-0.429,0.514-0.429-0.029c-0.486-0.314-0.2-0.114-0.572-0.4c-0.085-0.086-0.229-0.229-0.485-0.429
	c0.686,1.343,1.229,1.143,1.571,2.829c-0.828-0.143-0.886-0.314-2.058-1.458c-0.714-0.714-3.144-3.029-4.115-3.086
	c0.229,0.743,1.544,1.772,2.229,2.315c1,0.8,3.086,2.458,3.658,3.43L203.923,17.839z"/>
<path fill-rule="evenodd" clip-rule="evenodd" fill="#535454" d="M215.84,63.651c-5.286,0-5.258,0.885-10.745-0.458
	c-2.2-0.543-2.886,0.171-3.058-0.8c-0.943-0.172,0.028-0.258-2.601-0.658c-2.943-0.485-3.943-1.086-5.315-1.314l-9.288-0.686
	c-1.057,0.029-1.972,0.172-2.972,0.371l-2.029,0.4c-0.628,0.2-0.171-0.057-0.543,0.258c2.001,0.4,4.287-0.029,6.287-0.086
	c1.857-0.057,4.173,0.257,6.059,0.371c2.058,0.172,3.344,0.629,5.315,0.801c1.314,0.114,3.973,0.886,5.001,1.457
	c-0.371,0.286,0.286,0.743-2.343,0.143c-0.915-0.199-1.715-0.229-2.544,0.029c0.314,0.371-0.571,0.086,0.857,0.314
	c3.344,0.543,2.001,0.571,3.486,0.857c0.915,0.171,1.629,0.171,2.515,0.371c4.544,1,8.23,1.572,13.289,0.515
	c2.229-0.485,6.115-4.516,7.087-7.088c1.058-2.772,1.915-3.172,2.258-6.63c-0.457,0.314-0.314-0.114-0.6,1.286
	c-0.286,1.314-0.4,0.829-0.972,2.458c-2.001,5.744-2.372,4.172-3.687,5.973c-0.515,0.715-0.314,0.715-1.001,1.429
	c-0.771,0.771-1.143,0.829-2.2,1.372c-1.972,1.028-5.315,1.314-7.373,1.229c-1.829-0.057-2.972-0.114-4.172-0.657
	c-0.657-0.286-1.344-0.286-2.115-0.343c-2.144-0.143-1.657-0.286-1.886-0.943c1.715-0.514,3.743,0.515,6.744,0.6
	c3.601,0.115,1.915,0.344,5.087-0.113L215.84,63.651z"/>
<path fill-rule="evenodd" clip-rule="evenodd" fill="#D3D2D1" d="M136.309,51.933c-0.314,0.771,0.114,0.601-1.915,1.543
	c-1.057,0.515-1.028,0.687-1.829,1.058c-0.972,0.4-1.457,0.629-2.2,1c-0.771,0.4-1.314,0.743-2.058,0.972l-4.258,2.173
	c-0.915,0.514-0.143,0.371-1.543,0.914l-5.315,2.857c-0.286,0.314-0.114,0.086-0.258,0.4c1.2,0.429,1.772-0.2,2.658-0.914
	c0.057-0.029,0.399-0.286,0.543-0.372c0.485-0.343,2.372-0.829,3.829-2.001c0.601-0.485-0.172-0.113,0.715-0.399
	c1.8-0.571,2.886-1.772,4.743-2.172c1.314-0.286,1.314-0.886,3.772-2.058c0.687-0.314,0.343-0.143,0.715-0.429l4.286-2.401
	c3.029-1.172,1.658-1.314,4.516-2.285c1.114-0.4,0.457-0.314,1.372-0.887l2.886-1.657c1.086-0.715,2.058-0.886,3.058-1.571
	c2.43-1.63,5.116-2.63,7.545-4.088l1.2-0.656c1.314-0.572,0.657-0.458,1.515-1.001c1.058-0.686,3.515-1.429,3.515-3.001
	c-0.942,0.258-4.029,2.715-6.944,3.944c-2.058,0.886-3.972,2.372-6.887,3.772c-2.258,1.114-1.314,0.771-2.572,1.543
	c-0.057,0.029-0.114,0.057-0.171,0.086c-0.029,0.028-0.114,0.057-0.172,0.086c-2.943,1.285-0.114,0.4-2.058,1.229
	c-1.058,0.486-0.886,0.258-1.771,0.914L136.309,51.933z"/>
<path fill-rule="evenodd" clip-rule="evenodd" fill="#535454" d="M1.65,96.03l-0.457,1.286c-1.086,4.087,0.229,6.259,0.114,8.773
	c0.686,0.571,2.086,5.173,3.458,6.059c-0.172-0.771-0.257-1.286-0.429-1.887c1.572,0.229,1.657,0.972,3.314,2.486
	c1.201,1.087,1.372-0.114,2.029,2.115l-1.943-0.058l0.314,0.2c0.029,0,0.114,0.058,0.172,0.086l2.715,1.229
	c0.028,0.028,0.086,0.057,0.143,0.085c0.057,0.029,0.114,0.058,0.172,0.086c0.543,0.286,0.656,0.4,1.429,0.543
	c-0.144-1.4,0.371-1,1.829-0.943c-1.144-0.543-2.516-1.229-3.887-1.229c-0.143-0.829-0.543-0.829-0.829-1.058l-0.515-0.429
	c-3.086-2.314-5.115-3.772-6.001-8.487c-1.229-6.516-0.286-2.943,0.086-7.545c0.257-3.058,1.2-4.887,2.629-6.487
	c2.114-2.344,1.743-2.172,5.487-3.286c3.2-0.943,4.687-0.515,7.916-0.2c1.686,0.171,7.23,0.515,8.259,0.886
	c0.942,0.343,6.315,1.571,7.345,1.457l-0.314-0.314c-0.058-0.028-0.115-0.057-0.143-0.085c-0.172-0.086-0.286-0.114-0.687-0.2
	c-1.915-0.429-2.429-0.143-4.315-0.801c-2.972-1.086-3.829-0.171-5.602-0.8c-1.485-0.515,0.201,0.086-0.514-0.229
	c-1.372-0.657-10.26-0.943-12.432,0.114c-1.914,0.886-3.172,0.286-4.572,2.429l-0.857,1.087c-0.943,1.057-1.371,1.629-2,3.058
	c-0.457,1-0.058,2.029-0.314,3.229c-0.172,0.886-1.344,2.886-0.914,5.658c0.199,1.229,0.742,2.172-0.172,3.286
	C0.907,104.861,1.794,98.059,1.65,96.03L1.65,96.03z"/>
<path fill-rule="evenodd" clip-rule="evenodd" fill="#D3D2D1" d="M35.2,158.902c0.344,0.314,0.086,0.058,0.629,0.258l1.172,0.371
	c2.515-0.171,4.83,0.429,7.459-0.171c1.2-0.286,4.772-1.544,5.458-2.687c1.486-1.314,3.229-3.486,4.03-5.516
	c0.229-0.515,0.199-0.429,0.485-0.943l0.8-1.144c-0.057-0.886,0.515-0.571,0.629-2.286c0.2-2.314,0.686-2.172,1.086-4.486
	l0.886-4.487c0.571-4.4,0.343-1.972,0.829-4.4c0.314-1.458,0.199-3.201,0.514-4.573c0.372-1.571,0.715-2.715,0.744-4.544
	c0.057-2.144,0.628-2.114,0.942-4.344c0.458-3.115,2.63-4.544,3.801-5.744l0.4-0.515c-2.572,0.372-1.743,0.2-3.944,3.486
	l-1.543,5.401c-0.028,0.772,0.058,1.629-0.199,2.344c-0.201,0.543-0.543,0.771-0.658,1.372c-0.229,1.257-0.057,3.4-0.171,4.801
	c-0.229,2.087-0.687,0.144-0.886,3.658c-0.258,4.458-0.515,2.515-0.915,3.858c-0.371,1.371,0.144,2.829-0.543,4.229
	c-0.543,1.143-0.371,0.057-0.601,1.771l-1.028,3.744c-0.372,1.343-0.314,0.543-0.743,1.457c-0.629,1.258-0.828,2.973-2.887,4.43
	c-1.342,0.943-0.313,0.458-1.6,1.743c-0.886,0.887-2.915,2.029-3.687,2.229c-1.114,0.286-0.2-0.028-0.972,0.286
	C42.603,159.36,38.287,158.902,35.2,158.902L35.2,158.902z"/>
<path fill-rule="evenodd" clip-rule="evenodd" fill="#D3D2D1" d="M54.919,154.073c-0.028,1-0.057,0.485-0.571,1.543
	c1.343-0.086,0.286,0.4,1.372-1c1.6-2.087,2.686-6.802,2.686-6.83c0.43-0.887,0.658-0.372,0.829-1.943
	c0.144-1.201,0.058-1.515,0.485-2.43c0.43-0.914,0.516-1.114,0.601-2.314c0.343-4.716,0.857-0.829,1.144-7.631
	c0.086-1.457,0.314-1.258,0.6-2.229c0.258-0.829,0.258-1.658,0.314-2.602c0.172-1.743,0.343-0.914,0.686-2.143
	c0.515-1.801-0.314-1.144,0.973-4.888c0.285-0.886,0.113-1.485,0.543-2.629c0.171-0.457,0.428-0.343,1-0.943
	c0.285-0.343,0.543-0.743,0.857-1.114l0.742-0.715c0.686-0.657,0.658-0.543,1.516-0.856v-0.915
	c-3.002,1.629-5.259,3.772-5.659,7.916c-0.2,1.915-0.515,1.4-0.743,2.658l-3.43,19.719c-0.342,1.43-1.229,3.516-1.656,5.087
	c-0.344,1.258-0.771,1.458-1.059,2.229C55.69,153.187,56.034,153.672,54.919,154.073L54.919,154.073z"/>
<path fill-rule="evenodd" clip-rule="evenodd" fill="#282828" d="M175.945,3.207l-0.057,0.143c0.571-0.514,1.657-0.972,2.4-1.086
	c0.8-0.143,2.372-0.2,3.172-0.171c1.857,0.057,1.2,0.372,2.63,0.714c1.914,0.486,2.143-0.171,5.515,1.058
	c1.372,0.514-0.371,0.372,2.172,1.2c1.172,0.372,2.201,1.2,3.087,1.743c0.771,0.458,0.457,0.086,1.028,0.714
	c0.972,0.057,3.401,2.372,4.115,3.086c1.172,1.144,1.229,1.315,2.058,1.458c-0.343-1.686-0.886-1.486-1.571-2.829
	c-0.372-0.486-1.657-1.572-2.229-1.829c-1.343-0.314-1.515-1.172-2.515-1.686l-4.572-2c-0.715-0.229-1-0.086-1.687-0.4
	c-0.914-0.458-0.028-0.458-1.485-0.743c-3.915-0.829-8.631-2.229-12.632-0.486l-1.486,0.943c-0.686,0.515-0.742,0.314-0.942,1
	c0.343,0.2,0.771,0.229,1.229,0c0.457-0.257,0.543-0.572,0.743-0.915L175.945,3.207z"/>
<path fill-rule="evenodd" clip-rule="evenodd" fill="#D3D2D1" d="M175.889,3.35l0.057-0.143l-0.285,0.286
	c-1,1-4.287,2.486-4.716,6.259c1.601-0.343,0.515-0.915,1.887-2.287c1.057-1.086,0.6-1.372,1.743-2.115
	c0.057-0.028,0.371-0.2,0.485-0.257c1.2-0.686,1.515-1.343,2.801-1.486c6.23-0.714,5.401,0.6,8.545,0.972
	c1.286,0.171,5.544,1.857,6.03,2.286c0.628,0.515-0.144,0.143,0.8,0.886c0.943,0.743,2.458,0.657,3.601,1.972
	c0.543,0.6-0.057,0.086,0.457,0.486l4.201,3.772c0.286,0.571,0.058,0.571,0.486,1.2c0.485,0.686,0.257-0.229,0.628,1
	c0.172,0.543,0.172,0.943,0.344,1.429l0.971,0.229l-2.143-4.572c-0.572-0.972-2.658-2.629-3.658-3.43
	c-0.686-0.543-2-1.572-2.229-2.315c-1.657,0-1.257-0.229-2.229-0.915l-4.315-2c-0.857-0.457-1.429-0.429-2.486-0.686
	C178.86,2.035,182.833,2.864,175.889,3.35L175.889,3.35z"/>
<path fill-rule="evenodd" clip-rule="evenodd" fill="#D3D2D1" d="M29.399,159.703c-0.029-0.058-0.057-0.2-0.086-0.144l-0.343-0.543
	c-0.485-0.028-1.687-0.657-2.2-1.028c-0.914-0.601-1.314-0.515-2.229-1.144c-0.972-0.628-3.2-1.943-3.743-2.801
	c-1.201-0.686-1.458-1.086-2.086-2c-2.029-2.857-2.658-4.287-3.401-8.002c-0.286-1.458-0.314-1.943-0.372-3.544l0.887-6.973
	c0.371-1.4,0.742-1.115,0.742-3.115c-1.742,1.686-1.113,3.315-1.656,4.486c-0.543,1.229-0.687,3.716-0.658,5.116
	c0.2,5.258-0.229,2.857,1.144,7.63c0.343,1.115,0.628,0.886,0.972,1.887c0.428,1.429-0.058,1.143,0.886,2l1.4,1.515
	c0.257,0.372,0.343,0.429,0.628,0.857c1.029,1.429,0.601,0.2,1.43,1.486c0.172,0.257,0.343,0.657,0.571,0.8l0.857,0.343
	c0.058,0.029,0.114,0.058,0.171,0.058c0.344,0.172,0.572,0.4,0.887,0.629c0.686,0.485,1.143,0.485,2,0.914
	C26.484,158.759,27.999,160.102,29.399,159.703L29.399,159.703z"/>
<path fill-rule="evenodd" clip-rule="evenodd" fill="#D3D2D1" d="M41.888,88.485l0.715,0.457c0.371,0.229,0.143,0.086,0.457,0.229
	c3.058,0.029,8.545,0.772,11.346,0.314l4.744-0.886c1.914-0.571,3.114-1.629,4.286-1.515l0.829-0.457
	c3.2-1.314,0.942-1.029,4.801-2.172c1.343-0.4,1.6-1.086,2.572-1.486c1.229-0.515,1.715-0.314,2.686-1.629
	c-1.258-0.086-3.372,1.172-4.201,1.771c-0.771,0.572-2.686,0.829-4.029,1.743c-0.971,0.658-0.8,0.572-2.029,0.887
	c-1.428,0.371-0.686,0.429-1.943,0.886l-2.143,0.829c-1.943,0.371-0.457-0.314-2.201-0.258l-0.057,1.229
	C51.947,88.799,45.146,88.256,41.888,88.485L41.888,88.485z"/>
<path fill-rule="evenodd" clip-rule="evenodd" fill="#D3D2D1" d="M220.784,34.186c-0.257-0.743,0.114-0.2-0.343-0.887
	c-4.83-0.914-9.088,0.144-13.688-0.171l0.771-1.029c0.371-0.771-0.058,0.143,0.028-1.2c0.057-1.029,0.629-1.429,0.657-2.915
	c0.028-2.286,0-4.601,0-6.916c-1.172-0.2-0.543-0.229-0.886-3.258c-0.028-0.286-0.058-0.572-0.172-0.8
	c-0.028-0.029-0.057-0.086-0.086-0.143c-0.028-0.028-0.057-0.085-0.085-0.114c-0.029-0.057-0.086-0.085-0.114-0.114
	c-1.258-1.658,0.229-0.657-1.286-2.601l-0.829-1.143c-0.314-0.4-0.171-0.2-0.485-0.715l-1.4-1.743c-0.687-0.571,0-0.286-0.886-0.343
	c0.313,1.486,4.344,4.63,5.058,9.917c1.086,8.117-0.914,11.603-0.8,14.146c1.486-0.027,2-0.686,7.145-0.771
	c1.229-0.028,2.629-0.028,3.829,0.086c0.486,0.029,1.172,0.086,1.743,0.172C220.27,33.842,219.47,33.928,220.784,34.186
	L220.784,34.186z"/>
<path fill-rule="evenodd" clip-rule="evenodd" fill="#282828" d="M37.001,159.531l-3.144-0.143c-0.771,0.2-0.515,0.086-0.972,0.457
	l2.486,1.114l6.487,0.372c1.343-0.143,2.2-0.543,3.544-0.086c0.8-0.657,1.571-0.943,2.486-1.172
	c2.486-0.629,2.086-1.314,2.172-1.657l-1.658-0.286c0.743-0.914,1.744-0.143,1.515-1.457c-0.686,1.143-4.258,2.4-5.458,2.687
	C41.831,159.959,39.516,159.36,37.001,159.531L37.001,159.531z"/>
<path fill-rule="evenodd" clip-rule="evenodd" fill="#999A9A" d="M165.743,29.099c0.4-0.429,0.771-1.972,0.943-2.572l0.371-1
	l-0.171-0.028l0.972-11.06c0.343-2.372,1.972-7.173,2.972-8.888c0.572-0.915,2.144-2.344,3.029-3.058
	c4.458-3.601,11.975-0.457,14.546-0.343c-0.742-1.086-1-0.943-2.343-1.115c-2.515-0.314-4.687-1.714-8.888-0.628
	c-2.858,0.743-4.344,1.714-6.201,3.801c-1.629,1.829-1.4,3.172-2.001,4.573c-1.915,4.458-1.372,5.744-2.229,11.002
	c-0.258,1.543-0.058,4.03-0.515,6.459C166.029,27.47,165.743,26.698,165.743,29.099L165.743,29.099z"/>
<path fill-rule="evenodd" clip-rule="evenodd" fill="#999A9A" d="M9.252,102.174c0.286-1.314-1.114-3.144,0.714-5.859
	c0-0.028,0.772-0.886,0.83-0.914c0.857-0.686,1.943-0.8,2.943-0.371c-0.43,1.571,0.199,0.6-1.229,1.229
	c-3.772,1.687,0,8.888-0.085,11.432c-1.83-0.2-1.4-0.829-2.001-2.344c-0.886-2.172-0.629-2.2-0.857-2.715
	C9.28,102.002,9.509,102.431,9.252,102.174L9.252,102.174z M9.252,102.174c-0.399,2.829,0.601,3.715,1.001,4.858
	c0.199,0.485,0.229,0.771,0.428,1.257l2.086-0.057c1.059-2.858-2.314-7.288-0.714-10.546c0.8-1.343,2.858-0.028,2.629-3.344
	c-2.2-1.028-3.801-0.543-5.344,1.544c-0.657,0.886-0.972,1.771-1.001,3.229C8.337,100.974,8.31,102.117,9.252,102.174L9.252,102.174
	z"/>
<path fill-rule="evenodd" clip-rule="evenodd" fill="#535454" d="M54.919,154.073c1.115-0.4,0.771-0.886,1.229-2.029
	c0.287-0.771,0.715-0.972,1.059-2.229c0.428-1.571,1.314-3.657,1.656-5.087l3.43-19.719c0.229-1.258,0.543-0.743,0.743-2.658
	c0.4-4.144,2.657-6.287,5.659-7.916c0.656-0.286,1.199-0.715,1.714-0.886l0.4-0.457c0.857-0.857,1.114-0.801,1.972-1.172
	c0.743-0.314,1.4-0.715,2.258-1.4c1.4-1.058,3.543-1.429,4.629-2.772c-1.428,0.172-4.143,1.972-5.744,2.915l-3.914,2.372
	c-0.058,0.028-0.258,0.114-0.314,0.143c-0.058,0.029-0.115,0.058-0.144,0.086l-4.172,2.858l-2.486,3.887
	c-0.144,0.6-0.2,1.257-0.429,1.972l-1.515,7.145c0,3.172-0.8,4.687-0.943,5.658c-0.171,1.2,0.144,3.258-0.914,5.83
	c-0.601,1.458-0.314,2.973-0.715,3.944c-0.286,0.657-0.399,0.343-0.601,1.543c-0.686,4.001-0.628,1.229-0.942,3.144
	c-0.2,1.286-1.229,3.458-1.601,4.173C54.919,153.958,55.177,153.101,54.919,154.073L54.919,154.073z"/>
<path fill-rule="evenodd" clip-rule="evenodd" fill="#D3D2D1" d="M96.157,70.68c2-0.314,1.028-0.714,4.172-2.057
	c2.314-1.001,3.943-2.43,6.087-3.115l9.517-4.802c0.715-0.399,1.114-0.601,1.829-1.086c1.286-0.857,5.572-2.801,8.974-5.03
	l0.514-0.371c-1,0.029-1.485,0.2-2.257-0.2l0.171,1.144c-1.743,0.086-1.028-0.086-1.915,0.742c-0.257,0.229-0.028,0.086-0.429,0.314
	l-8.229,4.173c-1.144,0.343-0.314,0.086-1.172,0.687l-0.429,0.257c-0.372,0.2-0.457,0.2-0.801,0.429
	c-3.286,2.029-5.629,2.457-7.83,3.857l-3.515,1.83c-1.829,0.6,0.028,0.6-1.657,0.971c-1.829,0.4-0.829-0.285-1.772-0.342
	c0.457,0.799,0.229-0.086,0.486,1.028c-1.601,1.171-1.601,1.4-1.601,1.4C96.271,70.452,96.214,70.624,96.157,70.68L96.157,70.68z"/>
<path fill-rule="evenodd" clip-rule="evenodd" fill="#282828" d="M27.142,140.097c-0.343,1.915,0.686,4.744,2.687,6.373
	c1.687,1.344,3.087,2.973,6.716,3.001c0.371,0,1.029-0.057,1.4-0.028c0.771,0.114,1.371,0.886,2.486,0.657
	c0.943-0.172,0.742-0.143,0.943-1.144c-1.144-0.857-2.63-0.199-4.916-0.657c-2.314-0.457-5.83-2.343-6.887-3.972
	c-0.771-1.201-0.887-2.801-1.201-4.487L27.142,140.097z"/>
<path fill-rule="evenodd" clip-rule="evenodd" fill="#D3D2D1" d="M118.505,88.971c-1.172,1.343-2.658,1.771-4.944,2.172
	c-0.371,0.371-3.772,2.028-4.43,2.028c-0.8,1.258-4.172,1.829-4.172,1.829c-0.915,0.4,0.229,0.286-0.943,0.687l-0.8,0.914
	c-0.743,0.515-2.43,0.801-3.458,1.801c0.943-0.058,1.114-0.058,1.8-0.543c1.258-0.886,7.802-3.772,9.831-4.602
	c1.058-0.429,0.857-0.629,1.801-0.972c1.6-0.6,0.771,0.058,1.743-0.914c0.514,0.371,1.172,1.286,2.429-0.2
	c1.344-1.601,0.457-0.543,2.086-1.629l0.314-0.229c0.543,0.2,0.314,0.314,1.058,0.457c0.4,0.086,0.8,0.028,1.258-0.028l-0.286-1.258
	c0.058-0.057,0.143-0.086,0.2-0.114c0.057-0.028,0.143-0.058,0.2-0.086c1.485-0.857,0.571-0.771,1.914-1.086
	c0.687-0.171,0.829-0.057,1.315-0.343c0.686-0.4-0.172-0.086,0.828-0.601l2.115-1.057c1.257-0.486,1.229-0.144,2.058-1.315
	c-1.344,0.286-5.744,2.486-7.573,3.344l-2.629,1.458C119.362,89.085,119.362,89.085,118.505,88.971L118.505,88.971z"/>
<path fill-rule="evenodd" clip-rule="evenodd" fill="#535454" d="M37.944,149.443c-0.371-0.028-1.029,0.028-1.4,0.028
	c-3.629-0.028-5.029-1.657-6.716-3.001c-2.001-1.629-3.029-4.458-2.687-6.373l1.229-0.257c0.314,1.687,0.43,3.286,1.201,4.487
	c1.057,1.629,4.572,3.515,6.887,3.972c2.286,0.458,3.772-0.2,4.916,0.657c-0.201,1.001,0,0.972-0.943,1.144
	C39.315,150.329,38.716,149.557,37.944,149.443L37.944,149.443z M35.058,147.042c-0.543,0.028-1.629-0.543-2.258-0.857
	c-1.229-0.629-0.199-0.114-0.971-0.743c-0.372-0.314-0.458-0.286-0.857-0.571c-1.516-1.086-1.915-2.858-1.602-4.487
	c-1-0.715-0.399-1.143-1.571-1.143c-1.972,0.028-1.343,4.314,1.028,7.03c0.258,0.285,0.287,0.257,0.601,0.628
	c0.4,0.429,0.2,0.344,0.687,0.743c3.429,2.943,11.745,3.372,12.459,2.201c1.344-2.201-2.2-1.115-6.373-2.229
	c-0.199-0.058-0.399-0.114-0.6-0.2C34.829,147.042,35.715,147.756,35.058,147.042L35.058,147.042z"/>
<path fill-rule="evenodd" clip-rule="evenodd" fill="#282828" d="M63.436,87.084l-0.743,0.686c-1.658,0.972-4.744,1.572-6.744,2.115
	c-0.715,0.2-0.486,0.114-1.029,0.515c0.4,0.171,0.258,0.285,0.715,0.515l1.457-0.286c0.457,0,1.058,0.028,1.458,0.086
	c1.829-1.258,2-0.629,3.229-1.43c2.029-1.343,3.258-0.742,5.086-2.2c1.372-1.114,0.457-0.2,2.172-0.715l3.83-1.972
	c0.543-0.429,0.4-1,2.029-0.828c0.857-1.315-0.115-0.172,1.543-1.229l0.485-0.399c-3.972,0-1.829,0.571-3.829,1.257
	c-1.857,0.601-1.658,0.972-3.059,1.515c-1.656,0.629-2.457,0.457-4.029,1.572c-0.027,0.028-0.085,0.085-0.113,0.114
	C65.122,86.97,64.436,87.227,63.436,87.084L63.436,87.084z"/>
<path fill-rule="evenodd" clip-rule="evenodd" fill="#282828" d="M9.252,102.174c0.257,0.257,0.028-0.172,0.314,0.457
	c0.229,0.515-0.028,0.543,0.857,2.715c0.601,1.515,0.171,2.144,2.001,2.344c0.085-2.544-3.688-9.745,0.085-11.432
	c1.429-0.629,0.8,0.343,1.229-1.229c-1-0.429-2.086-0.314-2.943,0.371c-0.058,0.028-0.83,0.886-0.83,0.914
	C8.138,99.031,9.538,100.86,9.252,102.174L9.252,102.174z"/>
<path fill-rule="evenodd" clip-rule="evenodd" fill="#D3D2D1" d="M79.667,107.747c-1.086,1.344-3.229,1.715-4.629,2.772
	c-0.857,0.686-1.515,1.086-2.258,1.4c-0.857,0.371-1.114,0.314-1.972,1.172l-0.4,0.457c0.972-0.028,1.086-0.172,1.829-0.715
	c0.886-0.629,0.686-0.229,1.601-0.743c3.286-1.829,2-0.457,4.716-2.571c1.543-1.2,2.371-1.086,3.715-1.915
	c0.971-0.629,3.371-2.058,4.314-2.286c1.144-0.314,0.801-0.086,1.629-0.715c1.2-0.857,5.888-2.657,7.145-4.201l0.229-0.314
	c-1.143-0.028-1.485,0.4-2.457,0.772c-3.087,1.257-0.801,0.856-3.63,2.143l-8.001,3.858
	C80.753,107.204,80.296,107.747,79.667,107.747L79.667,107.747z"/>
<path fill-rule="evenodd" clip-rule="evenodd" fill="#D3D2D1" d="M35.058,147.042c0.657,0.714-0.229,0,0.543,0.371
	c0.2,0.086,0.4,0.143,0.6,0.2c4.173,1.114,7.717,0.028,6.373,2.229c-0.714,1.171-9.03,0.742-12.459-2.201
	c-0.486-0.399-0.286-0.314-0.687-0.743c-0.313-0.371-0.343-0.343-0.601-0.628c-2.371-2.716-3-7.002-1.028-7.03
	c1.172,0,0.571,0.428,1.571,1.143c0.029-1.058,0.029-0.743-0.342-1.571c-3.801-1.4-3.516,4.115-1.516,7.059
	c0.715,1.058,1.572,2.058,2.602,2.687c1.114,0.686,2.172,1.429,3.486,1.829c1.371,0.429,5.915,0.628,7.716,0.485
	c1.171-0.057,1.657,0,1.943-0.886c0.886-2.858-1.858-2.086-3.515-2.258C38.03,147.556,37.115,147.042,35.058,147.042L35.058,147.042
	z"/>
<path fill-rule="evenodd" clip-rule="evenodd" fill="#999A9A" d="M28.228,156.587c0.543,0.172,2.687,1,3.287,1.286
	c1.143,0.543,2.4,0.743,3.686,1.172c-0.229-0.801,0-0.457-0.686-0.801c-0.114-0.057-0.828-0.143-1.057-0.2
	c-0.687-0.171-0.943-0.457-1.687-0.714c-3.858-1.4-3.401-1.801-4.744-2.201c-2.687-0.828-0.771-0.942-2.915-1.942
	c-0.914-0.429-0.543-0.314-1.229-0.857c-1.314-0.086-0.771-0.114-1.286-0.772c-0.399-0.485-0.457-0.571-0.857-1.143
	c-0.743-1.086-1.343-1.458-1.743-2.515c-0.2-0.258-0.229-1.315-0.486-1.915c-1.113-2.687-0.942-9.288-0.428-10.917
	c0.229-0.743,0.943-1.657,0.943-3.858c-0.744,0.343-0.258-0.2-0.658,0.857c-0.857,2.229-0.715,3.173-0.886,5.23
	c-0.085,0.942-0.372,1.057-0.543,1.8c-0.429,1.801,0.8,6.602,1.372,8.26C19.654,151.214,24.284,155.073,28.228,156.587
	L28.228,156.587z"/>
<path fill-rule="evenodd" clip-rule="evenodd" fill="#535454" d="M19.255,123.894c-0.029,0.229-1.029,2.857-1.287,3.372
	c-0.514,0.972-0.971,2.286-1.4,3.144c0,2-0.371,1.715-0.742,3.115l-0.887,6.973c0.058,1.601,0.086,2.086,0.372,3.544
	c0.743,3.715,1.372,5.145,3.401,8.002c0.628,0.914,0.885,1.314,2.086,2c-0.543-1.914-0.372,0.086-1.857-2.715
	c-0.344-0.657-0.286-0.399-0.601-0.828l-1.857-4.001c-0.515-1.601-0.743-3.029-0.857-5.03l0.171-5.83
	c0.43-2.629,0.457,0.343,1.086-3.314c0.4-2.458,1.658-4.459,2.001-5.401c0.857-2.315,0.485-1.943,1.829-3.916
	c1.457-2.143,1.629-2.743,0.571-4.172l-2.486,0.028c1.144,1.144,4.487-1.086,1.715,3.687L19.255,123.894z"/>
<path fill-rule="evenodd" clip-rule="evenodd" fill="#535454" d="M65.064,113.691l-0.4,0.515c-1.171,1.2-3.343,2.629-3.801,5.744
	c-0.314,2.229-0.886,2.2-0.942,4.344c-0.029,1.829-0.372,2.973-0.744,4.544c-0.314,1.372-0.199,3.115-0.514,4.573
	c-0.486,2.429-0.258,0-0.829,4.4l-0.886,4.487c-0.4,2.314-0.886,2.172-1.086,4.486c0.057-0.057,0.114-0.143,0.172-0.2
	c0.028-0.057,0.086-0.143,0.143-0.229c0.057-0.057,0.2-0.285,0.258-0.343c0.656-0.972,0.628-0.943,0.656-2
	c0.086-2.344,0.543-1.715,0.743-2.458l0.857-5.83c0.515-2.086,0.429-4.801,0.915-6.23c0.971-2.771,0.543-5.344,0.629-6.173
	c0.313-1.058,0.57-0.371,0.885-1.857c0.229-1.028-0.143-0.771,0.543-2c0.601-1.058,0.314-1.258,0.829-1.915l1.571-2.2
	c0.4-0.229,0.314-0.086,0.857-0.314c0.629-0.258,0.086,0.057,0.543-0.258c0.516-0.343,0.516-0.714,0.857-1.086l0.687-0.485
	c0.028-0.029,0.085-0.058,0.143-0.086c0.028-0.028,0.114-0.086,0.144-0.114c1.886-1.229,1.6-0.2,1.886-1.772
	c-0.943,0.258-1.601,0.715-2.315,1.286C66.636,112.691,65.207,113.634,65.064,113.691L65.064,113.691z"/>
<path fill-rule="evenodd" clip-rule="evenodd" fill="#535454" d="M43.06,89.17c0.543,0.515-0.029,0.144,0.715,0.429
	c0.371,0.114,0.371,0.086,0.742,0.114l3.858,0.372c1.429,0.057,4.144-0.286,5.286,0.314c-0.199,0.485,0.029,0.571-0.771,0.886
	c-1.485,0.629-12.773-0.771-13.346-0.943c-1.543-0.457-2.972-0.8-4.543-0.629c1.543,0.772,15.432,2.687,18.547,1.829l1.285-0.171
	c1.115,0.229-1,0.686,2.315-0.286c0.143-0.028,1.2-0.171,1.4-0.371c-0.4-0.058-1.001-0.086-1.458-0.086l-1.457,0.286
	c-0.457-0.229-0.314-0.344-0.715-0.515c0.543-0.4,0.314-0.314,1.029-0.515c2-0.543,5.086-1.144,6.744-2.115l0.743-0.686
	c-1.172-0.114-2.372,0.943-4.286,1.515l-4.744,0.886C51.604,89.943,46.117,89.2,43.06,89.17L43.06,89.17z"/>
<path fill-rule="evenodd" clip-rule="evenodd" fill="#D3D2D1" d="M214.583,56.792l-0.4,0.2c-0.057,0.028-0.143,0.085-0.2,0.114
	c-0.028,0.028-0.086,0.057-0.143,0.086c-1.486,0.828-5.401,0.914-6.688,0.285c-0.343-1.771,0.314-1.972,1.887-2.115
	c1.371-0.143,2.515-0.6,3.771-0.628c1.258-0.286,2.63-0.687,3.487-1.829c1.257-1.658,0.371-2.715,1.257-4.544l1.657,0.085
	c0.4,1.63,0.4,4.545-0.828,5.202c-0.172,0.686-0.229,0.829-0.571,1.286c-0.314,0.343-0.058-0.029-0.344,0.343
	c-0.429,0.515-0.143,0.085-0.429,0.686c0.743-0.143,0.801-0.028,1.201-0.601l1.257-2.143c0.771-2.201,0.915-0.486,0.629-3.715
	c-0.114-1.201-0.372-1.172-1-2.087l-1.772,0.028c-1.143,1.801-0.114,4.002-2.457,5.516l-0.801,0.43
	c-0.571,0.285-0.257,0.143-0.771,0.428c-2.687,1.516-7.03-0.629-6.63,3.688c1.314,1.428,1.343,0.6,3.286,0.571
	c1.629-0.028,2.887-0.114,4.487-0.229L214.583,56.792z"/>
<path fill-rule="evenodd" clip-rule="evenodd" fill="#999A9A" d="M118.505,88.971c0.857,0.114,0.857,0.114,1.715-0.286l2.629-1.458
	c1.829-0.857,6.229-3.058,7.573-3.344c1.057-0.028,0.657-0.171,1.371-0.543l4.259-2.028c0.886-0.286,1.057,0.028,1.714-0.486
	c0.515-0.429-0.343-0.371,1.172-0.743c3.486-0.828,1.543-0.571,2.887-1.028c0.914-0.915,2.543-1.258,3.687-1.829
	c0.457-0.229,1.2-0.715,1.686-0.943c1.2-0.543,1.172-0.057,1.687-1.029c-3.401,0.83-7.345,3.602-10.031,4.201l-7.658,3.287
	c-0.915,0.314-0.572,0.515-1.687,0.943c-1.314,0.485-2.572,0.942-3.801,1.571L118.505,88.971z"/>
<path fill-rule="evenodd" clip-rule="evenodd" fill="#535454" d="M80.61,78.882c-0.514,0.144-1.972,0.743-2.4,1.001
	c-0.657,0.399-0.2,0.371-1.029,0.629c-0.314,0.085-1.028,0.199-1.371,0.285c-0.314,0.257-0.686,0.6-1.486,0.543
	c-0.971,1.314-1.457,1.114-2.686,1.629c-0.973,0.4-1.229,1.086-2.572,1.486c-3.858,1.143-1.601,0.857-4.801,2.172l-0.829,0.457
	c1,0.143,1.687-0.114,2.458-0.686c0.028-0.029,0.086-0.086,0.113-0.114c1.572-1.115,2.373-0.943,4.029-1.572
	c1.4-0.543,1.201-0.914,3.059-1.515c2-0.686-0.143-1.257,3.829-1.257l-0.485,0.399c-1.658,1.058-0.686-0.086-1.543,1.229
	c1.199-0.058,6.086-2.973,7.602-3.601c0.6-0.258,1.257-0.344,1.657-0.544l2.2-1.171c0.058-0.029,0.115-0.058,0.143-0.086
	c0.058-0.029,0.115-0.086,0.144-0.115c0.314-0.229,0.2-0.143,0.4-0.399c-0.829,0.143-3.144,1.429-4.63,1.943
	c-1.543,0.543-3.029,2.086-5.002,2.086c0.43-0.743,0.772-1.257,1.572-1.629C80.726,79.225,80.039,80.34,80.61,78.882L80.61,78.882z"
	/>
<path fill-rule="evenodd" clip-rule="evenodd" fill="#535454" d="M101.615,94.772c0.857-0.143,0.743-0.257,1.429-0.4
	c0.771-0.199,0.686-0.229,1,0.144l0.258-0.172c0.028-0.114-0.086,0.058-0.114,0.172c-0.058,0.571-0.229-0.028-0.172,1.172
	c1.172-0.4,0.028-0.286,0.943-0.687c0,0,3.372-0.571,4.172-1.829c-2.343,0.058-1.4,0.915-2.857,0.572
	c-0.143-0.886,0.829-1.486,1.601-1.743c3.829-1.344,7.145-3.63,11.26-5.116l4.372-2.4c-2.058,0.286-1.687,0.571-2.887,1.172
	c-0.629,0.286-2.114,0.771-2.886,1.086c-2.258,0.914-3.487,1.715-5.315,2.601c-2.001,1-3.572,1.629-5.459,2.572
	c-1.515,0.771-0.285,0.686-2.601,1.286l-2.028,0.857C101.329,94.629,102.016,94.058,101.615,94.772L101.615,94.772z"/>
<path fill-rule="evenodd" clip-rule="evenodd" fill="#535454" d="M213.64,56.505c-1.343-0.028-4.115,1.343-5.572,0.515
	c0.257-1.515,0.6-1.172,2.258-1.2c0.543,0,1.942-0.028,2.571-0.314c0.4-0.171,0.314-0.314,1.058-0.629
	c0.343-0.143,0.829-0.229,1.114-0.343c1.058-0.486,0.457-0.771,2.115-1.029C217.012,55.391,214.84,55.905,213.64,56.505
	L213.64,56.505z M217.27,53.562c-0.058-5.259,0.257-4.573,1.629-4.744c0.057,1.001,0.171,2.144-0.114,3.115
	c-0.086,0.229-0.458,0.915-0.515,0.972C217.669,53.562,218.27,53.163,217.27,53.562L217.27,53.562z M212.811,54.734
	c-0.8,0.829-1.714,0.771-3.114,0.857c-1.286,0.058-2.63,0.085-1.972,1.743c0.972,0.314,3.571,0.258,4.657-0.114l0.972-0.515
	c0.058-0.028,0.114-0.086,0.144-0.114c0.028,0,0.086-0.058,0.143-0.086c1.229,0.058,1.943-0.571,2.629-0.972
	c1.658-0.971,0.801-1.114,2.115-1.886c1.229-0.657,1.229-3.572,0.828-5.202l-1.657-0.085c-0.886,1.829,0,2.886-1.257,4.544
	C215.44,54.047,214.068,54.448,212.811,54.734L212.811,54.734z"/>
<path fill-rule="evenodd" clip-rule="evenodd" fill="#535454" d="M28.971,159.016l0.343,0.543c0.029-0.057,0.057,0.086,0.086,0.144
	c1.857-0.172,4.4,1.743,7.344,1.8c3.029,0.086,4.688,0.601,7.773,0.115c1.086-0.172,0.771-0.2,0.887-0.372
	c-1.344-0.457-2.201-0.057-3.544,0.086l-6.487-0.372l-2.486-1.114c0.457-0.371,0.2-0.257,0.972-0.457l3.144,0.143l-1.172-0.371
	c-0.543-0.2-0.285,0.057-0.629-0.258v0.144c-1.285-0.429-2.543-0.629-3.686-1.172c-0.601-0.286-2.744-1.114-3.287-1.286
	c0.286,0.771,0.057,0.571,1,0.886c0.258,0.058,0.771,0.114,1.201,0.229c1.828,0.572,1.6,1.229,1.742,1.658
	C30.686,159.36,29.999,159.045,28.971,159.016L28.971,159.016z"/>
<path fill-rule="evenodd" clip-rule="evenodd" fill="#535454" d="M156.284,71.852c0.943-0.028,4.544-1.686,5.688-2.172l2.686-1.143
	c0.829-0.372,2.229-0.715,2.887-1.058l2.629-1.2c0.915-0.4,1.857-0.801,2.715-1.172c0.915-0.371,4.916-1.572,5.487-2.372
	c-1.029-0.286-3.344,0.942-4.287,1.4c-0.886,0.429-0.571,0.171-1.515,0.429c-1.057,0.257-0.6,0.343-1.257,0.629
	c-0.486,0.229-1.115,0.229-1.629,0.4c-1.172,0.399-0.258,0.285-1.2,0.742c-0.687,0.314-0.515-0.057-1.372,0.543
	c-0.543,0.371-0.314,0.4-1.172,0.601c-3.658,0.914-5.201,2.343-6.887,2.972C158.199,70.766,157.027,71.195,156.284,71.852
	L156.284,71.852z"/>
<path fill-rule="evenodd" clip-rule="evenodd" fill="#999A9A" d="M182.861,12.209c-0.857-0.029-1.571,0.143-1.571-0.657
	c-0.029-0.6,0.314-0.857,0.828-1.029c3.258-2.858,9.974,0.457,11.774,3.287c0.914,0.628,1.4,1.057,2.2,2.2
	c0.314,0.486,0.657,0.772,1.115,1.315c0.457,0.571,0.428,0.6,0.8,1.229c0.571,0.372,1.058,0.943,1,1.687
	c-0.114,1.114-0.143,0.486-0.371,0.829l-1.429-0.143c0.686,0.857,1.057,0.657,2.028,0.372c0.286-0.857,0.229-1.686-0.399-2.486
	c-1.344-1.686-0.2,0.086-0.486-0.571c-1.143-2.629-1.801-1.886-3.2-4.401c-0.314-0.657-1.001-0.657-1.687-1.486
	c-0.771-0.886-0.485-0.915-1.857-1.315c-1.114-0.429-2.001-1.2-3.229-1.572c-2.972-0.972-8.916,0.343-7.373,2.715
	c0.286,0.429,0.372,0.458,0.915,0.429C183.176,12.552,182.519,12.466,182.861,12.209L182.861,12.209z"/>
<path fill-rule="evenodd" clip-rule="evenodd" fill="#535454" d="M175.889,3.35c6.944-0.486,2.972-1.314,10.974,0.572
	c1.058,0.257,1.629,0.229,2.486,0.686l4.315,2c0.972,0.686,0.571,0.915,2.229,0.915c-0.571-0.628-0.257-0.257-1.028-0.714
	c-0.886-0.543-1.915-1.372-3.087-1.743c-2.543-0.829-0.8-0.686-2.172-1.2c-3.372-1.229-3.601-0.572-5.515-1.058
	c-1.43-0.343-0.772-0.657-2.63-0.714c-0.8-0.029-2.372,0.028-3.172,0.171C177.546,2.378,176.46,2.835,175.889,3.35L175.889,3.35z"/>
<path fill-rule="evenodd" clip-rule="evenodd" fill="#282828" d="M193.035,15.153l0.2,0.057c1.028,0.428,0.743,0.4,1.457,1.229
	c0.515,0.543,0.972,0.886,1.286,1.4c0.687,1.058,0.972,2.315,2.629,2.772c0.172-1.714-0.171-0.543-0.6-2.058
	c-0.372-0.628-0.343-0.657-0.8-1.229c-0.458-0.543-0.801-0.829-1.115-1.315c-0.8-1.143-1.286-1.572-2.2-2.2
	c-1.943-0.4-0.314-1.143-3.001-1.543c0.258,1.029,0.114,0.515,0.629,1.058C192.007,13.867,192.749,13.81,193.035,15.153
	L193.035,15.153z"/>
<path fill-rule="evenodd" clip-rule="evenodd" fill="#D3D2D1" d="M46.831,161.274l-1.428-0.028c-0.115,0.172,0.199,0.2-0.887,0.372
	c-3.086,0.485-4.744-0.029-7.773-0.115c-2.943-0.057-5.486-1.972-7.344-1.8c0.629,1.2,1.258,0.657,3.629,1.771
	c1.258,0.601,3.229,0.314,4.716,0.657c2.801,0.687,5.372,1.058,8.173-0.229C47.032,161.388,46.317,161.817,46.831,161.274
	L46.831,161.274z"/>
<path fill-rule="evenodd" clip-rule="evenodd" fill="#999A9A" d="M3.251,110.576c0.172,1.829,2.486,3.487,3.915,4.401
	c3.315,2.172,2.429,1.2,5.401,2.743c0.742,0.2,0.771,0.286,1.429,0.458c0.686,0.171,0.8,0.143,1.429,0.285
	c1.258,0.258,1.286,0.515,2.915,0.515c-0.086-0.143-0.171-0.515-0.286-0.629c-0.914-0.057-2.057-0.257-2.914-0.429
	c-1.287-0.257-1.4-0.543-2.458-0.886c-0.772-0.143-0.886-0.257-1.429-0.543c-0.058-0.028-0.115-0.057-0.172-0.086
	c-0.057-0.028-0.114-0.057-0.143-0.085l-2.715-1.229c-0.058-0.028-0.143-0.086-0.172-0.086l-0.314-0.2
	c-0.629-0.771-0.828-0.571-1.543-1.343c-0.515-0.515-0.828-0.972-1.429-1.314c-1.372-0.886-2.772-5.487-3.458-6.059
	c0.114,1.4,0.543,1.657,0.886,2.515C2.765,109.89,2.422,109.347,3.251,110.576L3.251,110.576z"/>
<path fill-rule="evenodd" clip-rule="evenodd" fill="#535454" d="M182.118,10.523c2.115-0.229,2.772-1.115,4.916-0.486
	c1.8,0.514,3.144,0.486,3.829,2.201c-2.4-0.172-2.144-0.972-4.315-1.258c-1.829-0.257-3.172,0.629-4.572,0.943L182.118,10.523z
	 M182.118,10.523c-0.514,0.171-0.857,0.429-0.828,1.029c0,0.8,0.714,0.628,1.571,0.657l-0.057,0.143
	c0.314-0.343,0.028-0.143,0.457-0.429c3.687-2.572,9.03,2.743,9.773,3.229c-0.286-1.343-1.028-1.286-1.515-1.829
	c-0.515-0.543-0.371-0.029-0.629-1.058c2.687,0.4,1.058,1.143,3.001,1.543C192.092,10.98,185.376,7.665,182.118,10.523
	L182.118,10.523z"/>
<path fill-rule="evenodd" clip-rule="evenodd" fill="#535454" d="M178.317,62.878c3.572-0.028,4.602-0.485,9.688-0.343
	c1.543,0.029,3,0.143,4.601,0.229c2.086,0.143,2.4,0.972,4.458,0.715c-1.457-1.715-14.574-2.115-17.289-1.144
	c-0.801,0.144-0.172-0.286-1.229,0.343C178.461,62.736,178.375,62.821,178.317,62.878L178.317,62.878z"/>
<path fill-rule="evenodd" clip-rule="evenodd" fill="#282828" d="M213.64,56.505c1.2-0.601,3.372-1.114,3.544-3.001
	c-1.658,0.258-1.058,0.543-2.115,1.029c-0.285,0.114-0.771,0.2-1.114,0.343c-0.743,0.314-0.657,0.458-1.058,0.629
	c-0.629,0.286-2.028,0.314-2.571,0.314c-1.658,0.028-2.001-0.314-2.258,1.2C209.524,57.848,212.297,56.477,213.64,56.505
	L213.64,56.505z"/>
<path fill-rule="evenodd" clip-rule="evenodd" fill="#D3D2D1" d="M187.263,12.295c-0.314-0.629,0.457-0.4-0.943-0.686
	c-0.343-0.086-1.086,0.086-1.172,0.114c-0.857,0.229-1.229,0.457-2.343,0.629l0.057-0.143c-0.343,0.257,0.314,0.343-0.942,0.4
	c-0.543,0.029-0.629,0-0.915-0.429c-1.543-2.372,4.401-3.687,7.373-2.715c1.229,0.372,2.115,1.143,3.229,1.572
	c-1.258-2.629-5.944-2.343-8.717-2.058c-1.343,0.143-0.371,0.057-2.257,1.115c-0.258,1.229-0.144,2.201,0.343,3.229
	C183.662,13.581,182.062,12.18,187.263,12.295L187.263,12.295z"/>
<path fill-rule="evenodd" clip-rule="evenodd" fill="#D3D2D1" d="M23.056,123.322c1.113-0.714,0.543-0.543,1.113-1.515
	c0.4-0.743,3.029-3.086,1.572-4.63c-0.771-0.742-3.115-0.6-4.458-0.514l-1-0.687c-1.372-0.229-3.743-0.143-4.458-0.457
	c-0.715-0.286-0.115-0.286-1.115-0.6c-0.543-0.172-0.8-0.115-1.371-0.344c-0.943-0.429-0.686-0.686-2.4-0.972
	c0.028,0.058,0.114,0.086,0.143,0.172c0.343,1.4,9.059,3.029,10.916,3.144C29.057,117.407,23.884,120.207,23.056,123.322
	L23.056,123.322z"/>
<path fill-rule="evenodd" clip-rule="evenodd" fill="#535454" d="M49.918,156.673c0.229,1.314-0.771,0.543-1.515,1.457l1.658,0.286
	c-0.086,0.343,0.314,1.028-2.172,1.657c-0.915,0.229-1.687,0.515-2.486,1.172l1.428,0.028c0.372-0.457,0.43-0.543,1.315-0.543
	c0.058-0.057,0.114-0.114,0.143-0.143l0.458-0.371c0.057-0.029,0.543-0.314,0.6-0.344c0.429-0.229,1.057-0.429,1.344-0.628
	c0.514-0.344,0.399-0.543,0.885-1.029c0.258-0.257,0.658-0.515,0.973-0.743l-0.058-0.743c-1.058,0.372-0.144,0.943-2.343,0.943
	c0.199-1.715-0.258-0.457,0.714-1.429l1.657-1.658c0.515-0.543,0.143-0.028,0.629-0.856c0.6-1.058,1.914-3.315,2.086-4.659
	l-0.8,1.144c-0.286,0.515-0.257,0.429-0.485,0.943C53.147,153.187,51.404,155.359,49.918,156.673L49.918,156.673z"/>
<path fill-rule="evenodd" clip-rule="evenodd" fill="#999A9A" d="M100.844,70.652c-0.028,0.058-0.114,0.058-0.114,0.144
	c-0.058,0.229-0.743,0.399-1.286,1.199c2.114-0.086,0.972-0.229,2.029-0.828c0.657-0.371,1.4-0.286,1.8-0.629
	c2.715-2.201,1.144-0.857,3.315-1.771c0.743-0.314,0.285-0.314,0.771-0.629l4.829-2.458c0.772-0.485,0.344-0.314,0.515-0.714
	c-1.2-0.029-4.572,2.086-5.973,2.715l-4.286,2.258C101.672,70.395,101.901,70.538,100.844,70.652L100.844,70.652z"/>
<path fill-rule="evenodd" clip-rule="evenodd" fill="#999A9A" d="M182.805,12.352c1.114-0.172,1.485-0.4,2.343-0.629
	c0.086-0.028,0.829-0.2,1.172-0.114c1.4,0.286,0.629,0.057,0.943,0.686c1.058,0.057,1.629,0.571,2.229,0.915
	c0.314,0.171,0.543,0.229,0.829,0.4c1.943,1.115,6.001,6.745,6.63,7.087c0.286-0.771-0.485-1.515-1.515-2.801
	c-0.457-0.571-0.6-0.771-1-1.171c-1.114-1.086-0.886-0.458-1.2-1.515l-0.2-0.057c-0.743-0.486-6.087-5.802-9.773-3.229
	C182.833,12.209,183.119,12.009,182.805,12.352L182.805,12.352z"/>
<path fill-rule="evenodd" clip-rule="evenodd" fill="#282828" d="M182.118,10.523l-0.143,1.4c1.4-0.314,2.743-1.2,4.572-0.943
	c2.172,0.286,1.915,1.086,4.315,1.258c-0.686-1.715-2.029-1.687-3.829-2.201C184.891,9.408,184.233,10.294,182.118,10.523
	L182.118,10.523z"/>
<path fill-rule="evenodd" clip-rule="evenodd" fill="#999A9A" d="M147.311,73.481c2.029,0.172,3.772-1.285,4.516-1.6l2.887-1.201
	c0.628-0.314,0.686-0.543,1.4-0.8c1.2-0.458,2.229-0.343,3.058-1.544c-2.515,0.144-4.772,1.858-6.459,2.315
	c-1.028,0.286-0.743,0.429-1.429,0.714c-0.715,0.314-0.715,0.029-1.429,0.516c-0.314,0.257,0.629,0.199-1.515,0.686
	C147.625,72.709,147.425,72.653,147.311,73.481L147.311,73.481z"/>
<path fill-rule="evenodd" clip-rule="evenodd" fill="#999A9A" d="M82.782,77.654c1.829-0.372,4.229-1.571,5.573-2.401
	c0.714-0.457,1.686-1.143,2.4-1.428c1.028-0.372,1.743-0.857,2.715-1.086l1.372-1.201c-1.544,0.058-1.087,0.314-1.915,0.715
	c-0.743,0.371-0.943,0.114-1.687,0.543l-1.457,0.743c-0.972,0.399-0.629,0.543-1.314,0.856c-1.115,0.458-0.743-0.143-1.572,0.602
	c-0.543,0.485,0.286,0.057-0.686,0.543C84.269,76.51,83.068,76.653,82.782,77.654L82.782,77.654z"/>
<path fill-rule="evenodd" clip-rule="evenodd" fill="#282828" d="M4.766,112.148c0.601,0.343,0.914,0.8,1.429,1.314
	c0.715,0.771,0.914,0.571,1.543,1.343l1.943,0.058c-0.657-2.229-0.828-1.028-2.029-2.115c-1.657-1.515-1.742-2.257-3.314-2.486
	C4.509,110.862,4.594,111.376,4.766,112.148L4.766,112.148z"/>
<path fill-rule="evenodd" clip-rule="evenodd" fill="#999A9A" d="M213.64,56.505c-0.057,0.028-0.114,0.086-0.143,0.086
	c-0.029,0.028-0.086,0.086-0.144,0.114l-0.972,0.515c-1.086,0.372-3.686,0.429-4.657,0.114c-0.658-1.658,0.686-1.686,1.972-1.743
	c1.4-0.086,2.314-0.028,3.114-0.857c-1.257,0.028-2.4,0.485-3.771,0.628c-1.572,0.144-2.229,0.344-1.887,2.115
	c1.286,0.629,5.201,0.543,6.688-0.285c0.057-0.029,0.114-0.058,0.143-0.086c0.058-0.029,0.144-0.086,0.2-0.114l0.4-0.2
	c1.4,0.172,1.229-0.572,2.457-0.829c0.286-0.601,0-0.171,0.429-0.686c0.286-0.372,0.029,0,0.344-0.343
	c0.343-0.457,0.399-0.601,0.571-1.286c-1.314,0.771-0.457,0.915-2.115,1.886C215.583,55.934,214.868,56.563,213.64,56.505
	L213.64,56.505z"/>
<path fill-rule="evenodd" clip-rule="evenodd" fill="#D3D2D1" d="M19.255,123.894l1.257-1.344c2.772-4.772-0.571-2.543-1.715-3.687
	l-0.457,0.114c-1.629,0-1.657-0.257-2.915-0.515c-0.629-0.143-0.743-0.114-1.429-0.285c-0.657-0.172-0.687-0.258-1.429-0.458
	c0.028,0.058,0.086,0.144,0.114,0.172l0.371,0.601c2.63,0,1.515,0.742,3.63,0.942c1.486,0.144,2.258,0.286,3.771,0.372
	C20.798,123.037,19.169,121.493,19.255,123.894L19.255,123.894z"/>
<path fill-rule="evenodd" clip-rule="evenodd" fill="#535454" d="M87.384,77.568c1.086-0.343,0.657-0.457,1.943-0.714
	c0.714,0.085,4.2-1.915,5.001-2.43c1.086-0.715,1.629-0.486,2.715-1.172c0.571-0.343,1.857-1.057,2.4-1.258
	c0.543-0.8,1.229-0.971,1.286-1.199c0-0.086,0.086-0.086,0.114-0.144l-5.229,2.687c-0.857,0.4-0.857,0.143-1.629,0.743l-5.03,2.4
	C86.983,77.225,87.612,76.911,87.384,77.568L87.384,77.568z"/>
<path fill-rule="evenodd" clip-rule="evenodd" fill="#999A9A" d="M198.265,7.408c0.572,0.257,1.857,1.343,2.229,1.829
	c0.257,0.2,0.4,0.343,0.485,0.429c0.372,0.286,0.086,0.086,0.572,0.4c0,0.543-0.086,0.057,0.429,0.029
	c-0.429-1.486-3.544-3.572-5.002-4.658c-0.657-0.486-0.6-0.257-1.371-0.6c-1.4-0.629-0.486-0.972-2.943-1.172
	c0.371,0.429,0.114,0.286,0.714,0.629C194.521,4.95,196.607,5.407,198.265,7.408L198.265,7.408z"/>
<path fill-rule="evenodd" clip-rule="evenodd" fill="#D3D2D1" d="M197.208,20.925c0.114-0.457,0.057-0.085-0.258-0.229
	c-0.143,0.657-0.457-0.257,0,0.972c1.543,0.4,2.344,0.086,3.286-0.515c0-2-0.399-1.486-0.886-2.372l-0.314-0.658
	c-1.314-2.143-1.485-1.829-2.086-2.715c-0.771-1.086-0.4-1.171-1.8-1.572c1.399,2.515,2.058,1.772,3.2,4.401
	c0.286,0.657-0.857-1.115,0.486,0.571c0.628,0.8,0.686,1.629,0.399,2.486C198.265,21.583,197.894,21.783,197.208,20.925
	L197.208,20.925z"/>
<path fill-rule="evenodd" clip-rule="evenodd" fill="#282828" d="M217.27,53.562c1-0.399,0.399,0,1-0.657
	c0.057-0.057,0.429-0.743,0.515-0.972c0.285-0.972,0.171-2.114,0.114-3.115C217.526,48.989,217.212,48.303,217.27,53.562
	L217.27,53.562z"/>
<path fill-rule="evenodd" clip-rule="evenodd" fill="#D3D2D1" d="M52.49,156.73l0.058,0.743c-0.314,0.229-0.715,0.486-0.973,0.743
	c-0.485,0.486-0.371,0.686-0.885,1.029c-0.287,0.199-0.915,0.399-1.344,0.628c-0.057,0.029-0.543,0.314-0.6,0.344l-0.458,0.371
	c-0.028,0.028-0.085,0.086-0.143,0.143c1.343,0.2,1.372-0.028,2.172-0.571c1.343-0.943,2.4-1.372,2.915-2.314
	c0.457-0.829,0.314-0.687,1.086-1.2v-0.972c-0.486,0.313-0.143,0.057-0.515,0.399c-0.314,0.258,0.114,0.029-0.399,0.372
	C52.747,156.93,53.147,156.673,52.49,156.73L52.49,156.73z"/>
<path fill-rule="evenodd" clip-rule="evenodd" fill="#D3D2D1" d="M75.81,80.797c0.343-0.086,1.057-0.2,1.371-0.285
	c0.829-0.258,0.372-0.229,1.029-0.629c0.429-0.258,1.887-0.857,2.4-1.001c0.258-0.085,0.829-0.343,1.172-0.543
	c0.029-0.028,0.572-0.399,0.6-0.399c0.372-0.344,0.115-0.058,0.4-0.457c-0.828-0.144-0.715-0.287-1.457,0.113
	c-0.572,0.314,0.086-0.057-0.371,0.372c-0.029,0.028-0.086,0.114-0.115,0.143c-0.028,0-0.057,0.058-0.086,0.086
	c-0.314,0.229-1.485,0.314-2.114,0.372c-1.058,1.171-1.2,0.742-2.571,1.285C75.838,80.311,75.924,80.198,75.81,80.797L75.81,80.797z
	"/>
<path fill-rule="evenodd" clip-rule="evenodd" fill="#999A9A" d="M95.585,100.087c1.43,0.029,1.2-0.429,2.201-0.857l1.6-0.628
	c0.058-0.029,0.144-0.114,0.372-0.2c1.028-1,2.715-1.286,3.458-1.801l0.8-0.914c-0.914,0.114-3.629,1.657-4.486,2.086
	C97.786,98.573,95.957,99.031,95.585,100.087L95.585,100.087z"/>
<path fill-rule="evenodd" clip-rule="evenodd" fill="#D3D2D1" d="M158.514,37.301c1.229-0.058,2.886-1.4,3.687-1.943
	c0.485-0.314,0.972-0.771,1.457-1.229c0.743-0.658,0.886-0.857,1.058-2.059c-0.8,0.486-1.4,1.372-2.058,2.029l-0.343,0.371
	c-1.086,1.115-0.457,0-2.087,1.314C159.257,36.558,159.199,36.014,158.514,37.301L158.514,37.301z"/>
<path fill-rule="evenodd" clip-rule="evenodd" fill="#999A9A" d="M148.168,43.302c0.601-0.028,5.888-2.772,6.859-3.515
	c0.543-0.457,0.028,0.086,0.485-0.515c-1.229,0.028-2.915,1.144-3.887,1.714C150.454,41.702,148.854,41.988,148.168,43.302
	L148.168,43.302z"/>
<path fill-rule="evenodd" clip-rule="evenodd" fill="#999A9A" d="M166.286,65.622l9.945-4.144c-1.886-0.114-1.314,0.4-2.771,0.829
	c-1.43,0.4-1.344,0.258-2.544,0.857c-0.914,0.486-1.457,0.371-2.458,0.943C166.344,65.336,166.372,64.307,166.286,65.622
	L166.286,65.622z"/>
<path fill-rule="evenodd" clip-rule="evenodd" fill="#535454" d="M58.549,90.714l12.632-4.973l3.715-2.172
	c-1.629-0.172-1.486,0.399-2.029,0.828l-3.83,1.972c-1.715,0.515-0.8-0.399-2.172,0.715c-1.828,1.458-3.057,0.857-5.086,2.2
	C60.549,90.085,60.378,89.457,58.549,90.714L58.549,90.714z"/>
<path fill-rule="evenodd" clip-rule="evenodd" fill="#535454" d="M196.95,20.697c0.314,0.143,0.372-0.229,0.258,0.229l1.429,0.143
	c0.229-0.343,0.257,0.286,0.371-0.829c0.058-0.743-0.429-1.315-1-1.687c0.429,1.515,0.771,0.343,0.6,2.058
	c-1.657-0.457-1.942-1.714-2.629-2.772c-0.314-0.514-0.771-0.857-1.286-1.4c-0.714-0.829-0.429-0.8-1.457-1.229
	c0.314,1.057,0.086,0.428,1.2,1.515c0.4,0.4,0.543,0.6,1,1.171C196.465,19.182,197.236,19.925,196.95,20.697L196.95,20.697z"/>
<path fill-rule="evenodd" clip-rule="evenodd" fill="#D3D2D1" d="M22.884,152.33c-0.2-0.515-0.286-0.743-0.314-1.515
	c-0.429-0.286-0.657-0.429-1.4-0.543l0.029-1.43c-0.601,0.458-0.372,0.258-1.115,0.144c-0.285-0.829-0.172-1.001-1.086-1.086
	c0.4,1.057,1,1.429,1.743,2.515c0.4,0.571,0.458,0.657,0.857,1.143C22.112,152.215,21.569,152.244,22.884,152.33L22.884,152.33z"/>
<path fill-rule="evenodd" clip-rule="evenodd" fill="#535454" d="M113.561,91.143c2.286-0.4,3.772-0.829,4.944-2.172l-0.915-0.258
	c-0.771,1.144-0.514,0.543-1.943,1.258C112.847,91.372,113.817,90.028,113.561,91.143L113.561,91.143z"/>
<path fill-rule="evenodd" clip-rule="evenodd" fill="#999A9A" d="M112.703,64.965c1.258,0.143,1.2-0.4,2.229-0.887
	c1.028-0.457,1.371-0.371,2-1.229c-1.028-0.258-0.914,0-1.8,0.486C114.275,63.793,113.132,64.05,112.703,64.965L112.703,64.965z"/>
<path fill-rule="evenodd" clip-rule="evenodd" fill="#535454" d="M52.49,156.73c0.657-0.057,0.257,0.2,0.915-0.285
	c0.514-0.343,0.085-0.114,0.399-0.372c0.372-0.343,0.028-0.086,0.515-0.399l0.028-0.058c0.515-1.058,0.543-0.543,0.571-1.543
	c-0.543,0.457-0.828,0.857-1.258,1.4C52.633,156.73,52.118,155.788,52.49,156.73L52.49,156.73z"/>
</svg>
