<?xml version="1.0" encoding="utf-8"?>
<!-- Generator: Adobe Illustrator 15.0.0, SVG Export Plug-In  -->
<!DOCTYPE svg PUBLIC "-//W3C//DTD SVG 1.1//EN" "http://www.w3.org/Graphics/SVG/1.1/DTD/svg11.dtd" [
	<!ENTITY ns_flows "http://ns.adobe.com/Flows/1.0/">
]>
<svg version="1.1"
	 xmlns="http://www.w3.org/2000/svg" xmlns:xlink="http://www.w3.org/1999/xlink" xmlns:a="http://ns.adobe.com/AdobeSVGViewerExtensions/3.0/"
	 x="0px" y="0px" width="122px" height="167px" viewBox="0.001 -0.001 122 167" enable-background="new 0.001 -0.001 122 167"
	 xml:space="preserve">
<defs>
</defs>
<path fill-rule="evenodd" clip-rule="evenodd" fill="#2E2E2E" d="M23.173,154.033c1.43-2.629,0.057-3.857,5.344-0.229l1.658-3.973
	l12.002-1.743l1.144,7.316c1.714-2.372,1.144-1.515,1.485-8.002l13.718-0.543l1.772,7.916c0.771-2.657,0.6-4.458,0.657-7.373
	l15.546,0.485c-0.058,5.431-0.972,2.772,1.571,7.488l0.715-7.573l11.088,2.571l1.114,4.345c0.229-0.2,1.915-2.173,2.229-2.315
	l2.857,2.887c-5.829,4.772-28.92,5.287-35.607,5.258C50.321,160.492,29.517,160.149,23.173,154.033L23.173,154.033z M36.976,44.121
	l23.434-0.229c1.087,24.205-1.343,74.189-2.229,100.652l-13.945,0.658L36.976,44.121z M61.581,144.603
	c-2.057-8.888,0.486-52.584,0.771-65.188c0.144-6.716-0.6-28.321,0.458-33.151c0.972-4.543,10.088-12.06,21.805-3.344
	c-1.115,16.119-5.544,92.194-8.002,101.939L61.581,144.603z M79.186,144.974c1.485-21.29,3.4-42.639,5.286-63.759
	c0.972-10.717,1.515-21.604,2.287-32.064c0.714-9.23,10.173-15.575,18.146-9.059L90.902,148.003
	C87.33,147.375,82.157,146.917,79.186,144.974L79.186,144.974z M17.172,39.063c8.229-5.002,16.804-1.687,18.089,12.117
	c1.115,12.117,6.717,86.564,6.202,93.794l-12.574,2.544L17.172,39.063z M19.743,157.549C17.772,144.603,4.368,37.348,5.083,32.889
	c3.916,1.688,8.373,2.602,9.688,7.432c1.115,4.144,11.604,107.283,11.461,107.683l-5.688,6.03
	c27.635,6.059,37.236,11.031,62.328,7.259c6.887-1.057,14.432-1.114,16.689-7.259l-6.287-4.687L107.478,40.92
	c0.628-1.887,2.601-4.201,3.915-5.43c2.571-2.372,2.686-2.258,4.515-1.286c-1.286,11.089-13.316,114.742-15.574,123.688
	L19.743,157.549z M2.483,19.229l13.916,4.373c19.462,5.001,56.127,4.973,76.417,2.601c12.175-1.4,16.204-3.401,26.12-6.373
	l-1.286,10.945L107.22,37.49l-20.547,3.602l-13.117-4.545c-5.658,0.344-8.831,3.887-12.346,5.573l-24.948-0.687
	c-5.858-1.914-6.487-10.431-20.176-4.743L3.911,30.574L2.483,19.229z M1.968,13.855c8.488-16.117,111.768-15.061,117.74,1.029
	C111.307,29.717,9.026,28.889,1.968,13.855L1.968,13.855z M0.024,11.684c-0.656,5.83,12.232,102.911,14.461,121.03
	c0.743,6.002,1.457,19.205,2.771,24.178c3.315,12.374,54.098,10.374,68.444,8.373c22.862-3.229,16.632-6.059,23.748-57.128
	c2.172-15.547,12.717-85.793,12.545-95.652l-12.23-6.658C92.217-1.719,14.456-3.977,0.024,11.684L0.024,11.684z"/>
<path fill-rule="evenodd" clip-rule="evenodd" fill="#B2A4D0" d="M61.581,144.603l15.032,0.257
	c2.458-9.745,6.887-85.82,8.002-101.939c-11.717-8.716-20.833-1.199-21.805,3.344c-1.058,4.83-0.314,26.436-0.458,33.151
	C62.067,92.019,59.524,135.715,61.581,144.603L61.581,144.603z"/>
<path fill-rule="evenodd" clip-rule="evenodd" fill="#7C95CC" d="M44.235,145.203l13.945-0.658
	c0.886-26.463,3.315-76.447,2.229-100.652l-23.434,0.229L44.235,145.203z"/>
<path fill-rule="evenodd" clip-rule="evenodd" fill="#7C95CC" d="M19.743,157.549l80.59,0.343
	c2.258-8.945,14.288-112.599,15.574-123.688c-1.829-0.972-1.943-1.086-4.515,1.286c-1.314,1.229-3.287,3.543-3.915,5.43
	L93.274,149.347l6.287,4.687c-2.258,6.145-9.803,6.202-16.689,7.259c-25.092,3.772-34.693-1.2-62.328-7.259l5.688-6.03
	c0.143-0.399-10.346-103.539-11.461-107.683c-1.314-4.83-5.771-5.744-9.688-7.432C4.368,37.348,17.772,144.603,19.743,157.549
	L19.743,157.549z"/>
<path fill-rule="evenodd" clip-rule="evenodd" fill="#B2A4D0" d="M17.172,39.063l11.717,108.455l12.574-2.544
	c0.515-7.229-5.087-81.677-6.202-93.794C33.976,37.376,25.401,34.061,17.172,39.063L17.172,39.063z"/>
<path fill-rule="evenodd" clip-rule="evenodd" fill="#B2A4D0" d="M79.186,144.974c2.972,1.943,8.145,2.401,11.717,3.029
	l14.003-107.911c-7.974-6.517-17.433-0.172-18.146,9.059c-0.772,10.46-1.315,21.348-2.287,32.064
	C82.586,102.335,80.671,123.684,79.186,144.974L79.186,144.974z"/>
<path fill-rule="evenodd" clip-rule="evenodd" fill="#B2A4D0" d="M3.911,30.574l12.175,6.116
	c13.688-5.688,14.317,2.829,20.176,4.743L61.21,42.12c3.515-1.687,6.688-5.229,12.346-5.573l13.117,4.545l20.547-3.602l10.431-6.716
	l1.286-10.945c-9.916,2.972-13.945,4.973-26.12,6.373c-20.29,2.372-56.955,2.4-76.417-2.601L2.483,19.229L3.911,30.574z"/>
<path fill-rule="evenodd" clip-rule="evenodd" fill="#D8D9D9" d="M9.484,13.855c8.145,7.23,94.592,11.061,102.68-0.314L60.467,6.997
	C50.093,6.883,13.828,7.141,9.484,13.855L9.484,13.855z"/>
<path fill-rule="evenodd" clip-rule="evenodd" fill="#D8D9D9" d="M23.173,154.033c6.344,6.116,27.148,6.459,37.294,6.516
	c6.688,0.029,29.778-0.485,35.607-5.258l-2.857-2.887c-0.314,0.143-2,2.115-2.229,2.315l-1.114-4.345l-11.088-2.571l-0.715,7.573
	c-2.543-4.716-1.629-2.058-1.571-7.488l-15.546-0.485c-0.058,2.915,0.114,4.716-0.657,7.373l-1.772-7.916l-13.718,0.543
	c-0.342,6.487,0.229,5.63-1.485,8.002l-1.144-7.316l-12.002,1.743l-1.658,3.973C23.229,150.176,24.603,151.404,23.173,154.033
	L23.173,154.033z"/>
<path fill-rule="evenodd" clip-rule="evenodd" fill="#2E2E2E" d="M9.484,13.855c4.344-6.715,40.608-6.973,50.982-6.858l51.697,6.544
	C104.076,24.916,17.629,21.086,9.484,13.855L9.484,13.855z M6.684,13.855c4.802,8.889,45.81,8.859,53.783,9.031
	c15.575,0.344,43.981,0.972,54.44-7.545l-10.03-6.602C94.903,4.568,13.37,0.424,6.684,13.855L6.684,13.855z"/>
<path fill-rule="evenodd" clip-rule="evenodd" fill="#B2A4D0" d="M6.684,13.855c6.687-13.432,88.22-9.287,98.193-5.115l10.03,6.602
	c-10.459,8.517-38.865,7.889-54.44,7.545C52.493,22.715,11.485,22.744,6.684,13.855L6.684,13.855z M1.968,13.855
	c7.059,15.033,109.339,15.861,117.74,1.029C113.735-1.205,10.456-2.262,1.968,13.855L1.968,13.855z"/>
</svg>
