<?xml version="1.0" encoding="utf-8"?>
<!-- Generator: Adobe Illustrator 15.0.0, SVG Export Plug-In . SVG Version: 6.00 Build 0)  -->
<!DOCTYPE svg PUBLIC "-//W3C//DTD SVG 1.1//EN" "http://www.w3.org/Graphics/SVG/1.1/DTD/svg11.dtd">
<svg version="1.1" id="Layer_1" xmlns="http://www.w3.org/2000/svg" xmlns:xlink="http://www.w3.org/1999/xlink" x="0px" y="0px"
	 width="9.104px" height="10.833px" viewBox="1.354 0 9.104 10.833" enable-background="new 1.354 0 9.104 10.833"
	 xml:space="preserve">
<g>
	<path d="M7.05,9.551H5.993L4.941,9.545c-0.248,0-0.421-0.016-0.521-0.047C4.239,9.434,4.149,9.297,4.149,9.092
		c0-0.36,0.278-0.541,0.834-0.541l0.255,0.006l0.218,0.011c0-0.171-0.015-0.424-0.045-0.759c-0.03-0.335-0.045-0.586-0.045-0.753
		c0-0.453,0.041-1.14,0.122-2.063C5.566,4.086,5.604,3.396,5.6,2.926C5.125,3.297,4.822,3.482,4.691,3.482
		c-0.142,0-0.265-0.053-0.369-0.16c-0.104-0.107-0.157-0.23-0.157-0.369c0-0.167,0.152-0.371,0.457-0.609
		c0.191-0.136,0.462-0.353,0.813-0.652c0.312-0.317,0.609-0.476,0.893-0.476c0.237,0,0.356,0.137,0.356,0.411
		c0,0.082-0.011,0.204-0.032,0.366C6.63,2.156,6.621,2.278,6.621,2.36c0,0.118,0.006,0.296,0.019,0.535
		c0.012,0.238,0.019,0.417,0.019,0.534c0,0.406-0.041,1.012-0.127,1.816c-0.087,0.804-0.129,1.41-0.129,1.812
		c0,0.207,0.014,0.458,0.042,0.753s0.044,0.538,0.048,0.728L7.05,8.526c0.148,0,0.271,0.049,0.369,0.146
		C7.516,8.771,7.565,8.893,7.565,9.04c0,0.149-0.049,0.272-0.146,0.369C7.322,9.502,7.199,9.551,7.05,9.551z"/>
</g>
</svg>
