<?xml version="1.0" encoding="utf-8"?>
<!-- Generator: Adobe Illustrator 15.0.0, SVG Export Plug-In . SVG Version: 6.00 Build 0)  -->
<!DOCTYPE svg PUBLIC "-//W3C//DTD SVG 1.1//EN" "http://www.w3.org/Graphics/SVG/1.1/DTD/svg11.dtd">
<svg version="1.1" id="Layer_1" xmlns="http://www.w3.org/2000/svg" xmlns:xlink="http://www.w3.org/1999/xlink" x="0px" y="0px"
	 width="9.109px" height="10.833px" viewBox="1.208 0 9.109 10.833" enable-background="new 1.208 0 9.109 10.833"
	 xml:space="preserve">
<g>
	<path d="M5.653,9.792c-0.535,0-1.015-0.111-1.44-0.336c-0.478-0.26-0.8-0.625-0.967-1.095C3.225,8.295,3.215,8.234,3.215,8.172
		c0-0.143,0.054-0.26,0.162-0.354C3.485,7.724,3.61,7.676,3.752,7.676s0.264,0.066,0.367,0.197l0.245,0.369
		C4.49,8.417,4.662,8.547,4.877,8.635c0.216,0.087,0.475,0.131,0.776,0.131c0.386,0,0.724-0.121,1.015-0.363
		C6.976,8.147,7.13,7.833,7.13,7.463c0-0.539-0.196-0.967-0.59-1.289C6.193,5.897,5.733,5.728,5.159,5.667
		c-0.393-0.039-0.59-0.2-0.59-0.481c0-0.21,0.154-0.371,0.462-0.481L6.3,4.39c0.244-0.089,0.43-0.209,0.554-0.36
		c0.124-0.151,0.188-0.336,0.19-0.553c0.008-0.313-0.112-0.567-0.36-0.759c-0.259-0.2-0.622-0.299-1.089-0.299
		c-0.241,0-0.475,0.059-0.701,0.176l-0.601,0.38C4.176,3.05,4.083,3.087,4.012,3.087c-0.142,0-0.263-0.055-0.364-0.163
		C3.547,2.815,3.496,2.691,3.496,2.552C3.496,2.271,3.767,2,4.309,1.74C4.78,1.509,5.168,1.393,5.473,1.393
		c0.761,0,1.364,0.169,1.812,0.507c0.479,0.363,0.717,0.882,0.717,1.555c0,0.837-0.336,1.389-1.01,1.656
		c-0.06,0.025-0.129,0.05-0.207,0.075C7.255,5.36,7.609,5.622,7.841,5.969C8.076,6.316,8.192,6.75,8.192,7.271
		c0,0.702-0.245,1.297-0.737,1.787C6.962,9.547,6.361,9.792,5.653,9.792z"/>
</g>
</svg>
