<?xml version="1.0" encoding="utf-8"?>
<!-- Generator: Adobe Illustrator 15.0.0, SVG Export Plug-In . SVG Version: 6.00 Build 0)  -->
<!DOCTYPE svg PUBLIC "-//W3C//DTD SVG 1.1//EN" "http://www.w3.org/Graphics/SVG/1.1/DTD/svg11.dtd">
<svg version="1.1" id="Layer_1" xmlns="http://www.w3.org/2000/svg" xmlns:xlink="http://www.w3.org/1999/xlink" x="0px" y="0px"
	 width="9.094px" height="10.833px" viewBox="1.177 0 9.094 10.833" enable-background="new 1.177 0 9.094 10.833"
	 xml:space="preserve">
<g>
	<path d="M7.561,7.211v1.977c0,0.331-0.162,0.497-0.483,0.497c-0.375,0-0.563-0.259-0.563-0.774c0-0.064,0.003-0.156,0.011-0.273
		c0.006-0.116,0.01-0.197,0.01-0.24L6.531,7.185l-2.344-0.06c-0.485,0-0.822-0.016-1.01-0.047C2.855,7.024,2.694,6.898,2.694,6.7
		c0-0.162,0.098-0.363,0.292-0.609l0.457-0.545l2.614-3.836C6.294,1.377,6.595,1.211,6.96,1.211c0.399,0,0.601,0.174,0.601,0.523
		v4.44c0.06-0.004,0.133-0.006,0.218-0.006c0.651,0,0.979,0.176,0.979,0.529c0,0.256-0.135,0.418-0.404,0.486
		C8.231,7.217,7.968,7.226,7.561,7.211z M6.531,2.691C5.584,4.208,4.846,5.345,4.314,6.1l2.217,0.055V2.691z"/>
</g>
</svg>
