<?xml version="1.0" encoding="utf-8"?>
<!-- Generator: Adobe Illustrator 15.0.0, SVG Export Plug-In . SVG Version: 6.00 Build 0)  -->
<!DOCTYPE svg PUBLIC "-//W3C//DTD SVG 1.1//EN" "http://www.w3.org/Graphics/SVG/1.1/DTD/svg11.dtd">
<svg version="1.1" id="Layer_1" xmlns="http://www.w3.org/2000/svg" xmlns:xlink="http://www.w3.org/1999/xlink" x="0px" y="0px"
	 width="9.094px" height="10.833px" viewBox="1.208 0 9.094 10.833" enable-background="new 1.208 0 9.094 10.833"
	 xml:space="preserve">
<g>
	<path d="M5.425,9.883c-1.006,0-1.746-0.375-2.221-1.123C3.14,8.659,3.108,8.558,3.108,8.461c0-0.139,0.055-0.258,0.165-0.36
		S3.507,7.95,3.645,7.95c0.145,0,0.283,0.078,0.414,0.234c0.188,0.229,0.33,0.374,0.425,0.438c0.23,0.158,0.543,0.235,0.94,0.235
		c0.613,0,1.121-0.235,1.525-0.705c0.385-0.448,0.578-0.987,0.578-1.618c0-0.521-0.085-0.943-0.255-1.267
		c-0.22-0.41-0.558-0.614-1.015-0.614c-0.379,0-0.689,0.052-0.93,0.155C5.138,4.889,4.945,5.03,4.75,5.229L4.171,5.865
		c-0.156,0.16-0.315,0.24-0.478,0.24c-0.142,0-0.262-0.052-0.361-0.151C3.233,5.852,3.183,5.729,3.183,5.587
		c0-0.071,0.028-0.388,0.085-0.951c0.121-1.122,0.181-1.859,0.181-2.212c0-0.125-0.031-0.261-0.093-0.409
		C3.293,1.868,3.262,1.758,3.262,1.687c0-0.217,0.187-0.326,0.558-0.326c0.071,0,0.178,0.006,0.321,0.019
		c0.144,0.013,0.25,0.019,0.321,0.019c0.206,0,0.514-0.007,0.925-0.021c0.411-0.014,0.719-0.021,0.924-0.021
		c0.097,0,0.241,0.004,0.437,0.011c0.194,0.007,0.34,0.011,0.436,0.011c0.066,0,0.165-0.013,0.292-0.04
		c0.127-0.027,0.224-0.04,0.286-0.04c0.139,0,0.261,0.052,0.367,0.155c0.106,0.101,0.16,0.22,0.16,0.356
		c0,0.399-0.42,0.599-1.26,0.599c-0.109,0-0.248-0.003-0.414-0.011C6.447,2.39,6.347,2.387,6.312,2.387L5.414,2.403L4.516,2.43
		c0,0.16-0.065,0.753-0.196,1.779C4.805,3.82,5.451,3.626,6.259,3.626c0.78,0,1.374,0.306,1.786,0.919
		c0.347,0.52,0.521,1.183,0.521,1.987c0,0.963-0.28,1.754-0.839,2.379C7.144,9.559,6.376,9.883,5.425,9.883z"/>
</g>
</svg>
