<?xml version="1.0" encoding="utf-8"?>
<!-- Generator: Adobe Illustrator 15.0.0, SVG Export Plug-In . SVG Version: 6.00 Build 0)  -->
<!DOCTYPE svg PUBLIC "-//W3C//DTD SVG 1.1//EN" "http://www.w3.org/Graphics/SVG/1.1/DTD/svg11.dtd">
<svg version="1.1" id="Layer_1" xmlns="http://www.w3.org/2000/svg" xmlns:xlink="http://www.w3.org/1999/xlink" x="0px" y="0px"
	 width="9.083px" height="10.833px" viewBox="1.104 0 9.083 10.833" enable-background="new 1.104 0 9.083 10.833"
	 xml:space="preserve">
<g>
	<path d="M5.611,9.931c-0.925,0-1.604-0.341-2.04-1.021C3.209,8.352,3.029,7.605,3.029,6.672c0-1.76,0.71-3.287,2.13-4.58
		l0.499-0.507C5.903,1.35,6.087,1.233,6.211,1.233c0.142,0,0.266,0.05,0.373,0.152c0.105,0.103,0.16,0.222,0.164,0.361
		c0.008,0.128-0.174,0.376-0.542,0.743L5.122,3.552C4.835,3.844,4.589,4.285,4.383,4.876C4.691,4.734,4.96,4.628,5.191,4.559
		c0.23-0.069,0.42-0.104,0.568-0.104c0.829,0,1.464,0.223,1.907,0.668C8.109,5.568,8.33,6.198,8.33,7.008
		c0,0.853-0.238,1.547-0.717,2.084C7.115,9.651,6.447,9.931,5.611,9.931z M5.611,5.544c-0.305,0-0.578,0.054-0.818,0.16
		C4.7,5.748,4.468,5.885,4.097,6.116C4.075,6.305,4.064,6.491,4.064,6.672c0,0.638,0.106,1.158,0.319,1.56
		c0.269,0.513,0.689,0.771,1.259,0.771c0.535,0,0.949-0.192,1.242-0.578c0.273-0.355,0.41-0.827,0.41-1.416
		c0-0.487-0.141-0.854-0.42-1.097C6.595,5.667,6.174,5.544,5.611,5.544z"/>
</g>
</svg>
