<?xml version="1.0" encoding="utf-8"?>
<!-- Generator: Adobe Illustrator 15.0.0, SVG Export Plug-In . SVG Version: 6.00 Build 0)  -->
<!DOCTYPE svg PUBLIC "-//W3C//DTD SVG 1.1//EN" "http://www.w3.org/Graphics/SVG/1.1/DTD/svg11.dtd">
<svg version="1.1" id="Layer_1" xmlns="http://www.w3.org/2000/svg" xmlns:xlink="http://www.w3.org/1999/xlink" x="0px" y="0px"
	 width="434.978px" height="600px" viewBox="0 0 434.978 600" enable-background="new 0 0 434.978 600" xml:space="preserve">
<path fill="#CEEBED" stroke="#000000" stroke-width="2" stroke-linecap="round" stroke-linejoin="round" stroke-miterlimit="10" d="
	M267.398,417c0,0,46-39,66.5-40s46,29.5,41.5,59.5s-22.626,57.444-37.75,69.167c21.75,0.333,64.75-23.167,82.25,26.833
	c5.636,16.102,5,15-20,22.5s-62.666,8-81.833,4c-34.167,31.5-83.999,6.168-89.333-0.666c-71.334,29.166-93.167,1.498-96-0.668
	c-106.833,0.834-104.666-10.836-108-16.001c13.666-70.165,81.5-37.166,86.166-36.165c-58-66-34.499-99.17-29.5-107.835
	s30.667-33.335,47.333-14S267.398,417,267.398,417z"/>
<path fill="none" stroke="#000000" stroke-width="2" stroke-linecap="round" stroke-linejoin="round" stroke-miterlimit="10" d="
	M379.898,512.5c14.25,6.25,15.383,43.771,15.383,43.771"/>
<path fill="none" stroke="#000000" stroke-width="2" stroke-linecap="round" stroke-linejoin="round" stroke-miterlimit="10" d="
	M355.148,520.5c10,3,12.823,40.125,12.823,40.125"/>
<path fill="none" stroke="#000000" stroke-width="2" stroke-linecap="round" stroke-linejoin="round" stroke-miterlimit="10" d="
	M297.398,536c15.75,6.25,6.654,32.573,6.654,32.573"/>
<path fill="none" stroke="#000000" stroke-width="2" stroke-linecap="round" stroke-linejoin="round" stroke-miterlimit="10" d="
	M272.148,539.5c8.25,1.5,5.501,34.938,5.501,34.938"/>
<path fill="none" stroke="#000000" stroke-width="2" stroke-linecap="round" stroke-linejoin="round" stroke-miterlimit="10" d="
	M170.148,536c-3.25,15.75,7.495,35.427,7.495,35.427"/>
<path fill="none" stroke="#000000" stroke-width="2" stroke-linecap="round" stroke-linejoin="round" stroke-miterlimit="10" d="
	M143.898,534.5c-3,11,3.604,32.856,3.604,32.856"/>
<path fill="none" stroke="#000000" stroke-width="2" stroke-linecap="round" stroke-linejoin="round" stroke-miterlimit="10" d="
	M92.898,518.5c-14,15.75-12.016,38.322-12.016,38.322"/>
<path fill="none" stroke="#000000" stroke-width="2" stroke-linecap="round" stroke-linejoin="round" stroke-miterlimit="10" d="
	M68.148,510.5c-13.5,8-15.235,43.891-15.235,43.891"/>
<path fill="none" stroke="#000000" stroke-width="2" stroke-linecap="round" stroke-linejoin="round" stroke-miterlimit="10" d="
	M304.398,410.5c0,0,0,0-7,97.5c40.5,24,20.667,51,20.667,51"/>
<path fill="none" stroke="#000000" stroke-width="2" stroke-linecap="round" stroke-linejoin="round" stroke-miterlimit="10" d="
	M152.898,443.5c0,0,0,0,6.5,57.5c-55,18.5-26.667,56.666-26.667,56.666"/>
<path fill="none" stroke="#000000" stroke-width="2" stroke-linecap="round" stroke-linejoin="round" stroke-miterlimit="10" d="
	M223.762,475.443c-9.364,41.057,4.97,82.891,4.97,82.891"/>
<path fill="#BBDEB5" stroke="#000000" stroke-width="2" stroke-linecap="round" stroke-linejoin="round" stroke-miterlimit="10" d="
	M301.398,335c9.5,0.5,34.043,30.022,12.543,64.022S230.398,433.5,244.398,469.5c-82.5,1.5-110-39.5-116-62.5s12.145-57,44.322-68
	S291.898,334.5,301.398,335z"/>
<path fill="#CEEBED" stroke="#000000" stroke-width="2" stroke-linecap="round" stroke-linejoin="round" stroke-miterlimit="10" d="
	M219.898,20.5c35.5,4,10.536,164.2,10.536,164.2s-37.036,5.8-63.536,20.3C160.398,188,184.398,16.5,219.898,20.5z"/>
<path fill="#CEEBED" stroke="#000000" stroke-width="2" stroke-linecap="round" stroke-linejoin="round" stroke-miterlimit="10" d="
	M395.398,70.5c23,15-15.5,113-25.5,129s-53,75.5-72.25,65.25s-15.75-59.25-15.75-59.25S372.398,55.5,395.398,70.5z"/>
<path fill="#FFFFFF" stroke="#000000" stroke-width="2" stroke-linecap="round" stroke-linejoin="round" stroke-miterlimit="10" d="
	M375.898,105c17.5,7-36.5,133.5-66.5,141.5s-16.5-31.5-16.5-31.5S358.398,98,375.898,105z"/>
<path fill="#CEEBED" stroke="#000000" stroke-width="2" stroke-linecap="round" stroke-linejoin="round" stroke-miterlimit="10" d="
	M312.148,309.25c14.319-76.121-22.845-114.152-36.805-112.75s-71.945-31-114.945,12s-25,106-25,106S297.829,385.371,312.148,309.25z
	"/>
<path fill="#FFFFFF" stroke="#000000" stroke-width="2" stroke-linecap="round" stroke-linejoin="round" stroke-miterlimit="10" d="
	M266.898,288.5c0,0,15.895-46.793-10.5-53s-32.881,53-32.881,53H266.898z"/>
<path fill="#BBDEB5" stroke="#000000" stroke-width="2" stroke-linecap="round" stroke-linejoin="round" stroke-miterlimit="10" d="
	M285.292,199.958c-53.971,1.5-24.894,16.042-77.394,43.042c0-20,0-20,0-20s-23.5,18-50.5,5c15.5-7-9,2.5,15.5-7
	c-27.5,1.5-27.5,1.5-45.639-27c35.139,19,55.382-7.028,64.945-10.344S229.762,149.458,285.292,199.958z"/>
<path fill="#FFFFFF" stroke="#000000" stroke-width="2" stroke-linecap="round" stroke-linejoin="round" stroke-miterlimit="10" d="
	M174.398,235.044c-28.5,1.456-22,53.456-22,53.456h38.5C190.898,288.5,202.898,233.588,174.398,235.044z"/>
<path stroke="#000000" stroke-width="2" stroke-linecap="round" stroke-linejoin="round" stroke-miterlimit="10" d="M167.148,249.5
	c17,1.25,13,39,13,39s0,0-27.75,0C151.771,274.996,150.148,248.25,167.148,249.5z"/>
<path stroke="#000000" stroke-width="2" stroke-linecap="round" stroke-linejoin="round" stroke-miterlimit="10" d="M249.648,288.5
	c-11.75,0-11.75,0-26.131,0c0.878-5.737,5.715-43.5,21.048-42.333S254.898,275.75,249.648,288.5z"/>
<path fill="#FFFFFF" stroke="#000000" stroke-width="2" stroke-linecap="round" stroke-linejoin="round" stroke-miterlimit="10" d="
	M160.398,261c1-5,8.5-4.75,7.75,0.75S159.398,266,160.398,261z"/>
<path fill="#FFFFFF" stroke="#000000" stroke-width="2" stroke-linecap="round" stroke-linejoin="round" stroke-miterlimit="10" d="
	M237.898,259c1-5,8.5-4.75,7.75,0.75S236.898,264,237.898,259z"/>
<path fill="#F5EA5F" stroke="#000000" stroke-width="2" stroke-linecap="round" stroke-linejoin="round" stroke-miterlimit="10" d="
	M300.732,291.667c10.666,5,35.667,26.667,0,55.667c-24.238,19.707-62.792,32.621-95.682,27.333
	c-15.508-2.493-29.757-14.404-40.652-21.667c-34-22.666-39.667-36-38.333-53.667C127.398,281.667,164.731,287,164.731,287
	S290.066,286.667,300.732,291.667z"/>
<path fill="none" stroke="#000000" stroke-width="2" stroke-linecap="round" stroke-linejoin="round" stroke-miterlimit="10" d="
	M202.523,305.875c0,0-0.83,14.536,7.504,20.203"/>
<path fill="none" stroke="#000000" stroke-width="2" stroke-linecap="round" stroke-linejoin="round" stroke-miterlimit="10" d="
	M253.398,307.667c-51,37.667-81.167,7.5-89.833,1.5"/>
<path fill="none" stroke="#000000" stroke-width="2" stroke-linecap="round" stroke-linejoin="round" stroke-miterlimit="10" d="
	M267.398,315.334c-13-0.334-18-17.334-18-17.334"/>
<path fill="#BBDEB5" stroke="#000000" stroke-width="2" stroke-linecap="round" stroke-linejoin="round" stroke-miterlimit="10" d="
	M206.523,279.375c11.956,1.175,17.819,6.94,15.605,14.125c-1.791,5.811-9.321,13.604-19.605,12.375
	C179.523,303.125,184.898,277.25,206.523,279.375z"/>
<path fill="none" stroke="#000000" stroke-width="2" stroke-linecap="round" stroke-linejoin="round" stroke-miterlimit="10" d="
	M164.064,298c2.667,13-8.333,18-8.333,18"/>
<path fill="#FFFFFF" stroke="#000000" stroke-width="2" stroke-linecap="round" stroke-linejoin="round" stroke-miterlimit="10" d="
	M239.783,316.45c0,0-4.219,47.383-24.718,44.55c-20.5-2.833-20.667-28-25.232-36.948C219.731,329.833,239.783,316.45,239.783,316.45
	z"/>
<path fill="#E6D1D1" stroke="#000000" stroke-width="2" stroke-linecap="round" stroke-linejoin="round" stroke-miterlimit="10" d="
	M223.517,337.667L203.398,340l-6.981-14.444c0,0,18.375,0.637,24.015-1.258C223.517,337.667,223.517,337.667,223.517,337.667z"/>
<line fill="none" stroke="#000000" stroke-width="2" stroke-linecap="round" stroke-linejoin="round" stroke-miterlimit="10" x1="208.576" y1="326.18" x2="212.886" y2="338.899"/>
</svg>
