<?xml version="1.0" encoding="utf-8"?>
<!-- Generator: Adobe Illustrator 15.0.0, SVG Export Plug-In . SVG Version: 6.00 Build 0)  -->
<!DOCTYPE svg PUBLIC "-//W3C//DTD SVG 1.1//EN" "http://www.w3.org/Graphics/SVG/1.1/DTD/svg11.dtd">
<svg version="1.1" id="Layer_1" xmlns="http://www.w3.org/2000/svg" xmlns:xlink="http://www.w3.org/1999/xlink" x="0px" y="0px"
	 width="434px" height="572.001px" viewBox="0 0 434 572.001" enable-background="new 0 0 434 572.001" xml:space="preserve">
<path fill="#CE9360" stroke="#000000" stroke-width="2" stroke-linecap="round" stroke-linejoin="round" stroke-miterlimit="10" d="
	M81.332,205c-16.333,13-19.333,52-21,79.667s14.333,43,24.333,55s0.333,1.333,15,21.667c-1.333,20.666,17,54.333,18.667,68.333
	s-8.209,33.418-26,38.334s-14.25,25.752-5.333,32.334s28.667,4.707,28.667,4.707s-3.375,25.375,30.125,23.125s32.292-9.5,35.5-24
	c5.375-22.833,25.875-40.333,20.445-53.512c8.482,8.246,11.764,19.679,67.93,31.512c-45.667-9.667-68.845-0.803-75.912,3.354
	s-11.172,11.146-12.463,18.646s2.319,12.833,17.986,19s126.389-3.833,134.389-5.5S379,509,380,470.333
	c29.333,41.334-29.584,52.334-52.334,56.334s-83.667-1.667-75.667,19.666s77.168,20.168,118.834,6.834s58.833-33,54.583-61.5
	s-43.75-51-43.75-51s2.25-59.5-7.5-83s-20.25-52.5-60.5-74s-52.5-13.25-64-26s-0.5-22-27-47.25S97.665,192,81.332,205z"/>
<path fill="none" stroke="#000000" stroke-width="2" stroke-linecap="round" stroke-linejoin="round" stroke-miterlimit="10" d="
	M227.996,296.675c0,0-0.171,57.342-14,78.667s-13.67,36.841-18,47.333s12.713,26.53,3.333,45.333s-8.413,7.159-18.038,36.159"/>
<path fill="none" stroke="#000000" stroke-width="2" stroke-linecap="round" stroke-linejoin="round" stroke-miterlimit="10" d="
	M123.166,352.167c14,29.5,36.5,38.5,30.5,87s-33.5,42.25-38,65.875"/>
<path fill="none" stroke="#000000" stroke-width="2" stroke-linecap="round" stroke-linejoin="round" stroke-miterlimit="10" d="
	M269.666,482.167c-52-11-60.86-24.523-67.93-31.512"/>
<path fill="none" stroke="#000000" stroke-width="2" stroke-linecap="round" stroke-linejoin="round" stroke-miterlimit="10" d="
	M236.076,499.167c-15.91,7.5-8.08,25.951-8.08,25.951"/>
<path fill="none" stroke="#000000" stroke-width="2" stroke-linecap="round" stroke-linejoin="round" stroke-miterlimit="10" d="
	M213.666,492.291c-15.5,13.376-8.652,32.087-8.652,32.087"/>
<path fill="none" stroke="#000000" stroke-width="2" stroke-linecap="round" stroke-linejoin="round" stroke-miterlimit="10" d="
	M152.666,504.167c-9,14.5,0,23.099,0,23.099"/>
<path fill="none" stroke="#000000" stroke-width="2" stroke-linecap="round" stroke-linejoin="round" stroke-miterlimit="10" d="
	M286.666,364.667c-73.5-0.5-64.56,40-63.03,57.5s12.53,52,46.03,60c-70.337-13.159-84.181,10.124-84.181,10.124"/>
<path fill="none" stroke="#000000" stroke-width="2" stroke-linecap="round" stroke-linejoin="round" stroke-miterlimit="10" d="
	M137.666,496.667c-16,14.5-5.594,30.599-5.594,30.599"/>
<path fill="none" stroke="#000000" stroke-width="2" stroke-linecap="round" stroke-linejoin="round" stroke-miterlimit="10" d="
	M113.166,484.667c-10,9.5-4,19.5-4,19.5"/>
<path fill="none" stroke="#000000" stroke-width="2" stroke-linecap="round" stroke-linejoin="round" stroke-miterlimit="10" d="
	M95.166,482.167c-8,8.5,0,21.661,0,21.661"/>
<g id="head-of-dog">
	
		<path fill="#CE9360" stroke="#000000" stroke-width="2" stroke-linecap="round" stroke-linejoin="round" stroke-miterlimit="10" d="
		M200.089,55.838c0,0,2.327-35.421,18.077-35.671s35.5,35.567,50.75,56.534s31.375,53.091,27.75,65.966s-9,27.834-19,37.167
		s-20.275,17.666-29.513,17s-29.237-49.917-29.237-49.917L200.089,55.838z"/>
	
		<path fill="#CE9360" stroke="#000000" stroke-width="2" stroke-linecap="round" stroke-linejoin="round" stroke-miterlimit="10" d="
		M99.666,6.333C89.999,6,75.071,26.135,52.243,64.776S15.499,99.834,10.332,116s4.25,39.417,19.667,43.667s55.5,2.46,74.333-26.02
		s19.451-37.128,17.701-66.863S109.332,6.667,99.666,6.333z"/>
	<g>
		
			<path fill="#CE9360" stroke="#000000" stroke-width="2" stroke-linecap="round" stroke-linejoin="round" stroke-miterlimit="10" d="
			M67.666,139c-1.667-22-2-29.334,5.667-51.667s20.667-32,34.333-43s36.833-10,58-8.667S197.417,45.34,204.653,51
			s18.013,18.333,18.013,18.333s0.606,34.748,3,56s1.56,6.132,4.051,35.961C188.682,138.647,71.904,137.354,67.666,139z"/>
	</g>
	
		<path fill="#F1BC6B" stroke="#000000" stroke-width="2" stroke-linecap="round" stroke-linejoin="round" stroke-miterlimit="10" d="
		M110.666,139c0,0,80.631-1.062,85,0s28.666,5,36,27s-0.334,33-13,44c-12.667,11-52,17-65.333,11.667c-11.667,1.667-3,9.333-26,13
		c-23-4-24.122-16.342-31.667-23c-14.374-9.264-18.667-6.667-28-26.333s-8-40.666,0-46.333S110.666,139,110.666,139z"/>
	<path fill="#E42D37" d="M106.259,188.438c6.594,13.292,25.292,13.509,38.073,14.229c-2.521,7.198-2.667,10.875-9.167,14.5
		c-6.629,2.508-23.382,4.488-29.441-7.923s-6.059-12.411-6.059-12.411S99.666,196.833,106.259,188.438z"/>
	<path fill="none" stroke="#000000" stroke-width="2" stroke-linecap="round" stroke-linejoin="round" stroke-miterlimit="10" d="
		M200.332,170.167c0,0-2.167,6,1.167,11s8.167,8.333,8.167,8.333"/>
	<path fill="none" stroke="#000000" stroke-width="2" stroke-linecap="round" stroke-linejoin="round" stroke-miterlimit="10" d="
		M98.745,162.485c0.479,7.595,2.186,19.449,9.386,28.565s16.951,11.179,36.201,11.617c22,0.5,44.661-12.5,56.414-22.833"/>
	<path fill="none" stroke="#000000" stroke-width="2" stroke-linecap="round" stroke-linejoin="round" stroke-miterlimit="10" d="
		M106.259,188.438c0,0-2.818,3.588-6.594,8.396S77.498,200.5,77.498,200.5"/>
	<path fill="none" stroke="#000000" stroke-width="2" stroke-linecap="round" stroke-linejoin="round" stroke-miterlimit="10" d="
		M144.332,202.667c0,0-2.167,11.167-9.167,14.5s-9.667,4-20.167,0s-15.333-20.333-15.333-20.333"/>
	
		<path fill="#F1BC6B" stroke="#000000" stroke-width="2" stroke-linecap="round" stroke-linejoin="round" stroke-miterlimit="10" d="
		M118.395,38.535l-8.896,19.798l14-1.833l9.5,25.167l6.833-15.833l3.667,9.5l4.704-13.583l10.296,9.083V62.5l19,5.167
		c0,0,0,0,1.462-30.013C143.833,31,118.395,38.535,118.395,38.535z"/>
	
		<path fill="#FFFFFF" stroke="#000000" stroke-width="2" stroke-linecap="round" stroke-linejoin="round" stroke-miterlimit="10" d="
		M152.416,138.616c0,0-1.125-7.907,2.25-24.616s11-21.833,11-21.833l23.167-2.833c0,0,6.25,9.928,6.167,25.193
		s-4.699,24.125-4.699,24.125L152.416,138.616z"/>
	<path stroke="#000000" stroke-width="2" stroke-linecap="round" stroke-linejoin="round" stroke-miterlimit="10" d="
		M180.988,107.917c-11.75,0-10.073,30.612-10.073,30.612s6.25,0.111,19.384,0.124C197.416,125.167,192.738,107.917,180.988,107.917z
		"/>
	
		<path fill="#FFFFFF" stroke="#000000" stroke-width="2" stroke-linecap="round" stroke-linejoin="round" stroke-miterlimit="10" d="
		M119.892,138.652c2.498-19.228,4.523-48.235-11.727-54.485s-24.75,16.221-24,54.485"/>
	<path d="M72.332,145.334c1.333,7.25,5.583,16.667,11.333,20s11.75,1.083,19.75-5.917s6.583-14.083,6.583-14.083
		s0.667-12.25-18.833-11.667S70.999,138.084,72.332,145.334z"/>
	<path fill="none" stroke="#000000" stroke-width="2" stroke-linecap="round" stroke-linejoin="round" stroke-miterlimit="10" d="
		M195,126.917"/>
	<g>
		
			<path fill="#828282" stroke="#000000" stroke-width="2" stroke-linecap="round" stroke-linejoin="round" stroke-miterlimit="10" d="
			M88.353,94.917c2.563,1.688,9.263-0.238,14.813-1.75s10.351-2.703,12.5-3.75s4.375-2,4.219-4.469s-5.969-9.406-9.906-10.906
			s-9.993,0.416-13.656,2.781s-7.781,8.094-8.656,10.344S85.791,93.229,88.353,94.917z"/>
		
			<path fill="#828282" stroke="#000000" stroke-width="2" stroke-linecap="round" stroke-linejoin="round" stroke-miterlimit="10" d="
			M163.416,94.542c1.5,1.625,24.354,1.625,27.375,1.031s6.292-1.941,6.375-4.778s-3.083-6.253-6.625-8.628s-7.625-5-13.875-5.5
			s-7.688,2.348-9.25,4s-4,7.625-4,7.625S161.916,92.917,163.416,94.542z"/>
	</g>
	<path stroke="#000000" stroke-width="2" stroke-linecap="round" stroke-linejoin="round" stroke-miterlimit="10" d="
		M110.096,107.917c-12.18,0.75-9.68,30.5-9.68,30.5s12.75,0.552,19.477,0.235C122.666,133.917,122.276,107.167,110.096,107.917z"/>
	
		<line fill="#CE9360" stroke="#000000" stroke-width="2" stroke-linecap="round" stroke-linejoin="round" stroke-miterlimit="10" x1="222.416" y1="40.667" x2="222.666" y2="69.334"/>
</g>
</svg>
