<?xml version="1.0" encoding="utf-8"?>
<!-- Generator: Adobe Illustrator 15.0.0, SVG Export Plug-In  -->
<!DOCTYPE svg PUBLIC "-//W3C//DTD SVG 1.1//EN" "http://www.w3.org/Graphics/SVG/1.1/DTD/svg11.dtd" [
	<!ENTITY ns_flows "http://ns.adobe.com/Flows/1.0/">
]>
<svg version="1.1"
	 xmlns="http://www.w3.org/2000/svg" xmlns:xlink="http://www.w3.org/1999/xlink" xmlns:a="http://ns.adobe.com/AdobeSVGViewerExtensions/3.0/"
	 x="0px" y="0px" width="430px" height="383px" viewBox="0 0 430 383" enable-background="new 0 0 430 383" xml:space="preserve">
<defs>
</defs>
<path fill-rule="evenodd" clip-rule="evenodd" fill="#CE9360" d="M220.22,339.513c-0.771-11.003-0.2-23.463-0.314-34.666
	c-0.028-4.029-1.2-30.179,1.114-33.637c0.972-1.486,4.63-1.229,6.602-1.229l61.356,0.828l0.657,68.188
	C285.577,340.741,226.335,340.998,220.22,339.513L220.22,339.513z M78.16,265.38c9.545-0.601,62.757-1.343,68.873,0.257
	c1.086,3.258,1.2,62.645,0.514,68.988l-69.043,0.229L78.16,265.38z M289.006,230.828c-6.858,0.801-66.9,1.029-68.386-0.514
	c-1.344-1.4-1.486-61.444-0.972-68.417h69.301L289.006,230.828z M78.846,228.828c-2.058-8.573-1.372-57.329-0.972-68.874
	l69.072-0.114c0.086,4.429,2.058,64.473-0.085,68.273L78.846,228.828z M43.009,142.235c-0.657,38.552,1.143,77.647,0.486,116.257
	c-0.257,14.032-1.115,107.513,1.314,113.371l277.118,8.116c0.657-14.061,0.6-228.628-0.972-235.801c-31.321-1-53.04-0.972-84.19-1
	L43.009,142.235z"/>
<path fill-rule="evenodd" clip-rule="evenodd" fill="#FFD9A9" d="M166.465,59.187c5.115-1.572,24.434-1.201,30.292-0.543
	l0.114,45.84c-6.258,0.4-25.434,1.286-30.378-0.428L166.465,59.187z M5.744,139.435l354.021,2.172
	c-1.715-2.286-30.035-22.977-37.608-29.007l-3.029-2c-0.943-0.601-1.829-1.086-3.058-1.972l-33.064-24.349
	c-3.458-2.687-6.545-5.544-10.745-8.459c-19.49-13.546-44.953-33.551-66.072-48.869c-30.893-22.434-19.461-22.263-45.924-3.258
	L116.34,56.357c-3.572,2.801-7.545,5.287-11.06,8.145c-4.001,3.229-7.573,5.573-11.574,8.573
	C83.704,80.563,7.401,136.834,5.744,139.435L5.744,139.435z"/>
<path fill-rule="evenodd" clip-rule="evenodd" fill="#CE9360" d="M391.086,157.039l0.571,67.416
	c-12.06,2.173-37.551,12.375-47.011,12.175c-1.543-4.83-2-67.388-0.543-73.475L391.086,157.039z M363.994,144.55l-40.037-0.343
	l0.313,46.726l0.543,187.161l30.778-17.776c-3.543-12.603-4.086-10.202-1.257-16.461c1.543-3.43,0.543-0.314,1.229-4.716
	c1.657-10.517,4.801-7.287,10.574-16.832c2.371-3.916,19.519-15.719,24.977-16.376c2.829-0.343,3.887-0.028,6.487-0.6
	c1.8-0.4,2.229-0.943,4.544-1.458l-1.315-166.069L363.994,144.55z"/>
<path fill-rule="evenodd" clip-rule="evenodd" fill="#D6B46B" d="M425.379,128.432c-3.372-4.401-69.158-52.47-78.817-59.386
	c-1.572,14.403,2.058,11.06-17.433,13.832c-7.602,1.086-8.373-0.229-13.574-4.03l-22.919-16.147l-0.229-35.094
	c-2.172-2.744-13.689-11.231-17.404-14.061c-8.059-6.087-14.918-3.83-26.777-4.229l-62.557-0.771
	c2.687,2.915,154.091,114.114,165.751,123.173c16.432,12.746,10.974,10.774,34.636,5.83
	C394.915,135.691,419.635,131.861,425.379,128.432L425.379,128.432z"/>
<path fill-rule="evenodd" clip-rule="evenodd" fill="#272626" d="M43.009,142.235l193.756,0.943c31.15,0.029,52.869,0,84.19,1
	c1.571,7.173,1.629,221.74,0.972,235.801L44.81,371.863c-2.429-5.858-1.572-99.339-1.314-113.371
	C44.152,219.883,42.352,180.788,43.009,142.235L43.009,142.235z M359.65,361.489c-1.115-1.543-1.001-4.43-1.915-6.401
	c-1.715-3.687-2.372,0.543-2.687-4.858c-0.171-2.544,1.115-3.915,1.972-5.744c1.943-4.087,0.687-1.658,1.43-6.316
	c1.143-7.459,3.372-6.201,6.887-9.573c3.372-3.229,2.743-6.259,6.744-9.402c3.744-2.943,6.287-2.087,10.374-5.773
	c8.602-7.773,9.888-3.229,16.575-5.572c10.174-3.602,7.145-1.029,10.974,1.086l2.286,0.828c2.4,0.629,1.771-0.543,4.258,0.973
	c3.43,2.086,0.115,3.457,3.516,8.487c0.229,0.314,3.715,1.2,0.171,7.802c-2.286,4.201-1.229,1.058-1.714,6.087
	c-0.629,6.402-2.401,7.459-6.145,10.231c-4.43,3.287-3.086,5.888-6.773,9.346c-2.543,2.343-7.401,3-10.602,5.516
	c-3.201,2.486-4.029,5.458-10.117,5.887c-4.687,0.314-2.4-0.886-7.373,0.743c-11.202,3.658-7.259,0.485-11.488-1.543
	C362.765,361.746,363.708,364.062,359.65,361.489L359.65,361.489z M363.994,144.55l36.836-6.745l1.315,166.069
	c-2.315,0.515-2.744,1.058-4.544,1.458c-2.601,0.571-3.658,0.257-6.487,0.6c-5.458,0.657-22.605,12.46-24.977,16.376
	c-5.773,9.545-8.917,6.315-10.574,16.832c-0.686,4.401,0.314,1.286-1.229,4.716c-2.829,6.259-2.286,3.858,1.257,16.461
	l-30.778,17.776l-0.543-187.161c-0.657-1.943-0.057,2.315-0.714-2.915c-0.086-0.686-0.058-2.315-0.086-3.115
	c-0.229-8.059-1-37.952-0.114-41.553L363.994,144.55z M5.744,139.435c1.657-2.601,77.96-58.872,87.962-66.359
	c4.001-3,7.573-5.344,11.574-8.573c3.515-2.858,7.487-5.344,11.06-8.145l43.924-32.665c26.463-19.005,15.032-19.176,45.924,3.258
	c21.119,15.318,46.582,35.323,66.072,48.869c4.2,2.915,7.287,5.773,10.745,8.459l33.064,24.349c1.229,0.886,2.114,1.372,3.058,1.972
	l3.029,2c7.573,6.03,35.894,26.721,37.608,29.007L5.744,139.435z M324.214,2.486l19.29,1.115c0.114,5.373,1.515,65.788,0.771,71.332
	c-0.457,3.401,0.429,0.943-0.943,2.915l-19.09,2.829L324.214,2.486z M294.321,2.601l27.863,0.028l0.172,77.19l-27.863-17.918
	L294.321,2.601z M425.379,128.432c-5.744,3.43-30.464,7.259-39.323,9.117c-23.662,4.944-18.204,6.916-34.636-5.83
	C339.76,122.659,188.355,11.46,185.669,8.545l62.557,0.771c11.859,0.4,18.719-1.858,26.777,4.229
	c3.715,2.83,15.232,11.317,17.404,14.061l0.229,35.094l22.919,16.147c5.201,3.801,5.973,5.116,13.574,4.03
	c19.49-2.772,15.86,0.571,17.433-13.832C356.221,75.962,422.007,124.031,425.379,128.432L425.379,128.432z M292.55,23.463
	c-8.717-3.172-18.09-15.547-25.435-16.318c-7.344-0.743-60.384-1.115-68.644-1.086c-23.748,0.057-13.603-2.687-39.78,16.032
	c-46.896,33.58-96.707,71.618-143.546,106.483C7.202,134.491,6.801,135.062,0,141.807l40.009,0.829
	c1.572,2.858,0.857,9.66,0.943,13.003c1.172,52.927-0.085,108.513,0.486,161.325l0.771,57.328
	c40.18,1.344,81.189,2.001,121.484,3.744c40.38,1.743,81.417,1.172,121.456,3.63c9.859,0.6,20.376,0.657,30.264,0.8
	c7.03,0.114,7.83,1.172,12.945-2.144c5.373-3.458,26.206-16.89,29.664-16.175c0.085,0,5.201,1.515,5.486,1.629
	c3.401,1.143,2.4,1.657,5.115,2.715c5.087,1.943,8.374-1.115,12.518-1.515c14.374-1.344,10.717-3.229,16.546-7.06
	c2.944-1.914,8.717-2.058,13.289-9.945c3.372-5.801,4.315-4.601,7.459-8.63c4.115-5.259,1.829-6.773,3.629-11.546
	c2.458-6.516,4.115-5.03,0.543-12.175c-2.657-5.287-0.171-8.316-6.059-10.002c-1.229-0.344-2.2-0.314-3.258-0.657l-8.373-4.115
	l-0.629-166.355l19.29-4.43c3.83-0.772,3.601-0.486,6.83-2.629c-1.743-2.601-37.294-28.693-41.494-32.151
	c-10.546-8.745-30.493-23.234-42.495-32.379l-0.458-63.787L292.692,0L292.55,23.463z"/>
<path fill-rule="evenodd" clip-rule="evenodd" fill="#FDEC89" d="M80.189,226.628l65.042-0.286l-0.229-34.466l-21.233-7.945
	c-7.001-6.202-6.401-11.832-11.002-18.29l-32.779,26.064L80.189,226.628z"/>
<path fill-rule="evenodd" clip-rule="evenodd" fill="#FDEC89" d="M222.249,228.285l65.014,0.314l-0.171-34.78l-21.063-7.916
	c-7.772-6.516-6.229-11.317-11.002-18.062c-15.347,25.463-9.431,20.548-33.008,26.549L222.249,228.285z"/>
<path fill-rule="evenodd" clip-rule="evenodd" fill="#FDEC89" d="M80.475,332.711l64.729-0.372l0.114-34.551
	c-26.148-10.231-22.862-6.373-31.55-25.979c-5.058,6.802-4.858,24.092-33.493,25.75L80.475,332.711z"/>
<path fill-rule="evenodd" clip-rule="evenodd" fill="#FDEC89" d="M222.82,302.847l-0.2,34.608l64.871,0.171l-0.429-34.779
	c-19.519-8.346-11.717,5.944-31.149-26.035c-4.001,3.4-3.029,11.574-11.031,18.032C236.252,301.846,233.708,299.731,222.82,302.847
	L222.82,302.847z"/>
<path fill-rule="evenodd" clip-rule="evenodd" fill="#BAD532" d="M359.65,361.489c4.058,2.572,3.114,0.257,6.372,1.801
	c4.229,2.028,0.286,5.201,11.488,1.543c4.973-1.629,2.687-0.429,7.373-0.743c6.088-0.429,6.916-3.4,10.117-5.887
	c3.2-2.516,8.059-3.173,10.602-5.516c3.688-3.458,2.344-6.059,6.773-9.346c3.743-2.772,5.516-3.829,6.145-10.231
	c0.485-5.029-0.572-1.886,1.714-6.087c3.544-6.602,0.058-7.487-0.171-7.802c-3.4-5.03-0.086-6.401-3.516-8.487
	c-2.486-1.516-1.857-0.344-4.258-0.973l-2.286-0.828c-3.829-2.115-0.8-4.688-10.974-1.086c-6.688,2.343-7.974-2.201-16.575,5.572
	c-4.087,3.687-6.63,2.83-10.374,5.773c-4.001,3.144-3.372,6.173-6.744,9.402c-3.515,3.372-5.744,2.114-6.887,9.573
	c-0.743,4.658,0.514,2.229-1.43,6.316c-0.856,1.829-2.143,3.2-1.972,5.744c0.314,5.401,0.972,1.172,2.687,4.858
	C358.649,357.06,358.535,359.946,359.65,361.489L359.65,361.489z"/>
<polygon fill-rule="evenodd" clip-rule="evenodd" fill="#A15944" points="294.493,61.901 322.356,79.82 322.185,2.629 
	294.321,2.601 "/>
<path fill-rule="evenodd" clip-rule="evenodd" fill="#A15944" d="M324.242,80.677l19.09-2.829c1.372-1.972,0.486,0.486,0.943-2.915
	c0.743-5.544-0.657-65.959-0.771-71.332l-19.29-1.115L324.242,80.677z"/>
<path fill-rule="evenodd" clip-rule="evenodd" fill="#272626" d="M222.82,302.847c10.888-3.115,13.432-1.001,22.062-8.003
	c8.002-6.458,7.03-14.632,11.031-18.032c19.433,31.979,11.631,17.689,31.149,26.035l0.429,34.779l-64.871-0.171L222.82,302.847z
	 M222.448,272.61l30.979-0.372c-2.029,16.861-12.831,26.607-31.093,27.521L222.448,272.61z M257.942,272.639l29.406-0.229
	l-0.343,27.149C269.259,298.045,260.6,288.729,257.942,272.639L257.942,272.639z M220.22,339.513
	c6.115,1.485,65.357,1.229,69.415-0.515l-0.657-68.188l-61.356-0.828c-1.972,0-5.63-0.258-6.602,1.229
	c-2.314,3.458-1.143,29.607-1.114,33.637C220.02,316.05,219.448,328.51,220.22,339.513L220.22,339.513z"/>
<path fill-rule="evenodd" clip-rule="evenodd" fill="#272626" d="M80.274,297.56c28.635-1.658,28.435-18.948,33.493-25.75
	c8.688,19.605,5.401,15.747,31.55,25.979l-0.114,34.551l-64.729,0.372L80.274,297.56z M80.217,267.638l31.093-0.028
	c-2.658,16.518-12.803,27.178-30.95,27.521L80.217,267.638z M145.317,267.495l-0.143,27.807c-9.316-2.201-14.289-2.829-20.261-8.631
	c-3.801-3.687-8.831-10.66-9.059-18.977L145.317,267.495z M78.503,334.854l69.043-0.229c0.686-6.344,0.572-65.73-0.514-68.988
	c-6.116-1.6-59.328-0.857-68.873-0.257L78.503,334.854z"/>
<path fill-rule="evenodd" clip-rule="evenodd" fill="#272626" d="M222.02,194.391c23.577-6.001,17.661-1.086,33.008-26.549
	c4.772,6.744,3.229,11.545,11.002,18.062l21.063,7.916l0.171,34.78l-65.014-0.314L222.02,194.391z M286.92,190.876
	c-15.432,0.4-28.635-12.26-29.121-26.978h28.979L286.92,190.876z M221.935,164.298l30.807-0.6
	c0.143,14.518-15.004,29.236-30.807,27.178V164.298z M289.006,230.828l-0.057-68.931h-69.301
	c-0.515,6.973-0.372,67.017,0.972,68.417C222.105,231.857,282.147,231.629,289.006,230.828L289.006,230.828z"/>
<path fill-rule="evenodd" clip-rule="evenodd" fill="#FFFFFF" d="M349.705,231.485l-0.343-42.981
	c5.287-0.915,12.974-3.258,18.232-2.629l0.229,40.353C363.337,229.285,355.678,230.771,349.705,231.485L349.705,231.485z
	 M371.253,225.027l-0.258-40.239c3.801-1.2,10.66-2.515,14.775-2.144l0.085,39.553C381.055,223.055,376.168,225.97,371.253,225.027
	L371.253,225.027z M349.962,165.956c8.288-0.629,29.436-5.316,35.551-3.772l0.229,18.262l-36.465,6.458
	C349.19,179.93,347.934,172.214,349.962,165.956L349.962,165.956z M345.847,165.47l0.915,68.816l42.495-11.803l-0.771-62.558
	L345.847,165.47z"/>
<path fill-rule="evenodd" clip-rule="evenodd" fill="#BBDEB5" d="M80.503,188.99c15.603,1.772,29.664-12.203,30.063-26.807
	l-30.75-0.2C79.589,167.842,78.989,184.36,80.503,188.99L80.503,188.99z"/>
<path fill-rule="evenodd" clip-rule="evenodd" fill="#BBDEB5" d="M80.36,295.13c18.147-0.343,28.292-11.003,30.95-27.521
	l-31.093,0.028L80.36,295.13z"/>
<path fill-rule="evenodd" clip-rule="evenodd" fill="#BBDEB5" d="M221.935,190.876c15.803,2.058,30.949-12.661,30.807-27.178
	l-30.807,0.6V190.876z"/>
<path fill-rule="evenodd" clip-rule="evenodd" fill="#BBDEB5" d="M222.334,299.76c18.262-0.914,29.063-10.66,31.093-27.521
	l-30.979,0.372L222.334,299.76z"/>
<path fill-rule="evenodd" clip-rule="evenodd" fill="#FFFFFF" d="M145.174,295.302l0.143-27.807l-29.463,0.199
	c0.229,8.316,5.258,15.29,9.059,18.977C130.886,292.473,135.858,293.101,145.174,295.302L145.174,295.302z"/>
<path fill-rule="evenodd" clip-rule="evenodd" fill="#BBDEB5" d="M286.92,190.876l-0.143-26.978h-28.979
	C258.285,178.616,271.488,191.276,286.92,190.876L286.92,190.876z"/>
<path fill-rule="evenodd" clip-rule="evenodd" fill="#BBDEB5" d="M287.006,299.56l0.343-27.149l-29.406,0.229
	C260.6,288.729,269.259,298.045,287.006,299.56L287.006,299.56z"/>
<path fill-rule="evenodd" clip-rule="evenodd" fill="#272626" d="M388.485,159.925l0.771,62.558l-42.495,11.803l-0.915-68.816
	L388.485,159.925z M344.104,163.155c-1.457,6.087-1,68.645,0.543,73.475c9.46,0.2,34.951-10.002,47.011-12.175l-0.571-67.416
	L344.104,163.155z"/>
<path fill-rule="evenodd" clip-rule="evenodd" fill="#BBDEB5" d="M144.889,188.761l-0.628-26.606l-28.521,0.029
	c-0.229,7.288,5.401,15.347,8.859,18.919C129.085,185.731,135.858,188.732,144.889,188.761L144.889,188.761z"/>
<path fill-rule="evenodd" clip-rule="evenodd" fill="#272626" d="M79.989,191.705l32.779-26.064
	c4.601,6.458,4.001,12.088,11.002,18.29l21.233,7.945l0.229,34.466l-65.042,0.286L79.989,191.705z M124.599,181.102
	c-3.458-3.572-9.088-11.631-8.859-18.919l28.521-0.029l0.628,26.606C135.858,188.732,129.085,185.731,124.599,181.102
	L124.599,181.102z M80.503,188.99c-1.515-4.63-0.915-21.148-0.686-27.007l30.75,0.2C110.167,176.787,96.106,190.762,80.503,188.99
	L80.503,188.99z M78.846,228.828l68.015-0.715c2.143-3.801,0.171-63.844,0.085-68.273l-69.072,0.114
	C77.474,171.5,76.788,220.255,78.846,228.828L78.846,228.828z"/>
<path fill-rule="evenodd" clip-rule="evenodd" fill="#FFFFFF" d="M351.734,190.59l0.229,38.066l13.488-3.801
	c0.372-7.059,1.114-31.15-0.714-36.638L351.734,190.59z"/>
<polygon fill-rule="evenodd" clip-rule="evenodd" fill="#FFFFFF" points="173.867,97.653 189.127,97.625 189.27,65.245 
	173.924,65.216 "/>
<path fill-rule="evenodd" clip-rule="evenodd" fill="#FFFFFF" d="M375.911,179.987c3.314-0.571,5.115-0.829,7.487-2.172
	l-0.058-13.546l-31.321,3.973l-0.371,15.49L375.911,179.987z"/>
<path fill-rule="evenodd" clip-rule="evenodd" fill="#FFFFFF" d="M172.066,62.987c5.116-0.686,14.232-0.972,19.09,0.343v36.838
	l-18.947-0.086L172.066,62.987z M168.379,101.74l26.635-0.057l0.057-40.324c-4.315-1.115-22.034-1.029-26.72-0.114L168.379,101.74z"
	/>
<polygon fill-rule="evenodd" clip-rule="evenodd" fill="#FFFFFF" points="373.253,186.36 373.682,222.712 383.684,219.883 
	383.483,185.046 "/>
<path fill-rule="evenodd" clip-rule="evenodd" fill="#272626" d="M168.351,61.244c4.687-0.915,22.405-1,26.72,0.114l-0.057,40.324
	l-26.635,0.057L168.351,61.244z M166.494,104.055c4.944,1.714,24.12,0.829,30.378,0.428l-0.114-45.84
	c-5.858-0.657-25.177-1.029-30.292,0.543L166.494,104.055z"/>
<path fill-rule="evenodd" clip-rule="evenodd" fill="#272626" d="M351.648,183.731l0.371-15.49l31.321-3.973l0.058,13.546
	c-2.372,1.343-4.173,1.601-7.487,2.172L351.648,183.731z M349.962,165.956c-2.028,6.258-0.771,13.975-0.686,20.948l36.465-6.458
	l-0.229-18.262C379.397,160.64,358.25,165.327,349.962,165.956L349.962,165.956z"/>
<path fill-rule="evenodd" clip-rule="evenodd" fill="#272626" d="M364.737,188.218c1.828,5.487,1.086,29.579,0.714,36.638
	l-13.488,3.801l-0.229-38.066L364.737,188.218z M349.705,231.485c5.973-0.714,13.632-2.2,18.118-5.258l-0.229-40.353
	c-5.259-0.628-12.945,1.715-18.232,2.629L349.705,231.485z"/>
<path fill-rule="evenodd" clip-rule="evenodd" fill="#272626" d="M383.483,185.046l0.2,34.837l-10.002,2.829l-0.429-36.352
	L383.483,185.046z M371.253,225.027c4.915,0.942,9.802-1.973,14.603-2.829l-0.085-39.553c-4.115-0.372-10.975,0.943-14.775,2.144
	L371.253,225.027z"/>
<path fill-rule="evenodd" clip-rule="evenodd" fill="#272626" d="M173.924,65.216l15.346,0.029l-0.143,32.379l-15.26,0.028
	L173.924,65.216z M172.209,100.082l18.947,0.086V63.33c-4.858-1.314-13.975-1.029-19.09-0.343L172.209,100.082z"/>
<path fill-rule="evenodd" clip-rule="evenodd" fill="#7D7D7D" d="M324.271,190.933l-0.313-46.726l40.037,0.343l-40.638-1.201
	c-0.886,3.601-0.114,33.494,0.114,41.553c0.028,0.8,0,2.429,0.086,3.115C324.214,193.248,323.613,188.99,324.271,190.933
	L324.271,190.933z"/>
</svg>
