<?xml version="1.0" encoding="utf-8"?>
<!-- Generator: Adobe Illustrator 15.0.0, SVG Export Plug-In . SVG Version: 6.00 Build 0)  -->
<!DOCTYPE svg PUBLIC "-//W3C//DTD SVG 1.1//EN" "http://www.w3.org/Graphics/SVG/1.1/DTD/svg11.dtd">
<svg version="1.1" id="Layer_1" xmlns="http://www.w3.org/2000/svg" xmlns:xlink="http://www.w3.org/1999/xlink" x="0px" y="0px"
	 width="39.352px" height="39.215px" viewBox="-3.727 -3.607 39.352 39.215" enable-background="new -3.727 -3.607 39.352 39.215"
	 xml:space="preserve">
<g id="icomoon-ignore">
</g>
<g>
	
		<path fill="#17B8FF" stroke="#FFFFFF" stroke-width="0.25" stroke-linecap="round" stroke-linejoin="round" stroke-miterlimit="10" d="
		M25.176,5.637h4.205c0.238,0,0.433-0.194,0.433-0.432s-0.194-0.432-0.433-0.432h-5.182c-0.238,0-0.433,0.193-0.433,0.432v5.183
		c0,0.238,0.194,0.432,0.433,0.432c0.237,0,0.432-0.194,0.432-0.432V6.313l0.527,0.528c2.446,2.447,3.795,5.701,3.795,9.161
		c0,3.46-1.349,6.714-3.795,9.161c-3.632,3.634-9.073,4.779-13.864,2.915c-0.222-0.088-0.473,0.023-0.559,0.246
		s0.023,0.473,0.247,0.559c1.627,0.633,3.323,0.939,5.007,0.939c3.602,0,7.14-1.407,9.781-4.049
		c2.609-2.609,4.048-6.081,4.048-9.771c0-3.691-1.438-7.162-4.048-9.771L25.176,5.637z M7.787,21.185
		c-0.238,0-0.432,0.193-0.432,0.432v4.181L6.74,25.181c-2.447-2.447-3.795-5.7-3.795-9.161c0-3.46,1.348-6.714,3.795-9.162
		c3.571-3.573,8.941-4.747,13.678-2.985c0.221,0.083,0.472-0.03,0.555-0.254s-0.03-0.473-0.254-0.556
		c-5.052-1.876-10.78-0.626-14.59,3.185c-2.61,2.609-4.048,6.081-4.048,9.772s1.438,7.163,4.048,9.772l0.575,0.576H2.605
		c-0.238,0-0.432,0.193-0.432,0.432c0,0.237,0.194,0.432,0.432,0.432h5.058c0.034,0.009,0.325-0.021,0.409-0.106
		c0.003-0.003,0.004-0.008,0.008-0.011c0.085-0.08,0.139-0.189,0.139-0.314v-5.183C8.219,21.378,8.025,21.185,7.787,21.185z"/>
	<path fill="#17B8FF" d="M20.741,14.262c-0.158-2.445-1.858-4.803-4.978-4.803c-2.852,0-5.051,2.12-5.167,4.949
		c-1.561,0.486-2.413,2.155-2.413,3.371c0,1.871,1.555,3.514,3.328,3.514h8.875c1.793,0,3.328-1.933,3.328-3.514
		C23.715,15.868,22.153,14.374,20.741,14.262z M20.387,20.922h-8.875c-1.576,0-2.958-1.469-2.958-3.144
		c0-1.128,0.988-3.143,2.958-3.143h0.555c0.102,0,0.185-0.083,0.185-0.185s-0.083-0.185-0.185-0.185h-0.555
		c-0.188,0-0.366,0.021-0.54,0.051c0.145-2.215,1.829-4.488,4.792-4.488c3.177,0,4.623,2.492,4.623,4.807v0.555
		c0,0.102,0.083,0.185,0.185,0.185c0.103,0,0.186-0.083,0.186-0.185v-0.555c0-0.001,0-0.002,0-0.004
		c1.116,0.123,2.588,1.321,2.588,3.146C23.345,19.194,21.979,20.922,20.387,20.922z"/>
</g>
<rect x="-3.727" y="-3.607" display="none" opacity="0.34" width="39.352" height="39.215"/>
<image display="none" overflow="visible" width="2400" height="2400" xlink:href="../../main-res/iOS_7_Icon_Template.png"  transform="matrix(0.0164 0 0 0.0163 -3.7271 -3.6079)">
</image>
</svg>
