<?xml version="1.0" encoding="utf-8"?>
<!-- Generator: Adobe Illustrator 15.0.0, SVG Export Plug-In  -->
<!DOCTYPE svg PUBLIC "-//W3C//DTD SVG 1.1//EN" "http://www.w3.org/Graphics/SVG/1.1/DTD/svg11.dtd" [
	<!ENTITY ns_flows "http://ns.adobe.com/Flows/1.0/">
]>
<svg version="1.1"
	 xmlns="http://www.w3.org/2000/svg" xmlns:xlink="http://www.w3.org/1999/xlink" xmlns:a="http://ns.adobe.com/AdobeSVGViewerExtensions/3.0/"
	 x="0px" y="0px" width="346px" height="453px" viewBox="0 0 346 453" enable-background="new 0 0 346 453" xml:space="preserve">
<defs>
</defs>
<path fill-rule="evenodd" clip-rule="evenodd" fill="#F05B74" d="M185.212,325.756l147.347,24.234
	c-1.571-5.344-133.772-251.719-150.204-281.897c-1.058,8.316-0.028,22.034,0.143,30.808c1.058,52.927,0.972,109.026,1.458,162.325
	C184.04,271.6,183.926,319.441,185.212,325.756L185.212,325.756z"/>
<path fill-rule="evenodd" clip-rule="evenodd" fill="#F05B74" d="M173.324,57.348l-1.486,1.086
	c-2.486,2.744-6.802,10.459-9.288,14.003L75.788,203.526c-7.259,10.888-56.241,82.906-57.441,88.107
	c16.718,3.744,129.8,29.95,136.03,30.15L173.324,57.348z"/>
<path fill-rule="evenodd" clip-rule="evenodd" fill="#FDEC89" d="M23.234,315.44c8.087,9.688,16.489,15.718,28.063,22.948
	c50.954,31.808,134.172,50.498,193.756,57.214c33.521,3.772,32.979,1.857,63.528-8.745c3.4-1.172,5.802-2,9.002-3.086l6.602-2.4
	c2.172-1.115,1.086-0.601,1.771-1.172c-33.807-14.689-67.015-31.094-102.879-40.21c-10.432-2.658-27.664-8.002-37.638-8.888
	l-2.172,21.205c-3,9.03-24.919,7.716-29.749-5.201c-1.458-3.887,0.515-15.433,0.457-20.434L23.234,315.44z"/>
<path fill-rule="evenodd" clip-rule="evenodd" fill="#CE9360" d="M46.725,351.106c6.202-0.601,9.431,3.2,11.631,8.373
	c1.886,4.458,3.829,14.433-1.658,15.547C48.182,376.797,40.409,358.936,46.725,351.106L46.725,351.106z M255.456,449.616
	l34.236-0.028l8.859-0.857l-19.262-42.896l-21.147-0.028c-58.842-1.229-145.261-26.264-196.129-50.898
	c-12.203-5.888-30.835-17.633-41.666-25.893l-11.346-9.859c14.261,23.291,20.291,35.409,39.352,54.442
	c17.118,17.09,32.807,29.035,54.184,40.609C134.772,431.668,212.476,449.33,255.456,449.616L255.456,449.616z"/>
<path fill-rule="evenodd" clip-rule="evenodd" fill="#1E1E1E" d="M281.662,405.291c15.346-4.516,44.267-15.032,61.156-20.776
	c-1.229,20.604-13.146,50.583-24.691,58.3C293.579,459.247,282.634,427.181,281.662,405.291L281.662,405.291z M178.411,26.426
	c1.714,29.521,1.2,57.357,1.629,86.621c1.114,71.618,0.742,149.123,2.914,219.768c0.2,6.602,1.229,15.347-2.657,19.576
	c-6.145,6.745-26.691,4.287-24.948-13.546c0.657-7.002,1.143-13.746,1.714-20.805l9.031-124.774
	C170.009,137.453,174.725,81.896,178.411,26.426L178.411,26.426z M23.234,315.44l130.743,11.231
	c0.058,5.001-1.915,16.547-0.457,20.434c4.83,12.917,26.749,14.231,29.749,5.201l2.172-21.205
	c9.974,0.886,27.206,6.229,37.638,8.888c35.864,9.116,69.072,25.521,102.879,40.21c-0.686,0.571,0.4,0.057-1.771,1.172l-6.602,2.4
	c-3.2,1.086-5.602,1.914-9.002,3.086c-30.55,10.603-30.007,12.518-63.528,8.745c-59.584-6.716-142.803-25.406-193.756-57.214
	C39.723,331.158,31.321,325.127,23.234,315.44L23.234,315.44z M3.144,308.209c12.832,0.743,24.605,1.371,37.551,1.515
	c17.804,0.2,88.048,10.603,103.909,12.86c-8.602,0.057-21.176-2.029-30.378-2.772l-95.364-6.688
	c2.315,5.716,8.573,9.945,12.889,13.489c16.575,13.689,30.064,20.376,48.839,29.836c38.094,19.205,122.113,37.038,166.151,41.667
	c23.291,2.458,26.063,3.458,45.581-3.229l38.637-13.518c-4.029-7.202-52.754-26.093-64.729-29.979
	c-5.687-1.829-10.944-4.172-17.175-6.259c-13.546-4.544-41.609-11.488-56.098-15.317c55.583,4.515,100.822,29.75,149.261,52.441
	c-40.866,12.146-51.154,23.892-91.82,20.919c-50.668-3.743-137.201-24.463-180.811-46.783c-6.63-3.372-12.545-6.201-18.69-9.545
	l-17.518-10.688c-6.602-5.029-17.975-13.374-23.233-19.147C7.888,314.553,4.601,311.095,3.144,308.209L3.144,308.209z
	 M185.212,325.756c-1.286-6.315-1.172-54.156-1.257-64.53c-0.486-53.299-0.4-109.398-1.458-162.325
	c-0.171-8.774-1.2-22.492-0.143-30.808c16.432,30.179,148.633,276.554,150.204,281.897L185.212,325.756z M154.377,321.784
	c-6.23-0.2-119.312-26.406-136.03-30.15c1.2-5.201,50.182-77.219,57.441-88.107L162.55,72.437c2.486-3.544,6.801-11.26,9.288-14.003
	l1.486-1.086L154.377,321.784z M180.782,7.164c12.175-7.459,51.526-7.516,60.042,2.515c3.43,4.029,3.315,7.03,7.487,10.688
	c11.003,9.659,33.95,3.029,45.725,0.972l-24.72,21.119l26.377,9.06c-37.837,4.629-29.378,7.202-54.469-7.945
	c-18.461-11.146-37.237-9.06-60.128-7.087L180.782,7.164z M255.599,451.501c5.802-0.943,9.66,0.829,15.004,0.572
	c4.887-0.2,10.03-0.429,14.518-0.772c-6.802-0.399-25.034,0.687-29.664-1.686c-42.98-0.286-120.684-17.947-152.919-35.409
	c-21.376-11.574-37.065-23.52-54.184-40.609c-19.061-19.033-25.091-31.151-39.352-54.442l11.346,9.859
	c10.831,8.26,29.463,20.005,41.666,25.893c50.868,24.635,137.287,49.669,196.129,50.898l21.147,0.028l19.262,42.896l-8.859,0.857
	l-1.372,1.114l2.2,0.6c8.345,1.372,20.748-1.429,26.863-5.115c18.262-11.003,25.063-45.211,29.093-65.188
	c-16.146-8.545-29.636-15.433-46.754-22.948c-19.918-8.745-35.779-12.832-50.268-18.862l86.818,13.976l-61.099-115.715
	c-25.32-48.84-54.755-105.912-81.446-153.409c-10.146-18.004-15.089-23.52-12.26-45.211l61.956,8.631
	c7.345,4.858,14.575,10.374,26.148,10.86c8.659,0.343,25.635-2.115,31.722-5.802c-3.744-3-2.314-2.257-6.888-3.744
	c-5.344-1.686-17.746-5.087-20.976-7.345c5.087-5.03,16.403-13.203,23.005-18.49c6.03-4.83,5.287-2.515,6.459-6.973l-32.321,7.23
	c-17.89,0.514-18.833-1.829-26.406-12.803c-11.46-16.69-47.582-8.945-63.5-6.145l-6.001,43.268
	c-0.771,6.344-17.404,28.521-21.919,35.38c-15.318,23.435-31.292,46.612-46.067,69.875c-7.573,11.917-15.889,23.148-23.291,35.151
	c-7.63,12.346-14.718,23.034-22.691,34.809c-2.258,3.372-44.524,64.159-45.41,69.76l88.391,20.577L0,305.666
	c8.202,17.062,8.345,17.633,18.09,33.637c6.23,10.231,14.489,20.291,22.119,28.293c37.494,39.524,69.815,58.929,128.314,71.36
	C187.355,442.985,237.624,453.759,255.599,451.501L255.599,451.501z"/>
<path fill-rule="evenodd" clip-rule="evenodd" fill="#C66C35" d="M178.411,26.426c-3.687,55.471-8.402,111.027-12.317,166.841
	l-9.031,124.774c-0.571,7.059-1.057,13.803-1.714,20.805c-1.743,17.833,18.804,20.291,24.948,13.546
	c3.887-4.229,2.857-12.975,2.657-19.576c-2.172-70.646-1.8-148.15-2.914-219.768C179.611,83.783,180.125,55.947,178.411,26.426
	L178.411,26.426z"/>
<path fill-rule="evenodd" clip-rule="evenodd" fill="#FBCA0D" d="M180.782,7.164l0.314,29.322
	c22.891-1.972,41.667-4.058,60.128,7.087c25.091,15.146,16.632,12.574,54.469,7.945l-26.377-9.06l24.72-21.119
	c-11.774,2.058-34.722,8.688-45.725-0.972c-4.172-3.658-4.058-6.659-7.487-10.688C232.309-0.353,192.957-0.295,180.782,7.164
	L180.782,7.164z"/>
<path fill-rule="evenodd" clip-rule="evenodd" fill="#FFFFFF" d="M3.144,308.209c1.458,2.886,4.744,6.344,7.002,8.802
	c5.258,5.773,16.632,14.118,23.233,19.147l17.518,10.688c6.145,3.344,12.06,6.173,18.69,9.545
	c43.609,22.32,130.143,43.04,180.811,46.783c40.666,2.973,50.954-8.773,91.82-20.919c-48.438-22.691-93.678-47.927-149.261-52.441
	c14.488,3.829,42.552,10.773,56.098,15.317c6.23,2.087,11.488,4.43,17.175,6.259c11.975,3.887,60.699,22.777,64.729,29.979
	l-38.637,13.518c-19.519,6.687-22.29,5.687-45.581,3.229c-44.038-4.629-128.057-22.462-166.151-41.667
	c-18.775-9.46-32.264-16.146-48.839-29.836c-4.315-3.544-10.574-7.773-12.889-13.489l95.364,6.688
	c9.202,0.743,21.776,2.829,30.378,2.772c-15.861-2.258-86.105-12.66-103.909-12.86C27.749,309.581,15.975,308.953,3.144,308.209
	L3.144,308.209z"/>
<path fill-rule="evenodd" clip-rule="evenodd" fill="#CE9360" d="M291.007,406.348c4.058-2.115,41.381-14.489,45.467-14.404
	l0.2,10.803c-5.144,2.572-41.237,14.232-45.639,14.461L291.007,406.348z M281.662,405.291c0.972,21.891,11.917,53.956,36.465,37.523
	c11.546-7.717,23.462-37.695,24.691-58.3C325.929,390.258,297.008,400.775,281.662,405.291L281.662,405.291z"/>
<path fill-rule="evenodd" clip-rule="evenodd" fill="#FFFFFF" d="M292.979,414.378c4.029-0.372,37.322-11.146,41.523-13.518
	l0.058-5.888c-4.487-0.057-34.493,10.574-41.353,12.918L292.979,414.378z"/>
<path fill-rule="evenodd" clip-rule="evenodd" fill="#1E1E1E" d="M292.979,414.378l0.229-6.487
	c6.859-2.344,36.865-12.975,41.353-12.918l-0.058,5.888C330.301,403.233,297.008,414.006,292.979,414.378L292.979,414.378z
	 M291.007,406.348l0.028,10.859c4.401-0.229,40.495-11.889,45.639-14.461l-0.2-10.803
	C332.388,391.859,295.064,404.233,291.007,406.348L291.007,406.348z"/>
<path fill-rule="evenodd" clip-rule="evenodd" fill="#FFFFFF" d="M57.584,372.74c3.601-8.402-4.544-23.006-10.231-19.319
	C43.267,356.079,47.696,374.254,57.584,372.74L57.584,372.74z"/>
<path fill-rule="evenodd" clip-rule="evenodd" fill="#6C596C" d="M57.584,372.74c-9.888,1.515-14.318-16.661-10.231-19.319
	C53.041,349.734,61.185,364.337,57.584,372.74L57.584,372.74z M46.725,351.106c-6.315,7.83,1.458,25.691,9.974,23.92
	c5.487-1.114,3.544-11.089,1.658-15.547C56.155,354.306,52.926,350.505,46.725,351.106L46.725,351.106z"/>
<path fill-rule="evenodd" clip-rule="evenodd" fill="#6A6A6A" d="M255.599,451.501c3.029,1.801,33.379,2.315,34.922-0.2l-2.2-0.6
	l1.372-1.114l-34.236,0.028c4.63,2.372,22.862,1.286,29.664,1.686c-4.487,0.344-9.631,0.572-14.518,0.772
	C265.259,452.331,261.4,450.558,255.599,451.501L255.599,451.501z"/>
</svg>
