<?xml version="1.0" encoding="utf-8"?>
<!-- Generator: Adobe Illustrator 15.0.0, SVG Export Plug-In  -->
<!DOCTYPE svg PUBLIC "-//W3C//DTD SVG 1.1//EN" "http://www.w3.org/Graphics/SVG/1.1/DTD/svg11.dtd" [
	<!ENTITY ns_flows "http://ns.adobe.com/Flows/1.0/">
]>
<svg version="1.1"
	 xmlns="http://www.w3.org/2000/svg" xmlns:xlink="http://www.w3.org/1999/xlink" xmlns:a="http://ns.adobe.com/AdobeSVGViewerExtensions/3.0/"
	 x="0px" y="0px" width="421px" height="315px" viewBox="1.72 0 421 315" enable-background="new 1.72 0 421 315"
	 xml:space="preserve">
<defs>
</defs>
<path fill-rule="evenodd" clip-rule="evenodd" fill="#F6A8C1" d="M1.764,146.363c0,2.029-0.143,4.172,0.114,6.173
	c0.2,1.372,0,2.915,0.171,4.201c0.257,1.715,0.429,1.743,0.429,3.915c0,2.486-0.229,5.63,0.629,7.773
	c0.543,1.372,0.428,2,0.485,3.829c0.058,1.857-0.057,2.458,0.543,3.887c0.658,1.601,0.257,1.887,0.543,3.801l0.715,3.373
	c0.343,2.629,1.029,4.801,1.086,5.401c0.314,3.114,1.114,2.629,2.086,8.63c0.257,1.458,0.686,2.144,0.915,3.458
	c0.2,1.172,0.629,1.344,0.915,2.229c0.4,1.258,0.229,1.372,0.886,2.486c0.543,0.914,0.714,1.972,1.086,3.001l2.486,6.201
	c0.286,0.715,0.4,0.771,0.6,1.601c0.286,1.2,0.829,1.972,1.458,2.943c0.029,0.028,0.057,0.086,0.086,0.143
	c0.829,1.172,0.514,1.572,1.2,2.658c0.486,0.771,0.343,0.629,0.657,1.486c0.429,1.143,0.629,0.743,0.857,1.343
	c0.628,1.629-0.2,0.943,1.257,3.144l1.686,2.63c0.486,0.972,1.143,1.571,1.743,2.4c0.343,0.515,0.372,0.943,0.686,1.457l3.401,5.373
	c1.972,2.943,2.772,3.087,5.001,5.858c0.514,0.601,0.372,0.743,0.8,1.372c0.486,0.714,0.6,0.571,1.143,1.058
	c0.857,0.714,1.229,1.543,1.943,2.429c1.028,1.286,1.4,1.029,2.4,1.943l6.573,6.259c0.829,0.486,3.972,2.887,4.658,3.772
	c1.057,1.343,1.915,1.657,3.287,2.543c0.229,0.144,0.286,0.144,0.457,0.286l2.486,1.629c0.686,0.515,0.628,0.629,1.229,0.943
	l8.316,4.744c0.6,0.429,0.314,0.429,1.029,0.857c0.514,0.285,0.915,0.371,1.657,0.571c1.258,0.343,1.886,0.914,2.915,1.429
	l4.658,1.887c0.943,0.371,0.458,0.371,1.486,0.714l6.087,2.344c1.629,0.771,1.629,0.543,3.458,0.943
	c0.714,0.143,0.8,0.457,1.4,0.714c0.572,0.229,1.086,0.2,1.744,0.457l10.145,2.658c1.314,0.172,2.543,0.114,3.772,0.601
	c1.315,0.485,4.287,0.543,5.059,1.143c0.486,0.372-0.029,0.429,1.143,0.515c1.343,0.057,3,0.057,4.372,0.086
	c2.486,0.028,2.258,0.399,3.858,0.543c10.117,0.942,14.689,1.114,24.206,1.114c2.886,0,5.258-0.229,8.002-0.257l11.603-0.887
	c1.229-0.371,2.143-0.571,3.658-0.742c1.943-0.2,5.315-0.687,7.087-1.372c0.857-0.343-0.229-0.172,1.257-0.629l7.802-2.629
	c0.286-0.144,5.03-1.658,6.201-2.315l13.26-7.744c0.343-0.286,0.657-0.572,1.086-0.829c0.914-0.6,1.2-0.515,2.058-1.114l5.458-4.229
	c0.486-0.458,0.601-0.572,1.2-0.972c1.887-1.286,3.315-2.944,4.973-4.459l2.172-1.943c2.029-1.886,4.173-3.657,6.087-5.744
	l3.029-3.258c0.457-0.457,0.715-0.714,1.029-1.143l5.43-7.174c0.571-0.886,1.343-1.114,1.886-2.229
	c0.571-1.144,0.801-1.772,1.601-2.516c0.429-0.429,0.829-0.514,1.144-1c0.285-0.4,0.399-0.972,0.742-1.486
	c0.687-1.028,0.857-1,1.629-2.486c0.629-1.2,1.372-1.515,1.857-2.486l1.544-2.515c0.371-0.571,0.514-0.8,0.828-1.372l7.116-13.46
	c1.114-2.486,1.943-5.201,3.344-7.573c0.485-0.857,1.229-3.772,1.571-4.772c0.172-0.486,0.601-0.743,0.829-1.258
	c0.257-0.515,0.257-0.886,0.515-1.457c0.857-1.915,1.229-4.43,2.086-6.402l4.058-15.061c0.543-1.515,0.4-1.715,0.629-3.486
	c0.2-1.286,0.771-1.943,0.886-3.458c0.229-2.943,0.915-4.572,0.972-7.487c0.029-1.744,0.4-6.202,0.743-7.717
	c1.058-4.372-0.4-22.034-0.8-25.892l-0.543-2.572c-0.429-1.629-0.343-3.229-0.972-5.344c-0.515-1.629-0.4-3.43-1.029-5.002
	c-0.343-0.857-0.399-1.515-0.771-2.371c-0.485-1.201-0.457-0.801-0.657-2.401c-0.257-1.772-0.571-0.714-0.914-2.229l-4.087-11.517
	l-3.115-6.345c-0.886-1.572-2.4-2.972-3.029-4.629l-2.829-4.973c-0.314-0.458-0.371-0.486-0.629-0.829
	c-0.257-0.372-0.313-0.629-0.657-1.029l-8.602-10.06c-0.543-0.828-0.886-0.828-1.657-1.429c-0.715-0.543-1.029-1.058-1.543-1.629
	l-11.203-8.859c-1.485-1.314,0.144-0.399-2.715-2.144l-7.83-4.772c-1.4-0.571-0.343-0.485-1.801-1.286
	c-0.742-0.429-1.285-0.6-1.972-0.943l-4.058-2.2c-1.144-0.629-1.486-0.286-2.515-0.714c-0.601-0.258-1.201-0.744-2.001-1.115
	l-8.831-3.772c-1.629-0.286-1.171-0.628-2.257-0.886c-1.314-0.343-1.314-0.028-2.543-0.6c-1.2-0.572-2.315-0.657-3.372-1.2
	l-3.487-1.286c-4.887-0.515-2-0.972-5.544-0.8l7.43,3.715c0.515,0.229,0.286,0.143,0.686,0.486c0.857,0.715,1.886,1,2.772,1.601
	c0.572,0.399,1.057,0.914,1.6,1.286c1.4,0.943,1.4,0.514,3.458,2.114c0.543,0.4,1.143,0.687,1.743,1.144
	c1.144,0.857,2.372,1.6,3.401,2.429l5.258,4.659c4.087,3.172,5.858,5.801,9.459,8.916c1.743,1.515,0.258,0.857,2.772,3.058
	c0.485,0.4,0.771,0.857,1.229,1.429c0.457,0.601,0.743,1.144,1.2,1.687l6.316,7.974c0.6,0.686,0.543,1.057,0.971,1.886
	c0.029,0.058,0.058,0.114,0.086,0.171c0.029,0.058,0.058,0.115,0.086,0.172l4.486,9.117c0.314,0.8,0.887,1.285,1.544,2.771
	l1.457,2.887c0.314,0.801,0.172,1.172,0.629,2.058l0.8,2.114c0.857,1.973,1.572,4.859,2.286,6.174
	c0.572,1.028,1.658,5.115,2.144,6.602c0.4,1.229,0.829,3.144,1.144,4.458c0.399,1.743,0.686,3.144,1.028,4.744
	c0.314,1.458,0.771,3.001,1.029,4.544c0.285,1.715,0.285,3.715,0.429,5.43l0.771,4.772c0.6,5.458,0.543,11.288,0.399,16.775
	l-0.657,7.859c-0.485,2.4-0.686,4.973-1.286,7.173l-1.514,7.03c-0.314,1.486-1.115,2.658-1.744,3.973l-3.372,9.517
	c-0.257,0.457-0.399,0.543-0.6,0.829c-0.972,1.657-1.887,4.687-3.915,7.487c-0.943,1.286-1.229,2.4-2.115,3.458
	c-1.314,1.543-0.629,1.915-2.172,3.63l-9.545,11.002c-0.143,0.172-0.2,0.229-0.343,0.372l-7.83,7.173
	c-0.058,0.029-0.086,0.086-0.114,0.114c-0.058,0.029-0.086,0.086-0.144,0.144l-1.515,1.172c-1.314,0.886-2.829,1.828-3.943,2.943
	l-0.171,0.2c-0.029,0.028-0.057,0.085-0.086,0.114l-3.943,2.629c-1.601,0.8-4.03,2.486-5.43,3.058
	c-2.029,0.801-2.915,1.572-3.886,1.915l-9.917,4.058c-0.657,0.314-1.429,0.372-2.258,0.687c-2.829,1.058-6.001,1.686-8.802,2.515
	c-2.258,0.629-12.917,1.543-15.775,1.543l-13.774-0.343c-2.144-0.114-3.144-0.657-4.858-0.914c-2-0.314-3.258-0.172-5.229-0.857
	c-0.829-0.286-1.286-0.258-2.458-0.429c-1.429-0.2-3.258-0.857-4.429-1.372l-2.344-0.829c-1.343-0.886-2.915-1-4.372-1.629
	c-3.401-1.515-6.944-2.743-10.06-4.715c-0.543-0.343-0.372-0.2-0.972-0.486c-0.571-0.285-0.514-0.314-1.086-0.629
	c-3.144-1.686-6.087-3.715-8.916-5.829c-1.172-0.915-2.315-1.486-3.344-2.486l-3.172-2.887c-0.229-0.2-0.171-0.114-0.372-0.343
	c-1.314-1.458-3.058-2.63-4.373-4.087l-2.829-3.001c-1.658-1.829-4.973-5.229-6.258-7.03l-2.172-3.144
	c0-0.028-0.057-0.114-0.086-0.143c-0.029-0.058-0.057-0.114-0.086-0.144l-5.658-9.373c-0.372-1.115-0.114-0.344-0.572-1.144
	l-2.743-6.201c-0.686-0.915-0.458-0.972-0.915-2.001l-1.686-4.4c-0.257-1.115-0.171-1.172-0.686-2.173
	c-0.686-1.285-0.972-3.172-1.343-4.743c-0.657-2.716-0.829-0.601-1.086-4.973l-1.4-7.517c-0.972-5.573-1.086-14.403-0.6-20.29
	c0.085-1.258,0.457-2.401,0.743-3.545c0.486-2.143,0.257-3.114,1-5.801l1.029-3.315c0.657-1.543,0.743-3.486,1.657-4.858
	c1.229-1.828,2.258-5.458,3.458-7.658l4.086-7.06c0.943-1.257,1.943-2.743,3.115-3.915c0.057-0.029,0.114-0.086,0.143-0.114
	l1.172-1.372c0.029-0.057,0.057-0.114,0.086-0.172l1.2-1.8c1.4-2.687,2.429-2.601,4.172-4.772c1.2-1.486,2.515-1.715,3.543-2.973
	c0.057-0.057,0.171-0.229,0.229-0.314c1.286-1.828,0.343-0.371,2.086-1.715c0.714-0.57,0.743-0.428,1.543-0.857
	c1.029-0.543,1.686-1.171,2.543-1.828l4.001-2.516c1.715-1.057,4.086-2.4,6.03-2.943c1.915-0.514,1.172-0.914,3.058-1.258
	c1.314-0.257,1.171-0.57,3.286-1.086c0.714-0.171,1-0.342,1.658-0.571l7.001-1.886c1.515-0.457,2-0.371,3.687-0.658
	c5.687-0.942,12.374-1.199,18.232-0.313c1.886,0.257,3.83,0.286,5.602,0.857c1.915,0.601,4.172,0.515,5.43,1.086l4.772,1.714
	c0.943,0.287,0.743,0.344,1.6,0.601c0.486,0.172,1.315,0.286,1.772,0.458c2.4,0.8,7.83,3.771,10.202,5.058l5.573,3.829
	c1.343,1.029,2.4,2.201,3.915,2.916c0.629,0.285,1.229,1.028,1.829,1.514l2.229,2.087c0.829,0.771-0.143,0.515,1.4,0.8l0.114,1.572
	c1.543,0.629,0.457-0.029,1.486,1.4l4.115,5.059c0.286,0.4,0.286,0.457,0.6,0.886l1.772,2.8c0.4,0.658,0.857,0.943,1.429,1.688
	l0.343,0.428c0.543,0.658,0.257,0.686,1.257,0.943c0.057,1.801,0.486,2.144,1.029,3.458l0.6,0.942
	c0.571,0.658,1.486,2.916,2.115,3.887c0.657,0.973,0.314,1.001,0.4,2.373l1.172,3.372c1.086,2.343,0.429,1.543,1,3.772
	c0.171,0.686,0.6-0.115,0.743,1.314l1.372,15.718c0.029,2.172-0.171,7.145-0.571,9.088l-0.857,3.944
	c-0.2,1.314-0.6,2.543-0.943,4.058l-2.83,6.773c-0.371,0.886-0.543,0.771-0.914,1.486c-0.543,1.086,0,0.657-0.829,1.543
	c-0.6,0.629-0.571,0.571-1.086,1.343c-0.372,0.543-0.571,0.943-1,1.43l-1.686,2.4c-0.915,0.886-1.629,2.086-2.629,2.943
	c-0.829,0.686-0.514,0.343-1.171,1.286c-0.715,1.058-0.429,0.314-1.343,1.058c-0.8,0.657-0.771,1.286-1.715,1.886l-2.972,2.144
	c-0.915,0.829-2,1.144-2.915,1.943c-0.314,0.257-0.114,0.229-0.629,0.515c-0.6,0.343-0.943,0.285-1.686,0.743
	c-0.972,0.6-0.458,0.399-1.772,0.6l-3.515,1.372c-1.429,0.771-2.286,0.571-3.687,1.172c-1.286,0.571-2.629,0.485-3.829,1
	c-1.943,0.857-6.659,0.657-9.316,0.686c-2.029,0-7.43-0.2-9.059-0.657l-5.716-1.543c-1.515-0.2-2.286-0.8-3.601-1.429l-7.83-4.059
	c-3.658-2.172-6.373-4.772-9.316-7.888c-1.2-1.257-1.915-2.687-3.315-3.915c-0.6-0.543-1.515-2.229-1.915-2.972
	c-0.4-0.687-0.457-1.087-0.743-1.715c-0.029-0.058-0.058-0.114-0.086-0.172c0-0.028-0.057-0.086-0.086-0.143l-0.771-1.115
	c-0.972-1.571-1.486-3.743-2.343-4.915c-0.6-0.8-0.429-0.915-0.743-1.943c-0.229-0.715-0.543-1.086-0.714-1.629
	c-0.229-0.657-0.171-1.4-0.372-2.058c-0.657-2.029-0.6-1.715-0.829-4.029l-0.771-9.002l1-6.288c0.4-1.771,1.4-3.544,2.172-5.058
	l2.144-3.002c2.572-2.771,1.714-2.4,4.858-4.829l3.029-1.857c5.173-2.115,6.202-2.572,12.031-2.63c2.629-0.028,4.115,0.372,6.401,1
	c1.772,0.486,3.944,1.287,5.315,2.23c1.372,0.942,2.687,1.285,3.601,2.429c1.972,2.486,2.743,2.114,4.887,6.116
	c0.257,0.543,0.085,0.171,0.457,0.686c0.857,1.229,1.314,2.658,1.943,4.172c0.657,1.629,0.372,2.516,0.829,3.973
	c0.229,0.715,0.886,1.943,0.486,3.772c-0.143,0.657,0,0.257-0.2,0.571l-1.229,0.114c-0.229-0.314-0.171-0.143-0.343-0.6
	c-0.515-1.114-0.229-2.486-0.657-3.658c-0.257-0.629-0.257-0.771-0.4-1.601c-0.343-1.857-1.143-3.629-1.972-4.973
	c-0.372-0.6-0.171-0.457-0.657-1.029c-0.229-0.285-0.114-0.143-0.343-0.399c-0.2-0.257-0.2-0.286-0.4-0.543l-1.543-2.087
	c-1.372-1.857-2.143-2.028-3.687-3.344c-1.543-1.314-2.515-1.742-4.315-2.715c-3.572-1.886-1.4-0.629-5.173-1.771
	c-2.658-0.8-6.516-0.343-9.145,0.486c-1.058,0.314-2.029,0.143-2.886,0.686l-4.573,2.515c-1.086,0.515-1.4,1.029-2.286,1.772
	l-2.915,3.344c-0.314,0.371-0.372,0.514-0.628,1l-2.744,6.201c-0.543,2.744-1.057,6.431-0.743,9.688
	c0.086,0.972,0.486,1.715,0.657,2.886c0.143,0.972,0.115,2.115,0.286,3.115c0.486,2.601,1.743,5.659,2.572,8.088l1.857,3.201
	c0.343,0.485,0.257,0.771,0.572,1.343c0.486,0.943,0.229,0.143,0.686,1c0.2,0.429,0.229,0.715,0.514,1.2l4.315,6.345l5.458,4.944
	c0.515,0.485,1.286,1.143,1.943,1.686c0.486,0.372,0.543,0.344,1,0.715c0.8,0.686,2.343,1.286,3.286,2.029
	c1.2,0.914,1.229,0.457,2.372,1.028c0.458,0.258,0.429,0.372,1.029,0.657l3.515,1.772c1.343,0.8,3.944,1.086,5.63,1.4
	c0.886,0.143,1.857,0.6,2.8,0.743c3.973,0.6,9.603,0.6,13.66,0.229c1.458-0.114,1.458-0.314,2.572-0.687
	c0.972-0.343,2.2-0.257,3.058-0.571c1.257-0.457,0.143-0.257,1.058-0.6c0.857-0.314,1.915-0.286,2.743-0.687
	c1.801-0.8,2.086-0.657,4.058-1.943c0.429-0.257,0.057-0.057,0.6-0.371c0.515-0.314,0.743-0.4,1.229-0.686
	c2.086-1.315,3.944-1.658,5.516-3.772l0.372-0.543c0.028-0.029,0.085-0.058,0.114-0.114l0.286-0.2
	c0.829-0.687,1.343-0.572,1.429-1.973c1.543-0.057,1.972-0.543,2.172-1.972c0.343-0.114,0.657-0.114,1.029-0.285
	c0.657-0.314,0.343-0.114,0.714-0.657c0.715-0.943,1.572-1.544,2.172-2.658c0.6-1.172,1.229-1.172,1.771-2.115l0.886-1.543
	c1.658-3.086,1.172-1.114,3.487-6.401l0.886-2.772c0.4-0.943,0.458-0.057,0.857-1.8c0.314-1.286,0.915-2.801,1.057-4.03
	c0.086-0.743,0.029-1.543,0.2-2.229c0.314-1.2,0.515-0.486,0.629-2.058c0.171-2.486,0.657-12.146-0.429-14.232
	c-0.886-1.715-0.286-5.458-1.8-8.116c-0.915-1.629-0.372-2.771-1.029-4.059c-0.458-0.886-0.429-0.371-0.657-1.686
	c-0.257-1.515-0.658-1.572-1.486-3.658c-0.743-1.915-1.4-4.373-2.772-6.002c-0.286-0.342-0.257-0.171-0.514-0.629
	c-0.829-1.543-1.029-2.715-2.201-4.143c-0.6-0.744-1.058-1.572-1.772-2.145c-0.657-0.514-1.6-2.057-2.115-2.886
	c-0.743-1.229,0.057-1.372-2.972-4.573c-2.772-2.943-7.258-7.173-10.773-9.259l-4.315-3.201c-0.771-0.485-0.915-0.485-1.629-1.028
	c-0.6-0.457-0.915-0.457-1.543-0.857c-0.257-0.172-0.601-0.457-0.686-0.515c-2.772-1.543-0.515-0.485-4.287-2.001l-7.573-2.657
	c-1.229-0.515-2.972-0.2-4.029-0.8c-2.229-1.258-2.286-0.258-4.058-1c-1.2-0.516-2.687-0.629-4.229-0.658
	c-6.001-0.086-6.401-1.2-13.832-0.199c-1.543,0.199-3.287,0.113-4.772,0.342c-1.343,0.201-0.458,0.372-4.315,0.829
	c-1.943,0.229-2.257,0.8-3.943,0.943c-0.686,0.085-1.458,0.085-1.943,0.314l-0.257,0.171c-0.057,0.029-0.086,0.086-0.143,0.115
	c-0.915,0.656-3.601,1.343-5.001,2.057c-3.172,1.572-8.659,3.688-11.146,6.23c-1.4,1.4-3.229,1.943-4.772,3.001
	c-1.057,0.714-1.457,1.543-2.601,2.229c-2.6,1.571-8.401,7.516-9.916,10.116c-1.086,1.829-2.658,3.173-3.201,4.286l-1.915,3.201
	c-0.028,0.029-0.057,0.086-0.085,0.143l-3.201,6.488c-0.029,0.057-0.143,0.257-0.172,0.314l-0.714,1.429
	c-0.8,2.114-1.458,3.515-1.915,5.601c-0.314,1.486-0.572,1.001-0.8,1.858c-0.372,1.314,0.057,3.144-0.486,4.458
	c-0.514,1.286-0.771,2.715-0.915,4.172c-0.514,4.888-0.914,2.287-0.914,9.203c0,4.001-0.458,10.031,0.4,13.46
	c0.257,1.001,0.4,0.429,0.571,1.544c0.429,3.314-0.2,1.714,0.943,6.115c0.2,0.743,0.171,1.029,0.343,1.829
	c0.143,0.857,0.458,1.086,0.629,1.771c0.429,1.658,0.171,2.172,0.886,3.744l1.115,3.516c0.371,1.343,0.829,2.086,1.286,3.286
	l2.629,6.373c0.286,0.972,0.314,1.372,0.8,2l3.058,5.487c0.171,0.286,0.229,0.4,0.429,0.771c0.257,0.458,0.2,0.4,0.457,0.771
	c0.029,0.029,0.057,0.086,0.086,0.114c1.372,1.915,2.972,3.887,4.029,5.944l0.915,1.4c0.029,0.058,0.086,0.086,0.114,0.144
	l7.888,8.773c0.915,0.6,1.257,0.6,2,1.429l5.144,5.229l6.573,4.802c1.829,0.829,1.915,1.543,3.343,2.258
	c0.772,0.371,0.2,0.028,0.743,0.429l7.173,4.458c2.401,1.743,3.201,1.771,5.315,2.601l5.916,2.058c0.857,0.4,0.829,0.286,1.8,0.457
	c1.771,0.314,1.086,0.857,3.429,1.086c2,0.229,0.657,0.086,1.601,0.657c0.628,0.372,1.114,0.2,2,0.344
	c0.686,0.114,1.086,0.371,1.658,0.514c0.572,0.172,1.572,0.229,2.115,0.286c1.543,0.229,2.744,0.2,4.115,0.571
	c1.715,0.486,1.943,0.457,4.001,0.543c2.458,0.114,6.315,0.572,8.716,0.486c2.744-0.086,5.544-0.429,8.459-0.457
	c3.315-0.029,5.373-0.829,8.23-1.001c2.315-0.114,8.545-2,10.974-2.743c2.486-0.8,3.229-1.486,4.629-2.086
	c0.629-0.258,1.029-0.2,1.772-0.4c0.857-0.2,0.743-0.371,1.515-0.657l3.458-1.2c0.772-0.343,1.058-0.457,1.715-0.743
	c1.886-0.801,11.46-6.516,12.86-7.659c1.886-1.572,3.172-2.258,5.03-4.144c0.601-0.629,0.715-0.572,1.343-1.086l2.43-2.172
	c0.743-0.687,0.343-0.601,0.943-1.229c0.771-0.8,1.714-1.371,2.371-2.258c0.172-0.229,0.286-0.371,0.543-0.6
	c2.372-2.029,2.344-2.544,3.858-4.173c0.286-0.314,0.371-0.285,0.629-0.571c0.857-1.086,1.485-2.258,2.486-3.315
	c1.515-1.543,2.486-3.458,3.887-5.059c0.714-0.828,1.371-1.714,1.8-2.8c0.372-0.887,0.086-0.801,0.571-1.658l1.058-2.343
	c0.258-0.629,0.086-0.372,0.372-0.829c0.171-0.258,0.343-0.372,0.543-0.601l0.543-0.714c1.429-1.943,1.743-3.887,2.601-5.373
	c0.343-0.601,0.085-0.058,0.399-0.857c0.286-0.715,0.372-0.829,0.687-1.457c0.314-0.658,0.371-1.058,0.628-1.829
	c0.258-0.743,0.486-0.887,0.601-1.144c0.257-0.485,0.257-1.058,0.429-1.657l0.943-3.687c0.771-1.572,0.657-1.687,1.143-3.43
	c2.029-7.03,2.658-12.746,2.772-20.233c0.057-3.173,0.343-12.403-0.343-15.433l-0.314-1.857c-0.543-1.973-0.429-4.315-0.572-6.459
	c-0.114-1.686-0.171-0.801-0.628-1.743c-0.515-1-0.114-2.372-0.829-3.801c-0.543-1.114-0.229-2.515-0.743-3.829
	c-0.657-1.602-0.4-2.115-0.829-3.773l-1.714-5.059c-0.314-0.686-0.172-1.199-0.486-1.942c-0.314-0.715-0.429-0.314-0.657-1.458
	c-0.229-1.143,0.028-1.028-0.485-2.029c-0.771-1.428-1.086-3.515-1.943-4.829c-0.515-0.772-0.972-2.401-1.314-3.286l-5.087-10.889
	c-0.657-1.144-1.115-1.744-1.829-2.772c-0.915-1.343-1.486-2.858-2.572-4.201c-0.6-0.714-0.485-0.457-1.028-1.429
	c-1.058-1.943-2.829-3.344-4.087-5.059c-0.657-0.914-1.372-1.629-1.972-2.629c-1.4-2.286-4.572-4.973-6.602-6.945l-5.801-5.572
	c-1.086-0.972-3.115-2.058-5.258-3.943c-1.229-1.058-2.687-1.915-3.772-2.973l-3.029-1.629c-1.4-0.371-0.743-0.028-1.629-0.743
	l-2.429-1.943c-0.6-0.399-1.029-0.399-1.629-0.8l-12.431-5.916c-0.829-0.286-0.543-0.343-1.543-0.657
	c-1.4-0.4-1.943-0.886-3.373-1.229l-7.83-2.543l-21.205-3.258c-3.144-0.429-11.031-0.143-14.403-0.057
	c-1.629,0.057-1.714,0.429-3.372,0.514c-2.058,0.086-11.717,1.315-13.146,1.829c-1.629,0.572-3.401,0.6-6.287,1.486
	c-0.915,0.257-1.886,0.8-2.629,0.943c-0.6,0.086-1.286,0.057-1.829,0.171c-0.8,0.2-0.486,0.314-1.229,0.658
	c-1.143,0.486-2.629,0.428-3.858,1l-2.086,0.8c-1.829,0.743-4.43,1.229-5.658,1.857c-0.943,0.486,0.171,0.257-1.258,0.686
	l-4.115,1.686c-0.543,0.257-0.857,0.257-1.258,0.457c-0.657,0.286,0.143,0.229-1.229,0.715l-2.715,1.086
	c-0.943,0.629-2.543,1.857-3.544,2.258l-10.888,6.315c-1.572,0.972-2.886,2.087-4.572,2.915c-1.6,0.771-3.029,2.43-4.315,3.43
	c-2.172,1.686-4.573,3.314-6.573,5.258l-0.8,0.658c-0.486,0.428-0.458,0.6-0.915,1.028c-0.715,0.629-1.172,0.857-1.972,1.657
	c-0.714,0.658-1.343,1.258-1.972,1.887c-0.686,0.657-1.486,1.114-1.972,1.887c-0.829,1.4-1,1.086-1.801,2.086
	c-0.486,0.629-0.143,0.343-0.771,0.914c-2.058,1.887-2.315,3.144-3.658,4.115c-1.029,0.743-2.172,1.943-2.744,3.029
	c-1.486,2.83-3.801,5.03-5.544,7.803c-1.257,1.971-2.572,3.686-3.601,5.83c-0.8,1.656-1.972,3.258-2.886,4.829
	c-0.4,0.657-0.2,0.485-0.514,1.172l-0.658,1.314c-0.485,1.2-0.714,1.144-1.229,2.601c-0.286,0.743-0.343,0.429-0.657,1.286
	c-0.2,0.457-0.229,0.915-0.486,1.485c-0.257,0.572-0.114,0.201-0.343,0.601l-1.515,3.058c-0.286,0.658-0.371,0.4-0.628,1.258
	l-0.943,2.973c-0.372,1.172-0.372,2.086-0.686,3.2c-0.314,1.029-0.372,0.458-0.629,1.315c-0.143,0.514-0.085,1.086-0.229,1.715
	c-0.257,1.143-0.657,1.543-0.8,2.771c-0.2,1.457-0.457,2.144-0.714,3.229c-0.743,3.429-0.2,3.544-1.057,6.63
	c-0.6,2.201-0.143,6.573-0.515,8.974c-0.143,0.915-0.257,0.458-0.372,1.515C1.649,143.62,1.764,145.191,1.764,146.363L1.764,146.363
	z"/>
<path fill-rule="evenodd" clip-rule="evenodd" fill="#E6E756" d="M366.272,102.095c0.028,3.688-0.229,1.857-0.601,3.658
	c-0.285,1.372-0.114,2.372-0.628,3.516c-0.258,0.571-0.4,0.715-0.629,1.543l-1.771,3.516c-1.315,1.971-2.744,3.486-4.802,4.629
	l-2.972,1.144c-1.144,0.372-2.715,0.257-3.973,0.2c-2.771-0.086-4.315-0.601-6.287-2.258l-1.543-1.372
	c-1.572-1.743-1.172-1.4-2.344-3.229c-0.485-0.8-1.2-2-1.485-2.914c-0.943-2.801-2.172-7.574-1.857-10.346
	c0.143-1.287,0.371-2.229,0.514-3.887c0.229-2.943,2.029-6.688,3.687-8.831c2.172-2.801,4.029-4.286,7.202-5.401
	c0.942-0.343,4.43-0.343,5.258-0.172c1,0.229,0.086,0.172,2.344,0.829c0.714,0.229,4.315,2.743,4.973,3.572
	c1.485,1.858,2.086,3.372,3,5.516c0.629,1.515,1.687,5.202,1.715,6.401C366.1,99.638,366.272,100.495,366.272,102.095
	L366.272,102.095z M298.029,35.907c-0.029,2.801,0.714,3.973,1,6.658c0.171,1.744,0.686,3.259,0.972,4.859
	c0.143,0.6,0,0.257,0.2,0.8c0.857,2.144,0.457,1.544,0.743,3.801c0.229,1.572,0.171,0.485,0.571,1.4
	c0.171,0.343,0.257,0.943,0.314,1.343l0.942,2.973c0.458,1.258-0.171,1.771,0.601,3.059c0.857,1.4,0.257,1.629,0.8,3.057
	c0.457,1.229,0.687,0.744,0.972,2.602c0.058,0.428,0.114,1.114,0.286,1.657c0.2,0.543,0.4,0.687,0.543,1.4l0.771,2.886
	c0.4,1.43,0.4,1.83,0.857,3.059c0.343,1.029,0.286,2.058,0.6,3c0.172,0.572,0.4,0.744,0.601,1.315
	c0.886,2.629,0.886,5.401,0.143,8.173c-0.257,0.973-0.714,1.715-1.114,2.516c-0.686,1.285-0.771,1.285-1.743,2.143
	c-0.915,0.857-0.771,1.059-1.829,1.858c-1.286,0.942-2.258,2.172-3.544,3.2l-4.687,3.516c-0.828,0.657-1.058,1.457-1.886,1.972
	c-1.058,0.629-1.772,1.4-2.601,2.258l-5.229,4.915c-1.344,1.029-2.229,2.572-3.287,3.973l-5.715,10.289
	c-0.172,0.229-0.2,0.143-0.429,0.543c-0.2,0.399-0.229,0.828-0.429,1.285c-1.144,2.43-0.486,2.115-0.943,2.943l-0.8,1.086
	c-1.029,1.973-1.744,4.802-1.973,7.202c-0.114,1.172-0.199,2.286-0.285,3.63c-0.314,4.172-1.4,4.458-0.172,9.859
	c0.486,2.058,0.058,4.858,0.829,6.716c0.8,1.972,1.172,3.772,1.771,5.716c0.686,2.144,1.144,2.258,1.829,3.943l2.972,5.487
	c0.601,1,1.458,1.601,2.087,2.515c0.343,0.515,0.571,0.658,0.828,1.115l2.715,3.857c0,0,0.344,0.515,0.4,0.572
	c0.314,0.429,0.457,0.629,0.8,0.914l2.63,2.172c0.229,0.229,0.257,0.258,0.514,0.486c1.458,1.343,2.801,2.114,4.573,2.972
	c0.8,0.372,0.343,0.258,0.886,0.743c0.972,0.886,1.4,0.857,2.457,1.429c1.4,0.772,1.515,0.515,2.915,0.857
	c0.543,0.114,0.915,0.657,1.486,0.857l2.229,0.943c0.628,0.172,1.028,0.114,1.686,0.143c0.257,1.115,0.114,0.458,0.486,0.857
	l2.172,0.086c0.285,0.601,0.229,0.429,0.571,0.886c5.572,0.229,3.658,1.172,7.659,1.2c3.829,0.058,5.915,0.886,7.487,0.972
	c2.743,0.114,5.715,0.029,8.487,0c2.801,0,4.715-0.828,7.487-0.942c2.286-0.114,1.915-0.314,3.743-0.772
	c2.001-0.514,3.029-1,4.344-1.943c0.687-0.514,0.801-0.171,1.572-0.628l4.715-3.716c1.43-1.4,2.201-3.829,2.83-5.658
	c0.399-1.144,0.942-1.601,0.6-3.287c-1.629-0.257-1.515-0.057-2.857-0.543c-0.972-0.343-1.658-0.171-2.715-0.428
	c-0.915-0.2-1.629-0.629-2.486-0.829c-0.572-0.143-0.943-0.114-1.458-0.258c-0.057,0-0.543-0.171-0.571-0.199l-3.058-1.058
	c-0.829-0.486-0.886-0.657-2.001-1.086c-4.115-1.715-8.602-4.373-11.573-7.888l-3.772-4.658c-0.286-0.372-0.143-0.114-0.429-0.515
	c-0.571-0.743-0.943-1.857-1.886-2.029c-2.115-0.343-2.115,3.029-11.632,2.258c-6.401-0.515-4.743-3.486-2.2-2.915
	c1.457,0.314,0.057,0.457,1.715,0.629c3.458,0.4,8.63-0.143,11.088-2.687l2.572-3.486c1.972-3.058,2.144-6.201,3.086-7.088
	c1.229-1.172,2.315,0,1.801,1.801c-0.4,1.372-0.314,2.658-1.029,3.601c-0.714,0.886-1.143,1.857-1.629,2.944
	c-0.429,0.942-0.485,0.914-0.886,1.6c-0.371,0.657-0.571,0.687-0.8,1.43c0.285,0.485,0.371,0.657,0.8,1.028l2.144,2.658
	c0.943,1.171,1.629,2.686,2.801,3.715l1.771,1.629c1.972,1.286,3.458,2.915,5.544,4.144c2.943,1.744,5.944,2.944,9.202,3.858
	c1.086,0.314,1.771,0.257,2.772,0.629c1.657,0.571,3.801,0.515,5.601,0.943c0.857,0.229,1.743,0.514,2.43,0.657
	c1.429,0.257,1.629-0.086,2.972,0.457c2.857,1.2,15.089,0.715,19.004,0.6c1.687-0.028,1.344-0.143,2.572-0.514
	c1.771-0.515,3.943-0.314,5.63-0.915l5.087-1.485c2-0.515,2.829-1.229,4.458-2.029c1.114-0.572,2.4-0.943,3.43-1.687
	c0.742-0.571,0.972-1.114,1.743-1.601l1.601-1.657c0.714-1.086,1.171-1.229,2.057-1.943l0.286-0.2
	c0.058-0.028,0.114-0.086,0.143-0.114c0.915-0.714,1.629-1.629,2.286-2.629c0.429-0.657,0.058-0.2,0.4-0.486
	c0.972-0.828,1.286-0.857,1.829-2.114c0.686-1.544,1.743-2.63,2.486-4.03c0.371-0.714,0.086-0.742,0.943-2.429
	c0.429-0.8,0.371-1.372,0.857-2.286c1.8-3.458,3.314-13.175,2.229-16.976c-0.485-1.715-0.8-4.23-1.343-5.201
	c-0.4-0.743-0.543-1.771-1-2.43c-0.743-1.028-0.4-1.114-0.915-2.172c-0.457-0.914-0.114,0.086-0.629-1.057
	c-0.886-1.973-1.4-3.688-3-5.316l-0.857-0.771c-0.258-0.429-0.058-0.457-0.314-1.086c-0.258-0.629-1.144-1.344-1.543-1.887
	c-0.543-0.742-0.543-1.257-1.229-1.943l-1.543-1.857c-0.286-0.428-1.058-1.343-1.429-1.686c-2.144-2-4.229-5.487-6.602-6.23
	c-1.2,1-0.914,0.943-1.457,2.601c-0.743,2.344-3.973,4.63-6.116,5.573c-2.972,1.314-3.344,1.429-6.716,1.314
	c-2.943-0.086-6.516-2.572-8.087-4.83l-1.115-1.771c-0.742-1-0.886-1.658-1.286-2.658c-0.143-0.314-0.514-0.828-0.657-1.285
	l-0.857-4.03c-0.057-0.314-0.085-0.543-0.143-0.857c-0.314-1.771-0.828-7.373,0.058-9.088c0.257-0.485,0.543-0.8,0.629-1.171
	c0.428-1.373,0.714-5.83,0.485-7.432c-0.715-5.115,0.257-16.689,0.943-22.005c0.543-4.259,2.829-24.377,1.343-28.95
	c-2.286-0.028-4.315-0.543-6.059-0.428c-1.314,1.829-1.086,4.086-1.571,5.944c-0.172,0.543-0.572,0.857-0.801,1.543
	c-0.229,0.714-0.143,1.458-0.457,2.229c-0.371,0.972-0.371,0.314-0.515,1.858c-0.143,1.314-0.257,3.143-0.742,4.143
	c-0.458,0.943-0.229,1.287-0.486,2.201c-0.257,0.886-0.429,0.743-0.8,1.572c-0.344,0.8-0.2,1.057-0.458,1.943l-1.2,3.915
	c-0.886,2.172-0.828,2.829-2.114,5.173c-0.601,1.114-1,2.286-1.629,3.43c-1.4,2.657-5.401,8.059-7.859,9.602
	c-0.742,0.457-0.742,0.286-1.4,0.972c-1,0.972-5.2,3.201-6.572,3.43c-3.144,0.571-5.973,0.657-8.974,0.028
	c-1.429-0.285-0.629-0.172-1.715-0.743c-0.942-0.485-1.686-0.686-2.543-1.343l-2.715-2.086c-1.601-1.172-3.287-2.83-4.287-4.516
	c-0.314-0.543-0.514-1-0.942-1.43c-1.458-1.514-1.058-1.485-2.172-2.943c-1.115-1.486-1.544-3-2.658-4.601
	c-0.571-0.857-1.144-1.486-1.429-2.515c-0.143-0.486-0.086-0.572-0.258-0.943l-0.8-1.629c-0.457-1.144-1.314-2.201-1.801-3.229
	c-0.313-0.657-0.343-1.086-0.686-1.715c-0.371-0.629-0.2-0.114-0.457-0.771l-4.087-9.459c-0.343-0.857-0.6-0.943-0.857-1.543
	c-0.371-0.886,0-0.972-0.543-1.857l-1.886-2.972c-1.972,0.114-1.029,0.085-2.144,0.829c-0.629,0.429-1.229,0.4-1.943,0.743
	c-0.629,0.286-0.972,0.8-1.515,1.086S298.6,35.65,298.029,35.907L298.029,35.907z"/>
<path fill-rule="evenodd" clip-rule="evenodd" fill="#E6E756" d="M303.629,314.204c0-1.571-0.514-1.257-1.914-2.771
	c-0.771-0.829-1.258-1.772-2.058-2.544l-4.544-4.658c-0.801-0.771-1.2-1.601-2.086-2.486l-4.23-4.486
	c-1-1.086-1.543-1.229-2.515-2.544c-1.343-1.829-3.172-3.172-4.515-4.915c-0.715-0.943-1.458-1.544-2.201-2.43l-5.572-5.802
	c-0.028-0.028-0.086-0.085-0.143-0.114l-4.001-7.373c-1.458-3.486-1.486-3.772-1.4-7.944c0.057-2.229-0.258-4.315,0.686-6.287
	c0.543-1.144,1.058-2.144,1.258-3.401c0.257-1.515-0.144-0.543,0.571-1.486l0.857-1.6c1.086-1.887,2.086-4.03,3.4-5.773l6.201-7.63
	c0.429-0.572,0.572-0.601,1.001-1.201c0.571-0.771-0.086-0.057,0.485-0.657c0.058-0.028,0.114-0.085,0.144-0.114l5.344-5.544
	c0.028-0.058,0.057-0.086,0.114-0.143l0.686-0.429c0.4-0.229,0.172-0.058,0.515-0.258c0.057-0.057,0.229-0.171,0.286-0.199
	l1.886-1.544c1.058-0.771,1.801-1.8,2.887-2.657l0.686-0.572c2.029-2.114,1.172-1,2.715-2.343c0.515-0.458-0.058,0,0.629-0.515
	c0.057-0.058,0.257-0.172,0.314-0.229c0.857-0.687,2.114-1.572,2.686-2.458c0.715-1.144,2.286-1.601,3.372-2.344l0.658-0.6
	c0.686-0.601-0.687,0.4,0.371-0.286l3.486-3.344c0.028-0.028,0.086-0.086,0.114-0.114c0.857-0.8,1.429-0.457,2.315-1.343
	l2.857-2.915c0.4-0.372-0.172,0.143,0.4-0.314c0.028-0.028,0.114-0.058,0.143-0.086l3.4-3.658c0.543-0.629,0.114-0.057,0.629-0.543
	c1.343-1.286,1.943-3.429,3.201-4.801c2.343-2.544-3.801-1.772-5.888-2.229c-2.686-0.6-6.572-1.257-9.173-2.144
	c-0.058,0-0.114-0.028-0.172-0.057c-1.943-0.657-4.144-0.657-7.173-2.286c-0.515-0.286-1-0.4-1.543-0.657
	c-1.058-0.515-1.857-1.115-2.887-1.687c-0.515-0.257-1-0.571-1.486-0.943c-1.028-0.686-2.058-0.972-2.943-1.686
	c-1.485-1.229-3.086-2.201-4.344-3.658c-0.028-0.028-0.057-0.086-0.114-0.143c-0.028-0.029-0.057-0.086-0.086-0.114l-1.057-0.829
	c-0.258-0.172-0.314-0.2-0.572-0.429l-4.515-4.687c-0.515-0.658-0.543-0.801-1.229-1.258l-1.114-0.943
	c-0.028-0.057-0.114-0.257-0.171-0.314l-2.486-4.058c-0.372-0.601-0.344-0.829-0.687-1.515c-0.828-1.658-2.2-4.802-2.629-6.545
	c-0.429-1.8-0.686-2.943-1.543-3.314c-0.314,0.972-0.172,2.515-0.372,3.829c-0.429,3.144-1.771,6.944-1.943,9.831l-4.943,19.062
	c-0.286,0.886-0.343,0.286-0.801,1.314c-0.257,0.601-0.229,2.858-1.828,6.202c-0.372,0.771-0.2,0.714-0.458,1.515
	c-0.314,0.942-0.314,0.457-0.686,1.229c-0.257,0.543-0.229,0.857-0.515,1.4l-0.629,1.343c-0.371,1.029-0.199,0.429-0.686,1.172
	l-1.371,3.772c-0.4,1.458-1.687,2.915-2.486,4.229c-0.772,1.286-0.429,1.801-1.258,2.858c-0.601,0.743-0.286,0.399-0.715,1.229
	c-1.571,2.887-1.714,3.572-3.601,6.316l-2.543,4.743c-0.029,0.029-0.086,0.086-0.114,0.115c-0.029,0.057-0.058,0.114-0.114,0.143
	c-0.543,0.857-0.2,1.028-0.743,1.629c-0.028,0.028-0.114,0.086-0.144,0.114l-2.571,3.001c-0.601,0.714-1.029,1.8-1.515,2.629
	l-1.629,2.2c-0.429,0.4,0-0.057-0.4,0.314l-3.4,3.858c-0.972,0.943-2.087,2.943-3.458,4.315c-0.801,0.829-1.114,1.457-1.857,2.258
	c-0.687,0.686-1.086,1.314-1.801,2.058l-3.743,4.258c-0.829,0.829-1.315,1.258-2.058,2.058c-1.258,1.372-2.43,1.857-3.287,2.744
	c-0.429,0.429-0.429,0.543-1,0.942c-1.086,0.857-2.4,1.658-3.229,2.83c-0.514,0.771-0.143,0.457-0.857,1.057l-4.857,3.173
	c-1.915,1-3.201,2.571-4.658,3.314c-2.772,1.4-2.315,1.572-4.744,3.001l-5.201,2.801c-0.686,0.429-1.686,0.943-2.515,1.343
	l-4.201,1.887c-1.543,0.571-2.601,1.286-4.201,1.8l-7.43,2.486c-1.686,0.314-0.571,0.058-1.343,0.572
	c-1.086,0.686-2.172,0.2-3.487,0.657l-3.201,0.686c-1.286,0.172-0.743-0.028-1.629,0.515c-1.314,0.771-3.401,0.629-5.03,0.686
	c-2.972,0.058-4.258,0.601-7.287,0.715l-23.691,0.257c-1.543-0.028-3.287-0.485-4.858-0.571l-4.801-0.486
	c-1.715-0.085-3.715-0.028-5.173-0.285c-1.457-0.229-3.058-0.715-4.515-0.801c-0.829-0.057-1.771,0.115-2.543-0.114
	c-0.886-0.285-0.429-0.514-2.058-0.657c-1.543-0.143-3.372-0.114-4.601-0.657l-8.773-2c-0.857,1.4-2.201,2.801-3.201,4.087
	c-0.943,1.229-2.429,2.058-3.744,2.8l-2.915,1.915c-0.314,0.258-0.257,0.286-0.657,0.515l-5.315,2.2
	c-0.857,0.258-1.029,0.515-1.686,0.743l-5.602,1.687c-0.657,0.343-0.229,0.2-0.829,0.371l-8.202,2.943
	c-0.657,0.258-0.372,0.058-1,0.429c-0.714,0.4-1.886,0.572-2.658,1.001c-1.343,0.8-3.515,1.543-4.944,2.515l-2.172,1.457
	c-0.4,0.258-0.372,0.229-0.714,0.486c-0.314,0.2-0.4,0.285-0.714,0.515l-2.944,2.372c-1.257,0.914-2.515,1.285-2.515,3.114
	l15.032-0.028c2.486,0.229,14.603-0.429,17.661-0.429L303.629,314.204z"/>
<path fill-rule="evenodd" clip-rule="evenodd" fill="#3A3A39" d="M303.629,314.204l-227.364,0.629
	c-3.058,0-15.175,0.657-17.661,0.429l-15.032,0.028c0-1.829,1.257-2.2,2.515-3.114l2.944-2.372c0.314-0.229,0.4-0.314,0.714-0.515
	c0.343-0.258,0.314-0.229,0.714-0.486l2.172-1.457c1.429-0.972,3.601-1.715,4.944-2.515c0.771-0.429,1.943-0.601,2.658-1.001
	c0.629-0.371,0.343-0.171,1-0.429l8.202-2.943c0.6-0.171,0.171-0.028,0.829-0.371l5.602-1.687c0.657-0.229,0.829-0.485,1.686-0.743
	l5.315-2.2c0.4-0.229,0.343-0.257,0.657-0.515l2.915-1.915c1.314-0.742,2.8-1.571,3.744-2.8c1-1.286,2.343-2.687,3.201-4.087
	l8.773,2c1.229,0.543,3.058,0.515,4.601,0.657c1.629,0.144,1.172,0.372,2.058,0.657c0.772,0.229,1.715,0.058,2.543,0.114
	c1.458,0.086,3.058,0.572,4.515,0.801c1.458,0.257,3.458,0.2,5.173,0.285l4.801,0.486c1.572,0.086,3.315,0.543,4.858,0.571
	l23.691-0.257c3.029-0.114,4.315-0.657,7.287-0.715c1.629-0.057,3.715,0.086,5.03-0.686c0.886-0.543,0.343-0.343,1.629-0.515
	l3.201-0.686c1.314-0.457,2.401,0.028,3.487-0.657c0.771-0.515-0.343-0.258,1.343-0.572l7.43-2.486
	c1.601-0.514,2.658-1.229,4.201-1.8l4.201-1.887c0.829-0.399,1.829-0.914,2.515-1.343l5.201-2.801
	c2.429-1.429,1.972-1.601,4.744-3.001c1.457-0.743,2.743-2.314,4.658-3.314l4.857-3.173c0.715-0.6,0.344-0.285,0.857-1.057
	c0.829-1.172,2.144-1.973,3.229-2.83c0.571-0.399,0.571-0.514,1-0.942c0.857-0.887,2.029-1.372,3.287-2.744
	c0.742-0.8,1.229-1.229,2.058-2.058l3.743-4.258c0.715-0.743,1.114-1.372,1.801-2.058c0.743-0.801,1.057-1.429,1.857-2.258
	c1.371-1.372,2.486-3.372,3.458-4.315l3.4-3.858c0.4-0.371-0.028,0.086,0.4-0.314l1.629-2.2c0.485-0.829,0.914-1.915,1.515-2.629
	l2.571-3.001c0.029-0.028,0.115-0.086,0.144-0.114c0.543-0.601,0.2-0.771,0.743-1.629c0.057-0.028,0.085-0.086,0.114-0.143
	c0.028-0.029,0.085-0.086,0.114-0.115l2.543-4.743c1.887-2.744,2.029-3.43,3.601-6.316c0.429-0.829,0.114-0.485,0.715-1.229
	c0.829-1.058,0.485-1.572,1.258-2.858c0.8-1.314,2.086-2.771,2.486-4.229l1.371-3.772c0.486-0.743,0.314-0.143,0.686-1.172
	l0.629-1.343c0.286-0.543,0.258-0.857,0.515-1.4c0.371-0.771,0.371-0.286,0.686-1.229c0.258-0.801,0.086-0.743,0.458-1.515
	c1.6-3.344,1.571-5.602,1.828-6.202c0.458-1.028,0.515-0.429,0.801-1.314l4.943-19.062c0.172-2.887,1.515-6.688,1.943-9.831
	c0.2-1.314,0.058-2.857,0.372-3.829c0.857,0.371,1.114,1.515,1.543,3.314c0.429,1.743,1.801,4.887,2.629,6.545
	c0.343,0.686,0.314,0.914,0.687,1.515l2.486,4.058c0.057,0.058,0.143,0.258,0.171,0.314l1.114,0.943
	c0.687,0.457,0.715,0.6,1.229,1.258l4.515,4.687c0.258,0.229,0.314,0.257,0.572,0.429l1.057,0.829
	c0.029,0.028,0.058,0.085,0.086,0.114c0.058,0.057,0.086,0.114,0.114,0.143c1.258,1.457,2.858,2.429,4.344,3.658
	c0.886,0.714,1.915,1,2.943,1.686c0.486,0.372,0.972,0.687,1.486,0.943c1.029,0.571,1.829,1.172,2.887,1.687
	c0.543,0.257,1.028,0.371,1.543,0.657c3.029,1.629,5.229,1.629,7.173,2.286c0.058,0.028,0.114,0.057,0.172,0.057
	c2.601,0.887,6.487,1.544,9.173,2.144c2.087,0.457,8.23-0.314,5.888,2.229c-1.258,1.372-1.858,3.515-3.201,4.801
	c-0.515,0.486-0.086-0.086-0.629,0.543l-3.4,3.658c-0.028,0.028-0.114,0.058-0.143,0.086c-0.572,0.457,0-0.058-0.4,0.314
	l-2.857,2.915c-0.887,0.886-1.458,0.543-2.315,1.343c-0.028,0.028-0.086,0.086-0.114,0.114l-3.486,3.344
	c-1.058,0.687,0.314-0.314-0.371,0.286l-0.658,0.6c-1.086,0.743-2.657,1.2-3.372,2.344c-0.571,0.886-1.828,1.771-2.686,2.458
	c-0.058,0.057-0.258,0.171-0.314,0.229c-0.687,0.515-0.114,0.057-0.629,0.515c-1.543,1.343-0.686,0.229-2.715,2.343l-0.686,0.572
	c-1.086,0.857-1.829,1.886-2.887,2.657l-1.886,1.544c-0.058,0.028-0.229,0.143-0.286,0.199c-0.343,0.2-0.114,0.029-0.515,0.258
	l-0.686,0.429c-0.058,0.057-0.086,0.085-0.114,0.143l-5.344,5.544c-0.029,0.029-0.086,0.086-0.144,0.114
	c-0.571,0.601,0.086-0.114-0.485,0.657c-0.429,0.601-0.572,0.629-1.001,1.201l-6.201,7.63c-1.314,1.743-2.314,3.887-3.4,5.773
	l-0.857,1.6c-0.715,0.943-0.314-0.028-0.571,1.486c-0.2,1.258-0.715,2.258-1.258,3.401c-0.943,1.972-0.629,4.058-0.686,6.287
	c-0.086,4.172-0.058,4.458,1.4,7.944l4.001,7.373c0.057,0.029,0.114,0.086,0.143,0.114l5.572,5.802
	c0.743,0.886,1.486,1.486,2.201,2.43c1.343,1.743,3.172,3.086,4.515,4.915c0.972,1.314,1.515,1.458,2.515,2.544l4.23,4.486
	c0.886,0.886,1.285,1.715,2.086,2.486l4.544,4.658c0.8,0.771,1.286,1.715,2.058,2.544
	C303.116,312.947,303.629,312.633,303.629,314.204L303.629,314.204z M389.591,89.721c1.429-0.429,3.4-0.2,5.43,1.857
	c1.429,1.458,2.486,4.658,2.572,6.858c0.143,3.344,0.2,3.401-0.915,5.631c-1.4,2.829-0.543,1.429-2.429,4.115
	c-0.515,0.771-1.601,1.285-2.715,1.4c-2.658,0.314-3.801-0.601-5.716-2.973c-0.257-0.343-0.257-0.4-0.543-0.715
	c-0.886-1.086-1.743-4.115-1.8-5.258c-0.058-1.572-0.144-2.601,0.371-3.83c0.4-0.857,0.686-2.657,1.086-3.286l3.087-3.401
	C388.419,89.835,388.991,89.921,389.591,89.721L389.591,89.721z M386.305,110.868c-3.486,1.029-7.688-3.829-9.116-6.973
	c-0.458-1-0.601-0.515-0.886-1.658c-1.058-4.43-1.915-6.744-1.001-12.23l1.458-5.659l1.571-2.286
	c3.572-6.344,11.688-7.859,17.232-0.715l1.314,2.059c0.801,1.428,1.544,3.857,1.887,5.4c0.457,1.973,1,1.943,0.371,4.201
	l-1.571-1.543c-1.829-2.457-1.286-1.029-2.144-1.943c-0.229-0.258-0.372-0.771-1.172-1.314c-2.172-1.457-4.287-0.629-5.144-0.543
	c-2.001,0.229-1.001,0.172-3.258,1.657c-0.829,0.515-2.887,3.544-3.144,4.315l-0.743,3.029c-0.657,2.458-0.029,6.287,0.657,8.631
	C383.619,108.754,386.333,109.897,386.305,110.868L386.305,110.868z M298.029,35.907c0.571-0.257,1.371-0.486,1.914-0.771
	s0.886-0.8,1.515-1.086c0.715-0.343,1.314-0.314,1.943-0.743c1.114-0.743,0.172-0.714,2.144-0.829l1.886,2.972
	c0.543,0.886,0.172,0.972,0.543,1.857c0.258,0.6,0.515,0.686,0.857,1.543l4.087,9.459c0.257,0.657,0.086,0.143,0.457,0.771
	c0.343,0.629,0.372,1.058,0.686,1.715c0.486,1.028,1.344,2.086,1.801,3.229l0.8,1.629c0.172,0.371,0.115,0.457,0.258,0.943
	c0.285,1.028,0.857,1.657,1.429,2.515c1.114,1.601,1.543,3.114,2.658,4.601c1.114,1.458,0.714,1.43,2.172,2.943
	c0.429,0.43,0.628,0.887,0.942,1.43c1,1.686,2.687,3.344,4.287,4.516l2.715,2.086c0.857,0.657,1.601,0.857,2.543,1.343
	c1.086,0.571,0.286,0.458,1.715,0.743c3.001,0.629,5.83,0.543,8.974-0.028c1.372-0.229,5.572-2.458,6.572-3.43
	c0.658-0.686,0.658-0.515,1.4-0.972c2.458-1.543,6.459-6.944,7.859-9.602c0.629-1.144,1.028-2.315,1.629-3.43
	c1.286-2.344,1.229-3.001,2.114-5.173l1.2-3.915c0.258-0.887,0.114-1.144,0.458-1.943c0.371-0.829,0.543-0.687,0.8-1.572
	c0.257-0.914,0.028-1.258,0.486-2.201c0.485-1,0.6-2.828,0.742-4.143c0.144-1.544,0.144-0.887,0.515-1.858
	c0.314-0.771,0.229-1.515,0.457-2.229c0.229-0.686,0.629-1,0.801-1.543c0.485-1.858,0.257-4.116,1.571-5.944
	c1.743-0.115,3.772,0.4,6.059,0.428c1.486,4.573-0.8,24.691-1.343,28.95c-0.687,5.315-1.658,16.89-0.943,22.005
	c0.229,1.602-0.058,6.059-0.485,7.432c-0.086,0.371-0.372,0.686-0.629,1.171c-0.886,1.715-0.372,7.316-0.058,9.088
	c0.058,0.314,0.086,0.543,0.143,0.857l0.857,4.03c0.144,0.457,0.515,0.971,0.657,1.285c0.4,1,0.544,1.658,1.286,2.658l1.115,1.771
	c1.571,2.258,5.144,4.744,8.087,4.83c3.372,0.114,3.744,0,6.716-1.314c2.144-0.943,5.373-3.229,6.116-5.573
	c0.543-1.657,0.257-1.601,1.457-2.601c2.372,0.743,4.458,4.23,6.602,6.23c0.371,0.343,1.143,1.258,1.429,1.686l1.543,1.857
	c0.687,0.687,0.687,1.201,1.229,1.943c0.399,0.543,1.285,1.258,1.543,1.887c0.257,0.629,0.057,0.657,0.314,1.086l0.857,0.771
	c1.6,1.629,2.114,3.344,3,5.316c0.515,1.143,0.172,0.143,0.629,1.057c0.515,1.058,0.172,1.144,0.915,2.172
	c0.457,0.658,0.6,1.687,1,2.43c0.543,0.971,0.857,3.486,1.343,5.201c1.086,3.801-0.429,13.518-2.229,16.976
	c-0.486,0.914-0.429,1.486-0.857,2.286c-0.857,1.687-0.572,1.715-0.943,2.429c-0.743,1.4-1.801,2.486-2.486,4.03
	c-0.543,1.257-0.857,1.286-1.829,2.114c-0.343,0.286,0.028-0.171-0.4,0.486c-0.657,1-1.371,1.915-2.286,2.629
	c-0.028,0.028-0.085,0.086-0.143,0.114l-0.286,0.2c-0.886,0.715-1.343,0.857-2.057,1.943l-1.601,1.657
	c-0.771,0.486-1.001,1.029-1.743,1.601c-1.029,0.743-2.315,1.114-3.43,1.687c-1.629,0.8-2.458,1.515-4.458,2.029l-5.087,1.485
	c-1.687,0.601-3.858,0.4-5.63,0.915c-1.229,0.371-0.886,0.485-2.572,0.514c-3.915,0.115-16.146,0.601-19.004-0.6
	c-1.343-0.543-1.543-0.2-2.972-0.457c-0.687-0.144-1.572-0.429-2.43-0.657c-1.8-0.429-3.943-0.372-5.601-0.943
	c-1.001-0.372-1.687-0.314-2.772-0.629c-3.258-0.914-6.259-2.114-9.202-3.858c-2.086-1.229-3.572-2.857-5.544-4.144l-1.771-1.629
	c-1.172-1.029-1.857-2.544-2.801-3.715l-2.144-2.658c-0.429-0.371-0.515-0.543-0.8-1.028c0.229-0.743,0.429-0.772,0.8-1.43
	c0.4-0.686,0.457-0.657,0.886-1.6c0.486-1.087,0.915-2.059,1.629-2.944c0.715-0.942,0.629-2.229,1.029-3.601
	c0.515-1.801-0.571-2.973-1.801-1.801c-0.942,0.887-1.114,4.03-3.086,7.088l-2.572,3.486c-2.458,2.544-7.63,3.087-11.088,2.687
	c-1.658-0.172-0.258-0.314-1.715-0.629c-2.543-0.571-4.201,2.4,2.2,2.915c9.517,0.771,9.517-2.601,11.632-2.258
	c0.942,0.172,1.314,1.286,1.886,2.029c0.286,0.4,0.143,0.143,0.429,0.515l3.772,4.658c2.972,3.515,7.458,6.173,11.573,7.888
	c1.115,0.429,1.172,0.6,2.001,1.086l3.058,1.058c0.028,0.028,0.515,0.199,0.571,0.199c0.515,0.144,0.886,0.115,1.458,0.258
	c0.857,0.2,1.571,0.629,2.486,0.829c1.057,0.257,1.743,0.085,2.715,0.428c1.343,0.486,1.229,0.286,2.857,0.543
	c0.343,1.687-0.2,2.144-0.6,3.287c-0.629,1.829-1.4,4.258-2.83,5.658l-4.715,3.716c-0.771,0.457-0.886,0.114-1.572,0.628
	c-1.314,0.943-2.343,1.43-4.344,1.943c-1.828,0.458-1.457,0.658-3.743,0.772c-2.772,0.114-4.687,0.942-7.487,0.942
	c-2.772,0.029-5.744,0.114-8.487,0c-1.572-0.086-3.658-0.914-7.487-0.972c-4.001-0.028-2.087-0.972-7.659-1.2
	c-0.343-0.457-0.286-0.285-0.571-0.886l-2.172-0.086c-0.372-0.399-0.229,0.258-0.486-0.857c-0.657-0.028-1.058,0.029-1.686-0.143
	l-2.229-0.943c-0.571-0.2-0.943-0.743-1.486-0.857c-1.4-0.343-1.515-0.085-2.915-0.857c-1.057-0.571-1.485-0.543-2.457-1.429
	c-0.543-0.485-0.086-0.371-0.886-0.743c-1.772-0.857-3.115-1.629-4.573-2.972c-0.257-0.229-0.285-0.258-0.514-0.486l-2.63-2.172
	c-0.343-0.285-0.485-0.485-0.8-0.914c-0.057-0.058-0.4-0.572-0.4-0.572l-2.715-3.857c-0.257-0.457-0.485-0.601-0.828-1.115
	c-0.629-0.914-1.486-1.515-2.087-2.515l-2.972-5.487c-0.686-1.686-1.144-1.8-1.829-3.943c-0.6-1.943-0.972-3.744-1.771-5.716
	c-0.771-1.857-0.343-4.658-0.829-6.716c-1.229-5.401-0.143-5.688,0.172-9.859c0.086-1.344,0.171-2.458,0.285-3.63
	c0.229-2.4,0.943-5.229,1.973-7.202l0.8-1.086c0.457-0.828-0.2-0.514,0.943-2.943c0.199-0.457,0.229-0.886,0.429-1.285
	c0.229-0.4,0.257-0.314,0.429-0.543l5.715-10.289c1.058-1.4,1.943-2.943,3.287-3.973l5.229-4.915
	c0.828-0.857,1.543-1.629,2.601-2.258c0.828-0.515,1.058-1.314,1.886-1.972l4.687-3.516c1.286-1.028,2.258-2.258,3.544-3.2
	c1.058-0.8,0.914-1.001,1.829-1.858c0.972-0.857,1.058-0.857,1.743-2.143c0.4-0.801,0.857-1.543,1.114-2.516
	c0.743-2.771,0.743-5.544-0.143-8.173c-0.2-0.571-0.429-0.743-0.601-1.315c-0.313-0.942-0.257-1.971-0.6-3
	c-0.457-1.229-0.457-1.629-0.857-3.059l-0.771-2.886c-0.143-0.714-0.343-0.857-0.543-1.4c-0.172-0.543-0.229-1.229-0.286-1.657
	c-0.285-1.857-0.515-1.372-0.972-2.602c-0.543-1.428,0.058-1.656-0.8-3.057c-0.771-1.287-0.143-1.801-0.601-3.059l-0.942-2.973
	c-0.058-0.399-0.144-1-0.314-1.343c-0.4-0.915-0.343,0.172-0.571-1.4c-0.286-2.257,0.114-1.657-0.743-3.801
	c-0.2-0.543-0.058-0.2-0.2-0.8c-0.286-1.601-0.801-3.115-0.972-4.859C298.743,39.88,298,38.708,298.029,35.907L298.029,35.907z
	 M1.764,146.363c0-1.172-0.114-2.743,0.028-3.858c0.114-1.057,0.229-0.6,0.372-1.515c0.372-2.4-0.085-6.772,0.515-8.974
	c0.857-3.086,0.314-3.201,1.057-6.63c0.257-1.086,0.515-1.772,0.714-3.229c0.143-1.229,0.543-1.629,0.8-2.771
	c0.143-0.629,0.086-1.201,0.229-1.715c0.257-0.857,0.314-0.286,0.629-1.315c0.314-1.114,0.314-2.028,0.686-3.2l0.943-2.973
	c0.257-0.857,0.343-0.6,0.628-1.258l1.515-3.058c0.229-0.399,0.086-0.028,0.343-0.601c0.257-0.57,0.286-1.028,0.486-1.485
	c0.314-0.857,0.372-0.543,0.657-1.286c0.514-1.457,0.743-1.4,1.229-2.601l0.658-1.314c0.314-0.687,0.114-0.515,0.514-1.172
	c0.915-1.571,2.086-3.173,2.886-4.829c1.029-2.145,2.344-3.859,3.601-5.83c1.743-2.772,4.058-4.973,5.544-7.803
	c0.572-1.086,1.715-2.286,2.744-3.029c1.343-0.972,1.6-2.229,3.658-4.115c0.629-0.571,0.286-0.285,0.771-0.914
	c0.8-1,0.972-0.686,1.801-2.086c0.485-0.772,1.286-1.229,1.972-1.887c0.629-0.629,1.257-1.229,1.972-1.887
	c0.8-0.8,1.257-1.028,1.972-1.657c0.457-0.429,0.429-0.601,0.915-1.028l0.8-0.658c2-1.943,4.401-3.572,6.573-5.258
	c1.286-1,2.715-2.658,4.315-3.43c1.686-0.828,3-1.943,4.572-2.915l10.888-6.315c1-0.4,2.601-1.629,3.544-2.258l2.715-1.086
	c1.372-0.486,0.571-0.429,1.229-0.715c0.4-0.2,0.715-0.2,1.258-0.457l4.115-1.686c1.429-0.429,0.314-0.2,1.258-0.686
	c1.229-0.628,3.829-1.114,5.658-1.857l2.086-0.8c1.229-0.572,2.715-0.514,3.858-1c0.743-0.343,0.429-0.458,1.229-0.658
	c0.543-0.114,1.229-0.085,1.829-0.171c0.743-0.143,1.715-0.686,2.629-0.943c2.886-0.886,4.658-0.915,6.287-1.486
	c1.429-0.514,11.088-1.743,13.146-1.829c1.658-0.085,1.743-0.457,3.372-0.514c3.372-0.086,11.26-0.372,14.403,0.057l21.205,3.258
	l7.83,2.543c1.429,0.343,1.972,0.829,3.373,1.229c1,0.314,0.714,0.372,1.543,0.657l12.431,5.916c0.6,0.4,1.029,0.4,1.629,0.8
	l2.429,1.943c0.886,0.715,0.229,0.372,1.629,0.743l3.029,1.629c1.086,1.058,2.543,1.915,3.772,2.973
	c2.143,1.886,4.172,2.972,5.258,3.943l5.801,5.572c2.029,1.973,5.201,4.659,6.602,6.945c0.6,1,1.314,1.715,1.972,2.629
	c1.258,1.715,3.029,3.115,4.087,5.059c0.543,0.972,0.429,0.715,1.028,1.429c1.086,1.343,1.657,2.858,2.572,4.201
	c0.714,1.028,1.172,1.629,1.829,2.772l5.087,10.889c0.343,0.885,0.8,2.514,1.314,3.286c0.857,1.314,1.172,3.401,1.943,4.829
	c0.514,1.001,0.257,0.887,0.485,2.029c0.229,1.144,0.343,0.743,0.657,1.458c0.314,0.743,0.172,1.257,0.486,1.942l1.714,5.059
	c0.429,1.658,0.172,2.172,0.829,3.773c0.515,1.314,0.2,2.715,0.743,3.829c0.715,1.429,0.314,2.801,0.829,3.801
	c0.457,0.942,0.514,0.058,0.628,1.743c0.144,2.144,0.029,4.486,0.572,6.459l0.314,1.857c0.686,3.029,0.399,12.26,0.343,15.433
	c-0.114,7.487-0.743,13.203-2.772,20.233c-0.485,1.743-0.371,1.857-1.143,3.43l-0.943,3.687c-0.172,0.6-0.172,1.172-0.429,1.657
	c-0.114,0.257-0.343,0.4-0.601,1.144c-0.257,0.771-0.313,1.171-0.628,1.829c-0.314,0.628-0.4,0.742-0.687,1.457
	c-0.314,0.8-0.057,0.257-0.399,0.857c-0.857,1.486-1.172,3.43-2.601,5.373l-0.543,0.714c-0.2,0.229-0.372,0.343-0.543,0.601
	c-0.286,0.457-0.114,0.2-0.372,0.829l-1.058,2.343c-0.485,0.857-0.199,0.771-0.571,1.658c-0.429,1.086-1.086,1.972-1.8,2.8
	c-1.4,1.601-2.372,3.516-3.887,5.059c-1.001,1.058-1.629,2.229-2.486,3.315c-0.258,0.286-0.343,0.257-0.629,0.571
	c-1.515,1.629-1.486,2.144-3.858,4.173c-0.257,0.229-0.371,0.371-0.543,0.6c-0.657,0.887-1.6,1.458-2.371,2.258
	c-0.601,0.629-0.2,0.543-0.943,1.229l-2.43,2.172c-0.628,0.514-0.742,0.457-1.343,1.086c-1.857,1.886-3.144,2.571-5.03,4.144
	c-1.4,1.144-10.974,6.858-12.86,7.659c-0.657,0.286-0.943,0.4-1.715,0.743l-3.458,1.2c-0.772,0.286-0.657,0.457-1.515,0.657
	c-0.743,0.2-1.143,0.143-1.772,0.4c-1.4,0.6-2.143,1.286-4.629,2.086c-2.429,0.743-8.659,2.629-10.974,2.743
	c-2.857,0.172-4.915,0.972-8.23,1.001c-2.915,0.028-5.715,0.371-8.459,0.457c-2.4,0.086-6.258-0.372-8.716-0.486
	c-2.058-0.086-2.286-0.057-4.001-0.543c-1.372-0.371-2.572-0.343-4.115-0.571c-0.543-0.058-1.543-0.114-2.115-0.286
	c-0.572-0.143-0.972-0.399-1.658-0.514c-0.886-0.144-1.372,0.028-2-0.344c-0.943-0.571,0.4-0.429-1.601-0.657
	c-2.343-0.229-1.658-0.771-3.429-1.086c-0.972-0.171-0.943-0.057-1.8-0.457l-5.916-2.058c-2.115-0.829-2.915-0.857-5.315-2.601
	l-7.173-4.458c-0.543-0.4,0.029-0.058-0.743-0.429c-1.429-0.715-1.515-1.429-3.343-2.258l-6.573-4.802l-5.144-5.229
	c-0.743-0.829-1.086-0.829-2-1.429l-7.888-8.773c-0.028-0.058-0.085-0.086-0.114-0.144l-0.915-1.4
	c-1.057-2.058-2.658-4.029-4.029-5.944c-0.029-0.028-0.057-0.085-0.086-0.114c-0.257-0.371-0.2-0.313-0.457-0.771
	c-0.2-0.371-0.257-0.485-0.429-0.771l-3.058-5.487c-0.486-0.628-0.515-1.028-0.8-2l-2.629-6.373c-0.457-1.2-0.915-1.943-1.286-3.286
	l-1.115-3.516c-0.714-1.572-0.457-2.086-0.886-3.744c-0.171-0.686-0.486-0.914-0.629-1.771c-0.171-0.8-0.143-1.086-0.343-1.829
	c-1.143-4.401-0.515-2.801-0.943-6.115c-0.171-1.115-0.314-0.543-0.571-1.544c-0.857-3.429-0.4-9.459-0.4-13.46
	c0-6.916,0.4-4.315,0.914-9.203c0.143-1.457,0.4-2.886,0.915-4.172c0.543-1.314,0.114-3.144,0.486-4.458
	c0.229-0.857,0.486-0.372,0.8-1.858c0.457-2.086,1.115-3.486,1.915-5.601l0.714-1.429c0.029-0.058,0.143-0.258,0.172-0.314
	l3.201-6.488c0.028-0.057,0.057-0.113,0.085-0.143l1.915-3.201c0.543-1.113,2.115-2.457,3.201-4.286
	c1.515-2.601,7.316-8.545,9.916-10.116c1.144-0.687,1.543-1.516,2.601-2.229c1.543-1.058,3.373-1.601,4.772-3.001
	c2.486-2.543,7.974-4.658,11.146-6.23c1.4-0.714,4.086-1.4,5.001-2.057c0.057-0.029,0.086-0.086,0.143-0.115l0.257-0.171
	c0.486-0.229,1.257-0.229,1.943-0.314c1.686-0.144,2-0.714,3.943-0.943c3.858-0.457,2.972-0.628,4.315-0.829
	c1.486-0.229,3.229-0.143,4.772-0.342c7.43-1.001,7.83,0.113,13.832,0.199c1.543,0.029,3.029,0.143,4.229,0.658
	c1.772,0.742,1.829-0.258,4.058,1c1.057,0.6,2.801,0.285,4.029,0.8l7.573,2.657c3.772,1.516,1.515,0.458,4.287,2.001
	c0.085,0.058,0.429,0.343,0.686,0.515c0.628,0.4,0.943,0.4,1.543,0.857c0.714,0.543,0.857,0.543,1.629,1.028l4.315,3.201
	c3.515,2.086,8.001,6.315,10.773,9.259c3.029,3.201,2.229,3.344,2.972,4.573c0.515,0.829,1.458,2.372,2.115,2.886
	c0.714,0.572,1.172,1.4,1.772,2.145c1.172,1.428,1.372,2.6,2.201,4.143c0.257,0.458,0.229,0.287,0.514,0.629
	c1.372,1.629,2.029,4.087,2.772,6.002c0.829,2.086,1.229,2.144,1.486,3.658c0.229,1.314,0.2,0.8,0.657,1.686
	c0.657,1.287,0.114,2.43,1.029,4.059c1.515,2.658,0.915,6.401,1.8,8.116c1.086,2.087,0.6,11.746,0.429,14.232
	c-0.114,1.571-0.314,0.857-0.629,2.058c-0.171,0.686-0.114,1.485-0.2,2.229c-0.143,1.229-0.743,2.744-1.057,4.03
	c-0.4,1.743-0.458,0.856-0.857,1.8l-0.886,2.772c-2.315,5.287-1.829,3.315-3.487,6.401l-0.886,1.543
	c-0.543,0.943-1.171,0.943-1.771,2.115c-0.601,1.114-1.458,1.715-2.172,2.658c-0.371,0.543-0.057,0.343-0.714,0.657
	c-0.372,0.171-0.686,0.171-1.029,0.285c-0.2,1.429-0.628,1.915-2.172,1.972c-0.085,1.4-0.6,1.286-1.429,1.973l-0.286,0.2
	c-0.029,0.057-0.086,0.085-0.114,0.114l-0.372,0.543c-1.572,2.114-3.43,2.457-5.516,3.772c-0.486,0.285-0.714,0.371-1.229,0.686
	c-0.543,0.314-0.171,0.114-0.6,0.371c-1.972,1.286-2.257,1.144-4.058,1.943c-0.829,0.4-1.886,0.372-2.743,0.687
	c-0.915,0.343,0.2,0.143-1.058,0.6c-0.857,0.314-2.086,0.229-3.058,0.571c-1.115,0.372-1.115,0.572-2.572,0.687
	c-4.058,0.371-9.688,0.371-13.66-0.229c-0.943-0.144-1.915-0.601-2.8-0.743c-1.686-0.314-4.287-0.601-5.63-1.4l-3.515-1.772
	c-0.6-0.285-0.571-0.399-1.029-0.657c-1.143-0.571-1.172-0.114-2.372-1.028c-0.943-0.743-2.486-1.344-3.286-2.029
	c-0.458-0.371-0.515-0.343-1-0.715c-0.657-0.543-1.429-1.2-1.943-1.686l-5.458-4.944l-4.315-6.345
	c-0.286-0.485-0.314-0.771-0.514-1.2c-0.458-0.857-0.2-0.057-0.686-1c-0.314-0.571-0.229-0.857-0.572-1.343l-1.857-3.201
	c-0.829-2.429-2.086-5.487-2.572-8.088c-0.171-1-0.143-2.144-0.286-3.115c-0.171-1.171-0.571-1.914-0.657-2.886
	c-0.314-3.258,0.2-6.944,0.743-9.688l2.744-6.201c0.257-0.486,0.314-0.629,0.628-1l2.915-3.344c0.886-0.743,1.2-1.258,2.286-1.772
	l4.573-2.515c0.857-0.543,1.829-0.371,2.886-0.686c2.629-0.829,6.487-1.286,9.145-0.486c3.772,1.143,1.601-0.114,5.173,1.771
	c1.8,0.973,2.772,1.4,4.315,2.715c1.543,1.315,2.315,1.486,3.687,3.344l1.543,2.087c0.2,0.257,0.2,0.286,0.4,0.543
	c0.229,0.257,0.114,0.114,0.343,0.399c0.486,0.572,0.286,0.43,0.657,1.029c0.829,1.344,1.629,3.115,1.972,4.973
	c0.143,0.829,0.143,0.972,0.4,1.601c0.428,1.172,0.143,2.544,0.657,3.658c0.171,0.457,0.114,0.285,0.343,0.6l1.229-0.114
	c0.2-0.314,0.057,0.086,0.2-0.571c0.4-1.829-0.257-3.058-0.486-3.772c-0.457-1.457-0.171-2.344-0.829-3.973
	c-0.629-1.514-1.086-2.943-1.943-4.172c-0.372-0.515-0.2-0.143-0.457-0.686c-2.144-4.002-2.915-3.63-4.887-6.116
	c-0.915-1.144-2.229-1.486-3.601-2.429c-1.372-0.943-3.543-1.744-5.315-2.23c-2.286-0.628-3.772-1.028-6.401-1
	c-5.83,0.058-6.858,0.515-12.031,2.63l-3.029,1.857c-3.144,2.429-2.286,2.058-4.858,4.829l-2.144,3.002
	c-0.771,1.514-1.771,3.286-2.172,5.058l-1,6.288l0.771,9.002c0.229,2.314,0.171,2,0.829,4.029c0.2,0.657,0.143,1.4,0.372,2.058
	c0.171,0.543,0.486,0.914,0.714,1.629c0.314,1.028,0.143,1.144,0.743,1.943c0.857,1.172,1.372,3.344,2.343,4.915l0.771,1.115
	c0.029,0.057,0.086,0.114,0.086,0.143c0.028,0.058,0.057,0.114,0.086,0.172c0.286,0.628,0.343,1.028,0.743,1.715
	c0.4,0.742,1.315,2.429,1.915,2.972c1.4,1.229,2.115,2.658,3.315,3.915c2.943,3.115,5.658,5.716,9.316,7.888l7.83,4.059
	c1.314,0.629,2.086,1.229,3.601,1.429l5.716,1.543c1.629,0.457,7.03,0.657,9.059,0.657c2.658-0.028,7.373,0.172,9.316-0.686
	c1.2-0.515,2.543-0.429,3.829-1c1.4-0.601,2.258-0.4,3.687-1.172l3.515-1.372c1.314-0.2,0.8,0,1.772-0.6
	c0.743-0.458,1.086-0.4,1.686-0.743c0.515-0.286,0.314-0.258,0.629-0.515c0.914-0.8,2-1.114,2.915-1.943l2.972-2.144
	c0.943-0.6,0.915-1.229,1.715-1.886c0.915-0.743,0.628,0,1.343-1.058c0.657-0.943,0.343-0.601,1.171-1.286
	c1-0.857,1.715-2.058,2.629-2.943l1.686-2.4c0.429-0.486,0.628-0.887,1-1.43c0.515-0.771,0.486-0.714,1.086-1.343
	c0.829-0.886,0.286-0.457,0.829-1.543c0.371-0.715,0.543-0.601,0.914-1.486l2.83-6.773c0.343-1.515,0.743-2.743,0.943-4.058
	l0.857-3.944c0.4-1.943,0.6-6.916,0.571-9.088l-1.372-15.718c-0.143-1.43-0.572-0.629-0.743-1.314c-0.571-2.229,0.086-1.43-1-3.772
	l-1.172-3.372c-0.085-1.372,0.257-1.4-0.4-2.373c-0.629-0.971-1.543-3.229-2.115-3.887l-0.6-0.942
	c-0.543-1.314-0.972-1.657-1.029-3.458c-1-0.258-0.714-0.285-1.257-0.943l-0.343-0.428c-0.571-0.744-1.029-1.029-1.429-1.688
	l-1.772-2.8c-0.314-0.429-0.314-0.485-0.6-0.886l-4.115-5.059c-1.029-1.43,0.057-0.771-1.486-1.4l-0.114-1.572
	c-1.543-0.285-0.572-0.028-1.4-0.8l-2.229-2.087c-0.6-0.485-1.2-1.229-1.829-1.514c-1.515-0.715-2.572-1.887-3.915-2.916
	l-5.573-3.829c-2.372-1.286-7.802-4.258-10.202-5.058c-0.457-0.172-1.286-0.286-1.772-0.458c-0.857-0.257-0.657-0.313-1.6-0.601
	l-4.772-1.714c-1.257-0.571-3.515-0.485-5.43-1.086c-1.772-0.571-3.715-0.601-5.602-0.857c-5.858-0.886-12.545-0.629-18.232,0.313
	c-1.686,0.287-2.172,0.201-3.687,0.658l-7.001,1.886c-0.657,0.229-0.943,0.4-1.658,0.571c-2.115,0.516-1.972,0.829-3.286,1.086
	c-1.886,0.344-1.143,0.744-3.058,1.258c-1.943,0.543-4.315,1.887-6.03,2.943l-4.001,2.516c-0.857,0.657-1.515,1.285-2.543,1.828
	c-0.8,0.43-0.829,0.287-1.543,0.857c-1.743,1.344-0.8-0.113-2.086,1.715c-0.057,0.086-0.171,0.258-0.229,0.314
	c-1.029,1.258-2.343,1.486-3.543,2.973c-1.743,2.172-2.772,2.086-4.172,4.772l-1.2,1.8c-0.029,0.058-0.057,0.115-0.086,0.172
	l-1.172,1.372c-0.028,0.028-0.085,0.085-0.143,0.114c-1.172,1.172-2.172,2.658-3.115,3.915l-4.086,7.06
	c-1.2,2.2-2.229,5.83-3.458,7.658c-0.915,1.372-1,3.315-1.657,4.858l-1.029,3.315c-0.743,2.687-0.515,3.658-1,5.801
	c-0.286,1.144-0.657,2.287-0.743,3.545c-0.486,5.887-0.372,14.717,0.6,20.29l1.4,7.517c0.257,4.372,0.429,2.257,1.086,4.973
	c0.372,1.571,0.658,3.458,1.343,4.743c0.515,1.001,0.429,1.058,0.686,2.173l1.686,4.4c0.457,1.029,0.229,1.086,0.915,2.001
	l2.743,6.201c0.458,0.8,0.2,0.028,0.572,1.144l5.658,9.373c0.029,0.029,0.057,0.086,0.086,0.144
	c0.029,0.028,0.086,0.114,0.086,0.143l2.172,3.144c1.286,1.801,4.601,5.201,6.258,7.03l2.829,3.001
	c1.314,1.457,3.058,2.629,4.373,4.087c0.2,0.229,0.143,0.143,0.372,0.343l3.172,2.887c1.029,1,2.172,1.571,3.344,2.486
	c2.829,2.114,5.772,4.144,8.916,5.829c0.572,0.314,0.515,0.344,1.086,0.629c0.6,0.286,0.429,0.144,0.972,0.486
	c3.115,1.972,6.659,3.2,10.06,4.715c1.458,0.629,3.029,0.743,4.372,1.629l2.344,0.829c1.171,0.515,3,1.172,4.429,1.372
	c1.172,0.171,1.629,0.143,2.458,0.429c1.972,0.686,3.229,0.543,5.229,0.857c1.715,0.257,2.715,0.8,4.858,0.914l13.774,0.343
	c2.858,0,13.517-0.914,15.775-1.543c2.801-0.829,5.973-1.457,8.802-2.515c0.829-0.314,1.601-0.372,2.258-0.687l9.917-4.058
	c0.972-0.343,1.857-1.114,3.886-1.915c1.4-0.571,3.83-2.258,5.43-3.058l3.943-2.629c0.029-0.029,0.057-0.086,0.086-0.114l0.171-0.2
	c1.114-1.115,2.629-2.058,3.943-2.943l1.515-1.172c0.058-0.058,0.086-0.114,0.144-0.144c0.028-0.028,0.057-0.085,0.114-0.114
	l7.83-7.173c0.143-0.143,0.2-0.2,0.343-0.372l9.545-11.002c1.543-1.715,0.857-2.087,2.172-3.63c0.886-1.058,1.172-2.172,2.115-3.458
	c2.028-2.801,2.943-5.83,3.915-7.487c0.2-0.286,0.343-0.372,0.6-0.829l3.372-9.517c0.629-1.314,1.43-2.486,1.744-3.973l1.514-7.03
	c0.601-2.2,0.801-4.772,1.286-7.173l0.657-7.859c0.144-5.487,0.2-11.317-0.399-16.775l-0.771-4.772
	c-0.144-1.715-0.144-3.715-0.429-5.43c-0.258-1.543-0.715-3.086-1.029-4.544c-0.343-1.601-0.629-3.001-1.028-4.744
	c-0.314-1.314-0.743-3.229-1.144-4.458c-0.485-1.486-1.571-5.573-2.144-6.602c-0.714-1.314-1.429-4.201-2.286-6.174l-0.8-2.114
	c-0.457-0.886-0.314-1.257-0.629-2.058l-1.457-2.887c-0.657-1.486-1.229-1.972-1.544-2.771l-4.486-9.117
	c-0.028-0.057-0.057-0.114-0.086-0.172c-0.028-0.057-0.057-0.113-0.086-0.171c-0.428-0.829-0.371-1.2-0.971-1.886l-6.316-7.974
	c-0.457-0.543-0.743-1.086-1.2-1.687c-0.457-0.571-0.743-1.028-1.229-1.429c-2.515-2.2-1.029-1.543-2.772-3.058
	c-3.601-3.115-5.372-5.744-9.459-8.916l-5.258-4.659c-1.029-0.829-2.257-1.571-3.401-2.429c-0.6-0.457-1.2-0.743-1.743-1.144
	c-2.058-1.601-2.058-1.171-3.458-2.114c-0.543-0.372-1.028-0.887-1.6-1.286c-0.886-0.601-1.915-0.886-2.772-1.601
	c-0.4-0.343-0.171-0.257-0.686-0.486l-7.43-3.715c3.543-0.171,0.657,0.286,5.544,0.8l3.487,1.286c1.057,0.543,2.172,0.628,3.372,1.2
	c1.229,0.572,1.229,0.257,2.543,0.6c1.086,0.257,0.628,0.6,2.257,0.886l8.831,3.772c0.8,0.371,1.4,0.857,2.001,1.115
	c1.028,0.428,1.371,0.085,2.515,0.714l4.058,2.2c0.687,0.344,1.229,0.515,1.972,0.943c1.458,0.801,0.4,0.715,1.801,1.286l7.83,4.772
	c2.858,1.744,1.229,0.829,2.715,2.144l11.203,8.859c0.514,0.571,0.828,1.086,1.543,1.629c0.771,0.601,1.114,0.601,1.657,1.429
	l8.602,10.06c0.344,0.4,0.4,0.657,0.657,1.029c0.258,0.343,0.314,0.371,0.629,0.829l2.829,4.973
	c0.629,1.657,2.144,3.057,3.029,4.629l3.115,6.345l4.087,11.517c0.343,1.516,0.657,0.457,0.914,2.229
	c0.2,1.601,0.172,1.2,0.657,2.401c0.372,0.856,0.429,1.514,0.771,2.371c0.629,1.572,0.515,3.373,1.029,5.002
	c0.629,2.114,0.543,3.715,0.972,5.344l0.543,2.572c0.399,3.857,1.857,21.52,0.8,25.892c-0.343,1.515-0.714,5.973-0.743,7.717
	c-0.057,2.915-0.743,4.544-0.972,7.487c-0.114,1.515-0.686,2.172-0.886,3.458c-0.229,1.771-0.086,1.972-0.629,3.486l-4.058,15.061
	c-0.857,1.973-1.229,4.487-2.086,6.402c-0.258,0.571-0.258,0.942-0.515,1.457c-0.229,0.515-0.657,0.771-0.829,1.258
	c-0.343,1-1.086,3.915-1.571,4.772c-1.4,2.372-2.229,5.087-3.344,7.573l-7.116,13.46c-0.314,0.572-0.457,0.801-0.828,1.372
	l-1.544,2.515c-0.485,0.972-1.229,1.286-1.857,2.486c-0.771,1.486-0.942,1.458-1.629,2.486c-0.343,0.515-0.457,1.086-0.742,1.486
	c-0.314,0.486-0.715,0.571-1.144,1c-0.8,0.743-1.029,1.372-1.601,2.516c-0.543,1.114-1.314,1.343-1.886,2.229l-5.43,7.174
	c-0.314,0.429-0.572,0.686-1.029,1.143l-3.029,3.258c-1.914,2.087-4.058,3.858-6.087,5.744l-2.172,1.943
	c-1.657,1.515-3.086,3.173-4.973,4.459c-0.6,0.399-0.714,0.514-1.2,0.972l-5.458,4.229c-0.857,0.6-1.144,0.515-2.058,1.114
	c-0.429,0.257-0.743,0.543-1.086,0.829l-13.26,7.744c-1.171,0.657-5.916,2.172-6.201,2.315l-7.802,2.629
	c-1.486,0.457-0.4,0.286-1.257,0.629c-1.772,0.686-5.144,1.172-7.087,1.372c-1.515,0.171-2.429,0.371-3.658,0.742l-11.603,0.887
	c-2.744,0.028-5.116,0.257-8.002,0.257c-9.517,0-14.089-0.172-24.206-1.114c-1.6-0.144-1.372-0.515-3.858-0.543
	c-1.372-0.029-3.029-0.029-4.372-0.086c-1.172-0.086-0.657-0.143-1.143-0.515c-0.772-0.6-3.744-0.657-5.059-1.143
	c-1.229-0.486-2.458-0.429-3.772-0.601l-10.145-2.658c-0.658-0.257-1.172-0.229-1.744-0.457c-0.6-0.257-0.686-0.571-1.4-0.714
	c-1.829-0.4-1.829-0.172-3.458-0.943l-6.087-2.344c-1.029-0.343-0.543-0.343-1.486-0.714l-4.658-1.887
	c-1.029-0.515-1.657-1.086-2.915-1.429c-0.743-0.2-1.143-0.286-1.657-0.571c-0.714-0.429-0.429-0.429-1.029-0.857l-8.316-4.744
	c-0.6-0.314-0.543-0.429-1.229-0.943l-2.486-1.629c-0.171-0.143-0.229-0.143-0.457-0.286c-1.372-0.886-2.229-1.2-3.287-2.543
	c-0.686-0.886-3.83-3.286-4.658-3.772l-6.573-6.259c-1-0.914-1.372-0.657-2.4-1.943c-0.715-0.886-1.086-1.715-1.943-2.429
	c-0.543-0.486-0.657-0.344-1.143-1.058c-0.429-0.629-0.286-0.771-0.8-1.372c-2.229-2.771-3.029-2.915-5.001-5.858l-3.401-5.373
	c-0.314-0.514-0.343-0.942-0.686-1.457c-0.6-0.829-1.257-1.429-1.743-2.4l-1.686-2.63c-1.458-2.2-0.629-1.515-1.257-3.144
	c-0.229-0.6-0.429-0.2-0.857-1.343c-0.314-0.857-0.171-0.715-0.657-1.486c-0.686-1.086-0.372-1.486-1.2-2.658
	c-0.029-0.057-0.057-0.114-0.086-0.143c-0.629-0.972-1.172-1.743-1.458-2.943c-0.2-0.829-0.314-0.886-0.6-1.601l-2.486-6.201
	c-0.372-1.029-0.543-2.087-1.086-3.001c-0.657-1.114-0.486-1.229-0.886-2.486c-0.286-0.886-0.714-1.058-0.915-2.229
	c-0.229-1.314-0.657-2-0.915-3.458c-0.972-6.001-1.771-5.516-2.086-8.63c-0.057-0.601-0.743-2.772-1.086-5.401l-0.715-3.373
	c-0.286-1.914,0.115-2.2-0.543-3.801c-0.6-1.429-0.485-2.029-0.543-3.887c-0.057-1.829,0.058-2.457-0.485-3.829
	c-0.857-2.144-0.629-5.287-0.629-7.773c0-2.172-0.171-2.2-0.429-3.915c-0.171-1.286,0.029-2.829-0.171-4.201
	C1.621,150.535,1.764,148.393,1.764,146.363L1.764,146.363z M292.942,8.529c4.973-1.229,9.773,1.314,12.631,5.544
	c0.372,0.572,1.058,1.543,1.172,1.943c0.229,0.857,0.143,1.629,0.4,2.543c0.743,2.858,0.229,2.687-0.2,5.202
	c-0.829,4.629-1.172,2.458-2.029,4.315c-0.914,2.029-4.973,4.344-7.401,4.858c-3.229,0.657-8.059-0.829-9.803-2.429
	c-4.258-3.915-3.343-4.229-4.657-7.63c-1.115-2.829,0.628-7.116,2.257-9.631c1.058-1.629,3.516-3.458,5.201-4.115
	C291.37,8.786,291.97,8.758,292.942,8.529L292.942,8.529z M373.074,2.528c4.286-0.915,8.259,0.857,11.002,3.944
	c0.801,0.915,2.029,2.458,2.486,3.572c0.886,2.315,1.144,6.03,0.257,7.973c-0.742,1.658-0.428,2.144-2.172,3.858
	c-0.828,0.829-0.229,0.714-1.028,1.4c-0.314,0.257-0.143,0.058-0.457,0.286c-2.029,1.343-2.887,2.915-5.658,3.115
	c-2.858,0.2-2.744,0.171-5.315-0.2c-3.973-0.543-8.459-5.773-8.773-9.317c-0.114-1-0.172-5.172,0.028-6.059l0.972-2.2
	c0.657-1.687,2.657-3.744,4.229-4.716c0.743-0.486,1.257-0.771,2.058-1.086C371.759,2.642,371.788,2.813,373.074,2.528
	L373.074,2.528z M295.428,35.822c0.343,2.743,0.714,5.001,1.143,7.601c0.086,0.629,0.2,1.43,0.286,1.887
	c0.285,1.2,0.257,0.572,0.571,1.543c0.457,1.458,0.028,2.772,0.601,4.059c0.828,1.801,0.714,3.115,1.4,5.145
	c0.229,0.629,0.257,1.257,0.429,1.971l0.914,3.487c0.286,1.601,0.829,1.485,1.028,3.572c0.114,1.515,0.687,1.943,0.943,3.401
	c0.143,0.714,0.172,1.114,0.457,1.715l1.115,3.229c0.343,0.686,0.399,0.743,0.543,1.629c0.171,1.229-0.086,0.829,0.429,1.715
	c0.514,0.887,0.714,2.344,1.171,3.458c0.286,0.714,0.258,0.886,0.4,1.715c0.515,2.687,0.657,5.602-1.314,7.716l-1.657,1.973
	c-0.857,0.971-1.687,1.285-2.572,2.258c-0.058,0.057-0.086,0.086-0.143,0.143c-1.144,1.371-3.115,2.2-4.459,3.486
	c-2.657,2.601-5.801,4.744-8.459,7.259l-2.229,2.115c-1.715,2.086-3.486,3.972-5.029,6.144c-0.972,1.373-1.572,2.658-2.601,3.916
	c-1.515,1.857-2.115,3.687-3.259,5.688c-0.457,0.771-0.399,0.628-0.8,1.6l-1.343,3.001c-1.429,3.944-0.601,1.571-1.629,3.001
	c-0.314-0.371-0.2-0.143-0.429-0.771c-0.715-1.887,0.114-4.459-0.515-6.26c-0.286-0.771-0.371-0.399-0.6-1.342
	c-0.258-1.087-0.115-2.344-0.429-3.459c-0.2-0.8-0.372-0.571-0.572-1.343c-0.514-1.972-0.629-4.345-1.457-6.259
	c-0.343-0.857-0.258-0.314-0.543-1.4l-1.4-4.63c-0.286-0.743-0.343-0.485-0.629-1.314c-0.171-0.543-0.2-1.086-0.343-1.571
	l-1.286-2.602c-0.429-1-0.571-2.258-0.943-2.943c-0.285-0.629-1.114-1.629-1.429-2.4l-10.23-17.375
	c-0.028-0.058-0.058-0.115-0.086-0.172c-0.715-1.144-5.344-6.287-6.201-6.859c-0.771-0.514-1.086-1.343-1.743-2.086l-3.572-3.43
	c-1.029-1.371-2.2-2.143-3.486-3.314c-1.972-1.801-3.029-2.315-4.344-3.401l-4.373-3.858c-0.057-0.028-0.085-0.086-0.114-0.143
	c-0.629-0.743-1.743-1.172-2.543-1.771l-3.344-2.43c-1.229-0.686-1.601-1.486-2.972-1.771c-1.229-0.258-4.201-1.744-5.373-2.516
	c-3.344-2.2-3.372-1.686-5.173-2.571l-13.717-5.859c-1.144-0.286-1.629-0.886-2.801-1.029c-2.115-0.229-1.629-0.343-3.086-0.829
	l-12.66-3.172c-1.201-0.143-1.601-0.714-2.915-0.915l-6.487-1.229c-1.029-0.171-1.8-0.543-3.086-0.8
	c-0.943-0.2-2.343-0.257-3.343-0.515c-1.172-0.257-1.915-0.6-3.287-0.686c-3.287-0.257-3.372-0.543-7.259-0.743l-6.944-0.771
	c-1.229-0.115-1.886-0.372-3.429-0.372l-7.516-0.229l-18.69,1.229c-2.372,0.229-0.486,0.714-6.258,1.2
	c-1.8,0.143-1.257,0.6-3.115,0.772l-11.945,3.258c-0.829,0.286-0.457,0.343-1.314,0.629c-0.629,0.2-1,0.171-1.629,0.343
	l-4.115,1.657c-0.486,0.172-1,0.229-1.515,0.4l-11.888,5.344c-1.172,0.857-2.486,1.344-3.744,2.029
	c-0.686,0.371-0.572,0.344-1.143,0.572L58.09,46.91c-2.658,1.429-10.26,6.772-11.688,8.345l-5.63,5.029
	c-0.429,0.43-0.657,0.572-1.086,0.887c-1.486,1.172-2.4,2.43-3.829,3.658c-0.314,0.257-0.743,0.656-0.972,0.943l-4.516,4.943
	c-1.372,1.229-2.314,2.801-3.543,4.201c-1.229,1.429-2.744,2.086-3.543,3.915l-0.915,1.544c-0.057,0.027-0.086,0.085-0.143,0.113
	c-0.028,0.029-0.085,0.086-0.114,0.115c-1.143,1.199-2.715,3.686-3.658,5.059l-2.83,4.915c-1.686,2.857-3.343,5.573-4.772,8.545
	l-3.086,6.573c-0.514,1.2-0.971,1.429-1.171,2.657c-0.314,1.772-0.629,1.601-1.058,2.858l-0.915,2.943
	c-0.286,0.771-0.2,0.771-0.257,1.743c-0.086,1.486,0.057,0.601-0.429,1.458l-0.458,1.229c-0.229,0.914-0.2,0.715-0.486,1.457
	c-0.457,1.144-0.257,2.115-0.657,3.229c-1.114,3.001-0.571,4.716-1.257,6.459c-1.314,3.372-1.057,14.489-1.057,19.776l0.4,13.689
	c0.486,3.343,0.743,9.487,1.572,12.432c0.514,1.857,0.372,4.286,0.857,6.173c0.514,1.943,0.771,3.801,1.143,5.887l3.372,12.632
	c0.229,1.028,0,0.429,0.372,1.286c0.6,1.371,0.4,1.543,0.686,3.001c0.257,1.2,0.714,0.543,1.086,2.257
	c0.371,1.687,0.8,0.915,0.971,2.658c0.257,2.144,0.715,2.086,1.258,3.858c0.2,0.6,0.114,0.343,0.257,0.686
	c0.029,0.086,0.115,0.286,0.143,0.343c0.029,0.058,0.057,0.144,0.086,0.2c0.514,1.314,0.943,2.629,1.686,3.801
	c0.915,1.458,1.343,3.63,2.257,4.744l1.258,2.372c0.714,1.486,1.286,3.115,2.4,4.401l0.686,1.229
	c0.286,0.715,0.886,1.429,1.372,2.258l1.915,3.43c0.886,1.543,2.029,2.687,2.858,4.172l11.288,13.347c0.943,0.8,1.572,2,2.629,2.687
	c1.086,0.714,1.086,0.543,1.972,1.429c1.143,1.172,2.429,2.229,3.486,3.544l3.401,2.857c0.229,0.143,0.372,0.286,0.543,0.429
	c0.057,0.058,0.314,0.314,0.372,0.371l2.572,2.001c1.458,0.886,1.829,1.543,2.429,1.886l0.343,0.172
	c0.114,0.058,0.2,0.114,0.314,0.172l3.315,1.8c0.686,0.429,0.4,0.4,1.172,0.715c1.229,0.515,1.8,1.343,3.086,2l1.372,0.572
	c2.515,1.229,3.601,0.972,6.087,2.915c0.772,0.6,1.429,0.657,2.287,1.086l3.801,1.543c0.543,0.171,0.686,0.314,1.143,0.543
	c0.771,0.371,0.657,0.172,1.515,0.4c1.143,0.343,0.915,0.686,2.372,1c0.601,0.143,0.943,0.171,1.4,0.343
	c0.714,0.286,0.486,0.371,1.286,0.629c1.658,0.485,4.201,0.829,5.601,1.657l-0.085,1.2c-0.458,1.229-4.516,4.516-5.744,5.287
	c-0.458,0.286-1.229,0.543-1.829,0.886c-3.887,2.201-3.144,1.372-5.373,2.372l-13.46,4.944c-0.8,0.4-0.515,0.429-1.686,0.715
	c-1.172,0.257-1.058,0.371-1.915,0.743c-1.429,0.6-0.743-0.058-3.029,1.114l-0.686,0.286c-0.657,0.285-1.029,0.514-1.658,0.742
	c-1.114,0.429-0.943,0.429-1.714,0.943c-1,0.743-2.543,1.2-3.401,1.915c-0.057,0.028-0.114,0.086-0.143,0.114l-4.629,2.887
	c-0.972,0.686-1.601,1.743-2.429,2.629c-0.171,0.2-3.801,3.029-3.715,4.344c0.172,2.144,4.715,1.4,6.116,1.429h74.531
	c5.087,0,15.118,0.172,19.833-0.057c1.915-0.086,4.144-0.687,6.03-0.4l156.32-0.515c1.915,0,5.802,0.515,6.259-1
	c0.457-1.486-0.486-1.857-1.114-2.429c-1.029-0.943-0.344-1.029-1.658-1.973c-0.314-0.229-0.6-0.457-0.914-0.8L301,306.803
	c-0.371-0.343-0.629-0.515-0.972-0.915l-3.458-3.829c-1.829-1.715-3.258-4.059-5.201-5.688l-4.258-4.43
	c-0.914-0.972-1.515-2.114-2.629-2.972l-4.544-4.373c-0.543-0.628-0.2-0.543-0.743-1.2c-1.058-1.229-0.715-0.229-3.43-3.829
	c-0.485-0.657-1.257-1.258-1.686-1.943l-2.315-4.887c-0.313-1.314-0.343-1.801-0.714-2.943c-0.886-2.915-0.028-6.773,0.515-9.46
	c0.457-2.172,1.485-2.687,2.343-4.602l8.288-12.831c0.028-0.029,0.057-0.086,0.085-0.144c0.058-0.028,0.086-0.085,0.114-0.114
	l1.715-1.943c0.543-0.714,1.058-1.143,1.801-1.8c1.257-1.086,2.372-2.201,3.772-3.487c0.371-0.343,0.543-0.428,0.914-0.771
	c0.372-0.314,0.629-0.543,1.058-0.886c1.943-1.715,3.687-3.572,5.801-5.059c0.943-0.657,0.743-1.028,1.687-1.657l2.972-2.429
	c0.4-0.314,0.572-0.543,1.029-0.857l6.087-4.83c0.715-0.571,1.2-1.114,1.915-1.715c0.657-0.6,1.429-0.972,2.114-1.515
	c1.887-1.601,4.059-3.344,5.658-5.229l7.287-10.803l6.402-0.429c4.258-0.657,5.144,0.371,11.002-1.572
	c0.657-0.229,0.515-0.229,1.058-0.399c3.258-1.001,1.886-0.743,3.458-1.372c2.429-0.972,1.143-0.686,4.029-2.258
	c1.058-0.543,1.829-1.601,2.743-2.344l0.657-0.571c0.457-0.429,1.172-1.172,1.486-1.657l1.086-1.601
	c0.515-0.886-0.172,0.314,0.171-0.343c0.429-0.829,0.687-1.115,1.086-2.029c0.801-1.829,1.058-2.458,1.229-5.059l5.915,0.572
	c1.858,0.229,4.487,0.285,6.373,0.428c2.372,0.172,13.718-0.143,15.718-0.8c0.915-0.314,1.915-0.371,2.887-0.543
	c1.743-0.257,3.372-1.229,4.857-1.829c1.486-0.6,1.029,0.2,4.858-1.743c1.344-0.686,1.115-0.314,2.315-1.286
	c1.8-1.486,3.915-2.687,5.601-4.315c0.886-0.857,1.857-1.457,2.658-2.458c0.886-1.114,1.571-1.457,2.258-2.543
	c1.143-1.829,1.314-1.429,2.686-4.115l2.172-4.401c0.344-0.857,0.286-0.485,0.572-1.114c0.257-0.543,0.2-0.743,0.371-1.372
	c0.4-1.343,1.543-2.857,1.887-4.801c0.313-1.801,0.171-1.344,0.686-2.687c0.829-2.144,0.429-7.488,0.429-9.859
	c0-3.572-0.4-4.315-1.114-7.002c-0.715-2.687-2.516-6.059-3.744-8.545c-0.629-1.286-1.715-2.43-2.258-3.772
	c-0.399-1.028-0.257-0.601-0.828-1.372c-0.344-0.485-0.429-0.686-0.772-1.172l-1.086-1.114c-0.628-0.686-0.828-1.571-1.571-2.286
	c-0.943-0.943-1.172-1.058-2.029-2.086c-1.371-1.687-3.058-3.087-4.4-4.801l-2.058-2.258c-0.058-0.029-0.114-0.086-0.144-0.115
	c-2.058-1.629-2.372-1.571-1.771-4.772c1.114-5.887-0.286-13.06-3.801-17.747c-0.8-1.057-1.886-2.457-3.172-3.144l-1.743-1.144
	c-2.087-1.343-5.545-1.6-8.002-1c-1.144,0.258-2.915,1.372-3.973,2.029c-0.657,0.4-1.343,0.914-1.771,1.429
	c-0.028,0.028-1.601,3.058-1.801-0.143c-0.343-5.974,0.457-11.774,0.943-17.69c0.114-1.371,0.429-1.771,0.485-2.887
	c0.086-1.143-0.028-2.114,0.144-3.314c0.229-1.857,0-4.173,0.429-6.059c0.371-1.629,0.6-4.173,0.657-6.116
	c0.2-4.43,0.114-8.745,0.229-13.289c0.6-0.343,1.058-0.743,1.629-1.029c2.114-1,3.058-1.687,4.687-3.572l1.2-1.429
	c0.429-0.629,1-1.257,1.2-1.686c1.715-3.372,1.486-8.488,0.086-11.917l-2.029-3.601c-1.429-1.943-1.914-1.286-2.972-2.572
	c-0.028-0.057-0.229-0.372-0.286-0.429c-1.857-2.315-7.63-2.972-10.945-2.315c-3.172,0.601-5.63,2.201-7.744,4.401l-2.001,2.629
	c-1.2,2.029-0.971,2.229-1.457,4.173c-0.229,0.972-0.485,0.771-0.571,2.086c-0.086,1.172,0.057,1.687,0.343,2.601
	c0.943,3.258,0.771,4.602,3.2,7.716l2.201,1.915c0.229,0.172,0.114,0.058,0.457,0.286c2.801,1.915,1.543,3.172,0.743,6.087
	l-1.086,4.43c-0.229,1.029-0.486,1.315-0.687,2.172l-1.485,6.773c-0.286,1.144-0.543,0.886-0.857,1.972
	c-0.229,0.771-0.229,1.486-0.457,2.258l-1.458,4.145c-0.257,0.914-0.543,1-0.886,1.943c-0.601,1.571-0.657,2.4-1.601,3.972
	c-1.143,1.886-2,3.829-3.344,5.602c-0.371,0.457-0.028,0.028-0.313,0.429c-0.515,0.771,0.114,0.114-0.629,0.801l-1.286,1.399
	c-0.515,0.743-0.801,0.886-1.4,1.486l-6.888,4.259c-1.8,0.914-1.8,0.971-4.572,1.057c-2.286,0.057-4.915-0.086-6.83-1.258
	c-4.486-2.715-5.544-4.344-8.659-8.002l-3.372-5.115c-1.114-1.715-2.086-3.601-2.743-5.486c-0.229-0.658-0.629-1.086-1.028-1.887
	c-0.629-1.258-1.43-2.372-1.915-3.602c-0.829-2.257-2.172-4.4-3.058-6.629c-0.887-2.201-2.229-4.544-2.943-6.717l-1.744-3.801
	c-0.285-0.6-0.171-0.543-0.343-1.114l-0.514-1c-0.572-1.314,0.8-2.687,1.314-3.801c1.314-2.887,1.286-7.087,0.514-9.917
	c-0.571-2.143-0.6-2.058-1.657-3.887c-1.314-2.2-3.258-3.086-5.059-4.629c-2.515-2.115-10.088-2.572-12.745-1.172
	c-5.287,2.858-5.944,3.258-8.259,8.659c-0.915,2.086-1.144,4.973-0.771,7.316c0.229,1.4,0.343,1.057,0.657,1.972
	c0.743,2.315-0.743,0.343,1.028,3.115l3.715,4.715c0.029,0.028,0.086,0.057,0.144,0.085c0.028,0.058,0.086,0.086,0.143,0.115
	l2.344,1.257C290.456,34.936,293.256,35.564,295.428,35.822L295.428,35.822z"/>
<path fill-rule="evenodd" clip-rule="evenodd" fill="#DC1D44" d="M292.942,8.529c-0.972,0.229-1.572,0.257-2.43,0.6
	c-1.686,0.657-4.144,2.486-5.201,4.115c-1.629,2.515-3.372,6.802-2.257,9.631c1.314,3.401,0.399,3.715,4.657,7.63
	c1.744,1.601,6.573,3.086,9.803,2.429c2.429-0.514,6.487-2.829,7.401-4.858c0.857-1.857,1.2,0.314,2.029-4.315
	c0.429-2.515,0.943-2.344,0.2-5.202c-0.258-0.915-0.172-1.686-0.4-2.543c-0.114-0.4-0.8-1.372-1.172-1.943
	C302.715,9.844,297.915,7.3,292.942,8.529L292.942,8.529z"/>
<path fill-rule="evenodd" clip-rule="evenodd" fill="#DC1D44" d="M373.074,2.528c-1.286,0.286-1.314,0.114-2.372,0.571
	c-0.801,0.314-1.314,0.6-2.058,1.086c-1.572,0.972-3.572,3.029-4.229,4.716l-0.972,2.2c-0.2,0.886-0.143,5.059-0.028,6.059
	c0.314,3.544,4.801,8.774,8.773,9.317c2.571,0.372,2.457,0.4,5.315,0.2c2.771-0.2,3.629-1.772,5.658-3.115
	c0.314-0.229,0.143-0.029,0.457-0.286c0.8-0.686,0.2-0.571,1.028-1.4c1.744-1.715,1.43-2.201,2.172-3.858
	c0.887-1.943,0.629-5.658-0.257-7.973c-0.457-1.115-1.686-2.658-2.486-3.572C381.333,3.385,377.36,1.613,373.074,2.528
	L373.074,2.528z"/>
<path fill-rule="evenodd" clip-rule="evenodd" fill="#3A3A39" d="M348.811,106.925c-0.257-1.429,0.172-2.687,0.371-3.772
	c0.4-2.258,0.172-1.543,1.029-3.172c0.571-1.058,1.286-2.115,2.372-2.772c0.686-0.4,0.2-0.028,0.571-0.371
	c0.914-0.801-0.457-0.629,1.343-0.829c0.286-0.028,1.629,0,1.973,0.028c1.2,0.115,2.229,1.115,3.058,2.001
	c0.485,0.571,0.171,0.114,0.515,0.714c1.143,2.059,0.657,0.687,1.285,2.858c0.4,1.314,0.801,0.399,0.772,3.372
	c0,1.229,0.085,2.973-0.058,4.145c-0.314,2.514-2.887,6.516-5.572,6.858c-1.172,0.143-1.943,0.085-2.858-0.372l-1.743-1.199
	c-0.4-0.372-0.8-0.572-1.143-1.059c-0.572-0.8-0.229-0.656-0.601-1.371c-0.571-1.086-0.543-0.029-0.8-1.43
	c-0.114-0.57-0.029-1.285-0.086-1.886C349.182,108.067,348.897,107.411,348.811,106.925L348.811,106.925z M350.897,117.813
	c-1.571,0.057-1.857-0.258-2.972-0.658c-2.001-0.742-3.83-3-4.572-3.686l-0.229-0.201c-0.028,0-0.085-0.027-0.114-0.057
	l-0.571-0.886c-0.657-1.429-1.743-3.772-2-5.229c-1.172-6.345-0.543-5.201-0.2-9.859c0.171-2.115,1.058-5.23,2.372-6.831
	l2.286-3.001c1.629-1.657,0.714-1.229,3.086-2.457c2.744-1.458,4.029-1.144,6.83-0.314c2.058,0.6,3.029,1.543,4.516,3.201
	l0.257,0.229c0.029,0.057,0.086,0.086,0.114,0.143c0.2,0.229,0.4,0.571,0.572,0.828c2.058,3.487,1.143,1.372,2.172,4.631
	c0.171,0.543,1.743,3.629,0.543,4.915c-0.486-0.229-0.771-1.086-1.372-1.858c-1.657-2.114-3.601-3.086-6.602-3.029
	c-3.801,0.086-4.087,1.373-6.201,3.43c-0.715,0.686-0.829,0.801-1.286,1.857c-2.458,5.744-1.743,9.717,0.571,15.318
	c0.715,1.744,2.058,2,2.601,2.973C350.897,117.642,350.811,117.327,350.897,117.813L350.897,117.813z M366.272,102.095
	c0-1.6-0.172-2.457-0.2-3.887c-0.028-1.199-1.086-4.887-1.715-6.401c-0.914-2.144-1.515-3.657-3-5.516
	c-0.657-0.829-4.259-3.344-4.973-3.572c-2.258-0.657-1.344-0.601-2.344-0.829c-0.828-0.171-4.315-0.171-5.258,0.172
	c-3.173,1.115-5.03,2.601-7.202,5.401c-1.657,2.144-3.458,5.888-3.687,8.831c-0.143,1.657-0.371,2.6-0.514,3.887
	c-0.314,2.771,0.914,7.545,1.857,10.346c0.285,0.914,1,2.114,1.485,2.914c1.172,1.829,0.771,1.486,2.344,3.229l1.543,1.372
	c1.972,1.657,3.516,2.172,6.287,2.258c1.258,0.057,2.829,0.172,3.973-0.2l2.972-1.144c2.058-1.143,3.486-2.658,4.802-4.629
	l1.771-3.516c0.229-0.828,0.371-0.972,0.629-1.543c0.514-1.144,0.343-2.144,0.628-3.516
	C366.043,103.952,366.3,105.782,366.272,102.095L366.272,102.095z"/>
<path fill-rule="evenodd" clip-rule="evenodd" fill="#FFFFFF" d="M350.897,117.813c-0.086-0.486,0-0.172-0.2-0.543
	c-0.543-0.973-1.886-1.229-2.601-2.973c-2.314-5.602-3.029-9.574-0.571-15.318c0.457-1.057,0.571-1.172,1.286-1.857
	c2.114-2.057,2.4-3.344,6.201-3.43c3.001-0.057,4.944,0.915,6.602,3.029c0.601,0.772,0.886,1.629,1.372,1.858
	c1.2-1.286-0.372-4.372-0.543-4.915c-1.029-3.259-0.114-1.144-2.172-4.631c-0.172-0.257-0.372-0.6-0.572-0.828
	c-0.028-0.057-0.085-0.086-0.114-0.143l-0.257-0.229c-1.486-1.658-2.458-2.602-4.516-3.201c-2.801-0.829-4.086-1.144-6.83,0.314
	c-2.372,1.229-1.457,0.8-3.086,2.457l-2.286,3.001c-1.314,1.601-2.201,4.716-2.372,6.831c-0.343,4.658-0.972,3.515,0.2,9.859
	c0.257,1.457,1.343,3.801,2,5.229l0.571,0.886c0.029,0.029,0.086,0.057,0.114,0.057l0.229,0.201
	c0.742,0.686,2.571,2.943,4.572,3.686C349.04,117.556,349.326,117.87,350.897,117.813L350.897,117.813z"/>
<path fill-rule="evenodd" clip-rule="evenodd" fill="#FFFFFF" d="M384.304,109.868c-0.143-1-0.171-0.857-0.686-1.572
	c-1.657-2.314-2.344-3.943-2.429-7.172c-0.258-7.717,0.313-5.202,0.942-7.773c0.687-2.688,1.829-3.63,3.887-5.002
	c1.743-1.172,1.515-1.572,4.315-1.743c2.887-0.2,3.086,0.229,4.801,1.257l1.972,1.658c0.429,0.371,0.086,0.057,0.344,0.343
	c0.085,0.086,0.257,0.372,0.313,0.429c0.4,0.429-0.028,0.229,0.601,0.486c0-2.144-1.258-5.973-2.344-7.488l-2.058-2.743
	c-0.6-0.629-0.742-0.429-1.429-1c-0.057-0.028-0.2-0.2-0.229-0.229c-0.686-0.543-0.714-0.342-1.343-0.656
	c-0.743-0.4,0.285-0.029-0.743-0.486c-0.058-0.028-0.114-0.057-0.2-0.057c-0.058-0.029-0.114-0.058-0.2-0.086
	c-0.285-0.086-0.371-0.058-0.6-0.115c-1.086-0.313-0.458-0.543-1.572-0.771c-1.4-0.285-1.601,0.344-3.857,0.943
	c-0.972,0.258-2.144,1.344-2.858,2.029c-0.485,0.457-0.714,0.857-1.086,1.314c-0.4,0.457-0.943,0.829-1.143,1.201l-2.772,6.943
	c-0.857,2.516-0.229,10.317,1.114,12.746l0.771,1.772C378.332,105.382,381.847,109.84,384.304,109.868L384.304,109.868z"/>
<path fill-rule="evenodd" clip-rule="evenodd" fill="#020202" d="M389.591,89.721c-0.601,0.2-1.172,0.114-1.571,0.399l-3.087,3.401
	c-0.4,0.629-0.686,2.429-1.086,3.286c-0.515,1.229-0.429,2.258-0.371,3.83c0.057,1.143,0.914,4.172,1.8,5.258
	c0.286,0.314,0.286,0.372,0.543,0.715c1.915,2.372,3.058,3.287,5.716,2.973c1.114-0.115,2.2-0.629,2.715-1.4
	c1.886-2.687,1.028-1.286,2.429-4.115c1.115-2.229,1.058-2.287,0.915-5.631c-0.086-2.2-1.144-5.4-2.572-6.858
	C392.992,89.521,391.02,89.292,389.591,89.721L389.591,89.721z"/>
<path fill-rule="evenodd" clip-rule="evenodd" fill="#020202" d="M348.811,106.925c0.086,0.486,0.371,1.143,0.429,1.743
	c0.057,0.601-0.028,1.315,0.086,1.886c0.257,1.4,0.229,0.344,0.8,1.43c0.371,0.715,0.028,0.571,0.601,1.371
	c0.343,0.486,0.742,0.687,1.143,1.059l1.743,1.199c0.915,0.457,1.687,0.515,2.858,0.372c2.686-0.343,5.258-4.345,5.572-6.858
	c0.143-1.172,0.058-2.916,0.058-4.145c0.028-2.973-0.372-2.058-0.772-3.372c-0.628-2.172-0.143-0.8-1.285-2.858
	c-0.344-0.6-0.029-0.143-0.515-0.714c-0.829-0.886-1.857-1.886-3.058-2.001c-0.344-0.028-1.687-0.057-1.973-0.028
	c-1.8,0.2-0.429,0.028-1.343,0.829c-0.371,0.343,0.114-0.029-0.571,0.371c-1.086,0.657-1.801,1.715-2.372,2.772
	c-0.857,1.629-0.629,0.914-1.029,3.172C348.983,104.238,348.554,105.496,348.811,106.925L348.811,106.925z"/>
<path fill-rule="evenodd" clip-rule="evenodd" fill="#9B9C9C" d="M384.304,109.868c-2.457-0.028-5.973-4.486-6.487-5.772
	l-0.771-1.772c-1.343-2.429-1.972-10.23-1.114-12.746l2.772-6.943c0.199-0.372,0.742-0.744,1.143-1.201
	c0.372-0.457,0.601-0.857,1.086-1.314c0.715-0.686,1.887-1.771,2.858-2.029c2.257-0.6,2.457-1.229,3.857-0.943
	c1.114,0.229,0.486,0.458,1.572,0.771c0.229,0.058,0.314,0.029,0.6,0.115c0.086,0.028,0.143,0.057,0.2,0.086
	c0.086,0,0.143,0.028,0.2,0.057c1.028,0.457,0,0.086,0.743,0.486c0.629,0.314,0.657,0.113,1.343,0.656
	c0.028,0.029,0.172,0.201,0.229,0.229c0.687,0.571,0.829,0.371,1.429,1l2.058,2.743c1.086,1.516,2.344,5.345,2.344,7.488
	c-0.629-0.258-0.2-0.058-0.601-0.486c-0.057-0.057-0.229-0.343-0.313-0.429c-0.258-0.286,0.085,0.028-0.344-0.343l-1.972-1.658
	c-1.715-1.028-1.914-1.457-4.801-1.257c-2.801,0.171-2.572,0.571-4.315,1.743c-2.058,1.372-3.2,2.314-3.887,5.002
	c-0.629,2.571-1.2,0.057-0.942,7.773c0.085,3.229,0.771,4.857,2.429,7.172C384.133,109.011,384.162,108.868,384.304,109.868
	L384.304,109.868z M386.305,110.868c0.028-0.971-2.687-2.114-3.687-5.572c-0.687-2.344-1.314-6.173-0.657-8.631l0.743-3.029
	c0.257-0.771,2.314-3.801,3.144-4.315c2.257-1.485,1.257-1.429,3.258-1.657c0.856-0.086,2.972-0.914,5.144,0.543
	c0.8,0.543,0.943,1.057,1.172,1.314c0.857,0.914,0.314-0.514,2.144,1.943l1.571,1.543c0.629-2.258,0.086-2.229-0.371-4.201
	c-0.343-1.543-1.086-3.973-1.887-5.4l-1.314-2.059c-5.544-7.145-13.66-5.629-17.232,0.715l-1.571,2.286l-1.458,5.659
	c-0.914,5.486-0.057,7.801,1.001,12.23c0.285,1.144,0.428,0.658,0.886,1.658C378.618,107.039,382.819,111.897,386.305,110.868
	L386.305,110.868z"/>
</svg>
