<?xml version="1.0" encoding="utf-8"?>
<!-- Generator: Adobe Illustrator 15.0.0, SVG Export Plug-In  -->
<!DOCTYPE svg PUBLIC "-//W3C//DTD SVG 1.1//EN" "http://www.w3.org/Graphics/SVG/1.1/DTD/svg11.dtd" [
	<!ENTITY ns_flows "http://ns.adobe.com/Flows/1.0/">
]>
<svg version="1.1"
	 xmlns="http://www.w3.org/2000/svg" xmlns:xlink="http://www.w3.org/1999/xlink" xmlns:a="http://ns.adobe.com/AdobeSVGViewerExtensions/3.0/"
	 x="0px" y="0px" width="379px" height="377px" viewBox="2.142 2.294 379 377" enable-background="new 2.142 2.294 379 377"
	 xml:space="preserve">
<defs>
</defs>
<path fill-rule="evenodd" clip-rule="evenodd" fill="#EAEC8C" d="M195.903,277.809c2.001-2.2,5.688-4.344,9.488-5.344l2.372,5.487
	l-14.203,8.83l0.114,18.119l16.231-9.06l0.286-17.032l4.858,0.143c3.001,1.172,1.886,0.657,1.915,4.716
	c0.028,1.743-0.229,4.229-0.258,6.115c1.687,1.801-0.371,0.629,2.687,0.972l9.002-4.887l2.515,4.944l-9.802,7.059l10.345,6.173
	l-3.286,5.602c-4.486-1.2-11.889-7.631-15.004-7.431l-15.231,8.745c1.687,1.886,1.144,1.314,3.344,2.658l11.745,6.572l15.575-7.944
	l2.229,5.772l-10.088,5.716c2.286,2.943,7.259,5.401,10.517,7.602l-3.229,5.173l-11.289-5.744l-0.114,12.346l-6.572,0.543
	l-0.229-17.519l-16.232-8.401l0.543,18.433l13.746,8.06l-3.087,5.602l-11.03-5.859l-0.2,12.203
	c-3.801,0.829-2.715,0.657-4.658,0.286l-1.915-0.629l-0.229-12.003l-7.63,3.915l-3.83,2.058l-2.286-5.572
	c2.887-2.772,9.974-6.573,13.774-8.288l-0.4-18.576l-15.631,9.745l-0.171,16.433l-6.459-0.714l-0.171-11.889l-11.717,5.401
	l-2.743-5.516l10.716-6.202c-6.43-4.772-5.487-1.857-10.574-7.658l2.915-4.201c4.887,1.114,11.774,7.516,15.746,6.802l14.175-8.603
	c-23.463-15.689-14.804-5.544-26.921-3.229l-3,1.887l-2.943-5.974l9.917-5.772l-10.231-6.345l3.258-5.658l11.402,5.458l-0.143-9.573
	c0.314-1.829,0.457-1.486,0.915-2.344l5.858-0.429l-0.029,17.204l16.232,8.545l-0.086-18.118l-14.26-8.431l2.258-5.43l12.031,5.601
	l0.257-12.945l6.573,0.399c0.086,2.144,0.028,3.802,0.028,5.859C193.531,278.352,193.76,276.494,195.903,277.809L195.903,277.809z
	 M276.778,217.194l2.801-4.744l11.46,5.344l0.257-12.288l6.373-0.114l0.4,12.574l11.603-5.63l2.172,6.001l-13.975,7.888
	l0.114,18.719c18.861-10.917,15.918-5.915,16.117-20.805l6.659-5.373l0.399,12.66l11.603-5.772l2.63,4.658l-10.088,7.059
	l10.088,7.116l-1.743,5.287l-16.775-7.745l-14.975,9.517l16.232,8.774l15.089-7.745l1.714,4.973c-3.286,4.315-4,2.286-8.344,5.916
	l-1.258,1.314l9.573,5.858l-2.229,5.744l-11.66-5.458l-0.457,12.574l-6.401-0.515l-0.372-16.633l-16.146-8.745l0.257,18.262
	l14.317,7.917l-2.372,5.858l-12.288-5.173l-0.144,12.374l-6.63-0.057l-0.028-12.346l-12.146,5.229l-2.086-4.915l14.289-9.06v-18.147
	l-16.146,9.06l-0.572,16.832l-6.229-0.171l-0.571-12.546l-11.203,5.858l-2.686-4.944l10.03-7.373l-10.174-6.858l3.115-4.773
	c4.63,0.943,12.26,7.431,15.003,7.316l15.518-8.23c-2.571-3.63-11.431-7.573-15.374-9.745l-16.09,7.431l-1.886-4.973
	c5.315-4.23,5.83-2.458,10.23-7.459l-10.03-5.659l2.886-5.572l11.288,5.315l0.372-12.26l6.229-0.058l0.2,16.861l16.347,9.202
	l-0.229-18.805C287.723,224.824,279.35,220.424,276.778,217.194L276.778,217.194z M107.712,261.233l17.261-8.459l2,4.772
	c-2.086,2.572-4.772,3.486-9.488,7.059c1.972,2.058,2.229,1.829,4.63,3.201l5.144,3.858l-1.715,4.344
	c-4.944-0.2-8.23-3.544-12.917-5.23l-0.086,12.546l-5.487-0.371l-1.086-16.347l-16.175-9.117l0.115,18.205l14.174,9.116
	l-3.144,5.115l-10.945-5.915l-0.457,12.574l-6.259-0.457l-0.2-11.889l-11.974,5.373l-2.458-4.858
	c3.344-3.572,10.146-6.459,14.432-8.688l0.229-18.861l-16.632,9.402l-0.429,16.689l-6.087-0.229l-0.486-12.175l-12.088,5.202
	l-1.972-4.459l10.23-6.716c-2.029-2.543-6.659-5.001-10.202-7.373l3.229-5.516l13.917,8.373l16.232-8.888l-15.204-9.573
	l-15.46,7.802l-2.886-5.688l10.059-6.688l-10.173-7.173l3.515-4.973l6.601,4.001c1.943,0.657,2.972,1.229,4.772,2.001L60.13,218.88
	l6.259-0.229l0.257,17.176l16.518,8.917l-0.114-18.805l-14.317-8.745l2.972-5.03l11.088,5.944l0.429-12.688l6.544-0.114l0.2,12.917
	l11.174-5.858l3.172,4.744l-14.203,9.174l-0.286,18.576l16.118-8.488l0.686-17.519l5.858-0.114l0.457,12.632l11.174-5.716
	c2.8,3.744,2.286,2.486,3.058,5.772L117,237.027c6.316,6.545,5.858,2.973,10.031,7.402l-2.429,5.087l-15.404-7.573l-11.888,6.716
	c-0.143,0.057-1.743,1.229-1.829,1.286c-1.429,1.257-0.514,0.371-1.629,1.829l7.859,4.172
	C109.97,260.434,107.598,259.119,107.712,261.233L107.712,261.233z M153.666,209.106c-0.8,3.058-0.4,0.886-0.886,3.887l12.889-6.202
	l2,14.146l1.171-15.832c5.116-3.258,14.917-10.432,20.461-11.432l-0.028,22.52c-5.201,4.43-9.602,5.688-13.346,9.089l2.629,1.371
	l-2.801,2.458l-3.257-4.63l14.318-9.288l0.057-17.861l-15.946,8.745l-0.2,17.118l-6.201,0.086l-0.515-12.374l-11.459,4.658
	l-2.972-4.944L153.666,209.106z M189.073,155.15l0.058,5.858l-12.975-6.059c4.43,6.344,6.259,3.944,12.26,9.259l0.601,23.92
	l-20.576-10.717l-0.771-16.89c-2.201,9.06-1.029,9.345-2.229,14.032l-9.574-5.116c-5.144-2.058-2.629-0.143-3.458,0.372l11.374,6.63
	c-7.316,8.859-11.002,4.887-10.774,10.088l13.66-7.259l18.291,9.488c2.657,2.029,0.656,0.143,1.8,2.229
	c-21.576,14.404-16.032,12.546-34.122,5.059c3.429,3.801,5.572,3.63,9.03,5.944c2.601,1.743,0.915,0.571,2.115,2.115l-10.116,5.001
	c2.029-3.172,3.172-1.857,6.144-5.001c-4.058-2.83-8.545-5.03-10.145-7.06l2.372-4.4l15.632,7.459l14.946-8.889
	c-3.887-3.286-10.631-7.602-14.946-9.431l-15.718,6.859l-2.172-3.658l9.802-7.088c-3.229-3.486-1.458-2.029-5.03-3.972
	c-1.8-0.972-3.687-2.115-4.973-2.858l2.601-5.773l11.746,6.116l0.2-12.975l5.916-0.257l0.8,16.689l15.747,9.717l0.171-18.947
	l-13.975-8.917l2.058-4.801l10.975,5.401l0.885-1.257l0.314-11.089l6.401,12.432l12.061-5.83l2.743,6.087l-14.574,7.974
	l-0.086,18.919l16.117-8.917l0.4-17.376l6.716,12.689l11.146-5.973l3.2,4.801c-5.458,4.83-8.173,5.63-10.174,8.316l10.317,5.544
	l-3.115,5.83l-15.775-7.116c-2.771,0.514-12.717,7.116-14.46,8.63l15.117,8.974l14.976-7.916l3.457,4.801l-10.202,7.26l7.831,5.029
	c1.743,1.286,1.171,0.857,2.2,2.029l-2.743,5.201l-11.346-5.858l-0.543,12.203l-6.401,0.6l-0.372-17.404l-16.231-8.859l0.028,18.147
	l14.289,9.06l-3.029,5.059l-11.174-5.744l-0.314,12.432c-3.601,0.229-3.858,0.543-6.087-0.4l-0.372-11.746l-4.601,1.629l-0.4-1.943
	c2.087-1.857,4.229-2.571,6.772-3.229l1.058,13.889c3.287-11.117,0.687-5.916,2.144-13.718l13.003,5.916
	c-5.544-4.772-6.201-5.773-13.174-9.088l-0.286-23.577l20.204,10.603l0.915,16.461l2.086-13.832l13.231,6.059
	c-4.486-6.516-4.858-2.743-10.945-8.916c5.887-5.059,6.944-4.173,9.145-6.03c2.63-2.2,1.086,0.4,1.687-2.715l-17.061,6.115
	c-3.944-2-14.804-7.83-16.947-10.488c21.948-15.432,17.404-12.517,33.836-4.486l-10.859-10.174l11.174-7.773l-6.973,3.286
	c-8.03,4.258-4.687,2.515-5.802,1.744c-0.371-3.029-0.6-10.803-2.2-13.032c-1.857,6.116-0.4,8.659-1.028,16.575l-20.319,10.832
	l-0.343-23.177c4.602-2.887,12.603-6.745,13.231-9.631l-13.146,5.772l-1.572-13.86L189.073,155.15z M290.838,164.067l-11.26,5.516
	l-3.058-4.801l14.346-8.802l-0.028-18.976l-16.261,9.631l-0.2,16.519l-6.772-12.518l-11.231,5.43l-2.887-5.401
	c4.087-2.658,8.174-4.601,9.945-7.23c-4.258-2.286-8.145-3.715-10.088-6.888l2.001-4.401l15.146,7.716l12.717-6.773l3.259-2.572
	c-26.492-14.861-11.774-6.487-30.407-1.229l-3.172-4.629l10.345-7.259l-9.944-7.059l2.257-5.001l11.774,5.716l0.257-12.603
	l6.63-0.257l0.2,17.404l15.946,8.688l0.372-17.976l-14.117-10.088l2.058-4.03l12.002,5.315l0.314-11.946
	c0.286-0.114,0.657-0.229,0.886-0.286c7.517-1.543-2.972-0.143,2.744-0.458c1.6-0.085,1.485,0.115,2.914,0.343l-0.057,12.346
	l11.202-5.744l3.258,4.344l-14.089,10.203l-0.199,17.89l16.231-8.688l0.114-17.147l6.545-0.057l0.257,12.432l12.06-5.23l2.201,4.83
	l-10.117,6.773c8.603,5.63,9.06,4.172,10.26,8.802l-2.058,3.029c-20.891-8.602-13.26-9.231-31.235,1.372l15.175,8.974
	c3.972,0.343,10.002-6.659,16.146-7.03l2.028,4.229l-9.944,7.116c2.8,2.886,1.571,2,4.915,3.801
	c2.743,1.486,3.515,1.343,4.944,4.258l-2.087,4.258l-12.116-5.344l-0.258,12.689l-6.772-4.401c-0.229-4.001,0.2-8.087-0.144-12.231
	l-15.688-9.631l-0.515,18.919l14.346,7.831l-2.857,5.973l-11.146-5.687l-0.314,12.603l-6.544,0.086L290.838,164.067z
	 M90.395,105.338l0.114,19.119l15.917-9.66l-0.171-16.433l6.401,0.143l0.086,12.289l12.203-5.173l1.972,4.63l-9.259,6.602
	c-0.085-0.171-0.314,0.343-0.457,0.543l9.859,7.059l-2.943,4.629l-15.546-7.202c-2.687,0.486-13.203,7.259-14.661,8.631
	c20.033,16.147,19.947,4.916,30.407,1.572l3.001,5.287l-10.774,6.516l10.459,6.602l-2.201,5.487l-11.86-5.716l-0.314,12.689
	l-6.43,0.114l0.029-16.433l-16.604-9.66l0.171,18.862l14.146,8.945l-2.486,4.687l-11.346-5.715l-0.372,12.66l-6.458,0.372
	l-0.372-12.774l-11.574,6.03l-3.086-6.544l14.632-7.773l0.143-19.004l-16.175,8.716c-0.257,18.947,1.143,18.547-6.373,17.662
	l-0.743-12.832l-11.888,5.316l-2.401-4.916l8.773-5.83l-8.659-7.002l2.086-6.202l15.975,7.602
	c2.543-0.171,12.774-6.802,15.032-8.716l-15.089-8.802c-3.887-0.372-10.317,6.373-15.947,7.087l-2.286-5.887l10.431-5.458
	l-10.202-7.116l1.943-5.23l11.946,5.887c0.2-3.373,0-10.231,1.343-13.089l5.059,0.085l0.972,17.547l15.946,8.659l0.229-17.89
	L68.646,96.222l2.029-4.201L82.85,97.25l0.314-12.574l6.487,12.832l11.488-5.458l3,5.001L90.395,105.338z M188.844,24.833
	l4.572,0.085l0.172,12.232l12.317-5.458l2.058,5.058l-14.433,8.631l-0.057,18.862l16.175-9.345
	c0.229-19.176-1.114-18.319,6.858-16.576l0.258,12.289l11.573-5.688l2.915,4.83l-10.116,7.145c5.029,4.887,6.63,3.372,10.031,7.059
	l-2.801,5.058l-15.347-7.516l-15.489,9.802l15.518,7.631c3.802,0.028,9.945-6.001,15.118-6.945l3.029,4.916l-10.603,6.802
	l10.374,7.487l-2.572,4.458l-11.545-5.344l-0.486,12.689l-5.973-0.029l-0.715-17.09l-16.203-8.945l0.057,18.29l14.203,9.06
	l-2.515,4.801l-11.603-5.715l-0.543,11.031c-1.771,1.857-0.571,2.115-5.858,1.657l-0.601-12.574l-10.888,5.544l-3.201-4.572
	l13.833-9.231l0.742-18.405l-16.604,9.002c0,4.03,0.457,13.403-0.829,16.69l-5.03,0.372l-0.857-12.946l-12.117,5.201l-2.315-5.087
	l10.517-5.573c-3.543-3.858-1.715-2.372-5.373-4.287c-2.144-1.086-2.486-1.286-4.744-3.115l2.801-5.058
	c19.062,8.974,12.374,9.402,26.978,0.743c3.057-1.829,1.742-0.743,3.343-2.915c-25.491-13.718-11.717-7.345-30.321-1.144
	l-2.915-4.601c4.487-2.972,7.888-4.458,10.345-7.773l-10.202-5.544c1.772-5.83,1.715-4.144,2.772-5.344l11.231,5.602
	c0.4-13.718-0.686-13.346,6.516-12.975l0.458,16.833c5.687,3.487,10.145,6.487,16.318,9.202l-0.086-18.29l-14.003-9.06l2.143-5.23
	l11.975,5.916L188.844,24.833z M128.517,368.603c12.631,2.486,17.575,5.944,37.18,8.631c0.686,0.086,2.429,0.257,2.972,0.4
	c4.115,1,1.572,0.343,2.887,1.286c13.46-2.087,38.236,4.486,79.246-10.031c39.208-13.86,67.729-36.152,90.991-67.245
	c2.4-3.229,7.459-10.174,9.401-13.804c11.488-21.605,19.462-38.838,24.463-67.188c16.832-95.481-47.839-192.991-144.688-213.938
	C166.297-7.261,101.854,12.858,61.531,53.611c-13.317,13.46-8.573,7.659-21.69,23.634c-12.488,15.204-23.319,38.496-30.35,61.301
	c-22.005,71.39,7.459,154.781,61.014,196.991C85.564,347.426,106.77,361.572,128.517,368.603L128.517,368.603z"/>
<path fill-rule="evenodd" clip-rule="evenodd" fill="#2B2C2B" d="M125.974,369.203l2.543-0.601
	c-21.748-7.03-42.953-21.177-58.013-33.065C16.95,293.327-12.514,209.936,9.491,138.546c7.03-22.805,17.861-46.097,30.35-61.301
	c13.117-15.975,8.374-10.174,21.69-23.634C101.854,12.858,166.297-7.261,230.968,6.714
	c96.85,20.948,161.521,118.458,144.688,213.938c-5.001,28.35-12.975,45.582-24.463,67.188c-1.942,3.63-7.001,10.574-9.401,13.804
	c-23.263,31.093-51.783,53.385-90.991,67.245c-41.01,14.518-65.786,7.944-79.246,10.031l-2.058,0.6
	c3.601-0.314,0.085-0.2,1.543,1.029c32.836,0.229,47.182,1.743,80.218-9.231c41.466-13.774,80.104-44.582,101.851-81.591
	c45.21-76.962,33.579-165.813-25.034-230.972c-22.233-24.72-59.498-45.354-94.249-54.042c-26.549-6.63-57.784-5.802-83.476-0.4
	C13.206,33.12-49.551,199.476,45.642,313.989c10.145,12.175,22.862,23.892,36.008,32.608c5.001,3.344,8.459,5.516,13.575,8.602
	C100.939,358.686,118.972,368.717,125.974,369.203L125.974,369.203z"/>
<path fill-rule="evenodd" clip-rule="evenodd" fill="#2B2C2B" d="M267.491,143.604l-9.231-5.944c-2.286-2-0.399,0.629-2-2.458
	l18.489,5.687c2.944-1.601,5.401-3.115,8.316-4.801c1.4-0.8,3.544-1.972,4.487-2.601l3.144-2.972l-19.176-11.574l-14.632,7.116
	c2-3.629,0.857-2.343,4.658-4.401c2.771-1.486,4.144-2.086,5.973-4.258l-8.888-6.316c-2.658-2.2-1,0.172-2.172-2.772l13.288,6.087
	l0.429-13.689l2.344,15.69l20.547,11.574l-0.057-23.863l-13.346-7.716c7.315-0.743,5.544,3.515,13.117,4.458l0.543-13.632
	c4.229,6.916,0.429,7.202,2.286,12.746c5.287,1.343,5.63-3.287,13.203-4.715l-13.489,8.459l-0.143,24.149l20.861-11.46l0.429-15.833
	c2.801,8.259,1.715,4.401,2.001,13.946l13.088-6.202c-4.601,7.087-7.373,3.801-10.773,9.088c6.345,4.373,10.46,5.602,10.803,8.659
	c-10.402-5.258-12.518-8.374-16.918-6.03c-3.858,2.029-14.632,7.831-16.775,10.488l16.347,10.86
	c5.744,2.772,10.573-4.315,17.918-6.116l-11.202,9.345l11.116,8.288l-13.117-6.087l-0.743,13.975l-1.886-16.633l-20.633-10.631
	l-0.286,23.206c2.972,1.857,12.06,6.83,13.432,9.059l-13.518-5.487l-0.057,12.26c-0.372,2.972,0.371,0.4-0.572,1.915l-1.429-14.175
	l-13.432,6.059c3.001-4.172,1.458-2.687,5.516-4.83c2.915-1.572,4.344-2.458,7.202-3.944l0.657-24.006l-21.119,10.546l-0.114,16.604
	l-2.743-13.804l-12.546,6.23L267.491,143.604z M290.981,85.562l-0.314,11.946l-12.002-5.315l-2.058,4.03l14.117,10.088
	l-0.372,17.976l-15.946-8.688l-0.2-17.404l-6.63,0.257l-0.257,12.603l-11.774-5.716l-2.257,5.001l9.944,7.059l-10.345,7.259
	l3.172,4.629c18.633-5.258,3.915-13.632,30.407,1.229l-3.259,2.572l-12.717,6.773l-15.146-7.716l-2.001,4.401
	c1.943,3.172,5.83,4.602,10.088,6.888c-1.771,2.629-5.858,4.572-9.945,7.23l2.887,5.401l11.231-5.43l6.772,12.518l0.2-16.519
	l16.261-9.631l0.028,18.976l-14.346,8.802l3.058,4.801l11.26-5.516l0.229,12.66l6.544-0.086l0.314-12.603l11.146,5.687l2.857-5.973
	l-14.346-7.831l0.515-18.919l15.688,9.631c0.344,4.144-0.085,8.23,0.144,12.231l6.772,4.401l0.258-12.689l12.116,5.344l2.087-4.258
	c-1.43-2.915-2.201-2.772-4.944-4.258c-3.344-1.8-2.115-0.915-4.915-3.801l9.944-7.116l-2.028-4.229
	c-6.145,0.372-12.175,7.374-16.146,7.03l-15.175-8.974c17.976-10.603,10.345-9.974,31.235-1.372l2.058-3.029
	c-1.2-4.63-1.657-3.172-10.26-8.802l10.117-6.773l-2.201-4.83l-12.06,5.23l-0.257-12.432l-6.545,0.057l-0.114,17.147L297.64,124.2
	l0.199-17.89l14.089-10.203l-3.258-4.344l-11.202,5.744l0.057-12.346c-1.429-0.229-1.314-0.429-2.914-0.343
	c-5.716,0.314,4.772-1.086-2.744,0.458C291.638,85.333,291.267,85.447,290.981,85.562L290.981,85.562z"/>
<path fill-rule="evenodd" clip-rule="evenodd" fill="#2B2C2B" d="M318.616,267.35c0.058,3.486,1.486,12.517-2.144,13.803
	l-0.8-16.661c-4.544-2-15.746-9.917-19.519-10.431l-0.571,23.748l11.145,6.03c2.658,2.201,1.172-0.371,1.973,2.915l-6.631-3.43
	c-8.115-4.515-5.544-2.114-6.401-1.6c-0.114,3.915,0.601,10.002-0.972,13.003c-3.343-2.029-1.543-10.031-2.086-14.089
	c-5.601,1.2-7.059,5.058-12.945,6.173l13.203-8.945l-0.4-24.034l-19.947,10.773l-0.429,16.062c-3.115-7.03-2-3.744-2.172-13.432
	l-13.231,6.144c2.258-3.629,1.2-2.629,4.915-4.544c2.772-1.429,4.029-2.058,6.03-4.229c-6.802-6.83-9.888-4.601-11.117-8.859
	l17.861,5.802c3.544-1.572,13.46-7.631,16.203-10.06l-16.261-10.975c-6.801-3.2-10.459,4.973-17.718,5.888
	c5.544-4.602,9.745-6.401,10.974-9.031l-11.088-8.03l13.003,5.145l0.972-11.061c0.543-2.229,0.257-1.229,1.058-2.286l1.257,16.262
	l20.233,10.402l0.343-22.291l-13.26-9.803l13.26,5.259c0-3.572-0.6-10.26,1.343-13.232l0.915,13.86l12.975-6.229
	c-3.029,4.915-5.516,5.687-13.089,9.259l-0.144,23.578l16.747-8.46c7.373-4.4,2.801-7.401,4.772-16.347l1.771,11.632l12.889-6.145
	l-10.402,8.487c6.23,4.744,9.688,5.659,11.317,9.346l-14.575-7.517l-19.89,12.289l16.089,9.945
	c7.059,3.658,10.316-4.487,17.861-5.772c-5.373,6.858-8.145,3.743-10.974,8.944l10.659,8.688L318.616,267.35z M297.64,257.604
	l16.146,8.745l0.372,16.633l6.401,0.515l0.457-12.574l11.66,5.458l2.229-5.744l-9.573-5.858l1.258-1.314
	c4.344-3.63,5.058-1.601,8.344-5.916l-1.714-4.973l-15.089,7.745l-16.232-8.774l14.975-9.517l16.775,7.745l1.743-5.287
	l-10.088-7.116l10.088-7.059l-2.63-4.658l-11.603,5.772l-0.399-12.66l-6.659,5.373c-0.199,14.89,2.744,9.888-16.117,20.805
	l-0.114-18.719l13.975-7.888l-2.172-6.001l-11.603,5.63l-0.4-12.574l-6.373,0.114l-0.257,12.288l-11.46-5.344l-2.801,4.744
	c2.572,3.229,10.945,7.63,14.061,8.802l0.229,18.805l-16.347-9.202l-0.2-16.861l-6.229,0.058l-0.372,12.26l-11.288-5.315
	l-2.886,5.572l10.03,5.659c-4.4,5.001-4.915,3.229-10.23,7.459l1.886,4.973l16.09-7.431c3.943,2.172,12.803,6.115,15.374,9.745
	l-15.518,8.23c-2.743,0.114-10.373-6.373-15.003-7.316l-3.115,4.773l10.174,6.858l-10.03,7.373l2.686,4.944l11.203-5.858
	l0.571,12.546l6.229,0.171l0.572-16.832l16.146-9.06v18.147l-14.289,9.06l2.086,4.915l12.146-5.229l0.028,12.346l6.63,0.057
	l0.144-12.374l12.288,5.173l2.372-5.858l-14.317-7.917L297.64,257.604z"/>
<path fill-rule="evenodd" clip-rule="evenodd" fill="#2B2C2B" d="M90.509,124.457c-0.915-1.086,0.085,0.486-1.429-1.972
	c-0.114-0.2-0.514-1.229-0.628-1.515l0.571,6.259l19.09-10.574l1.086-16.375l1.915,13.889l13.031-5.83
	c-4.401,4.058-5.458,5.687-11.26,7.544c10.374,8.831,10.945,6.059,11.174,10.488l-17.318-6.487
	c-6.23,3.172-10.202,6.802-16.947,9.288c5.001,5.858,2.058,3.058,7.974,6.688c20.662,12.631,12.374,1.143,26.577-0.6l-11.203,8.345
	l11.26,9.66l-7.316-3.487c-7.659-4.373-4.572-2.772-5.916-1.886c-0.286,3.715,0.4,10.346-1.972,13.032l-0.914-16.689l-20.719-10.889
	l0.029,23.377l7.83,4.687c6.745,3.801,5.173,2.287,5.401,5.116l-13.146-6.173l-1.686,14.146l-0.886-14.004l-12.917,6.087
	c6.287-6.001,5.03-5.344,12.803-9.66l0.171-23.548l-20.576,11.231c-0.229,7.487,0.886,14.432-1.772,16.204l-1.086-14.032
	L48.5,152.835c3.115-4.03,5.944-5.859,11.374-7.802c-10.031-9.202-10.574-5.916-10.86-10.316l13.575,7.716l20.176-12.917
	c-25.691-14.689-15.718-11.803-33.665-3.429l10.631-9.974c-7.402-4.315-10.802-4.772-10.488-8.316l12.146,6.602l1-14.146
	c3.515,4.687,1.429,4.144,1.972,15.632l20.547,11.546l0.286-23.577c-4.115-2.172-11.603-5.087-13.546-9.06l13.088,6.03l1.257-14.261
	l1.486,13.346l13.631-5.059l-12.774,9.431c-0.057,5.229-0.8,12.203,0.8,16.661c0.229-4.687-2.257-12.575,1.258-15.604l13.746-8.288
	l-3-5.001l-11.488,5.458l-6.487-12.832L82.85,97.25l-12.174-5.229l-2.029,4.201l14.346,10.088l-0.229,17.89l-15.946-8.659
	l-0.972-17.547l-5.059-0.085c-1.343,2.858-1.143,9.716-1.343,13.089l-11.946-5.887l-1.943,5.23l10.202,7.116l-10.431,5.458
	l2.286,5.887c5.63-0.714,12.06-7.459,15.947-7.087l15.089,8.802c-2.258,1.915-12.488,8.545-15.032,8.716l-15.975-7.602l-2.086,6.202
	l8.659,7.002l-8.773,5.83l2.401,4.916l11.888-5.316l0.743,12.832c7.516,0.886,6.115,1.286,6.373-17.662l16.175-8.716l-0.143,19.004
	l-14.632,7.773l3.086,6.544l11.574-6.03l0.372,12.774l6.458-0.372l0.372-12.66l11.346,5.715l2.486-4.687l-14.146-8.945
	l-0.171-18.862l16.604,9.66l-0.029,16.433l6.43-0.114l0.314-12.689l11.86,5.716l2.201-5.487l-10.459-6.602l10.774-6.516
	l-3.001-5.287c-10.459,3.344-10.374,14.575-30.407-1.572c1.458-1.372,11.974-8.145,14.661-8.631l15.546,7.202l2.943-4.629
	l-9.859-7.059c0.143-0.2,0.372-0.714,0.457-0.543l9.259-6.602l-1.972-4.63l-12.203,5.173l-0.086-12.289l-6.401-0.143l0.171,16.433
	L90.509,124.457z"/>
<path fill-rule="evenodd" clip-rule="evenodd" fill="#63AFB8" d="M89.022,127.229c-2.857-1.972-1.8-1.057-1.771-5.744l-0.115-12.231
	c0.058-4.401-0.114-3.916,1.201-4.973l12.774-9.431l-13.631,5.059l-1.486-13.346l-1.257,14.261l-13.088-6.03
	c1.943,3.972,9.431,6.887,13.546,9.06l-0.286,23.577L64.36,115.883c-0.543-11.488,1.543-10.945-1.972-15.632l-1,14.146
	l-12.146-6.602c-0.314,3.543,3.086,4.001,10.488,8.316L49.1,126.086c17.947-8.374,7.973-11.26,33.665,3.429l-20.176,12.917
	l-13.575-7.716c0.286,4.401,0.829,1.114,10.86,10.316c-5.43,1.943-8.259,3.772-11.374,7.802l13.231-6.059l1.086,14.032
	c2.658-1.771,1.543-8.716,1.772-16.204l20.576-11.231l-0.171,23.548c-7.773,4.315-6.516,3.658-12.803,9.66l12.917-6.087
	l0.886,14.004l1.686-14.146l13.146,6.173c-0.229-2.829,1.343-1.314-5.401-5.116l-7.83-4.687l-0.029-23.377l20.719,10.889
	l0.914,16.689c2.372-2.686,1.686-9.316,1.972-13.032c1.343-0.886-1.743-2.486,5.916,1.886l7.316,3.487l-11.26-9.66l11.203-8.345
	c-14.203,1.743-5.916,13.231-26.577,0.6c-5.916-3.629-2.972-0.829-7.974-6.688c6.745-2.486,10.717-6.116,16.947-9.288l17.318,6.487
	c-0.229-4.43-0.8-1.657-11.174-10.488c5.801-1.857,6.859-3.486,11.26-7.544l-13.031,5.83l-1.915-13.889l-1.086,16.375
	L89.022,127.229z"/>
<path fill-rule="evenodd" clip-rule="evenodd" fill="#63AFB8" d="M188.958,40.779l-0.343,0.028c-3.657-1.2-3.429-1.372-6.573-3.372
	c-2.629-1.658-2.886-2-6.086-2.572c6.458,7.002,7.943,4.687,13.316,9.945l-0.086,22.777l-20.261-11.031l-1.257-16.347
	c-2.172,7.659-1.543,5.116-1.658,13.832l-13.346-5.201c6.03,6.202,6.802,3.201,10.859,8.059c-5.487,6.83-9.802,2.486-10.974,9.459
	l15.118-7.545c4.973,2.687,17.547,7.802,19.318,12.746l-19.233,10.46l-15.546-7.459c3.486,5.201,3.286,4.086,11.459,8.116
	c-9.145,8.516-9.859,5.887-11.088,9.517c4.486-1.715,10.431-4.744,13.346-5.344c0,3.944-0.6,10.174,0.743,13.803
	c3.201-5.887,1.258-5.373,1.858-15.518l20.604-11.774l-0.114,22.863l-7.431,4.915c-6.83,4.144-5.344,0.057-5.458,4.858l12.574-5.544
	l1.143,13.289c1.915-4.458,1.43-2.401,1.344-7.488c-0.058-3.915-0.972-4.573,1.686-5.858l11.518,5.916
	c-3.144-4.887-1.372-2.801-6.088-5.43c-9.145-5.145-6.744-2.115-7.059-27.664l20.634,10.888l0.229,13.118l0.914,3.344
	c2.801-5.83,1.114-3.001,1.172-3.344c0.058-0.257,0.172-2.601,0.172-2.943c0.057-2.258-0.029-4.887-0.114-7.145l13.774,5.316
	l-11.203-8.316l11.031-8.802c-26.892,8.517-11.774,6.602-34.15-3.858c26.834-20.691,18.747-10.231,34.236-5.602l-11.003-8.974
	c7.23-5.144,10.431-5.43,10.745-8.602l-13.26,5.23c0.058-3.658,1.029-10.088-1.4-12.946l-0.914,15.318l-20.69,11.66l-0.028-22.749
	c5.058-3.315,12.603-6.944,13.46-10.002l-12.803,5.859c-2.515-2.715-1.344-7.602-1.229-13.146
	C190.445,32.978,190.902,37.464,188.958,40.779L188.958,40.779z"/>
<path fill-rule="evenodd" clip-rule="evenodd" fill="#63AFB8" d="M60.188,234.455c-3.486-0.942-3.943-1.571-6.573-4.229
	l-4.487-1.743c3.715,5.858,4.772,3.201,10.717,8.888c-6.773,6.659-9.688,3.744-11.145,9.146l14.06-7.487
	c5.172,2.715,17.975,7.287,20.176,12.803c-23.834,13.546-15.889,13.203-33.922,3.087c5.43,5.772,9.488,7.888,10.688,9.688
	c-10.202,6.573-10.802,4.83-10.545,8.803l13.031-6.145c-0.057,11.088-1.4,12.46,1.629,13.774l0.686-16.689L84.85,253.86
	l0.458,22.834l-7.602,4.802c-7.23,4.286-5.23,1.942-5.687,5.115l13.203-6.088c-0.028,9.603-1.372,12.718,1.8,14.004l0.657-13.889
	l13.346,6.373c-5.344-7.431-4.772-3.229-13.26-10.317l-0.114-22.577l20.376,10.632l1.171,16.689l1.601-12.803l1.429-0.715
	l11.631,5.602l-10.745-8.917c5.373-6.716,9.63-3.801,10.945-8.974l-16.889,6.631c-1.115-1.943-13.689-7.831-16.975-10.774
	l19.004-12.231l15.346,7.63c-2.772-4.315-1.543-3.229-5.544-5.258c-5.458-2.772-4.515-1.887-5.744-4.259l10.774-8.83l-13.06,6.229
	l-0.771-13.632c-2.229,3.887-1.8,2.172-1.715,7.088c0.086,3.429,0.057,5.915-0.372,9.316l-19.747,10.945l-0.771-23.205
	c3.458-2.115,12.517-5.944,13.403-10.089l-13.26,6.173c-0.115-8.659,1.057-12.146-1.744-13.832l-0.943,14.032l-13.088-6.201
	c3.744,4.715,1.8,2.801,6.516,5.315c2.943,1.543,4.744,2.601,6.773,4.602l-0.114,22.834L69.476,239.8
	c-0.772-0.429-2.029-1.114-2.543-1.486c-3.258-2.2-2.429-1.687-2.486-11.089c-0.057-8.63-0.915-6.087-1.629-6.544
	C62.331,228.511,63.388,234.884,60.188,234.455L60.188,234.455z"/>
<path fill-rule="evenodd" clip-rule="evenodd" fill="#2B2C2B" d="M112.628,270.778l-0.4-2.857l-1.429,0.715l-1.601,12.803
	l-1.171-16.689l-20.376-10.632l0.114,22.577c8.488,7.088,7.916,2.887,13.26,10.317l-13.346-6.373l-0.657,13.889
	c-3.172-1.286-1.829-4.401-1.8-14.004l-13.203,6.088c0.457-3.173-1.543-0.829,5.687-5.115l7.602-4.802L84.85,253.86l-20.347,10.488
	l-0.686,16.689c-3.029-1.314-1.686-2.687-1.629-13.774l-13.031,6.145c-0.257-3.973,0.343-2.229,10.545-8.803
	c-1.2-1.8-5.258-3.915-10.688-9.688c18.033,10.116,10.088,10.459,33.922-3.087c-2.201-5.516-15.003-10.088-20.176-12.803
	l-14.06,7.487c1.457-5.401,4.372-2.486,11.145-9.146c-5.944-5.687-7.001-3.029-10.717-8.888l4.487,1.743l1.857-1l-6.601-4.001
	l-3.515,4.973l10.173,7.173l-10.059,6.688l2.886,5.688l15.46-7.802l15.204,9.573l-16.232,8.888l-13.917-8.373l-3.229,5.516
	c3.543,2.372,8.173,4.83,10.202,7.373l-10.23,6.716l1.972,4.459l12.088-5.202l0.486,12.175l6.087,0.229l0.429-16.689l16.632-9.402
	l-0.229,18.861c-4.287,2.229-11.088,5.116-14.432,8.688l2.458,4.858l11.974-5.373l0.2,11.889l6.259,0.457l0.457-12.574l10.945,5.915
	l3.144-5.115l-14.174-9.116l-0.115-18.205l16.175,9.117l1.086,16.347l5.487,0.371L112.628,270.778z"/>
<path fill-rule="evenodd" clip-rule="evenodd" fill="#2B2C2B" d="M188.616,40.808l0.343-0.028l1.887-14.146
	c1.743,2.915,0.514,7.345,1.2,14.032l12.803-5.859c-0.857,3.058-8.402,6.688-13.46,10.002l0.028,22.749l20.69-11.66l0.914-15.318
	c2.43,2.858,1.458,9.288,1.4,12.946l13.26-5.23c-0.314,3.172-3.515,3.458-10.745,8.602l11.003,8.974
	c-15.489-4.63-7.402-15.089-34.236,5.602c22.376,10.459,7.259,12.375,34.15,3.858l-11.031,8.802l11.203,8.316l-13.774-5.316
	c0.085,2.258,0.171,4.887,0.114,7.145c0,0.343-0.114,2.686-0.172,2.943c-0.058,0.343,1.629-2.486-1.172,3.344l-0.914-3.344
	l-0.229-13.118l-20.634-10.888c0.314,25.549-2.086,22.52,7.059,27.664c4.716,2.629,2.944,0.543,6.088,5.43l-11.518-5.916
	c0,10.202,1.144,9.23-2.229,14.604l2.429-0.6l0.543-11.031l11.603,5.715l2.515-4.801l-14.203-9.06l-0.057-18.29l16.203,8.945
	l0.715,17.09l5.973,0.029l0.486-12.689l11.545,5.344l2.572-4.458l-10.374-7.487l10.603-6.802l-3.029-4.916
	c-5.173,0.943-11.316,6.973-15.118,6.945l-15.518-7.631l15.489-9.802l15.347,7.516l2.801-5.058
	c-3.401-3.687-5.002-2.172-10.031-7.059l10.116-7.145l-2.915-4.83l-11.573,5.688l-0.258-12.289
	c-7.973-1.743-6.63-2.601-6.858,16.576l-16.175,9.345l0.057-18.862l14.433-8.631l-2.058-5.058l-12.317,5.458l-0.172-12.232
	l-4.572-0.085L188.616,40.808z"/>
<path fill-rule="evenodd" clip-rule="evenodd" fill="#63AFB8" d="M188.73,280.523c-1.657,1.344,2.115,1.001-2.2,1.144
	c-2.058-0.571-5.858-5.315-10.717-6.001l13.203,8.888l0.171,23.634l-20.261-10.517l-2.258-16.575l-1.486,8.974
	c1.058,1.486,0.286-0.629,0.886,1.829c0.2,0.828,0.029,1.515-0.028,2.314l-13.317-4.43c2.886,2.486,7.888,5.315,11.317,6.545
	c-2.572,4.201-1.658,3.687-5.43,5.63c-2.401,1.257-3.029,1.485-5.487,2.972l0.972,1.743c2.543-1.657,4.744-2.857,7.687-4.658
	c7.773-4.744,10.288-0.457,24.863,8.945c-1.172,1.743-16.318,10.717-16.461,10.717l-17.489-5.658c1.057,2.801-0.515,0.571,2.2,2.601
	c4.058,3.029,2.229,0.972,8.974,6.802l-11.174,6.716c0.514,0.343-1.029,2.601,5.715-1.144l7.688-3.772
	c0.057,9.06-0.714,5.631,1.572,13.832l0.657-16.518l20.833-10.718l0.172,24.035l-13.604,7.401c1.687,1.515-2.8,1.515,3.144,0.629
	l9.603-5.201c1.943,7.716-1.315,2.115,2.886,13.632l0.086-14.289l13.574,6.487c-2.172-4.201-9.459-6.859-13.517-9.316l0.086-23.292
	l20.519,10.917l0.2,16.147c2.515-0.772,1.314,0.657,2.086-1.829l0.314-11.403l13.432,5.602c-1.115-3.001-5.116-4.344-11.146-9.26
	l10.573-8.573c-6.173,1.543-11.802,9.031-17.032,6.145c-6.229-3.401-11.459-6.201-16.689-10.688
	c3.572-3.943,10.945-7.173,15.518-9.659c5.716-3.087,7.088-0.344,18.719,5.087c-1.829-3.516-4.829-4.201-11.031-8.517
	c1.687-2.715,2.744-2.629,5.858-4.401c3.572-2,2.772-1.429,4.887-4.601l-6.801,2.657c-2.144,2.458-2.915,3.572-6.573,3.001
	l-0.343-11.774c-1.086-1.857,2.372-1.743-2.601-1.343l0.629,15.432l-20.604,11.546l-0.114-24.092
	c3.715-1.857,12.06-4.858,13.46-8.688c-4.973,2.172-5.887,3.229-9.316,3.572l-0.943,1c-1.2,1.687,2.086,1.2-2.715,1.915
	l-1.086-14.004C187.787,276.494,191.188,276.123,188.73,280.523L188.73,280.523z"/>
<path fill-rule="evenodd" clip-rule="evenodd" fill="#63AFB8" d="M292.782,100.851c-7.573-0.943-5.802-5.201-13.117-4.458
	l13.346,7.716l0.057,23.863l-20.547-11.574l-2.344-15.69l-0.429,13.689l-13.288-6.087c1.172,2.944-0.486,0.572,2.172,2.772
	l8.888,6.316c-1.829,2.172-3.201,2.772-5.973,4.258c-3.801,2.058-2.658,0.771-4.658,4.401l14.632-7.116l19.176,11.574l-3.144,2.972
	c-0.943,0.628-3.087,1.8-4.487,2.601c-2.915,1.686-5.372,3.201-8.316,4.801l-18.489-5.687c1.601,3.086-0.286,0.457,2,2.458
	l9.231,5.944l-10.803,9.545l12.546-6.23l2.743,13.804l0.114-16.604l21.119-10.546l-0.657,24.006
	c-2.858,1.486-4.287,2.372-7.202,3.944c-4.058,2.143-2.515,0.657-5.516,4.83l13.432-6.059l1.429,14.175
	c0.943-1.515,0.2,1.058,0.572-1.915l0.057-12.26l13.518,5.487c-1.372-2.229-10.46-7.202-13.432-9.059l0.286-23.206l20.633,10.631
	l1.886,16.633l0.743-13.975l13.117,6.087l-11.116-8.288l11.202-9.345c-7.345,1.8-12.174,8.888-17.918,6.116l-16.347-10.86
	c2.144-2.658,12.917-8.459,16.775-10.488c4.4-2.344,6.516,0.771,16.918,6.03c-0.343-3.058-4.458-4.287-10.803-8.659
	c3.4-5.287,6.173-2,10.773-9.088l-13.088,6.202c-0.286-9.545,0.8-5.687-2.001-13.946l-0.429,15.833l-20.861,11.46l0.143-24.149
	l13.489-8.459c-7.573,1.429-7.916,6.059-13.203,4.715c-1.857-5.544,1.943-5.83-2.286-12.746L292.782,100.851z"/>
<path fill-rule="evenodd" clip-rule="evenodd" fill="#4C4C4C" d="M193.074,114.397l-2.429,0.6c3.372-5.373,2.229-4.401,2.229-14.604
	c-2.657,1.286-1.743,1.943-1.686,5.858c0.086,5.087,0.571,3.029-1.344,7.488l-1.143-13.289l-12.574,5.544
	c0.114-4.801-1.372-0.714,5.458-4.858l7.431-4.915l0.114-22.863l-20.604,11.774c-0.6,10.146,1.343,9.631-1.858,15.518
	c-1.343-3.629-0.743-9.859-0.743-13.803c-2.915,0.6-8.859,3.629-13.346,5.344c1.229-3.629,1.943-1,11.088-9.517
	c-8.173-4.03-7.973-2.915-11.459-8.116l15.546,7.459l19.233-10.46c-1.771-4.944-14.346-10.06-19.318-12.746l-15.118,7.545
	c1.172-6.973,5.487-2.629,10.974-9.459c-4.058-4.858-4.83-1.857-10.859-8.059l13.346,5.201c0.114-8.716-0.514-6.173,1.658-13.832
	l1.257,16.347l20.261,11.031l0.086-22.777c-5.373-5.258-6.858-2.943-13.316-9.945c3.2,0.572,3.457,0.915,6.086,2.572
	c3.145,2,2.916,2.172,6.573,3.372l0.229-15.975l-1.743,12.603l-11.975-5.916l-2.143,5.23l14.003,9.06l0.086,18.29
	c-6.173-2.715-10.631-5.715-16.318-9.202l-0.458-16.833c-7.201-0.372-6.115-0.743-6.516,12.975l-11.231-5.602
	c-1.057,1.2-1-0.486-2.772,5.344l10.202,5.544c-2.458,3.315-5.858,4.801-10.345,7.773l2.915,4.601
	c18.604-6.201,4.83-12.574,30.321,1.144c-1.601,2.172-0.286,1.086-3.343,2.915c-14.604,8.66-7.917,8.231-26.978-0.743l-2.801,5.058
	c2.258,1.829,2.601,2.029,4.744,3.115c3.658,1.915,1.829,0.429,5.373,4.287l-10.517,5.573l2.315,5.087l12.117-5.201l0.857,12.946
	l5.03-0.372c1.286-3.287,0.829-12.66,0.829-16.69l16.604-9.002l-0.742,18.405l-13.833,9.231l3.201,4.572l10.888-5.544l0.601,12.574
	C192.502,116.512,191.302,116.255,193.074,114.397L193.074,114.397z"/>
<path fill-rule="evenodd" clip-rule="evenodd" fill="#63AFB8" d="M292.61,280.639c2.715,1.686,1.086,3.629,2.029,13.231
	c-0.172-4.001-0.571-9.031,1.028-12.146c0.857-0.515-1.714-2.915,6.401,1.6l6.631,3.43c-0.801-3.286,0.686-0.714-1.973-2.915
	l-11.145-6.03l0.571-23.748c3.772,0.514,14.975,8.431,19.519,10.431c2.2,1.372,0.8-1.601,1.629,3.087l0.057,12.546
	c0.429-4.802-0.6-9.002,1.258-12.774l13.003,5.944l-10.659-8.688c2.829-5.201,5.601-2.086,10.974-8.944
	c-7.545,1.285-10.803,9.431-17.861,5.772l-16.089-9.945l19.89-12.289l14.575,7.517c-1.629-3.687-5.087-4.602-11.317-9.346
	l10.402-8.487l-12.889,6.145l-1.771-11.632c-1.972,8.945,2.601,11.946-4.772,16.347l-16.747,8.46l0.144-23.578
	c7.573-3.572,10.06-4.344,13.089-9.259l-12.975,6.229l-0.915-13.86c-1.942,2.973-1.343,9.66-1.343,13.232l-13.26-5.259l13.26,9.803
	l-0.343,22.291l-20.233-10.402l-1.257-16.262c-0.801,1.058-0.515,0.058-1.058,2.286l-0.972,11.061l-13.003-5.145l11.088,8.03
	c-1.229,2.63-5.43,4.43-10.974,9.031c7.259-0.915,10.917-9.088,17.718-5.888l16.261,10.975c-2.743,2.429-12.659,8.487-16.203,10.06
	l-17.861-5.802c1.229,4.259,4.315,2.029,11.117,8.859c-2.001,2.172-3.258,2.801-6.03,4.229c-3.715,1.915-2.657,0.915-4.915,4.544
	l13.231-6.144c0.172,9.688-0.943,6.401,2.172,13.432l0.429-16.062l19.947-10.773l0.4,24.034l-13.203,8.945
	C285.551,285.696,287.009,281.839,292.61,280.639L292.61,280.639z"/>
<path fill-rule="evenodd" clip-rule="evenodd" fill="#2B2C2B" d="M60.245,231.227l-0.057,3.229
	c3.201,0.429,2.144-5.944,2.629-13.774c0.714,0.457,1.572-2.086,1.629,6.544c0.057,9.402-0.771,8.889,2.486,11.089
	c0.514,0.372,1.771,1.058,2.543,1.486l15.661,8.316l0.114-22.834c-2.029-2.001-3.83-3.059-6.773-4.602
	c-4.715-2.515-2.772-0.601-6.516-5.315l13.088,6.201l0.943-14.032c2.801,1.687,1.629,5.173,1.744,13.832l13.26-6.173
	c-0.886,4.145-9.945,7.974-13.403,10.089l0.771,23.205l19.747-10.945c0.429-3.401,0.458-5.888,0.372-9.316
	c-0.085-4.916-0.514-3.201,1.715-7.088l0.771,13.632l13.06-6.229l-10.774,8.83c1.229,2.372,0.286,1.486,5.744,4.259
	c4.001,2.029,2.772,0.942,5.544,5.258l-15.346-7.63l-19.004,12.231c3.286,2.943,15.86,8.831,16.975,10.774l0.543-1.029
	c-0.114-2.114,2.258-0.8-6.001-5.287l-7.859-4.172c1.115-1.458,0.2-0.572,1.629-1.829c0.086-0.058,1.686-1.229,1.829-1.286
	l11.888-6.716l15.404,7.573l2.429-5.087c-4.172-4.43-3.715-0.857-10.031-7.402l10.174-5.602c-0.771-3.286-0.257-2.028-3.058-5.772
	l-11.174,5.716l-0.457-12.632l-5.858,0.114l-0.686,17.519l-16.118,8.488l0.286-18.576l14.203-9.174l-3.172-4.744l-11.174,5.858
	l-0.2-12.917l-6.544,0.114l-0.429,12.688l-11.088-5.944l-2.972,5.03l14.317,8.745l0.114,18.805l-16.518-8.917l-0.257-17.176
	l-6.259,0.229L60.245,231.227z"/>
<path fill-rule="evenodd" clip-rule="evenodd" fill="#2B2C2B" d="M219.394,290.755c0.571,1.629-1.086,1.887,1.601,0.771l6.801-2.657
	c-2.114,3.172-1.314,2.601-4.887,4.601c-3.114,1.772-4.172,1.687-5.858,4.401c6.202,4.315,9.202,5.001,11.031,8.517
	c-11.631-5.431-13.003-8.174-18.719-5.087c-4.572,2.486-11.945,5.716-15.518,9.659c5.23,4.487,10.46,7.287,16.689,10.688
	c5.23,2.887,10.859-4.602,17.032-6.145l-10.573,8.573c6.029,4.916,10.03,6.259,11.146,9.26l-13.432-5.602l-0.314,11.403
	c-0.771,2.486,0.429,1.057-2.086,1.829l-0.2-16.147l-20.519-10.917l-0.086,23.292c4.058,2.457,11.345,5.115,13.517,9.316
	l-13.574-6.487l-0.086,14.289c-4.201-11.517-0.942-5.916-2.886-13.632l-9.603,5.201l0.258,1.857l7.63-3.915l0.229,12.003
	l1.915,0.629c1.943,0.371,0.857,0.543,4.658-0.286l0.2-12.203l11.03,5.859l3.087-5.602l-13.746-8.06l-0.543-18.433l16.232,8.401
	l0.229,17.519l6.572-0.543l0.114-12.346l11.289,5.744l3.229-5.173c-3.258-2.2-8.23-4.658-10.517-7.602l10.088-5.716l-2.229-5.772
	l-15.575,7.944l-11.745-6.572c-2.2-1.344-1.657-0.772-3.344-2.658l15.231-8.745c3.115-0.2,10.518,6.23,15.004,7.431l3.286-5.602
	l-10.345-6.173l9.802-7.059l-2.515-4.944L219.394,290.755z"/>
<path fill-rule="evenodd" clip-rule="evenodd" fill="#4C4C4C" d="M154.094,306.673l1.457,1.058
	c12.117-2.314,3.458-12.46,26.921,3.229l-14.175,8.603c-3.972,0.714-10.859-5.688-15.746-6.802l-2.915,4.201
	c5.087,5.801,4.144,2.886,10.574,7.658l-10.716,6.202l2.743,5.516l11.717-5.401l0.171,11.889l6.459,0.714l0.171-16.433l15.631-9.745
	l0.4,18.576c-3.801,1.715-10.888,5.516-13.774,8.288l2.286,5.572l3.83-2.058l-0.258-1.857c-5.944,0.886-1.457,0.886-3.144-0.629
	l13.604-7.401l-0.172-24.035l-20.833,10.718l-0.657,16.518c-2.286-8.201-1.515-4.772-1.572-13.832l-7.688,3.772
	c-6.744,3.744-5.201,1.486-5.715,1.144l11.174-6.716c-6.745-5.83-4.916-3.772-8.974-6.802c-2.715-2.029-1.143,0.2-2.2-2.601
	l17.489,5.658c0.143,0,15.289-8.974,16.461-10.717c-14.575-9.402-17.089-13.689-24.863-8.945
	C158.838,303.815,156.637,305.016,154.094,306.673L154.094,306.673z"/>
<path fill-rule="evenodd" clip-rule="evenodd" fill="#4C4C4C" d="M164.725,279.409l0.829,13.661c-1-1.001-1.429,1.143-0.372-3.001
	l1.486-8.974l2.258,16.575l20.261,10.517l-0.171-23.634l-13.203-8.888c4.858,0.686,8.659,5.43,10.717,6.001
	c4.315-0.143,0.543,0.2,2.2-1.144c0.229-4.658-0.742-9.401,1.114-13.089c2.83,2.486,1.515,9.632,2.058,13.604l2.687-0.857l0.943-1
	l-0.657,0.543c2.2,0,0.057,0.286,1.028-1.915c-2.143-1.314-2.372,0.543-2.314-6.144c0-2.058,0.058-3.716-0.028-5.859l-6.573-0.399
	l-0.257,12.945l-12.031-5.601l-2.258,5.43l14.26,8.431l0.086,18.118l-16.232-8.545l0.029-17.204L164.725,279.409z"/>
<path fill-rule="evenodd" clip-rule="evenodd" fill="#2B2C2B" d="M195.903,277.809c-0.972,2.201,1.172,1.915-1.028,1.915
	l0.657-0.543c3.43-0.343,4.344-1.4,9.316-3.572c-1.4,3.829-9.745,6.83-13.46,8.688l0.114,24.092l20.604-11.546l-0.629-15.432
	c1.857-1.544-3.544-2.372,2.572-1.144c2.829,4.401-0.372,6.23,2.058,12.317l-1.058-13.632l-4.858-0.143l-0.286,17.032l-16.231,9.06
	l-0.114-18.119l14.203-8.83l-2.372-5.487C201.59,273.465,197.904,275.608,195.903,277.809L195.903,277.809z"/>
<path fill-rule="evenodd" clip-rule="evenodd" fill="#727272" d="M155.551,307.73l-1.457-1.058l-0.972-1.743
	c2.458-1.486,3.086-1.715,5.487-2.972c3.772-1.943,2.857-1.429,5.43-5.63c-3.429-1.229-8.431-4.059-11.317-6.545l13.317,4.43
	c0.057-0.8,0.229-1.486,0.028-2.314c-0.6-2.458,0.172-0.343-0.886-1.829c-1.058,4.144-0.629,2,0.372,3.001l-0.829-13.661
	c-0.458,0.857-0.601,0.515-0.915,2.344l0.143,9.573l-11.402-5.458l-3.258,5.658l10.231,6.345l-9.917,5.772l2.943,5.974
	L155.551,307.73z"/>
<path fill-rule="evenodd" clip-rule="evenodd" fill="#4C4C4C" d="M107.712,261.233l-0.543,1.029l16.889-6.631
	c-1.314,5.173-5.572,2.258-10.945,8.974l10.745,8.917l-11.631-5.602l0.4,2.857c4.687,1.687,7.973,5.03,12.917,5.23l1.715-4.344
	l-5.144-3.858c-2.401-1.372-2.658-1.144-4.63-3.201c4.715-3.572,7.402-4.486,9.488-7.059l-2-4.772L107.712,261.233z"/>
<path fill-rule="evenodd" clip-rule="evenodd" fill="#727272" d="M125.974,369.203l1.429,1c5.087,2.857,14.746,4.944,20.176,6.087
	c8.716,1.858,14.175,3.087,23.462,4.259c-1.458-1.229,2.058-1.344-1.543-1.029l2.058-0.6c-1.315-0.943,1.229-0.286-2.887-1.286
	c-0.543-0.144-2.286-0.314-2.972-0.4c-19.604-2.687-24.548-6.145-37.18-8.631L125.974,369.203z"/>
<path fill-rule="evenodd" clip-rule="evenodd" fill="#727272" d="M89.022,127.229l-0.571-6.259c0.114,0.286,0.514,1.315,0.628,1.515
	c1.515,2.458,0.515,0.886,1.429,1.972l-0.114-19.119c-3.515,3.029-1.029,10.917-1.258,15.604c-1.6-4.458-0.857-11.432-0.8-16.661
	c-1.315,1.057-1.143,0.571-1.201,4.973l0.115,12.231C87.222,126.172,86.165,125.257,89.022,127.229L89.022,127.229z"/>
<path fill-rule="evenodd" clip-rule="evenodd" fill="#727272" d="M211.478,281.41c4.973-0.4,1.515-0.515,2.601,1.343l0.343,11.774
	c3.658,0.571,4.43-0.543,6.573-3.001c-2.687,1.115-1.029,0.857-1.601-0.771c-3.058-0.343-1,0.829-2.687-0.972
	c0.028-1.886,0.286-4.372,0.258-6.115c-0.029-4.059,1.086-3.544-1.915-4.716l1.058,13.632c-2.43-6.087,0.771-7.916-2.058-12.317
	C207.934,279.038,213.335,279.866,211.478,281.41L211.478,281.41z"/>
<path fill-rule="evenodd" clip-rule="evenodd" fill="#B4B4B4" d="M318.616,267.35c-1.857,3.772-0.829,7.973-1.258,12.774
	l-0.057-12.546c-0.829-4.688,0.571-1.715-1.629-3.087l0.8,16.661C320.102,279.866,318.673,270.836,318.616,267.35L318.616,267.35z"
	/>
<path fill-rule="evenodd" clip-rule="evenodd" fill="#B4B4B4" d="M295.667,281.725c-1.6,3.114-1.2,8.145-1.028,12.146
	c-0.943-9.603,0.686-11.546-2.029-13.231c0.543,4.058-1.257,12.06,2.086,14.089C296.268,291.727,295.553,285.64,295.667,281.725
	L295.667,281.725z"/>
<path fill-rule="evenodd" clip-rule="evenodd" fill="#B4B4B4" d="M188.958,40.779c1.943-3.315,1.486-7.802,1.857-13.261
	c-0.114,5.544-1.285,10.432,1.229,13.146c-0.687-6.688,0.543-11.117-1.2-14.032L188.958,40.779z"/>
<path fill-rule="evenodd" clip-rule="evenodd" fill="#727272" d="M53.615,230.226c2.629,2.658,3.086,3.287,6.573,4.229l0.057-3.229
	c-1.8-0.772-2.829-1.344-4.772-2.001L53.615,230.226z"/>
<path fill-rule="evenodd" clip-rule="evenodd" fill="#B4B4B4" d="M188.73,280.523c2.458-4.4-0.943-4.029,2.058-12.432l1.086,14.004
	c4.801-0.715,1.515-0.229,2.715-1.915l-2.687,0.857c-0.543-3.972,0.772-11.117-2.058-13.604
	C187.988,271.122,188.958,275.865,188.73,280.523L188.73,280.523z"/>
<path fill-rule="evenodd" clip-rule="evenodd" fill="#63AFB8" d="M189.187,154.607l-0.343,0.057c-3.657-1.201-3.458-1.4-6.573-3.373
	c-2.629-1.686-2.914-2.029-6.086-2.601c6.458,7.002,7.943,4.687,13.288,9.945l-0.058,22.777l-20.261-11.003l-1.257-16.375
	c-2.2,7.688-1.543,5.116-1.686,13.832l-13.346-5.201c6.059,6.201,6.83,3.201,10.888,8.087c-5.487,6.802-9.802,2.458-11.002,9.431
	l15.146-7.545c4.944,2.687,17.547,7.831,19.29,12.746l-19.204,10.489l-15.575-7.459c3.515,5.172,3.315,4.086,11.46,8.087
	c-9.145,8.517-9.859,5.888-11.088,9.517c4.515-1.715,10.459-4.744,13.375-5.344c-0.029,3.943-0.629,10.202,0.714,13.804
	c3.201-5.859,1.286-5.345,1.857-15.519l20.605-11.774l-0.114,22.892l-7.402,4.887c-6.83,4.144-5.344,0.058-5.458,4.887l12.574-5.572
	l1.144,13.289c1.914-4.459,1.429-2.372,1.343-7.459c-0.086-3.944-0.972-4.602,1.657-5.888l11.517,5.944
	c-3.114-4.915-1.343-2.829-6.058-5.458c-9.146-5.116-6.773-2.115-7.06-27.664l20.604,10.889l0.258,13.117l0.914,3.344
	c2.772-5.83,1.115-3.001,1.172-3.344c0.058-0.257,0.172-2.572,0.172-2.943c0.057-2.229-0.058-4.888-0.114-7.145l13.774,5.344
	l-11.203-8.345l11.031-8.773c-26.892,8.487-11.773,6.602-34.15-3.887c26.806-20.69,18.747-10.202,34.236-5.601l-11.003-8.945
	c7.23-5.172,10.432-5.458,10.717-8.602l-13.231,5.201c0.028-3.629,1.029-10.06-1.4-12.946l-0.942,15.318l-20.69,11.66l-0.028-22.749
	c5.086-3.287,12.603-6.944,13.46-10.002l-12.803,5.859c-2.516-2.715-1.315-7.602-1.201-13.118
	C190.673,146.805,191.102,151.292,189.187,154.607L189.187,154.607z"/>
<path fill-rule="evenodd" clip-rule="evenodd" fill="#4C4C4C" d="M193.302,228.254l-2.429,0.571c3.344-5.344,2.2-4.372,2.2-14.604
	c-2.629,1.286-1.743,1.943-1.657,5.888c0.086,5.087,0.571,3-1.343,7.459l-1.144-13.289l-12.574,5.572
	c0.114-4.829-1.372-0.743,5.458-4.887l7.402-4.887l0.114-22.892l-20.605,11.774c-0.571,10.174,1.343,9.659-1.857,15.519
	c-1.343-3.602-0.743-9.86-0.714-13.804c-2.915,0.6-8.859,3.629-13.375,5.344c1.229-3.629,1.943-1,11.088-9.517
	c-8.145-4.001-7.945-2.915-11.46-8.087l15.575,7.459l19.204-10.489c-1.743-4.916-14.346-10.06-19.29-12.746l-15.146,7.545
	c1.2-6.973,5.515-2.629,11.002-9.431c-4.058-4.887-4.83-1.886-10.888-8.087l13.346,5.201c0.143-8.716-0.514-6.145,1.686-13.832
	l1.257,16.375l20.261,11.003l0.058-22.777c-5.345-5.258-6.83-2.943-13.288-9.945c3.172,0.572,3.457,0.915,6.086,2.601
	c3.115,1.972,2.916,2.172,6.573,3.373l0.2-16.004l-1.715,12.603l-12.002-5.916l-2.115,5.23l14.003,9.06l0.086,18.29
	c-6.201-2.715-10.631-5.716-16.318-9.202l-0.457-16.804c-7.23-0.4-6.116-0.771-6.516,12.946l-11.259-5.601
	c-1.058,1.2-0.972-0.486-2.744,5.344l10.174,5.544c-2.429,3.315-5.83,4.801-10.317,7.773l2.887,4.601
	c18.632-6.202,4.858-12.546,30.321,1.143c-1.572,2.172-0.258,1.115-3.344,2.915c-14.603,8.66-7.916,8.231-26.977-0.743l-2.772,5.059
	c2.257,1.828,2.601,2.028,4.715,3.144c3.687,1.886,1.829,0.399,5.373,4.286l-10.517,5.545l2.343,5.115l12.117-5.23l0.857,12.946
	l5.03-0.371c1.286-3.287,0.829-12.632,0.8-16.69l16.604-8.974l-0.714,18.376l-13.832,9.231l3.201,4.572l10.859-5.544l0.629,12.574
	C192.703,230.34,191.531,230.083,193.302,228.254L193.302,228.254z"/>
<path fill-rule="evenodd" clip-rule="evenodd" fill="#2B2C2B" d="M188.644,154.779l0.344-0.057l1.886-14.146
	c1.743,2.915,0.515,7.345,1.172,14.061l12.803-5.887c-0.857,3.058-8.373,6.716-13.432,10.031v22.72l20.69-11.631l0.942-15.318
	c2.43,2.858,1.43,9.288,1.4,12.946l13.231-5.23c-0.285,3.144-3.486,3.458-10.716,8.602l11.002,8.974
	c-15.489-4.629-7.431-15.118-34.236,5.573c22.377,10.488,7.259,12.402,34.15,3.887l-11.03,8.773l11.202,8.345l-13.774-5.315
	c0.057,2.258,0.171,4.887,0.114,7.116c0,0.371-0.114,2.687-0.172,2.972c-0.057,0.314,1.629-2.515-1.172,3.344l-0.914-3.344
	l-0.229-13.146l-20.633-10.889c0.285,25.577-2.087,22.548,7.059,27.664c4.715,2.629,2.943,0.543,6.059,5.458l-11.518-5.944
	c0,10.231,1.144,9.26-2.2,14.604l2.43-0.571l0.514-11.031l11.631,5.716l2.516-4.801l-14.203-9.06l-0.058-18.29l16.204,8.944
	l0.714,17.09l5.973,0.029l0.486-12.689l11.545,5.315l2.572-4.458l-10.374-7.459l10.603-6.802l-3.058-4.944
	c-5.145,0.972-11.288,6.973-15.089,6.945l-15.518-7.602l15.488-9.802l15.318,7.516l2.829-5.059
	c-3.401-3.715-5.001-2.201-10.06-7.059l10.146-7.173l-2.915-4.801l-11.574,5.659l-0.257-12.26
	c-8.002-1.772-6.631-2.601-6.859,16.547l-16.175,9.374l0.058-18.862l14.432-8.659l-2.058-5.03l-12.317,5.458l-0.171-12.231
	l-4.602-0.114L188.644,154.779z"/>
</svg>
