<?xml version="1.0" encoding="utf-8"?>
<!-- Generator: Adobe Illustrator 15.0.0, SVG Export Plug-In  -->
<!DOCTYPE svg PUBLIC "-//W3C//DTD SVG 1.1//EN" "http://www.w3.org/Graphics/SVG/1.1/DTD/svg11.dtd" [
	<!ENTITY ns_flows "http://ns.adobe.com/Flows/1.0/">
]>
<svg version="1.1"
	 xmlns="http://www.w3.org/2000/svg" xmlns:xlink="http://www.w3.org/1999/xlink" xmlns:a="http://ns.adobe.com/AdobeSVGViewerExtensions/3.0/"
	 x="0px" y="0px" width="380px" height="379px" viewBox="0 0 380 379" enable-background="new 0 0 380 379" xml:space="preserve">
<defs>
</defs>
<path fill-rule="evenodd" clip-rule="evenodd" fill="#FDEC89" d="M259.029,295.218l2.687-0.314c0.943-3.029,5.687-8.974,8.259-11.26
	c3.915-3.486,5.744-7.773,13.46-4.258c1.286,12.774-0.057,10.146,5.802,18.376c5.601,7.916,0.114,11.831-0.372,19.662l5.858,10.288
	c-28.892,1.229-13.774,0.429-30.435-7.03c-17.947,15.317-14.175,15.061-40.467,19.604c-18.232,3.144-38.236,6.516-49.096-5.344
	l-26.234,14.86c-2.315-28.407-1.201-15.89-9.974-25.234c2.058-13.146,0.343-7.145,7.458-13.175l-2.572-12.117
	c16.346-1.2,14.517-3.43,28.292,8.145l2.2-1.915c10.088-11.06,21.404-12.402,38.294-15.261c8.259-1.371,17.519-2.543,26.092-2.543
	c4.858,0,8.602,0.086,13.231,1.543C259.143,291.617,258.714,292.817,259.029,295.218L259.029,295.218z M44.582,184.391
	c1.686-2.886,3.315-6.773,6.401-7.916c14.575-5.287,10.717,22.405,10.517,28.35c21.433,9.346,22.233,7.259,37.808,25.663
	c9.602,11.346,24.034,24.949,20.319,41.696l17.718,1.943c6.23,1.515,8.63,3.201,8.173,10.488l-11.917,13.86
	c-7.516,11.746-14.803,3.602-17.49,12.775c-1.286,4.43,0.286,3.572-2.915,6.344c-10.631-9.288-13.403-8.287-11.946-28.606
	c-20.404-7.374-21.748-5.401-32.493-16.891c-8.316-8.916-6.458-6.287-15.861-17.404c-9.974-11.803-14.546-17.347-12.488-33.751
	l-27.092-14.66l13.231-8.688c4.658-4.915-1.4-8.63,5.801-15.118L44.582,184.391z M334.103,131.606
	c3.114-2.144,4.486-5.344,10.459-4.916c-1.629,22.177,0.686,16.032-10.116,29.521l7.658,7.116c7.773,9.545,9.374,53.242,7.431,65.56
	c-2.172,13.718-6.001,13.346-10.316,19.176c6.915,6.802,19.347,15.633,12.06,27.864c-20.033-1.943-16.461-3.544-24.948,6.259
	l-12.403-7.917l-12.316,1.087c-4.115-1.715-4.772-6.316-3.087-10.604c2.258-5.715,8.773-13.432,13.546-16.518l-3.344-4.259
	c-11.402-12.803-11.487-51.612-9.487-67.502c1.657-13.403,4.944-14.032,9.545-18.319l-10.659-10.431
	c-3.716-4.315-5.83-8.574-2.601-14.747c21.033-0.257,10.688-0.429,20.004-4.573C322.928,125.119,327.758,130.635,334.103,131.606
	L334.103,131.606z M253.771,211.969c-6.944,13.946-14.089,31.723-30.836,32.637l-1.8,30.607l-20.205-8.088
	c-11.545,3.802-12.174-1.171-13.031-12.06l-12.088-4.887c8.716-12.918,6.83-14.09,23.663-17.977l11.116-48.326
	c3.944-11.031,15.461-30.665,29.121-31.522c-1.715-6.23-4.401-12.146-5.029-18.633c-0.715-7.459,3.857-12.575,9.716-7.945
	c14.317,11.403,12.26-7.716,28.921,15.232l10.803-0.429c1.285,3.772,2.371,4.944,0,8.888c-4.43,7.402-16.29,10.66-21.233,13.718
	L253.771,211.969z M48.611,106.286c2.315-4.115,1.886-7.43,5.287-9.517c12.888-7.916,14.518,19.948,15.118,26.121
	c26.349,7.03,23.376,3.772,43.209,20.063c8.688,7.145,27.549,19.833,25.52,36.409l20.748-0.972c4.458,0.229,11.603,4.43,2.4,12.317
	c-6.23,5.401-2.4,10.489-6.144,15.947c-3.258,4.744-7.888,4.658-12.946,8.373l-1.543,10.46l-13.003-8.859
	c-2.687-6.087-4.029-9.316-4.373-16.918c-24.548-4.887-25.577-2.687-44.953-18.433L60.5,166.443
	c-6.202-6.287-9.174-13.803-9.174-23.206c-9.516,0-29.235,3.429-28.892-11.546c20.519-16.575,8.574-9.288,12.26-22.948
	L48.611,106.286z M104.109,49.243c3.944,2.086,2.886,1.143,4.687,4.458c3.801,6.974,4.373,9.402,7.43,16.519
	c16.575-2.058,15.403-3.429,30.778,1.686c4.287,1.429,22.205,7.23,25.292,11.146c5.944,0.372,19.119,8.831,22.89,14.347
	c2.058,3.058,1.544,3.486,2.63,6.344c0.828,2.144,0.628,1.429,1.114,2.144l27.292-2.172l-3.887,9.316
	c-4.687,11.917,8.459,8.688-11.088,26.75l1.371,9.859c-2.029,3.744-8.63,1.286-8.63,0.6c-3.716-1.429-3.115-1.543-5.116-4.43
	c-8.63-8.459-6.801-11.06-10.03-15.718c-20.719,3.515-18.604,5.229-38.58-1.943c-13.975-5.059-29.75-13.747-32.207-14.661
	c-4.572-3.115-6.258-4.515-8.773-8.773c-2.314-1.686-2.915-5.373-4.172-9.059l-30.207-1.029C89.906,65.104,78.132,80.68,79.99,65.39
	l12.803-5.001l3.058-11.317C97.937,47.271,104.853,46.5,104.109,49.243L104.109,49.243z M210.218,33.725l2.629,0.543
	c15.775-9.259,69.044,17.347,75.359,25.664c1.344,1.743,2.144,3.543,2.772,5.258c0.857,2.372,0.657,3.287,1.886,4.973l27.149-2.744
	c-6.545,17.176-3.83,8.602-3.772,21.234c0.028,8.488-6.602,10.174-10.316,15.061l0.628,10.774l-14.803-5.773
	c-3.286-3.486-6.602-9.002-7.602-14.747l-13.546,4.144c-10.316,1.658-48.668-14.861-58.327-20.805
	c-11.031-6.773-9.745-10.317-13.346-17.804l-30.207,0.085c14.86-29.636,4.715-14.175,5.144-29.493l12.774-5.144l3.458-11.717
	c3.715-2.772,8.115-1.486,10.373,1.2C204.56,19.293,207.389,27.066,210.218,33.725L210.218,33.725z M7.517,232.745l0.886,4.315
	c29.063,100.768,124.084,160.583,227.221,136.177c32.636-7.745,60.185-23.777,82.79-45.297
	c12.631-12.031,16.375-15.719,27.691-31.779c34.579-49.184,42.867-122.659,15.146-184.274
	c-6.602-14.661-24.691-42.239-35.779-52.013c-10.517-9.317-14.003-14.461-28.835-24.549c-65.386-44.497-151.776-44.239-215.133,1.4
	C63.558,49.643,47.697,65.904,35.151,84.195c-12.002,17.519-22.348,40.238-28.263,65.444C1.544,172.502,0.487,210.911,7.517,232.745
	L7.517,232.745z"/>
<path fill-rule="evenodd" clip-rule="evenodd" fill="#1B1B1B" d="M5.03,233.889l2.486-1.144c-7.03-21.834-5.973-60.243-0.628-83.106
	c5.916-25.206,16.261-47.926,28.263-65.444c12.545-18.291,28.406-34.552,46.353-47.469c63.357-45.64,149.747-45.897,215.133-1.4
	c14.832,10.088,18.318,15.232,28.835,24.549c11.088,9.774,29.178,37.352,35.779,52.013c27.721,61.615,19.433,135.09-15.146,184.274
	c-11.316,16.061-15.061,19.748-27.691,31.779c-22.605,21.52-50.154,37.552-82.79,45.297
	C132.487,397.644,37.466,337.828,8.403,237.061l-2.515,0.086c3.172,12.774,7.973,24.435,12.975,35.438
	c10.716,23.549,23.491,37.381,39.866,54.928c7.688,8.259,16.175,14.832,25.977,21.405c88.677,59.386,207.274,33.266,263.629-51.584
	c28.691-43.183,39.38-91.337,26.863-152.095c-6.345-30.722-28.436-70.217-51.897-91.251c-8.459-7.602-10.23-9.517-19.604-16.69
	c-18.861-14.432-45.21-27.435-72.673-33.208C179.44-6.742,121.942,4.118,80.39,34.611C41.696,63.018,16.176,99.284,4.688,148.525
	C-1.828,176.446-1.399,206.453,5.03,233.889L5.03,233.889z"/>
<path fill-rule="evenodd" clip-rule="evenodd" fill="#1B1B1B" d="M309.726,265.325c5.286-2.144,3.715-5.487,6.915-8.688l9.774-6.115
	l-0.372,16.519l4.029-17.033c4.772,0.371,6.545,5.03,11.117,11.488l-5.173-12.317l13.546,23.178c-0.6,0.771,1.144,2.372-6.344,0.629
	c-9.316-2.173-6.802-1.943-19.205,6.944l-8.772-9.06l-13.347,2.001c-6.087-9.774,8.831-18.348,15.204-23.234
	c0.343,1.285,0.314,1.314-0.972,3.372C313.413,257.323,310.383,260.01,309.726,265.325L309.726,265.325z M308.697,239.29
	l35.008-0.801c-2.715,5.602-8.173,8.975-16.604,9.46C320.042,248.35,311.297,246.178,308.697,239.29L308.697,239.29z
	 M304.982,231.402l41.81-1.114c-1.772,7.944-13.575,8.373-20.72,8.63C319.213,239.176,306.639,238.976,304.982,231.402
	L304.982,231.402z M301.41,179.561c3.315-0.257,6.716,1.458,10.402,1.943c18.489,2.4,26.377-3.572,32.864-3.944l2.943,48.126
	l-43.552,2.029L301.41,179.561z M302.467,172.759c3.601-0.4,12.889,3.115,20.547,2.772c10.231-0.429,12.889-3.401,20.119-4.629
	l-7.573,6.773C332.874,179.132,301.153,182.876,302.467,172.759L302.467,172.759z M332.673,164.872
	c-1.114-3.429-2.058-1.8-3.629-5.401l12.06,8.745l-37.351,1.029l12.488-7.974l-1.829,4.916l7.145-4.344l2.457,4.687
	c0.829-3.629,0.887-2.258-0.085-5.287L332.673,164.872z M298.609,142.752c8.259-2.258,10.202-7.402,16.347-8.288l3.086,3.458
	c4.03,4.287,6.859,1.286,10.031-1.6l14.518,2.429l-14.289,17.947l4.801-12.975c0.543-4.916-0.285-2.629-1-3.458l-7.63,18.262
	c-4.43-6.831-0.086-10.574-3.458-15.347l-0.457,15.089c-9.06-5.63-6.23-11.917-11.86-14.375l6.974,14.775L298.609,142.752z
	 M296.609,139.237c-1.829-6.03,4.43-3.544,9.088-3.115C303.667,138.779,300.667,140.523,296.609,139.237L296.609,139.237z
	 M331.587,134.35c7.602-0.371,5.659-3.429,10.603-5.258c1.915,2.286,2.601,2.744,1.144,5.944
	C339.018,137.608,335.417,136.493,331.587,134.35L331.587,134.35z M323.214,137.808l-7.259-6.801
	c0.515-0.543,4.173-0.972,5.744-0.743c1.572,0.229,3.944,1.171,5.83,1.6L323.214,137.808z M334.103,131.606
	c-6.345-0.972-11.175-6.487-18.576-3.201c-9.316,4.144,1.029,4.315-20.004,4.573c-3.229,6.173-1.115,10.431,2.601,14.747
	l10.659,10.431c-4.601,4.287-7.888,4.916-9.545,18.319c-2,15.89-1.915,54.699,9.487,67.502l3.344,4.259
	c-4.772,3.086-11.288,10.803-13.546,16.518c-1.686,4.287-1.028,8.889,3.087,10.604l12.316-1.087l12.403,7.917
	c8.487-9.803,4.915-8.202,24.948-6.259c7.287-12.231-5.145-21.063-12.06-27.864c4.315-5.83,8.145-5.458,10.316-19.176
	c1.943-12.317,0.343-56.014-7.431-65.56l-7.658-7.116c10.802-13.489,8.487-7.345,10.116-29.521
	C338.589,126.262,337.217,129.463,334.103,131.606L334.103,131.606z"/>
<path fill-rule="evenodd" clip-rule="evenodd" fill="#414A4D" d="M120.142,112.487c5.229,1.601,14.717,6.773,21.205,9.431
	l24.891,8.288l16.261-39.61c-3.83-3.115-8.63-4.916-12.975-6.802c-5.601-3.229-26.434-11.088-33.436-11.574
	C125.171,85.566,119.884,92.511,120.142,112.487L120.142,112.487z"/>
<path fill-rule="evenodd" clip-rule="evenodd" fill="#B2A4D0" d="M242.711,334.027c1.2-1.657,0.972-1.086,1.2-3.458l-4.658-40.324
	c-8.373-0.429-17.547,1.172-25.691,2.372c-3.601,0.543-19.805,3.258-22.69,5.716c-3.458,5.658-3.63,16.004-2.344,23.549
	l8.401,18.576c7.345,0.6,16.461-1.086,23.863-2.344C226.679,337.085,237.653,334.142,242.711,334.027L242.711,334.027z"/>
<path fill-rule="evenodd" clip-rule="evenodd" fill="#BAD532" d="M80.904,279.043c3.515-7.23,8.173-12.746,12.574-16.576
	c7.745-6.744,9.488-6.716,18.661-10.603c-1.6-5.43-16.232-21.948-21.69-27.664c-9.059-9.517-11.402-13.66-30.55,0.629
	c-4.486,3.372-7.83,7.316-10.831,13.432c-3.715,7.603,5.515,14.861,12.288,22.063c2.486,2.658,3.601,4.345,6.116,7.03
	C71.245,271.354,75.589,277.356,80.904,279.043L80.904,279.043z"/>
<path fill-rule="evenodd" clip-rule="evenodd" fill="#E00885" d="M214.534,75.278l45.981,18.604l16.632-39.238l-45.924-18.462
	C221.935,44.185,213.733,57.159,214.534,75.278L214.534,75.278z"/>
<path fill-rule="evenodd" clip-rule="evenodd" fill="#FAE00B" d="M100.08,193.593c0.8-0.914,0.514-0.114,1.343-1.886
	c0.572-1.2,0.515-1.544,0.972-2.973c4.229-13.117,14.146-21.348,24.634-28.578c-15.518-16.232-19.89-17.947-38.065-30.351
	c-4.687,1.715-6.516,3.058-10.26,6.001c-1.572,1.229-2.915,2.543-4.287,3.772c-2.601,2.401-1.886,1.515-3.858,4.144
	c-11.974,15.975-10.116,19.262-2.744,25.492l22.405,17.976C93.536,189.678,97.136,191.335,100.08,193.593L100.08,193.593z"/>
<path fill-rule="evenodd" clip-rule="evenodd" fill="#1B1B1B" d="M112.482,315.537c-3.372-1-3.943-1.4-5.144-4.144
	c1.543-4.029,5.144-6.345,10.746-6.659C112.425,306.906,114.397,309.393,112.482,315.537L112.482,315.537z M119.684,303.763
	c3.229-0.972,1.2-3.344,2.429-7.973l9.145,1.229C129.429,301.534,125.428,303.706,119.684,303.763L119.684,303.763z
	 M136.088,286.673c1.229-5.458,1.343-7.431,6.516-7.659C143.775,284.016,140.774,284.844,136.088,286.673L136.088,286.673z
	 M137.517,276.842c-3.858,9.231-2.458,3.915-6.544,17.09c-4.915,0.801-4.658-1.343-8.402-0.371c-4.372,1.143-2,3.887-4.058,7.116
	c-1.058,1.657-5.087,2-7.03,2.943l-6.23,4.744l-0.057-23.463c0.143,0.2,0.343,0.257,0.4,0.629c0.057,0.343,0.343,0.485,0.4,0.628
	c2.886,6.259-0.4,2.144,6.173,14.404c0.743-1.801-3.458-15.633-4.43-19.891c2.572,1.515,4.858,4.001,6.344,5.63
	c3.429,3.829,0.257,1.629,6.001,5.001c-1.115-6.659-4.715-4.772-9.145-12.66l17.661,4.973l-14.203-7.459
	C119.313,272.584,132.001,275.441,137.517,276.842L137.517,276.842z M112.168,273.527c-1.458-2.115,0.943-0.114-3.287-4.001
	l-0.372,6.973l-6.573-1.687c0.886,2.602,0.943,2.029,3.972,4.973l-8.173,1.344c1.172,1.687,1.086,0.886,5.258,3.029l-14.375,1.343
	l28.406-25.349C119.941,272.127,116.969,271.384,112.168,273.527L112.168,273.527z M84.734,283.101
	c-1.744-1.943-3.144-1.943,2.458-9.773c3.629-5.087,11.631-12.346,16.804-15.461c5.573-3.401,5.458-2.658,11.174-1.943
	c-2.115,4.658-12.66,3.229-23.919,18.433C86.363,280.986,88.792,281.329,84.734,283.101L84.734,283.101z M80.904,279.043
	c-5.315-1.687-9.659-7.688-13.432-11.689c-2.515-2.686-3.629-4.372-6.116-7.03c-6.773-7.201-16.003-14.46-12.288-22.063
	c3-6.115,6.344-10.06,10.831-13.432c19.147-14.289,21.491-10.146,30.55-0.629c5.458,5.716,20.09,22.234,21.69,27.664
	c-9.173,3.887-10.917,3.858-18.661,10.603C89.078,266.297,84.419,271.813,80.904,279.043L80.904,279.043z M45.296,239.461
	c-2.972-4.544-0.171-7.516,2.315-10.802c5.229-6.831,22.205-22.549,29.006-16.062c-6.773,3.172-12.946,5.602-18.519,10.374
	C52.384,227.858,49.669,232.46,45.296,239.461L45.296,239.461z M41.896,230.402c0.229-13.604,11.974-25.807,27.349-22.206
	l-4.258,2.63C50.698,217.685,47.24,227.145,41.896,230.402L41.896,230.402z M45.754,187.249c1.886-2.343,3.372-7.059,5.687-8.173
	c4.487-2.172,6.802,1.257,7.602,5.03c0.857,4.115,0.6,9.002,0.4,13.403c-0.257,5.659,0.886,7.431-3.744,8.803l-2.515-16.919
	c-4.287,10.975,0.6,5.373-0.943,18.748l-3.429,2.572l-7.745-10.746c-1.686-2.229-0.314-1.028-2.543-2.372
	c5.344,13.661,3.687,7.03,7.716,15.004l-2.029,2.544l-28.092-7.603c17.775-11.003,13.146-7.059,15.089-18.118
	c0.686-4.001-1.8,1.714,1.143-3.201L45.754,187.249z M44.582,184.391l-12.231-1.915c-7.202,6.487-1.143,10.203-5.801,15.118
	l-13.231,8.688l27.092,14.66c-2.058,16.404,2.515,21.948,12.488,33.751c9.402,11.117,7.545,8.488,15.861,17.404
	c10.745,11.489,12.088,9.517,32.493,16.891c-1.458,20.319,1.314,19.318,11.946,28.606c3.201-2.771,1.629-1.914,2.915-6.344
	c2.687-9.174,9.974-1.029,17.49-12.775l11.917-13.86c0.457-7.287-1.943-8.974-8.173-10.488l-17.718-1.943
	c3.715-16.747-10.717-30.351-20.319-41.696C83.733,212.083,82.933,214.17,61.5,204.824c0.2-5.944,4.058-33.637-10.517-28.35
	C47.897,177.618,46.268,181.504,44.582,184.391L44.582,184.391z"/>
<path fill-rule="evenodd" clip-rule="evenodd" fill="#1B1B1B" d="M139.346,213.427l-1.086,10.002l-5.63-2.715
	c0.829-4.029,3.344-6.516,6.744-8.116l5.059-10.374l9.116-0.543C152.72,208.883,146.433,208.539,139.346,213.427L139.346,213.427z
	 M156.892,191.078c-0.257-2.201-0.229-4.687,0.8-6.63c1.629-3.115,0.743-2.543,4.43-1.657
	C163.379,188.134,160.15,186.62,156.892,191.078L156.892,191.078z M143.89,200.052l-1.458,8.402
	c-2.543,0.828-4.744,1.743-6.887,3.286c-1.686,1.2-1.343,1.058-2.629,2.43l-2.572,2.543l-1.8-18.376
	c3.687,6.459,0.886,4.487,6.83,10.603c0.428-0.972,0.771,0.058,0.428-2.029c-0.314-2.086-2.829-4.715-3.886-6.973l-4.172-10.26
	c2.972,0.771,3.658,2.229,6.173,4.229c3.658,2.915,3.029,2.258,7.516,4.087c-2.058-5.83-5.172-3.229-10.488-10.974l17.318,1.372
	c-2.715-3.287-6.601-2.801-11.031-3.629l-4.144-1.486l23.091-2.572C152.005,206.511,153.577,197.479,143.89,200.052L143.89,200.052z
	 M110.168,197.794c-2-4.973,4.315-14.318,7.487-18.033c3.458-4.058,8.745-10.259,16.061-11.831c3.029,13.174,2.286,9.116-2,14.604
	c-5.658-5.344-0.171-2.229-4.144-4.001l0.2,7.402l-6.573-1.086c3.801,4.487,2.858,2.115,4.229,4.772l-7.916,2.801l6.087,1.001
	L110.168,197.794z M105.109,196.251c-2.857-2.144-2.543-1.458-1.029-5.83c3.916-11.317,23.063-34.294,27.063-25.235
	c-11.117,7.716-14.146,9.117-21.176,21.977C105.252,195.794,109.596,194.65,105.109,196.251L105.109,196.251z M100.08,193.593
	c-2.944-2.258-6.544-3.915-9.859-6.401l-22.405-17.976c-7.373-6.23-9.23-9.517,2.744-25.492c1.972-2.629,1.257-1.743,3.858-4.144
	c1.372-1.229,2.715-2.543,4.287-3.772c3.744-2.943,5.573-4.287,10.26-6.001c18.175,12.403,22.547,14.118,38.065,30.351
	c-10.488,7.23-20.405,15.461-24.634,28.578c-0.457,1.429-0.4,1.772-0.972,2.973C100.594,193.479,100.88,192.679,100.08,193.593
	L100.08,193.593z M58.671,160.271c-4.687-9.031,8.888-24.377,16.003-29.493c3.572-2.572,6.63-5.43,10.859-2.543
	C59.557,145.209,64.872,152.754,58.671,160.271L58.671,160.271z M54.841,153.012c-4.544-14.575,8.374-29.808,22.691-27.721
	c-5.516,4.086-8.945,7.001-13.375,12.146C60.271,141.952,58.471,147.267,54.841,153.012L54.841,153.012z M50.469,108.515
	c1.114-2.543,2.257-8.002,4.801-9.459c8.145-4.63,9.831,10.831,10.66,16.718c0.915,6.458,1.743,6.83-2.058,10.002l-6.173-16.118
	c-1.572,4.944-0.629,2.458,1.257,9.974c1.915,7.659,3.029,8.402-1.286,11.203c-6.43-3.029-7.344-9.488-12.831-10.745
	c6.144,8.116,11.459,11.946,9.516,15.861c-11.603,0.171-8.573-0.629-12.002-0.8c-4.601-0.229-1.115-0.457-2.915,0.8l-14.518-2
	l9.631-9.002c5.687-6.201,0-9.688,2.886-15.318L50.469,108.515z M48.611,106.286l-13.917,2.458
	c-3.687,13.66,8.259,6.373-12.26,22.948c-0.343,14.975,19.376,11.546,28.892,11.546c0,9.402,2.972,16.918,9.174,23.206
	l17.432,14.833c19.375,15.747,20.404,13.546,44.953,18.433c0.343,7.602,1.686,10.831,4.373,16.918l13.003,8.859l1.543-10.46
	c5.058-3.715,9.688-3.629,12.946-8.373c3.744-5.458-0.086-10.546,6.144-15.947c9.202-7.887,2.058-12.088-2.4-12.317l-20.748,0.972
	c2.029-16.576-16.832-29.264-25.52-36.409c-19.833-16.29-16.861-13.032-43.209-20.063c-0.6-6.173-2.229-34.037-15.118-26.121
	C50.498,98.855,50.926,102.17,48.611,106.286L48.611,106.286z"/>
<path fill-rule="evenodd" clip-rule="evenodd" fill="#0292CA" d="M240.825,230.373c4.145-5.344,20.862-37.181,20.176-44.639
	c-21.719-6.573-23.233-4.801-35.979-17.404c-1.544-1.543,0.199-0.171-1.887-1.2l-20.947,44.439L240.825,230.373z"/>
<path fill-rule="evenodd" clip-rule="evenodd" fill="#00A658" d="M301.41,179.561l2.658,48.155l43.552-2.029l-2.943-48.126
	c-6.487,0.372-14.375,6.344-32.864,3.944C308.125,181.019,304.725,179.304,301.41,179.561L301.41,179.561z"/>
<path fill-rule="evenodd" clip-rule="evenodd" fill="#1B1B1B" d="M189.042,246.691l20.919-5.601
	c-0.286,1.686-6.487,11.889-8.316,15.317c6.03-2.229,0.914-2.172,13.432-12.975c0.857,0.857,1.743-0.857,2.229,6.401
	c0.114,1.515,0.029,2.772,0.058,4.145l0.743,4.229l0.972-13.461c1,0.972,0.343-0.429,1.886,2.315
	c5.802,10.288,2.314,15.433-0.829,25.635c-5.658-1.429-6.63-5.287-11.145-7.688l-16.175,0.771c-3.887-13.89-2.229-12.46-6.63-13.518
	c-5.458-1.286-2.429,2.458-8.087-7.259l25.063-9.46c-1.4,4.03,2.601-0.171-7.116,5.373c-1.543,0.857-2.286,1.457-3.743,2.344
	C189.385,245.063,189.928,243.948,189.042,246.691L189.042,246.691z M200.188,222.8c7.602,7.116,15.803,12.518,26.634,15.29
	l4.572,1.972C217.048,245.521,199.788,237.118,200.188,222.8L200.188,222.8z M201.016,214.741
	c19.062,15.403,6.087,9.659,37.065,18.519C232.738,243.233,197.558,225.001,201.016,214.741L201.016,214.741z M240.825,230.373
	l-38.637-18.805l20.947-44.439c2.086,1.029,0.343-0.343,1.887,1.2c12.745,12.603,14.26,10.831,35.979,17.404
	C261.687,193.192,244.969,225.029,240.825,230.373L240.825,230.373z M226.222,162.042c4.172,0.915,5.229,3.429,7.572,5.63
	c10.488,9.745,18.147,8.402,29.121,13.661c-2.144,2.857-4.286,2.686-11.803,0.229c-9.316-3.058-17.661-7.345-24.005-14.347
	C225.221,165.129,225.136,164.614,226.222,162.042L226.222,162.042z M229.508,159.127l14.117-0.972l-2.915,3.629l7.916-0.943
	l0.743,6.23l4.029-4.058c-0.028,3.687,0.258,3.144,4.287,6.516l-1.715-6.458l7.23,13.746
	C249.827,176.96,232.395,166.415,229.508,159.127L229.508,159.127z M246.34,140.123l-0.743,15.575
	c-4.687-3.458-7.716-15.175-8.287-22.091l19.09,0.372c2.801,0.914,18.747,14.632,21.891,17.375l-21.091,9.202
	c4.83-6.03,8.631-4.629,12.003-12.26c-9.888,5.03-10.517,9.088-17.232,11.403l6.201-14.832c-7.944,6.344-3.086,4.772-8.773,13.003
	l-2.086-8.774C246.941,146.153,248.426,142.895,246.34,140.123L246.34,140.123z M260.658,140.551l-2.314-8.716
	c20.232,15.604,11.031,11.574,24.948,10.688C269.231,139.608,272.889,139.208,260.658,140.551L260.658,140.551z M247.312,131.721
	c-4.516,0.486-8.202,1.343-9.859-2.83C239.053,123.29,245.883,130.292,247.312,131.721L247.312,131.721z M239.71,152.354
	c-13.66,0.857-25.177,20.491-29.121,31.522l-11.116,48.326c-16.833,3.887-14.946,5.059-23.663,17.977l12.088,4.887
	c0.857,10.889,1.486,15.861,13.031,12.06l20.205,8.088l1.8-30.607c16.747-0.914,23.892-18.69,30.836-32.637l9.116-48.783
	c4.943-3.058,16.804-6.316,21.233-13.718c2.371-3.944,1.285-5.115,0-8.888l-10.803,0.429c-16.661-22.949-14.604-3.83-28.921-15.232
	c-5.858-4.63-10.431,0.486-9.716,7.945C235.309,140.208,237.996,146.124,239.71,152.354L239.71,152.354z"/>
<path fill-rule="evenodd" clip-rule="evenodd" fill="#1B1B1B" d="M286.121,327.14c-2.687-4.058-1.629-7.887,0.229-12.402
	c0.629,10.688,3.658,4.201,5.916,11.26C288.978,328.426,289.464,328.283,286.121,327.14L286.121,327.14z M281.949,306.335
	c0.8-2.115,1.714-2.743,2.943-3.858l2.771-1.686c0.086-0.258,0.429,0,0.629,0.028l-0.485,11.003
	C284.035,308.765,283.206,308.993,281.949,306.335L281.949,306.335z M184.384,338.314c-12.946-4.344-16.575-29.007-4.43-35.037
	C178.068,317.366,179.354,326.312,184.384,338.314L184.384,338.314z M192.729,340.344c-11.86-1.172-14.861-33.694-7.316-40.925
	c1.486,8.831,0.743,3.144,0.172,10.917C184.727,321.938,187.613,330.941,192.729,340.344L192.729,340.344z M160.693,337.6
	c7.23,0.457,6.658-3.601,12.117-6.259c-9.088,12.089-11.402,18.834-23.262,16.348l-0.543-17.634
	c-1.857-4.086-5.944-3.372-8.688-8.573l8.145-9.088c-0.286-5.087-4.172-7.659-2.744-11.746c2.572-7.315,15.375,1.772,19.09,4.516
	c3.201,2.344,6.573,3.63,5.544,8.945l-16.432-7.345c12.374,11.146,15.917,4.915,16.432,15.289l-16.661,1.43
	c2.115,1.2,1.715,1.229,3.801,1.457c1.229,0.114,3.829-0.057,5.144-0.143c3.487-0.144,4.801-0.343,8.316,0.371
	C163.665,338.886,165.037,331.398,160.693,337.6L160.693,337.6z M251.227,330.483c-3.543,1.172-2.629,1.973-4.887-0.914
	c-4.744-6.03-8.287-27.921-5.229-36.438c1.4-3.915,0.343-2.601,4.486-2.801C244.511,319.995,242.882,309.393,251.227,330.483
	L251.227,330.483z M243.912,330.569l1.485,1.829l-2.686,1.629c-5.059,0.114-16.032,3.058-21.919,4.087
	c-7.402,1.258-16.519,2.943-23.863,2.344l-8.401-18.576c-1.286-7.545-1.115-17.891,2.344-23.549
	c2.886-2.458,19.09-5.173,22.69-5.716c8.145-1.2,17.318-2.801,25.691-2.372L243.912,330.569z M277.719,281.157
	c4.801-5.029,4.029,6.173,3.857,8.773C280.234,288.816,275.233,283.729,277.719,281.157L277.719,281.157z M261.715,294.903
	l1.028,1.515c3.658-4.315,7.974-9.174,10.746-13.089l10.859,14.947c0.485,2.715-1.314,24.948-1.687,29.093
	c-11.346-5.23-12.346-4.401-18.89-12.632c5.602,1.457,12.688,4.172,16.261,2.687l-18.433-7.06c6.087-3.572,8.173-0.543,14.574-4.029
	c-4.115-1.372-2.857-1.4-7.201-0.657c-1.829,0.286-3.687,0.629-5.487,1c-3.144,2.001,4.115,1.687-4.029,1.687
	c-0.057-1.887,0.229-1.429-0.714-0.657c-2.716,1.172-3.572,1.829-5.23,3.687c4.887,1.2,1.572,0.229,5.63,0.171l-3.972,7.773
	l5.315-3.857l-7.345,13.175l-4.602-37.01l8.917,3.601c1.371,1.572,0.828,1.286,1.571-0.028c-0.314-2.4,0.114-3.601-7.516-5.973
	c-4.63-1.457-8.373-1.543-13.231-1.543c-8.573,0-17.833,1.172-26.092,2.543c-16.89,2.858-28.206,4.201-38.294,15.261l-2.2,1.915
	c-13.775-11.574-11.946-9.345-28.292-8.145l2.572,12.117c-7.116,6.03-5.401,0.028-7.458,13.175
	c8.773,9.345,7.659-3.173,9.974,25.234l26.234-14.86c10.86,11.859,30.864,8.487,49.096,5.344
	c26.292-4.544,22.52-4.287,40.467-19.604c16.66,7.459,1.543,8.259,30.435,7.03l-5.858-10.288c0.486-7.831,5.973-11.746,0.372-19.662
	c-5.858-8.23-4.516-5.602-5.802-18.376c-7.716-3.516-9.545,0.771-13.46,4.258C267.402,285.93,262.659,291.874,261.715,294.903
	L261.715,294.903z"/>
<path fill-rule="evenodd" clip-rule="evenodd" fill="#1B1B1B" d="M303.896,94.711c1.571,1.972,1.258-3.172,1.258,3.858l1.914-1.486
	c-3.058-10.317-2.571-5.659,6.716-9.345c-0.314,6.202-3.629,8.088-6.688,10.688l-0.371,3.058c-1.715,1.115-0.914,0.2-2.915,0.572
	c-1.058,4.916,0.657,6.001,0.886,11.289l-5.801-1.572c-0.972-6.145,2.629-6.602,2.943-9.917c1.743-2.658-2.743-1.4,3.744-2.486
	c-2.029-1.943,0.485-0.771-3.087-0.886l-6.544,10.431c-7.03-5.03-8.259-12.946-10.488-20.662c2.086,1.171,1.286,0.514,3.515,3.144
	c3.83,4.515,4.259,4.201,9.574,8.03l-12.574-16.833l15.061,5.344c-1.887-4.115-5.345-4.229-12.946-7.431
	c1.887-2.029,3.372-2.257,7.002-2.658c5.029-0.543,5.287,0.629,9.688-1.372c0,0,0.743-2.429-8.03-1.458l-7.544,1.086
	c2.686-5.03,16.317-7.716,21.404-9.259l1.058,18.576C309.268,86.566,297.837,88.31,303.896,94.711L303.896,94.711z M270.26,94.912
	c-3.715-12.117,6.572-27.149,14.432-34.123c6.344,9.002,6.401,7.259,1.914,14.346l-4.144-3.144l1.943,7.487
	c-3.172,0.229-3.915,0-6.029,1.029c4.372,2.429,1.857,1.086,4.801,2.029L270.26,94.912z M313.184,76.45
	c-0.629-4.373-0.943-6.487,1-9.659c3.629,0.2,4.687,1.029,2.743,4.515C316.413,72.249,313.812,75.735,313.184,76.45L313.184,76.45z
	 M266.516,95.026c-3.743-0.657-3.629,0.257-3.372-5.373c0.429-10.403,8.631-29.808,17.461-33.123l1.657,1.743
	C261.887,84.566,270.489,85.624,266.516,95.026L266.516,95.026z M214.534,75.278c-0.801-18.119,7.401-31.094,16.689-39.096
	l45.924,18.462l-16.632,39.238L214.534,75.278z M211.675,73.278c-4.601-2.372-3.886-5.03-2.829-11.088
	c0.743-4.116,2.087-8.145,3.572-11.518c2.658-6.116,7.716-16.518,15.547-15.318L211.675,73.278z M204.903,67.305
	c-7.602-13.746,0.371-30.493,14.489-32.322c-2.029,4.258-6.116,7.974-9.06,14.604C208.275,54.273,206.76,64.39,204.903,67.305
	L204.903,67.305z M188.156,26.495c2.715-3.944-0.286-9.031,3.744-11.574c3.943-2.486,6.916,1.172,8.517,3.629
	c2.715,4.258,8.888,14.804,7.029,20.005c-5.4-4.572-3.258-2.143-6.544-7.345c-4.772-7.516-3.029-5.373-5.63-5.801
	c7.602,14.032,9.945,13.975,6.659,20.577l-14.689-7.945l6.345,6.487c5.858,4.601,4.372-0.772,6.887,5.744
	c-7.516,6.659-10.06,1.229-14.832,5.03c10.888,1.4,4.401,0.886,13.575,0.057c-2.458,2.086-5.516,3.601-8.717,4.687
	c-10.431,3.572-10.831,2-19.061-1.715c12.374-22.348,6.659-13.375,4.687-27.207L188.156,26.495z M212.847,34.268l-1.543,2.315
	c-1.657-1.429-1.972,2.4-1.086-2.858c-2.829-6.659-5.658-14.432-9.745-19.291c-2.258-2.687-6.658-3.973-10.373-1.2l-3.458,11.717
	l-12.774,5.144c-0.429,15.318,9.716-0.143-5.144,29.493l30.207-0.085c3.601,7.487,2.314,11.031,13.346,17.804
	c9.659,5.944,48.011,22.463,58.327,20.805l13.546-4.144c1,5.745,4.315,11.26,7.602,14.747l14.803,5.773l-0.628-10.774
	c3.715-4.887,10.345-6.573,10.316-15.061c-0.058-12.632-2.772-4.058,3.772-21.234l-27.149,2.744
	c-1.229-1.686-1.028-2.601-1.886-4.973c-0.629-1.715-1.429-3.515-2.772-5.258C281.891,51.615,228.623,25.009,212.847,34.268
	L212.847,34.268z"/>
<path fill-rule="evenodd" clip-rule="evenodd" fill="#1B1B1B" d="M214.248,134.093c-2.629-2.629-2.114-1.144-2.801-7.945
	l8.202-2.287C219.334,130.663,217.048,130.263,214.248,134.093L214.248,134.093z M175.411,131.292
	c-1.772-12.917,7.745-30.865,15.804-34.751l1.686,14.432l-4.572-2.801l1.657,6.602l-1.514,0.486
	c-5.058,1.343-2.429-0.114-4.515,1.543l4.772,2.029l-6.944,4.716c4.344,2.229,2.915,0.314,6.573-0.172L175.411,131.292z
	 M219.477,112.516c-1.086-4.315-0.8-6.63,0.2-10.316C226.936,104.342,222.506,108.372,219.477,112.516L219.477,112.516z
	 M171.696,131.178c-2.144-0.515-5.059,0.972-2.029-11.375c1.629-6.544,5.315-15.833,9.316-20.948
	c3.344-4.287,3.258-3.687,7.859-5.401c0.6,1.257,0.972-0.4,0.286,1.686l-4.287,5.602c-2.515,3.401-3.229,4.458-5.258,8.831
	c-1.629,3.487-2.772,5.43-3.687,9.459c-0.429,2.029-0.714,3.858-0.915,5.916L171.696,131.178z M120.142,112.487
	c0.257,2.429,0.457,0.629-2.086,1c2.458,0.915,18.232,9.603,32.207,14.661c19.976,7.173,17.861,5.458,38.58,1.943
	c3.229,4.658,1.4,7.259,10.03,15.718c1.258-0.6,1.286,0.058,0.429-1.314c-1.4-6.173-8.43-9.774-8.115-20.405l13.374,11.488
	c-5.087-6.83-3.572-4.058-7.088-8.23c-1.8-2.144-4.915-5.716-6.001-8.716l15.347,4.229l-13.575-6.773l8.688-2.486
	c3.857-0.257,7.373,0.857,8.802-1.829l-15.632,0.714c6.458-4.229,13.146-9.402,21.661-9.545l0.801,18.433l-8.573,3.287
	c1.114,10.688,2.486,6.03-7.088,19.348c1.086,0.286,0.943-0.057,2.286,0.743c1.772-3.83,2.287-6.344,6.287-8.23
	c-3.429,4.201-0.371,6.744,0.058,12.117l-4.516,0.771c-0.343-0.029-1.343,0.057-1.457,0.143c-0.058,0.028-0.343,0.229-0.372,0.286
	c-0.057,0.029-0.143,0.257-0.199,0.4c0,0.686,6.601,3.144,8.63-0.6l-1.371-9.859c19.547-18.062,6.401-14.833,11.088-26.75
	l3.887-9.316l-27.292,2.172c-0.486-0.714-0.286,0-1.114-2.144c-1.086-2.858-0.572-3.287-2.63-6.344
	c-3.771-5.516-16.946-13.975-22.89-14.347c-4.801-1.343-1.658-0.371-2.772,0.743c4.344,1.886,9.145,3.687,12.975,6.802
	l-16.261,39.61l-24.891-8.288C134.859,119.26,125.371,114.088,120.142,112.487L120.142,112.487z"/>
<path fill-rule="evenodd" clip-rule="evenodd" fill="#FBCA0D" d="M148.462,312.394l-8.145,9.088c2.743,5.201,6.83,4.487,8.688,8.573
	l0.543,17.634c11.86,2.486,14.174-4.259,23.262-16.348c-5.458,2.658-4.887,6.716-12.117,6.259
	c4.344-6.201,2.972,1.286,10.259-12.432c-3.515-0.714-4.83-0.515-8.316-0.371c-1.314,0.086-3.915,0.257-5.144,0.143
	c-2.086-0.229-1.687-0.257-3.801-1.457l16.661-1.43c-0.515-10.374-4.058-4.144-16.432-15.289l16.432,7.345
	c1.029-5.315-2.343-6.602-5.544-8.945c-3.715-2.743-16.518-11.831-19.09-4.516C144.29,304.734,148.176,307.307,148.462,312.394
	L148.462,312.394z"/>
<path fill-rule="evenodd" clip-rule="evenodd" fill="#749795" d="M188.156,26.495l-12.031,4.63
	c1.972,13.832,7.688,4.858-4.687,27.207c8.23,3.715,8.63,5.287,19.061,1.715c3.201-1.086,6.259-2.601,8.717-4.687
	c-9.174,0.829-2.687,1.343-13.575-0.057c4.772-3.801,7.316,1.629,14.832-5.03c-2.515-6.516-1.028-1.143-6.887-5.744l-6.345-6.487
	l14.689,7.945c3.286-6.602,0.942-6.544-6.659-20.577c2.601,0.429,0.857-1.715,5.63,5.801c3.286,5.202,1.144,2.772,6.544,7.345
	c1.858-5.201-4.314-15.747-7.029-20.005c-1.601-2.458-4.573-6.116-8.517-3.629C187.871,17.464,190.872,22.551,188.156,26.495
	L188.156,26.495z"/>
<path fill-rule="evenodd" clip-rule="evenodd" fill="#4E897B" d="M108.31,82.137c1.229-5.887,1.058-6.659-2.4-11.488
	c-1.057-1.486-1.743-2.372-3-4.172c-1.943-2.858-1.543-2.258-0.829-5.602c0.229,0.171,0.543,0.171,0.629,0.543
	c0.086,0.372,0.486,0.429,0.6,0.572c0.686,0.771,0.771,0.886,1.458,1.8c3.315,4.401,3.715,5.716,6.401,10.688
	c4.744-2.687,1.601-5.773-0.743-11.403c-2.115-5.059-4.458-7.974-6.43-12.089l-9.974,11.546c-3.915,1.429-7.716-0.486-10.631,2.4
	c-3.629,3.601,0.229,6.345,1.171,9.917l-7.316,18.776c3.601,4.144,7.888,5.116,14.432,3.629c6.801-1.543,7.83-2.687,12.974-6.259
	l-13.06-0.4c6.23-2.658,1.886,1.857,14.689-4.03c-1.572-6.773-5.287-1.314-13.46-12.832L108.31,82.137z"/>
<path fill-rule="evenodd" clip-rule="evenodd" fill="#948CB6" d="M189.042,246.691c0.886-2.743,0.343-1.629,3.258-3.429
	c1.457-0.887,2.2-1.486,3.743-2.344c9.717-5.544,5.716-1.343,7.116-5.373l-25.063,9.46c5.658,9.717,2.629,5.973,8.087,7.259
	c4.401,1.058,2.744-0.372,6.63,13.518l16.175-0.771c4.515,2.4,5.486,6.259,11.145,7.688c3.144-10.202,6.631-15.347,0.829-25.635
	c-1.543-2.744-0.886-1.344-1.886-2.315l-0.972,13.461l-0.743-4.229c-0.028-1.372,0.057-2.63-0.058-4.145
	c-0.485-7.259-1.371-5.544-2.229-6.401c-12.518,10.803-7.401,10.746-13.432,12.975c1.829-3.429,8.03-13.632,8.316-15.317
	L189.042,246.691z"/>
<path fill-rule="evenodd" clip-rule="evenodd" fill="#CE9360" d="M50.469,108.515l-13.032,1.115
	c-2.886,5.63,2.801,9.117-2.886,15.318l-9.631,9.002l14.518,2c1.8-1.257-1.686-1.029,2.915-0.8c3.429,0.171,0.4,0.972,12.002,0.8
	c1.943-3.915-3.372-7.745-9.516-15.861c5.487,1.257,6.401,7.716,12.831,10.745c4.315-2.8,3.201-3.543,1.286-11.203
	c-1.886-7.516-2.829-5.03-1.257-9.974l6.173,16.118c3.801-3.172,2.972-3.544,2.058-10.002c-0.829-5.887-2.515-21.348-10.66-16.718
	C52.727,100.513,51.583,105.971,50.469,108.515L50.469,108.515z"/>
<path fill-rule="evenodd" clip-rule="evenodd" fill="#86D2DA" d="M309.726,265.325c0.657-5.315,3.687-8.002,6.401-12.317
	c1.286-2.058,1.314-2.087,0.972-3.372c-6.373,4.887-21.291,13.46-15.204,23.234l13.347-2.001l8.772,9.06
	c12.403-8.888,9.889-9.117,19.205-6.944c7.487,1.743,5.744,0.143,6.344-0.629l-13.546-23.178l5.173,12.317
	c-4.572-6.458-6.345-11.117-11.117-11.488l-4.029,17.033l0.372-16.519l-9.774,6.115
	C313.441,259.838,315.012,263.182,309.726,265.325L309.726,265.325z"/>
<path fill-rule="evenodd" clip-rule="evenodd" fill="#C66C35" d="M45.754,187.249l-13.403-1.029c-2.943,4.915-0.457-0.8-1.143,3.201
	c-1.943,11.06,2.687,7.115-15.089,18.118l28.092,7.603l2.029-2.544c-4.03-7.974-2.372-1.343-7.716-15.004
	c2.229,1.344,0.857,0.144,2.543,2.372l7.745,10.746l3.429-2.572c1.543-13.375-3.343-7.773,0.943-18.748l2.515,16.919
	c4.629-1.372,3.486-3.144,3.744-8.803c0.2-4.4,0.457-9.288-0.4-13.403c-0.8-3.772-3.115-7.202-7.602-5.03
	C49.126,180.189,47.64,184.905,45.754,187.249L45.754,187.249z"/>
<path fill-rule="evenodd" clip-rule="evenodd" fill="#3C3C3B" d="M117.255,109.486c-2-1.8-4.515-0.972-2.486-11.431
	c2.515-13.032,7.201-14.975,18.347-26.75c-1.829,2.543-3.801,4.315-5.887,7.087C119.827,88.31,117.998,96.541,117.255,109.486
	L117.255,109.486z M103.995,50.986c1.972,4.115,4.315,7.03,6.43,12.089c2.344,5.63,5.487,8.716,0.743,11.403
	c-2.686-4.973-3.086-6.288-6.401-10.688c-0.686-0.915-0.771-1.029-1.458-1.8c-0.114-0.143-0.514-0.2-0.6-0.572
	c-0.085-0.372-0.4-0.372-0.629-0.543c-0.714,3.344-1.114,2.744,0.829,5.602c1.257,1.8,1.943,2.686,3,4.172
	c3.458,4.83,3.629,5.602,2.4,11.488c2.744,0.572,1.829,0.943,1.315-2.143l0.085,1.257c5.544-3.972,4.03-8.402,14.803-10.088
	l-5.144,7.487c-1.343,2.372-2.686,4.83-3.772,7.316c-1.715,3.973-3.887,15.318-5.058,17.262c0.485,1.886,1.114,1.486-1.258,1.486
	c2.515,4.258,4.201,5.659,8.773,8.773c2.543-0.371,2.343,1.429,2.086-1c-0.257-19.977,5.029-26.921,15.946-40.267
	c7.001,0.486,27.834,8.345,33.436,11.574c1.115-1.114-2.029-2.086,2.772-0.743c-3.086-3.915-21.005-9.716-25.292-11.146
	c-15.375-5.115-14.203-3.744-30.778-1.686c-3.058-7.116-3.629-9.545-7.43-16.519c-1.8-3.315-0.743-2.372-4.687-4.458L103.995,50.986
	z"/>
<path fill-rule="evenodd" clip-rule="evenodd" fill="#4E897B" d="M199.301,144.495l2.601-0.486
	c9.574-13.317,8.202-8.659,7.088-19.348l8.573-3.287l-0.801-18.433c-8.516,0.143-15.203,5.316-21.661,9.545l15.632-0.714
	c-1.429,2.686-4.944,1.572-8.802,1.829l-8.688,2.486l13.575,6.773l-15.347-4.229c1.086,3,4.201,6.573,6.001,8.716
	c3.516,4.172,2.001,1.4,7.088,8.23l-13.374-11.488C190.872,134.721,197.901,138.322,199.301,144.495L199.301,144.495z"/>
<path fill-rule="evenodd" clip-rule="evenodd" fill="#948CB6" d="M245.597,155.698l0.743-15.575c2.086,2.772,0.601,6.03,0.972,8.974
	l2.086,8.774c5.688-8.231,0.829-6.659,8.773-13.003l-6.201,14.832c6.716-2.314,7.345-6.373,17.232-11.403
	c-3.372,7.631-7.173,6.23-12.003,12.26l21.091-9.202c-3.144-2.744-19.09-16.461-21.891-17.375l-19.09-0.372
	C237.881,140.523,240.911,152.24,245.597,155.698L245.597,155.698z"/>
<path fill-rule="evenodd" clip-rule="evenodd" fill="#FBCA0D" d="M262.744,296.418c-0.371,1.001-1.571,3.287-1.629,3.572
	c-0.628,3.572-1.457,1.001,0.972,2.486c1.658-4.258,7.974-8.116,12.46-8.545l-11.888,10.146c-0.972,1.715,1.2,1.4-1.058,1.4
	c0,1.829-0.372,1.144,1.886,1.2c1.801-0.371,3.658-0.714,5.487-1c4.344-0.743,3.086-0.715,7.201,0.657
	c-6.401,3.486-8.487,0.457-14.574,4.029l18.433,7.06c-3.572,1.485-10.659-1.229-16.261-2.687c6.544,8.23,7.544,7.401,18.89,12.632
	c0.372-4.145,2.172-26.378,1.687-29.093l-10.859-14.947C270.717,287.244,266.402,292.103,262.744,296.418L262.744,296.418z"/>
<path fill-rule="evenodd" clip-rule="evenodd" fill="#749795" d="M302.496,98.484c1.572-1.715,0.943-0.686,1.4-3.772
	c-6.059-6.401,5.372-8.145,7.773-9.288l-1.058-18.576c-5.087,1.543-18.719,4.229-21.404,9.259l7.544-1.086
	c8.773-0.972,8.03,1.458,8.03,1.458c-4.4,2-4.658,0.829-9.688,1.372c-3.63,0.4-5.115,0.629-7.002,2.658
	c7.602,3.201,11.06,3.315,12.946,7.431l-15.061-5.344l12.574,16.833c-5.315-3.829-5.744-3.515-9.574-8.03
	c-2.229-2.629-1.429-1.972-3.515-3.144c2.229,7.716,3.458,15.632,10.488,20.662L302.496,98.484z"/>
<path fill-rule="evenodd" clip-rule="evenodd" fill="#C66C35" d="M137.517,276.842c-5.516-1.4-18.204-4.258-23.119-0.686
	l14.203,7.459l-17.661-4.973c4.43,7.888,8.03,6.001,9.145,12.66c-5.744-3.372-2.572-1.172-6.001-5.001
	c-1.486-1.629-3.772-4.115-6.344-5.63c0.972,4.258,5.172,18.09,4.43,19.891c-6.573-12.261-3.287-8.146-6.173-14.404
	c-0.057-0.143-0.343-0.285-0.4-0.628c-0.057-0.372-0.257-0.429-0.4-0.629l0.057,23.463l6.23-4.744
	c1.943-0.943,5.973-1.286,7.03-2.943c2.058-3.229-0.314-5.974,4.058-7.116c3.744-0.972,3.487,1.172,8.402,0.371
	C135.059,280.757,133.659,286.073,137.517,276.842L137.517,276.842z"/>
<path fill-rule="evenodd" clip-rule="evenodd" fill="#86D2DA" d="M298.609,142.752l17.062,15.918l-6.974-14.775
	c5.63,2.458,2.801,8.745,11.86,14.375l0.457-15.089c3.372,4.772-0.972,8.516,3.458,15.347l7.63-18.262
	c0.715,0.829,1.543-1.458,1,3.458l-4.801,12.975l14.289-17.947l-14.518-2.429c-3.172,2.886-6.001,5.887-10.031,1.6l-3.086-3.458
	C308.811,135.35,306.868,140.494,298.609,142.752L298.609,142.752z"/>
<path fill-rule="evenodd" clip-rule="evenodd" fill="#CE9360" d="M143.89,200.052c9.688-2.572,8.116,6.459,12.288-19.348
	l-23.091,2.572l4.144,1.486c4.43,0.829,8.316,0.343,11.031,3.629l-17.318-1.372c5.315,7.745,8.43,5.144,10.488,10.974
	c-4.486-1.829-3.858-1.172-7.516-4.087c-2.515-2-3.201-3.458-6.173-4.229l4.172,10.26c1.057,2.258,3.572,4.887,3.886,6.973
	c0.343,2.087,0,1.058-0.428,2.029c-5.944-6.115-3.144-4.144-6.83-10.603l1.8,18.376l2.572-2.543c1.286-1.372,0.943-1.229,2.629-2.43
	c2.143-1.543,4.344-2.458,6.887-3.286L143.89,200.052z"/>
<path fill-rule="evenodd" clip-rule="evenodd" fill="#FFFFFF" d="M110.168,197.794l13.431-4.372l-6.087-1.001l7.916-2.801
	c-1.372-2.657-0.429-0.285-4.229-4.772l6.573,1.086l-0.2-7.402c3.972,1.772-1.515-1.343,4.144,4.001
	c4.287-5.487,5.03-1.429,2-14.604c-7.316,1.572-12.603,7.773-16.061,11.831C114.483,183.476,108.167,192.821,110.168,197.794
	L110.168,197.794z"/>
<path fill-rule="evenodd" clip-rule="evenodd" fill="#FFFFFF" d="M270.26,94.912l12.917-12.375c-2.943-0.943-0.429,0.4-4.801-2.029
	c2.114-1.029,2.857-0.8,6.029-1.029l-1.943-7.487l4.144,3.144c4.487-7.087,4.43-5.344-1.914-14.346
	C276.833,67.762,266.545,82.794,270.26,94.912L270.26,94.912z"/>
<path fill-rule="evenodd" clip-rule="evenodd" fill="#FFFFFF" d="M175.411,131.292l12.946-7.917
	c-3.658,0.486-2.229,2.401-6.573,0.172l6.944-4.716l-4.772-2.029c2.086-1.658-0.543-0.2,4.515-1.543l1.514-0.486l-1.657-6.602
	l4.572,2.801l-1.686-14.432C183.155,100.427,173.639,118.375,175.411,131.292L175.411,131.292z"/>
<path fill-rule="evenodd" clip-rule="evenodd" fill="#FFFFFF" d="M211.675,73.278l16.29-37.924
	c-7.831-1.2-12.889,9.202-15.547,15.318c-1.485,3.373-2.829,7.402-3.572,11.518C207.79,68.248,207.075,70.906,211.675,73.278
	L211.675,73.278z"/>
<path fill-rule="evenodd" clip-rule="evenodd" fill="#FFFFFF" d="M257.686,169.53c-4.029-3.372-4.315-2.829-4.287-6.516
	l-4.029,4.058l-0.743-6.23l-7.916,0.943l2.915-3.629l-14.117,0.972c2.887,7.288,20.318,17.833,33.693,17.69l-7.23-13.746
	L257.686,169.53z"/>
<path fill-rule="evenodd" clip-rule="evenodd" fill="#FFFFFF" d="M304.982,231.402c1.657,7.573,14.231,7.773,21.09,7.516
	c7.145-0.257,18.947-0.686,20.72-8.63L304.982,231.402z"/>
<path fill-rule="evenodd" clip-rule="evenodd" fill="#1B1B1B" d="M109.282,104.714c2.372,0,1.743,0.4,1.258-1.486
	c-5.516-11.803-1.801-11.717-0.829-21.977l-0.085-1.257c0.514,3.086,1.429,2.715-1.315,2.143l-15.489-8.402
	c8.173,11.517,11.888,6.059,13.46,12.832c-12.803,5.887-8.459,1.372-14.689,4.03l13.06,0.4c-5.144,3.572-6.173,4.716-12.974,6.259
	c-6.544,1.486-10.831,0.515-14.432-3.629l7.316-18.776c-0.943-3.572-4.801-6.316-1.171-9.917c2.915-2.886,6.716-0.972,10.631-2.4
	l9.974-11.546l0.114-1.743c0.743-2.744-6.173-1.972-8.259-0.171l-3.058,11.317L79.99,65.39c-1.857,15.29,9.917-0.286-5.087,29.236
	l30.207,1.029C106.367,99.341,106.967,103.028,109.282,104.714L109.282,104.714z"/>
<path fill-rule="evenodd" clip-rule="evenodd" fill="#FFFFFF" d="M308.697,239.29c2.601,6.888,11.346,9.06,18.404,8.659
	c8.431-0.485,13.889-3.858,16.604-9.46L308.697,239.29z"/>
<path fill-rule="evenodd" clip-rule="evenodd" fill="#FFFFFF" d="M258.744,307.707c-1.601-0.943-1.687-0.915-3.373-2.286
	c-0.714-0.601-1.828-1.658-2.343-2.087c3.029-2.058,2.972-0.857,4.63-0.6l-0.2-7.488l-8.917-3.601l4.602,37.01l7.345-13.175
	l-5.315,3.857l3.972-7.773c-4.058,0.058-0.743,1.029-5.63-0.171C255.171,309.536,256.028,308.879,258.744,307.707L258.744,307.707z"
	/>
<path fill-rule="evenodd" clip-rule="evenodd" fill="#FFFFFF" d="M204.903,67.305c1.857-2.915,3.372-13.032,5.43-17.719
	c2.943-6.63,7.03-10.345,9.06-14.604C205.274,36.812,197.301,53.559,204.903,67.305L204.903,67.305z"/>
<path fill-rule="evenodd" clip-rule="evenodd" fill="#FFFFFF" d="M251.227,330.483c-8.345-21.091-6.716-10.488-5.63-40.152
	c-4.144,0.2-3.086-1.114-4.486,2.801c-3.058,8.517,0.485,30.407,5.229,36.438C248.598,332.456,247.684,331.655,251.227,330.483
	L251.227,330.483z"/>
<path fill-rule="evenodd" clip-rule="evenodd" fill="#FFFFFF" d="M184.384,338.314c-5.03-12.003-6.316-20.948-4.43-35.037
	C167.809,309.308,171.438,333.971,184.384,338.314L184.384,338.314z"/>
<path fill-rule="evenodd" clip-rule="evenodd" fill="#FFFFFF" d="M54.841,153.012c3.629-5.745,5.43-11.06,9.316-15.575
	c4.43-5.145,7.859-8.06,13.375-12.146C63.215,123.204,50.297,138.437,54.841,153.012L54.841,153.012z"/>
<path fill-rule="evenodd" clip-rule="evenodd" fill="#FFFFFF" d="M112.168,273.527c4.801-2.144,7.773-1.4,4.858-13.375
	L88.62,285.501l14.375-1.343c-4.172-2.144-4.086-1.343-5.258-3.029l8.173-1.344c-3.029-2.943-3.086-2.371-3.972-4.973l6.573,1.687
	l0.372-6.973C113.111,273.413,110.711,271.412,112.168,273.527L112.168,273.527z"/>
<path fill-rule="evenodd" clip-rule="evenodd" fill="#FFFFFF" d="M226.822,238.09c-10.831-2.772-19.032-8.174-26.634-15.29
	c-0.4,14.318,16.86,22.721,31.206,17.262L226.822,238.09z"/>
<path fill-rule="evenodd" clip-rule="evenodd" fill="#FFFFFF" d="M238.082,233.26c-30.979-8.859-18.004-3.115-37.065-18.519
	C197.558,225.001,232.738,243.233,238.082,233.26L238.082,233.26z"/>
<path fill-rule="evenodd" clip-rule="evenodd" fill="#FFFFFF" d="M109.71,81.251c-0.972,10.26-4.687,10.174,0.829,21.977
	c1.171-1.943,3.343-13.289,5.058-17.262c1.086-2.486,2.429-4.944,3.772-7.316l5.144-7.487
	C113.74,72.849,115.254,77.279,109.71,81.251L109.71,81.251z"/>
<path fill-rule="evenodd" clip-rule="evenodd" fill="#FFFFFF" d="M266.516,95.026c3.973-9.402-4.629-10.46,15.746-36.752
	l-1.657-1.743c-8.83,3.315-17.032,22.72-17.461,33.123C262.887,95.283,262.773,94.369,266.516,95.026L266.516,95.026z"/>
<path fill-rule="evenodd" clip-rule="evenodd" fill="#FFFFFF" d="M41.896,230.402c5.344-3.258,8.802-12.718,23.091-19.576
	l4.258-2.63C53.87,204.596,42.125,216.799,41.896,230.402L41.896,230.402z"/>
<path fill-rule="evenodd" clip-rule="evenodd" fill="#FFFFFF" d="M233.794,167.672c-2.343-2.201-3.4-4.715-7.572-5.63
	c-1.086,2.572-1.001,3.086,0.886,5.172c6.344,7.002,14.688,11.289,24.005,14.347c7.517,2.458,9.659,2.629,11.803-0.229
	C251.942,176.074,244.283,177.417,233.794,167.672L233.794,167.672z"/>
<path fill-rule="evenodd" clip-rule="evenodd" fill="#FFFFFF" d="M105.109,196.251c4.487-1.601,0.143-0.457,4.858-9.088
	c7.03-12.86,10.059-14.26,21.176-21.977c-4.001-9.06-23.148,13.917-27.063,25.235C102.566,194.793,102.252,194.107,105.109,196.251
	L105.109,196.251z"/>
<path fill-rule="evenodd" clip-rule="evenodd" fill="#FFFFFF" d="M58.671,160.271c6.201-7.516,0.886-15.061,26.863-32.037
	c-4.229-2.886-7.287-0.028-10.859,2.543C67.559,135.893,53.984,151.24,58.671,160.271L58.671,160.271z"/>
<path fill-rule="evenodd" clip-rule="evenodd" fill="#FFFFFF" d="M172.981,124.947c0.2-2.058,0.486-3.886,0.915-5.916
	c0.915-4.03,2.058-5.973,3.687-9.459c2.029-4.373,2.744-5.43,5.258-8.831l4.287-5.602c0.686-2.086,0.314-0.429-0.286-1.686
	c-4.601,1.715-4.515,1.114-7.859,5.401c-4.001,5.115-7.688,14.403-9.316,20.948c-3.029,12.346-0.114,10.86,2.029,11.375
	L172.981,124.947z"/>
<path fill-rule="evenodd" clip-rule="evenodd" fill="#FFFFFF" d="M302.467,172.759c-1.314,10.117,30.406,6.373,33.093,4.916
	l7.573-6.773c-7.23,1.229-9.888,4.201-20.119,4.629C315.356,175.875,306.068,172.359,302.467,172.759L302.467,172.759z"/>
<path fill-rule="evenodd" clip-rule="evenodd" fill="#FFFFFF" d="M332.673,164.872l-8.744-3.629
	c0.972,3.029,0.914,1.658,0.085,5.287l-2.457-4.687l-7.145,4.344l1.829-4.916l-12.488,7.974l37.351-1.029l-12.06-8.745
	C330.616,163.071,331.559,161.442,332.673,164.872L332.673,164.872z"/>
<path fill-rule="evenodd" clip-rule="evenodd" fill="#FFFFFF" d="M192.729,340.344c-5.116-9.402-8.002-18.405-7.145-30.008
	c0.571-7.773,1.314-2.086-0.172-10.917C177.868,306.649,180.869,339.172,192.729,340.344L192.729,340.344z"/>
<path fill-rule="evenodd" clip-rule="evenodd" fill="#FFFFFF" d="M45.296,239.461c4.373-7.001,7.087-11.603,12.803-16.489
	c5.573-4.772,11.746-7.202,18.519-10.374c-6.802-6.487-23.777,9.23-29.006,16.062C45.125,231.945,42.324,234.917,45.296,239.461
	L45.296,239.461z"/>
<path fill-rule="evenodd" clip-rule="evenodd" fill="#FFFFFF" d="M84.734,283.101c4.058-1.771,1.629-2.114,6.516-8.745
	c11.259-15.203,21.805-13.774,23.919-18.433c-5.716-0.715-5.601-1.458-11.174,1.943c-5.173,3.115-13.174,10.374-16.804,15.461
	C81.59,281.157,82.99,281.157,84.734,283.101L84.734,283.101z"/>
<path fill-rule="evenodd" clip-rule="evenodd" fill="#FFFFFF" d="M139.346,213.427c7.087-4.888,13.375-4.544,14.203-11.746
	l-9.116,0.543l-5.059,10.374c-3.4,1.601-5.916,4.087-6.744,8.116l5.63,2.715L139.346,213.427z"/>
<path fill-rule="evenodd" clip-rule="evenodd" fill="#FFFFFF" d="M117.255,109.486c0.743-12.946,2.572-21.176,9.974-31.093
	c2.086-2.772,4.058-4.544,5.887-7.087c-11.146,11.774-15.832,13.718-18.347,26.75C112.74,108.515,115.254,107.686,117.255,109.486
	L117.255,109.486z"/>
<path fill-rule="evenodd" clip-rule="evenodd" fill="#3C3C3B" d="M257.458,295.246l0.2,7.488c-1.658-0.258-1.601-1.458-4.63,0.6
	c0.515,0.429,1.629,1.486,2.343,2.087c1.687,1.371,1.772,1.343,3.373,2.286c0.942-0.771,0.657-1.229,0.714,0.657
	c8.145,0,0.886,0.314,4.029-1.687c-2.258-0.057-1.886,0.629-1.886-1.2c2.258,0,0.086,0.314,1.058-1.4l-2.572-0.028
	c5.001,0.686,0.343,0.2,2-1.572c-2.429-1.485-1.6,1.086-0.972-2.486c0.058-0.285,1.258-2.571,1.629-3.572l-1.028-1.515l-2.687,0.314
	C258.286,296.532,258.829,296.818,257.458,295.246L257.458,295.246z"/>
<path fill-rule="evenodd" clip-rule="evenodd" fill="#FFFFFF" d="M119.684,303.763c5.744-0.057,9.745-2.229,11.574-6.744
	l-9.145-1.229C120.884,300.419,122.914,302.791,119.684,303.763L119.684,303.763z"/>
<path fill-rule="evenodd" clip-rule="evenodd" fill="#FFFFFF" d="M214.248,134.093c2.801-3.83,5.087-3.43,5.401-10.231l-8.202,2.287
	C212.133,132.949,211.619,131.463,214.248,134.093L214.248,134.093z"/>
<path fill-rule="evenodd" clip-rule="evenodd" fill="#FFFFFF" d="M307.068,97.083l0.028,1.343c3.059-2.601,6.373-4.487,6.688-10.688
	C304.497,91.425,304.01,86.767,307.068,97.083L307.068,97.083z"/>
<path fill-rule="evenodd" clip-rule="evenodd" fill="#FFFFFF" d="M286.121,327.14c3.344,1.144,2.857,1.286,6.145-1.143
	c-2.258-7.059-5.287-0.571-5.916-11.26C284.492,319.253,283.434,323.082,286.121,327.14L286.121,327.14z"/>
<path fill-rule="evenodd" clip-rule="evenodd" fill="#FFFFFF" d="M204.188,144.752c0.286,2.687,0.601,2.972,1.829,4.658l4.516-0.771
	c-0.429-5.373-3.486-7.917-0.058-12.117C206.475,138.408,205.96,140.923,204.188,144.752L204.188,144.752z"/>
<path fill-rule="evenodd" clip-rule="evenodd" fill="#FFFFFF" d="M331.587,134.35c3.83,2.144,7.431,3.258,11.746,0.686
	c1.457-3.201,0.771-3.658-1.144-5.944C337.247,130.92,339.189,133.979,331.587,134.35L331.587,134.35z"/>
<path fill-rule="evenodd" clip-rule="evenodd" fill="#FFFFFF" d="M112.482,315.537c1.915-6.145-0.057-8.631,5.602-10.803
	c-5.602,0.314-9.202,2.63-10.746,6.659C108.539,314.137,109.11,314.537,112.482,315.537L112.482,315.537z"/>
<path fill-rule="evenodd" clip-rule="evenodd" fill="#FFFFFF" d="M315.956,131.006l7.259,6.801l4.315-5.944
	c-1.886-0.429-4.258-1.372-5.83-1.6C320.128,130.035,316.47,130.463,315.956,131.006L315.956,131.006z"/>
<path fill-rule="evenodd" clip-rule="evenodd" fill="#FFFFFF" d="M303.81,102.056l-1.972-0.2c-0.314,3.315-3.915,3.772-2.943,9.917
	l5.801,1.572C304.467,108.058,302.752,106.972,303.81,102.056L303.81,102.056z"/>
<path fill-rule="evenodd" clip-rule="evenodd" fill="#FFFFFF" d="M281.949,306.335c1.257,2.658,2.086,2.43,5.858,5.487l0.485-11.003
	c-0.2-0.028-0.543-0.286-0.629-0.028l-2.771,1.686C283.663,303.592,282.749,304.22,281.949,306.335L281.949,306.335z"/>
<path fill-rule="evenodd" clip-rule="evenodd" fill="#FFFFFF" d="M237.453,128.891c1.657,4.173,5.344,3.315,9.859,2.83
	C245.883,130.292,239.053,123.29,237.453,128.891L237.453,128.891z"/>
<path fill-rule="evenodd" clip-rule="evenodd" fill="#1B1B1B" d="M262.086,302.477c-1.657,1.772,3.001,2.258-2,1.572l2.572,0.028
	l11.888-10.146C270.06,294.36,263.745,298.219,262.086,302.477L262.086,302.477z"/>
<path fill-rule="evenodd" clip-rule="evenodd" fill="#FFFFFF" d="M219.477,112.516c3.029-4.144,7.459-8.173,0.2-10.316
	C218.677,105.886,218.391,108.201,219.477,112.516L219.477,112.516z"/>
<path fill-rule="evenodd" clip-rule="evenodd" fill="#FFFFFF" d="M281.577,289.931c0.172-2.601,0.943-13.803-3.857-8.773
	C275.233,283.729,280.234,288.816,281.577,289.931L281.577,289.931z"/>
<path fill-rule="evenodd" clip-rule="evenodd" fill="#FFFFFF" d="M136.088,286.673c4.687-1.829,7.688-2.657,6.516-7.659
	C137.431,279.242,137.316,281.215,136.088,286.673L136.088,286.673z"/>
<path fill-rule="evenodd" clip-rule="evenodd" fill="#FFFFFF" d="M313.184,76.45c0.628-0.714,3.229-4.201,3.743-5.144
	c1.943-3.486,0.886-4.315-2.743-4.515C312.241,69.962,312.555,72.077,313.184,76.45L313.184,76.45z"/>
<path fill-rule="evenodd" clip-rule="evenodd" fill="#FFFFFF" d="M296.609,139.237c4.058,1.286,7.059-0.458,9.088-3.115
	C301.039,135.693,294.78,133.207,296.609,139.237L296.609,139.237z"/>
<path fill-rule="evenodd" clip-rule="evenodd" fill="#FFFFFF" d="M156.892,191.078c3.258-4.458,6.487-2.944,5.23-8.288
	c-3.687-0.886-2.801-1.458-4.43,1.657C156.664,186.391,156.635,188.877,156.892,191.078L156.892,191.078z"/>
<path fill-rule="evenodd" clip-rule="evenodd" fill="#3C3C3B" d="M198.873,145.81c2.001,2.887,1.4,3.001,5.116,4.43
	c0.057-0.143,0.143-0.371,0.199-0.4c0.029-0.057,0.314-0.257,0.372-0.286c0.114-0.086,1.114-0.172,1.457-0.143
	c-1.229-1.686-1.543-1.972-1.829-4.658c-1.343-0.8-1.2-0.458-2.286-0.743l-2.601,0.486
	C200.159,145.867,200.13,145.209,198.873,145.81L198.873,145.81z"/>
<path fill-rule="evenodd" clip-rule="evenodd" fill="#5B5B5B" d="M302.496,98.484c3.572,0.114,1.058-1.058,3.087,0.886
	c-6.487,1.086-2.001-0.171-3.744,2.486l1.972,0.2c2.001-0.372,1.2,0.543,2.915-0.572l0.371-3.058l-0.028-1.343l-1.914,1.486
	c0-7.03,0.313-1.886-1.258-3.858C303.439,97.798,304.068,96.769,302.496,98.484L302.496,98.484z"/>
<polygon fill-rule="evenodd" clip-rule="evenodd" fill="#3C3C3B" points="5.888,237.146 8.403,237.061 7.517,232.745 5.03,233.889 
	"/>
<path fill-rule="evenodd" clip-rule="evenodd" fill="#FFFFFF" d="M260.658,140.551c12.231-1.343,8.573-0.943,22.634,1.972
	c-13.917,0.886-4.716,4.916-24.948-10.688L260.658,140.551z"/>
<path fill-rule="evenodd" clip-rule="evenodd" fill="#7B7B7B" d="M212.847,34.268l-2.629-0.543
	c-0.886,5.258-0.571,1.429,1.086,2.858L212.847,34.268z"/>
<path fill-rule="evenodd" clip-rule="evenodd" fill="#7B7B7B" d="M242.711,334.027l2.686-1.629l-1.485-1.829
	C243.683,332.941,243.912,332.37,242.711,334.027L242.711,334.027z"/>
</svg>
