<?xml version="1.0" encoding="utf-8"?>
<!-- Generator: Adobe Illustrator 15.0.0, SVG Export Plug-In  -->
<!DOCTYPE svg PUBLIC "-//W3C//DTD SVG 1.1//EN" "http://www.w3.org/Graphics/SVG/1.1/DTD/svg11.dtd" [
	<!ENTITY ns_flows "http://ns.adobe.com/Flows/1.0/">
]>
<svg version="1.1"
	 xmlns="http://www.w3.org/2000/svg" xmlns:xlink="http://www.w3.org/1999/xlink" xmlns:a="http://ns.adobe.com/AdobeSVGViewerExtensions/3.0/"
	 x="0px" y="0px" width="378px" height="379px" viewBox="2.384 1.704 378 379" enable-background="new 2.384 1.704 378 379"
	 xml:space="preserve">
<defs>
</defs>
<path fill-rule="evenodd" clip-rule="evenodd" fill="#F05B74" d="M153.535,352.741c-3.915-4.801,0.771-32.836-1.915-44.354
	l-3.115-0.886c17.461-17.976,8.116-8.202,10.917-28.493l12.117-0.057l0.686,7.059c4.629-3.086,5.258-3.144,9.087-7.116
	c6.659,5.03,30.921,23.092,34.694,28.179l-2.801,1.486c-4.229,3.743,0.257,36.952-2.229,43.868
	C200.374,353.799,159.022,354.113,153.535,352.741L153.535,352.741z M248.156,263.434c1.771-1.657,7.744-6.401,9.717-7.916
	l0.457-18.604l11.859-0.086l0.943,7.202l9.316-7.002c17.118,13.032,19.689,14.946,34.293,27.722l-4.201,3.029l-0.571,42.581
	c-4.058,0.086-51.64,1.315-55.555,0.486c-2.544-0.515-0.771,0.172-2.286-0.943l-0.743-42.782l-4.401-1.057
	C246.527,262.063,246.641,264.605,248.156,263.434L248.156,263.434z M64.201,217.623h2.144c0.829-2.115,5.058-5.859,8.373-7.116
	c6.116,4.915,30.092,23.52,33.493,28.063c-4.172,1.915-3.544,1.715-4.058,3.259c-1.029,2.943,1.572,35.665-0.657,42.61
	l-57.556,0.057l-1.029-43.925l-4.258-1.543c16.204-16.29,8.916-6.916,10.917-28.521l12.774-0.086L64.201,217.623z M355.179,169.954
	c3.687,1.772,4.858,2.543,6.001,6.145l-4.115,2l-0.028,33.266c0.114,9.402,0.915,8.745-1.972,9.802l-56.27,0.172l-0.457-39.324
	c0.028-8.23-2.772-3.115-4.201-8.43l10.174-7.488l0.457-18.776l12.432-0.114l0.8,7.544l9.831-7.402
	C334.717,152.95,349.263,164.41,355.179,169.954L355.179,169.954z M101.952,127.572c3.858,1.515,4.144,0.829,5.401,4.458
	l-2.201,1.029c-4.915,2.115,1.058-0.743-1.8,0.714l-0.229,44.182l-58.384-0.114c-0.085-4.315,0.515-41.381-1.314-43.954
	c-2.086-2.972-2.115,0-3.144-3.486l10.202-7.516l0.086-19.062l12.917-0.314l0.714,5.744l10.917-5.744
	c8.031,7.173,16.375,15.032,24.691,21.405C103.21,127.543,101.638,125.171,101.952,127.572L101.952,127.572z M246.184,46.581
	l12.231-0.114l1.143,7.488l9.803-7.374l12.803,9.917c2.114,1.658,1.829,1.201,3.886,3.172c3.602,3.401,13.203,11.346,16.947,13.346
	c-3.201,3.601-2.687,2.086-3.715,4.03c-1.172,2.2,0.313,34.809-0.715,43.496l-58.27,0.086l-0.314-38.353
	c0.028-1.686,0.171-4.001-0.515-5.229c-1.258-2.287,0.943,0.457-1.515-1.458c-4.887-3.801,3.4,3.458-2.2-1.258l10.23-9.031
	L246.184,46.581z M163.108,38.722c3.344,0.972,8.602,5.83,12.031,8.802c2.744,2.372,8.859,6.63,11.06,9.66l-4.086,2.029
	l0.114,44.325c-3.086,0.171-54.555,0.943-57.927-1.229l-0.743-37.152c0.028-9.431-2.972-5.43-3.658-7.602
	c-0.114-0.343-0.514-0.2-0.714-0.372l5.116-4.916c11.488-9.745,1.2-14.546,6.201-21.948l11.345-0.972l1.286,6.888
	c4.344-3.058,7.145-6.03,10.259-6.888C158.65,33.549,161.422,34.578,163.108,38.722L163.108,38.722z M128.415,367.745
	c3.029,0.286,3.201-0.229,4.801,2.087c11.746,0.657,34.636,13.26,82.704,6.602c39.809-5.545,67.644-20.52,96.792-43.154
	c4.63-3.601,19.319-19.376,23.12-24.234c13.202-16.89,24.605-34.951,32.979-60.672c16.889-51.984,8.63-111.17-16.175-152.523
	C298.252,5.313,186.571-24.751,96.866,26.918C60.8,47.667,28.136,81.932,12.275,129.772c-21.662,65.53-6.544,130.433,33.636,179.873
	C66.001,334.365,98.237,358.771,128.415,367.745L128.415,367.745z"/>
<path fill-rule="evenodd" clip-rule="evenodd" fill="#292929" d="M127.615,369.003l2.086,0.086l-1.286-1.344
	c-30.178-8.974-62.414-33.38-82.503-58.1c-40.18-49.44-55.298-114.343-33.636-179.873C28.136,81.932,60.8,47.667,96.866,26.918
	c89.705-51.67,201.387-21.605,255.771,68.931c24.805,41.354,33.063,100.539,16.175,152.523
	c-8.373,25.721-19.776,43.782-32.979,60.672c-3.801,4.858-18.49,20.634-23.12,24.234c-29.148,22.635-56.983,37.609-96.792,43.154
	c-48.068,6.658-70.958-5.944-82.704-6.602l-0.429,1.686c63.186,23.549,145.518-0.114,187.984-42.324
	c2.229-2.201,2.657-3.572,5.601-6.431c19.747-19.005,34.465-43.668,44.696-73.332c17.604-50.984,8.973-113.228-16.204-154.724
	C346.32,80.646,344.691,79.389,335.26,66.9c-6.458-8.574-15.803-16.347-23.891-23.492c-13.66-12.031-38.951-27.035-60.756-34.037
	C150.077-22.865,42.139,30.777,10.161,128.687C-7.929,184.1-1.127,237.885,24.707,283.438c3.086,5.431,5.944,9.831,9.374,14.861
	c11.088,16.29,19.519,24.092,33.464,37.152C75.661,343.082,112.84,368.146,127.615,369.003L127.615,369.003z"/>
<path fill-rule="evenodd" clip-rule="evenodd" fill="#CE9360" d="M61.629,142.004l24.062-0.057l0.172,24.949l-24.263-0.314
	L61.629,142.004z M46.626,175.555l53.955,0.114l0.429-42.41l-54.326,0.114L46.626,175.555z"/>
<path fill-rule="evenodd" clip-rule="evenodd" fill="#F9B9BD" d="M62.658,248.83l24.205,0.029l-0.429,24.777l-22.833-0.543
	c-0.457-0.801-0.657-0.601-0.972-2.344C62.086,268.007,62.572,251.745,62.658,248.83L62.658,248.83z M47.541,281.81l54.383,0.458
	l-0.572-42.297l-53.869-0.199L47.541,281.81z"/>
<path fill-rule="evenodd" clip-rule="evenodd" fill="#86D2DA" d="M257.3,84.761l24.063-0.372l0.429,24.978l-24.405-0.172
	L257.3,84.761z M242.355,118.112l53.897,0.172l0.371-42.325l-54.326,0.114L242.355,118.112z"/>
<path fill-rule="evenodd" clip-rule="evenodd" fill="#D6B46B" d="M268.932,275.008l23.805,0.715l0.058,23.491l-23.92,0.829
	L268.932,275.008z M253.958,308.273l53.954,0.028l-0.143-41.81l-53.783-0.144L253.958,308.273z"/>
<path fill-rule="evenodd" clip-rule="evenodd" fill="#F9B9BD" d="M315.427,185.3l24.177,0.486l-0.143,24.492l-24.091-0.058
	L315.427,185.3z M300.739,218.251l53.412,0.286l-0.058-41.667h-53.526L300.739,218.251z"/>
<path fill-rule="evenodd" clip-rule="evenodd" fill="#CE9360" d="M169.938,317.619c4.544-1.172,19.719-1.115,24.292,0.028
	l-0.029,24.063c-3.829,1.115-19.775,0.715-24.376,0.086L169.938,317.619z M155.192,350.455l53.64,0.029l0.2-41.496l-53.64-0.2
	L155.192,350.455z"/>
<path fill-rule="evenodd" clip-rule="evenodd" fill="#D6B46B" d="M164.966,91.449l-1.372,1.2l-11.202-0.286l-11.174-0.028
	l-0.372-24.863l23.776-0.229L164.966,91.449z M126.358,100.623l46.724,0.429l6.316-0.029V59.927l-53.269-1.172L126.358,100.623z"/>
<path fill-rule="evenodd" clip-rule="evenodd" fill="#292929" d="M242.297,76.074l54.326-0.114l-0.371,42.325l-53.897-0.172
	L242.297,76.074z M240.811,73.273c2.001-3.315,26.606-22.548,28.55-23.663c4.229,3.201,26.377,20.462,28.663,23.777L240.811,73.273z
	 M248.328,49.124l8.688-0.314l-0.029,7.516c-1.399,1.172-6.486,5.43-8.602,6.087L248.328,49.124z M245.984,65.299l-10.23,9.031
	c5.601,4.716-2.687-2.543,2.2,1.258c2.458,1.915,0.257-0.829,1.515,1.458c0.686,1.229,0.543,3.543,0.515,5.229l0.314,38.353
	l58.27-0.086c1.028-8.688-0.457-41.296,0.715-43.496c1.028-1.943,0.514-0.429,3.715-4.03c-3.744-2-13.346-9.945-16.947-13.346
	c-2.057-1.972-1.771-1.515-3.886-3.172l-12.803-9.917l-9.803,7.374l-1.143-7.488l-12.231,0.114L245.984,65.299z"/>
<path fill-rule="evenodd" clip-rule="evenodd" fill="#292929" d="M47.483,239.771l53.869,0.199l0.572,42.297l-54.383-0.458
	L47.483,239.771z M53.685,212.707l8.259,0.172c1.086,8.545-2.601,10.574-8.344,13.718L53.685,212.707z M66.345,217.623
	c0.543,2.486-0.029,1.743,1.457,0.828c2.887-1.686,3.916-3.2,6.916-4.715c5.973,4.801,25.892,20.062,28.463,23.777l-56.898-0.2
	l17.347-15.89l-0.686-1.972c0.743-2.544-0.629-2.229,1.257-1.829l0.143-7.202l-12.774,0.086c-2,21.605,5.287,12.231-10.917,28.521
	l4.258,1.543l1.029,43.925l57.556-0.057c2.229-6.945-0.372-39.667,0.657-42.61c0.514-1.544-0.114-1.344,4.058-3.259
	c-3.401-4.544-27.377-23.148-33.493-28.063C71.403,211.764,67.173,215.508,66.345,217.623L66.345,217.623z"/>
<path fill-rule="evenodd" clip-rule="evenodd" fill="#292929" d="M46.683,133.374l54.326-0.114l-0.429,42.41l-53.955-0.114
	L46.683,133.374z M53.656,119.542c-1.315,0.743,0.028,1.429-1.086,0.114v-14.175c10.031-0.4,8.03-0.143,8.887,2.086l0.115,5.944
	C58.372,115.455,56.857,118.027,53.656,119.542L53.656,119.542z M107.354,132.03c-2.429,0.6-1.172,0.771-3.401,0.4
	c-3.029-0.514-1.114,0.314-2.629-1.829l-56.241-0.057c5.916-5.058,24.234-21.805,29.835-24.12l27.492,23.406l-0.458-2.258
	c-0.314-2.4,1.258-0.028-2.143-2.658c-8.316-6.373-16.661-14.232-24.691-21.405l-10.917,5.744l-0.714-5.744l-12.917,0.314
	l-0.086,19.062l-10.202,7.516c1.029,3.486,1.057,0.514,3.144,3.486c1.829,2.572,1.229,39.639,1.314,43.954l58.384,0.114
	l0.229-44.182c2.858-1.458-3.115,1.4,1.8-0.714L107.354,132.03z"/>
<path fill-rule="evenodd" clip-rule="evenodd" fill="#86D2DA" d="M101.324,130.601l1.086-0.771l-27.492-23.406
	c-5.602,2.315-23.919,19.062-29.835,24.12L101.324,130.601z"/>
<path fill-rule="evenodd" clip-rule="evenodd" fill="#F9B9BD" d="M153.478,305.93l57.47,0.029
	c-1.486-2.001-24.005-20.548-28.063-23.978C179.684,283.496,154.592,303.415,153.478,305.93L153.478,305.93z"/>
<path fill-rule="evenodd" clip-rule="evenodd" fill="#D6B46B" d="M240.811,73.273l57.213,0.114
	c-2.286-3.315-24.434-20.577-28.663-23.777C267.417,50.725,242.812,69.958,240.811,73.273L240.811,73.273z"/>
<path fill-rule="evenodd" clip-rule="evenodd" fill="#D6B46B" d="M67.802,218.451l-4.172,2.973l-17.347,15.89l56.898,0.2
	c-2.572-3.716-22.491-18.977-28.463-23.777C71.717,215.251,70.688,216.766,67.802,218.451L67.802,218.451z"/>
<path fill-rule="evenodd" clip-rule="evenodd" fill="#292929" d="M307.769,266.492c2.114,4.658,0.771,37.438,0.714,42.438
	l-51.297,0.629c-5.486-0.515-1.629-0.172-3.229-1.286l0.028-41.925L307.769,266.492z M252.5,263.605
	c3.515-3.258,25.749-22.291,28.949-23.491l28.092,23.634C291.051,264.349,271.161,263.92,252.5,263.605L252.5,263.605z
	 M260.129,239.399l8.459-0.229c0,12.403-2.743,8.202-8.287,14.032L260.129,239.399z M248.156,263.434l-0.886,2.63
	c4.772-0.229,2.429-0.314,4.115,1.057l0.743,42.782c1.515,1.115-0.258,0.429,2.286,0.943c3.915,0.829,51.497-0.4,55.555-0.486
	l0.571-42.581l4.201-3.029c-14.604-12.775-17.175-14.689-34.293-27.722l-9.316,7.002l-0.943-7.202l-11.859,0.086l-0.457,18.604
	C255.9,257.032,249.927,261.776,248.156,263.434L248.156,263.434z"/>
<path fill-rule="evenodd" clip-rule="evenodd" fill="#CE9360" d="M252.5,263.605c18.661,0.314,38.552,0.743,57.041,0.143
	l-28.092-23.634C278.249,241.314,256.014,260.348,252.5,263.605L252.5,263.605z"/>
<path fill-rule="evenodd" clip-rule="evenodd" fill="#86D2DA" d="M299.424,172.555c0.886,1.314-0.114,1.714,6.201,1.657
	c2.372-0.028,4.658-0.114,7.087-0.085l42.781-0.229l-1.086-2.543c-4.344-1.686-21.576-16.833-26.577-21.005
	C321.286,153.979,304.711,170.84,299.424,172.555L299.424,172.555z"/>
<path fill-rule="evenodd" clip-rule="evenodd" fill="#CE9360" d="M181.227,55.668c-3.687-2.829-17.747-13.889-19.205-16.576
	l-8.573-6.801c-3.058,1.2-25.177,20.519-29.492,24.12L181.227,55.668z"/>
<path fill-rule="evenodd" clip-rule="evenodd" fill="#292929" d="M354.093,176.87c2.058,3.858,0.886,39.295,0.457,42.068
	c-3.314,0.086-52.154,1.715-53.812-0.687l-0.172-41.381H354.093z M306.826,150.006l8.545-0.257l-0.058,7.145
	c-2.086,1.8-5.201,5.173-8.516,6.487L306.826,150.006z M355.065,221.166c2.715-7.145,0.657-15.66,0.886-22.92
	c0.143-4.544,1.4-7.173,0.915-12.088c-0.543-5.745-1.629-5.001,0.199-10.889l-30.234,0.028c-8.859-0.8-20.319,0.429-27.949-0.915
	l0.543-1.829c5.287-1.715,21.861-18.576,28.406-22.206c5.001,4.172,22.233,19.319,26.577,21.005c1.686-0.429,1.314,0,0.771-1.4
	c-5.916-5.544-20.462-17.004-27.349-22.605L318,154.75l-0.8-7.544l-12.432,0.114l-0.457,18.776l-10.174,7.488
	c1.429,5.315,4.229,0.2,4.201,8.43l0.457,39.324L355.065,221.166z"/>
<path fill-rule="evenodd" clip-rule="evenodd" fill="#292929" d="M153.478,305.93c1.114-2.515,26.206-22.434,29.406-23.948
	c4.058,3.43,26.577,21.977,28.063,23.978L153.478,305.93z M160.937,281.667c3.258-1.886,5.001-1.286,8.573-0.686
	c1.115,6.658,1.086,5.572-0.314,8.03l-7.688,6.487L160.937,281.667z M151.621,308.388c2.029,0.771,1.857-1.172,1.571,8.773
	l1.572-8.688l55.155,0.143l-0.429,42.268c-4.344,1.4-38.722,0.172-49.067,0.458c-4.401,0.114-3.658-0.144-6.887,1.399
	c5.487,1.372,46.838,1.058,57.441-0.313c2.486-6.916-2-40.125,2.229-43.868l2.801-1.486c-3.772-5.087-28.035-23.148-34.694-28.179
	c-3.83,3.973-4.458,4.03-9.087,7.116l-0.686-7.059l-12.117,0.057c-2.8,20.291,6.544,10.518-10.917,28.493L151.621,308.388z"/>
<path fill-rule="evenodd" clip-rule="evenodd" fill="#4D4D4D" d="M132.502,44.837c-1.058-2.086-1.343-7.716-0.829-10.774
	c0.6-3.715,3.943-2.915,8.145-2.372l-1.572,9.402C136.875,42.551,133.302,45.18,132.502,44.837L132.502,44.837z M182.227,103.538
	c-1.601-0.057-4.258,0.028-5.744-0.372c-5.772-1.601-1.572,0.314-3.401-2.115l-46.724-0.429L125.7,99.25
	c-0.571-3.058-0.229-37.809-0.2-40.838l13.946-0.343l36.208-1.029c6.602-1.143,4.201,2.258,5.573-1.372l-57.27,0.743
	c4.315-3.601,26.435-22.92,29.492-24.12l8.573,6.801c0.772-1.515-0.229-1.229,1.086-0.371c-1.686-4.144-4.458-5.173-9.716-9.374
	c-3.115,0.857-5.916,3.83-10.259,6.888l-1.286-6.888l-11.345,0.972c-5.001,7.402,5.287,12.203-6.201,21.948l-5.116,4.916
	c0.2,0.171,0.6,0.029,0.714,0.372c0.686,2.172,3.687-1.829,3.658,7.602l0.743,37.152
	C127.672,104.48,179.141,103.709,182.227,103.538L182.227,103.538z"/>
<path fill-rule="evenodd" clip-rule="evenodd" fill="#292929" d="M75.833,260.376l8.773,0.229l0.143,10.46l-8.945,0.057
	L75.833,260.376z M64.887,260.348l8.487-0.086l0.257,10.889l-8.916-0.172L64.887,260.348z M64.801,251.116l19.49-0.057l0.286,6.345
	l-19.804,0.085L64.801,251.116z M62.658,248.83c-0.086,2.915-0.572,19.177-0.029,21.92c0.314,1.743,0.515,1.543,0.972,2.344
	l22.833,0.543l0.429-24.777L62.658,248.83z"/>
<path fill-rule="evenodd" clip-rule="evenodd" fill="#292929" d="M329.459,197.475l7.373-0.399c1.686,3.2,0.943,6.658,0.828,11.202
	l-8.83-0.143C328.202,205.22,327.63,199.875,329.459,197.475L329.459,197.475z M317.829,197.16l8.658-0.143l-0.028,10.803
	l-8.487,0.028L317.829,197.16z M318.114,187.729l18.461-0.114l0.915,6.802l-19.861-0.028L318.114,187.729z M315.371,210.221
	l24.091,0.058l0.143-24.492l-24.177-0.486L315.371,210.221z"/>
<path fill-rule="evenodd" clip-rule="evenodd" fill="#292929" d="M75.032,153.55l8.202-0.114l0.343,11.146l-8.573-0.114
	L75.032,153.55z M72.517,154.921l0.029,8.259c-0.771,1.943,1.8,2.286-8.459,1.429l-0.114-11.231
	C74.975,152.121,71.46,153.207,72.517,154.921L72.517,154.921z M73.718,144.119c3.315-0.028,6.373,0,9.688,0.2l0.343,6.573
	l-19.89,0.2l0.628-6.315C67.087,143.633,70.459,144.119,73.718,144.119L73.718,144.119z M61.601,166.582l24.263,0.314l-0.172-24.949
	l-24.062,0.057L61.601,166.582z"/>
<path fill-rule="evenodd" clip-rule="evenodd" fill="#292929" d="M171.625,328.765c3.83-1.372,5.944-1.315,9.66,0.2l-0.686,11.717
	l-8.602-1.086L171.625,328.765z M192.029,329.222l-0.714,10.574l-7.43-0.314l-0.972-10.717c2.886-1.029,1.286-1.029,4.801-0.887
	C190.8,327.993,190.972,328.536,192.029,329.222L192.029,329.222z M191.143,326.192l-17.861-0.086
	c-2.143-2.172-1.543-2.572-1.172-6.315c3.944-1.144,16.146-1.229,19.976,0C192.258,323.249,193.315,324.706,191.143,326.192
	L191.143,326.192z M169.824,341.796c4.601,0.629,20.547,1.029,24.376-0.086l0.029-24.063c-4.572-1.144-19.748-1.2-24.292-0.028
	L169.824,341.796z"/>
<path fill-rule="evenodd" clip-rule="evenodd" fill="#292929" d="M279.305,97.45l0.086,8.431c-1.4,2.372-1.429,1.8-8.888,1.4
	l0.372-11.203C281.363,95.021,278.277,96.107,279.305,97.45L279.305,97.45z M268.275,97.222l0.057,8.888
	c-1.515,2.201-2.857,1.458-9.03,1.086l0.657-10.945c1.486-0.4,2.601-0.771,4.372-0.686
	C269.904,95.907,266.931,95.707,268.275,97.222L268.275,97.222z M259.816,86.962l19.489-0.086l0.114,6.688l-20.032,0.343
	L259.816,86.962z M257.386,109.196l24.405,0.172l-0.429-24.978L257.3,84.761L257.386,109.196z"/>
<path fill-rule="evenodd" clip-rule="evenodd" fill="#292929" d="M181.227,55.668c-1.372,3.629,1.029,0.229-5.573,1.372
	l-36.208,1.029c6.458-0.143,13.603,0.028,19.976,0.229l15.204,0.057c4.572,0.229,2.857-0.714,4.772,1.572v41.096l-6.316,0.029
	c1.829,2.429-2.372,0.514,3.401,2.115c1.486,0.4,4.144,0.314,5.744,0.372l-0.114-44.325l4.086-2.029
	c-2.2-3.029-8.316-7.288-11.06-9.66c-3.429-2.972-8.688-7.83-12.031-8.802c-1.314-0.857-0.314-1.144-1.086,0.371
	C163.48,41.779,177.541,52.839,181.227,55.668L181.227,55.668z"/>
<path fill-rule="evenodd" clip-rule="evenodd" fill="#292929" d="M290.422,286.582c0.714,1.229,0.657,0.029,1,2.372l-0.2,8.717
	c-9.631,1.886-8.431-0.543-8.974-1.114l0.144-9.859L290.422,286.582z M271.132,286.868l8.716,0.028l-0.028,10.746l-8.487,0.171
	L271.132,286.868z M271.046,277.866c1.372-1.086,0.972-1.229,5.315-1.314l14.718,0.657c1.771,9.23-0.058,6.259-0.543,7.03h-19.348
	L271.046,277.866z M268.875,300.043l23.92-0.829l-0.058-23.491l-23.805-0.715L268.875,300.043z"/>
<path fill-rule="evenodd" clip-rule="evenodd" fill="#8B8A8A" d="M155.393,308.788l53.64,0.2l-0.2,41.496l-53.64-0.029
	L155.393,308.788z M153.535,352.741c3.229-1.543,2.486-1.285,6.887-1.399c10.345-0.286,44.724,0.942,49.067-0.458l0.429-42.268
	l-55.155-0.143l-1.572,8.688c0.286-9.945,0.458-8.002-1.571-8.773C154.307,319.905,149.62,347.94,153.535,352.741L153.535,352.741z"
	/>
<path fill-rule="evenodd" clip-rule="evenodd" fill="#292929" d="M142.504,79.389c3.058-2.801,5.516-1.857,9.774-0.857
	c0.257,8.517,1.286,10.431-1.915,11.688l-7.43-0.085L142.504,79.389z M142.59,76.074c0.286-7.345-1.058-6.659,6.716-6.659
	c4.258,0,8.716,0.114,12.974,0.257l0.314,6.773L142.59,76.074z M152.392,92.363l0.6-2.515l0.514-11.289l8.459,0.4
	c2.543,0.8,1.715,2.972,1.601,5.373c-0.057,1.029-0.429,2.115-0.286,3.172c0.543,4.801,0.543,2.458,1.686,3.944l-0.343-24.206
	l-23.776,0.229l0.372,24.863L152.392,92.363z"/>
<polygon fill-rule="evenodd" clip-rule="evenodd" fill="#FFFFFF" points="259.387,93.907 279.419,93.563 279.305,86.876 
	259.816,86.962 "/>
<path fill-rule="evenodd" clip-rule="evenodd" fill="#FFFFFF" d="M142.59,76.074l20.004,0.372l-0.314-6.773
	c-4.258-0.143-8.716-0.257-12.974-0.257C141.532,69.415,142.875,68.729,142.59,76.074L142.59,76.074z"/>
<path fill-rule="evenodd" clip-rule="evenodd" fill="#FFFFFF" d="M64.487,144.776l-0.628,6.315l19.89-0.2l-0.343-6.573
	c-3.315-0.2-6.373-0.229-9.688-0.2C70.459,144.119,67.087,143.633,64.487,144.776L64.487,144.776z"/>
<polygon fill-rule="evenodd" clip-rule="evenodd" fill="#FFFFFF" points="317.628,194.389 337.49,194.417 336.575,187.615 
	318.114,187.729 "/>
<polygon fill-rule="evenodd" clip-rule="evenodd" fill="#FFFFFF" points="290.537,284.239 290.908,277.752 271.046,277.866 
	271.189,284.239 "/>
<polygon fill-rule="evenodd" clip-rule="evenodd" fill="#FFFFFF" points="64.773,257.489 84.577,257.404 84.292,251.06 
	64.801,251.116 "/>
<path fill-rule="evenodd" clip-rule="evenodd" fill="#4D4D4D" d="M354.408,171.354l1.086,2.543l-42.781,0.229
	c-2.429-0.029-4.715,0.057-7.087,0.085c-6.315,0.057-5.315-0.343-6.201-1.657l-0.543,1.829c7.63,1.343,19.09,0.114,27.949,0.915
	l30.234-0.028c-1.828,5.887-0.742,5.144-0.199,10.889c0.485,4.915-0.772,7.544-0.915,12.088c-0.229,7.26,1.829,15.775-0.886,22.92
	c2.887-1.057,2.086-0.399,1.972-9.802l0.028-33.266l4.115-2c-1.143-3.601-2.314-4.373-6.001-6.145
	C355.722,171.354,356.093,170.925,354.408,171.354L354.408,171.354z"/>
<polygon fill-rule="evenodd" clip-rule="evenodd" fill="#FFFFFF" points="173.282,326.106 191.143,326.192 190.886,320.105 
	173.311,320.162 "/>
<path fill-rule="evenodd" clip-rule="evenodd" fill="#FFFFFF" d="M150.363,90.22c1.715-4.458,1.058-6.659,0.886-11.374l-8.745,0.543
	l0.429,10.746L150.363,90.22z"/>
<polygon fill-rule="evenodd" clip-rule="evenodd" fill="#FFFFFF" points="75.804,271.121 84.749,271.064 84.605,260.604 
	75.833,260.376 "/>
<polygon fill-rule="evenodd" clip-rule="evenodd" fill="#FFFFFF" points="64.716,270.979 73.632,271.15 73.375,260.262 
	64.887,260.348 "/>
<polygon fill-rule="evenodd" clip-rule="evenodd" fill="#FFFFFF" points="271.333,297.813 279.82,297.643 279.848,286.896 
	271.132,286.868 "/>
<polygon fill-rule="evenodd" clip-rule="evenodd" fill="#FFFFFF" points="75.003,164.467 83.577,164.581 83.234,153.436 
	75.032,153.55 "/>
<path fill-rule="evenodd" clip-rule="evenodd" fill="#BBDEB5" d="M248.384,62.413c2.115-0.657,7.202-4.916,8.602-6.087l0.029-7.516
	l-8.688,0.314L248.384,62.413z"/>
<polygon fill-rule="evenodd" clip-rule="evenodd" fill="#FFFFFF" points="317.971,207.849 326.458,207.82 326.487,197.018 
	317.829,197.16 "/>
<path fill-rule="evenodd" clip-rule="evenodd" fill="#B0B1B1" d="M126.358,100.623l-0.229-41.868l53.269,1.172
	c-1.915-2.286-0.2-1.343-4.772-1.572l-15.204-0.057c-6.373-0.2-13.517-0.372-19.976-0.229L125.5,58.412
	c-0.029,3.029-0.372,37.781,0.2,40.838L126.358,100.623z"/>
<path fill-rule="evenodd" clip-rule="evenodd" fill="#DAD3E9" d="M53.599,226.597c5.744-3.144,9.43-5.173,8.344-13.718l-8.259-0.172
	L53.599,226.597z"/>
<path fill-rule="evenodd" clip-rule="evenodd" fill="#BBDEB5" d="M306.797,163.381c3.314-1.314,6.43-4.687,8.516-6.487l0.058-7.145
	l-8.545,0.257L306.797,163.381z"/>
<path fill-rule="evenodd" clip-rule="evenodd" fill="#8B8A8A" d="M253.958,308.273c1.6,1.114-2.258,0.771,3.229,1.286l51.297-0.629
	c0.058-5.001,1.4-37.78-0.714-42.438l0.143,41.81L253.958,308.273z"/>
<path fill-rule="evenodd" clip-rule="evenodd" fill="#8B8A8A" d="M300.739,218.251c1.657,2.401,50.497,0.772,53.812,0.687
	c0.429-2.772,1.601-38.209-0.457-42.068l0.058,41.667L300.739,218.251z"/>
<path fill-rule="evenodd" clip-rule="evenodd" fill="#B2A4D0" d="M260.301,253.203c5.544-5.83,8.287-1.629,8.287-14.032
	l-8.459,0.229L260.301,253.203z"/>
<path fill-rule="evenodd" clip-rule="evenodd" fill="#71839B" d="M132.502,44.837c0.8,0.343,4.373-2.287,5.744-3.744l1.572-9.402
	c-4.201-0.543-7.544-1.343-8.145,2.372C131.159,37.121,131.444,42.751,132.502,44.837L132.502,44.837z"/>
<polygon fill-rule="evenodd" clip-rule="evenodd" fill="#71839B" points="169.196,289.012 169.224,281.839 160.937,281.667 
	161.508,295.499 "/>
<polygon fill-rule="evenodd" clip-rule="evenodd" fill="#FFFFFF" points="183.885,339.481 191.315,339.796 192.029,329.222 
	183.599,328.907 "/>
<polygon fill-rule="evenodd" clip-rule="evenodd" fill="#FFFFFF" points="282.249,296.557 290.28,297.214 290.422,286.582 
	282.392,286.697 "/>
<path fill-rule="evenodd" clip-rule="evenodd" fill="#F9B9BD" d="M53.656,119.542c3.201-1.515,4.715-4.087,7.916-6.03l-0.115-5.944
	c-3.943-1.772-3.772-1.372-8.116-1.343L53.656,119.542z"/>
<polygon fill-rule="evenodd" clip-rule="evenodd" fill="#FFFFFF" points="172.682,339.31 180.198,339.682 180.341,329.278 
	172.511,328.85 "/>
<polygon fill-rule="evenodd" clip-rule="evenodd" fill="#FFFFFF" points="154.478,89.849 162.337,89.82 162.08,80.36 
	154.621,79.046 "/>
<polygon fill-rule="evenodd" clip-rule="evenodd" fill="#FFFFFF" points="336.833,197.075 329.459,197.475 329.431,207.648 
	336.918,207.592 "/>
<polygon fill-rule="evenodd" clip-rule="evenodd" fill="#FFFFFF" points="268.332,106.109 268.275,97.222 260.245,96.622 
	260.33,106.367 "/>
<polygon fill-rule="evenodd" clip-rule="evenodd" fill="#FFFFFF" points="72.546,163.181 72.517,154.921 64.43,153.835 
	64.687,163.695 "/>
<polygon fill-rule="evenodd" clip-rule="evenodd" fill="#FFFFFF" points="279.391,105.881 279.305,97.45 271.447,96.821 
	271.361,106.453 "/>
<path fill-rule="evenodd" clip-rule="evenodd" fill="#4D4D4D" d="M154.478,89.849h-1.486l-0.6,2.515l11.202,0.286l1.372-1.2
	c-1.143-1.486-1.143,0.857-1.686-3.944c-0.143-1.057,0.229-2.144,0.286-3.172c0.114-2.4,0.943-4.572-1.601-5.373l0.114,1.4
	l0.257,9.459L154.478,89.849z"/>
<path fill-rule="evenodd" clip-rule="evenodd" fill="#B0B1B1" d="M173.282,326.106l0.029-5.944l17.575-0.057l0.257,6.087
	c2.172-1.486,1.115-2.943,0.943-6.401c-3.83-1.229-16.032-1.144-19.976,0C171.739,323.534,171.139,323.935,173.282,326.106
	L173.282,326.106z"/>
<path fill-rule="evenodd" clip-rule="evenodd" fill="#8B8A8A" d="M172.511,328.85l7.83,0.429l-0.143,10.403l-7.516-0.372
	L172.511,328.85z M171.996,339.596l8.602,1.086l0.686-11.717c-3.715-1.516-5.83-1.572-9.66-0.2L171.996,339.596z"/>
<path fill-rule="evenodd" clip-rule="evenodd" fill="#B0B1B1" d="M279.391,105.881l-8.03,0.572l0.086-9.631l7.858,0.629
	c-1.028-1.343,2.058-2.429-8.43-1.372l-0.372,11.203C277.962,107.681,277.991,108.253,279.391,105.881L279.391,105.881z"/>
<path fill-rule="evenodd" clip-rule="evenodd" fill="#B0B1B1" d="M72.546,163.181l-7.859,0.515l-0.257-9.86l8.087,1.086
	c-1.057-1.714,2.458-2.8-8.544-1.543l0.114,11.231C74.346,165.467,71.774,165.124,72.546,163.181L72.546,163.181z"/>
<path fill-rule="evenodd" clip-rule="evenodd" fill="#B0B1B1" d="M268.332,106.109l-8.002,0.257l-0.085-9.745l8.03,0.6
	c-1.344-1.515,1.629-1.314-3.944-1.658c-1.771-0.085-2.886,0.286-4.372,0.686l-0.657,10.945
	C265.474,107.567,266.817,108.31,268.332,106.109L268.332,106.109z"/>
<path fill-rule="evenodd" clip-rule="evenodd" fill="#8B8A8A" d="M290.537,284.239c0.485-0.771,2.314,2.2,0.543-7.03l-14.718-0.657
	c-4.344,0.085-3.943,0.229-5.315,1.314l19.861-0.114L290.537,284.239z"/>
<path fill-rule="evenodd" clip-rule="evenodd" fill="#8B8A8A" d="M336.833,197.075l0.086,10.517l-7.487,0.057l0.028-10.174
	c-1.829,2.4-1.258,7.745-0.629,10.66l8.83,0.143C337.776,203.733,338.518,200.275,336.833,197.075L336.833,197.075z"/>
<path fill-rule="evenodd" clip-rule="evenodd" fill="#8B8A8A" d="M150.363,90.22c3.201-1.257,2.172-3.172,1.915-11.688
	c-4.258-1-6.716-1.943-9.774,0.857l8.745-0.543C151.42,83.561,152.078,85.762,150.363,90.22L150.363,90.22z"/>
<path fill-rule="evenodd" clip-rule="evenodd" fill="#F9B9BD" d="M53.656,119.542l-0.314-13.318
	c4.344-0.028,4.172-0.429,8.116,1.343c-0.857-2.229,1.144-2.486-8.887-2.086v14.175C53.685,120.97,52.341,120.285,53.656,119.542
	L53.656,119.542z"/>
<polygon fill-rule="evenodd" clip-rule="evenodd" fill="#B0B1B1" points="152.992,89.849 154.478,89.849 154.621,79.046 
	162.08,80.36 161.965,78.96 153.506,78.56 "/>
<path fill-rule="evenodd" clip-rule="evenodd" fill="#B0B1B1" d="M282.249,296.557c0.543,0.571-0.657,3,8.974,1.114l0.2-8.717
	c-0.343-2.343-0.286-1.143-1-2.372l-0.143,10.632L282.249,296.557z"/>
<path fill-rule="evenodd" clip-rule="evenodd" fill="#4D4D4D" d="M102.41,129.83l-1.086,0.771c1.515,2.144-0.4,1.315,2.629,1.829
	c2.229,0.372,0.972,0.2,3.401-0.4c-1.257-3.629-1.543-2.944-5.401-4.458L102.41,129.83z"/>
<path fill-rule="evenodd" clip-rule="evenodd" fill="#8B8A8A" d="M169.196,289.012c1.4-2.458,1.429-1.372,0.314-8.03
	c-3.572-0.601-5.315-1.2-8.573,0.686l8.288,0.172L169.196,289.012z"/>
<path fill-rule="evenodd" clip-rule="evenodd" fill="#8B8A8A" d="M127.615,369.003c1.743,2.172,1.829,2.601,5.172,2.515l0.429-1.686
	c-1.601-2.315-1.772-1.801-4.801-2.087l1.286,1.344L127.615,369.003z"/>
<path fill-rule="evenodd" clip-rule="evenodd" fill="#8B8A8A" d="M183.885,339.481l-0.286-10.574l8.43,0.314
	c-1.057-0.686-1.229-1.229-4.315-1.344c-3.515-0.143-1.915-0.143-4.801,0.887L183.885,339.481z"/>
<path fill-rule="evenodd" clip-rule="evenodd" fill="#4D4D4D" d="M63.63,221.424l4.172-2.973c-1.486,0.915-0.914,1.658-1.457-0.828
	h-2.144c-1.886-0.4-0.514-0.715-1.257,1.829L63.63,221.424z"/>
<path fill-rule="evenodd" clip-rule="evenodd" fill="#8B8A8A" d="M251.385,267.12c-1.687-1.371,0.657-1.285-4.115-1.057l0.886-2.63
	c-1.515,1.172-1.629-1.371-1.172,2.63L251.385,267.12z"/>
</svg>
