<?xml version="1.0" encoding="utf-8"?>
<!-- Generator: Adobe Illustrator 15.0.0, SVG Export Plug-In  -->
<!DOCTYPE svg PUBLIC "-//W3C//DTD SVG 1.1//EN" "http://www.w3.org/Graphics/SVG/1.1/DTD/svg11.dtd" [
	<!ENTITY ns_flows "http://ns.adobe.com/Flows/1.0/">
]>
<svg version="1.1"
	 xmlns="http://www.w3.org/2000/svg" xmlns:xlink="http://www.w3.org/1999/xlink" xmlns:a="http://ns.adobe.com/AdobeSVGViewerExtensions/3.0/"
	 x="0px" y="0px" width="380px" height="381px" viewBox="0.039 0 380 381" enable-background="new 0.039 0 380 381"
	 xml:space="preserve">
<defs>
</defs>
<path fill-rule="evenodd" clip-rule="evenodd" fill="#EAEC8C" d="M182.907,327.14c-25.349-28.379,6.745-68.731,35.35-53.271
	c11.889,6.43,17.547,24.292,9.659,39.724c-9.744,19.147-24.719,17.233-37.607,17.805l3.601,11.946
	c-37.923,4.144-24.063,0.543-29.978,13.174c-1.572-3.229-2.744-4.058-0.629-8.63c4.916-10.746,18.947-0.486,27.778-5.487
	l-2.43-8.574l-1.114,5.974l-13.403-9.889L182.907,327.14z M105.376,294.074c-2.286-5.201-17.575-20.662-2.601-43.097
	c6.173-9.23,22.519-19.462,38.866-10.402c24.148,13.375,14.689,62.615-28.349,57.242l2.8,13.832l-25.348,0.972
	c-5.315,9.003-2.601,7.688-4.458,10.518c-1.115-2.601-1.658-3.001-1.172-5.802c3.344-18.462,37.494,5.287,27.435-16.461
	c-1.715,4.172-0.943,3.857-2.229,5.772l-13.489-8.631L105.376,294.074z M270.526,286.786c-3.601-5.772-7.544-9.259-8.573-19.233
	c-2.8-27.492,23.892-44.268,43.524-34.579c25.548,12.574,16.775,62.101-27.178,57.899l3.486,12.289
	c-35.579,3.887-24.576,0.229-30.149,13.231l7.002-13.604c7.459-0.742,15.175,2.744,20.833-1.086l-3.029-8.316l-6.658,5.716
	c-4.001-1.515-7.573-4.058-7.688-8.916L270.526,286.786z M63.395,206.109c-0.114-0.2-0.286-0.485-0.428-0.686
	c-23.005-34.609,11.345-62.844,35.665-51.927c24.377,10.945,19.176,63.159-26.777,57.585l-1.771,15.232
	c-14.375,2.372-19.376-7.944-24.063,8.03c-0.6,2.058-0.343,1.258-1.058,2.229c1.429-10.803-0.543-14.289,13.117-13.232
	c21.147,1.63,15.232-1.257,13.632-9.287c-3.258,6.059-0.972,2.829-2.429,6.201l-13.26-10.031l8.288-2.657L63.395,206.109z
	 M299.561,179.56c-9.974-8.23-12.66-28.664-4.086-41.467c9.087-13.604,26.577-19.262,39.779-11.574
	c25.435,14.804,12.175,64.387-28.834,56.814l3.258,13.432l-24.777,2.201c-4.887,6.259-2.4,2.629-3.858,7.287
	c-0.571,1.915-0.6,1.744-1.171,2.63c-0.715-2.315-1.2-3.059-0.887-5.516c1.687-13.489,19.49-4.658,29.093-8.06l-1.687-8.688
	l-1.114,2.515c-1.343,3.515,0.914,0.286-1.343,3.658c-6.573-2.086-12.746-2.744-13.061-9.803L299.561,179.56z M80.084,108.343
	c-2.658-6.688-7.43-7.602-8.43-20.434c-0.686-8.631,1.486-15.747,5.715-21.749c22.405-31.636,66.215-5.83,47.868,29.665
	c-9.859,19.119-27.892,16.261-37.522,16.861l4.144,10.374c0.515,8.03-21.69,2.286-25.92,4.287
	c-4.315,2.058-2.857,7.087-4.858,10.545l-1-6.173c3.544-18.776,36.208,6.602,27.349-16.547l-1.857,6.173l-13.66-10.431
	L80.084,108.343z M250.893,107.314c-9.23-12.689-13.688-27.864-3.457-42.497c21.89-31.351,65.671-7.03,49.01,27.835
	c-6.344,13.318-18.317,19.376-37.607,18.433l-1.572,14.918c-7.03,1.429-14.518-2.257-21.062,0.029l2.4-3.344
	c7.173-0.572,14.518,1.772,20.861-0.486l-1.543-8.23c-2.429,6.43-0.8,4.629-2.943,5.83c-1.743,1-11.774-1.172-12.717-9.431
	L250.893,107.314z M174.419,81.107c-4.172-7.173-7.516-8.459-8.43-20.177c-2.086-27.092,25.491-43.325,44.524-32.494
	c23.69,13.46,15.518,63.044-27.834,57.271l3.229,12.546l-25.863,2.4l-3.887,10.717c-1.572-4.087-2.972-5.573-0.257-10.088
	c5.373-8.974,21.004,1.486,26.605-4.544l-1.829-2.201l-14.432-9.374l6.172-2.715C173.991,81.679,173.734,81.736,174.419,81.107
	L174.419,81.107z M377.122,208.225C386.238,98.569,305.505,12.748,207.341,3.26c-31.121-3.001-54.469,1.686-81.532,10.402
	C97.174,22.864,62.367,47.985,43.962,73.02c-6.858,9.316-12.803,16.69-18.718,27.75c-50.268,93.565-14.746,205.508,75.559,255.291
	c95.05,52.441,209.446,9.288,254.484-75.361C366.375,259.895,374.834,235.659,377.122,208.225L377.122,208.225z"/>
<path fill-rule="evenodd" clip-rule="evenodd" fill="#232323" d="M377.122,208.225c-2.287,27.435-10.746,51.67-21.834,72.475
	c-45.038,84.649-159.435,127.803-254.484,75.361C10.498,306.277-25.024,194.335,25.244,100.77
	c5.916-11.06,11.86-18.434,18.718-27.75c18.404-25.035,53.212-50.155,81.847-59.357C152.872,4.946,176.22,0.259,207.341,3.26
	C305.505,12.748,386.238,98.569,377.122,208.225L377.122,208.225z M170.133,0.945c-50.04,4.801-94.592,29.979-124.227,65.988
	C29.302,87.109,20.7,100.684,10.784,126.69c-9.202,24.035-12.889,57.186-9.602,84.792c5.601,47.497,26.177,87.307,59.356,118.372
	c2.715,2.515,3.115,3.687,6.144,5.944c9.488,6.887,15.918,12.717,27.806,19.604c35.265,20.405,72.873,28.95,115.54,25.149
	c96.992-8.659,181.954-101.111,169.15-210.167c-3.2-27.149-11.202-51.355-22.747-72.018c-7.974-14.232-19.262-30.208-30.121-40.496
	c-13.632-12.917-21.548-20.891-40.066-31.551C251.037,6.003,212.513-3.113,170.133,0.945L170.133,0.945z"/>
<path fill-rule="evenodd" clip-rule="evenodd" fill="#CD82B7" d="M123.809,240.261c-37.237,8.802-30.292,63.416,4.086,54.899
	C165.246,285.929,155.044,232.888,123.809,240.261L123.809,240.261z"/>
<path fill-rule="evenodd" clip-rule="evenodd" fill="#E21C47" d="M96.974,55.272c-12.688,3.515-23.72,15.175-22.977,30.893
	c0.771,17.033,11.06,28.236,29.664,23.349C140.355,99.883,129.638,46.242,96.974,55.272L96.974,55.272z"/>
<path fill-rule="evenodd" clip-rule="evenodd" fill="#FBCA0D" d="M285.129,234.345c-32.95,10.432-25.491,65.56,11.003,52.699
	C330.482,274.927,319.823,223.342,285.129,234.345L285.129,234.345z"/>
<path fill-rule="evenodd" clip-rule="evenodd" fill="#B7C9D5" d="M109.891,185.019c3.658-16.29-6.23-30.922-21.547-31.693
	c-15.118-0.772-27.435,11.317-30.007,23.777c-1.772,8.545,0.029,17.118,3.629,23.12C72.826,218.255,104.519,208.768,109.891,185.019
	L109.891,185.019z"/>
<path fill-rule="evenodd" clip-rule="evenodd" fill="#BAD532" d="M192.309,28.352c-34.15,7.202-31.75,62.587,4.772,54.728
	c12.917-2.772,23.948-14.261,23.891-30.208C220.916,37.154,208.742,24.865,192.309,28.352L192.309,28.352z"/>
<path fill-rule="evenodd" clip-rule="evenodd" fill="#BBDEB5" d="M270.212,53.129c-35.037,5.602-33.865,61.987,0.886,55.414
	c14.374-2.744,24.891-12.975,26.006-28.436C298.275,63.989,285.873,50.643,270.212,53.129L270.212,53.129z"/>
<path fill-rule="evenodd" clip-rule="evenodd" fill="#CE9360" d="M318.366,126.147c-35.665,6.23-33.493,61.529,2.058,54.957
	c13.688-2.515,24.862-14.003,25.205-29.35C345.943,136.578,334.369,123.375,318.366,126.147L318.366,126.147z"/>
<path fill-rule="evenodd" clip-rule="evenodd" fill="#4E897B" d="M198.225,274.526c-32.893,9.06-27.292,63.845,7.858,53.471
	C241.92,317.451,232.804,265.01,198.225,274.526L198.225,274.526z"/>
<path fill-rule="evenodd" clip-rule="evenodd" fill="#232323" d="M299.104,185.933l1.771,1.115
	c-2.543,1.972,4.001,1.286-0.942,0.714c-0.058,0-0.429-0.086-0.486-0.114c-0.086,0-0.314-0.257-0.515-0.343
	c-3.172-1.458-1.686-0.486-3.743-3.344l4.544-1.629L299.104,185.933z M318.366,126.147c16.003-2.772,27.577,10.431,27.263,25.606
	c-0.343,15.347-11.517,26.835-25.205,29.35C284.873,187.676,282.701,132.377,318.366,126.147L318.366,126.147z M299.561,179.56
	l-8.688,3.429c0.314,7.059,6.487,7.716,13.061,9.803c2.257-3.373,0-0.143,1.343-3.658l1.114-2.515l1.687,8.688
	c-9.603,3.401-27.406-5.43-29.093,8.06c-0.313,2.457,0.172,3.2,0.887,5.516c0.571-0.886,0.6-0.715,1.171-2.63
	c1.458-4.658-1.028-1.028,3.858-7.287l24.777-2.201l-3.258-13.432c41.009,7.573,54.269-42.01,28.834-56.814
	c-13.202-7.688-30.692-2.029-39.779,11.574C286.901,150.896,289.587,171.33,299.561,179.56L299.561,179.56z"/>
<path fill-rule="evenodd" clip-rule="evenodd" fill="#232323" d="M171.047,85.594l2.801-1.172c1.8,2.172-0.286,0.029,2.658,5.344
	C172.705,89.195,172.076,88.252,171.047,85.594L171.047,85.594z M192.309,28.352c16.433-3.487,28.606,8.802,28.663,24.52
	c0.058,15.947-10.974,27.436-23.891,30.208C160.56,90.938,158.159,35.553,192.309,28.352L192.309,28.352z M174.419,81.107
	c-0.686,0.628-0.429,0.571-2,1.343l-6.172,2.715l14.432,9.374l1.829,2.201c-5.601,6.03-21.233-4.43-26.605,4.544
	c-2.715,4.515-1.315,6.001,0.257,10.088l3.887-10.717l25.863-2.4l-3.229-12.546c43.352,5.773,51.525-43.811,27.834-57.271
	c-19.033-10.831-46.61,5.401-44.524,32.494C166.904,72.648,170.247,73.934,174.419,81.107L174.419,81.107z"/>
<path fill-rule="evenodd" clip-rule="evenodd" fill="#232323" d="M182.079,329.94l0.485,1.285c0.572,1.943-0.143,1.601,1.915,4.287
	l-5.83-4.83L182.079,329.94z M198.225,274.526c34.579-9.517,43.695,42.925,7.858,53.471
	C170.933,338.371,165.332,283.586,198.225,274.526L198.225,274.526z M182.907,327.14l-8.773,2.771l13.403,9.889l1.114-5.974
	l2.43,8.574c-8.831,5.001-22.862-5.259-27.778,5.487c-2.115,4.572-0.943,5.4,0.629,8.63c5.916-12.631-7.945-9.03,29.978-13.174
	l-3.601-11.946c12.889-0.571,27.863,1.343,37.607-17.805c7.888-15.432,2.229-33.294-9.659-39.724
	C189.652,258.408,157.559,298.761,182.907,327.14L182.907,327.14z"/>
<path fill-rule="evenodd" clip-rule="evenodd" fill="#232323" d="M248.636,109.972l3.771,5.144c-2.4-0.572-2.629,0.057-4.029-1.658
	C244.664,108.914,248.322,110.4,248.636,109.972L248.636,109.972z M270.212,53.129c15.66-2.486,28.063,10.86,26.892,26.978
	c-1.115,15.461-11.632,25.692-26.006,28.436C236.347,115.116,235.175,58.73,270.212,53.129L270.212,53.129z M250.893,107.314
	l-8.63,3.058c0.942,8.259,10.974,10.431,12.717,9.431c2.144-1.201,0.515,0.6,2.943-5.83l1.543,8.23
	c-6.344,2.258-13.688-0.086-20.861,0.486l-2.4,3.344c6.544-2.286,14.031,1.4,21.062-0.029l1.572-14.918
	c19.29,0.943,31.264-5.115,37.607-18.433c16.661-34.866-27.12-59.186-49.01-27.835C237.205,79.45,241.663,94.625,250.893,107.314
	L250.893,107.314z"/>
<path fill-rule="evenodd" clip-rule="evenodd" fill="#232323" d="M79.227,115.573l-3.201-2.601l4.916-1.515
	C80.428,113.144,80.656,114.201,79.227,115.573L79.227,115.573z M96.974,55.272c32.664-9.031,43.381,44.611,6.687,54.242
	c-18.604,4.887-28.892-6.316-29.664-23.349C73.254,70.447,84.286,58.788,96.974,55.272L96.974,55.272z M80.084,108.343l-8.173,2.572
	l13.66,10.431l1.857-6.173c8.859,23.148-23.805-2.229-27.349,16.547l1,6.173c2-3.458,0.543-8.488,4.858-10.545
	c4.229-2,26.435,3.744,25.92-4.287l-4.144-10.374c9.631-0.6,27.663,2.258,37.522-16.861c18.347-35.495-25.463-61.301-47.868-29.665
	c-4.229,6.001-6.401,13.118-5.715,21.749C72.654,100.741,77.427,101.655,80.084,108.343L80.084,108.343z"/>
<path fill-rule="evenodd" clip-rule="evenodd" fill="#232323" d="M102.575,297.018c4.373-0.143,1.572-0.829,3.172,1.743l1.629,3.229
	c-1.915-0.371-4.115-0.743-4.83-2.372C100.689,295.445,101.461,298.018,102.575,297.018L102.575,297.018z M123.809,240.261
	c31.235-7.373,41.438,45.668,4.086,54.899C93.516,303.677,86.572,249.063,123.809,240.261L123.809,240.261z M105.376,294.074
	l-8.545,3.943l13.489,8.631c1.286-1.915,0.514-1.601,2.229-5.772c10.06,21.748-24.091-2.001-27.435,16.461
	c-0.486,2.801,0.057,3.201,1.172,5.802c1.857-2.83-0.857-1.515,4.458-10.518l25.348-0.972l-2.8-13.832
	c43.038,5.373,52.497-43.867,28.349-57.242c-16.347-9.06-32.693,1.172-38.866,10.402C87.801,273.412,103.09,288.873,105.376,294.074
	L105.376,294.074z"/>
<path fill-rule="evenodd" clip-rule="evenodd" fill="#232323" d="M272.041,295.018l-5.572-2.572
	c0.286-2.858-0.286-1.486,3.315-2.829L272.041,295.018z M285.129,234.345c34.693-11.003,45.353,40.582,11.003,52.699
	C259.638,299.904,252.179,244.776,285.129,234.345L285.129,234.345z M270.526,286.786l-8.43,3.401
	c0.114,4.858,3.687,7.401,7.688,8.916l6.658-5.716l3.029,8.316c-5.658,3.83-13.374,0.344-20.833,1.086l-7.002,13.604
	c5.573-13.003-5.43-9.345,30.149-13.231l-3.486-12.289c43.953,4.201,52.726-45.325,27.178-57.899
	c-19.633-9.688-46.324,7.087-43.524,34.579C262.982,277.527,266.925,281.014,270.526,286.786L270.526,286.786z"/>
<path fill-rule="evenodd" clip-rule="evenodd" fill="#232323" d="M59.852,211.254l3.258-1.486l3.144,5.944
	C62.224,214.369,61.395,213.997,59.852,211.254L59.852,211.254z M109.891,185.019c-5.373,23.749-37.065,33.236-47.925,15.204
	c-3.601-6.002-5.401-14.575-3.629-23.12c2.572-12.46,14.889-24.549,30.007-23.777C103.661,154.097,113.549,168.729,109.891,185.019
	L109.891,185.019z M64.31,207.567l-8.288,2.657l13.26,10.031c1.458-3.372-0.829-0.143,2.429-6.201
	c1.6,8.03,7.516,10.917-13.632,9.287c-13.66-1.057-11.688,2.43-13.117,13.232c0.715-0.972,0.458-0.172,1.058-2.229
	c4.687-15.975,9.688-5.658,24.063-8.03l1.771-15.232c45.953,5.573,51.154-46.64,26.777-57.585
	c-24.319-10.917-58.67,17.318-35.665,51.927c0.143,0.2,0.314,0.485,0.428,0.686L64.31,207.567z"/>
<path fill-rule="evenodd" clip-rule="evenodd" fill="#FFFFFF" d="M372.206,397.899h23.463c-0.915-1.972-2.087-3.629-3.458-5.544
	c-5.059-7.174-1.658-5.43-1.429-5.888c3.058,2.915,6.115,7.431,7.63,11.432h4.458c-2.2-6.487-4.715-13.574-8.545-18.661
	c-8.373-11.032-10.06,3.086-11.603,8.773l-12.346,4.915L372.206,397.899z"/>
<path fill-rule="evenodd" clip-rule="evenodd" fill="#CDCCCC" d="M66.253,215.712l-3.144-5.944l-3.258,1.486
	C61.395,213.997,62.224,214.369,66.253,215.712L66.253,215.712z"/>
<path fill-rule="evenodd" clip-rule="evenodd" fill="#CDCCCC" d="M105.748,298.761c-1.601-2.572,1.2-1.886-3.172-1.743
	c-1.114,1-1.886-1.572-0.028,2.601c0.714,1.629,2.915,2.001,4.83,2.372L105.748,298.761z"/>
<path fill-rule="evenodd" clip-rule="evenodd" fill="#CDCCCC" d="M266.468,292.445l5.572,2.572l-2.257-5.401
	C266.182,290.959,266.754,289.587,266.468,292.445L266.468,292.445z"/>
<path fill-rule="evenodd" clip-rule="evenodd" fill="#CDCCCC" d="M176.506,89.767c-2.944-5.315-0.857-3.172-2.658-5.344
	l-2.801,1.172C172.076,88.252,172.705,89.195,176.506,89.767L176.506,89.767z"/>
<path fill-rule="evenodd" clip-rule="evenodd" fill="#CDCCCC" d="M252.408,115.116l-3.771-5.144
	c-0.314,0.429-3.973-1.058-0.258,3.486C249.779,115.173,250.007,114.544,252.408,115.116L252.408,115.116z"/>
<path fill-rule="evenodd" clip-rule="evenodd" fill="#CDCCCC" d="M298.932,187.305l0.172-1.372l0.629-3.601l-4.544,1.629
	C297.247,186.819,295.76,185.847,298.932,187.305L298.932,187.305z"/>
<path fill-rule="evenodd" clip-rule="evenodd" fill="#CDCCCC" d="M79.227,115.573c1.429-1.372,1.201-2.429,1.715-4.115l-4.916,1.515
	L79.227,115.573z"/>
<path fill-rule="evenodd" clip-rule="evenodd" fill="#CDCCCC" d="M178.649,330.683l5.83,4.83c-2.058-2.687-1.343-2.344-1.915-4.287
	l-0.485-1.285L178.649,330.683z"/>
<path fill-rule="evenodd" clip-rule="evenodd" fill="#848484" d="M299.104,185.933l-0.172,1.372c0.2,0.086,0.429,0.343,0.515,0.343
	c0.058,0.028,0.429,0.114,0.486,0.114c4.943,0.571-1.601,1.257,0.942-0.714L299.104,185.933z"/>
</svg>
