<?xml version="1.0" encoding="utf-8"?>
<!-- Generator: Adobe Illustrator 15.0.0, SVG Export Plug-In  -->
<!DOCTYPE svg PUBLIC "-//W3C//DTD SVG 1.1//EN" "http://www.w3.org/Graphics/SVG/1.1/DTD/svg11.dtd" [
	<!ENTITY ns_flows "http://ns.adobe.com/Flows/1.0/">
]>
<svg version="1.1"
	 xmlns="http://www.w3.org/2000/svg" xmlns:xlink="http://www.w3.org/1999/xlink" xmlns:a="http://ns.adobe.com/AdobeSVGViewerExtensions/3.0/"
	 x="0px" y="0px" width="201px" height="247px" viewBox="0 0 201 247" enable-background="new 0 0 201 247" xml:space="preserve">
<defs>
</defs>
<path fill-rule="evenodd" clip-rule="evenodd" fill="#F5853E" d="M64.73,172.185c0.028,0-0.887-4.83,6.544,1.286
	c2.544,2.086,2.629,2.887,3.715,6.03L64.73,172.185z M72.503,162.154c0.485-0.343-1.144-3.314,5.03-0.057
	c3.715,1.972,7.544,6.373,8.373,10.945L72.503,162.154z M73.903,155.038c0.601-0.428-0.972-2.771,5.487,0.172
	c5.602,2.572,8.688,5.516,9.459,11.66C77.133,154.067,83.991,161.554,73.903,155.038L73.903,155.038z M79.818,189.275l6.545-14.003
	l3.572,3.972l3.029-14.403l4.144,6.087l3.087-19.004l5.486,7.688l1.801-20.52l5.715,10.288l3.201-18.633l4.401,7.345l11.202-13.918
	c3.172-11.031-4.516-12.86-6.087-19.033l9.459,15.261l8.888-12.174c2.629-11.203-3.229-10.918-3.629-15.689l6.63,6.715
	l-4.287-32.779c-8.773-7.688-22.977-5.516-31.321,1.344c5.716-1.144,10.46-5.201,16.118-0.857
	c-3.258,0.828-20.119-0.086-26.521,13.289L123,81.163l-26.721,7.202l4.658,1.571l-8.059,7.202l21.604,1.172
	c-4.687,1.601-2.172,0.601-6.83-0.458c-5.201-1.199-14.917-0.027-17.317,4.973l7.658-0.399l-11.717,8.288
	c-1.743,5.086-4.516,8.887-5.4,13.717l10.973,2.029l-15.774,7.888l9.831,0.486l-16.719,10.545l6.83,1.429l-14.288,10.089l7.63,2.943
	l-13.46,4.201l8.116,3.829l-9.316-0.828l-6.344,7.373l8.688,6.516l-10.203-4.059l-4.658,5.002l9.346,7.916l-11.031-4.887
	l-5.201,5.687l8.402,7.773l-9.545-5.173l-3.516,3.144l4.602,5.459l-6.945-2.943l-2.457,4.315l3.744,5.201l-5.83-2.144l-2.486,4.915
	l6.201,7.002l-6.973-4.058l-6.259,5.029l4.801,6.859l-5.601-3.487L9.947,230.2l5.172,6.001l-6.773-3.915
	c-5.572,7.487-7.544,8.316-5.516,12.774l25.978-11.603l-4.001-7.745l6.802,5.888l10.688-7.374l-1.715-8.858l5.086,6.602
	l5.859-13.661l2.771,6.459l6.602-15.403l3.801,4.372l12.488-11.574l-0.229-9.116L79.818,189.275z"/>
<path fill-rule="evenodd" clip-rule="evenodd" fill="#2B2C2B" d="M111.654,67.817c8.345-6.859,22.548-9.031,31.321-1.344
	l4.287,32.779l-6.63-6.715c0.399,4.771,6.258,4.486,3.629,15.689l-8.888,12.174l-9.459-15.261c1.571,6.173,9.259,8.002,6.087,19.033
	L120.8,138.091l-4.401-7.345l-3.201,18.633l-5.715-10.288l-1.801,20.52l-5.486-7.688l-3.087,19.004l-4.144-6.087l-3.029,14.403
	l-3.572-3.972l-6.545,14.003l-2.857-6.229l0.229,9.116l-12.488,11.574l-3.801-4.372l-6.602,15.403l-2.771-6.459l-5.859,13.661
	l-5.086-6.602l1.715,8.858L31.608,231.6l-6.802-5.888l4.001,7.745L2.83,245.06c-2.028-4.458-0.057-5.287,5.516-12.774l6.773,3.915
	L9.947,230.2l3.486-7.717l5.601,3.487l-4.801-6.859l6.259-5.029l6.973,4.058l-6.201-7.002l2.486-4.915l5.83,2.144l-3.744-5.201
	l2.457-4.315l6.945,2.943l-4.602-5.459l3.516-3.144l9.545,5.173l-8.402-7.773l5.201-5.687l11.031,4.887l-9.346-7.916l4.658-5.002
	l10.203,4.059l-8.688-6.516l6.344-7.373l9.316,0.828l-8.116-3.829l13.46-4.201l-7.63-2.943l14.288-10.089l-6.83-1.429l16.719-10.545
	l-9.831-0.486l15.774-7.888l-10.973-2.029c0.885-4.83,3.657-8.631,5.4-13.717l11.717-8.288l-7.658,0.399
	c2.4-5,12.116-6.172,17.317-4.973c4.658,1.059,2.144,2.059,6.83,0.458l-21.604-1.172l8.059-7.202l-4.658-1.571L123,81.163
	l-21.748-0.914c6.401-13.375,23.263-12.461,26.521-13.289C122.114,62.616,117.37,66.673,111.654,67.817L111.654,67.817z
	 M140.689,61.758c0.028-3.688,0-2.258,1.486-4.658c0.571,0.971,2.886-1.4,0.942,3.372C141.833,63.672,141.146,61.815,140.689,61.758
	L140.689,61.758z M143.547,64.016c2.687-7.002,15.146-15.576,21.319-18.834C157.95,49.812,151.148,61.272,143.547,64.016
	L143.547,64.016z M146.605,51.927c1.371-4.059,4.115-9.574,7.916-11.174C153.206,43.954,149.148,49.727,146.605,51.927
	L146.605,51.927z M134.088,57.357c-0.8,3.858,0.601,1.314-2,3.144c-0.886-1.572-2.973,0.6,0.257-3.687
	c1.258-5.944,4.486-15.575,8.116-19.948L134.088,57.357z M131.545,50.698c0.257-6.459,3.743-14.346,5.973-20.776
	c1.429-4.144,1.257-4.001,3.915-6.287C140.661,29.979,134.517,45.526,131.545,50.698L131.545,50.698z M136.574,60.53
	c0.429-10.775,17.947-34.009,24.52-43.269c-0.485,3.83-9.888,16.033-12.26,20.977c-1.857,3.801-4.172,7.345-5.973,11.117
	C141.232,52.756,140.061,59.471,136.574,60.53L136.574,60.53z M163.895,26.492c2.029-2.858,0.829-2.715,2.943-6.316
	c1.172-2,2.258-4.029,3.344-5.83c1.229-2.058,2.172-3.801,3.372-5.773c2.515-4.201,1.2-3.315,4.944-5.401L163.895,26.492z
	 M0.716,245.975c9.545,5.887,45.21-21.205,53.497-28.179l42.867-42.811c5.658-7.03,13.003-16.861,18.004-24.349
	c12.146-18.176,27.349-30.18,34.465-50.241c7.83-22.063-2.772-28.321-2.744-34.351c0-3.602,29.606-28.379,37.352-31.894l16.461-6.23
	l-52.383,26.263c3-6.373,25.434-36.608,26.806-40.152L177.641,0l-11.945,17.89l-3.487-4.772l-4.4,4.229l1.857-7.602
	c-5.287-0.343-5.458,3.887-12.146,14.89l4.144-24.578c-5.516,2.343-20.404,38.209-22.919,51.384
	c-2.601,13.519-3.115,6.03-13.746,11.374c-17.489,8.746-29.949,44.697-37.266,62.616c-10.088,24.634-36.637,53.728-51.868,73.104
	c-3.572,4.544-5.458,11.717-9.401,15.804c-7.974,8.259-4.459,8.373-9.402,15.804C4.031,234.686-2.084,240.316,0.716,245.975
	L0.716,245.975z"/>
<path fill-rule="evenodd" clip-rule="evenodd" fill="#00A658" d="M136.574,60.53c3.486-1.059,4.658-7.773,6.287-11.175
	c1.801-3.772,4.115-7.316,5.973-11.117c2.372-4.944,11.774-17.147,12.26-20.977C154.521,26.521,137.003,49.754,136.574,60.53
	L136.574,60.53z"/>
<path fill-rule="evenodd" clip-rule="evenodd" fill="#00A658" d="M131.545,50.698c2.972-5.172,9.116-20.719,9.888-27.063
	c-2.658,2.286-2.486,2.144-3.915,6.287C135.288,36.352,131.802,44.239,131.545,50.698L131.545,50.698z"/>
<path fill-rule="evenodd" clip-rule="evenodd" fill="#00A658" d="M143.547,64.016c7.602-2.744,14.403-14.204,21.319-18.834
	C158.693,48.44,146.233,57.014,143.547,64.016L143.547,64.016z"/>
<path fill-rule="evenodd" clip-rule="evenodd" fill="#2B2C2B" d="M72.503,162.154l13.403,10.889
	c-0.829-4.572-4.658-8.974-8.373-10.945C71.359,158.839,72.988,161.811,72.503,162.154L72.503,162.154z"/>
<path fill-rule="evenodd" clip-rule="evenodd" fill="#2B2C2B" d="M73.903,155.038c10.088,6.517,3.229-0.971,14.946,11.832
	c-0.771-6.145-3.857-9.088-9.459-11.66C72.932,152.266,74.504,154.61,73.903,155.038L73.903,155.038z"/>
<path fill-rule="evenodd" clip-rule="evenodd" fill="#00A658" d="M132.345,56.814l-0.057,2.544l1.8-2.001l6.373-20.491
	C136.831,41.239,133.603,50.87,132.345,56.814L132.345,56.814z"/>
<path fill-rule="evenodd" clip-rule="evenodd" fill="#2B2C2B" d="M64.73,172.185l10.259,7.316c-1.086-3.144-1.171-3.944-3.715-6.03
	C63.844,167.355,64.759,172.185,64.73,172.185L64.73,172.185z"/>
<path fill-rule="evenodd" clip-rule="evenodd" fill="#00A658" d="M163.895,26.492l14.604-23.32c-3.744,2.086-2.43,1.2-4.944,5.401
	c-1.2,1.972-2.144,3.715-3.372,5.773c-1.086,1.801-2.172,3.83-3.344,5.83C164.724,23.777,165.924,23.634,163.895,26.492
	L163.895,26.492z"/>
<path fill-rule="evenodd" clip-rule="evenodd" fill="#00A658" d="M146.605,51.927c2.543-2.2,6.601-7.974,7.916-11.174
	C150.721,42.353,147.977,47.869,146.605,51.927L146.605,51.927z"/>
<path fill-rule="evenodd" clip-rule="evenodd" fill="#00A658" d="M140.689,61.758c0.457,0.057,1.144,1.914,2.429-1.286
	c1.943-4.772-0.371-2.401-0.942-3.372C140.689,59.5,140.718,58.071,140.689,61.758L140.689,61.758z"/>
<path fill-rule="evenodd" clip-rule="evenodd" fill="#939393" d="M134.088,57.357l-1.8,2.001l0.057-2.544
	c-3.229,4.286-1.143,2.114-0.257,3.687C134.688,58.671,133.288,61.215,134.088,57.357L134.088,57.357z"/>
</svg>
