<?xml version="1.0" encoding="utf-8"?>
<!-- Generator: Adobe Illustrator 15.0.0, SVG Export Plug-In  -->
<!DOCTYPE svg PUBLIC "-//W3C//DTD SVG 1.1//EN" "http://www.w3.org/Graphics/SVG/1.1/DTD/svg11.dtd" [
	<!ENTITY ns_flows "http://ns.adobe.com/Flows/1.0/">
]>
<svg version="1.1"
	 xmlns="http://www.w3.org/2000/svg" xmlns:xlink="http://www.w3.org/1999/xlink" xmlns:a="http://ns.adobe.com/AdobeSVGViewerExtensions/3.0/"
	 x="0px" y="0px" width="154px" height="212px" viewBox="-0.001 0 154 212" enable-background="new -0.001 0 154 212"
	 xml:space="preserve">
<defs>
</defs>
<path fill-rule="evenodd" clip-rule="evenodd" fill="#C0C577" d="M21.978,44.038L2.088,189.045
	c5.943,5.573,18.575,14.947,25.463,20.234c1.343-2.201,1.514-5.259,2.028-10.175l19.147-167.24c-3.572,1.371-1.601,1.6-4.801,4.229
	c-2.172,1.772-4.059,2.373-6.631,3.401C31.693,41.694,28.236,42.752,21.978,44.038L21.978,44.038z"/>
<path fill-rule="evenodd" clip-rule="evenodd" fill="#C0C577" d="M30.723,209.136l25.92-8.059L72.789,81.134l-3.373-42.783
	l-16.66-5.887c-2.516,3.744-11.031,83.621-11.518,87.564C37.725,148.492,32.18,181.357,30.723,209.136L30.723,209.136z"/>
<path fill-rule="evenodd" clip-rule="evenodd" fill="#C0C577" d="M81.448,37.38c0.399,4.458,4.258,30.864,1.942,34.15l-7.229,5.602
	c0.285,7.803,7.602,49.612,9.431,60.986c1.629,10.403,2.857,20.177,4.772,30.351c1.857,9.774,2.429,21.605,6.173,30.836
	l34.521,9.603c-5.744-28.721-13.774-58.214-20.404-87.879L95.365,54.727c-1.372-5.944-3.201-16.89-6.315-22.319
	C84.02,33.921,87.163,35.093,81.448,37.38L81.448,37.38z"/>
<path fill-rule="evenodd" clip-rule="evenodd" fill="#C0C577" d="M133.402,207.164c2.801-1.801,2.2-2,4.372-4.658
	c20.719-25.464,14.889-6.573,7.373-52.527c-3.973-24.377-16.689-78.362-22.319-104.597c-11.773-2.172-19.433-7.316-30.178-13.061
	C92.479,34.636,131.401,203.306,133.402,207.164L133.402,207.164z"/>
<path fill-rule="evenodd" clip-rule="evenodd" fill="#343434" d="M30.723,209.136c1.457-27.778,7.002-60.644,10.516-89.107
	c0.486-3.943,9.002-83.82,11.518-87.564l16.66,5.887l3.373,42.783L56.643,201.077L30.723,209.136z M131.059,208.907l-34.521-9.603
	c-3.744-9.23-4.315-21.062-6.173-30.836c-1.915-10.174-3.144-19.947-4.772-30.351c-1.829-11.374-9.146-53.184-9.431-60.986
	l7.229-5.602c2.315-3.286-1.543-29.692-1.942-34.15c5.715-2.287,2.571-3.459,7.602-4.973c3.114,5.43,4.943,16.375,6.315,22.319
	l15.289,66.302C117.284,150.693,125.314,180.187,131.059,208.907L131.059,208.907z M21.978,44.038
	c6.259-1.286,9.716-2.344,15.317-4.544c2.572-1.028,4.459-1.629,6.631-3.401c3.2-2.629,1.229-2.857,4.801-4.229l-19.147,167.24
	c-0.515,4.916-0.686,7.974-2.028,10.175c-6.888-5.287-19.52-14.661-25.463-20.234L21.978,44.038z M133.402,207.164
	c-2.001-3.858-40.924-172.528-40.752-174.843c10.745,5.744,18.404,10.889,30.178,13.061c5.63,26.234,18.347,80.22,22.319,104.597
	c7.516,45.954,13.346,27.063-7.373,52.527C135.603,205.164,136.203,205.363,133.402,207.164L133.402,207.164z M97.823,32.95
	c0.229-0.172,0.571-0.344,0.771-0.43c7.115-3.371-2.687,0.458,2.372-1.057l7.944-1.058c3.515-0.543,7.487-1.543,10.345-2.657
	l3.258,15.146l-13.288-4.115C105.682,37.122,101.48,34.064,97.823,32.95L97.823,32.95z M24.264,27.233l20.205,4.516
	c-3.201,5.373-13.718,8.002-22.119,9.889L24.264,27.233z M81.19,35.493l-1.372,3.772c0.372,6.487,1.372,13.032,1.772,19.69
	c0.485,8.002,2.314,14.746-6.659,15.289l-2.029-24.063c-1.342-3.172-2.114-7.23-1.314-11.374l7.488-2.058
	c-5.658-0.2-13.432,1.028-17.719-0.914c-7.315-1.201-6.459-7.203-6.172-14.176c0.371-8.402,5.572-7.43,13.688-7.287
	c7.174,0.114,14.633-1.486,15.833,5.4C85.678,25.462,85.963,33.95,81.19,35.493L81.19,35.493z M87.506,19.204
	c16.747-0.744,32.979-5.03,34.15-5.059l0.114,9.773l-34.893,6.259L87.506,19.204z M53.213,29.949
	c-7.259-0.314-14.231-1.372-21.062-2.858c-10.316-2.229-8.974-3.2-8.888-13.717c19.404,5.172,11.574,2.914,29.406,5.629
	L53.213,29.949z M23.606,9.573c9.545-10.203,87.448-8.746,97.707,0c-9.202,3.4-23.605,8.973-34.293,7.344
	c-5.344-0.828-20.319-9.945-32.007-2.058c-3.315,2.258-2.115,2.029-7.744,1.343c-4.345-0.543-17.633-2.285-21.148-4.258
	C22.32,9.829,24.721,11.373,23.606,9.573L23.606,9.573z M21.721,7.801c-1.658,9.316,0.914,16.062-0.172,23.892l-9.26,67.445
	C10.004,116.256-0.17,178.3,0.002,190.046l12.916,10.603c16.775,13.803,12.089,12.946,28.692,7.487
	c16.804-5.487,17.062-2.829,18.176-13.061C61.9,175.757,72.731,90.393,74.932,85.991c1.858,11.518,17.09,111.913,18.947,114.085
	c1.687,1.915,36.408,11.317,39.809,11.432l20.262-25.492l-13.603-69.617c-5.173-26.435-13.889-60.9-18.262-85.507
	c-1.114-6.287,0.029-3.286,1.258-6.943c0.829-2.459,0.629-6.402,0.629-9.375c0.085-11.26-11.346-11.545-27.606-13.203
	C75.532-0.716,37.896-1.63,21.721,7.801L21.721,7.801z"/>
<path fill-rule="evenodd" clip-rule="evenodd" fill="#BBC89A" d="M23.606,9.573c1.114,1.8-1.286,0.256,2.515,2.371
	c3.516,1.973,16.804,3.715,21.148,4.258c5.629,0.687,4.429,0.915,7.744-1.343c11.688-7.888,26.663,1.229,32.007,2.058
	c10.688,1.629,25.091-3.943,34.293-7.344C111.055,0.827,33.151-0.63,23.606,9.573L23.606,9.573z"/>
<path fill-rule="evenodd" clip-rule="evenodd" fill="#62B19F" d="M65.787,17.688l8.145-0.143l0.229,15.261l-8.344-0.114
	L65.787,17.688z M61.357,35.837l19.833-0.344c4.772-1.543,4.487-10.031,3.516-15.719c-1.2-6.887-8.659-5.286-15.833-5.4
	c-8.115-0.143-13.316-1.115-13.688,7.287C54.898,28.634,54.042,34.636,61.357,35.837L61.357,35.837z"/>
<path fill-rule="evenodd" clip-rule="evenodd" fill="#63AFB8" d="M87.506,19.204l-0.628,10.974l34.893-6.259l-0.114-9.773
	C120.485,14.174,104.253,18.46,87.506,19.204L87.506,19.204z"/>
<path fill-rule="evenodd" clip-rule="evenodd" fill="#63AFB8" d="M53.213,29.949L52.67,19.003
	c-17.832-2.715-10.002-0.457-29.406-5.629c-0.086,10.517-1.429,11.488,8.888,13.717C38.981,28.577,45.954,29.635,53.213,29.949
	L53.213,29.949z"/>
<path fill-rule="evenodd" clip-rule="evenodd" fill="#C0C577" d="M72.902,50.183l2.029,24.063c8.974-0.543,7.145-7.287,6.659-15.289
	c-0.4-6.658-1.4-13.203-1.772-19.69l-7.486-0.714L72.902,50.183z"/>
<path fill-rule="evenodd" clip-rule="evenodd" fill="#C0C577" d="M97.823,32.95c3.657,1.114,7.858,4.172,11.402,5.83l13.288,4.115
	l-3.258-15.146c-2.857,1.114-6.83,2.114-10.345,2.657l-7.944,1.058c-5.059,1.515,4.743-2.314-2.372,1.057
	C98.395,32.606,98.052,32.778,97.823,32.95L97.823,32.95z"/>
<path fill-rule="evenodd" clip-rule="evenodd" fill="#C0C577" d="M22.35,41.638c8.401-1.887,18.918-4.516,22.119-9.889
	l-20.205-4.516L22.35,41.638z"/>
<path fill-rule="evenodd" clip-rule="evenodd" fill="#343434" d="M68.873,19.718h2.029c1.915,2.601,1.286,6.487,1.229,11.117
	c-4.629-0.371-4.143,0.886-4.457-4.029C67.502,23.661,67.616,21.804,68.873,19.718L68.873,19.718z M65.816,32.692l8.344,0.114
	l-0.229-15.261l-8.145,0.143L65.816,32.692z"/>
<path fill-rule="evenodd" clip-rule="evenodd" fill="#FFFFFF" d="M68.873,19.718c-1.257,2.086-1.371,3.943-1.199,7.088
	c0.314,4.915-0.172,3.658,4.457,4.029c0.058-4.63,0.687-8.517-1.229-11.117H68.873z"/>
<path fill-rule="evenodd" clip-rule="evenodd" fill="#7C7C7C" d="M72.902,50.183l-0.57-11.631l7.486,0.714l1.372-3.772
	l-19.833,0.344c4.287,1.942,12.061,0.714,17.719,0.914l-7.488,2.058C70.788,42.952,71.561,47.011,72.902,50.183L72.902,50.183z"/>
</svg>
