<?xml version="1.0" encoding="utf-8"?>
<!-- Generator: Adobe Illustrator 15.0.0, SVG Export Plug-In  -->
<!DOCTYPE svg PUBLIC "-//W3C//DTD SVG 1.1//EN" "http://www.w3.org/Graphics/SVG/1.1/DTD/svg11.dtd" [
	<!ENTITY ns_flows "http://ns.adobe.com/Flows/1.0/">
]>
<svg version="1.1"
	 xmlns="http://www.w3.org/2000/svg" xmlns:xlink="http://www.w3.org/1999/xlink" xmlns:a="http://ns.adobe.com/AdobeSVGViewerExtensions/3.0/"
	 x="0px" y="0px" width="375px" height="380px" viewBox="2.92 0 375 380" enable-background="new 2.92 0 375 380"
	 xml:space="preserve">
<defs>
</defs>
<path fill-rule="evenodd" clip-rule="evenodd" fill="#F9B9BD" d="M161.375,348.021c-1.315,2.172,1.743,1.114-1.715,1.887
	l-2.172-2.201c-9.031-6.087-30.807-28.436-35.15-42.324c-9.745-31.065,31.321-34.866,36.408-17.147
	c2.972-0.657,1.314,0.2,3.172-0.829c2.172-6.744,10.031-9.802,16.889-9.859c8.859-0.057,13.803,4.201,17.175,8.545
	c2.657,2.458,2.286,1.887,2.915,5.859c2.771,14.832-7.431,25.749-13.489,33.094c-1.914,2.314-3.229,4.544-5.458,6.658
	C174.949,336.418,166.376,346.392,161.375,348.021L161.375,348.021z M263.482,313.355c-4.058-1.687-18.347-15.604-21.318-18.919
	l-9.202-11.003c-26.435-36.123,11.66-50.87,26.006-36.066l3.658,4.516l28.406-8.374c10.002,4.373,13.545,14.604,9.744,26.464
	C296.576,283.119,270.855,309.411,263.482,313.355L263.482,313.355z M75.413,185.609c0.686,0.4,2.515,1.429,3.144,1.829
	c2.058-8.631,15.718-14.604,27.12-9.603c9.574,4.201,14.26,13.975,9.659,26.721c-4.372,12.061-28.806,37.98-37.351,43.153
	l-11.06-8.916c-2.629-2.344-7.315-6.802-9.602-9.545c-5.801-7.002-11.774-12.86-16.489-22.863
	C25.831,174.606,71.813,167.491,75.413,185.609L75.413,185.609z M203.013,175.436c2-1.572,11.316-16.833,28.006-9.002
	c36.751,17.318-23.634,68.502-28.006,70.075c-12.832-11.403-30.893-26.407-37.323-43.068c-4.916-12.774,0.086-22.834,9.23-26.978
	C187.924,160.546,196.411,167.434,203.013,175.436L203.013,175.436z M309.864,208.529c-4.315-2.315-21.176-19.604-25.72-24.606
	c-1.144-1.258-2.801-3.515-4.43-5.716c-10.345-14.003-14.346-32.837,2.344-39.781c17.89-7.43,25.948,7.888,27.806,9.517l10.46-9.688
	c8.201-5.544,53.325,3.315,10.088,51.556C328.269,192.211,313.294,207.101,309.864,208.529L309.864,208.529z M107.563,82.956
	l2.144-0.743c3.601-4.315,4.458-7.23,11.145-9.231c6.316-1.915,12.231-0.771,17.29,1.458c4.172,1.229,2.515-0.4,4.401,3.887
	c5.773,3.172,6.516,13.889,4.001,21.405c-4.658,13.889-28.806,39.095-37.294,44.182l-10.945-9.031
	C84.529,123.137,52.465,87.242,80.3,73.811C91.502,68.409,105.991,74.468,107.563,82.956L107.563,82.956z M227.189,118.05
	c-4.802-3.229-16.461-14.375-21.262-19.291c-5.688-5.858-13.575-15.918-16.29-24.035c-4.486-13.518,0.429-23.005,9.974-26.806
	c14.547-5.802,21.434,1.972,27.578,9.23c7.802-6.973,13.346-15.003,27.663-9.345c10.03,3.973,14.146,14.489,9.859,26.864
	c-3.401,9.888-11.088,18.062-16.375,23.978C245.907,101.36,230.333,116.421,227.189,118.05L227.189,118.05z M168.062,3.65
	c-38.065,4.172-71.044,20.005-98.536,42.239c-83.646,67.674-89.391,197.763-12.231,276.125
	c63.128,64.13,160.206,74.732,239.909,22.005c4.087-2.687,9.545-6.688,13.175-9.888c43.324-38.066,74.159-96.652,66.7-165.641
	C366.705,72.725,278.771-8.438,168.062,3.65L168.062,3.65z"/>
<path fill-rule="evenodd" clip-rule="evenodd" fill="#DD2E27" d="M203.155,233.364c13.031-12.575,28.749-22.92,35.379-41.696
	c4.03-11.489-1-21.377-10.831-23.892c-17.461-4.458-19.032,8.573-24.69,12.26l-9.316-10.545
	c-6.888-5.659-34.065-2.458-25.749,22.806C172.12,204.985,195.239,228.677,203.155,233.364L203.155,233.364z"/>
<path fill-rule="evenodd" clip-rule="evenodd" fill="#DD2E27" d="M79.528,189.639c-2.229,2.486,0.629,0.771-3.144,1.972
	l-1.772-3.772c-2.943-4.201-4.687-7.116-10.431-8.802c-12.974-3.801-29.95,6.745-20.833,26.921
	c7.43,16.49,27.806,31.094,33.236,39.038l10.888-8.773C144.285,189.21,94.36,161.403,79.528,189.639L79.528,189.639z"/>
<path fill-rule="evenodd" clip-rule="evenodd" fill="#DD2E27" d="M263.482,310.211c3.201-2.886,6.517-5.058,9.631-8.345
	c9.26-9.859,20.233-19.204,25.12-32.179c9.316-24.921-18.89-29.093-26.063-23.12l-8.688,10.23
	c-4.772-2.601-6.287-16.032-24.205-11.889c-10.345,2.401-15.688,11.175-11.459,23.663c3.229,9.574,10.088,16.976,15.346,22.835
	C245.965,294.551,260.168,308.668,263.482,310.211L263.482,310.211z"/>
<path fill-rule="evenodd" clip-rule="evenodd" fill="#DD2E27" d="M309.864,205.671c2.515-1.057,17.404-16.433,19.633-18.775
	c6.03-6.373,12.089-12.546,15.661-22.663c8.059-23.034-18.49-28.664-25.806-22.806l-9.488,10.374
	c-4.029-3.429-4.544-7.116-8.858-9.945c-12.604-8.288-56.041,2.83-1.572,53.985C302.948,199.127,305.549,203.385,309.864,205.671
	L309.864,205.671z"/>
<path fill-rule="evenodd" clip-rule="evenodd" fill="#DD2E27" d="M157.631,345.563l4.001,0.172
	c13.632-13.575,37.979-33.837,34.836-52.784c-0.686-1.887-1.515-3.83-2.715-6.059c-5.229-3.744-13.917-11.632-25.663-3.372
	c-3.372,2.343-2.229,2.657-5.315,5.372l-1.686,1.973l-1.429,2.058c-3.715-3.401-7.03-15.775-23.72-12.118
	c-17.975,3.973-13.289,21.777-5.201,35.352c3.373,5.659,5.116,6.145,8.574,10.546C146.286,335.561,156.859,342.02,157.631,345.563
	L157.631,345.563z"/>
<path fill-rule="evenodd" clip-rule="evenodd" fill="#DD2E27" d="M227.189,61.579c-3.572-3.372-4.029-7.316-8.916-10.374
	c-12.604-7.859-34.522,2.629-26.149,23.063c4.259,10.374,9.717,15.833,15.976,22.32c3.601,3.715,15.346,16.29,19.09,18.176
	l10.517-9.602c52.668-47.24,13.174-63.13-1.344-53.728c-3.972,2.601-4.715,5.03-7.115,8.002L227.189,61.579z"/>
<path fill-rule="evenodd" clip-rule="evenodd" fill="#DD2E27" d="M141.399,79.812c-1.743-1.144-2.086-1.601-4.258-3.344
	c-12.603-4.058-19.89-1.972-25.606,8.259c-1.4,2.458-0.085,1.6-3.258,2.686c-1.143-1.714-0.972-1.629-1.915-3.83
	c-1.4-0.829-9.859-14.575-24.777-7.459c-21.291,10.117-1.715,36.495,8.659,46.612l19.004,17.747
	c3.315-2.229,15.604-14.118,18.947-17.804c5.973-6.544,12.402-13.975,15.546-22.806C147.515,89.329,145.371,87.356,141.399,79.812
	L141.399,79.812z"/>
<path fill-rule="evenodd" clip-rule="evenodd" fill="#252525" d="M168.062,3.65c110.709-12.089,198.643,69.074,209.017,164.84
	c7.459,68.989-23.376,127.575-66.7,165.641c-3.63,3.2-9.088,7.201-13.175,9.888c-79.703,52.728-176.781,42.125-239.909-22.005
	c-77.16-78.362-71.416-208.452,12.231-276.125C97.018,23.655,129.997,7.823,168.062,3.65L168.062,3.65z M379.737,204.557
	c1.314-30.779-1.715-55.556-12.117-81.991C340.729,54.12,280.744,6.165,205.127,0.563c-28.349-2.115-58.47,1.715-82.561,11.632
	c-11.545,4.772-22.205,9.088-31.921,15.489c-5.516,3.629-9.773,6.001-14.575,9.631c-21.49,16.261-41.237,37.581-54.354,63.559
	c-25.806,51.07-28.349,102.854-9.031,156.839c8.116,22.662,14.917,30.036,25.577,46.04c12.403,18.661,42.152,43.524,63.5,54.471
	c20.576,10.573,45.781,19.947,73.016,21.462c41.637,2.372,81.932-5.858,115.025-27.75c5.802-3.829,9.431-5.858,14.461-9.859
	l12.803-10.374c25.291-23.948,44.81-52.184,55.184-86.992C375.851,232.649,379.165,217.903,379.737,204.557L379.737,204.557z"/>
<path fill-rule="evenodd" clip-rule="evenodd" fill="#252525" d="M227.189,61.579l2.058-2.143c2.4-2.972,3.144-5.401,7.115-8.002
	c14.518-9.402,54.012,6.487,1.344,53.728l-10.517,9.602c-3.744-1.886-15.489-14.46-19.09-18.176
	c-6.259-6.487-11.717-11.946-15.976-22.32c-8.373-20.434,13.546-30.922,26.149-23.063C223.16,54.263,223.617,58.207,227.189,61.579
	L227.189,61.579z M227.189,118.05c3.144-1.629,18.718-16.69,21.147-19.405c5.287-5.916,12.974-14.089,16.375-23.978
	c4.286-12.375,0.171-22.891-9.859-26.864c-14.317-5.658-19.861,2.372-27.663,9.345c-6.145-7.259-13.031-15.032-27.578-9.23
	c-9.545,3.801-14.46,13.289-9.974,26.806c2.715,8.117,10.603,18.176,16.29,24.035C210.729,103.675,222.388,114.82,227.189,118.05
	L227.189,118.05z"/>
<path fill-rule="evenodd" clip-rule="evenodd" fill="#252525" d="M203.155,233.364c-7.916-4.688-31.035-28.379-35.208-41.067
	c-8.316-25.264,18.861-28.464,25.749-22.806l9.316,10.545c5.658-3.687,7.229-16.719,24.69-12.26
	c9.831,2.515,14.861,12.403,10.831,23.892C231.904,210.444,216.187,220.789,203.155,233.364L203.155,233.364z M203.013,175.436
	c-6.602-8.002-15.089-14.89-28.092-8.974c-9.145,4.144-14.146,14.203-9.23,26.978c6.43,16.661,24.491,31.665,37.323,43.068
	c4.372-1.572,64.757-52.756,28.006-70.075C214.329,158.603,205.013,173.863,203.013,175.436L203.013,175.436z"/>
<path fill-rule="evenodd" clip-rule="evenodd" fill="#252525" d="M78.557,187.438c2.601-0.086,0.8-0.515,0.972,2.2
	c14.832-28.235,64.757-0.429,7.944,46.583l-10.888,8.773c-5.43-7.944-25.806-22.548-33.236-39.038
	c-9.117-20.176,7.859-30.722,20.833-26.921c5.744,1.686,7.487,4.601,10.431,8.802c1.915-0.886,3.229,2.515,0.8-2.229
	c-3.601-18.119-49.582-11.003-34.579,20.776c4.715,10.003,10.688,15.861,16.489,22.863c2.287,2.743,6.973,7.201,9.602,9.545
	l11.06,8.916c8.545-5.173,32.979-31.093,37.351-43.153c4.601-12.746-0.085-22.52-9.659-26.721
	C94.274,172.835,80.614,178.808,78.557,187.438L78.557,187.438z"/>
<path fill-rule="evenodd" clip-rule="evenodd" fill="#252525" d="M309.864,205.671c-4.315-2.286-6.916-6.544-10.431-9.83
	c-54.469-51.156-11.031-62.273,1.572-53.985c4.314,2.83,4.829,6.516,8.858,9.945l9.488-10.374
	c7.315-5.858,33.864-0.229,25.806,22.806c-3.572,10.117-9.631,16.29-15.661,22.663C327.269,189.238,312.379,204.614,309.864,205.671
	L309.864,205.671z M309.864,208.529c3.43-1.429,18.404-16.318,20.548-18.719c43.237-48.241-1.887-57.1-10.088-51.556l-10.46,9.688
	c-1.857-1.629-9.916-16.947-27.806-9.517c-16.689,6.944-12.688,25.778-2.344,39.781c1.629,2.201,3.286,4.458,4.43,5.716
	C288.688,188.925,305.549,206.214,309.864,208.529L309.864,208.529z"/>
<path fill-rule="evenodd" clip-rule="evenodd" fill="#252525" d="M142.542,78.326l-1.143,1.486
	c3.972,7.544,6.116,9.517,2.343,20.062c-3.144,8.831-9.573,16.261-15.546,22.806c-3.344,3.687-15.632,15.575-18.947,17.804
	l-19.004-17.747c-10.374-10.117-29.95-36.495-8.659-46.612c14.917-7.116,23.376,6.63,24.777,7.459l1.458,0.857l-0.257-1.486
	c-1.572-8.488-16.061-14.546-27.263-9.145c-27.834,13.432,4.229,49.326,18.004,61.072l10.945,9.031
	c8.488-5.087,32.636-30.293,37.294-44.182C149.058,92.215,148.315,81.498,142.542,78.326L142.542,78.326z"/>
<path fill-rule="evenodd" clip-rule="evenodd" fill="#252525" d="M263.482,310.211c-3.314-1.543-17.518-15.66-20.318-18.804
	c-5.258-5.859-12.117-13.261-15.346-22.835c-4.229-12.488,1.114-21.262,11.459-23.663c17.918-4.144,19.433,9.288,24.205,11.889
	l8.688-10.23c7.173-5.973,35.379-1.801,26.063,23.12c-4.887,12.975-15.86,22.319-25.12,32.179
	C269.999,305.153,266.684,307.325,263.482,310.211L263.482,310.211z M263.482,313.355c7.373-3.944,33.094-30.236,37.294-43.383
	c3.801-11.859,0.258-22.091-9.744-26.464l-28.406,8.374l-3.658-4.516c-14.346-14.804-52.44-0.057-26.006,36.066l9.202,11.003
	C245.136,297.751,259.425,311.669,263.482,313.355L263.482,313.355z"/>
<path fill-rule="evenodd" clip-rule="evenodd" fill="#252525" d="M157.488,347.706c1.972-0.857,1.829,0.343,0.143-2.144
	c-0.771-3.543-11.345-10.002-18.318-18.861c-3.458-4.401-5.201-4.887-8.574-10.546c-8.087-13.574-12.774-31.379,5.201-35.352
	c16.689-3.657,20.004,8.717,23.72,12.118l1.429-2.058c-1.629-0.801,1.943-2.258-3.115,0.285l0.771-2.915
	c-5.087-17.719-46.153-13.918-36.408,17.147C126.682,319.271,148.458,341.619,157.488,347.706L157.488,347.706z"/>
<path fill-rule="evenodd" clip-rule="evenodd" fill="#252525" d="M161.632,345.734c-0.286,0.172-0.628,0.286-0.686,0.715
	l0.429,1.571c5.001-1.629,13.574-11.603,18.575-16.318c2.229-2.114,3.544-4.344,5.458-6.658
	c6.059-7.345,16.261-18.262,13.489-33.094c-0.286-0.172-1.743,0.229-1.943-0.115c-0.229-0.371-0.343,0.743-0.486,1.115
	C199.611,311.897,175.264,332.159,161.632,345.734L161.632,345.734z"/>
<path fill-rule="evenodd" clip-rule="evenodd" fill="#252525" d="M161.918,287.405c-0.458,2.658-0.601,0.915,0.857,1.486
	c3.086-2.715,1.943-3.029,5.315-5.372c11.746-8.26,20.433-0.372,25.663,3.372c4.03,1.601,1.486,1.058,2.229-0.801
	c-3.372-4.344-8.316-8.602-17.175-8.545C171.949,277.604,164.09,280.661,161.918,287.405L161.918,287.405z"/>
<path fill-rule="evenodd" clip-rule="evenodd" fill="#252525" d="M109.707,82.212c-0.057,4.229-0.6,1.601,1.829,2.515
	c5.716-10.231,13.003-12.317,25.606-8.259c0.571-2.372-1.172-1.086,1-2.029c-5.058-2.229-10.974-3.372-17.29-1.458
	C114.165,74.982,113.307,77.897,109.707,82.212L109.707,82.212z"/>
<path fill-rule="evenodd" clip-rule="evenodd" fill="#686969" d="M137.141,76.468c2.172,1.743,2.515,2.2,4.258,3.344l1.143-1.486
	c-1.886-4.287-0.229-2.658-4.401-3.887C135.969,75.382,137.712,74.096,137.141,76.468L137.141,76.468z"/>
<path fill-rule="evenodd" clip-rule="evenodd" fill="#4A4A4A" d="M74.613,187.838l1.772,3.772c3.772-1.2,0.915,0.515,3.144-1.972
	c-0.171-2.715,1.629-2.286-0.972-2.2c-0.629-0.4-2.458-1.429-3.144-1.829C77.842,190.354,76.528,186.953,74.613,187.838
	L74.613,187.838z"/>
<path fill-rule="evenodd" clip-rule="evenodd" fill="#686969" d="M193.753,286.892c1.2,2.229,2.029,4.172,2.715,6.059
	c0.144-0.372,0.258-1.486,0.486-1.115c0.2,0.344,1.657-0.057,1.943,0.115c-0.629-3.973-0.258-3.401-2.915-5.859
	C195.239,287.949,197.783,288.492,193.753,286.892L193.753,286.892z"/>
<path fill-rule="evenodd" clip-rule="evenodd" fill="#4A4A4A" d="M106.363,83.584c0.943,2.201,0.771,2.115,1.915,3.83
	c3.172-1.086,1.857-0.229,3.258-2.686c-2.429-0.915-1.886,1.714-1.829-2.515l-2.144,0.743l0.257,1.486L106.363,83.584z"/>
<path fill-rule="evenodd" clip-rule="evenodd" fill="#4A4A4A" d="M157.488,347.706l2.172,2.201c3.458-0.772,0.4,0.285,1.715-1.887
	l-0.429-1.571c0.057-0.429,0.4-0.543,0.686-0.715l-4.001-0.172C159.317,348.049,159.46,346.849,157.488,347.706L157.488,347.706z"/>
<path fill-rule="evenodd" clip-rule="evenodd" fill="#686969" d="M158.746,288.234l-0.771,2.915
	c5.058-2.543,1.486-1.086,3.115-0.285l1.686-1.973c-1.458-0.571-1.314,1.172-0.857-1.486
	C160.06,288.435,161.718,287.577,158.746,288.234L158.746,288.234z"/>
</svg>
