<?xml version="1.0" encoding="utf-8"?>
<!-- Generator: Adobe Illustrator 15.0.0, SVG Export Plug-In . SVG Version: 6.00 Build 0)  -->
<!DOCTYPE svg PUBLIC "-//W3C//DTD SVG 1.1//EN" "http://www.w3.org/Graphics/SVG/1.1/DTD/svg11.dtd">
<svg version="1.1" id="Layer_1" xmlns="http://www.w3.org/2000/svg" xmlns:xlink="http://www.w3.org/1999/xlink" x="0px" y="0px"
	 width="32px" height="32px" viewBox="0 0 32 32" enable-background="new 0 0 32 32" xml:space="preserve">
<path d="M30.391,12.68l-3.063-0.614c-0.154-0.443-0.336-0.873-0.537-1.289l1.734-2.604c0.529-0.793,0.426-1.85-0.25-2.523
	l-1.924-1.924c-0.389-0.387-0.896-0.586-1.416-0.586c-0.385,0-0.771,0.11-1.105,0.336l-2.604,1.735
	c-0.418-0.202-0.851-0.382-1.291-0.536L19.32,1.61c-0.188-0.936-1.008-1.608-1.961-1.608h-2.72c-0.953,0-1.774,0.673-1.961,1.608
	l-0.614,3.065c-0.443,0.154-0.873,0.335-1.289,0.536L8.172,3.476C7.833,3.25,7.447,3.14,7.063,3.14
	c-0.517,0-1.028,0.199-1.415,0.586L3.725,5.65c-0.674,0.674-0.779,1.73-0.25,2.523l1.735,2.604c-0.202,0.417-0.382,0.847-0.536,1.29
	L1.608,12.68C0.673,12.867,0,13.688,0,14.641v2.72c0,0.953,0.673,1.771,1.608,1.961l3.065,0.615
	c0.154,0.439,0.335,0.873,0.536,1.289L3.475,23.83c-0.529,0.793-0.424,1.85,0.25,2.523l1.924,1.924
	c0.387,0.387,0.898,0.586,1.415,0.586c0.384,0,0.771-0.111,1.108-0.336l2.604-1.736c0.417,0.203,0.847,0.383,1.29,0.537l0.613,3.064
	C12.866,31.328,13.687,32,14.64,32h2.719c0.953,0,1.772-0.674,1.961-1.607l0.615-3.063c0.44-0.154,0.873-0.336,1.289-0.537
	l2.604,1.734c0.338,0.227,0.727,0.338,1.105,0.338c0.52,0,1.027-0.199,1.416-0.588l1.924-1.924c0.676-0.674,0.777-1.729,0.25-2.521
	l-1.734-2.604c0.203-0.418,0.383-0.851,0.537-1.291l3.063-0.612C31.326,19.137,32,18.314,32,17.361v-2.72
	C32,13.688,31.326,12.867,30.391,12.68z M26.934,17.975c-0.695,0.143-1.264,0.635-1.496,1.309c-0.129,0.365-0.275,0.727-0.443,1.07
	c-0.313,0.643-0.262,1.396,0.135,1.982l1.732,2.604l-1.924,1.928l-2.604-1.736c-0.334-0.223-0.721-0.336-1.109-0.336
	c-0.297,0-0.596,0.063-0.871,0.199c-0.348,0.168-0.705,0.316-1.076,0.445c-0.668,0.232-1.164,0.805-1.303,1.496l-0.615,3.066H14.64
	l-0.613-3.066c-0.139-0.691-0.635-1.264-1.304-1.496c-0.369-0.129-0.728-0.275-1.075-0.443c-0.276-0.139-0.574-0.201-0.872-0.201
	c-0.389,0-0.775,0.113-1.109,0.336l-2.604,1.736l-1.924-1.928l1.735-2.604c0.393-0.59,0.444-1.344,0.137-1.98
	c-0.168-0.348-0.319-0.705-0.448-1.072c-0.232-0.672-0.802-1.164-1.496-1.307l-3.065-0.615L2,14.641l3.066-0.613
	c0.694-0.139,1.264-0.635,1.496-1.304c0.129-0.369,0.278-0.728,0.447-1.075c0.31-0.638,0.258-1.392-0.136-1.981L5.139,7.064
	L7.062,5.14l2.604,1.735C10,7.098,10.387,7.211,10.775,7.211c0.297,0,0.595-0.066,0.871-0.199c0.347-0.168,0.705-0.319,1.075-0.448
	c0.669-0.232,1.165-0.802,1.304-1.496l0.614-3.065l2.72-0.001l0.613,3.066c0.139,0.694,0.635,1.264,1.305,1.496
	c0.369,0.129,0.727,0.278,1.074,0.447c0.273,0.134,0.57,0.2,0.873,0.2c0.389,0,0.771-0.113,1.105-0.336l2.604-1.735l1.924,1.924
	l-1.734,2.604c-0.395,0.59-0.441,1.343-0.139,1.98c0.168,0.347,0.32,0.705,0.449,1.075c0.23,0.669,0.801,1.165,1.496,1.304
	l3.063,0.614L30,17.361L26.934,17.975z M16,9.001c-3.865,0-7,3.135-7,7c0,3.866,3.135,7,7,7s7-3.135,7-7S19.865,9.001,16,9.001z
	 M16,22.127c-3.382,0-6.125-2.744-6.125-6.125S12.618,9.877,16,9.877c3.381,0,6.125,2.743,6.125,6.125
	C22.125,19.383,19.381,22.127,16,22.127z M16,12.001c-2.21,0-4,1.79-4,4s1.79,4,4,4c2.209,0,4-1.791,4-4S18.209,12.001,16,12.001z
	 M16,19.002c-1.656,0-3-1.344-3-3c0-1.656,1.344-3,3-3s3,1.344,3,3C19,17.658,17.656,19.002,16,19.002z"/>
</svg>
