<?xml version="1.0" encoding="utf-8"?>
<!-- Generator: Adobe Illustrator 15.0.0, SVG Export Plug-In . SVG Version: 6.00 Build 0)  -->
<!DOCTYPE svg PUBLIC "-//W3C//DTD SVG 1.1//EN" "http://www.w3.org/Graphics/SVG/1.1/DTD/svg11.dtd">
<svg version="1.1" id="Layer_1" xmlns="http://www.w3.org/2000/svg" xmlns:xlink="http://www.w3.org/1999/xlink" x="0px" y="0px"
	 width="100px" height="100px" viewBox="0 0 100 100" enable-background="new 0 0 100 100" xml:space="preserve">
<path fill="#EE4223" stroke="#000000" stroke-width="0.5" stroke-miterlimit="10" d="M96.559,25
	c0,11.906-9.649,21.559-21.558,21.559S53.441,36.907,53.441,25s9.65-21.559,21.56-21.559C86.907,3.441,96.559,13.093,96.559,25z
	 M75.001,10.987c-7.739,0-14.015,6.274-14.015,14.013s6.275,14.013,14.015,14.013c7.74,0,14.013-6.274,14.013-14.013
	S82.74,10.987,75.001,10.987z"/>
<path fill="#EE4223" stroke="#000000" stroke-width="0.5" stroke-miterlimit="10" d="M46.559,75
	c0,11.906-9.651,21.559-21.558,21.559S3.441,86.908,3.441,75s9.652-21.559,21.56-21.559C36.907,53.441,46.559,63.094,46.559,75z
	 M25.001,60.986c-7.739,0-14.014,6.272-14.014,14.014s6.274,14.014,14.014,14.014c7.74,0,14.013-6.273,14.013-14.014
	S32.74,60.986,25.001,60.986z"/>
<path fill="#EE4223" stroke="#000000" stroke-width="0.5" stroke-miterlimit="10" d="M96.559,75
	c0,11.906-9.649,21.559-21.558,21.559S53.441,86.907,53.441,75s9.65-21.559,21.56-21.559C86.907,53.441,96.559,63.094,96.559,75z
	 M75.001,60.986c-7.739,0-14.015,6.272-14.015,14.014s6.275,14.014,14.015,14.014c7.74,0,14.013-6.273,14.013-14.014
	S82.74,60.986,75.001,60.986z"/>
<polygon fill="#6CBD45" stroke="#231F20" stroke-width="0.5" stroke-miterlimit="10" points="12.272,16.515 3.787,25 20.757,41.971 
	29.243,33.486 46.213,16.515 37.728,8.03 20.757,25 "/>
</svg>
