<?xml version="1.0" encoding="utf-8"?>
<!-- Generator: Adobe Illustrator 15.0.0, SVG Export Plug-In . SVG Version: 6.00 Build 0)  -->
<!DOCTYPE svg PUBLIC "-//W3C//DTD SVG 1.1//EN" "http://www.w3.org/Graphics/SVG/1.1/DTD/svg11.dtd">
<svg version="1.1" id="Layer_1" xmlns="http://www.w3.org/2000/svg" xmlns:xlink="http://www.w3.org/1999/xlink" x="0px" y="0px"
	 width="32px" height="32px" viewBox="0 0 32 32" enable-background="new 0 0 32 32" xml:space="preserve">
<path fill="#007AFF" d="M1.333,17.333h8c0.368,0,0.682,0.13,0.943,0.392c0.261,0.26,0.391,0.574,0.391,0.942
	s-0.13,0.683-0.391,0.942c-0.261,0.262-0.575,0.392-0.943,0.392h-4.5l3.625,3.542c1.028,1.035,2.205,1.816,3.531,2.344
	c1.271,0.521,2.607,0.781,4.01,0.781c1.403,0,2.739-0.26,4.01-0.781c0.694-0.284,1.346-0.633,1.953-1.047
	c0.607-0.413,1.124-0.837,1.552-1.271c0.428-0.434,0.816-0.898,1.168-1.396c0.35-0.497,0.631-0.953,0.844-1.37
	c0.211-0.416,0.391-0.833,0.535-1.25c0.126-0.348,0.355-0.599,0.688-0.755c0.333-0.155,0.67-0.175,1.01-0.057
	c0.348,0.125,0.599,0.353,0.755,0.682s0.176,0.665,0.057,1.005c-0.291,0.889-0.715,1.771-1.271,2.646s-1.181,1.66-1.875,2.354
	c-1.278,1.278-2.747,2.254-4.405,2.928c-1.611,0.652-3.285,0.979-5.021,0.979c-1.729,0-3.403-0.326-5.021-0.979
	c-1.66-0.674-3.129-1.649-4.406-2.928l-3.906-3.822v5.063c0,0.368-0.13,0.683-0.391,0.943c-0.261,0.26-0.575,0.391-0.943,0.391
	s-0.683-0.131-0.943-0.391c-0.261-0.261-0.391-0.575-0.391-0.943v-8c0-0.368,0.13-0.682,0.391-0.943
	c0.26-0.26,0.575-0.391,0.943-0.391L1.333,17.333z M16,2.667c1.729,0,3.402,0.326,5.021,0.979c1.66,0.673,3.129,1.649,4.405,2.927
	l0.021,0.021l3.885,3.802V5.333c0-0.368,0.13-0.682,0.392-0.943c0.26-0.261,0.574-0.391,0.942-0.391s0.683,0.13,0.942,0.391
	c0.262,0.261,0.392,0.575,0.392,0.943v8c0,0.368-0.13,0.682-0.392,0.943c-0.26,0.261-0.574,0.391-0.942,0.391h-8
	c-0.368,0-0.683-0.13-0.942-0.391c-0.262-0.261-0.392-0.575-0.392-0.943s0.13-0.682,0.392-0.943c0.26-0.261,0.574-0.391,0.942-0.391
	h4.5l-3.625-3.542c-1.015-1.014-2.169-1.789-3.464-2.323S17.424,5.332,16,5.332c-1.403,0-2.739,0.26-4.01,0.781
	c-1.327,0.528-2.504,1.31-3.531,2.344c-0.417,0.368-0.874,0.929-1.37,1.682s-0.88,1.522-1.151,2.307
	c-0.125,0.348-0.354,0.599-0.688,0.755c-0.333,0.156-0.67,0.175-1.01,0.057c-0.348-0.125-0.599-0.353-0.755-0.682
	c-0.156-0.33-0.175-0.665-0.057-1.005C3.72,10.682,4.144,9.8,4.699,8.925c0.555-0.875,1.18-1.66,1.875-2.354
	c1.278-1.278,2.747-2.253,4.406-2.927c1.618-0.653,3.292-0.979,5.021-0.979L16,2.667z"/>
</svg>
