<?xml version="1.0" encoding="utf-8"?>
<!-- Generator: Adobe Illustrator 15.0.0, SVG Export Plug-In  -->
<!DOCTYPE svg PUBLIC "-//W3C//DTD SVG 1.1//EN" "http://www.w3.org/Graphics/SVG/1.1/DTD/svg11.dtd" [
	<!ENTITY ns_flows "http://ns.adobe.com/Flows/1.0/">
]>
<svg version="1.1"
	 xmlns="http://www.w3.org/2000/svg" xmlns:xlink="http://www.w3.org/1999/xlink" xmlns:a="http://ns.adobe.com/AdobeSVGViewerExtensions/3.0/"
	 x="0px" y="0px" width="334px" height="377px" viewBox="0 0 334 377" enable-background="new 0 0 334 377" xml:space="preserve">
<defs>
</defs>
<path fill-rule="evenodd" clip-rule="evenodd" fill="#FAE00B" d="M151.879,147.433c9.145-1.629,24.72,2.972,33.122,8.002
	c1.172,0.686,6.345,5.401,7.259,6.459c2.286,2.658,3.915,5.801,4.887,9.145c1.715,5.944,4.173,2.972,8.487,5.373
	c7.202,3.973,11.717,6.516,11.603,15.833c-0.028,2.344-0.114,4.087-0.742,6.345c-1.915,7.03,4.515,5.858,9.487,10.431
	c1.629,1.544,4.858,6.173,5.744,8.26c1.458,3.372,1.943,8.63,1.458,12.231c-0.372,2.943-3.229,6.602-5.116,8.888
	c-2.571,3.144-4.4,3.973-7.688,6.087c-11.659,7.573-33.692,9.003-47.152,6.888c-4.115-0.657-7.402-1.657-11.375-2.715
	c-3.829-1.058-6.058-2.486-9.63-4.059c-11.203-4.943-23.577-15.347-29.035-26.406c-1.572-3.201-3.344-6.287-4.344-9.717
	c-2.315-7.83-1.572-3.857-1.572-12.317c-0.028-6.945,1.8-17.033,4.43-23.492C127.417,158.521,136.676,150.119,151.879,147.433
	L151.879,147.433z M69.004,65.498c4.372-0.514,7.145-0.571,11.317,0.915c0.886,0.314,1.286,0.743,2.115,0.972
	c2.372,0.686,3.772,1.343,5.887,3.458c4.086,4.058,5.63,5.316,8.145,10.545c2.515,5.259,3.687,8.66,3.715,14.861
	c0,1.658,0.143,4.43-0.543,5.916c-0.857,1.829-0.429,3.058-1.515,4.572c-2.543,3.458-1.715,3.858-5.516,6.859
	c-1.972,1.543-5.744,3.601-8.173,4.03c-5.515,0.943-14.546-2.315-18.375-6.373c-0.886-0.972-2.4-1.829-3.343-2.944l-5.344-6.973
	c-0.943-1.629-1.314-2.172-2.086-3.972c-1.257-2.972-2.486-12.403-1.143-16.204c0.343-0.972,0.286-1.743,0.571-2.601
	c0.686-2.086,3.572-7.945,5.773-9.431C62.488,67.756,66.632,65.784,69.004,65.498L69.004,65.498z M112.985,273.807
	c0.171-2.315-1.057-10.86-1.486-14.032c-0.172-1.4,0-1.973-0.314-3.458c-0.171-0.801-0.458-2.772,0.372-3.315
	c2.943-1.972,2.429,4.772,2.772,8.431c0.114,1.372,0.543,1.972,0.743,3.058c0.429,2.115,0.115,5.03,0.658,7.145
	c0.857,3.315-1.086,4.544,3.144,8.46c0.6,0.543,0.314,0.543,0.743,1.171c0.429,0.658,0.486,0.458,0.972,0.973
	c0.029,0.028,3.915,5.486,5.03,6.572c1.257,1.229,0.886,0.543,1.772,2.201c1.4,2.543,1.972,2.086,3.658,4.001
	c1.058,1.2,1.886,3.372,3.315,4.4c2.772,2.001,8.802,10.574,8.802,10.574c0.372,0.286,1.915,1.172,2.429,1.4
	c0.8,0.372,4.858,2.4,5.287,2.43c1.286-1.458,1.343-2.915,3.086-4.373c1.314-1.114,2.315-2.601,3.972-3.772
	c1.058-0.743,3.972-2.343,4.601-3.086l7.315-4.373c2.687-1.429,3.059-2.114,3.744-3.972c0.8-2.258,2.715-5.23,4.401-7.202
	c1.515-1.771,1.457-2.829,3.829-3.858c-0.143-3.429,1.657-3.915,3.058-6.373c0.372-0.686,0.743-1.343,1.2-2
	c2.058-3.087,0.972-0.343,3.516-5.83c0.628-1.344,0.257-1.687,2.114-1.486c0.486,2.915-0.972,4.458-2.114,6.23
	c-1.286,1.943-3.287,5.716-4.401,6.973c-1.028,1.172-2.687,4.259-3.43,5.03l-0.571,0.629c-0.829,0.942-3.915,6.944-4.544,8.316
	c-0.629,1.285-0.743,0.828-0.771,2.143c8.345,2.058,16.289,1.943,24.777,2.144c4.344,0.114,6.601-1.343,10.373-3.115
	c3.115-1.457,6.173-2.657,9.26-4.258c3.029-1.543,5.829-3.258,9.03-4.458c3.029-1.144,6.459-2.687,9.259-4.315
	c1.515-0.886,3.115-1.372,4.63-2.172c1.515-0.829,2.601-1.829,4.001-2.772c1.372-0.886,3.001-1.543,4.401-2.372
	c1.399-0.857,2.571-1.915,4.086-2.687c1.801-0.914,2.629-1.286,4.315-2.457c1.429-1.001,3.229-1.086,4.544-2.229
	c1.457-1.258,1.2-2.229,3.314-3.486c1.744-1.029,2.287-1.743,3.744-3.029c1.229-1.086,2.572-1.887,3.887-2.887
	c2.172-1.715,8.316-8.088,10.174-10.146c8.43-9.345,16.46-21.977,20.09-34.094c0.515-1.829,1.172-3.258,1.601-5.173
	c0.399-1.772,0.457-3.973,1.229-5.602c1.515-3.286,10.859-7.716,18.204-22.434c2.629-5.287,5.201-16.433,4.572-22.234
	c-1.801-17.004-4.915-25.206-15.375-38.781c-7.516-9.745-19.947-18.519-31.092-23.148c-6.23-2.572-15.718-5.001-22.377-4.258
	c5.744,10.06,18.833,15.318,19.233,28.293c0.229,8.459-0.458,13.946-10.26,13.603c-10.402-0.371-17.032-5.544-25.206-10.402
	c-2.6-1.543-4.286-3.401-6.572-5.287c-2.43-2-11.031-7.831-13.975-9.717c-14.231-9.031-11.202-5.801-24.777-10.745
	c-11.888-4.344-5.829-1.943-16.231-7.516c-10.431-5.602-11.231-7.03-20.662-14.918c-4.287-3.601-8.287-7.574-12.603-11.117
	c-5.172-4.229-21.662-18.547-27.521-19.462c-3.315-0.515-7.344,0.486-11.002,0.229c-3.887-0.314-7.545-0.343-11.403-0.571
	c-7.944-0.429-14.489-1.258-22.548-0.029c-3.458,0.515-6.401,1.429-9.802,2.144c-3.601,0.743-5.916,0.743-9.316,2.486
	c-4.601,2.372-10.06,6.344-14.203,9.517c-4.944,3.801-8.059,6.944-11.746,11.917c-6.43,8.631-3.572,6.745,1.458,14.089
	c3.372,4.944,7.401,9.945,7.487,16.232c0.086,6.859-4.373,10.631-9.716,13.975c-7.688,4.83-13.489,2.829-10.345,11.088
	c1.286,3.429,1.715,5.973,2.772,9.316c2.572,8.431,6.602,17.862,9.431,26.207l10.631,24.892
	c4.744,10.774,5.516,13.146,12.174,23.406c3.115,4.772,6.201,9.659,9.202,14.518c6.001,9.659,12.146,19.262,19.404,28.007
	C93.181,261.118,102.554,270.949,112.985,273.807L112.985,273.807z"/>
<path fill-rule="evenodd" clip-rule="evenodd" fill="#DBCDCE" d="M212.75,201.532c1.372-3.344,2.2-10.831,1.086-14.232
	c-1.257-3.772-5.059-6.145-8.487-7.716c-2.601-1.172-10.231-3.258-13.003-3.086c-5.087,0.257-10.402,0.686-15.489,1.029
	c-1.571,0.086-6.802-0.8-3.2-2.201c1.771-0.657,5.515-0.571,7.687-0.829c6.716-0.8,14.146,1.686,13.146-2.629
	c-0.771-3.401-4.544-7.43-6.916-9.831c-3.458-3.486-5.315-4.43-9.688-6.544c-9.26-4.487-16.804-5.916-27.063-4.658
	c-4.544,0.543-8.087,2.315-12.003,4.544c-2.543,1.486-6.601,5.401-8.573,7.688c-3.115,3.544-3.886,6.688-5.801,10.717
	c-3.343,7.087-4.744,19.919-4.601,27.807c0.058,3.857,2.429,8.516,4.058,12.003c3.201,6.916,8.459,13.46,13.975,18.719
	c8.917,8.459,21.491,13.289,33.293,15.86l14.717,1.601c6.087,0.028,22.377-2.343,27.606-5.144
	c7.688-4.087,14.003-6.802,16.661-16.09c1.714-6.002-2.544-12.86-6.487-17.176c-1.658-1.801-2.943-1.943-4.916-3.115
	c-4.314-2.601-2.486-4.029-11.831-4.658c-12.603-0.829-9.345,0.515-14.317,1.515c-2.457,0.486-3.144-1.086-2.2-2.2
	c0.457-0.572,0.457-0.314,1.314-0.601c1.229-0.371,0.686-0.429,1.372-0.8c0.343-0.172,1.114-0.258,1.571-0.314
	c1.286-0.2,2.172-0.629,3.087-0.771c1.515-0.229,10.088-0.114,11.688,0.514C210.92,201.532,210.864,201.56,212.75,201.532
	L212.75,201.532z"/>
<path fill-rule="evenodd" clip-rule="evenodd" fill="#3A3A39" d="M138.733,348.911c0.771-0.457,5.944,0,7.087,0.258
	c2.515,0.514,4.601,0.457,7.201,0.828c-0.057,0.972-2,2.372-2.857,3.059c-1.743,1.371-2.801,2.028-4.544,1.457
	c-2.886-0.943-2.858-0.886-4.172-2.144C139.791,350.797,138.133,352.597,138.733,348.911L138.733,348.911z M123.244,350.283
	c-1.829,1.286-8.487,1.086-9.402,0.143c-0.229-0.229-1.029-2.943-1.601-3.915c-1.829-3.229-4.801-5.229,1.686-3.772
	C115.9,343.167,122.758,347.882,123.244,350.283L123.244,350.283z M141.391,346.139c-1.286-2.801,1.372-2.544,3.086-2.572
	c2.143,0,10.745-0.144,12.26,0.343c2.029,0.657,3.429,0.543,5.287,0.943c2.029,0.457,9.917,1.686,11.431,0.571
	c0.343-0.257,2.743-2.915,3.029-3.315c0.886-1.314,1.2-3.144,2.743-3.372c-0.058,1.144-2.029,6.201-1.172,9.374
	c0.486,1.829,2.286,1.314,3.858,1.686c0.886,0.2,0.457,0.543,1.686,0.857c0.657,0.2,1.601,0.2,2.344,0.314
	c1.829,0.258,2.771,0.601,4.744,0.657c1.943,0.029,3.258-0.343,5.087-0.229c4.144,0.258,7.315-0.857,9.602,0.829
	c-4.744,2.486-13.26,2.344-19.547,3.172c-2.058,0.286-5.287,0.086-7.487,0.144c-2.086,0.057-5.201,0.057-7.202,0.229
	c-4.857,0.457-8.973,0.942-14.088,0.942c-3.344,0.029-2.772,1.629-6.487,0.801c-0.6-2.229,2.943-4.315,4.573-5.259
	c1.629-0.914,1.343-1.515,3.4-1.686c1.772-0.172,2.687-0.372,2-2.544c-1.915-0.601-3.115,0.371-5.03-0.028
	c-1.657-0.372-3.058-0.486-4.744-0.657c-1.257-0.144-0.972-0.4-2-0.601C148.078,346.625,142.391,346.653,141.391,346.139
	L141.391,346.139z M155.852,311.359c1.429-0.743,4.201,1.715,5.744,2.486c1.886,0.943,3.801,1.829,5.687,2.771
	c2.172,1.058,3.172,2.173,5.201,3.259c1.601,0.886,3.229,2.601,4.344,4.144c2.943,4.059,2.114,9.06-0.172,13.231
	c-0.857,1.544-2.429,3.43-3.515,4.916c-1.458,1.943-4.858,1.114-6.944,0.714c-1.343-0.285-2.629-0.114-4.03-0.399
	c-1.772-0.4-1.6-0.572-3.658-0.687l-7.487-0.942c-1.201-0.058-7.288,0.429-7.745-0.258c-0.314-0.485,0.085-3.058,0.286-3.658
	c0.2-0.686,0.486-0.628,0.743-1.285c0.286-0.629,0.143-0.829,0.486-1.515c1-2.115,0.343-1.801,0.857-3.544l2.315-6.173
	c0.543-1.058,1.143-1.544,1.572-2.458c0.458-0.972,0.771-2.344,1.229-3.144c0.486-0.857,1.2-1.572,1.6-2.515
	C152.879,315.045,154.623,311.988,155.852,311.359L155.852,311.359z M150.136,362.486c-1.372,0.399-5.887,0.143-7.602,0.114
	c-2.686,0-5.172,0.257-7.745,0.285c-4.201,0.029-4.001,0.658-6.744,0.915c-1.372,0.143-1.886,0.429-3.115,0.771
	c-1.229,0.372-2.629,0.143-3.915,0.286l-9.002,2.543c-1.257,0.314-2.458,0.258-3.572,0.601c-1.972,0.571-3.086,1.172-6.258,1.686
	c-2.343,0.344-4.687,1.344-6.973,0.829c0-2.658,8.087-6.716,9.173-7.545c2.315-1.8,1.744-0.942,4.516-1.314
	c0.314-1.886-0.2-1.972-1.601-2.743c-0.686-0.4-0.628-0.572-1.2-1.001c-0.314-0.229-0.486-0.285-0.6-0.371
	c-1.229-0.886-0.4-0.715-3.229-2.344c-0.571-0.314-1.029-0.457-1.429-0.714c-1.915-1.144-2.886-0.543-5.258-1.314
	c-1.486-0.458-2.429-0.372-4.086-0.4c-1.572-0.028-7.459,0.457-8.316-0.172c-0.143-3,12.432-2.028,14.575-1.8
	c2.086,0.229,5.03,0.857,7.202,1.229c1.372,0.229,2.315,0.457,3.601,0.715c1.143,0.257,3.029,0.114,4.229,0.143
	c0.972,0.571,0.343,0.686,1.258,0.886l6.487,0.058c2.201,0,1.658,0.143,3.487-0.771c1.028-0.543,2.229-0.687,3.315-1.286
	c6.887-3.916,7.773-11.146,9.974-16.633c0.6-1.429,1.114-0.229,1.2-2.973l2.372-11.346c0.743-2.515,0.257-5.344,1.886-7.115
	c0.8,0.856,1.315,1.571,2.458,1.914c0.457,0.144,2.857,1.144,3.115,1.314c0.143,1.943-0.114,0.4-1.029,3.229
	c-0.972,2.915-3.229,6.573-3.944,9.889c-0.429,2.058-1.972,3.601-2.086,4.544c-0.171,1.515,0.372,0.771-0.486,2.114
	c-0.943,1.515-0.486,2.172-0.771,3.687c-0.229,1.172-0.343,0.543-0.686,1.544c-0.343,0.942-0.886,2.801-1.486,3.286
	c-1.515,1.258,0.057-0.429-0.6,0.457c-0.314,0.429-1.029,1.486-1.144,2.201c-0.257,2.144-1.943,4.572,3.772,6.802l6.087,3.086
	c1.258,0.687,1.486,1.258,2.658,1.943C149.907,360.428,150.593,360.914,150.136,362.486L150.136,362.486z M159.224,309.187
	c0.057-1.4,1.229-2.144,2.515-2.687c2.029-0.857-0.4-0.457,4.858-3.286c0.687-0.372,1.315-1.172,1.973-1.43
	c1.743-0.686,0.828,0.372,2.257-1.086c1.172-1.229,3.373-1.629,4.916-0.8c1.771,1,5.915,0.229,9.002,1.143
	c2.172,0.658,12.088,0.058,15.86,0.629c0.143,1.486,0.2,1.144-2.114,3.43c-3.315,3.258-1.229,1.144-3.115,2.486
	c-0.657,0.457-0.771,1.144-1.144,1.687c-0.514,0.714-1.086,0.771-1.6,1.114l-5.888,5.029c-4.115,2.516-3.029,3.83-3.314,5.116
	c-0.258,1.172-0.657,0.429-0.829,1.715c-0.2,1.629,0.4,0.886-1.028,3.2l-0.543,0.657c-1.029-2.029-1.201-3.172-2.63-4.63
	c-2.172-2.229-4.029-3.886-6.63-5.458c-2.114-1.258-1.314-0.972-1.943-1.486c-0.028,0-0.086-0.057-0.114-0.086
	c-0.314-0.199-0.571-0.199-0.857-0.257c-1.972-0.343-1.857-0.914-3.372-1.543L159.224,309.187z M112.985,273.807
	c-10.431-2.858-19.804-12.689-26.549-20.806c-7.259-8.745-13.403-18.348-19.404-28.007c-3-4.858-6.087-9.745-9.202-14.518
	c-6.659-10.26-7.43-12.632-12.174-23.406l-10.631-24.892c-2.829-8.345-6.858-17.776-9.431-26.207
	c-1.057-3.344-1.486-5.887-2.772-9.316c-3.144-8.259,2.658-6.259,10.345-11.088c5.344-3.344,9.802-7.116,9.716-13.975
	c-0.086-6.287-4.115-11.289-7.487-16.232c-5.03-7.345-7.888-5.458-1.458-14.089c3.687-4.973,6.802-8.116,11.746-11.917
	c4.144-3.172,9.602-7.145,14.203-9.517c3.4-1.743,5.715-1.743,9.316-2.486c3.401-0.715,6.345-1.629,9.802-2.144
	c8.059-1.229,14.604-0.4,22.548,0.029c3.858,0.229,7.516,0.257,11.403,0.571c3.658,0.257,7.687-0.743,11.002-0.229
	c5.858,0.915,22.348,15.232,27.521,19.462c4.315,3.543,8.316,7.516,12.603,11.117c9.431,7.888,10.231,9.316,20.662,14.918
	c10.402,5.573,4.344,3.172,16.231,7.516c13.575,4.944,10.546,1.714,24.777,10.745c2.943,1.886,11.545,7.716,13.975,9.717
	c2.286,1.886,3.973,3.744,6.572,5.287c8.174,4.858,14.804,10.031,25.206,10.402c9.802,0.343,10.488-5.144,10.26-13.603
	c-0.4-12.975-13.489-18.233-19.233-28.293c6.659-0.743,16.146,1.687,22.377,4.258c11.145,4.63,23.576,13.403,31.092,23.148
	c10.46,13.575,13.574,21.777,15.375,38.781c0.629,5.801-1.943,16.947-4.572,22.234c-7.345,14.718-16.689,19.148-18.204,22.434
	c-0.771,1.629-0.829,3.829-1.229,5.602c-0.429,1.915-1.086,3.344-1.601,5.173c-3.63,12.117-11.66,24.749-20.09,34.094
	c-1.857,2.058-8.002,8.431-10.174,10.146c-1.314,1-2.658,1.801-3.887,2.887c-1.457,1.286-2,2-3.744,3.029
	c-2.114,1.257-1.857,2.229-3.314,3.486c-1.314,1.144-3.115,1.229-4.544,2.229c-1.687,1.171-2.515,1.543-4.315,2.457
	c-1.515,0.771-2.687,1.829-4.086,2.687c-1.4,0.829-3.029,1.486-4.401,2.372c-1.4,0.943-2.486,1.943-4.001,2.772
	c-1.515,0.8-3.115,1.286-4.63,2.172c-2.8,1.629-6.229,3.172-9.259,4.315c-3.201,1.2-6.001,2.915-9.03,4.458
	c-3.087,1.601-6.145,2.801-9.26,4.258c-3.772,1.772-6.029,3.229-10.373,3.115c-8.488-0.2-16.433-0.086-24.777-2.144
	c0.028-1.314,0.143-0.857,0.771-2.143c0.629-1.372,3.715-7.374,4.544-8.316l0.571-0.629c0.743-0.771,2.401-3.858,3.43-5.03
	c1.114-1.257,3.115-5.029,4.401-6.973c1.143-1.772,2.601-3.315,2.114-6.23c-1.857-0.2-1.486,0.143-2.114,1.486
	c-2.544,5.487-1.458,2.743-3.516,5.83c-0.457,0.657-0.828,1.314-1.2,2c-1.4,2.458-3.2,2.944-3.058,6.373
	c-2.372,1.029-2.314,2.087-3.829,3.858c-1.687,1.972-3.602,4.944-4.401,7.202c-0.686,1.857-1.058,2.543-3.744,3.972l-7.315,4.373
	c-0.629,0.743-3.543,2.343-4.601,3.086c-1.657,1.172-2.658,2.658-3.972,3.772c-1.743,1.458-1.8,2.915-3.086,4.373
	c-0.429-0.029-4.487-2.058-5.287-2.43c-0.514-0.229-2.057-1.114-2.429-1.4c0,0-6.03-8.573-8.802-10.574
	c-1.429-1.028-2.257-3.2-3.315-4.4c-1.686-1.915-2.257-1.458-3.658-4.001c-0.886-1.658-0.515-0.972-1.772-2.201
	c-1.115-1.086-5.001-6.544-5.03-6.572c-0.486-0.515-0.543-0.314-0.972-0.973c-0.429-0.628-0.143-0.628-0.743-1.171
	c-4.229-3.916-2.287-5.145-3.144-8.46c-0.543-2.114-0.229-5.029-0.658-7.145c-0.2-1.086-0.628-1.686-0.743-3.058
	c-0.343-3.658,0.171-10.402-2.772-8.431c-0.829,0.543-0.543,2.515-0.372,3.315c0.314,1.485,0.143,2.058,0.314,3.458
	C111.928,262.947,113.156,271.492,112.985,273.807L112.985,273.807z M99.096,3.168c2.4-0.915,4.401-0.2,6.201,1.372
	c1,0.886,2.886,3.258,3.401,4.487c0.514,1.286,0.314,1.915-0.171,3.144c-1.029,2.515-0.515,8.059,1.429,9.945
	c6.03,5.887,20.976-14.947,17.518,5.116c-0.229,1.257-0.2,2.515-0.429,3.687l-2.4,9.745c-1.143,3.858-9.917,2.429-13.003,2.572
	c-1.829,0.057-5.772-0.029-7.487-0.4c-2.286-0.514-4.944-0.543-7.344-0.657c-6.859-0.372-16.461-1-22.948,1.058
	c-3.029,0.972-10.745,3.829-12.774,0.4c-2.372-3.944-0.629-0.486-2.829-5.173c-2.258-4.83-2.944-8.431-2.372-13.86
	c0.372-3.458,3.258-8.059,6.03-10.203c1.972-1.543,9.859-5.516,11.517-2.486c1.4,2.572,4.23,9.574,8.545,6.602
	c2.429-1.686,10.717-11.203,12.146-12.289C95.152,5.483,98.01,3.597,99.096,3.168L99.096,3.168z M28.48,74.701
	c-0.2,0.915-0.943,1.915-1.629,2.543c-1.743,0.743-7.259-2.029-8.03-1.115c-0.714,1.601,2.144,2.229,3.429,2.601
	c1.744,0.515,3.83,0.343,5.087,0.857c0.915,0.372,2.572,2.286,3.029,3.201c0.771,1.572,1.629,2.086,2.772,3.344
	c1.715,1.858,3.572,5.03,4.887,7.374c0.458,0.771,0.572,1.457,0.972,2.2c0.657,1.2,0.314,1.286,0.829,2.315
	c0.657,1.372,0.571,0.429,0.657,2.315c0.143,3.287,0.2,4.287-1.829,7.23c-1.2,1.714-1,1.943-2.801,3.115
	c-1.4,0.915-2.486,1.744-3.886,2.543c-2.401,1.372-10.66,5.202-12.603,5.202c-0.571,0-1.743-0.429-2.515-0.543
	c-5.801-0.771-10.231,2.801-8.145-2.058c1.029-2.429-0.486-0.114,1.972-4.83c0.572-1.115,0.829-1.115,1.372-1.772
	c0.257-0.314,0.743-1.629,1.115-2.257c0.915-1.543,3.629-5.202,4.83-5.116c0.543,0.057,6.602,5.43,9.259,4.658
	c0.714-2-1.143-2.258-4.144-3.772l-6.916-5.258c-1.829-2.115-2.658-4.172-4.858-6.973c-1.286-1.686-2.029-3.258-3.172-5.059
	c-0.314-0.514-2.744-4.858-2.801-5.03c-0.515-1.572-0.458-1.6-1.172-3.058c-0.857-1.715-0.6-0.886-0.972-2.887
	c-0.286-1.429-0.514-0.571-0.8-3.229c-0.486-4.229,0.257-4.944,3.687-1.886c1,0.886,2.2,1.286,3.258,2.286
	c1,0.972,2.486,1.629,3.029,2.086c1.857,1.543,1,0.286,2.286,1.343c1.572,1.258,2.543,0.429,2.058-0.6
	c0-0.057-0.057-0.114-0.086-0.143c-0.429-0.714-2.829-1.829-3.486-2.372c-0.943-0.714-0.286-0.572-1.715-0.629
	c-0.314-1.257-0.028-0.486-0.771-1.029c-0.343-0.229-0.8-0.457-1.143-0.743c-1.886-1.714-0.286-0.4-2.258-1.657
	c-2.086-1.343-0.829-1.2-2.2-1.715c-1.343-0.514-0.629,0.229-1.315-0.543c-0.714-0.8,0.086-0.515-1.086-1.114l-1.286,1.229
	c-0.886,1.572-1.2,2.058-1.143,3.629l0.4,2.172c0.028,0.057,0.057,0.114,0.086,0.171c0.628,1.743,0.257,1.629,0.571,3.229
	c0.286,1.486,0.829,0.915,1.086,2.287c0.314,1.8,0.943,3.372,1.829,5.058c0.4,0.772,0.886,1.486,1.057,2.315l3.715,6.745
	c0.457,0.686,0.915,1.4,1.343,2.058c0.972,1.515,1.743,2.858,2.915,4.115c3.973,4.258,0.4,3.858-1.829,7.974
	c-2.429,4.544-6.344,9.459-5.858,14.946c0.628,0.515,0.4,0.2,0.743,0.743c2.172,0.171,9.174-1.857,10.66-1.2
	c2.772,2.829,2.143,4.629,3.201,8.374c2.429,8.63,6.144,16.918,8.945,25.377c2.858,8.631,10.059,23.206,13.317,32.408
	c1.114,3.201,2.029,5.115,3.572,8.116c0.943,1.857,0.686,2.572,0.972,4.487c0.257,1.714,1.058,2.086,2.115,3.287
	c2.744,3.086,10.974,16.747,13.632,20.977c7.173,11.546,14.203,23.52,23.376,33.723c1.857,2.086,3.543,4.086,5.458,6.145
	c1.657,1.743,4.315,3.601,6.287,5.087c5.287,4.029,7.973,6.029,14.117,8.888c3.315,1.543,3.086,3.229,5.43,5.916
	c1.829,2.058,3.144,4.172,5.144,6.229c3.772,3.915,6.773,8.517,10.631,12.346c2.086,2.058,3.572,3.973,5.315,6.288
	c3.001,3.943,1.515,4.058,0.886,8.63c-0.372,2.715-3.601,15.404-4.544,18.376c-0.972,3.144-1.601,5.087-3.429,7.859
	c-1.372,2.086-3.144,5.373-5.602,6.002c-1.2-0.829-1.543-1.601-2.486-2.687c-1.171-1.314-2.429-2.772-4.058-3.373
	c-2-0.714-1.972-1.714-4.287-2.028c-2.4-0.343-0.743-0.743-5.315-0.801c-4.858-0.028-5.63-1.229-5.601,1.943
	c0.8,0.314,1.086,0.771,1.829,1.344l0.714,0.8c0.4,0.601,0.257,1.029,0.6,1.601c0.543,0.943,0.943-0.114,1.886,1.743
	c0.457,0.857,1,1.172,1.086,2.314c-3.715,0.572-3.887-0.485-5.858-0.657c-5.773-0.543-12.374-1.914-18.232-1.086
	c-1.772,0.258-3.115,0.887-4.544,1.943c-1.172,0.887-0.657,0.657-1.458,1.887c-0.314,0.457-0.458,0.514-0.771,0.914
	c-0.8,1-1.315,1.857-2.629,2.258c-1.486,0.429-5.43,2.801-3.486,4.772c1.4,0.857,1.943,0.144,3.172-0.8
	c1.315-0.972,1.601-1.4,3.201-1.915c2.201-0.686,1.229-0.829,4.201-0.886c1.458-0.028,2.943-0.372,4.344-0.457
	c1.972-0.114,7.659,0.143,9.345,0.629c0.686,0.199,0.972,0.514,1.858,0.742c1.229,0.372,0.743,0.114,1.6,0.887
	c1.372,1.229,2.201,0,2.372,2.657l-2.144,1.4c-0.4,0.257-0.771,0.4-1.114,0.601c-0.486,0.229-0.6,0.314-0.886,0.543
	c-0.771,0.657-1.286,0.886-1.8,1.314l-1.657,1.515c-0.572,0.714-1.143,1.229-1.601,1.801c-0.6,0.771-0.486,1.028-1.343,1.771
	c-1.886,1.601-1.4,1.915-2.829,3.486c-1.6,1.772-3.229,2.372-3.229,3.516c-0.029,2.972,2.972-0.258,3.687-0.887
	c1.514-1.257,3.458-0.657,4.858-1.457c2.115-1.2,3.115-0.743,5.458-0.886c1.543-1.515,1.286-0.687,3.372-1
	c1.257-0.172,1.086-0.658,3.144-0.887c1.458-0.143,2.086-0.457,3.401-0.914l13.803-3.172c2.658-0.058,1.515-0.715,3.144-0.887
	c1.315-0.143,2.629-0.199,3.887-0.543c3.572-1,16.032-0.743,20.062-0.429c3.115,0.229,2.486,2.915,5.858,2.601
	c0.314-3.543-4.487-3.458-4.629-6.315c-0.086-1.629,0.6-1.343,1.886-1.486c2.4-0.257,4.086-0.629,6.573-0.686
	c2.343-0.028,4.287-0.229,6.573-0.429c2.229-0.229,4.601-0.028,7.03-0.229c2.114-0.2,4.801-0.058,6.973-0.058
	c2.314,0.029,3.943-0.743,6.516-0.743c2.486,0,4.373-0.114,6.858-0.399l-0.313-0.229c1.371-0.114,4.601-0.258,5.744-0.458
	l4.286-1.515c1.258-0.514,2.772-1.086,3.658-2.086c1.257-1.4,1.8-1.515,3.372-2.458v-1.457c-1.629-1.114-1.458-0.715-3.258-0.543
	c-3.144,0.314-9.174,0-12.603,0.057c-2.458,0.029-6.087,0.2-8.459-0.085c-1.544-0.172-4.658-0.829-6.23-1.515
	c-0.057,0-0.171,0-0.2-0.086c-0.028-0.086-0.143-0.058-0.2-0.114c0-3.658,2.915-16.719,4.059-20.662
	c1.028-3.544,0.286-6.573,3.743-8.659c2.115-1.286,4.858-3.944,6.545-5.773c2.2-2.4,4.544-3.715,6.572-5.802
	c3.029-3.114,1.915-3.857,6.545-5.829c5.43-2.258,11.116-5.316,16.546-7.773c1.43-0.629,2.944-1.058,4.344-1.772
	c1.315-0.686,2.516-1.515,3.858-2.2c2.915-1.486,5.373-2.258,8.088-4.229c1.371-0.972,9.259-4.83,12.088-6.545
	c7.773-4.687,10.945-7.087,17.918-12.803c2.315-1.887,4.688-3.144,7.059-5.287c1.887-1.715,4.602-4.059,6.202-5.916
	c1.943-2.286,3.572-4.458,5.744-6.602c2.571-2.543,8.716-11.088,10.259-14.375c2.687-5.687,3.63-6.315,5.973-12.66
	c0.543-1.429,1.314-2.801,1.801-4.258c1.028-2.973,1.571-6.716,2.572-9.803c0.914-2.801,3.801-4.458,6.001-6.315
	c1.972-1.658,4.229-4.487,5.772-6.573c9.459-12.718,12.031-21.691,11.402-37.667c-0.457-11.574-7.115-25.864-14.003-35.123
	c-3.486-4.715-7.973-8.459-12.088-12.546c-4.344-4.315-7.145-4.916-11.231-7.431c-5.344-3.315-6.029-3.744-12.517-5.887
	c-8.631-2.829-10.346-4.058-20.29-4.544c-4.201-0.171-6.517,3.029-3.201,6.087c4.001,3.687,8.431,8.088,12.06,12.089
	c4.43,4.887,7.802,11.06,6.173,17.89c-1.058,4.544-0.629,5.801-6.201,6.059c-7.201,0.286-12.746-2.372-18.747-5.887
	c-1.629-0.943-2.144-1.286-3.601-2.429c-1.2-0.943-2.515-1.458-3.744-2.344c-4.801-3.429-9.373-7.116-14.231-10.431
	c-2.429-1.658-4.63-3.63-7.03-5.287c-1.229-0.829-2.801-1.458-4.115-2.201c-1.229-0.714-2.429-1.772-3.629-2.372
	c-2.458-1.172-6.944-2.144-9.659-2.715c-2.887-0.629-6.287-2.229-9.116-3.229c-8.088-2.772-9.974-5.087-16.146-8.288
	c-2.086-1.086-5.401-3.572-7.316-5.03c-2.2-1.715-4.743-3.658-6.801-5.516c-1.857-1.658-4.858-4.03-6.859-5.516l-13.174-11.489
	c-2.401-2.315-3.858-3.744-6.659-5.687c-2.229-1.543-8.63-6.745-10.66-7.688c-1.458-0.686-2.629-1.201-4.029-2.058
	c-0.057-1.372,0.171-1.943,0.229-3.258c0.114-1.943,1.743-6.201,1.886-8.459c0.171-3.001,1.743-7.202,1.115-12.289
	c-0.486-3.916-2.801-4.401-6.03-4.116c-0.429,0.058-1.057,0.143-1.486,0.229c-0.857,0.229-1.829,1-3.287,1.743
	c-2.772,1.429-4.687,2.372-8.116,2.172c-0.229-3.172-0.486-5.087-0.086-8.374c0.372-3.058-0.543-3.887-2.029-6.23
	c-0.886-1.372-2.972-3.344-4.487-4.201c-0.286-0.171-2.829-1.029-3.258-1.029c-2.486-0.171-3.315,0.572-4.772,1.4
	c-1.486,0.857-1.629,0.372-4.001,2.572c-2.144,1.972-2.315,1.915-4.086,4.373c-0.543,0.771-1.601,1.314-2.344,1.972
	c-1.257,1.143-5.144,6.202-6.058,6.402c-2.744,0.6-4.115-7.888-7.059-8.574c-1.314-0.314-3.429,0.028-4.715,0.343
	c-0.771,0.2-1.457,0.2-2.229,0.429c-0.714,0.229-1.171,0.572-1.886,0.771c-1.601,0.486-0.543-0.114-1.772,0.886
	c-0.629,0.514-0.857,0.372-1.572,0.857c-2.058,1.4-2.715,2.372-4.001,3.972c-0.314,0.4-0.829,0.743-1.172,1.229L53.4,22.002
	c-0.143,1.029,0.143,1.143-0.286,2.201c-0.686,1.657-0.486,2.943-0.486,4.772c0,3.543,0.343,2.2,0.714,4.344
	c0.314,2.058,0.4,2.286,1.086,4.201l1.715,3.315c0.628,1.058,1.229,2.144,1.943,3.144c0.857,1.229,1.429,1.486,1.372,3.086
	l-4.858,2.629c-2.058,1.286-5.058,2.715-6.63,4.458c-1.058,1.171-1.4,0.457-2.543,1.143c-0.629,0.372-1.115,1.257-1.857,1.743
	c-2.344,1.458-7.688,7.202-9.088,9.316c-0.543,0.829-1,1.029-1.6,2.029L28.48,74.701z"/>
<path fill-rule="evenodd" clip-rule="evenodd" fill="#DC1D44" d="M99.096,3.168c-1.086,0.429-3.944,2.315-4.973,3.058
	c-1.429,1.086-9.716,10.603-12.146,12.289c-4.315,2.972-7.145-4.029-8.545-6.602c-1.657-3.029-9.545,0.943-11.517,2.486
	c-2.772,2.144-5.658,6.745-6.03,10.203c-0.572,5.43,0.114,9.031,2.372,13.86c2.2,4.687,0.457,1.229,2.829,5.173
	c2.029,3.429,9.745,0.572,12.774-0.4c6.487-2.058,16.089-1.429,22.948-1.058c2.4,0.114,5.058,0.143,7.344,0.657
	c1.715,0.372,5.659,0.458,7.487,0.4c3.086-0.143,11.86,1.286,13.003-2.572l2.4-9.745c0.229-1.172,0.2-2.429,0.429-3.687
	c3.458-20.063-11.488,0.771-17.518-5.116c-1.943-1.886-2.458-7.431-1.429-9.945c0.486-1.229,0.686-1.858,0.171-3.144
	c-0.515-1.229-2.4-3.601-3.401-4.487C103.497,2.969,101.497,2.254,99.096,3.168L99.096,3.168z"/>
<path fill-rule="evenodd" clip-rule="evenodd" fill="#3A3A39" d="M212.75,201.532c-1.886,0.028-1.829,0-3.315-0.601
	c-1.6-0.628-10.173-0.742-11.688-0.514c-0.915,0.143-1.801,0.571-3.087,0.771c-0.457,0.057-1.229,0.143-1.571,0.314
	c-0.687,0.371-0.144,0.429-1.372,0.8c-0.857,0.286-0.857,0.028-1.314,0.601c-0.943,1.114-0.257,2.687,2.2,2.2
	c4.973-1,1.715-2.344,14.317-1.515c9.345,0.629,7.517,2.058,11.831,4.658c1.973,1.172,3.258,1.314,4.916,3.115
	c3.943,4.315,8.201,11.174,6.487,17.176c-2.658,9.288-8.974,12.003-16.661,16.09c-5.229,2.801-21.52,5.172-27.606,5.144
	l-14.717-1.601c-11.803-2.571-24.377-7.401-33.293-15.86c-5.516-5.259-10.774-11.803-13.975-18.719
	c-1.629-3.487-4-8.146-4.058-12.003c-0.143-7.888,1.258-20.72,4.601-27.807c1.915-4.03,2.687-7.173,5.801-10.717
	c1.972-2.286,6.03-6.201,8.573-7.688c3.916-2.229,7.459-4.001,12.003-4.544c10.259-1.257,17.804,0.171,27.063,4.658
	c4.372,2.115,6.229,3.058,9.688,6.544c2.372,2.401,6.145,6.43,6.916,9.831c1,4.315-6.431,1.829-13.146,2.629
	c-2.172,0.257-5.915,0.171-7.687,0.829c-3.602,1.4,1.629,2.287,3.2,2.201c5.087-0.343,10.402-0.771,15.489-1.029
	c2.771-0.171,10.402,1.915,13.003,3.086c3.429,1.572,7.23,3.944,8.487,7.716C214.95,190.701,214.122,198.188,212.75,201.532
	L212.75,201.532z M151.879,147.433c-15.203,2.687-24.462,11.088-30.178,25.235c-2.629,6.459-4.458,16.547-4.43,23.492
	c0,8.459-0.743,4.487,1.572,12.317c1,3.43,2.772,6.516,4.344,9.717c5.458,11.06,17.833,21.463,29.035,26.406
	c3.572,1.572,5.801,3.001,9.63,4.059c3.973,1.058,7.259,2.058,11.375,2.715c13.46,2.115,35.493,0.686,47.152-6.888
	c3.287-2.114,5.116-2.943,7.688-6.087c1.887-2.286,4.744-5.944,5.116-8.888c0.485-3.602,0-8.859-1.458-12.231
	c-0.886-2.087-4.115-6.716-5.744-8.26c-4.973-4.572-11.402-3.4-9.487-10.431c0.628-2.258,0.714-4.001,0.742-6.345
	c0.114-9.316-4.4-11.86-11.603-15.833c-4.314-2.4-6.772,0.572-8.487-5.373c-0.972-3.344-2.601-6.487-4.887-9.145
	c-0.914-1.058-6.087-5.773-7.259-6.459C176.599,150.405,161.024,145.804,151.879,147.433L151.879,147.433z"/>
<path fill-rule="evenodd" clip-rule="evenodd" fill="#3A3A39" d="M69.032,110.195c2.429-1,6.688,1.115,10.488-2.715
	c2.314-2.315,3.972-5.544,4.344-8.831c1.6-14.29-12.86-26.321-23.234-21.148c-0.486,0.257-3.886,3.4-2.886,0.343
	c0.829-2.458,3.744-6.001,5.858-7.545c3.458-2.543,6.259-2.772,10.459-2.715c5.858,0.028,5.315,1.4,9.716,3.658
	c2.258,1.143,5.687,4.086,7.288,6.059c3.458,4.287,3,5.201,4.801,8.488c1.601,2.943,2,8.116,1.972,11.431
	c0,6.916-3.373,13.946-10.002,16.661c-2.629,1.086-2.658,1.058-5.544,1.086c-3.344,0.057-1.515,0.714-5.173-0.286
	C75.748,114.31,68.747,111.738,69.032,110.195L69.032,110.195z M69.004,65.498c-2.372,0.286-6.516,2.258-8.516,3.629
	c-2.201,1.486-5.087,7.345-5.773,9.431c-0.286,0.857-0.229,1.629-0.571,2.601c-1.343,3.801-0.114,13.232,1.143,16.204
	c0.771,1.8,1.143,2.343,2.086,3.972l5.344,6.973c0.943,1.115,2.458,1.972,3.343,2.944c3.83,4.058,12.86,7.316,18.375,6.373
	c2.429-0.429,6.202-2.486,8.173-4.03c3.801-3,2.972-3.401,5.516-6.859c1.086-1.515,0.657-2.743,1.515-4.572
	c0.686-1.486,0.543-4.258,0.543-5.916c-0.029-6.201-1.2-9.602-3.715-14.861c-2.515-5.229-4.058-6.487-8.145-10.545
	c-2.115-2.115-3.515-2.772-5.887-3.458c-0.829-0.229-1.229-0.657-2.115-0.972C76.148,64.927,73.376,64.984,69.004,65.498
	L69.004,65.498z"/>
<path fill-rule="evenodd" clip-rule="evenodd" fill="#ECD569" d="M13.649,91.448c-0.086,2.115,0.171,1.114,1.114,2.601
	c1.229,1.886,1.143,3.086,3.401,3.944c1.029,0.371,0.2-0.257,1.029,0.829l3.029,2.572c2.372,1.543,6.716,1.858,5.487,5.573
	c-3.572,0.943-8.916-3.944-9.431-4.087c-1.486-0.486-1.515,0.915-2.629,1.743c-1.772,1.286-1.943,3.601-3.629,5.516
	c-0.572,0.629-1.143,2.086-1.715,2.944c-0.972,1.458-0.771,2.486-0.8,4.373c2.258,0.028,3.001-0.572,5.03-0.6
	c2.258,0,2.687,0.628,4.43,0.857c1.429,0.171,2.801-0.657,4.115-1.086c0.829-0.257,1.171-0.4,1.972-0.714
	c1.629-0.629,0.686,0,1.458-1.372c1.857,0.143,1.429-0.343,2.687-0.915c2.343-1,5.001-2.658,6.772-4.43
	c0.829-0.886,2.601-3.201,3.115-4.144c0.6-1.115,0.457-5.916-0.086-7.145c-1.714-3.801-1.458-4.973-5.172-9.574
	c-0.771-0.943-0.572-1.229-1.515-2.115c-2.372-2.172-2.315-2.629-4.487-4.973c-1.486-1.601,1.086-1.086-4.801-1.486
	c-2.401-0.171-2.687-0.771-5.944-2.715c-1.286-0.771-1.257-0.029-3-1.4c-0.429-0.343-2.801-1.486-5.258-3.458
	c-1.429-1.171-0.743-0.943-2.601-1.772c-1.829-0.8-0.486-1.686-2.886-1.6c-0.886,4.115,1.8,8.202,2.229,9.974
	c0.771,3.115,2.686,5.03,3.715,6.973c0.314,0.6,0.257,0.772,0.714,1.515c0.829,1.315,0.372,1.286,1.629,2.429
	c0.829,0.743,0.543,0.6,0.972,1.2C13.277,91.933,12.563,90.961,13.649,91.448L13.649,91.448z"/>
<path fill-rule="evenodd" clip-rule="evenodd" fill="#FFFFFF" d="M69.032,110.195c-0.286,1.543,6.716,4.115,8.087,4.487
	c3.658,1,1.829,0.343,5.173,0.286c2.886-0.029,2.915,0,5.544-1.086c6.63-2.715,10.002-9.745,10.002-16.661
	c0.028-3.315-0.372-8.488-1.972-11.431c-1.8-3.287-1.343-4.201-4.801-8.488c-1.601-1.972-5.03-4.916-7.288-6.059
	c-4.401-2.258-3.858-3.63-9.716-3.658c-4.201-0.057-7.001,0.171-10.459,2.715c-2.115,1.543-5.03,5.087-5.858,7.545
	c-1,3.058,2.4-0.086,2.886-0.343c10.374-5.173,24.834,6.858,23.234,21.148c-0.372,3.287-2.029,6.516-4.344,8.831
	C75.72,111.31,71.461,109.195,69.032,110.195L69.032,110.195z"/>
<path fill-rule="evenodd" clip-rule="evenodd" fill="#B98181" d="M150.136,362.486c0.458-1.572-0.229-2.058-1.515-2.772
	c-1.171-0.686-1.4-1.257-2.658-1.943l-6.087-3.086c-5.715-2.229-4.029-4.658-3.772-6.802c0.115-0.715,0.829-1.772,1.144-2.201
	c0.657-0.886-0.915,0.801,0.6-0.457c0.6-0.485,1.143-2.344,1.486-3.286c0.343-1.001,0.457-0.372,0.686-1.544
	c0.286-1.515-0.171-2.172,0.771-3.687c0.857-1.343,0.314-0.6,0.486-2.114c0.114-0.943,1.657-2.486,2.086-4.544
	c0.715-3.315,2.972-6.974,3.944-9.889c0.915-2.829,1.172-1.286,1.029-3.229c-0.257-0.171-2.658-1.171-3.115-1.314
	c-1.143-0.343-1.658-1.058-2.458-1.914c-1.629,1.771-1.143,4.601-1.886,7.115l-2.372,11.346c-0.086,2.744-0.6,1.544-1.2,2.973
	c-2.201,5.487-3.086,12.717-9.974,16.633c-1.086,0.6-2.287,0.743-3.315,1.286c-1.829,0.914-1.286,0.771-3.487,0.771l-6.487-0.058
	c-0.915-0.2-0.286-0.314-1.258-0.886c-1.2-0.028-3.086,0.114-4.229-0.143c-1.286-0.258-2.229-0.486-3.601-0.715
	c-2.172-0.371-5.115-1-7.202-1.229c-2.143-0.229-14.717-1.2-14.575,1.8c0.857,0.629,6.745,0.144,8.316,0.172
	c1.657,0.028,2.601-0.058,4.086,0.4c2.372,0.771,3.344,0.171,5.258,1.314c0.4,0.257,0.857,0.399,1.429,0.714
	c2.83,1.629,2,1.458,3.229,2.344c0.114,0.086,0.286,0.143,0.6,0.371c0.572,0.429,0.514,0.601,1.2,1.001
	c1.4,0.771,1.915,0.857,1.601,2.743c-2.772,0.372-2.201-0.485-4.516,1.314c-1.086,0.829-9.173,4.887-9.173,7.545
	c2.286,0.515,4.63-0.485,6.973-0.829c3.172-0.514,4.287-1.114,6.258-1.686c1.115-0.343,2.315-0.286,3.572-0.601l9.002-2.543
	c1.286-0.144,2.687,0.086,3.915-0.286c1.229-0.343,1.743-0.629,3.115-0.771c2.743-0.257,2.543-0.886,6.744-0.915
	c2.572-0.028,5.059-0.285,7.745-0.285C144.249,362.628,148.764,362.885,150.136,362.486L150.136,362.486z"/>
<path fill-rule="evenodd" clip-rule="evenodd" fill="#FAE00B" d="M159.224,309.187l6.258,3.458c1.515,0.629,1.4,1.2,3.372,1.543
	c0.286,0.058,0.543,0.058,0.857,0.257c0.028,0.029,0.086,0.086,0.114,0.086c0.629,0.515-0.171,0.229,1.943,1.486
	c2.601,1.572,4.458,3.229,6.63,5.458c1.429,1.458,1.601,2.601,2.63,4.63l0.543-0.657c1.429-2.314,0.828-1.571,1.028-3.2
	c0.172-1.286,0.571-0.543,0.829-1.715c0.285-1.286-0.801-2.601,3.314-5.116l5.888-5.029c0.514-0.343,1.086-0.4,1.6-1.114
	c0.372-0.543,0.486-1.229,1.144-1.687c1.886-1.343-0.2,0.771,3.115-2.486c2.314-2.286,2.257-1.943,2.114-3.43
	c-3.772-0.571-13.688,0.029-15.86-0.629c-3.087-0.914-7.23-0.143-9.002-1.143c-1.543-0.829-3.744-0.429-4.916,0.8
	c-1.429,1.458-0.514,0.4-2.257,1.086c-0.657,0.258-1.286,1.058-1.973,1.43c-5.258,2.829-2.829,2.429-4.858,3.286
	C160.453,307.043,159.281,307.787,159.224,309.187L159.224,309.187z"/>
<path fill-rule="evenodd" clip-rule="evenodd" fill="#B98181" d="M141.391,346.139c1,0.514,6.687,0.485,7.373,0.6
	c1.029,0.2,0.743,0.457,2,0.601c1.686,0.171,3.086,0.285,4.744,0.657c1.915,0.399,3.115-0.572,5.03,0.028
	c0.686,2.172-0.229,2.372-2,2.544c-2.058,0.171-1.771,0.771-3.4,1.686c-1.629,0.943-5.173,3.029-4.573,5.259
	c3.715,0.828,3.144-0.771,6.487-0.801c5.115,0,9.231-0.485,14.088-0.942c2.001-0.172,5.116-0.172,7.202-0.229
	c2.2-0.058,5.43,0.143,7.487-0.144c6.287-0.828,14.803-0.686,19.547-3.172c-2.286-1.687-5.458-0.571-9.602-0.829
	c-1.829-0.114-3.144,0.258-5.087,0.229c-1.973-0.057-2.915-0.399-4.744-0.657c-0.743-0.114-1.687-0.114-2.344-0.314
	c-1.229-0.314-0.8-0.657-1.686-0.857c-1.572-0.371-3.372,0.144-3.858-1.686c-0.857-3.173,1.114-8.23,1.172-9.374
	c-1.543,0.229-1.857,2.058-2.743,3.372c-0.286,0.4-2.687,3.059-3.029,3.315c-1.515,1.114-9.402-0.114-11.431-0.571
	c-1.858-0.4-3.258-0.286-5.287-0.943c-1.515-0.486-10.117-0.343-12.26-0.343C142.763,343.595,140.105,343.338,141.391,346.139
	L141.391,346.139z"/>
<path fill-rule="evenodd" clip-rule="evenodd" fill="#959695" d="M19.193,98.821c-0.829-1.086,0-0.458-1.029-0.829
	c-2.258-0.857-2.172-2.058-3.401-3.944c-0.943-1.486-1.2-0.486-1.114-2.601c-1.086-0.486-0.372,0.485-1.058-0.543
	c-0.429-0.6-0.143-0.457-0.972-1.2c-1.257-1.143-0.8-1.114-1.629-2.429c-0.457-0.743-0.4-0.915-0.714-1.515
	c-1.029-1.943-2.943-3.858-3.715-6.973c-0.429-1.772-3.115-5.858-2.229-9.974c2.4-0.086,1.057,0.8,2.886,1.6
	c1.857,0.829,1.171,0.601,2.601,1.772c2.458,1.972,4.83,3.115,5.258,3.458c1.743,1.372,1.714,0.629,3,1.4
	c3.258,1.943,3.543,2.543,5.944,2.715c5.887,0.4,3.315-0.114,4.801,1.486c2.172,2.343,2.115,2.801,4.487,4.973
	c0.943,0.886,0.743,1.171,1.515,2.115c3.715,4.601,3.458,5.773,5.172,9.574c0.543,1.229,0.686,6.03,0.086,7.145
	c-0.515,0.943-2.286,3.258-3.115,4.144c-1.771,1.772-4.429,3.429-6.772,4.43c-1.258,0.571-0.829,1.057-2.687,0.915
	c-0.771,1.372,0.171,0.743-1.458,1.372c-0.8,0.314-1.143,0.457-1.972,0.714c-1.314,0.429-2.687,1.257-4.115,1.086
	c-1.743-0.229-2.172-0.857-4.43-0.857c-2.029,0.028-2.772,0.628-5.03,0.6c0.029-1.886-0.171-2.915,0.8-4.373
	c0.572-0.857,1.143-2.315,1.715-2.944c1.686-1.915,1.857-4.229,3.629-5.516c1.114-0.829,1.143-2.229,2.629-1.743
	c0.515,0.143,5.858,5.03,9.431,4.087c1.229-3.715-3.115-4.03-5.487-5.573L19.193,98.821z M5.275,84.617
	c-0.171-0.829-0.657-1.543-1.057-2.315c-0.886-1.686-1.515-3.258-1.829-5.058c-0.257-1.372-0.8-0.8-1.086-2.287
	c-0.314-1.6,0.057-1.486-0.571-3.229c-0.029-0.057-0.058-0.115-0.086-0.171l-0.4-2.172c-0.057-1.572,0.257-2.058,1.143-3.629
	l1.286-1.229c1.172,0.6,0.372,0.314,1.086,1.114c0.686,0.771-0.028,0.029,1.315,0.543c1.372,0.515,0.114,0.372,2.2,1.715
	c1.972,1.257,0.372-0.057,2.258,1.657c0.343,0.286,0.8,0.515,1.143,0.743c0.743,0.543,0.457-0.229,0.771,1.029
	c1.429,0.057,0.771-0.085,1.715,0.629c0.657,0.543,3.058,1.658,3.486,2.372c0.029,0.028,0.086,0.085,0.086,0.143
	c0.486,1.029-0.486,1.858-2.058,0.6c-1.286-1.057-0.429,0.2-2.286-1.343c-0.543-0.458-2.029-1.115-3.029-2.086
	c-1.058-1-2.258-1.4-3.258-2.286c-3.43-3.058-4.172-2.343-3.687,1.886c0.286,2.658,0.514,1.8,0.8,3.229
	c0.372,2,0.115,1.172,0.972,2.887c0.714,1.458,0.657,1.486,1.172,3.058c0.057,0.172,2.486,4.516,2.801,5.03
	c1.143,1.801,1.886,3.373,3.172,5.059c2.201,2.801,3.029,4.858,4.858,6.973l6.916,5.258c3.001,1.515,4.858,1.772,4.144,3.772
	c-2.658,0.771-8.716-4.601-9.259-4.658c-1.2-0.086-3.915,3.572-4.83,5.116c-0.372,0.628-0.857,1.943-1.115,2.257
	c-0.543,0.657-0.8,0.657-1.372,1.772c-2.458,4.715-0.943,2.401-1.972,4.83c-2.086,4.858,2.343,1.286,8.145,2.058
	c0.771,0.115,1.943,0.543,2.515,0.543c1.943,0,10.202-3.83,12.603-5.202c1.4-0.8,2.486-1.629,3.886-2.543
	c1.801-1.171,1.601-1.4,2.801-3.115c2.029-2.944,1.972-3.944,1.829-7.23c-0.086-1.886,0-0.943-0.657-2.315
	c-0.515-1.029-0.172-1.115-0.829-2.315c-0.4-0.743-0.514-1.429-0.972-2.2c-1.314-2.344-3.172-5.516-4.887-7.374
	c-1.143-1.257-2-1.772-2.772-3.344c-0.457-0.915-2.115-2.829-3.029-3.201c-1.257-0.515-3.343-0.343-5.087-0.857
	c-1.286-0.372-4.144-1-3.429-2.601c0.771-0.915,6.287,1.857,8.03,1.115c0.686-0.629,1.429-1.629,1.629-2.543
	c-1.143,0.543-1,0.886-1.629,1.743c-2.943,0.229-4.858-0.114-7.116-1.429c-1.2-0.686-1.657-0.743-2.801-1.515
	c-1.657-1.058-1.743-0.772-4.287-2.486l-1.4-0.8c-0.372-0.229-0.886-0.572-1.229-0.886c-0.057-0.028-0.086-0.085-0.143-0.114
	l-5.715-4.172c-0.372-0.429-0.2-0.286-0.686-0.771L1.96,64.298c-1.057,1.486-1.943,2.572-1.943,4.83c0,2.687-0.2,3.801,0.772,6.173
	c0.343,0.857,0.8,1.372,1.057,2.286c0.343,1.2,0.114,1.543,0.8,2.687C3.39,81.531,3.761,83.217,5.275,84.617L5.275,84.617z"/>
<path fill-rule="evenodd" clip-rule="evenodd" fill="#B98181" stroke="#B98181" stroke-width="0.2" stroke-miterlimit="10" d="
	M112.242,346.51c0.572,0.972,1.372,3.687,1.601,3.915c0.915,0.943,7.573,1.144,9.402-0.143c-0.486-2.4-7.344-7.116-9.316-7.545
	C107.441,341.281,110.413,343.281,112.242,346.51L112.242,346.51z"/>
<path fill-rule="evenodd" clip-rule="evenodd" fill="#FFFFFF" d="M138.733,348.911c-0.6,3.687,1.057,1.887,2.715,3.458
	c1.314,1.258,1.286,1.2,4.172,2.144c1.743,0.571,2.801-0.086,4.544-1.457c0.857-0.687,2.8-2.087,2.857-3.059
	c-2.601-0.371-4.687-0.314-7.201-0.828C144.678,348.911,139.505,348.454,138.733,348.911L138.733,348.911z"/>
</svg>
