<?xml version="1.0" encoding="UTF-8" standalone="no"?>
<!-- Created with Inkscape (http://www.inkscape.org/) -->
<svg
   xmlns:dc="http://purl.org/dc/elements/1.1/"
   xmlns:cc="http://creativecommons.org/ns#"
   xmlns:rdf="http://www.w3.org/1999/02/22-rdf-syntax-ns#"
   xmlns:svg="http://www.w3.org/2000/svg"
   xmlns="http://www.w3.org/2000/svg"
   xmlns:sodipodi="http://sodipodi.sourceforge.net/DTD/sodipodi-0.dtd"
   xmlns:inkscape="http://www.inkscape.org/namespaces/inkscape"
   width="1480.8645"
   height="1479.4597"
   id="svg6680"
   sodipodi:version="0.32"
   inkscape:version="0.46"
   version="1.0"
   sodipodi:docname="WCrendered.svg"
   inkscape:output_extension="org.inkscape.output.svg.inkscape">
  <defs
     id="defs6682">
    <inkscape:perspective
       sodipodi:type="inkscape:persp3d"
       inkscape:vp_x="0 : 526.18109 : 1"
       inkscape:vp_y="0 : 1000 : 0"
       inkscape:vp_z="744.09448 : 526.18109 : 1"
       inkscape:persp3d-origin="372.04724 : 350.78739 : 1"
       id="perspective6688" />
    <inkscape:perspective
       sodipodi:type="inkscape:persp3d"
       inkscape:vp_x="0 : 526.18109 : 1"
       inkscape:vp_y="0 : 1000 : 0"
       inkscape:vp_z="744.09448 : 526.18109 : 1"
       inkscape:persp3d-origin="372.04724 : 350.78739 : 1"
       id="perspective6133" />
    <inkscape:perspective
       id="perspective6081"
       inkscape:persp3d-origin="372.04724 : 350.78739 : 1"
       inkscape:vp_z="744.09448 : 526.18109 : 1"
       inkscape:vp_y="0 : 1000 : 0"
       inkscape:vp_x="0 : 526.18109 : 1"
       sodipodi:type="inkscape:persp3d" />
    <inkscape:perspective
       id="perspective5538"
       inkscape:persp3d-origin="372.04724 : 350.78739 : 1"
       inkscape:vp_z="744.09448 : 526.18109 : 1"
       inkscape:vp_y="0 : 1000 : 0"
       inkscape:vp_x="0 : 526.18109 : 1"
       sodipodi:type="inkscape:persp3d" />
    <inkscape:perspective
       sodipodi:type="inkscape:persp3d"
       inkscape:vp_x="0 : 526.18109 : 1"
       inkscape:vp_y="0 : 1000 : 0"
       inkscape:vp_z="744.09448 : 526.18109 : 1"
       inkscape:persp3d-origin="372.04724 : 350.78739 : 1"
       id="perspective2447" />
    <inkscape:perspective
       id="perspective10"
       inkscape:persp3d-origin="372.04724 : 350.78739 : 1"
       inkscape:vp_z="744.09448 : 526.18109 : 1"
       inkscape:vp_y="0 : 1000 : 0"
       inkscape:vp_x="0 : 526.18109 : 1"
       sodipodi:type="inkscape:persp3d" />
  </defs>
  <sodipodi:namedview
     id="base"
     pagecolor="#ffffff"
     bordercolor="#666666"
     borderopacity="1.0"
     inkscape:pageopacity="0.0"
     inkscape:pageshadow="2"
     inkscape:zoom="0.24748737"
     inkscape:cx="723.19571"
     inkscape:cy="674.98237"
     inkscape:document-units="px"
     inkscape:current-layer="layer1"
     showgrid="false"
     inkscape:window-width="1016"
     inkscape:window-height="692"
     inkscape:window-x="0"
     inkscape:window-y="0" />
  <metadata
     id="metadata6685">
    <rdf:RDF>
      <cc:Work
         rdf:about="">
        <dc:format>image/svg+xml</dc:format>
        <dc:type
           rdf:resource="http://purl.org/dc/dcmitype/StillImage" />
      </cc:Work>
    </rdf:RDF>
  </metadata>
  <g
     inkscape:label="Ebene 1"
     inkscape:groupmode="layer"
     id="layer1"
     transform="translate(587.17067,502.78762)">
    <g
       transform="matrix(0.6767512,0,0,0.6767512,-241.91759,148.20568)"
       id="g6730"
       inkscape:label="Ebene 1"
       style="fill:#194a70;fill-opacity:1;stroke:none">
      <path
         sodipodi:nodetypes="cccccccccccccccccccccccccccccccccccccccccccccccccccccccsccccccccccccccccccccc"
         d="M 258.87239,591.30415 C 247.87032,625.01326 260.63368,649.81034 263.15811,678.44701 C 256.74812,720.33319 269.75026,742.80724 273.15811,774.87558 C 276.30283,806.86755 273.81237,834.35137 272.44382,862.73272 C 265.7251,878.76511 258.62823,894.51388 248.15811,907.73272 C 251.24402,923.96284 259.42254,918.54937 266.01525,919.87558 C 277.7383,913.06927 290.02521,906.90737 295.30096,892.73272 C 296.62339,889.12591 302.1257,886.91239 306.01525,884.16129 C 314.01498,887.39912 316.43776,885.05999 321.01525,884.87558 C 321.77857,879.0195 323.8083,874.11322 321.01525,865.58986 L 327.44382,864.87558 C 324.82477,807.01844 333.6036,714.96766 319.58668,691.30415 C 322.54335,659.84006 329.65323,630.86789 323.87239,594.16129 L 328.87239,593.44701 L 334.94382,594.87557 L 347.44382,594.16129 C 350.26978,602.03516 347.47309,606.02423 373.87239,664.87558 C 369.19761,689.1311 371.39702,714.76146 371.01525,739.87558 C 378.98656,810.15779 382.35269,837.84213 386.72954,874.87558 C 387.08588,880.31342 391.67027,878.70452 394.58668,879.87558 C 393.89512,884.10745 392.29425,887.21914 395.30096,892.37558 C 394.35113,904.0334 410.87193,896.68885 415.30096,901.30415 C 424.26287,909.55178 428.26737,912.84199 442.44382,926.30415 C 451.06892,932.13608 459.26888,929.85005 462.80096,926.6613 C 475.1293,919.09322 443.87239,886.30415 435.30096,867.73272 L 439.58668,868.44701 C 434.54072,809.01512 432.27115,744.03045 431.01525,677.01843 C 430.23918,647.36232 422.49872,613.52756 417.44382,581.30415 L 420.30096,581.30415 L 488.87239,900.58986 C 494.28367,904.37057 496.00133,901.99524 497.44382,899.16129 L 428.87239,573.44701 C 435.10977,574.10088 443.23764,577.11785 446.01525,573.44701 C 441.31659,540.93647 439.47221,507.95021 429.58668,476.30415 C 442.15564,457.19809 444.16022,424.9336 451.01525,399.16129 C 457.18521,382.48437 456.63609,362.4479 455.30096,342.01843 C 446.97738,312.25848 443.27527,283.42282 430.30096,252.73272 C 434.17277,248.69061 422.91124,224.38185 423.15811,213.08986 C 403.68202,193.61378 381.83546,185.50857 366.72954,184.16129 C 371.29549,182.71795 375.55818,183.0942 381.01525,176.30415 C 384.5068,167.75961 376.03011,169.18859 362.44382,174.87558 C 361.13253,172.19789 358.96608,169.94778 353.87239,169.16129 C 353.91988,164.71706 353.10035,161.71786 350.30096,162.01843 C 353.23341,156.50572 356.78664,156.58004 358.87239,143.447 C 357.7894,136.21979 354.64717,135.1703 351.72954,133.447 C 355.3861,132.43344 353.27915,129.11447 352.44382,126.30415 C 354.35427,123.44701 352.45009,120.58986 351.72954,117.73272 C 357.82123,118.51083 360.37206,116.45625 361.72954,113.447 C 367.50972,109.30098 365.06897,100.4573 364.58668,92.732725 C 364.0993,85.966585 360.25542,85.074325 356.01525,84.875585 C 362.11899,83.598365 362.61488,76.713305 365.30096,72.018435 C 361.82854,69.075655 362.81807,58.696275 343.15811,82.732725 C 337.82577,73.807895 328.96568,51.653995 316.01525,14.161295 C 279.14112,17.986137 260.71071,31.032836 242.44382,44.161295 C 252.92001,64.637485 263.3962,69.606575 273.87239,105.58986 C 270.96992,102.68739 249.09868,112.38554 252.44382,122.01843 C 257.84254,137.56493 279.85414,136.65968 279.58668,135.58986 C 286.0534,142.44726 291.45265,143.96734 296.01525,141.30415 C 297.92628,152.75154 297.1853,156.24288 295.30096,156.30415 C 290.6072,160.02137 284.93985,163.5995 293.15811,169.16129 C 269.93751,182.82021 245.40376,189.91338 223.87239,212.01843 C 214.51126,248.6851 207.55479,289.39237 207.68893,326.05904 C 195.26396,351.81685 201.85626,362.71206 197.44383,387.01843 C 217.56664,388.19762 235.86768,394.8421 261.01525,380.94701 C 227.85379,461.86864 221.96763,506.4232 202.44382,569.16129 C 199.20556,591.62855 224.7617,590.37665 258.87239,591.30415 z M 256.72954,309.87558 C 257.83303,319.63748 257.93021,329.39939 252.44382,339.16129 C 260.38884,336.58381 259.81932,337.62094 264.94382,338.80414 C 256.28594,337.0723 261.16243,320.05742 256.72954,309.87558 z M 391.72954,309.87558 L 395.30096,314.16129 C 397.65608,323.88702 395.58295,327.41321 402.44382,343.447 C 413.91593,352.66742 408.15811,387.73272 411.01525,409.87558 C 406.97333,414.26895 406.27108,411.98297 404.94382,410.947 C 398.92936,389.45257 407.57692,391.89502 392.16282,366.98253 C 396.48913,353.01611 392.13315,333.30184 391.72954,309.87558 z"
         style="fill:#194a70;fill-opacity:1;fill-rule:evenodd;stroke:none;stroke-width:1px;stroke-linecap:butt;stroke-linejoin:miter;stroke-opacity:1"
         id="path6139" />
    </g>
    <path
       sodipodi:nodetypes="cccccccccccscccscccccccccccccccccccsssccccccccccccccccccccccccccccccccccccccccccccsccsccccccccccccccccccccccccccsssccscccccccsccccccccc"
       id="path5542"
       d="M 246.08884,243.473 C 247.03841,240.08545 249.18462,237.69512 252.14916,235.98672 C 253.1889,233.54613 257.08824,229.34581 262.48738,224.22253 C 264.82195,218.61694 267.99775,213.74041 275.32104,212.45836 C 277.65599,211.94874 277.28768,210.39943 283.5203,211.3889 C 289.49869,203.91502 295.74635,206.94304 302.05779,212.45836 C 306.03335,212.1334 309.60268,214.24573 313.10898,216.73624 C 316.07392,214.60731 319.90471,219.83813 323.80369,225.6485 C 325.75215,225.56679 326.60743,230.13112 326.65561,238.12564 C 327.5563,242.24638 328.4022,246.37397 325.58614,250.95929 C 324.63496,254.46464 325.38541,258.24079 320.23878,260.85189 C 322.1388,266.32064 318.50284,266.18579 320.03017,265.38412 C 321.05223,264.84761 319.93395,258.98616 318.70841,263.51924 C 320.07996,269.96768 318.6523,270.07032 319.19604,268.01895 C 319.23345,266.60445 317.55502,264.88914 318.161,266.76717 C 317.93688,268.9738 316.5303,269.90776 316.7092,269.51983 C 318.07569,266.55653 316.03129,265.37222 315.24792,267.00134 C 318.85585,278.69217 322.18443,290.55061 328.08158,300.86789 C 332.45666,307.09751 338.39573,309.67782 340.20222,321.90082 C 343.82974,325.84236 341.11979,329.07974 340.91521,332.5955 C 338.70614,343.0727 336.33106,352.94116 332.71594,358.2628 C 332.44646,382.3466 331.48212,404.28791 325.58614,411.02332 C 329.02851,412.90984 332.03792,413.06445 335.92434,416.72717 C 340.81356,417.52317 345.75322,417.8651 350.18395,422.7875 C 352.1294,425.2456 350.99362,426.16309 351.25342,427.77837 L 354.46183,429.56081 C 354.50552,433.69471 354.26659,437.37639 351.9664,437.7601 L 349.11449,437.04712 C 358.58434,453.50298 375.29745,469.30039 375.49475,486.59923 C 382.81466,496.62376 390.58999,506.4661 393.31925,518.32685 C 391.48655,528.08313 391.3064,540.04281 397.95362,561.10568 C 402.0392,578.96299 399.21503,595.43839 399.0231,612.44022 C 401.20872,630.79044 403.85614,649.19841 398.66661,666.62672 C 402.72256,675.00822 404.10173,682.72043 404.37043,690.1551 C 419.69952,703.45 435.02861,709.33752 450.35765,730.082 C 456.6858,742.61857 458.32085,761.95387 441.7998,754.60656 C 431.44812,750.00287 417.81035,764.1192 398.44846,764.42973 C 383.45756,764.67011 375.05986,775.4727 344.33323,763.94146 C 330.94601,758.91743 314.7234,760.79348 303.48375,757.53173 C 305.52097,759.59068 291.34362,757.01688 288.15467,756.10576 C 286.96191,758.26885 284.92325,759.37455 279.95542,756.81876 C 276.07078,756.85552 273.48193,758.18803 266.05229,754.67978 C 258.56258,756.21662 250.69047,756.86114 240.385,751.82789 L 233.25521,749.33247 C 225.23971,750.70032 216.78997,753.51575 211.50929,745.76754 C 211.89068,744.22276 209.85059,742.67795 218.28261,741.13317 L 214.00471,737.56828 L 215.0742,734.71637 L 209.37034,735.78585 L 205.09246,733.64691 C 207.15371,730.12541 210.4276,729.63555 210.79631,721.88273 C 214.0481,717.93993 217.44327,714.18831 217.92611,706.55361 L 215.0742,703.3452 C 216.84414,697.75705 219.17183,692.30838 224.69943,687.65967 C 220.90902,680.09573 218.6306,670.2638 218.63909,657.00149 C 221.64622,656.2214 222.75428,654.80835 222.91699,653.08011 C 224.1154,649.6408 225.67747,646.4439 229.69029,644.88084 C 225.59261,630.28109 226.66047,619.55543 233.96816,613.50971 C 225.46813,599.85354 231.90996,588.68769 233.96816,576.79123 C 225.33767,556.75052 215.46101,536.92467 233.61168,512.26652 C 232.09638,477.9204 226.77732,443.39313 244.3064,409.95386 C 245.54368,407.33559 246.19155,404.9699 249.65373,401.3981 C 249.87395,399.28315 250.91151,397.63522 248.94076,394.2683 C 247.80465,394.20165 246.09386,393.56032 243.9499,392.48585 C 245.16454,399.18197 247.27803,408.64951 244.66288,403.53704 C 244.84254,405.65816 244.54462,410.13463 237.47191,409.11114 C 236.38034,414.51856 235.84286,413.49567 234.68115,414.94473 C 232.55586,416.99496 232.74467,404.00348 232.54222,393.55531 C 230.50888,394.9128 228.58125,396.4024 225.24684,396.13354 C 224.46216,393.8671 224.88068,392.32258 225.7689,391.05988 C 226.94168,390.72906 227.86284,388.88859 229.3338,390.3469 C 230.18777,387.12325 224.66179,388.28584 220.42154,388.56445 C 219.03904,389.74922 218.23355,392.63189 215.38744,391.66474 C 214.20945,392.96201 212.23839,394.63027 210.08334,394.62478 C 208.46782,392.24819 211.48205,389.87159 212.93526,387.49498 C 207.00415,381.95859 208.39066,385.35013 207.45815,380.31144 C 203.02759,385.43139 200.34602,387.68294 196.82832,388.54282 C 198.30996,386.21881 199.05948,384.26085 198.52799,382.94341 C 192.46444,390.31775 192.6842,389.1849 188.88113,392.54701 C 193.59623,386.85255 194.33057,384.21376 194.48427,380.58822 C 193.63632,381.9487 182.99009,390.03789 177.99922,391.77286 C 182.82098,387.35101 188.30266,383.25913 191.90234,378.22625 C 189.94582,379.34426 191.43387,372.33357 191.18937,374.30486 C 190.80964,377.3665 181.194,377.34882 180.85116,376.80028 C 184.34094,373.88472 183.70466,371.69731 192.25884,367.88803 C 191.7044,368.53486 194.06486,366.56371 193.32829,363.25366 C 193.08981,362.18188 184.5342,366.47228 184.41604,368.24452 C 182.73822,365.24578 185.52005,362.74258 186.55499,360.04524 C 186.68703,358.19678 188.33544,356.95487 190.11989,355.76736 C 188.38494,355.62488 186.79058,355.06063 184.41604,356.83684 C 183.47224,357.20014 183.21288,358.24793 179.0687,355.41087 C 179.41503,354.18992 179.41004,352.68796 181.3553,352.74615 C 178.92514,351.63772 178.11621,349.58977 177.99922,346.49863 C 177.47797,347.41729 179.44491,343.90224 182.6336,344.0032 C 179.61718,344.56086 176.96208,345.72067 173.00837,344.71616 C 171.17913,344.20484 170.67488,343.031 170.15644,341.86426 C 172.98424,340.53925 174.57339,337.18736 180.85116,341.50775 C 181.30253,339.45174 183.41539,339.88794 185.12903,339.72532 C 185.29748,337.00578 181.70064,336.63953 179.42519,335.44744 C 182.12742,334.79309 181.16636,331.69657 188.33744,334.02147 C 185.17803,332.94001 186.94318,331.50679 188.33744,330.10008 C 183.55776,326.28398 180.01371,328.64595 175.86029,327.96114 C 177.14053,326.28407 176.32955,323.56139 181.92062,324.03974 C 183.94785,323.13289 184.28074,321.23763 182.2771,317.97941 C 183.65849,316.50886 183.78851,313.78696 187.62447,314.77101 C 190.58245,316.50141 191.57909,314.79946 193.32829,314.4145 C 193.79345,313.9573 194.11793,313.47665 196.53671,313.34504 C 192.78712,310.76801 191.98757,308.45917 191.90234,306.21524 C 194.63543,305.44303 197.36852,308.39767 200.10163,310.84963 C 200.01656,306.65196 199.58042,302.19686 204.37949,301.58087 C 206.0622,303.65084 207.24751,305.96956 207.58791,308.71068 C 209.83797,305.2677 212.5097,308.14987 215.0742,309.42367 C 217.78357,305.12758 220.80327,305.05339 223.70941,307.1989 C 225.33622,308.39994 226.59655,308.47015 227.78657,309.24685 C 229.59056,310.42425 227.57977,312.95298 229.07243,313.61124 C 231.78794,314.8088 230.62497,316.68438 229.3338,318.33591 C 239.55281,311.84975 236.35656,318.0385 235.75063,319.76188 C 237.06558,318.06595 239.20691,317.44335 240.33156,315.8049 C 241.73573,313.75918 242.30154,308.74085 247.1583,315.84048 C 246.81976,313.31739 249.55112,312.84091 253.21865,312.98854 C 255.86473,314.63625 257.57976,316.74949 258.2095,319.40538 C 261.4504,320.69737 260.20221,322.43828 260.34845,324.03974 C 265.8091,316.93343 273.62748,312.47956 281.73785,308.35419 C 287.2464,306.2284 291.31929,302.20753 288.51116,289.10371 C 285.48121,290.31215 282.34749,291.45459 275.69915,290.36042 C 272.45451,288.46079 273.06842,286.25712 272.88037,285.01702 C 272.69698,283.80767 272.52167,283.0592 271.63009,281.97391 C 269.37326,281.7655 270.15766,280.58538 269.71822,279.77115 C 268.07915,280.10782 267.93319,278.95138 267.19746,278.38472 C 267.03481,277.30405 268.09349,276.95615 266.44122,274.98169 C 264.95947,275.43165 262.31673,276.29923 259.7612,274.53275 C 260.14188,270.90797 263.35398,263.5854 258.75289,256.45408 C 257.05022,257.18663 255.38598,258.00879 252.70305,256.45408 C 247.21149,252.34288 249.12489,251.93416 248.54379,250.2782 C 245.948,250.29512 246.52376,246.23432 246.08884,243.473 z"
       style="opacity:1;fill:#194a70;fill-opacity:1;fill-rule:nonzero;stroke:none;stroke-width:1;stroke-linecap:butt;stroke-linejoin:miter;marker:none;marker-start:none;marker-mid:none;marker-end:none;stroke-miterlimit:4;stroke-dasharray:none;stroke-dashoffset:0;stroke-opacity:1;visibility:visible;display:inline;overflow:visible;enable-background:accumulate" />
    <g
       transform="matrix(0.7264593,0,0,1.3553614,-102.78358,-405.46683)"
       id="g6823"
       inkscape:label="Ebene 1"
       style="stroke:none;fill:#194a70;fill-opacity:1">
      <path
         sodipodi:nodetypes="ccscscccscccsssssssssscssccsscccssccsccscccsscccccccsscccsccscccscccssccsscsssssssssscccsssssssssssssscssccsscssssssssssssssccscsccssccsscssccscssccccsssssssccssccssssssccssssssccssccsssssssccscsssccscccccsccssscscccscccccsssccsccssssssssssssccsscccssccssssscsssscsssssccccssscccscsccccssssscscsscsssscccsscccssccssssssssssssccsccssscccsccsccccsccscccccsssssccsccccccsccsssssccssssssccssssssccssccccssccccccssccccssccsccsccsscccccccsscccscsscccccssssccsssscccssssccssssscccssssccccssscscscsscssccsscssssccccssscccscccsssccccsssccsscccssscccccssssccccccccsssscccssssccsssccsssssccsssssccsssssccssssssccssssccscsssccsccsccccccccsccccccccccccccsccccscssccssssccsssscssccc"
         id="path2453"
         d="M 595.44073,-71.802999 C 583.80604,-70.180378 574.48968,-69.888689 561.19073,-68.584249 C 548.25205,-67.81926 533.80041,-67.729789 514.56573,-61.959249 C 501.19476,-57.947858 491.34916,-53.538439 487.15948,-53.896749 C 491.69202,-57.596368 467.68012,-68.595889 453.47912,-69.969402 C 443.32171,-70.951821 422.34746,-69.084251 400.59698,-62.552999 C 365.13808,-51.914058 323.80961,-61.271063 288.23102,-67.165469 C 243.48582,-75.320589 229.18452,-68.771258 217.75323,-53.271749 C 213.56353,-52.913439 203.71798,-57.322869 190.34698,-61.334249 C 171.11228,-67.104789 156.66069,-67.194259 143.72198,-67.959249 C 130.42308,-69.263689 121.10669,-69.555379 109.47198,-71.177999 C 102.45198,-71.235539 95.349727,-69.405309 90.878227,-65.334249 C 79.753327,-56.101409 81.918927,-42.45893 95.315727,-37.365499 C 101.78163,-34.907159 120.42229,-32.896747 136.72198,-32.896749 C 167.94548,-32.896749 181.39353,-24.179848 171.75323,-8.8967486 C 160.67813,8.6609714 79.077327,13.712821 4.6907268,3.9782514 C -13.687573,1.5731914 -51.425013,-2.6233466 -79.153023,-5.3654986 C -133.75552,-10.765389 -150.39154,-14.345237 -258.15302,-31.302999 C -361.16452,-47.5133 -397.28674,-50.707358 -435.84052,-54.927999 C -474.39432,-59.148639 -481.03014,-57.703478 -512.24677,-55.615499 C -543.46337,-53.527519 -562.28574,-49.683131 -578.71552,-42.052999 C -605.70642,-29.518289 -630.42936,-4.5316866 -635.74677,2.2282514 C -660.96076,34.282591 -674.43665,94.694541 -658.99677,110.1345 C -641.94557,127.18471 -618.62364,106.57585 -594.90302,64.884501 C -572.39152,25.318291 -559.99414,16.800141 -542.02802,28.572001 C -515.72802,45.804441 -516.10154,72.558131 -544.40302,199.41575 C -557.64532,264.64143 -568.79664,329.51557 -585.18427,394.0095 C -590.65947,417.75818 -588.71804,432.08825 -597.59052,396.197 C -598.87662,390.99446 -602.53284,372.05293 -607.90302,354.41575 C -618.33212,320.16401 -620.50134,282.24583 -613.15302,262.91575 C -610.67362,256.39685 -599.31984,242.01245 -587.93427,230.947 C -566.40187,208.98363 -558.86024,182.04727 -596.74677,168.7595 C -630.03357,168.7595 -649.74675,195.6953 -649.74677,241.197 C -649.74677,278.13225 -643.65749,303.03763 -612.24677,378.66575 C -596.21617,417.26268 -594.4536,420.98865 -596.74677,435.10325 C -602.34337,465.5103 -605.65934,502.49771 -617.84052,530.822 C -619.46452,530.82201 -623.19104,522.82256 -626.12177,513.04075 C -630.64673,497.93755 -630.01714,490.6371 -621.96552,464.572 C -613.17142,435.45343 -617.35304,394.15624 -653.80927,415.85325 C -659.44727,420.20961 -661.16135,430.16299 -662.37177,442.7595 C -665.01407,470.25693 -655.28519,502.58522 -635.27802,532.79075 C -620.14806,555.63243 -620.19584,553.6985 -632.90302,613.322 C -661.65731,748.24158 -666.58999,839.26629 -666.77802,885.8845 C -666.76802,1047.1119 -441.87856,940.99585 -317.74677,987.72825 C -298.19967,995.08725 -268.37949,993.90775 -249.93427,995.94695 C -230.13627,998.13585 -166.04091,997.21945 -31.465523,993.07195 C 179.36678,986.57445 218.52093,975.89675 228.94073,997.79075 C 253.40123,1022.9203 293.13258,1025.0071 325.40948,1011.5408 C 337.46514,1004.8489 346.58366,1001.084 353.65948,999.32195 C 360.36792,1001.2927 368.76832,1004.9571 379.50323,1010.9158 C 411.78014,1024.382 451.54271,1022.2641 476.00323,997.13455 C 486.42303,975.24045 525.54593,985.94955 736.37823,992.44695 C 870.95359,996.59435 935.04902,997.51085 954.84698,995.32195 C 973.29217,993.28275 1003.1123,994.46225 1022.6595,987.10325 C 1146.7913,940.37095 1371.6807,1046.4556 1371.6907,885.22825 C 1371.5027,838.61006 1366.57,747.61658 1337.8157,612.697 C 1325.1085,553.07352 1325.0607,555.00743 1340.1907,532.16575 C 1360.1979,501.96024 1369.9267,469.63193 1367.2844,442.1345 C 1366.074,429.53801 1364.36,419.58461 1358.722,415.22825 C 1322.2657,393.53126 1318.0841,434.82843 1326.8782,463.947 C 1334.9298,490.01212 1335.5594,497.31255 1331.0344,512.41575 C 1328.1037,522.19758 1324.3772,530.19701 1322.7532,530.197 C 1310.572,501.87273 1307.2561,464.8853 1301.6595,434.47825 C 1299.3663,420.36367 1301.129,416.63768 1317.1594,378.04075 C 1348.5704,302.41262 1354.6594,277.50725 1354.6594,240.572 C 1354.6594,195.07029 1334.9462,168.1345 1301.6595,168.1345 C 1263.773,181.42226 1271.3146,208.35863 1292.847,230.322 C 1304.2325,241.38744 1315.5863,255.77185 1318.0657,262.29075 C 1325.414,281.62082 1323.2448,319.53901 1312.8157,353.79075 C 1307.4455,371.42792 1303.7893,390.36946 1302.5032,395.572 C 1293.6307,431.46324 1295.5722,417.13318 1290.097,393.3845 C 1273.7094,328.89056 1262.558,264.01643 1249.3157,198.79075 C 1221.0143,71.933131 1220.6407,45.179441 1246.9407,27.947001 C 1264.9069,16.175141 1277.3042,24.693291 1299.8157,64.259501 C 1323.5363,105.95085 1346.8584,126.55971 1363.9094,109.5095 C 1379.3493,94.069541 1365.8736,33.657591 1340.6594,1.6032514 C 1335.342,-5.1566866 1310.6191,-30.143284 1283.6282,-42.677999 C 1267.1985,-50.308128 1248.3761,-54.152519 1217.1595,-56.240499 C 1185.9428,-58.328478 1179.307,-59.773639 1140.7532,-55.552999 C 1102.1995,-51.332358 1066.0773,-48.138294 963.06573,-31.927999 C 855.30426,-14.970235 838.66828,-11.390389 784.06573,-5.9904986 C 756.33775,-3.2483466 718.60022,0.9481914 700.22198,3.3532514 C 625.83533,13.087821 544.2346,8.0359714 533.15948,-9.5217486 C 523.51914,-24.804854 536.96727,-33.521749 568.19073,-33.521749 C 584.49047,-33.521747 603.13108,-35.532159 609.59698,-37.990499 C 622.99373,-43.083932 625.15936,-56.726399 614.03448,-65.959249 C 609.56298,-70.030308 602.46077,-71.860539 595.44073,-71.802999 z M 1190.472,-69.584249 C 1139.7708,-69.421628 1037.9819,-60.425389 926.12823,-45.365499 C 840.40203,-33.823393 764.68038,-24.461449 682.90948,-15.271749 C 629.83048,-9.3065466 567.72664,-9.2544986 564.06573,-15.177999 C 562.36642,-17.927557 568.2307,-19.771749 578.72198,-19.771749 C 600.79684,-19.771747 625.80723,-26.291717 631.28448,-34.584249 C 650.22038,-63.253102 630.49498,-45.41652 625.59698,-40.084249 C 619.39126,-33.328299 607.13188,-30.987879 584.50323,-29.709249 C 544.95584,-27.474617 534.24871,-18.554709 558.78448,-8.3029986 C 577.86963,-0.3287066 658.74584,1.1024414 707.56573,-5.6779986 C 724.43331,-8.0206866 760.90025,-12.351439 788.62823,-15.271749 C 816.35622,-18.192057 850.38923,-22.510729 864.25323,-24.896749 C 878.11721,-27.282767 903.87605,-31.332319 921.53448,-33.646749 C 988.96644,-42.484832 969.6461,-40.452794 983.40948,-42.677999 C 1045.5204,-52.719798 1124.9013,-64.100369 1149.1595,-63.615499 C 1173.4177,-63.130628 1181.8469,-65.601099 1193.8157,-65.615499 C 1207.1255,-65.630288 1218.9326,-64.778169 1222.1282,-63.052999 C 1226.9821,-60.432598 1228.7733,-60.997369 1222.2845,-66.052999 C 1219.6795,-68.082627 1210.3115,-69.647879 1190.472,-69.584249 z M -485.55927,-68.959249 C -505.39877,-69.022879 -514.76684,-67.457629 -517.37177,-65.427999 C -523.86067,-60.372379 -522.06944,-59.807609 -517.21552,-62.427999 C -514.01992,-64.153169 -502.21284,-65.005289 -488.90302,-64.990499 C -476.93422,-64.976099 -468.50504,-62.505629 -444.24677,-62.990499 C -419.98857,-63.475369 -340.60774,-52.094801 -278.49677,-42.052999 C -264.73347,-39.827799 -284.05374,-41.859827 -216.62177,-33.021749 C -198.96337,-30.707319 -173.20451,-26.657767 -159.34052,-24.271749 C -145.47652,-21.885729 -111.44351,-17.567057 -83.715523,-14.646749 C -55.987523,-11.726439 -19.520613,-7.3956866 -2.6530232,-5.0529986 C 46.166877,1.7274414 127.04303,0.2962934 146.12823,-7.6779986 C 170.66393,-17.929709 159.95689,-26.849617 120.40948,-29.084249 C 97.780877,-30.362879 85.521427,-32.7033 79.315727,-39.459249 C 74.417727,-44.791519 54.692327,-62.628088 73.628227,-33.959249 C 79.105427,-25.666719 104.11583,-19.146747 126.19073,-19.146749 C 136.68193,-19.146749 142.54629,-17.302557 140.84698,-14.552999 C 137.18608,-8.6294986 75.082227,-8.6815466 22.003227,-14.646749 C -59.767673,-23.836449 -135.48934,-33.19839 -221.21552,-44.740499 C -333.06922,-59.80039 -434.85814,-68.796629 -485.55927,-68.959249 z M 453.19519,-65.29407 C 467.03158,-63.971966 480.4425,-57.171954 479.94073,-54.459249 C 478.22626,-45.190354 470.64426,-43.156411 460.94073,-39.896749 C 444.04726,-32.353769 428.91725,-24.818362 426.40948,-15.459249 C 421.56919,2.6049714 444.18449,3.5802114 458.31573,1.8532514 C 491.72003,-5.4764366 434.88896,16.587681 424.09698,-5.3342486 C 421.34471,-10.73492 419.56762,-20.420393 431.22198,-28.365499 C 446.75372,-38.953929 465.85823,-48.797009 468.06573,-53.990499 C 469.52605,-57.426098 464.48291,-60.315573 457.50323,-59.021749 L 426.25323,-53.240499 C 417.59185,-51.63494 378.79061,-33.545904 351.95088,-33.63152 C 325.20006,-33.716853 291.52975,-51.054134 278.65948,-52.584249 C 268.02704,-53.848314 260.87436,-56.122532 245.38918,-57.386597 C 238.40948,-58.680417 233.87145,-56.801098 235.33175,-53.365499 C 237.53925,-48.172009 258.15893,-38.297689 273.69073,-27.709249 C 285.34513,-19.764149 283.56793,-10.109923 280.81573,-4.7092486 C 270.02373,17.212681 213.19268,-4.8514396 246.59698,2.4782514 C 260.72818,4.2052114 283.34353,3.2299714 278.50323,-14.834249 C 275.99543,-24.193359 260.86548,-31.72877 243.97198,-39.271749 C 234.26848,-42.531409 220.47139,-47.220685 226.40055,-54.548535 C 229.18541,-57.990335 239.23065,-65.741463 248.5505,-65.463533 C 278.00049,-64.585296 295.21131,-51.830209 323.80383,-46.621368 C 338.6843,-42.98555 350.52801,-41.383838 377.69913,-46.938944 C 391.58219,-50.250273 445.05991,-65.592764 453.19519,-65.29407 z M 577.81573,-66.052999 C 584.30247,-66.041394 595.71019,-65.211374 598.44073,-64.802999 C 606.29163,-63.628838 609.87824,-60.462519 609.87823,-54.209249 C 609.87824,-48.646138 578.20959,-40.141541 572.69073,-38.834249 C 567.17187,-37.526957 548.32409,-35.833998 539.81573,-35.365499 C 519.46839,-34.245107 502.79137,-20.348641 515.44073,-4.8967486 C 529.58839,12.385401 544.60715,18.540281 605.31573,19.509501 C 679.86483,20.699681 725.20045,6.6478814 816.94073,-2.3967486 C 859.32935,-6.5758216 894.68033,-14.988958 933.84698,-21.365499 C 1024.2482,-38.248606 1075.3108,-40.49713 939.15948,-12.521749 C 932.23394,-12.286147 841.20077,3.7783714 832.37823,5.6032514 C 823.55567,7.4281314 809.39401,8.7793714 781.50323,11.728251 C 753.61247,14.677131 705.62082,21.186421 670.22198,22.072001 L 605.87823,23.697001 C 542.36862,20.904751 523.48064,11.619671 510.78448,0.1345014 C 494.95453,-14.185541 503.39173,-29.715623 509.84698,-32.771749 C 517.67591,-36.47822 530.53495,-38.620813 536.62823,-38.552999 C 542.72151,-38.485185 564.78847,-41.580087 572.65948,-43.084249 C 585.99332,-45.632367 615.73873,-53.576523 596.87823,-59.927999 C 591.77239,-61.647453 588.4179,-60.912259 584.84698,-61.365499 C 567.95894,-63.509023 571.32899,-66.064604 577.81573,-66.052999 z M 127.09698,-65.427999 C 133.58368,-65.439609 136.95373,-62.852759 120.06573,-60.709249 C 116.49483,-60.256009 113.14029,-61.022447 108.03448,-59.302999 C 89.173977,-52.951529 118.91942,-44.976111 132.25323,-42.427999 C 140.12433,-40.923829 162.19119,-37.86019 168.28448,-37.927999 C 174.37778,-37.995809 187.23673,-35.853217 195.06573,-32.146749 C 201.52093,-29.090619 209.95823,-13.56054 194.12823,0.7595014 C 181.43213,12.244671 162.54409,21.529751 99.034477,24.322001 L 34.690727,22.697001 C -0.70817319,21.811421 -48.699713,15.302131 -76.590523,12.353251 C -104.48132,9.4043714 -118.64291,8.0531314 -127.46552,6.2282514 C -136.28802,4.4033714 -227.32124,-11.661147 -234.24677,-11.896749 C -370.39817,-39.872129 -319.33554,-37.623607 -228.93427,-20.740499 C -189.76767,-14.363959 -154.41661,-5.9508166 -112.02802,-1.7717486 C -20.287723,7.2728814 25.047887,21.324681 99.596977,20.134501 C 160.30558,19.165281 175.32438,13.041641 189.47198,-4.2404986 C 202.12138,-19.692399 185.44428,-33.620109 165.09698,-34.740499 C 156.58858,-35.208999 137.74088,-36.901948 132.22198,-38.209249 C 126.70308,-39.516539 95.034487,-48.021138 95.034477,-53.584249 C 95.034477,-59.837519 98.621087,-63.003839 106.47198,-64.177999 C 109.20248,-64.586379 120.61029,-65.416399 127.09698,-65.427999 z M 553.50323,-61.677999 C 569.6333,-61.831868 586.97197,-59.004539 586.97198,-54.334249 C 586.97199,-51.926348 578.74238,-48.267509 568.65948,-46.209249 C 553.56395,-43.432027 538.01654,-42.764868 522.69073,-42.177999 C 510.0212,-41.692846 491.91779,-37.641579 484.59698,-26.990499 C 482.76399,-24.323654 482.35974,-18.273908 483.90948,-13.646749 C 487.97091,-1.5202976 489.63269,-5.3838816 460.31573,-0.9904986 C 451.92354,-0.5805406 434.73675,-2.9774016 432.81573,-10.146749 C 432.81573,-15.160869 433.87574,-22.31662 456.81573,-31.959249 C 465.45431,-35.590402 475.98765,-38.401513 484.25323,-43.021749 C 504.02328,-51.690538 531.42677,-60.963179 553.50323,-61.677999 z M 148.37823,-61.052999 C 149.39127,-61.066395 150.40135,-61.062616 151.40948,-61.052999 C 173.48598,-60.338189 200.88948,-51.065541 220.65948,-42.396749 C 228.92508,-37.776509 239.45838,-34.965397 248.09698,-31.334249 C 271.03697,-21.691619 272.09698,-14.504605 272.09698,-9.4904986 C 270.17598,-2.3211486 252.98918,0.075715401 244.59698,-0.3342486 C 215.27998,-4.7276386 216.94182,-0.8640456 221.00323,-12.990499 C 222.55293,-17.617659 222.14872,-23.667406 220.31573,-26.334249 C 212.99493,-36.985329 194.89148,-41.06785 182.22198,-41.552999 C 166.89618,-42.139869 151.34873,-42.80703 136.25323,-45.584249 C 126.17033,-47.64251 117.94063,-51.301348 117.94073,-53.709249 C 117.94073,-58.087646 133.18256,-60.852061 148.37823,-61.052999 z M 455.69073,-52.834249 C 460.89621,-52.821854 462.16635,-51.814599 458.44073,-50.615499 C 421.61014,-32.011127 391.64722,-10.212077 350.4943,-10.963713 C 312.47052,-11.658198 279.73939,-31.915518 244.95675,-49.485423 C 235.93755,-55.702204 267.99685,-52.49327 315.25576,-31.731139 C 354.26963,-18.214133 352.93965,-20.97853 390.16201,-32.356139 C 421.68971,-45.210248 445.753,-52.857912 455.69073,-52.834249 z M 1201.472,-51.396749 C 1221.2697,-51.501332 1236.6927,-49.319134 1251.5345,-44.834249 C 1295.8119,-31.454473 1337.6142,6.2128114 1343.597,38.103251 C 1352.001,82.901041 1319.9523,78.810641 1294.4407,33.915751 C 1287.0112,20.841271 1280.7679,14.490851 1273.7532,1.3220014 C 1262.3618,-14.721348 1239.5144,-18.369176 1224.2532,-14.302999 C 1210.2417,-10.786346 1198.8267,12.107601 1198.9095,33.634501 C 1198.9681,48.899351 1201.685,63.736941 1215.097,121.697 C 1219.1668,140.7968 1227.0327,166.32782 1231.222,180.697 C 1256.911,279.97964 1274.0779,334.05527 1289.472,412.10325 C 1293.2978,431.50028 1294.0165,426.14308 1281.4095,453.5095 C 1276.8694,463.36471 1241.1793,523.39192 1219.0345,566.66575 C 1198.936,605.94078 1184.3591,693.4881 1184.972,722.91575 C 1184.9722,722.92567 1184.9718,722.937 1184.972,722.947 C 1184.8742,723.26903 1184.8039,723.60555 1184.7845,723.97825 C 1184.6247,727.05007 1183.8252,742.05263 1179.7532,718.1345 C 1177.2088,703.1886 1178.0544,642.28981 1186.8782,610.41575 C 1190.3674,597.81211 1199.7687,569.96691 1207.7532,548.54075 C 1244.6351,449.56988 1249.2532,433.46764 1249.2532,403.60325 C 1249.2533,368.97268 1241.0767,350.01503 1221.9095,340.10325 C 1206.6371,332.20555 1188.2646,336.54496 1183.4095,349.197 C 1176.4687,367.28445 1180.246,370.48799 1201.6595,395.197 C 1221.7532,433.29621 1217.0705,432.65028 1220.722,449.60325 C 1219.1773,476.81608 1213.6593,501.28704 1199.972,541.66575 C 1173.92,618.52076 1169.9433,640.36206 1172.0032,696.0095 C 1173.6074,739.34327 1170.8673,758.08946 1183.847,773.91575 C 1202.3093,796.23507 1222.1763,794.77993 1244.6907,776.447 C 1265.1743,759.01556 1238.1364,718.25507 1219.8157,739.0095 C 1218.258,745.16292 1213.9063,746.47701 1211.0032,738.947 C 1202.0291,715.66963 1236.0958,692.02746 1265.5657,701.072 C 1289.9333,708.55062 1300.9954,733.7978 1298.8157,776.8845 C 1295.1838,858.91456 1237.3748,904.14075 1170.6595,943.66575 C 1137.201,960.97755 1143.997,960.67205 977.31573,952.44695 C 919.76331,949.60695 837.27987,947.31945 794.00323,947.35325 C 715.46216,947.41475 573.32261,957.32415 534.28448,965.47825 C 522.94122,967.84755 491.19808,980.16695 484.90948,973.97825 C 474.57478,963.80785 484.17153,966.36265 517.56573,961.10325 C 550.19653,955.96405 579.57504,952.65115 613.15948,946.57195 C 638.40983,941.25045 658.00323,927.37045 658.00323,914.85325 C 658.00324,908.94925 654.44595,906.11305 648.94073,906.16575 C 642.70149,906.22545 633.97036,910.02405 625.22198,917.38455 C 612.59841,928.00645 570.58655,940.86865 555.47198,946.29075 C 540.21944,951.76235 528.00591,953.73775 511.75323,956.25955 C 497.93998,959.93545 483.78713,960.94835 480.90948,960.97825 C 474.27018,961.04725 468.86822,940.09215 472.53448,928.54075 C 475.37082,919.60425 489.84984,919.40895 493.03448,927.13455 C 494.80226,931.42295 500.69068,933.74345 504.72198,932.22825 C 514.4464,928.57315 513.68544,918.86655 507.87823,914.32195 C 488.17848,898.90598 451.70911,923.19495 451.78448,952.91575 C 453.41567,964.34685 455.16599,966.20345 451.94073,967.72825 C 426.56424,981.35305 386.76144,984.02785 369.31573,973.57195 C 357.344,967.5417 367.73111,950.66172 373.11046,946.13963 C 376.09185,945.37463 381.06323,944.53745 384.22198,944.91575 C 393.44866,946.02095 397.04796,943.55125 398.81573,936.97825 C 401.42768,927.26655 387.36839,919.09152 380.25323,915.19695 C 373.44117,911.46829 367.41387,898.85487 360.87823,888.572 L 352.62823,877.72825 L 338.87823,895.447 C 331.60931,903.77305 329.12789,913.67176 324.78448,915.82195 C 315.33984,920.49749 306.16206,926.07132 306.09698,937.60325 C 307.86478,944.17625 311.49528,946.64585 320.72198,945.54075 C 324.71407,945.06265 328.74774,945.76605 332.34698,946.97825 C 337.54554,952.76477 344.43337,967.92688 335.59698,974.19695 C 318.15128,984.65275 278.34847,981.97795 252.97198,968.35325 C 249.74668,966.82845 251.49703,964.97185 253.12823,953.54075 C 253.20353,923.81995 216.73427,899.56215 197.03448,914.97825 C 191.22728,919.52275 190.46633,929.22945 200.19073,932.88455 C 204.22203,934.39965 210.11042,932.04785 211.87823,927.75955 C 215.06283,920.03395 229.54182,920.22925 232.37823,929.16575 C 236.04443,940.71715 230.64252,961.67225 224.00323,961.60325 C 221.12553,961.57335 206.97277,960.56035 193.15948,956.88455 C 176.90678,954.36285 164.69333,952.41865 149.44073,946.94695 C 134.32613,941.52485 92.314227,928.63145 79.690727,918.00955 C 70.942327,910.64915 62.211187,906.85045 55.971977,906.79075 C 50.466777,906.73805 46.909487,909.57425 46.909477,915.47825 C 46.909477,927.99545 66.502827,941.87545 91.753227,947.19695 C 125.33763,953.27615 154.71618,956.58905 187.34698,961.72825 C 220.74118,966.98765 230.33792,964.46395 220.00323,974.63455 C 213.71463,980.82315 181.97143,968.47255 170.62823,966.10325 C 131.59003,957.94915 -10.549413,948.03975 -89.090523,947.97825 C -132.36712,947.94445 -214.85064,950.23205 -272.40302,953.07195 C -439.08432,961.29715 -432.28834,961.60255 -465.74677,944.29075 C -532.46217,904.76575 -590.27114,859.53954 -593.90302,777.5095 C -596.08272,734.4228 -585.02054,709.1756 -560.65302,701.697 C -531.18312,692.65246 -497.11634,716.29461 -506.09052,739.572 C -508.99362,747.10201 -513.34534,745.7879 -514.90302,739.6345 C -533.22372,718.88007 -560.26164,759.64054 -539.77802,777.072 C -517.26362,795.40493 -497.39664,796.86005 -478.93427,774.54075 C -465.95467,758.71446 -468.69464,739.96825 -467.09052,696.6345 C -465.03062,640.98706 -469.00734,619.14574 -495.05927,542.29075 C -508.74657,501.91204 -514.26464,477.44106 -515.80927,450.22825 C -512.15787,433.27528 -516.84054,433.92122 -496.74677,395.822 C -475.33337,371.11299 -471.55604,367.90946 -478.49677,349.822 C -483.35187,337.16996 -501.72444,332.83056 -516.99677,340.72825 C -536.16397,350.64003 -544.34054,369.59769 -544.34052,404.22825 C -544.34052,434.09264 -539.72234,450.19486 -502.84052,549.16575 C -494.85602,570.59191 -485.45464,598.43709 -481.96552,611.04075 C -473.14172,642.91481 -472.29614,703.81358 -474.84052,718.7595 C -478.91242,742.67763 -479.71204,727.67505 -479.87177,724.60325 C -479.89117,724.23055 -479.96154,723.89401 -480.05927,723.572 C -480.05907,723.562 -480.05954,723.55065 -480.05927,723.54075 C -479.44637,694.1131 -494.02329,606.56576 -514.12177,567.29075 C -536.26657,524.01692 -571.95665,463.98975 -576.49677,454.1345 C -589.10377,426.76808 -588.38517,432.12529 -584.55927,412.72825 C -569.16517,334.68027 -551.99826,280.60462 -526.30927,181.322 C -522.12007,166.95282 -514.25414,141.42181 -510.18427,122.322 C -496.77227,64.361941 -494.05544,49.524351 -493.99677,34.259501 C -493.91397,12.732601 -505.32904,-10.161347 -519.34052,-13.677999 C -534.60172,-17.744179 -557.44904,-14.096347 -568.84052,1.9470014 C -575.85522,15.115851 -582.09844,21.466271 -589.52802,34.540751 C -615.03962,79.435641 -647.08829,83.526041 -638.68427,38.728251 C -632.70158,6.8378114 -590.89924,-30.82947 -546.62177,-44.209249 C -516.93817,-53.17902 -484.90014,-52.998611 -420.27802,-43.552999 C -390.08942,-39.998099 -366.41774,-42.026017 -325.80927,-27.771749 C -309.71787,-20.126149 -305.41924,-21.547717 -263.65302,-10.834249 C -53.262623,26.850841 -18.937773,32.790141 83.565727,33.822001 C 154.70123,34.538101 188.79368,23.872071 209.47198,9.8845014 C 221.46588,3.1929514 219.75367,-0.5103146 233.53448,2.8220014 C 243.81388,7.1402814 252.22063,9.4893814 270.69073,6.7907514 C 278.83923,5.6001814 288.18458,-1.9279876 288.03448,-11.615499 C 298.25441,-6.8019586 310.92214,2.4794614 325.90055,6.6166414 C 341.89127,12.507581 367.81832,12.532151 380.67287,7.8086014 C 395.89005,3.8499714 406.6298,-7.4448036 416.87823,-12.271749 C 416.72805,-2.5842386 426.07348,4.9439314 434.22198,6.1345014 C 452.69204,8.8331314 461.09879,6.5152814 471.37823,2.1970014 C 485.15907,-1.1353166 483.44681,2.5679514 495.44073,9.2595014 C 516.11904,23.247071 550.2114,33.913101 621.34698,33.197001 C 723.85039,32.165141 758.17532,26.225841 968.56573,-11.459249 C 1010.3319,-22.172715 1014.6305,-20.751145 1030.722,-28.396749 C 1071.3305,-42.651014 1095.0021,-40.623095 1125.1907,-44.177999 C 1157.5018,-48.900804 1181.6743,-51.292166 1201.472,-51.396749 z M 1222.6282,-42.084249 C 1217.0596,-42.100107 1210.8745,-42.026432 1203.7845,-41.990499 C 1186.7683,-41.904258 1169.6889,-40.706914 1158.2532,-38.177999 C 1131.6214,-32.288547 1115.9486,-28.065929 1056.7532,-10.709249 C 982.34326,11.108491 972.82791,16.180851 975.19073,32.697001 C 978.13354,53.267171 1009.4075,47.058401 1102.5657,7.4470014 C 1206.5577,-36.770907 1235.7132,-42.183354 1262.6595,-22.302999 C 1288.381,-4.4645686 1294.8048,18.665751 1309.1907,42.728251 C 1322.0985,63.613441 1340.347,64.727441 1340.347,43.947001 C 1340.3469,27.092881 1314.8937,-2.6664486 1289.1282,-20.365499 C 1275.1237,-28.569144 1278.3446,-27.043626 1262.0032,-35.771749 C 1250.3033,-41.139655 1239.3342,-42.036674 1222.6282,-42.084249 z M -517.71552,-41.459249 C -534.42142,-41.411679 -545.39054,-40.51466 -557.09052,-35.146749 C -573.43192,-26.418629 -570.21104,-27.944147 -584.21552,-19.740499 C -609.98102,-2.0414486 -635.43414,27.717881 -635.43427,44.572001 C -635.43427,65.352441 -617.18584,64.238441 -604.27802,43.353251 C -589.89202,19.290751 -583.46834,-3.8395666 -557.74677,-21.677999 C -530.80047,-41.558359 -501.64494,-36.145907 -397.65302,8.0720014 C -304.49482,47.683401 -273.22084,53.892171 -270.27802,33.322001 C -267.91522,16.805851 -277.43054,11.733491 -351.84052,-10.084249 C -411.03592,-27.440929 -426.70864,-31.66355 -453.34052,-37.552999 C -464.77622,-40.081919 -481.85564,-41.27926 -498.87177,-41.365499 C -505.96187,-41.401429 -512.14684,-41.47511 -517.71552,-41.459249 z M 1199.1282,-36.084249 C 1204.9566,-35.965039 1202.7352,-33.96995 1183.4095,-30.084249 C 1178.8143,-29.160326 1152.0651,-20.368429 1136.9407,-15.552999 C 1121.8165,-10.737577 1086.0709,1.6182414 1057.5032,11.915751 C 1028.9356,22.213261 1003.2561,30.665751 1000.4407,30.665751 C 986.39926,30.665741 1011.1179,20.521971 1084.2532,-3.6779986 C 1151.7338,-26.006817 1166.0119,-31.011239 1175.222,-32.990499 C 1185.2172,-35.138474 1194.595,-36.176968 1199.1282,-36.084249 z M -494.21552,-35.459249 C -489.68232,-35.551969 -480.30454,-34.513477 -470.30927,-32.365499 C -461.09917,-30.386239 -446.82104,-25.381817 -379.34052,-3.0529986 C -306.20512,21.146971 -281.48654,31.290741 -295.52802,31.290751 C -298.34342,31.290751 -324.02294,22.838261 -352.59052,12.540751 C -381.15822,2.2432414 -416.90374,-10.112577 -432.02802,-14.927999 C -447.15242,-19.743429 -473.90164,-28.535327 -478.49677,-29.459249 C -497.82257,-33.344949 -500.04394,-35.34004 -494.21552,-35.459249 z M 1269.1907,-27.396749 C 1271.7565,-27.367294 1281.9221,-21.507823 1288.6282,-14.802999 C 1311.1521,7.7166514 1327.6081,33.092151 1327.1594,39.853251 C 1326.3421,52.174261 1317.0468,34.600081 1306.7532,19.509501 C 1298.1244,3.1926114 1284.2748,-7.9634896 1273.0032,-21.927999 C 1268.5925,-25.826527 1267.8467,-27.412178 1269.1907,-27.396749 z M 422.75323,-27.365499 C 424.20858,-27.472549 419.70172,-21.966125 409.87823,-14.021749 C 384.60026,6.4208514 329.85081,9.6447614 295.03448,-13.396749 C 276.41013,-25.722375 275.45673,-32.223917 298.37823,-16.834249 C 332.2217,0.9988534 373.03957,2.3853614 406.53448,-17.459249 C 416.56263,-24.192227 421.62129,-27.282238 422.75323,-27.365499 z M -564.27802,-26.771749 C -562.93402,-26.787179 -563.67984,-25.201527 -568.09052,-21.302999 C -579.36212,-7.3384886 -593.21174,3.8176114 -601.84052,20.134501 C -612.13412,35.225081 -621.42944,52.799261 -622.24677,40.478251 C -622.69527,33.717151 -606.23944,8.3416514 -583.71552,-14.177999 C -577.00942,-20.882819 -566.84384,-26.742297 -564.27802,-26.771749 z M 1245.722,-3.5217486 C 1253.8593,-3.5160466 1260.5152,-1.4205256 1267.097,5.1032514 C 1281.3963,20.840871 1279.574,24.510581 1265.0032,12.072001 C 1246.8769,0.1230834 1237.9542,0.8693514 1226.6595,15.228251 C 1214.3491,30.878331 1214.2273,64.998571 1226.3157,117.72825 C 1236.4807,162.06732 1237.7098,179.27962 1228.7532,152.10325 C 1223.3185,137.49803 1221.3766,121.83232 1217.722,106.66575 C 1209.5476,74.202591 1210.2663,23.407871 1219.0657,9.9782514 C 1224.3364,1.9343514 1235.2596,-3.5290786 1245.722,-3.5217486 z M -540.80927,-2.8967486 C -530.34687,-2.9040786 -519.42364,2.5593514 -514.15302,10.603251 C -505.35362,24.032871 -504.63494,74.827591 -512.80927,107.29075 C -516.46397,122.45732 -518.40584,138.12302 -523.84052,152.72825 C -532.79712,179.90462 -531.56794,162.69233 -521.40302,118.35325 C -509.31462,65.623571 -509.43644,31.503331 -521.74677,15.853251 C -533.04147,1.4943514 -541.96414,0.7480834 -560.09052,12.697001 C -574.66122,25.135581 -576.48354,21.465871 -562.18427,5.7282514 C -555.60257,-0.7955286 -548.94664,-2.8910466 -540.80927,-2.8967486 z M 1354.5657,43.790751 C 1355.6051,43.613731 1357.4348,47.544461 1360.1594,57.509501 C 1363.9812,70.964331 1362.0046,91.733011 1352.0344,95.822001 C 1335.0687,101.52825 1316.1224,85.220821 1308.8157,70.759501 C 1302.0264,58.929791 1309.2174,64.326091 1319.8157,76.072001 C 1325.9224,82.839981 1338.134,88.835101 1344.6282,87.915751 C 1353.3776,86.677141 1352.8034,79.915691 1354.722,65.009501 C 1353.2131,53.095771 1353.0466,44.049471 1354.5657,43.790751 z M -649.87177,44.415751 C -649.80061,44.394251 -649.71798,44.404691 -649.65302,44.415751 C -648.13392,44.674471 -648.30039,53.720771 -649.80927,65.634501 C -647.89067,80.540691 -648.46489,87.302141 -639.71552,88.540751 C -633.22133,89.460101 -621.00974,83.464981 -614.90302,76.697001 C -604.30472,64.951091 -597.11364,59.554791 -603.90302,71.384501 C -611.20972,85.845821 -630.1561,102.15325 -647.12177,96.447001 C -657.09187,92.358011 -659.06855,71.589331 -655.24677,58.134501 C -652.69227,48.792271 -650.93917,44.738231 -649.87177,44.415751 z M 1305.722,195.6345 C 1316.5619,195.63449 1330.2584,216.24951 1336.3782,241.7595 C 1339.4274,254.46995 1340.9429,265.88239 1339.722,267.10325 C 1338.501,268.3241 1335.1486,260.0093 1332.2844,248.6345 C 1329.4202,237.25969 1320.713,220.6783 1312.9094,211.79075 C 1302.912,200.40414 1300.7774,195.63449 1305.722,195.6345 z M -600.80927,196.2595 C -595.86467,196.25949 -597.99914,201.02915 -607.99677,212.41575 C -615.80017,221.3033 -624.50754,237.8847 -627.37177,249.2595 C -630.23597,260.6343 -633.58824,268.94911 -634.80927,267.72825 C -636.03016,266.50739 -634.5147,255.09496 -631.46552,242.3845 C -625.34576,216.87451 -611.64938,196.2595 -600.80927,196.2595 z M 1201.8782,358.1345 C 1204.12,358.03184 1207.6521,358.77037 1212.8157,360.7595 C 1229.111,369.4804 1240.0773,392.88177 1239.597,417.91575 C 1239.3551,430.51937 1237.3682,445.98892 1235.1595,452.29075 C 1232.2461,460.60304 1231.8032,457.83322 1233.5657,442.197 C 1237.0717,411.09425 1230.595,382.96227 1211.5345,374.04075 C 1202.299,369.71798 1193.8719,358.50114 1201.8782,358.1345 z M -497.87177,358.7595 C -497.55056,358.74525 -497.24575,358.74667 -496.96552,358.7595 C -488.95922,359.12614 -497.38634,370.34299 -506.62177,374.66575 C -525.68237,383.58727 -532.15894,411.71923 -528.65302,442.822 C -526.89052,458.45822 -527.33344,461.22802 -530.24677,452.91575 C -532.45547,446.61392 -534.44244,431.14435 -534.68427,418.54075 C -535.16457,393.50677 -524.19824,370.10541 -507.90302,361.3845 C -503.38478,359.64401 -500.12025,358.85928 -497.87177,358.7595 z M 1347.597,425.41575 C 1358.051,425.06616 1351.5106,479.2815 1345.3267,504.197 C 1342.3265,516.28518 1338.766,522.67472 1336.5708,524.03139 C 1334.3756,525.38808 1335.3324,522.76176 1339.3157,513.22825 C 1344.5359,500.73424 1345.9475,486.60151 1344.4094,462.6345 C 1343.2357,444.34658 1340.9425,434.39343 1342.8157,428.322 C 1344.6156,426.45156 1346.2177,425.52217 1347.597,425.41575 z M -642.68427,426.04075 C -642.01965,424.72717 -639.14069,423.60417 -637.90302,428.947 C -636.02141,434.97636 -635.04306,439.68329 -637.47646,464.26965 C -639.84189,488.16919 -639.62319,501.35922 -634.40302,513.85325 C -630.41972,523.38676 -628.95784,530.05367 -631.15302,528.697 C -633.34822,527.34033 -636.39678,516.61129 -640.41396,504.822 C -646.85035,479.82631 -654.26454,448.92855 -642.68427,426.04075 z M 1295.472,440.197 C 1296.5406,439.82149 1296.1074,445.76841 1296.9095,449.04075 C 1305.9434,485.89872 1300.5854,475.69731 1308.9094,524.822 C 1313.4939,551.8752 1317.7139,544.30197 1265.0345,603.35325 C 1222.7856,650.71237 1207.0283,677.07728 1200.9407,705.947 C 1197.4189,722.64905 1190.0124,745.26129 1192.0657,721.04075 C 1195.7765,663.06544 1209.1451,605.17407 1235.6907,553.97825 C 1269.1744,489.40169 1286.6771,459.78292 1293.7845,443.0095 C 1294.5733,441.14787 1295.1158,440.32217 1295.472,440.197 z M -590.68427,440.822 C -590.32845,440.77127 -589.7592,441.57142 -588.87177,443.66575 C -581.76447,460.43917 -564.26174,490.02667 -530.77802,554.60325 C -504.23242,605.79907 -490.86384,663.69042 -487.15302,721.66575 C -485.09972,745.88629 -492.50624,723.27403 -496.02802,706.572 C -502.11562,677.70228 -517.87294,651.33735 -560.12177,603.97825 C -612.80127,544.92697 -608.58104,552.50018 -603.99677,525.447 C -595.67257,476.32231 -601.03075,486.5237 -591.99677,449.66575 C -591.22814,446.52976 -591.59358,440.95165 -590.68427,440.822 z M 1315.5032,560.822 L 1319.097,576.447 C 1331.9475,632.2599 1341.7991,700.8374 1344.0657,750.197 C 1346.3462,799.86373 1345.3923,812.2576 1336.8782,843.2595 C 1330.7741,865.48628 1322.4837,884.97087 1312.3157,901.3845 C 1297.4735,925.34345 1278.6039,942.74635 1256.472,952.47825 C 1238.673,960.30475 1222.415,963.08095 1187.3782,964.22825 L 1141.5345,965.72825 C 1115.2109,967.94415 1159.0761,956.79095 1167.847,952.32195 C 1170.9588,950.73915 1174.0692,949.08745 1177.1907,947.35325 C 1177.2112,947.34185 1177.2328,947.33355 1177.2532,947.32195 C 1224.3821,921.12395 1271.5876,878.56216 1288.0657,846.697 C 1313.4531,792.58817 1324.0574,698.06252 1252.7532,690.6345 C 1236.0804,690.63449 1214.4982,703.76958 1209.847,714.8845 C 1202.3924,732.69845 1195.5999,739.27897 1201.7845,721.572 C 1204.102,714.93683 1214.6814,682.4955 1233.4095,656.2595 C 1244.2057,641.13513 1267.0777,613.47019 1284.2532,594.79075 L 1315.5032,560.822 z M -610.59052,561.447 L -579.34052,595.41575 C -562.16502,614.09519 -539.29304,641.76011 -528.49677,656.8845 C -509.76867,683.1205 -499.18934,715.56181 -496.87177,722.197 C -490.68717,739.90397 -497.47974,733.32343 -504.93427,715.5095 C -509.58557,704.39458 -531.16764,691.25947 -547.84052,691.2595 C -619.14472,698.68752 -608.54044,793.21315 -583.15302,847.322 C -566.67482,879.18716 -519.46944,921.74905 -472.34052,947.94695 C -472.32012,947.95845 -472.29844,947.96685 -472.27802,947.97825 C -469.15652,949.71245 -466.04614,951.36415 -462.93427,952.94695 C -454.16347,957.41585 -410.29824,968.56915 -436.62177,966.35325 L -482.46552,964.85325 C -517.50232,963.70595 -533.76034,960.92975 -551.55927,953.10325 C -573.69127,943.37135 -592.56084,925.96835 -607.40302,902.00955 C -617.57102,885.59581 -625.86144,866.11126 -631.96552,843.8845 C -640.47961,812.8826 -641.43349,800.48871 -639.15302,750.822 C -636.88642,701.4624 -627.03498,632.88488 -614.18427,577.072 L -610.59052,561.447 z M 1358.0657,806.572 C 1358.5066,806.48344 1359.053,807.28353 1359.7532,809.197 C 1362.2656,837.20816 1361.0963,863.88543 1356.9094,881.3845 C 1348.8858,914.92065 1345.0109,930.09755 1322.847,945.29075 C 1298.3549,962.07965 1257.1971,973.46675 1214.847,971.50955 C 1123.4429,967.28515 1215.5746,968.44745 1251.472,963.82195 C 1262.9911,962.33775 1290.2753,953.17805 1306.597,940.97825 C 1323.4161,927.14185 1330.2273,912.97665 1337.472,892.85325 C 1344.0438,874.34196 1351.4582,849.2901 1355.6282,826.197 C 1356.3687,815.19139 1356.7431,806.83767 1358.0657,806.572 z M -653.30927,807.197 C -651.84691,806.7608 -651.48683,815.35781 -650.71552,826.822 C -646.54552,849.9151 -639.13103,874.96694 -632.55927,893.47825 C -625.31461,913.60165 -618.50358,927.79815 -601.68427,941.63455 C -585.36257,953.83425 -558.07849,962.99405 -546.55927,964.47825 C -510.66197,969.10365 -418.53016,967.94135 -509.93427,972.16575 C -552.28437,974.12305 -593.44227,962.70475 -617.93427,945.91575 C -640.09832,930.72255 -643.97305,915.54565 -651.99677,882.0095 C -656.18347,864.51043 -657.35289,837.83314 -654.84052,809.822 C -654.22789,808.14772 -653.71873,807.31914 -653.30927,807.197 z M 352.56573,894.447 C 357.5935,897.54573 360.95524,906.32758 364.02861,911.10833 C 371.99633,923.50241 372.95037,921.63185 381.51592,924.57703 C 390.74062,927.74885 397.67812,942.02269 383.22452,937.30598 C 380.10639,936.28842 372.75865,937.0921 365.01084,940.9571 C 358.26624,944.3218 355.41528,947.40943 351.771,947.15993 C 347.76184,947.68282 344.07139,943.78884 340.1544,941.83464 C 334.01945,937.57752 328.25747,935.44303 322.19327,937.4259 C 306.12931,942.67848 316.18275,925.01689 327.24815,923.9681 C 335.74797,923.16248 337.71227,914.656 340.37902,909.46049 C 344.07002,902.26945 350.36953,894.447 352.56573,894.447 z M 644.75323,915.50955 C 647.53898,915.46035 648.84699,916.97835 648.84698,920.04075 C 648.84699,922.70325 640.01089,928.78485 629.19073,933.57195 C 618.37057,938.35815 600.26302,943.08965 589.06573,944.69695 C 567.84807,947.74265 556.82869,949.55065 586.97198,941.91575 C 597.12957,939.34295 613.00684,931.86365 622.40948,925.94695 C 633.44705,919.00145 640.68176,915.58105 644.75323,915.50955 z M 60.159477,916.13455 C 64.230977,916.20615 71.465627,919.62655 82.503227,926.57195 C 91.905827,932.48875 107.78313,939.96795 117.94073,942.54075 C 148.08393,950.17565 137.06469,948.36775 115.84698,945.32195 C 104.64968,943.71475 86.542187,938.98315 75.721977,934.19695 C 64.901777,929.40985 56.065627,923.32825 56.065727,920.66575 C 56.065627,917.60335 57.373787,916.08545 60.159477,916.13455 z M 464.90948,934.25955 C 466.22875,934.06065 466.79368,937.21115 465.40948,946.04075 C 463.82959,956.11865 465.48419,962.81005 470.72198,973.19695 C 478.32485,988.27415 473.6709,992.06291 467.50323,996.54075 C 448.75802,1010.1501 428.85118,1020.4251 462.28448,989.07195 C 469.8191,982.0061 457.5532,961.04395 457.37823,955.35325 C 457.12606,947.15195 462.39087,934.63905 464.90948,934.25955 z M 239.75323,934.91575 C 239.8295,934.90165 239.92077,934.90335 240.00323,934.91575 C 242.52184,935.29535 247.81792,947.80825 247.56573,956.00955 C 247.39083,961.70015 234.78188,983.01007 242.62823,989.72825 C 275.72808,1018.0689 255.38752,1010.3582 237.40948,997.16575 C 231.26467,992.65662 226.58783,988.89915 234.19073,973.82195 C 239.42853,963.43495 241.08313,956.74365 239.50323,946.66575 C 238.20556,938.38805 238.60919,935.12685 239.75323,934.91575 z M 752.31573,956.91575 C 831.99362,956.88485 987.92433,956.94695 992.59698,956.94695 C 998.82716,956.94685 1005.0581,957.20245 1009.7845,957.69695 C 1019.2372,958.68575 1011.4481,958.04665 992.59698,959.47825 C 970.90347,961.12575 368.58271,967.54335 706.47198,956.97825 C 707.65944,956.94115 725.75644,956.92605 752.31573,956.91575 z M -195.68427,957.54075 C -146.15777,957.52905 -87.241973,957.52535 -47.403023,957.54075 C -20.843723,957.55105 -2.7467732,957.56615 -1.5592732,957.60325 C 336.32992,968.16835 -265.99074,961.75075 -287.68427,960.10325 C -306.53547,958.67165 -314.32444,959.31085 -304.87177,958.32195 C -300.14547,957.82745 -293.91444,957.57195 -287.68427,957.57195 C -285.34797,957.57195 -245.21077,957.55245 -195.68427,957.54075 z M 1099.8157,961.38455 C 1122.4796,961.40915 1148.526,962.10305 1082.6282,967.88455 C 1071.8349,968.83145 1085.4509,976.22755 864.94073,973.94695 C 752.3917,973.52415 625.26181,974.47325 582.40948,976.07195 C 492.85083,980.50785 484.16233,980.78115 537.37823,973.22825 C 561.27697,969.83635 638.49729,967.54035 816.59698,967.69695 C 899.24534,973.41485 997.48471,963.56885 1065.9095,961.60325 C 1071.2111,961.51405 1076.513,961.39375 1081.8157,961.41575 C 1085.0909,961.43705 1092.2611,961.37625 1099.8157,961.38455 z M -394.90302,962.00955 C -387.3484,962.00125 -380.17818,962.06205 -376.90302,962.04075 C -371.60032,962.01875 -366.29844,962.13905 -360.99677,962.22825 C -292.57207,964.19385 -194.33267,974.03995 -111.68427,968.32195 C 66.415327,968.16545 143.63579,970.46135 167.53448,973.85325 C 220.75038,981.40615 212.06182,981.13285 122.50323,976.69695 C 79.650827,975.09825 -47.479013,974.14915 -160.02802,974.57195 C -380.53822,976.85245 -366.92224,969.45625 -377.71552,968.50955 C -443.6133,962.72815 -417.56687,962.03405 -394.90302,962.00955 z M 455.59698,972.47825 C 460.60682,972.44805 442.72825,987.34375 409.87823,991.57195 C 394.8079,992.40105 385.29564,991.65745 373.00323,988.54075 C 368.09503,986.34965 364.18419,983.71445 361.25323,980.82195 C 355.64853,974.16031 363.09761,979.12963 366.81065,980.6134 C 387.44269,994.5169 431.92029,986.04675 442.65948,978.41575 C 449.71233,974.14155 453.92703,972.48835 455.59698,972.47825 z M 249.31573,973.10325 C 250.98567,973.11335 255.20038,974.79785 262.25323,979.07195 C 271.86152,985.89945 308.10519,992.59935 330.40948,983.97825 C 334.56796,983.84561 355.89948,971.71951 341.13997,984.09659 C 338.90156,985.97368 334.3787,988.53249 331.90948,989.16575 C 319.61708,992.28245 310.10478,993.02595 295.03448,992.19695 C 262.18448,987.96865 244.3059,973.07305 249.31573,973.10325 z M 791.50323,979.72825 C 802.85793,979.69555 1004.6107,980.71705 1005.6282,980.69695 C 1065.2796,979.51935 968.3753,990.64045 836.84698,989.44695 C 725.05297,988.43285 602.10604,983.98865 601.09698,982.35325 C 600.00923,980.59025 742.92911,980.99495 767.22198,980.19695 C 776.33184,979.89745 784.69041,979.74785 791.50323,979.72825 z M -86.590523,980.35325 C -79.777723,980.37285 -71.419173,980.52255 -62.309273,980.82195 C -38.016473,981.62005 104.90343,981.21525 103.81573,982.97825 C 102.80663,984.61365 -20.140283,989.08905 -131.93427,990.10325 C -263.46257,991.29655 -360.36689,980.17555 -300.71552,981.35325 C -299.69802,981.37335 -97.945213,980.32055 -86.590523,980.35325 z M 353.21437,983.54075 C 355.46837,985.18115 358.94137,987.09545 362.50323,989.19695 C 376.99839,997.74925 384.53378,1002.801 416.56573,996.38455 C 452.9594,989.09435 464.0235,980.56005 445.15948,997.32195 C 433.6673,1007.5338 399.90861,1010.1037 371.07466,1000.1703 C 361.99186,997.04115 358.48148,993.96145 353.20539,990.38045 C 346.72308,994.46575 345.36624,997.18085 333.84439,1000.6523 C 305.4744,1009.2 270.76614,1007.733 259.75323,997.94695 C 240.88913,981.18495 251.95328,989.71925 288.34698,997.00955 C 320.37898,1003.4259 327.91428,998.37435 342.40948,989.82195 C 345.74361,987.51615 349.13164,985.32105 353.21437,983.54075 z"
         style="fill:#194a70;fill-opacity:1;stroke:none" />
    </g>
    <path
       style="font-size:400px;font-style:normal;font-variant:normal;font-weight:normal;font-stretch:normal;text-align:start;line-height:125%;writing-mode:lr-tb;text-anchor:start;fill:#194a70;fill-opacity:1;stroke:none;stroke-width:1px;stroke-linecap:butt;stroke-linejoin:miter;stroke-opacity:1;font-family:NouveauFLF;-inkscape-font-specification:NouveauFLF"
       d="M -25.829022,-56.071334 C -31.162487,-63.004577 -35.962483,-72.471234 -40.229022,-84.471334 C -44.229141,-96.737877 -47.695804,-109.80453 -50.629022,-123.67133 C -53.295799,-137.53784 -55.295797,-151.27116 -56.629022,-164.87133 C -57.962461,-178.73779 -58.629127,-190.73778 -58.629022,-200.87133 C -58.629127,-207.53777 -58.229127,-212.73776 -57.429022,-216.47133 C -56.362462,-220.20442 -55.02913,-223.00442 -53.429022,-224.87133 C -51.562467,-226.73775 -49.295803,-227.80441 -46.629022,-228.07133 C -43.962475,-228.33775 -40.895811,-228.47108 -37.429022,-228.47133 C -31.295821,-228.47108 -26.629159,-228.20441 -23.429022,-227.67133 C -19.962499,-227.13775 -17.429168,-226.33775 -15.829022,-225.27133 C -13.962505,-224.47108 -12.762506,-223.40442 -12.229022,-222.07133 C -11.69584,-220.73775 -11.029174,-219.27109 -10.229022,-217.67133 C -8.895843,-215.53776 -7.2958446,-213.40443 -5.4290222,-211.27133 C -3.562515,-209.40443 0.30414778,-208.4711 6.1709778,-208.47133 C 7.770807,-208.4711 8.5708062,-209.00443 8.5709778,-210.07133 C 8.5708062,-210.33776 8.437473,-210.60443 8.1709778,-210.87133 C 6.5708082,-212.20443 5.5041426,-213.53776 4.9709778,-214.87133 C 4.437477,-216.47109 4.1708106,-218.33776 4.1709778,-220.47133 C 4.1708106,-222.87108 4.437477,-225.27108 4.9709778,-227.67133 C 5.5041426,-230.33774 5.770809,-232.87107 5.7709778,-235.27133 C 5.770809,-238.47107 4.5708102,-241.13773 2.1709778,-243.27133 C 0.037481383,-245.67106 -4.6291806,-246.87106 -11.829022,-246.87133 L -121.42902,-246.87133 C -133.16239,-246.87106 -141.69571,-244.6044 -147.02902,-240.07133 C -152.0957,-235.53774 -154.62903,-230.20441 -154.62902,-224.07133 C -154.62903,-217.93776 -151.96237,-211.2711 -146.62902,-204.07133 C -141.02904,-196.87111 -131.29572,-190.73778 -117.42902,-185.67133 L -118.62902,-199.27133 C -124.76239,-201.40444 -128.76239,-203.93777 -130.62902,-206.87133 C -132.22905,-210.0711 -133.02905,-213.53776 -133.02902,-217.27133 C -133.02905,-220.20442 -131.82905,-222.47108 -129.42902,-224.07133 C -127.02906,-225.93775 -124.62906,-226.87108 -122.22902,-226.87133 C -120.09573,-226.87108 -118.22907,-226.20441 -116.62902,-224.87133 C -115.02907,-223.80442 -114.22907,-221.80442 -114.22902,-218.87133 C -112.62907,-186.07112 -109.42908,-156.20448 -104.62902,-129.27133 C -99.562419,-102.60454 -93.962425,-79.004561 -87.829022,-58.471334 C -81.429104,-38.204602 -74.895777,-21.004619 -68.229022,-6.8713341 C -61.562457,6.9953527 -55.695796,17.528676 -50.629022,24.728666 C -46.629139,30.328663 -41.295811,33.12866 -34.629022,33.128666 C -28.76249,33.12866 -24.229161,31.128662 -21.029022,27.128666 C -16.495835,21.528672 -11.69584,14.728678 -6.6290222,6.7286659 C -1.562517,-1.2713057 3.3708114,-10.071297 8.1709778,-19.671334 C 12.970802,-29.537944 17.504131,-39.937934 21.770978,-50.871334 C 26.304122,-61.804578 30.437451,-72.737901 34.170978,-83.671334 C 34.97078,-86.604554 36.304112,-88.071219 38.170978,-88.071334 C 40.037441,-88.071219 41.63744,-86.47122 42.970978,-83.271334 C 46.170769,-73.671233 49.770765,-63.804576 53.770978,-53.671334 C 57.770757,-43.804596 62.037419,-34.071273 66.570978,-24.471334 C 71.370743,-15.137958 76.037405,-6.3379673 80.570978,1.9286659 C 85.370729,10.19535 89.904058,17.528676 94.170978,23.928666 C 97.90405,29.261997 102.83738,31.928661 108.97098,31.928666 C 111.3707,31.928661 113.7707,31.261995 116.17098,29.928666 C 118.5707,28.861998 120.57069,27.128666 122.17098,24.728666 C 132.83735,9.2620171 142.17067,-9.1379645 150.17098,-30.471334 C 158.17066,-51.804588 164.83732,-73.671233 170.17098,-96.071334 C 175.77064,-118.73785 180.17063,-140.87117 183.37098,-162.47133 C 186.57063,-184.07112 188.57063,-202.8711 189.37098,-218.87133 C 189.63729,-222.07108 190.70396,-224.47108 192.57098,-226.07133 C 194.43729,-227.67108 196.43728,-228.47108 198.57098,-228.47133 C 200.97061,-228.47108 203.10394,-227.53775 204.97098,-225.67133 C 207.10394,-224.07108 208.17061,-221.53775 208.17098,-218.07133 C 208.17061,-214.87109 207.37061,-211.80443 205.77098,-208.87133 C 204.43728,-206.20443 200.57061,-203.6711 194.17098,-201.27133 L 191.77098,-185.27133 C 191.77062,-185.27112 193.77062,-185.93779 197.77098,-187.27133 C 201.77061,-188.87112 206.03728,-191.27112 210.57098,-194.47133 C 215.3706,-197.67111 219.77059,-201.67111 223.77098,-206.47133 C 227.77059,-211.53776 229.77058,-217.40442 229.77098,-224.07133 C 229.77058,-230.20441 227.10392,-235.53774 221.77098,-240.07133 C 216.70393,-244.6044 208.30394,-246.87106 196.57098,-246.87133 L 98.970978,-246.87133 C 91.770723,-246.87106 86.970728,-245.67106 84.570978,-243.27133 C 82.437399,-241.13773 81.370733,-238.47107 81.370978,-235.27133 C 81.370733,-232.87107 81.6374,-230.33774 82.170978,-227.67133 C 82.704065,-225.00442 82.970732,-222.47108 82.970978,-220.07133 C 82.970732,-218.20442 82.704065,-216.47109 82.170978,-214.87133 C 81.6374,-213.53776 80.570734,-212.20443 78.970978,-210.87133 C 78.704069,-210.60443 78.570736,-210.33776 78.570978,-210.07133 C 78.570736,-209.00443 79.370735,-208.4711 80.970978,-208.47133 C 86.570728,-208.4711 90.437391,-209.53776 92.570978,-211.67133 C 94.704053,-213.80443 96.437385,-216.07109 97.770978,-218.47133 C 98.837383,-220.60442 99.904048,-222.47108 100.97098,-224.07133 C 102.03738,-225.67108 104.03738,-226.60441 106.97098,-226.87133 C 109.10404,-227.13775 111.7707,-227.27108 114.97098,-227.27133 C 118.43736,-227.53775 122.30403,-227.67108 126.57098,-227.67133 C 134.30401,-227.67108 140.30401,-227.27108 144.57098,-226.47133 C 149.104,-225.93775 152.43733,-224.60442 154.57098,-222.47133 C 156.70399,-220.60442 158.03732,-217.93776 158.57098,-214.47133 C 159.10399,-211.2711 159.37066,-206.8711 159.37098,-201.27133 C 159.37066,-187.13779 158.30399,-172.87113 156.17098,-158.47133 C 154.30399,-144.33783 151.77066,-130.87118 148.57098,-118.07133 C 145.37067,-105.2712 141.63734,-93.671213 137.37098,-83.271334 C 133.37068,-73.1379 129.23735,-65.137908 124.97098,-59.271334 C 122.83736,-56.337917 121.10403,-54.871252 119.77098,-54.871334 C 118.70403,-54.871252 117.63736,-55.137918 116.57098,-55.671334 C 115.50403,-56.204584 114.03737,-57.537916 112.17098,-59.671334 C 109.23737,-63.13791 106.30404,-67.804572 103.37098,-73.671334 C 100.70405,-79.537894 98.170717,-85.937888 95.770978,-92.871334 C 93.370721,-100.07121 91.104057,-107.2712 88.970978,-114.47133 C 87.104061,-121.93785 85.370729,-128.73784 83.770978,-134.87133 C 82.437399,-141.0045 81.370733,-146.20449 80.570978,-150.47133 C 79.770735,-154.73782 79.370735,-157.27115 79.370978,-158.07133 C 79.370735,-160.73781 80.704067,-162.20448 83.370978,-162.47133 C 94.57072,-163.80448 106.17071,-165.27114 118.17098,-166.87133 C 130.43735,-168.7378 141.50401,-171.40447 151.37098,-174.87133 L 153.37098,-189.67133 C 135.77068,-183.80446 118.1707,-180.07113 100.57098,-178.47133 C 82.970732,-177.1378 66.570748,-176.47113 51.370978,-176.47133 C 6.8374746,-176.47113 -27.695824,-179.93779 -52.229022,-186.87133 L -50.629022,-171.67133 C -45.562473,-170.3378 -39.962479,-169.1378 -33.829022,-168.07133 C -27.429158,-167.00447 -20.895831,-166.07114 -14.229022,-165.27133 C -7.2958446,-164.47114 -0.49585142,-163.80448 6.1709778,-163.27133 C 13.104135,-163.00448 19.770795,-162.87114 26.170978,-162.87133 C 29.637452,-162.87114 31.370783,-161.80448 31.370978,-159.67133 C 31.370783,-158.87115 30.170785,-154.47115 27.770978,-146.47133 C 25.637456,-138.73783 22.704125,-129.40451 18.970978,-118.47133 C 15.237466,-107.80453 10.970804,-96.737877 6.1709778,-85.271334 C 1.3708134,-73.804566 -3.4291818,-64.071243 -8.2290222,-56.071334 C -10.629175,-52.337921 -13.429172,-50.471256 -16.629022,-50.471334 C -19.829165,-50.471256 -22.895829,-52.337921 -25.829022,-56.071334 M 451.15223,-190.87133 C 451.15199,-199.93777 448.88532,-208.33777 444.35223,-216.07133 C 440.08533,-224.07108 433.95201,-230.87108 425.95223,-236.47133 C 417.95202,-242.33773 408.35203,-246.87106 397.15223,-250.07133 C 386.21872,-253.27105 373.95207,-254.87105 360.35223,-254.87133 C 342.21876,-254.87105 326.08545,-252.20439 311.95223,-246.87133 C 298.08548,-241.53773 285.95215,-234.47107 275.55223,-225.67133 C 265.15218,-217.13776 256.35218,-207.2711 249.15223,-196.07133 C 241.9522,-184.87112 236.08554,-173.40447 231.55223,-161.67133 C 227.28555,-149.93782 224.21888,-138.47117 222.35223,-127.27133 C 220.48555,-116.07119 219.55222,-106.0712 219.55223,-97.271334 C 219.55222,-78.604562 222.88555,-61.137912 229.55223,-44.871334 C 236.48554,-28.871278 245.95219,-14.871292 257.95223,-2.8713341 C 269.95217,8.8620175 284.21882,18.195342 300.75223,25.128666 C 317.28546,31.795328 335.41877,35.128658 355.15223,35.128666 C 371.15207,35.128658 385.68539,33.261993 398.75223,29.528666 C 411.8187,26.062 422.88535,21.128672 431.95223,14.728666 C 441.28533,8.0620183 448.48533,0.19535952 453.55223,-8.8713341 C 458.61865,-18.204622 461.15198,-28.337945 461.15223,-39.271334 C 461.15198,-51.804588 457.28532,-62.337911 449.55223,-70.871334 C 448.75199,-71.671235 448.08533,-72.071235 447.55223,-72.071334 C 447.01866,-72.071235 446.61866,-71.404569 446.35223,-70.071334 C 444.21866,-63.13791 440.08533,-56.87125 433.95223,-51.271334 C 428.08535,-45.671261 421.01869,-40.871266 412.75223,-36.871334 C 404.48537,-32.871274 395.55204,-29.80461 385.95223,-27.671334 C 376.61873,-25.537948 367.41874,-24.471282 358.35223,-24.471334 C 341.28543,-24.471282 326.61878,-27.671279 314.35223,-34.071334 C 302.35214,-40.737933 292.48548,-49.271258 284.75223,-59.671334 C 277.01883,-70.337903 271.2855,-82.471224 267.55223,-96.071334 C 264.08551,-109.6712 262.35218,-123.67118 262.35223,-138.07133 C 262.35218,-152.47115 264.35218,-165.53781 268.35223,-177.27133 C 272.35217,-189.27112 278.0855,-199.53777 285.55223,-208.07133 C 293.28548,-216.60442 302.6188,-223.27108 313.55223,-228.07133 C 324.48545,-232.87107 336.88544,-235.27107 350.75223,-235.27133 C 357.15208,-235.27107 363.41874,-234.60441 369.55223,-233.27133 C 375.6854,-231.93774 381.15206,-229.93774 385.95223,-227.27133 C 390.75205,-224.87108 394.61871,-221.80442 397.55223,-218.07133 C 400.48537,-214.33776 401.95204,-209.93776 401.95223,-204.87133 C 401.95204,-201.13777 400.88537,-197.93778 398.75223,-195.27133 C 396.88538,-192.60445 393.68538,-191.27112 389.15223,-191.27133 C 385.95205,-191.27112 382.88539,-191.80445 379.95223,-192.87133 C 377.01873,-193.93778 373.81873,-195.27111 370.35223,-196.87133 C 366.35207,-199.00444 362.08541,-200.47111 357.55223,-201.27133 C 353.28542,-202.33777 349.15209,-202.8711 345.15223,-202.87133 C 335.5521,-202.8711 328.21878,-200.47111 323.15223,-195.67133 C 318.35212,-190.87112 315.95212,-186.20445 315.95223,-181.67133 C 315.95212,-179.27113 316.75212,-177.27113 318.35223,-175.67133 C 319.95212,-174.07113 322.21878,-173.27113 325.15223,-173.27133 C 327.28545,-173.27113 329.28544,-173.5378 331.15223,-174.07133 C 333.01877,-174.60447 335.01877,-175.9378 337.15223,-178.07133 C 339.28543,-180.20446 340.7521,-182.20446 341.55223,-184.07133 C 342.61876,-186.20445 345.01876,-187.27112 348.75223,-187.27133 C 350.88542,-187.27112 352.48542,-186.33779 353.55223,-184.47133 C 354.61875,-182.87112 355.41875,-180.73779 355.95223,-178.07133 C 356.48542,-175.67113 357.01875,-173.00447 357.55223,-170.07133 C 358.08542,-167.13781 359.01875,-164.60448 360.35223,-162.47133 C 364.08541,-155.53782 369.6854,-150.33782 377.15223,-146.87133 C 384.88539,-143.67116 392.75205,-142.07116 400.75223,-142.07133 C 409.0187,-142.07116 416.21869,-143.4045 422.35223,-146.07133 C 428.75201,-148.73782 434.08534,-152.33782 438.35223,-156.87133 C 442.61866,-161.40448 445.81866,-166.60447 447.95223,-172.47133 C 450.08532,-178.3378 451.15199,-184.47112 451.15223,-190.87133"
       id="text7335" />
  </g>
</svg>
