<?xml version="1.0" encoding="utf-8"?>
<!-- Generator: Adobe Illustrator 15.0.0, SVG Export Plug-In . SVG Version: 6.00 Build 0)  -->
<!DOCTYPE svg PUBLIC "-//W3C//DTD SVG 1.1//EN" "http://www.w3.org/Graphics/SVG/1.1/DTD/svg11.dtd">
<svg version="1.1" id="Layer_1" xmlns="http://www.w3.org/2000/svg" xmlns:xlink="http://www.w3.org/1999/xlink" x="0px" y="0px"
	 width="52px" height="54px" viewBox="0 0 52 54" enable-background="new 0 0 52 54" xml:space="preserve">
<linearGradient id="SVGID_1_" gradientUnits="userSpaceOnUse" x1="26.0005" y1="51.25" x2="26.0005" y2="2.2486">
	<stop  offset="0" style="stop-color:#D60000"/>
	<stop  offset="1" style="stop-color:#DE0000"/>
</linearGradient>
<path style="-webkit-svg-shadow: 1px 1px 4px rgba(0, 0, 0, 0.5)" fill="url(#SVGID_1_)" stroke="#000000" stroke-width="0.25" stroke-linecap="round" d="M26,2.75
	C12.607,2.75,1.75,13.607,1.75,27c0,13.393,10.857,24.25,24.25,24.25c13.393,0,24.25-10.857,24.25-24.25
	C50.25,13.607,39.393,2.75,26,2.75z M9.043,27.25c0-3.425,1.023-6.607,2.77-9.273l23.46,23.46c-2.666,1.746-5.848,2.77-9.272,2.77
	C16.635,44.207,9.043,36.615,9.043,27.25z M40.376,36.212L17.038,12.874c2.602-1.626,5.667-2.581,8.962-2.581
	c9.365,0,16.957,7.592,16.957,16.957C42.957,30.545,42.002,33.609,40.376,36.212z"/>
</svg>
