<?xml version="1.0" encoding="utf-8"?>
<!-- Generator: Adobe Illustrator 15.0.0, SVG Export Plug-In  -->
<!DOCTYPE svg PUBLIC "-//W3C//DTD SVG 1.1//EN" "http://www.w3.org/Graphics/SVG/1.1/DTD/svg11.dtd" [
	<!ENTITY ns_flows "http://ns.adobe.com/Flows/1.0/">
]>
<svg version="1.1"
	 xmlns="http://www.w3.org/2000/svg" xmlns:xlink="http://www.w3.org/1999/xlink" xmlns:a="http://ns.adobe.com/AdobeSVGViewerExtensions/3.0/"
	 x="0px" y="0px" width="170px" height="127px" viewBox="0 0 170 127" enable-background="new 0 0 170 127" xml:space="preserve">
<defs>
</defs>
<path fill-rule="evenodd" clip-rule="evenodd" fill="#EF7F22" d="M75.575,97.445c-1.515-5.63,1.429-10.717,6.001-11.946
	c6.173-1.629,10.945,2.372,12.06,5.974C97.58,104.104,78.661,108.648,75.575,97.445L75.575,97.445z M38.052,95.416
	c-1.2-14.203,17.918-13.031,18.547-2.029C57.285,105.361,39.109,107.647,38.052,95.416L38.052,95.416z M57.714,70.21
	C55.37,56.893,74.46,55.035,76.261,66.352C78.433,79.869,59.657,81.241,57.714,70.21L57.714,70.21z M98.865,65.151
	c-2.743-13.032,16.004-16.232,18.433-4.658C120.07,73.668,101.123,76.04,98.865,65.151L98.865,65.151z M17.905,64.151
	c-2.972-13.317,15.861-16.347,18.29-4.973C39.052,72.496,20.191,74.439,17.905,64.151L17.905,64.151z M136.273,33.344
	c-3.572,0.343-2.715,1.286-5.687,3.401c-22.262,15.747-91.792,14.832-115.283,3.744L2.188,33.172
	c-2,44.497,16.546,82.677,67.1,82.906c11.431,0.058,22.234-1.857,31.435-6.401C127.5,96.416,138.988,64.923,136.273,33.344
	L136.273,33.344z"/>
<path fill-rule="evenodd" clip-rule="evenodd" fill="#EBEBEB" d="M135.045,17.769C128.815-5.151,1.616-0.95,3.702,17.654
	c1.258,11.117,52.211,15.375,65.186,15.032C86.349,32.229,129.187,31.086,135.045,17.769L135.045,17.769z"/>
<path fill-rule="evenodd" clip-rule="evenodd" fill="#2E2E2E" d="M30.622,109.077c11.66,3.657,13.403,7.544,35.636,9.23
	c16.518,1.229,28.006-4.001,41.923-9.23c0.229,15.175-42.323,19.062-62.356,12.745C39.367,119.794,30.965,116.936,30.622,109.077
	L30.622,109.077z M139.16,37.945c17.832-9.974,24.091,4.516,18.062,20.376c-3.973,10.402-15.861,18.891-26.035,22.319l5.688-20.604
	C138.074,52.72,137.874,44.661,139.16,37.945L139.16,37.945z M100.723,109.677c-9.201,4.544-20.004,6.459-31.435,6.401
	c-50.554-0.229-69.101-38.409-67.1-82.906l13.117,7.316c23.491,11.088,93.021,12.003,115.283-3.744
	c2.972-2.115,2.114-3.058,5.687-3.401C138.988,64.923,127.5,96.416,100.723,109.677L100.723,109.677z M138.903,27.856
	c8.602-5.172,21.833-2.543,25.634,5.516c12.86,27.292-13.832,51.642-39.98,59.529c8.745-13.347,3.401-7.745,16.519-14.403
	c15.403-7.831,24.548-25.921,18.976-39.582c-3.83-9.316-13.375-5.887-21.348-3.801L138.903,27.856z M136.045,29.171
	c-10.859,7.688-9.888,10.031-30.035,14.146c-26.177,5.344-72.273,5.373-95.935-7.745c-5.601-3.086-8.373-4.344-7.145-13.575
	c13.46,6.087,14.632,7.373,30.064,9.888c26.434,4.287,64.442,4.201,90.02-3.801c10.316-3.229,8.802-4.287,12.66-6.001
	L136.045,29.171z M135.045,17.769c-5.858,13.317-48.696,14.46-66.157,14.918C55.913,33.029,4.959,28.771,3.702,17.654
	C1.616-0.95,128.815-5.151,135.045,17.769L135.045,17.769z M28.593,107.162l0.543,7.345c5.687,3.972,7.087,7.201,18.089,10.031
	c14.575,3.715,35.836,3.771,50.097-2.001c13.66-5.487,9.03-9.688,13.46-16.032c2.458-2.258,3.458-2.687,5.459-4.459
	c2.114-1.828,3.486-4.286,5.687-5.486c3.715-2.058,11.088-4.229,15.575-6.487c46.038-23.12,33.035-62.616,20.404-65.073
	l-19.776-0.172c-1.743-14.489-4.572-15.546-18.375-19.176C90.606-1.979,27.764-3.208,6.417,10.338
	c-5.458,3.458-5.201,5.373-5.887,13.261c-1,11.517-0.543,23.663,1.029,34.666c2.029,14.032,7.859,29.35,16.689,39.781
	C21.734,102.161,24.249,103.418,28.593,107.162L28.593,107.162z"/>
<path fill-rule="evenodd" clip-rule="evenodd" fill="#EF7F22" d="M136.045,29.171l-0.371-7.087
	c-3.858,1.714-2.344,2.772-12.66,6.001c-25.577,8.002-63.585,8.087-90.02,3.801C17.562,29.371,16.39,28.085,2.93,21.998
	c-1.229,9.231,1.543,10.488,7.145,13.575c23.662,13.118,69.758,13.089,95.935,7.745C126.157,39.202,125.186,36.859,136.045,29.171
	L136.045,29.171z"/>
<path fill-rule="evenodd" clip-rule="evenodd" fill="#EF7F22" d="M138.903,27.856l-0.2,7.259c7.973-2.086,17.518-5.516,21.348,3.801
	c5.572,13.661-3.572,31.75-18.976,39.582c-13.117,6.658-7.773,1.057-16.519,14.403c26.148-7.888,52.841-32.237,39.98-59.529
	C160.736,25.313,147.505,22.684,138.903,27.856L138.903,27.856z"/>
<path fill-rule="evenodd" clip-rule="evenodd" fill="#EF7F22" d="M30.622,109.077c0.343,7.858,8.745,10.717,15.203,12.745
	c20.033,6.316,62.585,2.43,62.356-12.745c-13.917,5.229-25.405,10.459-41.923,9.23C44.025,116.621,42.282,112.734,30.622,109.077
	L30.622,109.077z"/>
<path fill-rule="evenodd" clip-rule="evenodd" fill="#DD2E27" d="M25.049,54.777c-9.545,3.058-4.744,16.232,4.172,13.632
	C37.966,65.866,34.509,51.748,25.049,54.777L25.049,54.777z"/>
<path fill-rule="evenodd" clip-rule="evenodd" fill="#AE4A8D" d="M81.262,101.246c3.058,0.086,8.145,0.686,10.202-3.458
	c0.771-7.202-2.972-13.089-10.402-9.717C77.918,89.472,74.403,94.673,81.262,101.246L81.262,101.246z"/>
<path fill-rule="evenodd" clip-rule="evenodd" fill="#00A658" d="M69.288,75.154c8.002-4.287,4.916-9.717,1.086-13.947
	C55.57,60.293,56.342,76.297,69.288,75.154L69.288,75.154z"/>
<path fill-rule="evenodd" clip-rule="evenodd" fill="#FAE00B" d="M40.224,91.215c-0.372,7.888,1.857,10.688,9.945,9.945
	c3.001-2.457,6.173-7.888,2.229-12.031C47.626,84.128,43.682,88.157,40.224,91.215L40.224,91.215z"/>
<path fill-rule="evenodd" clip-rule="evenodd" fill="#403092" d="M104.438,56.893c-8.631,5.401,0.057,16.118,6.973,12.117
	C119.355,64.38,113.326,51.348,104.438,56.893L104.438,56.893z"/>
<path fill-rule="evenodd" clip-rule="evenodd" fill="#2E2E2E" d="M104.438,56.893c8.888-5.544,14.917,7.487,6.973,12.117
	C104.495,73.011,95.808,62.294,104.438,56.893L104.438,56.893z M98.865,65.151c2.258,10.889,21.205,8.517,18.433-4.658
	C114.869,48.919,96.122,52.12,98.865,65.151L98.865,65.151z"/>
<path fill-rule="evenodd" clip-rule="evenodd" fill="#2E2E2E" d="M69.288,75.154c-12.946,1.143-13.717-14.861,1.086-13.947
	C74.203,65.438,77.29,70.867,69.288,75.154L69.288,75.154z M57.714,70.21c1.943,11.031,20.719,9.659,18.547-3.858
	C74.46,55.035,55.37,56.893,57.714,70.21L57.714,70.21z"/>
<path fill-rule="evenodd" clip-rule="evenodd" fill="#2E2E2E" d="M81.262,101.246c-6.858-6.573-3.344-11.774-0.2-13.175
	c7.431-3.372,11.174,2.515,10.402,9.717C89.406,101.932,84.319,101.332,81.262,101.246L81.262,101.246z M75.575,97.445
	c3.086,11.203,22.005,6.659,18.061-5.973c-1.114-3.602-5.887-7.603-12.06-5.974C77.003,86.729,74.06,91.815,75.575,97.445
	L75.575,97.445z"/>
<path fill-rule="evenodd" clip-rule="evenodd" fill="#2E2E2E" d="M25.049,54.777c9.459-3.029,12.917,11.089,4.172,13.632
	C20.306,71.01,15.504,57.835,25.049,54.777L25.049,54.777z M17.905,64.151c2.287,10.288,21.147,8.345,18.29-4.973
	C33.766,47.804,14.933,50.834,17.905,64.151L17.905,64.151z"/>
<path fill-rule="evenodd" clip-rule="evenodd" fill="#2E2E2E" d="M40.224,91.215c3.458-3.058,7.402-7.087,12.174-2.086
	c3.943,4.144,0.771,9.574-2.229,12.031C42.082,101.903,39.853,99.103,40.224,91.215L40.224,91.215z M38.052,95.416
	c1.057,12.231,19.233,9.945,18.547-2.029C55.971,82.385,36.852,81.213,38.052,95.416L38.052,95.416z"/>
</svg>
