<?xml version="1.0" encoding="utf-8"?>
<!-- Generator: Adobe Illustrator 15.0.0, SVG Export Plug-In  -->
<!DOCTYPE svg PUBLIC "-//W3C//DTD SVG 1.1//EN" "http://www.w3.org/Graphics/SVG/1.1/DTD/svg11.dtd" [
	<!ENTITY ns_flows "http://ns.adobe.com/Flows/1.0/">
]>
<svg version="1.1"
	 xmlns="http://www.w3.org/2000/svg" xmlns:xlink="http://www.w3.org/1999/xlink" xmlns:a="http://ns.adobe.com/AdobeSVGViewerExtensions/3.0/"
	 x="0px" y="0px" width="207px" height="167px" viewBox="0.001 0 207 167" enable-background="new 0.001 0 207 167"
	 xml:space="preserve">
<defs>
</defs>
<path fill-rule="evenodd" clip-rule="evenodd" fill="#2E2E2E" d="M17.833,155.064c0.171-0.172,0.399-0.343,0.601-0.485l7.115-4.201
	c-2.972,3.114-5.315,4.629-9.373,6.516L17.833,155.064z M33.094,145.262c-1,1.486,0.742,0.857-2.744,3.201
	c-1.257,0.857-2.285,1-4.172,1.571C29.207,145.776,29.664,146.091,33.094,145.262L33.094,145.262z M12.574,149.549
	c1.172-2.715,0.771-3.486,2.43-5.344c1.6-1.744,3.286-2.173,5.344-2.887C16.833,146.033,16.947,146.748,12.574,149.549
	L12.574,149.549z M95.078,77.103c0.43,6.487-7.001,8.717-8.43,4.572C85.248,77.474,89.734,73.901,95.078,77.103L95.078,77.103z
	 M33.094,145.262c1.486-2,3.629-3.229,5.544-4.658c14.917-11.117,39.952-31.179,54.612-43.268
	c18.261-15.032,22.805-14.089,28.092-35.895c2.286,2.801,1.914,1.972,4.658,3.544l-0.772,9.287L95.965,97.021
	c-5.658,4.115-2.772,2.486-4.916,5.115C88.934,104.737,35.208,144.862,33.094,145.262L33.094,145.262z M87.191,74.073
	c1.6-2.344,11.346-9.803,14.117-12.061c4.458-3.658,13.346-5.516,19.461-4.372c-9.83,25.463-5.229,17.947-25.006,35.094
	l-11.402,8.803c-12.26,10.031-65.07,51.727-75.244,56.528l14.803-17.119c7.345-8.545,24.52-27.264,32.636-33.865l17.632-14.86
	c3.63-5.802-1.714-10.718,12.031-17.262l1.029,10.174l9.631-9.773L87.191,74.073z M129.086,63.528
	c8.487-1.373,13.574-9.146,18.633-13.547c13.917-12.089,24.119-27.378,40.095-24.206c44.209,8.831-9.431,69.932-40.066,43.125
	c-6.716-5.888-4.715-4.687-18.89,5.772L129.086,63.528z M123.37,48.866c-0.686-5.058-11.202-18.633,5.744-34.637
	c23.577-22.262,44.438-11.346,35.837,9.631c-2.486,6.116-32.293,28.35-38.494,33.18l-2.629-1.657
	c-2.915-1.229,0.257-0.687-3.458-0.687c-3.372,0.029-3.001,1.287-5.544,0.201L123.37,48.866z M120.884,47.838
	c-4.486,5.229-17.203,9.659-18.89,10.803L72.445,82.504c-1.029,11.117-6.773,9.773-17.633,21.776
	c-8.516,9.402-15.489,13.86-20.318,19.005l-9.316,9.831c-9.803,9.803-10.488,7.688-18.662,21.72
	C1.602,163.238,3.83,157.322,0,167.21c5.688,1.2,32.094-17.547,37.694-21.576l51.611-39.124c3.544-2.943,6.145-3.001,9.402-5.716
	l25.319-20.063c1.314-1.028,2.486-2.172,4.001-3.058c6.888-4.001,7.83-5.058,14.546-9.888c9.517,5.458,21.776,18.204,44.582,3.43
	c5.744-3.716,11.373-9.432,14.917-15.318c3.544-5.916,7.63-16.604,2.515-23.578c-3.486-4.771-13.917-9.201-21.661-9.259
	c-13.918-0.114-26.949,17.233-37.294,25.835l-18.604,12.918c3.001-10.061,33.665-23.949,39.98-37.01
	c5.516-11.374,1.743-30.808-21.977-23.006c-10.945,3.602-23.977,13.746-26.806,24.749C115.712,36.321,117.854,40.551,120.884,47.838
	L120.884,47.838z"/>
<path fill-rule="evenodd" clip-rule="evenodd" fill="#C3C4C4" d="M87.191,74.073l9.688,1.286l-9.631,9.773l-1.029-10.174
	c-13.745,6.544-8.401,11.46-12.031,17.262l-17.632,14.86c-8.116,6.602-25.291,25.32-32.636,33.865L9.117,158.065
	c10.174-4.802,62.984-46.497,75.244-56.528l11.402-8.803c19.776-17.146,15.176-9.631,25.006-35.094
	c-6.115-1.144-15.003,0.714-19.461,4.372C98.537,64.271,88.791,71.729,87.191,74.073L87.191,74.073z"/>
<path fill-rule="evenodd" clip-rule="evenodd" fill="#DD2E27" d="M150.805,63.013c-0.743-6.4,4.287-10.088,7.145-13.917
	c5.115-6.858,15.946-17.519,24.92-17.89c6.03-0.229,12.546,1.113,14.003,6.744C201.388,55.383,166.751,80.246,150.805,63.013
	L150.805,63.013z M129.086,63.528l-0.229,11.145c14.175-10.459,12.174-11.66,18.89-5.772c30.636,26.807,84.275-34.294,40.066-43.125
	c-15.976-3.172-26.178,12.117-40.095,24.206C142.66,54.382,137.573,62.155,129.086,63.528L129.086,63.528z"/>
<path fill-rule="evenodd" clip-rule="evenodd" fill="#DD2E27" d="M129.457,44.724c-2.686-3.83-3.372-9.375-2.314-15.404
	c1.943-10.832,19.891-26.778,32.493-18.861l-9.459,22.805C147.004,36.407,136.259,44.494,129.457,44.724L129.457,44.724z
	 M123.37,48.866l-8.544,6.031c2.543,1.086,2.172-0.172,5.544-0.201c3.715,0,0.543-0.543,3.458,0.687l2.629,1.657
	c6.201-4.83,36.008-27.063,38.494-33.18c8.602-20.977-12.26-31.893-35.837-9.631C112.168,30.233,122.685,43.809,123.37,48.866
	L123.37,48.866z"/>
<path fill-rule="evenodd" clip-rule="evenodd" fill="#2E2E2E" d="M152.92,62.042c0.457-8.031,20.976-27.35,27.978-28.407
	c19.004-2.829,18.89,15.604-0.486,27.807C171.01,67.386,162.379,69.071,152.92,62.042L152.92,62.042z M150.805,63.013
	c15.946,17.233,50.583-7.63,46.067-25.063c-1.457-5.631-7.973-6.974-14.003-6.744c-8.974,0.371-19.805,11.031-24.92,17.89
	C155.092,52.925,150.062,56.612,150.805,63.013L150.805,63.013z"/>
<path fill-rule="evenodd" clip-rule="evenodd" fill="#FFFFFF" d="M33.094,145.262c2.114-0.399,55.84-40.524,57.955-43.125
	c2.144-2.629-0.742-1,4.916-5.115l29.263-22.749L126,64.985c-2.744-1.572-2.372-0.743-4.658-3.544
	c-5.287,21.806-9.831,20.862-28.092,35.895c-14.66,12.089-39.695,32.15-54.612,43.268C36.723,142.032,34.58,143.262,33.094,145.262
	L33.094,145.262z"/>
<path fill-rule="evenodd" clip-rule="evenodd" fill="#2E2E2E" d="M130.486,41.894c-2.058-3.887-1.915-8.83-0.886-13.089
	c3.629-15.146,37.008-29.921,26.777-6.431c-1.629,3.744-4.259,5.659-6.859,8.174C145.575,34.378,136.688,42.036,130.486,41.894
	L130.486,41.894z M129.457,44.724c6.802-0.229,17.547-8.316,20.72-11.461l9.459-22.805c-12.603-7.917-30.55,8.029-32.493,18.861
	C126.085,35.349,126.771,40.894,129.457,44.724L129.457,44.724z"/>
<path fill-rule="evenodd" clip-rule="evenodd" fill="#4E4E4E" d="M95.078,77.103c-5.344-3.201-9.83,0.371-8.43,4.572
	C88.077,85.819,95.508,83.59,95.078,77.103L95.078,77.103z"/>
<path fill-rule="evenodd" clip-rule="evenodd" fill="#B2B2B2" d="M12.574,149.549c4.373-2.801,4.259-3.516,7.773-8.23
	c-2.058,0.714-3.744,1.143-5.344,2.887C13.346,146.063,13.746,146.834,12.574,149.549L12.574,149.549z"/>
<path fill-rule="evenodd" clip-rule="evenodd" fill="#B2B2B2" d="M33.094,145.262c-3.43,0.829-3.887,0.515-6.916,4.772
	c1.887-0.571,2.915-0.714,4.172-1.571C33.836,146.119,32.094,146.748,33.094,145.262L33.094,145.262z"/>
<path fill-rule="evenodd" clip-rule="evenodd" fill="#B2B2B2" d="M16.176,156.894c4.058-1.887,6.401-3.401,9.373-6.516l-7.115,4.201
	c-0.201,0.143-0.43,0.313-0.601,0.485L16.176,156.894z"/>
<path fill="none" stroke="#2E2E2E" stroke-width="1.5147" stroke-miterlimit="10" d="M91.135,75.902
	c2.372,0,4.315,1.857,4.315,4.144c0,2.314-1.943,4.173-4.315,4.173s-4.287-1.858-4.287-4.173
	C86.848,77.76,88.763,75.902,91.135,75.902L91.135,75.902z"/>
</svg>
