<?xml version="1.0" encoding="utf-8"?>
<!-- Generator: Adobe Illustrator 15.0.0, SVG Export Plug-In  -->
<!DOCTYPE svg PUBLIC "-//W3C//DTD SVG 1.1//EN" "http://www.w3.org/Graphics/SVG/1.1/DTD/svg11.dtd" [
	<!ENTITY ns_flows "http://ns.adobe.com/Flows/1.0/">
]>
<svg version="1.1"
	 xmlns="http://www.w3.org/2000/svg" xmlns:xlink="http://www.w3.org/1999/xlink" xmlns:a="http://ns.adobe.com/AdobeSVGViewerExtensions/3.0/"
	 x="0px" y="0px" width="232px" height="221px" viewBox="-0.001 0 232 221" enable-background="new -0.001 0 232 221"
	 xml:space="preserve">
<defs>
</defs>
<path fill-rule="evenodd" clip-rule="evenodd" fill="#C0C577" d="M181.17,164.441c7.401-10.174,10.573-28.664,11.773-41.382
	l-7.572-46.325l-18.947,53.984c0.4-3.715,6.658-4.544,9.688-12.689l5.059-18.375l-25.234,6.086l25.291-8.545l1.344-26.234
	c-2.915,0.6-14.089,9.859-19.204,12.146l-27.264,2.457c2.486-2.258,12.374-1.086,16.833-1.801l14.088-5.029l-18.661-9.031
	c1.001-0.514,0.629-0.656,2.544-0.857c5.744-0.629,14.289,5.174,19.318,8.002l10.431-8.43
	c-10.06-10.375-27.549-12.203-40.266-13.947l35.351,7.145c-10.603-20.404-44.581-26.892-64.729-32.865
	c-2.516,15.033-5.059,32.752-5.63,47.898c-0.857,22.52,4.029,23.863,18.261,36.322c9.545,8.374,20.434,16.205,29.778,24.606
	c6.087,5.43,8.974,6.088,13.574,13.689C170.453,156.925,174.111,164.213,181.17,164.441L181.17,164.441z"/>
<path fill-rule="evenodd" clip-rule="evenodd" fill="#66A979" d="M111.525,26.121c7.517,2.801,17.919,3.744,27.235,7.202
	c82.961,30.922,55.983,123.602,39.466,138.263l-20.29,14.918c57.584,7.087,47.925-29.15,58.698-52.127
	c4.144-8.831,11.488-15.232,12.517-25.664c1.572-15.832-9.059-43.754-21.433-53.642c-4.43-3.572-7.802-2.915-10.631-7.517
	c-9.745-15.832-11.975-18.661-23.148-34.18l-17.89,3.83c-7.315-5.83-16.146-14.09-26.405-13.946
	C119.757,3.373,111.611,18.205,111.525,26.121L111.525,26.121z"/>
<path fill-rule="evenodd" clip-rule="evenodd" fill="#66A979" d="M95.379,189.59c-10.773,1.458-35.121-15.232-41.865-22.605
	c-14.633-15.918-14.604-22.691-21.119-43.468c-30.436-1.086-32.979,8.802-19.176,39.495c1.743,3.887,4.572,8.574,5.544,12.489
	c3.829,15.232,0.4,14.203,15.832,21.491c5.372,2.543,6.688,4.286,10.917,8.173c7.344,6.688,12.488,13.775,23.662,14.004
	c10.859,0.2,25.806,0.171,36.437-1.314c10.773-1.544,20.176-3.458,30.55-6.773l15.604-22.349
	c-11.774,2.029-12.289,5.63-26.435,4.115c-3.344-0.343-22.891,1.144-28.264-1.771C95.58,190.276,96.322,190.705,95.379,189.59
	L95.379,189.59z"/>
<path fill-rule="evenodd" clip-rule="evenodd" fill="#66A979" d="M32.365,117.658c1.086-24.148,6.26-42.182,19.947-61.9
	l53.612-29.094c0.114-5.658-8.173-16.861-12.46-20.633C85.949-0.57,75.804,2.658,67.688,6.659
	c-15.717,7.745-11.659,12.403-19.805,14.433c-9.572,2.344-18.547-0.058-24.576,9.659c-5.373,8.659-5.43,16.575-10.002,24.177
	C7.274,64.931,4.816,66.074,3.017,78.82C1.53,89.279,1.388,98.682,9.075,106.541C13.962,111.543,25.307,118.258,32.365,117.658
	L32.365,117.658z"/>
<path fill-rule="evenodd" clip-rule="evenodd" fill="#2B2C2B" d="M95.379,189.59c0.943,1.115,0.201,0.687,1.687,1.486
	c5.373,2.915,24.92,1.429,28.264,1.771c14.146,1.515,14.66-2.086,26.435-4.115l-15.604,22.349
	c-10.374,3.315-19.776,5.229-30.55,6.773c-10.631,1.485-25.577,1.515-36.437,1.314C58,218.94,52.855,211.853,45.512,205.165
	c-4.229-3.887-5.545-5.63-10.917-8.173c-15.432-7.288-12.003-6.259-15.832-21.491c-0.972-3.915-3.801-8.603-5.544-12.489
	c-13.803-30.693-11.26-40.581,19.176-39.495c6.516,20.776,6.486,27.55,21.119,43.468C60.258,174.357,84.605,191.048,95.379,189.59
	L95.379,189.59z M170.139,160.24c3.172,4.516,5.087,4.344,8.402,7.316l-19.29,13.86l-14.089-37.896
	c7.63,16.204,6.772,12.146,10.259,29.607l-20.719-15.804c-10.345-8.517-12.831-16.29-16.346-20.72l8.944,16.033
	c4.772,6.001,11.631,10.259,13.003,13.146l-21.404-2.314c26.663,4.43,20.433,0.972,33.093,10.859
	c4.372,3.287,6.259,3.63,4.315,9.717c-27.721,7.487-31.121,13.575-43.925-9.431c-11.174-19.977-5.4-8.26-7.887-26.321
	c-1.372-9.917-4.229-20.433-2.915-30.351c5.687-4.314,5.744-5.314,9.944-11.088l35.322,28.293
	C165.052,149.638,159.422,145.064,170.139,160.24L170.139,160.24z M95.379,189.59l-16.031-6.973l12.23-20.263l-14.574,17.977
	l-9.201-16.891l13.431-19.775l-14.06,16.718l5.772,18.69l-37.723-57.985l32.979,1.285c19.633,0.687,20.548-1.4,30.578-1.857
	l4.544,42.153c2.286,7.917,13.146,20.72,17.175,27.75L95.379,189.59z M101.724,114.515c-0.771-3.601-0.628-20.263,2.001-23.921
	l5.973,14.375L101.724,114.515z M181.17,164.441c-7.059-0.229-10.717-7.517-14.175-13.175c-4.601-7.602-7.487-8.26-13.574-13.689
	c-9.345-8.401-20.233-16.232-29.778-24.606c-14.231-12.459-19.118-13.803-18.261-36.322c0.571-15.146,3.114-32.865,5.63-47.898
	c20.147,5.974,54.126,12.461,64.729,32.865l-35.351-7.145c12.717,1.744,30.206,3.572,40.266,13.947l-10.431,8.43
	c-5.029-2.828-13.574-8.631-19.318-8.002c-1.915,0.201-1.543,0.344-2.544,0.857l18.661,9.031l-14.088,5.029
	c-4.459,0.715-14.347-0.457-16.833,1.801l27.264-2.457c5.115-2.287,16.289-11.547,19.204-12.146l-1.344,26.234l-25.291,8.545
	l25.234-6.086l-5.059,18.375c-3.029,8.146-9.287,8.975-9.688,12.689l18.947-53.984l7.572,46.325
	C191.743,135.777,188.571,154.268,181.17,164.441L181.17,164.441z M51.971,60.844c7.145-17.461,36.693-32.922,56.412-31.636
	l-5.859,43.554c-2.199,14.775-2.028,30.521-4.058,44.239l-63.185,1.543L49.026,65.56c7.573,15.547,8.688,13.403,5.916,21.034
	c-2.114,5.887-7.259,22.234,1.028,24.263c-1.2-12.804-2.887-15.461,2.572-26.692l19.689,11.604L61.314,83.564
	c-4.143-5.545-8.486-13.203-9.287-20.091l15.346-2.429l5.744,20.434c-3.857-8.889-5.572-9.918-2.515-20.491l16.718,3.601
	l-2.229-3.801C80.891,56.529,56.8,60.072,51.971,60.844L51.971,60.844z M111.525,26.121c0.086-7.916,8.231-22.748,18.119-22.862
	c10.259-0.144,19.09,8.116,26.405,13.946l17.89-3.83c11.174,15.519,13.403,18.348,23.148,34.18
	c2.829,4.602,6.201,3.944,10.631,7.517c12.374,9.888,23.005,37.81,21.433,53.642c-1.028,10.432-8.373,16.833-12.517,25.664
	c-10.773,22.977-1.114,59.214-58.698,52.127l20.29-14.918c16.518-14.661,43.495-107.341-39.466-138.263
	C129.444,29.865,119.042,28.922,111.525,26.121L111.525,26.121z M32.365,117.658c-7.059,0.6-18.403-6.115-23.29-11.117
	C1.388,98.682,1.53,89.279,3.017,78.82c1.8-12.746,4.258-13.89,10.288-23.893c4.572-7.602,4.629-15.518,10.002-24.177
	c6.029-9.717,15.004-7.315,24.576-9.659c8.146-2.029,4.088-6.688,19.805-14.433c8.116-4.001,18.262-7.229,25.777-0.628
	c4.287,3.771,12.574,14.975,12.46,20.633L52.313,55.758C38.625,75.477,33.451,93.51,32.365,117.658L32.365,117.658z M31.594,120.802
	c-27.063,1.601-36.894,5.03-20.775,42.41c1.972,4.602,4.772,8.316,6.001,13.289c1.2,4.944,1.058,10.546,4.201,14.804
	c3.63,4.944,16.089,8.659,23.434,15.947c7.487,7.459,13.089,13.746,24.72,14.061c12.402,0.314,26.092,0.229,38.352-1.486
	c10.831-1.515,21.633-3.516,31.835-7.459l15.518-23.749c14.289,0.314,22.491,3.744,37.151-2.172
	c21.919-8.802,18.29-37.694,28.749-54.985c6.888-11.402,12.432-17.061,10.517-31.492c-1.515-11.318-9.716-35.666-18.633-43.754
	c-3.715-3.373-10.802-6.287-12.603-8.459c-5.115-6.116-10.688-18.576-16.289-26.15l-26.949-7.258
	c-8.516-5.202-17.232-14.404-29.034-13.176l-19.262,22.663c-8.23-10.202-11.23-33.78-41.781-19.204
	C58,8.803,52.484,17.92,45.998,19.177c-11.803,2.315-17.748-0.114-25.063,11.202c-5.286,8.146-5.286,16.262-10.545,24.778
	C4.045,65.502,2.188,67.875,0.502,80.678C-3.813,113,20.792,115.457,31.594,120.802L31.594,120.802z"/>
<path fill-rule="evenodd" clip-rule="evenodd" fill="#C0C577" d="M51.971,60.844c4.829-0.771,28.92-4.314,33.121-0.057l2.229,3.801
	l-16.718-3.601c-3.058,10.573-1.343,11.603,2.515,20.491l-5.744-20.434l-15.346,2.429c0.801,6.888,5.145,14.546,9.287,20.091
	l16.918,12.203L58.543,84.164c-5.459,11.231-3.772,13.889-2.572,26.692c-8.287-2.028-3.143-18.376-1.028-24.263
	c2.772-7.631,1.657-5.487-5.916-21.034l-13.745,52.984l63.185-1.543c2.029-13.718,1.858-29.464,4.058-44.239l5.859-43.554
	C88.664,27.922,59.115,43.383,51.971,60.844L51.971,60.844z"/>
<path fill-rule="evenodd" clip-rule="evenodd" fill="#C0C577" d="M101.581,117.943c-1.314,9.918,1.543,20.434,2.915,30.351
	c2.486,18.062-3.287,6.345,7.887,26.321c12.804,23.006,16.204,16.918,43.925,9.431c1.943-6.087,0.057-6.43-4.315-9.717
	c-12.66-9.888-6.43-6.43-33.093-10.859l21.404,2.314c-1.372-2.887-8.23-7.145-13.003-13.146l-8.944-16.033
	c3.515,4.43,6.001,12.203,16.346,20.72l20.719,15.804c-3.486-17.461-2.629-13.403-10.259-29.607l14.089,37.896l19.29-13.86
	c-3.315-2.973-5.23-2.801-8.402-7.316c-10.717-15.176-5.087-10.603-23.291-25.092l-35.322-28.293
	C107.325,112.629,107.268,113.629,101.581,117.943L101.581,117.943z"/>
<path fill-rule="evenodd" clip-rule="evenodd" fill="#C0C577" d="M95.379,189.59l25.12,0.829
	c-4.029-7.03-14.889-19.833-17.175-27.75l-4.544-42.153c-10.03,0.457-10.945,2.544-30.578,1.857l-32.979-1.285l37.723,57.985
	l-5.772-18.69l14.06-16.718L67.803,163.44l9.201,16.891l14.574-17.977l-12.23,20.263L95.379,189.59z"/>
<path fill-rule="evenodd" clip-rule="evenodd" fill="#C0C577" d="M101.724,114.515l7.974-9.546l-5.973-14.375
	C101.096,94.252,100.952,110.914,101.724,114.515L101.724,114.515z"/>
</svg>
