<?xml version="1.0" encoding="utf-8"?>
<!-- Generator: Adobe Illustrator 15.0.0, SVG Export Plug-In  -->
<!DOCTYPE svg PUBLIC "-//W3C//DTD SVG 1.1//EN" "http://www.w3.org/Graphics/SVG/1.1/DTD/svg11.dtd" [
	<!ENTITY ns_flows "http://ns.adobe.com/Flows/1.0/">
]>
<svg version="1.1"
	 xmlns="http://www.w3.org/2000/svg" xmlns:xlink="http://www.w3.org/1999/xlink" xmlns:a="http://ns.adobe.com/AdobeSVGViewerExtensions/3.0/"
	 x="0px" y="0px" width="229px" height="113px" viewBox="-3.726 0 229 113" enable-background="new -3.726 0 229 113"
	 xml:space="preserve">
<defs>
</defs>
<path fill-rule="evenodd" clip-rule="evenodd" fill="#66A979" d="M75.689,97.338l0.144,2.715c-1.571-3.172-1.257,2.429-0.687-1.572
	c0.029-0.085,0.144-0.514,0.144-0.628C75.318,97.767,75.604,97.538,75.689,97.338L75.689,97.338z M50.57,89.192v2.858
	c-1.429-3.029-1.429,2.743-0.629-1.629L50.57,89.192z M119.3,84.878c-0.857,3.229,0.714,1.2-1.972,1.943
	C117.899,84.277,116.471,85.249,119.3,84.878L119.3,84.878z M84.863,78.447c1.829,3.029,1.943,0.686,0.058,3.658
	C83.406,79.791,82.12,81.849,84.863,78.447L84.863,78.447z M66.975,74.989c2.199,2.858,1.8,0.372-0.172,3.516
	C65.717,75.933,64.916,77.647,66.975,74.989L66.975,74.989z M149.506,71.874c1.544,2.829,1.544-1.743,0.772,1.743l-0.801,1.515
	C148.049,72.96,147.392,74.589,149.506,71.874L149.506,71.874z M47.342,69.359c1.656,3.115,0.914,0.686,0.171,2.715
	C46.313,70.273,45.483,71.646,47.342,69.359L47.342,69.359z M111.784,65.33c0.143,3.915,0.886,1.485-1.829,2.429
	C110.27,65.13,108.525,65.93,111.784,65.33L111.784,65.33z M65.316,57.442c3.058,1.114,1.258-0.4,2.201,2.114
	C61.201,59.1,67.402,59.157,65.316,57.442L65.316,57.442z M150.621,55.785c2.629-2.258,0.171-2.059,2.829-0.172
	C150.221,57.699,152.421,56.87,150.621,55.785L150.621,55.785z M127.302,54.27c1.8,2.887,1.4,0.172-0.029,2.944
	C125.873,54.87,125.415,57.014,127.302,54.27L127.302,54.27z M144.19,51.326c1.572,2.601,1.172,0.172,0.029,2.658
	C142.791,51.955,142.104,54.156,144.19,51.326L144.19,51.326z M84.777,47.954c-0.514,3.029,0.943,2.114-2.429,2.372
	C84.092,46.211,82.32,48.754,84.777,47.954L84.777,47.954z M108.154,37.723c1.743,2.572,1.829,0.286,0,2.916
	C106.012,38.095,107.125,39.467,108.154,37.723L108.154,37.723z M153.336,58.813c6.83-6.144,27.777-11.859,35.351-15.289
	l11.146-6.03C194.202,44.382,163.853,58.585,153.336,58.813L153.336,58.813z M183.199,36.637c0.086-0.971,1.229-2.543,1.829-0.028
	C185.429,38.237,182.999,38.552,183.199,36.637L183.199,36.637z M118.071,21.09l3.457,2.4c7.545-2.886,13.918-2.857,21.662-5.172
	c7.401-2.229,13.804-5.23,21.52-6.658c26.091-4.83,21.233-4.201,44.209,0.714c-9.002-4.516-10.945-5.201-21.661-3.716
	c-32.436,4.516-26.463,7.574-41.981,11.775c-6.973,1.914-14.517,2.943-22.062,4.973l1.286,3c-3.401-0.486-1.114,1.515-3.058-1.515
	l-24.148,9.06c-2.801,1.686-2.687,3.115-6.973,5.059c-10.945,4.943-21.977,7.201-32.179,13.203
	c-13.632,7.974-32.665,11.488-42.638,24.863L7.532,91.879c4.458-0.686,3.286-3.857,10.374-5.486
	c14.889-3.373,10.916-4.459,23.862-10.231c5.229-2.344,7.974-1.801,13.003-4.173c6.944-3.229,17.375-7.83,24.576-9.545
	c21.348-5.087,14.004-5.744,25.206-9.202c17.175-5.259,32.636-13.261,49.182-18.376l50.84-16.947
	c-4.887,4.486-17.689,6.83-24.548,8.889c-8.316,2.486-15.546,8.002-23.462,10.945c-7.573,2.801-13.66,2.715-25.863,8.373
	c-8.088,3.744-15.231,7.945-23.834,10.432c-4.372,1.285-9.688,2.058-13.659,3.515c-2.173,0.8-4.145,2.458-5.088,2.829
	c-3.314,1.286-6.172-1.058-19.518,6.83c-6.83,4.059-5.402,2.63-12.26,4.858c-3.744,1.229-7.517,4.345-11.203,5.944
	c-3.172,1.4-9.23,2.915-13.031,4.229c-14.117,4.858-9.945,2.744-22.033,12.489c7.23,4.115,31.692-1.314,41.094-2.486
	c11.86-1.515,23.748-7.659,35.752-10.717c30.635-7.831,17.546-7.088,32.578-12.86c9.888-3.801,23.52-11.717,33.836-12.375
	c-2.4,2.372-11.402,6.487-15.433,8.66l-34.235,14.175c-5.658,2.058-12.975,5.887-17.775,7.373
	c-13.117,3.973-15.117,1.543-28.292,7.974c-6.259,3.058-41.438,5.801-47.896,6.315c2.229,6.859,23.462,4.944,29.606,5.487
	c31.293,2.857,30.149-5.459,61.557-11.803c13.374-2.687,68.815-26.722,79.018-34.952l38.236-37.666
	c-7.63-8.773-1.057-4.315-4.115-10.917C207.776,0,184,2.972,172.454,5.201C141.361,11.23,147.563,6.63,118.071,21.09L118.071,21.09z
	"/>
<path fill-rule="evenodd" clip-rule="evenodd" fill="#2B2C2B" d="M4.418,92.308c2.828,2.63,4.829,4.229,2.771,7.802
	C4.903,97.938,4.36,95.395,4.418,92.308L4.418,92.308z M121.528,23.49l-3.943,2.602c-4.43,1.143-10.888,4.258-15.975,5.973
	c-6.802,2.258-9.431,4.63-15.089,7.23c-10.688,4.916-19.919,8.545-30.75,12.574c-5.029,1.857-8.916,5.116-15.089,7.23
	c-7.345,2.486-7.688,2.943-14.089,6.944C2.246,81.305,12.619,78.305,2.988,86.421l51.211-39.21
	C72.575,36.408,97.98,27.635,118.071,21.09c29.492-14.46,23.29-9.859,54.383-15.889C184,2.972,207.776,0,214.006,13.46
	c3.059,6.602-3.515,2.144,4.115,10.917l-38.236,37.666c-10.202,8.23-65.644,32.266-79.018,34.952
	c-31.407,6.344-30.264,14.66-61.557,11.803c-6.145-0.543-27.377,1.372-29.606-5.487c6.458-0.515,41.638-3.258,47.896-6.315
	c13.175-6.431,15.175-4.001,28.292-7.974c4.801-1.486,12.117-5.315,17.775-7.373l34.235-14.175c4.03-2.173,13.032-6.288,15.433-8.66
	c-10.316,0.658-23.948,8.574-33.836,12.375c-15.032,5.772-1.943,5.029-32.578,12.86C74.918,87.106,63.03,93.251,51.17,94.766
	c-9.401,1.172-33.863,6.602-41.094,2.486c12.088-9.745,7.916-7.631,22.033-12.489c3.801-1.314,9.859-2.829,13.031-4.229
	c3.687-1.6,7.459-4.715,11.203-5.944c6.857-2.229,5.43-0.8,12.26-4.858c13.346-7.888,16.203-5.544,19.518-6.83
	c0.943-0.371,2.915-2.029,5.088-2.829c3.972-1.457,9.287-2.229,13.659-3.515c8.603-2.486,15.746-6.688,23.834-10.432
	c12.203-5.658,18.29-5.572,25.863-8.373c7.916-2.943,15.146-8.459,23.462-10.945c6.858-2.059,19.661-4.402,24.548-8.889
	l-50.84,16.947c-16.546,5.115-32.007,13.117-49.182,18.376c-11.202,3.458-3.858,4.115-25.206,9.202
	c-7.201,1.715-17.632,6.315-24.576,9.545c-5.029,2.372-7.773,1.829-13.003,4.173c-12.946,5.772-8.974,6.858-23.862,10.231
	c-7.088,1.629-5.916,4.801-10.374,5.486l7.974-12.803c9.973-13.375,29.006-16.89,42.638-24.863
	c10.202-6.002,21.233-8.26,32.179-13.203c4.286-1.943,4.172-3.373,6.973-5.059l24.148-9.06l1.771-1.485
	c7.545-2.029,15.089-3.059,22.062-4.973c15.519-4.201,9.546-7.26,41.981-11.775c10.716-1.485,12.659-0.8,21.661,3.716
	c-22.976-4.915-18.118-5.544-44.209-0.714c-7.716,1.428-14.118,4.429-21.52,6.658C135.446,20.633,129.073,20.604,121.528,23.49
	L121.528,23.49z M219.007,19.861c-3.629-6.173,2.401-1.543,2.087-9.431c-0.114-2.915-0.687-3.286-2.458-4.658
	c-3.43-2.658-1.657,0.8-2.829-3.601L219.007,19.861z M213.406,3.229l4.486,10.031c-7.83-2.457-5.029-22.006-67.872-6.316
	c-14.975,3.744-18.146,5.717-31.692,11.718c-9.602,4.259-21.919,7.745-32.064,11.231c-10.659,3.687-18.575,9.117-28.549,13.889
	c-10.66,5.115-18.947,6.773-29.921,13.375c-8.459,5.059-17.976,11.46-23.748,19.576c-6.345,8.888-5.372,26.207,3.944,31.751
	c16.746,9.974,55.068,2.429,72.33-3.858c11.744-4.286,22.318-5.201,33.636-9.717c22.833-9.116,38.38-13.774,60.07-26.606
	c19.775-11.717,44.495-20.662,46.181-40.753c1.63-19.891,12.574-6.887-4.915-27.549L213.406,3.229z"/>
<path fill-rule="evenodd" clip-rule="evenodd" fill="#66A979" d="M117.585,26.092l0.486-5.002
	C97.98,27.635,72.575,36.408,54.199,47.211L2.988,86.421c9.631-8.116-0.742-5.116,23.605-20.377
	c6.401-4.001,6.744-4.458,14.089-6.944c6.173-2.114,10.06-5.373,15.089-7.23c10.831-4.029,20.062-7.658,30.75-12.574
	c5.658-2.601,8.287-4.973,15.089-7.23C106.697,30.35,113.155,27.234,117.585,26.092L117.585,26.092z"/>
<path fill-rule="evenodd" clip-rule="evenodd" fill="#5D5D5D" d="M153.336,58.813c10.517-0.229,40.866-14.432,46.496-21.319
	l-11.146,6.03C181.113,46.954,160.166,52.67,153.336,58.813L153.336,58.813z"/>
<path fill-rule="evenodd" clip-rule="evenodd" fill="#D4D4D4" d="M219.007,19.861l-3.2-17.689c1.172,4.4-0.601,0.942,2.829,3.601
	c1.771,1.372,2.344,1.743,2.458,4.658C221.408,18.318,215.378,13.688,219.007,19.861L219.007,19.861z"/>
<path fill-rule="evenodd" clip-rule="evenodd" fill="#66A979" d="M7.189,100.109c2.058-3.572,0.057-5.172-2.771-7.802
	C4.36,95.395,4.903,97.938,7.189,100.109L7.189,100.109z"/>
<polygon fill-rule="evenodd" clip-rule="evenodd" fill="#939393" points="117.585,26.092 121.528,23.49 118.071,21.09 "/>
<path fill-rule="evenodd" clip-rule="evenodd" fill="#5D5D5D" d="M84.921,82.105c1.886-2.973,1.771-0.629-0.058-3.658
	C82.12,81.849,83.406,79.791,84.921,82.105L84.921,82.105z"/>
<path fill-rule="evenodd" clip-rule="evenodd" fill="#939393" d="M123.215,25.406l-1.771,1.485c1.943,3.029-0.344,1.028,3.058,1.515
	L123.215,25.406z"/>
<path fill-rule="evenodd" clip-rule="evenodd" fill="#2B2C2B" d="M66.803,78.505c1.972-3.144,2.371-0.657,0.172-3.516
	C64.916,77.647,65.717,75.933,66.803,78.505L66.803,78.505z"/>
<path fill-rule="evenodd" clip-rule="evenodd" fill="#5D5D5D" d="M82.349,50.326c3.372-0.258,1.915,0.657,2.429-2.372
	C82.32,48.754,84.092,46.211,82.349,50.326L82.349,50.326z"/>
<path fill-rule="evenodd" clip-rule="evenodd" fill="#5D5D5D" d="M109.955,67.759c2.715-0.943,1.972,1.486,1.829-2.429
	C108.525,65.93,110.27,65.13,109.955,67.759L109.955,67.759z"/>
<path fill-rule="evenodd" clip-rule="evenodd" fill="#2B2C2B" d="M183.199,36.637c-0.2,1.915,2.229,1.601,1.829-0.028
	C184.429,34.094,183.285,35.666,183.199,36.637L183.199,36.637z"/>
<path fill-rule="evenodd" clip-rule="evenodd" fill="#5D5D5D" d="M149.506,71.874c-2.114,2.715-1.457,1.086-0.028,3.258l0.801-1.515
	C151.05,70.131,151.05,74.703,149.506,71.874L149.506,71.874z"/>
<path fill-rule="evenodd" clip-rule="evenodd" fill="#2B2C2B" d="M108.154,40.639c1.829-2.63,1.743-0.344,0-2.916
	C107.125,39.467,106.012,38.095,108.154,40.639L108.154,40.639z"/>
<path fill-rule="evenodd" clip-rule="evenodd" fill="#5D5D5D" d="M150.621,55.785c1.8,1.085-0.4,1.914,2.829-0.172
	C150.792,53.727,153.25,53.527,150.621,55.785L150.621,55.785z"/>
<path fill-rule="evenodd" clip-rule="evenodd" fill="#5D5D5D" d="M65.316,57.442c2.086,1.715-4.115,1.657,2.201,2.114
	C66.574,57.042,68.374,58.557,65.316,57.442L65.316,57.442z"/>
<path fill-rule="evenodd" clip-rule="evenodd" fill="#5D5D5D" d="M127.302,54.27c-1.887,2.744-1.429,0.601-0.029,2.944
	C128.702,54.441,129.102,57.156,127.302,54.27L127.302,54.27z"/>
<path fill-rule="evenodd" clip-rule="evenodd" fill="#5D5D5D" d="M119.3,84.878c-2.829,0.371-1.4-0.601-1.972,1.943
	C120.014,86.078,118.442,88.106,119.3,84.878L119.3,84.878z"/>
<path fill-rule="evenodd" clip-rule="evenodd" fill="#2B2C2B" d="M144.19,51.326c-2.086,2.83-1.399,0.629,0.029,2.658
	C145.362,51.498,145.763,53.927,144.19,51.326L144.19,51.326z"/>
<path fill-rule="evenodd" clip-rule="evenodd" fill="#2B2C2B" d="M47.342,69.359c-1.858,2.286-1.029,0.914,0.171,2.715
	C48.256,70.045,48.998,72.475,47.342,69.359L47.342,69.359z"/>
<path fill-rule="evenodd" clip-rule="evenodd" fill="#5D5D5D" d="M50.57,89.192l-0.629,1.229c-0.8,4.372-0.8-1.4,0.629,1.629V89.192
	z"/>
<path fill-rule="evenodd" clip-rule="evenodd" fill="#5D5D5D" d="M75.689,97.338c-0.085,0.2-0.371,0.429-0.399,0.515
	c0,0.114-0.114,0.543-0.144,0.628c-0.57,4.001-0.885-1.6,0.687,1.572L75.689,97.338z"/>
</svg>
