<?xml version="1.0" encoding="utf-8"?>
<!-- Generator: Adobe Illustrator 15.0.0, SVG Export Plug-In . SVG Version: 6.00 Build 0)  -->
<!DOCTYPE svg PUBLIC "-//W3C//DTD SVG 1.1//EN" "http://www.w3.org/Graphics/SVG/1.1/DTD/svg11.dtd">
<svg version="1.1" id="Layer_1" xmlns="http://www.w3.org/2000/svg" xmlns:xlink="http://www.w3.org/1999/xlink" x="0px" y="0px"
	 width="20px" height="100px" viewBox="0 0 20 100" enable-background="new 0 0 20 100" xml:space="preserve">
<g transform="scale(0.01953125 0.01953125)">
	<path fill="#0177B5" d="M266.253,4249.804c0,54.4-36.35,101.201-102.451,101.201c-62.201,0-102.351-44.15-102.351-98.551
		c0-55.801,38.9-105.051,102.401-105.051S265.053,4194.003,266.253,4249.804z M61.451,5069.165v-665.759h204.803v665.759H61.451z"/>
	<path fill="#0177B5" d="M368.655,4630.909c0-79.101-2.6-145.202-5.2-202.252h184.002l9.1,88.201h3.9
		c25.9-41.5,89.401-102.401,195.703-102.401c129.602,0,226.953,86.801,226.953,273.554v381.155H778.26V4717.71
		c0-81.601-31.1-143.852-102.401-143.852c-54.401,0-81.601,44.05-95.901,80.351c-5.2,13-6.5,31.101-6.5,49.301v365.655H368.655
		V4630.909L368.655,4630.909z"/>
</g>
<path fill="#DD4B39" d="M2.84,65.957c0,1.369,0.458,2.357,1.358,2.938c0.74,0.478,1.595,0.549,2.041,0.549
	c0.107,0,0.195-0.006,0.256-0.01c0,0-0.142,0.921,0.541,1.829H7.004c-1.182,0-5.034,0.246-5.034,3.416
	c0,3.226,3.539,3.386,4.249,3.386c0.057,0,0.089-0.001,0.089-0.001c0.007,0,0.058,0.001,0.145,0.001
	c0.456,0,1.633-0.056,2.727-0.589c1.419-0.687,2.139-1.887,2.139-3.561c0-1.619-1.096-2.579-1.896-3.283
	c-0.488-0.43-0.911-0.8-0.911-1.162c0-0.364,0.309-0.641,0.7-0.992c0.63-0.562,1.226-1.365,1.226-2.885
	c0-1.335-0.172-2.234-1.241-2.804c0.111-0.059,0.504-0.096,0.7-0.125c0.578-0.079,1.423-0.171,1.423-0.642v-0.087H7.103
	C7.06,61.937,2.84,62.093,2.84,65.957L2.84,65.957z M9.645,74.217c0.081,1.289-1.021,2.24-2.678,2.359
	c-1.682,0.124-3.065-0.634-3.146-1.92c-0.04-0.62,0.232-1.225,0.764-1.708c0.541-0.488,1.281-0.791,2.087-0.851
	c0.096-0.005,0.19-0.011,0.284-0.011C8.514,72.087,9.568,73.002,9.645,74.217z M8.544,65.075c0.413,1.455-0.21,2.975-1.205,3.257
	c-0.115,0.031-0.232,0.046-0.353,0.046c-0.911,0-1.814-0.922-2.149-2.192C4.65,65.475,4.666,64.85,4.88,64.25
	c0.21-0.591,0.59-0.987,1.066-1.123c0.115-0.032,0.233-0.048,0.353-0.048C7.398,63.079,8.106,63.534,8.544,65.075z M15.683,68.167
	v-2.749H13.85v2.749H11.1V70h2.75v2.749h1.833V70h2.749v-1.833H15.683z"/>
<path fill="#4C75A3" d="M19.479,45.36c0.152,0.422-0.343,1.393-1.485,2.909c-0.158,0.21-0.371,0.492-0.642,0.841
	c-0.516,0.662-0.811,1.091-0.893,1.297c-0.112,0.27-0.065,0.536,0.14,0.802c0.112,0.139,0.38,0.409,0.803,0.809h0.01l0.039,0.04
	c0.933,0.863,1.56,1.595,1.893,2.188c0.021,0.032,0.041,0.074,0.066,0.123c0.021,0.051,0.048,0.137,0.068,0.264
	c0.022,0.126,0.022,0.24-0.006,0.336c-0.025,0.099-0.109,0.19-0.247,0.272c-0.139,0.081-0.331,0.123-0.584,0.123l-2.535,0.039
	c-0.157,0.031-0.343,0.019-0.554-0.051c-0.211-0.065-0.381-0.14-0.512-0.217l-0.197-0.117c-0.198-0.142-0.431-0.349-0.693-0.633
	c-0.264-0.284-0.491-0.541-0.678-0.767c-0.188-0.229-0.389-0.417-0.604-0.574c-0.211-0.155-0.4-0.205-0.557-0.153
	c-0.022,0.01-0.045,0.021-0.079,0.034c-0.031,0.017-0.089,0.065-0.166,0.146c-0.078,0.077-0.152,0.176-0.211,0.29
	c-0.067,0.113-0.119,0.283-0.17,0.515c-0.05,0.228-0.07,0.482-0.067,0.764c0,0.101-0.012,0.19-0.033,0.272
	c-0.021,0.082-0.048,0.146-0.072,0.185l-0.045,0.052c-0.117,0.127-0.291,0.198-0.523,0.219H9.799
	c-0.469,0.026-0.95-0.025-1.444-0.163c-0.495-0.137-0.93-0.311-1.302-0.525c-0.373-0.215-0.713-0.433-1.021-0.653
	c-0.307-0.22-0.54-0.409-0.698-0.568l-0.247-0.238c-0.066-0.066-0.157-0.165-0.272-0.296c-0.116-0.131-0.352-0.433-0.708-0.899
	c-0.356-0.47-0.706-0.969-1.048-1.496C2.714,50,2.311,49.302,1.845,48.439c-0.466-0.864-0.896-1.762-1.292-2.692
	c-0.04-0.107-0.06-0.196-0.06-0.268c0-0.072,0.009-0.127,0.029-0.158l0.04-0.06c0.099-0.126,0.287-0.189,0.565-0.189l2.712-0.02
	c0.08,0.012,0.155,0.034,0.228,0.064c0.074,0.03,0.125,0.057,0.159,0.084l0.049,0.03c0.106,0.071,0.185,0.178,0.238,0.316
	c0.132,0.329,0.284,0.671,0.456,1.025c0.172,0.354,0.306,0.622,0.405,0.807l0.159,0.286c0.191,0.396,0.376,0.74,0.555,1.029
	c0.178,0.29,0.337,0.517,0.48,0.677c0.142,0.162,0.279,0.29,0.411,0.382c0.132,0.091,0.243,0.138,0.336,0.138
	c0.093,0,0.182-0.018,0.268-0.049c0.014-0.008,0.03-0.022,0.049-0.05c0.02-0.026,0.06-0.099,0.119-0.217
	c0.059-0.119,0.104-0.276,0.133-0.466c0.029-0.189,0.061-0.458,0.094-0.801c0.034-0.344,0.034-0.755,0-1.238
	c-0.013-0.264-0.044-0.504-0.089-0.723c-0.046-0.217-0.093-0.369-0.138-0.455l-0.06-0.118c-0.165-0.226-0.445-0.367-0.842-0.426
	c-0.086-0.013-0.069-0.092,0.049-0.238c0.112-0.126,0.238-0.226,0.376-0.296c0.35-0.171,1.138-0.25,2.366-0.238
	c0.541,0.007,0.986,0.049,1.336,0.128c0.133,0.032,0.24,0.076,0.33,0.134c0.089,0.057,0.153,0.136,0.2,0.238
	c0.045,0.102,0.08,0.208,0.105,0.316c0.025,0.109,0.034,0.26,0.034,0.451c0,0.19-0.004,0.373-0.013,0.545
	c-0.006,0.17-0.015,0.403-0.021,0.698c-0.011,0.293-0.018,0.566-0.018,0.816c0,0.071-0.004,0.21-0.01,0.416
	c-0.006,0.204-0.009,0.364-0.004,0.475c0.004,0.111,0.014,0.244,0.033,0.4s0.059,0.284,0.114,0.386
	c0.056,0.103,0.129,0.183,0.223,0.242c0.054,0.012,0.108,0.027,0.168,0.04c0.059,0.012,0.146-0.022,0.258-0.109
	c0.109-0.087,0.237-0.2,0.373-0.342c0.137-0.142,0.31-0.364,0.515-0.664c0.202-0.299,0.427-0.655,0.673-1.064
	c0.398-0.686,0.751-1.428,1.063-2.228c0.022-0.066,0.06-0.124,0.1-0.173c0.038-0.049,0.074-0.084,0.108-0.104l0.038-0.029
	l0.05-0.025c0,0,0.043-0.01,0.128-0.03c0.086-0.02,0.153-0.022,0.196-0.005l2.853-0.02c0.257-0.031,0.469-0.024,0.633,0.024
	c0.164,0.051,0.269,0.105,0.307,0.164L19.479,45.36z"/>
<path fill="#00ACEC" d="M17.518,26.246c0.008,0.162,0.01,0.326,0.01,0.488c0,4.99-3.797,10.742-10.737,10.742
	c-2.133,0-4.115-0.625-5.787-1.697c0.297,0.035,0.596,0.053,0.9,0.053c1.77,0,3.397-0.604,4.688-1.615
	c-1.652-0.031-3.047-1.121-3.526-2.621c0.229,0.043,0.467,0.066,0.71,0.066c0.345,0,0.679-0.045,0.994-0.131
	C3.04,31.183,1.74,29.658,1.74,27.828c0-0.016,0-0.031,0-0.047c0.509,0.283,1.092,0.453,1.71,0.473
	c-1.014-0.678-1.68-1.832-1.68-3.143c0-0.691,0.186-1.34,0.512-1.898c1.86,2.285,4.644,3.787,7.78,3.945
	c-0.063-0.277-0.096-0.564-0.096-0.861c0-2.084,1.688-3.773,3.772-3.773c1.087,0,2.066,0.457,2.757,1.191
	c0.858-0.17,1.667-0.484,2.396-0.916c-0.281,0.881-0.881,1.621-1.658,2.088c0.766-0.092,1.488-0.293,2.168-0.594
	C18.895,25.051,18.255,25.715,17.518,26.246z"/>
<path fill="#3864A3" d="M17,1H3C1.9,1,1,1.9,1,3v14c0,1.102,0.9,2,2,2h7v-7H8V9.525h2v-2.05c0-2.164,1.212-3.684,3.766-3.684
	l1.803,0.002v2.605h-1.193C13.378,6.398,13,7.144,13,7.836v1.69h2.568L15,12h-2v7h4c1.1,0,2-0.898,2-2V3C19,1.9,18.1,1,17,1L17,1z"
	/>
</svg>
