<?xml version="1.0" encoding="utf-8"?>
<!-- Generator: Adobe Illustrator 14.0.0, SVG Export Plug-In . SVG Version: 6.00 Build 43363)  -->
<!DOCTYPE svg PUBLIC "-//W3C//DTD SVG 1.1//EN" "http://www.w3.org/Graphics/SVG/1.1/DTD/svg11.dtd">
<svg version="1.1" id="Layer_1" xmlns="http://www.w3.org/2000/svg" xmlns:xlink="http://www.w3.org/1999/xlink" x="0px" y="0px"
	 width="10.75px" height="10.75px" viewBox="0 0 10.75 10.75" enable-background="new 0 0 10.75 10.75" xml:space="preserve">
	<path fill="#e1d6d3" d="M2.483,5.769C2.48,5.753,2.478,5.736,2.475,5.72c-0.013-0.078-0.02-0.159-0.02-0.242
		c0-0.851,0.7-1.541,1.561-1.541h2.012c0.016-0.003,0.081-0.003,0.098,0c0.115,0.021,0.205,0.116,0.215,0.234
		c0.001,0.008,0.001,0.039,0,0.046v0.485c0,0.074,0.061,0.132,0.133,0.132c0.023,0,0.045-0.005,0.063-0.017
		c0.001,0,0.001,0,0.001,0l0.027-0.02l1.559-1.155L8.155,3.62c0.057-0.049,0.091-0.119,0.091-0.197
		c0-0.086-0.042-0.162-0.106-0.211L6.548,2.034C6.526,2.02,6.501,2.011,6.474,2.011c-0.072,0-0.133,0.061-0.133,0.132v0.48
		c0.001,0.008,0.001,0.015,0.001,0.022c0,0.009,0,0.017-0.001,0.023C6.329,2.796,6.227,2.898,6.097,2.908
		c-0.006,0.001-0.014,0.001-0.02,0.001c-0.008,0-0.014,0-0.021-0.001h-2.04c-1.437,0-2.602,1.15-2.602,2.569
		c0,0.141,0.011,0.279,0.034,0.415c0.002,0.019,0.005,0.036,0.009,0.054c0.053,0.229,0.26,0.4,0.508,0.4
		c0.117,0,0.226-0.037,0.312-0.102c0.127-0.094,0.21-0.244,0.21-0.412C2.488,5.812,2.486,5.79,2.483,5.769
		C2.484,5.769,2.484,5.769,2.483,5.769z M9.301,4.857C9.298,4.839,9.294,4.82,9.292,4.802C9.239,4.573,9.031,4.403,8.783,4.403
		c-0.116,0-0.224,0.037-0.312,0.102C8.345,4.599,8.263,4.749,8.263,4.917c0,0.021,0.002,0.043,0.004,0.063c0,0.001,0,0.001,0,0.001
		C8.27,4.997,8.272,5.014,8.274,5.03c0.014,0.078,0.02,0.16,0.02,0.242c0,0.851-0.699,1.541-1.561,1.541H4.722
		C4.706,6.816,4.689,6.817,4.673,6.817S4.64,6.816,4.624,6.813C4.509,6.792,4.419,6.697,4.409,6.579
		C4.407,6.571,4.407,6.563,4.407,6.556s0-0.016,0.002-0.022V6.047c0-0.073-0.061-0.132-0.134-0.132
		c-0.022,0-0.044,0.006-0.063,0.016c0,0.002,0,0.002,0,0.002l-0.027,0.02L2.626,7.106L2.595,7.13
		C2.539,7.179,2.503,7.249,2.503,7.327c0,0.086,0.042,0.162,0.107,0.211L4.2,8.716h0.002c0.021,0.014,0.047,0.023,0.073,0.023
		c0.073,0,0.134-0.061,0.134-0.132v-0.48C4.407,8.119,4.407,8.11,4.407,8.104c0-0.009,0-0.017,0.002-0.023
		C4.42,7.953,4.523,7.852,4.652,7.842c0.007-0.001,0.014-0.001,0.021-0.001s0.014,0,0.021,0.001h2.04
		c1.437,0,2.602-1.15,2.602-2.569C9.335,5.131,9.323,4.993,9.301,4.857z"/>
</svg>
