<?xml version="1.0" encoding="utf-8"?>
<!-- Generator: Adobe Illustrator 15.0.0, SVG Export Plug-In . SVG Version: 6.00 Build 0)  -->
<!DOCTYPE svg PUBLIC "-//W3C//DTD SVG 1.1//EN" "http://www.w3.org/Graphics/SVG/1.1/DTD/svg11.dtd">
<svg version="1.1" id="Layer_1" xmlns="http://www.w3.org/2000/svg" xmlns:xlink="http://www.w3.org/1999/xlink" x="0px" y="0px"
	 width="9.094px" height="10.833px" viewBox="1.193 0 9.094 10.833" enable-background="new 1.193 0 9.094 10.833"
	 xml:space="preserve">
<g>
	<path d="M8.371,5.336c0,0.145-0.047,0.271-0.144,0.378C8.13,5.821,8.011,5.875,7.867,5.875c-0.047,0-0.117-0.008-0.211-0.023
		S7.49,5.829,7.439,5.829L6.853,5.84c-0.238,0.008-0.434,0.008-0.586,0v1.377c0,0.352-0.174,0.527-0.521,0.527
		c-0.172,0-0.302-0.045-0.39-0.133s-0.132-0.22-0.132-0.396L5.218,6.543l-0.006-0.68C4.74,5.891,4.406,5.905,4.21,5.905
		c-0.605,0-0.908-0.18-0.908-0.539c0-0.254,0.107-0.412,0.322-0.475c0.074-0.02,0.27-0.029,0.586-0.029
		c0.195,0,0.529-0.014,1.002-0.041L5.207,4.135c0-0.354,0.018-0.602,0.053-0.738c0.039-0.141,0.1-0.246,0.182-0.316
		c0.082-0.07,0.188-0.105,0.316-0.105c0.148,0,0.274,0.048,0.378,0.144C6.24,3.216,6.291,3.338,6.291,3.486
		c0,0.066-0.006,0.172-0.021,0.316C6.256,3.946,6.25,4.055,6.25,4.129l0.006,0.668l0.439,0.018c0.078,0,0.197-0.005,0.357-0.015
		c0.16-0.01,0.279-0.014,0.357-0.014C8.05,4.786,8.371,4.969,8.371,5.336z"/>
</g>
</svg>
