<?xml version="1.0" encoding="utf-8"?>
<!-- Generator: Adobe Illustrator 15.0.0, SVG Export Plug-In . SVG Version: 6.00 Build 0)  -->
<!DOCTYPE svg PUBLIC "-//W3C//DTD SVG 1.1//EN" "http://www.w3.org/Graphics/SVG/1.1/DTD/svg11.dtd">
<svg version="1.1" id="Layer_1" xmlns="http://www.w3.org/2000/svg" xmlns:xlink="http://www.w3.org/1999/xlink" x="0px" y="0px"
	 width="9.104px" height="10.833px" viewBox="2.146 0 9.104 10.833" enable-background="new 2.146 0 9.104 10.833"
	 xml:space="preserve">
<path d="M5.199,9.551H4.142L3.09,9.545c-0.248,0-0.421-0.016-0.521-0.047C2.388,9.434,2.298,9.297,2.298,9.092
	c0-0.36,0.278-0.541,0.834-0.541l0.255,0.006l0.218,0.011c0-0.171-0.015-0.424-0.045-0.759C3.53,7.474,3.515,7.223,3.515,7.056
	c0-0.453,0.041-1.14,0.122-2.063c0.078-0.908,0.115-1.598,0.111-2.068C3.274,3.297,2.971,3.482,2.84,3.482
	c-0.142,0-0.265-0.053-0.369-0.16c-0.104-0.107-0.157-0.23-0.157-0.369c0-0.167,0.152-0.371,0.457-0.609
	c0.191-0.136,0.462-0.353,0.813-0.652c0.312-0.317,0.609-0.476,0.893-0.476c0.237,0,0.356,0.137,0.356,0.411
	c0,0.082-0.011,0.204-0.032,0.366C4.779,2.156,4.768,2.278,4.768,2.36c0,0.118,0.006,0.296,0.019,0.535
	c0.012,0.238,0.019,0.417,0.019,0.534c0,0.406-0.042,1.012-0.128,1.816c-0.085,0.804-0.127,1.41-0.127,1.812
	c0,0.207,0.014,0.458,0.042,0.753c0.028,0.295,0.044,0.538,0.048,0.728l0.558-0.012c0.148,0,0.271,0.049,0.369,0.146
	C5.665,8.771,5.714,8.893,5.714,9.04c0,0.149-0.049,0.272-0.146,0.369C5.47,9.502,5.347,9.551,5.199,9.551z"/>
<path d="M8.134,9.754c-1.077,0-1.863-0.494-2.359-1.484C5.4,7.506,5.212,6.515,5.212,5.293c0-1.033,0.244-1.934,0.733-2.704
	c0.577-0.901,1.362-1.352,2.354-1.352c0.933,0,1.658,0.398,2.179,1.197c0.45,0.691,0.675,1.533,0.675,2.527
	c0,1.596-0.251,2.793-0.754,3.592C9.895,9.355,9.14,9.754,8.134,9.754z M8.292,2.269c-0.658,0-1.18,0.337-1.566,1.01
	C6.404,3.842,6.243,4.485,6.243,5.208c0,1.171,0.158,2.052,0.473,2.639c0.314,0.588,0.787,0.882,1.418,0.882
	c0.75,0,1.289-0.432,1.615-1.293c0.227-0.6,0.34-1.357,0.34-2.276c0-0.965-0.15-1.688-0.449-2.169
	C9.341,2.51,8.892,2.269,8.292,2.269z"/>
</svg>
