<?xml version="1.0" encoding="utf-8"?>
<!-- Generator: Adobe Illustrator 15.0.0, SVG Export Plug-In . SVG Version: 6.00 Build 0)  -->
<!DOCTYPE svg PUBLIC "-//W3C//DTD SVG 1.1//EN" "http://www.w3.org/Graphics/SVG/1.1/DTD/svg11.dtd">
<svg version="1.1" id="Layer_1" xmlns="http://www.w3.org/2000/svg" xmlns:xlink="http://www.w3.org/1999/xlink" x="0px" y="0px"
	 width="9.109px" height="10.833px" viewBox="1.115 0 9.109 10.833" enable-background="new 1.115 0 9.109 10.833"
	 xml:space="preserve">
<g>
	<path d="M7.794,9.557c-0.088,0-0.213-0.027-0.375-0.083S7.134,9.392,7.05,9.392c-0.182,0-0.452,0.011-0.813,0.032
		C5.876,9.445,5.604,9.456,5.419,9.456c-0.138,0-0.343,0.019-0.614,0.053C4.535,9.543,4.33,9.563,4.192,9.563
		c-0.039,0-0.095-0.007-0.17-0.021C3.948,9.527,3.891,9.52,3.852,9.52c-0.244,0-0.404-0.119-0.478-0.357
		C3.332,9.038,3.31,8.823,3.31,8.521c0-0.83,0.225-1.498,0.675-2.003c0.206-0.232,0.76-0.659,1.663-1.283
		c0.506-0.349,0.846-0.621,1.016-0.817c0.303-0.343,0.457-0.744,0.457-1.203c0-0.228-0.147-0.431-0.441-0.609
		c-0.26-0.161-0.512-0.241-0.76-0.241c-0.326,0-0.636,0.095-0.93,0.283l-0.76,0.599C4.077,3.368,3.955,3.429,3.863,3.429
		c-0.365,0-0.547-0.146-0.547-0.438c0-0.167,0.067-0.313,0.202-0.433c0.414-0.392,0.773-0.675,1.078-0.85
		c0.429-0.246,0.87-0.369,1.323-0.369c0.575,0,1.084,0.157,1.536,0.47c0.502,0.353,0.754,0.805,0.754,1.357
		c0,0.363-0.051,0.698-0.154,1.004C7.953,4.478,7.796,4.757,7.587,5.01c-0.266,0.32-0.715,0.679-1.35,1.075
		c-0.666,0.42-1.104,0.738-1.313,0.957C4.532,7.45,4.339,7.948,4.346,8.532L5.44,8.43c0.751-0.043,1.288-0.064,1.61-0.064
		c0.269,0,0.523,0.047,0.765,0.139c0.319,0.125,0.478,0.297,0.478,0.52c0,0.139-0.047,0.264-0.144,0.371
		C8.054,9.502,7.936,9.557,7.794,9.557z"/>
</g>
</svg>
