<?xml version="1.0" encoding="utf-8"?>
<!-- Generator: Adobe Illustrator 15.0.0, SVG Export Plug-In . SVG Version: 6.00 Build 0)  -->
<!DOCTYPE svg PUBLIC "-//W3C//DTD SVG 1.1//EN" "http://www.w3.org/Graphics/SVG/1.1/DTD/svg11.dtd">
<svg version="1.1" id="Layer_1" xmlns="http://www.w3.org/2000/svg" xmlns:xlink="http://www.w3.org/1999/xlink" x="0px" y="0px"
	 width="9.104px" height="10.833px" viewBox="1.333 0 9.104 10.833" enable-background="new 1.333 0 9.104 10.833"
	 xml:space="preserve">
<g>
	<path d="M8.57,2.568L8.085,3.135c-0.459,0.542-0.883,1.197-1.27,1.966L5.85,7.233C5.782,7.39,5.634,7.801,5.403,8.467
		c-0.184,0.527-0.356,0.92-0.515,1.181C4.789,9.815,4.647,9.899,4.463,9.899c-0.142,0-0.266-0.05-0.375-0.148
		C3.98,9.649,3.926,9.53,3.926,9.392c0-0.136,0.114-0.483,0.34-1.042l1.195-2.944c0.529-1.165,1.07-2.063,1.626-2.693l0.101-0.112
		L4.521,2.547L3.326,2.515C2.982,2.483,2.811,2.312,2.811,2.002c0-0.149,0.049-0.272,0.148-0.369
		c0.099-0.097,0.223-0.144,0.372-0.144c0.446,0,1.116,0.014,2.011,0.042C6.237,1.56,6.906,1.574,7.353,1.574h0.973
		c0.375,0,0.563,0.112,0.563,0.336C8.889,2.079,8.783,2.298,8.57,2.568z"/>
</g>
</svg>
