<?xml version="1.0" encoding="utf-8"?>
<!-- Generator: Adobe Illustrator 15.0.0, SVG Export Plug-In . SVG Version: 6.00 Build 0)  -->
<!DOCTYPE svg PUBLIC "-//W3C//DTD SVG 1.1//EN" "http://www.w3.org/Graphics/SVG/1.1/DTD/svg11.dtd">
<svg version="1.1" id="Layer_1" xmlns="http://www.w3.org/2000/svg" xmlns:xlink="http://www.w3.org/1999/xlink" x="0px" y="0px"
	 width="9.083px" height="10.833px" viewBox="1.063 0 9.083 10.833" enable-background="new 1.063 0 9.083 10.833"
	 xml:space="preserve">
<g>
	<path d="M5.701,9.834c-0.748,0-1.352-0.164-1.812-0.492C3.365,8.973,3.098,8.43,3.087,7.713c-0.014-1.15,0.388-1.933,1.206-2.35
		c-0.63-0.385-0.945-0.932-0.945-1.64c0-0.673,0.242-1.232,0.728-1.678C4.539,1.617,5.103,1.4,5.765,1.393
		c1.486-0.014,2.23,0.725,2.23,2.217c0,0.427-0.084,0.757-0.254,0.988C7.603,4.79,7.335,4.988,6.939,5.191
		c0.527,0.267,0.896,0.556,1.109,0.866C8.296,6.42,8.421,6.92,8.421,7.558c0,0.728-0.269,1.297-0.803,1.71
		C7.123,9.646,6.483,9.834,5.701,9.834z M5.653,5.731C5.09,5.995,4.714,6.223,4.527,6.417c-0.294,0.295-0.432,0.711-0.415,1.25
		C4.126,8.111,4.33,8.444,4.724,8.665C5.01,8.823,5.336,8.9,5.701,8.9c0.623,0,1.058-0.147,1.306-0.442
		c0.199-0.235,0.298-0.592,0.298-1.07c0-0.465-0.181-0.842-0.542-1.127C6.522,6.064,6.152,5.888,5.653,5.731z M5.749,2.349
		c-0.457,0-0.806,0.13-1.046,0.39C4.486,2.981,4.38,3.31,4.383,3.723c0.003,0.499,0.411,0.853,1.222,1.063
		c0.425-0.125,0.73-0.249,0.914-0.374C6.813,4.212,6.96,3.945,6.96,3.61c0-0.484-0.108-0.825-0.324-1.021
		C6.453,2.43,6.156,2.349,5.749,2.349z"/>
</g>
</svg>
