<?xml version="1.0" encoding="utf-8"?>
<!-- Generator: Adobe Illustrator 15.0.0, SVG Export Plug-In . SVG Version: 6.00 Build 0)  -->
<!DOCTYPE svg PUBLIC "-//W3C//DTD SVG 1.1//EN" "http://www.w3.org/Graphics/SVG/1.1/DTD/svg11.dtd">
<svg version="1.1" id="Layer_1" xmlns="http://www.w3.org/2000/svg" xmlns:xlink="http://www.w3.org/1999/xlink" x="0px" y="0px"
	 width="32px" height="32px" viewBox="46.5 10.089 32 32" enable-background="new 46.5 10.089 32 32" xml:space="preserve">
<path fill="#FFFFFF" stroke="#000000" stroke-linecap="round" stroke-linejoin="round" stroke-miterlimit="10" d="M70.076,21.17
	h1.051v2.994l6.248-5.354l-6.248-5.355v3.55h-1.051c-5.494,0-8.594,4.07-11.328,7.664c-2.458,3.23-4.58,6.021-8.011,6.021h-3.112
	v4.165h3.113c5.494,0,8.592-4.073,11.328-7.664C64.523,23.959,66.646,21.17,70.076,21.17z M55.674,23.794
	c0.232-0.303,0.471-0.612,0.709-0.926c0.582-0.766,1.196-1.571,1.861-2.375c-1.965-1.836-4.336-3.191-7.506-3.191h-3.113v4.166
	h3.113C52.712,21.468,54.252,22.394,55.674,23.794L55.674,23.794z M71.127,30.988h-1.051c-2.092,0-3.699-1.041-5.191-2.586
	c-0.151,0.196-0.301,0.392-0.451,0.592c-0.657,0.86-1.363,1.787-2.141,2.702c2.02,1.968,4.465,3.457,7.783,3.457h1.051v3.569
	l6.248-5.356l-6.248-5.358V30.988z"/>
</svg>
