<?xml version="1.0" encoding="utf-8"?>
<!DOCTYPE svg PUBLIC "-//W3C//DTD SVG 1.1//EN" "http://www.w3.org/Graphics/SVG/1.1/DTD/svg11.dtd">
<svg version="1.1" xmlns="http://www.w3.org/2000/svg" xmlns:xlink="http://www.w3.org/1999/xlink" x="0px" y="0px" width="32px" height="32px" viewBox="0 0 32 32" enable-background="new 0 0 32 32" xml:space="preserve"><path d="M16,1.504c-7.893,0-14.312,6.307-14.492,14.155C1.676,8.812,6.883,3.316,13.282,3.316c6.505,0,11.778,5.679,11.778,12.684 c0,1.501,1.217,2.718,2.718,2.718s2.718-1.217,2.718-2.718C30.496,7.994,24.006,1.504,16,1.504z"/><path fill="#FFFFFF" d="M16,30.496c7.892,0,14.311-6.307,14.492-14.155c-0.168,6.847-5.375,12.343-11.774,12.343 C12.212,28.684,6.94,23.005,6.94,16c0-1.501-1.216-2.718-2.718-2.718c-1.501,0-2.718,1.216-2.718,2.718 C1.504,24.006,7.994,30.496,16,30.496z"/></svg>
