<?xml version="1.0" encoding="utf-8"?>
<!-- Generator: Adobe Illustrator 15.0.0, SVG Export Plug-In . SVG Version: 6.00 Build 0)  -->
<!DOCTYPE svg PUBLIC "-//W3C//DTD SVG 1.1//EN" "http://www.w3.org/Graphics/SVG/1.1/DTD/svg11.dtd">
<svg version="1.1" id="Layer_1" xmlns="http://www.w3.org/2000/svg" xmlns:xlink="http://www.w3.org/1999/xlink" x="0px" y="0px"
	 width="9.094px" height="10.833px" viewBox="1.318 0 9.094 10.833" enable-background="new 1.318 0 9.094 10.833"
	 xml:space="preserve">
<g>
	<path d="M5.837,9.754c-1.077,0-1.863-0.494-2.359-1.484C3.103,7.506,2.915,6.515,2.915,5.293c0-1.033,0.244-1.934,0.733-2.704
		C4.225,1.688,5.01,1.237,6.001,1.237c0.933,0,1.659,0.398,2.179,1.197c0.45,0.691,0.675,1.533,0.675,2.527
		c0,1.596-0.251,2.793-0.754,3.592C7.598,9.355,6.843,9.754,5.837,9.754z M5.996,2.269c-0.658,0-1.181,0.337-1.566,1.01
		C4.107,3.842,3.946,4.485,3.946,5.208c0,1.171,0.158,2.052,0.473,2.639c0.314,0.588,0.787,0.882,1.418,0.882
		c0.75,0,1.29-0.432,1.616-1.293c0.227-0.6,0.34-1.357,0.34-2.276c0-0.965-0.15-1.688-0.449-2.169
		C7.044,2.51,6.595,2.269,5.996,2.269z"/>
</g>
</svg>
