<?xml version="1.0" encoding="utf-8"?>
<!-- Generator: Adobe Illustrator 15.0.0, SVG Export Plug-In . SVG Version: 6.00 Build 0)  -->
<!DOCTYPE svg PUBLIC "-//W3C//DTD SVG 1.1//EN" "http://www.w3.org/Graphics/SVG/1.1/DTD/svg11.dtd">
<svg version="1.1" id="Layer_1" xmlns="http://www.w3.org/2000/svg" xmlns:xlink="http://www.w3.org/1999/xlink" x="0px" y="0px"
	 width="9.094px" height="10.833px" viewBox="1.146 0 9.094 10.833" enable-background="new 1.146 0 9.094 10.833"
	 xml:space="preserve">
<g>
	<path d="M6.604,8.9C6.345,9.092,5.931,9.325,5.361,9.594c-0.634,0.307-1.075,0.459-1.323,0.459c-0.146,0-0.265-0.053-0.358-0.16
		C3.585,9.788,3.539,9.663,3.539,9.52c0-0.21,0.121-0.369,0.361-0.477l0.887-0.303C5.336,8.515,5.77,8.256,6.089,7.965
		c0.319-0.293,0.61-0.707,0.872-1.246L7.188,6.26C6.99,6.375,6.735,6.479,6.423,6.577C6.111,6.672,5.858,6.719,5.664,6.719
		c-0.669,0-1.249-0.186-1.737-0.561C3.332,5.703,3.034,5.055,3.034,4.214c0-0.994,0.304-1.74,0.914-2.238
		C4.469,1.552,5.152,1.34,5.999,1.34c0.651,0,1.236,0.267,1.752,0.802c0.545,0.566,0.82,1.25,0.824,2.052
		c0.004,0.905-0.162,1.783-0.5,2.635C7.714,7.747,7.224,8.437,6.604,8.9z M5.85,2.253c-0.595,0-1.042,0.155-1.341,0.465
		C4.21,3.028,4.058,3.494,4.055,4.117c0,0.524,0.182,0.93,0.547,1.218C4.924,5.588,5.33,5.714,5.819,5.714
		c0.283,0,0.579-0.085,0.888-0.256C6.847,5.381,7.102,5.205,7.47,4.93c0.046-0.31,0.068-0.556,0.068-0.737
		c-0.002-0.445-0.189-0.88-0.561-1.304C6.607,2.465,6.232,2.253,5.85,2.253z"/>
</g>
</svg>
