<?xml version="1.0" encoding="utf-8"?>
<!-- Generator: Adobe Illustrator 15.0.0, SVG Export Plug-In . SVG Version: 6.00 Build 0)  -->
<!DOCTYPE svg PUBLIC "-//W3C//DTD SVG 1.1//EN" "http://www.w3.org/Graphics/SVG/1.1/DTD/svg11.dtd">
<svg version="1.1" id="Layer_1" xmlns="http://www.w3.org/2000/svg" xmlns:xlink="http://www.w3.org/1999/xlink" x="0px" y="0px"
	 width="9.109px" height="10.833px" viewBox="1.162 0 9.109 10.833" enable-background="new 1.162 0 9.109 10.833"
	 xml:space="preserve">
<g>
	<path d="M4.919,3.25l2.737,0.006c0.348,0,0.52,0.174,0.52,0.521c0,0.347-0.172,0.522-0.52,0.522L4.914,4.293
		c-0.09,0-0.224,0.005-0.401,0.015c-0.177,0.01-0.31,0.015-0.396,0.015c-0.152,0-0.276-0.051-0.372-0.152
		C3.649,4.07,3.601,3.944,3.601,3.795c0-0.281,0.164-0.453,0.492-0.516C4.179,3.26,4.455,3.25,4.919,3.25z M5.253,6.397
		c0.258,0,0.645,0.006,1.161,0.018c0.514,0.012,0.901,0.019,1.16,0.019c0.348,0,0.52,0.174,0.52,0.521
		c0,0.348-0.172,0.521-0.52,0.521c-0.258,0-0.645-0.006-1.16-0.018C5.899,7.445,5.511,7.44,5.253,7.44
		c-0.117,0-0.293,0.008-0.527,0.023C4.492,7.478,4.318,7.487,4.205,7.487c-0.359,0-0.539-0.174-0.539-0.521
		c0-0.319,0.168-0.493,0.504-0.521C4.603,6.413,4.964,6.397,5.253,6.397z"/>
</g>
</svg>
