<?xml version="1.0" encoding="utf-8"?>
<!-- Generator: Adobe Illustrator 15.0.0, SVG Export Plug-In  -->
<!DOCTYPE svg PUBLIC "-//W3C//DTD SVG 1.1//EN" "http://www.w3.org/Graphics/SVG/1.1/DTD/svg11.dtd" [
	<!ENTITY ns_flows "http://ns.adobe.com/Flows/1.0/">
]>
<svg version="1.1"
	 xmlns="http://www.w3.org/2000/svg" xmlns:xlink="http://www.w3.org/1999/xlink" xmlns:a="http://ns.adobe.com/AdobeSVGViewerExtensions/3.0/"
	 x="0px" y="0px" width="285px" height="304px" viewBox="0 0 285 304" enable-background="new 0 0 285 304" xml:space="preserve">
<defs>
</defs>
<path fill-rule="evenodd" clip-rule="evenodd" fill="#D9AFD2" d="M183.84,10.603c-0.915,41.753,6.63,47.983,12.402,77.991
	c6.173,32.037-12.402,56.928-4.829,79.505c3.4,10.031,9.545,22.663,10.974,33.523c2.515,19.118-14.575,45.354-6.944,81.505
	c2.972,14.004,4.2,11.518,28.721,17.748c-2.544-12.032-5.659-19.377-2.944-32.979c2.229-11.175,6.116-19.548,5.688-31.979
	c-0.4-11.688-3.286-21.978-4.544-33.266l6.858-30.607c4.516,0.6,4.344,0.914,6.944,3.829l14.746,17.49l24.948,8.002L247.483,176.3
	c3.429,0.515,25.52,19.147,30.663,22.749l4.059-16.719l-28.35-12.003c0.887-0.771-2.028-3.086,7.088,0.771l22.319,8.717
	l1.371-16.204l-31.921-4.401c3.058-3.086,12.088-0.371,16.146,0.086l16.203,1.687l-0.057-15.947l-28.178-2.372l27.521-0.314
	l-1.943-17.919c-9.831-1.172-18.547,10.46-28.436,8.545l27.063-12.088c-5.315-22.949-29.863,2.886-35.322,7.116l-12.116,8.173
	c-7.888-15.318-8.146-52.413-12.031-65.902c-9.688-33.837-6.859-32.008-2.601-68.16L183.84,10.603z"/>
<path fill-rule="evenodd" clip-rule="evenodd" fill="#AD79B5" d="M37.094,136.948c19.033-8.859,27.091,19.291,11.688,24.977
	c-8.259,3.059-15.718-1.057-18.375-7.173C27.606,148.322,29.063,140.692,37.094,136.948L37.094,136.948z M65.128,114.771
	c3.601,1.029,3.887,2.115,7.516,6.745c15.146,19.348,9.945,68.045-6.801,73.675c-3.744,1.258-3.744,0.686-6.887-0.657
	c5.601-2.658,10.288,0.715,15.575-12.832c5.173-13.317,6.602-35.494,1.743-48.697C74.188,127.375,68.786,119.287,65.128,114.771
	L65.128,114.771z M18.861,141.978c-3.4-1.515-7.001-5.773-11.888-2.744c-2.143,1.343-6.059,6.688-4.429,11.088l20.204,13.946
	c-1.171,0.771-0.628,0.429-3,0.8c-3.486,0.572-6.202,0.086-9.574,3.688l0.714,12.316c17.375-4.772,10.574-5.572,23.548,4.916
	c19.947,16.146,38.18,32.408,57.555,49.326l16.461,13.946c-5.43-29.121,2.458-31.179,6.116-47.697
	c4.029-18.262-14.003-27.35-12.346-43.354c1.829-17.747,13.803-19.948,5.601-46.64L96.592,64.302
	c-3.315,1.743-14.375,17.233-17.204,21.348c-24.806,35.78-16.632,16.833-40.266,37.38L18.861,141.978z"/>
<path fill-rule="evenodd" clip-rule="evenodd" fill="#F4B4D1" d="M154.176,21.92c-0.629,39.781,7.802,47.554,12.946,74.761
	c5.629,29.693-14.547,49.555-4.087,74.646c3.801,9.117,9.945,22.521,9.859,33.294c-0.114,12.117-5.744,23.32-7.573,35.666
	c-1.771,11.803-2.086,28.436,1.4,39.267c2.429,7.545,4.973,7.603,12.431,9.774c4.373,1.257,12.66,3.801,17.004,3.915l1.801-70.703
	c3.629-14.718,2.829-21.434-1.886-34.895c-14.518-41.667-9.859-26.492-2.115-67.13c7.145-37.409-13.66-54.328-12.432-108.655
	L154.176,21.92z"/>
<path fill-rule="evenodd" clip-rule="evenodd" fill="#917993" d="M124.313,37.838c0.114,63.044,24.233,59.329,9.373,103.111
	c-4.572,13.489-5.83,19.205,0.2,32.379c18.09,39.438,5.115,33.465,1.2,62.901c-1.572,11.745-1.714,27.006,4.172,35.551
	c4.515,6.488,18.776,10.289,26.749,13.318c-14.26-62.244,14.289-60.901,0.286-98.91c-3.115-8.374-9.202-20.748-9.116-29.979
	c0.171-21.206,14.317-32.78,6.001-65.817c-10.431-41.582-7.315-20.977-11.603-67.016C141.602,26.178,129.057,36.38,124.313,37.838
	L124.313,37.838z"/>
<path fill-rule="evenodd" clip-rule="evenodd" fill="#D9AFD2" d="M122.112,40.639c-4.058,1.058-18.861,15.261-21.719,18.604
	c-4.172,4.858,0.314,26.521,2.629,33.866c3.029,9.745,9.688,20.69,10.059,31.779c0.429,13.117-6.315,21.205-8.345,32.493
	c-1.743,9.889,7.945,21.691,11.174,29.836c4.744,11.975-2.429,21.806-4.944,31.837c-2.601,10.316-3.515,25.777,2.287,34.352
	c3.286,4.887,16.232,15.518,22.633,17.832l2.886-58.585c7.373-26.235-11.774-34.666-11.374-54.442
	c0.172-8.859,5.087-20.062,7.145-28.493C141.831,99.939,121.369,87.736,122.112,40.639L122.112,40.639z"/>
<path fill-rule="evenodd" clip-rule="evenodd" fill="#181818" d="M39.123,123.03c23.634-20.548,15.46-1.6,40.266-37.38
	c2.829-4.115,13.889-19.605,17.204-21.348l11.231,47.269c8.202,26.692-3.772,28.893-5.601,46.64
	c-1.657,16.004,16.375,25.092,12.346,43.354c-3.658,16.519-11.545,18.576-6.116,47.697l-16.461-13.946
	c-19.375-16.918-37.608-33.18-57.555-49.326c-12.975-10.488-6.173-9.688-23.548-4.916l-0.714-12.316
	c3.372-3.602,6.087-3.115,9.574-3.688c2.372-0.371,1.829-0.028,3-0.8L2.543,150.323c-1.629-4.401,2.286-9.745,4.429-11.088
	c4.887-3.029,8.488,1.229,11.888,2.744L39.123,123.03z M122.112,40.639c-0.743,47.097,19.719,59.3,12.431,89.079
	c-2.058,8.431-6.973,19.633-7.145,28.493c-0.4,19.776,18.747,28.207,11.374,54.442l-2.886,58.585
	c-6.401-2.314-19.347-12.945-22.633-17.832c-5.802-8.574-4.887-24.035-2.287-34.352c2.515-10.031,9.688-19.862,4.944-31.837
	c-3.229-8.145-12.917-19.947-11.174-29.836c2.029-11.288,8.773-19.376,8.345-32.493c-0.371-11.089-7.03-22.034-10.059-31.779
	c-2.315-7.345-6.802-29.007-2.629-33.866C103.251,55.899,118.054,41.696,122.112,40.639L122.112,40.639z M124.313,37.838
	c4.744-1.458,17.289-11.66,27.263-14.46c4.287,46.04,1.172,25.435,11.603,67.016c8.316,33.037-5.83,44.611-6.001,65.817
	c-0.086,9.23,6.001,21.604,9.116,29.979c14.003,38.009-14.546,36.666-0.286,98.91c-7.973-3.029-22.233-6.83-26.749-13.318
	c-5.887-8.545-5.744-23.806-4.172-35.551c3.915-29.437,16.89-23.463-1.2-62.901c-6.03-13.175-4.772-18.891-0.2-32.379
	C148.546,97.167,124.427,100.882,124.313,37.838L124.313,37.838z M154.176,21.92l27.349-10.06
	c-1.229,54.328,19.576,71.246,12.432,108.655c-7.744,40.638-12.402,25.463,2.115,67.13c4.715,13.461,5.515,20.177,1.886,34.895
	l-1.801,70.703c-4.344-0.114-12.631-2.658-17.004-3.915c-7.458-2.172-10.002-2.229-12.431-9.774
	c-3.486-10.831-3.172-27.464-1.4-39.267c1.829-12.346,7.459-23.549,7.573-35.666c0.086-10.773-6.059-24.177-9.859-33.294
	c-10.46-25.092,9.716-44.954,4.087-74.646C161.978,69.474,153.547,61.701,154.176,21.92L154.176,21.92z M218.962,2.115
	c-4.259,36.152-7.088,34.323,2.601,68.16c3.886,13.489,4.144,50.584,12.031,65.902l12.116-8.173
	c5.459-4.229,30.007-30.064,35.322-7.116l-27.063,12.088c9.889,1.915,18.604-9.717,28.436-8.545l1.943,17.919l-27.521,0.314
	l28.178,2.372l0.057,15.947l-16.203-1.687c-4.059-0.457-13.089-3.172-16.146-0.086l31.921,4.401l-1.371,16.204l-22.319-8.717
	c-9.116-3.857-6.201-1.543-7.088-0.771l28.35,12.003l-4.059,16.719c-5.144-3.602-27.234-22.234-30.663-22.749l28.377,25.063
	l-24.948-8.002l-14.746-17.49c-2.601-2.915-2.429-3.229-6.944-3.829l-6.858,30.607c1.258,11.288,4.144,21.577,4.544,33.266
	c0.429,12.432-3.458,20.805-5.688,31.979c-2.715,13.603,0.4,20.947,2.944,32.979c-24.521-6.23-25.749-3.744-28.721-17.748
	c-7.631-36.151,9.459-62.387,6.944-81.505c-1.429-10.86-7.573-23.492-10.974-33.523c-7.573-22.577,11.002-47.468,4.829-79.505
	c-5.772-30.007-13.317-36.237-12.402-77.991L218.962,2.115z M18.861,138.777c-4-1.057-5.916-4.401-11.66-2.4
	c-2.972,1.029-6.573,5.887-7.201,9.088l14.031,17.805c-4.458,3.115-11.745,7.23-7.373,16.175
	c11.117,0.458,15.718-0.828,20.262,3.001c18.976,16.147,45.353,37.553,62.899,54.128c9.716,9.202,35.751,32.294,44.467,37.209
	c27.663,15.547,61.271,22.205,92.82,30.321c0.657-5.601-5.602-18.204-4.201-31.55c1.172-11.146,5.658-19.69,6.201-31.809
	c0.801-17.461-7.173-39.237-3.829-51.555l5.001-14.29c4.83,1.772,6.315,4.115,9.174,7.688c6.744,8.374,15.603,21.749,25.233,25.264
	c17.404,6.373,21.376-27.949,22.434-42.553c1.086-14.775,1.086-50.47-11.174-55.557c-10.573-4.373-29.464,14.489-41.323,23.463
	c-2.229-10.917-4.887-20.147-6.602-31.808c-0.857-5.83-1.028-11.917-1.429-17.89c-0.886-12.889-9.345-30.407-9.688-49.412
	c-0.258-14.432,2-20.634,5.344-34.094c-24.291,0.229-71.787,18.805-94.335,33.266c-32.064,20.576-41.124,40.496-61.985,67.13
	c-7.173,9.174-21.805,13.747-36.065,27.493C25.577,132.004,23.462,135.205,18.861,138.777L18.861,138.777z"/>
<path fill-rule="evenodd" clip-rule="evenodd" fill="#181818" d="M32.264,154.009c-4.144-14.604,9.802-20.977,18.804-13.889
	c7.544,5.916,4.572,20.805-8.859,20.634c2.086-2.173,10.603-8.688,2.286-14.118C35.493,140.749,32.264,154.009,32.264,154.009
	L32.264,154.009z M37.094,136.948c-8.03,3.744-9.488,11.374-6.688,17.804c2.658,6.116,10.117,10.231,18.375,7.173
	C64.185,156.239,56.126,128.089,37.094,136.948L37.094,136.948z"/>
<path fill-rule="evenodd" clip-rule="evenodd" fill="#FFFFFF" d="M32.264,154.009c0,0,3.229-13.26,12.231-7.373
	c8.316,5.43-0.2,11.945-2.286,14.118c13.432,0.171,16.404-14.718,8.859-20.634C42.066,133.033,28.12,139.406,32.264,154.009
	L32.264,154.009z"/>
<path fill-rule="evenodd" clip-rule="evenodd" fill="#181818" d="M65.128,114.771c3.658,4.516,9.059,12.604,11.145,18.233
	c4.858,13.203,3.43,35.38-1.743,48.697c-5.287,13.547-9.974,10.174-15.575,12.832c3.144,1.343,3.144,1.915,6.887,0.657
	c16.747-5.63,21.948-54.328,6.801-73.675C69.015,116.886,68.729,115.8,65.128,114.771L65.128,114.771z"/>
</svg>
