<?xml version="1.0" encoding="utf-8"?>
<!-- Generator: Adobe Illustrator 15.0.0, SVG Export Plug-In . SVG Version: 6.00 Build 0)  -->
<!DOCTYPE svg PUBLIC "-//W3C//DTD SVG 1.1//EN" "http://www.w3.org/Graphics/SVG/1.1/DTD/svg11.dtd">
<svg version="1.1" id="Layer_1" xmlns="http://www.w3.org/2000/svg" xmlns:xlink="http://www.w3.org/1999/xlink" x="0px" y="0px"
	 width="367.482px" height="413.979px" viewBox="0 0 367.482 413.979" enable-background="new 0 0 367.482 413.979"
	 xml:space="preserve">
<path fill="#E6D1D1" stroke="#000000" stroke-width="2" stroke-linecap="round" stroke-linejoin="round" stroke-miterlimit="10" d="
	M279.9,197.149c0,0,25.5,16.75,29.5,12.25s3-12.5,9-12.5s3.5,15.75,4.625,17.375s21.875-1.125,19.625,5.125s-14.25,6.25-14.25,6.25
	s15,5.75,14,11s-17,0.5-17,0.5s10.25,11,6,14.5s-14.25-8-14.25-8s8.25,10.25,3.5,13.75s-18.75-12.5-22.25-16.25s-19.25,1-19.25,1
	L279.9,197.149z"/>
<path fill="#E6D1D1" stroke="#000000" stroke-width="2" stroke-linecap="round" stroke-linejoin="round" stroke-miterlimit="10" d="
	M234.566,300.732c0,0,57.167,1.333,57.667,23.5s-40.333,15.5-47.833,15s-64-11.5-64-11.5L234.566,300.732z"/>
<path fill="#E6D1D1" stroke="#000000" stroke-width="2" stroke-linecap="round" stroke-linejoin="round" stroke-miterlimit="10" d="
	M190.4,163.399c-12,0-68.762,49.04-78.297,80.604s58.547,92.646,58.547,92.646s90.75-24.75,107.25-66.25s5-89,5-89
	S202.4,163.399,190.4,163.399z"/>
<path fill="#E6D1D1" stroke="#000000" stroke-width="2" stroke-linecap="round" stroke-linejoin="round" stroke-miterlimit="10" d="
	M294.4,63.399c0,0,22-44-6.5-43.5s-31.75,46-31.75,46L294.4,63.399z"/>
<path fill="#E6D1D1" stroke="#000000" stroke-width="2" stroke-linecap="round" stroke-linejoin="round" stroke-miterlimit="10" d="
	M120.9,284.399c0,0-100-2-97,34.5s97,44.432,95,60.966s-88.5,17.534-88.5,17.534s104.422,6.15,102-17.534
	c-2-27.966-94.5-29.966-93.5-60.966s87.75-14.25,87.75-14.25L120.9,284.399z"/>
<g>
	
		<path fill="#E6D1D1" stroke="#000000" stroke-width="2" stroke-linecap="round" stroke-linejoin="round" stroke-miterlimit="10" d="
		M135.4,223.899c11.667,0,37.333,6,40.666,54s-14,46-14,46s40.667,12,49.333,33.333s-26.667,30.999-46.333,22.333
		s-67.168-40.832-51.667-68.999C90.9,251.399,123.732,223.899,135.4,223.899z"/>
	
		<path fill="#E6D1D1" stroke="#000000" stroke-width="2" stroke-linecap="round" stroke-linejoin="round" stroke-miterlimit="10" d="
		M196.067,356.399c13,6.5,10.041,19.273,10.041,19.273"/>
	
		<path fill="#E6D1D1" stroke="#000000" stroke-width="2" stroke-linecap="round" stroke-linejoin="round" stroke-miterlimit="10" d="
		M181.067,360.232c12.833,10.5,4.335,22.357,4.335,22.357"/>
	
		<path fill="#E6D1D1" stroke="#000000" stroke-width="2" stroke-linecap="round" stroke-linejoin="round" stroke-miterlimit="10" d="
		M162.567,359.399c9.833,10.5,3.208,20.466,3.208,20.466"/>
</g>
<path id="head-of-mouse" fill="#E6D1D1" stroke="#000000" stroke-width="2" stroke-linecap="round" stroke-linejoin="round" stroke-miterlimit="10" d="
	M169.4,135.399c-44.5,13.5-49-29-52-35.5s-6.5-65.5,44-69s48,29.5,52,35.5c15-9,35.5-11.5,45-10s34.5-1.5,46.5,17s9,32.5,14,38
	c22,19.5,13,45,9.5,52s-12.5,13.5-34.5,25s-78,4.5-96.5-3.5S166.4,153.399,169.4,135.399z"/>
<path fill="#FFFFFF" stroke="#000000" stroke-width="2" stroke-linecap="round" stroke-linejoin="round" stroke-miterlimit="10" d="
	M144.4,63.649c-33.5,37.75,24.5,66,28.5,44.5s17-16.25,22.5-24.75C200.939,74.839,177.947,25.846,144.4,63.649z"/>
<path fill="#FFFFFF" stroke="#000000" stroke-width="2" stroke-linecap="round" stroke-linejoin="round" stroke-miterlimit="10" d="
	M264.067,122.899c-4.792-17.875-16.667-17.333-24.667-14.333s-8.707,15.458-7.666,19.833s7.333,21.167,12.666,22.833
	c1.334,1.667,19.667,4,19.667,0S268.859,140.774,264.067,122.899z"/>
<path fill="#FFFFFF" stroke="#000000" stroke-width="2" stroke-linecap="round" stroke-linejoin="round" stroke-miterlimit="10" d="
	M290.9,114.899c-4,21,12.5,33.5,12.5,33.5l8.5,0.5c0,0,3.25-3,2.5-21.5S294.9,93.899,290.9,114.899z"/>
<path d="M252.521,113.902c-15.5,1.993-3.604,29.313-3.604,29.313l16.593,1.149C265.51,144.364,268.021,111.909,252.521,113.902z"/>
<path stroke="#000000" stroke-width="2" stroke-linecap="round" stroke-linejoin="round" stroke-miterlimit="10" d="M299.4,112.899
	c-9.5,7.25-0.75,28.5-0.75,28.5s11.75,12.75,15.5,1.25S308.9,105.649,299.4,112.899z"/>
<path fill="#FFFFFF" d="M248.852,122.899c-0.452,5.25,4.673,4.25,5.298,0.25S249.304,117.649,248.852,122.899z"/>
<path fill="#FFFFFF" d="M298.852,118.899c-0.452,5.25,4.673,4.25,5.298,0.25S299.304,113.649,298.852,118.899z"/>
<path fill="#F5EA5F" stroke="#000000" stroke-width="2" stroke-linecap="round" stroke-linejoin="round" stroke-miterlimit="10" d="
	M271.4,144.899c-7.5-0.375-26.5-2.5-31.5,0.375s-13.5,9.375-10,22.125s21.125,21.875,44.625,21.625
	c29.052-0.309,46.091-19.269,46.875-36.125c0.75-16.125-24.5-11-24.5-11S278.9,145.274,271.4,144.899z"/>
<path fill="none" stroke="#000000" stroke-width="2" stroke-linecap="round" stroke-linejoin="round" stroke-miterlimit="10" d="
	M307.9,157.149c-5.75,7.875-10.625,9.375-20.5,4.25c-6.625,3.75-21.5,11-31.125-1.875"/>
<path fill="#F3808C" stroke="#000000" stroke-width="2" stroke-linecap="round" stroke-linejoin="round" stroke-miterlimit="10" d="
	M286.15,156.149c-3.5-5.125-13-5.75-13.375-9s1.5-8.5,13.625-8.5s11.375,4.875,10.875,6.75S288.275,152.399,286.15,156.149z"/>
<path fill="#FFFFFF" stroke="#000000" stroke-width="2" stroke-linecap="round" stroke-linejoin="round" stroke-miterlimit="10" d="
	M277.525,165.783l0.125,8.491l8.875-1h7.625l-0.056-9.241c0,0,0.931,0.491-6.694-2.634
	C280.714,164.651,277.525,165.783,277.525,165.783z"/>
<line fill="none" stroke="#000000" stroke-width="2" stroke-linecap="round" stroke-linejoin="round" stroke-miterlimit="10" x1="286.4" y1="173.274" x2="286.4" y2="162.024"/>
<path fill="none" stroke="#000000" stroke-width="2" stroke-linecap="round" stroke-linejoin="round" stroke-miterlimit="10" d="
	M224.56,101.399c6.09,4.75,18.872,5.994,18.872,5.994s-16.032,1.544-21.032-0.433"/>
<path fill="none" stroke="#000000" stroke-width="2" stroke-linecap="round" stroke-linejoin="round" stroke-miterlimit="10" d="
	M316.984,95.899c-2.333,4.917-16.833,8.785-16.833,8.785s16.082,0.381,19.916-1.285"/>
<path fill="#FFFFFF" stroke="#000000" stroke-width="2" stroke-linecap="round" stroke-linejoin="round" stroke-miterlimit="10" d="
	M247.15,90.399c-2.375,4-13.625,9-18.75,6.5s3.625-8.375,7.25-9.875S249.525,86.399,247.15,90.399z"/>
<path fill="#FFFFFF" stroke="#000000" stroke-width="2" stroke-linecap="round" stroke-linejoin="round" stroke-miterlimit="10" d="
	M289.9,85.149c0.625-6.25,20.125,5.125,15.25,9.375S289.275,91.399,289.9,85.149z"/>
<path fill="none" stroke="#000000" stroke-width="2" stroke-linecap="round" stroke-linejoin="round" stroke-miterlimit="10" d="
	M203.15,147.149c14.25-7,39.75,2.75,39.75,2.75"/>
<path fill="none" stroke="#000000" stroke-width="2" stroke-linecap="round" stroke-linejoin="round" stroke-miterlimit="10" d="
	M244.9,158.399c0,0-32.5-3-39.25,6.25"/>
<path fill="none" stroke="#000000" stroke-width="2" stroke-linecap="round" stroke-linejoin="round" stroke-miterlimit="10" d="
	M244.9,166.399c0,0-28-0.25-32.25,11.75"/>
<path fill="none" stroke="#000000" stroke-width="2" stroke-linecap="round" stroke-linejoin="round" stroke-miterlimit="10" d="
	M346.9,144.649c-10-8.5-35,4.25-35,4.25"/>
<path fill="none" stroke="#000000" stroke-width="2" stroke-linecap="round" stroke-linejoin="round" stroke-miterlimit="10" d="
	M313.9,155.649c0,0,26.25-5.5,31.25,1.25"/>
<path fill="none" stroke="#000000" stroke-width="2" stroke-linecap="round" stroke-linejoin="round" stroke-miterlimit="10" d="
	M313.9,162.149c0,0,20.5,3.5,22.25,9.75"/>
<path fill="#828282" stroke="#000000" stroke-width="2" stroke-linecap="round" stroke-linejoin="round" stroke-miterlimit="10" d="
	M225.829,60.69c0.321,16.709,0.321,16.709,0.321,16.709l17.75-3.25l7,5.5l7.25-5.25l13.5,5.5l-0.25-8.5l17.5-3.25
	c0,0,0,0-22.27-11.136C244.151,53.732,238.567,56.732,225.829,60.69z"/>
<path fill="none" stroke="#000000" stroke-width="2" stroke-linecap="round" stroke-linejoin="round" stroke-miterlimit="10" d="
	M204.9,196.399c11.25,6.75,13.5,40.25,22.5,42.5s18.5-9.25,22.75-3.75s-4.75,7.5-9.25,18.25c3.25,4.25,20,14.5,15.5,17.75
	s-19-2.75-19-2.75s12,17.25,5.75,19s-15.75-11-15.75-11s2.75,14.75-3,16s-9.5-14.5-9.5-14.5s2.25,12.75-4.75,13.25
	s-6.5-19.5-9.75-26.75c-15.25-10.25-38.25-39-34-51.5"/>
<path fill="#FFFFFF" stroke="#000000" stroke-width="2" stroke-linecap="round" stroke-linejoin="round" stroke-miterlimit="10" d="
	M317.9,216.399c5.75,5.5-5.5,31.25-15.5,21.25S312.15,210.899,317.9,216.399z"/>
<path fill="none" stroke="#000000" stroke-width="2" stroke-linecap="round" stroke-linejoin="round" stroke-miterlimit="10" d="
	M266.566,322.732c5.167,1.333,4.487,17.523,4.487,17.523"/>
<path fill="none" stroke="#000000" stroke-width="2" stroke-linecap="round" stroke-linejoin="round" stroke-miterlimit="10" d="
	M279.15,318.732c5.583,3.333,5.125,18.254,5.125,18.254"/>
</svg>
