<?xml version="1.0" encoding="utf-8"?>
<!-- Generator: Adobe Illustrator 15.0.0, SVG Export Plug-In  -->
<!DOCTYPE svg PUBLIC "-//W3C//DTD SVG 1.1//EN" "http://www.w3.org/Graphics/SVG/1.1/DTD/svg11.dtd" [
	<!ENTITY ns_flows "http://ns.adobe.com/Flows/1.0/">
]>
<svg version="1.1"
	 xmlns="http://www.w3.org/2000/svg" xmlns:xlink="http://www.w3.org/1999/xlink" xmlns:a="http://ns.adobe.com/AdobeSVGViewerExtensions/3.0/"
	 x="0px" y="0px" width="336px" height="429px" viewBox="0 0 336 429" enable-background="new 0 0 336 429" xml:space="preserve">
<defs>
</defs>
<path fill-rule="evenodd" clip-rule="evenodd" fill="#EBEBEB" d="M232.28,355.373c12.574-2.115,8.716,13.146,4.601,14.632
	C230.365,372.349,226.507,361.432,232.28,355.373L232.28,355.373z M224.963,312.763c10.774-0.2,10.374,13.175,4.315,14.632
	c-4.572,1.114-6.516-2.344-7.259-5.944C221.106,316.935,222.935,315.306,224.963,312.763L224.963,312.763z M258.314,399.412
	c1.258-5.772,4.115-9.745,5.772-15.461c10.831-37.552-7.773-72.789-31.636-98.281l-14.688,8.688
	c-14.261,7.059-43.152,7.973-58.898,7.63c-17.576-0.371-42.495-1.657-58.013-9.603c-4.144-2.114-9.688-7.716-13.575-8.859
	l-19.404,31.122c-11.66,22.491-14.032,59.815-4.287,83.592c3.229,7.831,19.318,16.747,30.064,19.348
	c39.351,9.488,91.934,13.661,132.886,0.372c23.805-7.745,21.147-4.059,31.121-18.576c2.801,3.943,0.857,3.344,11.374-0.257
	l1.172-28.207l-1.887,4.201c-2.029,8.23-1.371,9.088-5.572,18.547C261.029,397.555,261.972,397.354,258.314,399.412L258.314,399.412
	z"/>
<path fill-rule="evenodd" clip-rule="evenodd" fill="#EBEBEB" d="M214.104,275.268c-5.744,0.629-7.173-2.286-8.23-7.202
	c-1.4-6.63,2.087-7.944,7.602-7.459L214.104,275.268z M203.387,229.313c6.716-6.173,13.061,8.202,7.631,12.889
	C204.531,247.832,197.586,234.657,203.387,229.313L203.387,229.313z M92.792,190.561c7.059,3.972,11.974,5.83,14.317,14.975
	c5.772,22.319-4.458,26.521-9.116,31.437c-1.886,2-1.715,2.114-3.172,3.915c-7.001,8.659-9.545,13.231-15.832,22.72
	c3.458,11.718,12.003,19.977,20.319,25.292c9.374,6.002,22.891,7.83,36.236,9.202c24.148,2.43,60.642,3.258,81.161-5.858
	c12.518-5.573,16.775-10.745,20.548-24.806c6.801-25.378-2.144-49.784-16.689-69.618c-9.831-13.403-11.031-12.432-25.406-20.805
	c-10.974,6.659-21.661,11.603-38.351,10.631l-33.979-15.632c-5.401,0.657-12.717,4.944-17.204,7.116
	C99.136,182.245,96.164,186.274,92.792,190.561L92.792,190.561z"/>
<path fill-rule="evenodd" clip-rule="evenodd" fill="#1E1E1E" d="M258.314,399.412c3.658-2.058,2.715-1.857,4.43-5.744
	c4.201-9.459,3.543-10.316,5.572-18.547l1.887-4.201l-1.172,28.207c-10.517,3.601-8.573,4.2-11.374,0.257
	c-9.974,14.518-7.316,10.831-31.121,18.576c-40.952,13.289-93.535,9.116-132.886-0.372c-10.746-2.601-26.834-11.517-30.064-19.348
	c-9.745-23.776-7.373-61.101,4.287-83.592l19.404-31.122c3.887,1.144,9.431,6.745,13.575,8.859
	c15.518,7.945,40.437,9.231,58.013,9.603c15.746,0.343,44.638-0.571,58.898-7.63l14.688-8.688
	c23.862,25.492,42.467,60.729,31.636,98.281C262.429,389.667,259.572,393.64,258.314,399.412L258.314,399.412z M269.574,368.776
	c0.314-21.263-2.772-33.352-10.831-49.784c-6.744-13.803-15.289-24.634-24.806-36.237l7.23-23.463
	c15.089,6.545-0.372,4.087,33.235,12.86c0.515,14.261-1.172,33.237-1.829,47.897l-2.028,45.411
	C270.488,365.804,270.917,366.062,269.574,368.776L269.574,368.776z M278.147,416.76l-7.459-0.029l6.83-156.752l7.401,2.629
	L278.147,416.76z M63.471,292.814c-8.459,0.258-11.231-5.486-19.547-2.028c-8.173,3.4-10.66,1.371-13.946-5.116
	c-6.887-13.574-4.801-23.349,1.086-35.98c2.058-4.458,6.202-11.659,8.316-14.832c7.516-11.346,21.719-29.235,32.664-35.895
	c25.949-15.747,36.951,3.973,33.779,22.978c-1.372,8.345-4.944,7.944-9.116,12.803c-6.23,7.288-25.863,32.837-27.892,41.782
	C67.187,283.755,67.644,286.527,63.471,292.814L63.471,292.814z M295.922,228.313l-7.259-9.088c0.6-0.314-0.601-2.572,7.087,1.2
	c7.916,3.887,9.316,13.488,8.402,22.034c-1.029,9.888-8.002,20.233-17.09,22.891l0.2-5.001c-1.715-0.8-13.632-0.086-8.916-15.433
	C282.919,230.085,293.264,239.888,295.922,228.313L295.922,228.313z M279.375,218.683c-1.172-5.487,1.743-62.187,3.258-66.188
	l2.144,16.318l3.544,1.029l-1.943,49.212L279.375,218.683z M92.792,190.561c3.372-4.287,6.344-8.316,12.832-11.432
	c4.486-2.172,11.802-6.458,17.204-7.116l33.979,15.632c16.689,0.972,27.377-3.972,38.351-10.631
	c14.375,8.374,15.575,7.402,25.406,20.805c14.546,19.833,23.49,44.24,16.689,69.618c-3.772,14.061-8.03,19.232-20.548,24.806
	c-20.519,9.116-57.012,8.288-81.161,5.858c-13.346-1.372-26.863-3.2-36.236-9.202c-8.316-5.315-16.861-13.574-20.319-25.292
	c6.287-9.488,8.831-14.061,15.832-22.72c1.458-1.801,1.286-1.915,3.172-3.915c4.658-4.916,14.889-9.117,9.116-31.437
	C104.766,196.391,99.851,194.533,92.792,190.561L92.792,190.561z M241.625,256.463c0.715-23.749-4.772-39.324-17.175-57.443
	c-2.344-3.401-9.174-10.717-9.974-13.746l33.179,11.717c10.345,5.487,18.061,10.945,29.12,15.918l-0.2,5.115
	c-3.229-0.057-4.687-0.371-7.487,0.4c-0.2,0.058-0.6,0.601-0.714,0.372c-0.144-0.2-0.457,0.285-0.657,0.429
	c3.943,1.743,3.743,1.143,8.059,1.343c2.829,0.143,4.744,0.457,7.659,1c2.914,0.543,4.801,1.258,6.716,2.458
	c2.8,1.771,3.286,2.086,2.715,6.287l-15.232,4.572c-2.4,4.944-1.429,11.804-8.03,13.318c-2.743,0.628-3.43-0.172-5.944,1.286
	c4.973,2.229,5.772,1.8,11.117-0.857v20.662L241.625,256.463z M288.549,157.21l-1.229,3.744c-2.086-2.601-1.657-1.458-1.8-4.916
	l-0.229-11.374c-4.315,4.001-4.059,4.83-4.145,4.687c-0.057-0.171-0.313,0.458-0.485,0.686c0.314-6.144,0.629-4.658-0.829-6.43
	l-6.687,6.945l8.716-24.349c1.743,11.231-1.258,8.374,1,12.089c3.887-9.288,2.001-8.288,5.03-9.66
	c0.886,13.204-0.829,9.574,2.028,10.946c2.001-13.432,0.372-9.345,4.03-10.346l1.657,10.46c4.658-7.545-1.058-7.488,2.372-11.66
	c2.314,9.145,4.372,16.576,5.315,26.121c-4.716-5.516-1.915-4.144-5.315-5.516l-2.486,13.889l-4.572-13.66
	C288.177,151.666,288.292,152.637,288.549,157.21L288.549,157.21z M231.793,124.316c-0.914,0.6-0.628,0.6-2.372,1.172
	c0,0-1.571,0.343-1.686,0.372c-17.947,3.944-39.78,20.119-47.696,5.659c-8.888-16.176,15.061-8.974,18.118-8.802
	C209.161,123.373,221.449,122.516,231.793,124.316L231.793,124.316z M299.609,122.458c-1.344,4.03-4.63,4.344-9.631,3.572
	L299.609,122.458z M282.148,122.458c0.257-5.63-1.687-3.429,4.887-2.229c4.029,0.771,3.972,0.085,7.201,2L282.148,122.458z
	 M216.504,132.318c-1.057,28.75-26.005,52.356-52.583,53.042c-16.718,0.429-30.207-5.43-38.837-14.032
	c-14.46-14.375-24.119-35.409-16.775-57.214c3.429-10.26,37.951-25.721,49.154-29.322c16.432-5.287,28.749-8.345,40.237,2.858
	c1.343,1.286,2.029,2.429,3.344,3.687c4.687,4.516,4.229,3.887,8.259,10.889c2.515,4.373,7.002,12.889,5.801,18.919l-25.634-2
	c-9.802-2.172-15.546,1.486-12.317,11.203C183.297,148.922,207.017,134.776,216.504,132.318L216.504,132.318z M105.681,111.284
	c-1.772-5.973-3.315-9.202,0.771-14.032c6.173-7.316,22.005-16.204,31.35-20.034c7.43-3.086,17.347-6.887,25.777-8.488
	c17.861-3.401,18.49-1.257,23.92,8.002c-23.948,3.744-23.948,2.401-46.61,11.574C116.769,98.081,108.652,109.998,105.681,111.284
	L105.681,111.284z M296.808,60.958l0.086-5.344l-2.172,2.258c0.886,8.059-1.658,22.92-2.4,31.951
	c-0.4,4.858-0.801,10.974-1.344,15.632c-1.371,11.632,0.886,11.403-3.086,12.775l-3.001-51.956c-1.343,3.144-1.258,2.2-1.258,5.687
	l1.058,39.553c0.058,3.744,0.028,3.429-0.828,5.144l-3.115-8.259l-5.658-65.645l8.059,5.688l-2.658-16.804l2.372,3.115
	c2.4,4.373,2.115,7.745,5.716,8.688l1.572-17.804l4.486,13.917c5.687-6.03,2.829-17.776,6.83-24.349l1.058,27.75
	c7.001-8.145,5.544-12.66,9.745-17.347l-2.716,31.808c3.944-3.373,3.087-2.058,4.973-6.173c1.286-2.801,1.943-4.458,3.544-6.516
	c-0.943,4.201-14.003,69.217-18.062,72.589c-1.371-3.458-1.314-2.144-0.457-6.173l6.059-31.408c1-5.487,2.943-9.031,0.429-11.746
	l-8.145,39.295c-1.629,8.517-0.2,9.117-3.943,11.46c-2.658-5.658-1.144-5.973-0.515-15.404
	C294.264,90.394,296.894,73.418,296.808,60.958L296.808,60.958z M152.948,12.86c-1.572-1.715-0.771,2.143-1.486-2.115l-0.171,1.572
	c0.2,6.487,6.401,7.287,7.63,12.46c1.086,4.544-1.229,3.772,1.972,7.916c1.429,1.858,2.801,3.172,4.315,5.716
	c2.858,4.658,1.143,4.144,2.315,8.002c0.657,2.172,9.83,13.489,11.631,18.348L135.03,75.447
	c-15.889,5.059-25.406,16.233-32.636,21.291l-1.2-9.859c1.029-6.916-1.429-6.173-1.458-10.803
	c-0.029-3.344,2.343-6.116,2.715-10.117c1.515-16.519,0.343-10.66-3-16.204c-1.086-2.687-0.429-2.858-2.344-4.715
	c-3.086-2.972-6.344-2.058-9.688-4.258c9.431-13.203,7.116-12.689,17.432-18.662c4.83-2.772,2.658-2.772,5.944-5.173
	c5.858-4.287,28.692-9.831,37.608-8.23c1.972-0.857,3.486,1.4,0.371-2.029c-8.287-2.601-34.464,4.087-39.694,8.602
	C98.622,24.263,84.504,28.835,85.39,42.982c16.118,6.659,9.517,3.629,12.603,9.316c1.2,2.201,1.714,1.658,3.315,3.601l-2.629,15.518
	c-2.086,6.687,0.972,8.402,0.286,15.718c-0.886,9.917,4.658,19.976,5.916,29.235c0.686,5.03-0.8,11.06-0.372,17.205
	c1.572,23.263,13.088,31.636,14.975,36.266l-16.861,8.23c-7.001,3.858-10.831,10.888-13.146,12.231
	c-13.689,8.116-15.975,2.286-31.693,17.576c-11.803,11.431-25.691,31.151-32.264,48.412c-3.629,9.517-2.972,19.491,1.314,28.436
	c7.745,16.147,14.689,9.432,19.919,7.974c7.973-2.258,16.146,9.26,21.347-2.943c2.229-5.259,1.943-18.519,9.088-23.148l8.545,14.089
	c-8.316,11.604-8.545,11.403-15.661,24.206c-4.63,8.345-8.459,17.547-11.031,27.35c-8.602,32.837-1.372,43.354,1.658,66.188
	c-23.405,0.172-30.292-2.172-48.354,4.944c-2.858,1.144-4.315,2.029-6.83,3.258c-4.287,2.086-3.572,0.515-5.516,4.716
	c16.632-6.888,50.383-22.034,66.329-5.858c25.063,25.406,104.537,26.234,140.831,19.348c11.803-2.258,30.893-6.888,41.695-11.689
	c6.372-2.829,3.801-8.716,20.004-10.745l-0.515,16.433h11.546l1.601-19.176l29.12,0.514c9.831,1.344,16.318,4.83,25.234,6.316
	l-5.401-3.944c-11.088-5.716-36.979-6.315-48.896-5.63l5.401-128.402l19.547-26.063c0.629-5.83-0.914-14.775-3.657-19.005
	c-2.858-4.43-7.974-6.459-13.746-8.202l2.172-54.414l4.715,12.174l2.372-14.832c1.515-6.63-0.314-1.172,1.972-3.744
	c3.115,7.145,3.115,9.488,7.03,10.717l-5.63-36.609c-0.771-7.545,24.405-94.795,21.462-99.625
	c-2.601,4.629-8.087,16.347-10.402,18.547l2.087-33.666l-10.432,20.691L303.038,0l-6.973,28.635c-0.086,0.257-0.314,0.6-0.4,0.829
	c-0.085,0.2-0.429,0.915-0.485,0.771c-0.086-0.171-0.343,0.543-0.543,0.771c-1.657-6.059-2.915-14.975-5.716-16.404l-1.8,21.634
	c-6.059-7.345-6.373-14.175-10.317-17.347l3.029,23.691l-7.487-5.458l5.401,64.159c1.029,13.946,3.115,17.547-1.314,30.808
	c-2.258,6.745-7.602,20.462-7.916,26.778l8.974-8.631l-1.943,13.546h3.2l-1.714,45.925l-30.75-16.49
	c-30.178-16.633-29.492-8.688-35.008-9.688l-13.174-8.259c11.659-13.089,20.861-24.549,20.919-43.982l18.433-4.515
	c-3.602-4.487-2.572-4.43-8.06-5.344c-3.801-0.629-7.229-0.572-11.146-0.8c-8.688-19.662-8.858-26.406-21.919-36.638
	c-7.83-6.144-8.459-13.832-12.002-17.29c-4.916-4.773-8.917-11.203-12.175-17.147c-5.544-10.06-1-5.858-5.83-13.203
	c-5.087-7.773-4.629-2.429-5.373-14.118L152.948,12.86z"/>
<path fill-rule="evenodd" clip-rule="evenodd" fill="#EBEBEB" d="M204.331,143.321c0.172,13.718-41.752,12.317-45.953-2.972
	l10.288,6.487c10.031,5.83,27.264,3.001,31.607-0.057c2.229-1.572,1.028-1.229,1.972-2.086
	C203.473,143.549,202.187,144.264,204.331,143.321L204.331,143.321z M170.266,118c-2.086-5.43-2.258-11.946,2.715-15.147
	C181.069,105.883,180.268,119.972,170.266,118L170.266,118z M188.098,117.229c-4.629-3.801-4.344-11.832,0-15.546
	C195.958,102.682,197.358,116.829,188.098,117.229L188.098,117.229z M216.504,132.318c-9.487,2.458-33.207,16.604-39.352-1.972
	c-3.229-9.717,2.516-13.375,12.317-11.203l25.634,2c1.201-6.03-3.286-14.546-5.801-18.919c-4.029-7.002-3.572-6.373-8.259-10.889
	c-1.314-1.257-2.001-2.4-3.344-3.687c-11.488-11.203-23.806-8.145-40.237-2.858c-11.203,3.601-45.725,19.062-49.154,29.322
	c-7.344,21.805,2.315,42.839,16.775,57.214c8.631,8.602,22.119,14.461,38.837,14.032C190.5,184.674,215.448,161.068,216.504,132.318
	L216.504,132.318z"/>
<path fill-rule="evenodd" clip-rule="evenodd" fill="#EBEBEB" d="M63.471,292.814c4.172-6.287,3.715-9.06,5.344-16.289
	c2.029-8.945,21.662-34.494,27.892-41.782c4.172-4.858,7.745-4.458,9.116-12.803c3.172-19.005-7.83-38.724-33.779-22.978
	c-10.945,6.659-25.148,24.549-32.664,35.895c-2.115,3.173-6.259,10.374-8.316,14.832c-5.887,12.632-7.973,22.406-1.086,35.98
	c3.287,6.487,5.773,8.517,13.946,5.116C52.24,287.328,55.012,293.072,63.471,292.814L63.471,292.814z"/>
<path fill-rule="evenodd" clip-rule="evenodd" fill="#FFF4B4" d="M151.291,12.317l-2.886-3.601
	c-8.917-1.601-31.75,3.944-37.608,8.23c-3.287,2.401-1.115,2.401-5.944,5.173c-10.316,5.973-8.001,5.458-17.432,18.662
	c3.343,2.201,6.602,1.286,9.688,4.258c1.915,1.857,1.258,2.029,2.344,4.715c3.343,5.544,4.515-0.314,3,16.204
	c-0.372,4.001-2.744,6.773-2.715,10.117c0.028,4.63,2.486,3.887,1.458,10.803l1.2,9.859c7.23-5.058,16.747-16.232,32.636-21.291
	l44.124-10.688c-1.801-4.858-10.974-16.176-11.631-18.348c-1.172-3.858,0.543-3.344-2.315-8.002
	c-1.515-2.543-2.887-3.858-4.315-5.716c-3.201-4.144-0.886-3.372-1.972-7.916C157.692,19.604,151.491,18.805,151.291,12.317
	L151.291,12.317z"/>
<path fill-rule="evenodd" clip-rule="evenodd" fill="#EBEBEB" d="M241.625,256.463l33.15,12.832v-20.662
	c-5.345,2.657-6.145,3.086-11.117,0.857c2.515-1.458,3.201-0.658,5.944-1.286c6.602-1.515,5.63-8.374,8.03-13.318l15.232-4.572
	c0.571-4.201,0.085-4.516-2.715-6.287c-1.915-1.2-3.802-1.915-6.716-2.458c-2.915-0.543-4.83-0.857-7.659-1
	c-4.315-0.2-4.115,0.4-8.059-1.343c0.2-0.144,0.514-0.629,0.657-0.429c0.114,0.229,0.514-0.314,0.714-0.372
	c2.801-0.771,4.259-0.457,7.487-0.4l0.2-5.115c-11.06-4.973-18.775-10.431-29.12-15.918l-33.179-11.717
	c0.8,3.029,7.63,10.345,9.974,13.746C236.852,217.139,242.339,232.714,241.625,256.463L241.625,256.463z"/>
<path fill-rule="evenodd" clip-rule="evenodd" fill="#CE9360" d="M294.722,57.871c0.828-3.858-0.629-1.629,2.258-3.401
	c1.399,3.029,1.285,3.772-0.172,6.487c0.086,12.46-2.544,29.436-3.372,42.382c-0.629,9.431-2.144,9.746,0.515,15.404
	c3.743-2.343,2.314-2.943,3.943-11.46l8.145-39.295c2.515,2.715,0.571,6.259-0.429,11.746l-6.059,31.408
	c-0.857,4.029-0.914,2.715,0.457,6.173c4.059-3.372,17.118-68.388,18.062-72.589c-1.601,2.058-2.258,3.715-3.544,6.516
	c-1.886,4.115-1.028,2.8-4.973,6.173l2.716-31.808c-4.201,4.687-2.744,9.203-9.745,17.347l-1.058-27.75
	c-4.001,6.573-1.144,18.319-6.83,24.349l-4.486-13.917l-1.572,17.804c-3.601-0.943-3.315-4.315-5.716-8.688l-2.372-3.115
	l2.658,16.804l-8.059-5.688l5.658,65.645l3.115,8.259c0.856-1.715,0.886-1.4,0.828-5.144l-1.058-39.553
	c0-3.487-0.085-2.543,1.258-5.687l3.001,51.956c3.972-1.372,1.715-1.143,3.086-12.775c0.543-4.658,0.943-10.774,1.344-15.632
	C293.064,80.791,295.608,65.93,294.722,57.871L294.722,57.871z"/>
<polygon fill-rule="evenodd" clip-rule="evenodd" fill="#C0C577" points="284.919,262.607 277.518,259.979 270.688,416.73 
	278.147,416.76 "/>
<path fill-rule="evenodd" clip-rule="evenodd" fill="#FFF4B4" d="M105.681,111.284c2.972-1.286,11.088-13.203,35.208-22.977
	c22.662-9.173,22.662-7.831,46.61-11.574c-5.43-9.259-6.059-11.403-23.92-8.002c-8.43,1.601-18.347,5.401-25.777,8.488
	c-9.345,3.83-25.177,12.717-31.35,20.034C102.365,102.082,103.909,105.312,105.681,111.284L105.681,111.284z"/>
<path fill-rule="evenodd" clip-rule="evenodd" fill="#EBEBEB" d="M288.664,219.226l7.259,9.088
	c-2.658,11.574-13.003,1.771-17.575,16.604c-4.716,15.347,7.201,14.633,8.916,15.433l-0.2,5.001
	c9.088-2.657,16.061-13.003,17.09-22.891c0.914-8.546-0.486-18.147-8.402-22.034C288.063,216.653,289.263,218.911,288.664,219.226
	L288.664,219.226z"/>
<path fill-rule="evenodd" clip-rule="evenodd" fill="#EF7F22" d="M231.793,124.316c-10.345-1.8-22.633-0.943-33.636-1.6
	c-3.058-0.171-27.006-7.374-18.118,8.802c7.916,14.46,29.749-1.715,47.696-5.659c0.114-0.029,1.686-0.372,1.686-0.372
	C231.166,124.916,230.879,124.916,231.793,124.316L231.793,124.316z"/>
<path fill-rule="evenodd" clip-rule="evenodd" fill="#CE9360" d="M285.52,156.038c1.515,1.258,0.257,0.286,3.029,1.172
	c-0.258-4.573-0.372-5.544,2.372-8.345l4.572,13.66l2.486-13.889c3.4,1.372,0.6,0,5.315,5.516
	c-0.943-9.545-3.001-16.976-5.315-26.121c-3.43,4.172,2.286,4.115-2.372,11.66l-1.657-10.46c-3.658,1-2.029-3.086-4.03,10.346
	c-2.857-1.372-1.143,2.258-2.028-10.946c-3.029,1.372-1.144,0.372-5.03,9.66c-2.258-3.715,0.743-0.857-1-12.089l-8.716,24.349
	l6.687-6.945c1.458,1.772,1.144,0.286,0.829,6.43c0.172-0.229,0.429-0.857,0.485-0.686c0.086,0.143-0.171-0.686,4.145-4.687
	L285.52,156.038z"/>
<path fill-rule="evenodd" clip-rule="evenodd" fill="#C0C577" d="M279.375,218.683l7.002,0.371l1.943-49.212l-3.544-1.029
	l-2.144-16.318C281.119,156.496,278.204,213.195,279.375,218.683L279.375,218.683z"/>
<path fill-rule="evenodd" clip-rule="evenodd" fill="#1E1E1E" d="M203.387,229.313c-5.801,5.344,1.144,18.519,7.631,12.889
	C216.448,237.516,210.103,223.141,203.387,229.313L203.387,229.313z"/>
<path fill-rule="evenodd" clip-rule="evenodd" fill="#1E1E1E" d="M232.28,355.373c-5.772,6.059-1.915,16.976,4.601,14.632
	C240.996,368.52,244.854,353.258,232.28,355.373L232.28,355.373z"/>
<path fill-rule="evenodd" clip-rule="evenodd" fill="#1E1E1E" d="M224.963,312.763c-2.028,2.543-3.857,4.172-2.943,8.688
	c0.743,3.601,2.687,7.059,7.259,5.944C235.337,325.938,235.738,312.563,224.963,312.763L224.963,312.763z"/>
<path fill-rule="evenodd" clip-rule="evenodd" fill="#1E1E1E" d="M204.331,143.321c-2.144,0.943-0.857,0.229-2.086,1.372
	c-0.943,0.857,0.257,0.515-1.972,2.086c-4.344,3.058-21.576,5.887-31.607,0.057l-10.288-6.487
	C162.579,155.638,204.502,157.039,204.331,143.321L204.331,143.321z"/>
<path fill-rule="evenodd" clip-rule="evenodd" fill="#1E1E1E" d="M188.098,117.229c9.26-0.4,7.859-14.546,0-15.546
	C183.754,105.397,183.469,113.428,188.098,117.229L188.098,117.229z"/>
<path fill-rule="evenodd" clip-rule="evenodd" fill="#1E1E1E" d="M170.266,118c10.002,1.972,10.803-12.118,2.715-15.147
	C168.008,106.055,168.18,112.57,170.266,118L170.266,118z"/>
<path fill-rule="evenodd" clip-rule="evenodd" fill="#1E1E1E" d="M214.104,275.268l-0.629-14.661
	c-5.515-0.485-9.002,0.829-7.602,7.459C206.931,272.981,208.36,275.896,214.104,275.268L214.104,275.268z"/>
<path fill-rule="evenodd" clip-rule="evenodd" fill="#FFFFFF" d="M282.148,122.458l12.088-0.229c-3.229-1.915-3.172-1.229-7.201-2
	C280.461,119.029,282.405,116.829,282.148,122.458L282.148,122.458z"/>
<path fill-rule="evenodd" clip-rule="evenodd" fill="#FFFFFF" d="M289.978,126.031c5.001,0.771,8.287,0.458,9.631-3.572
	L289.978,126.031z"/>
<path fill-rule="evenodd" clip-rule="evenodd" fill="#7B7B7B" d="M148.404,8.716l2.886,3.601l0.171-1.572
	c0.714,4.258-0.086,0.4,1.486,2.115c-0.771-5.23-0.771-4.573-4.172-6.173C151.891,10.117,150.376,7.859,148.404,8.716L148.404,8.716
	z"/>
<path fill-rule="evenodd" clip-rule="evenodd" fill="#7B7B7B" d="M288.549,157.21c-2.772-0.886-1.515,0.086-3.029-1.172
	c0.143,3.458-0.286,2.315,1.8,4.916L288.549,157.21z"/>
<path fill-rule="evenodd" clip-rule="evenodd" fill="#9A9A9A" d="M294.722,57.871l2.172-2.258l-0.086,5.344
	c1.457-2.715,1.571-3.458,0.172-6.487C294.093,56.242,295.55,54.013,294.722,57.871L294.722,57.871z"/>
</svg>
