<?xml version="1.0" encoding="utf-8"?>
<!-- Generator: Adobe Illustrator 15.0.0, SVG Export Plug-In . SVG Version: 6.00 Build 0)  -->
<!DOCTYPE svg PUBLIC "-//W3C//DTD SVG 1.1//EN" "http://www.w3.org/Graphics/SVG/1.1/DTD/svg11.dtd">
<svg version="1.1" id="Layer_1" xmlns="http://www.w3.org/2000/svg" xmlns:xlink="http://www.w3.org/1999/xlink" x="0px" y="0px"
	 width="210px" height="144.717px" viewBox="0 0 210 144.717" enable-background="new 0 0 210 144.717" xml:space="preserve">
<g>
	<path fill-rule="evenodd" clip-rule="evenodd" fill="#FFD9A9" d="M10.088,75.225c-0.028,2.172-1.257,5.516-1.457,8.745
		c-0.486,7.916,0.285,18.919,4.43,25.292c2.371,3.687,1.857,2.772,6.916,3.258c14.06,1.286,31.549,1.887,45.038,4.858
		c18.69,4.115,31.921,6.202,51.354,8.374c24.091,2.686,49.953,0.743,71.644-6.116c9.688-3.058,11.402-3.001,11.774-8.202
		c0.143-2.4-1.144-6.259-1.857-8.431c-0.972-2.972-1.629-4.715-3.687-6.03c-3.486-2.229-29.121-6.344-33.607-5.544
		c-2.229,5.201-2.115,3.658-1.344,7.059l-7.029,0.258c-0.429-1.429-0.372-1.715-1.058-2.629c-0.771-0.972-0.601,0.771-0.743-1.001
		c-0.172-1.914-0.028-0.399,0.485-0.771c0.086-0.2,0.515-1.286,0.515-1.314l-7.001-3.544c-4.63,2.801-3.401,2.258-7.659,7.745
		l1.086-0.486c0.601-0.229,0.343-0.057,0.972-0.314c1.857-0.8,2.029-2.2,1.857-5.001l-2.344-0.657l-0.143,4.716
		c-3.344,1.143-3.314-1.829-3.829-3.201c0.743,4.487,0.285,2.915,1.743,4.001l-0.801-6.401c-0.571-1.486-1.657-1.829-0.571-3.144
		c0.715-0.886-0.457-0.229,0.771-0.486c-0.6-1.629-5.687-2.343-7.344-2.457l-2.115,0.285c-0.057-0.086-0.2,0.086-0.314,0.114
		c-0.2,0.543,0.172,0.886-2.058,1.115c-0.114,1.485,0.029,2.629-0.543,3.543c-0.6,0.943-0.143,0.286-0.629,0.657
		c-1.629,3.315-4.915,0.687-6.486-0.657c-0.144-2.2,0.543-2.943,1.057-4.458c0.801,0.601,1.086-0.886,0.515,0.943l2.687-1.029
		c-3.058-0.199-2.857-0.429-3.63-2.286c-0.485-1.172,0-0.743-1.057-1.429c-1.344-0.857-5.487-2.829-6.888-2.887l-1.457,0.829
		l-2.058,5.229l-5.772-2.857c-0.43-3.572,2.457-2.314,0.914-5.43l1.887-2.029l-0.601-0.943c-0.028-0.028-0.114-0.114-0.172-0.172
		l-0.856-1.514l-1.973-1.201l-7.201,3.401c-3.315,0.629-6.059-0.372-6.631-3.087c-1.742-8.23,5.402-11.603,4.373-14.86
		c-1.771-5.458-1.486-2.087-3.258-3.944c-0.029-0.028-0.057-0.143-0.086-0.171c-2.658-3.372-4.486-0.543-3.029-8.088
		c0.771-4.001,3.172-3.658,1.715-7.145c-2.458-5.858-3.801-2.315-5.029-5.116c-1.287-0.313-0.144,0.857-1.372-1.057
		c-0.458-0.686-0.543-1.143-0.8-1.915l2.914-0.114l-2.771-1.371c-1.686-0.829-0.572-2.401-0.057-3.688l-1.373-1.371l0.201-0.4
		c0.342-0.857,0.485-0.801,0.514-1.572l-10.431-5.4c3.087,1.428,3.772,1.485,6.315,3.4c1.572,1.2,1.286,0.943,1.771,1.972
		l-7.43-4.173c2.915,9.488,5.486,13.375-0.743,17.462c-6.802,4.43-7.001,9.831-9.573,14.375c-4.258,7.545-12.402,5.229-17.775,4.63
		c-8.316-0.943-13.945,0.199-21.919,1.2c-2.058,8.545-2.001,9.316-4.887,17.376c-0.314,0.914-0.601,1.743-0.915,2.743L10.088,75.225
		z"/>
	<path fill-rule="evenodd" clip-rule="evenodd" fill="#A99273" d="M139.174,144.699l0.285-0.8l11.174,0.371l1.144-1.715
		c3.058,1.857,2.857,1.286,8.631,1.029l1.114-1.772c5.944,0.543,10.03,0.572,15.86-0.714c2.715-0.601,2.001-0.258,3.63-2.344
		c3.372,0,8.858,0.114,11.145-2.801l0.629-0.771c5.145,0.257,6.744-1.2,12.488-3.544c0.029-1.457-0.942-4.401-1.2-6.401l-0.8-7.345
		c-4.887,1.114-10.116,3.829-15.232,5.458l-15.003,3.201c8.373-2.058,13.86-2.857,22.605-6.602c2.257-0.943,6.658-2.2,7.259-3.201
		c-2.258,0.144-4.315,1.601-6.688,2.201l5.344-2.772c-7.059,2.2-14.003,4.602-21.204,6.373
		c-34.808,8.659-65.929,4.602-100.536-1.286c-7.916-1.343-15.289-3.544-23.349-4.63c-8.602-1.172-17.089-1.657-25.634-2.515
		c-5.259-0.543-21.434-2.629-25.663-0.829l-0.571,0.801l2.457,1.229H4.544l-0.028,17.233c-0.114,2.515-1.229,2.715-0.686,4.572
		l9.516,1.972c3.115,0.172,2.629-1.229,4.059-0.886c0.114,0.028,0.914,0.4,1.057,0.485c0.658,0.372,0.201,0.114,0.771,0.543
		c0.915,0.687,0.086,0.543,1.486,0.829c1.715,0.314,3.858,0.229,5.459-0.028c2.801-0.457,0.343-0.143,3.029,0.6
		c0.6,0.172,0.571,0.114,1.143,0.172c5.658,0.457,5.287-0.972,9.431-1.886c5.001,3.601,4.087,3.801,9.288,1.886l1.6,2l5.945-0.199
		c5.258-5.716,2.543-1.772,6.943-4.115c2.172-1.172,4.002-3.344,4.459-6.487l32.721,4.058l1.572,5.315l5.201,1.258l2.687-4.516
		l1.629,5.373l5.029,0.229l2.2-4.029h2.829l1.258,3.629c0.943,1.715,4.115,1.544,5.658,1.058c1.515-0.485,0.4-0.629,2.286-0.172
		C133.887,144.899,136.373,144.356,139.174,144.699L139.174,144.699z"/>
	<path fill-rule="evenodd" clip-rule="evenodd" fill="#191919" d="M6.573,90.8c1.172,11.003,1,11.975,5.544,21.034
		c-3-0.114-3.801,0.543-4.943-1.972C4.001,102.718,6.688,93.258,6.573,90.8L6.573,90.8z M157.035,96.802l-0.4,1.2
		c-1.629,0.457-2.458,0.601-3.258-1.114L157.035,96.802z M157.035,96.802l-0.229-0.601l1.887,2.058l-2.058,0.4
		c0.515-0.343,0.771-0.4,0.914-0.886C158.092,96.087,157.063,96.83,157.035,96.802L157.035,96.802z M150.947,94.344l1.144-0.6
		c0.028,0.257,0.143,0.914,0.143,0.972l-0.057,0.972C150.462,95.259,151.233,96.059,150.947,94.344L150.947,94.344z M159.436,93.515
		c0.143,1.829,0.485,1.315-1.258,1.744L159.436,93.515z M7.888,84.57c-0.114,12.632,0.4,17.29,6.03,27.378
		c-1.572-0.485-1.229-0.485-2.201-2.144C8.002,103.403,6.316,91.629,7.888,84.57L7.888,84.57z M138.517,91.486
		c1.314,3.086,0.028,4.201-3.058,3.029C135.059,91.915,135.944,91,138.517,91.486L138.517,91.486z M153.205,92.915
		c1.2,0.257,1.372,0.657,2.229,1.314C153.577,94.173,153.691,94.144,153.205,92.915L153.205,92.915z M157.12,94.229l-3.801-2.314
		l0.572-7.202c2.028,0.172,3.771,2.029,4.486,3.516C159.063,89.686,157.835,93.172,157.12,94.229L157.12,94.229z M141.46,90.829
		c0.257-0.772,0.057-0.687,0.571-1.372c0.886-1.229,0.143-0.486,1.229-0.743C144.231,90.343,143.061,90.629,141.46,90.829
		L141.46,90.829z M136.688,89.086c0.229-0.572,0.2-2.258,2.801-0.687l1.6,1.486c-1.057,0.886-0.457,0.629-2.114,0.257
		c-0.028,0-1.258-0.343-1.314-0.371C136.602,89.343,137.03,89.429,136.688,89.086L136.688,89.086z M144.86,88.285l7.602,4.229
		c-1.343,0.114-4.515-2-6.401-3.029C144.403,88.542,145.004,88.571,144.86,88.285L144.86,88.285z M146.489,87.742l6.545-0.943
		l-0.229,4.544C151.69,91.229,147.232,88.628,146.489,87.742L146.489,87.742z M117.654,86.228c0.058-0.057,0.172-0.257,0.229-0.2
		c0.029,0.086,1.43-1.629,2.973-0.543l0.143,3.201C118.055,89.371,118.083,88.771,117.654,86.228L117.654,86.228z M135.544,86.256
		c0.915-0.2,0.172,0.344,1.144-0.343c-0.686,1.572,0.515,2.2-1.144,3.201C134.315,87.971,134.916,87.828,135.544,86.256
		L135.544,86.256z M143.574,86.514l0.629-2.572c1.915-0.4,9.316-1.229,8.802,1.457c-0.229,1.172-0.171,0.801-1.828,1.058
		l-5.059,0.687C143.688,87.143,145.89,87.113,143.574,86.514L143.574,86.514z M138.03,85.37l4.229,1.601
		C141.117,87.628,138.631,86.056,138.03,85.37L138.03,85.37z M119.541,81.569c2.715,0.8,1.743,0.172,3.687,2.229l-4.287-0.572
		L119.541,81.569z M125.771,84.198l-2.086,0.458c0.314-1.458,0.485-1.286,1.229-2.144c0.857-1.001,0.372-0.829,1.687-1.572
		L125.771,84.198z M127.199,80.969l5.973,1.687c-1.314-0.114-2.057-0.343-3.343-0.515c-0.314-0.028-1.687-0.143-1.801-0.171
		C125.971,81.341,127.6,81.655,127.199,80.969L127.199,80.969z M147.747,81.77c0.314,1.114-0.601-0.086,0.429,1.058l-4.716,0.485
		l-0.657-3.515C145.232,79.997,146.061,81.084,147.747,81.77L147.747,81.77z M128.6,80.141c3.801-3.029,3.973-2.058,9.26,0.743
		v1.714l-1.829,0.2c0.086,0.086,0.285,0.086,0.314,0.258c0.229,0.8,0.057,0.057,0.972,0.828l-1.743-0.257
		c0.543,0.543,0.742,0.571,0.771,1.372l-1.172-1.572c0.257-0.629,0.857-0.629-0.086-1.058
		C133.944,81.826,130.258,81.227,128.6,80.141L128.6,80.141z M104.681,78.512c0.314,2.028,0.429,1.571-0.314,3.286
		c-2.601,0.543-3.401-0.371-3.029-3.029C103.051,78.111,102.68,78.226,104.681,78.512L104.681,78.512z M104.681,78.512l-0.343-0.887
		l2.2,0.658l-1.772,5.029l-4.658-1.515l0.229-2.887c0.601,1.629,0.344,3.944,3.087,3.716c1.743-0.172,2.258-1.801,2.144-2.887
		C105.31,77.74,105.023,78.654,104.681,78.512L104.681,78.512z M132.629,77.482l3.802-0.143l1.114,2.629L132.629,77.482z
		 M108.738,77.711l-1.571-0.399c0.429-1.144-0.458-0.857,0.657-0.715C108.881,76.739,108.51,76.997,108.738,77.711L108.738,77.711z
		 M110.139,76.254l7.316,3.715c-0.658,0.515-0.115,0.743-1.687,0.086l-4.401-2.144C109.768,77.111,110.167,77.482,110.139,76.254
		L110.139,76.254z M102.651,76.082l0.229-1.286c2.029-0.543,2.801,0.943,3.772,2.115C105.595,77.511,104.194,76.883,102.651,76.082
		L102.651,76.082z M109.225,75.567l-0.086,0.915C108.139,75.825,108.139,75.567,109.225,75.567L109.225,75.567z M103.68,72.253
		c1.572-0.086,3.373,1.771,4.201,2.972c-1.114-0.371-1.429-0.457-2.486-1.114C103.823,73.139,104.052,73.195,103.68,72.253
		L103.68,72.253z M117.626,82.912c-0.8-1.485-0.229-1.714,1.086-3.801l-8.173-3.829c1.086-1.229,7.087-4.573,9.116-5.716
		c1.571-0.886,2.515-1.915,3.372-0.486c1,1.601-0.058,2.658-0.715,3.544c-1.257,1.658-0.914,1.772-1.6,3.687l-1.687,3.973
		C118.055,83.37,119.227,82.513,117.626,82.912L117.626,82.912z M130.657,69.909c4.716-1.058,5.259,1.028,6.83,3.029
		c0.657,0.857,0.915,1.2,1.658,1.972l3.601,11.231l-4.115-1.771c0.229-6.087-0.743-6.002-5.744-11.288L130.657,69.909z
		 M89.648,69.195c1,5.029-3.172,2.543-3.258,2.457l0.828-5.315C88.648,67.795,88.248,68.338,89.648,69.195L89.648,69.195z
		 M100.623,70.824l-1.144-1.887c0.972-0.028,2.8,0.657,2.829,2.4C101.193,71.51,101.852,71.31,100.623,70.824L100.623,70.824z
		 M89.963,72.596c0.943-2.115,4.344-4.4,6.23-5.916l1.914,2.572C95.821,70.566,93.479,72.253,89.963,72.596L89.963,72.596z
		 M123.37,68.223c1.972-0.457,2.458-0.113,3.458,1.544c3.115,5.287-0.429,12.003-3.258,11.432l-2.829-0.857
		c0,0,0.8-5.373,1.343-6.373C123.856,70.709,124.57,72.738,123.37,68.223L123.37,68.223z M125.685,67.223
		c3.029-0.057,1.258-0.4,5.087,4.287l4.259,5.059l-7.659,3.144c0.715-2.315,1.457-4.029,1.144-6.773c-0.144-1-0.515-2.2-0.943-3.058
		C126.8,68.338,126.342,68.48,125.685,67.223L125.685,67.223z M127.828,65.565l-0.429,1c-7.688,0.114-14.403,7.487-16.718,7.088
		c-0.857-1.544,0.715-3.259,1.515-5.059c1.144-2.63,1.343-2.458,4.087-3.601C124.514,61.508,125.485,64.451,127.828,65.565
		L127.828,65.565z M87.648,65.165l4.857-3.829l2.83,5.029l-4.459,3.858l-1.229-1.028C89.334,67.709,88.248,66.766,87.648,65.165
		L87.648,65.165z M113.482,65.508l1.343-4.286l3.772,2.229L113.482,65.508z M120.513,62.308c0.143,1.058,0.086,0.343-0.4,0.743
		c-1.457-0.172-1.429-0.2-2.4-1.258L120.513,62.308z M108.424,74.082l-4.086-2.857c1-2.373,3.058-4.744,4.458-6.831
		c3.058-4.572,1.886-5.229,3.2-8.545c5.087,3.515-0.371,11.632-2.457,16.204C108.738,73.796,109.024,72.51,108.424,74.082
		L108.424,74.082z M93.307,60.307c0.514,0.4,3.058,3.373,2.972,4.973C95.25,65.251,92.393,61.336,93.307,60.307L93.307,60.307z
		 M87.648,65.165c-0.943,0.257-0.973,0.515-2.229,1.315c0.485-3.516,0.972-4.859,2.829-7.202c0.943-1.229,0.629-1.001,1.887-1.915
		l1.629,3.315c-0.601,1.058-1,1.314-2.001,2.114C87.991,64.223,87.934,64.021,87.648,65.165L87.648,65.165z M90.706,56.049
		c0.857,0.543,0.457,0.114,1.028,0.886c0.743,1.058,0.629,1.829,0.771,3.2C91.105,58.82,90.791,57.764,90.706,56.049L90.706,56.049z
		 M110.91,56.82l-2.144-0.857c0-0.028-0.171-1,1.2-0.715C111.367,55.506,110.625,55.277,110.91,56.82L110.91,56.82z M89.248,51.848
		c1.086,1,1.629,2.973,1.029,4.145C89.648,54.934,88.42,52.648,89.248,51.848L89.248,51.848z M88.848,51.219
		c-0.656-1.314-0.514-2.086,0.172-2.972c0.115,0.371,0.314,1.028,0.344,1.457C89.534,52.591,89.648,50.504,88.848,51.219
		L88.848,51.219z M87.963,49.247l0.028,2.029l-1.486-0.257c0.458-0.687,0.2-0.258,0.743-0.887L87.963,49.247z M89.734,47.59
		c1.715-1.201,2.486-2.144,3.973-2.858l2.514,2.544c-1.742,1.572-3.972,3.172-6.229,3.801L89.734,47.59z M86.762,49.619
		c-2.057-0.029-3.229-0.344-3.743-2.229c-0.714-2.572,0.314-2.716,2.343-3.029L86.762,49.619z M87.533,48.762l-1.028-2.4
		c-1.058-2.744-0.343-2.201,0.229-2.544C87.762,44.36,87.905,47.447,87.533,48.762L87.533,48.762z M95.479,44.332l3.744,8.859
		c0.771-0.486,0.628,0.342,1.6-2.458l6.145,4.858c-1.887,0.371-6.201,5.029-7.373,6.944c7.001-4.687,0.172-3.487,10.545-5.287
		l-1.601,2.801c0.915,0.714,0.372,0.114,1.715,0.2c-1.686,3.829-4.115,7.115-6.858,10.202l-2.715-2.028
		c0.571-0.687,0.629-0.772,1.4-1.373c1.086-0.885,0.6-0.399,1.6-1.742l-5.115,3.4l-1.857-3c1.372,0.171-0.314-0.144,2.516,1.656
		l-0.829-3.715c-1.943,1.115-1.029,1.4-4.458-3.915l2.029-2.972c-0.801,0.428-1.83,1.486-2.572,2.2
		c-1.286-2.344-2.314-4.858-3.115-7.401l6.087-3.315l-4.515,6.544c1.285-0.571,0.857-0.114,2.4-2.143
		c0.6-0.801,1.199-1.344,1.8-2.258C98.594,46.675,96.393,45.675,95.479,44.332L95.479,44.332z M89.334,40.016
		c0.943,2.83,1.43,2.716,3.201,4.402l-0.4,0.457c-0.057,0.028-0.143,0.143-0.2,0.199c-0.942,0.943-1.144,1.172-2.257,1.744
		C88.905,42.245,88.791,43.617,89.334,40.016L89.334,40.016z M83.361,43.817c0.029-2.087,0.829-3.772,2.314-5.087l1.314,4.43
		L83.361,43.817z M87.619,39.988c0.43,1.485,0.601,1.143-0.285,2.199l-1.286-4.629L87.619,39.988z M24.721,48.875l-7.316,0.715
		c-0.914-1.572-1.344-2.973-1.771-4.772c3.629-5.43,1.629-2.63,2.143-7.431l38.865-0.114l-3.486,8.002
		c-3.572,6.63-13.374,2.2-23.604,2.829C28.292,48.189,25.663,48.247,24.721,48.875L24.721,48.875z M84.391,32.157
		c0.943,1.114,2.2,3.63,1.6,4.887c-0.171-0.143-0.199-0.058-0.514-0.601l-0.743-1.715c-0.058-0.143-0.601-1.399-0.629-1.457
		C83.79,31.414,83.848,33.072,84.391,32.157L84.391,32.157z M87.219,31.414c0.115,1.715,0.687,2.4,1.315,3.973
		c0.771,1.886,0.429,2.601,0.8,4.629c-2.229-2.086-5.059-8.973-4.486-13.146l1.657,3.658c0.028,0.085,0.257,0.429,0.314,0.485
		c0.028,0.058,0.171,0.286,0.2,0.229C87.02,31.156,87.134,31.357,87.219,31.414L87.219,31.414z M79.504,30.613l-1.314-2.314
		l2.543-0.199l2.086,3.657L79.504,30.613z M84.019,31.757c-1.372-0.628-2.028-2.657-2.429-3.915c1.4,0.029,0.914-0.314,1.715,1.371
		C83.848,30.357,83.961,30.471,84.019,31.757L84.019,31.757z M77.475,26.156c-0.229-1.287-0.429-1.458,0.057-2.772
		c1.258,0.515,1.915,1.915,2.372,3.058L77.475,26.156z M84.419,24.069c2.715,3.344,7.259,10.231,8.431,15.632
		c-2.744-3.057-3.087-2.886-4.43-6.201c-0.543-1.371-0.515-1.486-1.201-2.086c-0.085-1.344-1.571-5.315-2.828-6.516L84.419,24.069z
		 M84.391,24.898l-0.2,1.486c-1.229-0.457-2.515-0.658-2.258-1.857C83.79,24.213,83.189,24.127,84.391,24.898L84.391,24.898z
		 M80.732,22.098l1.2-1.629c0.972,1.657,0.457,0.886,1.229,1.2l1.258,2.4c-2.572-1.171-2.029,0.058-3.258-0.343
		c-0.343-0.429-0.114,0.2-0.429-0.857C80.703,22.783,80.703,22.24,80.732,22.098L80.732,22.098z M80.732,22.098
		c-1.115,0.086-3.201-1.601-2.658-3.486c1.715-0.457,1.744,0.285,2.887,1.143L80.732,22.098z M80.703,14.353
		c1.115-0.399,0.286-0.2,1.687-0.429l1.2,4.916h-2.829l-1.972-1.43c-0.029-0.143-0.172-0.113-0.258-0.199
		C80.047,14.867,80.304,15.21,80.703,14.353L80.703,14.353z M77.475,26.156l2.771,1.371l-2.914,0.114
		c0.257,0.772,0.342,1.229,0.8,1.915c1.229,1.914,0.085,0.743,1.372,1.057c1.229,2.801,2.571-0.742,5.029,5.116
		c1.457,3.486-0.943,3.144-1.715,7.145c-1.457,7.545,0.371,4.716,3.029,8.088c0.029,0.028,0.057,0.143,0.086,0.171
		c1.771,1.857,1.486-1.514,3.258,3.944c1.029,3.258-6.115,6.63-4.373,14.86c0.572,2.715,3.315,3.716,6.631,3.087l7.201-3.401
		l1.973,1.201l0.856,1.514c0.058,0.058,0.144,0.144,0.172,0.172l0.601,0.943l-1.887,2.029c1.543,3.115-1.344,1.857-0.914,5.43
		l5.772,2.857l2.058-5.229l1.457-0.829c1.4,0.058,5.544,2.029,6.888,2.887c1.057,0.686,0.571,0.257,1.057,1.429
		c0.772,1.857,0.572,2.087,3.63,2.286l-2.687,1.029l0.028,0.886c-0.171,0.114-0.914-1.229-0.114,2.687l3.258-4.287l2.229,0.801
		c0.229,2.258-0.286,2.314-0.486,4.086c0.486-0.371,0.029,0.286,0.629-0.657c0.572-0.914,0.429-2.058,0.543-3.543
		c2.229-0.229,1.857-0.572,2.058-1.115c0.114-0.028,0.258-0.2,0.314-0.114l2.115-0.285c1.657,0.114,6.744,0.828,7.344,2.457
		c-1.229,0.258-0.057-0.399-0.771,0.486c-1.086,1.314,0,1.657,0.571,3.144l0.801,6.401c-1.458-1.086-1,0.486-1.743-4.001
		c0.515,1.372,0.485,4.344,3.829,3.201l0.143-4.716l2.344,0.657c0.172,2.801,0,4.201-1.857,5.001
		c-0.629,0.258-0.371,0.086-0.972,0.314l-1.086,0.486c4.258-5.487,3.029-4.944,7.659-7.745l7.001,3.544
		c0,0.028-0.429,1.114-0.515,1.314c-0.514,0.372-0.657-1.143-0.485,0.771c0.143,1.772-0.028,0.029,0.743,1.001
		c0.686,0.914,0.629,1.2,1.058,2.629l7.029-0.258c-0.771-3.4-0.886-1.857,1.344-7.059c4.486-0.8,30.121,3.315,33.607,5.544
		c2.058,1.315,2.715,3.059,3.687,6.03c0.714,2.172,2,6.03,1.857,8.431c-0.372,5.201-2.086,5.145-11.774,8.202
		c-21.69,6.859-47.553,8.802-71.644,6.116c-19.434-2.172-32.664-4.259-51.354-8.374c-13.489-2.972-30.979-3.572-45.038-4.858
		c-5.059-0.485-4.545,0.429-6.916-3.258c-4.145-6.373-4.916-17.376-4.43-25.292c0.2-3.229,1.429-6.573,1.457-8.745l1.086-2.515
		c0.314-1,0.601-1.829,0.915-2.743c2.886-8.06,2.829-8.831,4.887-17.376c7.974-1.001,13.603-2.144,21.919-1.2
		c5.373,0.6,13.518,2.915,17.775-4.63c2.572-4.544,2.771-9.945,9.573-14.375c6.229-4.087,3.658-7.974,0.743-17.462l7.43,4.173
		c-0.485-1.028-0.199-0.771-1.771-1.972c-2.543-1.915-3.229-1.973-6.315-3.4l10.431,5.4c-0.028,0.771-0.172,0.715-0.514,1.572
		l-0.201,0.4l1.373,1.371C76.902,23.755,75.789,25.327,77.475,26.156L77.475,26.156z M60.014,35.473
		c-2.258,1.086-4.43,7.688-5.373,9.659c-4.372,9.231-14.402,3.544-24.262,4.201l-13.232,1.171c1.058-0.771,3.486-0.514,5.716-0.971
		l1.858-0.658c2.314,0.372,8.344-0.371,11.631-0.199c3.543,0.199,7.688,1.514,11.287,0.828c6.631-1.257,6.83-6.43,8.545-9.773
		l2.43-4.458c-3.086,2.086-1.829,1.714-9.145,1.8c-6.802,0.086-26.691-0.028-31.293-1.571c-1.115-4.601,0.429-5.458-0.972-14.86
		c-0.857-5.602,5.544-5.859,10.259-6.346c6.888-0.714,16.976-1.342,24.092-0.543c1.229,0.144,2.801,0.372,4.029,0.258
		c1.057-0.086,0.743,0.057,1.572-0.457l1.229-1.2c4.229,0.515,4.115,0.429,6.373,6.63c2.486,6.859,0.771,8.659,0.8,9.773
		l0.257,0.857l-2.801-16.289c1.601,0.229,2.801,4.458,3.344,6.087c0.371,1.114,0.801,2.515,1.029,3.829
		c0.371,2.201-0.229,1.887,0.742,4.43c0.43-7.973-2.857-10.373-2.429-12.859c1.2,0.629,0.8,0.514,1.972,3.686
		c2.059,5.431,3.287,10.203-1.371,13.118c-10.917,6.83-6.459,16.547-16.176,19.548c-5.029,1.571-12.23-1.458-21.805-0.629
		l-11.116,1.344c1.144-0.772,4.63-1.115,6.259-1.373c16.803-2.457,26.52,5.088,31.521-4.658c0.885-1.742,1.371-3.715,2.257-5.458
		C58.156,38.53,59.557,37.016,60.014,35.473L60.014,35.473z M91.706,4.293c-0.372,3.145,0.314,2.83-1.715,4.744
		c-1.2,1.115-1.771,1.829-3.687,2.601c2.601-5.287,2.543-4.401,4.229-7.345H91.706z M55.955,9.494l0.457-0.343
		c1.544-1.429,0.516-1.028,3.287-3.114l-0.172,1.057c0,0.029,0.029,0.258,0.029,0.2s0,0.171,0.057,0.229l3.001-0.229
		c1.571,0.343,6.516,5.372,6.915,5.63l-8.887-0.801c-3.744-0.771-2.115-0.057-4.002,1.001c-2.172,1.171-0.229-0.715-1.771-0.372
		L55.955,9.494z M80.732,11.123c2-0.886,1.657-1.486,2.429-3.686c0.515-1.516,1.63-2.344,2.286-3.802l4.688-0.085
		c-10.603,17.404-3.059,7.544,7.486,21.52c3.572,4.715,9.317,5.772,12.117,9.83c0.715,1.029,0.687,1.687,1.229,2.4
		c0.886,1.229,4.344,3.029,5.601,5.201c-9.002-7.115-4.43-4.115-8.888-4.771c-2.972-0.458-18.261-16.404-23.348-18.49l-2.4-5.974
		l-1.229,1.086c-1.057,0.286-1.828,0.743-2.371,1.687c-0.629,1.143-0.143,0.486-0.486,1.515c-0.285,0.771,0.058,0.399-0.543,1.171
		c-4.258-3.4-4.887-3.686-8.744-7.602l6.486,1.629c-0.886-1.457-3.086-2.229-4.915-2.429c-3.801-0.399-2.801-0.657-5.315-2.372
		c-0.914-0.629-3.915-2.572-5.115-2.4c-1.4,0.199-3.486,2.486-3.744,3.943c-1.199,0.915-1.429,2.372-1.886,3.887
		c-6.544-0.4-30.464-1.285-35.608,2.458c-2.199,1.601-2.199,2.858-1.656,6.03c1.199,7.201-0.372,10.773,0.371,12.604
		c0.943,2.172,0.057,0.57,1,1.028c-0.029,2.743-0.172-0.429-0.972,2.229c-0.372,1.257,0,1.514,0,2.657l-2.343,3.858
		c-0.258,1.515,3.572,4.4,0,16.347c-1.001,3.344-4.887,11.803-4.773,14.632c-1,1.172-2.314,6.974-2.629,8.402
		c-0.657,2.829-1.344,5.973-1.801,9.174l1.83,19.062l-3.201,0.972c-0.771,4.201,0.6,19.977-1.115,22.12v2.601
		c1.801,1.543,5.888,1.486,8.889,1.943c2.715,0.4,2.572,0,4.687-0.286c3.144-0.429,1.657,2.601,9.03,1.572
		c3.801-0.515,0.172,0.229,3.744,0.571l9.802-1.629l0.857,2.486l8.373-0.657l1.2,1.886c1.572-0.057,5.887,0.172,7.002-0.399
		c1.143-0.601,0.8-1.172,1.6-2.058c1.029-1.144,0.658-0.658,2.602-1.029l7.688-7.287l31.521,3.943l1.515,5.487l5.63,1.343
		c1.515-0.942,1.457-1.457,2.543-3.715c3.287,4.372-2.571,4.087,7.802,4.544l2.001-3.887c2.258-0.028,1.743,0.058,3.544,4.602
		l4.715,0.543h1.771c0.429-1.144,0.029-0.486,0.572-0.943c1.886,0.286,7.287,1.571,8.916,0.114c-2.801-0.343-5.287,0.2-8.088-0.486
		c-1.886-0.457-0.771-0.313-2.286,0.172c-1.543,0.486-4.715,0.657-5.658-1.058l-1.258-3.629h-2.829l-2.2,4.029l-5.029-0.229
		l-1.629-5.373l-2.687,4.516l-5.201-1.258l-1.572-5.315l-32.721-4.058c-0.457,3.144-2.287,5.315-4.459,6.487
		c-4.4,2.343-1.686-1.601-6.943,4.115l-5.945,0.199l-1.6-2c-5.201,1.915-4.287,1.715-9.288-1.886
		c-4.144,0.914-3.772,2.343-9.431,1.886c-0.571-0.058-0.543,0-1.143-0.172c-2.687-0.742-0.229-1.057-3.029-0.6
		c-1.601,0.257-3.744,0.343-5.459,0.028c-1.4-0.286-0.571-0.143-1.486-0.829c-0.57-0.429-0.113-0.171-0.771-0.543
		c-0.143-0.085-0.942-0.457-1.057-0.485c-1.43-0.343-0.943,1.058-4.059,0.886l-9.516-1.972c-0.543-1.857,0.571-2.058,0.686-4.572
		l0.028-17.233h2.515l-2.457-1.229l0.571-0.801c4.229-1.8,20.404,0.286,25.663,0.829c8.545,0.857,17.032,1.343,25.634,2.515
		c8.06,1.086,15.433,3.287,23.349,4.63c34.607,5.888,65.729,9.945,100.536,1.286c7.201-1.771,14.146-4.173,21.204-6.373
		l-5.344,2.772c2.372-0.601,4.43-2.058,6.688-2.201c-0.058-0.571,0.742-1.515-3.287-1.343c-1.715-16.261,0.058-18.576-11.917-21.233
		c-4.715-1.058-10.116-2.001-14.86-2.572c-2.543-0.314-5.087-0.687-7.658-0.915c-6.345-0.6-4.458,0.601-6.573,1.915
		c0.314-3.115,1.258-5.772-2.114-7.83c-0.857-0.543-3.344-1.029-4.688-1.4c-0.657-0.2-1.686-0.372-2.286-0.601
		c-1.257-0.429-0.657-0.429-1.771-1c-0.8-2.058-3.458-1.887-4.973-2.829c-0.886-0.543-1.172-2.315-3.2-4.459
		c-4.259-4.458-2.401-6.03-9.717-5.144l-2.029-3.772c-1.028-3.058-4.629-2.343-7.315-3.258c-0.515-0.743,1.143-0.086-1.144-0.915
		c-0.686-0.257-0.6-0.113-1.2-0.113c-1.372,0.027-1.429,0.57-2.743-0.43c-1.515-1.143-0.314-3.172-2.315-4.943
		c-2.371-2.086-5.058-0.887-5.258-0.887c-0.914,0.029-2.458-1.8-3.973-2.887c-6.601-4.801-2-6.086-6.544-8.115
		c-1.229-0.543-8.373,0.771-7.487-6.287l8.802,2.429c0-2.2,0.286-2.601-0.657-3.743c-0.714-0.857,0.058-0.058-0.829-0.744
		l0.801,4.002c-0.515,0.742-2.915,1.229-3.973,0.457c-0.199-0.143-2.515-5.945-2.943-6.83c-0.801-1.629-6.029-10.717-7.888-11.632
		l-0.942-1.886l6.458,4.486l0.372-0.086c0.6-0.057,0.399-0.172,1.057,0.258l5.173,4.201c4.601,3.486,4.001,5.43,10.146,8.944
		c2.371,1.343,2.601,0.571,4.829,1.2c3.258,0.943,3.43,4.63,7.316,4.688l-3.115-4.344c-2.029-1.715-2.2-1.258-3.572-3.744
		c-1.829-3.315-4.744-4.544-8.173-6.859c-7.373-4.943-3.029-4.458-11.945-10.803c-1.943-1.371-2.944-1.486-4.83-2.371l-0.4-2.658
		c4.201-2.744,8.659-5.315,6.173-8.402c-0.543-1.371,0.485-0.199-0.972-1.285h-5.344c-4.544,5.771-1.771,3.743-4.087,7.087
		C80.618,11.123,81.075,10.095,80.732,11.123L80.732,11.123z"/>
	<path fill-rule="evenodd" clip-rule="evenodd" fill="#93A3AC" d="M60.014,35.473c1.172-2.943,5.144-4.545,6.201-5.573l1.715-2.4
		c-3.715,4.458-3.4,3.887-6.916,7.373C60.328,35.529,60.785,35.187,60.014,35.473L60.014,35.473z M18.176,35.501
		c4.602,1.543,24.491,1.657,31.293,1.571c7.315-0.086,6.059,0.286,9.145-1.8l-2.43,4.458c-1.715,3.344-1.914,8.517-8.545,9.773
		c-3.6,0.686-7.744-0.629-11.287-0.828c-3.287-0.172-9.316,0.571-11.631,0.199l-1.858,0.658c-2.229,0.457-4.658,0.199-5.716,0.971
		l13.232-1.171c9.859-0.657,19.89,5.03,24.262-4.201c0.943-1.972,3.115-8.573,5.373-9.659c-0.457,1.543-1.857,3.058-2.772,4.915
		c-0.886,1.743-1.372,3.716-2.257,5.458c-5.002,9.746-14.719,2.201-31.521,4.658c-1.629,0.258-5.115,0.601-6.259,1.373l11.116-1.344
		c9.574-0.829,16.775,2.2,21.805,0.629c9.717-3.001,5.259-12.718,16.176-19.548c4.658-2.915,3.43-7.688,1.371-13.118
		C66.5,15.324,66.9,15.439,65.7,14.811c-0.429,2.486,2.858,4.887,2.429,12.859c-0.971-2.543-0.371-2.229-0.742-4.43
		c-0.229-1.314-0.658-2.715-1.029-3.829c-0.543-1.629-1.743-5.858-3.344-6.087l2.801,16.289l-0.257-0.857
		c-0.028-1.114,1.687-2.914-0.8-9.773c-2.258-6.201-2.144-6.115-6.373-6.63l-1.229,1.2c-0.829,0.514-0.516,0.371-1.572,0.457
		c-1.229,0.114-2.801-0.114-4.029-0.258c-7.116-0.799-17.204-0.171-24.092,0.543c-4.715,0.486-11.116,0.744-10.259,6.346
		C18.604,30.043,17.061,30.9,18.176,35.501L18.176,35.501z"/>
	<path fill-rule="evenodd" clip-rule="evenodd" fill="#93A3AC" d="M24.721,48.875c0.942-0.628,3.571-0.686,4.829-0.771
		c10.23-0.629,20.032,3.801,23.604-2.829l3.486-8.002l-38.865,0.114c-0.514,4.801,1.486,2.001-2.143,7.431
		c0.428,1.8,0.857,3.2,1.771,4.772L24.721,48.875z"/>
	<path fill-rule="evenodd" clip-rule="evenodd" fill="#EAEC8C" d="M80.732,11.123c-0.543,1.314-0.371,0.115-1.344,2.373
		c-0.028,0.057-0.113,0.371-0.113,0.313c-0.029-0.058-0.115,0.2-0.172,0.314c-2.029-0.114-3.001,0.144-4.059-1.372l-6.486-1.629
		c3.857,3.916,4.486,4.201,8.744,7.602c0.601-0.771,0.258-0.399,0.543-1.171c0.344-1.028-0.143-0.372,0.486-1.515
		c0.543-0.943,1.314-1.4,2.371-1.687l1.229-1.086l2.4,5.974c5.087,2.086,20.376,18.032,23.348,18.49
		c4.458,0.656-0.114-2.344,8.888,4.771c-1.257-2.172-4.715-3.972-5.601-5.201c-0.543-0.714-0.515-1.371-1.229-2.4
		c-2.8-4.058-8.545-5.115-12.117-9.83c-10.545-13.976-18.089-4.115-7.486-21.52l-4.688,0.085c-0.656,1.458-1.771,2.286-2.286,3.802
		C82.39,9.637,82.732,10.237,80.732,11.123L80.732,11.123z"/>
	<path fill-rule="evenodd" clip-rule="evenodd" fill="#EAEC8C" d="M95.479,44.332c0.914,1.343,3.115,2.343,0.571,6.059
		c-0.601,0.914-1.2,1.457-1.8,2.258c-1.543,2.028-1.115,1.571-2.4,2.143l4.515-6.544l-6.087,3.315
		c0.801,2.543,1.829,5.058,3.115,7.401c0.742-0.714,1.771-1.772,2.572-2.2l-2.029,2.972c3.429,5.315,2.515,5.03,4.458,3.915
		l0.829,3.715c-2.83-1.8-1.144-1.485-2.516-1.656l1.857,3l5.115-3.4c-1,1.343-0.514,0.857-1.6,1.742
		c-0.771,0.601-0.829,0.687-1.4,1.373l2.715,2.028c2.743-3.087,5.173-6.373,6.858-10.202c-1.343-0.086-0.8,0.514-1.715-0.2
		l1.601-2.801c-10.373,1.8-3.544,0.601-10.545,5.287c1.172-1.915,5.486-6.573,7.373-6.944l-6.145-4.858
		c-0.972,2.8-0.828,1.972-1.6,2.458L95.479,44.332z"/>
	<path fill-rule="evenodd" clip-rule="evenodd" fill="#EAEC8C" d="M127.828,65.565c-2.343-1.114-3.314-4.058-11.545-0.571
		c-2.744,1.143-2.943,0.971-4.087,3.601c-0.8,1.8-2.372,3.515-1.515,5.059c2.314,0.399,9.03-6.974,16.718-7.088L127.828,65.565z"/>
	<path fill-rule="evenodd" clip-rule="evenodd" fill="#FFFFFF" d="M117.626,82.912c1.601-0.399,0.429,0.458,1.4-2.629l1.687-3.973
		c0.686-1.914,0.343-2.028,1.6-3.687c0.657-0.886,1.715-1.943,0.715-3.544c-0.857-1.429-1.801-0.399-3.372,0.486
		c-2.029,1.143-8.03,4.486-9.116,5.716l8.173,3.829C117.397,81.198,116.826,81.427,117.626,82.912L117.626,82.912z"/>
	<path fill-rule="evenodd" clip-rule="evenodd" fill="#EAEC8C" d="M108.424,74.082c0.601-1.572,0.314-0.286,1.115-2.029
		c2.086-4.572,7.544-12.689,2.457-16.204c-1.314,3.315-0.143,3.973-3.2,8.545c-1.4,2.087-3.458,4.458-4.458,6.831L108.424,74.082z"
		/>
	<path fill-rule="evenodd" clip-rule="evenodd" fill="#EAEC8C" d="M123.57,81.198c2.829,0.571,6.373-6.145,3.258-11.432
		c-1-1.657-1.486-2.001-3.458-1.544c1.2,4.516,0.486,2.486-1.286,5.745c-0.543,1-1.343,6.373-1.343,6.373L123.57,81.198z"/>
	<path fill-rule="evenodd" clip-rule="evenodd" fill="#191919" d="M139.174,144.699c3.344,0.172,6.229,0.914,10.488,0.257
		c2.058-0.314,1.028,0.058,2.114-1.429c6.573,1.429,2.658,0.657,8.945,0.657l1.2-1.715c3.657-0.028,15.089,0.372,18.461-1.629
		c0.829-0.485,0.285-0.171,0.857-0.828c1.314-1.458,3.172-0.715,7.059-1.4c3.4-0.572,3.829-1.144,4.43-2.801
		c3.458-0.657,10.717-1.715,13.088-4.087l-2.028-13.86c-0.915-2.201-0.086-0.543-0.886-1.115c-0.601,1.001-5.002,2.258-7.259,3.201
		c-8.745,3.744-14.232,4.544-22.605,6.602l15.003-3.201c5.116-1.629,10.346-4.344,15.232-5.458l0.8,7.345
		c0.258,2,1.229,4.944,1.2,6.401c-5.744,2.344-7.344,3.801-12.488,3.544l-0.629,0.771c-2.286,2.915-7.772,2.801-11.145,2.801
		c-1.629,2.086-0.915,1.743-3.63,2.344c-5.83,1.286-9.916,1.257-15.86,0.714l-1.114,1.772c-5.773,0.257-5.573,0.828-8.631-1.029
		l-1.144,1.715l-11.174-0.371L139.174,144.699z"/>
	<path fill-rule="evenodd" clip-rule="evenodd" fill="#EAEC8C" d="M137.487,72.938c-1.571-2.001-2.114-4.087-6.83-3.029l2.229,3.173
		c5.001,5.286,5.973,5.201,5.744,11.288l4.115,1.771l-3.601-11.231C138.402,74.139,138.145,73.796,137.487,72.938L137.487,72.938z"
		/>
	<path fill-rule="evenodd" clip-rule="evenodd" fill="#FFFFFF" d="M55.955,9.494l-1.086,3.258c1.543-0.343-0.4,1.543,1.771,0.372
		c1.887-1.058,0.258-1.772,4.002-1.001l8.887,0.801c-0.399-0.258-5.344-5.287-6.915-5.63l-3.001,0.229
		c-0.057-0.058-0.057-0.286-0.057-0.229s-0.029-0.171-0.029-0.2l0.172-1.057c-2.771,2.086-1.743,1.686-3.287,3.114L55.955,9.494z"/>
	<path fill-rule="evenodd" clip-rule="evenodd" fill="#FFFFFF" d="M6.573,90.8c0.114,2.458-2.572,11.918,0.601,19.063
		c1.143,2.515,1.943,1.857,4.943,1.972C7.573,102.774,7.745,101.803,6.573,90.8L6.573,90.8z"/>
	<path fill-rule="evenodd" clip-rule="evenodd" fill="#FFFFFF" d="M125.685,67.223c0.657,1.258,1.115,1.115,1.887,2.658
		c0.429,0.857,0.8,2.058,0.943,3.058c0.313,2.744-0.429,4.458-1.144,6.773l7.659-3.144l-4.259-5.059
		C126.942,66.822,128.714,67.166,125.685,67.223L125.685,67.223z"/>
	<path fill-rule="evenodd" clip-rule="evenodd" fill="#FFFFFF" d="M87.648,65.165c0.6,1.601,1.686,2.544,2,4.03l1.229,1.028
		l4.459-3.858l-2.83-5.029L87.648,65.165z"/>
	<path fill-rule="evenodd" clip-rule="evenodd" fill="#EAEC8C" d="M157.12,94.229c0.715-1.058,1.943-4.544,1.258-6.001
		c-0.715-1.486-2.458-3.344-4.486-3.516l-0.572,7.202L157.12,94.229z"/>
	<path fill-rule="evenodd" clip-rule="evenodd" fill="#EAEC8C" d="M143.574,86.514c2.315,0.6,0.114,0.629,2.544,0.629l5.059-0.687
		c1.657-0.257,1.6,0.114,1.828-1.058c0.515-2.686-6.887-1.857-8.802-1.457L143.574,86.514z"/>
	<path fill-rule="evenodd" clip-rule="evenodd" fill="#FFFFFF" d="M137.316,83.884c-0.915-0.771-0.743-0.028-0.972-0.828
		c-0.029-0.172-0.229-0.172-0.314-0.258l1.829-0.2v-1.714c-5.287-2.801-5.459-3.772-9.26-0.743c1.658,1.086,5.345,1.686,6.487,2.229
		c0.943,0.429,0.343,0.429,0.086,1.058l1.172,1.572c-0.029-0.801-0.229-0.829-0.771-1.372L137.316,83.884z"/>
	<path fill-rule="evenodd" clip-rule="evenodd" fill="#EAEC8C" d="M87.648,65.165c0.285-1.144,0.343-0.942,2.114-2.372
		c1.001-0.8,1.4-1.057,2.001-2.114l-1.629-3.315c-1.258,0.914-0.943,0.686-1.887,1.915c-1.857,2.343-2.344,3.687-2.829,7.202
		C86.676,65.68,86.705,65.422,87.648,65.165L87.648,65.165z"/>
	<path fill-rule="evenodd" clip-rule="evenodd" fill="#FFFFFF" d="M117.654,86.228l-0.028-0.886
		c-2.801,3.744,1.258,6.115,4.401,4.43c0.057-0.028,0.229-0.028,0.257-0.143c0.028-0.115,0.172-0.086,0.257-0.115
		c0.2-1.771,0.715-1.828,0.486-4.086l-2.229-0.801l-3.258,4.287C116.74,84.999,117.483,86.342,117.654,86.228L117.654,86.228z"/>
	<path fill-rule="evenodd" clip-rule="evenodd" fill="#FFFFFF" d="M89.734,47.59l0.257,3.486c2.258-0.629,4.487-2.229,6.229-3.801
		l-2.514-2.544C92.221,45.446,91.449,46.389,89.734,47.59L89.734,47.59z"/>
	<path fill-rule="evenodd" clip-rule="evenodd" fill="#EAEC8C" d="M84.391,24.898c1.257,1.2,2.743,5.172,2.828,6.516
		c0.687,0.6,0.658,0.715,1.201,2.086c1.343,3.315,1.686,3.145,4.43,6.201c-1.172-5.4-5.716-12.288-8.431-15.632L84.391,24.898z"/>
	<path fill-rule="evenodd" clip-rule="evenodd" fill="#FFFFFF" d="M89.963,72.596c3.516-0.343,5.858-2.029,8.145-3.344l-1.914-2.572
		C94.307,68.195,90.906,70.48,89.963,72.596L89.963,72.596z"/>
	<path fill-rule="evenodd" clip-rule="evenodd" fill="#FFFFFF" d="M7.888,84.57c-1.571,7.059,0.114,18.833,3.829,25.234
		c0.973,1.658,0.629,1.658,2.201,2.144C8.288,101.86,7.773,97.202,7.888,84.57L7.888,84.57z"/>
	<path fill-rule="evenodd" clip-rule="evenodd" fill="#FFFFFF" d="M89.334,40.016c-0.371-2.028-0.028-2.743-0.8-4.629
		c-0.629-1.572-1.2-2.258-1.315-3.973c-0.085-0.057-0.199-0.258-0.199-0.172c-0.029,0.058-0.172-0.171-0.2-0.229
		c-0.058-0.057-0.286-0.4-0.314-0.485l-1.657-3.658C84.275,31.043,87.105,37.93,89.334,40.016L89.334,40.016z"/>
	<path fill-rule="evenodd" clip-rule="evenodd" fill="#FFFFFF" d="M146.489,87.742c0.743,0.886,5.201,3.486,6.316,3.601l0.229-4.544
		L146.489,87.742z"/>
	<path fill-rule="evenodd" clip-rule="evenodd" fill="#FFFFFF" d="M80.703,14.353c-0.399,0.857-0.656,0.515-2.172,2.858
		c0.086,0.086,0.229,0.057,0.258,0.199l1.972,1.43h2.829l-1.2-4.916C80.989,14.152,81.818,13.953,80.703,14.353L80.703,14.353z"/>
	<path fill-rule="evenodd" clip-rule="evenodd" fill="#FFFFFF" d="M91.706,4.293h-1.172c-1.687,2.943-1.629,2.058-4.229,7.345
		c1.915-0.771,2.486-1.485,3.687-2.601C92.021,7.123,91.334,7.438,91.706,4.293L91.706,4.293z"/>
	<path fill-rule="evenodd" clip-rule="evenodd" fill="#FFFFFF" d="M86.762,49.619l-1.4-5.259c-2.028,0.313-3.057,0.457-2.343,3.029
		C83.533,49.275,84.705,49.59,86.762,49.619L86.762,49.619z"/>
	<path fill-rule="evenodd" clip-rule="evenodd" fill="#FFFFFF" d="M89.648,69.195c-1.4-0.857-1-1.4-2.43-2.858l-0.828,5.315
		C86.477,71.738,90.648,74.225,89.648,69.195L89.648,69.195z"/>
	<path fill-rule="evenodd" clip-rule="evenodd" fill="#FFFFFF" d="M104.681,78.512c-2.001-0.286-1.63-0.4-3.344,0.257
		c-0.372,2.658,0.429,3.572,3.029,3.029C105.109,80.083,104.995,80.54,104.681,78.512L104.681,78.512z"/>
	<path fill-rule="evenodd" clip-rule="evenodd" fill="#FFFFFF" d="M147.747,81.77c-1.687-0.686-2.515-1.772-4.944-1.972l0.657,3.515
		l4.716-0.485C147.146,81.684,148.062,82.884,147.747,81.77L147.747,81.77z"/>
	<path fill-rule="evenodd" clip-rule="evenodd" fill="#FFFFFF" d="M138.517,91.486c-2.572-0.486-3.458,0.429-3.058,3.029
		C138.545,95.688,139.831,94.572,138.517,91.486L138.517,91.486z"/>
	<path fill-rule="evenodd" clip-rule="evenodd" fill="#FFFFFF" d="M83.361,43.817l3.629-0.657l-1.314-4.43
		C84.19,40.045,83.391,41.73,83.361,43.817L83.361,43.817z"/>
	<path fill-rule="evenodd" clip-rule="evenodd" fill="#FFFFFF" d="M89.334,40.016c-0.543,3.602-0.429,2.229,0.344,6.803
		c1.113-0.572,1.314-0.801,2.257-1.744c0.058-0.057,0.144-0.171,0.2-0.199l0.4-0.457C90.764,42.731,90.277,42.846,89.334,40.016
		L89.334,40.016z"/>
	<path fill-rule="evenodd" clip-rule="evenodd" fill="#FFFFFF" d="M117.654,86.228c0.429,2.544,0.4,3.144,3.344,2.458l-0.143-3.201
		c-1.543-1.086-2.943,0.629-2.973,0.543C117.826,85.971,117.712,86.171,117.654,86.228L117.654,86.228z"/>
	<polygon fill-rule="evenodd" clip-rule="evenodd" fill="#FFFFFF" points="118.598,63.451 114.825,61.222 113.482,65.508 	"/>
	<polygon fill-rule="evenodd" clip-rule="evenodd" fill="#FFFFFF" points="79.504,30.613 82.818,31.757 80.732,28.1 78.189,28.299 	
		"/>
	<path fill-rule="evenodd" clip-rule="evenodd" fill="#FFFFFF" d="M80.732,22.098l0.229-2.344c-1.143-0.857-1.172-1.6-2.887-1.143
		C77.531,20.497,79.617,22.184,80.732,22.098L80.732,22.098z"/>
	<path fill-rule="evenodd" clip-rule="evenodd" fill="#191919" d="M122.541,89.514c-0.085,0.029-0.229,0-0.257,0.115
		c-0.028,0.114-0.2,0.114-0.257,0.143c-3.144,1.686-7.202-0.686-4.401-4.43c0.571-1.829,0.286-0.343-0.515-0.943
		c-0.514,1.515-1.2,2.258-1.057,4.458C117.626,90.2,120.912,92.829,122.541,89.514L122.541,89.514z"/>
	<path fill-rule="evenodd" clip-rule="evenodd" fill="#FFFFFF" d="M139.488,88.399c-2.601-1.571-2.572,0.114-2.801,0.687
		c0.343,0.343-0.086,0.257,0.972,0.686c0.057,0.028,1.286,0.371,1.314,0.371c1.657,0.372,1.058,0.629,2.114-0.257L139.488,88.399z"
		/>
	<path fill-rule="evenodd" clip-rule="evenodd" fill="#FFFFFF" d="M80.732,22.098c-0.029,0.143-0.029,0.686,0,0.771
		c0.314,1.058,0.086,0.429,0.429,0.857c1.229,0.4,0.686-0.828,3.258,0.343l-1.258-2.4c-0.771-0.314-0.257,0.457-1.229-1.2
		L80.732,22.098z"/>
	<path fill-rule="evenodd" clip-rule="evenodd" fill="#FFFFFF" d="M117.455,79.969l-7.316-3.715
		c0.028,1.229-0.371,0.857,1.229,1.657l4.401,2.144C117.34,80.712,116.797,80.483,117.455,79.969L117.455,79.969z"/>
	<path fill-rule="evenodd" clip-rule="evenodd" fill="#FFFFFF" d="M106.652,76.911c-0.972-1.172-1.743-2.658-3.772-2.115
		l-0.229,1.286C104.194,76.883,105.595,77.511,106.652,76.911L106.652,76.911z"/>
	<path fill-rule="evenodd" clip-rule="evenodd" fill="#FFFFFF" d="M104.681,78.512c0.343,0.143,0.629-0.771,0.886,1.229
		c0.114,1.086-0.4,2.715-2.144,2.887c-2.743,0.229-2.486-2.087-3.087-3.716l-0.229,2.887l4.658,1.515l1.772-5.029l-2.2-0.658
		L104.681,78.512z"/>
	<path fill-rule="evenodd" clip-rule="evenodd" fill="#FFFFFF" d="M96.278,65.279c0.086-1.6-2.458-4.572-2.972-4.973
		C92.393,61.336,95.25,65.251,96.278,65.279L96.278,65.279z"/>
	<polygon fill-rule="evenodd" clip-rule="evenodd" fill="#FFFFFF" points="137.545,79.969 136.431,77.34 132.629,77.482 	"/>
	<path fill-rule="evenodd" clip-rule="evenodd" fill="#FFFFFF" d="M118.94,83.227l4.287,0.572c-1.943-2.058-0.972-1.43-3.687-2.229
		L118.94,83.227z"/>
	<path fill-rule="evenodd" clip-rule="evenodd" fill="#FFFFFF" d="M77.475,26.156l2.429,0.285c-0.457-1.143-1.114-2.543-2.372-3.058
		C77.046,24.698,77.246,24.869,77.475,26.156L77.475,26.156z"/>
	<path fill-rule="evenodd" clip-rule="evenodd" fill="#FFFFFF" d="M86.733,43.817c-0.571,0.343-1.286-0.2-0.229,2.544l1.028,2.4
		C87.905,47.447,87.762,44.36,86.733,43.817L86.733,43.817z"/>
	<path fill-rule="evenodd" clip-rule="evenodd" fill="#FFFFFF" d="M125.771,84.198l0.829-3.258
		c-1.314,0.743-0.829,0.571-1.687,1.572c-0.743,0.857-0.914,0.686-1.229,2.144L125.771,84.198z"/>
	<path fill-rule="evenodd" clip-rule="evenodd" fill="#FFFFFF" d="M85.99,37.044c0.601-1.257-0.656-3.772-1.6-4.887
		c-0.543,0.915-0.601-0.743-0.286,1.114c0.028,0.058,0.571,1.314,0.629,1.457l0.743,1.715C85.791,36.986,85.819,36.901,85.99,37.044
		L85.99,37.044z"/>
	<path fill-rule="evenodd" clip-rule="evenodd" fill="#FFFFFF" d="M84.019,31.757c-0.058-1.286-0.171-1.399-0.714-2.544
		c-0.801-1.686-0.314-1.342-1.715-1.371C81.99,29.1,82.646,31.129,84.019,31.757L84.019,31.757z"/>
	<path fill-rule="evenodd" clip-rule="evenodd" fill="#FFFFFF" d="M157.035,96.802l-3.658,0.086c0.8,1.715,1.629,1.571,3.258,1.114
		L157.035,96.802z"/>
	<path fill-rule="evenodd" clip-rule="evenodd" fill="#FFFFFF" d="M103.68,72.253c0.372,0.942,0.144,0.886,1.715,1.857
		c1.058,0.657,1.372,0.743,2.486,1.114C107.053,74.024,105.252,72.167,103.68,72.253L103.68,72.253z"/>
	<path fill-rule="evenodd" clip-rule="evenodd" fill="#191919" d="M75.045,12.752c1.058,1.516,2.029,1.258,4.059,1.372
		c0.057-0.114,0.143-0.372,0.172-0.314c0,0.058,0.085-0.257,0.113-0.313c0.973-2.258,0.801-1.059,1.344-2.373
		c-1.771,0.601-1,0.629-2.486,2.715L75.045,12.752z"/>
	<path fill-rule="evenodd" clip-rule="evenodd" fill="#FFFFFF" d="M152.462,92.515l-7.602-4.229c0.144,0.286-0.457,0.257,1.2,1.2
		C147.947,90.515,151.119,92.629,152.462,92.515L152.462,92.515z"/>
	<path fill-rule="evenodd" clip-rule="evenodd" fill="#FFFFFF" d="M135.544,86.256c-0.628,1.572-1.229,1.715,0,2.858
		c1.658-1.001,0.458-1.629,1.144-3.201C135.716,86.6,136.459,86.056,135.544,86.256L135.544,86.256z"/>
	<path fill-rule="evenodd" clip-rule="evenodd" fill="#FFFFFF" d="M84.391,24.898c-1.201-0.771-0.601-0.686-2.458-0.371
		c-0.257,1.199,1.028,1.4,2.258,1.857L84.391,24.898z"/>
	<path fill-rule="evenodd" clip-rule="evenodd" fill="#FFFFFF" d="M100.623,70.824c1.229,0.485,0.57,0.686,1.686,0.514
		c-0.029-1.743-1.857-2.429-2.829-2.4L100.623,70.824z"/>
	<path fill-rule="evenodd" clip-rule="evenodd" fill="#FFFFFF" d="M91.734,56.935c-0.571-0.771-0.171-0.343-1.028-0.886
		c0.085,1.715,0.399,2.771,1.8,4.086C92.363,58.764,92.478,57.992,91.734,56.935L91.734,56.935z"/>
	<path fill-rule="evenodd" clip-rule="evenodd" fill="#FFFFFF" d="M90.277,55.992c0.6-1.172,0.057-3.145-1.029-4.145
		C88.42,52.648,89.648,54.934,90.277,55.992L90.277,55.992z"/>
	<path fill-rule="evenodd" clip-rule="evenodd" fill="#191919" d="M60.014,35.473c0.771-0.286,0.314,0.057,1-0.601
		c3.516-3.486,3.201-2.915,6.916-7.373l-1.715,2.4C65.157,30.928,61.186,32.529,60.014,35.473L60.014,35.473z"/>
	<path fill-rule="evenodd" clip-rule="evenodd" fill="#FFFFFF" d="M141.46,90.829c1.601-0.2,2.771-0.486,1.801-2.115
		c-1.087,0.257-0.344-0.485-1.229,0.743C141.517,90.143,141.717,90.057,141.46,90.829L141.46,90.829z"/>
	<path fill-rule="evenodd" clip-rule="evenodd" fill="#FFFFFF" d="M87.334,42.188c0.886-1.057,0.715-0.714,0.285-2.199l-1.571-2.43
		L87.334,42.188z"/>
	<path fill-rule="evenodd" clip-rule="evenodd" fill="#FFFFFF" d="M133.172,82.655l-5.973-1.687c0.4,0.687-1.229,0.372,0.829,1.001
		c0.114,0.028,1.486,0.143,1.801,0.171C131.115,82.313,131.857,82.541,133.172,82.655L133.172,82.655z"/>
	<path fill-rule="evenodd" clip-rule="evenodd" fill="#FFFFFF" d="M110.91,56.82c-0.285-1.543,0.457-1.314-0.943-1.572
		c-1.371-0.285-1.2,0.687-1.2,0.715L110.91,56.82z"/>
	<path fill-rule="evenodd" clip-rule="evenodd" fill="#DCDBDB" d="M88.848,51.219c0.801-0.715,0.687,1.372,0.516-1.515
		c-0.029-0.429-0.229-1.086-0.344-1.457C88.334,49.133,88.191,49.904,88.848,51.219L88.848,51.219z"/>
	<path fill-rule="evenodd" clip-rule="evenodd" fill="#FFFFFF" d="M120.513,62.308l-2.801-0.515c0.972,1.058,0.943,1.086,2.4,1.258
		C120.599,62.65,120.655,63.365,120.513,62.308L120.513,62.308z"/>
	<path fill-rule="evenodd" clip-rule="evenodd" fill="#FFFFFF" d="M150.947,94.344c0.286,1.715-0.485,0.915,1.229,1.344l0.057-0.972
		c0-0.058-0.114-0.715-0.143-0.972L150.947,94.344z"/>
	<path fill-rule="evenodd" clip-rule="evenodd" fill="#FFFFFF" d="M142.26,86.971l-4.229-1.601
		C138.631,86.056,141.117,87.628,142.26,86.971L142.26,86.971z"/>
	<path fill-rule="evenodd" clip-rule="evenodd" fill="#DCDBDB" d="M87.248,50.133c-0.543,0.629-0.285,0.2-0.743,0.887l1.486,0.257
		l-0.028-2.029L87.248,50.133z"/>
	<path fill-rule="evenodd" clip-rule="evenodd" fill="#DCDBDB" d="M153.205,92.915c0.486,1.229,0.372,1.258,2.229,1.314
		C154.577,93.572,154.405,93.172,153.205,92.915L153.205,92.915z"/>
	<path fill-rule="evenodd" clip-rule="evenodd" fill="#FFFFFF" d="M108.738,77.711c-0.229-0.714,0.143-0.972-0.914-1.114
		c-1.115-0.143-0.229-0.429-0.657,0.715L108.738,77.711z"/>
	<path fill-rule="evenodd" clip-rule="evenodd" fill="#FFFFFF" d="M158.178,95.259c1.743-0.429,1.4,0.085,1.258-1.744
		L158.178,95.259z"/>
	<path fill-rule="evenodd" clip-rule="evenodd" fill="#DCDBDB" d="M157.035,96.802c0.028,0.028,1.057-0.715,0.514,0.972
		c-0.143,0.485-0.399,0.543-0.914,0.886l2.058-0.4l-1.887-2.058L157.035,96.802z"/>
	<path fill-rule="evenodd" clip-rule="evenodd" fill="#FFFFFF" d="M109.139,76.482l0.086-0.915
		C108.139,75.567,108.139,75.825,109.139,76.482L109.139,76.482z"/>
</g>
</svg>
