<?xml version="1.0" encoding="utf-8"?>
<!-- Generator: Adobe Illustrator 15.0.0, SVG Export Plug-In  -->
<!DOCTYPE svg PUBLIC "-//W3C//DTD SVG 1.1//EN" "http://www.w3.org/Graphics/SVG/1.1/DTD/svg11.dtd" [
	<!ENTITY ns_flows "http://ns.adobe.com/Flows/1.0/">
]>
<svg version="1.1"
	 xmlns="http://www.w3.org/2000/svg" xmlns:xlink="http://www.w3.org/1999/xlink" xmlns:a="http://ns.adobe.com/AdobeSVGViewerExtensions/3.0/"
	 x="0px" y="0px" width="167px" height="166px" viewBox="-0.001 0.001 167 166" enable-background="new -0.001 0.001 167 166"
	 xml:space="preserve">
<defs>
</defs>
<path fill-rule="evenodd" clip-rule="evenodd" fill="#F05B74" d="M74.032,2.78C63.315,4.438,55.8,5.838,47.055,10.41
	c-8.944,4.687-13.317,7.688-19.919,14.375c-7.259,7.345-9.516,8.659-15.089,19.177c-14.089,26.549-12.46,57.1,1.972,81.648
	c4.145,7.059,6.545,9.116,11.288,13.917c1.258,1.315,2.486,3.145,4.287,4.773c5.658,5.115,23.177,2.229,31.378,0.886
	c64.271-10.603,86.477-79.849,60.699-123.23c-3.172-5.315-11.117-15.518-17.032-17.29C95.294,1.894,83.491,1.294,74.032,2.78
	L74.032,2.78z"/>
<path fill-rule="evenodd" clip-rule="evenodd" fill="#F05B74" d="M54.027,158.618c14.231,9.745,43.753,6.373,59.956,0.343
	c12.717-4.744,25.549-14.375,33.579-24.749l5.601-8.573c15.689-23.406,16.204-58.157-0.114-84.706
	c-6.458-10.546-7.716-10.86-16.175-19.006c2.973,10.117,13.432,18.205,11.174,47.584c-2.572,33.38-18.289,59.186-45.495,76.047
	C88.721,154.132,71.946,156.532,54.027,158.618L54.027,158.618z"/>
<path fill-rule="evenodd" clip-rule="evenodd" fill="#63AFB8" d="M113.755,8.238c25.006,24.777,25.491,67.302,8.659,96.738
	c-16.976,29.636-42.438,43.468-86.076,43.982l28.692,6.401c10.402-1.229,20.661-4.144,29.263-8.03
	c37.809-17.033,56.698-59.472,51.24-96.91C142.761,31.358,130.901,12.125,113.755,8.238L113.755,8.238z"/>
<path fill-rule="evenodd" clip-rule="evenodd" fill="#303030" d="M74.032,2.78c9.459-1.486,21.262-0.887,30.606,1.886
	c5.915,1.772,13.86,11.975,17.032,17.29c25.777,43.382,3.572,112.628-60.699,123.23c-8.201,1.343-25.72,4.229-31.378-0.886
	c-1.801-1.629-3.029-3.458-4.287-4.773c-4.743-4.801-7.144-6.858-11.288-13.917c-14.432-24.549-16.061-55.1-1.972-81.648
	c5.573-10.518,7.83-11.832,15.089-19.177c6.602-6.688,10.975-9.688,19.919-14.375C55.8,5.838,63.315,4.438,74.032,2.78L74.032,2.78z
	 M54.027,158.618c17.919-2.086,34.693-4.486,48.525-13.061c27.206-16.861,42.923-42.667,45.495-76.047
	c2.258-29.379-8.201-37.467-11.174-47.584c8.459,8.146,9.717,8.46,16.175,19.006c16.318,26.549,15.804,61.3,0.114,84.706
	l-5.601,8.573c-8.03,10.374-20.862,20.005-33.579,24.749C97.78,164.991,68.259,168.363,54.027,158.618L54.027,158.618z
	 M113.755,8.238c17.146,3.887,29.006,23.12,31.778,42.182c5.458,37.438-13.432,79.877-51.24,96.91
	c-8.602,3.887-18.86,6.802-29.263,8.03l-28.692-6.401c43.638-0.515,69.101-14.347,86.076-43.982
	C139.246,75.54,138.761,33.016,113.755,8.238L113.755,8.238z M0.53,91.83c4.83,44.269,42.552,78.791,91.62,74.618
	c42.924-3.657,79.188-43.61,74.502-91.68C162.509,32.016,123.7-4.708,75.146,0.493C50.198,3.18,31.68,15.068,20.306,29.015
	C8.532,43.419-2.585,63.48,0.53,91.83L0.53,91.83z"/>
</svg>
