<?xml version="1.0" encoding="utf-8"?>
<!-- Generator: Adobe Illustrator 15.0.0, SVG Export Plug-In  -->
<!DOCTYPE svg PUBLIC "-//W3C//DTD SVG 1.1//EN" "http://www.w3.org/Graphics/SVG/1.1/DTD/svg11.dtd" [
	<!ENTITY ns_flows "http://ns.adobe.com/Flows/1.0/">
]>
<svg version="1.1"
	 xmlns="http://www.w3.org/2000/svg" xmlns:xlink="http://www.w3.org/1999/xlink" xmlns:a="http://ns.adobe.com/AdobeSVGViewerExtensions/3.0/"
	 x="0px" y="0px" width="259px" height="159px" viewBox="0 0 259 159" enable-background="new 0 0 259 159" xml:space="preserve">
<defs>
</defs>
<path fill-rule="evenodd" clip-rule="evenodd" fill="#EBEBEB" d="M34.094,107.77l2.086-19.977
	c5.602-3.515,20.604-3.086,26.748-3.286c2.658,4.172,3.059,14.317,3.545,19.147c-5.259,0.829-11.003,0.914-16.604,1.8
	C44.896,106.227,38.723,107.569,34.094,107.77L34.094,107.77z M86.733,99.167c0.771-0.457-1.229-2.028,8.288-0.771
	c9.115,1.229,10.859,2.858,19.89,6.83c-1.144,0.515-13.66-3.657-23.776-4.772C88.277,100.139,88.734,100.339,86.733,99.167
	L86.733,99.167z M85.391,93.138c3.43-3.059,11.889-1.058,16.604,0.285c2.258,0.629,3.915,1.429,6.572,2.486
	c0.973,0.4,2.715,0.972,3.544,1.4c2.63,1.372,1.229,0.657,2.372,1.857c-6.373,0.687-3.115-0.686-13.717-3.543
	C96.422,94.452,88.22,94.823,85.391,93.138L85.391,93.138z M84.333,87.079c1.601-1.315-0.399-1.115,3.743-1.372
	c6.145-0.372,23.52,3.544,25.435,9.517l-13.831-5.43C95.507,88.765,86.877,88.793,84.333,87.079L84.333,87.079z M39.866,73.933
	c-1.458,0.828,1.943,1.314-1.829,0.6c-2.857-0.543-0.486-0.028-1.286-1.571l3.173-1.028c15.746-1.544,22.947-3.688,40.551-2.516
	c9.23,0.629,29.75,5.401,31.379,12.146C80.361,67.388,75.902,70.304,39.866,73.933L39.866,73.933z M40.523,68.188l-0.229-2.086
	c21.775-4.688,57.869-5.888,70.701,8.83C83.418,63.645,74.33,62.044,40.523,68.188L40.523,68.188z M39.009,61.786
	c8.63-8.658,66.586-5.314,71.044,8.002c-5.086-2.429-10.059-5.258-15.061-6.687c-5.287-1.544-11.488-2.858-17.547-3.43
	C56.613,57.643,45.524,62.787,39.009,61.786L39.009,61.786z M38.98,55.785c18.832-8.659,66.814-2.429,70.101,8.974
	c-13.488-6.201-17.003-8.888-32.55-10.432C57.699,52.441,42.038,58.214,38.98,55.785L38.98,55.785z M41.381,33.208
	c8.145-3.658,21.462-3.43,30.692-2.914c10.917,0.6,10.545,1.514,11.288,6.144c0.743,4.716,1.344,9.688,1.829,14.489
	c-34.95-3.058-15.718-2.515-45.124,1.344L41.381,33.208z M27.092,115.972l99.564,0.485c-0.742-8.345-11.916-58.472-14.604-73.418
	c-1.314-7.229-2.172-7.773-7.086-11.089c-17.147-11.488-41.268-8.516-60.186-5.201c-10.431,1.83-7.373-1.257-10.631,25.464
	C31.807,71.704,27.377,97.139,27.092,115.972L27.092,115.972z"/>
<path fill-rule="evenodd" clip-rule="evenodd" fill="#EBEBEB" d="M159.807,64.587c6.516-4.486,28.949-12.031,39.438-11.717
	c2.915,4.772,12.088,18.233,13.088,22.463l-23.69,4.516c-7.944,1.829-14.403,5.144-21.205,6.83L159.807,64.587z M128.771,79.819
	c4.115-10.002,15.918-16.775,28.435-22.52c8.773-4.029,24.548-8.602,34.836-9.631c5.688-0.6,3.744,0.057,4.744,1.086
	c-19.633,3.887-38.923,6.973-55.44,19.947c-1.687,1.314-1.486,1.258-3.172,2.858C130.743,78.563,132.43,79.62,128.771,79.819
	L128.771,79.819z M127.714,73.903c4.544-17.117,55.869-36.494,66.186-31.179c-2.429,1.858-1.942,1.172-2.743,1.4
	c-0.086,0.028-2.144,0.314-2.486,0.372l-15.261,3C139.23,54.928,133.486,72.418,127.714,73.903L127.714,73.903z M126.656,68.159
	c0.771-3.914,2.372-5.344,4.772-7.344c2.943-2.458,3.087-3.486,6.373-5.773c12.317-8.631,33.864-17.689,48.182-18.404l3.602,0.571
	c0.171-0.257,0.485,0.314,0.743,0.458c-12.632,2.828-25.863,5-37.065,10.745c-5.602,2.858-10.031,5.345-14.604,8.517
	C133.858,60.272,131.114,67.045,126.656,68.159L126.656,68.159z M125.285,63.415c6.087-17.032,42.952-31.15,58.813-31.75
	l4.372,0.972c-2.886,1.286-2.114,1.172-5.344,1.601c-1.743,0.257-3.286,0.257-5.059,0.571c-8.401,1.4-18.775,4.887-25.977,8.316
	c-14.375,6.83-12.432,7.487-20.462,14.89C124.771,64.33,130.486,61.673,125.285,63.415L125.285,63.415z M121.799,45.325
	c0.656-5.486,17.889-16.061,24.233-17.204L121.799,45.325z M119.884,40.01c0.771-3.657-0.772-1.886,5.029-6.916
	c2.515-2.2,9.23-7.145,12.403-8.745c9.431-4.687,7.001-0.971,7.259-0.8l-12.975,7.202C121.912,37.124,126.885,37.237,119.884,40.01
	L119.884,40.01z M144.375,15.118c7.401-3.344,19.061-8.688,29.463-6.744l9.717,16.09c-2.657,1.371-2.229,1.4-5.229,1.943
	c-16.633,2.914-16.661,4.601-28.692,7.459L144.375,15.118z M118.94,35.065c1.086-5.315-1-0.886,2.372-4.572
	c5.658-6.173,7.716-7.888,15.289-12.003c9.002-4.858,6.658-1.172,7.23-0.686L130.2,25.264
	C124.37,29.265,124.228,32.608,118.94,35.065L118.94,35.065z M129.485,115.171c4.201-1.4,22.92-18.747,39.523-23.92l52.697-11.603
	c-0.4-3.716-36.151-65.474-42.752-77.19c-22.892-0.515-60.271,15.489-65.101,31.722C112.682,38.095,126.828,108.026,129.485,115.171
	L129.485,115.171z"/>
<path fill-rule="evenodd" clip-rule="evenodd" fill="#303030" d="M120.341,126.603c3.743-7.888,12.089-7.516,19.347-4.229
	C134.772,126.86,126.428,126.688,120.341,126.603L120.341,126.603z M28.006,129.746c21.605-9.888,76.674-18.204,93.621-8.402
	l-1.543,0.601c-2.687,0.571-2.658,0.229-5.059,0l-20.49-0.028c-8.174,0.543-16.746,1.543-24.777,3.172
	c-26.805,5.373-28.463,9.545-43.381,13.774L28.006,129.746z M28.75,117.629c18.632-4.344,28.406-7.03,49.324-7.487
	c11.488-0.258,41.01,3.258,47.468,9.145c-14.432-3.029-10.46-2.571-25.263-3.743c-14.317-1.144-38.094,1.143-51.954,5.258
	c-3.858,1.172-18.318,6.116-21.119,6.202L28.75,117.629z M27.092,115.972c0.285-18.833,4.715-44.268,7.059-63.759
	c3.258-26.721,0.2-23.634,10.631-25.464c18.918-3.314,43.038-6.287,60.186,5.201c4.914,3.315,5.771,3.859,7.086,11.089
	c2.688,14.946,13.861,65.073,14.604,73.418L27.092,115.972z M26.291,95.224l-1.543,19.119c-0.028,7.259,0.457,2.058,1.144,5.43
	c0.543,2.572-2.315,17.604-1.972,22.405c31.521-12.26,55.611-21.177,92.734-17.775c-3.658,1.972-0.571,1.143-6.43,1.8
	c-17.262,1.973-27.092,4.944-44.066,9.402c-15.719,4.173-33.551,9.402-49.641,11.604L26.291,95.224z M136.002,118.801
	c0.399-1.4-1.001,0,1.657-2.344l7.573-4.601c3.657-2.087,6.486-3.458,10.688-5.373c15.86-7.202,34.208-10.859,51.583-12.632
	c16.232-1.657,20.233-3.286,24.205,7.631l-54.098,3.344C162.722,106.912,138.517,119.058,136.002,118.801L136.002,118.801z
	 M131.829,117.886c3.744-8.287,32.607-22.405,43.21-26.549c7.887-3.058,18.89-5.944,27.92-7.487
	c11.974-2.058,19.775-4.63,23.233,6.83l-54.212,7.63C161.436,100.768,139.431,111.342,131.829,117.886L131.829,117.886z
	 M235.566,103.426c-1.801-5.03-4.001-6.059-5.716-11.546c-1.687-5.287-5.029-3.83-5.259-10.288
	c-0.199-6.517-7.83-15.604-10.916-22.634c5.63,8.059,28.892,41.581,30.063,46.325c-15.518,2.029-78.103,9.174-91.534,12.546
	c-3.029,0.743-7.944,3.258-10.545,1.515C195.9,101.882,178.64,104.483,235.566,103.426L235.566,103.426z M129.485,115.171
	c-2.657-7.145-16.804-77.076-15.632-80.991c4.83-16.232,42.209-32.236,65.101-31.722c6.601,11.717,42.352,73.475,42.752,77.19
	l-52.697,11.603C152.405,96.424,133.687,113.771,129.485,115.171L129.485,115.171z M206.274,43.554
	c-3.83-5.916-8.888-14.518-13.261-19.69c1.286-1.829,2.772-1.687,5.688-1.801l56.326,87.622l-66.957,9.602
	c-57.756,8.288-23.177,4.688-46.296,11.261c-5.115,1.457-9.603,2.601-14.946,3.314c-14.632,1.972-10.688,0.572-16.861-0.686
	c-4.029-0.8-100.736,21.891-107.28,23.291L30.693,53.299l-16.547,96.452c16.946-3.943,71.244-17.661,85.332-20.062
	c20.463-3.458,23.006,0.028,30.808-1.43c4.687-0.856,9.487-2.8,13.231-4.943c8.63-4.944,32.55-7.174,42.81-8.402
	c14.031-1.687,50.496-3.572,60.47-8.688L206.274,43.554z M0,158.982c5.087-0.515,56.527-12.061,64.328-14.004
	c8.202-2.058,39.494-10.431,47.325-8.802c9.088,1.914,24.548-1.572,33.351-4.287c5.915-1.857,8.087-4.915,13.316-5.858
	c20.634-3.716,82.532-12.632,100.565-14.461l-14.774-24.178c-5.173-8.087-9.46-14.432-14.632-22.69
	c-4.602-7.373-9.974-15.433-14.718-22.549l-14.86-22.463l-8.773,0.943L180.354,0c-33.808,8.202-53.612,7.888-68.787,33.437
	l-7.431-4.744c-17.26-10.488-56.154-8.573-68.729-1.371l-3.172,22.463c-2.344,4.029-3.087-2.715-6.773,10.945l-11.088,41.353
	c-2.4,9.346-4.688,18.29-7.316,27.922C4.858,138.12,0.743,151.438,0,158.982L0,158.982z"/>
<path fill-rule="evenodd" clip-rule="evenodd" fill="#D8D9D9" d="M193.014,23.863c4.373,5.173,9.431,13.774,13.261,19.69
	l40.522,62.673c-9.974,5.115-46.438,7.001-60.47,8.688c-10.26,1.229-34.18,3.458-42.81,8.402c-3.744,2.144-8.545,4.087-13.231,4.943
	c-7.802,1.458-10.345-2.028-30.808,1.43c-14.088,2.4-68.386,16.118-85.332,20.062l16.547-96.452L2.687,156.467
	c6.544-1.4,103.251-24.091,107.28-23.291c6.174,1.258,2.229,2.657,16.861,0.686c5.344-0.714,9.831-1.857,14.946-3.314
	c23.119-6.573-11.46-2.973,46.296-11.261l66.957-9.602l-56.326-87.622C195.786,22.177,194.3,22.034,193.014,23.863L193.014,23.863z"
	/>
<path fill-rule="evenodd" clip-rule="evenodd" fill="#BAD532" d="M162.493,65.901l6.487,18.005
	c6.144-1.743,11.917-4.63,18.804-6.116l21.49-4.086l-11.431-18.49c-5.145-0.058-13.889,2.344-18.747,3.829
	c-2.857,0.857-5.658,1.915-8.202,2.887c-1.371,0.515-2.771,1.058-4.344,1.743L162.493,65.901z"/>
<path fill-rule="evenodd" clip-rule="evenodd" fill="#EBEBEB" d="M16.518,147.208c16.09-2.201,33.922-7.431,49.641-11.604
	c16.975-4.458,26.805-7.43,44.066-9.402c5.858-0.657,2.771,0.172,6.43-1.8c-37.123-3.401-61.213,5.516-92.734,17.775
	c-0.344-4.801,2.515-19.833,1.972-22.405c-0.687-3.372-1.172,1.829-1.144-5.43l1.543-19.119L16.518,147.208z"/>
<path fill-rule="evenodd" clip-rule="evenodd" fill="#EBEBEB" d="M235.566,103.426c-56.927,1.058-39.666-1.544-93.906,15.918
	c2.601,1.743,7.516-0.771,10.545-1.515c13.432-3.372,76.017-10.517,91.534-12.546c-1.172-4.744-24.434-38.267-30.063-46.325
	c3.086,7.029,10.717,16.117,10.916,22.634c0.229,6.458,3.572,5.001,5.259,10.288C231.565,97.367,233.766,98.396,235.566,103.426
	L235.566,103.426z"/>
<path fill-rule="evenodd" clip-rule="evenodd" fill="#86D2DA" d="M42.152,49.44l40.494-1.343l-1.972-13.946
	c-8.315-2.744-18.004-2.086-26.834-1.429C40.123,33.78,43.038,35.438,42.152,49.44L42.152,49.44z"/>
<path fill-rule="evenodd" clip-rule="evenodd" fill="#EBEBEB" d="M136.002,118.801c2.515,0.257,26.72-11.889,41.608-13.975
	l54.098-3.344c-3.972-10.917-7.973-9.288-24.205-7.631c-17.375,1.772-35.723,5.43-51.583,12.632
	c-4.201,1.915-7.03,3.286-10.688,5.373l-7.573,4.601C135.001,118.801,136.401,117.4,136.002,118.801L136.002,118.801z"/>
<path fill-rule="evenodd" clip-rule="evenodd" fill="#EBEBEB" d="M131.829,117.886c7.602-6.544,29.606-17.118,40.151-19.576
	l54.212-7.63c-3.458-11.46-11.26-8.888-23.233-6.83c-9.03,1.543-20.033,4.43-27.92,7.487
	C164.437,95.48,135.573,109.599,131.829,117.886L131.829,117.886z"/>
<path fill-rule="evenodd" clip-rule="evenodd" fill="#EBEBEB" d="M28.006,129.746l-1.629,9.116
	c14.918-4.229,16.576-8.401,43.381-13.774c8.031-1.629,16.604-2.629,24.777-3.172l20.49,0.028c2.4,0.229,2.372,0.571,5.059,0
	l1.543-0.601C104.68,111.542,49.611,119.858,28.006,129.746L28.006,129.746z"/>
<path fill-rule="evenodd" clip-rule="evenodd" fill="#EBEBEB" d="M28.75,117.629l-1.544,9.374c2.801-0.086,17.261-5.03,21.119-6.202
	c13.86-4.115,37.637-6.401,51.954-5.258c14.803,1.172,10.831,0.714,25.263,3.743c-6.458-5.887-35.979-9.402-47.468-9.145
	C57.156,110.599,47.382,113.285,28.75,117.629L28.75,117.629z"/>
<path fill-rule="evenodd" clip-rule="evenodd" fill="#F5853E" d="M146.718,16.404l4.059,14.804
	c13.26-4.43,15.546-4.688,29.063-7.659l-6.659-13.347C162.979,9.717,154.434,13.203,146.718,16.404L146.718,16.404z"/>
<path fill-rule="evenodd" clip-rule="evenodd" fill="#CE9BB4" d="M38.752,88.765l-2.687,16.433l27.777-3.43l-2.229-15.146
	C55.384,86.192,43.953,86.936,38.752,88.765L38.752,88.765z"/>
<path fill-rule="evenodd" clip-rule="evenodd" fill="#303030" d="M166.551,63.673c1.572-0.686,2.973-1.229,4.344-1.743
	c2.544-0.972,5.345-2.029,8.202-2.887c4.858-1.485,13.603-3.887,18.747-3.829l11.431,18.49l-21.49,4.086
	c-6.887,1.486-12.66,4.373-18.804,6.116l-6.487-18.005L166.551,63.673z M159.807,64.587l7.63,22.092
	c6.802-1.687,13.261-5.001,21.205-6.83l23.69-4.516c-1-4.229-10.173-17.69-13.088-22.463
	C188.756,52.556,166.322,60.101,159.807,64.587L159.807,64.587z"/>
<path fill-rule="evenodd" clip-rule="evenodd" fill="#303030" d="M42.152,49.44c0.886-14.003-2.029-15.66,11.688-16.718
	c8.83-0.657,18.519-1.315,26.834,1.429l1.972,13.946L42.152,49.44z M41.381,33.208l-1.314,19.063
	c29.406-3.858,10.174-4.401,45.124-1.344c-0.485-4.801-1.086-9.773-1.829-14.489c-0.743-4.63-0.371-5.544-11.288-6.144
	C62.843,29.778,49.525,29.55,41.381,33.208L41.381,33.208z"/>
<path fill-rule="evenodd" clip-rule="evenodd" fill="#303030" d="M146.718,16.404c7.716-3.201,16.261-6.688,26.463-6.202
	l6.659,13.347c-13.518,2.972-15.804,3.229-29.063,7.659L146.718,16.404z M144.375,15.118l5.258,18.748
	c12.031-2.858,12.06-4.545,28.692-7.459c3-0.543,2.572-0.572,5.229-1.943l-9.717-16.09C163.436,6.431,151.776,11.774,144.375,15.118
	L144.375,15.118z"/>
<path fill-rule="evenodd" clip-rule="evenodd" fill="#303030" d="M38.752,88.765c5.201-1.829,16.632-2.572,22.861-2.144
	l2.229,15.146l-27.777,3.43L38.752,88.765z M34.094,107.77c4.629-0.2,10.803-1.543,15.774-2.315
	c5.602-0.886,11.346-0.971,16.604-1.8c-0.486-4.83-0.887-14.976-3.545-19.147c-6.144,0.2-21.146-0.229-26.748,3.286L34.094,107.77z"
	/>
<path fill-rule="evenodd" clip-rule="evenodd" fill="#303030" d="M127.714,73.903c5.772-1.485,11.517-18.976,45.695-26.406l15.261-3
	c0.343-0.058,2.4-0.344,2.486-0.372c0.801-0.229,0.314,0.458,2.743-1.4C183.583,37.409,132.258,56.786,127.714,73.903
	L127.714,73.903z"/>
<path fill-rule="evenodd" clip-rule="evenodd" fill="#303030" d="M39.924,71.933l-2.688,0.485c2.172,3.029-0.914,0.714,2.63,1.515
	c36.036-3.629,40.495-6.545,71.987,7.631c-1.629-6.745-22.148-11.518-31.379-12.146C62.871,68.245,55.67,70.389,39.924,71.933
	L39.924,71.933z"/>
<path fill-rule="evenodd" clip-rule="evenodd" fill="#303030" d="M39.009,61.786c6.516,1.001,17.604-4.144,38.437-2.114
	c6.059,0.571,12.26,1.886,17.547,3.43c5.002,1.429,9.975,4.258,15.061,6.687C105.595,56.472,47.639,53.128,39.009,61.786
	L39.009,61.786z"/>
<path fill-rule="evenodd" clip-rule="evenodd" fill="#303030" d="M128.771,79.819c3.658-0.199,1.972-1.257,9.402-8.259
	c1.686-1.601,1.485-1.544,3.172-2.858c16.518-12.975,35.808-16.061,55.44-19.947c-1-1.029,0.943-1.686-4.744-1.086
	c-10.288,1.029-26.063,5.602-34.836,9.631C144.689,63.044,132.887,69.817,128.771,79.819L128.771,79.819z"/>
<path fill-rule="evenodd" clip-rule="evenodd" fill="#303030" d="M38.98,55.785c3.058,2.429,18.719-3.344,37.551-1.458
	c15.547,1.544,19.062,4.23,32.55,10.432C105.795,53.356,57.813,47.126,38.98,55.785L38.98,55.785z"/>
<path fill-rule="evenodd" clip-rule="evenodd" fill="#303030" d="M125.285,63.415c5.201-1.742-0.515,0.915,6.344-5.4
	c8.03-7.402,6.087-8.06,20.462-14.89c7.201-3.43,17.575-6.916,25.977-8.316c1.772-0.314,3.315-0.314,5.059-0.571
	c3.229-0.429,2.458-0.314,5.344-1.601l-4.372-0.972C168.237,32.265,131.372,46.383,125.285,63.415L125.285,63.415z"/>
<path fill-rule="evenodd" clip-rule="evenodd" fill="#303030" d="M126.656,68.159c4.458-1.114,7.202-7.887,12.003-11.23
	c4.572-3.172,9.002-5.658,14.604-8.517c11.202-5.745,24.434-7.917,37.065-10.745c-0.258-0.144-0.572-0.715-0.743-0.458l-3.602-0.571
	c-14.317,0.715-35.864,9.773-48.182,18.404c-3.286,2.287-3.43,3.315-6.373,5.773C129.028,62.815,127.428,64.245,126.656,68.159
	L126.656,68.159z"/>
<path fill-rule="evenodd" clip-rule="evenodd" fill="#303030" d="M40.295,66.103c0,1.771,0.343,1.114-1.973,1.485l2.201,0.601
	c33.807-6.145,42.895-4.544,70.473,6.744C98.164,60.215,62.07,61.415,40.295,66.103L40.295,66.103z"/>
<path fill-rule="evenodd" clip-rule="evenodd" fill="#827F70" d="M120.341,126.603c6.087,0.086,14.432,0.258,19.347-4.229
	C132.43,119.087,124.084,118.715,120.341,126.603L120.341,126.603z"/>
<path fill-rule="evenodd" clip-rule="evenodd" fill="#303030" d="M118.94,35.065c5.287-2.457,5.43-5.801,11.26-9.802l13.632-7.459
	c-0.572-0.486,1.771-4.173-7.23,0.686c-7.573,4.115-9.631,5.83-15.289,12.003C117.94,34.18,120.026,29.75,118.94,35.065
	L118.94,35.065z"/>
<path fill-rule="evenodd" clip-rule="evenodd" fill="#303030" d="M119.884,40.01c7.001-2.772,2.028-2.886,11.717-9.259l12.975-7.202
	c-0.258-0.171,2.172-3.887-7.259,0.8c-3.173,1.601-9.889,6.545-12.403,8.745C119.111,38.124,120.655,36.353,119.884,40.01
	L119.884,40.01z"/>
<path fill-rule="evenodd" clip-rule="evenodd" fill="#303030" d="M84.333,87.079c2.544,1.714,11.174,1.686,15.347,2.715l13.831,5.43
	c-1.915-5.973-19.29-9.889-25.435-9.517C83.934,85.964,85.934,85.764,84.333,87.079L84.333,87.079z"/>
<path fill-rule="evenodd" clip-rule="evenodd" fill="#303030" d="M85.391,93.138c2.829,1.686,11.031,1.314,15.375,2.486
	c10.602,2.857,7.344,4.229,13.717,3.543c-1.143-1.2,0.258-0.485-2.372-1.857c-0.829-0.429-2.571-1-3.544-1.4
	c-2.657-1.058-4.314-1.857-6.572-2.486C97.279,92.08,88.82,90.079,85.391,93.138L85.391,93.138z"/>
<path fill-rule="evenodd" clip-rule="evenodd" fill="#303030" d="M86.733,99.167c2.001,1.172,1.544,0.972,4.401,1.286
	c10.116,1.115,22.633,5.287,23.776,4.772c-9.03-3.972-10.774-5.601-19.89-6.83C85.505,97.139,87.505,98.71,86.733,99.167
	L86.733,99.167z"/>
<path fill-rule="evenodd" clip-rule="evenodd" fill="#303030" d="M121.799,45.325l24.233-17.204
	C139.688,29.265,122.455,39.839,121.799,45.325L121.799,45.325z"/>
<path fill-rule="evenodd" clip-rule="evenodd" fill="#959494" d="M39.866,73.933c-3.544-0.801-0.458,1.515-2.63-1.515l2.688-0.485
	l-3.173,1.028c0.8,1.543-1.571,1.028,1.286,1.571C41.81,75.247,38.408,74.761,39.866,73.933L39.866,73.933z"/>
<path fill-rule="evenodd" clip-rule="evenodd" fill="#959494" d="M40.523,68.188l-2.201-0.601c2.315-0.371,1.973,0.286,1.973-1.485
	L40.523,68.188z"/>
</svg>
