<?xml version="1.0" encoding="utf-8"?>
<!-- Generator: Adobe Illustrator 15.0.0, SVG Export Plug-In  -->
<!DOCTYPE svg PUBLIC "-//W3C//DTD SVG 1.1//EN" "http://www.w3.org/Graphics/SVG/1.1/DTD/svg11.dtd" [
	<!ENTITY ns_flows "http://ns.adobe.com/Flows/1.0/">
]>
<svg version="1.1"
	 xmlns="http://www.w3.org/2000/svg" xmlns:xlink="http://www.w3.org/1999/xlink" xmlns:a="http://ns.adobe.com/AdobeSVGViewerExtensions/3.0/"
	 x="0px" y="0px" width="338px" height="304px" viewBox="0.701 0 338 304" enable-background="new 0.701 0 338 304"
	 xml:space="preserve">
<defs>
</defs>
<path fill-rule="evenodd" clip-rule="evenodd" fill="#F5853E" d="M91.98,153.072c0.029-3.601,4.63-2.744,8.431-2.629
	c3.715,0.114,7.43-0.057,11.145-0.057l55.641,0.057c1.801,0,3.801-0.086,5.573,0c2.429,0.114,3.687,0.028,4.829,0.915
	c1.572-0.114,3.458-0.2,5.087-0.229c2.887-0.029,2.601-0.2,4.115,1.314c0.771,0.229,0.457,3.915,0.429,5.23
	c-0.143,9.345,0.257,19.491,0.058,28.549c-0.086,3.772,0.199,7.917,0,11.604c-0.229,3.629-0.029,7.688-0.058,11.374
	s-0.143,7.716,0.028,11.374c0.2,3.744-0.057,7.573-0.028,11.374c0,1.887,0.172,3.973,0.114,5.802c-0.028,1-0.028,1.915-0.057,2.915
	c-0.114,2.314,0.229,1.144,0.628,2.172c-1.229,1.314-0.714,1.915-1.886,2.572c-1.229,0.657-3.144,0.2-4.544,0.171
	c-3.172-0.057-6.344,0.229-9.431,0.144c-6.344-0.144-12.603,0.057-18.89,0.028c-6.259-0.028-12.603-0.286-18.861-0.028
	c-4.43,0.171-9.659-0.229-14.289-0.114c-2.4,0.057-1.629,0.686-4.029,0.229c-2-0.4-15.746-0.2-18.718-0.143
	c-1.286,0.028-3.229,0.399-4.115-0.429c-1.058-1.001-1.429-2.258-1.372-3.63c0.257-6.659-0.257-16.775,0-23.749
	c0.057-1.629-0.343-2.657-0.229-4.601c0.143-2.029,0.629-14.204,0-16.147c-0.229-0.771-0.4,0.114-0.171-1
	c0.372-1.829-0.085-0.429,0.629-0.743l-0.114-21.834c0.429-3.572-0.257-7.659,0.028-11.06c0.2-2.601-0.857-2-0.6-4.83
	C91.466,155.987,92.152,155.473,91.98,153.072L91.98,153.072z M34.911,302.537c1.029-0.343,62.271,0.086,73.016-0.057l20.09,0.028
	c4.43-0.028,3.458,0.2,6.315,0.457c1.229,0.114,2.687-0.6,6.259-0.485c4.601,0.114,24.662-0.172,26.605,0.057
	c1.029,0.144,1.687,0.657,2.372,0.601c1.058-0.114,0.801-0.715,2.715-0.629c2.286,0.086,4.487-0.028,6.773-0.028
	c4.43,0.028,9.173,0.2,13.546,0.086c4.258-0.115,9.087-0.229,13.316-0.086c2.115,0.086,3.887,0.343,6.23,0.171
	c2.314-0.171,14.518-0.514,16.203,0.229c2.887,1.258,3.944,0,5.487-0.313l10.202-0.086c-0.2-7.459-0.114-15.176-0.057-22.635
	c0.028-7.487-0.086-14.975,0-22.491c0.114-7.487,0-15.032,0-22.52l0.028-84.192c0-0.972,0-1.943,0-2.915
	c-0.028-1.543,0.028-1.429-0.486-2.515c-0.857-1.886,1.144-1.257,0.2-4.344c-0.457-1.572,0-0.4,0.2-2.058l0.058-8.488
	c0-0.943,0.143-2-0.172-2.83l-0.629-1.972c-0.114-0.429-0.515-0.657-1-0.714l-11.603,0.028c-2.144,0-1.029,0.486-2.429,0.572
	c-1.4,0.114-0.857-0.543-2.63-0.657l-20.09,0.028c-4.258,0.2-8.945-0.171-13.317-0.057c-8.688,0.229-17.604-0.114-26.377,0
	c-4.315,0.057-9.002,0.114-13.289-0.028c-4.344-0.143-9.059,0.257-13.317,0.057c-7.63-0.343-18.518,0.114-26.377,0.028
	l-39.923-0.114c-4.287-0.057-9.03-0.114-13.289,0.029l-23.977,0.028c-0.629,0.171-0.972,0.657-1.314,1.229
	c0.857,2.429,0.514,1.429,0.628,4.687c0.086,2.086,0,5.773-0.486,8.031c-0.314,1.458-0.085,1.314,0.343,2.372
	c0.543,1.343-0.086,3.287,0.028,5.258c0.171,3.572-0.343,7.859,0.029,11.346c0.2,1.772,0.085,3.658,0.229,5.602
	c0.114,1.715-0.286,3.601-0.286,5.544c0,3.887-0.286,7.345,0.028,10.889c0.343,3.887,0,7.173-0.028,11.117
	c-0.029,4.001,0.428,7.345,0.314,11.374c-0.057,1.972-0.114,3.858-0.143,5.83c0,0.943,0,1.915,0,2.887c0,0.343-0.029,1.2,0,1.485
	c0.257,1.572,0.057,0.314,0.486,1.086c0.571,1.029,0.143,1.058-0.172,1.743c-0.543,1.172-0.257,12.203-0.286,14.318
	c0,1.229-0.2,1.801-0.229,2.657c-0.029,1.029,0.343,1.515,0.314,2.658c0,1.4-0.057,1.4,0.114,2.801l-0.229,8.345
	c0,3.915,0.229,7.717,0.171,11.632c-0.029,2-0.458,3.001-0.515,5.059c-0.085,4.943,0.743,11.26,0.372,16.946
	c-0.2,3.43,0,8.088,0.143,11.604c0.085,1.972-0.143,3.657-0.229,5.572C34.768,298.822,34.911,300.651,34.911,302.537L34.911,302.537
	z"/>
<path fill-rule="evenodd" clip-rule="evenodd" fill="#E9E014" d="M98.268,241.837c1.2,0.057,5.144,0.2,5.944-0.028
	c0.886-0.258,0.6-0.658,2.029-0.772c2.201-0.171,9.174-0.313,10.746,0.486c1.8,0.914,6.087,0.314,8.116,0.286
	c2.258-0.029,2.458-0.743,4.83-0.743c8.716-0.086,5.659,0.628,7.973,0.857l5.573-0.114c1.172-0.229,0.629-0.658,2.172-0.687
	c3.287-0.114,7.544-0.485,10.459,0.515c1.743,0.601,3.315,0,5.287,0.086c4.829,0.229,1.886-0.687,5.087-0.629
	c1.429,0,4.315-0.114,5.572,0.057c1.058,0.115,1.114,0.486,2.172,0.687c1.4,0.257,6.888,0.057,8.202-0.114
	c1.058-3.486-0.086-17.576,0.771-21.577c0.257-1.286-0.371-3.629-0.371-5.115c0.057-5.059,0.428-11.688-0.144-16.433
	c-0.285-2.629,0.114-7.745,0.114-10.945c0.029-3.687-0.171-7.288-0.229-10.889c0-1.572,0.229-3.63,0.229-5.544l-0.2-10.889
	c-0.057-2,0.314-3.572,0.058-5.573c-2.115,0.372-8.23-0.029-10.859-0.057c-19.576-0.2-41.552,0.543-60.728-0.029
	c-1.143-0.028-1.743-0.229-2.658-0.229c-1,0-1.372,0.229-2.429,0.257c-1.772,0.114-3.744,0.057-5.573,0.057
	c-1.715-0.029-3.915-0.372-4.658,0.657c-0.486,1.057-0.114,37.781-0.2,42.639c-0.114,7.059,0.029,14.461,0.086,21.548
	c0.057,6.83-0.4,14.547,0.057,21.263C98.039,241.437,97.411,241.551,98.268,241.837L98.268,241.837z"/>
<path fill-rule="evenodd" clip-rule="evenodd" fill="#0D0E10" d="M247.557,245.78c0.058-0.828-0.514-0.743,2.887-0.714
	c1.515,0.028,2.029-0.172,3.372-0.258c6.145-0.314,11.889,0.486,17.433,0.258c0.543-0.029,1.143-0.086,1.715-0.086
	c0.229,0,0.714,0.028,0.942,0.086l0.601,0.257c1.857,0.829-0.629,18.49,1.343,19.776c1.601,0.601,12.203,0.2,14.746,0.229
	l11.374,0.086c4.973,0.143,3.744-0.314,3.801,5.716c0,0.914,0.144,1.915-0.085,2.771c-0.543,1.829-0.857,1.486-0.601,5.23
	c0.086,1.486,0.515,1.172,0.686,2.2c0.144,0.915-0.114,1.829,0.172,2.801c0.2,0.686,0.114,0.429,0.543,0.914
	c0.257,0.314,0.286,0.229,0.571,0.515c1.314,0.2,10.545,0.458,11.574,0.314c1.771-0.285,15.546-0.543,16.946,0.314
	c1.2,0.743,0.543,3.401,0.543,5.03c0.028,3.743,0.172,8.401-0.086,12.031c-1.657,1-1.543,0.771-3.801,0.743
	c-1.629-0.028-3.229-0.028-4.857-0.028c-3.087,0.028-6.145-0.544-9.116-0.172c-5.545,0.657-12.918-0.143-18.462-0.086
	c-3.029,0.028-6.287,0.343-9.202,0.286c-3.086-0.114-6.173-0.343-9.173-0.286c-3.201,0.058-5.973,0.286-9.202,0.258
	c-3.144,0-6.315-0.258-9.202-0.258c-3.115,0-6.287,0.2-9.202,0.229c-5.687,0.058-6.487,0.715-6.572-2.771
	c-0.029-1.601,0.343-2.858,0.257-4.373c-0.058-1.457-0.229-3.029-0.314-4.601c-0.2-3.772,0.457-16.49,0.2-18.52
	c-0.314-2.543-0.2-20.862-0.2-25.777C247.186,247.038,247.128,246.209,247.557,245.78L247.557,245.78z M34.168,124.551
	c0.6-0.857,1.486-0.686,2.858-0.686c2.572,0,3.715-0.457,6.544-0.314c1.229,0.029,1.801,0.372,3.115,0.257
	c1.114-0.114,1.515-0.286,2.915-0.257l9.945,0.343c1.543-0.086,1.772-0.114,3.029,0.085c1.229,0.171,1.772-0.257,3.029-0.2
	c4.172,0.286,16.604,0.543,20.004,0.229c3.515-0.314,8.63,0,12.889,0.028c4.515,0,9.03,0,13.545,0h9.917
	c1.2,0,1.915-0.286,3.144-0.229c4.573,0.114,9.088,0,13.546,0.086c1.372,0.028,1.857-0.171,2.915-0.2
	c1.029-0.028,1.915,0.257,3.144,0.286c2.286,0,4.487-0.171,6.773-0.114c4.429,0.114,8.859,0.086,13.317,0.086
	c7.116,0,20.519,0.314,26.863,0c1.258-0.057,1.601-0.486,2.887-0.343c1.171,0.115,1.399,0.458,2.886,0.429c2.258,0,4.516,0,6.802,0
	l37.008,0.029c0.543-0.029,1.2-0.029,1.715,0c0.229,0,0.486,0,0.715,0.057c1.629,0.372,0.972,1.857,1,5.944
	c0.086,10.831-0.286,73.361,0.171,75.419c0.572,2.629,0.801,1.629,0.229,5.229c-0.429,2.887,0.399,7.345,0.229,8.431
	c-0.486,3.001-0.657-2.4-0.657,7.944l-0.029,8.745c0,1.858,0.343,0.886,0.657,2.144c0.344,1.458-0.371,1.458-0.514,2.486
	c-0.114,0.771,0.171,1.887,0.114,2.887l-0.229,14.146c0.085,0.828,0.628,1.229,0.543,2.258c-0.114,1.343-0.486,0.229-0.486,5.344
	v20.319c0,1.571,0.4,1.286,0.429,2.429c0.058,0.829-0.429,4.03-0.286,5.145c0.286,2.086-0.114,3.4-0.143,5.487
	c-0.028,2.629,0.515,2.886-0.543,5.144c-3.029,0.286-6.229-0.143-9.202,0.114c-3.2,0.286-5.572,0.258-8.716,0
	c-5.916-0.457-12.546,0.4-18.376,0.114c-6.201-0.257-12.316,0.144-18.403-0.114c-6.087-0.229-12.746-0.057-18.861,0.029
	c-2.943,0-3.058-0.458-8.002-0.429c-2.858,0.028-5.858,0.171-8.688,0.085c-3.344-0.114-14.632-0.485-16.747,0.115
	c-2.515,0.657-5.344-0.2-7.945-0.2l-26.12-0.144c-4.401,0-41.152,0.4-43.495,0.086c-2.801-0.371-5.344-0.028-8.288,0.086
	c-2.772,0.114-5.916,0-8.716,0c-2.8-0.028-3.286-0.857-5.916-0.4c-2.429,0.429-1.743-0.086-1.771-0.429
	c-1.4,0.114-1.058-0.257-1.086-3.572c0-1.229,0.085-3.115,0.314-4.286c0.229-1.4,0.458-2.716,0.229-4.401
	c-0.6-4.173,0.114-2.344-0.114-4.287c-0.143-1.4-0.4-2.4-0.429-4.201c-0.057-3.572,1.486-6.144,0.171-10.745
	c-0.372-1.229-0.343-10.146,0-11.374c1.057-3.887,0.028-2.001,0.343-6.259c0.086-1.114-0.114-0.943-0.4-1.857
	c-0.4-1.258-0.286-7.174-0.171-8.974c0.143-3.059,0.229-5.688,0-8.945c-0.229-2.943-0.029-6.201-0.057-9.202
	c0-1.715,0.257-2.858,0.257-4.344c0-1.887-0.171-2.973-0.286-4.602l0.057-11.346c0.114-0.886,0.4-1.172,0.486-1.972
	c0.171-1.344-0.543-6.773-0.543-8.945c0.029-1.515,0.029-3.058,0.029-4.601l0.085-23.12c0.086-0.4,0.829-1.486,0.4-2.687
	c-0.143-0.4,0.114,0.457-0.343-0.572c-0.114-1.857,0.314-2.372,0.029-4.401c-0.2-1.572-0.086-3.201-0.057-4.772
	c0.028-3.201-0.143-6.545,0-9.688l0.028-14.518C33.854,127.551,33.396,125.122,34.168,124.551L34.168,124.551z M252.187,103.688
	c0.429,0.657,0.314,0.286,0.972,0.686c1.229,0.743,2.144,1.771,3.087,2.715l7.059,6.259c1.086,1,4.515,3.543,4.801,4.315
	c0.743,0.229,0.743,0.143,1.543,0.943c1.543,1.572,3.001,2.115,1.915,3.315c-0.515,0.686-1.372,0.2-2.486,0.143h-15.718
	c-1.144-0.143-1.144-0.515-2.658-0.543c-4.486-0.171-3.372,1.2-3.372-10.574c0-2.315-0.343-8.917,0.114-10.717
	c1.658-0.515,1.829,0.257,2.687,1.115C251.073,102.231,251.702,102.574,252.187,103.688L252.187,103.688z M30.653,121.264
	c-2.658,0.829-6.03,0.057-8.859,0.057c-2.658-0.028-6.145-0.114-8.716,0c-1.601,0.086-9.945,1.229-4.916-3.144
	c1.515-1.314,1.972-1.314,3.658-2.915c0.571-0.543,0.657-0.686,1.086-1.086c0.457-0.4,0.771-0.686,1.143-1.058l7.001-6.03
	c1.601-1.058,4.744-4.373,6.973-6.116c0.714-0.572,1.714-1.601,2.686-1.572c0.915,1.257-0.085,2.515,0.314,5.03
	c0.286,1.8,0.2,3.944,0.171,5.801C31.139,113.72,31.424,118.207,30.653,121.264L30.653,121.264z M45.399,86.17
	c1.029-0.086,1.543-1.486,2.343-1.743l0.715-1.029c0.314-0.314,0.4-0.372,0.686-0.715c1.086-1.143,0.771-1.029,1.772-1.2
	c0.343-1.2,4.687-3.944,5.658-5.172c0.4-1.172,3.172-3.83,4.601-3.487c1.229,0.286,0.8,1.857,0.771,3.058
	c-0.028,1.257,0.2,2.743,0,3.886c0.057,0.057,0.143,0.057,0.229,0.515c0.2,0.771,0,1.343-0.086,2.115l-0.057,7.745
	c-0.057,3.515,0.229,7.059,0.143,10.403c-0.086,3.372-0.429,13.117,0.028,16.232c0.229,1.458,0.343,3.83-0.743,4.63
	c-0.886,0.372-16.604,0.457-18.632,0.314c-11.488-0.829-9.031,2.772-9.288-9.545c-0.057-1.486,0.115-3.487-0.085-4.858
	c-0.515-3.287-0.114-6.202,0-9.431c0.085-2.629,0.229-1.943,2.029-3.715c0.771-0.743,0.972-0.572,1.486-0.972l7.944-6.859
	c0.057-0.029,0.2,0,0.229-0.086C45.199,86.141,45.313,86.198,45.399,86.17L45.399,86.17z M225.924,80.283
	c0.571,0.457,0.086,0.143,0.429,0.572l1.372,1.2c1.543,0.314,3.058,2.172,4.772,3.543c2.143,1.744,3.114,3.258,5.029,4.63
	c2.058,1.486,3.258,3.029,4.601,4.115c1.372,1.086,2.315,1.343,2.43,3.058v10.402c-0.028,2.343,0.515,12.346-0.286,13.575
	l-19.49,0.114c-4.314,0.029-7.572,1.315-7.887-0.857c-0.4-2.744,0.371-25.063-0.029-29.265c-0.314-3.429-0.057-5.887,0.058-9.202
	c0.257-7.945-0.515-6.745-0.686-8.831c1.143-0.857,1.943-0.571,2.914,0.429c0.772,0.829,1.43,1.286,2.229,2.115
	C222.981,77.539,224.352,78.225,225.924,80.283L225.924,80.283z M92.152,69.452c0.286,2.943,0.458,21.719,0.458,25.778
	c-0.029,4.029,0.486,23.863-0.629,26.149c-1.429,0.372-18.232,0.229-21.062,0.229c-4.944-0.028-6.659,0.915-6.716-3.858
	c-0.029-2.372-0.771-8.03-0.143-10.345c0.086-0.314,1.4-2,0.343-4.43c-1.086-2.572,0.4-1.772,0.028-4.23
	c-1.486-10.088,0.372-9.402,0.314-12.231c-0.086-3.115-1.115-1.686-0.629-4.458c0.229-1.458-0.028-1.115-0.171-2.344
	c-0.286-2.2-0.028-7.945,0.143-10.374l3.429-2.915c0.771-0.886,4.115-4.03,5.258-4.63c2-1,4.029-3.373,5.115-4.344l10.402-9.174
	c1.629-1.629,4.001-4.43,3.944-0.229c0,0.771-0.057,1.343,0.057,2.115c0.286,1.686,0.314,6.573,0.286,8.545
	c-0.028,0.714,0.029,1.486,0,2.172c-0.028,0.286-0.028,0.714-0.114,0.972c-0.143,0.572,0,0.343-0.372,0.714
	c0,1.172-0.171,2.429-0.114,3.629C92.095,67.737,92.409,67.822,92.152,69.452L92.152,69.452z M191.802,50.333l0.572,0.514
	c1.399,0.372,0.171-0.257,1.2,0.629c1.657,1.429,4.086,3.144,4.544,4.63c0.828-0.029,0.343,0.028,0.914,0.486
	c0.485,0.4,0.543,0.372,1.028,0.714c1.058,0.686,0.857,1,1.515,1.658c2.058,0.714,2.715,2.429,4.173,3.515
	c1.771,1.314,1.715,1.143,3.115,2.715l0.742,0.972c1.115,0.143,0.086-0.171,0.943,0.457c4.258,2.972,3.486,3.315,3.544,6.345
	c0.028,3.601,0.028,7.373-0.2,10.717c-0.086,1.057,0.2,1.601,0.2,2.601c0.028,1.086-0.286,1.458-0.286,2.4
	c0,0.943,0.258,1.458,0.286,2.658c0,3.658-0.343,11.26-0.143,13.575c0.285,3.687,0.143,7.43,0.143,11.117
	c0.028,6.087,0.171,5.344-5.744,5.373h-16.718c-6.802-0.171-4.802,1.086-5.059-10.203c-0.058-1.857-0.543-2.715-0.229-4.772
	c0.257-1.543,0.257-3.058,0.257-4.658c0-1.687,0-3.43-0.028-5.087c-0.114-3.486-1.114-2.829-0.114-8.831
	c0.286-1.8,0.028-9.631-0.086-11.974c-0.057-0.8-0.285-1.229-0.314-2.201c-0.028-1.257,0.2-1.286,0.372-2.029l0.143-7.145
	c0-1.743-0.457-3-0.2-4.744c0.372-2.257,0.086-2.4-0.229-4.287c-0.429-2.4,0.2-3.372,0.343-4.315
	c0.114-0.686-0.543-6.23,2.058-4.144c0.429,0.343,0.629,0.771,1.058,1.143c0.657,0.571,1.172,0.714,1.743,1.429
	C191.832,50.247,191.431,49.589,191.802,50.333L191.802,50.333z M159.624,21.868c0.486,0.029,0.372,0.2,0.829,0.486
	c0.543,0.314,0.743,0.314,1.114,0.4c0.972,0.343,1.915,1.429,2.572,2.2c1.657,2,2.887,2.458,3.544,3.229
	c1.771,2.058,3.058,1.743,3.429,3.344c0.429,0.543,0.715,1,1.372,1.543c0.8,0.657,1.114,0.571,1.543,1.2
	c1.2,0.229,0.715,0.143,1.458,0.915c0.457,0.486,0.629,0.514,1.086,0.829c0.914,0.6,0.972,1.4,2.258,1.629
	c0.285,0.343,0.028,0.143,0.085,0.657c1.286,0.257,0.687,0.2,1.4,0.972c4.059,4.43,4.173,1.172,3.173,10.832
	c-0.2,1.8,0.429,1.486,0.313,3.744c-0.085,1.543-0.085,2.744,0.172,4.229c0.172,1.086,0.143,7.516-0.086,8.431
	c-0.514,1.886-0.714,1.343-0.143,3.515c0.314,1.257,0,2.629,0.172,4.144c0.457,4.144,0,8.602-0.2,12.574
	c-0.086,1.658,0.257,2.658,0.285,4.116c0.029,2.915,0.086,5.83,0.058,8.745c-0.058,3.344-0.457,5.059-0.086,8.603
	c0.286,2.772,0.058,5.772,0.086,8.573c0.057,3.687,0.457,4.973-3.772,5.087c-5.115,0.114-12.374-0.457-17.318-0.143
	c-1.286,0.085-1.972,0.457-3.772,0.486c-1.4,0-2.429-0.4-3.086-1.115c-1.171-1.2,0.057-13.803,0.171-16.347
	c0.314-1.801-0.229-3.63-0.229-5.401l0.029-8.488c0.028-1.515,0.286-1.058,0.514-2.287c0.543-2.715-0.857-1.372-0.457-4.572
	c0.085-0.829,0.486-12.917,0.257-13.832c-0.257-1.086-0.085,0.2-0.371-1.086c-0.372-1.715,0.6-2,0.4-3.544
	c-0.143-0.972-0.2-1.257-0.2-2.486c0.057-3.543-0.429-26.264-0.057-27.978c0.515-2.401,0.2-2.572,0.057-4.916
	c-0.143-2.201-0.829-8.859,0.343-10.403c1.486-0.171,0.571-0.028,1.743,0.629C159.281,20.896,159.453,20.611,159.624,21.868
	L159.624,21.868z M94.953,107.318c0.372-5.258-0.143-11.231,0.114-16.433l-0.028-16.461c-0.2-5.373,0.2-11.003,0.085-16.461
	c-0.085-2.658-0.4-5.401-0.286-7.973c0.086-1.343,0.286-2.401,0.314-3.887c0-1.4-0.143-2.687,0.057-4.087l3.172-2.086
	c0.314-0.4,0.972-1,1.543-1.572c0.714-0.657,0.085-0.2,0.915-0.8c0.286-0.2,0.6-0.429,0.686-0.486c0.6-1.515,5.059-4.83,6.573-6.059
	c1.543-1.229,2.772-2.887,6.458-5.63c1.057-0.771,1.629-1.543,2.486-2.343l2.543-2.286c0.458-0.429,2.144-2.515,3.172-1
	c0.4,0.229,0.514,0.229,0.629,1.429c0.343,3.315-0.915,4.658-0.6,11.146c0.057,1.314-0.229,1.772,0.143,3.115
	c0.686,2.515,0.6,6.63,0.143,9.145c-1.2,6.316,0.143,7.402,0.257,9.031l0.057,6.544c0.028,1.915-0.172,1.314-0.572,2.744
	c-0.171,0.628-0.028,5.43,0.086,6.201c0.714,4.229,0.486,8.288,0.171,12.575c-0.114,1.4,0.2,4.715,0.229,6.544
	c0.029,2.172,0.057,4.344,0.057,6.516c0,4.458-0.314,8.374-0.057,12.832c0.2,3.429,0.314,10.002-0.114,13.317
	c-1.314,0.686-0.629,0.972-2.915,0.972c-1.257,0-2.4-0.028-3.629-0.114c-4.115-0.229-20.461,0.515-21.376-0.514
	C94.581,119.635,94.781,109.49,94.953,107.318L94.953,107.318z M152.594,15.009c1.572,0.8,1.086,3.515,1.058,5.944
	c-0.143,7.002,0.114,12.917,0,20.091c-0.029,1.257-0.114,2.343-0.086,3.629c0.057,1.543-0.314,2.086-0.286,3.144
	c0,0.915,0.372,1.715,0.372,3.144v10.174c0.028,2.115-0.314,1.429-0.686,2.715c-0.4,1.515,0.458,1.658,0.714,2.629v13.746
	c0.115,4.515,0,9.259-0.028,13.803c-0.029,4.201,0.457,25.006-0.229,27.121c-1.486,0.686-11.431,0.514-14.061,0.657
	c-2.486,0.143-4.715-0.229-7.23-0.2c-2.229,0-5.115,0.314-6.63-0.6c-0.286-2.143-0.257-36.895-0.2-38.838
	c0.171-5.516-0.229-8.402,0.257-14.318c0.114-1.058-0.2-1.029-0.314-2.144c-0.114-0.886,0.028-1.543,0.085-2.4
	c0.2-2.744,0.115-6.916,0-9.688l-0.114-28.807c0.486-6.288-1.029-8.316,1.686-10.517c0.515-0.429,0.772-0.686,1.258-1.172
	l5.029-4.658c0.915-0.8,1.744-1.229,2.744-2.115c0.829-0.743,1.572-1.829,2.943-2.058c2.286-0.4,7.373,4.687,8.659,6.087
	c0.857,0.915,1.601,1.486,2.601,2.258l2.029,1.572C152.68,14.752,152.451,14.295,152.594,15.009L152.594,15.009z M130.132,7.779
	c-0.114,1.057,0.314,0.2-0.514,0.972l-2.115,2.029c-1.144,1-1.858,1.886-2.887,2.658l-5.973,5.145
	c-2.172,2.229-2.372,1.572-4.229,3.543c-0.257,0.286-0.085,0.086-0.343,0.372c-1.4,1.458-4.373,3.801-4.401,3.83
	c-0.686,0.771-2.201,2.372-3.144,2.601l-10.945,9.202c-0.572,0.486-0.743,1.029-1.458,1.257c-0.515,1.572-3.115,3.144-4.258,4.144
	l-3.115,2.944c-0.4,0.343-0.714,0.457-1.172,0.771l-5.544,4.887c-0.229,0.2-0.257,0.229-0.543,0.458
	c-1.601,1.2-1.486,1.943-2.687,2.086v0.714c-0.514,0.314-0.971,0.743-1.486,1.201c-1.543,1.314-0.743,0.915-1.629,1.029
	c-0.143,0.829-0.086,0.514-0.8,1.114l-3.086,2.715c-0.543,0.486-0.6,0.371-1.171,0.771l-5.03,4.43
	c-0.543,0.372-0.829,0.314-1.229,0.686l-7.059,6.516c-1.743,1.8-3.858,3.372-5.801,5.059l-5.916,5.458
	c-3.858,2.715-6.03,5.573-8.059,7.202c-1.171,0.943-1.629,0.6-4.115,3.372c-2.086,2.286-3.058,2.201-5.83,5.287
	c-1,1.115-1.314,0.743-2.229,1.658c-1.772,1.857-0.2,0.429-2.086,1.771c-1.458,1.058-2.686,2.429-4.001,3.515
	c-2.486,2.001-6.058,6.259-8.202,7.03c-0.229,0.458-1.343,1.744-2.172,1.744c-0.343,0.714-0.143,0.514-0.857,1.086
	c-0.486,0.4-0.571,0.372-1.029,0.857c-0.829,0.8-0.943,1.029-1.857,1.686c-0.771,1.715-2.201,0.915-1.6,3.172
	c1.6,0.657,11.402,0.628,13.946,0.571c1.229,0,2.343-0.229,3.629-0.2l7.259,0.229c2.429,0.343,5.744-1.372,5.344,3.801
	c-0.457,5.83,0,11.003-0.028,16.718c0,3.658-0.458,7.688-0.229,11.146c0.086,0.857,0.286,1.372,0.257,2.372l-0.2,14.061
	c0,1.715-0.114,4.201,0,5.801c0.2,2.716,0,13.004-0.028,16.947c-0.029,2.315,0.286,5.916,0.171,8.717
	c-0.057,1-0.229,1.543-0.257,2.657c-0.028,1.943,0.029,3.887,0.029,5.802c-0.029,1.915,0.457,3.201,0.429,5.315
	c-0.029,1.972-0.4,3.915-0.372,5.83c0.057,3.572,0.6,13.604,0.2,16.575c-0.543,3.802,0.2,9.003,0.085,11.231
	c-0.171,2.973,0.343,2.458-0.057,5.431c-0.514,3.687-0.686,9.173,0.057,13.031c0.171,0.886,0.086,1.801-0.028,2.687
	c-0.2,1.457,0,1.515,0.028,2.801c0.029,0.972-0.229,1.857-0.257,2.915c-0.085,3.829,0.115,7.431,0.257,11.117
	c0.086,2.114-0.343,6.487-0.114,8.487c0.114,1.229,0.629,1.943-0.286,2.887c-0.086,1.286,0.314,1.143,0.372,2.429
	c0.229,4.43-0.972,3.602,7.916,3.716c2.715,0.028,5.515,0.028,8.23-0.058c5.373-0.171,10.888,0.286,16.232,0.086
	c5.315-0.172,10.259-0.028,15.718,0c1.943,0,6.173,0.143,7.916-0.143c2.343-0.344,5.201,0.114,7.802,0.143l32.178-0.257
	c2.401-0.058,5.087,0.229,7.745,0.257c2.744,0.028,5.516,0.028,8.23,0c11.746-0.2,25.148,0.314,36.551,0
	c1.343-0.028,2.372-0.257,3.858-0.257c2.486,0.028,5.229,0.229,7.973,0.257h23.977c2.486,0,5.744-0.429,7.916-0.2
	c4.259,0.457,11.402,0.372,16.032,0.257c1.344-0.057,2.229-0.399,3.63-0.313c1.485,0.114,0.171,0.371,3.629,0.371l14.061,0.143
	c1.515-0.143,0.657-0.371,1.657-0.399c1.4,0-0.286,0.343,3.687,0.028c5.115-0.429,4.801,0.371,7.688,0.314
	c1.372-0.028,2.743,0.057,4.115,0.028c2.029,0,2.172,0.372,3.601,0.457c1.343,0.086,2.772-0.143,4.087,0.058
	c0.371-0.801,0.399-0.857,2.457-0.829l10.203,0.114c4.429-0.343,8.229-0.086,12.803-0.028c2.2,0.028,4.344,0.028,6.516,0.086
	c2.486,0.057,4.372-0.258,6.544-0.258c3.943,0,9.459,0.572,13.031,0c0.915-2.771,0.429-8.116,0.457-11.545
	c0-1.943,0.029-3.887,0-5.802c0-0.943,0-2.058-0.257-2.801c-0.286-0.829-0.857-1.286-1.286-1.857
	c-4.601-0.258-9.002,0.6-13.517,0.057c-4.059-0.514-9.517,0.058-13.918-0.171c-2.029-2.486-1.371-4.516-1.371-9.031
	c0-3.687,0-7.201-0.229-10.717c-2.172-0.629-3.687-1.486-6.258-0.743c-2.229,0.629-5.115,0.457-7.631,0.429
	c-2.429-0.028-5.63,0.144-7.944-0.171c-1.314-0.172-1.657-0.601-3.4-0.4c-1.458,0.2-1.887,0.715-3.658,0.4l-0.229-0.2
	c-1.229-1.001-1.029-1.172-1-3.83c0.028-1.8,0.028-3.543,0.028-5.344s0.371-9.46-0.429-10.46c-1.229-1.571-7.259-0.771-9.745-0.857
	h-15.718c-5.602,0.086-4.458-0.028-4.458-11.917l-0.028-21.434c-0.286-2.486-1.2-1.001-0.172-4.259
	c0.486-1.629,0.2-13.66,0.229-15.918l-0.086-61.701c-0.057-2.944,0.058-2.344,0.601-2.715c0.571-0.314,5.516-0.143,6.373,0.057
	c0.714-0.486,1.657-0.429,2.629-0.4h8.459c3.801-0.028,7.63,0.286,11.374-0.057c0.429-0.686,0.857-0.943,0.886-1.486
	c0-0.629-0.743-1.258-1.172-1.601l-3.029-2.258c-0.857-0.286-3.771-3.372-4.801-4.229c-0.714-0.572-0.914-0.6-1.229-1.601
	c-0.372-0.8-0.687-0.6-1.372-1.057l-4.087-3.687c-1.257-0.372-1.571-1.086-2.485-1.915l-6.631-5.658
	c-2.543-2.858-7.145-6.173-8.001-7.288c-0.515-0.657-0.058,0.2-0.486-0.771c-0.114-0.172-0.714-0.686-0.829-0.829
	c-0.628-0.286-0.171-0.057-0.6-0.314c-1.258-0.771-1.372-1.086-2.372-2c-0.571-0.514-0.8-0.8-1.4-1.286
	c-0.657-0.572-0.829-0.486-1-1.4c-2.058-0.172-5.287-4.83-6.944-6.116l-3.687-2.829c-2.572-1.857-8.517-8.059-10.288-9.088
	c-0.972-0.572-1.029-1.029-1.771-1.629l-4.916-4.715c-0.057-0.114-0.171-0.6-0.8-0.857l-0.657-0.343
	c-0.915-0.543-0.829-0.686-1.2-1.029c-0.343-0.343-0.372-0.314-0.801-0.628l-3.829-3.201c-1.086-1.086-2.229-1.744-3.172-2.658
	c-2.229-2.143-2.086-1.4-2.943-2.572c-0.829-1.115-4.43-4.458-5.773-5.63c-3.657-3.201-2.114-1.744-4.743-3.744
	c-0.486-0.371-0.886-0.943-1.258-1.143c-0.686-0.372-1.715-1.114-2.086-1.543c-1.629-1.915-0.629-0.857-1.972-1.486
	c-1.086-0.543,0.257,0.515-0.458-0.4c-0.285-0.343-0.285-0.6-1.086-1.372c-0.285-0.286-0.628-0.543-0.942-0.771
	c-0.058-0.028-0.114-0.085-0.144-0.114c-0.057-0.028-0.114-0.057-0.143-0.086l-2.458-2.086c-0.657-0.829-1.143-1.058-1.743-1.686
	c-0.628-0.658-1.028-1.086-1.686-1.715l-5.487-4.658c-0.657-0.572-1.028-0.829-1.829-1.515c-1.343-1.143,0.114-0.629-1.771-1.572
	l-3.543-3.315c-0.572-0.486-1.058-1.086-1.743-1.629c-1.229-0.972-1.658-1.057-1.658-2c-0.8-0.628-4.172-3.115-4.344-4.144
	c-0.771-0.314-0.286-0.114-0.915-0.485c-0.314-0.229-0.4-0.286-0.714-0.486c-1.743-1.115-2.572-2.229-3.801-3.229l-3.487-2.629
	c-1.086-0.629-0.428-0.257-1.257-1.114c-3.286-3.516-5.172-0.229-6.687,1.057l-2.543,2.029
	C131.818,6.521,131.075,7.379,130.132,7.779L130.132,7.779z"/>
<path fill-rule="evenodd" clip-rule="evenodd" fill="#57BA5F" d="M247.557,245.78c0.4,1.372-0.114,11.403,0.229,15.004
	c0.199,2.029,0.114,5.573,0.057,7.688c-0.028,1.286-0.286,2.601-0.114,3.887c0.429,2.772,0.486,0.4,0.114,3.401
	c-0.2,1.972,0.686,2.886,0.515,5.087c-0.114,1.286-0.143,0.6-0.457,1.457c-0.4,1.114-0.286,9.202-0.086,11.117
	c0.143,1.429,0.457,1.943,0.515,3.372c0.085,2.001-0.429,1.915-0.543,3.372c-0.314,3.544,1.114,3.458,2.914,3.144
	c1.486-0.257,1.544-0.057,2.744,0.086c0.657,0.086,2.543-0.457,5.229-0.457c1.801,0,4.087-0.143,5.83-0.028
	c2.028,0.114,0.057,0.629,5.286,0.629c3.201-0.029,5.83,0.343,7.945-0.515c1.058-0.429,6.687-0.314,8.145,0.171
	c1.601,0.543,3.658,0.344,5.458,0.314c1.857,0,3.172-0.399,4.916-0.629c5.515-0.686,8.744,0.687,10.802,0.687
	c1.943-0.028,3.858-0.058,5.802-0.086c2.486-0.058,2.857,0.343,5.058-0.457c1.001-0.343,4.229-0.457,5.573-0.172
	c1.914,0.429-0.687,0.687,5.115,0.687c1.915,0,3.857,0,5.801,0c1.743-0.801,0.657-5.802,0.715-7.717l0.457-8.716
	c-2.715-1.572-14.374-0.372-18.347-0.4c-2.172,0-4.372-0.086-6.544-0.086c-5.116-0.057-5.459-0.515-5.487-4.372
	c-0.028-1.229-0.485-1.601-0.571-2.858c-0.229-4.115,0.886-8.659,0.343-12.717c-1.543-1.001-9.888-0.829-11.975-0.572
	c-1.285,0.144-1.629-0.229-2.886-0.229c-1.286,0-1.829,0.4-3.144,0.343c-1.687-0.057-4.858-0.143-6.459-0.343
	c-7.087-0.771-6.115,1.144-6.059-7.059l-0.229-12.889c-0.314-0.857-5.43-0.344-6.602-0.372
	C260.161,245.495,255.16,245.438,247.557,245.78L247.557,245.78z"/>
<path fill-rule="evenodd" clip-rule="evenodd" fill="#F1BC6B" d="M152.594,15.009c-1.515-0.257-2.2-1.686-3.4-2.343
	c-0.829-0.457-0.257,0-0.972-0.571c-0.372-0.343-1.858-2.229-3.572-3.658l-3.629-2.858c-0.029-0.057-0.086-0.086-0.143-0.114
	c-0.028-0.057-0.085-0.086-0.143-0.114c-0.029-0.057-0.086-0.086-0.115-0.143c-1.429-1.172-2.629,0-3.972,1.372
	c-0.8,0.857-1.915,1.4-2.8,2.115l-5.03,4.601c-2.972,2.915-2.715,1.314-2.886,6.687c-0.058,1.486,0,3.458-0.115,4.83
	c-0.171,2.029,0.172,2.543,0.086,4.373c-0.257,6.344,0.057,13.146-0.057,19.604c-0.057,4.315,0.229,10.688,0.057,14.518
	c-0.229,5.144,0.6,2.772,0.686,4.115c-0.314,1.286-0.657,1.343-0.686,2.886l0.029,10.174c-0.029,8.602,0.257,19.405,0.057,27.578
	c-0.057,3-0.6,10.945,0.571,12.803c0.629,0.543,17.089,0.229,20.09,0.229c6.173-0.029,7.001,1.829,6.258-6.773
	c-0.143-1.943-0.085-4.744-0.028-6.745c0.143-6.945-0.115-13.546,0.2-20.605c0.057-1.115-0.314-1.744-0.229-3.115l0.257-16.461
	c0.057-1.572-0.743-1.114-0.657-3.144c0.057-1.372,0.486-1.515,0.457-3.115l-0.028-10.403c-0.057-1.029-0.372-1.886-0.343-3.172
	c0.057-2.201,0.286-4.516,0.343-6.516c0.114-4.658-0.143-9.088-0.2-13.546c-0.057-2.743,0.257-3.829,0.343-6.315
	c0.029-1.115,0.029-2.258,0.029-3.373C153.022,16.438,152.508,15.924,152.594,15.009L152.594,15.009z"/>
<path fill-rule="evenodd" clip-rule="evenodd" fill="#F1BC6B" d="M101.525,37.072c-0.085,0.057-0.4,0.286-0.686,0.486
	c-0.829,0.6-0.2,0.143-0.915,0.8c-0.572,0.572-1.229,1.172-1.543,1.572c0,0.8-0.428,1.029-1.086,1.601
	c-0.628,0.515-1.029,0.6-1.572,1c-0.343,2.229-0.143,37.38-0.085,39.638c0.085,3.201-0.171,6.716-0.114,9.917
	c0.057,3.43,0.143,6.487,0,9.917c-0.114,3.344,0.2,6.544,0.143,9.917c-0.028,1.601,0.086,3.287-0.028,4.858
	c-0.057,0.886-0.171,3.544,0.915,4.144c0.514,0.257,23.52,0.143,25.377-0.057c0.829-4.087,0.257-14.089,0.2-18.862
	c-0.085-6.43,0.057-12.86-0.057-19.348c-0.028-3.115,0.257-6.287,0.143-9.431c-0.114-3.172-0.314-6.315-0.286-9.459
	c0.028-1.543,0.286-2.829,0.286-4.572c-0.029-1.601-0.029-3.258,0-4.858c0-1.429-0.457-7.116-0.229-8.459
	c0.057-0.514-0.086,0.029,0.085-0.514c0.172-0.515,0.143-0.4,0.343-0.686l-0.257-17.918l0.028-6.802
	c-0.886,0.028-1.057,0.257-1.571,0.886c-1.258,1.601-0.715-0.057-2,1.658c-1.458,1.972-1.943,1.857-2.744,2.543l-0.943,0.972
	c-0.057,0.029-0.086,0.086-0.143,0.114l-9.288,7.888C103.897,35.243,102.812,37.129,101.525,37.072L101.525,37.072z"/>
<path fill-rule="evenodd" clip-rule="evenodd" fill="#F1BC6B" d="M181.6,41.616c-1.114-0.057-0.629-0.029-1.229-0.943l-3.087-2.486
	c-0.485-0.314-0.257-0.057-0.6-0.372c-0.657-0.571,0.2-0.2-1.2-1c-0.857-0.515-0.657-0.829-1.543-1.772
	c-1.144-1.2-0.715-0.972-2.144-1.172l-0.543-0.972c-2.372-2.372-2.4-0.972-2.943-3.144c-0.771-0.085-0.486-0.114-0.887-0.743
	l-5.744-5.43l-0.114-0.829c-0.371-0.086-0.571-0.086-1.114-0.4c-0.457-0.286-0.343-0.457-0.829-0.486
	c-1.743-0.571-0.486-0.857-2.687-1.086c0.4,8.173-0.114,16.833,0,25.092c0.115,8.259-0.229,16.719,0.143,24.92
	c0.171,3.887-0.286,8.288-0.114,12.346c0.143,4.287-0.029,8.316-0.029,12.574c0,4.23,0.172,8.374,0.115,12.575
	c-0.058,3.344-0.4,9.431,0.114,12.46c2.172,0.543,10.174,0.2,12.945,0.2c1.429,0,10.66,0.343,11.831-0.343
	c0.572-0.314,0.258-0.171,0.572-0.458l0.257-19.576c0.2-3.372-0.143-6.487-0.172-9.688l-0.057-47.44
	c-0.257-1.144,0.057-0.115-0.429-0.857C181.658,41.845,181.829,42.416,181.6,41.616L181.6,41.616z"/>
<path fill-rule="evenodd" clip-rule="evenodd" fill="#F1BC6B" d="M88.351,49.018c-0.743,0.628-1.229,1.057-2,1.686
	c-0.915,0.743-1.172,1.171-1.943,1.886l-4.373,4.115c-2.086,1.714-0.829,0.343-3.458,3.086c-1.286,1.314-1.143,0.915-2.143,1.715
	c-0.543,0.457-1.486,1.057-2.058,1.314l-0.915,1.286c-0.543,0.514-0.515,0.257-0.686,1.257c-2.572,0.229,0.2-0.572-2.829,1.972
	l-2.572,2.429l-0.086,50.155c1.058,1.229,1.686,1.086,3.687,1.029c1.572-0.057,3.229-0.085,4.83-0.114
	c3.115-0.028,6.316,0.029,9.431,0.029c9.917,0.028,8.573,1.314,8.573-10.631c0-6.458,0.286-19.776-0.114-26.149
	c-0.057-1.171-0.429-1.314-0.457-1.657c0-0.143,0.4-1.172,0.486-1.715c0.085-0.743,0.085-1.658,0.085-2.401
	c0-1.686,0-3.315-0.028-5.001l-0.915-0.543c-0.029-0.8-0.029-1.686,0-2.486c0.028-0.8,0-0.743,0.429-1.4
	c0.372-0.6-0.086,0.257,0.343-0.515c-1.886-4.058,0.057-5.344,0.171-7.716c0.257-5.287-0.829-3.916-0.714-5.544
	c0.057-0.6,0.171-0.6,0.372-1c0.2-0.458,0,0.229,0.229-0.515c0.6-2.258-0.4-2.543-0.657-3.315s-0.143-2.201-0.171-3.086
	l-0.314,0.343C89.694,48.418,89.58,48.903,88.351,49.018L88.351,49.018z"/>
<path fill-rule="evenodd" clip-rule="evenodd" fill="#F1BC6B" d="M209.606,66.165c-1,0.028-0.114,0.143-0.828-0.143
	c-1.086-0.429-1.286-1.143-1.486-1.4s-0.743-0.743-1-0.972c-0.8-0.6-0.571-0.486-1.687-0.486c-0.085-1.229,0.229-0.4-0.914-1.515
	l-0.457-0.486c-0.4-0.457-0.343-0.514-0.801-0.886c-0.828-0.714-0.629,0.114-0.857-1.314c-0.657-0.658-0.457-0.972-1.515-1.658
	c-0.485-0.343-0.543-0.314-1.028-0.714c-0.571-0.458-0.086-0.515-0.914-0.486c-0.801-0.114-0.601,0.486-0.658-0.172
	c-0.6-0.428-2.086-1.771-2.657-2.343c-1.114-1.086-1.771-0.943-2.429-2.744l-0.572-0.514c-1.143,0.057-0.657,0.028-1.229-0.486
	c-0.8-0.657-1.601-1.829-3.058-1.972c-0.601,1.172-0.258,34.866-0.258,36.238c-0.028,2.715-0.257,34.123,0.114,36.209
	c0.857,0.457,0.058,0.714,2.83,0.6l10.631,0.028c2.343-0.028,4.687-0.057,7.029-0.028c3.544,0.028,3.744,0.543,5.773-1.372
	c0.171-1.8,0.314-12.517-0.144-13.489c-0.485-0.972-0.972-0.771-0.686-2.515c0.314-2.143,1.286-0.343,0.886-9.288
	c-0.028-0.972,0.028-2.544-0.057-3.373c-0.144-1.372-1.029-0.886-0.829-2.372c0.143-0.943,1.058-1.171,0.857-2.429
	c-0.229-1.4-1.4-0.829-0.229-3.372c0.028-0.057,0.057-0.114,0.086-0.171c0.514-1.315-0.2-9.345,0.229-11.975
	c-0.572-0.543-0.258,0.171-1.515-1.458l-1.743-1.657c-0.314-0.286-0.258-0.143-0.486-0.486
	C209.463,66.308,209.75,66.651,209.606,66.165L209.606,66.165z"/>
<path fill-rule="evenodd" clip-rule="evenodd" fill="#F1BC6B" d="M227.725,82.055l-1.372-1.2c-0.343-0.429,0.143-0.115-0.429-0.572
	l-0.915-0.057c-0.428-0.714-2.715-2.629-3.743-3.086c-1.372-0.629-0.8-0.714-1.629-1.629l-2.2-1.486
	c-0.114,7.831,0.028,15.775,0,23.634c-0.029,3.658-0.4,21.091,0.199,23.12c1.201,0.4,23.377,0.372,26.406,0.229l-0.086-24.32
	c-0.028-0.028-0.543-0.4-0.571-0.429l-2.172-1.714c-0.486-0.429,0-0.029-0.601-0.4l-3.144-3.115
	c-0.285-0.229-0.257-0.171-0.543-0.372l-2.743-2.629c-0.057-0.028-0.086-0.085-0.143-0.114c-1.229-1.114-2.858-2.201-3.915-3.344
	c-0.886-1-0.657-0.915-2.087-1.515L227.725,82.055z"/>
<path fill-rule="evenodd" clip-rule="evenodd" fill="#F1BC6B" d="M50.915,81.483c-0.114,1.058,0.171,0.257-0.515,0.972
	c-0.657,0.743-1.657,1.943-2.658,1.972c-0.8,0.257-1.314,1.657-2.343,1.743c-0.4,1.257-0.915,1.257-2.286,2.343l-4.487,4.201
	c-2.314,2.086-0.8,0.829-2.486,1.686c-0.2,1.629-0.657,1.372-1.343,2.286c-0.172,1.772,0.314,2.915-0.143,4.687
	c-1.058,4.144,1.029,1.972-0.286,4.344c0,0.028-0.057,0.085-0.086,0.171c1.429,2.686,0.458,2.515,0.458,6.516l0.028,5.83
	c0,0.2,0,0.771,0,0.943c0.229,1.886-0.286-1.343,0.086,0.458c0.028,0.057,0.057,0.143,0.057,0.2c0.486,2.029,5.515,0.4,5.772,0.372
	c1.257-0.029,1.8,0.571,2.858,0.686l15.032-0.085c2.629,0,1.115-0.171,3.144-0.886v-2.915l-0.829-0.372
	c-0.486-2.058-0.257-8.716-0.114-11.231l-0.029-21.834c-0.229-2.086,0.4-1.058,0.629-2.201c0.229-1.057-0.372-0.915-0.6-1.886
	c-0.372-1.4,0.4-4.315-0.4-5.201c-0.314-0.429,0,0-1.143,0.771c-0.057,0.029-0.114,0.057-0.143,0.086l-0.829,0.628
	c-0.257,0.257-0.8,0.886-1.086,1.144l-3.572,2.972C52.715,80.797,52.058,81.54,50.915,81.483L50.915,81.483z"/>
<path fill-rule="evenodd" clip-rule="evenodd" fill="#0D0E10" d="M135.104,242.266c-2.715,0.257-18.204-0.028-19.119,0.314
	c-5.687-0.601-18.433,1.086-20.376-0.486c-1.257-1.229-0.628-8.259-0.6-10.631c0-3.63,0.114-7.517-0.028-11.146
	c-0.143-3.887,0.028-7.517,0.028-11.374c0-3.572-0.372-7.659-0.2-11.117c0.343-7.603-0.172-15.004,0.171-22.491
	c0.143-3.487,0.143-7.945-0.143-11.374c-0.114-1.715,0.057-3.801,0.057-5.573c0.029-2.715-0.771-2.429,0.686-4.687
	c3.258-0.571,27.12-0.085,33.15-0.286c3.83-0.114,7.145,0.229,10.888,0.2c7.544-0.058,14.975-0.058,22.49-0.029
	c3.801,0.029,7.631-0.286,11.374-0.143c1.743,0.086,3.716,0.343,5.315,0.343c4.916-0.029,5.716-0.857,5.116,4.83
	c-0.144,1.458,0.171,2.915,0.229,4.373c0.143,3.916-0.314,15.49-0.144,17.261c0.429,4.115-0.171,12.46-0.028,17.09l0.058,17.434
	c-0.029,1.571,0.199,2.857,0.229,4.344c0.057,1.2-0.2,2.687-0.2,4.115l0.028,17.433c-0.086,1.715-0.629,1.943-2.343,2.058
	c-4.516,0.286-14.775-0.515-17.204-0.172c-2.315,0.314-10.26-0.028-12.574-0.114c-4.544-0.143-10.917,0.601-15.003,0.372
	c-0.2-0.028-0.8-0.086-0.972-0.143c-1.458-0.4,1.257,0.514-0.457-0.172c-0.057-0.028-0.171,0-0.2-0.114
	C135.276,242.294,135.19,242.322,135.104,242.266L135.104,242.266z M92.009,195.396c0.257,2.43,0.4,1.314,0.6,2.486
	c0.2,1-0.2,1.629-0.171,2.829l-0.2,12.347c-0.114,2.258,0.229,3.915,0.2,6.315l-0.029,18.862c0.057,1.285,0.314,1.285,0.2,2.914
	c-0.143,2.115,0.257,1.372,0.514,2.658c0.915,0.686,1.115,1.887,4.63,0.771c1.486-0.485,0.972,0.086,2.029,0.258
	c0.915,0.143,1.372-0.458,2.315-0.515l12.06,0.314c2.658,0.314,2.229,0.771,5.116-0.144c2.2-0.657,8.945,0.058,11.402,0.314
	c2.286,0.229,4.115-0.343,5.887-0.085c2.4,0.371,4.086-1.144,11.06-0.029c4.429,0.715,7.687-0.457,11.831-0.457
	c1.972,0.028,3.887,0.143,5.716,0.429c5.943,0.943,13.031-0.829,17.146-0.286c2.229,0.286,3.515,0.286,3.801-2.028
	c0.6-5.173-0.715-11.66,0.057-17.947l-0.143-11.832c0.058-2,0.028-4.029,0-6.03c-0.058-2.058-0.314-3.772-0.143-5.887
	c0.257-3.572,0.171-8.202,0.143-12.031c0-1.144,0.143-1.743,0.172-2.658c0.057-2.429-0.372-4.315-0.029-8.945l-0.143-12.146
	c-0.485-3.858,0.314-7.888-0.172-12.06l-0.514-0.972c-2.973-0.2-5.716,0.057-8.717-0.029c-2.886-0.085-5.772-0.171-8.688-0.171
	c-17.204,0.086-35.293-0.257-52.269-0.057c-5.801,0.086-11.631,0.114-17.432,0.057c-3.287-0.028-5.287-0.628-5.687,2.886
	c-0.257,2.344-0.6,4.315,0.171,6.202c0.8,1.886-0.4,1-0.343,3.201c0.057,2.601,0.314,2.601,0.229,6.545
	c-0.086,2.771-0.343,5.716-0.229,8.431c0.143,2.829,0.229,5.572,0.229,8.517c0,1.457,0.028,2.914,0,4.344
	c0,0.714,0.028,1.543,0,2.229C92.523,195.769,92.095,195.368,92.009,195.396L92.009,195.396z"/>
<path fill-rule="evenodd" clip-rule="evenodd" fill="#C2C2C2" d="M34.911,302.537c0-1.886-0.143-3.715-0.057-5.744
	c0.085-1.915,0.314-3.601,0.229-5.572c-0.143-3.516-0.343-8.174-0.143-11.604c0.372-5.687-0.457-12.003-0.372-16.946
	c0.057-2.058,0.486-3.059,0.515-5.059c0.057-3.915-0.171-7.717-0.171-11.632l0.229-8.345c-0.171-1.4-0.114-1.4-0.114-2.801
	c0.028-1.144-0.343-1.629-0.314-2.658c0.029-0.856,0.229-1.429,0.229-2.657c0.029-2.115-0.257-13.146,0.286-14.318
	c0.314-0.686,0.743-0.714,0.172-1.743c-0.429-0.771-0.229,0.486-0.486-1.086c-0.029-0.285,0-1.143,0-1.485c0-0.972,0-1.943,0-2.887
	c0.028-1.972,0.085-3.858,0.143-5.83c0.114-4.029-0.343-7.373-0.314-11.374c0.028-3.944,0.371-7.23,0.028-11.117
	c-0.314-3.544-0.028-7.002-0.028-10.889c0-1.943,0.4-3.829,0.286-5.544c-0.143-1.943-0.029-3.83-0.229-5.602
	c-0.372-3.486,0.143-7.773-0.029-11.346c-0.114-1.972,0.515-3.915-0.028-5.258c-0.429-1.058-0.658-0.915-0.343-2.372
	c0.486-2.258,0.572-5.944,0.486-8.031c-0.114-3.258,0.229-2.257-0.628-4.687c0.343-0.572,0.686-1.058,1.314-1.229l23.977-0.028
	c4.258-0.143,9.002-0.086,13.289-0.029l39.923,0.114c7.859,0.086,18.747-0.372,26.377-0.028c4.258,0.2,8.974-0.2,13.317-0.057
	c4.287,0.143,8.973,0.085,13.289,0.028c8.773-0.114,17.689,0.229,26.377,0c4.372-0.114,9.06,0.257,13.317,0.057l20.09-0.028
	c1.772,0.114,1.229,0.771,2.63,0.657c1.399-0.086,0.285-0.572,2.429-0.572l11.603-0.028c0.485,0.057,0.886,0.286,1,0.714
	l0.629,1.972c0.314,0.829,0.172,1.886,0.172,2.83l-0.058,8.488c-0.2,1.657-0.657,0.486-0.2,2.058c0.943,3.086-1.058,2.458-0.2,4.344
	c0.515,1.086,0.458,0.972,0.486,2.515c0,0.972,0,1.943,0,2.915l-0.028,84.192c0,7.487,0.114,15.032,0,22.52
	c-0.086,7.517,0.028,15.004,0,22.491c-0.058,7.459-0.144,15.176,0.057,22.635l-10.202,0.086c-1.543,0.313-2.601,1.571-5.487,0.313
	c-1.686-0.742-13.889-0.399-16.203-0.229c-2.344,0.172-4.115-0.085-6.23-0.171c-4.229-0.144-9.059-0.029-13.316,0.086
	c-4.373,0.114-9.116-0.058-13.546-0.086c-2.286,0-4.487,0.114-6.773,0.028c-1.914-0.086-1.657,0.515-2.715,0.629
	c-0.686,0.057-1.343-0.457-2.372-0.601c-1.943-0.229-22.004,0.058-26.605-0.057c-3.572-0.114-5.03,0.6-6.259,0.485
	c-2.857-0.257-1.886-0.485-6.315-0.457l-20.09-0.028C97.182,302.623,35.94,302.194,34.911,302.537L34.911,302.537z M34.168,124.551
	c-0.771,0.571-0.314,3-0.314,4.315l-0.028,14.518c-0.143,3.144,0.028,6.487,0,9.688c-0.029,1.572-0.143,3.201,0.057,4.772
	c0.286,2.029-0.143,2.543-0.029,4.401c0.458,1.029,0.2,0.171,0.343,0.572c0.428,1.2-0.314,2.286-0.4,2.687l-0.085,23.12
	c0,1.543,0,3.086-0.029,4.601c0,2.172,0.714,7.602,0.543,8.945c-0.086,0.8-0.372,1.086-0.486,1.972l-0.057,11.346
	c0.114,1.629,0.286,2.715,0.286,4.602c0,1.485-0.257,2.629-0.257,4.344c0.028,3.001-0.172,6.259,0.057,9.202
	c0.229,3.258,0.143,5.887,0,8.945c-0.114,1.8-0.229,7.716,0.171,8.974c0.286,0.914,0.486,0.743,0.4,1.857
	c-0.314,4.258,0.714,2.372-0.343,6.259c-0.343,1.229-0.372,10.146,0,11.374c1.314,4.602-0.229,7.173-0.171,10.745
	c0.028,1.801,0.286,2.801,0.429,4.201c0.229,1.943-0.486,0.114,0.114,4.287c0.229,1.686,0,3.001-0.229,4.401
	c-0.229,1.171-0.314,3.058-0.314,4.286c0.028,3.315-0.314,3.687,1.086,3.572c0.028,0.343-0.657,0.857,1.771,0.429
	c2.629-0.457,3.115,0.372,5.916,0.4c2.801,0,5.944,0.114,8.716,0c2.944-0.114,5.487-0.457,8.288-0.086
	c2.343,0.314,39.094-0.086,43.495-0.086l26.12,0.144c2.601,0,5.43,0.857,7.945,0.2c2.115-0.601,13.403-0.229,16.747-0.115
	c2.829,0.086,5.83-0.057,8.688-0.085c4.944-0.029,5.059,0.429,8.002,0.429c0.343-0.687-0.458-0.258,0.942-0.601l17.919-0.028
	c4.572,0.371,10.831-0.486,18.375,0.2c2.772,0.257,6.287-0.372,9.202-0.343h9.459c4.344,0.514,1.743,1.343,8.488,0.114
	c2.771-0.515,6.43,0.285,9.002-0.258c0.828-1.486,0.399-9.174,0.399-11.374v-50.584c0-1.258,0.258-1.657,0.2-2.657
	c-0.028-0.801-0.257-1.201-0.229-2.401c0.028-3.801-0.028-7.602,0.028-11.402c0.028-3.887,0.229-6.859,0.144-10.889
	c-0.086-3.315,0.371-4.716,0.343-5.572c-0.029-1.801-0.429-0.743-0.486-2.401c-0.028-0.828,0-1.8,0-2.657
	c0-3.716-0.028-7.431-0.028-11.146c0-7.488,0-15.004,0-22.491c0-7.316,0.314-15.29,0-22.492c-0.172-3.772,0-7.373,0-11.146
	c0-2.086,0.286-9.574-0.286-11.031c-2.571-0.543-14.66,0.2-16.632,0c-4.544-0.4-5.315-0.257-9.917-0.171
	c-5.715,0.114-14.374-0.286-19.832-0.029c-1.286,0.057-2.001-0.2-3.144-0.257c-1.086-0.057-1.829,0.2-2.915,0.2
	c-12.175,0.086-27.778,0.229-39.923-0.057c-4.287-0.114-8.773,0.171-13.06,0.029c-8.688-0.286-17.975,0.429-26.606,0.028
	c-4.372-0.171-8.916,0.086-13.317,0.029c-4.287-0.057-8.802-0.229-13.06-0.057c-8.659,0.343-17.661-0.286-26.377,0
	c-4.429,0.143-8.859-0.372-12.888-0.057c-1.972,0.171-3.086-0.543-5.83-0.143C38.455,124.437,36.397,124.236,34.168,124.551
	L34.168,124.551z"/>
<path fill-rule="evenodd" clip-rule="evenodd" fill="#C2C2C2" d="M309.2,282.361c0.371,0.942,0.829,0.628,3.172,0.628
	c1.229,0,2.43,0,3.63,0c1.943,0,5.172-0.229,6.915,0.058c2.744,0.457,3.001,0.601,6.316,0.429c2.114-0.086,4.001-0.629,6.401-0.486
	c4.172,0.2,3.314,7.202,3.344,10.889c0,1.114,0.114,9.859-0.144,10.574c-0.857,2.544-2.343,2.458-6.401,2.144
	c-0.429-0.028-0.515-0.028-0.914-0.114c-2.772-0.629-3.315-0.229-6.802-0.258c-0.485,0-1.229-0.057-1.687-0.028
	c-0.657,0.058-0.313,0.028-0.714,0.172c-1.715,0.571-1.829,0.399-3.887,0.343c-5.029-0.143-14.688-0.743-19.09-0.286
	c-2.058,0.229-7.716,0-10.202-0.114c-1.515-0.086-1.801,0.2-2.943,0.286c-1.314-0.2-2.744,0.028-4.087-0.058
	c-1.429-0.085-1.571-0.457-3.601-0.457c-1.372,0.028-2.743-0.057-4.115-0.028c-2.887,0.057-2.572-0.743-7.688-0.314
	c-3.973,0.314-2.286-0.028-3.687-0.028c-1,0.028-0.143,0.257-1.657,0.399l-14.061-0.143c-3.458,0-2.144-0.257-3.629-0.371
	c-1.4-0.086-2.286,0.257-3.63,0.313c-4.63,0.115-11.773,0.2-16.032-0.257c-2.172-0.229-5.43,0.2-7.916,0.2h-23.977
	c-2.743-0.028-5.486-0.229-7.973-0.257c-1.486,0-2.516,0.229-3.858,0.257c-11.402,0.314-24.805-0.2-36.551,0
	c-2.715,0.028-5.487,0.028-8.23,0c-2.658-0.028-5.344-0.314-7.745-0.257l-32.178,0.257c-2.601-0.028-5.458-0.486-7.802-0.143
	c-1.743,0.285-5.973,0.143-7.916,0.143c-5.458-0.028-10.402-0.172-15.718,0c-5.344,0.2-10.859-0.257-16.232-0.086
	c-2.715,0.086-5.516,0.086-8.23,0.058c-8.888-0.114-7.688,0.714-7.916-3.716c-0.057-1.286-0.458-1.143-0.372-2.429
	c0-1.772-0.429-2.229-0.429-3.344c0.028-1.258,0.114-1.629,0-2.973c-0.2-2.571,0.943,0.144,0.114-5.801
	c-0.4-2.715-0.257-6.888-0.257-9.889c0-1.485,0.286-1.8,0.372-2.915c0.114-1.429-0.514-1.543-0.085-2.972
	c1.114-3.744-0.2-1.687-0.286-5.716c-0.057-2.458-0.085-7.974,0.229-9.917c0.628-3.829-0.029-2.343,0.028-6.315
	c0.029-1.2-0.257-1.915-0.286-3.115l0.286-9.945c0-1.343,0.372-1.743,0.229-3.144c-0.628-6.173-0.8-9.688-0.057-16.004
	c0.314-2.687-0.457-3.887-0.457-6.259c0.028-2.229-0.029-4.544,0.028-6.773c0.029-1.657,0.343-5.201,0.114-6.43
	c-0.486-3.058-0.171-10.231-0.114-13.66c0.171-6.688-0.143-13.547,0.029-20.319c0.028-1.315,0.486-1.858,0.4-2.887
	c-0.114-1.143-0.457-1.143-0.372-2.915c0.057-2.115-0.085-4.601-0.085-6.773v-20.319c0-1.172,0.4-5.916,0.314-6.202
	c-0.458-1.629-1.744-0.829-5.458-1.029c-1.115-0.086-2.258,0-3.401,0.028c-1.543,0.029-1.657-0.286-2.858-0.4
	c-1.457-0.086-1.972,0.429-6.315,0.143c-2.144-0.171-4.601-0.086-6.773-0.086c-2.115,0-4.687,0.257-5.544-1.172
	c-0.372-1.086,1.057-2.543,2.4-3c0.915-0.657,1.029-0.886,1.857-1.686c0.458-0.486,0.543-0.458,1.029-0.857
	c0.715-0.572,0.515-0.372,0.857-1.086c-0.943,0-1.458,0.286-2.429,1.429c-1.771,2.086-5.572,3.229-4.172,5.859
	c1.229,2.286,14.632,1.286,18.576,1.257l7.63,0.171c1.515,0.143,2.4-0.057,3.829,0.029c0.029,2.715,0,5.373,0.029,8.03
	c0.114,5.83-0.429,18.833-0.057,23.234c0.4,4.515,0.114,10.888,0,15.518c-0.057,1.086-0.257,1.258-0.286,1.515
	c-0.029,0.457,0.686,1.229,0.171,2.486c-0.029,0.058-0.086,0.114-0.114,0.172c-0.029,0.085-0.143,0.229-0.172,0.285
	c-0.343,0.657-0.343,0.543,0,1.2c0.886,1.743,0.343,0.515,0.4,3.516c0.028,1.314,0.057,2.543,0.028,3.858
	c-0.143,20.633,0.343,41.381,0.029,61.958c-0.229,12.603,0.314,26.264-0.029,38.695c-0.028,1.429,0.057,2.371,0.172,3.657
	c0.171,1.715-0.115,2.344-0.172,3.858c-0.085,2.258-0.057,5.516,0.029,7.745c0.057,1.343,0.657,1.914,0.714,3.144
	c0.057,1.4-0.028,2.515,1.029,3.001c1.257,0.571,12.66,0.371,14.832,0.171c4.572-0.4,9.745,0.229,14.774,0.229
	c2.629-0.028,4.887-0.114,7.487-0.2c5.001-0.171,8.716,0.429,15.032-0.057c1.343-0.114,1.972,0.314,3.601,0.229
	c6.001-0.286,12.488,0.257,19.119-0.2c2.058-0.143,5.172,0.172,7.516,0.258c2.486,0.057,5.201-0.029,7.716-0.029
	c12.088,0.058,27.178-0.371,38.723,0c2.4,0.058,5.545-0.285,7.717-0.028c3.829,0.485,10.916,0.086,15.26,0.058
	c30.864-0.172,62.042,0.229,92.935,0.114l38.494,0.171c1.887,0.028,5.287-0.114,7.459-0.2c5.001-0.229,10.688,0.4,15.489-0.085
	c0.457-2.029,0.657-0.715,1.028-1.744c0.543-2.857,0.144-10.459,0.086-13.774c-0.028-3.144,0.457-5.744-0.657-6.974
	c-1.543-1.686-0.571-2.143-3.829-2.114c-5.43,0-3.401,0.343-6.059,0.715c-4.229,0.571-4.544-0.572-6.03-0.715L309.2,282.361z"/>
<path fill-rule="evenodd" clip-rule="evenodd" fill="#F1BC6B" d="M268.105,117.663c-0.286-0.771-3.715-3.315-4.801-4.315
	l-7.059-6.259c-0.943-0.943-1.858-1.972-3.087-2.715c-0.657-0.4-0.543-0.029-0.972-0.686c-1.972-0.6-2.343-2.515-4.4-3.144
	c-0.086,2-0.115,3.287,0.143,5.287l-0.172,10.688c-0.057,1.772-0.285,3.801,1.144,4.344c1.229,0.457,19.376,0.343,22.119,0.286
	c-0.457-1.229-0.429-0.057-2.144-2.258C268.105,117.92,268.59,119.235,268.105,117.663L268.105,117.663z"/>
<path fill-rule="evenodd" clip-rule="evenodd" fill="#F1BC6B" d="M29.539,120.921c1.543-2.115,1-7.259,1-9.717
	c0-4.515,0.143-3.572-0.343-7.745c-0.114-0.943,0.085-2.058,0.143-3.001c-1.458,0.143-0.686-0.057-1.8,0.829l-3.029,2.743
	c-2.115,2.572-4.544,3.601-6.858,5.745l-6.544,6.03c-0.429,0.372-0.6,0.543-1.029,0.915l-1.257,0.915
	c-0.343,0.257-1.972,1.658-2.115,2c-1.143,2.601,5.687,0.771,5.83,0.771c2.601-0.114,5.83-0.028,8.517-0.028
	C23.937,120.407,26.452,121.836,29.539,120.921L29.539,120.921z"/>
<path fill-rule="evenodd" clip-rule="evenodd" fill="#7C7B75" d="M286.195,306.596c1.143-0.086,1.429-0.372,2.943-0.286
	c2.486,0.114,8.145,0.343,10.202,0.114c4.401-0.457,14.061,0.144,19.09,0.286c2.058,0.057,2.172,0.229,3.887-0.343
	c0.4-0.144,0.057-0.114,0.714-0.172c0.458-0.028,1.201,0.028,1.687,0.028c3.486,0.029,4.029-0.371,6.802,0.258
	c0.399,0.086,0.485,0.086,0.914,0.114c4.059,0.314,5.544,0.4,6.401-2.144c0.258-0.715,0.144-9.46,0.144-10.574
	c-0.029-3.687,0.828-10.688-3.344-10.889c-2.4-0.143-4.287,0.4-6.401,0.486c-3.315,0.172-3.572,0.028-6.316-0.429
	c-1.743-0.286-4.972-0.058-6.915-0.058c-1.2,0-2.4,0-3.63,0c-2.343,0-2.801,0.314-3.172-0.628c-1.458-2.401,0.4-17.005-0.743-18.662
	c-1.915-2.772-8.773-0.8-10.831-0.857c-5.486-0.114-7.03,0.114-12.603-0.457c-3.486-0.372-4.372,0.457-6.03,0.4
	c-0.628-1.144-0.828-0.286-0.972-1.801l0.058-8.002c0-11.632,0.886-10.945-5.144-10.889c-1.715,0-3.602,0.028-5.316,0
	c-2.028-0.057-2.715-0.171-4.829-0.028c-1.657,0.114-3.658,0.028-5.344,0.028c-2.344,0-8.631,0.572-9.574-1.028
	c-0.628-1.086,0.086-27.636-0.229-31.637c-0.2-2.286-0.371-2.429-0.057-4.858c0.257-1.915,0.085-34.408,0.114-37.237
	c0.028-14.204-0.029-28.436,0.028-42.639c-0.543,0.371-0.657-0.229-0.601,2.715l0.086,61.701
	c-0.028,2.258,0.258,14.289-0.229,15.918c-1.028,3.258-0.114,1.772,0.172,4.259l0.028,21.434c0,11.889-1.144,12.003,4.458,11.917
	h15.718c2.486,0.086,8.517-0.714,9.745,0.857c0.8,1,0.429,8.659,0.429,10.46s0,3.544-0.028,5.344c-0.029,2.658-0.229,2.829,1,3.83
	l0.229,0.2c1.771,0.314,2.2-0.2,3.658-0.4c1.743-0.2,2.086,0.229,3.4,0.4c2.314,0.314,5.516,0.143,7.944,0.171
	c2.516,0.028,5.401,0.2,7.631-0.429c2.571-0.743,4.086,0.114,6.258,0.743c0.229,3.516,0.229,7.03,0.229,10.717
	c0,4.516-0.658,6.545,1.371,9.031c4.401,0.229,9.859-0.343,13.918,0.171c4.515,0.543,8.916-0.314,13.517-0.057
	c0.429,0.571,1,1.028,1.286,1.857c0.257,0.743,0.257,1.857,0.257,2.801c0.029,1.915,0,3.858,0,5.802
	c-0.028,3.429,0.458,8.773-0.457,11.545c-3.572,0.572-9.088,0-13.031,0c-2.172,0-4.058,0.314-6.544,0.258
	c-2.172-0.058-4.315-0.058-6.516-0.086c-4.573-0.058-8.374-0.314-12.803,0.028l-10.203-0.114
	C286.594,305.738,286.566,305.795,286.195,306.596L286.195,306.596z"/>
<path fill-rule="evenodd" clip-rule="evenodd" fill="#7C7B75" d="M34.168,124.551c2.229-0.314,4.287-0.114,6.401-0.429
	c2.744-0.4,3.858,0.314,5.83,0.143c4.029-0.314,8.459,0.2,12.888,0.057c8.716-0.286,17.718,0.343,26.377,0
	c4.258-0.172,8.773,0,13.06,0.057c4.401,0.057,8.945-0.2,13.317-0.029c8.631,0.4,17.918-0.314,26.606-0.028
	c4.287,0.143,8.773-0.143,13.06-0.029c12.145,0.286,27.749,0.143,39.923,0.057c1.086,0,1.829-0.257,2.915-0.2
	c1.143,0.058,1.857,0.314,3.144,0.257c5.458-0.257,14.117,0.143,19.832,0.029c4.602-0.086,5.373-0.229,9.917,0.171
	c1.972,0.2,14.061-0.543,16.632,0c0.572,1.458,0.286,8.945,0.286,11.031c0,3.772-0.172,7.373,0,11.146
	c0.314,7.202,0,15.175,0,22.492c0,7.487,0,15.003,0,22.491c0,3.715,0.028,7.43,0.028,11.146c0,0.857-0.028,1.829,0,2.657
	c0.058,1.658,0.457,0.601,0.486,2.401c0.028,0.856-0.429,2.257-0.343,5.572c0.085,4.029-0.115,7.002-0.144,10.889
	c-0.057,3.801,0,7.602-0.028,11.402c-0.028,1.2,0.2,1.601,0.229,2.401c0.058,1-0.2,1.399-0.2,2.657v50.584
	c0,2.2,0.429,9.888-0.399,11.374c-2.572,0.543-6.23-0.257-9.002,0.258c-6.745,1.229-4.145,0.399-8.488-0.114h-9.459
	c-2.915-0.029-6.43,0.6-9.202,0.343c-7.544-0.687-13.803,0.171-18.375-0.2l-17.919,0.028c-1.4,0.343-0.6-0.086-0.942,0.601
	c6.115-0.086,12.774-0.258,18.861-0.029c6.087,0.258,12.202-0.143,18.403,0.114c5.83,0.286,12.46-0.571,18.376-0.114
	c3.144,0.258,5.516,0.286,8.716,0c2.973-0.257,6.173,0.172,9.202-0.114c1.058-2.258,0.515-2.515,0.543-5.144
	c0.028-2.087,0.429-3.401,0.143-5.487c-0.143-1.114,0.344-4.315,0.286-5.145c-0.028-1.143-0.429-0.857-0.429-2.429V265.1
	c0-5.115,0.372-4.001,0.486-5.344c0.085-1.029-0.458-1.43-0.543-2.258l0.229-14.146c0.057-1-0.229-2.115-0.114-2.887
	c0.143-1.028,0.857-1.028,0.514-2.486c-0.314-1.258-0.657-0.285-0.657-2.144l0.029-8.745c0-10.345,0.171-4.943,0.657-7.944
	c0.171-1.086-0.657-5.544-0.229-8.431c0.571-3.601,0.343-2.601-0.229-5.229c-0.457-2.058-0.085-64.588-0.171-75.419
	c-0.028-4.087,0.629-5.573-1-5.944c-0.229-0.057-0.486-0.057-0.715-0.057c-0.515-0.029-1.172-0.029-1.715,0l-37.008-0.029
	c-2.286,0-4.544,0-6.802,0c-1.486,0.029-1.715-0.314-2.886-0.429c-1.286-0.143-1.629,0.286-2.887,0.343
	c-6.345,0.314-19.747,0-26.863,0c-4.458,0-8.888,0.028-13.317-0.086c-2.286-0.057-4.487,0.114-6.773,0.114
	c-1.229-0.028-2.115-0.314-3.144-0.286c-1.058,0.029-1.543,0.229-2.915,0.2c-4.458-0.086-8.973,0.028-13.546-0.086
	c-1.229-0.057-1.943,0.229-3.144,0.229h-9.917c-4.515,0-9.03,0-13.545,0c-4.258-0.028-9.374-0.343-12.889-0.028
	c-3.401,0.314-15.832,0.057-20.004-0.229c-1.257-0.057-1.8,0.371-3.029,0.2c-1.257-0.2-1.486-0.171-3.029-0.085L49.6,123.55
	c-1.4-0.028-1.801,0.143-2.915,0.257c-1.314,0.114-1.886-0.229-3.115-0.257c-2.829-0.143-3.972,0.314-6.544,0.314
	C35.654,123.865,34.768,123.693,34.168,124.551L34.168,124.551z"/>
<path fill-rule="evenodd" clip-rule="evenodd" fill="#57BA5F" d="M247.557,245.78c7.603-0.343,12.604-0.285,20.062-0.229
	c1.172,0.028,6.287-0.485,6.602,0.372l0.229,12.889c-0.057,8.202-1.028,6.287,6.059,7.059c1.601,0.2,4.772,0.286,6.459,0.343
	c1.314,0.058,1.857-0.343,3.144-0.343c1.257,0,1.601,0.372,2.886,0.229c2.087-0.257,10.432-0.429,11.975,0.572
	c0.543,4.058-0.571,8.602-0.343,12.717c0.086,1.258,0.543,1.629,0.571,2.858c0.028,3.857,0.371,4.315,5.487,4.372
	c2.172,0,4.372,0.086,6.544,0.086c3.973,0.028,15.632-1.172,18.347,0.4l-0.457,8.716c-0.058,1.915,1.028,6.916-0.715,7.717
	c-1.943,0-3.886,0-5.801,0c-5.802,0-3.201-0.258-5.115-0.687c-1.344-0.285-4.572-0.171-5.573,0.172
	c-2.2,0.8-2.571,0.399-5.058,0.457c-1.943,0.028-3.858,0.058-5.802,0.086c-2.058,0-5.287-1.372-10.802-0.687
	c-1.744,0.229-3.059,0.629-4.916,0.629c-1.8,0.029-3.857,0.229-5.458-0.314c-1.458-0.485-7.087-0.6-8.145-0.171
	c-2.115,0.857-4.744,0.485-7.945,0.515c-5.229,0-3.258-0.515-5.286-0.629c-1.743-0.114-4.029,0.028-5.83,0.028
	c-2.687,0-4.572,0.543-5.229,0.457c-1.2-0.143-1.258-0.343-2.744-0.086c-1.8,0.314-3.229,0.4-2.914-3.144
	c0.114-1.457,0.628-1.371,0.543-3.372c-0.058-1.429-0.372-1.943-0.515-3.372c-0.2-1.915-0.314-10.003,0.086-11.117
	c0.314-0.857,0.343-0.171,0.457-1.457c0.171-2.201-0.715-3.115-0.515-5.087c0.372-3.001,0.314-0.629-0.114-3.401
	c-0.172-1.286,0.086-2.601,0.114-3.887c0.058-2.114,0.143-5.658-0.057-7.688C247.443,257.184,247.958,247.152,247.557,245.78
	L247.557,245.78z M247.557,245.78c-0.429,0.429-0.371,1.258-0.371,2.115c0,4.915-0.114,23.234,0.2,25.777
	c0.257,2.029-0.4,14.747-0.2,18.52c0.086,1.571,0.257,3.144,0.314,4.601c0.086,1.515-0.286,2.772-0.257,4.373
	c0.085,3.486,0.886,2.829,6.572,2.771c2.915-0.028,6.087-0.229,9.202-0.229c2.887,0,6.059,0.258,9.202,0.258
	c3.229,0.028,6.001-0.2,9.202-0.258c3-0.057,6.087,0.172,9.173,0.286c2.915,0.057,6.173-0.258,9.202-0.286
	c5.544-0.057,12.917,0.743,18.462,0.086c2.972-0.372,6.029,0.2,9.116,0.172c1.629,0,3.229,0,4.857,0.028
	c2.258,0.028,2.144,0.257,3.801-0.743c0.258-3.63,0.114-8.288,0.086-12.031c0-1.629,0.657-4.287-0.543-5.03
	c-1.4-0.857-15.175-0.6-16.946-0.314c-1.029,0.144-10.26-0.114-11.574-0.314c-0.285-0.285-0.314-0.2-0.571-0.515
	c-0.429-0.485-0.343-0.229-0.543-0.914c-0.286-0.972-0.028-1.886-0.172-2.801c-0.171-1.028-0.6-0.714-0.686-2.2
	c-0.257-3.744,0.058-3.401,0.601-5.23c0.229-0.856,0.085-1.857,0.085-2.771c-0.057-6.03,1.172-5.573-3.801-5.716l-11.374-0.086
	c-2.543-0.028-13.146,0.372-14.746-0.229c-1.972-1.286,0.515-18.947-1.343-19.776l-0.601-0.257
	c-0.229-0.058-0.714-0.086-0.942-0.086c-0.572,0-1.172,0.057-1.715,0.086c-5.544,0.229-11.288-0.572-17.433-0.258
	c-1.343,0.086-1.857,0.286-3.372,0.258C247.043,245.037,247.615,244.952,247.557,245.78L247.557,245.78z"/>
<path fill-rule="evenodd" clip-rule="evenodd" fill="#7C7B75" d="M152.594,15.009c-0.085,0.915,0.429,1.429,0.458,2.801
	c0,1.115,0,2.258-0.029,3.373c-0.085,2.486-0.4,3.572-0.343,6.315c0.057,4.458,0.314,8.888,0.2,13.546
	c-0.057,2-0.286,4.315-0.343,6.516c-0.028,1.286,0.286,2.143,0.343,3.172l0.028,10.403c0.029,1.6-0.4,1.743-0.457,3.115
	c-0.086,2.029,0.714,1.572,0.657,3.144l-0.257,16.461c-0.086,1.372,0.286,2,0.229,3.115c-0.314,7.059-0.057,13.66-0.2,20.605
	c-0.057,2-0.115,4.801,0.028,6.745c0.743,8.602-0.085,6.744-6.258,6.773c-3.001,0-19.461,0.314-20.09-0.229
	c-1.171-1.858-0.628-9.803-0.571-12.803c0.2-8.173-0.086-18.976-0.057-27.578l-0.029-10.174c0.029-1.543,0.372-1.6,0.686-2.886
	c-0.086-1.343-0.915,1.029-0.686-4.115c0.171-3.83-0.114-10.203-0.057-14.518c0.114-6.458-0.2-13.26,0.057-19.604
	c0.086-1.829-0.257-2.344-0.086-4.373c0.115-1.372,0.057-3.344,0.115-4.83c0.171-5.373-0.086-3.772,2.886-6.687l5.03-4.601
	c0.886-0.715,2-1.258,2.8-2.115c1.343-1.372,2.543-2.544,3.972-1.372c0.029,0.057,0.086,0.086,0.115,0.143
	c0.057,0.028,0.114,0.057,0.143,0.114c0.057,0.028,0.114,0.057,0.143,0.114l3.629,2.858c1.714,1.429,3.201,3.315,3.572,3.658
	c0.714,0.571,0.143,0.114,0.972,0.571C150.394,13.323,151.079,14.752,152.594,15.009L152.594,15.009z M152.594,15.009
	c-0.143-0.714,0.086-0.257-0.429-0.8l-2.029-1.572c-1-0.772-1.743-1.343-2.601-2.258c-1.286-1.4-6.373-6.487-8.659-6.087
	c-1.372,0.229-2.115,1.315-2.943,2.058c-1,0.886-1.829,1.315-2.744,2.115l-5.029,4.658c-0.486,0.486-0.743,0.743-1.258,1.172
	c-2.715,2.201-1.2,4.229-1.686,10.517l0.114,28.807c0.115,2.772,0.2,6.944,0,9.688c-0.057,0.857-0.2,1.515-0.085,2.4
	c0.114,1.115,0.429,1.086,0.314,2.144c-0.486,5.916-0.086,8.802-0.257,14.318c-0.057,1.943-0.086,36.695,0.2,38.838
	c1.515,0.915,4.401,0.6,6.63,0.6c2.515-0.028,4.744,0.343,7.23,0.2c2.629-0.143,12.574,0.029,14.061-0.657
	c0.686-2.115,0.2-22.92,0.229-27.121c0.028-4.544,0.143-9.288,0.028-13.803V66.479c-0.257-0.972-1.114-1.115-0.714-2.629
	c0.372-1.286,0.714-0.6,0.686-2.715V50.961c0-1.429-0.372-2.229-0.372-3.144c-0.029-1.057,0.343-1.6,0.286-3.144
	c-0.028-1.286,0.057-2.372,0.086-3.629c0.114-7.173-0.143-13.089,0-20.091C153.68,18.524,154.166,15.81,152.594,15.009
	L152.594,15.009z"/>
<path fill-rule="evenodd" clip-rule="evenodd" fill="#C2C2C2" d="M156.28,104.746c0.486,0.628,0.4,1,0.4,1.114l-0.343,6.802
	c-0.114,1.8-0.114,6.401,0.143,8.088c1.572,1.257,3.801,0.714,6.116,0.6c4.144-0.2,10.23,0.028,14.518,0.085
	c1.8,0,5.173,0.429,6.087-1c0.857-1.315,0.457-4.83,0.485-6.802c0.029-2.829-0.371-4.43-0.571-6.773
	c-0.285-2.944,0.372-4.373,0.543-6.802c0.114-1.629-0.057-8.802-0.371-10.289c-0.857-3.972,0.371-5.772,0.429-9.773
	c0.085-5.373-0.543-5.23-0.572-6.773c-0.057-1.686-0.313-5.258,0.029-6.516c0.6-2.029,0.457-4.516,0.514-6.802
	c0.029-1.972-0.514-1.543-0.657-2.915l0.144-10.402c0.085-1.144,0.485-2.458,0.257-3.315c-0.286-1.029-1.028-1.458-1.829-1.657
	c0.229,0.8,0.058,0.229,0.515,0.972c0.485,0.743,0.172-0.286,0.429,0.857l0.057,47.44c0.029,3.201,0.372,6.316,0.172,9.688
	l-0.257,19.576c-0.314,0.286,0,0.143-0.572,0.458c-1.171,0.686-10.402,0.343-11.831,0.343c-2.771,0-10.773,0.343-12.945-0.2
	c-0.515-3.029-0.172-9.117-0.114-12.46c0.057-4.201-0.115-8.345-0.115-12.575c0-4.258,0.172-8.288,0.029-12.574
	c-0.171-4.058,0.286-8.459,0.114-12.346c-0.372-8.202-0.028-16.661-0.143-24.92c-0.114-8.259,0.4-16.918,0-25.092
	c2.201,0.229,0.943,0.515,2.687,1.086c-0.171-1.257-0.343-0.972-1.314-1.486c-1.172-0.657-0.257-0.8-1.743-0.629
	c-1.172,1.543-0.486,8.202-0.343,10.403c0.143,2.343,0.458,2.515-0.057,4.916c-0.372,1.714,0.114,24.435,0.057,27.978
	c0,1.229,0.057,1.515,0.2,2.486c0.2,1.543-0.771,1.829-0.4,3.544c0.286,1.286,0.114,0,0.371,1.086
	c0.229,0.915-0.171,13.003-0.257,13.832c-0.4,3.201,1,1.857,0.457,4.572c-0.229,1.229-0.486,0.772-0.514,2.287l-0.029,8.488
	C156.052,101.116,156.595,102.945,156.28,104.746L156.28,104.746z"/>
<path fill-rule="evenodd" clip-rule="evenodd" fill="#50544D" d="M31.396,299.68c0.915-0.943,0.4-1.657,0.286-2.887
	c-0.229-2,0.2-6.373,0.114-8.487c-0.143-3.687-0.343-7.288-0.257-11.117c0.029-1.058,0.286-1.943,0.257-2.915
	c-0.028-1.286-0.229-1.344-0.028-2.801c0.114-0.886,0.2-1.801,0.028-2.687c-0.743-3.858-0.571-9.345-0.057-13.031
	c0.4-2.973-0.114-2.458,0.057-5.431c0.114-2.229-0.628-7.43-0.085-11.231c0.4-2.972-0.143-13.003-0.2-16.575
	c-0.029-1.915,0.343-3.858,0.372-5.83c0.028-2.114-0.458-3.4-0.429-5.315c0-1.915-0.057-3.858-0.029-5.802
	c0.029-1.114,0.2-1.657,0.257-2.657c0.114-2.801-0.2-6.401-0.171-8.717c0.028-3.943,0.229-14.231,0.028-16.947
	c-0.114-1.6,0-4.086,0-5.801l0.2-14.061c0.029-1-0.171-1.515-0.257-2.372c-0.229-3.458,0.229-7.488,0.229-11.146
	c0.028-5.715-0.429-10.888,0.028-16.718c0.4-5.173-2.915-3.458-5.344-3.801l-7.259-0.229c-1.286-0.029-2.401,0.2-3.629,0.2
	c-2.543,0.057-12.346,0.086-13.946-0.571c-0.601-2.258,0.829-1.458,1.6-3.172c-1.343,0.457-2.772,1.915-2.4,3
	c0.857,1.429,3.429,1.172,5.544,1.172c2.172,0,4.629-0.085,6.773,0.086c4.344,0.286,4.858-0.229,6.315-0.143
	c1.201,0.114,1.315,0.429,2.858,0.4c1.143-0.028,2.286-0.114,3.401-0.028c3.715,0.2,5.001-0.6,5.458,1.029
	c0.085,0.286-0.314,5.03-0.314,6.202v20.319c0,2.172,0.143,4.658,0.085,6.773c-0.085,1.772,0.257,1.772,0.372,2.915
	c0.086,1.029-0.372,1.572-0.4,2.887c-0.171,6.772,0.143,13.632-0.029,20.319c-0.057,3.429-0.372,10.603,0.114,13.66
	c0.229,1.229-0.085,4.772-0.114,6.43c-0.057,2.229,0,4.544-0.028,6.773c0,2.372,0.771,3.572,0.457,6.259
	c-0.743,6.315-0.571,9.831,0.057,16.004c0.143,1.4-0.229,1.801-0.229,3.144l-0.286,9.945c0.028,1.2,0.314,1.915,0.286,3.115
	c-0.057,3.973,0.6,2.486-0.028,6.315c-0.314,1.943-0.286,7.459-0.229,9.917c0.086,4.029,1.4,1.972,0.286,5.716
	c-0.429,1.429,0.2,1.543,0.085,2.972c-0.085,1.115-0.372,1.43-0.372,2.915c0,3.001-0.143,7.174,0.257,9.889
	c0.829,5.944-0.314,3.229-0.114,5.801c0.114,1.344,0.028,1.715,0,2.973C30.967,297.45,31.396,297.907,31.396,299.68L31.396,299.68z"
	/>
<path fill-rule="evenodd" clip-rule="evenodd" fill="#9F9EA1" d="M115.986,242.58c0.915-0.343,16.404-0.058,19.119-0.314
	l8.145,0.086c0.629-0.058-0.143,0.085,0.457-0.086c0.486-0.114,0.286-0.058,0.572-0.258c-1.972,0-4.086,0.286-6.116,0.2
	c-2.686-0.086-4.373-0.828-8.459-0.6c-0.972,0.057-1.572,0.314-2.543,0.343c-4.544,0.171-7.373,0.485-11.803-0.2
	c-2.286-0.343-3.515,0.257-5.629-0.086c-0.886-0.114-1.858-0.086-2.772-0.086c-1.343,0.058-1.286,0.4-2.429,0.543l-6.259-0.285
	c-0.857-0.286-0.229-0.4-2.572-0.972c-0.458-6.716,0-14.433-0.057-21.263c-0.057-7.087-0.2-14.489-0.086-21.548
	c0.086-4.858-0.286-41.582,0.2-42.639c0.743-1.029,2.943-0.686,4.658-0.657c1.829,0,3.801,0.057,5.573-0.057
	c1.057-0.029,1.429-0.257,2.429-0.257c0.915,0,1.515,0.2,2.658,0.229c19.176,0.572,41.152-0.171,60.728,0.029
	c2.629,0.028,8.744,0.429,10.859,0.057c0.057,0.057,0.143,0.085,0.172,0.2c0.028,0.115,0.285,0.286,0.313,0.343
	c0.314,0.286,0.172,0.2,0.515,0.429c-0.257,2.943-1.028,0.372-0.515,5.544c0.286,2.801,0.543,1.772,0.458,6.059
	c-0.058,2.2,0.057,4.372-0.029,6.544c-0.057,1.286-0.314,1.772-0.371,2.687c-0.058,0.601-0.058,1.058-0.143,1.657
	c0,0.086-0.058,0.715-0.058,0.743l0.2,0.629c0,0.058,0.057,0.143,0.114,0.2c0-1.687,0.457-4.173,0.485-6.145
	c0.058-3.258,0.115-9.773-0.343-12.774c-0.371-2.543,0.886-4.229,0.029-5.916c-0.915-1.229-3.401-0.628-4.916-0.628
	c-1.601-0.029-3.629-0.229-5.315-0.343c-3.629-0.257-7.658,0.143-11.374,0.115c-3.715,0-7.258-0.143-10.888-0.2
	c-3.429-0.029-7.316,0.286-10.888,0.286c-3.801,0-7.202-0.314-10.888-0.314c-3.772,0-7.544,0.143-11.374,0.172
	c-3.029,0-20.947-0.372-22.291,0.457c-0.972,1.372-0.257,18.29-0.4,21.548c-0.4,9.717,0.057,22.463,0.057,32.665
	c0,5.116-0.458,31.266,0.4,32.608c0.829,1.572,7.945,1.2,9.774,0.886c2.486-0.457,4.486,0.029,7.859-0.2
	C114.471,241.951,115.386,241.865,115.986,242.58L115.986,242.58z"/>
<path fill-rule="evenodd" clip-rule="evenodd" fill="#50544D" d="M115.986,242.58c-0.6-0.715-1.515-0.629-2.743-0.572
	c-3.373,0.229-5.373-0.257-7.859,0.2c-1.829,0.314-8.945,0.687-9.774-0.886c-0.857-1.343-0.4-27.492-0.4-32.608
	c0-10.202-0.458-22.948-0.057-32.665c0.143-3.258-0.572-20.176,0.4-21.548c1.343-0.829,19.261-0.457,22.291-0.457
	c3.83-0.029,7.602-0.172,11.374-0.172c3.687,0,7.087,0.314,10.888,0.314c3.572,0,7.459-0.314,10.888-0.286
	c3.629,0.057,7.173,0.2,10.888,0.2c3.716,0.028,7.745-0.372,11.374-0.115c1.687,0.115,3.715,0.314,5.315,0.343
	c1.515,0,4.001-0.6,4.916,0.628c0.856,1.687-0.4,3.373-0.029,5.916c0.458,3.001,0.4,9.517,0.343,12.774
	c-0.028,1.972-0.485,4.458-0.485,6.145c0.829,2.086,0.485,12.488,0.286,15.375l0.085,15.719c-0.028,4.172,0.486,29.264-0.514,31.207
	c-2.43,0.314-7.459,0.4-9.859,0.114c-3.201-0.399-6.688-0.114-9.974,0.029c-3.086,0.114-7.002,0.143-9.888-0.314
	c-3.144-0.543-6.23,0.314-9.173,0.085c-0.286,0.2-0.086,0.144-0.572,0.258c-0.6,0.171,0.172,0.028-0.457,0.086l-8.145-0.086
	c0.085,0.057,0.171,0.028,0.229,0.114c0.029,0.114,0.143,0.086,0.2,0.114c1.714,0.686-1-0.229,0.457,0.172
	c0.171,0.057,0.771,0.114,0.972,0.143c4.086,0.229,10.459-0.515,15.003-0.372c2.314,0.086,10.259,0.429,12.574,0.114
	c2.429-0.343,12.688,0.458,17.204,0.172c1.714-0.114,2.257-0.343,2.343-2.058l-0.028-17.433c0-1.429,0.257-2.915,0.2-4.115
	c-0.029-1.486-0.258-2.772-0.229-4.344l-0.058-17.434c-0.143-4.63,0.457-12.975,0.028-17.09c-0.171-1.771,0.286-13.346,0.144-17.261
	c-0.058-1.458-0.372-2.915-0.229-4.373c0.6-5.687-0.2-4.858-5.116-4.83c-1.6,0-3.572-0.257-5.315-0.343
	c-3.743-0.143-7.573,0.172-11.374,0.143c-7.516-0.029-14.946-0.029-22.49,0.029c-3.744,0.028-7.059-0.314-10.888-0.2
	c-6.03,0.2-29.892-0.286-33.15,0.286c-1.458,2.258-0.657,1.972-0.686,4.687c0,1.772-0.171,3.858-0.057,5.573
	c0.286,3.429,0.286,7.887,0.143,11.374c-0.343,7.487,0.171,14.889-0.171,22.491c-0.172,3.458,0.2,7.545,0.2,11.117
	c0,3.857-0.171,7.487-0.028,11.374c0.143,3.629,0.028,7.516,0.028,11.146c-0.028,2.372-0.657,9.402,0.6,10.631
	C97.553,243.666,110.299,241.979,115.986,242.58L115.986,242.58z"/>
<path fill-rule="evenodd" clip-rule="evenodd" fill="#C2C2C2" d="M174.999,245.323c-2.686-0.286-7.344,0.028-10.459-0.057
	l-10.145,0.057c-3.515,0.114-6.973-0.143-10.431-0.229c-3.372-0.114-6.916,0.172-10.402,0.229
	c-3.658,0.058-7.001-0.286-10.631-0.257c-1.943,0-3.344,0.171-5.087,0.314c-2.143,0.143-11.745-0.515-15.718-0.286
	c-1.029,0.058-1.6,0.286-2.629,0.143c-3.115-0.343-5.687,1.314-6.373-1.429c-0.257-1.286-0.657-0.543-0.514-2.658
	c0.114-1.629-0.143-1.629-0.2-2.914l0.029-18.862c0.028-2.4-0.314-4.058-0.2-6.315l0.2-12.347c-0.029-1.2,0.372-1.829,0.171-2.829
	c-0.2-1.172-0.343-0.057-0.6-2.486c-0.714,0.314-0.257-1.086-0.629,0.743c-0.229,1.114-0.057,0.229,0.171,1
	c0.629,1.943,0.143,14.118,0,16.147c-0.114,1.943,0.286,2.972,0.229,4.601c-0.257,6.974,0.257,17.09,0,23.749
	c-0.057,1.372,0.314,2.629,1.372,3.63c0.886,0.828,2.829,0.457,4.115,0.429c2.972-0.058,16.718-0.258,18.718,0.143
	c2.4,0.457,1.629-0.172,4.029-0.229c4.63-0.114,9.859,0.285,14.289,0.114c6.258-0.258,12.603,0,18.861,0.028
	c6.287,0.028,12.546-0.172,18.89-0.028c3.087,0.086,6.259-0.2,9.431-0.144c1.4,0.029,3.315,0.486,4.544-0.171
	c1.172-0.657,0.657-1.258,1.886-2.572c-0.399-1.028-0.742,0.143-0.628-2.172c0.028-1,0.028-1.915,0.057-2.915
	c0.058-1.829-0.114-3.915-0.114-5.802c-0.028-3.801,0.229-7.63,0.028-11.374c-0.171-3.658-0.057-7.688-0.028-11.374
	s-0.172-7.745,0.058-11.374c0.199-3.687-0.086-7.831,0-11.604c0.199-9.059-0.2-19.204-0.058-28.549
	c0.028-1.315,0.343-5.001-0.429-5.23c0,4.315-0.257,8.716,0.058,12.718c0.314,3.801,0,9.345-0.058,13.317
	c-0.229,17.29,0.086,35.294,0.028,52.727c0,2.458,0.687,11.089-0.429,12.689c-1.229,1.771-2.229,1.372-4.657,1.229
	C179.486,244.952,177.228,245.095,174.999,245.323L174.999,245.323z"/>
<path fill-rule="evenodd" clip-rule="evenodd" fill="#C2C2C2" d="M98.268,241.837l6.259,0.285c1.143-0.143,1.086-0.485,2.429-0.543
	c0.914,0,1.886-0.028,2.772,0.086c2.115,0.343,3.343-0.257,5.629,0.086c4.43,0.686,7.259,0.371,11.803,0.2
	c0.972-0.028,1.572-0.286,2.543-0.343c4.086-0.229,5.773,0.514,8.459,0.6c2.029,0.086,4.144-0.2,6.116-0.2
	c2.943,0.229,6.03-0.628,9.173-0.085c2.886,0.457,6.802,0.429,9.888,0.314c3.286-0.144,6.772-0.429,9.974-0.029
	c2.4,0.286,7.43,0.2,9.859-0.114c1-1.943,0.485-27.035,0.514-31.207l-0.085-15.719c0.199-2.887,0.543-13.289-0.286-15.375
	c-0.058-0.058-0.114-0.143-0.114-0.2l-0.2-0.629c0-0.028,0.058-0.657,0.058-0.743c0.085-0.6,0.085-1.057,0.143-1.657
	c0.057-0.914,0.314-1.4,0.371-2.687c0.086-2.172-0.028-4.344,0.029-6.544c0.085-4.287-0.172-3.258-0.458-6.059
	c-0.514-5.172,0.258-2.601,0.515-5.544c-0.343-0.229-0.2-0.143-0.515-0.429c-0.028-0.057-0.285-0.229-0.313-0.343
	c-0.029-0.114-0.115-0.143-0.172-0.2c0.257,2-0.114,3.572-0.058,5.573l0.2,10.889c0,1.914-0.229,3.972-0.229,5.544
	c0.058,3.601,0.258,7.202,0.229,10.889c0,3.2-0.399,8.316-0.114,10.945c0.571,4.744,0.2,11.374,0.144,16.433
	c0,1.486,0.628,3.829,0.371,5.115c-0.857,4.001,0.286,18.091-0.771,21.577c-1.314,0.171-6.802,0.371-8.202,0.114
	c-1.058-0.2-1.114-0.571-2.172-0.687c-1.257-0.171-4.144-0.057-5.572-0.057c-3.201-0.058-0.258,0.857-5.087,0.629
	c-1.972-0.086-3.544,0.515-5.287-0.086c-2.915-1-7.173-0.629-10.459-0.515c-1.543,0.028-1,0.457-2.172,0.687l-5.573,0.114
	c-2.314-0.229,0.743-0.943-7.973-0.857c-2.372,0-2.572,0.714-4.83,0.743c-2.029,0.028-6.315,0.628-8.116-0.286
	c-1.572-0.8-8.545-0.657-10.746-0.486c-1.429,0.114-1.143,0.515-2.029,0.772C103.412,242.037,99.468,241.894,98.268,241.837
	L98.268,241.837z"/>
<path fill-rule="evenodd" clip-rule="evenodd" fill="#7C7B75" d="M177.599,151.357c-3.715,0.057-7.287-0.343-11.116-0.171
	c-3.772,0.143-7.202-0.057-10.888-0.057c-3.629,0-7.259,0.057-10.888,0.114c-3.687,0.057-7.23-0.114-10.888-0.114
	c-7.259,0-14.518,0-21.776,0c-3.601,0-7.344,0.229-10.888,0.085c-10.345-0.429-6.773,0.286-9.174,1.858
	c0.171,2.4-0.514,2.915-0.657,4.601c-0.257,2.829,0.8,2.229,0.6,4.83c-0.286,3.4,0.4,7.487-0.028,11.06l0.114,21.834
	c0.085-0.028,0.514,0.372,0.6-1.4c0.028-0.686,0-1.515,0-2.229c0.028-1.43,0-2.887,0-4.344c0-2.944-0.086-5.688-0.229-8.517
	c-0.114-2.715,0.143-5.659,0.229-8.431c0.085-3.944-0.171-3.944-0.229-6.545c-0.057-2.2,1.143-1.314,0.343-3.201
	c-0.771-1.886-0.429-3.858-0.171-6.202c0.4-3.515,2.4-2.915,5.687-2.886c5.801,0.057,11.631,0.029,17.432-0.057
	c16.975-0.2,35.065,0.143,52.269,0.057c2.915,0,5.802,0.086,8.688,0.171c3.001,0.086,5.744-0.171,8.717,0.029l0.514,0.972
	c0.429,0.372,0.715-0.086,0.715,2.658l-0.429,6.544c-0.172,1.4,0.257,1.829,0.486,3.144l-0.258,13.174
	c-0.257,1.572,0.028,4.516,0.229,6.174c0.2,1.828-0.028,4.572-0.028,6.544c0,2.115,0.2,4.43-0.114,6.516
	c-0.286,1.915-0.343,4.345-0.028,6.259c0.657,4.001-0.314,9.06-0.086,13.118c0.143,2.114,0.515,4.486,0.457,6.516
	c-0.057,2.286-0.143,4.486-0.2,6.802c-0.028,2.743,0.572,11.231-0.314,13.031c-1.629,3.287-8.401-0.285-11.288,2.029
	c2.229-0.229,4.487-0.371,6.745-0.2c2.429,0.144,3.429,0.543,4.657-1.229c1.115-1.601,0.429-10.231,0.429-12.689
	c0.058-17.433-0.257-35.437-0.028-52.727c0.058-3.973,0.372-9.517,0.058-13.317c-0.314-4.001-0.058-8.402-0.058-12.718
	c-1.515-1.515-1.229-1.343-4.115-1.314C181.057,151.157,179.171,151.243,177.599,151.357L177.599,151.357z"/>
<path fill-rule="evenodd" clip-rule="evenodd" fill="#C2C2C2" d="M209.606,66.165c0.144,0.486-0.143,0.143,0.4,0.8
	c0.229,0.343,0.172,0.2,0.486,0.486l1.743,1.657c1.257,1.629,0.942,0.915,1.515,1.458c-0.429,2.629,0.285,10.66-0.229,11.975
	c-0.029,0.057-0.058,0.114-0.086,0.171c-1.172,2.543,0,1.972,0.229,3.372c0.2,1.258-0.715,1.486-0.857,2.429
	c-0.2,1.486,0.686,1,0.829,2.372c0.085,0.829,0.028,2.401,0.057,3.373c0.4,8.945-0.571,7.145-0.886,9.288
	c-0.286,1.744,0.2,1.543,0.686,2.515c0.458,0.972,0.314,11.688,0.144,13.489c-2.029,1.915-2.229,1.4-5.773,1.372
	c-2.343-0.029-4.687,0-7.029,0.028l-10.631-0.028c-2.772,0.114-1.973-0.143-2.83-0.6c-0.371-2.086-0.143-33.494-0.114-36.209
	c0-1.372-0.343-35.066,0.258-36.238c1.457,0.143,2.258,1.315,3.058,1.972c0.571,0.514,0.086,0.543,1.229,0.486
	c-0.371-0.743,0.029-0.086-0.457-0.743c-0.571-0.714-1.086-0.857-1.743-1.429c-0.429-0.372-0.629-0.8-1.058-1.143
	c-2.601-2.086-1.943,3.458-2.058,4.144c-0.143,0.943-0.771,1.915-0.343,4.315c0.314,1.886,0.601,2.029,0.229,4.287
	c-0.257,1.744,0.2,3.001,0.2,4.744l-0.143,7.145c-0.172,0.743-0.4,0.772-0.372,2.029c0.029,0.972,0.258,1.4,0.314,2.201
	c0.114,2.343,0.372,10.174,0.086,11.974c-1,6.001,0,5.344,0.114,8.831c0.028,1.658,0.028,3.401,0.028,5.087
	c0,1.6,0,3.115-0.257,4.658c-0.314,2.058,0.171,2.915,0.229,4.772c0.257,11.289-1.743,10.031,5.059,10.203h16.718
	c5.915-0.029,5.772,0.714,5.744-5.373c0-3.687,0.143-7.43-0.143-11.117c-0.2-2.315,0.143-9.917,0.143-13.575
	c-0.028-1.201-0.286-1.715-0.286-2.658c0-0.943,0.314-1.314,0.286-2.4c0-1-0.286-1.543-0.2-2.601
	c0.229-3.344,0.229-7.116,0.2-10.717c-0.058-3.029,0.714-3.373-3.544-6.345C209.692,65.994,210.721,66.308,209.606,66.165
	L209.606,66.165z"/>
<path fill-rule="evenodd" clip-rule="evenodd" fill="#50544D" d="M93.124,243.809c0.686,2.743,3.258,1.086,6.373,1.429
	c1.029,0.144,1.6-0.085,2.629-0.143c3.973-0.229,13.575,0.429,15.718,0.286c1.743-0.144,3.144-0.314,5.087-0.314
	c3.629-0.029,6.973,0.314,10.631,0.257c3.487-0.057,7.03-0.343,10.402-0.229c3.458,0.086,6.916,0.343,10.431,0.229l10.145-0.057
	c3.115,0.085,7.773-0.229,10.459,0.057c2.887-2.314,9.659,1.258,11.288-2.029c0.887-1.8,0.286-10.288,0.314-13.031
	c0.058-2.315,0.144-4.516,0.2-6.802c0.058-2.029-0.314-4.401-0.457-6.516c-0.229-4.059,0.743-9.117,0.086-13.118
	c-0.314-1.914-0.258-4.344,0.028-6.259c0.314-2.086,0.114-4.4,0.114-6.516c0-1.972,0.229-4.716,0.028-6.544
	c-0.2-1.658-0.485-4.602-0.229-6.174l0.258-13.174c-0.229-1.315-0.658-1.744-0.486-3.144l0.429-6.544
	c0-2.744-0.286-2.286-0.715-2.658c0.486,4.172-0.313,8.202,0.172,12.06l0.143,12.146c-0.343,4.63,0.086,6.517,0.029,8.945
	c-0.029,0.915-0.172,1.515-0.172,2.658c0.028,3.829,0.114,8.459-0.143,12.031c-0.172,2.114,0.085,3.829,0.143,5.887
	c0.028,2.001,0.058,4.03,0,6.03l0.143,11.832c-0.771,6.287,0.543,12.774-0.057,17.947c-0.286,2.314-1.572,2.314-3.801,2.028
	c-4.115-0.543-11.203,1.229-17.146,0.286c-1.829-0.286-3.744-0.4-5.716-0.429c-4.144,0-7.402,1.172-11.831,0.457
	c-6.973-1.114-8.659,0.4-11.06,0.029c-1.772-0.258-3.601,0.313-5.887,0.085c-2.458-0.257-9.202-0.972-11.402-0.314
	c-2.886,0.915-2.458,0.458-5.116,0.144l-12.06-0.314c-0.943,0.057-1.4,0.657-2.315,0.515c-1.057-0.172-0.543-0.743-2.029-0.258
	C94.238,245.695,94.038,244.494,93.124,243.809L93.124,243.809z"/>
<path fill-rule="evenodd" clip-rule="evenodd" fill="#7C7B75" d="M92.152,69.452c-0.343,0.428-0.286,0.2-0.4,0.972
	c-0.057,0.286-0.057,1.2-0.028,1.486c0.143,1.143,0.486,1.314,0.486,3.001c0,2.2,0,4.315-0.143,6.544
	c-0.257,3.744,0.143,9.059,0.143,13.06l-0.029,22.977c-0.029,3.344,0.086,3.715-3.115,3.772c-3.801,0.057-22.862,0.229-23.605-0.314
	c-0.429-0.657-0.571-1.743-0.6-2.715c0-1.343-0.314-2.229-0.257-3.058c0.2-2.601-0.2-4.201-0.057-6.659
	c0.143-2.572,0.743-0.2,0.343-6.258c-0.086-1.258,0.257-2.086,0.2-3.401c-0.171-4.058-1.029-1.058-0.229-9.631
	c0.086-1.086,0.257-1.771,0.257-3.201c-0.029-1.629-0.572-2.229-0.543-3.115c0.057-1.458,0.6-0.686,0.028-3.058l0.257-10.26
	c1.029-0.943,2.315-2,3.458-3.344c0.886-1.029,2.829-2.943,4.058-3.429c0.571-0.257,1.515-0.857,2.058-1.314
	c1-0.8,0.857-0.4,2.143-1.715c2.629-2.744,1.372-1.372,3.458-3.086l4.373-4.115c0.771-0.715,1.029-1.143,1.943-1.886
	c0.771-0.629,1.257-1.058,2-1.686l0.257-0.343c0.829-1.057,1.286-1.943,3-2c0.257,1.257-0.057,2.258,0.257,3.629
	c0.429,1.829,0.372,2.172,0.229,4.03c-0.171,2.4,0.115,5.602,0,8.23c0.372-0.372,0.229-0.143,0.372-0.714
	c0.086-0.257,0.086-0.686,0.114-0.972c0.029-0.686-0.028-1.458,0-2.172c0.029-1.972,0-6.859-0.286-8.545
	c-0.114-0.772-0.057-1.343-0.057-2.115c0.057-4.201-2.315-1.4-3.944,0.229l-10.402,9.174c-1.086,0.971-3.115,3.343-5.115,4.344
	c-1.143,0.6-4.487,3.744-5.258,4.63l-3.429,2.915c-0.171,2.429-0.429,8.174-0.143,10.374c0.143,1.229,0.4,0.886,0.171,2.344
	c-0.486,2.772,0.543,1.343,0.629,4.458c0.057,2.83-1.8,2.144-0.314,12.231c0.372,2.458-1.114,1.658-0.028,4.23
	c1.057,2.429-0.257,4.115-0.343,4.43c-0.628,2.315,0.114,7.973,0.143,10.345c0.057,4.772,1.772,3.83,6.716,3.858
	c2.829,0,19.633,0.143,21.062-0.229c1.115-2.286,0.6-22.12,0.629-26.149C92.609,91.171,92.438,72.395,92.152,69.452L92.152,69.452z"
	/>
<path fill-rule="evenodd" clip-rule="evenodd" fill="#9F9EA1" d="M94.953,107.318l0.2,0.343c0,0.057,0.028,0.143,0.057,0.2
	c0.028,0.057,0.028,0.143,0.057,0.2c0.028,0.229,0.028,0.714,0.028,0.943l-0.057,5.116c0.029,1.772-0.943,6.43,0.972,7.145
	c0.629,0.257,1.486,0.086,2.287,0.114c4.429,0.029,21.919,0.286,23.633-0.114c0.658-1.057,0.572-0.915,0.572-2.315l-0.143-36.552
	c-0.028-3.229,0.429-6.173,0.171-9.66c-0.171-2.314-0.6-7.344-0.343-9.459c0.543-4.544,0.515-4.201,0.4-9.173
	c-0.029-1.601-0.515-2.601-0.486-4.344c0.028-1.714,0.2-3.401,0.114-5.087c-0.2,0.286-0.171,0.171-0.343,0.686
	c-0.171,0.543-0.028,0-0.085,0.514c-0.229,1.343,0.229,7.03,0.229,8.459c-0.029,1.6-0.029,3.258,0,4.858
	c0,1.743-0.257,3.029-0.286,4.572c-0.029,3.144,0.171,6.288,0.286,9.459c0.114,3.144-0.171,6.316-0.143,9.431
	c0.114,6.487-0.028,12.917,0.057,19.348c0.057,4.772,0.629,14.775-0.2,18.862c-1.857,0.2-24.863,0.314-25.377,0.057
	c-1.086-0.6-0.972-3.258-0.915-4.144c0.114-1.572,0-3.258,0.028-4.858c0.057-3.372-0.257-6.573-0.143-9.917
	c0.143-3.43,0.057-6.487,0-9.917c-0.057-3.201,0.2-6.716,0.114-9.917c-0.057-2.258-0.257-37.409,0.085-39.638
	c0.543-0.4,0.943-0.486,1.572-1c0.658-0.571,1.086-0.8,1.086-1.601l-3.172,2.086c-0.2,1.4-0.057,2.687-0.057,4.087
	c-0.029,1.486-0.229,2.543-0.314,3.887c-0.114,2.572,0.2,5.315,0.286,7.973c0.114,5.458-0.286,11.088-0.085,16.461l0.028,16.461
	C94.81,96.086,95.324,102.06,94.953,107.318L94.953,107.318z"/>
<path fill-rule="evenodd" clip-rule="evenodd" fill="#C2C2C2" d="M9.077,114.205c2.144-0.771,5.716-5.029,8.202-7.03
	c1.315-1.086,2.543-2.458,4.001-3.515c1.886-1.343,0.314,0.086,2.086-1.771c0.915-0.915,1.229-0.543,2.229-1.658
	c2.772-3.086,3.744-3.001,5.83-5.287c2.486-2.772,2.944-2.429,4.115-3.372c2.029-1.629,4.201-4.487,8.059-7.202l5.916-5.458
	c1.943-1.687,4.058-3.258,5.801-5.059l7.059-6.516c0.4-0.371,0.686-0.314,1.229-0.686l5.03-4.43c0.571-0.4,0.628-0.286,1.171-0.771
	l3.086-2.715c0.714-0.6,0.657-0.286,0.8-1.114l-0.857-0.143c-0.372,0.943-0.457,0.629-1,1.2c-1.086,1.115,0.714-0.8-0.229,0.257
	c-0.572,0.686-1,0.543-2.515,1.829c-0.657,0.543-2.2,2.086-2.629,0.743c-0.086,0.6-0.4,1.429-0.686,1.743
	c-0.515,0.543,0.686,0.429-0.915,0.457c-1.743,0.029-0.229,0.057-0.972-0.429c-1.029-0.657-0.143-0.628-1.886,0.829
	c-0.343,0.286-0.628,0.314-0.114,0.2c0.086,0.429-0.2,0.658,0.657,0.515c0.029,0,0.086-0.029,0.143-0.057
	c0.029,0,0.086-0.057,0.143-0.057c0.457-0.229,0.229-0.372,1.029-0.629c-0.057,1.4-0.029,1.572-1.172,2.172
	c-0.028,0.029-0.114,0.057-0.143,0.086c-0.057,0.029-0.114,0.057-0.171,0.086c-1.086,0.543-0.4,0.085-1.029,0.857l-2.086,2.258
	c-0.029,0.029-0.086,0.086-0.143,0.114l-0.257,0.229c-1.057,0.886-0.771,0.543-1.915,1.058l-0.8,0.572
	c0,0.028-0.057,0.085-0.085,0.114c-0.029,0.057-0.057,0.114-0.086,0.171c-0.085,0.143-0.143,0.343-0.229,0.486
	c-0.057,0.028-0.086,0.085-0.114,0.143L44.513,82.426l-1.8,0.886c-1.058,0.4-1.458,0.286-2.772,0.286v0.029l-0.028,0.2
	c-0.029,0.058-0.086,0.2-0.114,0.257l-1.257,1.772c-0.343,0.343-0.543,0.429-0.829,0.629l0.715,1
	c-0.058,0.057-0.172,0.029-0.2,0.143l-4.344,4.029c-0.857,0.486-0.114-0.314-0.972,0.658c-0.686,0.8,0,0.343-0.943,0.8
	c-1.943,0.915-0.457,0.543-1.6,1.715c-0.286,0.286-0.458,0.343-0.886,0.829c-1.372,1.515-1.886,1.429-3.973,3.544
	c-1.114,1.143-0.743,0.514-1.686,1.229l-1.657,1.515c-1.201,0.8-0.829,0.286-2.086,1.486l-7.059,6.516
	c-0.486,0.514-1.086,1.114-1.715,1.657c-0.915,0.8-1.057,1.086-2.143,1.486L9.077,114.205z"/>
<path fill-rule="evenodd" clip-rule="evenodd" fill="#C2C2C2" d="M88.351,49.018c1.229-0.115,1.343-0.6,2.201-1.486l0.314-0.343
	c0.028,0.886-0.086,2.315,0.171,3.086s1.257,1.057,0.657,3.315c-0.229,0.743-0.028,0.057-0.229,0.515c-0.2,0.4-0.314,0.4-0.372,1
	c-0.114,1.629,0.972,0.257,0.714,5.544c-0.114,2.372-2.058,3.658-0.171,7.716c-0.429,0.772,0.029-0.085-0.343,0.515
	c-0.429,0.657-0.4,0.6-0.429,1.4c-0.029,0.8-0.029,1.686,0,2.486l0.915,0.543c0.028,1.686,0.028,3.315,0.028,5.001
	c0,0.743,0,1.658-0.085,2.401c-0.086,0.543-0.486,1.572-0.486,1.715c0.028,0.343,0.4,0.486,0.457,1.657
	c0.4,6.373,0.114,19.691,0.114,26.149c0,11.946,1.343,10.66-8.573,10.631c-3.115,0-6.315-0.057-9.431-0.029
	c-1.6,0.029-3.258,0.057-4.83,0.114c-2,0.057-2.629,0.2-3.687-1.029l0.086-50.155l2.572-2.429c3.029-2.543,0.257-1.743,2.829-1.972
	c0.171-1,0.143-0.743,0.686-1.257l0.915-1.286c-1.229,0.486-3.172,2.4-4.058,3.429c-1.143,1.343-2.429,2.401-3.458,3.344
	l-0.257,10.26c0.572,2.372,0.029,1.601-0.028,3.058c-0.029,0.886,0.514,1.486,0.543,3.115c0,1.429-0.171,2.115-0.257,3.201
	c-0.8,8.574,0.057,5.573,0.229,9.631c0.057,1.314-0.286,2.143-0.2,3.401c0.4,6.059-0.2,3.687-0.343,6.258
	c-0.143,2.458,0.257,4.058,0.057,6.659c-0.057,0.829,0.257,1.715,0.257,3.058c0.029,0.972,0.171,2.058,0.6,2.715
	c0.743,0.543,19.804,0.372,23.605,0.314c3.201-0.057,3.086-0.429,3.115-3.772l0.029-22.977c0-4.001-0.4-9.316-0.143-13.06
	c0.143-2.229,0.143-4.344,0.143-6.544c0-1.687-0.343-1.858-0.486-3.001c-0.029-0.286-0.029-1.2,0.028-1.486
	c0.114-0.772,0.057-0.543,0.4-0.972c0.257-1.629-0.057-1.715-0.171-3.258c-0.057-1.2,0.114-2.458,0.114-3.629
	c0.115-2.629-0.171-5.83,0-8.23c0.143-1.857,0.2-2.201-0.229-4.03c-0.314-1.372,0-2.372-0.257-3.629c-1.714,0.057-2.172,0.943-3,2
	L88.351,49.018z"/>
<path fill-rule="evenodd" clip-rule="evenodd" fill="#9F9EA1" d="M227.725,82.055l0.313,1c1.43,0.6,1.201,0.515,2.087,1.515
	c1.057,1.143,2.686,2.229,3.915,3.344c0.057,0.029,0.086,0.086,0.143,0.114l2.743,2.629c0.286,0.2,0.258,0.143,0.543,0.372
	l3.144,3.115c0.601,0.372,0.114-0.028,0.601,0.4l2.172,1.714c0.028,0.029,0.543,0.4,0.571,0.429l0.086,24.32
	c-3.029,0.143-25.205,0.172-26.406-0.229c-0.6-2.029-0.229-19.462-0.199-23.12c0.028-7.859-0.114-15.804,0-23.634l2.2,1.486
	c0.829,0.915,0.257,1,1.629,1.629c1.028,0.457,3.315,2.372,3.743,3.086l0.915,0.057c-1.572-2.058-2.943-2.744-4.544-4.401
	c-0.8-0.829-1.457-1.286-2.229-2.115c-0.971-1-1.771-1.286-2.914-0.429c0.171,2.086,0.942,0.886,0.686,8.831
	c-0.114,3.315-0.372,5.773-0.058,9.202c0.4,4.201-0.371,26.521,0.029,29.265c0.314,2.172,3.572,0.886,7.887,0.857l19.49-0.114
	c0.801-1.229,0.258-11.231,0.286-13.575V97.401c-0.114-1.715-1.058-1.972-2.43-3.058c-1.343-1.086-2.543-2.629-4.601-4.115
	c-1.915-1.372-2.887-2.886-5.029-4.63C230.783,84.227,229.268,82.369,227.725,82.055L227.725,82.055z"/>
<path fill-rule="evenodd" clip-rule="evenodd" fill="#50544D" d="M122.159,26.755l0.257,17.918c0.085,1.686-0.086,3.373-0.114,5.087
	c-0.029,1.744,0.457,2.744,0.486,4.344c0.114,4.973,0.143,4.629-0.4,9.173c-0.257,2.115,0.171,7.145,0.343,9.459
	c0.257,3.487-0.2,6.43-0.171,9.66l0.143,36.552c0,1.4,0.086,1.258-0.572,2.315c-1.714,0.4-19.204,0.143-23.633,0.114
	c-0.8-0.028-1.658,0.143-2.287-0.114c-1.915-0.714-0.943-5.373-0.972-7.145l0.057-5.116c0-0.229,0-0.714-0.028-0.943
	c-0.029-0.057-0.029-0.143-0.057-0.2c-0.029-0.057-0.057-0.143-0.057-0.2l-0.2-0.343c-0.171,2.172-0.372,12.317,0.314,13.918
	c0.915,1.029,17.261,0.286,21.376,0.514c1.229,0.086,2.372,0.114,3.629,0.114c2.286,0,1.601-0.286,2.915-0.972
	c0.429-3.315,0.314-9.888,0.114-13.317c-0.257-4.458,0.057-8.374,0.057-12.832c0-2.172-0.028-4.344-0.057-6.516
	c-0.029-1.829-0.343-5.144-0.229-6.544c0.314-4.287,0.543-8.345-0.171-12.575c-0.114-0.771-0.257-5.573-0.086-6.201
	c0.4-1.429,0.6-0.829,0.572-2.744l-0.057-6.544c-0.115-1.629-1.458-2.715-0.257-9.031c0.457-2.515,0.543-6.63-0.143-9.145
	c-0.372-1.343-0.085-1.801-0.143-3.115c-0.314-6.487,0.943-7.831,0.6-11.146c-0.115-1.201-0.229-1.201-0.629-1.429
	c0,1.286,0.143,2.601,0.057,3.887c-0.028,0.515-0.057,0.943-0.114,1.458C122.616,25.869,122.587,26.212,122.159,26.755
	L122.159,26.755z"/>
<path fill-rule="evenodd" clip-rule="evenodd" fill="#50544D" d="M181.6,41.616c0.801,0.2,1.543,0.628,1.829,1.657
	c0.229,0.857-0.172,2.172-0.257,3.315l-0.144,10.402c0.144,1.372,0.687,0.943,0.657,2.915c-0.057,2.286,0.086,4.772-0.514,6.802
	c-0.343,1.257-0.086,4.83-0.029,6.516c0.029,1.543,0.657,1.4,0.572,6.773c-0.058,4.001-1.286,5.801-0.429,9.773
	c0.314,1.486,0.485,8.66,0.371,10.289c-0.171,2.429-0.828,3.858-0.543,6.802c0.2,2.343,0.601,3.944,0.571,6.773
	c-0.028,1.972,0.372,5.487-0.485,6.802c-0.914,1.429-4.287,1-6.087,1c-4.287-0.057-10.374-0.286-14.518-0.085
	c-2.315,0.114-4.544,0.657-6.116-0.6c-0.257-1.687-0.257-6.288-0.143-8.088l0.343-6.802c0-0.114,0.085-0.486-0.4-1.114
	c-0.114,2.543-1.343,15.146-0.171,16.347c0.657,0.714,1.686,1.115,3.086,1.115c1.8-0.029,2.486-0.4,3.772-0.486
	c4.944-0.314,12.203,0.257,17.318,0.143c4.229-0.114,3.829-1.4,3.772-5.087c-0.028-2.801,0.2-5.801-0.086-8.573
	c-0.371-3.544,0.028-5.259,0.086-8.603c0.028-2.915-0.028-5.83-0.058-8.745c-0.028-1.458-0.371-2.458-0.285-4.116
	c0.2-3.972,0.657-8.431,0.2-12.574c-0.172-1.515,0.143-2.887-0.172-4.144c-0.571-2.172-0.371-1.629,0.143-3.515
	c0.229-0.915,0.258-7.345,0.086-8.431c-0.257-1.486-0.257-2.687-0.172-4.229c0.115-2.258-0.514-1.943-0.313-3.744
	c1-9.66,0.886-6.402-3.173-10.832c-0.714-0.771-0.114-0.714-1.4-0.972l0.743,0.943C180.314,39.901,181.514,40.616,181.6,41.616
	L181.6,41.616z"/>
<path fill-rule="evenodd" clip-rule="evenodd" fill="#C2C2C2" d="M91.98,153.072c2.401-1.572-1.171-2.287,9.174-1.858
	c3.543,0.143,7.287-0.085,10.888-0.085c7.259,0,14.518,0,21.776,0c3.658,0,7.202,0.171,10.888,0.114
	c3.629-0.057,7.259-0.114,10.888-0.114c3.687,0,7.116,0.2,10.888,0.057c3.829-0.171,7.401,0.229,11.116,0.171
	c-1.143-0.886-2.4-0.8-4.829-0.915c-1.772-0.086-3.772,0-5.573,0l-55.641-0.057c-3.715,0-7.43,0.171-11.145,0.057
	C96.61,150.329,92.009,149.471,91.98,153.072L91.98,153.072z"/>
<path fill-rule="evenodd" clip-rule="evenodd" fill="#50544D" d="M61.717,117.006v2.915c-0.343,1.343-0.8,1.315-2.4,1.343
	c-4.058,0.029-23.491,0.2-24.377-0.171c-0.486-0.314-0.229-0.114-0.429-0.372c-0.057-0.028-0.4-0.514-0.429-0.6
	c-0.314-0.829-0.143-4.458-0.171-5.544c-0.057-2.058,0.286-5.544,0-7.316c-0.143-1.086-0.343-9.888,0.171-10.86l2.058-2
	c1.686-0.857,0.172,0.4,2.486-1.686l4.487-4.201c1.372-1.086,1.886-1.086,2.286-2.343c-0.085,0.028-0.2-0.029-0.257,0.085
	c-0.028,0.086-0.171,0.057-0.229,0.086L36.969,93.2c-0.515,0.4-0.715,0.229-1.486,0.972c-1.8,1.772-1.943,1.086-2.029,3.715
	c-0.114,3.229-0.515,6.144,0,9.431c0.2,1.372,0.028,3.373,0.085,4.858c0.257,12.317-2.2,8.716,9.288,9.545
	c2.029,0.143,17.747,0.057,18.632-0.314c1.086-0.8,0.972-3.172,0.743-4.63c-0.457-3.115-0.114-12.86-0.028-16.232
	c0.085-3.344-0.2-6.888-0.143-10.403l0.057-7.745c0.086-0.771,0.286-1.343,0.086-2.115c-0.086-0.458-0.172-0.458-0.229-0.515
	c-0.257,1.258-0.372,3.172-0.286,4.573c0.143,1.886-0.8,9.574-0.086,14.118c0.257,1.686,0.2,3.058,0.172,4.773
	c-0.029,1.829-0.429,2.715-0.486,4.344l0.028,7.259C61.317,116.206,61.517,115.749,61.717,117.006L61.717,117.006z"/>
<path fill-rule="evenodd" clip-rule="evenodd" fill="#7C7B75" d="M29.539,120.921c-3.086,0.915-5.602-0.515-7.487-0.543
	c-2.687,0-5.916-0.086-8.517,0.028c-0.143,0-6.973,1.829-5.83-0.771c0.143-0.343,1.772-1.743,2.115-2l1.257-0.915
	c0.429-0.372,0.6-0.543,1.029-0.915l6.544-6.03c2.314-2.144,4.744-3.172,6.858-5.745l3.029-2.743c1.115-0.886,0.343-0.686,1.8-0.829
	c-0.057,0.943-0.257,2.058-0.143,3.001c0.486,4.172,0.343,3.229,0.343,7.745C30.539,113.662,31.082,118.807,29.539,120.921
	L29.539,120.921z M30.653,121.264c0.771-3.058,0.486-7.544,0.543-11.031c0.029-1.857,0.114-4.001-0.171-5.801
	c-0.4-2.515,0.6-3.772-0.314-5.03c-0.972-0.029-1.972,1-2.686,1.572c-2.229,1.743-5.373,5.058-6.973,6.116l-7.001,6.03
	c-0.372,0.372-0.686,0.658-1.143,1.058c-0.429,0.4-0.515,0.543-1.086,1.086c-1.686,1.601-2.144,1.601-3.658,2.915
	c-5.029,4.373,3.315,3.229,4.916,3.144c2.572-0.114,6.059-0.028,8.716,0C24.623,121.321,27.995,122.093,30.653,121.264
	L30.653,121.264z"/>
<path fill-rule="evenodd" clip-rule="evenodd" fill="#C2C2C2" d="M185.172,40.73c0.372,0.2,0.771,0.772,1.258,1.143
	c2.629,2,1.086,0.543,4.743,3.744c1.344,1.171,4.944,4.515,5.773,5.63c0.857,1.172,0.714,0.429,2.943,2.572
	c0.943,0.915,2.086,1.572,3.172,2.658l3.829,3.201c0.429,0.314,0.458,0.286,0.801,0.628c0.371,0.343,0.285,0.486,1.2,1.029
	l0.657,0.343l-0.172-0.886c-1.343-0.714-0.485-0.286-1.429-1.2c-0.543-0.486-1.143-0.829-1.657-1.286l-2.029-2.058
	c-0.886-0.8-2.2-1.343-3.115-2.458c-1.2-1.486-0.856-0.8-1.629-1.515l-2.229-2.058c0.028-0.057,0.086-0.229,0.114-0.171
	c0,0,0.371-0.601,0.371-1.115c-0.942,0.114,0.029,0.4-1.686,0.486c-0.058-2.687,0.229-1.029,0.714-2.343
	c-1.343-0.458,0.286,0.628-2.429,0.628c-0.286-0.4-0.286-0.571-0.429-0.771c-0.4-0.657-1.571-1.286-3.687-3.058
	c-0.028-0.057-0.086-0.085-0.143-0.114c-0.029-0.028-0.086-0.085-0.114-0.114l-1.629-1.486c-0.029-0.057-0.086-0.086-0.144-0.114
	l-1.543-1.172c-0.515-0.657,0.086-0.229-0.6-0.8l-1.486-1.143c0,0-1.029-0.343-1.086-1.886c-0.715,0.257-0.429,0.229-1.4,0.229
	c0.114-1.4,0.028-0.514,0.429-1.171c-0.515,0.2-0.257,0.171-1.058,0.257c-0.371-0.486-0.972-1.429-1.657-1.886
	c-0.286-0.172-0.571-0.143-1.144-0.572c0,0-0.857-0.714-0.914-0.771c-0.429-0.4-0.429-0.486-0.771-0.943l-6.431-5.659
	c-0.457-0.4-2-2.8-4.086-3.172c0.485,0.972,1.4,1.6,2.314,2.343c0.028,0.029,0.086,0.057,0.114,0.086l3.401,2.858
	c2.028,1.714,7.944,7.659,9.916,8.945c0.657,0.429,0.143-0.057,0.686,0.543l1.743,1.658
	C185.344,40.559,184.916,39.815,185.172,40.73L185.172,40.73z"/>
<path fill-rule="evenodd" clip-rule="evenodd" fill="#C2C2C2" d="M56.573,76.311c-0.972,1.229-5.315,3.972-5.658,5.172
	c1.143,0.057,1.8-0.686,2.686-1.6l3.572-2.972c0.286-0.257,0.829-0.886,1.086-1.144l0.829-0.628
	c0.028-0.029,0.085-0.057,0.143-0.086c1.143-0.771,0.829-1.2,1.143-0.771c0.8,0.886,0.029,3.801,0.4,5.201
	c0.229,0.972,0.829,0.829,0.6,1.886c-0.229,1.143-0.857,0.114-0.629,2.201l0.029,21.834c-0.143,2.515-0.372,9.173,0.114,11.231
	l0.829,0.372c-0.2-1.257-0.4-0.8-0.429-2.172l-0.028-7.259c0.057-1.629,0.457-2.515,0.486-4.344
	c0.028-1.715,0.085-3.087-0.172-4.773c-0.714-4.544,0.229-12.231,0.086-14.118c-0.086-1.4,0.029-3.315,0.286-4.573
	c-0.2-0.2-0.229-0.057-0.429-0.628l-0.171-2.543c0-0.572,0.057-1.143,0.057-1.715c0.029-3.029-2-0.972-3.572,0.515
	c-0.257,0.257-0.2,0.286-0.486,0.486C56.687,76.368,57.287,75.967,56.573,76.311L56.573,76.311z"/>
<path fill-rule="evenodd" clip-rule="evenodd" fill="#9F9EA1" d="M268.105,117.663c0.485,1.572,0,0.257,0.771,1.229
	c1.715,2.201,1.687,1.029,2.144,2.258c-2.743,0.057-20.891,0.171-22.119-0.286c-1.429-0.543-1.2-2.572-1.144-4.344l0.172-10.688
	c-0.258-2-0.229-3.287-0.143-5.287c2.058,0.628,2.429,2.543,4.4,3.144c-0.485-1.115-1.114-1.458-2.058-2.343
	c-0.857-0.857-1.028-1.629-2.687-1.115c-0.457,1.8-0.114,8.402-0.114,10.717c0,11.774-1.114,10.403,3.372,10.574
	c1.515,0.028,1.515,0.4,2.658,0.543h15.718c1.114,0.057,1.972,0.543,2.486-0.143c1.086-1.2-0.372-1.743-1.915-3.315
	C268.848,117.806,268.848,117.892,268.105,117.663L268.105,117.663z"/>
<path fill-rule="evenodd" clip-rule="evenodd" fill="#C2C2C2" d="M61.717,119.921c-2.029,0.715-0.514,0.886-3.144,0.886
	l-15.032,0.085c-1.058-0.114-1.601-0.714-2.858-0.686c-0.257,0.028-5.287,1.657-5.772-0.372c0-0.057-0.029-0.143-0.057-0.2
	c-0.372-1.8,0.143,1.429-0.086-0.458c0-0.171,0-0.743,0-0.943l-0.028-5.83c0-4.001,0.971-3.83-0.458-6.516
	c0.029-0.086,0.086-0.143,0.086-0.171c1.314-2.372-0.772-0.2,0.286-4.344c0.457-1.772-0.029-2.915,0.143-4.687
	c0.686-0.914,1.143-0.657,1.343-2.286l-2.058,2c-0.514,0.972-0.314,9.774-0.171,10.86c0.286,1.772-0.057,5.258,0,7.316
	c0.029,1.086-0.143,4.716,0.171,5.544c0.029,0.086,0.372,0.572,0.429,0.6c0.2,0.257-0.057,0.057,0.429,0.372
	c0.886,0.372,20.319,0.2,24.377,0.171C60.917,121.236,61.374,121.264,61.717,119.921L61.717,119.921z"/>
<path fill-rule="evenodd" clip-rule="evenodd" fill="#C2C2C2" d="M261.76,108.375l4.087,3.687c0.686,0.457,1,0.257,1.372,1.057
	c1.229,0.458,3.372,2.972,4.687,4.201c0.257,0.229,0.543,0.458,0.743,0.686l0.6,0.943l3.029,2.258
	c0.429,0.343,1.172,0.972,1.172,1.601c-0.028,0.543-0.457,0.8-0.886,1.486c-3.744,0.343-7.573,0.029-11.374,0.057h-8.459
	c-0.972-0.028-1.915-0.085-2.629,0.4c3.429,0.286,9.002,0.143,12.546,0.028c2.629-0.114,3.2,0.458,5.315,0.657
	c1.8,0.171,1.457,0,2.629-0.4c0.8-0.286,1.886-0.343,2.801-0.458c0,0,2-2.886-0.857-4.344c-0.943-0.514-1.829-2.258-2.315-3.058
	l-1.2,0.485c-0.371-0.628-0.2-0.657-1.114-0.743c0.114-1.2-0.086-0.486,0.4-1.2c-1.086,0.114-0.543,0.4-1.344-0.086
	c-0.143-0.086-0.828-0.829-1-1.029l-1.801-1.772c-0.028-0.028-0.085-0.085-0.114-0.114c-1.714-1.629-1.686-0.372-2.314-1.857
	l-1.457-2.601c-2.029-0.086-1.344-0.172-2.744-0.601L261.76,108.375z"/>
<path fill-rule="evenodd" clip-rule="evenodd" fill="#C2C2C2" d="M237.956,86.913c-0.086-0.572,0.114-0.172-0.229-0.715
	c-0.258-0.371-0.314-0.286-0.543-0.486l-1.286-1.114c-2.458-2.344-2.286-2.458-3.887-4.087l-1.314-1.086
	c-0.028-0.028-0.086-0.085-0.143-0.114c-1.515-1.257-2.258-1.314-3.801-3l-0.915-0.743c-1.8-1.229-0.686-1.315-3.029-2.744
	c-1.715-1.058-1-1.772-1.829-2.572c-0.543-0.571-0.171,0-0.942-0.457c-0.429-0.257-0.229-0.143-0.458-0.343
	c-0.514-0.543,0.144,0.143-0.313-0.429c-0.2-0.257-0.429-0.515-0.629-0.8l-0.572-1.115c-0.8-0.028-0.972,0.257-1.629,0.458
	c-0.285-1-0.485-0.943-1.086-1.629c-0.686-0.772-2.028-1.629-3.028-2.258c-0.172-0.114-0.286-0.171-0.458-0.286
	c-0.485-0.4-0.085-0.143-0.343-0.371c-0.571-0.458,0.229-0.4-1.172-0.486l4.916,4.715c0.742,0.6,0.8,1.057,1.771,1.629
	c1.771,1.029,7.716,7.23,10.288,9.088l3.687,2.829C232.668,82.083,235.898,86.741,237.956,86.913L237.956,86.913z"/>
<path fill-rule="evenodd" clip-rule="evenodd" fill="#C2C2C2" d="M130.132,7.779c0.943-0.4,1.686-1.258,2.543-2l2.543-2.029
	c1.515-1.286,3.401-4.573,6.687-1.057c0.829,0.857,0.171,0.485,1.257,1.114l3.487,2.629c1.229,1,2.058,2.115,3.801,3.229
	c0.314,0.2,0.4,0.257,0.714,0.486c0.629,0.371,0.143,0.171,0.915,0.485c-0.057-0.8,0.028-0.886-0.829-1.4
	c-1.801-1.029-2.515-1.943-4.229-3.43l-3.344-2.715c-0.286-0.229-0.314-0.286-0.515-0.458l-0.371-0.343
	c-1.601-1.314-3.515-4.315-7.03-0.2c-1.058,1.286-0.515,1.058-2.201,1.144l-0.372,0.857c-0.028,0.028-0.085,0.085-0.143,0.114
	L131.79,5.35C129.989,7.322,129.817,6.436,130.132,7.779L130.132,7.779z"/>
<path fill-rule="evenodd" clip-rule="evenodd" fill="#9F9EA1" d="M101.525,37.072c1.286,0.057,2.372-1.829,3.973-3.058l9.288-7.888
	c0.057-0.028,0.086-0.085,0.143-0.114l0.943-0.972c0.8-0.686,1.286-0.572,2.744-2.543c1.286-1.715,0.743-0.057,2-1.658
	c0.514-0.628,0.686-0.857,1.571-0.886l-0.028,6.802c0.429-0.543,0.457-0.886,0.543-1.658c0.057-0.515,0.086-0.943,0.114-1.458
	c0.086-1.286-0.057-2.601-0.057-3.887c-1.029-1.515-2.715,0.572-3.172,1l-2.543,2.286c-0.857,0.8-1.429,1.572-2.486,2.343
	c-3.687,2.744-4.916,4.401-6.458,5.63C106.584,32.242,102.125,35.558,101.525,37.072L101.525,37.072z"/>
<path fill-rule="evenodd" clip-rule="evenodd" fill="#7C7B75" d="M185.172,40.73c-0.257-0.915,0.172-0.171-0.515-0.943l-1.743-1.658
	c-0.543-0.6-0.028-0.114-0.686-0.543c-1.972-1.286-7.888-7.23-9.916-8.945l-3.401-2.858c-0.028-0.029-0.086-0.057-0.114-0.086
	c-0.914-0.743-1.829-1.372-2.314-2.343c-0.429-0.114-0.829-0.4-1.144-0.743c-0.886-0.943-0.086-0.686-1.229-1.229
	c-2.4-1.143-0.114-0.314-2.314-2.286c-0.829-0.714-1.572-1.343-2.43-2.144c-1.486-1.429-1.4-1.486-2.943-2.172
	c0,0.943,0.429,1.029,1.658,2c0.686,0.543,1.171,1.143,1.743,1.629l3.543,3.315c1.886,0.943,0.429,0.429,1.771,1.572
	c0.801,0.686,1.172,0.943,1.829,1.515l5.487,4.658c0.657,0.629,1.058,1.057,1.686,1.715c0.601,0.628,1.086,0.857,1.743,1.686
	l2.458,2.086c0.028,0.029,0.086,0.058,0.143,0.086c0.029,0.029,0.086,0.086,0.144,0.114c0.314,0.229,0.657,0.486,0.942,0.771
	c0.801,0.772,0.801,1.029,1.086,1.372c0.715,0.915-0.628-0.143,0.458,0.4c1.343,0.629,0.343-0.429,1.972,1.486
	C183.458,39.616,184.487,40.358,185.172,40.73L185.172,40.73z"/>
<path fill-rule="evenodd" clip-rule="evenodd" fill="#C2C2C2" d="M76.806,54.676c1.201-0.143,1.086-0.886,2.687-2.086
	c0.286-0.229,0.314-0.257,0.543-0.458l5.544-4.887c0.458-0.314,0.772-0.429,1.172-0.771l3.115-2.944
	c1.143-1,3.744-2.572,4.258-4.144c-1.772,0.143-0.486,0.143-1.772,0.886c-1.314,0.743,1.143-0.543-0.372,0.143
	c-0.743,0.343-0.143-0.172-1.114,0.743c-0.029,0.029-0.086,0.086-0.114,0.143l-1.515,1.314c-0.429,0.486-0.229,0.572-0.829,1.172
	c-0.457,0.457-0.628,0.457-1.114,1.029c-0.915,1.115-4.201,3.401-5.601,4.572c-0.057,0.029-0.115,0.086-0.143,0.115l-2.372,2.229
	c-0.028,0.028-0.543,0.543-0.6,0.6C76.32,54.505,76.777,53.305,76.806,54.676L76.806,54.676z"/>
<path fill-rule="evenodd" clip-rule="evenodd" fill="#7C7B75" d="M106.527,28.927c0.943-0.229,2.458-1.829,3.144-2.601
	c0.028-0.029,3-2.372,4.401-3.83c0.257-0.286,0.085-0.086,0.343-0.372c1.857-1.972,2.058-1.314,4.229-3.543l5.973-5.145
	c1.029-0.771,1.743-1.657,2.887-2.658l2.115-2.029c0.829-0.772,0.4,0.085,0.514-0.972c-0.057,0.028-0.143,0-0.171,0.085
	l-4.315,3.715c-2.143,1.915-6.458,5.116-8.059,7.23c-1.029,1.372-0.886,0.286-2.458,1.857c-0.514,0.486-0.857,0.8-1.372,1.257
	l-4.515,4.03c-0.743,0.857-1.886,1.572-2.429,2.4C106.47,28.927,106.87,27.956,106.527,28.927L106.527,28.927z"/>
<path fill-rule="evenodd" clip-rule="evenodd" fill="#7C7B75" d="M261.76,108.375l-0.229-0.715l-1.686-2.029
	c-0.4-0.543-1.657-1.257-2.43-1.658c-1.515-0.771-0.171,0.2-1.143-0.8c-0.657-0.686-0.457-0.8-0.801-1.114
	c-0.6-0.572-0.6,0.257-2.257-1.858c-0.314-0.4-0.572-0.714-0.915-1.029l-5.486-4.658c-0.286-0.2-0.887-0.628-1.115-0.829
	c-0.886-0.829-0.057-0.629-1.543-0.943c0.429,0.971-0.028,0.114,0.486,0.771c0.856,1.114,5.458,4.43,8.001,7.288l6.631,5.658
	C260.189,107.29,260.503,108.004,261.76,108.375L261.76,108.375z"/>
<path fill-rule="evenodd" clip-rule="evenodd" fill="#C2C2C2" d="M181.6,41.616c-0.086-1-1.286-1.715-1.943-2.372l-0.743-0.943
	c-1.229-0.171-1.743-1.171-2.629-1.8c-0.743-0.514-1.629-1.286-2.258-2.229c-0.429-0.629-0.743-0.543-1.543-1.2
	c-0.657-0.543-0.943-1-1.372-1.543c-1.028-0.514-1.686-1.372-2.8-1.772c0.543,2.172,0.571,0.771,2.943,3.144l0.543,0.972
	c1.429,0.2,1-0.028,2.144,1.172c0.886,0.943,0.686,1.257,1.543,1.772c1.4,0.8,0.543,0.429,1.2,1c0.343,0.314,0.114,0.057,0.6,0.372
	l3.087,2.486C180.971,41.587,180.486,41.559,181.6,41.616L181.6,41.616z"/>
<path fill-rule="evenodd" clip-rule="evenodd" fill="#50544D" d="M168.312,29.756c1.114,0.4,1.771,1.258,2.8,1.772
	c-0.371-1.601-1.657-1.286-3.429-3.344c-0.657-0.771-1.887-1.229-3.544-3.229c-0.657-0.771-1.601-1.857-2.572-2.2l0.114,0.829
	l5.744,5.43C167.826,29.642,167.541,29.67,168.312,29.756L168.312,29.756z"/>
<path fill-rule="evenodd" clip-rule="evenodd" fill="#C2C2C2" d="M209.606,66.165l-0.742-0.972c-1.4-1.572-1.344-1.4-3.115-2.715
	c-1.458-1.086-2.115-2.801-4.173-3.515c0.229,1.429,0.029,0.6,0.857,1.314c0.458,0.372,0.4,0.429,0.801,0.886l0.457,0.486
	c1.143,1.115,0.829,0.286,0.914,1.515c1.115,0,0.887-0.114,1.687,0.486c0.257,0.229,0.8,0.714,1,0.972s0.4,0.972,1.486,1.4
	C209.492,66.308,208.606,66.193,209.606,66.165L209.606,66.165z"/>
<path fill-rule="evenodd" clip-rule="evenodd" fill="#50544D" d="M56.573,76.311c0.714-0.343,0.114,0.057,0.771-0.429
	c0.286-0.2,0.229-0.229,0.486-0.486c1.572-1.486,3.601-3.544,3.572-0.515c0,0.572-0.057,1.143-0.057,1.715l0.171,2.543
	c0.2,0.571,0.229,0.429,0.429,0.628c0.2-1.143-0.028-2.629,0-3.886c0.029-1.201,0.458-2.772-0.771-3.058
	C59.745,72.481,56.973,75.139,56.573,76.311L56.573,76.311z"/>
<path fill-rule="evenodd" clip-rule="evenodd" fill="#C2C2C2" d="M198.119,56.105c-0.458-1.486-2.887-3.201-4.544-4.63
	c-1.029-0.886,0.199-0.257-1.2-0.629c0.657,1.801,1.314,1.658,2.429,2.744c0.571,0.572,2.058,1.915,2.657,2.343
	C197.518,56.591,197.318,55.991,198.119,56.105L198.119,56.105z"/>
<path fill-rule="evenodd" clip-rule="evenodd" fill="#9F9EA1" d="M243.328,91.914c0.086-1.2-0.371-0.886-1.114-1.515
	c-0.571-0.514-0.6-0.771-1.343-1.343c-0.486-0.4-0.829-0.857-1.258-1.171c-1.314-0.972-1-0.829-1.657-0.972
	c0.171,0.915,0.343,0.829,1,1.4c0.601,0.485,0.829,0.771,1.4,1.286c1,0.915,1.114,1.229,2.372,2
	C243.157,91.857,242.7,91.628,243.328,91.914L243.328,91.914z"/>
<path fill-rule="evenodd" clip-rule="evenodd" fill="#50544D" d="M273.249,118.949l-0.6-0.943c-0.2-0.229-0.486-0.458-0.743-0.686
	c-1.314-1.229-3.458-3.744-4.687-4.201c0.314,1,0.515,1.029,1.229,1.601C269.477,115.577,272.391,118.664,273.249,118.949
	L273.249,118.949z"/>
<path fill-rule="evenodd" clip-rule="evenodd" fill="#50544D" d="M178.914,38.301c-0.057-0.514,0.2-0.314-0.085-0.657
	c-1.286-0.229-1.344-1.029-2.258-1.629c-0.457-0.314-0.629-0.343-1.086-0.829c-0.743-0.772-0.258-0.686-1.458-0.915
	c0.629,0.943,1.515,1.715,2.258,2.229C177.17,37.129,177.685,38.129,178.914,38.301L178.914,38.301z"/>
<path fill-rule="evenodd" clip-rule="evenodd" fill="#C2C2C2" d="M73.691,57.62c0.886-0.114,0.086,0.286,1.629-1.029
	c0.515-0.458,0.972-0.886,1.486-1.201v-0.714l-0.829-0.085c-0.657,1.171-0.943,1.572-2.258,2.086L73.691,57.62z"/>
<path fill-rule="evenodd" clip-rule="evenodd" fill="#9F9EA1" d="M47.742,84.427c1-0.029,2-1.229,2.658-1.972
	c0.686-0.714,0.4,0.086,0.515-0.972c-1,0.171-0.686,0.057-1.772,1.2c-0.286,0.343-0.372,0.4-0.686,0.715L47.742,84.427z"/>
</svg>
