<?xml version="1.0" encoding="utf-8"?>
<!-- Generator: Adobe Illustrator 15.0.0, SVG Export Plug-In . SVG Version: 6.00 Build 0)  -->
<!DOCTYPE svg PUBLIC "-//W3C//DTD SVG 1.1//EN" "http://www.w3.org/Graphics/SVG/1.1/DTD/svg11.dtd">
<svg version="1.1" id="Layer_1" xmlns="http://www.w3.org/2000/svg" xmlns:xlink="http://www.w3.org/1999/xlink" x="0px" y="0px"
	 width="33.666px" height="33.667px" viewBox="-0.75 -0.917 33.666 33.667" enable-background="new -0.75 -0.917 33.666 33.667"
	 xml:space="preserve">
<path fill="#FFFFFF" stroke="#000000" stroke-linecap="round" stroke-linejoin="round" stroke-miterlimit="10" d="M29.182,19.07
	c-1.68-2.908-0.67-6.634,2.254-8.328l-3.145-5.447c-0.898,0.527-1.943,0.829-3.059,0.829c-3.36,0-6.084-2.742-6.084-6.125h-6.291
	c0.008,1.044-0.252,2.103-0.811,3.07c-1.678,2.908-5.41,3.897-8.338,2.211l-3.144,5.447c0.905,0.515,1.689,1.268,2.246,2.234
	c1.676,2.903,0.672,6.623-2.241,8.319l3.145,5.446c0.895-0.521,1.935-0.819,3.044-0.819c3.35,0,6.067,2.725,6.084,6.092h6.289
	c-0.003-1.034,0.259-2.08,0.812-3.038c1.677-2.902,5.398-3.895,8.324-2.219l3.146-5.447c-0.898-0.515-1.68-1.266-2.23-2.227v0.002
	H29.182z M16,22.479c-3.578,0-6.479-2.899-6.479-6.479S12.422,9.521,16,9.521s6.479,2.901,6.479,6.479S19.578,22.479,16,22.479z"/>
</svg>
