<?xml version="1.0" encoding="utf-8"?>
<!-- Generator: Adobe Illustrator 14.0.0, SVG Export Plug-In . SVG Version: 6.00 Build 43363)  -->
<!DOCTYPE svg PUBLIC "-//W3C//DTD SVG 1.1//EN" "http://www.w3.org/Graphics/SVG/1.1/DTD/svg11.dtd">
<svg version="1.1" id="Layer_1" xmlns="http://www.w3.org/2000/svg" xmlns:xlink="http://www.w3.org/1999/xlink" x="0px" y="0px"
	 width="20px" height="100px" viewBox="0 0 20 100" enable-background="new 0 0 20 100" xml:space="preserve">
<path fill="#155FD3" d="M2.169,65.589c0,1.494,0.5,2.572,1.482,3.205c0.807,0.521,1.74,0.599,2.227,0.599
	c0.117,0,0.213-0.006,0.279-0.011c0,0-0.154,1.005,0.59,1.996H6.713c-1.289,0-5.491,0.269-5.491,3.728
	c0,3.519,3.859,3.694,4.636,3.694c0.062,0,0.097-0.002,0.097-0.002c0.008,0,0.063,0.002,0.158,0.002
	c0.497,0,1.782-0.062,2.975-0.643c1.55-0.75,2.334-2.06,2.334-3.886c0-1.767-1.194-2.813-2.067-3.582
	c-0.533-0.471-0.994-0.873-0.994-1.269c0-0.397,0.337-0.698,0.763-1.082c0.688-0.612,1.338-1.489,1.338-3.147
	c0-1.457-0.188-2.438-1.354-3.06c0.121-0.062,0.551-0.104,0.764-0.137c0.631-0.086,1.553-0.187,1.553-0.699V61.2h-4.6
	C6.774,61.202,2.169,61.372,2.169,65.589L2.169,65.589z M9.594,74.602c0.088,1.406-1.115,2.443-2.924,2.574
	c-1.835,0.135-3.345-0.691-3.433-2.096c-0.043-0.676,0.254-1.336,0.834-1.863c0.59-0.533,1.398-0.863,2.278-0.928
	c0.104-0.006,0.207-0.012,0.31-0.012C8.36,72.277,9.511,73.275,9.594,74.602z M8.393,64.626c0.451,1.588-0.229,3.246-1.315,3.554
	c-0.125,0.034-0.254,0.051-0.385,0.051c-0.994,0-1.979-1.006-2.345-2.393c-0.204-0.775-0.188-1.458,0.047-2.111
	c0.229-0.646,0.644-1.078,1.163-1.226c0.125-0.035,0.254-0.053,0.385-0.053C7.143,62.448,7.915,62.945,8.393,64.626z M16.182,68v-3
	h-2v3h-3v2h3v3h2v-3h3v-2H16.182z"/>
<path fill="#155FD3" d="M19.358,45.419c0.151,0.417-0.338,1.375-1.466,2.872c-0.154,0.208-0.365,0.486-0.632,0.831
	c-0.509,0.654-0.802,1.078-0.883,1.281c-0.109,0.266-0.063,0.529,0.138,0.792c0.11,0.137,0.375,0.403,0.794,0.799h0.01l0.039,0.039
	c0.919,0.853,1.54,1.574,1.866,2.159c0.021,0.032,0.041,0.074,0.065,0.122c0.021,0.05,0.046,0.135,0.066,0.26
	c0.022,0.125,0.022,0.238-0.005,0.332c-0.026,0.098-0.107,0.188-0.245,0.269c-0.136,0.081-0.326,0.123-0.576,0.123l-2.502,0.038
	c-0.156,0.03-0.339,0.018-0.547-0.051c-0.207-0.063-0.376-0.138-0.506-0.214l-0.194-0.115c-0.194-0.14-0.425-0.345-0.685-0.625
	c-0.261-0.281-0.485-0.534-0.668-0.757c-0.188-0.226-0.385-0.411-0.597-0.567c-0.21-0.153-0.396-0.202-0.552-0.151
	c-0.021,0.01-0.045,0.021-0.078,0.034c-0.031,0.017-0.088,0.064-0.165,0.144c-0.076,0.076-0.149,0.174-0.208,0.286
	c-0.064,0.112-0.117,0.28-0.167,0.509c-0.049,0.224-0.069,0.476-0.065,0.754c0,0.099-0.011,0.188-0.032,0.269
	c-0.022,0.081-0.049,0.145-0.071,0.184l-0.044,0.05c-0.116,0.125-0.288,0.195-0.518,0.216h-1.13
	c-0.463,0.025-0.938-0.025-1.426-0.161c-0.49-0.135-0.919-0.307-1.286-0.519c-0.368-0.212-0.705-0.428-1.008-0.645
	c-0.303-0.218-0.532-0.404-0.688-0.562l-0.244-0.235c-0.066-0.065-0.156-0.162-0.269-0.292c-0.114-0.129-0.349-0.428-0.7-0.889
	c-0.352-0.463-0.697-0.956-1.035-1.477C2.806,50,2.408,49.311,1.949,48.458c-0.46-0.853-0.884-1.739-1.275-2.658
	c-0.04-0.105-0.059-0.193-0.059-0.264c0-0.071,0.009-0.125,0.027-0.156l0.04-0.059c0.098-0.124,0.284-0.187,0.558-0.187l2.678-0.019
	c0.079,0.012,0.153,0.034,0.224,0.063c0.073,0.029,0.124,0.056,0.157,0.083l0.048,0.029c0.106,0.07,0.182,0.176,0.237,0.312
	c0.13,0.325,0.28,0.663,0.45,1.012s0.302,0.614,0.4,0.797l0.156,0.283c0.189,0.391,0.372,0.73,0.548,1.016
	c0.176,0.286,0.332,0.51,0.474,0.668c0.141,0.16,0.275,0.286,0.405,0.377c0.13,0.09,0.241,0.137,0.333,0.137
	c0.092,0,0.179-0.018,0.264-0.049c0.013-0.008,0.029-0.021,0.048-0.05c0.019-0.026,0.059-0.097,0.117-0.214
	c0.058-0.117,0.102-0.272,0.131-0.46c0.027-0.187,0.06-0.452,0.093-0.792c0.033-0.339,0.033-0.745,0-1.222
	C7.99,46.848,7.96,46.61,7.916,46.396c-0.046-0.214-0.092-0.365-0.137-0.45l-0.06-0.117c-0.161-0.222-0.439-0.362-0.831-0.42
	c-0.084-0.013-0.066-0.091,0.049-0.235c0.111-0.125,0.236-0.223,0.372-0.292c0.346-0.169,1.124-0.247,2.335-0.235
	c0.534,0.007,0.973,0.049,1.319,0.126c0.132,0.032,0.238,0.075,0.326,0.132c0.088,0.057,0.153,0.135,0.2,0.235
	c0.044,0.1,0.078,0.205,0.102,0.312c0.024,0.108,0.034,0.257,0.034,0.445c0,0.188-0.003,0.369-0.011,0.538
	c-0.006,0.168-0.017,0.398-0.023,0.689c-0.009,0.29-0.015,0.559-0.015,0.806c0,0.07-0.005,0.207-0.011,0.41
	c-0.008,0.202-0.01,0.359-0.006,0.469c0.006,0.109,0.017,0.241,0.033,0.395c0.021,0.154,0.06,0.281,0.112,0.381
	c0.056,0.102,0.127,0.181,0.221,0.239c0.052,0.012,0.106,0.027,0.165,0.04c0.058,0.012,0.144-0.022,0.255-0.108
	c0.108-0.086,0.234-0.197,0.368-0.337c0.136-0.14,0.307-0.359,0.509-0.655c0.201-0.295,0.423-0.647,0.664-1.051
	c0.394-0.677,0.741-1.41,1.049-2.199c0.022-0.065,0.059-0.123,0.098-0.171c0.038-0.049,0.074-0.083,0.107-0.103l0.037-0.029
	l0.05-0.025c0,0,0.043-0.01,0.126-0.029c0.085-0.021,0.152-0.022,0.195-0.005l2.815-0.02c0.253-0.031,0.463-0.024,0.625,0.024
	c0.161,0.05,0.265,0.104,0.304,0.162L19.358,45.419z"/>
<path fill="#155FD3" d="M16.981,26.521c0.007,0.15,0.009,0.302,0.009,0.452c0,4.624-3.518,9.954-9.951,9.954
	c-1.976,0-3.813-0.579-5.362-1.573c0.275,0.033,0.554,0.049,0.834,0.049c1.64,0,3.146-0.56,4.343-1.497
	c-1.529-0.028-2.823-1.038-3.266-2.428c0.211,0.04,0.433,0.061,0.658,0.061c0.319,0,0.629-0.042,0.921-0.121
	c-1.603-0.323-2.807-1.736-2.807-3.431c0-0.015,0-0.029,0-0.043c0.472,0.262,1.012,0.419,1.584,0.438
	c-0.939-0.628-1.556-1.697-1.556-2.912c0-0.64,0.172-1.241,0.474-1.759c1.724,2.118,4.302,3.509,7.209,3.656
	c-0.059-0.257-0.09-0.523-0.09-0.798c0-1.931,1.564-3.496,3.495-3.496c1.007,0,1.915,0.423,2.555,1.104
	c0.795-0.158,1.545-0.448,2.221-0.849c-0.261,0.816-0.818,1.502-1.537,1.935c0.708-0.085,1.38-0.272,2.009-0.551
	C18.257,25.414,17.664,26.029,16.981,26.521z"/>
<path fill="#155FD3" d="M11.379,18.923H7.669v-8.89H5.815V6.968h1.854V5.128c0-2.5,1.045-3.987,4.021-3.987h2.475v3.066h-1.546
	c-1.159,0-1.234,0.428-1.234,1.229L11.38,6.968h2.806l-0.328,3.065h-2.479V18.923z"/>
</svg>
