<?xml version="1.0" encoding="utf-8"?>
<!-- Generator: Adobe Illustrator 15.0.0, SVG Export Plug-In  -->
<!DOCTYPE svg PUBLIC "-//W3C//DTD SVG 1.1//EN" "http://www.w3.org/Graphics/SVG/1.1/DTD/svg11.dtd" [
	<!ENTITY ns_flows "http://ns.adobe.com/Flows/1.0/">
]>
<svg version="1.1"
	 xmlns="http://www.w3.org/2000/svg" xmlns:xlink="http://www.w3.org/1999/xlink" xmlns:a="http://ns.adobe.com/AdobeSVGViewerExtensions/3.0/"
	 x="0px" y="0px" width="336px" height="428px" viewBox="0 0 336 428" enable-background="new 0 0 336 428" xml:space="preserve">
<defs>
</defs>
<path fill-rule="evenodd" clip-rule="evenodd" fill="#EBEBEB" d="M233.679,355.03c7.431-2.2,8.888,12.917,1.829,14.403
	c-4.486,0.943-6.401-2.601-6.658-6.459C228.507,357.974,230.022,356.116,233.679,355.03L233.679,355.03z M230.336,333.425
	c-10.546,2.029-10.488-9.603-5.888-14.632C232.822,318.593,235.594,326.767,230.336,333.425L230.336,333.425z M199.843,316.449
	l-2.2,0.143l-0.657-4.372c-3.001,3.4-0.371,1.771-3.572,3.258c-1.314-3.315-0.6-3.943,0.686-7.459l-1.771,0.686l-2.829,4.802
	l-2.172-5.802l-3.258,4.201l1.657-8.345c-14.203-2.515-0.629,2.258-11.431-1.172c-0.172-0.028-0.458-0.143-0.629-0.172
	c-2.801-0.657-2.029,0-4.287-0.114l-2.486-0.314c-19.518-2.229-65.785,0.144-79.045-19.604c-2.801,1.972-2.915,1.943-5.03,4.772
	c-22.719,30.607-31.55,63.616-22.519,102.396c2.458,10.632,5.516,14.232,14.632,20.52c7.687,5.315,15.003,6.517,25.091,9.231
	c37.351,10.002,89.763,8.944,125.513-1.687c18.318-5.43,28.436-4.029,37.38-32.122c9.23-28.979,0.4-57.472-15.946-80.905
	c-3.801-5.487-10.374-15.318-15.317-19.405l-4.373,2.144l3.229,22.52l-2.887,0.972c-2.829,0.515-0.942,0.601-3.743-1.857
	c-2.943,7.659-1.715,3.772-4.344,7.059l-2.915-3.629c-0.086-0.4-0.286-0.458-0.485-0.657l-1.286,5.858l-2.544-4.602
	c-0.8,3.372-0.343,2.258-1.857,4.087l-2-5.173c-3.201,2.829-1.687,2.001-4.173,5.087l-1.229,1.172
	c-0.258-1.657-0.657-4.887-1.629-6.373L199.843,316.449z"/>
<path fill-rule="evenodd" clip-rule="evenodd" fill="#EBEBEB" d="M155.177,294.529c7.973-20.748,10.431-21.748,6.687-44.439
	c-2.572-15.689,7.259-30.235,6.001-47.04l-39.923-5.43c-7.287-2.372-27.606-12.832-31.692-13.203
	c-1.629,2.257-2.915,3.315-4.229,6.659l7.087,3.029c3.744,2.201,9.974,13.002,7.458,18.804c-2.886-10.659-5.944-24.72-25.462-19.433
	c-21.09,5.716-60.156,57.014-55.87,81.621c4.658,26.749,18.404,14.403,24.72,15.203c6.23,0.801,12.317,6.345,15.375-1.743
	c2.286-5.973,1.6-12.718,5.001-18.176c5.744-9.202,12.231-17.861,19.204-27.093c2.486-3.344,7.345-9.831,10.631-12.574
	c3.086-2.601,3.543-0.857,4.772-6.345c0.714-3.258,0.543-6.802,1.629-9.487c-4.458,21.862-1.486,12.174-8.402,19.861
	c-3.629,4.059-19.175,25.007-20.347,29.551l32.064,29.95c4.001,2.258,32.979,4.058,40.781,4.572
	c7.116,0.485,9.459,1.829,11.431-2.258c-3.744-0.028-1.257,0.086-3.858,0.686l0.458-3.486
	C154.833,295.587,156.091,294.987,155.177,294.529L155.177,294.529z"/>
<path fill-rule="evenodd" clip-rule="evenodd" fill="#2E2E2E" d="M172.609,297.216c-0.143-4.144-1.257-2.943-3.658-4.229
	l-5.629-3.486c-0.743-2.544-1.057-1.915-0.657-4.544c0.028-0.286,1.143-3.658,1.372-4.516c0.8-3.115,1.372-7.573,1.629-11.089
	c0.829-10.174-1.743-15.175-1.857-23.177l6.43-43.496l9.288-1.543c1.972,19.004-3.315,40.209,3.801,57.014
	c3.229,7.659,4.43,16.433,5.258,26.264c0.887,10.517,2.258,9.859-11.402,10.745C173.352,295.387,175.039,293.101,172.609,297.216
	L172.609,297.216z M288.606,217.425c16.432,1.344,19.29,23.777,9.745,37.98c-3.029,4.516-6.573,6.603-11.231,9.146l0.144-5.059
	c-18.719-1.172-7.802-20.548-4.573-22.806c4.516-3.172,10.889-1.629,12.403-7.001C297.379,221.397,288.72,223.512,288.606,217.425
	L288.606,217.425z M203.559,191.704l7.059-5.916c4.801,4.373,9.916,12.117,14.746,19.262c4.715,6.945,8.23,14.747,10.916,24.292
	l-9.688,55.843c-1.229-1.857-6.573-25.092-8.888-31.094c-1.629-4.258-6.287-9.859-6.059-13.688l-4.943-13.403
	C204.844,213.367,206.988,205.336,203.559,191.704L203.559,191.704z M96.25,184.417c4.086,0.372,24.405,10.831,31.692,13.203
	l39.923,5.43c1.258,16.805-8.573,31.351-6.001,47.04c3.744,22.691,1.286,23.691-6.687,44.439c0.915,0.458-0.343,1.058,3.515-0.771
	l-0.458,3.486c2.601-0.6,0.114-0.714,3.858-0.686c-1.972,4.087-4.315,2.743-11.431,2.258c-7.802-0.515-36.78-2.314-40.781-4.572
	l-32.064-29.95c1.172-4.544,16.718-25.492,20.347-29.551c6.916-7.688,3.944,2.001,8.402-19.861
	c-1.086,2.686-0.915,6.229-1.629,9.487c-1.229,5.487-1.686,3.744-4.772,6.345c-3.286,2.743-8.145,9.23-10.631,12.574
	c-6.973,9.231-13.46,17.891-19.204,27.093c-3.401,5.458-2.715,12.203-5.001,18.176c-3.058,8.088-9.145,2.544-15.375,1.743
	c-6.315-0.8-20.062,11.546-24.72-15.203c-4.287-24.606,34.779-75.905,55.87-81.621c19.519-5.287,22.576,8.774,25.462,19.433
	c2.515-5.802-3.715-16.604-7.458-18.804l-7.087-3.029C93.334,187.732,94.621,186.674,96.25,184.417L96.25,184.417z M213.79,185.045
	c14.86-2.943,35.722,13.775,49.439,20.462c9.202,4.486,7.544,3.715,12.688,11.402c-3.772,1.001-0.314-0.914-8.773,2.001
	l25.405,10.088l-15.917,5.802c-4.315,10.774,3.343,7.745-13.575,14.375l11.231-0.629l-1.286,20.319l-31.692-13.032
	C240.938,226.427,233.336,207.594,213.79,185.045L213.79,185.045z M285.863,218.711c-3.973-0.485-3.544-0.057-7.316-1.801
	l3.516-64.53c0.143,0.229,0.285,0.343,0.313,0.714c0.058,0.4,0.258,0.572,0.314,0.743c0.058,0.171,0.2,0.543,0.258,0.771
	l1.371,14.775c2.458-0.658,1.4-0.629,3.744-4.116L285.863,218.711z M201.616,308.447c0.771,4.516-0.629,0.829-2.43,3.001
	c-1.2,1.486-1.485-2.458-1.114,2.086c0.343,4.344-0.886,0.258,1.771,2.915l1.572-4.858c0.972,1.486,1.371,4.716,1.629,6.373
	l1.229-1.172c2.486-3.086,0.972-2.258,4.173-5.087l2,5.173c1.515-1.829,1.058-0.715,1.857-4.087l2.544,4.602l1.286-5.858
	c0.199,0.199,0.399,0.257,0.485,0.657l2.915,3.629c2.629-3.286,1.4,0.601,4.344-7.059c2.801,2.458,0.914,2.372,3.743,1.857
	l2.887-0.972l-3.229-22.52l4.373-2.144c4.943,4.087,11.517,13.918,15.317,19.405c16.347,23.434,25.177,51.927,15.946,80.905
	c-8.944,28.093-19.062,26.692-37.38,32.122c-35.75,10.631-88.162,11.688-125.513,1.687c-10.088-2.715-17.404-3.916-25.091-9.231
	c-9.116-6.287-12.174-9.888-14.632-20.52c-9.031-38.78-0.2-71.789,22.519-102.396c2.115-2.829,2.229-2.801,5.03-4.772
	c13.26,19.748,59.527,17.376,79.045,19.604l2.486,0.314c2.258,0.114,1.486-0.543,4.287,0.114c0.171,0.029,0.457,0.144,0.629,0.172
	c10.802,3.43-2.772-1.343,11.431,1.172l-1.657,8.345l3.258-4.201l2.172,5.802l2.829-4.802c-0.172-0.285-0.543-1.057-0.629-1.285
	c-0.114-0.229-0.285-0.658-0.371-0.887c-0.114-0.257-0.286-0.686-0.429-1l1.457-2.458c-1.086-3.114-0.8-0.914-1.8-2.058
	c-0.657-0.742-1.172,2.344-0.801-2.028c0.915-11.146,2.516-10.66-0.285-26.664c-2.001-11.346-6.716-17.947-7.631-29.808
	c-1-13.317,1.544-23.148,0.429-35.723l-10.174-28.207l21.52-3.201c16.604,23.72,6.173,47.183,14.203,65.273
	c3.972,8.945,8.373,11.174,12.088,28.179l6.431,33.751l-9.517,2.887c-2.344,0.199,0.2-0.915-3.058,0.571
	c-0.144,0.086-0.429,0.257-0.572,0.343c-6.401,3.372-1.686-1.114-7.772,4.059l-2.372-4.973L201.616,308.447z M208.845,162.897
	c2.258,14.289-0.371,16.718-5.458,25.435l-7.716-13.889C197.443,171.985,206.845,163.24,208.845,162.897L208.845,162.897z
	 M272.488,150.037c0.743-3.801,2.458-8.66,3.772-12.689c3.458-10.431,0.943-10.717,5.802-10.831v11.603
	c4.658-12.117,1.6-8.602,5.372-9.945c0,6.059-0.657,9.002,1.687,11.088c1.657-12.489,0.314-8.888,3.029-10.688l3.029,10.574
	c2.686-10.317-0.857-7.745,2.028-11.603c2.858,4.572,5.373,22.262,5.001,26.749l-5.115-6.858l-2.543,15.146l-4.401-14.175
	l-4.058,10.259l-1.258-14.032c-4.858,3.115-4.286,4.772-4.458,4.43c-0.058-0.172-0.257,0.486-0.4,0.714
	c0.058-4.144,0.515-4.772-0.942-6.887l-3.658,3.972C274.289,148.179,274.317,148.694,272.488,150.037L272.488,150.037z
	 M230.765,124.031c-3.001,2.229-2.658,1.343-7.088,2.172c-7.916,1.486-12.688,4.83-19.062,7.259
	c-9.059,3.429-20.604,5.659-25.434-2.286c-9.517-15.518,10.916-9.203,18.175-8.602C208.931,123.545,219.248,122.287,230.765,124.031
	L230.765,124.031z M298.694,122.373c-1.457,3.429-5.315,4.258-9.773,3.429L298.694,122.373z M293.835,121.116
	c-2.114,1.2-4.715,2.115-7.773,2.2c-5.687,0.171-4.743-0.257-5.258-4.715L293.835,121.116z M196.9,85.278
	c-2.2-3.287-2.258-2-4.744-6.602l12.632,2.715C200.758,85.221,202.501,84.221,196.9,85.278L196.9,85.278z M295.179,39.724
	c0.171-0.2,0.343-0.515,0.428-0.686l1.058-2.229c1.458-4.287,2.344-16.232,4.344-20.434l0.915,26.835
	c4.801-5.258,3.258-2.829,5.658-8.516c1.314-3.115,2.943-6.402,3.943-9.202l-2.571,31.894c5.087-6.544,5.058-6.544,9.287-13.661
	l-13.603,55.614c-0.771,3.086-1.515,5.687-2.229,8.831c-0.828,3.601-0.629,4.201-2.229,7.173c-0.086,0.143-0.4,0.8-0.458,0.657
	c-0.085-0.171-0.313,0.457-0.514,0.629c-3.344-8.831,10.116-41.353,7.059-48.955c-3.315,10.86-4.516,14.204-6.545,25.692
	c-0.856,4.83-1.8,8.831-2.657,13.575c-2.344,13.204-1.086,10.546-4.915,11.317l4.029-63.53l-2.744,15.261
	c-1.399,9.917-3,43.611-5.315,47.84l-4.029-51.87l-1,50.212c-4.115-17.918-4.258-16.718-5.372-35.409
	c-0.572-9.66-3.658-29.579-2.544-38.066l7.373,5.916l-2.458-17.461l5.516,9.831c1.857,2.629,0.2,1.2,2.515,2.344l1.772-17.205
	c2.058,3.83,1.543,2.944,2.457,7.059C293.122,36.666,292.835,37.695,295.179,39.724L295.179,39.724z M133.8,6.373l0.486,1.343
	c18.404,1.314,8.059-8.888,27.834,24.606c3.687,6.259,17.747,29.207,18.662,33.094l-37.866,6.373l-23.177,11.06
	c-1.4,0.8-2.315,1.2-3.744,2.372l-1.772,2c-0.057-0.143-0.257,0.371-0.343,0.543c4.772-0.515,29.264-18.147,57.499-20.548
	c10.745-0.886,13.317,1.171,16.375,10.174l-30.149,4.229l-0.629,2.601c5.315-1.743,13.518-3.687,20.204-4.458
	c7.916-0.915,13.117,2.058,17.146,6.087c-4.543,3.315-13.488,3.515-19.175,5.887l0.742,2.315
	c10.632-2.829,23.148-5.373,31.521-10.117l-1.771-4.715l7.201,1.086c-5.715,7.688-8.03,8.002-20.719,11.374
	c-7.03,1.857-16.918,4.315-24.605,4.973c-3.286,2.486,0.172-0.057-2.572,1.086c-0.343,0.143-1.372,0.486-1.686,0.629
	c-2.658,1.286-0.743-0.743-3.229,2.2c18.547-2.229,32.808-7.602,41.838-8.888l12.26,28.893l-25.405-1.972
	c-9.773-2.229-16.433,1.486-12.746,11.717c6.116,16.861,28.406,5.03,39.838,1.4l-10.374,29.779
	c-7.259,7.487-10.345,12.06-25.263,13.174c-14.803,1.115-19.033,3.058-32.378-2.972c-9.145-4.144-15.346-16.29-19.976-17.318
	l-0.085,0.943c0.829,3.144,7.83,8.259,10.631,11.632c10.831,12.975,29.263,9.002,32.893,14.489l7.63,16.118
	c-24.148,8.402-51.097-0.515-73.102-11.088l-8.716-4.944l2.029-8.202l-0.429-1.801c-6.944,18.433-2.629,16.461-16.947,19.662
	c-20.09,4.458-43.495,37.837-52.783,56.042c-15.204,29.778,0.457,50.698,11.174,47.354c6.487-2.058,6.287-3.744,12.974-1.086
	c22.176,8.859,10.688-19.72,23.205-27.207l9.031,15.261c-12.86,18.319-21.119,27.407-26.92,50.498
	c-6.659,26.578-4.172,41.325,2.372,66.417l-34.465,0.429c-6.287,1.429-24.205,6.344-26.32,11.574
	c9.602-3.63,19.861-7.974,29.806-10.089c10.517-2.257,26.949-3.229,34.465,2.915c7.516,6.174,9.145,10.688,26.892,15.49
	c8.974,2.429,24.462,5.201,34.636,6.772c24.748,3.858,54.241,3.087,78.617-0.857c8.659-1.4,42.267-8.888,48.269-15.375
	c4.829-5.229,5.658-3.943,12.23-7.259l1.858-2.029l-2.744,0.314l-5.486,1.344c2.801-8.688,9.116-16.118,10.116-31.637
	c0.857-13.061-0.686-25.12-4.401-36.495l-31.378-51.126l7.773-23.292c3.515,1.144,10.487,5.773,14.518,7.859l18.489,4.315
	l-5.029,126.631c2.229,6.259-0.029,12.66-0.086,20.291c5.572-0.286,0.629,0.399,2.572-2.401l5.63-156.095l7.115,2.515
	c0.343,8.402-2.458,63.93-3.029,76.647c-0.515,11.746-3.486,70.589-2.343,77.019l-0.4,1.801l1.743-0.2l1.258-18.176
	c16.546,0.2,28.691-1.172,43.066,3.344c1.943,0.6,4.458,1.515,6.259,2c2.485,0.657,3.229,1.029,5.172-0.257l-54.44-7.916
	l4.915-128.203c10.517-8.088,18.547-11.488,19.947-26.378c2.315-24.663-12.831-24.749-17.403-28.064l1.972-53.041l3.058,9.288
	l5.03-16.29l6.602,10.431l-4.315-35.837c-0.601-5.059,13.203-57.671,15.518-66.702c1.429-5.573,8.459-29.35,6.944-32.351
	c-4.486,5.458-7.773,12.088-10.603,18.633l2.687-33.58c-5.458,5.744-4.887,6.63-8.631,15.575c-0.886,2.144-1.286,3.258-2.801,4.744
	C303.752,19.319,304.638,3.258,302.238,0c-2.915,5.344-4.973,21.605-6.974,31.522l-6.144-17.09l-3.144,22.034l-4.487-9.488
	c-5.001-10.459-2.258-6.602-5.687-7.945l3.544,23.12l-7.23-4.744l4.943,64.559c1.001,13.689,2.458,17.976-1.743,30.522
	c-2.143,6.344-7.145,19.805-7.744,25.292l9.431-7.745l-2.372,13.432l1.258,0.343c0.143,0.029,0.514,0.115,0.628,0.143l1.144,0.343
	c0.058-0.171,0.371,0.086,0.543,0.172l-1.857,44.582c-18.775-10.059-47.268-28.921-64.757-26.549l0.114-15.003
	c-0.715-7.002-2.63-5.802,0.399-12.489c3.487-7.659,5.858-14.604,5.916-24.435l18.575-4.287c-10.174-6.315-5.887-4.715-14.688-5.801
	c-7.83-0.972-3.772-1.658-9.831-17.09c-2.372-5.059-5.602-7.859-8.116-12.518c5.459-3.287,10.117-4.115,11.031-10.088l-24.72-5.401
	l-23.806-40.324C149.232,6.059,154.148,3.172,133.8,6.373L133.8,6.373z"/>
<path fill-rule="evenodd" clip-rule="evenodd" fill="#EBEBEB" d="M174.923,156.039l12.518,1.372c-1.829,2.372-6.373,2.4-9.688,1.286
	C172.409,156.867,177.439,158.01,174.923,156.039L174.923,156.039z M157.292,140.377c4.258,0.457,10.431,8.202,21.233,9.316
	c6.944,0.686,16.518-0.486,22.29-4.858l2.973-2c-0.4,6.373-2.572,5.887-9.202,7.745c-12.746,3.601-22.891,1.915-33.436-5.316
	C157.377,142.692,159.063,142.978,157.292,140.377L157.292,140.377z M168.751,117.543c-0.687-2.343-1.4-5.401-1.001-8.516
	c0.515-3.801,1.658-5.116,4.373-6.573C180.439,105.226,179.125,119.83,168.751,117.543L168.751,117.543z M187.269,117.029
	c-4.887-4.001-4.629-12.432,0-15.89C195.271,102.568,196.385,116,187.269,117.029L187.269,117.029z M160.035,100.567l-23.805,3.601
	c-2.572,16.49-12.231,13.032-20.947,4.144l-1.658-1.601c-6.03,4.03-6.115,3.887-7.602,11.832c-1,5.401-2.429,13.346,1.086,17.119
	c1.229,1.343,9.202,7.116,10.831,8.345c3.858,2.944,7.23,6.23,9.888,10.374c4.63,1.029,10.831,13.175,19.976,17.318
	c13.346,6.03,17.575,4.087,32.378,2.972c14.918-1.114,18.004-5.687,25.263-13.174l10.374-29.779
	c-11.432,3.629-33.722,15.461-39.838-1.4c-3.687-10.231,2.973-13.946,12.746-11.717l25.405,1.972l-12.26-28.893
	C192.842,92.966,178.582,98.338,160.035,100.567L160.035,100.567z"/>
<path fill-rule="evenodd" clip-rule="evenodd" fill="#FFF4B4" d="M134.287,7.716c-3.115,2.658-9.859,3.287-14.46,4.715
	c-9.202,2.858-35.065,15.461-34.293,23.006l16.003,61.672c0.2-0.114,0.486-0.628,0.572-0.457c0.457,0.943,5.516-8.116,11.774-8.888
	c0.086-0.172,0.286-0.686,0.343-0.543l1.772-2c1.429-1.172,2.343-1.572,3.744-2.372l23.177-11.06l37.866-6.373
	c-0.915-3.887-14.975-26.835-18.662-33.094C142.345-1.172,152.69,9.031,134.287,7.716L134.287,7.716z"/>
<path fill-rule="evenodd" clip-rule="evenodd" fill="#F58965" d="M190.899,305.532l4.43-2.887l1.343,3.516
	c1.086-0.571-0.972-2.086,2.429-0.143c3.458,2-1.743,0.229,2.516,2.429l1.429-2.972l2.372,4.973
	c6.087-5.173,1.371-0.687,7.772-4.059c0.144-0.086,0.429-0.257,0.572-0.343c3.258-1.486,0.714-0.372,3.058-0.571l9.517-2.887
	l-6.431-33.751c-3.715-17.005-8.116-19.233-12.088-28.179c-8.03-18.09,2.4-41.553-14.203-65.273l-21.52,3.201l10.174,28.207
	c1.115,12.574-1.429,22.405-0.429,35.723c0.915,11.86,5.63,18.462,7.631,29.808c2.801,16.004,1.2,15.519,0.285,26.664
	c-0.371,4.372,0.144,1.286,0.801,2.028c1,1.144,0.714-1.057,1.8,2.058L190.899,305.532z"/>
<path fill-rule="evenodd" clip-rule="evenodd" fill="#EBEBEB" d="M213.79,185.045c19.547,22.548,27.148,41.381,27.521,70.789
	l31.692,13.032l1.286-20.319l-11.231,0.629c16.918-6.63,9.26-3.601,13.575-14.375l15.917-5.802l-25.405-10.088
	c8.459-2.915,5.001-1,8.773-2.001c-5.145-7.688-3.486-6.916-12.688-11.402C249.511,198.82,228.65,182.102,213.79,185.045
	L213.79,185.045z"/>
<path fill-rule="evenodd" clip-rule="evenodd" fill="#F58965" d="M99.107,173.329l-2.029,8.202l8.716,4.944
	c22.005,10.574,48.954,19.49,73.102,11.088l-7.63-16.118c-3.63-5.487-22.062-1.515-32.893-14.489
	c-2.801-3.373-9.802-8.488-10.631-11.632c-2.372-1.857-4.744-3.772-6.944-6.144c-7.402-8.031-9.288-7.288-13.689-10.403
	c-3.887-2.743-2.286-3.887-4.572-7.688l-4.087,9.174c-0.4,1.915,2.687,24.292,1.429,31.007
	C99.393,173.957,100.193,171.813,99.107,173.329L99.107,173.329z"/>
<path fill-rule="evenodd" clip-rule="evenodd" fill="#CE9360" d="M295.179,39.724c-2.344-2.029-2.058-3.058-2.83-6.544
	c-0.914-4.115-0.399-3.229-2.457-7.059l-1.772,17.205c-2.314-1.144-0.657,0.286-2.515-2.344l-5.516-9.831l2.458,17.461l-7.373-5.916
	c-1.114,8.488,1.972,28.407,2.544,38.066c1.114,18.69,1.257,17.49,5.372,35.409l1-50.212l4.029,51.87
	c2.315-4.229,3.916-37.924,5.315-47.84l2.744-15.261l-4.029,63.53c3.829-0.771,2.571,1.886,4.915-11.317
	c0.857-4.744,1.801-8.745,2.657-13.575c2.029-11.488,3.229-14.832,6.545-25.692c3.058,7.602-10.402,40.124-7.059,48.955
	c0.2-0.172,0.429-0.8,0.514-0.629c0.058,0.143,0.372-0.515,0.458-0.657c1.6-2.972,1.4-3.572,2.229-7.173
	c0.715-3.144,1.458-5.744,2.229-8.831l13.603-55.614c-4.229,7.116-4.2,7.116-9.287,13.661l2.571-31.894
	c-1,2.8-2.629,6.087-3.943,9.202c-2.4,5.687-0.857,3.258-5.658,8.516l-0.915-26.835c-2,4.201-2.886,16.147-4.344,20.434
	l-1.058,2.229C295.522,39.209,295.35,39.524,295.179,39.724L295.179,39.724z"/>
<path fill-rule="evenodd" clip-rule="evenodd" fill="#EBEBEB" d="M217.705,254.091c2.314,6.002,7.659,29.236,8.888,31.094
	l9.688-55.843c-2.686-9.545-6.201-17.347-10.916-24.292c-4.83-7.145-9.945-14.889-14.746-19.262l-7.059,5.916
	c3.429,13.632,1.285,21.663,3.144,35.295l4.943,13.403C211.417,244.231,216.076,249.833,217.705,254.091L217.705,254.091z"/>
<path fill-rule="evenodd" clip-rule="evenodd" fill="#F58965" d="M172.609,297.216c2.43-4.115,0.743-1.829,4.572-2.058
	c13.66-0.886,12.289-0.229,11.402-10.745c-0.828-9.831-2.028-18.604-5.258-26.264c-7.116-16.805-1.829-38.01-3.801-57.014
	l-9.288,1.543l-6.43,43.496c0.114,8.002,2.687,13.003,1.857,23.177c-0.257,3.516-0.829,7.974-1.629,11.089
	c-0.229,0.857-1.343,4.229-1.372,4.516c-0.4,2.629-0.086,2,0.657,4.544l5.629,3.486
	C171.352,294.272,172.466,293.072,172.609,297.216L172.609,297.216z"/>
<path fill-rule="evenodd" clip-rule="evenodd" fill="#C0C577" d="M271.117,415.845l7.373,0.086
	c-1.144-6.43,1.828-65.272,2.343-77.019c0.571-12.718,3.372-68.245,3.029-76.647l-7.115-2.515L271.117,415.845z"/>
<path fill-rule="evenodd" clip-rule="evenodd" fill="#FFF4B4" d="M113.882,87.765c-1.6,4.772-8.259,6.744-9.173,9.402l-0.257,14.203
	c4.83-1.629,1.886-1.229,5.573-4.973c1.886-1.943,3.772-2.772,5.772-4.258c11.146-8.202,27.664-17.233,41.81-20.52l30.149-4.229
	c-3.058-9.002-5.63-11.06-16.375-10.174C143.146,69.617,118.654,87.25,113.882,87.765L113.882,87.765z"/>
<path fill-rule="evenodd" clip-rule="evenodd" fill="#535353" d="M125.142,105.74c-2.343-0.857-0.429,0-1.4-2.029
	c3.287-2.687,3.058-0.715,3.915,1.286C127.228,105.312,128.885,107.112,125.142,105.74L125.142,105.74z M115.796,104.997
	c1.658-2.715,13.46-9.859,16.118-9.316l0.857,5.687l-10.917,4.344c0.857,2.601,3.029,3.144,5.487,2.257
	c4.744-1.686-0.6-2.115,5.458-3.201c0.657,3.258,1.458,5.03-3.029,8.059C122.541,111.027,119.426,111.37,115.796,104.997
	L115.796,104.997z M98.679,171.528l0.429,1.801c1.086-1.515,0.286,0.628,0.771-2.058c1.257-6.716-1.829-29.093-1.429-31.007
	l4.087-9.174c2.286,3.801,0.686,4.944,4.572,7.688c4.401,3.115,6.287,2.372,13.689,10.403c2.2,2.372,4.572,4.287,6.944,6.144
	l0.085-0.943c-2.658-4.144-6.03-7.43-9.888-10.374c-1.629-1.229-9.602-7.001-10.831-8.345c-3.515-3.772-2.086-11.717-1.086-17.119
	c1.486-7.945,1.572-7.802,7.602-11.832l1.658,1.601c8.716,8.888,18.375,12.346,20.947-4.144l23.805-3.601
	c2.486-2.943,0.572-0.914,3.229-2.2c0.314-0.143,1.343-0.486,1.686-0.629c2.744-1.143-0.714,1.4,2.572-1.086l8.373-2.601
	l-0.742-2.315l-39.609,9.06l-1.115-7.974c4.258-1,17.661-6.63,22.548-8.602l0.629-2.601c-14.146,3.287-30.664,12.317-41.81,20.52
	c-2,1.486-3.886,2.314-5.772,4.258c-3.687,3.744-0.743,3.344-5.573,4.973l0.257-14.203c0.915-2.658,7.573-4.63,9.173-9.402
	c-6.258,0.771-11.317,9.831-11.774,8.888c-0.086-0.171-0.372,0.343-0.572,0.457L85.533,35.438
	c-0.771-7.545,25.091-20.148,34.293-23.006c4.601-1.429,11.345-2.058,14.46-4.715L133.8,6.373
	c-17.146,2.915-31.75,11.031-43.038,19.319c-10.031,7.345-7.659,9.574-4.458,20.919c2.058,7.374,4.172,15.947,6.202,23.978
	c3.058,12.26,14.06,46.097,10.574,56.042c-1.486,4.287-0.143,0.628-3.344,3.772C93.706,136.348,98.164,158.239,98.679,171.528
	L98.679,171.528z"/>
<path fill-rule="evenodd" clip-rule="evenodd" fill="#EBEBEB" d="M298.351,255.405c9.545-14.203,6.687-36.637-9.745-37.98
	c0.114,6.087,8.773,3.973,6.487,12.261c-1.515,5.372-7.888,3.829-12.403,7.001c-3.229,2.258-14.146,21.634,4.573,22.806
	l-0.144,5.059C291.778,262.008,295.322,259.921,298.351,255.405L298.351,255.405z"/>
<path fill-rule="evenodd" clip-rule="evenodd" fill="#EBEBEB" d="M156.977,84.221c-4.887,1.972-18.29,7.602-22.548,8.602
	l1.115,7.974l39.609-9.06c5.687-2.372,14.632-2.572,19.175-5.887c-4.029-4.029-9.23-7.001-17.146-6.087
	C170.495,80.534,162.292,82.478,156.977,84.221L156.977,84.221z"/>
<path fill-rule="evenodd" clip-rule="evenodd" fill="#F5853E" d="M230.765,124.031c-11.518-1.744-21.834-0.486-33.408-1.458
	c-7.259-0.601-27.691-6.916-18.175,8.602c4.829,7.945,16.375,5.715,25.434,2.286c6.373-2.429,11.146-5.773,19.062-7.259
	C228.107,125.374,227.764,126.26,230.765,124.031L230.765,124.031z"/>
<path fill-rule="evenodd" clip-rule="evenodd" fill="#CE9360" d="M272.488,150.037c1.829-1.343,1.801-1.858,2.887-3.172l3.658-3.972
	c1.457,2.115,1,2.743,0.942,6.887c0.144-0.229,0.343-0.886,0.4-0.714c0.172,0.343-0.4-1.315,4.458-4.43l1.258,14.032l4.058-10.259
	l4.401,14.175l2.543-15.146l5.115,6.858c0.372-4.487-2.143-22.177-5.001-26.749c-2.886,3.858,0.657,1.286-2.028,11.603
	l-3.029-10.574c-2.715,1.8-1.372-1.801-3.029,10.688c-2.344-2.086-1.687-5.03-1.687-11.088c-3.772,1.343-0.714-2.172-5.372,9.945
	v-11.603c-4.858,0.114-2.344,0.4-5.802,10.831C274.946,141.377,273.231,146.236,272.488,150.037L272.488,150.037z"/>
<path fill-rule="evenodd" clip-rule="evenodd" fill="#C0C577" d="M288.063,165.269c-2.344,3.487-1.286,3.458-3.744,4.116
	l-1.371-14.775c-0.058-0.229-0.2-0.6-0.258-0.771c-0.057-0.171-0.257-0.343-0.314-0.743c-0.028-0.372-0.171-0.486-0.313-0.714
	l-3.516,64.53c3.772,1.744,3.344,1.315,7.316,1.801L288.063,165.269z"/>
<path fill-rule="evenodd" clip-rule="evenodd" fill="#F58965" d="M208.845,162.897c-2,0.343-11.402,9.088-13.174,11.545
	l7.716,13.889C208.474,179.616,211.103,177.187,208.845,162.897L208.845,162.897z"/>
<path fill-rule="evenodd" clip-rule="evenodd" fill="#FFF4B4" d="M115.796,104.997c3.629,6.373,6.745,6.03,13.975,7.831
	c4.487-3.029,3.687-4.801,3.029-8.059c-6.059,1.086-0.714,1.515-5.458,3.201c-2.458,0.886-4.629,0.343-5.487-2.257l10.917-4.344
	l-0.857-5.687C129.257,95.138,117.454,102.282,115.796,104.997L115.796,104.997z"/>
<path fill-rule="evenodd" clip-rule="evenodd" fill="#2E2E2E" d="M230.336,333.425c5.258-6.658,2.485-14.832-5.888-14.632
	C219.848,323.822,219.791,335.454,230.336,333.425L230.336,333.425z"/>
<path fill-rule="evenodd" clip-rule="evenodd" fill="#2E2E2E" d="M233.679,355.03c-3.657,1.086-5.172,2.943-4.829,7.944
	c0.257,3.858,2.172,7.402,6.658,6.459C242.567,367.947,241.11,352.83,233.679,355.03L233.679,355.03z"/>
<path fill-rule="evenodd" clip-rule="evenodd" fill="#2E2E2E" d="M157.292,140.377c1.771,2.601,0.085,2.315,3.858,4.887
	c10.545,7.23,20.69,8.917,33.436,5.316c6.63-1.858,8.802-1.372,9.202-7.745l-2.973,2c-5.772,4.373-15.346,5.544-22.29,4.858
	C167.722,148.58,161.549,140.834,157.292,140.377L157.292,140.377z"/>
<path fill-rule="evenodd" clip-rule="evenodd" fill="#2E2E2E" d="M168.751,117.543c10.373,2.287,11.688-12.317,3.372-15.089
	c-2.715,1.458-3.858,2.772-4.373,6.573C167.351,112.142,168.065,115.2,168.751,117.543L168.751,117.543z"/>
<path fill-rule="evenodd" clip-rule="evenodd" fill="#2E2E2E" d="M187.269,117.029c9.116-1.029,8.002-14.46,0-15.89
	C182.64,104.597,182.382,113.028,187.269,117.029L187.269,117.029z"/>
<path fill-rule="evenodd" clip-rule="evenodd" fill="#FFFFFF" d="M175.895,94.052l-8.373,2.601
	c7.688-0.657,17.575-3.115,24.605-4.973c12.688-3.372,15.004-3.687,20.719-11.374l-7.201-1.086l1.771,4.715
	C199.043,88.679,186.527,91.223,175.895,94.052L175.895,94.052z"/>
<path fill-rule="evenodd" clip-rule="evenodd" fill="#535353" d="M190.899,305.532c0.143,0.314,0.314,0.743,0.429,1
	c0.086,0.229,0.257,0.657,0.371,0.887c0.086,0.229,0.457,1,0.629,1.285l1.771-0.686c-1.285,3.516-2,4.144-0.686,7.459
	c3.201-1.486,0.571,0.143,3.572-3.258l0.657,4.372l2.2-0.143c-2.657-2.657-1.429,1.429-1.771-2.915
	c-0.371-4.544-0.086-0.6,1.114-2.086c1.801-2.172,3.201,1.515,2.43-3.001c-4.259-2.2,0.942-0.429-2.516-2.429
	c-3.4-1.943-1.343-0.429-2.429,0.143l-1.343-3.516L190.899,305.532z"/>
<path fill-rule="evenodd" clip-rule="evenodd" fill="#797979" d="M264.029,400.355l2.744-0.314l-1.858,2.029
	c3.83,0.657,1.715-0.886,3.487,1.344l-0.601,14.774c3.4,0.915,10.488,2.515,12.031-0.657l-1.743,0.2l0.4-1.801l-7.373-0.086
	c-1.943,2.801,3,2.115-2.572,2.401c0.057-7.631,2.314-14.032,0.086-20.291c-2.4,1.829,0,0.086-2.658,1.4
	C264.572,400.041,265.201,399.584,264.029,400.355L264.029,400.355z"/>
<path fill-rule="evenodd" clip-rule="evenodd" fill="#FFFFFF" d="M293.835,121.116l-13.031-2.515
	c0.515,4.458-0.429,4.887,5.258,4.715C289.121,123.23,291.721,122.316,293.835,121.116L293.835,121.116z"/>
<path fill-rule="evenodd" clip-rule="evenodd" fill="#2E2E2E" d="M174.923,156.039c2.516,1.972-2.515,0.829,2.83,2.658
	c3.314,1.114,7.858,1.086,9.688-1.286L174.923,156.039z"/>
<path fill-rule="evenodd" clip-rule="evenodd" fill="#FFFFFF" d="M288.92,125.802c4.458,0.829,8.316,0,9.773-3.429L288.92,125.802z"
	/>
<path fill-rule="evenodd" clip-rule="evenodd" fill="#FFF4B4" d="M123.741,103.711c0.972,2.029-0.943,1.171,1.4,2.029
	c3.744,1.372,2.086-0.429,2.515-0.743C126.799,102.997,127.028,101.025,123.741,103.711L123.741,103.711z"/>
</svg>
