<?xml version="1.0" encoding="utf-8"?>
<!-- Generator: Adobe Illustrator 15.0.0, SVG Export Plug-In  -->
<!DOCTYPE svg PUBLIC "-//W3C//DTD SVG 1.1//EN" "http://www.w3.org/Graphics/SVG/1.1/DTD/svg11.dtd" [
	<!ENTITY ns_flows "http://ns.adobe.com/Flows/1.0/">
]>
<svg version="1.1"
	 xmlns="http://www.w3.org/2000/svg" xmlns:xlink="http://www.w3.org/1999/xlink" xmlns:a="http://ns.adobe.com/AdobeSVGViewerExtensions/3.0/"
	 x="0px" y="0px" width="423px" height="312px" viewBox="0 0 423 312" enable-background="new 0 0 423 312" xml:space="preserve">
<defs>
</defs>
<path fill-rule="evenodd" clip-rule="evenodd" fill="#F6A8C1" d="M177.097,31.436c0.915,0.915,2.458,1.2,3.543,1.915
	c1.943,1.314,6.059,2.886,7.373,3.744l6.573,4.573c0.714,0.543,1.057,0.686,1.657,1.229c1.486,1.343,2.886,1.886,4.63,3.629
	c0.857,0.857,0.914,0.458,1.743,1.144c1.657,1.314,5.887,5.229,7.059,6.773c0.485,0.657,0.972,0.743,1.571,1.314
	c0.458,0.429,0.658,0.857,1.229,1.429c1.314,1.286,2.229,2.687,2.543,3.001c1.029,0.886,1.972,1.8,2.687,2.915
	c1.314,2.172,1.2,1.715,2.314,3.258c0.629,0.857,0.601,0.829,1.258,1.629c0.229,0.286,0.429,0.543,0.629,0.829
	c0.028,0.085,0.229,0.372,0.285,0.457l1.086,1.571c1.915,2.43,2.315,4.201,3.658,6.517l1.601,2.486
	c0.857,1.286,1.172,2.229,1.915,3.658c0.343,0.686,0.657,1.028,1.057,1.829c0.601,1.314,1.286,2.4,1.743,3.801
	c0.258,0.828,0.172,1.429,0.601,2.115l0.914,2c0.286,0.715,0.543,1.086,0.715,2.058c0.429,2.571,1.457,3.887,2.058,6.373
	c0.429,1.657,0.371,0.2,0.829,1.8c0.457,1.687,0.714,2.715,1.314,4.201l1.686,6.717c0.114,0.914-0.057,1.571,0.343,2.4
	c0.601,1.343,0.829,2.914,1.029,4.43c0.229,1.886,0.143,3.258,0.515,5.145l1.028,15.832c0.028,10.117-1.629,16.547-3.715,26.063
	c-0.515,2.372-0.172,0.743-0.915,1.915c-0.343,0.485-0.313,1.543-0.628,2.314l-1.829,5.401c-0.314,0.829-0.229,0.429-0.486,0.972
	c-0.314,0.686-0.429,1.4-0.8,2.114c-0.4,0.801-0.743,1.258-1.058,2.087l-2.886,5.83c-0.972,1.515-1.601,1.857-2.401,3.629
	c-0.686,1.543-1.457,2.201-2.058,3.744c-0.457,1.172-3.372,4.687-4.601,5.858l-3.344,3.887c-0.771,0.972-1.857,2.172-2.743,3.058
	l-1.629,1.544c-0.886,0.714-0.657,0.972-1.286,1.6l-8.259,6.517c-1.058,0.657-0.572,0.742-1.486,1.4l-3.829,2.286
	c-3.001,1.601-8.288,5.173-11.174,6.201l-4.201,1.829c-1.086,0.715-5.144,2.115-6.287,2.372c-1.229,0.286-1.343,0.515-2.201,0.743
	c-0.914,0.229-1.572,0.257-2.372,0.515c-2.258,0.771-5.059,1.314-7.43,1.629c-0.8,0.114-1.429,0.371-2.201,0.6
	c-0.686,0.2-1.629,0.314-2.458,0.429c-1.772,0.229-3.715,0.058-5.487,0.314c-3.201,0.457-7.859,0.801-11.289,0.314
	c-3.715-0.515-7.23-0.314-10.831-1.258c-1.372-0.371-4.43-0.085-5.487-0.571c-1.343-0.629,0.086-0.771-2.2-0.914
	c-2.144-0.114-4.687-1.544-7.03-1.943l-12.66-5.23c-2.229-1.457-1-1.086-4.601-3.058c-0.486-0.286-0.372-0.257-0.915-0.543
	c-0.857-0.429-1.115-0.657-1.829-1.086c-0.429-0.257-0.514-0.229-0.943-0.543l-4.258-3.229c-0.886-0.543-1.057-0.686-1.772-1.172
	c-1.372-0.943-4.086-2.915-5.001-4.172c-0.457-0.657-0.943-0.887-1.572-1.315l-8.716-9.23c-1.6-2.058-1.714-1.743-2.915-3.115
	c-1.515-1.771-7.659-11.432-8.259-12.774l-4.572-10.231c-0.372-0.828-0.514-1.515-0.857-2.286c-0.571-1.229-0.457-0.571-0.771-2.172
	c-0.229-1.2-0.572-1.143-0.886-2.229c-0.2-0.801-0.229-1.744-0.486-2.43l-1.372-4.43c-0.257-1-0.257-1.715-0.343-2.829
	c-0.143-1.743-0.457-0.543-0.657-2.172c-0.143-0.972-0.2-2.086-0.286-2.943c-0.143-1.115-0.286-1.4-0.486-2.373
	c-0.972-5.258-1.2-20.204,0.628-25.549c0.543-1.6,0.657-3.801,1.286-5.43c1.058-2.686,2.086-8.201,3.172-9.974
	c0.543-0.857,0.343-0.886,0.686-1.772c0.657-1.686,1.772-3.429,2.687-5.029l2.943-4.572c0.657-1.029,1.286-1.458,1.943-2.372
	c0.085-0.114,0.171-0.229,0.314-0.429c1.915-2.544,1.686-2.516,4.058-5.145l1.486-1.657c0.915-0.943,1.6-1.4,2.286-2.315
	c0.458-0.629-0.028-0.143,0.543-0.656l1.8-1.344c1.686-1.314,1.4-1.543,3.572-2.943l9.316-6.174c1.972-1.113,4.115-1.714,6.23-2.771
	c1.372-0.686,2.858-0.285,3.515-0.828c0.886-0.687,0.114-0.601,1.486-0.83l6.001-1.6c1.086-0.515,4.944-1.143,6.258-1.344
	c4.458-0.686,12.432-1.343,16.689-0.257c1.601,0.4,2.658,0.028,4.229,0.286c1.115,0.172,1.772,0.742,3.401,0.886
	c1.715,0.171,6.602,1.028,7.63,1.515c1.429,0.686,3.515,1.029,4.915,1.657c0.743,0.314,0.543,0.429,1.4,0.715
	c1.058,0.343,0.915,0.114,1.8,0.686l2.915,1.429c2.858,1.4,5.773,3.315,8.345,5.201l3.658,2.858c3.372,2.4,7.001,6.059,9.516,9.402
	l1.372,1.743c1.543,1.572,2.715,3.486,3.973,5.23l2.601,3.914c1.372,2.087,1.771,4.459,2.943,6.773
	c0.628,1.229,0.714,2.4,1.372,3.458c0.029,0.058,0.057,0.114,0.086,0.144c0.057,0.057,0.085,0.113,0.114,0.171l0.457,1.258
	c0.458,0.886,0.714,1.114,1.029,2.372c0.343,1.486,0.8,1.886,0.915,3.515c0.143,2.2,0.686,1.486,1.029,3.516
	c0.2,1.171,0.229,2.571,0.572,3.715c0.943,3.087,0.829,16.147,0.143,19.548l-1.886,7.116l-2.715,6.458l-3.858,6.03
	c-0.143,0.2-0.143,0.229-0.286,0.458c-0.829,1.171-1.658,2.371-2.772,3.343c-0.286,0.258-0.4,0.344-0.714,0.687
	c-0.229,0.229-0.114,0.143-0.314,0.4l-1.029,1.143c-1.115,1.657-3.401,3.144-4.973,4.516c-0.972,0.828-1.714,0.972-2.715,1.829
	c-1.229,1.028-2.4,1.629-3.772,2.343l-2.801,1.515c-0.829,0.515-1.372,0.344-2.258,0.857l-3.258,1.344
	c-1.257,0.515-2.343,0.457-3.429,0.914c-1.343,0.572-11.603,1.486-14.346,0.657l-1.343-0.2c-5.401-0.257-2.801-0.143-5.83-1.057
	l-5.201-1.544c-1.715-0.543-2.229-0.571-3.601-1.285c-0.429-0.229-0.429-0.172-0.857-0.372c-0.657-0.314-0.286-0.171-0.771-0.429
	c-0.715-0.371-1-0.229-1.601-0.6c-0.486-0.314,0.029-0.086-0.6-0.572c-0.543-0.399-0.229-0.143-0.8-0.429l-4.058-2.715
	c-0.857-0.657-0.429-0.629-1.2-1.2c-0.543-0.4-0.771-0.543-1.372-1.058c-1.8-1.629-5.315-5.029-6.859-6.916
	c-0.943-1.171-1.857-1.857-2.486-3.286c-0.686-1.629-3.344-5.716-3.629-6.773c-0.429-1.686-0.829-1.829-1.343-3.258l-0.972-3.857
	c-0.2-1.029-0.343-1.086-0.543-1.658c-0.4-1.229-0.314-2.801-0.515-4.086c-0.371-2.344-1.029-5.688-0.771-8.374
	c0.143-1.458,0.572-2.258,0.714-3.887c0.115-1.458,0.829-4.43,1.486-5.516c0.686-1.2,0.686-1.657,1.657-2.915
	c2.601-3.372,6.059-7.03,9.831-8.773c2.172-1.029,3.086-1.086,5.029-1.744c1.772-0.6,1.744-0.6,3.973-0.6
	c5.83-0.028,4.572-0.172,9.659,1.172c0.743,0.172,1.657,0.514,2.4,0.771c2.429,0.771,4.258,2.43,6.144,4.001
	c0.2,0.171,0.172,0.086,0.4,0.314c0.429,0.343,0.114,0.058,0.372,0.314l2.143,2.258c0.029,0.028,0.086,0.085,0.143,0.114
	c0.6,0.629-0.114-0.258,0.314,0.343l1.229,1.943c2.287,3.801,2.772,3.572,3.229,7.345c0.286,2.43,0.829,1.601,0.771,5.572
	c-0.028,1.229-0.229,1.314-0.686,2.029h-1.2c-1.457-1.914-0.943-1.515-1.257-4.287c-0.085-0.885,0-2-0.171-2.828
	c-0.2-0.744-0.657-1.258-0.829-2.029c-0.629-2.943-1.743-3.63-2.915-5.973c-0.515-1.086-2.372-2.83-3.258-3.63l-0.886-0.543
	c-2.315-1.4-5.03-3.344-7.802-3.802c-1.801-0.285-2.915-0.742-4.887-0.742c-7.344,0.057-8.259,1.258-13.603,3.915
	c-0.715,0.372-1.144,0.714-1.715,1.144c-2.115,1.715-3.486,4.144-5.001,6.344c-1.943,2.83-2.115,4.716-2.601,5.573
	c-0.915,1.571-0.771,7.944-0.543,10.06c0.171,1.515,0.8,2.715,0.886,4.172l2.372,7.659c0.229,0.572,0.457,1.029,0.8,1.858
	c1.2,2.914,1.372,2.715,2.543,4.943l2.029,3.029c1.029,1.258,1.972,3.516,3.287,4.459c0.829,0.6,0.714,0.199,1.286,1.171
	c0.8,1.315,2.658,2.63,3.887,3.83c0.486,0.457,0.829,0.714,1.286,1.114c1.4,1.2,3.144,2.029,4.572,3.172
	c1.458,1.115,3.687,1.458,5.229,2.287c0.857,0.429,1.115,0.285,1.858,0.828c0.714,0.515,0.372,0.572,1.486,0.771
	c2.343,0.458,6.344,1.601,8.173,1.801c3.229,0.343,11.888,0.771,14.346-0.286c1.515-0.657,2.858-0.399,4.115-0.942
	c0.857-0.344,1.086-0.458,2.086-0.601c1.057-0.171,0.972-0.057,1.743-0.657c0.886-0.686,1.314-0.343,2.687-1.144
	c0.286-0.171,0.543-0.257,0.829-0.399c2.372-1,7.773-3.915,9.516-5.716c1.429-1.458,4.115-3.801,5.116-5.059
	c0.543-0.657,0.6-0.857,1.2-1.486l5.573-8.916c0.486-0.771,0.4-1.2,0.915-2.029l2-5.716c0.658-0.943,0.515-0.172,0.629-1.771
	c0.143-2,0.4-2.687,0.8-4.315c0.314-1.372,0.229-3.258,0.257-4.888c0.085-2.686,0.2-7.572-0.172-10.03
	c-0.257-1.687-0.571-2.972-0.714-4.487c-0.171-2.057-0.628-2.4-0.943-4.144c-0.229-1.458,0.057-1.8-0.714-3.058
	c-0.629-1.058-0.886-3.772-2.029-5.744c-0.257-0.43,0.029,0.143-0.257-0.515l-0.971-1.886c-0.4-0.887-0.2-1.059-0.686-2.001
	l-3.201-5.744c-0.343-0.657-0.257-1.001-0.8-1.544c-1.029-1.028-1.486-2.4-2.629-3.715l-6.859-8.088
	c-1.715-1.857-3.658-2.887-5.487-4.687c-1.743-1.715-6.259-4.829-8.688-6.573c-0.629-0.428-1.172-0.4-1.858-0.742
	c-1.114-0.572-2.115-1.344-3.286-1.801l-7.459-2.772c-0.571-0.2-1.2-0.571-1.629-0.743c-1.314-0.486-3.058-0.199-4.401-0.742
	c-0.8-0.314-0.915-0.516-2-0.658c-2.515-0.343-4.858-1.114-6.258-1.114c-3.344-0.058-5.887-0.543-9.431-0.543
	c-1.801,0-2.172,0.372-3.858,0.457c-5.716,0.257-2.543-0.085-7.688,0.886c-1.029,0.2-2.687,0.229-3.601,0.515
	c-0.771,0.229-0.6,0.4-1.515,0.629c-0.743,0.2-1.171,0.143-1.943,0.314c-1.258,0.257,0.028,0.143-1.4,0.657
	c-0.543,0.229-1,0.172-1.601,0.371l-7.373,3.258c-0.657,0.344-0.829,0.314-1.6,0.629c-0.915,0.4-1.086,1.029-2.543,1.572
	c-1.572,0.571-1.314,0.972-2.543,1.715l-9.545,7.173l-7.802,8.116c-0.429,0.6,0,0.114-0.429,0.572l-1.686,2.429
	c-1.257,1.343-0.915,0.857-1.601,2.715c-0.085,0.229-0.628,1.257-0.771,1.458c-0.514,0.8-0.4,0.229-0.857,1.028l-3.372,7.315
	c-1.4,2.43-2,5.287-3.029,7.603c-0.857,1.915-0.543,0.915-0.771,3.315c-0.171,1.571-0.886,2.029-1.057,3.2
	c-1.315,8.974-1.086,13.146-0.829,21.691c0.057,2.601,0.372,3.058,0.657,5.087c0.257,1.687,0.114,3.915,0.572,5.287
	c0.4,1.229,0.486,0.515,0.714,2.2c0.2,1.372,0.343,1.058,0.714,2.115c0.286,0.828,0.2,1.657,0.458,2.457
	c0.314,0.857,0.6,0.801,0.829,2.029l1.286,4.573c0.543,1.429,1.343,2.429,1.743,4.086l0.771,2.115
	c0.743,2.114,4.744,9.202,5.944,11.231c1.372,2.343,3.286,4.43,4.83,6.802c0.886,1.4,2.772,3.429,3.944,4.715
	c0.914,1.001,1.657,2.115,2.743,3.059c1.029,0.857,0.629,0.8,1.314,1.6l7.43,6.831c3.315,2.686,6.544,4.943,10.088,7.345
	c1.2,0.828,2.572,1.285,3.687,2.114l2.829,1.543c0.457,0.2,0.486,0.314,0.886,0.572c0.429,0.257,0.572,0.285,1,0.457
	c0.914,0.429,0.514,0.457,1.429,0.743l2.515,0.886c1.486,0.601,1.658,0.457,3.086,1.258c0.886,0.514,0.714,0.571,2,0.886
	c2.029,0.485,1.972,0.914,4.458,1.371c1.143,0.2,1.143,0.515,2.229,0.687c1.458,0.229,1.115,0.028,2.372,0.543
	c1.857,0.8,9.659,2.029,11.945,2.314c3.572,0.4,7.259,0.4,10.574,0.343c3.944-0.085,7.573,0.058,11.146-0.571
	c1.629-0.286,3.372-0.515,5.058-0.714l4.744-1.058c1-0.2,1.343-0.486,2.172-0.715c0.886-0.229,1.515-0.229,2.4-0.515
	c0.657-0.199,1.629-0.399,2.201-0.742c1.515-0.915,1.972-0.743,4.029-1.744c0.972-0.457,1.115,0.058,2.286-0.628
	c1.258-0.743,0.715-0.286,2.172-0.715c1.343-0.4,4.115-2.172,5.602-2.887c0.457-0.2,0.457-0.257,0.972-0.485
	c2.629-1.229,3.915-2.372,4.601-2.63c1.715-0.657,3.658-2.314,5.059-3.429c1.714-1.372,3.486-2.229,5.001-3.716l3.286-3
	c0.058-0.029,0.086-0.086,0.114-0.114c0.314-0.286,0.029-0.029,0.4-0.344l4.115-3.857c1.771-1.572,3.601-3.373,4.801-5.401
	c0.972-1.629,2.658-3.344,3.887-4.772l2.601-3.229c0.771-0.771,0.257-1.001,0.886-2.001c0.458-0.686,0.657-0.828,1.115-1.771
	c0.371-0.801,0.6-1.258,1.028-1.915l1.915-3.887c0.257-0.371,1.086-1.028,1.257-1.601c0.4-1.143-0.057-1,0.629-2.086l1.743-4.001
	c0.172-0.515,0.172-0.657,0.372-1.114c0.485-1.144,0.514-2.4,1-3.401c0.543-1.2,0.371-0.714,0.657-2.286
	c0.229-1.258,1.457-3.086,1.972-6.373c0.114-0.771,0.2-1.686,0.486-2.486c0.571-1.657,1.086-5.688,1.257-7.459
	c0.571-6.087,0.743-19.262-0.057-25.063l-2.029-12.203c-0.629-1.486-0.486-0.829-0.715-2.858c-0.057-0.485-0.057-0.485-0.171-0.829
	c-0.086-0.257,0-0.028-0.144-0.371l-0.143-0.314c-0.2-0.429-0.343-0.886-0.4-1.229l-1.285-5.83c-0.258-0.943-0.657-1.43-0.943-2.687
	c-0.686-3.115-1.657-6.544-3.229-9.116l-1.771-3.516c-0.343-0.943-0.343-0.629-0.657-1.286c-0.515-1.144-0.771-2.315-1.544-3.572
	l-2.943-5.944c-0.257-0.457-0.171-0.285-0.429-0.6l-5.829-8.917c-0.029-0.058-0.086-0.114-0.114-0.143l-5.173-6.23
	c-0.372-0.286-0.172-0.058-0.457-0.457c-1.43-1.972-2.915-2.944-4.059-4.658c-1.257-1.886-3.286-2.944-4.601-4.372
	c-0.343-0.4-0.515-0.572-0.8-0.887l-5.916-4.973c-1.458-1.229-4.544-3.687-6.173-4.487c-1.629-0.8-2.801-1.8-4.315-2.686
	l-9.03-5.001c-0.686-0.286-0.486-0.314-1.343-0.6l-3.687-1.629c-2.744-1.572-9.888-4.03-12.974-4.601
	c-1.458-0.286-1.315-0.543-2.572-0.857l-12.117-2.115c-1.258-0.2-1.829-0.515-3.058-0.543c-1.372-0.029-2.058-0.057-3.201-0.2
	l-6.973-0.257c-2,0-8.859-0.343-10.517,0.257c-2.658,1-6.516,0.4-9.374,1.115c-0.857,0.229-0.772,0.314-1.429,0.457
	c-0.571,0.114-1.057,0.086-1.629,0.143c-2.086,0.257-3.601,0.943-5.858,1.143l-4.344,1.172c-0.771,0.314-0.6,0.486-0.943,0.628
	c-0.6,0.286-1.515,0.171-2.201,0.486c-2.286,1.086-2.029,0.372-3.458,0.943c-0.372,0.114-0.628,0.372-1.114,0.543l-4.115,1.229
	c-0.972,0.286-1.286,0.743-2.429,0.971c-0.543,0.115-1.057,0.172-1.6,0.372c-0.143,0.057-0.429,0.229-0.629,0.314l-13.917,6.43
	c-0.628,0.429-0.085,0.286-0.915,0.714L63.3,43.468c-0.486,0.286-0.829,0.4-1.314,0.657l-3.258,2.029
	c-0.943,0.715-0.943,0.857-1.972,1.4c-1.6,0.829-2.772,2-4.287,2.972c-1.829,1.172-3.886,3.086-5.801,4.629
	c-0.314,0.258-0.229,0.172-0.514,0.486c-0.572,0.686-0.657,0.6-1.572,1.029c-1.515,0.686-4.373,3.658-5.716,4.943
	c-1.543,1.458-3.201,2.687-4.315,4.401l-1.743,1.886c-0.486,0.515-0.372,0.344-0.886,0.801c-1.257,1.172-2.143,2.686-3.372,3.915
	c-1.743,1.772-2.743,3.973-4.601,5.772l-2.972,4.115c-0.6,1.544-1.943,2.916-2.772,4.459c-0.514,0.971-0.829,1.343-1.343,2.286
	l-1.343,2.001c-1,1.229-1.829,3.029-2.572,4.457c-1.257,2.459-2.429,5.002-3.201,7.459c-0.429,1.315-1.8,3.944-2.058,5.202
	c-0.314,1.515-0.686,4.372-1.458,5.544l-0.428,1.4c-0.2,1.629-0.886,2.829-0.943,4.4c-0.057,1.858-0.343,1.172-1.029,2.173
	c-0.143,1.515,0,4.173-0.257,5.43c-0.514,2.315-0.771,0.915-0.829,4.487c-0.057,3.601-0.314,7.087-0.314,10.402l0.057,9.916
	c-0.085,1.857,0.257,3.716,0.229,5.573c0,8.517,0.628,5.744,0.915,8.288c0.229,1.914-0.058,4.144,0.485,5.858
	c0.543,1.686,0.458,4.286,0.829,5.259c1.486,4.029,0.829,7.287,1.943,10.174c0.229,0.628,0.486,0.771,0.714,1.4
	c0.143,0.428,0.171,1,0.314,1.657c0.257,1.172,0.657,1.486,0.857,3.2l2.201,8.288c0.343,0.715,0.457,0.372,0.714,1.2
	c0.286,0.886,0.057,0.801,0.486,1.715c0.686,1.429,1.429,2.601,1.715,4.287c0.229,1.4,0,0.515,0.514,1.457
	c1.257,2.286,1.229,3.344,1.715,4.373l1.429,2.657c0.515,1.086,0.657,1.801,1.372,2.744c0.4,0.514,0.628,0.543,0.886,1.229
	c0.372,1,0.6,1.886,1.286,2.887c0.857,1.257,1.114,2.743,2.115,3.943c1.657,1.972,3.058,4.716,4.801,7.288
	c0.657,1,1.4,2.286,2.286,3.058l8.773,10.316c1.658,1.915,5.03,4.83,6.059,6.059c0.743,0.857,1.572,0.943,2.4,1.715
	c0.743,0.687,0.171,0.429,1.086,1.029l2.372,1.771c1.515,1.229,2.972,2.629,4.629,3.572c1.458,0.801,2.086,1.486,3.687,2.144
	l5.315,2.943c2.086,1.801,5.716,2.943,8.345,3.83l4.258,1.972c0.514,0.2,0.6,0.457,1.229,0.686c0.629,0.229,1.029,0.114,1.658,0.343
	c1.829,0.629,2.601,2.115,7.373,2.801c1.715,0.258,1.058,0.915,2.943,1.115c2.172,0.229,1.429,0.485,3.144,0.942l6.688,1.572
	c1.286,0.343,2.257,0.343,3.658,0.485c1.115,0.144,2.058,0.601,2.972,0.857c1.086,0.286,2.515,0.229,3.429,0.687
	c1.915,0.972,5.344,0.028,7.573,0.657c0.857,0.257,0.229,0.371,1.343,0.6l16.918,1.172l12.603-0.028
	c1.743-0.058,2.315-0.629,4.087-0.601l10.402-0.543c1.029-0.143,1.715-0.571,2.944-0.686c1.458-0.143,1.943,0.114,3.144-0.515
	c1.857-0.972,6.201-1.058,8.716-2.2c1.086-0.486,1.744-0.258,2.801-0.829l2.629-1.058c1-0.399,2.029-0.314,3-0.657
	c0.457-0.171,0.286-0.143,0.514-0.343c1.658-1.571-0.628,0.343,0.458-0.485c0.829-0.657,2.658-1.315,3.601-1.801l4.715-2.515
	c0.515-0.286,0.943-0.372,1.372-0.601l3.601-2.172c2.686-1.629,5.201-3.744,7.316-5.029c1.886-1.144,3.172-2.801,4.944-3.973
	l1.371-1.058c0.028-0.057,0.114-0.086,0.144-0.114c0.057-0.028,0.114-0.058,0.143-0.086c1.058-0.743,1.8-1.857,2.829-2.543
	l6.83-6.659c3.858-3.515,2.801-3.144,5.059-5.602l3.4-3.857c0.629-0.715,1.058-1.4,1.571-2.058l1.372-1.772
	c2.001-2,5.916-8.259,7.773-10.859c0.399-0.572,0.515-0.657,0.771-1.172c1.058-2.115,2.286-3.772,3.172-5.802
	c0.4-0.886,1.857-2.743,3.286-5.887l1.858-3.43c0.856-1.457,1.371-3.372,2.343-4.915c0.515-0.829,0.657-1.572,1.086-2.572
	c0.457-1.2,0.771-1.601,1.144-2.458c0.485-1.114,0.285-1.515,0.914-2.743c0.915-1.744,2.2-5.83,3.087-7.803
	c0.514-1.114,0.229-2.086,0.657-3l1.886-5.287c0.286-1.144,0.743-1.715,0.857-2.772c0.286-2.314,0.943-3.715,1.258-6.03
	c0.229-1.429,0.571-1.057,0.771-2.857c0.143-1.058,0.171-1.915,0.514-2.887c0.743-1.943,0.372-4.201,1.001-6.259
	c0.6-2,0.514-4.315,0.686-6.601c0.571-7.717,0.715-5.03,0.743-13.805c0-9.373-0.829-12.545-1.572-20.318
	c-0.199-2.115-1.143-3.63-1.343-5.83l-1.286-6.002c-0.571-1.486-0.457-1.057-0.771-2.914c-0.143-1.001-0.743-1.43-1.029-2.516
	c-0.686-2.629-2.371-5.916-2.829-8.202c-0.343-1.571-1.229-2.315-1.828-3.63L254,82.392c-0.029-0.058-0.058-0.115-0.086-0.172
	l-0.686-1.2c-2.601-3.201-3.487-5.573-6.974-9.231c-0.8-0.8-1.543-2.258-2.314-3l-3.43-3.858c-0.514-0.629-1.429-0.886-2.028-1.601
	l-1.801-1.801c-0.6-0.571-0.314-0.514-0.886-1.057l-2.772-2.516c-0.543-0.457-0.457-0.4-1.057-0.857l-1.372-1.343
	c-0.829-0.714-1.144-0.429-1.943-1.172c-0.058-0.058-0.086-0.114-0.114-0.143l-5.716-4.373c-2.229-1.029-4.658-2.744-6.802-3.916
	c-2.314-1.257-4.543-2.8-6.944-3.886c-0.486-0.229-0.915-0.372-1.372-0.6l-6.573-3.344c-0.057-0.029-0.114-0.057-0.143-0.086
	l-1.2-0.457c-1.572-0.657-2.687-0.715-3.373-1.058l-10.773-3.687c-1.286-0.314-1.858-0.714-2.801-0.857
	C180.012,31.808,178.84,30.579,177.097,31.436L177.097,31.436z"/>
<path fill-rule="evenodd" clip-rule="evenodd" fill="#E6E756" d="M337.674,99.138c-0.257-1.457,0.344-6.145,0.601-7.63
	c0.4-2.144,1.4-4.116,2.601-5.858c1.114-1.658,0.914-2.258,3.658-4.602c3.687-3.115,1.171-0.743,4.001-2.286
	c1.343-0.743,4.344-0.714,5.772-0.372c0.229,0.058,2.801,1.029,3.001,1.144c0.942,0.515,1.343,1.286,2.286,1.772
	c1.171,0.57,0.657,0.057,2.2,2.229c2.629,3.801,0.8,0.057,2.887,5.344c1.257,3.145,0.285,0.943,0.828,3.315
	c1.286,5.63,0.686,12.718-2.372,17.604c-1.485,2.314-0.515,1.114-2.515,3.544l-3.801,2.515c-3.029,1-2.572,1.314-7.516,0.972
	c-1.115-0.086-1.515-0.429-3.059-1.086c-1.972-0.829-4.943-4.487-5.943-6.602l-1.801-4.259
	C338.103,103.482,337.904,100.596,337.674,99.138L337.674,99.138z M339.389,74.361c-0.886,0-1.715,0-2.372-0.229l-1.914-0.715
	c-1.286-0.285-0.801-0.514-1.829-0.828c-1.743-0.572-1.772-0.743-3.372-1.943c-0.601-0.457-0.886-0.801-1.4-1.258
	c-0.972-0.914-1.286-1.629-2.172-2.4c-0.058-0.057-0.314-0.314-0.372-0.371c-1.886-1.83-3.058-4.602-4.572-6.03
	c-1.114-1.029-1.715-2.829-2.429-4.201l-7.716-15.232c-1.4-2.315-1.372-5.516-3.772-7.087c-1.229-0.8-4.087-2.515-5.544-2.372
	c-1.144,0.114-2.372,1.286-3.544,1.8c-0.028,0-0.114,0.029-0.2,0.086c0,1.601,0.086,1.143,0.457,2.201l1.887,9.517
	c0.371,1.429,0.571,3.543,1.086,4.744c0.285,0.658,0.371,1.744,0.485,2.458c0.2,1.429,0.258,1.114,0.601,2.058
	c0.543,1.429-0.229,0.515,0.972,3.372c0.543,1.2,0.457,2.315,0.914,3.458c0.258,0.686,0.457,1.2,0.601,2.058
	c0.057,0.429,0.086,0.886,0.2,1.258c0.171,0.657,0.171,0.313,0.457,1c0.285,0.714,0.229,1.515,0.571,2.344l1.058,3.001
	c0.343,0.686,0.371,0.428,0.515,0.885c0.229,0.658,0.114,1.943,0.229,2.744l1.028,3.344c0.543,1.515,0.657,1.658,0.601,3.486
	l-1.144,4.602c-1.143,1.771-2.372,3.172-3.715,4.744c-0.4,0.485-1.029,1.143-1.486,1.4c-1.515,0.886-9.602,7.602-11.26,8.859
	l-2.257,2.086c-0.2,0.143-0.515,0.571-0.715,0.743c-0.715,0.743-0.8,0.457-1.457,1.171l-9.546,13.461
	c-0.543,0.887-0.428,1.229-0.886,2.029l-1.8,3.973c-0.286,1.057-0.4,1.114-0.715,1.943c-1.143,3.029-2.515,8.516-2.629,11.574
	c-0.2,4.058-0.657,6.716,0.171,10.631c0.943,4.516,0.086,4.516,2.029,9.574c0.571,1.515,0.771,3,1.486,4.314
	c0.4,0.715,0.571,0.943,0.857,1.858l3.058,5.63c0.972,1,1.743,1.914,2.486,3.058c2.687,4.173,7.087,9.06,11.659,11.288l3.658,2.201
	c2.029,1.2,4.602,2.086,6.858,3.029l5.401,1.601c1.972,0.171,2.887,0.8,4.83,0.942c3.372,0.286,2.4,0.429,4.715,0.829
	c4.115,0.771,12.889,0.485,17.062,0.286c2.972-0.114,6.458-1.315,9.116-2.144c1.286-0.4,4.344-1.915,5.43-2.943
	c2.857-2.716,4.286-2.801,6.373-7.888c1.972-4.83,0.771-3.802-1.229-4.373c-0.657-0.171-0.171-0.2-0.942-0.457
	c-1.144-0.343-2.801-0.2-4.716-0.886c-0.857-0.286-1.601-0.229-2.4-0.515c-0.771-0.229-1.114-0.571-2.086-0.8
	c-2.001-0.515-0.657-0.086-1.973-0.943c-1.686-1.114-3.972-1.629-5.572-2.915l-3.486-2.086c-0.629-0.286-0.429-0.172-0.8-0.601
	c-0.229-0.257-0.058-0.114-0.344-0.4c-0.257-0.257-0.114-0.114-0.371-0.371c-3.258-3.087-1.286-0.543-4.229-4.487
	c-0.914-1.229-1.572-1.371-2.515-3.286c-1.943-3.887-2.344,0.086-8.659,0.771c-2.172,0.229-4.687,0.114-6.573-0.743
	c-1.4-0.6-1.314,0.058-1.371-1.543c0.429-0.314,0.199-0.286,0.914-0.4c1-0.171,2.344,0.172,3.315,0.286
	c1.143,0.172,2.743,0.371,4.086,0.028l1.058-0.371c1.715-0.771,3.201-0.857,5.287-2.973c2.114-2.143,3.743-4.973,4.372-8.002
	c0.314-1.572,0.829-2.486,2.572-1.715c0.943,2.544-2.829,8.488-4.287,10.746c0.372,1.4,1.286,1.143,1.943,2.857
	c0.457,1.144,1.4,1.915,2.086,2.829l3.001,3.544c1.687,1.857,5.43,4.688,7.773,5.487l9.459,3.572
	c3.572,1.086,10.088,1.543,14.375,2.4c1.857,0.372,3.801,0.457,5.944,0.486c4.086,0,12.116,0.085,15.66-0.801l9.974-3
	c0.829-0.4,1.601-0.515,2.314-1.001c1.543-1.028,3.801-1.914,5.83-3.658c0.286-0.257,0.715-0.657,0.886-0.8
	c0.543-0.4,0.457-0.2,1-0.686c1.029-0.915,5.43-5.373,6.259-6.802l1.314-2.087c0.4-0.457,0.372-0.457,0.629-1.028l3.115-8.287
	c1.629-4.688,2.4-9.546,1.8-14.775c-0.114-1.086-0.257-1.543-0.657-2.43c-0.457-1.086-0.114-2-0.514-2.915
	c-0.372-0.886-0.743-1.2-0.915-2.229c-0.229-1.171,0-0.428-0.429-1.229l-1.028-2.143c-0.857-1.544-1.172-3.059-3.029-5.402
	c-0.486-0.571-0.314-0.428-0.657-1.028c-0.286-0.458-0.4-0.543-0.715-1.001c-1.629-2.314-5.372-6.602-5.915-7.43
	c-0.314-0.486-0.2-0.371-0.629-0.743c-0.486-0.399-4.173-5.229-6.23-5.63c-1.429,1.229-1.8,5.001-4.715,6.631
	c-0.571,0.313-0.943,0.656-1.429,0.971c-0.601,0.4-4.115,1.687-5.459,1.715c-3.657,0.143-3.372,0.2-6.344-1.029
	c-1.772-0.714-3.858-2.828-5.001-4.486c-2.772-4.001-4.744-9.459-4.115-14.432c0.257-1.915,0-4.316,0.886-6.174
	c0.457-0.971,0.343-0.229,0.686-1.629c0.429-1.771,0.601-2.143,0.515-4.115c-0.086-1.715-0.486-1.771-0.486-4.829
	c0.029-6.431,0.029-5.517,0.715-11.632c0.229-2.115,0.229-4.83,0.629-6.887c0.086-0.516,0.086-1.001,0.143-1.544
	c0.086-0.8,0.314-1.657,0.372-2.686c0.343-7.974,1.8-15.632,1.114-23.72c-0.601-0.343-0.771-0.486-1.572-0.686
	c-6.087-1.572-5.286,0.6-6.973,5.63c-1.028,2.944-1.086,6.03-2.114,9.031c-0.743,2.058-0.887,4.544-1.772,6.487l-0.686,2.144
	c-0.286,1.515-0.372,1-0.715,2c-0.485,1.372-0.285,1.772-1.028,3.143c-0.2,0.372-0.258,0.715-0.4,1.029
	c-0.286,0.629-0.314,0.486-0.515,0.943c-0.199,0.429-0.229,0.657-0.399,1.057L360.08,60.1c-0.057,0.114-0.028-0.028-0.286,0.458
	c-0.571,1.028-1.057,1.971-1.914,2.857c-3.173,3.172-0.457,1.743-5.459,5.688c-0.028,0.028-0.343,0.257-0.429,0.342
	c-0.028,0.029-0.085,0.086-0.114,0.115l-0.229,0.285c-0.371,0.43-0.057,0.172-0.571,0.572l-0.429,0.285
	c-0.028,0.029-0.086,0.086-0.143,0.115c-0.028,0.027-0.086,0.085-0.114,0.113c-1.058,0.943-2.829,1.115-4.087,1.715
	c-1.258,0.601-0.114,0.686-1.886,0.943C342.676,73.818,341.418,74.361,339.389,74.361L339.389,74.361z"/>
<path fill-rule="evenodd" clip-rule="evenodd" fill="#E6E756" d="M303.41,310.191c-0.229-1.115-1.857-2.315-2.601-3.287
	c-0.057-0.057-0.171-0.229-0.229-0.285c-0.028-0.029-0.057-0.086-0.114-0.144l-4.601-4.801c-0.886-1.115-1.829-2.658-2.772-3.544
	l-10.717-11.546c-1.629-1.629-2.571-3.115-3.801-4.172l-4.086-3.916c-0.029-0.057-0.086-0.085-0.114-0.114
	c-0.515-0.514-2.029-2.343-2.572-3.458l-1.943-4.372c-1.629-4.458-1.229-9.631-0.371-14.146c0.285-1.657,0.485-1.2,0.886-2.229
	c0.886-2.2,2.629-6.973,4.172-8.63c1.629-1.772,2.201-3.087,4.173-5.287c0.285-0.314,0.6-0.629,0.8-0.887
	c1.258-1.743,1.2-1.285,2.144-2.429l2.857-3.486l13.46-11.917c0.657-0.458,0.314-0.2,0.887-0.801l0.742-0.714
	c0.058-0.029,0.086-0.058,0.144-0.086c0.771-0.657,1.086-0.601,1.829-1.344l3.4-2.857c0.771-0.486,1.314-0.657,1.857-1.314
	c0.972-1.144,1.543-1.229,2.658-2.201c0.343-0.285,0.457-0.371,0.828-0.628l9.603-9.46c0.399-0.515,0.828-1.314,1.229-1.915
	c0.143-0.229,0.571-0.972,0.629-1.086c0.771-1.629,1.343-1.257,1.2-3.458c-1.972-0.114-3.629-0.114-5.344-0.514l-9.603-1.801
	c-0.8-0.172-1.114-0.543-2-0.8l-4.315-1.286c-0.801-0.258-6.773-3.602-7.516-4.373c-0.772-0.771,0.057-0.171-1.458-0.629
	c-1.172-0.343-7.716-5.63-8.145-6.229c-0.743-1.029-0.343-0.601-1.2-1.43l-1.515-1.429c-1.4-1.343-3.486-4.973-4.572-6.802
	c-1.572-2.571-1.486-3.114-1.943-3.857l-1.915-3.63c-0.771-1.457-0.8-4.858-2.286-5.802l-1.2,7.116
	c-0.114,0.915-0.429,2.4-0.629,3.458c-0.171,0.943-0.457,2.486-0.686,3.458c-0.571,2.315-0.943,4.344-1.515,6.631
	c-0.343,1.257-0.343,2.457-0.629,3.543c-0.285,1.086-0.743,1.829-1.086,3.001c-0.343,1.114-0.485,2.029-0.828,3.344l-2.486,6.974
	c-0.144,0.343-0.172,0.399-0.258,0.686l-1.686,4.344c-0.515,1.458-0.286,2.001-0.943,3.258c-0.543,1.058-1.114,1.572-1.457,2.601
	c-0.601,1.801-2.229,5.63-3.287,7.116l-3.458,6.744c-0.571,1.658-0.686,1.344-1.543,2.544c-0.829,1.258-0.857,2.314-1.743,3.372
	c-0.028,0.028-0.058,0.086-0.086,0.114l-13.231,18.49c-0.343,0.457-0.686,0.687-1.058,1.115c-0.371,0.457-0.457,0.714-0.771,1.171
	c-0.828,1.144-2.257,1.915-3.172,3.087c-0.4,0.515-0.515,0.743-0.972,1.229l-1.571,1.572c-0.572,0.6-0.743,1.114-1.486,1.686
	c-1.829,1.372-3.001,3.229-5.173,4.973l-4.372,3.858c-0.857,0.801-1,1.314-1.972,2.115l-2.572,1.571
	c-1.172,0.771-3.601,3.059-4.629,3.572l-21.176,11.718c-0.629,0.371-0.629,0.485-1.458,0.6l-1.572,0.258
	c-0.057,0-0.114,0.057-0.171,0.057l-3.058,1.058c-1.515,0.715-8.173,2.543-9.545,2.687c-3.829,0.485-1.514,0.229-3.4,0.771
	c-2.286,0.6-5.458,0.057-7.659,0.629c-4.973,1.229-20.919,0.714-27.806,0.657c-6.487-0.058-10.545-1.2-16.689-1.429
	c-0.886-1.029-0.4-0.687-2.058-0.915c-2.744-0.343-5.773-0.485-8.374-1.143c-1.229-0.286-2.915-0.515-4.229-1.086l-5.916-1.286
	c-0.829,1.143-1.543,2.515-2.658,3.344l-0.714,0.628c-1.257,1.858-2.315,2.058-3.972,3.344c-0.714,0.543-2.115,1.544-2.915,1.943
	l-3.658,1.486c-2.401,0.829-2.429,1.515-5.116,2.115c-1.714,0.399-3,1.4-5.373,1.886c-1.286,0.229-4.172,2.086-5.144,2.229
	c-1.372,0.229-0.829-0.058-2,0.485l-10.145,4.602l-7.401,5.915c-0.429,0.657-0.257-0.485-0.343,0.972
	c0.286,0.2-0.2,0.314,1.058,0.314c4.572,0.172,9.202-0.257,13.774-0.229l212.933-0.515
	C277.004,310.791,301.209,310.762,303.41,310.191L303.41,310.191z"/>
<path fill-rule="evenodd" clip-rule="evenodd" fill="#3A3A39" d="M303.41,310.191c-2.2,0.571-26.405,0.6-31.521,0.742
	l-212.933,0.515c-4.572-0.028-9.202,0.4-13.774,0.229c-1.257,0-0.771-0.114-1.058-0.314c0.086-1.457-0.085-0.314,0.343-0.972
	l7.401-5.915l10.145-4.602c1.172-0.543,0.629-0.257,2-0.485c0.972-0.144,3.858-2.001,5.144-2.229
	c2.372-0.485,3.658-1.486,5.373-1.886c2.687-0.601,2.715-1.286,5.116-2.115l3.658-1.486c0.8-0.399,2.201-1.4,2.915-1.943
	c1.657-1.286,2.715-1.485,3.972-3.344l0.714-0.628c1.115-0.829,1.829-2.201,2.658-3.344l5.916,1.286
	c1.315,0.571,3.001,0.8,4.229,1.086c2.601,0.657,5.63,0.8,8.374,1.143c1.657,0.229,1.172-0.114,2.058,0.915
	c6.144,0.229,10.202,1.371,16.689,1.429c6.887,0.057,22.833,0.571,27.806-0.657c2.2-0.572,5.373-0.029,7.659-0.629
	c1.886-0.543-0.429-0.286,3.4-0.771c1.372-0.144,8.031-1.972,9.545-2.687l3.058-1.058c0.057,0,0.114-0.057,0.171-0.057l1.572-0.258
	c0.829-0.114,0.829-0.229,1.458-0.6l21.176-11.718c1.029-0.514,3.458-2.801,4.629-3.572l2.572-1.571
	c0.972-0.801,1.114-1.314,1.972-2.115l4.372-3.858c2.172-1.743,3.344-3.601,5.173-4.973c0.743-0.571,0.914-1.086,1.486-1.686
	l1.571-1.572c0.457-0.485,0.571-0.714,0.972-1.229c0.915-1.172,2.344-1.943,3.172-3.087c0.314-0.457,0.4-0.714,0.771-1.171
	c0.372-0.429,0.715-0.658,1.058-1.115l13.231-18.49c0.028-0.028,0.058-0.086,0.086-0.114c0.886-1.058,0.914-2.114,1.743-3.372
	c0.857-1.2,0.972-0.886,1.543-2.544l3.458-6.744c1.058-1.486,2.687-5.315,3.287-7.116c0.343-1.028,0.914-1.543,1.457-2.601
	c0.657-1.257,0.429-1.8,0.943-3.258l1.686-4.344c0.086-0.286,0.114-0.343,0.258-0.686l2.486-6.974
	c0.343-1.314,0.485-2.229,0.828-3.344c0.343-1.172,0.801-1.915,1.086-3.001c0.286-1.086,0.286-2.286,0.629-3.543
	c0.571-2.287,0.943-4.315,1.515-6.631c0.229-0.972,0.515-2.515,0.686-3.458c0.2-1.058,0.515-2.543,0.629-3.458l1.2-7.116
	c1.486,0.943,1.515,4.345,2.286,5.802l1.915,3.63c0.457,0.743,0.371,1.286,1.943,3.857c1.086,1.829,3.172,5.459,4.572,6.802
	l1.515,1.429c0.857,0.829,0.457,0.4,1.2,1.43c0.429,0.6,6.973,5.887,8.145,6.229c1.515,0.458,0.686-0.143,1.458,0.629
	c0.742,0.771,6.715,4.115,7.516,4.373l4.315,1.286c0.886,0.257,1.2,0.628,2,0.8l9.603,1.801c1.715,0.399,3.372,0.399,5.344,0.514
	c0.143,2.201-0.429,1.829-1.2,3.458c-0.058,0.114-0.486,0.857-0.629,1.086c-0.4,0.601-0.829,1.4-1.229,1.915l-9.603,9.46
	c-0.371,0.257-0.485,0.343-0.828,0.628c-1.115,0.972-1.687,1.058-2.658,2.201c-0.543,0.657-1.086,0.828-1.857,1.314l-3.4,2.857
	c-0.743,0.743-1.058,0.687-1.829,1.344c-0.058,0.028-0.086,0.057-0.144,0.086l-0.742,0.714c-0.572,0.601-0.229,0.343-0.887,0.801
	l-13.46,11.917l-2.857,3.486c-0.943,1.144-0.886,0.686-2.144,2.429c-0.2,0.258-0.515,0.572-0.8,0.887
	c-1.972,2.2-2.544,3.515-4.173,5.287c-1.543,1.657-3.286,6.43-4.172,8.63c-0.4,1.029-0.601,0.572-0.886,2.229
	c-0.857,4.516-1.258,9.688,0.371,14.146l1.943,4.372c0.543,1.115,2.058,2.944,2.572,3.458c0.028,0.029,0.085,0.058,0.114,0.114
	l4.086,3.916c1.229,1.057,2.172,2.543,3.801,4.172l10.717,11.546c0.943,0.886,1.887,2.429,2.772,3.544l4.601,4.801
	c0.058,0.058,0.086,0.114,0.114,0.144c0.058,0.057,0.172,0.229,0.229,0.285C301.552,307.875,303.181,309.076,303.41,310.191
	L303.41,310.191z M383.771,97.938c-0.086-0.543-0.058-3.544,0.028-4.087c0.114-0.742,0.429-0.857,0.657-1.429
	c0.485-1.171-0.286-1.857,2.286-4.229c1.657-1.486,3.515-3.229,6.03-1.972c0.285,0.143,2.429,1.601,2.543,1.743
	c2.515,2.801,2.601,6.516,2.515,10.23c-0.028,1.772-1.515,4.658-2.715,5.859c-1.343,1.314-0.4,1.086-2.572,1.771
	c-3.2,1-3.771,0.172-5.43-1.4l-0.257-0.229c-0.114-0.086-0.314-0.285-0.371-0.371c-0.029-0.029-0.086-0.058-0.144-0.115L386,103.397
	C385.114,102.368,384.028,99.31,383.771,97.938L383.771,97.938z M381.656,95.509c0,3.086-0.314,3.543,0.657,5.459
	c0.314,0.656,0.257,0.971,0.515,1.629l2.4,3.715c0.515,0.514,0.8,0.485,0.972,1.057c-1.601,0.658-3.801-1-4.744-1.886
	c-1.543-1.515-2.801-2.572-3.772-4.944c-0.571-1.4-0.657-0.8-1.057-1.543c-0.515-0.857-1.715-8.688-1.687-8.974
	c0.058-0.515,0.229-0.399,0.457-2.458c0.086-0.715,0.172-1.543,0.314-2.371l1.486-4.631l2.229-3.4
	c1.172-2.029,2.401-2.229,4.087-3.058c1.458-0.687,2.458-0.743,4.516-0.715c0.485,0.028,2.229,0.058,2.572,0.114
	c0.657,0.172,2.629,1.744,3.229,2.201l1.144,1.199c0.028,0.058,0.086,0.115,0.114,0.172l0.257,0.258
	c0.687,0.771,0.801,1.914,1.801,3.258c0.8,1.114,0.371,0.285,0.714,1.857c0.314,1.4,0.486,0.657,0.801,1.857
	c0.229,0.887,0.114,1.43,0.4,2.344c0.343,1.057,0.313,1.086,0.199,2.457c-1.771-1.057-1.171-1.057-1.972-2.086l-2.857-2.515
	c-1.687-1.314-6.001-1.429-8.487,1.2c-0.029,0.057-0.086,0.114-0.114,0.143l-0.887,1.029c-1.829,2.201-2.257,2.515-2.657,4.602
	C381.913,93.251,381.656,93.308,381.656,95.509L381.656,95.509z M339.389,74.361c2.029,0,3.287-0.543,5.03-0.771
	c1.771-0.258,0.628-0.343,1.886-0.943c1.258-0.6,3.029-0.771,4.087-1.715c0.028-0.028,0.086-0.086,0.114-0.113
	c0.057-0.029,0.114-0.086,0.143-0.115l0.429-0.285c0.515-0.4,0.2-0.143,0.571-0.572l0.229-0.285
	c0.029-0.029,0.086-0.086,0.114-0.115c0.086-0.085,0.4-0.313,0.429-0.342c5.002-3.944,2.286-2.516,5.459-5.688
	c0.857-0.887,1.343-1.829,1.914-2.857c0.258-0.486,0.229-0.344,0.286-0.458l1.372-2.772c0.171-0.399,0.2-0.628,0.399-1.057
	c0.2-0.457,0.229-0.314,0.515-0.943c0.143-0.314,0.2-0.657,0.4-1.029c0.743-1.371,0.543-1.771,1.028-3.143
	c0.343-1,0.429-0.486,0.715-2l0.686-2.144c0.886-1.943,1.029-4.43,1.772-6.487c1.028-3,1.086-6.087,2.114-9.031
	c1.687-5.03,0.886-7.202,6.973-5.63c0.801,0.2,0.972,0.343,1.572,0.686c0.686,8.088-0.771,15.747-1.114,23.72
	c-0.058,1.029-0.286,1.886-0.372,2.686c-0.057,0.543-0.057,1.028-0.143,1.544c-0.4,2.057-0.4,4.771-0.629,6.887
	c-0.686,6.115-0.686,5.201-0.715,11.632c0,3.058,0.4,3.114,0.486,4.829c0.086,1.973-0.086,2.344-0.515,4.115
	c-0.343,1.4-0.229,0.658-0.686,1.629c-0.886,1.857-0.629,4.259-0.886,6.174c-0.629,4.973,1.343,10.431,4.115,14.432
	c1.143,1.658,3.229,3.772,5.001,4.486c2.972,1.229,2.687,1.172,6.344,1.029c1.344-0.028,4.858-1.314,5.459-1.715
	c0.485-0.314,0.857-0.657,1.429-0.971c2.915-1.63,3.286-5.402,4.715-6.631c2.058,0.4,5.744,5.23,6.23,5.63
	c0.429,0.372,0.314,0.257,0.629,0.743c0.543,0.828,4.286,5.115,5.915,7.43c0.314,0.458,0.429,0.543,0.715,1.001
	c0.343,0.601,0.171,0.457,0.657,1.028c1.857,2.344,2.172,3.858,3.029,5.402l1.028,2.143c0.429,0.801,0.2,0.058,0.429,1.229
	c0.172,1.029,0.543,1.344,0.915,2.229c0.399,0.915,0.057,1.829,0.514,2.915c0.4,0.887,0.543,1.344,0.657,2.43
	c0.601,5.229-0.171,10.088-1.8,14.775l-3.115,8.287c-0.257,0.571-0.229,0.571-0.629,1.028l-1.314,2.087
	c-0.829,1.429-5.229,5.887-6.259,6.802c-0.543,0.485-0.457,0.285-1,0.686c-0.171,0.143-0.6,0.543-0.886,0.8
	c-2.029,1.744-4.287,2.63-5.83,3.658c-0.714,0.486-1.485,0.601-2.314,1.001l-9.974,3c-3.544,0.886-11.574,0.801-15.66,0.801
	c-2.144-0.029-4.087-0.114-5.944-0.486c-4.287-0.857-10.803-1.314-14.375-2.4l-9.459-3.572c-2.344-0.8-6.087-3.63-7.773-5.487
	l-3.001-3.544c-0.686-0.914-1.629-1.686-2.086-2.829c-0.657-1.715-1.571-1.457-1.943-2.857c1.458-2.258,5.23-8.202,4.287-10.746
	c-1.743-0.771-2.258,0.143-2.572,1.715c-0.629,3.029-2.258,5.859-4.372,8.002c-2.086,2.115-3.572,2.201-5.287,2.973l-1.058,0.371
	c-1.343,0.343-2.943,0.144-4.086-0.028c-0.972-0.114-2.315-0.457-3.315-0.286c-0.715,0.114-0.485,0.086-0.914,0.4
	c0.057,1.601-0.029,0.943,1.371,1.543c1.887,0.857,4.401,0.972,6.573,0.743c6.315-0.686,6.716-4.658,8.659-0.771
	c0.942,1.915,1.601,2.058,2.515,3.286c2.943,3.944,0.972,1.4,4.229,4.487c0.257,0.257,0.114,0.114,0.371,0.371
	c0.286,0.286,0.114,0.144,0.344,0.4c0.371,0.429,0.171,0.314,0.8,0.601l3.486,2.086c1.601,1.286,3.887,1.801,5.572,2.915
	c1.315,0.857-0.028,0.429,1.973,0.943c0.972,0.229,1.314,0.571,2.086,0.8c0.8,0.286,1.543,0.229,2.4,0.515
	c1.915,0.686,3.572,0.543,4.716,0.886c0.771,0.257,0.285,0.286,0.942,0.457c2.001,0.571,3.201-0.457,1.229,4.373
	c-2.087,5.087-3.516,5.172-6.373,7.888c-1.086,1.028-4.144,2.543-5.43,2.943c-2.658,0.828-6.145,2.029-9.116,2.144
	c-4.173,0.199-12.946,0.485-17.062-0.286c-2.314-0.4-1.343-0.543-4.715-0.829c-1.943-0.143-2.858-0.771-4.83-0.942l-5.401-1.601
	c-2.257-0.943-4.829-1.829-6.858-3.029l-3.658-2.201c-4.572-2.229-8.973-7.115-11.659-11.288c-0.743-1.144-1.515-2.058-2.486-3.058
	l-3.058-5.63c-0.286-0.915-0.457-1.144-0.857-1.858c-0.715-1.314-0.915-2.8-1.486-4.314c-1.943-5.059-1.086-5.059-2.029-9.574
	c-0.828-3.915-0.371-6.573-0.171-10.631c0.114-3.059,1.486-8.545,2.629-11.574c0.314-0.829,0.429-0.887,0.715-1.943l1.8-3.973
	c0.458-0.801,0.343-1.143,0.886-2.029l9.546-13.461c0.657-0.714,0.742-0.428,1.457-1.171c0.2-0.172,0.515-0.601,0.715-0.743
	l2.257-2.086c1.658-1.258,9.745-7.974,11.26-8.859c0.457-0.258,1.086-0.915,1.486-1.4c1.343-1.572,2.572-2.973,3.715-4.744
	l1.144-4.602c0.057-1.828-0.058-1.972-0.601-3.486l-1.028-3.344c-0.114-0.801,0-2.086-0.229-2.744
	c-0.144-0.457-0.172-0.199-0.515-0.885l-1.058-3.001c-0.343-0.829-0.286-1.63-0.571-2.344c-0.286-0.687-0.286-0.343-0.457-1
	c-0.114-0.372-0.144-0.829-0.2-1.258c-0.144-0.857-0.343-1.372-0.601-2.058c-0.457-1.143-0.371-2.258-0.914-3.458
	c-1.2-2.857-0.429-1.943-0.972-3.372c-0.343-0.943-0.4-0.629-0.601-2.058c-0.114-0.714-0.2-1.8-0.485-2.458
	c-0.515-1.2-0.715-3.315-1.086-4.744l-1.887-9.517c-0.371-1.058-0.457-0.6-0.457-2.201c0.086-0.057,0.172-0.086,0.2-0.086
	c1.172-0.514,2.4-1.686,3.544-1.8c1.457-0.143,4.315,1.572,5.544,2.372c2.4,1.572,2.372,4.772,3.772,7.087l7.716,15.232
	c0.714,1.372,1.314,3.172,2.429,4.201c1.515,1.429,2.687,4.2,4.572,6.03c0.058,0.057,0.314,0.314,0.372,0.371
	c0.886,0.771,1.2,1.486,2.172,2.4c0.515,0.457,0.8,0.801,1.4,1.258c1.6,1.2,1.629,1.371,3.372,1.943
	c1.028,0.314,0.543,0.543,1.829,0.828l1.914,0.715C337.674,74.361,338.503,74.361,339.389,74.361L339.389,74.361z M177.097,31.436
	c1.743-0.857,2.915,0.372,5.744,0.743c0.943,0.143,1.515,0.543,2.801,0.857l10.773,3.687c0.686,0.343,1.801,0.4,3.373,1.058
	l1.2,0.457c0.028,0.029,0.085,0.057,0.143,0.086l6.573,3.344c0.457,0.229,0.886,0.371,1.372,0.6
	c2.401,1.086,4.629,2.629,6.944,3.886c2.144,1.172,4.573,2.887,6.802,3.916l5.716,4.373c0.028,0.028,0.057,0.085,0.114,0.143
	c0.8,0.743,1.114,0.458,1.943,1.172l1.372,1.343c0.6,0.457,0.514,0.4,1.057,0.857l2.772,2.516c0.571,0.543,0.286,0.485,0.886,1.057
	l1.801,1.801c0.6,0.715,1.515,0.972,2.028,1.601l3.43,3.858c0.771,0.742,1.515,2.2,2.314,3c3.486,3.658,4.373,6.03,6.974,9.231
	l0.686,1.2c0.028,0.057,0.057,0.114,0.086,0.172l4.858,9.201c0.6,1.314,1.485,2.059,1.828,3.63c0.458,2.286,2.144,5.573,2.829,8.202
	c0.286,1.086,0.887,1.515,1.029,2.516c0.314,1.857,0.2,1.428,0.771,2.914l1.286,6.002c0.2,2.2,1.144,3.715,1.343,5.83
	c0.743,7.773,1.572,10.945,1.572,20.318c-0.028,8.774-0.172,6.088-0.743,13.805c-0.172,2.285-0.086,4.601-0.686,6.601
	c-0.629,2.058-0.258,4.315-1.001,6.259c-0.343,0.972-0.371,1.829-0.514,2.887c-0.2,1.801-0.543,1.429-0.771,2.857
	c-0.314,2.315-0.972,3.716-1.258,6.03c-0.114,1.058-0.571,1.629-0.857,2.772l-1.886,5.287c-0.429,0.914-0.144,1.886-0.657,3
	c-0.887,1.973-2.172,6.059-3.087,7.803c-0.629,1.229-0.429,1.629-0.914,2.743c-0.372,0.857-0.687,1.258-1.144,2.458
	c-0.429,1-0.571,1.743-1.086,2.572c-0.972,1.543-1.486,3.458-2.343,4.915l-1.858,3.43c-1.429,3.144-2.886,5.001-3.286,5.887
	c-0.886,2.029-2.114,3.687-3.172,5.802c-0.257,0.515-0.372,0.6-0.771,1.172c-1.857,2.601-5.772,8.859-7.773,10.859l-1.372,1.772
	c-0.514,0.657-0.942,1.343-1.571,2.058l-3.4,3.857c-2.258,2.458-1.2,2.087-5.059,5.602l-6.83,6.659
	c-1.029,0.686-1.771,1.8-2.829,2.543c-0.028,0.028-0.086,0.058-0.143,0.086c-0.029,0.028-0.115,0.058-0.144,0.114l-1.371,1.058
	c-1.772,1.172-3.059,2.829-4.944,3.973c-2.115,1.285-4.63,3.4-7.316,5.029l-3.601,2.172c-0.429,0.229-0.857,0.314-1.372,0.601
	l-4.715,2.515c-0.943,0.485-2.772,1.144-3.601,1.801c-1.086,0.828,1.2-1.086-0.458,0.485c-0.229,0.2-0.057,0.172-0.514,0.343
	c-0.972,0.343-2,0.258-3,0.657l-2.629,1.058c-1.057,0.571-1.715,0.343-2.801,0.829c-2.515,1.143-6.858,1.229-8.716,2.2
	c-1.2,0.629-1.686,0.372-3.144,0.515c-1.229,0.114-1.915,0.543-2.944,0.686l-10.402,0.543c-1.772-0.028-2.344,0.543-4.087,0.601
	l-12.603,0.028l-16.918-1.172c-1.115-0.229-0.486-0.343-1.343-0.6c-2.229-0.629-5.659,0.314-7.573-0.657
	c-0.915-0.458-2.343-0.4-3.429-0.687c-0.915-0.257-1.857-0.714-2.972-0.857c-1.4-0.143-2.372-0.143-3.658-0.485l-6.688-1.572
	c-1.714-0.457-0.972-0.714-3.144-0.942c-1.886-0.2-1.229-0.857-2.943-1.115c-4.772-0.686-5.544-2.172-7.373-2.801
	c-0.629-0.229-1.029-0.114-1.658-0.343c-0.628-0.229-0.714-0.485-1.229-0.686l-4.258-1.972c-2.629-0.887-6.258-2.029-8.345-3.83
	l-5.315-2.943c-1.6-0.657-2.229-1.343-3.687-2.144c-1.657-0.943-3.115-2.343-4.629-3.572l-2.372-1.771
	c-0.915-0.601-0.343-0.343-1.086-1.029c-0.829-0.771-1.657-0.857-2.4-1.715c-1.029-1.229-4.401-4.144-6.059-6.059l-8.773-10.316
	c-0.886-0.771-1.629-2.058-2.286-3.058c-1.743-2.572-3.144-5.316-4.801-7.288c-1-1.2-1.258-2.687-2.115-3.943
	c-0.686-1.001-0.915-1.887-1.286-2.887c-0.257-0.686-0.486-0.715-0.886-1.229c-0.715-0.943-0.857-1.658-1.372-2.744l-1.429-2.657
	c-0.486-1.029-0.458-2.087-1.715-4.373c-0.514-0.942-0.286-0.057-0.514-1.457c-0.286-1.687-1.029-2.858-1.715-4.287
	c-0.429-0.914-0.2-0.829-0.486-1.715c-0.257-0.828-0.372-0.485-0.714-1.2l-2.201-8.288c-0.2-1.714-0.6-2.028-0.857-3.2
	c-0.143-0.657-0.172-1.229-0.314-1.657c-0.229-0.629-0.486-0.772-0.714-1.4c-1.115-2.887-0.458-6.145-1.943-10.174
	c-0.372-0.973-0.286-3.573-0.829-5.259c-0.543-1.715-0.257-3.944-0.485-5.858c-0.286-2.544-0.915,0.229-0.915-8.288
	c0.028-1.857-0.314-3.716-0.229-5.573l-0.057-9.916c0-3.315,0.257-6.802,0.314-10.402c0.057-3.572,0.314-2.172,0.829-4.487
	c0.257-1.257,0.115-3.915,0.257-5.43c0.686-1.001,0.972-0.314,1.029-2.173c0.057-1.571,0.743-2.771,0.943-4.4l0.428-1.4
	c0.772-1.172,1.144-4.029,1.458-5.544c0.257-1.258,1.629-3.887,2.058-5.202c0.772-2.457,1.943-5,3.201-7.459
	c0.743-1.428,1.572-3.229,2.572-4.457l1.343-2.001c0.514-0.943,0.829-1.315,1.343-2.286c0.829-1.543,2.172-2.915,2.772-4.459
	l2.972-4.115c1.858-1.8,2.858-4,4.601-5.772c1.229-1.229,2.115-2.743,3.372-3.915c0.515-0.457,0.4-0.286,0.886-0.801l1.743-1.886
	c1.114-1.715,2.772-2.943,4.315-4.401c1.343-1.285,4.201-4.258,5.716-4.943c0.915-0.43,1-0.344,1.572-1.029
	c0.286-0.314,0.2-0.229,0.514-0.486c1.915-1.543,3.973-3.458,5.801-4.629c1.515-0.972,2.687-2.143,4.287-2.972
	c1.029-0.543,1.029-0.686,1.972-1.4l3.258-2.029c0.486-0.257,0.829-0.372,1.314-0.657l4.515-2.515
	c0.829-0.429,0.286-0.286,0.915-0.714l13.917-6.43c0.2-0.086,0.486-0.257,0.629-0.314c0.543-0.2,1.057-0.257,1.6-0.372
	c1.143-0.229,1.458-0.686,2.429-0.971l4.115-1.229c0.486-0.171,0.743-0.429,1.114-0.543c1.429-0.572,1.172,0.143,3.458-0.943
	c0.686-0.314,1.601-0.2,2.201-0.486c0.343-0.143,0.171-0.314,0.943-0.628l4.344-1.172c2.258-0.2,3.772-0.886,5.858-1.143
	c0.572-0.057,1.058-0.029,1.629-0.143c0.657-0.143,0.572-0.229,1.429-0.457c2.857-0.714,6.716-0.114,9.374-1.115
	c1.657-0.6,8.516-0.257,10.517-0.257l6.973,0.257c1.143,0.143,1.829,0.171,3.201,0.2c1.229,0.028,1.8,0.343,3.058,0.543
	l12.117,2.115c1.257,0.314,1.115,0.572,2.572,0.857c3.086,0.571,10.23,3.029,12.974,4.601l3.687,1.629
	c0.857,0.286,0.657,0.314,1.343,0.6l9.03,5.001c1.515,0.886,2.687,1.886,4.315,2.686c1.629,0.8,4.715,3.258,6.173,4.487l5.916,4.973
	c0.286,0.314,0.457,0.486,0.8,0.887c1.314,1.428,3.343,2.486,4.601,4.372c1.144,1.714,2.629,2.687,4.059,4.658
	c0.285,0.399,0.085,0.171,0.457,0.457l5.173,6.23c0.028,0.028,0.085,0.085,0.114,0.143l5.829,8.917
	c0.258,0.314,0.172,0.143,0.429,0.6l2.943,5.944c0.772,1.257,1.029,2.429,1.544,3.572c0.314,0.657,0.314,0.343,0.657,1.286
	l1.771,3.516c1.572,2.572,2.544,6.001,3.229,9.116c0.286,1.257,0.686,1.743,0.943,2.687l1.285,5.83c0.058,0.343,0.2,0.8,0.4,1.229
	l0.143,0.314c0.144,0.343,0.058,0.114,0.144,0.371c0.114,0.344,0.114,0.344,0.171,0.829c0.229,2.029,0.086,1.372,0.715,2.858
	l2.029,12.203c0.8,5.801,0.628,18.976,0.057,25.063c-0.171,1.771-0.686,5.802-1.257,7.459c-0.286,0.801-0.372,1.715-0.486,2.486
	c-0.515,3.287-1.743,5.115-1.972,6.373c-0.286,1.572-0.114,1.086-0.657,2.286c-0.486,1.001-0.515,2.258-1,3.401
	c-0.2,0.457-0.2,0.6-0.372,1.114l-1.743,4.001c-0.686,1.086-0.229,0.943-0.629,2.086c-0.171,0.572-1,1.229-1.257,1.601l-1.915,3.887
	c-0.429,0.657-0.657,1.114-1.028,1.915c-0.458,0.943-0.657,1.086-1.115,1.771c-0.629,1-0.114,1.229-0.886,2.001l-2.601,3.229
	c-1.229,1.429-2.915,3.144-3.887,4.772c-1.2,2.028-3.029,3.829-4.801,5.401l-4.115,3.857c-0.371,0.314-0.086,0.058-0.4,0.344
	c-0.028,0.028-0.057,0.085-0.114,0.114l-3.286,3c-1.515,1.486-3.287,2.344-5.001,3.716c-1.4,1.114-3.344,2.771-5.059,3.429
	c-0.686,0.258-1.972,1.4-4.601,2.63c-0.515,0.229-0.515,0.285-0.972,0.485c-1.486,0.715-4.258,2.486-5.602,2.887
	c-1.457,0.429-0.914-0.028-2.172,0.715c-1.171,0.686-1.314,0.171-2.286,0.628c-2.058,1.001-2.515,0.829-4.029,1.744
	c-0.572,0.343-1.543,0.543-2.201,0.742c-0.886,0.286-1.515,0.286-2.4,0.515c-0.829,0.229-1.172,0.515-2.172,0.715l-4.744,1.058
	c-1.686,0.199-3.429,0.428-5.058,0.714c-3.572,0.629-7.202,0.486-11.146,0.571c-3.315,0.058-7.001,0.058-10.574-0.343
	c-2.286-0.285-10.088-1.515-11.945-2.314c-1.257-0.515-0.915-0.314-2.372-0.543c-1.086-0.172-1.086-0.486-2.229-0.687
	c-2.486-0.457-2.429-0.886-4.458-1.371c-1.286-0.314-1.114-0.372-2-0.886c-1.429-0.801-1.6-0.657-3.086-1.258l-2.515-0.886
	c-0.915-0.286-0.515-0.314-1.429-0.743c-0.429-0.172-0.572-0.2-1-0.457c-0.4-0.258-0.429-0.372-0.886-0.572l-2.829-1.543
	c-1.115-0.829-2.486-1.286-3.687-2.114c-3.544-2.401-6.773-4.659-10.088-7.345l-7.43-6.831c-0.686-0.8-0.286-0.742-1.314-1.6
	c-1.086-0.943-1.829-2.058-2.743-3.059c-1.172-1.286-3.058-3.314-3.944-4.715c-1.543-2.372-3.458-4.459-4.83-6.802
	c-1.2-2.029-5.201-9.117-5.944-11.231l-0.771-2.115c-0.4-1.657-1.2-2.657-1.743-4.086l-1.286-4.573
	c-0.229-1.229-0.514-1.172-0.829-2.029c-0.257-0.8-0.171-1.629-0.458-2.457c-0.372-1.058-0.514-0.743-0.714-2.115
	c-0.229-1.686-0.314-0.972-0.714-2.2c-0.458-1.372-0.314-3.601-0.572-5.287c-0.286-2.029-0.6-2.486-0.657-5.087
	c-0.257-8.545-0.486-12.718,0.829-21.691c0.171-1.171,0.886-1.629,1.057-3.2c0.229-2.4-0.086-1.4,0.771-3.315
	c1.029-2.315,1.629-5.173,3.029-7.603l3.372-7.315c0.458-0.8,0.343-0.229,0.857-1.028c0.143-0.201,0.686-1.229,0.771-1.458
	c0.686-1.857,0.343-1.372,1.601-2.715l1.686-2.429c0.429-0.458,0,0.027,0.429-0.572l7.802-8.116l9.545-7.173
	c1.229-0.743,0.972-1.144,2.543-1.715c1.458-0.543,1.629-1.172,2.543-1.572c0.771-0.314,0.943-0.285,1.6-0.629l7.373-3.258
	c0.6-0.199,1.058-0.143,1.601-0.371c1.429-0.515,0.143-0.4,1.4-0.657c0.771-0.172,1.2-0.114,1.943-0.314
	c0.915-0.229,0.743-0.4,1.515-0.629c0.915-0.286,2.572-0.314,3.601-0.515c5.144-0.971,1.972-0.629,7.688-0.886
	c1.686-0.085,2.057-0.457,3.858-0.457c3.543,0,6.087,0.485,9.431,0.543c1.4,0,3.744,0.771,6.258,1.114
	c1.086,0.143,1.2,0.344,2,0.658c1.343,0.543,3.086,0.256,4.401,0.742c0.429,0.172,1.058,0.543,1.629,0.743l7.459,2.772
	c1.171,0.457,2.172,1.229,3.286,1.801c0.686,0.342,1.229,0.314,1.858,0.742c2.429,1.744,6.944,4.858,8.688,6.573
	c1.829,1.8,3.772,2.829,5.487,4.687l6.859,8.088c1.143,1.314,1.6,2.687,2.629,3.715c0.543,0.543,0.457,0.887,0.8,1.544l3.201,5.744
	c0.486,0.942,0.286,1.114,0.686,2.001l0.971,1.886c0.286,0.657,0,0.085,0.257,0.515c1.143,1.972,1.4,4.687,2.029,5.744
	c0.771,1.258,0.486,1.6,0.714,3.058c0.314,1.743,0.771,2.087,0.943,4.144c0.143,1.516,0.458,2.801,0.714,4.487
	c0.372,2.458,0.257,7.345,0.172,10.03c-0.029,1.63,0.057,3.516-0.257,4.888c-0.4,1.629-0.657,2.315-0.8,4.315
	c-0.114,1.6,0.029,0.828-0.629,1.771l-2,5.716c-0.515,0.829-0.429,1.258-0.915,2.029l-5.573,8.916c-0.6,0.629-0.657,0.829-1.2,1.486
	c-1,1.258-3.687,3.601-5.116,5.059c-1.743,1.801-7.144,4.716-9.516,5.716c-0.286,0.143-0.543,0.229-0.829,0.399
	c-1.372,0.801-1.801,0.458-2.687,1.144c-0.771,0.601-0.686,0.486-1.743,0.657c-1,0.143-1.229,0.257-2.086,0.601
	c-1.257,0.543-2.601,0.285-4.115,0.942c-2.458,1.058-11.117,0.629-14.346,0.286c-1.829-0.2-5.83-1.343-8.173-1.801
	c-1.114-0.199-0.771-0.257-1.486-0.771c-0.743-0.543-1-0.399-1.858-0.828c-1.543-0.829-3.772-1.172-5.229-2.287
	c-1.429-1.143-3.172-1.972-4.572-3.172c-0.458-0.4-0.8-0.657-1.286-1.114c-1.229-1.2-3.086-2.515-3.887-3.83
	c-0.571-0.972-0.457-0.571-1.286-1.171c-1.315-0.943-2.258-3.201-3.287-4.459l-2.029-3.029c-1.172-2.229-1.343-2.029-2.543-4.943
	c-0.343-0.829-0.572-1.286-0.8-1.858l-2.372-7.659c-0.086-1.457-0.714-2.657-0.886-4.172c-0.229-2.115-0.372-8.488,0.543-10.06
	c0.486-0.857,0.657-2.743,2.601-5.573c1.515-2.2,2.886-4.629,5.001-6.344c0.571-0.43,1-0.771,1.715-1.144
	c5.344-2.657,6.258-3.858,13.603-3.915c1.972,0,3.086,0.457,4.887,0.742c2.772,0.458,5.487,2.401,7.802,3.802l0.886,0.543
	c0.886,0.8,2.743,2.544,3.258,3.63c1.172,2.343,2.286,3.029,2.915,5.973c0.171,0.771,0.628,1.285,0.829,2.029
	c0.171,0.828,0.086,1.943,0.171,2.828c0.314,2.772-0.2,2.373,1.257,4.287h1.2c0.458-0.715,0.658-0.8,0.686-2.029
	c0.057-3.972-0.486-3.143-0.771-5.572c-0.458-3.772-0.943-3.544-3.229-7.345l-1.229-1.943c-0.429-0.601,0.286,0.286-0.314-0.343
	c-0.057-0.029-0.114-0.086-0.143-0.114l-2.143-2.258c-0.257-0.257,0.057,0.028-0.372-0.314c-0.229-0.229-0.2-0.144-0.4-0.314
	c-1.886-1.571-3.715-3.229-6.144-4.001c-0.743-0.258-1.657-0.6-2.4-0.771c-5.087-1.344-3.83-1.2-9.659-1.172
	c-2.229,0-2.201,0-3.973,0.6c-1.943,0.658-2.857,0.715-5.029,1.744c-3.772,1.743-7.23,5.401-9.831,8.773
	c-0.972,1.258-0.972,1.715-1.657,2.915c-0.657,1.086-1.372,4.058-1.486,5.516c-0.143,1.629-0.571,2.429-0.714,3.887
	c-0.257,2.687,0.4,6.03,0.771,8.374c0.2,1.285,0.115,2.857,0.515,4.086c0.2,0.572,0.343,0.629,0.543,1.658l0.972,3.857
	c0.514,1.429,0.915,1.572,1.343,3.258c0.286,1.058,2.943,5.145,3.629,6.773c0.628,1.429,1.543,2.115,2.486,3.286
	c1.543,1.887,5.059,5.287,6.859,6.916c0.6,0.515,0.829,0.657,1.372,1.058c0.771,0.571,0.343,0.543,1.2,1.2l4.058,2.715
	c0.572,0.286,0.257,0.029,0.8,0.429c0.629,0.486,0.114,0.258,0.6,0.572c0.6,0.371,0.886,0.229,1.601,0.6
	c0.486,0.258,0.114,0.114,0.771,0.429c0.429,0.2,0.429,0.143,0.857,0.372c1.372,0.714,1.886,0.742,3.601,1.285l5.201,1.544
	c3.029,0.914,0.429,0.8,5.83,1.057l1.343,0.2c2.744,0.829,13.003-0.085,14.346-0.657c1.086-0.457,2.172-0.399,3.429-0.914
	l3.258-1.344c0.886-0.514,1.429-0.343,2.258-0.857l2.801-1.515c1.372-0.714,2.543-1.314,3.772-2.343
	c1-0.857,1.743-1.001,2.715-1.829c1.572-1.372,3.858-2.858,4.973-4.516l1.029-1.143c0.2-0.258,0.085-0.172,0.314-0.4
	c0.314-0.343,0.429-0.429,0.714-0.687c1.114-0.972,1.943-2.172,2.772-3.343c0.143-0.229,0.143-0.258,0.286-0.458l3.858-6.03
	l2.715-6.458l1.886-7.116c0.686-3.4,0.8-16.461-0.143-19.548c-0.343-1.144-0.372-2.544-0.572-3.715
	c-0.343-2.029-0.886-1.315-1.029-3.516c-0.114-1.629-0.571-2.028-0.915-3.515c-0.314-1.258-0.571-1.486-1.029-2.372L192.7,116.2
	c-0.029-0.058-0.057-0.114-0.114-0.171c-0.029-0.029-0.057-0.086-0.086-0.144c-0.657-1.058-0.743-2.229-1.372-3.458
	c-1.172-2.314-1.572-4.687-2.943-6.773l-2.601-3.914c-1.258-1.744-2.429-3.658-3.973-5.23l-1.372-1.743
	c-2.515-3.344-6.144-7.002-9.516-9.402l-3.658-2.858c-2.572-1.886-5.487-3.801-8.345-5.201l-2.915-1.429
	c-0.886-0.571-0.743-0.343-1.8-0.686c-0.857-0.286-0.657-0.4-1.4-0.715c-1.4-0.628-3.486-0.972-4.915-1.657
	c-1.029-0.486-5.916-1.344-7.63-1.515c-1.629-0.144-2.286-0.714-3.401-0.886c-1.572-0.258-2.629,0.114-4.229-0.286
	c-4.258-1.086-12.231-0.429-16.689,0.257c-1.314,0.201-5.172,0.829-6.258,1.344l-6.001,1.6c-1.372,0.229-0.6,0.144-1.486,0.83
	c-0.657,0.543-2.144,0.143-3.515,0.828c-2.115,1.058-4.258,1.658-6.23,2.771l-9.316,6.174c-2.172,1.4-1.886,1.629-3.572,2.943
	l-1.8,1.344c-0.571,0.514-0.085,0.027-0.543,0.656c-0.686,0.915-1.372,1.372-2.286,2.315l-1.486,1.657
	c-2.372,2.629-2.144,2.601-4.058,5.145c-0.143,0.199-0.229,0.314-0.314,0.429c-0.657,0.914-1.286,1.343-1.943,2.372l-2.943,4.572
	c-0.915,1.601-2.029,3.344-2.687,5.029c-0.343,0.887-0.143,0.915-0.686,1.772c-1.086,1.772-2.115,7.288-3.172,9.974
	c-0.629,1.629-0.743,3.83-1.286,5.43c-1.829,5.345-1.6,20.291-0.628,25.549c0.2,0.973,0.343,1.258,0.486,2.373
	c0.085,0.857,0.143,1.972,0.286,2.943c0.2,1.629,0.514,0.429,0.657,2.172c0.086,1.114,0.086,1.829,0.343,2.829l1.372,4.43
	c0.257,0.686,0.286,1.629,0.486,2.43c0.314,1.086,0.657,1.028,0.886,2.229c0.314,1.601,0.2,0.943,0.771,2.172
	c0.343,0.771,0.486,1.458,0.857,2.286l4.572,10.231c0.6,1.343,6.745,11.003,8.259,12.774c1.2,1.372,1.314,1.058,2.915,3.115
	l8.716,9.23c0.629,0.429,1.115,0.658,1.572,1.315c0.915,1.257,3.629,3.229,5.001,4.172c0.715,0.486,0.886,0.629,1.772,1.172
	l4.258,3.229c0.429,0.314,0.514,0.286,0.943,0.543c0.714,0.429,0.972,0.657,1.829,1.086c0.543,0.286,0.429,0.257,0.915,0.543
	c3.601,1.972,2.372,1.601,4.601,3.058l12.66,5.23c2.343,0.399,4.887,1.829,7.03,1.943c2.286,0.143,0.857,0.285,2.2,0.914
	c1.058,0.486,4.115,0.2,5.487,0.571c3.601,0.943,7.116,0.743,10.831,1.258c3.43,0.486,8.087,0.143,11.289-0.314
	c1.771-0.257,3.715-0.086,5.487-0.314c0.829-0.114,1.771-0.229,2.458-0.429c0.771-0.229,1.4-0.485,2.201-0.6
	c2.372-0.314,5.172-0.857,7.43-1.629c0.8-0.258,1.458-0.286,2.372-0.515c0.857-0.229,0.972-0.457,2.201-0.743
	c1.143-0.257,5.201-1.657,6.287-2.372l4.201-1.829c2.886-1.028,8.173-4.601,11.174-6.201l3.829-2.286
	c0.915-0.658,0.429-0.743,1.486-1.4l8.259-6.517c0.629-0.628,0.4-0.886,1.286-1.6l1.629-1.544c0.886-0.886,1.972-2.086,2.743-3.058
	l3.344-3.887c1.229-1.172,4.144-4.687,4.601-5.858c0.601-1.543,1.372-2.201,2.058-3.744c0.801-1.771,1.43-2.114,2.401-3.629
	l2.886-5.83c0.314-0.829,0.657-1.286,1.058-2.087c0.371-0.714,0.485-1.429,0.8-2.114c0.258-0.543,0.172-0.143,0.486-0.972
	l1.829-5.401c0.314-0.771,0.285-1.829,0.628-2.314c0.743-1.172,0.4,0.457,0.915-1.915c2.086-9.517,3.743-15.946,3.715-26.063
	l-1.028-15.832c-0.372-1.887-0.286-3.259-0.515-5.145c-0.2-1.516-0.429-3.087-1.029-4.43c-0.399-0.829-0.229-1.486-0.343-2.4
	l-1.686-6.717c-0.601-1.486-0.857-2.515-1.314-4.201c-0.458-1.6-0.4-0.143-0.829-1.8c-0.601-2.486-1.629-3.802-2.058-6.373
	c-0.172-0.972-0.429-1.343-0.715-2.058l-0.914-2c-0.429-0.687-0.343-1.287-0.601-2.115c-0.457-1.4-1.143-2.486-1.743-3.801
	c-0.399-0.801-0.714-1.144-1.057-1.829c-0.743-1.429-1.058-2.372-1.915-3.658l-1.601-2.486c-1.343-2.315-1.743-4.087-3.658-6.517
	l-1.086-1.571c-0.057-0.085-0.257-0.372-0.285-0.457c-0.2-0.286-0.4-0.543-0.629-0.829c-0.657-0.8-0.629-0.771-1.258-1.629
	c-1.114-1.543-1-1.086-2.314-3.258c-0.715-1.115-1.657-2.029-2.687-2.915c-0.314-0.314-1.229-1.715-2.543-3.001
	c-0.571-0.571-0.771-1-1.229-1.429c-0.6-0.571-1.086-0.657-1.571-1.314c-1.172-1.544-5.401-5.458-7.059-6.773
	c-0.829-0.686-0.886-0.286-1.743-1.144c-1.744-1.743-3.144-2.286-4.63-3.629c-0.6-0.543-0.943-0.686-1.657-1.229l-6.573-4.573
	c-1.314-0.857-5.43-2.429-7.373-3.744C179.554,32.636,178.011,32.351,177.097,31.436L177.097,31.436z M291.322,18.319
	c1.657-2.372,5.43-0.114,7.401-2.429c0.429-0.515,1.344-2.315,1.743-3.086c0.857-1.543,0.429-2.086,2.115-2.658
	c0.229,0.543,0.485,1.058,0.828,1.572c0.372,0.628,0.372,0.771,0.715,1.457c3.286,6.173,4.43,2.372,8.088,4.716
	c0.057,0.057,0.257,0.171,0.285,0.2l0.314,0.229c-0.429,0.914-2.943,3.172-3.715,4.086c-1.486,1.8-0.172,1.829-0.286,6.288
	c-1.143,0.2-0.857,0.114-2-0.229c-0.144-0.057-0.486-0.143-0.571-0.171c-1.4-0.457-1.029-1.229-1.687-1.515
	c-1.229-0.515-3.973,1.4-5.373,1.943l-1.942,0.943c-0.658,0.257-0.829,0.171-1.544,0.171c0.058-2.401,0.572-4.458,0.258-6.916
	C294.98,22.291,291.979,19.147,291.322,18.319L291.322,18.319z M371.396,8.859c0.715-1.486,0.229-0.4,0.943-1.372
	c0.657-0.857,0.229-0.829,1.657-1.658c0.429,0.458,0.4,0.543,0.972,1.115c0.801,0.771,0.2-0.028,0.687,1.172
	c0.429,1.115,0.399,0.457,0.771,1.372c0.399,1.029-0.114,0.686,0.743,1.343c1.657,1.314,5.744,0.829,6.572,1.601
	c0.743,0.457-1.172,1.915-1.657,2.372c-0.857,0.857-1.543,1.829-2.429,2.401c-0.058,2.543,0.571,4.115,0.571,6.401
	c-0.801-0.229-0.343-0.314-1.543-0.543c-0.515-0.114-1.286-0.143-1.858-0.343c-1.314-0.4-1.257-1.029-3.314-0.915l-3.572,0.886
	c-1.114,0.372-1.629,1.715-2.286,1.029c-0.743-0.686,0.429-5.344-0.028-6.345l-3.115-3.115c-1.172-1.2-1.172-0.714-1.172-1.972
	c0.915-0.143,2.658-0.257,3.572-0.429c1.343-0.257,1.857-0.743,3.43-0.829L371.396,8.859z M357.679,10.717
	c0,1.829,1.343,1.743,3.172,4.058l2.172,2.429c0.028,0.029,0.086,0.085,0.114,0.114c0.771,0.743,0.029,0.314,1.229,0.943
	c0,1.915,0,3.801-0.458,5.487c-0.257,0.972-1.743,5.258,0.4,5.23c1.314-0.029,0.972-0.8,2.972-0.8l-1,5.173
	c-0.285,0.972-0.371,0.6-0.657,1.486c-0.314,0.972-0.285,2.343-0.657,3.458l-2.543,9.888c-0.2,0.657-0.429,0.857-0.601,1.286
	c-0.314,0.714-0.2,1.029-0.4,1.857l-2.629,5.802c-1.515,2.572-3.086,5.145-5.173,7.344c-1.057,1.145-1.771,2.23-3.172,2.858
	c-0.914,0.458-0.6,0.343-1.229,0.972c-1.029,1-2.058,1.143-3.286,1.801l-2.286,1.057c-3.201,0.801-7.659,0.744-10.26-1.314
	c-0.372-0.285-3.486-2.029-4.858-3.629c-2.486-2.943-3.572-4.401-5.516-7.573c-0.028-0.058-0.057-0.114-0.086-0.144l-0.371-0.629
	c-0.028-0.027-0.058-0.113-0.086-0.171l-0.429-0.743c0-0.057-0.057-0.086-0.086-0.114l-4.058-7.03
	c-0.715-1.772-1.972-3.687-2.829-5.43c-0.429-0.915-0.515-2.144-1.058-3.086c-0.429-0.715-0.399-0.4-0.714-1.458
	c-0.344-1.115-0.857-2.172-1.029-3.373c1.286-0.8,1-0.429,0.943-2.4c-0.114-3.144-1.429-8.288-0.886-9.888
	c0.2-0.657,6.173-6.802,7.03-7.459l-0.058-1.686c-2.915-0.2-3.772-0.4-6.115-0.972c-2.887-0.686-3.744,0.4-5.573-1.686
	c-0.828-0.943-1.114-2.401-1.686-3.43l-2.058-3.458c-0.372-0.686-0.915-1.772-1.258-2.372c-2.344,0.772-3.315,5.087-4.887,7.173
	l-1.086,1.772c-0.257,0.457-0.086,0.2-0.343,0.457l-1.829,1.058c-1.086,0.343-2.372,0.229-3.458,0.429
	c-1.286,0.229-1.2,0.571-2.772,0.771c-1.028,0.143-2.143,0.171-3.114,0.572c-0.457,0.2-0.457,0.915-0.258,1.343
	c0.029,0.028,0.915,0.943,0.972,1c0.687,0.686,1.2,1.114,1.801,1.829c0.6,0.657,1.086,1.143,1.743,1.886
	c3.572,3.858,2.715,2.2,2.372,8.316c-0.114,1.744-2.515,6.516,0.2,6.459c1-0.028,0.942-0.572,2.028-0.886
	c0.486-0.143,0.887-0.143,1.372-0.172c0.686,0.886,0.543,2.687,0.886,3.658c0.515,1.458,0.372,2.058,0.771,3.572
	c0.2,0.8,0.4,0.886,0.543,1.658c0.144,0.686,0.114,1.429,0.144,2.143c0.086,2.401,0.714,1.772,1.057,3.43l0.915,3.43
	c0.171,0.686,0.057,1.258,0.286,1.914c0.457,1.314,0.571,0.029,1,3.315l4.973,17.032c0.399,2.287,0.771,0.744,1.143,5.717
	c0.086,1.285-0.2,2.801-0.714,3.715c-0.829,1.572-1.572,3.629-3.201,4.516c-1.258,0.686-1.943,1.715-3.058,2.543l-3.63,2.943
	c-1.914,1.687-4.286,3.059-6.144,4.973c-0.543,0.601-0.543,0.515-1.144,1c-1.771,1.373-5.087,5.03-6.458,6.889
	c-0.344,0.457-0.543,0.8-0.943,1.229l-6.087,9.373c-1.572,3.115-0.4,1.486-1.915,4.688c-0.571,1.2-0.657,2.172-1,3.4
	c-0.4,1.4-1.058,1.515-1.515,2.801c-0.829-1.857-0.114-5.572-0.829-7.602c-0.2-0.515-0.6-1.629-0.686-2.144
	c-0.172-0.829-0.058-1.601-0.257-2.458c-0.515-1.972-1.515-4.801-1.772-6.858l-0.629-2.144c-0.485-0.828-0.229-1.344-0.457-2.43
	c-0.257-1.057-0.686-0.629-0.857-1.943c-0.257-2.057,0-0.971-0.743-2.258c-0.399-0.686-0.257-1.4-0.514-2.172
	c-0.258-0.742-0.629-1.028-0.943-1.886l-0.857-2.086c-0.743-2.458-3.001-7.802-4.63-9.745c-0.8-0.943-1.314-2.629-1.886-3.63
	l-1.771-2.571c-1.058-1.715-4.029-6.459-5.145-7.717l-4.458-5.43c-1.229-0.857-2.486-2.915-3.687-4.087l-0.371-0.372
	c-0.258-0.257-0.458-0.428-0.743-0.686c-0.314-0.257-0.457-0.371-0.771-0.686l-2.229-1.887c-0.629-0.571-0.8-0.742-1.543-1.343
	c-0.629-0.543-0.943-0.8-1.543-1.372c-1.486-1.4-3.115-2.457-4.802-3.658c-0.371-0.257-0.514-0.343-0.856-0.6
	c-0.029-0.029-0.344-0.257-0.4-0.343l-0.257-0.257c-1.572-1.943-4.345-3.515-6.888-4.659c-4.344-1.943-8.688-4.944-12.917-6.944
	c-1.315-0.6-2.687-1.143-4.001-1.829c-0.629-0.314-1.2-0.457-1.886-0.771c-0.771-0.372-1.286-0.6-1.972-0.915
	c-1.343-0.657-2.801-0.972-4.201-1.601c-0.6-0.257-1.057-0.628-1.771-0.857c-2.887-0.971-10.945-3.515-13.317-3.944
	c-2.172-0.4-2.658-0.972-4.373-1.171c-1.8-0.2-2.543-1.058-4.344-1.315c-1.515-0.229-0.886-0.543-2.2-0.714
	c-1.829-0.2-3.401-0.028-5.03-0.628c-0.915-0.314-1.229-0.4-2.229-0.601c-1.115-0.2-1.315-0.428-2.286-0.628
	c-1.715-0.343-3.629-0.057-5.401-0.286c-0.829-0.114-1.257-0.429-2.172-0.657c-0.657-0.172-1.743-0.2-2.687-0.2
	c-4.086-0.143-6.401-0.972-10.173-1.172l-10.888-0.057c-1.857,0.086-3.715-0.029-5.573,0.029c-1.715,0.057-3.629,0.371-5.315,0.457
	l-7.659,0.829c-1.829,0.286-2.172,0.8-4.43,1.029c-1.658,0.172-9.602,2.344-11.545,2.801c-1.486,0.343-1.029,0.486-2,0.857
	c-0.8,0.314-1.4,0.171-2.343,0.6c-1.857,0.857-4.458,1.372-6.201,2.258c-1.372,0.686-1.115-0.057-3.029,1.086l-2.887,1.429
	c-0.8,0.372-1.314,0.572-2,0.886c-3.029,1.4-9.603,4.515-12.146,6.287l-7.745,4.315c-0.057,0.028-0.086,0.086-0.114,0.114
	c-0.029,0.057-0.057,0.114-0.115,0.143c-1.4,1.629-3.4,2.629-5.144,3.858c-0.4,0.314-0.486,0.314-0.829,0.629l-11.545,9.717
	l-4.258,4.486c-1.715,2.029-3.858,3.772-5.401,5.973c-0.343,0.515-0.857,0.801-1.257,1.4c-0.972,1.372-0.572,1.029-1.943,2.4
	c-0.6,0.601-0.171,0.086-0.657,0.801l-3.687,4.772c-0.6,0.715-0.743,0.829-1.229,1.687l-3.801,6.115
	c-0.657,1.029-1.171,1.458-1.686,2.687l-1.543,2.544c-1.629,2.801-2.801,5.63-4.201,8.602l-0.314,0.658
	c-0.571,1-1.229,2.172-1.515,3.314c-0.2,0.771-0.143,1.486-0.485,2.201c-0.515,0.971-0.601,0.314-0.943,1.914
	c-0.143,0.771-0.085,0.6-0.314,1.172c-0.114,0.314-0.229,0.543-0.372,1.086l-0.886,3.201c-0.743,1.886-1.343,5.373-1.486,5.772
	c-0.372,1.086-0.572,0.829-0.629,2.258c-0.057,0.829,0.029,1.886-0.057,2.657c-0.114,0.801-0.486,1.258-0.714,2.172
	c-0.429,1.516-0.372,3.401-0.572,5.174c-0.771,6.772,0.086,20.376,0.343,27.749c0.085,2.229-0.086,3.658,0.457,5.373
	c0.515,1.601,0.171,3.515,0.543,5.029c0.4,1.658,0.829,2.887,0.943,4.858c0.057,1.429,1.857,10.774,2.372,11.66
	c0.515,0.857,0.515,0.943,0.629,2.144c0.229,2.086,0.771,2.801,1.029,4.83c0.171,1.314,0.229,1.143,0.714,2l4.715,13.946
	c0.314,0.571,0.143,0.028,0.514,0.915l2.858,7.115c0.8,2.944,0.458,1.086,1.2,2.915c0.915,2.229,1.629,3.83,3.001,5.659
	c0.857,1.143,0.372,0.429,0.829,1.914c0.343,1.172,1.715,2.287,2.543,3.173s0.429,0.914,1,1.914l2.372,3.173
	c0.857,0.943,1.486,2.458,2.343,3.486c0.515,0.571,0.686,0.629,1.286,1.372c1.886,2.258,1.658,2.457,3.887,4.829l6.659,7.374
	c0.714,0.571,0.914,0.429,1.743,1.171l3,2.801c1.4,1.229,3.543,2.572,4.744,3.716c2.486,2.4,5.315,4.229,8.23,6.059
	c1.229,0.771,2.972,1.4,4.115,2.4c0.029,0.028,0.086,0.086,0.114,0.114c1.486,1.2,5.687,2.887,7.63,4.001
	c0.515,0.286,0.486,0.2,1.029,0.457c0.458,0.2,0.4,0.258,0.943,0.515l4.63,2.314c2.029,0.601,4.572,1.286,6.43,2.287
	c0.857,0.457,0.772,0.657,1.972,0.856c3.086,0.458,7.316,0.658,3.829,4.516l-0.714,0.687c-0.057,0.028-0.085,0.085-0.143,0.114
	l-0.515,0.429c-2.286,1.8-8.03,5.087-10.717,5.944c-0.829,0.285-1.4,0.571-2.115,0.8c-0.8,0.286-1.543,0.2-2.372,0.429
	c-1.115,0.286-0.8,0.601-1.858,0.943c-0.914,0.285-1.257,0.399-2.029,0.686c-0.829,0.286-1.486,0.257-2.229,0.657l-1.857,0.801
	c-0.429,0.199-0.429,0.285-0.972,0.485c-0.4,0.172-0.772,0.229-1.115,0.343l-3.887,1.629c-1.171,0.629-2.543,1.086-3.858,1.687
	l-7.03,4.115c-1.801,0.8-3.315,2.229-4.658,3.601c-0.771,0.801-0.943,0.687-1.629,1.258c-0.143,0.114-2.401,3.001-2.429,3.115
	c-0.572,1.943,2.172,1.743,3.429,1.743c14.832-0.058,29.692-0.028,44.524,0.028c14.803,0.028,29.721-0.229,44.524-0.057
	c14.489,0.143,29.578-0.458,44.038-0.486c14.832-0.057,29.692,0.114,44.524,0c14.832-0.114,29.692,0.114,44.524-0.028l33.121-0.258
	c4.315-0.057,15.518,1.801,9.06-4.829l-2.286-2.058c-0.029-0.058-0.172-0.229-0.2-0.286l-2.315-2.543
	c-0.6-0.572-0.229-0.144-0.828-0.887l-2.744-3c-0.971-0.943-0.828-1.201-2.028-2.058l-2.115-2.087
	c-1.371-1.629-2.314-2.314-3.801-3.687c-0.429-0.4-0.886-1.286-1.343-1.771c-0.601-0.657-1.144-0.943-1.715-1.658l-6.259-7.087
	c-0.942-0.886-1.314-1.601-2.4-2.4l-1.571-1.601c-0.286-0.314-0.4-0.601-0.715-0.972c-2.144-2.687-3.801-5.345-4.544-8.803
	c-1.086-5.172-1.229-1.657-0.257-8.545c0.429-3.172,1.686-5.572,3.286-8.315c0.229-0.4,0.229-0.715,0.486-1.229l2.515-4.029
	c1-1.344,1.457-2.801,2.543-3.973l2.4-2.429c1.314-1.372,2.572-3.173,4.059-4.401l5.115-4.572c1.657-1.486,3.315-3.287,5.373-4.573
	l7.144-6.173c0.657-0.657,1.115-0.657,1.858-1.286l5.4-4.515c3.115-2.315,5.973-4.973,8.431-8.002
	c0.601-0.743,1.029-1.201,1.572-1.829c1.343-1.486,4.857-7.888,5.172-8.031c2.315-0.085,11.203-0.028,12.632-0.543
	c2.144-0.743,3.144-0.771,5.029-1.457c1.4-0.486,3.058-0.743,4.372-1.486l2.43-1.601c1.457-0.771,3.001-2,4.144-3.172
	c0.972-0.972,3.43-4.115,3.858-5.401l1.6-5.145c6.287-0.114,12.975,1.315,19.176,0.801c1.715-0.143,8.316-0.457,9.46-0.972
	c1.229-0.571,1.257-0.457,2.886-0.571c1.601-0.115,1.172-0.429,2.486-0.857c1.086-0.314,1.4-0.801,2.572-1.058
	c0.571-0.114,0.8-0.114,1.314-0.343l0.771-0.429c1.715-0.829,3.229-1.372,4.858-2.401l3.486-2.543c1.028-0.8-1,0.657,0.314-0.2
	l1.229-0.914c0.829-0.771,2.029-1.515,2.601-2.43l4.487-5.944c0.285-0.515,0.314-0.657,0.543-1.172l1.143-2.314
	c0.258-0.543,0.4-0.515,0.686-1.2l2.744-7.431c0.343-1.057,0.257-2.086,0.6-3.058c1.2-3.229,1.029-9.06,0.515-12.89
	c-0.314-2.371-1.314-5.801-2.372-7.83c-0.657-1.229-1.172-3.973-1.886-5.201c-1.687-2.887-3.43-5.602-5.716-8.088
	c-1.657-1.828-2.943-4.029-4.744-5.63l-1.629-1.743c-0.028-0.057-0.114-0.086-0.143-0.114c-0.058-0.058-0.2-0.171-0.257-0.229
	c-0.229-0.2-0.286-0.257-0.515-0.458l-0.972-0.942c-2.258-2.343-4.287-2.743-3.229-6.573c0.515-1.857,0.4-4.458,0.286-6.487
	c-0.058-1.2-0.457-1.943-0.657-2.972l-1.772-5.002c-0.714-0.886-0.657-1.257-1.143-2.229c-0.771-1.486-2.858-3.772-4.258-4.459
	c-2.716-1.285-3.059-1.914-6.916-1.886c-1.344,0-2.001,0.058-2.973,0.515c-2.571,1.2-4.344,1.801-5.744,4.516
	c-2.058-0.2-1.286-3.43-1.314-4.916c-0.028-3.029,0.314-6.087,0.801-9.031c0.343-2.114,0-3.972,0.571-6.144
	c0.515-1.886,0.2-8.288,1.058-12.289c0.457-2.2,0.399-13.746,0.914-15.775c1.372-0.028,2.344,0.314,3.515,0.372
	c0.086-2.829-0.971-9.517-0.771-10.145c0.743-1.201-0.628,0.628,0.286-0.286l2.144-2.172c0.485-0.486,0.571-0.571,0.972-0.943
	l1.829-1.829c0.028-0.029,0.085-0.086,0.114-0.114l0.371-0.372c0.857-0.8,1.915-1.515,0.2-2.344c-1.286-0.6-3.201-0.4-4.572-0.628
	c-1.029-0.171-1.344-0.515-2.486-0.657c-2.715-0.314-2.372-0.486-3.516-2.344c-0.028-0.028-0.085-0.085-0.114-0.143l-1.857-3.258
	c-0.399-0.6-0.229-0.2-0.629-1L374.226,0c-0.429,0.114-0.572,0.257-0.601,0.257c-1.058,0.6-1.372,1.457-1.943,2.515l-3.144,5.23
	c-0.829,0.886-3.857,1.257-5.115,1.572C361.137,10.145,359.623,9.517,357.679,10.717L357.679,10.717z"/>
<path fill-rule="evenodd" clip-rule="evenodd" fill="#3A3A39" d="M354.564,92.48c1.114-0.258,2.629-0.2,3.516,0.343l2.2,2.114
	c2.314,2.83,2.601,7.002,2.114,10.632c-0.371,2.715-0.314,1.485-0.771,2.571c-0.686,1.602,0.629,0.43-1.086,1.943
	c-1.114,1.029-1.686,2.344-3.801,2.688c-3.344,0.571-5.315-1.258-6.516-3.344l-1.028-2.115c-0.429-1.4-0.515-2.115-0.687-3.658
	c-0.429-3.43,0.114-3.229,0.771-5.572C350.02,95.538,351.992,93.08,354.564,92.48L354.564,92.48z M350.164,114.256
	c-1.258-0.257-2.229-0.628-3.059-1.257c-4-3.115-3.144-3.115-5.315-5.859c-2.058-2.657-1.829-10.288-1.485-13.46
	c0.429-3.915,1.657-5.888,3.887-8.888c1.886-2.544,5.086-4.459,8.516-4.23c0.771,0.058,3.372,0.744,3.887,1.144
	c0.485,0.372,0.886,0.8,1.457,1.229c1.086,0.857,3.83,5.086,4.087,6.087c0.286,1.028,0.058,0.8,0.571,1.8
	c0.743,1.344,0.886,2.602,0.343,4.145c-2.028-2.943-3.571-4.858-7.458-4.858c-3.772,0-4.544,1.144-6.431,3.087
	c-2.886,2.943-3.086,7.115-2.972,11.059c0.057,1.544,1.571,6.031,2.144,7.031C349.106,112.685,350.049,112.199,350.164,114.256
	L350.164,114.256z M337.674,99.138c0.229,1.458,0.429,4.344,0.829,5.744l1.801,4.259c1,2.114,3.972,5.772,5.943,6.602
	c1.544,0.657,1.943,1,3.059,1.086c4.943,0.343,4.486,0.028,7.516-0.972l3.801-2.515c2-2.43,1.029-1.229,2.515-3.544
	c3.058-4.887,3.658-11.975,2.372-17.604c-0.543-2.372,0.429-0.171-0.828-3.315c-2.087-5.287-0.258-1.543-2.887-5.344
	c-1.543-2.172-1.029-1.658-2.2-2.229c-0.943-0.486-1.344-1.258-2.286-1.772c-0.2-0.114-2.772-1.086-3.001-1.144
	c-1.429-0.342-4.43-0.371-5.772,0.372c-2.83,1.543-0.314-0.829-4.001,2.286c-2.744,2.344-2.544,2.943-3.658,4.602
	c-1.2,1.742-2.2,3.715-2.601,5.858C338.018,92.994,337.417,97.681,337.674,99.138L337.674,99.138z"/>
<path fill-rule="evenodd" clip-rule="evenodd" fill="#FFFFFF" d="M381.656,95.509c0-2.201,0.257-2.258,0.629-4.029
	c0.4-2.087,0.828-2.4,2.657-4.602l0.887-1.029c0.028-0.028,0.085-0.086,0.114-0.143c2.486-2.629,6.801-2.515,8.487-1.2l2.857,2.515
	c0.801,1.029,0.2,1.029,1.972,2.086c0.114-1.371,0.144-1.4-0.199-2.457c-0.286-0.914-0.172-1.457-0.4-2.344
	c-0.314-1.2-0.486-0.457-0.801-1.857c-0.343-1.572,0.086-0.743-0.714-1.857c-1-1.344-1.114-2.486-1.801-3.258l-0.257-0.258
	c-0.028-0.057-0.086-0.114-0.114-0.172l-1.144-1.199c-0.6-0.457-2.571-2.029-3.229-2.201c-0.344-0.057-2.087-0.086-2.572-0.114
	c-2.058-0.028-3.058,0.028-4.516,0.715c-1.686,0.829-2.915,1.028-4.087,3.058l-2.229,3.4l-1.486,4.631
	c-0.143,0.828-0.229,1.656-0.314,2.371c-0.229,2.059-0.399,1.943-0.457,2.458c-0.028,0.286,1.172,8.116,1.687,8.974
	c0.399,0.743,0.485,0.143,1.057,1.543c0.972,2.372,2.229,3.43,3.772,4.944c0.943,0.886,3.144,2.544,4.744,1.886
	c-0.172-0.571-0.457-0.543-0.972-1.057l-2.4-3.715c-0.258-0.658-0.2-0.973-0.515-1.629
	C381.341,99.052,381.656,98.595,381.656,95.509L381.656,95.509z"/>
<path fill-rule="evenodd" clip-rule="evenodd" fill="#FFFFFF" d="M350.164,114.256c-0.114-2.058-1.058-1.571-1.829-2.972
	c-0.572-1-2.087-5.487-2.144-7.031c-0.114-3.943,0.086-8.115,2.972-11.059c1.887-1.943,2.658-3.087,6.431-3.087
	c3.887,0,5.43,1.915,7.458,4.858c0.543-1.543,0.4-2.801-0.343-4.145c-0.514-1-0.285-0.771-0.571-1.8
	c-0.257-1.001-3.001-5.229-4.087-6.087c-0.571-0.43-0.972-0.857-1.457-1.229c-0.515-0.399-3.115-1.086-3.887-1.144
	c-3.43-0.229-6.63,1.687-8.516,4.23c-2.229,3-3.458,4.973-3.887,8.888c-0.344,3.172-0.572,10.803,1.485,13.46
	c2.172,2.744,1.315,2.744,5.315,5.859C347.934,113.628,348.906,114,350.164,114.256L350.164,114.256z"/>
<path fill-rule="evenodd" clip-rule="evenodd" fill="#020202" d="M354.564,92.48c-2.572,0.6-4.544,3.058-5.287,5.602
	c-0.657,2.343-1.2,2.143-0.771,5.572c0.172,1.543,0.258,2.258,0.687,3.658l1.028,2.115c1.2,2.086,3.172,3.915,6.516,3.344
	c2.115-0.344,2.687-1.658,3.801-2.688c1.715-1.514,0.4-0.342,1.086-1.943c0.457-1.086,0.4,0.144,0.771-2.571
	c0.486-3.63,0.2-7.802-2.114-10.632l-2.2-2.114C357.193,92.28,355.678,92.222,354.564,92.48L354.564,92.48z"/>
<path fill-rule="evenodd" clip-rule="evenodd" fill="#020202" d="M383.771,97.938c0.257,1.372,1.343,4.43,2.229,5.459l0.343,0.313
	c0.058,0.058,0.114,0.086,0.144,0.115c0.057,0.086,0.257,0.285,0.371,0.371l0.257,0.229c1.658,1.572,2.229,2.4,5.43,1.4
	c2.172-0.686,1.229-0.457,2.572-1.771c1.2-1.201,2.687-4.087,2.715-5.859c0.086-3.715,0-7.43-2.515-10.23
	c-0.114-0.143-2.258-1.601-2.543-1.743c-2.516-1.258-4.373,0.485-6.03,1.972c-2.572,2.372-1.801,3.059-2.286,4.229
	c-0.229,0.571-0.543,0.687-0.657,1.429C383.713,94.394,383.685,97.395,383.771,97.938L383.771,97.938z"/>
<path fill-rule="evenodd" clip-rule="evenodd" fill="#DF3426" d="M291.322,18.319c0.657,0.829,3.658,3.972,4.63,4.601
	c0.314,2.458-0.2,4.515-0.258,6.916c0.715,0,0.886,0.085,1.544-0.171l1.942-0.943c1.4-0.543,4.145-2.458,5.373-1.943
	c0.657,0.286,0.286,1.058,1.687,1.515c0.085,0.029,0.428,0.114,0.571,0.171c1.143,0.343,0.857,0.429,2,0.229
	c0.114-4.458-1.2-4.487,0.286-6.288c0.771-0.915,3.286-3.172,3.715-4.086l-0.314-0.229c-0.028-0.028-0.229-0.143-0.285-0.2
	c-3.658-2.344-4.802,1.458-8.088-4.716c-0.343-0.686-0.343-0.829-0.715-1.457c-0.343-0.515-0.6-1.029-0.828-1.572
	c-1.687,0.572-1.258,1.115-2.115,2.658c-0.399,0.771-1.314,2.572-1.743,3.086C296.751,18.205,292.979,15.947,291.322,18.319
	L291.322,18.319z"/>
<path fill-rule="evenodd" clip-rule="evenodd" fill="#DF3426" d="M370.339,11.031c-1.572,0.085-2.087,0.571-3.43,0.829
	c-0.914,0.171-2.657,0.286-3.572,0.429c0,1.257,0,0.771,1.172,1.972l3.115,3.115c0.457,1-0.715,5.659,0.028,6.345
	c0.657,0.686,1.172-0.658,2.286-1.029l3.572-0.886c2.058-0.114,2,0.515,3.314,0.915c0.572,0.2,1.344,0.229,1.858,0.343
	c1.2,0.229,0.742,0.314,1.543,0.543c0-2.286-0.629-3.858-0.571-6.401c0.886-0.572,1.571-1.543,2.429-2.401
	c0.485-0.457,2.4-1.915,1.657-2.372c-0.828-0.772-4.915-0.286-6.572-1.601c-0.857-0.657-0.344-0.314-0.743-1.343
	c-0.372-0.915-0.343-0.257-0.771-1.372c-0.486-1.2,0.114-0.4-0.687-1.172c-0.571-0.571-0.543-0.657-0.972-1.115
	c-1.429,0.829-1,0.8-1.657,1.658c-0.714,0.972-0.229-0.114-0.943,1.372L370.339,11.031z"/>
</svg>
