<?xml version="1.0" encoding="utf-8"?>
<!-- Generator: Adobe Illustrator 15.0.0, SVG Export Plug-In  -->
<!DOCTYPE svg PUBLIC "-//W3C//DTD SVG 1.1//EN" "http://www.w3.org/Graphics/SVG/1.1/DTD/svg11.dtd" [
	<!ENTITY ns_flows "http://ns.adobe.com/Flows/1.0/">
]>
<svg version="1.1"
	 xmlns="http://www.w3.org/2000/svg" xmlns:xlink="http://www.w3.org/1999/xlink" xmlns:a="http://ns.adobe.com/AdobeSVGViewerExtensions/3.0/"
	 x="0px" y="0px" width="430px" height="388px" viewBox="0 -4.034 430 388" enable-background="new 0 -4.034 430 388"
	 xml:space="preserve">
<defs>
</defs>
<path fill-rule="evenodd" clip-rule="evenodd" fill="#CE9360" d="M220.334,272.381c1.629-2.172-1.887-1.229,3.801-1.829l31.32-0.028
	c8.402-0.257,27.378-1.229,34.665,0.457l0.715,65.931l-1.572,3.201l-68.529,0.686C219.676,334.997,219.391,276.954,220.334,272.381
	L220.334,272.381z M78.817,229.399c-2.343-5.973-1.772-59.101-1.058-69.274l69.729-0.057c0.458,10.831,1.858,62.93,0.086,69.646
	L78.817,229.399z M219.419,163.011l70.158-0.886l0.515,69.703l-70.044,0.058L219.419,163.011z M43.638,184.245l0.257,156.438
	c2.886,8.831-1.201,21.119,1.257,30.722l22.434,1.801l7.287-0.143l-0.543-125.231l75.959,0.601l0.086,64.272
	c0.057,8.517-0.772,58.644,1.372,62.587l85.562,3.115c28.492,0.915,57.241,1.144,85.676,2.43
	c-0.057-12.918,0.258-228.485-1.8-235.687l-213.133-1.572l-64.786-0.714L43.638,184.245z"/>
<path fill-rule="evenodd" clip-rule="evenodd" fill="#FFD9A9" d="M166.122,59.214l31.178-0.085l0.057,46.211l-31.035,0.172
	L166.122,59.214z M6.373,140.034l353.591,2.287c-3.915-4.716-65.729-49.212-77.103-57.643L181.84,9.917
	c-5.487,1.515-17.29,11.917-22.262,15.318c-18.976,13.003-46.724,35.151-66.157,48.783c-21.405,15.032-44.752,34.037-65.957,49.041
	C24.52,125.145,7.773,136.434,6.373,140.034L6.373,140.034z"/>
<path fill-rule="evenodd" clip-rule="evenodd" fill="#CE9360" d="M348.534,237.144c-1.887,1.001-0.915,0.687-4.43,0.743
	l-0.229-49.955l0.285-23.949l35.38-4.601c1.8-0.229,4.772-0.743,6.229-0.829c1.172-0.057,1.486-0.114,2.629,0.029
	c2.087,0.229,1.372,0.085,2.516,0.743l0.771,65.673L348.534,237.144z M403.174,231.257c-1.372-0.314-1.172-40.639-1.258-45.583
	c-0.171-10.174-1.771-39.781-0.028-47.669l-3.572,0.286c-10.002,1.486-24.12,6.573-33.036,6.888l-40.923-0.257l1.257,233.829
	c3.658,0.114,27.063-15.518,30.464-17.661c0.515-7.945-2.657-3.344-2.972-10.117c-0.229-5.344,2.086-2.915,3.201-11.031
	c1.485-10.745,4.801-8.459,10.173-17.004c5.173-8.202,9.803-6.23,15.689-11.546c2.314-2.114,4.772-4.029,8.517-4.572
	c6.801-1,2.543,0.457,12.088-2.001C402.66,292.986,401.802,238.573,403.174,231.257L403.174,231.257z"/>
<path fill-rule="evenodd" clip-rule="evenodd" fill="#FBCA0D" d="M87.076,316.221c-2.201-0.886-2.915-0.571-3.915-3.715
	c-0.886-2.801-2.601-13.489,4.944-14.09L87.076,316.221z M77.56,372.605c4.715,1.887,62.528,3.173,70.787,2.858l-0.915-124.859
	l-70.587-0.686L77.56,372.605z"/>
<path fill-rule="evenodd" clip-rule="evenodd" fill="#D6B46B" d="M425.522,129.203c-2.887-4.144-14.518-11.46-19.004-15.004
	c-6.545-5.144-12.975-10.002-19.434-14.803l-39.951-29.779l-0.972,11.117c-3.544,2.172-11.346,2.201-16.289,2.915
	c-8.631,1.229-9.345-0.743-14.518-4.258l-22.462-15.546c-0.114-7.059,1.972-34.151-2.516-38.095c-1.514-1.314-3.4-2.201-5.973-4.115
	c-7.087-5.23-12.431-11.146-18.804-11.46c-20.576-1-57.355-0.572-79.618-0.743c5.087,4.772,101.136,74.79,110.424,81.82
	l41.78,30.836c31.864,22.12,18.547,22.834,48.411,16.176C392.429,136.948,422.835,130.918,425.522,129.203L425.522,129.203z"/>
<path fill-rule="evenodd" clip-rule="evenodd" fill="#272626" d="M76.845,249.919l70.587,0.686l0.915,124.859
	c-8.259,0.314-66.071-0.972-70.787-2.858L76.845,249.919z M370.367,367.319c-5.372-3.716,0.143-2.229-6.772-3.688
	c-4.772-1.028-4.059,0.086-5.001-4.629c-1.887-9.288-1.715-1.629-2.973-7.288c-0.657-2.915,1.086-4.315,1.915-6.516
	c2.486-6.602-1.258-8.603,5.887-14.232c8.316-6.544,0.801-7.888,15.089-14.203c4.63-2.029,2.029-1.429,5.688-4.287
	c6.287-4.887,8.087-2.144,15.003-4.058c13.746-3.772,6.087,0.229,14.574,2.028c4.944,1.058,4.059,0.458,5.002,5.23
	c1.028,5.258,1.057,2.2,3.2,6.087c-2.172,6.944-3.829,16.947-5.43,18.977c-2.486,3.2-3.887,2.144-6.344,5.83
	c-7.402,11.002-1.43,5.001-12.832,11.346c-2.515,1.399-3.887,3.629-6.744,5.286c-4.772,2.772-5.173,1.201-10.088,1.801
	C376.054,365.547,376.54,367.348,370.367,367.319L370.367,367.319z M108.052,143.578l213.133,1.572
	c2.058,7.202,1.743,222.769,1.8,235.687c-28.435-1.286-57.184-1.515-85.676-2.43l-85.562-3.115
	c-2.144-3.943-1.314-54.07-1.372-62.587l-0.086-64.272l-75.959-0.601l0.543,125.231l-7.287,0.143l-23.348-0.657l-0.343-31.865
	l-0.257-156.438c-1.029-2.515-0.915-2.486-0.972-5.601c-0.029-1.543,0.086-3.487,0.057-5.059
	c-0.143-8.031-1.886-25.149,0.343-31.008C46.439,142.549,106.48,142.207,108.052,143.578L108.052,143.578z M6.373,140.034
	c1.4-3.601,18.146-14.889,21.09-16.976C48.668,108.055,72.016,89.05,93.42,74.018c19.433-13.632,47.182-35.78,66.157-48.783
	c4.973-3.401,16.775-13.804,22.262-15.318l101.022,74.761c11.374,8.431,73.188,52.927,77.103,57.643L6.373,140.034z M322.642,80.334
	c-5.887-2.115-11.717-7.459-16.661-10.717c-10.888-7.173-10.916-5.23-10.716-14.975c0.371-17.033-0.887-35.095-0.029-51.841
	l27.035-0.2L322.642,80.334z M425.522,129.203c-2.687,1.715-33.093,7.745-38.923,9.06c-29.864,6.659-16.547,5.944-48.411-16.176
	l-41.78-30.836c-9.288-7.03-105.337-77.048-110.424-81.82c22.262,0.171,59.042-0.257,79.618,0.743
	c6.373,0.314,11.717,6.23,18.804,11.46c2.572,1.915,4.459,2.801,5.973,4.115c4.487,3.944,2.401,31.036,2.516,38.095l22.462,15.546
	c5.173,3.516,5.887,5.487,14.518,4.258c4.943-0.714,12.745-0.743,16.289-2.915l0.972-11.117l39.951,29.779
	c6.459,4.801,12.889,9.659,19.434,14.803C411.004,117.743,422.635,125.059,425.522,129.203L425.522,129.203z M404.889,195.705
	c-2.858-3.2-0.601-9.602-0.572-14.061l-1.057-42.382c-0.029,10.146,0.485,89.765-0.086,91.994c-1.372,7.316-0.515,61.729-0.4,73.561
	c-9.545,2.458-5.287,1.001-12.088,2.001c-3.744,0.543-6.202,2.458-8.517,4.572c-5.887,5.315-10.517,3.344-15.689,11.546
	c-5.372,8.545-8.688,6.259-10.173,17.004c-1.115,8.116-3.43,5.688-3.201,11.031c0.314,6.773,3.486,2.172,2.972,10.117
	c-3.4,2.144-26.806,17.775-30.464,17.661l-1.257-233.829l40.923,0.257c8.916-0.314,23.034-5.401,33.036-6.888
	c2.801-1.972,3.515-1.314,6.858-1.857l24.977-5.401c-16.66-14.204-22.861-19.605-40.951-32.723l-20.576-15.718
	c-4.172-3.201-16.432-13.775-20.262-15.232c-2.943-2.572-1.686-19.576-2.687-29.15l-0.686,31.522
	c0.028,3.201,0.743,6.688-0.629,9.545L325.3,81.591l-0.372-78.562c5.173-0.229,15.432-1.143,18.976,1.343
	c3.658,6.516,0.2,24.606,1.458,33.494c1.028-2.086,1.285-2.143,1.429-4.373c0.285-5.229-0.572-30.007-1.4-32.351L292.95,0
	l-0.229,23.977l-8.03-5.687C266.887,5.115,273.088,7.945,254.427,7.516c-18.49-0.458-36.894-0.171-55.441-0.743
	c-12.66-0.4-15.746-2.201-24.52,4.172L7.173,134.976c-7.487,5.516-5.515,2.201-7.173,6.344c4.772,1.715,5.144,1.2,10.459,1.229
	c7.059,0,24.834-0.486,29.435,0.486c0.657,58.043,1.629,116.686,1.4,174.7c-0.057,11.146-1.143,48.583,1.057,56.871l58.842,2.144
	c19.061,0.571,38.322,1.4,57.47,1.886l146.003,4.201c14.689,0.486,17.861,2.2,26.006-2.972c6.087-3.858,12.717-7.688,19.033-11.203
	c4.086-2.286,5.344-4.602,9.487-3.516c10.002,2.601,5.887,2.973,10.316,4.23c2.515,0.714,19.262-1.286,24.577-5.773
	c7.259-6.087,2.771-2.258,9.431-5.687c3.772-1.943,5.372-3.688,7.573-7.573c3.314-5.944,4.001-4.002,7.059-8.031
	c3.743-4.887,2.2-5.801,3.687-11.174c1.058-3.772,4.43-6.459,1.972-11.231c-1.687-3.315-1.4-0.601-2.515-4.458
	c-0.601-2.115-0.515-3.658-1.4-5.916c-6.544-2.058-8.517-2.314-14.918-5.916L404.889,195.705z"/>
<path fill-rule="evenodd" clip-rule="evenodd" fill="#FDEC89" d="M222.677,303.989l0.114,32.836
	c2.058,1.486,1.743,1.458,7.401,1.486l57.784-0.429l-0.399-34.266c-6.573-2.771-22.405-1.457-29.436-20.833l-2.801-5.545
	c-1.829,8.717-5.772,14.489-10.688,18.634C236.624,302.589,233.623,301.359,222.677,303.989L222.677,303.989z"/>
<path fill-rule="evenodd" clip-rule="evenodd" fill="#FDEC89" d="M80.475,192.39l0.257,34.809l64.929,0.429l-0.343-34.779
	c-20.947-3.03-24.52-9.917-32.007-25.435C108.538,175.1,106.337,192.361,80.475,192.39L80.475,192.39z"/>
<path fill-rule="evenodd" clip-rule="evenodd" fill="#FDEC89" d="M222.735,229.371l64.186-0.172l0.657-34.552
	c-21.69-1.886-22.091-9.202-32.122-25.577c-4.086,5.115-4.372,19.347-22.604,24.377c-12.203,3.344-10.688-2.429-10.46,12.375
	C222.506,213.481,222.02,221.883,222.735,229.371L222.735,229.371z"/>
<path fill-rule="evenodd" clip-rule="evenodd" fill="#BAD532" d="M370.367,367.319c6.173,0.028,5.688-1.772,10.174-2.315
	c4.915-0.6,5.315,0.972,10.088-1.801c2.857-1.657,4.229-3.887,6.744-5.286c11.402-6.345,5.43-0.344,12.832-11.346
	c2.457-3.687,3.857-2.63,6.344-5.83c1.601-2.029,3.258-12.032,5.43-18.977c-2.144-3.887-2.172-0.829-3.2-6.087
	c-0.943-4.772-0.058-4.173-5.002-5.23c-8.487-1.8-0.828-5.801-14.574-2.028c-6.916,1.914-8.716-0.829-15.003,4.058
	c-3.658,2.858-1.058,2.258-5.688,4.287c-14.288,6.315-6.772,7.659-15.089,14.203c-7.145,5.63-3.4,7.631-5.887,14.232
	c-0.829,2.2-2.572,3.601-1.915,6.516c1.258,5.659,1.086-2,2.973,7.288c0.942,4.715,0.229,3.601,5.001,4.629
	C370.509,365.09,364.995,363.604,370.367,367.319L370.367,367.319z"/>
<path fill-rule="evenodd" clip-rule="evenodd" fill="#A15944" d="M322.642,80.334l-0.371-77.733l-27.035,0.2
	c-0.857,16.747,0.4,34.809,0.029,51.841c-0.2,9.745-0.172,7.802,10.716,14.975C310.925,72.875,316.755,78.219,322.642,80.334
	L322.642,80.334z"/>
<path fill-rule="evenodd" clip-rule="evenodd" fill="#A15944" d="M344.361,79.276l-0.457-74.904
	c-3.544-2.486-13.803-1.572-18.976-1.343l0.372,78.562L344.361,79.276z"/>
<path fill-rule="evenodd" clip-rule="evenodd" fill="#272626" d="M80.475,192.39c25.863-0.028,28.063-17.29,32.836-24.977
	c7.487,15.518,11.06,22.405,32.007,25.435l0.343,34.779l-64.929-0.429L80.475,192.39z M80.018,162.583l30.807-0.058
	c-1.114,15.061-13.517,28.864-30.492,27.064L80.018,162.583z M144.746,163.44l0.543,26.064c-15.832,1.657-27.92-12.317-29.492-26.75
	l22.748-0.114c1.172,0,2.744,0,3.887,0.171C144.717,163.097,143.975,163.097,144.746,163.44L144.746,163.44z M78.817,229.399
	l68.758,0.314c1.772-6.716,0.372-58.815-0.086-69.646l-69.729,0.057C77.045,170.299,76.474,223.427,78.817,229.399L78.817,229.399z"
	/>
<path fill-rule="evenodd" clip-rule="evenodd" fill="#272626" d="M222.735,229.371c-0.715-7.488-0.229-15.89-0.344-23.549
	c-0.229-14.804-1.743-9.031,10.46-12.375c18.232-5.03,18.519-19.262,22.604-24.377c10.031,16.375,10.432,23.691,32.122,25.577
	l-0.657,34.552L222.735,229.371z M257.799,164.869l29.35-0.343l0.314,27.036C272.145,192.876,258.314,179.244,257.799,164.869
	L257.799,164.869z M222.078,192.133c0.143-6.602-1.086-21.834,0.485-27.121l30.264-0.057
	C252.083,180.044,238.681,193.048,222.078,192.133L222.078,192.133z M220.048,231.886l70.044-0.058l-0.515-69.703l-70.158,0.886
	L220.048,231.886z"/>
<path fill-rule="evenodd" clip-rule="evenodd" fill="#272626" d="M222.677,303.989c10.945-2.63,13.946-1.4,21.977-8.116
	c4.915-4.145,8.858-9.917,10.688-18.634l2.801,5.545c7.03,19.376,22.862,18.062,29.436,20.833l0.399,34.266l-57.784,0.429
	c-5.658-0.028-5.344,0-7.401-1.486L222.677,303.989z M222.535,273.896l30.863-0.714c-0.657,12.945-14.488,30.636-30.807,27.035
	L222.535,273.896z M289.263,340.112c0.857-3.687,0.515-27.664,0.429-33.466c-0.143-9.174-1.686-26.063,0-34.122
	c-1.543,4.344-1.457,3.086-1.457,7.916c0,2.372,0.057,4.744,0.086,7.059c0.028,2.801,1.028,11.632-1.572,12.546
	c-13.031,2.258-29.178-13.574-28.178-26.149c3.744-2,23.205-1.286,29.007-1.057c-4.602-2.258-2.829-1.915-7.916-1.887
	c-10.46,0.058-56.327,0.571-59.327,1.429c-0.943,4.573-0.658,62.616,0.399,68.417L289.263,340.112z"/>
<path fill-rule="evenodd" clip-rule="evenodd" fill="#FFFFFF" d="M349.991,232.285l0.286-42.582l17.489-2.601l-0.2,40.153
	C363.937,229.714,355.25,231.828,349.991,232.285L349.991,232.285z M384.456,223.97l-12.945,2.314l-0.172-40.953l14.432-1.915
	C386.341,188.075,387.685,220.083,384.456,223.97L384.456,223.97z M349.905,186.96c-3.114-25.149,2.516-20.405,8.688-21.262
	c7.115-0.972,20.804-3.429,26.892-3.029l0.343,17.947L349.905,186.96z M347.905,165.898c-3.544,6.373-1.058,25.692-1.029,33.894
	c0.058,11.488,0.544,23.206,0.515,34.837l3.201-0.543c2.4-0.457,30.749-7.888,33.864-10.116c8.487-0.2,4.687-9.66,4.744-29.236
	c0.028-6.173,1.058-29.607-0.801-32.979c-0.886-0.771-3.114-0.771-4.229-0.657L347.905,165.898z"/>
<path fill-rule="evenodd" clip-rule="evenodd" fill="#BBDEB5" d="M80.332,189.589c16.975,1.8,29.378-12.003,30.492-27.064
	l-30.807,0.058L80.332,189.589z"/>
<path fill-rule="evenodd" clip-rule="evenodd" fill="#BBDEB5" d="M222.078,192.133c16.604,0.915,30.006-12.089,30.749-27.178
	l-30.264,0.057C220.992,170.299,222.22,185.531,222.078,192.133L222.078,192.133z"/>
<path fill-rule="evenodd" clip-rule="evenodd" fill="#BBDEB5" d="M222.591,300.217c16.318,3.601,30.149-14.09,30.807-27.035
	l-30.863,0.714L222.591,300.217z"/>
<path fill-rule="evenodd" clip-rule="evenodd" fill="#BBDEB5" d="M287.463,191.562l-0.314-27.036l-29.35,0.343
	C258.314,179.244,272.145,192.876,287.463,191.562L287.463,191.562z"/>
<path fill-rule="evenodd" clip-rule="evenodd" fill="#BBDEB5" d="M145.289,189.504l-0.543-26.064
	c-0.771-0.343-0.029-0.343-2.315-0.628c-1.143-0.171-2.715-0.171-3.887-0.171l-22.748,0.114
	C117.369,177.187,129.457,191.161,145.289,189.504L145.289,189.504z"/>
<path fill-rule="evenodd" clip-rule="evenodd" fill="#BBDEB5" d="M286.749,300.045l0.485-26.035l-28.663-0.114
	C257.571,286.471,273.717,302.303,286.749,300.045L286.749,300.045z"/>
<polygon fill-rule="evenodd" clip-rule="evenodd" fill="#FFFFFF" points="352.363,191.418 352.649,229.199 365.823,226.027 
	365.194,188.932 "/>
<polygon fill-rule="evenodd" clip-rule="evenodd" fill="#FFFFFF" points="383.284,179.53 383.427,165.212 352.334,169.099 
	352.505,184.703 "/>
<polygon fill-rule="evenodd" clip-rule="evenodd" fill="#FFFFFF" points="189.299,98.053 189.242,66.902 174.81,66.502 
	175.01,98.31 "/>
<path fill-rule="evenodd" clip-rule="evenodd" fill="#272626" d="M343.875,187.932c3.515,3.001-1.114,7.345,1.886,15.661
	l-0.714-36.294l2.857-1.4l36.265-4.801c1.115-0.114,3.344-0.114,4.229,0.657c1.858,3.373,0.829,26.807,0.801,32.979
	c-0.058,19.576,3.743,29.036-4.744,29.236c-3.115,2.229-31.464,9.659-33.864,10.116l-3.401,1.429
	c-1.314-3.743-1.114-10.917-1.2-15.575c-0.057-2.687,0.144-5.372,0.258-8.059c0.171-4.63,0.143-4.115-0.458-6.002l-0.886-1.686
	l0.657,32.808l2.973,0.143l43.152-12.146l-0.771-65.673c-1.144-0.657-0.429-0.514-2.516-0.743c-1.143-0.143-1.457-0.086-2.629-0.029
	c-1.457,0.086-4.43,0.6-6.229,0.829l-35.38,4.601L343.875,187.932z"/>
<path fill-rule="evenodd" clip-rule="evenodd" fill="#272626" d="M168.723,61.901l25.949-0.029l0.171,40.896l-26.006,0.171
	L168.723,61.901z M166.322,105.512l31.035-0.172L197.3,59.129l-31.178,0.085L166.322,105.512z"/>
<polygon fill-rule="evenodd" clip-rule="evenodd" fill="#FFFFFF" points="373.482,187.589 373.967,223.74 383.77,220.969 
	383.255,185.703 "/>
<path fill-rule="evenodd" clip-rule="evenodd" fill="#FFFFFF" d="M171.752,63.701c5.516-0.286,14.632-0.943,19.976,0.429
	l-0.057,37.152l-19.976-0.428L171.752,63.701z M168.837,102.939l26.006-0.171l-0.171-40.896l-25.949,0.029L168.837,102.939z"/>
<path fill-rule="evenodd" clip-rule="evenodd" fill="#272626" d="M383.255,185.703l0.515,35.266l-9.803,2.771l-0.485-36.151
	L383.255,185.703z M384.456,223.97c3.229-3.887,1.886-35.895,1.314-40.553l-14.432,1.915l0.172,40.953L384.456,223.97z"/>
<path fill-rule="evenodd" clip-rule="evenodd" fill="#272626" d="M365.194,188.932l0.629,37.095l-13.174,3.172l-0.286-37.781
	L365.194,188.932z M349.991,232.285c5.259-0.457,13.946-2.571,17.575-5.029l0.2-40.153l-17.489,2.601L349.991,232.285z"/>
<path fill-rule="evenodd" clip-rule="evenodd" fill="#272626" d="M189.242,66.902l0.057,31.15c-1.715,1.057,2.343,0.457-3.344,1.257
	l-11.888-0.686l-0.086-32.751l7.859-0.171C191.556,65.673,187.841,66.045,189.242,66.902L189.242,66.902z M171.695,100.854
	l19.976,0.428l0.057-37.152c-5.344-1.372-14.46-0.714-19.976-0.429L171.695,100.854z"/>
<path fill-rule="evenodd" clip-rule="evenodd" fill="#272626" d="M352.505,184.703l-0.171-15.604l31.093-3.887l-0.144,14.318
	L352.505,184.703z M349.905,186.96l35.923-6.344l-0.343-17.947c-6.088-0.4-19.776,2.058-26.892,3.029
	C352.42,166.555,346.791,161.811,349.905,186.96L349.905,186.96z"/>
<path fill-rule="evenodd" clip-rule="evenodd" fill="#7D7D7D" d="M258.571,273.896l28.663,0.114l-0.485,26.035
	c2.601-0.914,1.601-9.745,1.572-12.546c-0.029-2.314-0.086-4.687-0.086-7.059c0-4.83-0.086-3.572,1.457-7.916
	c-1.686,8.059-0.143,24.948,0,34.122c0.086,5.802,0.429,29.779-0.429,33.466l1.572-3.201l-0.715-65.931
	c-7.287-1.686-26.263-0.714-34.665-0.457l-31.32,0.028c-5.688,0.601-2.172-0.343-3.801,1.829c3-0.857,48.867-1.371,59.327-1.429
	c5.087-0.028,3.314-0.371,7.916,1.887C281.776,272.609,262.315,271.896,258.571,273.896L258.571,273.896z"/>
<path fill-rule="evenodd" clip-rule="evenodd" fill="#7D7D7D" d="M398.316,138.291l3.572-0.286
	c-1.743,7.888-0.143,37.495,0.028,47.669c0.086,4.944-0.114,45.268,1.258,45.583c0.571-2.229,0.057-81.849,0.086-91.994
	l1.057,42.382c-0.028,4.458-2.286,10.86,0.572,14.061c-0.2-8.802-1.144-54.242,0.285-59.271
	C401.831,136.977,401.117,136.319,398.316,138.291L398.316,138.291z"/>
<path fill-rule="evenodd" clip-rule="evenodd" fill="#7D7D7D" d="M343.904,4.373l0.457,74.904c1.372-2.857,0.657-6.344,0.629-9.545
	l0.686-31.522c1.001,9.574-0.257,26.578,2.687,29.15c-1.629-5.43-1-39.21-1.086-50.041l0.172-12.174
	c-0.743-6.487,0.114-2.286-2.058-4.001c0.828,2.343,1.686,27.121,1.4,32.351c-0.144,2.229-0.4,2.287-1.429,4.373
	C344.104,28.979,347.562,10.888,343.904,4.373L343.904,4.373z"/>
<path fill-rule="evenodd" clip-rule="evenodd" fill="#7D7D7D" d="M343.875,187.932l0.229,49.955c3.515-0.057,2.543,0.258,4.43-0.743
	l-2.973-0.143l-0.657-32.808l0.886,1.686c0.601,1.887,0.629,1.372,0.458,6.002c-0.114,2.687-0.314,5.372-0.258,8.059
	c0.086,4.658-0.114,11.832,1.2,15.575l3.401-1.429l-3.201,0.543c0.029-11.631-0.457-23.349-0.515-34.837
	c-0.028-8.202-2.515-27.521,1.029-33.894l-2.857,1.4l0.714,36.294C342.761,195.276,347.39,190.933,343.875,187.932L343.875,187.932z
	"/>
<path fill-rule="evenodd" clip-rule="evenodd" fill="#7D7D7D" d="M43.638,184.245l-0.372-41.381l64.786,0.714
	c-1.572-1.372-61.613-1.029-64.986-1c-2.229,5.859-0.486,22.977-0.343,31.008c0.029,1.572-0.086,3.515-0.057,5.059
	C42.724,181.759,42.609,181.73,43.638,184.245L43.638,184.245z"/>
<path fill-rule="evenodd" clip-rule="evenodd" fill="#272626" d="M87.076,312.849c-0.771-0.915-0.686,0.6-1.6-2.486
	c-0.829-2.772-0.8-6.573,1.6-8.917V312.849z M87.076,316.221l1.029-17.805c-7.544,0.601-5.83,11.289-4.944,14.09
	C84.161,315.649,84.875,315.335,87.076,316.221L87.076,316.221z"/>
<path fill-rule="evenodd" clip-rule="evenodd" fill="#9C9C9D" d="M189.299,98.053L175.01,98.31l-0.2-31.808l14.432,0.4
	c-1.4-0.857,2.314-1.229-7.402-1.201l-7.859,0.171l0.086,32.751l11.888,0.686C191.642,98.51,187.584,99.11,189.299,98.053
	L189.299,98.053z"/>
<path fill-rule="evenodd" clip-rule="evenodd" fill="#9C9C9D" d="M67.586,373.206l-22.434-1.801
	c-2.458-9.603,1.629-21.891-1.257-30.722l0.343,31.865L67.586,373.206z"/>
<path fill-rule="evenodd" clip-rule="evenodd" fill="#FFFFFF" d="M87.076,312.849v-11.403c-2.4,2.344-2.429,6.145-1.6,8.917
	C86.39,313.448,86.305,311.934,87.076,312.849L87.076,312.849z"/>
</svg>
