<?xml version="1.0" encoding="utf-8"?>
<!-- Generator: Adobe Illustrator 15.0.0, SVG Export Plug-In . SVG Version: 6.00 Build 0)  -->
<!DOCTYPE svg PUBLIC "-//W3C//DTD SVG 1.1//EN" "http://www.w3.org/Graphics/SVG/1.1/DTD/svg11.dtd">
<svg version="1.1" id="Layer_1" xmlns="http://www.w3.org/2000/svg" xmlns:xlink="http://www.w3.org/1999/xlink" x="0px" y="0px"
	 width="42px" height="126px" viewBox="0 0 42 126" enable-background="new 0 0 42 126" xml:space="preserve">
<g id="g32527" transform="matrix(0.432933,0,0,0.432933,-368.6912,1341.354)">
	<path id="path32529" fill="#FFFFFF" d="M897.087-2893.704c0.262-0.013,0.514,0,0.78,0c4.39,0,7.622,1.674,9.686,5.03
		c0.947,1.466,1.408,3.099,1.408,4.908c0,2.323-0.762,4.764-2.312,7.344c5.939,2.409,8.908,6.555,8.908,12.406
		c0,4.561-1.676,7.99-5.03,10.313c-0.69,0.512-1.484,0.927-2.346,1.187c7.746,3.957,12.799,8.982,15.124,15.095
		c1.464,3.785,2.188,8.351,2.188,13.688c-0.002,2.838-0.038,4.818-0.124,5.937h-55.127c-0.086-1.033-0.124-3.013-0.124-5.937
		c0-10.588,3.084-18.501,9.28-23.752c2.066-1.719,4.692-3.397,7.877-5.03c-3.271-1.033-5.445-3.542-6.564-7.502
		c-0.429-1.29-0.654-2.621-0.654-3.997c0-5.766,2.928-9.911,8.779-12.406c-1.376-2.495-2.062-4.936-2.062-7.344
		c0-3.961,1.94-6.889,5.811-8.779C893.993-2893.212,895.49-2893.609,897.087-2893.704z"/>
	<path id="path32531" fill="#FFFFFF" d="M897.272-2889.328c-2.233,0.095-3.857,1.168-4.841,3.217
		c-0.347,0.69-0.501,1.376-0.501,2.066c0,0.771,0.566,2.251,1.687,4.403c0.686,1.205,0.993,2.314,0.907,3.347
		c0,1.029-0.992,2.089-2.971,3.122c-3.961,2.323-5.937,5.409-5.937,9.284c0,3.357,1.676,6.018,5.03,7.999
		c1.633,1.119,2.436,2.066,2.436,2.842c0,1.637-1.674,3.428-5.03,5.409c-6.199,3.785-10.155,8.418-11.874,13.841
		c-0.947,3.014-1.408,6.627-1.408,10.845h46.061c0-9.036-2.436-15.808-7.342-20.283c-1.635-1.548-3.652-3.027-6.063-4.403
		c-3.356-1.98-5.03-3.771-5.03-5.409c0-0.862,0.841-1.809,2.562-2.842c2.669-1.466,4.268-3.176,4.782-5.156
		c0.171-0.776,0.248-1.723,0.253-2.842c0-3.961-2.021-7.047-6.063-9.284l-2.314-1.687c-0.429-0.428-0.654-0.92-0.654-1.435
		c0-1.466,0.528-2.914,1.561-4.376c0.69-0.947,1.033-2.084,1.033-3.375c0-2.238-1.218-3.844-3.627-4.877
		c-0.774-0.257-1.538-0.406-2.312-0.406C897.502-2889.328,897.385-2889.332,897.272-2889.328z"/>
	<path id="path32533" d="M920.849-2822.965c0-9.036-2.454-15.794-7.363-20.27c-1.633-1.548-3.654-3.014-6.068-4.39
		c-3.357-1.98-5.035-3.785-5.035-5.423c0-0.864,0.859-1.809,2.585-2.842c2.666-1.464,4.259-3.18,4.773-5.161
		c0.176-0.776,0.259-1.723,0.259-2.842c0-3.959-2.023-7.056-6.068-9.293l-2.321-1.678c-0.433-0.433-0.645-0.902-0.645-1.421
		c0-1.462,0.512-2.928,1.545-4.389c0.69-0.948,1.033-2.066,1.033-3.357c0-2.238-1.205-3.871-3.614-4.904
		c-0.776-0.262-1.552-0.388-2.323-0.388c-2.411,0-4.132,1.074-5.166,3.226c-0.343,0.69-0.517,1.376-0.517,2.066
		c0,0.776,0.559,2.238,1.678,4.39c0.688,1.205,0.99,2.323,0.904,3.356c0,1.033-0.99,2.066-2.968,3.099
		c-3.961,2.323-5.944,5.423-5.944,9.293c0,3.356,1.678,6.027,5.037,8.003c1.638,1.119,2.454,2.066,2.454,2.842
		c0,1.635-1.678,3.442-5.037,5.423c-6.194,3.785-10.155,8.391-11.876,13.814c-0.945,3.014-1.419,6.627-1.419,10.845H920.849
		 M870.24-2817.804c-0.086-1.033-0.131-3.009-0.131-5.937c0-10.588,3.099-18.506,9.298-23.752c2.062-1.723,4.69-3.402,7.872-5.035
		c-3.271-1.033-5.463-3.532-6.582-7.489c-0.433-1.29-0.645-2.625-0.645-4.001c0-5.77,2.923-9.898,8.779-12.397
		c-1.38-2.495-2.066-4.949-2.066-7.358c0-3.957,1.935-6.885,5.811-8.779c1.633-0.771,3.397-1.159,5.292-1.159
		c4.39,0,7.615,1.678,9.681,5.035c0.947,1.464,1.421,3.099,1.421,4.904c0,2.323-0.776,4.78-2.323,7.358
		c5.937,2.416,8.905,6.544,8.905,12.397c0,4.561-1.678,8.003-5.035,10.326c-0.686,0.514-1.462,0.902-2.323,1.164
		c7.746,3.956,12.781,8.991,15.104,15.104c1.466,3.785,2.197,8.346,2.197,13.683c0,2.842-0.045,4.818-0.131,5.937H870.24"/>
</g>
<g id="g32349" transform="matrix(0.432933,0,0,0.432933,65.19701,1362.969)">
	<path id="path32351" fill="#FFFFFF" d="M-104.034-3142.949h3.875l1.687,4.904h4.782v4.624l-5.314,3.095v3.126
		c4.475,2.842,6.758,5.662,6.844,8.5c0.171,1.723,0.282,3.624,0.282,5.689l0.124-0.125c5.423-4.561,11.093-6.042,17.03-4.409
		c1.552,0.433,3.032,1.078,4.408,1.94c4.82,2.923,7.259,7.295,7.345,13.062c0,3.442-1.713,7.516-5.157,12.253
		c-2.842,3.957-4.624,6.848-5.314,8.653c-1.462,3.875-2.303,8.86-2.561,14.969c-0.171,5.77-8.878,8.657-26.094,8.657
		c-17.125,0-25.804-2.887-26.062-8.657c-0.43-7.917-1.759-13.89-3.997-17.937c-0.947-1.633-2.282-3.614-4.002-5.937
		c-2.929-3.871-4.561-7.141-4.906-9.811c-0.087-0.687-0.124-1.412-0.124-2.188c0-5.424,2.283-9.681,6.844-12.782
		c1.119-0.686,2.261-1.253,3.469-1.686c4.561-1.633,9.086-1.373,13.56,0.781c1.635,0.776,3.272,1.804,4.906,3.095l0.124,0.126
		c0-1.809,0.079-3.749,0.25-5.815c0-0.6,0.305-1.403,0.907-2.436c1.378-2.238,3.011-4.02,4.906-5.313
		c0.343-0.171,0.686-0.365,1.031-0.624v-3.125l-5.281-3.095v-4.624h4.782L-104.034-3142.949z"/>
	<path id="path32353" fill="#FFFFFF" d="M-102.036-3122.449c-3.642,0.042-5.469,2.585-5.469,7.624c0,1.895,0.078,3.149,0.25,3.749
		c0.688,2.323,2.168,5.066,4.405,8.251c0.485,0.564,0.722,0.988,0.749,1.25l3.751-5.874c0.601-1.29,1.094-2.508,1.437-3.627
		c0.174-0.6,0.253-1.854,0.253-3.749c0-5.08-1.787-7.624-5.314-7.624C-101.999-3122.449-102.006-3122.449-102.036-3122.449z"/>
	<path id="path32355" fill="#FFFFFF" d="M-125.628-3113.386c-1.04,0.068-2.15,0.311-3.315,0.749
		c-3.441,0.862-5.762,3.146-6.968,6.844l-0.655,3.501v0.502c0,2.665,2.125,6.731,6.343,12.154c1.033,1.29,1.758,2.242,2.188,2.842
		h2.312c8.865,0,15.332-0.604,19.373-1.809c0.89-0.239,1.475-0.528,1.75-0.844c0.061-0.072,0.129-0.176,0.158-0.253
		c0.007-0.023,0.027-0.068,0.033-0.095c0.001-0.023-0.002-0.07,0-0.09c-0.69-7.489-3.581-13.46-8.657-17.848
		c-4.218-3.785-8.213-5.653-12-5.653C-125.256-3113.386-125.436-3113.401-125.628-3113.386z"/>
	<path id="path32357" fill="#FFFFFF" d="M-79.817-3113.386c-3.503,0.221-7.277,2.102-11.31,5.653
		c-5.08,4.39-7.938,10.359-8.626,17.848c0,0.002,0,0.027,0,0.029c0,0.007,0,0.027,0,0.032c0,0.004-0.002,0.022,0,0.027
		c0.005,0.018,0.025,0.05,0.032,0.063c0.289,0.56,1.888,1.214,4.75,1.908c3.698,0.688,9.979,1.029,18.844,1.029l5.811-7.746
		c1.809-2.759,2.689-5.188,2.689-7.25c0-3.875-1.295-6.844-3.875-8.91c-2.152-1.805-4.668-2.684-7.595-2.684
		C-79.33-3113.386-79.582-3113.404-79.817-3113.386z"/>
	<path id="path32359" fill="#FFFFFF" d="M-102.099-3084.354c-2.151,0.948-8.693,1.778-19.626,2.468
		c-1.633,0.086-2.966,0.162-3.998,0.248c0.862,3.271,1.429,6.885,1.69,10.845c5.937-1.895,13.243-2.842,21.934-2.842
		c8.865,0,16.205,0.948,21.969,2.842c0.257-4.304,0.794-7.917,1.657-10.845l-19.092-1.561
		C-99.202-3083.459-100.72-3083.84-102.099-3084.354z"/>
	<path id="path32361" fill="#FFFFFF" d="M-102.816-3068.479c-4.261,0.029-8.402,0.336-12.438,0.907
		c-2.486,0.402-4.017,1.006-4.561,1.775c-0.018,0.027-0.05,0.072-0.063,0.097c-0.036,0.061-0.072,0.151-0.095,0.219
		c-0.009,0.032-0.024,0.09-0.033,0.124c-0.005,0.036-0.027,0.09-0.032,0.124c0,0.036,0,0.09,0,0.126c0,0.05,0.018,0.108,0.032,0.153
		c0.457,1.191,5.54,1.951,15.221,2.283c1.031,0,1.913,0,2.684,0c8.092,0,13.683-0.496,16.782-1.529
		c0.567-0.187,0.943-0.424,1.094-0.659c0.001-0.002,0.028-0.027,0.032-0.029c0.002-0.007-0.002-0.029,0-0.034
		c0.007-0.011,0.025-0.045,0.032-0.063c0.002-0.005-0.001-0.022,0-0.027c0.002-0.009-0.001-0.027,0-0.031
		c0.002-0.018,0.029-0.05,0.029-0.063c0-0.036-0.027-0.09-0.029-0.126c-0.001-0.034,0.007-0.088,0-0.124
		c-0.007-0.031-0.019-0.09-0.032-0.124c-0.011-0.034-0.047-0.095-0.061-0.124c-0.015-0.025-0.02-0.072-0.033-0.095
		c-0.014-0.025-0.05-0.07-0.062-0.097c-1.157-1.773-7.048-2.682-17.626-2.682C-102.257-3068.479-102.532-3068.483-102.816-3068.479z
		"/>
	<path id="path32363" d="M-102.087-3058.012c-17.126,0-25.821-2.883-26.078-8.653c-0.429-7.917-1.764-13.9-4.002-17.942
		c-0.947-1.64-2.283-3.616-4.002-5.944c-2.928-3.871-4.561-7.139-4.906-9.808c-0.088-0.69-0.13-1.421-0.13-2.197
		c0-5.423,2.278-9.68,6.843-12.781c1.119-0.69,2.281-1.25,3.485-1.678c4.561-1.633,9.08-1.376,13.557,0.776
		c1.633,0.771,3.271,1.805,4.904,3.099l0.131,0.126c0-1.805,0.087-3.745,0.257-5.812c0-0.6,0.302-1.417,0.906-2.45
		c1.377-2.238,3.01-4.002,4.906-5.296c0.343-0.17,0.688-0.384,1.032-0.644v-3.096l-5.294-3.098v-4.648h4.775l1.678-4.907h3.875
		l1.678,4.907h4.778v4.648l-5.294,3.098v3.096c4.475,2.841,6.756,5.68,6.843,8.522c0.17,1.722,0.256,3.614,0.256,5.68l0.132-0.126
		c5.423-4.565,11.103-6.027,17.038-4.389c1.552,0.428,3.014,1.073,4.39,1.935c4.82,2.923,7.272,7.272,7.36,13.038
		c0,3.442-1.721,7.532-5.163,12.266c-2.841,3.957-4.605,6.839-5.293,8.648c-1.465,3.871-2.327,8.865-2.584,14.971
		C-76.181-3060.895-84.874-3058.012-102.087-3058.012 M-102.087-3101.521l3.744-5.937c0.602-1.29,1.076-2.5,1.419-3.618
		c0.174-0.6,0.259-1.85,0.259-3.74c0-5.08-1.764-7.62-5.294-7.62c-3.699,0-5.549,2.54-5.549,7.62c0,1.89,0.086,3.14,0.257,3.74
		c0.688,2.328,2.152,5.08,4.39,8.265C-102.347-3102.211-102.087-3101.778-102.087-3101.521 M-67.618-3101.778
		c0-3.875-1.29-6.844-3.871-8.91c-2.152-1.805-4.692-2.711-7.62-2.711c-3.699,0-7.701,1.896-12.005,5.68
		c-5.079,4.389-7.964,10.332-8.648,17.821c0,0.6,1.593,1.29,4.775,2.062c3.702,0.69,9.984,1.033,18.849,1.033l5.808-7.746
		C-68.52-3097.302-67.618-3099.712-67.618-3101.778 M-102.087-3084.352c-2.15,0.948-8.69,1.764-19.621,2.454
		c-1.635,0.088-2.968,0.174-4.003,0.257c0.859,3.273,1.419,6.884,1.678,10.845c5.937-1.895,13.254-2.842,21.946-2.842
		c8.865,0,16.18,0.947,21.948,2.842c0.259-4.304,0.82-7.917,1.678-10.845l-19.108-1.547
		C-99.202-3083.448-100.709-3083.831-102.087-3084.352 M-136.557-3101.778c0,2.666,2.107,6.714,6.325,12.137
		c1.033,1.29,1.764,2.238,2.197,2.838h2.322c8.865,0,15.318-0.6,19.363-1.804c1.294-0.347,1.939-0.776,1.939-1.29
		c-0.688-7.489-3.571-13.43-8.652-17.821c-4.217-3.785-8.22-5.68-12.005-5.68c-1.205,0-2.497,0.262-3.875,0.776
		c-3.441,0.862-5.766,3.14-6.969,6.844l-0.645,3.483V-3101.778 M-102.087-3062.659c8.091,0,13.685-0.519,16.786-1.552
		c0.774-0.257,1.158-0.559,1.158-0.902c0-2.238-5.937-3.356-17.814-3.356c-4.561,0-8.993,0.302-13.295,0.902
		c-3.185,0.519-4.779,1.335-4.779,2.454c0,1.29,5.079,2.107,15.235,2.454C-103.766-3062.659-102.861-3062.659-102.087-3062.659"/>
</g>
<g id="g32365" transform="matrix(0.432933,0,0,0.432933,0.838673,1359.201)">
	<path id="path32367" fill="#FFFFFF" d="M17.377-3031.879h11.624l2.217,2.186v3.345h3.722v-3.345l2.217-2.186h14.187l2.188,2.186
		v3.345h3.627v-3.345l2.31-2.186h11.626l3.749,3.591v11.752l-11.373,9.934v25.814l13.187,13.313v8.908l-2.468,2.468H14.282
		l-2.436-2.468v-8.908l13.155-13.313v-25.814l-11.344-9.934v-11.752L17.377-3031.879z"/>
	<path id="path32369" fill="#FFFFFF" d="M19.845-3026.725l-1.686,1.811v7.218l8.78,7.096h34.597l8.779-7.096v-7.218l-1.656-1.811
		h-7.25v3.593l-1.94,1.813h-8.373l-1.935-1.813v-3.343h-9.815v3.343l-1.939,1.813h-8.407l-1.938-1.813v-3.593H19.845z"/>
	<path id="path32371" fill="#FFFFFF" d="M29.531-3006.196v22.848h29.442v-22.848H29.531z"/>
	<path id="path32373" fill="#FFFFFF" d="M29.001-2979.098l-8.499,8.283H68l-8.531-8.283H29.001z"/>
	<path id="path32375" fill="#FFFFFF" d="M16.344-2966.32v5.03h55.784v-5.03H16.344z"/>
	<path id="path32377" d="M29.526-3006.205v22.85h29.438v-22.85H29.526 M14.291-2956.115l-2.452-2.452v-8.908l13.169-13.3v-25.821
		l-11.362-9.936v-11.75l3.744-3.616H29.01l2.195,2.197v3.354h3.743v-3.354l2.194-2.197h14.203l2.197,2.197v3.354h3.614v-3.354
		l2.323-2.197H71.1l3.742,3.616v11.75l-11.364,9.936v25.821l13.171,13.3v8.908l-2.454,2.452H14.291 M16.358-2966.313v5.039h55.773
		v-5.039H16.358 M29.01-2979.096l-8.521,8.267h47.509l-8.522-8.267H29.01 M39.338-3026.472v3.354l-1.939,1.809h-8.391l-1.938-1.809
		v-3.614h-7.227l-1.677,1.809v7.227l8.778,7.101h34.6l8.779-7.101v-7.227l-1.678-1.809h-7.232v3.614l-1.935,1.809h-8.391
		l-1.935-1.809v-3.354H39.338"/>
</g>
</svg>
