<?xml version="1.0" encoding="utf-8"?>
<!-- Generator: Adobe Illustrator 15.0.0, SVG Export Plug-In  -->
<!DOCTYPE svg PUBLIC "-//W3C//DTD SVG 1.1//EN" "http://www.w3.org/Graphics/SVG/1.1/DTD/svg11.dtd" [
	<!ENTITY ns_flows "http://ns.adobe.com/Flows/1.0/">
]>
<svg version="1.1"
	 xmlns="http://www.w3.org/2000/svg" xmlns:xlink="http://www.w3.org/1999/xlink" xmlns:a="http://ns.adobe.com/AdobeSVGViewerExtensions/3.0/"
	 x="0px" y="0px" width="242px" height="568px" viewBox="0 0 242 568" enable-background="new 0 0 242 568" xml:space="preserve">
<defs>
</defs>
<path fill-rule="evenodd" clip-rule="evenodd" fill="#B0AC99" d="M66.729,92.674c0.4,4.973,12.574,45.269,14.918,52.785
	l46.582,159.296c1.429-1.887,1.629-2.829,2.058-5.63l30.35-212.596L66.729,92.674z"/>
<path fill-rule="evenodd" clip-rule="evenodd" fill="#242424" d="M60.099,552.073c-14.46,0.115-3.629-16.489,5.344-13.432
	C65.7,543.7,62.471,549.358,60.099,552.073L60.099,552.073z M66.529,545.529c-0.458,6.145-4.487,23.12-12.688,20.177l-18.918-15.461
	l24.262-14.261c-3.058,3.715-12.26,8.545-6.887,15.775C57.813,559.189,64.729,551.673,66.529,545.529L66.529,545.529z
	 M161.092,537.155c-3.201,11.061-12.231,2.029-13.946-2.771c-2.028-5.744,2.658-4.544,6.202-3.087
	C157.806,533.154,158.977,533.468,161.092,537.155L161.092,537.155z M70.415,535.612c-6.43,2.43-9.63-2.857-6.744-5.658
	C66.043,527.667,71.815,529.525,70.415,535.612L70.415,535.612z M156.376,529.325c8.688,1.458,19.233,3.829,17.576,14.775
	l-16.29,16.489l-12.202-23.605c3.286,3.172,7.201,10.288,13.975,7.116c2.829-1.314,4.772-4.373,3.458-8.773
	C161.807,531.783,158.863,531.583,156.376,529.325L156.376,529.325z M143.717,531.382l-4.716,0.143l5.716-6.658
	c0.057,0.114,3.344,1.143-0.4,6.059C144.203,531.04,143.774,531.154,143.717,531.382L143.717,531.382z M138.116,524.038
	c-2.572,3.401-2.229,3.458-9.002,2.43c-4.286-0.657-8.059-2.058-6.459-7.116C125.341,510.92,137.172,522.409,138.116,524.038
	L138.116,524.038z M68.929,527.439c-1.229-2.772-1.2-7.316-0.229-10.688c1.486-5.03,4.144-4.43,8.802-3.229
	C79.246,519.237,74.416,529.696,68.929,527.439L68.929,527.439z M134.572,529.896l-28.577,0.372
	c-2.829-9.088,2.543-18.69,8.03-22.663l20.404,9.231c-5.087-2.001-13.146-6.316-14.26,3.258
	C119.083,529.467,128.971,527.782,134.572,529.896L134.572,529.896z M77.903,524.781c1.714-5.001,6.516-13.003-3.001-14.175
	l-9.516,15.061c-4.658-15.146-11.031-34.694,9.974-29.149C92.792,501.118,91.077,515.207,77.903,524.781L77.903,524.781z
	 M148.747,450.163c1.515,3.943,1.857,6.001-2.172,8.316C141.459,455.65,141.774,449.962,148.747,450.163L148.747,450.163z
	 M152.262,452.048c4.229-0.515,21.09-2.972,14.803,6.745c-2.086,3.2-5.63,1.857-9.145,0.371
	C153.034,457.079,152.347,456.878,152.262,452.048L152.262,452.048z M125.828,451.792c6.83-3.944,13.66-0.086,15.146,0.657
	C139.802,460.336,122.284,463.766,125.828,451.792L125.828,451.792z M159.606,447.847c29.521-4.973,23.091,3.315,16.204,27.464
	l-22.891-15.718c4.972,2.687,12.374,6.002,16.261,0.314C176.01,449.905,162.779,449.448,159.606,447.847L159.606,447.847z
	 M126.142,461.537l13.546-2.029l-23.548,13.461c-6.116-4.087-7.831-16.576-4.058-23.749l23.233-1.258
	C122.484,446.59,118.883,452.849,126.142,461.537L126.142,461.537z M128.513,386.918c-0.199,4.544-1.8,4.915-5.715,6.516
	c-3.058,1.258-6.43,2.572-8.631-0.4C107.995,384.775,123.684,383.661,128.513,386.918L128.513,386.918z M140.459,385.918
	l5.172-2.001c2.201-0.485,4.802-0.972,6.974-0.371l0.629,8.916c-3.487,0.286-4.716,0-8.088-1.144
	C140.488,389.748,140.66,390.205,140.459,385.918L140.459,385.918z M131.514,389.948l0.687-6.088
	c4.314-0.143,7.001,1.201,5.687,5.573c-0.4,1.286-0.143,1.114-0.972,1.657c-3.258,2.087,0.314,0.258-2-0.429L131.514,389.948z
	 M127.713,394.149c-3.601,5.372-19.576,24.806-27.006,9.402c-2.629-5.487-3.172-14.261-0.229-19.377l21.233-2.058
	c-4.715,2.172-14.661,1.43-10.088,11.346C114.796,400.35,122.484,395.377,127.713,394.149L127.713,394.149z M141.431,392.434
	c5.516,2.058,12.46,5.344,15.832-1l-10.202-10.403c4.144-3.058,15.432-4.887,19.09-2.629c6.772,4.201,8.944,36.151-10.803,24.949
	C151.205,401.007,143.375,395.406,141.431,392.434L141.431,392.434z M84.79,316.616l89.648-5.83
	c-0.257,2.114-16.518,30.293-19.29,35.38l-14.803,27.55c-1.743,3.629-2.63,7.516-6.802,7.201c-3.516-0.285-1.857-0.114-7.173-7.087
	c-2.458-3.201-4.059-5.373-6.059-8.06C116.597,360.741,85.876,320.616,84.79,316.616L84.79,316.616z M84.847,314.072l23.405-67.217
	c2.287,2.658,4.258,11.546,5.173,14.976l14.375,49.555L84.847,314.072z M131.057,311.071l10.459-69.56
	c5.401,5.944,6.116,12.146,8.603,16.775l25.405,49.783L131.057,311.071z M4.543,209.817l91.506-6.23
	c3.372,13.289,12.66,33.98,9.888,41.811L82.132,313.3c-3.858-2.915-18.861-25.121-24.434-32.094l-24.32-32.151
	C24.577,236.967,11.917,221.906,4.543,209.817L4.543,209.817z M3.829,206.788c1.543-4.201,12.26-23.377,15.003-28.235
	c4.887-8.545,43.81-78.905,44.981-82.078l1.629,2.572c0.114,0.2,0.229,0.486,0.343,0.714c0.029,0.086,0.972,2.744,1.058,3.029
	c0.686,2.229,1.086,3.916,1.714,6.23c5.144,19.433,25.691,82.534,25.92,91.822L3.829,206.788z M176.553,305.641l-23.405-47.269
	c-2.744-5.401-10.803-18.748-10.889-24.692l4.173-32.265c1.743-3.115,89.248-7.602,91.763-7.802
	c-1.943,5.944-42.181,78.991-48.811,90.937l-9.688,17.575c-0.372,0.601-0.772,1.286-1.286,1.858
	C176.896,305.727,178.696,304.241,176.553,305.641L176.553,305.641z M146.975,197.415c1.429-11.746,14.832-104.969,16.546-107.455
	l56.813,75.99c3.744,5.058,16.375,20.176,18.318,25.206L146.975,197.415z M160.635,86.53l-30.35,212.596
	c-0.429,2.801-0.629,3.743-2.058,5.63L81.646,145.459c-2.344-7.516-14.518-47.812-14.918-52.785L160.635,86.53z M151.547,73.012
	l6.602,10.46l-1.715,0.515c-0.286,0.085-0.571,0.171-0.886,0.229l-42.924,2.858c-14.403,0.829-30.092,2.572-44.61,2.772
	l6.602-11.774L151.547,73.012z M75.759,75.527c1.715-4.601,5.544-10.459,8.202-15.347c3.801-6.973,19.719-39.867,24.291-42.439
	c6.859,4.944,5.63,5.573,11.317,13.061c4.287,5.658,28.492,35.608,28.606,40.01L75.759,75.527z M106.737,14.541
	c-2.458-1.372-1.143-4.973-0.514-6.43l4.172,1.886c1.114,3.144-0.372,3.486-0.771,4.229
	C109.624,14.255,110.252,16.484,106.737,14.541L106.737,14.541z M100.965,10.111c0.2,0.057,0.628,0.6,0.771,0.343
	c0.143-0.229,0.486,0.286,0.714,0.429c-0.4,3.515-1.686,4.258-5.544,5.859c-2.543,1.057-4.801,1.571-6.687-1.058
	C85.99,9.826,95.335,8.597,100.965,10.111L100.965,10.111z M113.311,9.854c5.315-3.001,15.975-4.744,12.06,5.116
	c-2.801,0.886-4.145,0.686-7.659-0.4C113.71,13.312,113.653,13.512,113.311,9.854L113.311,9.854z M101.736,17.256
	c-3.172,3.543-16.003,19.891-22.176,9.259c-2.743-4.744-4.287-12.174-1.2-17.433c2.886-4.944,9.974-3.887,16.518-2.772l-6.716,10.46
	C91.334,22.057,97.021,18.57,101.736,17.256L101.736,17.256z M125.656,17.37c4.973-12.575,2.915-8.031-3.829-13.518
	c7.716-0.886,14.604-3.543,17.089,4.601c2.087,6.802,0.572,14.089-3.457,18.405c-22.291-7.316-12.231-6.116-20.576-10.46
	L125.656,17.37z M101.279,22.543c-2.058,4.916-21.69,40.781-25.206,46.954L0,208.474l16.118,21.548
	c1.515,2.172,2.2,3.029,3.887,5.173l4.229,4.973c13.317,18.233,26.263,36.352,40.352,54.328l63.442,86.25
	c-7.401-0.657-20.09-5.116-26.72-0.743c-10.574,6.944-4.744,42.725,14.689,28.721c6.315-4.544,10.803-9.088,16.461-14.317
	l10.459,52.87c-8.373-2.543-24.833-9.202-31.035-2.286l2.543,30.293c12.545,2.572,19.718-9.259,30.349-14.975l-1.229,60.986
	c-4.115-1.629-14.86-18.119-25.206-17.69c-5.373,0.229-10.116,5.658-12.146,9.316l-2.857,18.49
	c9.03,8.288,21.804,2.172,27.349,1.915l8.858,1.058c-0.543,5.63-6.516,12.917-9.631,15.375
	c-17.432,13.746-42.923-3.029-57.841-11.432c5.172-12.574,5.344-7.087,14.375-18.947c6.516-8.517,6.087-15.175-2.601-21.377
	c-4.772-3.429-21.462-9.059-24.491,0.372c-4.915,15.289,12.688,30.064-5.458,36.809c-10.974,4.059-29.063,10.231-16.432,24.378
	c3.629,4.058,15.661,13.003,23.977,6.401l8.573-25.635c7.087,2.314,50.611,36.38,69.587,1l3.2-4.516
	c2.486,13.946,12.146,38.781,28.979,17.434c5.258-6.659,7.401-16.776-0.144-21.978l-25.034-8.259
	c-0.714-4.973,1.915-23.435,2.029-31.236l-0.943-31.751c7.631-0.086,28.292,34.523,36.58,5.03
	c2.515-8.974,0.229-21.434-9.717-22.435l-28.549,3.458l-9.717-52.956l30.606,13.89c6.602-6.431,9.288-20.69,2.944-29.15
	l-29.979,1.286c2.172-6.401,47.182-86.593,52.183-95.967c8.631-16.032,17.49-31.922,26.12-47.468
	c4.401-7.945,8.517-15.661,12.688-23.634c2.029-3.83,4.572-7.945,6.516-11.603c2.201-4.115,6.002-8.116,3.372-12.489L162.207,83.958
	c-2.915-3.772-5.087-6.716-7.716-10.403l-38.694-52.841c1.543,2.029,10.717,8.145,15.689,8.859
	c13.688,1.972,16.461-31.722-2.601-29.464c-7.888,0.915-14.117,5.001-20.662,5.487c-10.117,0.8-36.208-11.688-33.893,12.118
	c0.571,5.744,3.715,15.261,10.574,15.061C90.362,32.631,97.907,25.144,101.279,22.543L101.279,22.543z"/>
<path fill-rule="evenodd" clip-rule="evenodd" fill="#D3BDC9" d="M4.543,209.817c7.373,12.089,20.033,27.15,28.835,39.238
	l24.32,32.151c5.573,6.973,20.576,29.179,24.434,32.094l23.805-67.902c2.772-7.831-6.516-28.521-9.888-41.811L4.543,209.817z"/>
<path fill-rule="evenodd" clip-rule="evenodd" fill="#D9AFD2" d="M176.553,305.641c2.143-1.4,0.343,0.086,1.857-1.657
	c0.514-0.572,0.914-1.258,1.286-1.858l9.688-17.575c6.63-11.946,46.867-84.992,48.811-90.937c-2.515,0.2-90.02,4.687-91.763,7.802
	l-4.173,32.265c0.086,5.944,8.145,19.291,10.889,24.692L176.553,305.641z"/>
<path fill-rule="evenodd" clip-rule="evenodd" fill="#EAEC8C" d="M146.975,197.415l91.677-6.259
	c-1.943-5.03-14.574-20.148-18.318-25.206l-56.813-75.99C161.807,92.446,148.404,185.669,146.975,197.415L146.975,197.415z"/>
<path fill-rule="evenodd" clip-rule="evenodd" fill="#BAD532" d="M3.829,206.788l90.648-5.944
	c-0.229-9.288-20.776-72.389-25.92-91.822c-0.628-2.315-1.029-4.001-1.714-6.23c-0.086-0.286-1.029-2.943-1.058-3.029
	c-0.114-0.229-0.229-0.514-0.343-0.714l-1.629-2.572c-1.172,3.172-40.095,73.533-44.981,82.078
	C16.089,183.411,5.373,202.587,3.829,206.788L3.829,206.788z"/>
<path fill-rule="evenodd" clip-rule="evenodd" fill="#E21C47" d="M84.79,316.616c1.086,4,31.807,44.125,35.522,49.154
	c2,2.687,3.601,4.858,6.059,8.06c5.315,6.973,3.657,6.802,7.173,7.087c4.172,0.314,5.059-3.572,6.802-7.201l14.803-27.55
	c2.772-5.087,19.033-33.266,19.29-35.38L84.79,316.616z"/>
<path fill-rule="evenodd" clip-rule="evenodd" fill="#F5853E" d="M75.759,75.527l72.416-4.715
	c-0.114-4.401-24.319-34.352-28.606-40.01c-5.687-7.488-4.458-8.117-11.317-13.061c-4.572,2.572-20.49,35.466-24.291,42.439
	C81.303,65.068,77.474,70.926,75.759,75.527L75.759,75.527z"/>
<path fill-rule="evenodd" clip-rule="evenodd" fill="#B0AC99" d="M175.524,308.07l-25.405-49.783
	c-2.486-4.63-3.201-10.831-8.603-16.775l-10.459,69.56L175.524,308.07z"/>
<path fill-rule="evenodd" clip-rule="evenodd" fill="#B0AC99" d="M127.799,311.385l-14.375-49.555
	c-0.915-3.43-2.886-12.317-5.173-14.976l-23.405,67.217L127.799,311.385z"/>
<path fill-rule="evenodd" clip-rule="evenodd" fill="#B471A2" d="M74.616,78.071l-6.602,11.774c14.518-0.2,30.207-1.943,44.61-2.772
	l42.924-2.858c0.314-0.057,0.6-0.143,0.886-0.229l1.715-0.515l-6.602-10.46L74.616,78.071z"/>
<path fill-rule="evenodd" clip-rule="evenodd" fill="#A05D7E" d="M77.903,524.781c13.174-9.574,14.889-23.663-2.543-28.264
	c-21.005-5.545-14.632,14.003-9.974,29.149l9.516-15.061C84.418,511.778,79.617,519.78,77.903,524.781L77.903,524.781z"/>
<path fill-rule="evenodd" clip-rule="evenodd" fill="#BAD532" d="M141.431,392.434c1.943,2.972,9.773,8.573,13.917,10.917
	c19.747,11.202,17.575-20.748,10.803-24.949c-3.658-2.258-14.946-0.429-19.09,2.629l10.202,10.403
	C153.891,397.778,146.947,394.492,141.431,392.434L141.431,392.434z"/>
<path fill-rule="evenodd" clip-rule="evenodd" fill="#BAD532" d="M127.713,394.149c-5.229,1.229-12.917,6.201-16.089-0.687
	c-4.573-9.916,5.373-9.174,10.088-11.346l-21.233,2.058c-2.943,5.116-2.4,13.89,0.229,19.377
	C108.138,418.955,124.113,399.521,127.713,394.149L127.713,394.149z"/>
<path fill-rule="evenodd" clip-rule="evenodd" fill="#E21C47" d="M101.736,17.256c-4.715,1.314-10.402,4.801-13.574-0.486
	l6.716-10.46C88.333,5.196,81.246,4.138,78.36,9.083c-3.086,5.258-1.543,12.688,1.2,17.433
	C85.733,37.146,98.564,20.799,101.736,17.256L101.736,17.256z"/>
<path fill-rule="evenodd" clip-rule="evenodd" fill="#F58965" d="M156.376,529.325c2.486,2.258,5.431,2.458,6.517,6.002
	c1.314,4.4-0.629,7.459-3.458,8.773c-6.773,3.172-10.688-3.944-13.975-7.116l12.202,23.605l16.29-16.489
	C175.61,533.154,165.065,530.783,156.376,529.325L156.376,529.325z"/>
<path fill-rule="evenodd" clip-rule="evenodd" fill="#F5853E" d="M169.18,459.908c-3.887,5.688-11.289,2.372-16.261-0.314
	l22.891,15.718c6.887-24.148,13.316-32.437-16.204-27.464C162.779,449.448,176.01,449.905,169.18,459.908L169.18,459.908z"/>
<path fill-rule="evenodd" clip-rule="evenodd" fill="#A05D7E" d="M66.529,545.529c-1.8,6.145-8.716,13.66-14.232,6.23
	c-5.373-7.23,3.83-12.061,6.887-15.775l-24.262,14.261l18.918,15.461C62.042,568.649,66.071,551.673,66.529,545.529L66.529,545.529z
	"/>
<path fill-rule="evenodd" clip-rule="evenodd" fill="#F58965" d="M134.572,529.896c-5.601-2.114-15.489-0.429-14.402-9.802
	c1.114-9.574,9.173-5.259,14.26-3.258l-20.404-9.231c-5.487,3.973-10.859,13.575-8.03,22.663L134.572,529.896z"/>
<path fill-rule="evenodd" clip-rule="evenodd" fill="#F5853E" d="M126.142,461.537c-7.259-8.688-3.658-14.946,9.173-13.575
	l-23.233,1.258c-3.772,7.173-2.058,19.662,4.058,23.749l23.548-13.461L126.142,461.537z"/>
<path fill-rule="evenodd" clip-rule="evenodd" fill="#E21C47" d="M121.827,3.853c6.744,5.487,8.802,0.943,3.829,13.518
	l-10.773-0.972c8.345,4.344-1.715,3.144,20.576,10.46c4.029-4.315,5.544-11.603,3.457-18.405
	C136.43,0.309,129.542,2.967,121.827,3.853L121.827,3.853z"/>
<path fill-rule="evenodd" clip-rule="evenodd" fill="#FBCA0D" d="M60.099,552.073c2.372-2.715,5.601-8.373,5.344-13.432
	C56.469,535.583,45.638,552.188,60.099,552.073L60.099,552.073z"/>
<path fill-rule="evenodd" clip-rule="evenodd" fill="#FBCA0D" d="M157.92,459.165c3.515,1.486,7.059,2.829,9.145-0.371
	c6.287-9.717-10.573-7.26-14.803-6.745C152.347,456.878,153.034,457.079,157.92,459.165L157.92,459.165z"/>
<path fill-rule="evenodd" clip-rule="evenodd" fill="#FBCA0D" d="M138.116,524.038c-0.943-1.629-12.774-13.117-15.461-4.687
	c-1.6,5.059,2.173,6.459,6.459,7.116C135.886,527.496,135.543,527.439,138.116,524.038L138.116,524.038z"/>
<path fill-rule="evenodd" clip-rule="evenodd" fill="#FBCA0D" d="M68.929,527.439c5.487,2.257,10.316-8.202,8.573-13.918
	c-4.658-1.2-7.316-1.801-8.802,3.229C67.729,520.123,67.7,524.667,68.929,527.439L68.929,527.439z"/>
<path fill-rule="evenodd" clip-rule="evenodd" fill="#FBCA0D" d="M128.513,386.918c-4.829-3.258-20.518-2.144-14.346,6.115
	c2.201,2.973,5.573,1.658,8.631,0.4C126.713,391.833,128.314,391.462,128.513,386.918L128.513,386.918z"/>
<path fill-rule="evenodd" clip-rule="evenodd" fill="#FBCA0D" d="M147.146,534.383c1.715,4.801,10.745,13.832,13.946,2.771
	c-2.115-3.687-3.286-4.001-7.744-5.858C149.804,529.839,145.118,528.639,147.146,534.383L147.146,534.383z"/>
<path fill-rule="evenodd" clip-rule="evenodd" fill="#FBCA0D" d="M125.828,451.792c-3.544,11.975,13.975,8.545,15.146,0.657
	C139.488,451.706,132.658,447.847,125.828,451.792L125.828,451.792z"/>
<path fill-rule="evenodd" clip-rule="evenodd" fill="#FBCA0D" d="M153.234,392.462l-0.629-8.916
	c-2.172-0.601-4.772-0.114-6.974,0.371l-5.172,2.001c0.2,4.286,0.028,3.829,4.687,5.4
	C148.518,392.462,149.747,392.749,153.234,392.462L153.234,392.462z"/>
<path fill-rule="evenodd" clip-rule="evenodd" fill="#FFFFFF" d="M113.311,9.854c0.343,3.658,0.4,3.458,4.401,4.715
	c3.515,1.086,4.858,1.286,7.659,0.4C129.286,5.11,118.626,6.853,113.311,9.854L113.311,9.854z"/>
<path fill-rule="evenodd" clip-rule="evenodd" fill="#FFFFFF" d="M102.451,10.883c-0.229-0.143-0.571-0.657-0.714-0.429
	c-0.143,0.257-0.571-0.286-0.771-0.343c-5.63-1.515-14.975-0.286-10.745,5.573c1.886,2.629,4.144,2.115,6.687,1.058
	C100.765,15.141,102.051,14.398,102.451,10.883L102.451,10.883z"/>
<path fill-rule="evenodd" clip-rule="evenodd" fill="#63AFB8" d="M70.415,535.612c1.4-6.087-4.372-7.944-6.744-5.658
	C60.785,532.754,63.985,538.042,70.415,535.612L70.415,535.612z"/>
<path fill-rule="evenodd" clip-rule="evenodd" fill="#63AFB8" d="M148.747,450.163c-6.973-0.2-7.287,5.487-2.172,8.316
	C150.604,456.164,150.261,454.106,148.747,450.163L148.747,450.163z"/>
<path fill-rule="evenodd" clip-rule="evenodd" fill="#63AFB8" d="M134.916,390.662c2.314,0.687-1.258,2.516,2,0.429
	c0.829-0.543,0.571-0.371,0.972-1.657c1.314-4.372-1.372-5.716-5.687-5.573l-0.687,6.088L134.916,390.662z"/>
<path fill-rule="evenodd" clip-rule="evenodd" fill="#FFFFFF" d="M109.624,14.227c0.4-0.743,1.886-1.086,0.771-4.229l-4.172-1.886
	c-0.629,1.458-1.943,5.058,0.514,6.43C110.252,16.484,109.624,14.255,109.624,14.227L109.624,14.227z"/>
<path fill-rule="evenodd" clip-rule="evenodd" fill="#63AFB8" d="M143.717,531.382c0.057-0.229,0.485-0.343,0.6-0.457
	c3.744-4.916,0.457-5.944,0.4-6.059l-5.716,6.658L143.717,531.382z"/>
</svg>
