<?xml version="1.0" encoding="utf-8"?>
<!-- Generator: Adobe Illustrator 15.0.0, SVG Export Plug-In  -->
<!DOCTYPE svg PUBLIC "-//W3C//DTD SVG 1.1//EN" "http://www.w3.org/Graphics/SVG/1.1/DTD/svg11.dtd" [
	<!ENTITY ns_flows "http://ns.adobe.com/Flows/1.0/">
]>
<svg version="1.1"
	 xmlns="http://www.w3.org/2000/svg" xmlns:xlink="http://www.w3.org/1999/xlink" xmlns:a="http://ns.adobe.com/AdobeSVGViewerExtensions/3.0/"
	 x="0px" y="0px" width="388px" height="292px" viewBox="0 0 388 292" enable-background="new 0 0 388 292" xml:space="preserve">
<defs>
</defs>
<path fill-rule="evenodd" clip-rule="evenodd" fill="#AC99A3" d="M155.801,259.609c3.458,1.915,0.229,0,2.744,2.486
	c2.429,2.372,3.486,3.144,7.316,4.716c25.263,10.545,40.466-14.461,47.096-16.348c4.887-1.371,8.773-1.771,12.488-3.715
	c21.005-11.031,16.689-23.291,21.776-28.692c12.974-13.775-10.517-46.212-18.633-57.3c-6.23-8.545-8.659-10.889-21.634-8.002
	c-18.375,4.058-39.809,8.345-59.67,5.458c-10.06-1.457-17.004-3.572-25.863-7.23c-27.063-11.174-12.374-16.547-35.836-30.722
	c-6.401-3.858-16.775-8.145-24.948-5.059c-7.059,2.629-15.003,9.974-18.375,14.918c-11.288,16.661-6.173,15.519-5.344,23.949
	c-10.745,12.831-21.319,22.662-23.634,40.524c-3.458,26.921,21.519,36.752,23.748,38.724l16.661,31.779
	c6.144,2.801,13.774,3.229,21.205,2.229c20.062-2.686,15.175-9.573,25.005-1.057C129.967,292.303,150.743,263.21,155.801,259.609
	L155.801,259.609z"/>
<path fill-rule="evenodd" clip-rule="evenodd" fill="#FDFADF" d="M294.946,119.718c-7.345,3.029-7.83-9.316,0.714-4.801
	C296.375,118.432,296.718,116.746,294.946,119.718L294.946,119.718z M244.649,91.511c-26.749,51.613,2,48.098,13.003,71.503
	c7.716,16.49,2,26.235,21.977,31.38c8.259,2.114,17.804,2.314,22.147-3.401c2.943-3.887,6.059-12.889,5.258-17.747
	c-0.485-2.772,0.258-0.715-1-2.458l-10.088,13.489l-9.945-14.375c-1.343-6.03-0.257-3.857-5.001-7.059
	c-2.943-2.001-4.172-2.687-5.029-5.63l11.031,6.658c22.318,12.289,72.016,1.829,77.217-37.18l-6.716-7.973l-26.777-10.66
	c-4.716-2.858-13.975-21.119-14.604-21.52l-32.264-5.258c-0.086,0.028-13.489,6.916-17.318,7.945
	C259.538,91.082,252.451,91.825,244.649,91.511L244.649,91.511z"/>
<path fill-rule="evenodd" clip-rule="evenodd" fill="#AC99A3" d="M255.595,19.636c-16.261-6.059-26.663-3.715-33.808,9.688
	c-2.344,4.344-6.858,12.889-7.115,17.918l15.174,9.459c-0.399,4.63-21.118,24.978,8.545,31.579
	c17.719,3.944,30.893-1.515,45.468-9.831c5.829,2.8,24.548,18.719,39.094-1.372c4.944-6.859,2.801-5.201,12.031-8.173
	c9.431-3.029,19.176-9.974,16.061-22.405l-25.548-14.804c-1.001-5.373-1.115-7.831-3.43-11.803
	c-5.688-9.688-15.604-18.833-29.235-14.26c-12.088,4.029-9.916-7.888-22.404-2.258C263.567,6.461,259.396,13.834,255.595,19.636
	L255.595,19.636z"/>
<path fill-rule="evenodd" clip-rule="evenodd" fill="#272727" d="M38.29,251.664c4.772,10.317,7.259,10.374,17.432,17.176
	c-24.862,36.181-45.267,16.861-30.149-1.2C30.431,261.81,35.175,253.465,38.29,251.664L38.29,251.664z M217.387,252.722
	l17.403-9.145c6.802,13.289,20.119,20.919,20.633,26.32c0.458,4.487-2.4,9.517-4.943,10.975
	c-7.402,4.229-16.261-7.116-18.976-10.089c-3.229-3.601-4.373-3.801-7.631-8.459C221.701,259.181,219.358,255.895,217.387,252.722
	L217.387,252.722z M6.454,275.728c-12.031-18.433,5.516-29.75,21.319-44.868c7.03,2.915,6.201,4.001,7.716,12.26
	c1.715,9.231-8.259,19.891-14.403,26.149C17.171,273.27,13.799,277.042,6.454,275.728L6.454,275.728z M247.564,223.029
	c4.258,2.114,13.774,11.488,16.89,15.775c4.029,5.516,10.83,14.061,7.373,24.12c-3.944,11.545-15.146,3.286-20.005-1.4
	c-6.344-6.116-10.116-11.518-15.489-18.405c1.629-3.572,4.344-5.887,6.516-9.145C245.735,229.602,245.649,226.344,247.564,223.029
	L247.564,223.029z M287.802,166.93c5.658,1.515,7.43,2.629,14.317,2.972c-0.143,4.887-2.029,10.174-6.173,12.175
	C290.631,180.361,288.459,173.417,287.802,166.93L287.802,166.93z M235.447,165.157l-12.374-14.46l12.174-9.86l10.117,11.145
	C241.963,155.498,238.791,162.614,235.447,165.157L235.447,165.157z M155.801,259.609c-5.058,3.601-25.834,32.693-55.898,6.659
	c-9.831-8.517-4.944-1.629-25.005,1.057c-7.43,1.001-15.061,0.572-21.205-2.229l-16.661-31.779
	c-2.229-1.972-27.206-11.803-23.748-38.724c2.315-17.862,12.889-27.693,23.634-40.524c-0.829-8.431-5.944-7.288,5.344-23.949
	c3.372-4.944,11.317-12.289,18.375-14.918c8.173-3.086,18.547,1.201,24.948,5.059c23.462,14.175,8.773,19.548,35.836,30.722
	c8.859,3.658,15.803,5.773,25.863,7.23c19.861,2.887,41.295-1.4,59.67-5.458c12.975-2.887,15.403-0.543,21.634,8.002
	c8.116,11.088,31.606,43.524,18.633,57.3c-5.087,5.401-0.771,17.661-21.776,28.692c-3.715,1.943-7.602,2.344-12.488,3.715
	c-6.63,1.887-21.833,26.893-47.096,16.348c-3.83-1.572-4.887-2.344-7.316-4.716C156.03,259.609,159.259,261.524,155.801,259.609
	L155.801,259.609z M244.649,91.511c7.802,0.314,14.889-0.429,21.891-2.286c3.829-1.029,17.232-7.917,17.318-7.945l32.264,5.258
	c0.629,0.4,9.888,18.662,14.604,21.52l26.777,10.66l6.716,7.973c-5.201,39.009-54.898,49.469-77.217,37.18l-11.031-6.658
	c0.857,2.943,2.086,3.629,5.029,5.63c4.744,3.201,3.658,1.028,5.001,7.059l9.945,14.375l10.088-13.489
	c1.258,1.743,0.515-0.314,1,2.458c0.801,4.858-2.314,13.86-5.258,17.747c-4.344,5.716-13.889,5.516-22.147,3.401
	c-19.977-5.145-14.261-14.89-21.977-31.38C246.649,139.608,217.9,143.124,244.649,91.511L244.649,91.511z M359.018,116.603
	c-5.401-19.49,22.348-24.492,26.691-7.916C390.596,127.405,363.562,132.95,359.018,116.603L359.018,116.603z M56.894,113.831
	l6.315-5.201C62.695,113.488,62.038,112.487,56.894,113.831L56.894,113.831z M65.839,109.544l7.716-1.4l-0.372,4.229
	c-0.743-0.114-3.886-0.486-4.258-0.6C62.038,110.001,67.982,111.516,65.839,109.544L65.839,109.544z M66.039,101.742l8.116-0.428
	c-0.6,5.401-1.886,6.201-7.83,4.601L66.039,101.742z M25.973,126.491c-2.572-20.119,24.892-20.291,37.466-22.634
	C63.067,104.943,38.719,127.948,25.973,126.491L25.973,126.491z M24.315,100.942c-0.429-2.486-0.6-3.916-0.458-6.487
	c0.143-2.372,0.629-6.487,3.629-6.373c0.229,0.028,1.915,0.229,2.201,0.257c1.572,0.314,2.886,0.8,4.801,1.457l27.978,11.06
	C53.522,101.342,31.889,103.828,24.315,100.942L24.315,100.942z M65.61,93.797c2.601-1.086,6.687-2.372,9.259-3.086l-0.286,7.259
	C68.068,100.542,65.896,101.627,65.61,93.797L65.61,93.797z M56.437,94.998c4.201-0.886,2.658-1,6.745,0.429
	C62.009,98.484,65.438,98.341,56.437,94.998L56.437,94.998z M255.595,19.636c3.801-5.801,7.973-13.174,14.832-16.261
	c12.488-5.63,10.316,6.287,22.404,2.258c13.632-4.573,23.548,4.572,29.235,14.26c2.314,3.973,2.429,6.43,3.43,11.803L351.044,46.5
	c3.115,12.431-6.63,19.376-16.061,22.405c-9.23,2.972-7.087,1.314-12.031,8.173c-14.546,20.091-33.265,4.172-39.094,1.372
	c-14.575,8.316-27.749,13.774-45.468,9.831c-29.663-6.602-8.944-26.949-8.545-31.579l-15.174-9.459
	c0.257-5.03,4.771-13.575,7.115-17.918C228.932,15.921,239.334,13.577,255.595,19.636L255.595,19.636z M51.121,64.218
	c0.943-3.287-7.687-11.06-4.715-23.806c1.772-7.602,7.487-14.204,15.689-14.404c8.087-0.2,6.03,4.03,11.488-0.628
	c2.829-2.429,5.258-4.887,9.116-6.001c16.146-4.573,11.288,15.175,11.288,15.489l14.86-2.343c4.515,0.429,12.545,12.146,8.374,23.32
	c-1.829,4.944-5.116,6.688-8.688,8.374c2.772,10.26,6.944,16.833-3.258,25.063c-14.489,11.746-22.405-3.229-24.063-3.744
	l-39.065,3.601c-4.315-3.058-6.745-10.402-4.03-17.719C42.52,59.532,46.777,65.562,51.121,64.218L51.121,64.218z M255.08,17.064
	c-12.316-2.601-24.776-8.059-35.379,11.231c-2.515,4.601-6.944,13.289-7.345,18.862l14.832,11.203
	c-3.286,4.916-9.603,13.689-5.43,22.548l20.118,10.917c-5.544,7.202-12.745,28.178-9.487,39.924
	c1.943,7.03,2.572,6.801-2.544,11.488c-10.059,9.145-10.202,3.972-25.491,7.716c-32.264,7.888-59.241,9.773-88.791-5.229
	c-13.146-6.659-9.688-11.803-17.118-18.148l-22.519-13.774l2.886-24.835c5.201-1.429,3.629,4.601,12.431,6.602
	c5.687,1.286,10.66-0.429,14.632-3.572l5.944-26.606c6.516-5.659,11.974-11.06,7.487-24.177L97.274,30.896
	c1.286-15.747-12.26-18.176-23.319-9.288c-6.773,5.487-2.372,2.315-10.888,2.029c-2.372,5.401-14.289,35.752-17.404,37.209
	c-0.8,0.372-1.429,0.628-2.115,0.943c-10.317,4.744-7.316,12.775-6.573,26.264l-13.688-2.172l-0.8,16.604l17.661,1.972
	c-11.545,10.288-7.83-3.373-16.432,23.434l21.405-5.172c-1.229,1.8-3.201,3.772-4.601,5.63c-8.488,11.174-3.887,18.262-6.516,24.549
	c-8.402,10.545-16.632,17.805-21.633,35.037c-5.858,20.262,2.429,26.521,13.002,40.639c-2.458,4.287-34.579,26.464-22.776,45.269
	l15.689,1.543c0.229,13.003,7.059,21.806,19.718,13.774l19.833-19.576c7.63,0,11.688,1.372,19.433-0.686
	c26.406-7.088,10.745-4.858,29.978,5.259c12.317,6.458,24.405,6.687,36.236-0.515c5.744-3.544,7.487-5.802,12.317-10.46
	c13.06,12.117,30.578,10.06,46.267-0.485c3.201-2.173,8.145-7.316,11.203-10.231c2.715,1.4,7.944,9.688,10.088,12.346
	c3.114,3.887,6.772,8.316,10.974,12.203l23.604-7.83c17.805,6.973,20.348-12.061,13.775-23.464
	c-6.573-11.345-13.689-16.746-22.806-25.32c3.944-6.373,5.201-8.259,3.687-18.147c-4.115-26.606-21.233-28.492-11.174-41.353
	c3.001-3.83,2.458-3.915,6.145-7.002c15.089,9.088,5.687,31.379,25.892,40.753c7.059,3.258,20.919,4.83,26.806,0.886l9.916-24.349
	c16.09-1.486,26.777-5.001,36.979-12.46l18.947-30.036c2.058-1.686,11.26,2.601,18.633-5.916c4.744-5.487,4.544-15.29-0.429-20.948
	l-28.035,14.375c-10.23-0.286-18.604-5.03-23.919-9.802l-14.231-21.005c13.316-11.774,3.515-9.66,15.518-13.689
	c9.002-3.001,14.174-5.03,17.632-11.688c4.144-7.945,1.801-17.29-2.429-22.52l-21.348-7.974
	c-3.201-15.089-15.203-30.922-34.093-26.321c-7.688,1.858-4.115,1.601-10.603-1.543C270.427-4.341,260.11,7.119,255.08,17.064
	L255.08,17.064z"/>
<path fill-rule="evenodd" clip-rule="evenodd" fill="#AC99A3" d="M51.121,64.218c-4.344,1.343-8.602-4.687-13.003,7.202
	c-2.715,7.316-0.286,14.661,4.03,17.719l39.065-3.601c1.658,0.514,9.574,15.489,24.063,3.744c10.202-8.23,6.03-14.804,3.258-25.063
	c3.572-1.686,6.859-3.429,8.688-8.374c4.172-11.174-3.858-22.891-8.374-23.32l-14.86,2.343c0-0.314,4.858-20.062-11.288-15.489
	c-3.858,1.114-6.287,3.572-9.116,6.001c-5.458,4.658-3.401,0.429-11.488,0.628c-8.202,0.2-13.917,6.802-15.689,14.404
	C43.434,53.159,52.064,60.932,51.121,64.218L51.121,64.218z"/>
<path fill-rule="evenodd" clip-rule="evenodd" fill="#FDFADF" d="M247.564,223.029c-1.915,3.314-1.829,6.572-4.716,10.945
	c-2.172,3.258-4.887,5.572-6.516,9.145c5.373,6.888,9.146,12.289,15.489,18.405c4.858,4.687,16.061,12.945,20.005,1.4
	c3.457-10.06-3.344-18.604-7.373-24.12C261.339,234.518,251.822,225.144,247.564,223.029L247.564,223.029z"/>
<path fill-rule="evenodd" clip-rule="evenodd" fill="#FDFADF" d="M6.454,275.728c7.345,1.314,10.717-2.458,14.632-6.459
	c6.145-6.259,16.118-16.918,14.403-26.149c-1.515-8.259-0.686-9.345-7.716-12.26C11.97,245.978-5.577,257.295,6.454,275.728
	L6.454,275.728z"/>
<path fill-rule="evenodd" clip-rule="evenodd" fill="#FDFADF" d="M217.387,252.722c1.972,3.173,4.314,6.459,6.486,9.603
	c3.258,4.658,4.401,4.858,7.631,8.459c2.715,2.973,11.573,14.318,18.976,10.089c2.543-1.458,5.401-6.487,4.943-10.975
	c-0.514-5.401-13.831-13.031-20.633-26.32L217.387,252.722z"/>
<path fill-rule="evenodd" clip-rule="evenodd" fill="#FDFADF" d="M38.29,251.664c-3.115,1.801-7.859,10.146-12.717,15.976
	c-15.118,18.062,5.287,37.381,30.149,1.2C45.549,262.038,43.063,261.981,38.29,251.664L38.29,251.664z"/>
<path fill-rule="evenodd" clip-rule="evenodd" fill="#7E6D55" d="M359.018,116.603c4.544,16.347,31.578,10.803,26.691-7.916
	C381.365,92.111,353.616,97.112,359.018,116.603L359.018,116.603z"/>
<path fill-rule="evenodd" clip-rule="evenodd" fill="#FBCA0D" d="M25.973,126.491c12.746,1.458,37.094-21.548,37.466-22.634
	C50.864,106.2,23.401,106.372,25.973,126.491L25.973,126.491z"/>
<path fill-rule="evenodd" clip-rule="evenodd" fill="#FBCA0D" d="M24.315,100.942c7.573,2.886,29.207,0.4,38.151-0.086
	l-27.978-11.06c-1.915-0.657-3.229-1.143-4.801-1.457c-0.286-0.029-1.972-0.229-2.201-0.257c-3-0.114-3.486,4.001-3.629,6.373
	C23.715,97.026,23.887,98.456,24.315,100.942L24.315,100.942z"/>
<path fill-rule="evenodd" clip-rule="evenodd" fill="#FDFADF" d="M235.447,165.157c3.344-2.543,6.516-9.659,9.917-13.175
	l-10.117-11.145l-12.174,9.86L235.447,165.157z"/>
<path fill-rule="evenodd" clip-rule="evenodd" fill="#FFFFFF" d="M302.119,169.901c-6.888-0.343-8.659-1.457-14.317-2.972
	c0.657,6.487,2.829,13.432,8.145,15.146C300.09,180.075,301.977,174.788,302.119,169.901L302.119,169.901z"/>
<path fill-rule="evenodd" clip-rule="evenodd" fill="#FFFFFF" d="M65.61,93.797c0.286,7.831,2.458,6.745,8.973,4.173l0.286-7.259
	C72.297,91.425,68.211,92.711,65.61,93.797L65.61,93.797z"/>
<path fill-rule="evenodd" clip-rule="evenodd" fill="#FBCA0D" d="M66.325,105.915c5.944,1.6,7.23,0.8,7.83-4.601l-8.116,0.428
	L66.325,105.915z"/>
<path fill-rule="evenodd" clip-rule="evenodd" fill="#272727" d="M294.946,119.718c1.771-2.972,1.429-1.286,0.714-4.801
	C287.116,110.401,287.602,122.747,294.946,119.718L294.946,119.718z"/>
<path fill-rule="evenodd" clip-rule="evenodd" fill="#FBCA0D" d="M65.839,109.544c2.143,1.972-3.801,0.457,3.086,2.229
	c0.372,0.114,3.515,0.486,4.258,0.6l0.372-4.229L65.839,109.544z"/>
<path fill-rule="evenodd" clip-rule="evenodd" fill="#FFFFFF" d="M56.437,94.998c9.002,3.344,5.573,3.486,6.745,0.429
	C59.094,93.997,60.638,94.111,56.437,94.998L56.437,94.998z"/>
<path fill-rule="evenodd" clip-rule="evenodd" fill="#FFFFFF" d="M56.894,113.831c5.144-1.343,5.801-0.343,6.315-5.201
	L56.894,113.831z"/>
</svg>
