<?xml version="1.0" encoding="utf-8"?>
<!-- Generator: Adobe Illustrator 15.0.0, SVG Export Plug-In  -->
<!DOCTYPE svg PUBLIC "-//W3C//DTD SVG 1.1//EN" "http://www.w3.org/Graphics/SVG/1.1/DTD/svg11.dtd" [
	<!ENTITY ns_flows "http://ns.adobe.com/Flows/1.0/">
]>
<svg version="1.1"
	 xmlns="http://www.w3.org/2000/svg" xmlns:xlink="http://www.w3.org/1999/xlink" xmlns:a="http://ns.adobe.com/AdobeSVGViewerExtensions/3.0/"
	 x="0px" y="0px" width="154px" height="175px" viewBox="0.605 0 154 175" enable-background="new 0.605 0 154 175"
	 xml:space="preserve">
<defs>
</defs>
<path fill-rule="evenodd" clip-rule="evenodd" fill="#DD2E27" d="M95.907,55.245c-0.343,0.2-0.4,0.6-0.915,1.2
	c-0.086,0.086-0.515,0.485-0.629,0.601c-1.485,1.343-0.543,0.514-1.686,1.914c-0.372,0.457-0.657,0.743-1.058,1.172
	c-0.086,1.286,0.114,0.801-0.485,1.4c-0.486,0.486-0.486,0.258-1.258,1.43l-1.258,1.886c-1.771,1.771-6.001,6.372-7.087,8.116
	c-1.515,2.43-1.2,0.857-1.972,2.143c-1.114,1.943-2.772,3.688-4.115,5.602l-1.058,1.086c-1.2,1.144-0.914,1.344-1.429,1.973
	c-0.714,0.914-0.687,0.229-1.629,1.543c-2.286,3.258-2.028,2.344-2.858,3.4c-1.143,1.486-1.971,3.373-3.457,4.802l-1.887,1.972
	c-0.028,0.058-0.314,0.314-0.343,0.372l-5.572,7.287c-0.857,1.4-1.144,0.972-1.743,1.857c-0.515,0.771-0.115,1.029-1.229,1.601
	c-1.658,0.857-0.4,0.371-1.486,1.715l-3.83,4.401c-0.8,0.771-0.257,0.514-1.686,2.2c-0.172,0.2-0.172,0.229-0.314,0.429
	c-0.6,0.8-0.801,1.314-1.686,1.457l-0.029,0.715c-0.771,0.485-0.543,0.343-1.114,1.028c-0.515,0.687-0.372,0.258-0.943,1.229
	c-0.485,0.857-0.457,0.543-0.942,1.229c-1.201,1.743-0.829,1.058-2.001,2.372c-2.028,2.229-2.058,3.172-3.372,3.401
	c-0.629,0.429-0.629,0.742-1.258,1.4c-0.742,0.771-0.714,0.8-1.172,1.485c-0.199,1.486-4.486,6.373-5.629,7.688l-2.973,3.544
	c-1.086,1.515-0.629,0.486-1.857,2.458l-5.087,5.858l0.028,0.743c-0.971,0.429-1.143,0.829-1.114,2.115
	c0.601,0.742,1.028,0.8,1.4,1.6c0.857,0,0.771,0.086,1.486,0.943c0.886,1.086-0.028,0.172,1.372,1c0.742,0.429,2,1.915,2.6,2.029
	l5.115-6.516c0.943-1.2,0.43-0.058,2.001-2.344c0.829-1.229,2.372-3.915,3.915-4.087l0.029-0.2l0.027-0.971l3.63-3.802
	c0.372-0.6,0.286-0.657,0.714-1.229l5.088-6.287c0.886-1.2,3.344-4.688,4.801-5.145c0.057-0.086,0.457-0.657,0.514-0.714
	l0.058-0.915c1.687-1.229,1.515-1.943,2.944-3.572l4.029-4.658c0.257-0.286,0.314-0.4,0.571-0.657l1.086-1.029
	c0.028-0.114,0.114-0.114,0.171-0.171c0.973-0.229,1.771-2.172,3.344-3.63c0.4-0.399,0.629-0.771,1-1.172l0.743-0.714
	c0.058-0.028,0.086-0.086,0.144-0.114l1.257-1.887c0.515-0.828,0.172-0.714,0.915-1.485c0.428-0.458,0.686-0.543,0.914-1.029
	c0.143-1.314,0.914-1.743,1.601-2.515c0.657-0.715,0.886-1.372,1.543-2.086l3.258-3.973c0.343-0.429,0.515-0.657,0.857-1.115
	c0.485-0.657,0.485-0.457,0.8-0.856c0.314-0.429,0.486-1.001,0.715-1.258l2.629-2.687c0.743-0.886,0.972-1.343,2.058-1.857
	c0.571-0.258,1.572-1.801,1.972-2.344l4.973-5.916c0.343-0.399,0.657-0.771,0.801-1.143c0.257-1.344,1.429-2.029,2.028-3.086
	c1.572-2.744,1.687-1.973,2.772-3.23l4.658-6.001c0.943-1.2,1.058-1.314,1.829-1.314l4.458-5.688
	c0.485-0.657,1.028-0.972,1.629-1.771l4.658-5.944c0.057-0.057,0.114-0.086,0.143-0.114c0.886-0.772,0.943-0.772,1.086-1.4
	c0.229-2.029,0.2-0.571,1.058-1.743c0.371-0.543-0.058-0.743,0.657-0.771c-1.743-0.372-0.972-0.172-2.029,0.199
	c-0.457-0.8-0.257-0.857-0.828-1.343c-3.401-2.886-1.115-1.972-3.059-3.43c-0.057-1.028-0.143-0.8,0.172-1.629l-1.172-0.543
	c-0.457,0.972-0.485,1.172-1.257,1.886l-2.744,3.287c-0.2,0.314-0.343,0.657-0.543,0.914l-2.172,2.4
	C98.965,51.701,97.622,54.444,95.907,55.245L95.907,55.245z"/>
<path fill-rule="evenodd" clip-rule="evenodd" fill="#DAD3E9" d="M80.504,57.188l0.028,0.801c-1.743,0.942-0.543,0.856-1.743,2.086
	L68.329,72.62c-1.543,1.715-0.8,1.801-2.029,1.83c-0.113,0.171-1.143,1.715-1.229,1.914c-0.172,1.172,0.086,0.4-0.6,1.344
	c-0.371,0.543-0.314,0.4-0.658,0.8c-0.457,0.571-0.885,1.058-1.314,1.571c-0.857,1.001-1.771,2.087-2.657,3.173L48.468,97.026
	c-1.029,0.972-2.2,2.744-3.258,4.001c-0.457,0.572-0.886,0.829-1.258,1.63l-0.885,0.085c-0.286,0.4-0.744,0.801-1.201,1.458
	c-0.4,0.543-0.715,0.914-1.2,1.457c-0.571,0.629-2.229,2.43-2.4,2.943c-0.058,1.258-1.687,2.801-2.515,3.772l-1.715,1.915
	c-0.543,0.686-0.486,0.486-0.972,1.515c-0.543,1.144-0.028,0.172-1.114,1.229c-2,1.943-1.172,0.801-2,2.716h-0.887
	c0.029,1.2-0.543,1.371-1.028,2.114c-0.915,1.4-1.829,1.829-2.772,3.287c-1.114,1.714,0.286,0.485-1.057,1.515
	c-0.857,0.657-3.887,4.144-4.259,5.058l-3.972,4.916c-2.287,2.372-2.687,3.286-3.401,4.087c-1.515,1.686-3.743,4.887-4.829,5.344
	c0.028,0.943,0.229,0.286-1.172,2.229l-1.658,2.172c1.516-0.058,3.258-0.343,4.716-0.286c1.715,0.058,2.858,0.286,4.716,0.229
	c0.171-1.972,0.314-1.257,1.114-1.914c0.714-0.601,0.886-1.229,1.515-1.915l0.657-0.771c0.257-0.286,0.485-0.458,0.856-0.829
	c1.744-1.743,0.4-1.629,1.858-1.601c0.257-1.429,3.943-5.029,5.058-6.772c0.4-0.658,0.201-0.743,0.857-1.544
	c0.801-0.914,0.572-0.171,1.516-1.143l10.973-13.146c0.029-0.114,0.144-0.057,0.229-0.114c0.201-0.686,1.916-2.429,2.516-3.029
	c0.514-0.515,2.43-2.772,2.486-3.315c0.172-0.972,0.257-0.914,0.857-1.543l5.287-6.573c0.629-0.629,0.428-0.343,0.857-1.086
	l0.828-0.143c0.314-0.457,1.686-1.972,1.914-2.515c0.372-1.144,1.287-2.029,2.029-3.001l2.943-3.572
	c0.029-0.058,0.086-0.114,0.115-0.143l1.457-1.687c1.686-1.343,0.828-0.915,1.572-2.058c0.285-0.457,0.8-0.629,1.686-1.943
	l5.315-6.802c0.028-0.028,0.058-0.086,0.086-0.114c0.058-0.057,0.085-0.086,0.143-0.143l5.115-6.174
	c0.687-0.942,0.543-1.057,1.2-1.742l1.172-1.258c0.601-0.629,2.344-2.973,3.144-3.458c0.572-0.343-0.429,0.085,0.572-0.257
	c1.028-0.887,7.544-9.031,8.83-10.832c0.515-0.771,0.457-1.029,1.343-1.371l-0.229-0.915c0.657-0.171,0.657-0.143,1.458-1.172
	c0-0.028,0.057-0.085,0.085-0.114c0.429-0.629,0.314-1.029,1.058-1.686c2.486-2.201,0.886-1.201,2.4-2.887
	c1.258-1.372,0.458,0.199,2.087-2.258c0.171-0.285,0.257-0.343,0.429-0.543l0.742-0.743c0.657-0.657,0.258-0.571,1.486-2.114
	c1.258-1.572,2.029-2.602,2.887-4.173c-2.201-0.229-1.715-0.058-3.258-0.943c-0.629-0.343-0.886-0.286-1.286-0.942
	c-0.4-0.629-0.143-0.715-0.601-1.372c-1.086,0.028-1.2,0.2-1.715,0.771c-0.229,0.257-0.313,0.372-0.514,0.687
	c-0.029,0.027-0.058,0.085-0.086,0.143c-0.028,0.028-0.086,0.086-0.114,0.143l-2.229,2.887c-0.371,0.4-0.771,0.742-1.171,1.257
	l-1.801,2.544c-0.286,0.4-0.771,0.571-1.144,0.972c-0.429,0.457-0.485,0.886-1,1.457l-2.172,2.458
	c-0.114,0.114-0.857,1.086-0.943,1.2l-3.429,4.087C80.703,57.188,81.075,57.103,80.504,57.188L80.504,57.188z"/>
<path fill-rule="evenodd" clip-rule="evenodd" fill="#84C559" d="M108.853,59.39c0,1.485-0.857,1.771-1.801,2.828
	c-0.485,0.543-0.171,0.457-0.742,0.973c-1.601,1.428-0.058,1.229-1.687,1.285l0.086-0.229c-0.143,1.457-0.972,2-2.43,3.602
	c-1.086,1.199-1.714,2.285-2.943,3.371c-0.2,0.201-0.257,0.201-0.371,0.344c-0.571,0.686-0.028,0.743-1.629,2.457l-0.657,0.83
	c-1.372,2.086-1.286,1.171-1.972,2.057l-2.001,2.4c-0.171,0.201-0.2,0.286-0.314,0.43c-0.285,0.399-0.143,0.199-0.314,0.399
	c-2.657,3.201-0.686,1.772-3.886,4.573c-0.372,0.285-0.4,0.371-0.743,0.771l-0.687,0.914c-0.028,0.029-0.057,0.114-0.085,0.143
	l-0.972,1.258c-0.572,0.857-0.229,0.771-1.172,1.515l-1,1.144c-0.515,0.6,0.057-0.114-0.372,0.371c-0.543,0.601-0.6,1.029-1.2,1.715
	c-1.686,2-1.972,1.857-2.543,2.972c-0.486,0.915-0.715,0.972-1.315,1.629l-6.201,7.574c-1.285,1.571-1.771,1.714-2.515,3.058
	c-0.657,1.172-0.714,0.571-1.515,1.4c-0.486,0.515-0.486,1-0.972,1.686c-0.399,0.629-0.886,1.058-1.343,1.572
	c-1.115,1.258-0.4,0.972-1.543,1.343c-0.372,0.429-0.857,1.286-1.4,1.772c-0.572,0.514-1.115,0.8-1.286,1.686
	c-0.257,1.2-0.229,0.687-0.687,1.43l-0.342,0.657c-0.516,0.828,0.199-0.172-0.4,0.485c-0.058,0.058-0.115,0.086-0.143,0.114
	c-0.029,0.058-0.086,0.086-0.115,0.143c-0.715,0.887,0.2,0.314-1.057,1.315l-1.486,1.715c-1.771,2.314-1.658,1-2.715,2.8
	c-1.058,1.801-0.829,0.972-1.771,2.115c-1.658,1.972-1.744,2.887-4.573,5.63l-1.058,0.771l-2.143,2.801
	c-0.658,0.886-1.286,1.058-1.43,1.715c-0.199,1.286-2.457,3.258-4,5.63l-1.915,2.429c-1.028,1.029-1.571,2.344-1.8,2.63
	l-0.516,0.429c-2.886,2.457-6.287,8.316-8.83,10.116c-0.028,0.058-0.114,0.086-0.172,0.144c0.029,0.057,0.086,0.085,0.115,0.171
	c0.028,0.229,0.485,0.458,0.629,1.544c0.428,3.829,1.199,4.486,1.199,6.687c0.086-0.028,0.201-0.199,0.229-0.143l0.715-0.457
	c1.058-0.857,1.286-1.687,2.144-1.743c0.171-0.486-0.114,0,0.314-0.601l3.344-4.43c0.286-0.314,0.714-0.657,1.058-1.114l3-3.486
	c-0.199-0.887-0.028-0.657,0.657-1.315c1.486-1.485,0.515-1.028,1.886-2.229c0.772-0.657,0.314-0.543,1.486-0.943
	c0.515-0.286,1.344-2,2.029-2.601l1.629-2.486c0.172-0.286,0.285-0.629,0.486-0.943c0.771-1.114,1.229-0.828,2.743-3.029
	c0.2-0.257,0.2-0.257,0.343-0.429l3.516-4.43c0.229-0.313,0.342-0.686,0.485-0.972l0.8-0.199l0.629-0.801
	c0.143-1.143,0.314-0.914,1.572-2.543l2.229-2.601c0.258-0.286,0.172-0.172,0.4-0.515l4.287-5.459
	c2.229-2.314,4.229-6.115,5.543-6.887c0.144-0.629-0.057-0.058,0.658-0.229c0.771-0.286-0.258-0.115,0.629-0.314l1.143-2.029
	c0.343-0.543,0.172-0.314,0.629-0.801c0.314-0.343,0.428-0.457,0.686-0.771c0.571-0.657,2.029-2.515,2.314-3.172l3.858-4.658
	c0.657-0.886,0.657-1.543,1.571-2.058c1.601-0.886,0.086-0.4,1.486-1.429c0.172-0.144,0.2,0.171,0.314-0.2
	c0.028-0.086,0.114-0.058,0.172-0.114c-0.086-1.314,3.114-4.03,3.657-5.201c0.715-1.486-0.028-0.429,0.972-1.486
	c2.715-2.829,3.401-4.373,6.087-7.23c1.915-2.058,4.087-5.572,5.373-5.944c0.172-0.171,0.485-0.543,0.771-0.771
	c0.372-1.315,1.771-2.915,2.915-3.43c0.515-0.686,0.972-1,1.629-1.886c0.571-0.771,0.829-1.314,1.372-2.029
	c0.485-0.686,1.2-1.229,1.743-1.887c0.657-0.771,0.686-1.4,1.829-1.686c0.399-0.629,1.343-1.629,1.571-2.144
	c0.143-0.942,1.172-2.515,1.857-3.258l1.314-1.571c0.486-0.715,0.543-0.687,1.144-1.287l2.314-2.771
	c0.2-0.286,0.058-0.086,0.343-0.4c0.772-0.914,1.286-1.771,1.973-2.115c-1.286-0.399-1.629-0.971-2.572-1.543
	c-0.829-0.514-1.801-0.886-2.029-1.828c-0.886-0.344-0.571-0.115-1.2-0.687c-0.343,0.485-0.086,0.886-0.857,1.743l-2.687,2.687
	c-0.686,0.857-0.543,0.286-1.086,1.515L108.853,59.39z"/>
<path fill-rule="evenodd" clip-rule="evenodd" fill="#F2CB97" d="M123.342,17.779c-0.286,0.857-0.886,1.143-1.629,1.772
	c-0.629,0.543-1.344,0.8-2.029,1.343l-5.029,3.458c-0.657,0.543-0.114,0.172-1.058,0.629l-5.887,3.715
	c-0.344,0.686-0.229,0.657-0.743,1.057l-1.743,1.143c-2.001,1.572-6.573,3.201-4.83,5.745c0.371,0.514,0.857,0.943,1.515,1.2
	c2.887,1.143,1.687,0.229,3.344-0.114c4.029-0.857,0.857-1.229,3.943-0.915c0.258,0.4,0.486,0.714,0.743,1.343
	c0,1.344,0.543,2.372,0.515,2.915l0.314,0.372c0.028,0.027,0.086,0.085,0.143,0.143c0.028,0.057,0.086,0.086,0.143,0.143
	c0.029,0.028,0.086,0.086,0.114,0.114c1.058,1.229-0.171,0.829,1.201,1.943c3.457,2.829,4.086,0.857,4.943,1.144
	c2.629,1.972-0.571,2.972,0.058,5.772c0.571,2.657,2.515,3.344,5.001,3.172c0.171-0.829,0.314-0.515,0.686-1.257l2.115-5.059
	c-0.172-1.943,0.313-1.115,1.229-4.287l4.001-9.259c0.285-0.943,1.371-2.144,1.771-3.429l2.315-5.802
	c0.171-0.286,0.257-0.085,0.6-0.8l1.086-2.715c0.314-1.486,0.172-0.915,0.743-1.972c0.429-0.829,0.2-1.286,0.371-2.344
	c-0.085-1.057-3.086-5.801-6.887-3.715c-1.829,1.029-0.829,0.543-2.086,1.515l-1.372,0.829
	C125.399,16.292,124.771,17.607,123.342,17.779L123.342,17.779z"/>
<path fill-rule="evenodd" clip-rule="evenodd" fill="#222222" d="M123.771,15.235l-2.115,1.372
	c-1.486,0.915-5.115,3.544-6.401,3.973c-0.114,0.229-0.972,0.657-1.286,0.886c-0.571,0.4-0.857,0.743-1.371,0.829
	c-0.4,0.8-0.515,0.657-1.229,1.172c-3.543,2.658-12.517,8.23-13.717,9.288l-3.572,4.458c-0.229,1.086-0.086,0.6-0.771,1.314
	l-2.229,2.858c-2.343,3.229-2.543,2.458-4.001,4.973c-0.2,0.343-0.457,0.601-0.771,0.942l-2.343,2.943
	c-1.286,1.715-1.144,2.001-2.658,2.63l-7.573,9.174c-0.515,0.601-0.485,0.886-0.914,1.485c-0.4,0.543-0.772,0.687-1.229,1.201
	c-1.4,1.543-7.029,8.116-7.23,9.287c-0.342,1.258-0.143,0.658-0.856,1.544c-0.4,0.485-0.543,0.942-0.144,1.485
	c1.172-0.8,2.688-3.543,4.002-4.943c0.057-0.057,0.342-0.343,0.342-0.343c0.058-0.058,0.201-0.229,0.229-0.286
	c0.172-0.2,0.201-0.258,0.43-0.543l2.029-2.286c0.229-0.314,0.256-0.458,0.399-0.601l0.629-0.543l6.744-7.802
	c1.086-1.314,1.229-2.372,2.344-2.515c-0.258-1.572,0.199-0.343,1.972-2.801l12.546-15.347c2.8-4.172,3.114-1.372,3.515-0.571
	c1.4,2.801,6.487,1.429,4.772,4.001c-0.257,0.371-0.629,0.771-0.886,1.058c-0.486,0.543-0.486,0.457-0.886,1.114l-3.001,3.801
	c-0.257,0.343-0.143,0.2-0.429,0.457c-0.028,0.058-0.2,0.172-0.257,0.229c-0.029,0.027-0.086,0.057-0.114,0.113l-3.687,4.802
	c-0.2,0.257-0.743,0.601-1.058,0.886c-0.687,0.657-1.058,1.973-2.544,2.973c0.172,0.828,0.429-0.314,0,0.942
	c-0.285,0.829,0.058,0.058-0.485,0.571l-0.257,0.229c-1.43,1.258-1.201,1.629-2.229,2.801c-1.286,1.486-2.857,2.916-3.229,4.631
	c1-0.172,1.344-0.629,2.086-1.059l3.516-4.372c0.828-1.943,2.286-3.029,3.572-4.601l0.485-0.457
	c0.028-0.058,0.086-0.086,0.114-0.115c0.943-0.971,1.058-1.4,1.743-2.4c0.915-1.344,0.972-0.943,2.458-2.887l1.058-1.172
	c0.028-0.057,0.143-0.057,0.171-0.143c0.029-0.086,0.086-0.086,0.172-0.114c1.457-1.286,2.601-3.144,3.715-4.344l3.258-4.229
	c0.029-0.029,0.144-0.057,0.144-0.143c0.028-0.086,0.114-0.086,0.171-0.144c0.915,0.229,1.314,0.343,1.172,1.4l1.657,2.572
	c1,0.171,0.886,0.171,1.658,1.114c1.485,1.715,3.086,1.058,3.972,2.458c-0.114,0.114-0.057,0.028-0.314,0.257
	c-0.028,0.029-0.171,0.143-0.229,0.2c-0.028,0.028-0.086,0.086-0.114,0.114c-0.257,0.286-0.457,0.515-0.657,0.801
	c-0.6,0.914-0.429,1.028-1.286,1.886l-1.4,1.286c-1.515,1.457,0.058-0.743-0.6,0.743l-0.2,0.543c-0.515,1.2-0.172,0.257-1.2,1.343
	l-0.943,1.201c-1.743,1.8-2.258,2.771-2.886,3.371c-0.715,0.715-1.029,1.086-1.029,2.344c2.601-0.828,1.258-0.971,2.972-2.572
	c1.144-1.086,0.314-0.6,2.058-2.771l0.314-0.371c0.029-0.058,0.086-0.086,0.114-0.144l0.657-0.8c1.486-1.601,2.287-1.801,3.029-4.23
	c1.258,0.115,1.43,0.4,1.915,1.201c0.943,1.515,1,0.457,1.429,1.972c1.314,0.372,0.915,0.629,1.829,1.343
	c1,0.771,1.172,0.286,1.857,1.314c-0.457,0.943-0.257-0.085-1.172,1.544c-1,1.771-5.63,5.915-7.087,8.573
	c-0.543,0.972-0.429,0.972-1.4,1.286c-0.229,0.515-1.172,1.515-1.571,2.144c-0.2,0.857-0.114,0.6-1.572,2.43l-3.4,4.4
	c-0.144,0.2-0.229,0.285-0.429,0.457l-6.716,7.83c-1.515,1.658-0.886,1.516-2.058,1.887l-6.744,8.202
	c-2.229,2.258-0.229,0.4-2.172,2.887l-2.572,3.2c-0.286,0.372-0.114,0.058-0.229,0.372c0,1.114,0.057,0.942-0.571,1.485
	l-3.516,3.772c-0.028,0.058-0.2,0.2-0.229,0.258c-0.028,0-0.286,0.343-0.314,0.399c-0.657,0.857-1.058,1.286-1.601,1.829
	c-2.2,2.173-1.571,2.229-3,3.772c-2.344,2.516-1.058,2.687-3.4,3.602c-0.887,0.199,0.143,0.028-0.629,0.314
	c-0.258,0.856-1.029,1.485-2.029,3.058c-0.258,0.399,0.114-0.114-0.2,0.285c-1,1.286-1.886,2.744-3.115,3.916
	c-1.629,1.6-3.544,4.572-5.458,6.63c-1.286,1.372-2.058,3.486-3.887,4.344l-0.629,0.801c-0.343,1.6,0.371-0.372-0.485,1.2
	l-1.801,2.372c-0.914,0.886-0.543,0.886-1.144,1.743c-0.714,1-0.656,0.2-1.371,1.257c-1.515,2.258-0.086,0.657-1.887,2.486
	l-2.343,2.973c-0.543,0.485,0.028,0.257-0.972,0.457c-0.686,0.601-1.515,2.314-2.029,2.601c-0.314,1.887-0.343,0.372-2.114,2.687
	c-0.886,1.144-0.915,1.543-1.915,1.801l0.029,0.628c-0.172,0.801-3.001,4.001-3.516,4.544c-0.801,0.915-1.229,1.715-1.914,2.43
	c-1.887,1.943-1.115,2.486-2.315,2.029c-0.144,0.828,0.028,0.257-0.429,1.057c-0.057,0.115-0.258,0.458-0.258,0.458
	c-0.256,0.457-0.057-0.086-0.229,0.485c-1.113,2.058-1.485,1.172-2.028,2.144c-0.915-0.4,0.515-0.257-1.458-0.515
	c0,1.086,0,1.801-0.571,2.315c-0.915,0.886-2.486,0.714-3.715,0.886c0.058,0.057,0.143,0.057,0.2,0.172
	c0.285,0.628,4.601,0.485,4.83,0.371c0.828-1,1.914-2.715,3.057-3.258c0.943-2.144,2.43-1.915,4.344-5.688
	c0.372-0.714,1.172-1.343,1.915-1.657c0.343-0.629,1.172-1.229,1.743-1.943c0.887-1.114,3.772-5.401,5.002-6.087
	c0.457-1.829,2.172-2.887,3.086-4.516l3.4-4.772c0.429-0.4,0.172-0.172,0.771-0.458c0.372-0.371,0.915-1.114,1.43-1.657l1.343-1.372
	c0.429-0.314-0.058-0.028,0.571-0.343c0.086-0.6,1-1.571,1.43-1.972c2.172-1.943,0.942-1.372,2.114-2.715
	c0.429-0.457,0.886-0.743,1.2-1.2c0.2-0.972,1.258-2.4,2.115-3.029c0.027-0.028,0.143,0,0.143-0.086
	c0.028-0.086,0.143-0.058,0.199-0.086c-0.027-0.114-0.686,0.801,0.058-0.8l2.572-2.572c-0.058-1.086,0.515-1.2,1.343-2.286
	c0.914-1.172,1.344-1.372,1.658-2.001c0.399-0.857,0.285-0.886,0.885-1.485l6.603-7.917c1.914-2.2,4.972-5.601,6.458-7.858
	l0.601-0.829c0.028-0.028,0.085-0.086,0.114-0.143l1.571-1.544c1.372-1.257,0.314-1.286,1.601-2.229
	c0.028-0.028,0.086-0.058,0.143-0.114c1.086-0.801,1.658-1.658,2.63-2.915l8.744-10.374c0.601-0.972,1.344-2.115,2.344-2.601
	l0.743-0.629c0.686-2.087,2.657-3.344,3.801-4.915c1.2-1.658,2.314-2.944,3.715-4.516c1.886-2.144,2.372-3.229,3.572-4.658
	c1.2-1.486,2.572-2.744,3.743-4.459l5.688-6.887c1.114-1.344,4.087-4.43,4.4-5.973l1.801-4.316c0.771-1.371,0.286-2.314,1.515-2.572
	c0-0.942,3.201-7.315,3.943-9.373l3.687-9.431c0.114-1.858,1.229-2.315,1.001-3.916c-0.743,0.4-1.344,1.601-1.887,2.601
	c-1.314,2.315-0.171,2.429-1.715,3.058L126.6,45.7l-1.515,4.058c-0.258,0.543-0.229,0.8-0.457,1.315
	c-0.286,0.628-0.458,0.399-0.715,0.914c-0.4,0.715-0.086,0.771-0.343,1.4l-1.458,1.828c-1.285,0.029-1.914,0.058-2.601-1.143
	c-1.257-0.114-2.601-1.715-2.829-3.115c-0.514-3.115,1.2-2.801,0.771-5.001c-1.914-0.485-1.943,0.543-4-0.601
	c-0.943-0.543-2.029-1.028-2.287-1.914c-1.314-0.801-0.485-1.201-1.257-2.516c-0.943-1.686-0.372-0.113-0.629-2.801
	c-0.914-0.257-1.229-0.285-2.029,0.029c-0.857,0.343-0.514,0.486-1.229,0.686c-0.4,0.115-3.201,0.2-3.744,0.143
	c-1.057-0.113-1.828-1.028-2.314-1.686c-0.485-0.629-0.886-1.314-0.686-2.344c0.2-1.028-0.086-0.457,0.429-0.857
	c0.285-1.086,2.028-1.715,3.029-2.344c0.686-0.457,2.258-1.972,3.229-2.115c0.601-1.2,0.086-0.4,1.029-1.086
	c0.485-0.343,0.571-0.457,0.972-0.743c2.172-1.657,4.43-2.8,6.63-4.229l3.286-2.286c0.429-0.257,0.601-0.458,0.972-0.771
	c0.4-0.372,0.629-0.543,1.058-0.8l0.601-0.429c0.028-0.029,0.085-0.086,0.114-0.114l2.715-1.4c0.143-0.915,0.114-0.515,1.257-1.429
	l1.229-1.486C124.542,14.864,124.856,15.035,123.771,15.235L123.771,15.235z"/>
<path fill-rule="evenodd" clip-rule="evenodd" fill="#222222" d="M18.861,128.606c-0.485,0.971-2.172,3.058-3.258,3.543l0.171-0.171
	c-0.428,2.229-2.485,3.372-3.657,4.887c-0.857,1.114-2.829,4.115-3.772,4.458c-0.028,1.372,0.172,0.229-0.543,1.172
	c-0.857,1.2-2.086,3.087-3.144,4.115c-1.857,1.829-1.2,1.657-3.372,3.887c-1.515,1.601-0.057,2.857,0.143,4.258
	c0.229,1.858,0.143,1.372,0.715,2.887c0.4,0.972,0.2,2.486,0.429,3.001c0.372,0.057,0.657-0.143,1.114,1.143
	c0.143,0.429,0.229,1.115,0.314,1.658c0.143,1.086-0.057,0.657,0.486,1.314l1.114,1.258c0.028,0.028,0.085,0.085,0.114,0.114
	l5.344,4.115c1.029,0.743,0.543,0.686,1.515,1.4c3.344,2.515,1.858,2.457,6.974,2.143c0.828-0.057,1.514-0.028,2.143-0.428
	c-2.057-1.115-4.458,0.657-7.201-0.943c-1.486-0.829-1.258-1.286-1.344-1.801c-0.371-0.8-0.428-0.028-0.6-1.143l-0.771,0.114
	c-0.344-0.829,0.057-0.144-0.543-0.687c-0.457-0.399-0.371-0.399-0.743-0.743c-1.372-1.4-3.858-2.857-4.144-3.801
	c-1.457,0.2-1.943-3.887-2.43-5.115c-0.514-1.314-0.257-1.887-0.457-3.286c-0.258-1.715-0.857-0.601-0.801-2.887
	c2.287-0.972,4.088-0.4,7.945-0.457c5.63-0.058,2.829-0.601,8.916,3.857c0.572,0.429,0.115,0.086,0.486,0.457l0.543,0.458
	c1,0.714,3.115,2.343,3.372,3.344c0.2,0.686,0.771,3.086,0.8,3.458l0.429,1.429c1.172-0.515,0.886,0.8,0.743-1.229
	c-0.029-0.457-0.258-1.285-0.343-1.771c-0.314-1.886-0.429-1.886-0.058-3.744c-1.543-0.028-1.571,0.229-2.172-1.114
	c-0.314-0.4-1.2-1.286-1.857-1.771c-0.715-0.515-0.457-0.229-1.114-0.829c-0.515-0.457-0.629-0.571-1.028-0.771
	c-0.715-0.058-0.915-0.114-1.486-0.571c-2.258-1.829-1.458-2.087-1.201-3.887c-1.742,1-0.371,1.429-3.114,1.429
	c-4.516,0.057-0.687-0.743-7.173,0.057c-2.486,0.286-1.201,0.258-2.772-0.8c0.485-1.629,0.772-0.601,0.972-1.915
	c0.314-0.199,0.486-0.057,0.857-0.114c0,0,0.801-1.028,1.058-1.371c0.257-0.372,0.2-0.4,0.515-0.687
	c0.656-0.629,0.199-0.285,0.771-0.457c-0.029-1.172,0-0.571,1.486-2.372c0.6-0.714,1.171-1.429,1.771-2.114
	c0.571-0.715,1.114-1.43,1.6-2.229c0.029-0.086,7.373-8.431,8.373-10.26c0.486-1.2,2.145-2.801,3.487-4.801
	c0.628-0.915,0.371-0.286,1.314-1.315c0.399-0.457,0.771-0.942,1.171-1.485c0.458-0.572,0.887-0.943,1.229-1.458l1.229-1.4
	c0.342-0.371,0.514-0.371,0.6-1.028c0.143-1.258,0.114-0.457-0.285-1.058c-1.258,0.314-0.314-0.229-0.973,0.715
	c-1.914,2.601-0.886,0.657-2.086,2.286c-0.314,0.429-0.743,1.229-1.172,1.686l-3.857,4.373c-0.486,0.571-0.857,0.972-1.344,1.571
	C19.719,127.892,19.661,128.206,18.861,128.606L18.861,128.606z"/>
<path fill-rule="evenodd" clip-rule="evenodd" fill="#F2CB97" d="M20.891,163.015l-0.144-0.058l0.314,0.372
	c1.458,2.028-0.028,4.001-0.428,4.315c-0.457,0.314-2.001,0.6-2.772,0.543l-4.63-2.001c-2.2-1.457-2.172-1.829-3.543-3.258
	c-0.029-0.058-0.829-0.829-1.144-1.572c-0.714-1.6-1.515-6.801,3.772-5.829l1.114,0.485c2.372,1.629,2.858,0.771,5.487,3.715
	C20.005,160.929,20.891,161.757,20.891,163.015L20.891,163.015z M4.058,155.184c-0.085,1.315,0.516,3.544,0.83,4.772l1.257,3.887
	c0.229,0.515,0-0.257,0.2,0.515c1.457-0.171,2.143,1.486,3.258,2.229c0.543,0.371,0.457,0.343,0.828,0.657l1.572,1.286
	c0.857,0.571,0.486,0.285,0.543,0.943c1.086-0.058,2.686,1.4,3.344,2.2h9.487c0.4-2.486-1.028-2.115-1.114-6.859
	c-0.629-0.313-0.715-0.914-0.801-1.371c-0.085-0.687-0.057-1.115-0.257-1.515c-1.515-2.973-1-0.915-2.629-3.144
	c-0.657-0.857,0-0.286-1.114-0.801c-0.457-0.229-1.915-1.143-2.344-1.515l-1.857-2.029c-0.972-0.914-2.144-0.485-3.458-0.485
	c-0.857,0-0.972-0.2-1.687-0.172c-0.629,0.029-1.828,0.687-3.143,0.258c-0.857-0.258-0.457-0.144-0.973-0.829l-2,0.801
	L4.058,155.184z"/>
<path fill-rule="evenodd" clip-rule="evenodd" fill="#222222" d="M51.697,105.771c-1,0.543-5.201,6.03-6.458,7.603
	c-0.629,0.771-0.258,0.6-1.258,0.942c-0.057,0.543-1.973,2.801-2.486,3.315c-0.6,0.601-2.314,2.344-2.516,3.029
	c-0.199,1.029-0.229,0.8-1.028,1.687l-0.743,0.942c-1.028,1.943-0.485,0.771-1.857,2.229l-1.543,1.857
	c-0.515,0.601-0.486,0.486-0.943,1.2c-1.686,2.801-1.086,1.314-1.972,2.486l-4.001,5.145c-0.943,1.571-3.572,3.43-3.943,4.772
	c-0.229,0.829-1.029,1.657-1.658,2.429c-0.457,0.543-1.485,1.201-1.314,2.144c0.314,0.144-0.086,0.144,0.43,0.058
	c0.942-0.2,0.942-0.629,1.171-0.943c0.915-1.314,1.571-1.857,2.458-3.344l0.914-1.286c0.572-0.429,0-0.114,0.771-0.371l6.23-7.345
	c0.657-0.801,1.029-1.629,1.886-2.286c0.515-0.4-0.257,0.028,0.571-0.372c0.458-0.686,0.43-0.714,1.172-1.485
	c0.629-0.658,0.629-0.972,1.258-1.4c0.371-1.286,1.143-1.715,1.943-2.915c0.571-0.801,2.229-2.344,4.115-5.087
	c0.314-0.429,1.543-1.744,2.344-1.973c0.085-0.686,0.314-0.886,0.857-1.571l2.086-2.744c1.457-2,2.457-2.686,3.4-3.857
	c0.657-0.857,1.4-1.857,1.914-2.544c0.372-1.114,0.543-1.028,1.086-1.743c0.744-1.028,0.258-0.571,1.201-1.457
	c1.028-0.943,1.857-1.829,2.143-3.487c-0.8,0.286-0.686,0.258-1.229,0.772C56.155,100.685,52.526,105.172,51.697,105.771
	L51.697,105.771z"/>
<path fill-rule="evenodd" clip-rule="evenodd" fill="#222222" d="M47.268,94.598l-3.372,3.915c-0.514,0.629-1.143,1.344-1.629,2.001
	l-6.63,7.888c-0.257,0.429-0.485,0.714-0.857,1.086c-0.2,0.2-0.257,0.257-0.515,0.457c-0.314,0.229-0.086,0.086-0.429,0.257
	l0.172,0.886c-0.715,0.429-1.601,1.516-2.258,2.43c-0.829,1.114-1.629,1.543-1.743,3.201c0.086-0.029,0.2-0.172,0.258-0.086
	c0.057,0.057,0.371-0.114,0.543-0.172c0.485-0.114,0.199-0.057,0.771-0.143l4.857-5.916c0.914-1.143,0.686-1,1.829-1.801
	c0.171-0.514,1.829-2.314,2.4-2.943c0.485-0.543,0.8-0.914,1.2-1.457c0.457-0.657,0.915-1.058,1.201-1.458
	c0.656-1.371,7.258-8.916,7.544-9.431c0.886-2.029,3.887-4.115,4.2-6.716c-1.857,1.486-2.285,1.886-3.801,4.001l-2.6,2.972
	C47.726,94.512,48.211,94.226,47.268,94.598L47.268,94.598z"/>
<path fill-rule="evenodd" clip-rule="evenodd" fill="#4C4D4E" d="M127.343,13.349c0.828-0.657,0.6-0.543,1.686-0.515
	c-0.057,0.086-0.086,0.171-0.114,0.229c-0.8,1.4-1.114,1.543-2.601,1.486L127.343,13.349z M132.887,9.72
	c1.857-0.057,3.314-1.829,4.058-2.543c0.686-0.629,0.857-0.486,1.829-0.458c-1.058,2.715-4.401,2.401-4.601,4.687l-0.172,0.972
	c-4.572-0.257-1.886,0.057-4.601,0.085C130.429,10.405,131.429,12.177,132.887,9.72L132.887,9.72z M140.202,4.375l-0.629-0.057
	c-0.514,1.257-4.458,3.629-5.858,4.687l-0.828,0.715c-0.915,0.085-1.029,0.657-2.544,1.086c-1.343,0.372-3.229,2.029-4.344,2.858
	c-0.515,0.4-0.485,0.372-1.143,0.743l-1.086,0.829c1.086-0.2,0.771-0.372,2.058-0.372l-1.229,1.486
	c-1.143,0.915-1.114,0.515-1.257,1.429c1.429-0.171,2.058-1.486,3.601-2.201l1.372-0.829c1.257-0.972,0.257-0.486,2.086-1.515
	c3.801-2.086,6.802,2.658,6.887,3.715c1.172,0.857,0.114,2.887-0.257,3.858c-0.4,1-1.086,2.858-1.286,3.572l-1.571,3.258
	c-0.372,0.6-1.286,2.944-1.43,3.601c1.544-0.629,0.4-0.743,1.715-3.058c0.543-1,1.144-2.201,1.887-2.601
	c0.229,1.601-0.887,2.058-1.001,3.916l2.458-5.059c0.114-1.4,0.657-1.715,1.172-3.086c-0.715,0.429,0.028-0.143-0.486,0.4
	c-0.057,0.086-0.285,0.372-0.343,0.458c-0.743,1.171-0.429,1.714-1.229,2.515c-0.343-0.543-0.257-0.857-0.229-1.086
	c0-0.028,0.229-0.771,0.229-0.8c1.857-5.087,2.743-3.115,0.086-8.002c-1.115-2.029-1.829-0.915-1.887-1.972
	c0.429-0.286-0.514-0.114,0.629-0.257c1.086-0.143-0.771-0.2,0.4,0c1.2,0.229,0.457,0.972,2.058,1.4l-0.829-1.058
	c-0.171-0.2-0.515-0.486-0.771-0.657c-0.571-0.429-1.314-0.714-1.886-1.029l1.371-1.314c0.114-0.2,2.286-1.4,2.915-1.943
	c1-0.915,1.801-1.286,2.687-1.915c0.429-0.572-0.657-0.372,0.771-0.572c1.086,0.2,0.686,0.743-0.143,2.429
	c-0.743,1.515-0.515,2.572-3.029,6.63l-0.972-0.572c1,4.573,4.372-5.944,4.829-6.716c0.771-1.315,1.601-1.372,1.515-2.83
	c-3.943-0.229-2.571,1.601-5.829,2.201c0.428-1.458,1-1.257,1.942-2.201c0.486-0.486,0.172-0.114,0.486-0.6
	c-0.058,0.029-0.143,0.086-0.2,0.086L140.202,4.375z"/>
<path fill-rule="evenodd" clip-rule="evenodd" fill="#B6B6B6" d="M89.849,61.646l-3.516,4.372c-0.371,1.029-0.514,0.857-1.828,2.029
	l-0.344,0.258c-0.114,0.657-0.371,0.571-1.229,1.715c-0.371,0.514-0.943,1.143-1.429,1.771c-0.429,0.572-0.886,1.229-1.372,1.743
	c-2.943,3.229-1.2,1.571-2.629,3.401c-0.028,0.028-0.086,0.086-0.114,0.143l-0.2,0.258c-0.057,0.027-0.086,0.085-0.114,0.113
	l-0.972,1.258c-0.571,0.771-2.172,2.801-2.743,3.086c-0.028,0.058-0.086,0.086-0.086,0.201l-0.429,0.686
	c-0.914,1.229-1.115,0.886-2.058,2.286l-1.743,2.344c0,0-0.429,0.313-0.457,0.343c-0.4,0.229-0.086,0.057-0.629,0.343
	c-0.057,1-3.772,5.401-4.63,6.087c-0.399,1.172-1.601,2.086-2.343,3.115c-0.915,1.314-1.543,1.771-2.458,2.887
	c-0.714,0.914-0.943,1.571-2.258,3.058l-2.772,2.943c-0.514,0.687-1.257,1.687-1.914,2.544c-0.943,1.172-1.943,1.857-3.4,3.857
	l-2.086,2.744c-0.543,0.686-0.772,0.886-0.857,1.571c0.885-0.143,1.086-0.657,1.686-1.457c0.143-0.2,0.143-0.229,0.314-0.429
	c1.429-1.687,0.886-1.429,1.686-2.2l3.83-4.401c1.086-1.344-0.172-0.857,1.486-1.715c1.113-0.571,0.714-0.829,1.229-1.601
	c0.6-0.886,0.886-0.457,1.743-1.857l5.572-7.287c0.028-0.058,0.314-0.314,0.343-0.372l1.887-1.972
	c1.486-1.429,2.314-3.315,3.457-4.802c0.83-1.057,0.572-0.143,2.858-3.4c0.942-1.314,0.915-0.629,1.629-1.543
	c0.515-0.629,0.229-0.829,1.429-1.973l1.058-1.086c1.343-1.914,3.001-3.658,4.115-5.602c0.771-1.285,0.457,0.287,1.972-2.143
	c1.086-1.744,5.315-6.345,7.087-8.116l1.258-1.886c0.771-1.172,0.771-0.943,1.258-1.43c0.6-0.6,0.399-0.114,0.485-1.4l-0.285,0.371
	C90.677,61.332,90.648,61.189,89.849,61.646L89.849,61.646z"/>
<path fill-rule="evenodd" clip-rule="evenodd" fill="#222222" d="M141.26,3.861c-0.314,0.486,0,0.114-0.486,0.6
	c-0.942,0.943-1.515,0.743-1.942,2.201c3.258-0.6,1.886-2.429,5.829-2.201c0.086,1.458-0.743,1.515-1.515,2.83
	c-0.457,0.771-3.829,11.289-4.829,6.716h-0.114c-1.601-0.429-0.857-1.172-2.058-1.4c-1.172-0.2,0.686-0.143-0.4,0
	c-1.143,0.143-0.2-0.028-0.629,0.257c0.058,1.057,0.771-0.057,1.887,1.972c2.657,4.887,1.771,2.915-0.086,8.002
	c0,0.029-0.229,0.772-0.229,0.8c-0.028,0.229-0.114,0.543,0.229,1.086c0.8-0.8,0.485-1.343,1.229-2.515
	c0.058-0.086,0.286-0.372,0.343-0.458c0.515-0.543-0.229,0.029,0.486-0.4c0.743-1.286,0.257-2.715,2.343-6.43
	c1.63-2.887,2.258-5.573,3.772-8.316c0.457-0.829,0.657-1.715,0.172-2.601c1.229-0.543,0.743,0.543,1.4-0.943
	c0.257-0.628,0.285-1.486,0.257-2.229c-1.829-0.229-1.8,0.629-2.372,1.858C141.202,2.889,143.518,2.861,141.26,3.861L141.26,3.861z"
	/>
<path fill-rule="evenodd" clip-rule="evenodd" fill="#222222" d="M75.273,96.398c-0.457,0.686-1.429,1.457-1.743,2.286
	c-0.742,2.343-5.887,6.573-6.258,8.659c0.629,0.114,0.771,0,0.828-0.028l0.943-0.601c2.543-2.229,3.772-4.772,5.687-6.659
	c1.829-1.857,2.858-3.543,4.43-5.486c0.4-0.515,0.687-0.715,1.2-1.229c0.943-1,1.572-2.172,2.058-2.743
	c0.286-0.343,0.372-0.343,0.715-0.771l3.743-4.572c0.486-1.287,0.601-0.715,0.887-2.145c-1.058,0.029-1.229,0.029-1.915,0.973
	c-1.086,1.486-0.028,0.6-1.629,2.258c-2.086,2.143-3.286,4.772-7.259,8.459c-0.657,0.6-0.4,0.6-0.686,0.972
	C75.731,96.483,76.046,96.198,75.273,96.398L75.273,96.398z"/>
<path fill-rule="evenodd" clip-rule="evenodd" fill="#B6B6B6" d="M98.25,71.449c-0.343,1.114-3.458,4.229-3.915,4.887
	c-1.371,2.029-0.943,1.058-2.314,2.601c-0.715,1.572-4.458,5.716-5.145,6.316l-3.743,4.572c-0.343,0.429-0.429,0.429-0.715,0.771
	c-0.485,0.571-1.114,1.743-2.058,2.743c-0.514,0.515-0.8,0.715-1.2,1.229c-1.571,1.943-2.601,3.629-4.43,5.486
	c-1.914,1.887-3.144,4.43-5.687,6.659l-0.172,0.829c-2.029,0.8-1.285,1.143-2.457,2.829c-0.943,1.372-1.973,1.915-2.4,3.4
	c1.143-0.371,0.428-0.085,1.543-1.343c0.457-0.515,0.943-0.943,1.343-1.572c0.485-0.686,0.485-1.171,0.972-1.686
	c0.801-0.829,0.857-0.229,1.515-1.4c0.743-1.344,1.229-1.486,2.515-3.058l6.201-7.574c0.601-0.657,0.829-0.714,1.315-1.629
	c0.571-1.114,0.857-0.972,2.543-2.972c0.601-0.686,0.657-1.114,1.2-1.715c0.429-0.485-0.143,0.229,0.372-0.371l1-1.144
	c0.942-0.743,0.6-0.657,1.172-1.515l0.972-1.258c0.028-0.028,0.057-0.113,0.085-0.143l0.687-0.914
	c0.343-0.4,0.371-0.486,0.743-0.771c3.2-2.801,1.229-1.372,3.886-4.573c0.172-0.2,0.029,0,0.314-0.399
	c0.114-0.144,0.144-0.229,0.314-0.43l2.001-2.4c0.686-0.886,0.6,0.029,1.972-2.057l0.657-0.83c1.601-1.714,1.058-1.771,1.629-2.457
	c0.114-0.143,0.171-0.143,0.371-0.344c1.229-1.086,1.857-2.172,2.943-3.371c1.458-1.602,2.287-2.145,2.43-3.602
	c-0.058,0.029-0.143,0.086-0.172,0.143c-0.057,0.029-0.143,0.086-0.171,0.144c-0.058,0.058-0.258,0.229-0.314,0.257
	c-0.314,0.344-0.144,0.172-0.343,0.429l-3.83,4.602c-0.2,0.257-0.571,0.743-0.743,0.914L98.25,71.449z"/>
<path fill-rule="evenodd" clip-rule="evenodd" fill="#4C4D4E" d="M23.319,157.756c0.601,1.344,0.629,1.086,2.172,1.114
	c-0.371,1.858-0.257,1.858,0.058,3.744c0.085,0.486,0.313,1.314,0.343,1.771c0.143,2.029,0.429,0.715-0.743,1.229l-0.429-1.429
	c0.114,1.857,2.115,6.201,1.286,7.688c-0.857,1.515-5.829,0.6-7.659,0.743c-2.857,0.229-2.2,0.143-2.515-0.429
	c-1.286-0.058-1.657-1.144-2.687-1.572c0.086,0.515-0.143,0.972,1.344,1.801c2.743,1.601,5.145-0.172,7.201,0.943
	c-0.629,0.399-1.314,0.371-2.143,0.428c-5.115,0.314-3.63,0.372-6.974-2.143c-0.972-0.715-0.485-0.657-1.515-1.4l-5.344-4.115
	c-0.029-0.029-0.086-0.086-0.114-0.114l-1.114-1.258c-0.543-0.657-0.344-0.229-0.486-1.314c-0.086-0.543-0.172-1.229-0.314-1.658
	c-0.457-1.285-0.742-1.086-1.114-1.143c0.171,1.314,0.286,1.028,0.628,2c0.287,0.772,0.229,1.4,0.314,2.286
	c0.458,0.314,0.344,0.601,0.887,1.087l1.886,1.515c0.687,0.514,1.172,0.714,1.429,1.171c0.658,0.029,2.943,1.858,3.63,2.458
	c6.144,5.287,2.286,2.744,14.746,3.144c2.114,0.058,3.029-1.343,4.515-3.829c-1.143,0.543-2.229,2.258-3.057,3.258
	c-0.229,0.114-4.545,0.257-4.83-0.371c-0.058-0.115-0.143-0.115-0.2-0.172c1.229-0.172,2.8,0,3.715-0.886
	c0.571-0.515,0.571-1.229,0.571-2.315c1.973,0.258,0.543,0.114,1.458,0.515c0.543-0.972,0.915-0.086,2.028-2.144
	c-0.686,0.2-0.371,0.172-1.086,0.886c-0.285,0.286-0.514,0.486-0.942,0.629c-0.714-0.771-0.657-1.715-1.229-3.001
	c-0.057-0.171-1.485-5.658-1.314-6.744c0.2-1.429,0.686-0.4,1.83-2.286c-1.772,0.515,0.514,0.515-1.973,0.743l0.543-1.572
	c-0.715,0.429-0.828,0.771-1.715,1.344c-0.4-0.229-0.114-0.086-0.485-0.286C23.491,157.842,23.978,158.07,23.319,157.756
	L23.319,157.756z"/>
<path fill-rule="evenodd" clip-rule="evenodd" fill="#222222" d="M58.984,116.546c-2.058,1.771-5.286,6.401-7.173,8.717
	l-1.344,1.086c-0.057,0.057-0.457,0.628-0.514,0.714c-0.344,1.172-0.515,0.657-0.743,1.629c-0.942,2.144-1.915,1.086-2.086,3.744
	c1.972-0.8,3.2-3.458,3.886-4.115c0.058-0.028,0.115-0.086,0.172-0.114c0.572-0.457-0.571,0.143,0.601-0.314
	c0.257-0.2,0.657-0.686,0.914-0.972c1.801-1.887,1.114-1.857,2.972-3.572c1.115-1.058,3.545-3.744,3.944-4.83
	c0.257-1.371,0.114-0.457,1.314-2.2c0.171-0.286,4.144-3.858,4.344-6.059c-1.458,0.4-0.314-0.114-1.314,0.828l-0.687,0.743
	c-0.543,0.772-0.628,0.887-1.285,1.629C60.728,114.889,61.671,115.06,58.984,116.546L58.984,116.546z"/>
<path fill-rule="evenodd" clip-rule="evenodd" fill="#4C4D4E" d="M112.11,51.016c-0.143,0.628-0.2,0.628-1.086,1.4
	c-0.028,0.028-0.086,0.058-0.143,0.114l-4.658,5.944c-0.601,0.8-1.144,1.114-1.629,1.771l-4.458,5.688
	c-0.4,0.886-2.4,3.114-3.115,3.915l-2.344,3.229c-0.828,1.114-1.629,1.343-2.086,2.429c1.114,0,0.686-0.143,1.715-1.343l4.001-5.201
	c0.343-0.458,0.371-0.4,0.714-0.743c3.059-3.001,2.772-3.516,4.059-5.115c0.914-1.115,0.028-0.43,1.4-0.801
	c-0.058,0.972,0.057,0.943-0.429,1.744l-0.801,1.113c-0.485,0.629-1.343,1.287-1.857,1.801c-0.343,0.344-0.543,0.515-0.8,0.887
	l-2.344,3.601l0.886-0.715c0.172-0.171,0.543-0.657,0.743-0.914l3.83-4.602c0.199-0.257,0.028-0.085,0.343-0.429
	c0.057-0.028,0.257-0.199,0.314-0.257c0.028-0.058,0.114-0.114,0.171-0.144c0.029-0.057,0.114-0.113,0.172-0.143l-0.086,0.229
	c0.314-1.114,0.229-1,1-1.771c1.314-1.286,1.286-1.601,2.801-2.943c0.058-0.029,0.114-0.086,0.143-0.115l0.286-0.256
	c0.143-1.001-0.143,0.085,0.114-0.544c0.172-0.371,0.028-0.085,0.286-0.457l1.743-1.915c0.571-0.6,0.543-0.8,1.086-1.343
	c0.743-0.743,0.457-0.857,1.086-1.144l0.543-1.343c2.4-0.171,1.2,1.171,3.286,2.172c-0.429-1.515-0.485-0.457-1.429-1.972
	c-0.485-0.801-0.657-1.086-1.915-1.201c-0.742,2.43-1.543,2.63-3.029,4.23l-0.657,0.8c-0.028,0.058-0.085,0.086-0.114,0.144
	l-0.314,0.371c-1.743,2.172-0.914,1.686-2.058,2.771c-1.714,1.602-0.371,1.744-2.972,2.572c0-1.258,0.314-1.629,1.029-2.344
	c0.628-0.6,1.143-1.571,2.886-3.371l0.943-1.201c1.028-1.086,0.686-0.143,1.2-1.343l0.2-0.543c0.657-1.486-0.915,0.714,0.6-0.743
	l1.4-1.286c0.857-0.857,0.687-0.972,1.286-1.886c0.2-0.286,0.4-0.515,0.657-0.801c0.028-0.028,0.086-0.086,0.114-0.114
	c0.058-0.058,0.2-0.171,0.229-0.2c0.258-0.229,0.2-0.143,0.314-0.257c-0.886-1.4-2.486-0.743-3.972-2.458
	c-0.772-0.943-0.658-0.943-1.658-1.114c0.457,1.314,2.115,2.372,3.43,2.915c0.543,0.2,0.8,0.229,1.429,0.514
	C114.254,49.072,112.996,50.644,112.11,51.016L112.11,51.016z"/>
<path fill-rule="evenodd" clip-rule="evenodd" fill="#4C4D4E" d="M56.069,84.28c0.143-0.086,0.143-0.057,0.4-0.314
	c0.258-0.257-0.086-0.085,0.314-0.371c0.771-0.629,0.199-0.285,1.229-0.486c-0.229,1.315-0.543,1.801-1.686,2.145
	C56.069,84.767,55.955,85.909,56.069,84.28L56.069,84.28z M64.356,74.021l-0.771,0.172c-0.828,0.914-1.742,2.516-2.715,3.059
	c-0.285,1.028-1.686,2.686-2.457,3.601c-1.058,1.257-2.372,2.544-2.344,3.429c-0.943,0.314-0.485,0.572-2.515,2.344l-5.887,7.202
	c-0.372,0.657-0.086,0.143-0.4,0.771c0.943-0.372,0.458-0.086,1.144-1.029l2.6-2.972c1.516-2.115,1.943-2.515,3.801-4.001
	c-0.313,2.601-3.314,4.687-4.2,6.716l1.058-1.086c1.114-1.4,0.914-0.686,2.572-3.201c1-1.515,2.199-2.686,3.572-4.201l2.886-3.857
	c0.372-0.371,0.114-0.114,0.485-0.515c0.715-0.829,2.973-3.63,3.887-4.087c0.086-0.199,1.115-1.743,1.229-1.914
	c0.801-1.458,1.602-2.287,2.572-3.459c0.801-0.971,2.172-2.2,2.544-3.486l-0.629,0.543c-0.144,0.143-0.171,0.286-0.399,0.601
	l-2.029,2.286c-0.229,0.285-0.258,0.343-0.43,0.543c-0.027,0.057-0.171,0.229-0.229,0.286c0,0-0.285,0.286-0.342,0.343
	c-1.314,1.4-2.83,4.144-4.002,4.943c-0.399-0.543-0.257-1,0.144-1.485C64.214,74.679,64.015,75.278,64.356,74.021L64.356,74.021z"/>
<path fill-rule="evenodd" clip-rule="evenodd" fill="#B6B6B6" d="M80.504,57.188c0.571-0.086,0.199,0,0.886-0.543l3.429-4.087
	c0.086-0.114,0.829-1.086,0.943-1.2l2.172-2.458c0.515-0.571,0.571-1,1-1.457c0.372-0.4,0.857-0.571,1.144-0.972l1.801-2.544
	c0.399-0.515,0.8-0.856,1.171-1.257l2.229-2.887c0.028-0.057,0.086-0.114,0.114-0.143c0.028-0.058,0.057-0.115,0.086-0.143
	c0.2-0.314,0.285-0.43,0.514-0.687c0.515-0.571,0.629-0.743,1.715-0.771c0.458,0.657,0.2,0.743,0.601,1.372
	c0.4,0.656,0.657,0.6,1.286,0.942c1.543,0.886,1.057,0.715,3.258,0.943c-0.857,1.571-1.629,2.601-2.887,4.173
	c-1.229,1.543-0.829,1.457-1.486,2.114l-0.742,0.743c-0.172,0.2-0.258,0.258-0.429,0.543c-1.629,2.457-0.829,0.886-2.087,2.258
	c-1.515,1.686,0.086,0.686-2.4,2.887c-0.743,0.656-0.629,1.057-1.058,1.686c-0.028,0.029-0.085,0.086-0.085,0.114
	c-0.801,1.029-0.801,1.001-1.458,1.172l0.229,0.915c1.486-1,1.857-2.315,2.544-2.973c0.314-0.285,0.857-0.629,1.058-0.886
	l3.687-4.802c0.028-0.057,0.085-0.086,0.114-0.113c0.057-0.058,0.229-0.172,0.257-0.229c0.286-0.257,0.172-0.114,0.429-0.457
	l3.001-3.801c0.399-0.657,0.399-0.571,0.886-1.114c0.257-0.286,0.629-0.687,0.886-1.058c1.715-2.572-3.372-1.2-4.772-4.001
	c-0.4-0.8-0.715-3.601-3.515,0.571L82.476,54.388C80.703,56.846,80.246,55.616,80.504,57.188L80.504,57.188z"/>
<path fill-rule="evenodd" clip-rule="evenodd" fill="#B6B6B6" d="M99.479,86.596c1.314-0.144,0.571,0.085,1.371-1.058l8.573-10.06
	c0.172-0.257,0.258-0.457,0.486-0.743c0.114-0.172,0.285-0.4,0.4-0.543l2.343-2.715c0.028-0.028,0.086-0.086,0.114-0.143
	c0.028-0.029,0.086-0.086,0.114-0.143c1.2-1.544,1.258-1.943,2.858-3.029c0.028-0.029,0.085-0.058,0.114-0.086
	c0.057-0.029,0.114-0.058,0.143-0.086c0.914-0.743-0.571,0.686,0.229-0.229c0.571-0.629,0.172-0.143,0.4-0.715
	c0.028-0.057,0.028-0.143,0.057-0.199c0.4-0.973,3.344-4.316,4.001-5.002l3.43-4.572c0.914-1.029,0.371-0.286,0.857-1.543
	c0.028-0.058,0.057-0.115,0.085-0.172c0.029-0.057,0.058-0.114,0.086-0.172c0.029-0.057,0.144-0.229,0.172-0.285
	c0.143-0.286,0.2-0.4,0.286-0.658c0.199-0.6,0.199-1.285,0.457-1.828c0.257-0.629,1.829-2.544,1.657-4.316
	c-1.229,0.258-0.743,1.201-1.515,2.572l-1.801,4.316c-0.313,1.543-3.286,4.629-4.4,5.973l-5.688,6.887
	c-1.171,1.715-2.543,2.973-3.743,4.459c-1.2,1.429-1.687,2.515-3.572,4.658c-1.4,1.571-2.515,2.857-3.715,4.516
	C102.137,83.252,100.165,84.509,99.479,86.596L99.479,86.596z"/>
<path fill-rule="evenodd" clip-rule="evenodd" fill="#868686" d="M64.043,129.521l0.657-0.314c0.715-0.429,0.571-0.457,1.086-1.286
	l1.029-1.372c0.457-0.371,0.027,0.115,0.57-0.428c0.287-0.286,0.658-0.943,0.801-1.229c0.285-0.829,1.058-1.715,1.572-2.229
	c0.428-0.458,0.514-0.544,0.885-1.087c0.229-0.343,0.314-0.514,0.687-0.914l3.344-3.744c0.429-1.143,6.001-7.001,7.173-8.545
	c0.657-0.857,0.429-1.028,1.258-1.914c2.286-2.486,1.571-2.772,3.314-2.944c0.172-2.172,2.172-2.314,3.087-4.144
	c0.543-1.086,5.286-6.83,6.287-7.773c0.686-0.686,1.028-1.229,1.6-2c1.286-1.715,1.229-1.086,1.344-2.372
	c-1,0.485-1.743,1.629-2.344,2.601l-8.744,10.374c-0.972,1.257-1.544,2.114-2.63,2.915c-0.057,0.057-0.114,0.086-0.143,0.114
	c-1.286,0.942-0.229,0.972-1.601,2.229l-1.571,1.544c-0.029,0.057-0.086,0.114-0.114,0.143l-0.601,0.829
	c-1.486,2.258-4.544,5.658-6.458,7.858l-6.603,7.917c-0.6,0.6-0.485,0.628-0.885,1.485c-0.314,0.629-0.744,0.829-1.658,2.001
	C64.558,128.32,63.985,128.435,64.043,129.521L64.043,129.521z"/>
<path fill-rule="evenodd" clip-rule="evenodd" fill="#222222" d="M13.688,165.387c1.029,0.257,0.973,0.285,2.059,0
	c-1.172-0.372-0.943-0.543-1.687-1.486c-1.086-0.229-2.001-1.458-2.715-2.172c-1.001-1.029-1.486-2.486-0.972-3.858
	c1.801-0.657,3.543,0.343,4.602,1.458l2.428,2.086c0.715,0.543,0.572-0.114,0.715,1.058c0.801,0.371,1.344,1.343,1.201,2.457
	c-0.229,1.658-1.287,0.915-2.43,1.172c-0.029,1.43,2.601,0.857,3.601,0c0.172-3-0.515-2.943-1.829-4.915
	c-1.943-2.943-1.801-1.657-3.229-3.087l-0.43-0.457c-0.6-0.571-2.828-1.543-4.143-1.486c-2.001,0.086-2.401,1.43-2.172,3.43
	C9.002,162.328,13.06,165.415,13.688,165.387L13.688,165.387z"/>
<path fill-rule="evenodd" clip-rule="evenodd" fill="#222222" d="M79.475,71.62c-0.914,0.687-1.086,1.314-1.915,2.229
	c-0.6,0.657-1.771,1.687-2.229,2.343l-3.772,5.202c-0.628,1.485-0.829,0.457-1.429,2.687c1.657-0.515,1.686-1.486,3.229-2.287
	c0.571-0.285,2.172-2.314,2.743-3.086l0.972-1.258c0.028-0.028,0.058-0.086,0.114-0.113l0.2-0.258
	c0.028-0.057,0.086-0.114,0.114-0.143c1.429-1.83-0.314-0.172,2.629-3.401c0.486-0.515,0.943-1.171,1.372-1.743
	c0.485-0.629,1.058-1.258,1.429-1.771c0.857-1.144,1.114-1.058,1.229-1.715l0.114-1.258c-1.399,0.172-0.628-0.057-1.515,1.115
	C81.989,69.191,80.446,71.249,79.475,71.62L79.475,71.62z"/>
<path fill-rule="evenodd" clip-rule="evenodd" fill="#D5D5D7" d="M33.836,110.201c0.343-0.171,0.114-0.028,0.429-0.257
	c0.258-0.2,0.314-0.257,0.515-0.457c0.372-0.372,0.601-0.657,0.857-1.086l6.63-7.888c0.486-0.657,1.115-1.372,1.629-2.001
	l3.372-3.915c0.314-0.629,0.028-0.114,0.4-0.771l5.887-7.202c2.029-1.771,1.571-2.029,2.515-2.344
	c-0.028-0.885,1.286-2.172,2.344-3.429c0.771-0.915,2.172-2.572,2.457-3.601c-1.086,0.199-0.686,0-1.285,0.942l-7.631,9.002
	c-0.229,0.286-0.199,0.344-0.371,0.601c-0.029,0.058-0.086,0.114-0.114,0.143l-0.343,0.372c-0.229,0.229-0.543,0.571-0.771,0.914
	c-1.516,1.943-0.801-0.057-1.629,1.972c-0.372,0.943-0.943,1.43-1.543,2.115c-1.059,1.2-2.572,2.715-3.459,4.087
	c-0.485,0.743-0.199,0.4-0.828,1.086l-0.829,0.857c-0.543,0.657-0.257,0.629-0.829,1.343c-0.028,0.058-0.086,0.086-0.113,0.144
	l-2.115,2.486c-0.029,0.028-0.086,0.085-0.114,0.143l-1.544,2.058c-0.027,0.028-0.085,0.086-0.113,0.114
	c-1,0.8-0.771-0.028-1.887,1.771l-0.514,0.715c-0.744,1.086-0.344,0.914-1.287,1.144L33.836,110.201z"/>
<path fill-rule="evenodd" clip-rule="evenodd" fill="#222222" d="M92.592,75.507c-0.286,0.229-0.629,0.857-0.972,1.258
	c-0.429,0.515-0.828,0.686-0.943,1.286c-0.371,2.372-1.972,1.286-2.4,4.087c2.458-0.686,2.315-2.83,3.744-3.201
	c1.371-1.543,0.943-0.571,2.314-2.601c0.457-0.657,3.572-3.772,3.915-4.887l2.344-3.601c0.257-0.372,0.457-0.543,0.8-0.887
	c0.515-0.514,1.372-1.172,1.857-1.801l0.801-1.113c0.485-0.801,0.371-0.772,0.429-1.744c-1.372,0.371-0.486-0.314-1.4,0.801
	c-1.286,1.6-1,2.114-4.059,5.115c-0.343,0.343-0.371,0.285-0.714,0.743l-4.001,5.201C93.277,75.364,93.706,75.507,92.592,75.507
	L92.592,75.507z"/>
<path fill-rule="evenodd" clip-rule="evenodd" fill="#222222" d="M38.294,141.98c-0.656,0.429-0.571,1.086-2.229,2.286l-0.371,0.229
	l-0.029,0.2l-2.258,3.344c-1.229,1.486-3.086,3.344-3.686,4.487c-1.229,2.314-2.229,1.715-3.602,4.486l-0.543,1.572
	c2.486-0.229,0.2-0.229,1.973-0.743l2.629-3.372c0.257-0.286,0.171-0.172,0.428-0.572c0.801-1.257,2.486-2.571,3.087-3.771
	c0.143-0.687,0.114-0.4,0.343-0.743c0.143-0.258,0.114-0.144,0.429-0.515c1.515-1.915,5.144-5.83,5.345-7.402
	C38.923,141.752,39.151,141.78,38.294,141.98L38.294,141.98z"/>
<path fill-rule="evenodd" clip-rule="evenodd" fill="#B6B6B6" d="M42.724,139.494l-1.057,0.857l-0.572,0.857
	c-0.172,0.229-0.229,0.257-0.429,0.515c-1.687,2.086-5.058,7.431-6.973,8.402c-0.601,1.2-2.286,2.515-3.087,3.771
	c-0.257,0.4-0.171,0.286-0.428,0.572l-2.629,3.372c-1.145,1.886-1.63,0.857-1.83,2.286c-0.171,1.086,1.258,6.573,1.314,6.744
	c0.572,1.286,0.516,2.229,1.229,3.001c0.429-0.143,0.657-0.343,0.942-0.629c0.715-0.714,0.4-0.686,1.086-0.886
	c0.172-0.571-0.027-0.028,0.229-0.485c0,0,0.201-0.343,0.258-0.458c0.457-0.8,0.285-0.229,0.429-1.057
	c-0.857,0.057-1.086,0.886-2.144,1.743l-0.715,0.457c-0.027-0.057-0.143,0.114-0.229,0.143c0-2.2-0.771-2.857-1.199-6.687
	c-0.144-1.086-0.601-1.315-0.629-1.544c-0.029-0.086-0.086-0.114-0.115-0.171c0.058-0.058,0.144-0.086,0.172-0.144
	c2.543-1.8,5.944-7.659,8.83-10.116l0.516-0.429c0.229-0.286,0.771-1.601,1.8-2.63l1.915-2.429c1.543-2.372,3.801-4.344,4-5.63
	C42.952,139.209,43.238,138.837,42.724,139.494L42.724,139.494z"/>
<path fill-rule="evenodd" clip-rule="evenodd" fill="#868686" d="M6.345,164.357c-0.2-0.771,0.028,0-0.2-0.515l-1.257-3.887
	c-0.314-1.229-0.915-3.457-0.83-4.772c-0.714-0.942-0.485-1.343-0.171-2.143c4.43-0.286,2.229,0.856,4.401,0.371
	c3.029-0.657,1.486-0.314,5.001-0.4c1.343-0.057,1.601,0.372,2.314,1.115l2.515,2.086c1.715,1.114,3.544,3.344,5.316,4.087
	c0.027,1.543,0.742,3.172,0.828,4.515c0.229,0.229,1.972,5.145,1.371,7.146c-1.571,0.399-8.916,0.371-9.802,0.229
	c0.314,0.571-0.343,0.657,2.515,0.429c1.83-0.144,6.802,0.771,7.659-0.743c0.829-1.486-1.172-5.83-1.286-7.688
	c-0.028-0.372-0.6-2.772-0.8-3.458c-0.257-1.001-2.372-2.63-3.372-3.344l-0.543-0.458c-0.371-0.371,0.086-0.028-0.486-0.457
	c-6.087-4.458-3.286-3.915-8.916-3.857c-3.857,0.057-5.658-0.515-7.945,0.457c-0.057,2.286,0.543,1.172,0.801,2.887
	c0.2,1.399-0.057,1.972,0.457,3.286C4.401,160.471,4.888,164.558,6.345,164.357L6.345,164.357z"/>
<path fill-rule="evenodd" clip-rule="evenodd" fill="#B6B6B6" d="M53.726,102.457c1.086-0.286,0.772-0.258,1.344-1.029l7.43-8.688
	c0.201-0.715,0.857-1.2,1.43-1.801c0.657-0.714,0.771-1.114,1.4-1.972c0.742-1,2-2.943,2.972-3.629
	c0.543-1.172,2.144-3.287,3.258-3.944l3.772-5.202c0.457-0.656,1.629-1.686,2.229-2.343c0.829-0.915,1.001-1.543,1.915-2.229
	c0.028-0.057,0.086-0.143,0.114-0.199l0.687-1.314c-1.001,0.342,0-0.086-0.572,0.257c-0.8,0.485-2.543,2.829-3.144,3.458
	l-1.172,1.258c-0.657,0.686-0.514,0.8-1.2,1.742l-5.115,6.174c-0.058,0.057-0.085,0.086-0.143,0.143
	c-0.028,0.028-0.058,0.086-0.086,0.114l-5.315,6.802c-0.886,1.314-1.4,1.486-1.686,1.943c-0.744,1.143,0.113,0.715-1.572,2.058
	l-1.457,1.687c-0.029,0.028-0.086,0.085-0.115,0.143l-2.943,3.572C55.013,100.428,54.098,101.313,53.726,102.457L53.726,102.457z"/>
<path fill-rule="evenodd" clip-rule="evenodd" fill="#4C4D4E" d="M49.211,128.691c-1,0.372-1.172,0.829-2.286,2.43l-3.287,4.172
	c-0.628,0.687-0.742,1.001-1.285,1.601c-2.344,2.544-1.572,2.029-3.572,4.401c-0.429,0.515-0.143,0.086-0.486,0.686
	c0.857-0.2,0.629-0.229,1.516-0.515c-0.201,1.572-3.83,5.487-5.345,7.402c-0.314,0.371-0.286,0.257-0.429,0.515
	c-0.229,0.343-0.2,0.057-0.343,0.743c1.915-0.972,5.286-6.316,6.973-8.402c0.2-0.258,0.257-0.286,0.429-0.515l0.572-0.857
	c-1.344,0.028-0.4,0.372-1.744,1.029c0.286-1.086,0.629-1.515,1-2.286c0.458-0.887-0.113-0.4,0.687-0.887l1.172,0.086l-0.058,1.2
	c0.515-0.657,0.229-0.285,0.686-0.571c0.144-0.657,0.771-0.829,1.43-1.715l2.143-2.801c0.258-0.972,0.457-1.143,1.086-1.715
	c0.943-0.857,0.515-0.543,1.201-1.515c0.771-1.057,2-1.829,2.515-3.286c-1.172,0.457-0.028-0.143-0.601,0.314
	c-0.057,0.028-0.114,0.086-0.172,0.114c-0.686,0.657-1.914,3.315-3.886,4.115C47.296,129.777,48.269,130.835,49.211,128.691
	L49.211,128.691z"/>
<path fill-rule="evenodd" clip-rule="evenodd" fill="#D5D5D7" d="M125.171,47.558c0.229-0.286,0.114-0.057,0.343-0.515
	c0.086-0.229,0.086-0.343,0.2-0.571c0.514-1.029,0.085-0.429,0.886-0.771l6.144-14.461c0.144-0.657,1.058-3.001,1.43-3.601
	l1.571-3.258c0.2-0.714,0.886-2.572,1.286-3.572c0.371-0.972,1.429-3.001,0.257-3.858c-0.171,1.058,0.058,1.515-0.371,2.344
	c-0.571,1.057-0.429,0.486-0.743,1.972l-1.086,2.715c-0.343,0.714-0.429,0.514-0.6,0.8l-2.315,5.802
	c-0.4,1.286-1.486,2.486-1.771,3.429l-4.001,9.259C125.484,46.442,124.999,45.614,125.171,47.558L125.171,47.558z"/>
<path fill-rule="evenodd" clip-rule="evenodd" fill="#D5D5D7" d="M137.802,24.438l-2.458,5.059l-3.687,9.431
	c-0.742,2.058-3.943,8.431-3.943,9.373c0.629-0.143,0.143,0.601,1.429-1.285l1.743-4.059c0.543-2.371,0.286-1.2,0.743-1.914
	c0.686-1.115-0.086-0.687,0.8-2.086c0.743-1.144,0.314-1.029,0.715-2.001c0.229-0.515,1.572-2.601,1.857-3.744
	c0.829-3.229,0.886-2.058,1.743-3.687c0.629-1.229,0.886-3.144,1.486-4.144c1.258-2.058,0.172-0.028,0.914-1.972l1.658-3.887
	c0.114-0.857,0.285-1.629,0.457-2.543c-0.686,0.6-0.743,1.086-1.029,2.029c-1.229,4.144-0.343,1.257-1.429,3.829
	C138.116,24.495,138.459,23.98,137.802,24.438L137.802,24.438z"/>
<path fill-rule="evenodd" clip-rule="evenodd" fill="#4C4D4E" d="M17.147,147.982l0.771-0.029c0.229-0.571,0.057-0.543,0.6-1.057
	c0.343-0.343,0.514-0.486,0.972-0.629c0.028,1.286,0.058,0.771-0.657,1.429c-0.771,0.715-0.314,0.429-0.743,1.458
	C17.232,148.925,17.232,149.011,17.147,147.982L17.147,147.982z M22.948,140.98c-0.4,0.343-0.371,0.343-0.715,0.715
	c-0.199,0.229-0.371,0.399-0.571,0.628c-1.4,1.658-0.028,1.544-1.314,1.058c-0.601,1.4-2.029,2.687-3.029,4.287
	c0,0.028-0.058,0.2-0.086,0.171c0-0.057-0.058,0.086-0.085,0.144c-1.001,0.314-0.115-0.114-0.744,0.657l-1.715,2.172
	c-2.285,0.114-4.572-0.286-6.687-0.058c-5.658,0.629-3.087-0.972-2.601-2.172c-0.371,0.058-0.543-0.085-0.857,0.114
	c-0.199,1.314-0.486,0.286-0.972,1.915c1.571,1.058,0.286,1.086,2.772,0.8c6.486-0.8,2.657,0,7.173-0.057
	c2.743,0,1.372-0.429,3.114-1.429c-0.257,1.8-1.057,2.058,1.201,3.887c0.571,0.457,0.771,0.514,1.486,0.571
	c-0.258-0.543-0.086-0.2-0.144-0.715c-1.144-0.085-0.8-0.371-2.429-1.429l0.086-1.372c0.885-0.571,0.342-0.199,0.914-0.828
	l1.114-0.829c0-1.114,1.829-2.857,2.601-3.715c0.258-0.286,0.515-0.687,0.829-1.086c0.686-0.801,3.144-3.973,3.429-4.744
	c-0.771,0.257-0.199-0.058-0.771,0.371l-0.914,1.286c-0.887,1.486-1.543,2.029-2.458,3.344c-0.229,0.314-0.229,0.743-1.171,0.943
	c-0.516,0.086-0.115,0.086-0.43-0.058c-0.171-0.942,0.857-1.601,1.314-2.144C21.919,142.638,22.72,141.81,22.948,140.98
	L22.948,140.98z"/>
<path fill-rule="evenodd" clip-rule="evenodd" fill="#B6B6B6" d="M63.585,74.192l0.771-0.172c0.201-1.171,5.83-7.744,7.23-9.287
	c0.457-0.515,0.829-0.658,1.229-1.201c0.429-0.6,0.399-0.885,0.914-1.485l7.573-9.174c0.286-0.886,0.771-1.172,1.286-1.829
	s0.743-1.029,1.457-1.429l-0.143-0.829c-1.372,0.572-1.943,1.973-2.486,2.543l-1.629,2.029c-0.028,0.029-0.086,0.058-0.143,0.115
	c-0.029,0.028-0.086,0.057-0.114,0.113c-1.058,0.943-0.172,0.744-1.115,1.772c-0.257,0.257-0.543,0.372-0.942,0.771
	c-0.4,0.458-0.258,0.372-0.572,0.857c-1.686,2.657-1.515,1.458-2.629,3.173c-0.771,1.229-0.828,0.428-1.571,1.343
	c-0.457,0.399,0.171-0.028-0.229,0.915l-0.515,0.742c-0.515,0.657-0.743,0.857-1.258,1.4c-2.601,2.801-1.343,1.801-3.144,3.916
	C66.415,69.82,63.929,72.678,63.585,74.192L63.585,74.192z"/>
<path fill-rule="evenodd" clip-rule="evenodd" fill="#B6B6B6" d="M30.606,170.474c-1.485,2.486-2.4,3.887-4.515,3.829
	c-12.46-0.399-8.603,2.144-14.746-3.144c-0.687-0.6-2.972-2.429-3.63-2.458l0.258,0.4c1,1.372,2.344,1.887,3.086,2.601l1.372,1.515
	c2.314,2.086,3.486,2.201,6.744,1.801c1.458-0.2,4.115-0.086,5.687-0.058c4.716,0.058,3.658-0.714,5.773-3.629l0.428-0.543
	c0.029-0.029,0.058-0.086,0.086-0.144l3.486-3.772c0.601-0.742,0.486-1.028,1.115-1.771c1-1.2,1.258-0.857,1.114-1.972
	c-0.743,0.314-1.543,0.943-1.915,1.657C33.036,168.559,31.55,168.33,30.606,170.474L30.606,170.474z"/>
<path fill-rule="evenodd" clip-rule="evenodd" fill="#868686" d="M23.72,121.833c-0.2,0.972-0.572,1.2-1.143,1.857
	c-0.516,0.601-0.829,1.029-1.287,1.572c-0.828,1-2,2.114-2.429,3.344c0.8-0.4,0.857-0.715,1.429-1.43c0.486-0.6,0.857-1,1.344-1.571
	l3.857-4.373c0.429-0.457,0.857-1.257,1.172-1.686c1.2-1.629,0.172,0.314,2.086-2.286c0.658-0.943-0.285-0.4,0.973-0.715
	c0.399,0.601,0.428-0.2,0.285,1.058c-0.086,0.657-0.258,0.657-0.6,1.028l-1.229,1.4c-0.343,0.515-0.771,0.886-1.229,1.458
	c-0.399,0.543-0.771,1.028-1.171,1.485c-0.943,1.029-0.687,0.4-1.314,1.315c-1.343,2-3.001,3.601-3.487,4.801
	c1.344-0.515,1.916-2.258,4.201-4.572c1.458-1.515,1.486-2.258,2.858-3.63c0.028-0.057,0.085-0.114,0.114-0.143l0.914-1l1.229-1.744
	c0.629-0.8,1.144-0.114,1.287-1.686c-0.572,0.086-0.286,0.028-0.771,0.143c-0.172,0.058-0.486,0.229-0.543,0.172
	c-0.058-0.086-0.172,0.057-0.258,0.086c0.114-1.658,0.914-2.087,1.743-3.201c0.657-0.914,1.543-2.001,2.258-2.43l-0.172-0.886
	c-0.657,0.4-0.972,0.972-1.429,1.486c-0.429,0.486-0.828,0.829-1.258,1.429l-6.201,7.573
	C24.377,121.318,24.063,121.347,23.72,121.833L23.72,121.833z"/>
<path fill-rule="evenodd" clip-rule="evenodd" fill="#B6B6B6" d="M20.747,162.957c0.058,1.086,0.458,2.229,0.058,3.201
	c-0.257,0.571-1.343,1.4-2.058,1.515c-1.2,0.2-1.801-0.543-2.515-0.915c-0.629-0.313-0.601-0.199-1.286-0.429
	c-0.114-0.028-0.686-0.285-0.686-0.285c-0.486-0.343-0.2-0.028-0.572-0.657c-0.629,0.028-4.687-3.059-5-5.802
	c-0.229-2,0.171-3.344,2.172-3.43c1.314-0.057,3.543,0.915,4.143,1.486c1.43,0.4,2.4,1.258,3.287,2.229c0.4,0.429,0.828,1,1.2,1.457
	c0.257,0.343,0.343,0.486,0.601,0.829l0.8,0.857c0-1.258-0.886-2.086-1.972-3.287c-2.629-2.943-3.115-2.086-5.487-3.715
	l-1.114-0.485c-5.287-0.972-4.486,4.229-3.772,5.829c0.314,0.743,1.114,1.515,1.144,1.572c1.371,1.429,1.343,1.801,3.543,3.258
	l4.63,2.001c0.771,0.057,2.315-0.229,2.772-0.543c0.399-0.314,1.886-2.287,0.428-4.315L20.747,162.957z"/>
<path fill-rule="evenodd" clip-rule="evenodd" fill="#4C4D4E" d="M67.644,105.314c-0.229,0.486-0.486,0.571-0.914,1.029
	c-0.743,0.771-0.4,0.657-0.915,1.485l-1.257,1.887c-0.058,0.028-0.086,0.086-0.144,0.114l-0.743,0.714c-0.371,0.4-0.6,0.772-1,1.172
	c-1.572,1.458-2.371,3.401-3.344,3.63l-0.343,1.2c2.687-1.486,1.743-1.657,3.001-3.087c0.657-0.742,0.742-0.856,1.285-1.629
	l0.687-0.743c1-0.942-0.144-0.428,1.314-0.828c-0.2,2.2-4.173,5.772-4.344,6.059c-1.2,1.743-1.058,0.829-1.314,2.2
	c0.058-0.057,0.114-0.2,0.144-0.143l1.057-0.886c0.314-0.2,0-0.029,0.515-0.258c0.171-0.886,0.714-1.172,1.286-1.686
	c0.543-0.486,1.028-1.344,1.4-1.772c0.428-1.485,1.457-2.028,2.4-3.4c1.172-1.687,0.428-2.029,2.457-2.829l0.172-0.829l-0.943,0.601
	c-0.057,0.028-0.199,0.143-0.828,0.028c0.371-2.086,5.516-6.316,6.258-8.659l-2.943,3.314
	C69.987,102.828,68.472,104.857,67.644,105.314L67.644,105.314z"/>
<path fill-rule="evenodd" clip-rule="evenodd" fill="#868686" d="M140.202,4.375l0.857-0.429c0.058,0,0.143-0.057,0.2-0.086
	c2.258-1-0.058-0.972,3.286-1.171c0.572-1.229,0.543-2.086,2.372-1.858c0.028,0.743,0,1.601-0.257,2.229
	c-0.657,1.486-0.172,0.4-1.4,0.943c0.485,0.886,0.285,1.772-0.172,2.601c-1.515,2.744-2.143,5.43-3.772,8.316
	c-2.086,3.715-1.6,5.144-2.343,6.43c-0.515,1.372-1.058,1.686-1.172,3.086c0.657-0.457,0.314,0.057,1-1.601
	c1.086-2.572,0.2,0.314,1.429-3.829c0.286-0.943,0.344-1.429,1.029-2.029c0-0.086,0.6-1.515,0.829-2l1.743-4.058
	c0.229-1.058,1.485-3.144,1.857-3.944c0.457-1.058,0.057-1.257,0.743-2.201c0.714-1.029,1.657-2.515,1.515-4.115
	c-2.772-1.743-3.344,0.486-3.602,0.771c-0.399,0.429-0.285,0.086-1.257,0.515c-1.801,0.743-1.258,0.8-2.744,1.629L140.202,4.375z"/>
<path fill-rule="evenodd" clip-rule="evenodd" fill="#B6B6B6" d="M50.611,93.312c-0.286,0.515-6.888,8.06-7.544,9.431l0.885-0.085
	c0.372-0.801,0.801-1.058,1.258-1.63c1.058-1.257,2.229-3.029,3.258-4.001l11.374-13.774c0.886-1.086,1.8-2.172,2.657-3.173
	c0.43-0.514,0.857-1,1.314-1.571c0.344-0.399,0.287-0.257,0.658-0.8c0.686-0.943,0.428-0.172,0.6-1.344
	c-0.914,0.457-3.172,3.258-3.887,4.087c-0.371,0.4-0.113,0.144-0.485,0.515l-2.886,3.857c-1.373,1.516-2.572,2.687-3.572,4.201
	c-1.658,2.516-1.458,1.801-2.572,3.201L50.611,93.312z"/>
<path fill-rule="evenodd" clip-rule="evenodd" fill="#D5D5D7" d="M3.515,164.929c-0.085-0.886-0.027-1.514-0.314-2.286
	c-0.342-0.972-0.457-0.686-0.628-2c-0.229-0.515-0.028-2.029-0.429-3.001c-0.572-1.515-0.486-1.028-0.715-2.887
	c-0.199-1.4-1.657-2.657-0.143-4.258c2.172-2.229,1.515-2.058,3.372-3.887c1.058-1.028,2.286-2.915,3.144-4.115
	c0.715-0.943,0.515,0.2,0.543-1.172l-0.771,0.028c-0.686,1.258-0.086,0.344-0.857,1.258l-1,1.229
	c-2.372,2.201-0.771,0.943-1.943,2.372l-1.2,1.458c-0.028,0.057-0.086,0.114-0.114,0.143c-0.029,0.058-0.057,0.114-0.086,0.143
	l-0.543,0.687c-0.172,0.2-0.4,0.457-0.571,0.629c-0.028,0.057-0.086,0.114-0.114,0.143c-0.029,0.028-0.086,0.086-0.115,0.114
	c-2.4,2.601,0.115,6.744,0.4,8.745c0.115,0.686,0.086,1.314,0.229,1.972c0.115,0.457,0.372,1.029,0.515,1.601
	c0.172,0.686,0.257,1.343,0.372,1.886C2.829,164.844,2.915,164.7,3.515,164.929L3.515,164.929z"/>
<path fill-rule="evenodd" clip-rule="evenodd" fill="#B6B6B6" d="M115.254,20.58c1.286-0.429,4.915-3.058,6.401-3.973l2.115-1.372
	l1.086-0.829c0.657-0.371,0.628-0.343,1.143-0.743c1.115-0.829,3.001-2.486,4.344-2.858c1.515-0.429,1.629-1,2.544-1.086
	l0.828-0.715c1.4-1.057,5.345-3.429,5.858-4.687c-1.4,0.057-0.686-0.057-1.229,0.372l-0.657,0.6c-1.172,0.686-0.429,0.171-1.372,1
	c-0.057,0.029-0.8,0.629-0.828,0.657c-0.2,0.143,0.028,0.057-0.486,0.314c-0.057,0.029-0.285,0.086-0.343,0.114
	c-1.801,0.686-2.629,2.344-4.544,2.915c-2.429,0.772-0.6,0.314-2.515,1.2c-0.886,0.4-0.8,0.486-2.115,1.629
	c-1.972,1.743-1.257,0.286-3.629,2.429l-0.886,0.6c-2.286,1.229-1.829,1.515-3.715,2.515
	C116.054,19.293,115.426,19.665,115.254,20.58L115.254,20.58z"/>
<path fill-rule="evenodd" clip-rule="evenodd" fill="#B6B6B6" d="M20.976,129.092c-1,1.829-8.344,10.174-8.373,10.26
	c-0.485,0.8-1.028,1.515-1.6,2.229c-0.601,0.686-1.172,1.4-1.771,2.114c-1.486,1.801-1.516,1.2-1.486,2.372
	c1.086-0.457,3.314-3.658,4.829-5.344c0.715-0.801,1.114-1.715,3.401-4.087l3.972-4.916c0.372-0.914,3.401-4.4,4.259-5.058
	c1.343-1.029-0.058,0.199,1.057-1.515c0.943-1.458,1.857-1.887,2.772-3.287c0.485-0.743,1.058-0.914,1.028-2.114l-0.914,1
	c-0.029,0.028-0.086,0.086-0.114,0.143c-1.372,1.372-1.4,2.115-2.858,3.63C22.892,126.834,22.319,128.577,20.976,129.092
	L20.976,129.092z"/>
<path fill-rule="evenodd" clip-rule="evenodd" fill="#4C4D4E" d="M53.726,102.457c-0.229,0.543-1.6,2.058-1.914,2.515l-0.114,0.8
	c0.829-0.6,4.458-5.087,5.001-5.601c0.543-0.515,0.429-0.486,1.229-0.772c-0.285,1.658-1.114,2.544-2.143,3.487
	c-0.943,0.886-0.457,0.429-1.201,1.457c-0.543,0.715-0.714,0.629-1.086,1.743l2.772-2.943c1.314-1.486,1.544-2.144,2.258-3.058
	c0.915-1.115,1.543-1.572,2.458-2.887c0.742-1.029,1.943-1.943,2.343-3.115l-0.601,0.372c-0.085,0.028-0.229,0.171-0.285,0.114
	c-0.057-0.058-0.172,0.085-0.285,0.114c0-0.771,0.171-1.286,0.342-1.943l-7.43,8.688C54.498,102.199,54.812,102.171,53.726,102.457
	L53.726,102.457z"/>
<path fill-rule="evenodd" clip-rule="evenodd" fill="#222222" d="M68.301,85.339c-0.972,0.686-2.229,2.629-2.972,3.629
	c-0.629,0.857-0.743,1.258-1.4,1.972c-0.572,0.601-1.229,1.086-1.43,1.801c-0.171,0.657-0.342,1.172-0.342,1.943
	c0.113-0.029,0.229-0.172,0.285-0.114c0.057,0.057,0.2-0.086,0.285-0.114l0.601-0.372c0.857-0.686,4.573-5.087,4.63-6.087
	c0.285-1.458-0.172-0.343,0.657-1.086c1.314-1.2,1.8-1.629,1.515-2.829C68.558,84.566,69.701,84.823,68.301,85.339L68.301,85.339z"
	/>
<path fill-rule="evenodd" clip-rule="evenodd" fill="#868686" d="M20.348,143.381c1.286,0.486-0.086,0.601,1.314-1.058
	c0.2-0.229,0.372-0.399,0.571-0.628c0.344-0.372,0.314-0.372,0.715-0.715c0.371-1.343,3-3.201,3.943-4.772l4.001-5.145
	c0.886-1.172,0.286,0.314,1.972-2.486c0.457-0.714,0.429-0.6,0.943-1.2l1.543-1.857c1.372-1.458,0.829-0.286,1.857-2.229
	l0.743-0.942c0.8-0.887,0.829-0.657,1.028-1.687c-0.085,0.058-0.199,0-0.229,0.114l-10.973,13.146
	c-0.943,0.972-0.715,0.229-1.516,1.143c-0.656,0.801-0.457,0.886-0.857,1.544C24.291,138.352,20.604,141.952,20.348,143.381
	L20.348,143.381z"/>
<path fill-rule="evenodd" clip-rule="evenodd" fill="#B6B6B6" d="M93.106,37.612c0.515-0.172,0.571-0.2,0.972-0.4l3.572-4.458
	c1.2-1.058,10.174-6.63,13.717-9.288c0.715-0.515,0.829-0.372,1.229-1.172c-1.2,0.172-1.515,0.286-2.258,0.886
	c-1,0.771-0.743,0.8-1.515,1.2l-4.602,2.829c-1.857,1.486-2.486,2.287-5.029,3.487l-1.028,0.628
	c-0.029,0.029-0.086,0.057-0.144,0.115l-0.8,0.6c-2.115,1.886-0.229,0.857-1.857,2.515l-1.115,1.086
	C93.478,36.24,93.221,36.212,93.106,37.612L93.106,37.612z"/>
<path fill-rule="evenodd" clip-rule="evenodd" fill="#4C4D4E" d="M88.849,79.565c-0.144,0.371-0.458,0.743-0.801,1.143l-4.973,5.916
	c-0.399,0.543-1.4,2.086-1.972,2.344l-0.114,0.914c-1.058,0.657-2.114,2.115-2.915,3.144c-0.886,1.172-2.229,2.029-2.801,3.373
	c0.772-0.2,0.458,0.085,1.001-0.629c0.285-0.372,0.028-0.372,0.686-0.972c3.973-3.687,5.173-6.316,7.259-8.459
	c1.601-1.658,0.543-0.771,1.629-2.258c0.686-0.943,0.857-0.943,1.915-0.973c-0.286,1.43-0.4,0.857-0.887,2.145
	c0.687-0.601,4.43-4.744,5.145-6.316c-1.429,0.371-1.286,2.516-3.744,3.201c0.429-2.801,2.029-1.715,2.4-4.087
	C89.849,78.651,90.105,78.993,88.849,79.565L88.849,79.565z"/>
<path fill-rule="evenodd" clip-rule="evenodd" fill="#D5D5D7" d="M83.104,102.571l0.457,0.114c0.114-0.314-0.058,0,0.229-0.372
	l2.572-3.2c1.943-2.486-0.058-0.629,2.172-2.887l6.744-8.202c0.457-0.943,1.457-2.115,2.029-2.686
	c0.399-0.4,0.686-0.801,0.942-1.145c0.572-0.828,0.572-0.457,0.943-1.485c-1.286,0.372-3.458,3.887-5.373,5.944
	c-2.686,2.857-3.372,4.401-6.087,7.23c-1,1.058-0.257,0-0.972,1.486C86.219,98.541,83.019,101.257,83.104,102.571L83.104,102.571z"
	/>
<path fill-rule="evenodd" clip-rule="evenodd" fill="#D5D5D7" d="M4.058,155.184l-0.057-1.171l2-0.801
	c0.516,0.686,0.115,0.571,0.973,0.829c1.314,0.429,2.514-0.229,3.143-0.258c0.715-0.028,0.829,0.172,1.687,0.172
	c1.314,0,2.486-0.429,3.458,0.485l1.857,2.029c0.429,0.372,1.887,1.286,2.344,1.515c1.114,0.515,0.457-0.057,1.114,0.801
	c1.629,2.229,1.114,0.171,2.629,3.144c0.2,0.399,0.172,0.828,0.257,1.515c0.086,0.457,0.172,1.058,0.801,1.371
	c-0.086-1.343-0.801-2.972-0.828-4.515c-1.772-0.743-3.602-2.973-5.316-4.087l-2.515-2.086c-0.714-0.743-0.972-1.172-2.314-1.115
	c-3.515,0.086-1.972-0.257-5.001,0.4c-2.172,0.485,0.028-0.657-4.401-0.371C3.572,153.841,3.344,154.241,4.058,155.184
	L4.058,155.184z"/>
<path fill-rule="evenodd" clip-rule="evenodd" fill="#B6B6B6" d="M19.176,153.669c0.058,0.515-0.114,0.172,0.144,0.715
	c0.399,0.2,0.514,0.314,1.028,0.771c0.657,0.601,0.399,0.314,1.114,0.829c0.657,0.485,1.543,1.371,1.857,1.771
	c0.658,0.314,0.172,0.086,0.601,0.314c0.371,0.2,0.085,0.058,0.485,0.286c0.887-0.572,1-0.915,1.715-1.344
	c1.372-2.771,2.372-2.172,3.602-4.486c0.6-1.144,2.457-3.001,3.686-4.487l2.258-3.344c-1.543,0.172-3.086,2.858-3.915,4.087
	c-1.571,2.286-1.058,1.144-2.001,2.344l-5.115,6.516c-0.6-0.114-1.857-1.601-2.6-2.029c-1.4-0.828-0.486,0.086-1.372-1
	C19.947,153.755,20.033,153.669,19.176,153.669L19.176,153.669z"/>
<path fill-rule="evenodd" clip-rule="evenodd" fill="#B6B6B6" d="M113.168,53.987l0.371-0.257c1.258-0.943-1,0.657,0.286-0.257
	c0.829-0.543,1.058-0.172,1.543,0.629c0.229,0.942,1.2,1.314,2.029,1.828c0.943,0.572,1.286,1.144,2.572,1.543
	c-0.687,0.344-1.2,1.201-1.973,2.115c-0.285,0.314-0.143,0.114-0.343,0.4l-2.314,2.771c-0.601,0.601-0.657,0.572-1.144,1.287
	l-1.314,1.571c-0.686,0.743-1.715,2.315-1.857,3.258c0.972-0.314,0.857-0.314,1.4-1.286c1.457-2.658,6.087-6.802,7.087-8.573
	c0.915-1.629,0.715-0.601,1.172-1.544c-0.686-1.028-0.857-0.543-1.857-1.314c-0.914-0.714-0.515-0.971-1.829-1.343
	c-2.086-1.001-0.886-2.343-3.286-2.172L113.168,53.987z"/>
<path fill-rule="evenodd" clip-rule="evenodd" fill="#B6B6B6" d="M25.72,139.666c-0.285,0.771-2.743,3.943-3.429,4.744
	c-0.314,0.399-0.571,0.8-0.829,1.086c-0.771,0.857-2.601,2.601-2.601,3.715l5.087-5.858c1.229-1.972,0.771-0.943,1.857-2.458
	l2.973-3.544c1.143-1.314,5.43-6.201,5.629-7.688c-0.828,0.4-0.057-0.028-0.571,0.372c-0.856,0.657-1.229,1.485-1.886,2.286
	L25.72,139.666z"/>
<path fill-rule="evenodd" clip-rule="evenodd" fill="#B6B6B6" d="M55.612,136.351c1.829-0.857,2.601-2.972,3.887-4.344
	c1.914-2.058,3.829-5.03,5.458-6.63c1.229-1.172,2.115-2.63,3.115-3.916c0.314-0.399-0.058,0.114,0.2-0.285
	c1-1.572,1.771-2.201,2.029-3.058c-0.715,0.171-0.515-0.4-0.658,0.229c-1.314,0.771-3.314,4.572-5.543,6.887l-4.287,5.459
	c-0.229,0.343-0.143,0.229-0.4,0.515l-2.229,2.601C55.927,135.437,55.755,135.208,55.612,136.351L55.612,136.351z"/>
<path fill-rule="evenodd" clip-rule="evenodd" fill="#B6B6B6" d="M59.613,118.518c-0.399,1.086-2.829,3.772-3.944,4.83
	c-1.857,1.715-1.171,1.686-2.972,3.572c-0.257,0.286-0.657,0.771-0.914,0.972c-0.515,1.457-1.743,2.229-2.515,3.286
	c-0.687,0.972-0.258,0.657-1.201,1.515c-0.629,0.572-0.828,0.743-1.086,1.715l1.058-0.771c2.829-2.743,2.915-3.658,4.573-5.63
	c0.942-1.144,0.714-0.314,1.771-2.115c1.057-1.8,0.943-0.485,2.715-2.8l1.486-1.715c1.257-1.001,0.342-0.429,1.057-1.315
	c0.029-0.057,0.086-0.085,0.115-0.143c0.027-0.028,0.085-0.057,0.143-0.114c0.6-0.657-0.115,0.343,0.4-0.485l0.342-0.657
	c0.457-0.743,0.43-0.229,0.687-1.43c-0.515,0.229-0.2,0.058-0.515,0.258l-1.057,0.886C59.728,118.317,59.671,118.461,59.613,118.518
	L59.613,118.518z"/>
<path fill-rule="evenodd" clip-rule="evenodd" fill="#B6B6B6" d="M71.416,67.505c-0.372,1.286-1.743,2.516-2.544,3.486
	c-0.971,1.172-1.771,2.001-2.572,3.459c1.229-0.029,0.486-0.115,2.029-1.83l10.46-12.545c1.2-1.229,0-1.144,1.743-2.086
	l-0.028-0.801c-1.115,0.143-1.258,1.2-2.344,2.515L71.416,67.505z"/>
<path fill-rule="evenodd" clip-rule="evenodd" fill="#B6B6B6" d="M7.745,146.067c-0.572,0.172-0.115-0.172-0.771,0.457
	c-0.314,0.286-0.258,0.314-0.515,0.687c-0.257,0.343-1.058,1.371-1.058,1.371c-0.486,1.2-3.058,2.801,2.601,2.172
	c2.114-0.229,4.401,0.172,6.687,0.058l1.715-2.172c0.629-0.771-0.257-0.343,0.744-0.657c0.027-0.058,0.085-0.2,0.085-0.144
	c0.028,0.029,0.086-0.143,0.086-0.171c1-1.601,2.429-2.887,3.029-4.287c-1.458-0.028-0.114-0.143-1.858,1.601
	c-0.371,0.371-0.6,0.543-0.856,0.829l-0.657,0.771c-0.629,0.686-0.801,1.314-1.515,1.915c-0.8,0.657-0.943-0.058-1.114,1.914
	c-1.857,0.058-3.001-0.171-4.716-0.229c-1.458-0.057-3.2,0.229-4.716,0.286l1.658-2.172C7.974,146.354,7.773,147.011,7.745,146.067
	L7.745,146.067z"/>
<path fill-rule="evenodd" clip-rule="evenodd" fill="#B6B6B6" d="M35.694,144.495l0.371-0.229c1.657-1.2,1.572-1.857,2.229-2.286
	c0.344-0.6,0.058-0.171,0.486-0.686c2-2.372,1.229-1.857,3.572-4.401c0.543-0.6,0.657-0.914,1.285-1.601l3.287-4.172
	c1.114-1.601,1.286-2.058,2.286-2.43c0.229-0.972,0.399-0.457,0.743-1.629c-1.457,0.457-3.915,3.944-4.801,5.145l-5.088,6.287
	c-0.428,0.571-0.342,0.629-0.714,1.229l-3.63,3.802L35.694,144.495z"/>
<path fill-rule="evenodd" clip-rule="evenodd" fill="#4C4D4E" d="M18.118,162.472c0,0.086,0.029,0.086,0.029,0.2
	c0,0.143,0.028,0.171,0.057,0.229c0,0.086,0.114,0.457,0.143,0.543L18.29,163.5c0.028,0.029,1.086,0.657,0.257,1.772
	c-0.686,0.914-3.772-1.314-4.486-1.372c0.743,0.943,0.515,1.114,1.687,1.486c-1.086,0.285-1.029,0.257-2.059,0
	c0.372,0.629,0.086,0.314,0.572,0.657c0,0,0.571,0.257,0.686,0.285c0.686,0.229,0.657,0.115,1.286,0.429
	c0.714,0.372,1.314,1.115,2.515,0.915c0.715-0.114,1.801-0.943,2.058-1.515c0.4-0.972,0-2.115-0.058-3.201l0.144,0.058l-0.8-0.857
	c-0.258-0.343-0.344-0.486-0.601-0.829c-0.372-0.457-0.8-1.028-1.2-1.457c-0.887-0.972-1.857-1.829-3.287-2.229l0.43,0.457
	c1.428,1.43,1.285,0.144,3.229,3.087c1.314,1.972,2.001,1.915,1.829,4.915c-1,0.857-3.63,1.43-3.601,0
	c1.143-0.257,2.2,0.486,2.43-1.172C19.462,163.814,18.919,162.843,18.118,162.472L18.118,162.472z"/>
<path fill-rule="evenodd" clip-rule="evenodd" fill="#FFFFFF" d="M18.29,163.5l0.057-0.057c-1.4-0.457-2.2-1.887-3.229-2.572
	c-0.601-0.429-1-0.629-1.543-1.114c-0.829-0.743-0.572-0.715-2.115-0.715c0.143,1.543,1.515,2.857,2.572,3.887
	c0.943,0.914,2.715,1.601,4.314,1.771L18.29,163.5z"/>
<path fill-rule="evenodd" clip-rule="evenodd" fill="#868686" d="M102.88,78.508c-0.314,1.086-0.914,0.8-1.515,1.772
	c-0.4,0.686-0.601,1.143-1.4,1.657c-0.286,0.229-0.6,0.601-0.771,0.771c-0.371,1.028-0.371,0.657-0.943,1.485
	c-0.257,0.344-0.543,0.744-0.942,1.145c-0.572,0.57-1.572,1.742-2.029,2.686c1.172-0.371,0.543-0.229,2.058-1.887l6.716-7.83
	c0.2-0.172,0.285-0.257,0.429-0.457l3.4-4.4c1.458-1.83,1.372-1.572,1.572-2.43c-1.144,0.285-1.172,0.914-1.829,1.686
	c-0.543,0.658-1.258,1.201-1.743,1.887c-0.543,0.715-0.801,1.258-1.372,2.029C103.852,77.508,103.395,77.822,102.88,78.508
	L102.88,78.508z"/>
<path fill-rule="evenodd" clip-rule="evenodd" fill="#B6B6B6" d="M111.167,43.442c0.258,0.886,1.344,1.371,2.287,1.914
	c2.057,1.144,2.086,0.115,4,0.601c0.429,2.2-1.285,1.886-0.771,5.001c0.229,1.4,1.572,3.001,2.829,3.115
	c1.515,0.2,0.486,0.286,1.544,0.572c0.942,0.257,1.086-0.115,1.314-0.772c-2.486,0.172-4.43-0.515-5.001-3.172
	c-0.629-2.801,2.571-3.801-0.058-5.772c-0.857-0.286-1.486,1.686-4.943-1.144c-1.372-1.114-0.144-0.714-1.201-1.943
	c-0.028-0.028-0.085-0.086-0.114-0.114c-0.057-0.057-0.114-0.086-0.143-0.143c-0.057-0.058-0.114-0.115-0.143-0.143l-0.314-0.372
	c0.143,0.657,0.2,0.8,0.429,1.372C111.225,43.356,110.996,42.042,111.167,43.442L111.167,43.442z"/>
<path fill-rule="evenodd" clip-rule="evenodd" fill="#B6B6B6" d="M67.644,105.314c0.828-0.457,2.344-2.486,2.943-3.315l2.943-3.314
	c0.314-0.829,1.286-1.601,1.743-2.286c0.572-1.344,1.915-2.201,2.801-3.373c0.801-1.028,1.857-2.486,2.915-3.144l0.114-0.914
	c-1.086,0.515-1.314,0.972-2.058,1.857l-2.629,2.687c-0.229,0.257-0.4,0.829-0.715,1.258c-0.314,0.399-0.314,0.199-0.8,0.856
	c-0.343,0.458-0.515,0.687-0.857,1.115l-3.258,3.973c-0.657,0.714-0.886,1.371-1.543,2.086
	C68.558,103.571,67.786,104,67.644,105.314L67.644,105.314z"/>
<path fill-rule="evenodd" clip-rule="evenodd" fill="#868686" d="M105.966,29.639c1.258-0.257,0.458-0.2,1.744-0.943l5.887-3.715
	c0.943-0.457,0.4-0.086,1.058-0.629l5.029-3.458c0.686-0.543,1.4-0.8,2.029-1.343c0.743-0.629,1.343-0.915,1.629-1.772l-2.715,1.4
	c-0.029,0.028-0.086,0.085-0.114,0.114l-0.601,0.429c-0.429,0.257-0.657,0.429-1.058,0.8c-0.371,0.314-0.543,0.514-0.972,0.771
	l-3.286,2.286c-2.2,1.429-4.458,2.572-6.63,4.229c-0.4,0.286-0.486,0.4-0.972,0.743C106.052,29.239,106.566,28.438,105.966,29.639
	L105.966,29.639z"/>
<path fill-rule="evenodd" clip-rule="evenodd" fill="#4E4E4E" d="M14.061,163.9c0.714,0.058,3.801,2.286,4.486,1.372
	c0.829-1.115-0.229-1.743-0.257-1.772l0.057,1.2c-1.6-0.171-3.371-0.857-4.314-1.771c-1.058-1.029-2.43-2.344-2.572-3.887
	c1.543,0,1.286-0.028,2.115,0.715c0.543,0.485,0.942,0.686,1.543,1.114c1.028,0.686,1.828,2.115,3.229,2.572
	c-0.028-0.086-0.143-0.457-0.143-0.543c-0.028-0.058-0.057-0.086-0.057-0.229c0-0.114-0.029-0.114-0.029-0.2
	c-0.742-0.314-1.057-0.743-1.657-1.286c-0.543-0.515-0.972-0.886-1.601-1.314c-1.258-0.886-1.771-1.743-4-1.515
	C10.146,161.3,13.032,162.043,14.061,163.9L14.061,163.9z"/>
<path fill-rule="evenodd" clip-rule="evenodd" fill="#B6B6B6" d="M105.966,29.639c-0.971,0.143-2.543,1.658-3.229,2.115
	c-1.001,0.629-2.744,1.258-3.029,2.344c-0.058,1.915-0.572,1.6,1.8,4.343c0.572,0.658,3.173,0.314,4.487-0.314
	c1.086-0.514,2-0.971,3.029-0.542l0.914,0.572c-0.257-0.629-0.485-0.943-0.743-1.343c-3.086-0.314,0.086,0.057-3.943,0.915
	c-1.657,0.343-0.457,1.257-3.344,0.114c-0.657-0.257-1.144-0.686-1.515-1.2c-1.743-2.543,2.829-4.173,4.83-5.745l1.743-1.143
	c0.514-0.4,0.399-0.372,0.743-1.057C106.424,29.438,107.224,29.381,105.966,29.639L105.966,29.639z"/>
<path fill-rule="evenodd" clip-rule="evenodd" fill="#B6B6B6" d="M99.622,49.758c-0.515,1.343-1.915,2.829-2.857,3.858
	c-0.801,0.886-0.657,0.886-0.857,1.629c1.715-0.801,3.058-3.544,4.286-5.002l2.172-2.4c0.2-0.257,0.343-0.6,0.543-0.914l2.744-3.287
	c0.771-0.714,0.8-0.914,1.257-1.886l1.172,0.543c0.143-1.058-0.257-1.171-1.172-1.4c-0.057,0.058-0.143,0.058-0.171,0.144
	c0,0.086-0.114,0.113-0.144,0.143l-3.258,4.229C102.223,46.614,101.079,48.472,99.622,49.758L99.622,49.758z"/>
<path fill-rule="evenodd" clip-rule="evenodd" fill="#4C4D4E" d="M93.106,37.612c-0.515,0.457-0.715,0.6-1,1.229
	c-0.344,1.43-2.029,2.629-2.829,3.887l-5.373,6.059l0.143,0.829c-0.714,0.399-0.942,0.771-1.457,1.429s-1,0.943-1.286,1.829
	c1.515-0.629,1.372-0.915,2.658-2.63l2.343-2.943c0.314-0.342,0.571-0.6,0.771-0.942c1.458-2.515,1.658-1.743,4.001-4.973
	l2.229-2.858c0.686-0.714,0.543-0.229,0.771-1.314C93.678,37.412,93.621,37.44,93.106,37.612L93.106,37.612z"/>
<path fill-rule="evenodd" clip-rule="evenodd" fill="#4C4D4E" d="M80.275,70.106l-0.687,1.314c-0.028,0.057-0.086,0.143-0.114,0.199
	c0.972-0.371,2.515-2.429,3.286-3.457c0.887-1.172,0.115-0.943,1.515-1.115l-0.114,1.258l0.344-0.258
	c1.314-1.172,1.457-1,1.828-2.029c-0.742,0.43-1.086,0.887-2.086,1.059c0.372-1.715,1.943-3.145,3.229-4.631
	c1.028-1.172,0.8-1.543,2.229-2.801l0.257-0.229c0.543-0.514,0.2,0.258,0.485-0.571c0.429-1.257,0.172-0.114,0-0.942
	c-0.886,0.342-0.828,0.6-1.343,1.371C87.819,61.075,81.304,69.22,80.275,70.106L80.275,70.106z"/>
<path fill-rule="evenodd" clip-rule="evenodd" fill="#B6B6B6" d="M12.546,169.474c0.172,1.114,0.229,0.343,0.6,1.143
	c1.029,0.429,1.4,1.515,2.687,1.572c0.886,0.143,8.23,0.171,9.802-0.229c0.601-2.001-1.143-6.916-1.371-7.146
	c0.086,4.744,1.515,4.373,1.114,6.859H15.89C15.231,170.874,13.632,169.416,12.546,169.474L12.546,169.474z"/>
<path fill-rule="evenodd" clip-rule="evenodd" fill="#B6B6B6" d="M88.849,79.565c1.257-0.572,1-0.914,1.828-1.515
	c0.115-0.601,0.515-0.771,0.943-1.286c0.343-0.4,0.686-1.029,0.972-1.258c0.457-1.086,1.258-1.314,2.086-2.429l2.344-3.229
	c0.715-0.801,2.715-3.029,3.115-3.915c-0.771,0-0.886,0.114-1.829,1.314l-4.658,6.001c-1.086,1.258-1.2,0.486-2.772,3.23
	C90.277,77.536,89.105,78.222,88.849,79.565L88.849,79.565z"/>
<path fill-rule="evenodd" clip-rule="evenodd" fill="#B6B6B6" d="M50.868,145.353c-0.113,0.715-1.4,2.229-1.886,2.744
	c-0.458,0.485-0.601,0.629-1.001,1.229c-0.313,0.457-0.628,0.886-1.285,1.258c-0.914,1.629-2.629,2.687-3.086,4.516
	c1.6-0.429-0.172,0.199,1.285-1.115c0.029-0.028,0.115-0.057,0.143-0.086c1.258-1.086,1.001-1.571,2.858-3.486
	c0.515-0.515,0.714-0.914,1.2-1.457c0.657-0.687,0.686-0.801,1.286-1.629l2.544-3.029c0.771-0.857,0.229-0.887,1.257-1.4
	l0.028-0.915c-0.629,0.314-0.143,0.028-0.571,0.343l-1.343,1.372C51.783,144.238,51.24,144.981,50.868,145.353L50.868,145.353z"/>
<path fill-rule="evenodd" clip-rule="evenodd" fill="#4C4D4E" d="M75.702,111.03c-0.285,0.657-1.743,2.515-2.314,3.172
	c-0.258,0.314-0.371,0.429-0.686,0.771c-0.457,0.486-0.286,0.258-0.629,0.801l-1.143,2.029c2.343-0.915,1.057-1.086,3.4-3.602
	c1.429-1.543,0.8-1.6,3-3.772c0.543-0.543,0.943-0.972,1.601-1.829c0.028-0.057,0.286-0.399,0.314-0.399
	c0.028-0.058,0.2-0.2,0.229-0.258l3.516-3.772c0.628-0.543,0.571-0.371,0.571-1.485l-0.457-0.114
	c-0.029,1.2-0.743,1.629-1.544,2.372C80.046,106.344,77.731,110.059,75.702,111.03L75.702,111.03z"/>
<path fill-rule="evenodd" clip-rule="evenodd" fill="#868686" d="M44.981,149.64c1-0.2,0.429,0.028,0.972-0.457l2.343-2.973
	c1.801-1.829,0.372-0.229,1.887-2.486c0.715-1.057,0.657-0.257,1.371-1.257c0.601-0.857,0.229-0.857,1.144-1.743l1.801-2.372
	c0.856-1.572,0.143,0.399,0.485-1.2l-0.8,0.199c-0.144,0.286-0.257,0.658-0.485,0.972l-3.516,4.43
	c-0.143,0.172-0.143,0.172-0.343,0.429c-1.515,2.201-1.972,1.915-2.743,3.029c-0.201,0.314-0.314,0.657-0.486,0.943L44.981,149.64z"
	/>
<path fill-rule="evenodd" clip-rule="evenodd" fill="#D5D5D7" d="M8.345,141.323c0.943-0.343,2.915-3.344,3.772-4.458
	c1.172-1.515,3.229-2.658,3.657-4.887c-1.514,0.657-0.828,0.914-2.857,2.829c-0.113,0.114-0.229,0.171-0.485,0.429
	c-0.772,0.771-0.915,1.343-1.429,1.829c-0.229,0.2-0.2,0.114-0.515,0.399c-0.114,0.115-0.771,0.915-0.857,1.029
	C8.316,140.923,8.173,140.237,8.345,141.323L8.345,141.323z"/>
<path fill-rule="evenodd" clip-rule="evenodd" fill="#B6B6B6" d="M36.837,126.777c1.314-0.229,1.344-1.172,3.372-3.401
	c1.172-1.314,0.8-0.629,2.001-2.372c0.485-0.686,0.457-0.371,0.942-1.229c0.571-0.972,0.429-0.543,0.943-1.229
	c0.571-0.686,0.343-0.543,1.114-1.028l0.029-0.715c-0.801,0.229-2.029,1.544-2.344,1.973c-1.887,2.743-3.544,4.286-4.115,5.087
	C37.979,125.063,37.208,125.491,36.837,126.777L36.837,126.777z"/>
<path fill-rule="evenodd" clip-rule="evenodd" fill="#D5D5D7" d="M15.604,132.149c1.086-0.485,2.772-2.572,3.258-3.543
	c0.429-1.229,1.601-2.344,2.429-3.344c0.458-0.543,0.771-0.972,1.287-1.572c0.57-0.657,0.942-0.886,1.143-1.857
	c-1.857,1.286-3.344,3.687-4.658,5.43l-0.515-0.314c-0.601-0.229-0.515-0.086-0.8,0.086c0.715,0.371,0.571,0.143,0.657,1.086
	l-1.144,0.629c-0.6,0.6-0.086,0.343-0.457,1.2c-0.086,0.257-0.571,0.857-0.715,1C15.433,131.864,15.433,130.721,15.604,132.149
	L15.604,132.149z"/>
<path fill-rule="evenodd" clip-rule="evenodd" fill="#D5D5D7" d="M112.11,51.016c0.886-0.372,2.144-1.943,2.486-2.716
	c-0.629-0.285-0.886-0.313-1.429-0.514c-1.314-0.543-2.973-1.601-3.43-2.915l-1.657-2.572c-0.314,0.829-0.229,0.601-0.172,1.629
	c1.943,1.458-0.343,0.544,3.059,3.43c0.571,0.485,0.371,0.543,0.828,1.343c1.058-0.371,0.286-0.571,2.029-0.199
	c-0.715,0.028-0.286,0.229-0.657,0.771C112.311,50.444,112.339,48.986,112.11,51.016L112.11,51.016z"/>
<path fill-rule="evenodd" clip-rule="evenodd" fill="#B6B6B6" d="M31.579,116.317c-0.144,1.571-0.658,0.886-1.287,1.686
	l-1.229,1.744h0.887c0.828-1.915,0-0.772,2-2.716c1.086-1.057,0.571-0.085,1.114-1.229c0.485-1.028,0.429-0.829,0.972-1.515
	l1.715-1.915c0.828-0.972,2.457-2.515,2.515-3.772c-1.144,0.801-0.915,0.658-1.829,1.801L31.579,116.317z"/>
<path fill-rule="evenodd" clip-rule="evenodd" fill="#B6B6B6" d="M50.468,126.349l1.344-1.086c1.887-2.315,5.115-6.945,7.173-8.717
	l0.343-1.2c-0.057,0.057-0.143,0.057-0.171,0.171l-1.086,1.029c-0.257,0.257-0.314,0.371-0.571,0.657l-4.029,4.658
	c-1.43,1.629-1.258,2.344-2.944,3.572L50.468,126.349z"/>
<path fill-rule="evenodd" clip-rule="evenodd" fill="#868686" d="M111.167,43.442c-0.171-1.4,0.058-0.086-0.285-1
	c-0.229-0.572-0.286-0.715-0.429-1.372c0.028-0.543-0.515-1.571-0.515-2.915l-0.914-0.572c-1.029-0.429-1.943,0.029-3.029,0.542
	c-1.314,0.629-3.915,0.973-4.487,0.314c-2.372-2.743-1.857-2.429-1.8-4.343c-0.515,0.4-0.229-0.171-0.429,0.857
	c-0.2,1.029,0.2,1.715,0.686,2.344c0.486,0.657,1.258,1.572,2.314,1.686c0.543,0.058,3.344-0.027,3.744-0.143
	c0.715-0.199,0.371-0.343,1.229-0.686c0.801-0.314,1.115-0.286,2.029-0.029c0.257,2.688-0.314,1.115,0.629,2.801
	C110.682,42.241,109.853,42.642,111.167,43.442L111.167,43.442z"/>
<path fill-rule="evenodd" clip-rule="evenodd" fill="#4C4D4E" d="M89.849,61.646c0.8-0.457,0.828-0.314,1.486-1.144l0.285-0.371
	c0.4-0.429,0.686-0.715,1.058-1.172c1.143-1.4,0.2-0.571,1.686-1.914c0.114-0.115,0.543-0.515,0.629-0.601
	c0.515-0.601,0.572-1,0.915-1.2c0.2-0.743,0.057-0.743,0.857-1.629c0.942-1.029,2.343-2.516,2.857-3.858
	c-0.086,0.028-0.143,0.028-0.172,0.114c-0.028,0.086-0.143,0.086-0.171,0.143l-1.058,1.172c-1.486,1.943-1.543,1.543-2.458,2.887
	c-0.686,1-0.8,1.43-1.743,2.4c-0.028,0.029-0.086,0.058-0.114,0.115l-0.485,0.457C92.135,58.617,90.677,59.703,89.849,61.646
	L89.849,61.646z"/>
<path fill-rule="evenodd" clip-rule="evenodd" fill="#868686" d="M31.207,166.358c1.2,0.457,0.429-0.086,2.315-2.029
	c0.686-0.715,1.113-1.515,1.914-2.43c0.515-0.543,3.344-3.743,3.516-4.544l-0.029-0.628l-3,3.486
	c-0.344,0.457-0.771,0.8-1.058,1.114l-3.344,4.43C31.093,166.358,31.378,165.872,31.207,166.358L31.207,166.358z"/>
<path fill-rule="evenodd" clip-rule="evenodd" fill="#4C4D4E" d="M14.061,163.9c-1.028-1.857-3.915-2.601-3.2-5.544
	c2.229-0.229,2.742,0.629,4,1.515c0.629,0.429,1.058,0.8,1.601,1.314c0.601,0.543,0.915,0.972,1.657,1.286
	c-0.143-1.172,0-0.515-0.715-1.058l-2.428-2.086c-1.059-1.115-2.801-2.115-4.602-1.458c-0.515,1.372-0.029,2.829,0.972,3.858
	C12.06,162.442,12.975,163.672,14.061,163.9L14.061,163.9z"/>
<path fill-rule="evenodd" clip-rule="evenodd" fill="#D5D5D7" d="M83.904,48.786l5.373-6.059c0.8-1.258,2.485-2.457,2.829-3.887
	c-1.144,0.229-2.772,2.458-3.516,3.486L84.647,47.3C84.333,47.614,83.59,47.614,83.904,48.786L83.904,48.786z"/>
<path fill-rule="evenodd" clip-rule="evenodd" fill="#868686" d="M125.171,47.558l-2.115,5.059
	c-0.371,0.742-0.515,0.428-0.686,1.257c-0.229,0.657-0.372,1.029-1.314,0.772c-1.058-0.286-0.029-0.372-1.544-0.572
	c0.687,1.2,1.315,1.172,2.601,1.143l1.458-1.828c0.257-0.629-0.058-0.686,0.343-1.4c0.257-0.515,0.429-0.286,0.715-0.914
	c0.229-0.516,0.199-0.772,0.457-1.315L126.6,45.7c-0.801,0.343-0.372-0.258-0.886,0.771c-0.114,0.229-0.114,0.343-0.2,0.571
	C125.285,47.501,125.399,47.271,125.171,47.558L125.171,47.558z"/>
<path fill-rule="evenodd" clip-rule="evenodd" fill="#B6B6B6" d="M43.981,114.316c1-0.343,0.629-0.171,1.258-0.942
	c1.257-1.572,5.458-7.06,6.458-7.603l0.114-0.8l-0.828,0.143c-0.43,0.743-0.229,0.457-0.857,1.086l-5.287,6.573
	C44.238,113.402,44.153,113.345,43.981,114.316L43.981,114.316z"/>
<path fill-rule="evenodd" clip-rule="evenodd" fill="#4C4D4E" d="M68.301,85.339c1.4-0.516,0.257-0.772,1.829-1.258
	c0.285,1.2-0.2,1.629-1.515,2.829c-0.829,0.743-0.372-0.372-0.657,1.086c0.543-0.286,0.229-0.114,0.629-0.343
	c0.028-0.029,0.457-0.343,0.457-0.343l1.743-2.344c0.942-1.4,1.144-1.058,2.058-2.286l0.429-0.686c0-0.115,0.058-0.144,0.086-0.201
	c-1.544,0.801-1.572,1.772-3.229,2.287c0.6-2.229,0.801-1.201,1.429-2.687C70.444,82.052,68.844,84.167,68.301,85.339L68.301,85.339
	z"/>
<path fill-rule="evenodd" clip-rule="evenodd" fill="#D5D5D7" d="M68.187,124.891c1.715-0.485,1.344-0.257,2.029-1.715
	c0.657-1.343,1.743-2.144,2.543-3.086c0.857-1.001,1.887-2.201,1.915-3.173l-3.344,3.744c-0.372,0.4-0.457,0.571-0.687,0.914
	c-0.371,0.543-0.457,0.629-0.885,1.087C69.244,123.176,68.472,124.062,68.187,124.891L68.187,124.891z"/>
<path fill-rule="evenodd" clip-rule="evenodd" fill="#B6B6B6" d="M75.702,111.03c2.029-0.972,4.344-4.687,5.858-6.087
	c0.801-0.743,1.515-1.172,1.544-2.372c-0.058,0.057-0.144,0.028-0.172,0.114c-0.114,0.371-0.143,0.057-0.314,0.2
	c-1.4,1.028,0.114,0.543-1.486,1.429c-0.914,0.515-0.914,1.172-1.571,2.058L75.702,111.03z"/>
<path fill-rule="evenodd" clip-rule="evenodd" fill="#D5D5D7" d="M113.168,53.987c-0.629,0.286-0.343,0.4-1.086,1.144
	c-0.543,0.543-0.515,0.743-1.086,1.343l-1.743,1.915c-0.258,0.372-0.114,0.086-0.286,0.457c-0.257,0.629,0.028-0.457-0.114,0.544
	l0.686-0.029c0.543-1.229,0.4-0.657,1.086-1.515l2.687-2.687c0.771-0.857,0.515-1.258,0.857-1.743
	c0.629,0.571,0.314,0.343,1.2,0.687c-0.485-0.801-0.714-1.172-1.543-0.629c-1.286,0.914,0.972-0.687-0.286,0.257L113.168,53.987z"/>
<path fill-rule="evenodd" clip-rule="evenodd" fill="#B6B6B6" d="M12.546,169.474c-0.057-0.658,0.314-0.372-0.543-0.943
	l-1.572-1.286c-0.371-0.314-0.285-0.286-0.828-0.657c-1.115-0.743-1.801-2.4-3.258-2.229c0.285,0.943,2.771,2.4,4.144,3.801
	c0.372,0.344,0.286,0.344,0.743,0.743c0.6,0.543,0.199-0.143,0.543,0.687L12.546,169.474z"/>
<path fill-rule="evenodd" clip-rule="evenodd" fill="#D5D5D7" d="M104.623,64.476c1.629-0.057,0.086,0.143,1.687-1.285
	c0.571-0.516,0.257-0.43,0.742-0.973c0.943-1.057,1.801-1.343,1.801-2.828l-0.286,0.256c-0.028,0.029-0.085,0.086-0.143,0.115
	c-1.515,1.343-1.486,1.657-2.801,2.943C104.852,63.476,104.938,63.361,104.623,64.476L104.623,64.476z"/>
<path fill-rule="evenodd" clip-rule="evenodd" fill="#222222" d="M41.667,140.352l1.057-0.857l0.058-1.2l-1.172-0.086
	c-0.8,0.486-0.229,0-0.687,0.887c-0.371,0.771-0.714,1.2-1,2.286C41.267,140.724,40.323,140.38,41.667,140.352L41.667,140.352z"/>
<path fill-rule="evenodd" clip-rule="evenodd" fill="#B6B6B6" d="M38.923,156.728c1-0.258,1.029-0.657,1.915-1.801
	c1.771-2.314,1.8-0.8,2.114-2.687c-1.172,0.4-0.714,0.286-1.486,0.943c-1.371,1.2-0.399,0.743-1.886,2.229
	C38.895,156.07,38.724,155.841,38.923,156.728L38.923,156.728z"/>
<path fill-rule="evenodd" clip-rule="evenodd" fill="#B6B6B6" d="M19.176,153.669c-0.372-0.8-0.8-0.857-1.4-1.6
	c-0.028-1.286,0.144-1.687,1.114-2.115l-0.028-0.743l-1.114,0.829c-0.572,0.629-0.029,0.257-0.914,0.828l-0.086,1.372
	C18.376,153.298,18.032,153.584,19.176,153.669L19.176,153.669z"/>
<path fill-rule="evenodd" clip-rule="evenodd" fill="#B6B6B6" d="M58.956,136.094c1.457-0.314,0.771-0.286,1.572-1.372
	c0.656-0.886,1.113-0.771,0.885-1.829c-0.057,0.028-0.171,0-0.199,0.086c0,0.086-0.115,0.058-0.143,0.086
	C60.214,133.693,59.156,135.122,58.956,136.094L58.956,136.094z"/>
<path fill-rule="evenodd" clip-rule="evenodd" fill="#222222" d="M17.147,147.982c0.085,1.028,0.085,0.942,0.942,1.172
	c0.429-1.029-0.028-0.743,0.743-1.458c0.715-0.657,0.686-0.143,0.657-1.429c-0.458,0.143-0.629,0.286-0.972,0.629
	c-0.543,0.514-0.371,0.485-0.6,1.057L17.147,147.982z"/>
<path fill-rule="evenodd" clip-rule="evenodd" fill="#4C4D4E" d="M46.696,150.583c0.657-0.372,0.972-0.801,1.285-1.258
	c0.4-0.6,0.543-0.743,1.001-1.229c0.485-0.515,1.772-2.029,1.886-2.744c-0.6,0.286-0.343,0.058-0.771,0.458L46.696,150.583z"/>
<path fill-rule="evenodd" clip-rule="evenodd" fill="#222222" d="M56.069,84.28c-0.114,1.629,0,0.486,0.258,0.973
	c1.143-0.344,1.457-0.829,1.686-2.145c-1.029,0.201-0.457-0.143-1.229,0.486c-0.4,0.286-0.057,0.114-0.314,0.371
	C56.212,84.224,56.212,84.194,56.069,84.28L56.069,84.28z"/>
<path fill-rule="evenodd" clip-rule="evenodd" fill="#868686" d="M61.413,132.893c0.658-0.2,0.172,0.086,0.801-0.571
	c1.543-1.601,0.715-1.314,1.914-2.001l-0.085-0.8l-2.572,2.572C60.728,133.693,61.386,132.778,61.413,132.893L61.413,132.893z"/>
<path fill-rule="evenodd" clip-rule="evenodd" fill="#B6B6B6" d="M99.965,81.938c0.8-0.515,1-0.972,1.4-1.657
	c0.601-0.973,1.2-0.687,1.515-1.772C101.736,79.022,100.337,80.622,99.965,81.938L99.965,81.938z"/>
</svg>
