<?xml version="1.0" encoding="utf-8"?>
<!-- Generator: Adobe Illustrator 15.0.0, SVG Export Plug-In . SVG Version: 6.00 Build 0)  -->
<!DOCTYPE svg PUBLIC "-//W3C//DTD SVG 1.1//EN" "http://www.w3.org/Graphics/SVG/1.1/DTD/svg11.dtd">
<svg version="1.1" id="Layer_1" xmlns="http://www.w3.org/2000/svg" xmlns:xlink="http://www.w3.org/1999/xlink" x="0px" y="0px"
	 width="126px" height="82px" viewBox="0 0 126 82" enable-background="new 0 0 126 82" xml:space="preserve">
<path fill="#2F3030" d="M67.438,60.104l0.768-0.092C67.964,60.375,67.707,60.557,67.438,60.104L67.438,60.104z M54.084,56.668
	l0.105,1.508c-0.724,0.028-1.236,0.405-1.236-0.498C52.954,56.999,53.345,56.653,54.084,56.668L54.084,56.668z M79.433,57.438
	c0.362-0.287,0.769-0.573,1.236-0.438l0.045,0.543l-0.331,0.332l-0.754,0.045L79.433,57.438z M55.47,56.818
	c0.182,0.241,0.347,0.332,0.693,0.483c0.527,0.24,0.422-0.077,0.377,0.271c-0.664,0.121-1.085,0.105-1.628-0.074
	C55.169,57.271,55.275,57.165,55.47,56.818L55.47,56.818z M87.074,56.864v-1.282C87.632,55.643,87.661,56.788,87.074,56.864
	L87.074,56.864z M41.424,55.975l0.648-0.076c0.121,0.559,0.166,0.452,0.166,1.131c-0.438-0.03-0.694-0.136-0.964-0.301
	C41.274,56.397,41.319,56.186,41.424,55.975L41.424,55.975z M53.828,55.613l0.859,0.061l-0.03,0.512
	C54.084,56.426,53.843,56.352,53.828,55.613L53.828,55.613z M43.881,55.281l0.075,0.272c0.392,0.18,0.121-0.241,0.377,0.331
	c-0.15,0.541-0.136,0.482-0.754,0.572c-0.181-0.286-0.286-0.346-0.331-0.692c-0.03-0.272,0.06-0.604,0.256-0.709
	C44.273,54.981,43.565,54.995,43.881,55.281L43.881,55.281z M75.876,56.698c-0.09-0.77,0-0.407,0.482-1.175
	c0.437-0.68,0.543-0.122,0.844-0.815c0.332,0.815,0.527,0.046,0.573,0.8l-0.845,0.121C76.69,56.201,76.659,56.744,75.876,56.698
	L75.876,56.698z M37.22,55.026l-0.045-0.347l0.423,0.029C37.536,55.04,37.582,55.101,37.22,55.026L37.22,55.026z M50.919,54.483
	c-0.015-0.046-0.09-0.604,0.076-0.935c0.332-0.031,0.422,0.074,0.648,0.211l0.014,0.678C51.296,54.573,51.281,54.634,50.919,54.483
	L50.919,54.483z M53.692,55.281c-0.21-0.481-0.181-0.678-0.091-1.312c0.739,0,0.708,0.438,0.453,0.995
	C53.903,55.268,53.889,55.177,53.692,55.281L53.692,55.281z M46.082,53.714l0.226-0.315c0.498,0.24,0.151,0.014,0.453,0.361
	c0.498,0.572,0.633,0.481,0.181,1.084C46.157,54.377,46.399,54.332,46.082,53.714L46.082,53.714z M44.906,53.473l0.514-0.137
	l0.195,0.514c0.182,0.647-0.422-0.407,0.061,0.181l-0.784,0.03L44.906,53.473z M42.57,54.407l-0.121-0.558
	c0.317-0.392,0.89-0.92,1.01-0.136C43.549,54.287,42.932,54.332,42.57,54.407L42.57,54.407z M39.887,53.925
	c-0.497,0.121-0.271,0.15-0.753-0.045C39.043,53.111,40.069,52.539,39.887,53.925L39.887,53.925z M74.279,53.954v-0.467
	c0.405,0.045,0.347,0,0.467,0.347C74.505,53.97,74.64,53.925,74.279,53.954L74.279,53.954z M82.643,53.217
	c0.271-0.316,0.468-0.422,0.936-0.527c0.043,0.06,0.209,0.24,0.24,0.422c0.105,0.527-0.197,0.769-0.739,0.634
	C82.657,53.639,82.793,53.503,82.643,53.217L82.643,53.217z M61.755,52.629C62.734,53.76,60.956,53.91,61.755,52.629L61.755,52.629z
	 M69.788,52.313c0.481-0.212,1.04-0.107,1.432,0.104c0.708,0.392,0.482,0.873,0.361,1.176c0,0-1.506-0.091-1.536-0.091
	C69.441,53.398,69.622,52.704,69.788,52.313L69.788,52.313z M50.045,53.187c-0.09-0.227-0.165-0.423-0.031-0.709
	C50.287,52.644,50.361,52.9,50.045,53.187L50.045,53.187z M51.853,52.493l0.542-0.136c0.166,0.422,0.196,0.317-0.075,0.693
	C51.869,52.961,51.898,52.976,51.853,52.493L51.853,52.493z M88.731,52.192c0.392-0.452,0.708-0.361,1.146-0.165
	c0,0-0.075,0.571-0.813,0.377C88.672,52.297,88.958,52.389,88.731,52.192L88.731,52.192z M39.48,51.334
	c0.844,0.029,0.918,0.421,0.572,1.1c-0.316-0.166-0.21-0.105-0.376-0.468C39.451,51.499,39.526,51.8,39.48,51.334L39.48,51.334z
	 M51.674,52.027c-0.875,0.391-0.845-0.123-0.709-0.98c0.542-0.271,1.507-0.301,2.065,0c0,0.422,0.015,0.347-0.196,0.618
	c-0.527-0.317,0.076-0.362-0.859-0.452C51.869,51.453,51.793,51.785,51.674,52.027L51.674,52.027z M47.633,51.047
	c0.362-0.332,0.513-0.407,0.679,0.12C47.754,51.709,47.799,51.227,47.633,51.047L47.633,51.047z M42.314,51.047l0.09-0.212
	c0.407-0.708,0.784-0.708,1.704-0.255c0.15,0.075,0.407,0.255,0.437,0.467c0.105,0.618,0.014,0.12-0.061,0.332
	c-0.392,0.165-1.386,0.165-1.748-0.016L42.314,51.047z M70.691,51.423l0.091-1.189c0.015-0.03,0.075-0.121,0.105-0.136
	c0.242-0.241-0.165-0.196,0.587-0.227l0.152,1.04C71.115,51.469,71.143,51.394,70.691,51.423L70.691,51.423z M73.345,51.334
	c-0.015-0.966,0.496-1.207,1.039-1.585l1.267,0.182c0.226,0.469,0.15,0.333,0.497,0.693c-0.815,0.105-0.573,0.377-1.25,0.452
	C73.75,51.212,74.535,51.348,73.345,51.334L73.345,51.334z M59.961,50.52c-0.677-0.105-0.723,0.181-0.527-0.771
	C60.218,49.734,60.172,49.901,59.961,50.52L59.961,50.52z M67.119,50.564c-0.405-0.227-0.376-0.12-0.42-0.708
	c0.542,0,0.405,0.015,0.828,0.135C67.361,50.398,67.512,50.354,67.119,50.564L67.119,50.564z M46.489,49.676
	c0.829-0.077,1.326-0.257,1.296,0.558c-0.256,0.165-0.543,0.211-0.92,0.271C46.624,50.233,46.489,50.142,46.489,49.676
	L46.489,49.676z M70.3,48.801c0.301,0.15,0.482,0.016,0.406,0.979l-0.677,0.015C69.863,48.681,70.21,48.891,70.3,48.801L70.3,48.801
	z M80.609,48.891l0.028,0.815c-0.542,0.15-0.902,0.104-1.294-0.046c0.043-0.573,0.014-0.408,0.451-0.632
	C80.217,48.816,80.036,48.786,80.609,48.891L80.609,48.891z M83.622,49.706c0.046-0.454,0.165-0.783,0.287-1.161
	c0.528,0.03,0.406,0.075,0.858,0.151C84.829,49.66,84.587,49.766,83.622,49.706L83.622,49.706z M74.384,49.39
	c-0.045-1.116,0.196-0.167,0.738-0.996l0.272,0.347l1.04,0.091C76.208,49.887,75.35,48.997,74.384,49.39L74.384,49.39z
	 M50.904,48.997c-0.301,0.24-0.226,0.226-0.738,0.226c0.121-0.451-0.196-0.332,0.256-0.542
	C51.115,48.363,50.769,48.726,50.904,48.997L50.904,48.997z M44.002,49.615l-0.844,0.15c-0.182-0.317-0.347-0.437-0.392-0.89
	c0.106-0.104,0.045-0.06,0.196-0.166c0.014-0.014,0.121-0.074,0.15-0.105l0.136-0.119c0.15-0.137,0.663-0.649,0.934-0.106
	C44.349,48.726,44.002,48.514,44.002,49.615L44.002,49.615z M72.319,48.077c0.332,0.182,0.541,0.166,0.286,0.648
	C72.094,48.65,72.063,48.59,72.319,48.077L72.319,48.077z M65.914,47.973c0.136,0.09,0.347,0.255,0.361,0.421
	c0.046,0.303-0.226,0.316-0.33,0.393L65.914,47.973z M53.15,48.485c0.135-0.287-0.182-0.228,0.195-0.242
	c0.406-0.016,0.136,0,0.256,0.242C52.984,48.847,53.255,48.531,53.15,48.485L53.15,48.485z M48.146,48.139
	c0.799-0.378,0.875,0.255,0.648,0.526c-0.256,0.151,0.332,0.121-0.316,0.136c-0.241,0-0.271-0.06-0.437-0.12
	c-0.015-0.287-0.045-0.105,0.015-0.317c0-0.03,0.014-0.091,0.03-0.12C48.086,48.213,48.116,48.169,48.146,48.139L48.146,48.139z
	 M69.275,48.379c-0.497,0.406-0.662,1.311-1.175,0.799c-0.181-0.195-0.151-0.633,0.09-0.769
	C68.371,48.305,69.033,48.363,69.275,48.379L69.275,48.379z M55.562,47.776v1.01c-0.934,0.046-0.934,0.076-1.614-0.272
	C54.234,48.243,55.169,47.866,55.562,47.776L55.562,47.776z M64.182,48.951c-0.497-0.015-0.166,0.077-0.452-0.15l-0.363-0.315
	l0.725-0.859c0.391-0.377,0-0.317,0.481-0.302l0.09,0.783C64.016,48.65,64.468,48.394,64.182,48.951L64.182,48.951z M44.559,48.333
	c-0.195-0.497-0.076-0.722-0.06-1.265c0.633-0.015,0.633-0.076,1.086,0.104c0.15,0.393,0.104,0.378,0.075,0.92
	c-0.136,0.092-0.211,0.15-0.437,0.226C44.53,48.545,44.62,48.349,44.559,48.333L44.559,48.333z M71.204,47.339
	c0.617,0.12,0.513,0.632,0.331,0.724c-0.42,0.181-0.481-0.121-0.481-0.348C71.069,47.068,71.069,47.52,71.204,47.339L71.204,47.339z
	 M37.642,48.228c0-0.315-0.03-1.129,0.527-1.296l0.482,0.045l0.137,0.755c-0.061,0.331-0.137,0.438-0.483,0.496
	C38.125,48.243,37.822,48.228,37.642,48.228L37.642,48.228z M31.719,48.018c-0.045-0.256-0.105-0.302,0.015-0.588
	c0.136-0.347,0.15-0.256,0.422-0.315C32.382,47.505,32.412,48.228,31.719,48.018L31.719,48.018z M75.74,47.339
	c0.165-0.302-0.104-0.377,0.527-0.285c0.438,0.059,0.468,0.239,0.573,0.42c-0.092,0.077,0.061,0.228-0.543,0.228
	C75.485,47.701,75.846,47.459,75.74,47.339L75.74,47.339z M40.264,47.142l-0.391,1.043c-0.256-0.364-0.633-1.102,0.06-1.147
	C40.626,46.992,39.978,47.008,40.264,47.142L40.264,47.142z M86.019,47.459c-0.633-0.075-0.587-0.557-0.422-1.28
	c0.678-0.046,0.979-0.105,1.085,0.528c0.061,0.315,0.076,0.873-0.301,0.933C85.611,47.776,86.063,47.505,86.019,47.459
	L86.019,47.459z M82.417,46.449c0.376,0.212,0.286,0.031,0.392,0.513l-0.377,0.287C82.205,46.826,82.205,46.842,82.417,46.449
	L82.417,46.449z M50.829,47.655l-0.031-0.06c-0.15,0.347,0.272,0.24-0.271,0.302c-0.347-0.077-1.009-1.522,0.121-1.372
	c0.513,0.074,0.332,0.331,0.693,0.497c0.633,0.241,0.678-0.136,0.664,0.77L50.829,47.655z M49.201,46.48l0.031,0.481
	c-0.256,0.152,0.031,0.137-0.347,0.137c-0.121,0-0.241-0.061-0.422-0.137C48.719,46.525,48.734,46.587,49.201,46.48L49.201,46.48z
	 M44.454,46.826c0,0,0.151,0.663-1.115,0.182c0.09-0.378-0.015-0.421,0.422-0.497c0.015,0,0.377,0.015,0.392,0.015
	C44.499,46.646,44.303,46.525,44.454,46.826L44.454,46.826z M83.412,46.449c0.074-0.165-0.212-0.331,0.421-0.331
	c0.71-0.016,0.332,0.106,0.407,0.331c-0.181,0.15,0.377,0.196-0.407,0.181C83.079,46.615,83.637,46.615,83.412,46.449L83.412,46.449
	z M80.563,46.314c0.136-0.227-0.046-0.407,0.587-0.363c0.739,0.046,0.393-0.014,0.514,0.498c-0.092,0.076,0.271,0.392-0.649,0.241
	C80.291,46.587,80.714,46.495,80.563,46.314L80.563,46.314z M77.534,45.771c1.312,0.241,1.16,1.131,0.438,0.828
	C77.429,46.39,77.519,46.39,77.534,45.771L77.534,45.771z M64.378,46.27c0.271-0.137,0.542-0.228,0.948-0.196
	c-0.014,0.376-0.09,0.482-0.255,0.694C64.633,46.722,64.619,46.511,64.378,46.27L64.378,46.27z M31.222,46.314
	c0.105-0.166-0.06-0.377,0.934-0.241c0.407,0.06,0.136-0.017,0.362,0.121c-0.076,0.271-0.045,0.346-0.498,0.405
	C31.508,46.676,31.418,46.63,31.222,46.314L31.222,46.314z M46.292,45.938c0.015-0.497,0.287-0.859,0.679-1.16
	c0.241,0.452,0.21,0.467,0.241,1.175l0.498,0.196c0,0.481,0.014,0.738-0.498,0.799c-0.105-0.151-0.06,0.015-0.105-0.271
	C46.94,45.697,47.016,46.329,46.292,45.938L46.292,45.938z M53.436,46.028c-0.603,0.06-1.281,0.09-1.733-0.105
	c0.061-0.604,0.211-0.498,0.874-0.482C53.21,45.455,53.481,45.336,53.436,46.028L53.436,46.028z M44.967,46.253l-1.507-0.089
	c-0.015-0.076-0.031-0.166-0.045-0.151l-0.045-0.21c-0.121-1.267,1.401-0.362,1.401-0.362
	C45.102,45.711,44.982,45.802,44.967,46.253L44.967,46.253z M79.99,45.168c0.798-0.482,0.633-0.014,0.692,0.257
	c0,0,0.105,0.285-0.42,0.165C79.87,45.501,80.096,45.409,79.99,45.168L79.99,45.168z M70.963,46.042
	c-0.316-0.617-0.467-1.114,0.362-1.387c0.21,0.242,0.271,0.394,0.496,0.649C71.446,45.878,71.716,46.042,70.963,46.042
	L70.963,46.042z M61.272,45.711c-0.045,0.951,0.091,0.633,0.242,1.251l-0.829-0.015c-0.151-0.995-0.497-0.828-0.618-1.507
	c-0.03-0.227-0.03-0.602-0.03-0.828c0.527,0.227,0.482,0.347,0.573,0.393c0.693,0.028,1.055-0.152,1.446-0.016
	C62.011,45.697,61.966,45.53,61.272,45.711L61.272,45.711z M37.25,44.777c0.196,0.166,0.498,0.346,0.634,0.527
	C37.22,45.878,37.04,45.56,37.25,44.777L37.25,44.777z M87.557,45.154c-0.077-0.588-0.121-0.708,0.091-1.146
	c0.332,0.105,0.768,0.406,0.903,0.784C88.249,45.033,88.038,45.154,87.557,45.154L87.557,45.154z M38.245,43.767
	c1.04,0.092,1.326,0.95,1.085,1.191c-0.031,0.015-0.076,0-0.09,0.046c-0.016,0.045-0.076,0.029-0.091,0.045
	c-0.481,0.06-0.497-0.031-0.979-0.15L38.245,43.767z M59.208,44.28c-0.514-0.061-0.558-0.137-1.236-0.165
	c-0.196-0.515-0.287-0.815,0.467-0.86C59.344,43.209,59.193,43.48,59.208,44.28L59.208,44.28z M68.478,44.205v-0.71h0.828
	c-0.061,0.438,0.12,0.196-0.196,0.482C68.883,44.174,68.778,44.144,68.478,44.205L68.478,44.205z M40.958,43.254
	c0.166-0.104-0.166-0.029,0.346-0.194c0.227-0.061,0.15-0.152,0.393-0.03c0.271,0.15,0.165,0.647,0.15,0.979
	C40.852,43.947,40.942,43.616,40.958,43.254L40.958,43.254z M85.611,42.983c0.347,0.061,0.452-0.091,0.407,0.393
	c-0.03,0.377-0.122,0.256-0.407,0.391C85.25,42.953,85.597,43.014,85.611,42.983L85.611,42.983z M37.386,42.893
	c0.436-0.36,0.09-0.301,0.678-0.422c0.196,0.362,0.241,0.452,0.211,1.041c-0.708,0.061-1.538,0.045-2.034-0.257
	C36.36,42.923,35.969,42.953,37.386,42.893L37.386,42.893z M77.55,43.541c-0.016-0.316-0.182-0.799,0.844-0.965v0.739
	C78.092,43.436,77.912,43.495,77.55,43.541L77.55,43.541z M69.953,43.119c0.015,0.03-0.03,0.211-0.03,0.256
	c-0.467-0.137-0.527,0.151-0.316-0.558C69.968,42.983,69.788,42.803,69.953,43.119L69.953,43.119z M39.043,42.23
	c1.522-0.061,0.497,1.492,0.044,0.738C38.998,42.803,39.043,42.426,39.043,42.23L39.043,42.23z M76.69,43.149
	c-0.166-0.15-0.061,0.211-0.242-0.302c-0.211-0.573-0.061-0.813,0.242-1.01C77.007,42.215,76.931,42.803,76.69,43.149L76.69,43.149z
	 M58.967,42.517h0.498c-0.136,0.345-0.121,0.345-0.483,0.452L58.967,42.517z M80.594,41.929c1.055-0.543,0.256-0.316,1.04-0.543
	c-0.016,0.242-0.016,0.633-0.045,0.859c-0.092,0.468-0.182,0.422-0.302,0.558c-0.423,0-0.604,0-0.678-0.438
	C80.578,42.215,80.594,42.063,80.594,41.929L80.594,41.929z M72.229,42.622c0.258,0.226,0.392,0.226,0.346,0.724
	c-0.889,0.074-0.813,0.03-0.903-0.8c-0.587-0.196-0.724-0.031-0.994-0.437c0.271-0.407-0.046-0.196,0.617-0.301
	c0.271-0.046,0.483-0.077,0.784-0.061C72.245,42.186,72.229,42.049,72.229,42.622L72.229,42.622z M57.294,42.381
	c-0.21-0.106-0.392-0.257-0.497-0.378c0,0,0.889-0.813,1.115,0.228C57.565,42.576,57.701,42.561,57.294,42.381L57.294,42.381z
	 M42.947,41.295c0.406,0,0.481,0.046,0.709,0.286c0.889,0.965-0.514,0.56-0.784,0.528L42.947,41.295z M49.805,41.19
	c-0.332-0.587-0.015-0.15,0.014-0.362l0.438,0.016c0.046,0.15,0.105-0.196,0.046,0.361l-0.151,0.228
	C49.759,41.28,50.06,41.658,49.805,41.19L49.805,41.19z M94.684,38.929c-0.301-0.391-0.331-0.437-0.12-0.889
	c0.649,0.09,0.663,0.301,0.754,0.362C95.092,38.764,95.106,38.81,94.684,38.929L94.684,38.929z M32.668,27.942
	c0.182-0.633,0.377-0.874,0.845-1.16c0.633-0.392,0.604-0.587,1.326-0.738c0.604-0.347,1.025-0.738,1.658-0.829
	c0.136-0.438,0.482-0.543,0.979-0.618c0.15-0.075,0.136-0.075,0.271-0.091c0.317-0.361,0.195-0.196,0.664-0.316
	c0.919-0.24,0.166-0.422,1.975-0.618l0.21,0.03c0.242-0.332-0.241-0.045,0.377-0.332c0.121-0.059,0.256-0.09,0.377-0.121
	c0.317-0.06,0.709-0.06,0.995-0.195c0.256-0.105,0.437-0.286,0.708-0.347c0.346-0.06,0.693-0.045,1.085-0.135
	c0.768-0.196,0.904-0.317,1.884-0.423c0.709-0.075,1.085-0.316,1.748-0.421c1.281-0.197,2.622-0.513,3.904-0.588
	c0.738-0.03,1.235-0.15,2.049-0.135c0.754,0,1.176-0.196,1.974-0.271c3.919-0.332,7.46-0.061,11.167-0.242
	c1.114-0.045,3.527,0.332,4.205,0.376c0.693,0.031,1.221-0.044,1.838,0.332c0.89-0.075,1.945,0.091,2.698,0.301l5.063,0.784
	c0.874,0.467,1.116,0.362,2.275,0.573c0.588,0.105,0.618,0.287,1.266,0.391l2.532,0.573c0.105,0.031,0.723,0.528,0.859,0.647
	c0.437,0.091,0.708,0.256,1.205,0.392c0.513,0.15,0.559,0.226,0.949,0.481c0.498,0.152,1.132,0.438,1.401,0.724
	c0.692,0.708,0.665,0.166,1.102,0.949h-0.137c1.297,0.452,3.257,3.09,1.944,5.125l-0.285,0.422
	c-0.152,0.573,0.059,0.105-0.212,0.468c-0.392,0.527-1.477,1.477-2.064,1.643c-0.149,0.06-0.422,0.286-0.784,0.452
	c-0.104,0.121-0.06,0.121-0.195,0.241c-0.406,0.376,0.287-0.166-0.15,0.121c-0.256,0.181-0.135,0.091-0.421,0.151
	c-0.604,0.105-0.724,0.482-1.539,0.437c-0.15,0.227,0.347,0.03-0.316,0.347c-0.271,0.121-0.119,0.104-0.527,0.09l0.061-0.09
	l-1.023,0.526c-0.694,0.317-0.196,0.212-1.236,0.317v0.061c-0.212,0.361-0.076,0.376-1.297,0.603l-0.98,0.287
	c-0.346,0.075-0.179,0.015-0.391-0.015c-1.146,0.09-2.021,0.467-3.074,0.604c0,0.014,0,0.436,0,0.467
	c-0.046,0.286-0.182,0.437-0.408,0.302c-0.45-0.256,0.137-0.076-0.27-0.272c-0.362-0.166-2.142,0.151-3,0.105
	c-0.844-0.09-1.311,0.195-2.125,0.316c-0.738,0.121-1.644,0.016-2.337,0.106c-0.27,0.377,0.469,0.15-0.541,0.301l-1.778,0.09
	c-2.939,0.256-4.507,0.227-7.535,0.121c-0.829-0.03-1.793,0.15-2.563,0.061c-0.769-0.106-1.718-0.241-2.486-0.03
	c-1.25,0.347-0.769-0.197-1.779-0.422c-0.798-0.181-1.748-0.061-2.365-0.121l-2.201-0.377c-0.406-0.046-0.678,0.015-1.22-0.061
	c-1.748-0.241-0.92-0.195-2.065-0.482c-0.573-0.136-0.664-0.15-1.281-0.136c-0.468,0-0.587,0.015-0.965-0.196
	c-0.181-0.121-0.09-0.105-0.392-0.227c0-0.015-4.626-1.145-6.359-1.928c-0.333-0.151-0.664-0.061-1.055-0.211
	c-0.287-0.105-0.393-0.302-0.8-0.392l-0.407,0.483c-0.316,0.346-0.06,0.196-0.482,0.422c-1.07-0.422-0.256-1.085-0.211-2.05
	c-0.332-0.076-0.452-0.105-0.784-0.272l-0.029-0.361c-0.528-0.046-0.693-0.317-0.92-0.604c-0.542-0.091-0.844-0.106-0.89-0.648
	c-0.271-1.01-0.859-0.844-0.663-3.919C32.879,28.033,32.111,28.319,32.668,27.942L32.668,27.942z M51.974,20.166
	c-0.332-0.016-1.055,0.136-1.432,0.226c-0.648,0.166-0.799,0.151-1.552,0.211c-1.206,0.076-1.703,0.513-3.044,0.452
	c-0.227,0.301,0.075,0.151-0.633,0.256c-0.814,0.121,0.227,0.241-1.552,0.347c-0.633,0.045-0.664,0.18-1.041,0.362
	c-0.347,0.166-0.769,0.15-1.146,0.256c-1.809,0.558-2.984,1.432-4.205,1.447c-1.461,1.04-1.07,0.332-3.271,1.959
	c-0.918,0.678,0.272-0.542-1.22,0.949c-2.109,2.125-1.265,1.883-1.658,2.698c-0.151,0.332-0.301,0.227-0.347,0.679
	c-0.121,1.175,0.015,3.059,0,4.324c-0.046,2.879,0.015,5.803-0.076,8.667c-0.045,1.642,0.316,7.762-0.045,8.682l0.542,1.189
	l0.573,0.137c0.498,1.354,1.161,1.296,1.477,1.943h0.045c0.754,0.166,0.332,0,1.146,0.604c0.362,0.271,0.135,0.226,0.708,0.527
	c0.121,0.06,0.196,0.075,0.271,0.151c0.227,0.195,0.121,0.03,0.241,0.391l0.106,0.015c0.347,0.03,0.361,0.046,0.573,0.212
	c0.316,0.226-0.166-0.196,0.136,0.121c0.121,0.135,0.09,0.121,0.196,0.255l0.286-0.106c0.904-0.059,0.724,0.484,2.02,0.469
	c0-0.724-0.106-0.724,0.362-1.023c0.362,0.195,0.347,0.36,0.451,0.661l0.708-0.858c0.076,0.105,0.392,0.935,0.407,0.994
	c0.076,0.438-0.558,0.392-0.89,0.497c0.272,0.378-0.271,0.077,0.468,0.378l1.402,0.498c0.406,0.12,0.3,0.255,0.859,0.36
	c0.361,0.076,0.783,0.076,1.159,0.137c0.438,0.09,0.648,0.301,0.859,0.361c0.648,0.182,2.004-0.015,2.487,0.091
	c1.206,0.257-0.649,0.181,1.914,0.647c0.165,0.03,0.286,0.015,0.512,0.075c1.372,0.378,1.055,0.378,2.788,0.424
	c2.487,0.059,5.003,0.602,7.159,0.48c0.603-0.029,0.709,0.031,1.281,0.077c0.573,0.044,1.206-0.287,2.427-0.196
	c0.422,0.031,0.769,0.24,1.145,0.255c0.648,0.046,1.629-0.181,2.412-0.165c1.687,0.061,3.314,0.061,4.701-0.437
	c0.468-0.165,3.663,0.271,4.234-0.483c0.542-0.03,1.101,0.015,1.659,0c0.692-0.015,1.175-0.332,1.642-0.136
	c0.347-0.271,0.919-0.33,1.416-0.392c0.785-0.09,0.875,0.016,1.282-0.451l1.401-0.075L83.2,59.337
	c0.846-0.964,0.737-0.392,1.81-0.738c0.541-0.181,0.182-0.315,0.859-0.452c0.526-0.104,0.602,0.046,1.009-0.227
	c0.528-0.361,0.242-0.209,1.024-0.315l1.778-0.724c0.332-0.271,0.271-0.406,0.859-0.393c0-0.375,0.481-0.421,0.935-0.603
	c0.196-0.091,0.316-0.21,0.571-0.346c0.137-0.316-0.059-0.15,0.168-0.332c0.24-0.181,0.074-0.091,0.405-0.105
	c0.301-0.332,0.949-0.737,1.567-1.478l0.211-0.226c0.03-0.03,0.076-0.062,0.104-0.076c0.062-0.361,0.091-0.209,0.241-0.557
	c0.077-0.183,0.062-0.241,0.121-0.377c0.152-0.317,0.061-0.15,0.227-0.272c-0.092-1.702,1.281-0.407,0.904-6.435
	c-0.149-2.336,0.166-4.958,0-7.28c-0.149-2.336,0.196-4.929,0.076-7.264c-0.061-1.055-0.317-0.693-0.604-1.296
	c-0.663-1.462-0.091-0.513-0.949-1.869c-0.332-0.512-0.482-0.904-1.237-1.447c-0.526-0.301-0.315-0.331-0.647-0.526
	c-0.091-0.077-0.949-0.363-1.597-1.056c-0.739-0.121-0.603-0.376-1.206-0.572l-2.441-0.996c-0.678-0.301-0.542-0.181-1.101-0.527
	c-0.451-0.165-0.935-0.121-1.311-0.287c-0.541-0.255-0.121-0.21-0.995-0.392c-0.949-0.181-0.075-0.196-2.321-0.542l-4.521-1.055
	c-0.03-0.014-0.074-0.03-0.091-0.09c-0.029-0.045-0.075-0.045-0.105-0.076l-0.074,0.076c-1.281,0.09-1.794-0.287-2.729-0.332
	c-0.874-0.06-2.141-0.166-2.938-0.135l-3.963-0.061c-0.423-0.015-0.543-0.15-0.89-0.21c-1.085-0.181-8.396-0.105-9.661,0.015
	C55.214,19.909,53.466,20.211,51.974,20.166L51.974,20.166z"/>
<path fill="#A1DBE3" d="M54.868,21.281l-0.664-0.046c-0.181,0.211,0.241,0.137-0.482,0.182c-1.658,0.135-0.754,0.286-1.522,0.317
	c-0.829,0.044-1.688,0.014-2.516,0.075c-0.377,0.347-0.467,0.422-1.191,0.437c-3.391,0.121-1.703,0.664-4.836,0.648
	c-0.619,0.121-0.348,0.227-0.83,0.393c-0.332,0.105-0.738,0.09-1.009,0.165c-0.498,0.15-0.317,0.256-0.875,0.391
	c-1.024,0.227-1.612,0.513-2.682,0.891l-1.537,0.663c-0.167,0.256-0.136,0.331-0.482,0.483c-1.538,0.663-0.105,0.195-1.041,0.617
	l-1.507,0.964c-0.301,0.317-0.452,0.558-0.859,0.784c-0.09,0.633-0.075,0.182-0.377,0.648c-0.045,0.09-0.121,0.286-0.15,0.347
	c-0.181,0.255-0.03,0.121-0.301,0.21c0.618,4.144,1.537,2.819,2.125,4.189l1.779,0.89c0.09,0.09,0.045,0.121,0.316,0.332
	c0.452,0.377,0.618,0.362,0.8,0.483l0.362,0.407c0.889-0.016,1.191,0.015,1.598,0.496c0.934,0.106,1.145-0.075,1.883-0.044
	l0.015,0.723c1.235-0.166,0.949,0.151,1.537,0.392c0.392,0.166,1.372,0.136,1.854,0.15l0.422,0.498
	c1.552-0.137,2.411,0.376,2.983,0.481c0.438,0.076,1.146,0.121,1.538,0.256c0.784,0.256,0.361,0.151,1.491,0.21
	c2.442,0.136,4.19,0.587,6.586,0.618c4.793,0.044,9.313,0.031,14.03-0.06l0.317-0.227c0.18-0.091,0.18-0.105,0.452-0.121
	c1.702-0.104,3.812,0.031,5.38-0.557c0.482-0.181,1.643-0.121,2.274-0.211c0.332-0.271,0.408-0.332,0.905-0.377
	c0.468-0.044,1.009-0.059,1.478-0.075c0.572-0.527,0.542-0.406,1.582-0.527c0.783-0.091,0.92-0.467,1.659-0.482
	c0.722-0.09,0.405-0.136,0.934-0.347c0.392-0.181,0.873-0.196,1.326-0.226l-0.061,0.09c0.121-0.286-0.092-0.181,0.271-0.392
	c0.316-0.196,0.392-0.075,0.572-0.045l-0.061-0.076l0.167-0.346c0.225-0.106,0.903-0.271,1.04-0.347
	c0.617-0.362-0.212-0.392,1.159-0.482l0.542-0.468l0.482-0.075l-0.136,0.016l0.091-0.423c0.664-0.241,0.889-0.889,1.447-1.205
	c0-0.317-0.046-0.045,0.226-0.045c0.15-0.678,0.166-0.076,0.452-0.829c0.152-0.422,0.271-0.542,0.361-0.769
	c0.316-0.874-0.24-1.131-0.316-1.733c-0.874-0.527-0.604-0.89-1.371-1.493l-0.497-0.497c-0.302-0.255-0.739-0.135-0.649-0.663
	c-0.496-0.105-0.421-0.135-0.722-0.451l-1.086-0.136L89.5,25.5c-1.281-0.105-0.724-0.362-1.703-0.542
	c-0.618-0.105-1.568-0.754-2.291-0.979c-0.316-0.105-0.588-0.045-0.904-0.105c-0.829-0.165,0.182-0.301-1.673-0.542
	c-0.949-0.121-0.528-0.347-1.642-0.452c-0.724-0.076-1.389-0.076-1.99-0.272c-0.904-0.286-0.604-0.255-1.854-0.346
	c-0.783-0.045-1.13-0.045-1.566-0.437l-3.331-0.21l0.015-0.347c-0.724,0.061-3.782,0.031-4.476-0.06
	c-1.4-0.211-2.953-0.031-4.415-0.091C60.746,21.01,57.867,21.297,54.868,21.281L54.868,21.281z"/>
<path fill="#C7C7C6" d="M44.695,37.965c0.708,0.481,2.186,0.573,3.014,0.738c0.498,0.105,0.859,0.241,1.417,0.346l8.168,0.799
	c2.336,0.029,4.883,0.301,7.145,0.21c0.706-0.031,1.205-0.045,1.914-0.015l5.138-0.316c0.692-0.09,1.598,0.015,2.336-0.106
	c0.813-0.121,1.282-0.406,2.125-0.316l3.679-0.603c1.054-0.136,1.928-0.513,3.073-0.603c0.166-0.181-0.029-0.045,0.317-0.256
	l2.352-0.617v-0.061v-0.271c-0.738,0.015-0.874,0.391-1.658,0.482c-1.04,0.121-1.011,0-1.583,0.527
	c-0.467,0.016-1.01,0.03-1.477,0.076c-0.497,0.045-0.572,0.106-0.905,0.377c-0.633,0.09-1.793,0.031-2.275,0.211
	c-1.567,0.587-3.678,0.452-5.379,0.558c-0.273,0.015-0.273,0.03-0.453,0.121l-0.316,0.227c-4.717,0.091-9.238,0.104-14.03,0.06
	c-2.396-0.031-4.144-0.482-6.586-0.618c-1.13-0.06-0.707,0.045-1.492-0.21c-0.391-0.136-1.1-0.181-1.537-0.256
	C47.106,38.342,46.248,37.83,44.695,37.965L44.695,37.965z"/>
<path fill="#6A6A6A" d="M37.054,57.119c0.182,0.183-0.015,0.076,0.347,0.318c0.241,0.15,0.121,0.104,0.362,0.12
	c1.341,0.406,0.587,0.195,1.281,0.527c0.346,0.165,3.195,0.813,3.857,1.371c0.362-0.391,1.131,0.362,2.788,0.438l2.683,0.662
	l0.271-0.076c1.583,0.137,0.95,0.303,1.658,0.393c1.838,0.257,10.655,0.89,11.65,0.693c0.647-0.122,1.386-0.122,2.049,0.015
	c1.749,0.347,14.86-0.783,15.221-1.356c-0.467-0.196-0.949,0.121-1.642,0.136c-0.558,0.015-1.116-0.029-1.659,0
	c-0.571,0.754-3.767,0.318-4.234,0.482c-1.386,0.496-3.013,0.496-4.701,0.438c-0.783-0.016-1.764,0.21-2.411,0.164
	c-0.377-0.014-0.723-0.226-1.145-0.255c-1.221-0.091-1.854,0.241-2.427,0.195c-0.572-0.046-0.678-0.104-1.281-0.075
	c-2.155,0.121-4.671-0.423-7.159-0.482c-1.733-0.044-1.417-0.044-2.788-0.422c-0.226-0.061-0.346-0.046-0.512-0.075
	c-2.563-0.468-0.709-0.393-1.914-0.648c-0.483-0.104-1.838,0.09-2.487-0.089c-0.21-0.062-0.422-0.272-0.859-0.364
	c-0.377-0.06-0.799-0.06-1.16-0.136c-0.558-0.104-0.452-0.239-0.858-0.361l-1.402-0.497c-0.739-0.301-0.196,0-0.468-0.378
	c0.332-0.104,0.965-0.059,0.89-0.496c-0.015-0.061-0.332-0.89-0.407-0.994l-0.708,0.858c-0.105-0.301-0.09-0.468-0.452-0.662
	c-0.468,0.301-0.362,0.301-0.362,1.024C37.778,57.603,37.958,57.06,37.054,57.119L37.054,57.119z"/>
<path fill="#C7C7C6" d="M79.222,60.225C78.859,60.798,65.749,61.928,64,61.581c-0.662-0.137-1.401-0.137-2.049-0.015
	c-0.995,0.196-9.811-0.437-11.649-0.693c-0.708-0.09-0.076-0.256-1.658-0.393l0.135,0.469c0.467,0.03,1.447,0.09,1.884,0.181
	c1.085,0.211-0.468,0.15,1.461,0.377c1.206,0.136,2.562,0.06,3.768,0.12c1.13,0.061,2.366,0.286,3.511,0.423
	c1.101,0.15,2.652,0,3.843,0.03c0.241,0.391-0.014,0.03,0.785,0c1.672-0.061,4.746,0.182,6.103-0.271
	c1.131-0.377,2.909,0.029,4.671-0.513c0.754-0.226,1.492-0.165,2.262-0.286c0.482-0.076,0.497-0.196,0.934-0.271
	c1.885-0.363,1.777,0.149,3.06-0.603l0.211-0.122C80.654,60.104,79.795,60.526,79.222,60.225L79.222,60.225z"/>
<path fill="#6A6A6A" d="M35.186,36.323c-0.406-0.709-0.121-1.176,0.437-0.588L35.186,36.323z M71.49,39.729l-5.138,0.316
	c-0.709-0.03-1.208-0.015-1.914,0.015c-2.261,0.09-4.808-0.182-7.145-0.21l-8.168-0.799c-0.558-0.105-0.919-0.241-1.417-0.346
	c-0.828-0.166-2.305-0.256-3.014-0.738c-0.256,0.045-2.516-0.407-2.909-0.634l-0.587-0.256c-0.377-0.15-0.211-0.076-0.317-0.15
	l-0.558,0.03c-0.618-0.693-0.768-0.21-1.657-0.587c-0.272-0.121-0.422-0.302-0.784-0.362c-0.83-0.151-0.181,0.196-1.658-0.633
	c-0.181-0.106-0.904-0.95-2.034-1.432l0.03,0.362c0.332,0.165,0.451,0.195,0.784,0.271c-0.045,0.964-0.859,1.627,0.21,2.05
	c0.423-0.227,0.166-0.076,0.482-0.422l0.407-0.482c0.406,0.09,0.513,0.287,0.799,0.392c0.392,0.15,0.723,0.061,1.055,0.211
	c1.733,0.784,6.36,1.914,6.36,1.929c0.301,0.121,0.21,0.105,0.392,0.226c0.377,0.211,0.498,0.196,0.964,0.196
	c0.618-0.014,0.708,0,1.281,0.136c1.145,0.286,0.316,0.241,2.064,0.482c0.542,0.076,0.814,0.015,1.221,0.061l2.2,0.376
	c0.618,0.06,1.568-0.06,2.365,0.121c1.01,0.225,0.528,0.768,1.779,0.421c0.768-0.21,1.718-0.076,2.487,0.031
	c0.768,0.09,1.733-0.09,2.562-0.06c3.03,0.105,4.596,0.136,7.535-0.121l1.778-0.091C71.958,39.878,71.22,40.105,71.49,39.729
	L71.49,39.729z"/>
<path fill="#C7C7C6" d="M31.569,53.549c-0.105-0.377-1.146-0.996-0.814-1.868c-0.451-1.146-0.03-15.811-0.121-19.021
	c-0.121-4.958,0.618-3.677,1.009-5.304l-0.527,0.06c-0.346,1.718-0.407,0.362-0.587,1.808c-0.106,0.83-0.408,0.979-0.618,1.779
	c0.332,0.181,0.21-0.015,0.528,0.241c0.045,1.085-0.166,0.663-0.256,1.312c-0.121,1.009,0.135,3.466,0.121,4.445l-0.333,9.148
	c-0.121,0.813,0.196,0.166,0.287,1.055c0.105,0.874-0.136,4.989,0.618,5.879l0.181,0.194C31.388,53.578,31.085,53.503,31.569,53.549
	L31.569,53.549z"/>
<path fill="#6A6A6A" d="M32.579,26.315c-0.09,0.316,0.045,0.12-0.166,0.346c-0.407,0.422,0.06,0-0.422,0.242
	c-0.06,0.076-0.21,0.316-0.347,0.452c-0.391,1.627-1.13,0.345-1.009,5.304c0.091,3.21-0.331,17.875,0.121,19.02
	c0.362-0.919,0-7.038,0.045-8.681c0.09-2.863,0.03-5.788,0.076-8.667c0.015-1.265-0.121-3.15,0-4.325
	c0.045-0.452,0.196-0.347,0.346-0.678c0.392-0.814-0.452-0.572,1.658-2.698c1.493-1.492,0.302-0.271,1.22-0.949
	c2.201-1.628,1.809-0.919,3.271-1.959c-0.647-0.045-0.783,0.301-1.401,0.528c-1.01,0.362-2.306,1.296-3.15,1.928
	C32.502,26.42,33.075,26.179,32.579,26.315L32.579,26.315z"/>
<path fill="#9D9D9C" d="M93.281,26.526c0.756,0.543,0.905,0.934,1.239,1.447c0.858,1.356,0.285,0.407,0.948,1.869
	c0.286,0.603,0.542,0.241,0.603,1.296c0.121,2.336-0.226,4.928-0.075,7.264c0.165,2.321-0.15,4.944,0,7.28
	c0.376,6.027-0.995,4.732-0.904,6.436l0.316-0.332c0.015-0.016,0.029-0.045,0.045-0.076l0.212-0.286
	c0.104-0.693,0.782-0.316,0.586-5.108c-0.059-1.765,0-3.724,0.016-5.487c-0.029-0.874-0.151-0.723,0-1.658
	c0.121-0.693-0.029-0.753-0.06-1.401c-0.046-1.04,0.104-1.944,0.136-2.939c0.015-1.054-0.121-1.898-0.016-2.923
	c0.182-2.05-0.438-1.522-0.662-2.351l0.014-0.076l-0.587-1.116c-0.046-0.361-0.634-1.176-0.905-1.447
	c-0.06-0.059-0.135-0.135-0.195-0.195c-0.725-0.753-0.482-0.753-1.221-0.964c0.256,0.513,0.03,0.091,0.256,0.392L93.281,26.526z"/>
<path fill="#9D9D9C" d="M46.714,22.17c1.206-0.121,2.396-0.482,3.647-0.619c0.542-0.059,1.402-0.121,1.824-0.21
	c0.663-0.135,1.206-0.241,2.019-0.106l0.664,0.046l2.065-0.406c1.189-0.166,5.591-0.242,6.736-0.182
	c1.491,0.076,3.134-0.15,4.521,0.137c1.01,0.211,3.737,0.135,4.37,0.437c0.619-0.15,4.854,0.769,5.757,0.92
	c0.527,0.075,0.845-0.016,1.432,0.09c0.619,0.12,0.77,0.301,1.327,0.436c0.497,0.121,0.964,0.091,1.432,0.211
	c0.452,0.105,0.8,0.301,1.28,0.376c-0.391-0.301-0.347,0-0.844-0.542c-1.159-0.21-1.4-0.105-2.274-0.572l-5.064-0.784
	c-0.754-0.211-1.809-0.377-2.697-0.302c-1.025-0.06-2.547-0.181-3.405-0.316c-1.945-0.332-8.426-0.301-10.294-0.196
	c-4.281,0.256-7.053,0.527-11.152,1.19L46.714,22.17z"/>
<path fill="#C7C7C6" d="M54.868,21.281c2.999,0.015,5.877-0.271,8.801-0.166c1.462,0.06,3.015-0.121,4.415,0.091
	c0.693,0.09,3.752,0.121,4.476,0.06c-0.633-0.302-3.36-0.227-4.37-0.437c-1.387-0.287-3.029-0.061-4.521-0.137
	c-1.145-0.06-5.546,0.016-6.736,0.182L54.868,21.281z"/>
<path fill="#9D9D9C" d="M53.044,19.895c0.753,0.15,1.401-0.091,2.095-0.196c1.115-0.166,5.636-0.136,7.008-0.211
	c0.573-0.03,7.746,0.06,8.514,0.287l0.543,0.241c0.798-0.031,2.064,0.075,2.938,0.135c0.935,0.045,1.447,0.422,2.729,0.333
	c-0.844-0.874-3.934-0.422-5.712-0.845c-1.658-0.392-14.634-0.557-16.879-0.075c-0.242,0.045-0.407,0.045-0.649,0.09L53.044,19.895z
	"/>
<path fill="#C7C7C6" d="M48.372,60.557l-2.683-0.663c-1.658-0.076-2.427-0.83-2.788-0.438c-0.949-0.15-0.859-0.377-1.432-0.542
	c-0.376-0.105-0.557-0.03-0.859-0.091c-0.391-0.061,0.075,0.046-0.437-0.256c-0.317-0.181-0.844-0.15-1.265-0.332l-1.146-0.678
	c-0.241-0.015-0.121,0.03-0.362-0.12c-0.361-0.242-0.165-0.136-0.347-0.318l-0.286,0.105c-0.241-0.015-0.316,0.046-0.587-0.12
	c-0.392-0.227-0.211-0.165-0.317-0.468l-0.106-0.015c-0.587-0.21-0.873-0.571-1.295-0.739c-0.905-0.632-2.382-1.28-2.728-2.199
	h0.045l-0.211-0.135c0,0.542,0.452,1.25,0.979,1.551l0.784,0.482c0.392,0.287,0.468,0.165,0.768,0.392l0.709,0.573
	c0.452,0.302,0.377,0.136,0.784,0.347c0.181,0.091,0.181,0.104,0.255,0.165l0.559,0.301c0.799,0.271,0.301-0.165,0.603,0.482
	c0.904,0.061,0.859,0.061,1.477,0.407c1.176,0.647,5.682,1.822,6.813,1.884c1.024,0.06,0.558,0.271,1.401,0.377
	C47.196,60.571,47.89,60.632,48.372,60.557L48.372,60.557z"/>
<path fill="#6A6A6A" d="M40.596,23.602c0.769-0.181,1.915-0.632,2.562-0.813c0.437-0.136,0.979-0.151,1.447-0.257
	c0.542-0.121,0.905-0.255,1.552-0.331l0.558-0.031l1.342-0.392c4.099-0.663,6.871-0.934,11.152-1.19
	c1.868-0.105,8.349-0.136,10.294,0.195c0.858,0.136,2.38,0.256,3.405,0.317c-0.618-0.377-1.146-0.301-1.838-0.332
	c-0.679-0.045-3.091-0.422-4.205-0.377c-3.707,0.181-7.249-0.09-11.168,0.241c-0.799,0.076-1.219,0.271-1.974,0.271
	c-0.813-0.015-1.311,0.105-2.049,0.136c-1.281,0.075-2.623,0.391-3.904,0.587c-0.663,0.106-1.039,0.347-1.748,0.422
	c-0.979,0.106-1.116,0.227-1.884,0.423c-0.392,0.09-0.738,0.076-1.085,0.135c-0.272,0.061-0.452,0.241-0.708,0.347
	c-0.286,0.135-0.678,0.135-0.995,0.195c-0.121,0.03-0.256,0.061-0.377,0.121C40.355,23.557,40.838,23.27,40.596,23.602
	L40.596,23.602z"/>
<path fill="#C7C7C6" d="M95.092,52.117c0.075,0.512-0.302,1.159-0.603,1.582c-0.184,0.255-0.257,0.271-0.469,0.512
	c-0.33,0.332-0.181,0.286-0.558,0.469c-0.104,0.271,0.15,0.029-0.225,0.271c-0.182,0.136,0.028,0-0.318,0.09
	c-0.045,0.091-0.06,0.152-0.136,0.257l-1.582,1.085l-0.663,0.105c-0.301,0.543-0.965,0.663-1.477,0.92l-3.753,1.371
	c-0.362,0.091-0.769,0.091-1.101,0.196c-0.603,0.195-0.181,0.271-1.01,0.361l0.121-0.029v0.256c0.663,0.015,0.617-0.241,2.019-0.483
	c0.858-0.15,0.935-0.497,1.96-0.647c0.89-0.136,0.377,0.016,0.935-0.316c0.543-0.331,0.286,0.016,1.341-0.558
	c0.031-0.03,0.137-0.075,0.181-0.091l0.649-0.361c0.482-0.377,1.16-0.527,2.05-1.146l1.461-1.07c0.995-1.235,0.89-0.979,1.235-1.945
	c0.302-0.873,0.363,0.016,0.498-0.767c0.03-0.137,0.016-0.604,0.016-0.755l-0.212,0.286c-0.016,0.031-0.03,0.061-0.045,0.076
	L95.092,52.117z"/>
<path fill="#C7C7C6" d="M90.631,26.089c-0.106-0.106-0.091-0.106-0.257-0.196c-0.029-0.03-0.15-0.076-0.181-0.09
	c-0.121-0.06-0.241-0.121-0.346-0.166c-2.473-1.371-0.77-0.15-2.984-1.401c-1.491-0.859-1.945-0.136-2.713-1.01l-0.363,0.075
	c-0.48-0.075-0.827-0.271-1.28-0.376c-0.468-0.121-0.935-0.091-1.432-0.211c-0.558-0.136-0.708-0.316-1.327-0.437
	c-0.587-0.106-0.904-0.015-1.432-0.09c-0.903-0.151-5.138-1.07-5.757-0.92l-0.015,0.348l3.331,0.21
	c0.437,0.391,0.782,0.391,1.566,0.437c1.251,0.091,0.95,0.06,1.854,0.346c0.604,0.196,1.267,0.196,1.99,0.272
	c1.113,0.104,0.692,0.332,1.642,0.452c1.854,0.241,0.844,0.377,1.673,0.542c0.316,0.061,0.588,0,0.904,0.105
	c0.723,0.227,1.673,0.874,2.291,0.979c0.979,0.182,0.422,0.437,1.703,0.543l0.045,0.451L90.631,26.089z"/>
<path fill="#9D9D9C" d="M86.289,22.849c0.363-0.121,1.795,0.647,2.292,0.844c1.1,0.407,1.975,0.996,2.336,0.996
	c-0.106-0.316,0.121-0.106-0.256-0.377l-4.431-1.793c-0.874-0.136-0.874-0.347-1.688-0.527c-0.89-0.196-0.859-0.392-1.823-0.483
	l-3.754-0.844c-0.572-0.226-1.281-0.301-2.02-0.256c0.031,0.031,0.076,0.031,0.105,0.076c0.017,0.06,0.062,0.076,0.091,0.09
	l4.521,1.055c2.245,0.347,1.372,0.362,2.32,0.542c0.874,0.182,0.453,0.136,0.995,0.392C85.356,22.728,85.838,22.684,86.289,22.849
	L86.289,22.849z"/>
<path fill="#C7C7C6" d="M32.579,26.315c0.497-0.137-0.076,0.104,0.241-0.137c0.844-0.632,2.14-1.567,3.149-1.928
	c0.618-0.226,0.754-0.572,1.401-0.528c0.438-0.603,0.814-0.331,1.417-0.603c1.401-0.633,1.477-0.633,3.15-1.115
	c0.286-0.076,0.452-0.166,0.708-0.256c0.362-0.12,0.618-0.135,0.904-0.376c-1.401-0.106-1.657,0.466-2.591,0.618
	c-1.388,0.196-0.664,0.226-1.373,0.467c-0.316,0.105-0.527,0.091-0.813,0.241c-0.451,0.242,0.075,0.151-0.648,0.317
	c-0.377,0.09-0.362,0.031-0.754,0.196c-1.146,0.497-0.918,0.527-2.08,0.979c-0.498,0.195-0.21,0.136-0.542,0.347
	C34.598,24.627,32.684,25.35,32.579,26.315L32.579,26.315z"/>
<path fill="#6A6A6A" d="M53.044,19.895c-0.015,0.014-0.317,0.075-0.468,0.104c-0.165,0.031-0.09,0-0.256,0.046
	c-0.452,0.104-0.241,0.06-0.347,0.121c1.492,0.045,3.24-0.257,4.717-0.407c1.266-0.121,8.577-0.196,9.661-0.015
	c0.347,0.06,0.467,0.196,0.89,0.21l3.963,0.061l-0.542-0.241c-0.77-0.227-7.942-0.317-8.515-0.287
	c-1.372,0.076-5.893,0.045-7.008,0.211C54.445,19.805,53.798,20.046,53.044,19.895L53.044,19.895z"/>
<path fill="#9D9D9C" d="M40.596,23.602l-0.21-0.03l-2.639,0.934c-0.135,0.016-0.121,0.016-0.271,0.091l-0.979,0.618
	c-0.633,0.091-1.055,0.482-1.658,0.829c-0.211,0.346-0.03,0.121-0.301,0.331c-0.301,0.241,0.015-0.09-0.301,0.211l1.175-0.619
	c0.347-0.286,0.724-0.513,1.312-0.573l1.537-0.663c1.07-0.377,1.658-0.664,2.682-0.891c0.559-0.135,0.377-0.241,0.875-0.391
	c0.271-0.075,0.677-0.06,1.009-0.165c0.482-0.166,0.21-0.272,0.83-0.393c0.421-0.181,1.854-0.346,2.501-0.692
	c-0.647,0.076-1.011,0.21-1.552,0.331c-0.467,0.106-1.01,0.121-1.447,0.257C42.51,22.97,41.365,23.421,40.596,23.602L40.596,23.602z
	"/>
<path fill="#C7C7C6" d="M46.714,22.17l-0.558,0.031c-0.647,0.346-2.08,0.512-2.501,0.692c3.133,0.015,1.446-0.527,4.836-0.648
	c0.724-0.014,0.814-0.09,1.191-0.437c0.828-0.06,1.687-0.03,2.516-0.075c0.768-0.031-0.136-0.183,1.522-0.317
	c0.723-0.045,0.301,0.03,0.482-0.182c-0.813-0.135-1.356-0.029-2.019,0.106c-0.422,0.089-1.282,0.15-1.824,0.209
	C49.11,21.688,47.92,22.049,46.714,22.17L46.714,22.17z"/>
<path fill="#6A6A6A" d="M73.345,51.334c1.19,0.014,0.405-0.122,1.553-0.258c0.677-0.075,0.435-0.346,1.25-0.452
	c-0.347-0.36-0.271-0.225-0.497-0.693l-1.267-0.181C73.842,50.127,73.33,50.368,73.345,51.334L73.345,51.334z"/>
<path fill="#C7C7C6" d="M34.191,33.941c1.131,0.482,1.854,1.327,2.034,1.432c1.478,0.829,0.829,0.482,1.659,0.632
	c0.362,0.06,0.512,0.242,0.784,0.363c0.889,0.376,1.039-0.106,1.657,0.586l0.558-0.03l-0.015-0.723
	c-0.738-0.03-0.949,0.15-1.883,0.045c-0.407-0.482-0.709-0.513-1.598-0.498l-0.362-0.406c-0.182-0.121-0.347-0.106-0.8-0.483
	c-0.271-0.21-0.226-0.241-0.316-0.332l-1.779-0.89C34.386,33.79,34.191,33.564,34.191,33.941L34.191,33.941z"/>
<path fill="#6A6A6A" d="M61.272,45.711c0.693-0.181,0.739-0.014,0.784-0.722c-0.391-0.137-0.753,0.044-1.446,0.015
	c-0.09-0.046-0.045-0.165-0.573-0.392c0,0.227,0,0.602,0.03,0.828c0.121,0.678,0.467,0.512,0.618,1.506l0.829,0.016
	C61.363,46.344,61.228,46.661,61.272,45.711L61.272,45.711z"/>
<path fill="#C7C7C6" d="M96.267,40.829l0.121-0.89c-0.016-1.115,0.211-0.061,0.03-2.05c-0.105-1.327,0.24-2.457,0.091-4.717
	c-0.091-1.312,0.769-2.864-0.844-3.617c0.224,0.829,0.844,0.301,0.662,2.351c-0.104,1.025,0.03,1.869,0.016,2.924
	c-0.031,0.995-0.182,1.899-0.136,2.939c0.03,0.648,0.181,0.708,0.06,1.401C96.115,40.105,96.237,39.954,96.267,40.829L96.267,40.829
	z"/>
<path fill="#6A6A6A" d="M70.045,53.503c0.03,0,1.536,0.091,1.536,0.091c0.121-0.302,0.347-0.783-0.361-1.176
	c-0.392-0.212-0.95-0.317-1.432-0.104C69.622,52.704,69.441,53.398,70.045,53.503L70.045,53.503z"/>
<path fill="#6A6A6A" d="M43.549,21.372c-0.287,0.241-0.542,0.256-0.904,0.376c-0.256,0.09-0.422,0.181-0.708,0.256
	c-1.673,0.482-1.748,0.482-3.149,1.115c-0.604,0.271-0.979,0-1.418,0.603c1.221-0.014,2.397-0.889,4.205-1.446
	c0.377-0.105,0.799-0.09,1.146-0.256c0.377-0.182,0.407-0.317,1.04-0.362c1.778-0.106,0.738-0.227,1.552-0.347
	c0.708-0.104,0.407,0.045,0.633-0.256C44.665,20.875,44.424,21.493,43.549,21.372L43.549,21.372z"/>
<path fill="#9D9D9C" d="M45.946,21.055c1.341,0.061,1.838-0.376,3.044-0.451c0.753-0.061,0.903-0.045,1.552-0.211
	c0.376-0.09,1.1-0.241,1.432-0.226c0.105-0.061-0.105-0.015,0.347-0.121C52.486,20,52.411,20.031,52.577,20
	c0.15-0.03,0.452-0.091,0.467-0.104c-1.055-0.347-2.773,0.21-3.783,0.391c-0.965,0.181-1.417,0.121-2.639,0.406
	C45.946,20.844,46.067,20.889,45.946,21.055L45.946,21.055z"/>
<path fill="#6A6A6A" d="M83.2,59.335c0.829-0.091,0.408-0.165,1.01-0.361c0.333-0.105,0.739-0.105,1.101-0.196l3.754-1.372
	c0.512-0.256,1.175-0.376,1.476-0.919c-0.588-0.015-0.527,0.12-0.859,0.392l-1.778,0.725c-0.782,0.104-0.496-0.046-1.024,0.316
	c-0.407,0.271-0.482,0.119-1.009,0.226c-0.678,0.137-0.318,0.271-0.859,0.451C83.938,58.942,84.045,58.37,83.2,59.335L83.2,59.335z"
	/>
<path fill="#6A6A6A" d="M44.484,51.379c0.076-0.212,0.166,0.286,0.061-0.332c-0.03-0.212-0.287-0.393-0.437-0.468
	c-0.92-0.452-1.297-0.452-1.704,0.256l-0.09,0.211l0.422,0.316C43.098,51.544,44.092,51.544,44.484,51.379L44.484,51.379z"/>
<path fill="#9D9D9C" d="M93.87,29.194c0.076,0.603,0.633,0.859,0.316,1.732c-0.09,0.227-0.209,0.347-0.361,0.769
	c-0.286,0.753-0.302,0.151-0.452,0.829c0.362,0.031,0.121,0.135,0.407-0.061l0.285-0.422c1.312-2.034-0.647-4.672-1.943-5.125
	c0.211,0.514-0.046,0.196,0.466,0.559c0.859,0.603,0.725,0.95,1.282,1.236V29.194z"/>
<path fill="#9D9D9C" d="M32.382,32.69c0.227,0.09,0.287,0.076,0.528,0.226c0.407,0.287,0.121,0.015,0.362,0.422
	c0.226,0.286,0.392,0.558,0.919,0.603c0-0.377,0.195-0.15-0.061-0.302c-0.406-0.121-0.255-0.075-0.542-0.362
	c-0.784-0.784-0.799-0.241-1.19-1.221c-0.256-0.632-0.678-1.506-0.528-2.32c0.121-0.663-0.015-0.136,0.136-0.287l-0.016-0.438
	c0.105-0.09,0.302-0.287,0.437-0.407l0.407-0.362l0.076-0.301h-0.242c-0.557,0.377,0.211,0.091-0.949,0.829
	C31.523,31.847,32.111,31.68,32.382,32.69L32.382,32.69z"/>
<path fill="#9D9D9C" d="M90.631,26.089c0.302,0.317,0.226,0.346,0.723,0.452c-0.225-0.663-0.692-0.663-1.145-0.874
	c-0.196-0.09-0.15-0.045-0.257-0.136l-0.196-0.287c-0.391-0.255-0.437-0.331-0.949-0.481c-0.497-0.136-0.769-0.301-1.205-0.391
	c-0.784-0.106-0.331-0.091-0.828-0.407c-0.257-0.166-0.543-0.166-0.86-0.242c-0.798-0.18-1.114-0.24-1.763-0.497
	c0.768,0.874,1.222,0.15,2.713,1.01c2.215,1.25,0.512,0.03,2.984,1.401c0.104,0.046,0.226,0.106,0.346,0.166
	c0.03,0.015,0.151,0.06,0.181,0.09C90.54,25.983,90.524,25.983,90.631,26.089L90.631,26.089z"/>
<path fill="#6A6A6A" d="M51.674,52.027c0.12-0.242,0.195-0.574,0.3-0.815c0.935,0.091,0.332,0.136,0.859,0.451
	c0.211-0.271,0.196-0.194,0.196-0.617c-0.558-0.3-1.522-0.272-2.065,0C50.829,51.905,50.798,52.418,51.674,52.027L51.674,52.027z"/>
<path fill="#6A6A6A" d="M54.084,56.668c-0.739-0.015-1.131,0.331-1.131,1.01c0,0.904,0.513,0.526,1.236,0.498L54.084,56.668z"/>
<path fill="#6A6A6A" d="M44.002,49.615c0-1.102,0.347-0.89,0.181-1.236c-0.271-0.543-0.784-0.03-0.934,0.106l-0.136,0.119
	c-0.03,0.032-0.137,0.092-0.15,0.105c-0.151,0.106-0.09,0.062-0.196,0.166c0.045,0.452,0.21,0.572,0.392,0.89L44.002,49.615z"/>
<path fill="#6A6A6A" d="M70.677,42.109c0.272,0.405,0.407,0.24,0.994,0.437c0.092,0.829,0.016,0.874,0.904,0.8
	c0.046-0.498-0.089-0.498-0.347-0.724c0-0.573,0.017-0.437-0.149-0.874c-0.301-0.016-0.513,0.015-0.783,0.061
	C70.631,41.913,70.947,41.702,70.677,42.109L70.677,42.109z"/>
<path fill="#C7C7C6" d="M34.236,26.587c-0.227,0.392-0.317,0.226-0.679,0.587c-0.226,0.241-0.421,0.542-0.647,0.768l-0.076,0.301
	c0.406-0.226,0.558-0.468,0.859-0.784l1.507-0.964c0.934-0.422-0.497,0.045,1.041-0.617c0.346-0.152,0.316-0.227,0.482-0.483
	c-0.588,0.06-0.965,0.287-1.312,0.573L34.236,26.587z"/>
<path fill="#6A6A6A" d="M50.798,47.596l-0.346-0.076l0.06-0.693c0.272,0,0.332,0.272,0.468,0.513
	c-0.166,0.091-0.015,0.091-0.151,0.316l1.176,0.138c0.015-0.905-0.031-0.528-0.664-0.77c-0.361-0.166-0.181-0.423-0.693-0.497
	c-1.13-0.15-0.468,1.295-0.121,1.372C51.07,47.836,50.648,47.942,50.798,47.596L50.798,47.596z"/>
<path fill="#6A6A6A" d="M43.37,45.802l0.045,0.211c0.014-0.016,0.03,0.075,0.045,0.15l1.507,0.09
	c0.015-0.451,0.135-0.543-0.196-0.813C44.771,45.44,43.249,44.535,43.37,45.802L43.37,45.802z"/>
<path fill="#6A6A6A" d="M44.559,48.333c0.061,0.016-0.03,0.211,0.664-0.015c0.226-0.075,0.301-0.134,0.437-0.226
	c0.03-0.542,0.075-0.527-0.075-0.92c-0.452-0.181-0.452-0.119-1.086-0.104C44.484,47.611,44.364,47.836,44.559,48.333L44.559,48.333
	z"/>
<path fill="#6A6A6A" d="M75.876,56.698c0.783,0.046,0.814-0.497,1.055-1.07l0.845-0.12c-0.046-0.755-0.241,0.015-0.573-0.8
	c-0.301,0.692-0.406,0.135-0.844,0.814C75.876,56.291,75.786,55.929,75.876,56.698L75.876,56.698z"/>
<path fill="#6A6A6A" d="M37.386,42.893c-1.417,0.061-1.025,0.031-1.146,0.362c0.497,0.302,1.326,0.317,2.034,0.257
	c0.03-0.588-0.015-0.679-0.211-1.041C37.477,42.592,37.822,42.532,37.386,42.893L37.386,42.893z"/>
<path fill="#6A6A6A" d="M47.106,46.676c0.045,0.286,0,0.12,0.105,0.271c0.512-0.06,0.498-0.317,0.498-0.799l-0.498-0.196
	c-0.03-0.708,0-0.723-0.241-1.175c-0.392,0.301-0.664,0.663-0.679,1.16C47.016,46.329,46.94,45.697,47.106,46.676L47.106,46.676z"/>
<path fill="#9D9D9C" d="M79.222,60.225c0.573,0.302,1.433-0.12,2.05-0.211c1.011-0.074,1.011-0.405,2.05-0.451v-0.256l-1.401,0.075
	c-0.407,0.467-0.497,0.362-1.282,0.451C80.141,59.894,79.568,59.953,79.222,60.225L79.222,60.225z"/>
<path fill="#C7C7C6" d="M34.13,33.639c-0.587-1.371-1.507-0.045-2.125-4.189c-0.15,0.151-0.015-0.376-0.136,0.287
	c-0.151,0.814,0.271,1.688,0.528,2.321c0.391,0.979,0.406,0.437,1.19,1.22C33.875,33.564,33.724,33.519,34.13,33.639L34.13,33.639z"
	/>
<path fill="#6A6A6A" d="M37.642,48.228c0.18,0,0.482,0.016,0.663,0c0.347-0.059,0.422-0.165,0.483-0.496l-0.137-0.755l-0.482-0.045
	C37.613,47.099,37.642,47.912,37.642,48.228L37.642,48.228z"/>
<path fill="#6A6A6A" d="M39.149,45.049c0.015-0.016,0.075,0,0.091-0.045c0.014-0.046,0.059-0.031,0.09-0.046
	c0.241-0.241-0.046-1.1-1.085-1.191l-0.076,1.132C38.651,45.018,38.667,45.108,39.149,45.049L39.149,45.049z"/>
<path fill="#6A6A6A" d="M74.384,49.39c0.966-0.393,1.824,0.496,2.051-0.559l-1.04-0.091l-0.272-0.347
	C74.58,49.223,74.339,48.273,74.384,49.39L74.384,49.39z"/>
<path fill="#6A6A6A" d="M58.439,43.254c-0.753,0.046-0.663,0.347-0.467,0.86c0.678,0.029,0.722,0.105,1.236,0.164
	C59.193,43.48,59.344,43.209,58.439,43.254L58.439,43.254z"/>
<path fill="#C7C7C6" d="M44.695,37.965l-0.422-0.498c-0.483-0.015-1.462,0.015-1.855-0.151c-0.587-0.241-0.301-0.558-1.537-0.392
	c0.105,0.075-0.06,0,0.317,0.15l0.587,0.256C42.179,37.558,44.439,38.01,44.695,37.965L44.695,37.965z"/>
<path fill="#6A6A6A" d="M64.182,48.951c0.286-0.558-0.166-0.301,0.481-0.844l-0.09-0.783c-0.481-0.016-0.091-0.075-0.481,0.302
	l-0.725,0.859l0.363,0.315C64.016,49.028,63.685,48.937,64.182,48.951L64.182,48.951z"/>
<path fill="#6A6A6A" d="M86.019,47.459c-0.06-0.647-0.346-0.376,0-0.979c0.331,0.045,0.604,0.03,0.317,0.858L86.019,47.459z
	 M86.019,47.459c0.045,0.046-0.407,0.317,0.362,0.183c0.377-0.062,0.361-0.619,0.301-0.935c-0.104-0.634-0.406-0.573-1.085-0.527
	C85.431,46.902,85.385,47.384,86.019,47.459L86.019,47.459z"/>
<path fill="#6A6A6A" d="M70.691,51.423c0.451-0.029,0.424,0.046,0.936-0.512l-0.152-1.04c-0.752,0.03-0.345-0.015-0.587,0.227
	c-0.031,0.014-0.091,0.105-0.105,0.136L70.691,51.423z"/>
<path fill="#6A6A6A" d="M83.622,49.706c0.965,0.06,1.207-0.046,1.146-1.01c-0.452-0.077-0.33-0.121-0.858-0.151
	C83.787,48.922,83.668,49.252,83.622,49.706L83.622,49.706z"/>
<path fill="#6A6A6A" d="M80.594,41.929c0,0.136-0.016,0.286,0.014,0.437c0.075,0.438,0.257,0.438,0.68,0.438
	c0.12-0.136,0.21-0.09,0.301-0.558c0.029-0.227,0.029-0.618,0.046-0.859C80.85,41.612,81.648,41.386,80.594,41.929L80.594,41.929z"
	/>
<path fill="#6A6A6A" d="M55.562,47.776c-0.392,0.09-1.327,0.468-1.614,0.737c0.679,0.347,0.679,0.318,1.614,0.272V47.776z"/>
<path fill="#6A6A6A" d="M70.963,46.042c0.754,0,0.483-0.164,0.858-0.737c-0.226-0.256-0.286-0.406-0.496-0.649
	C70.496,44.928,70.646,45.425,70.963,46.042L70.963,46.042z"/>
<path fill="#6A6A6A" d="M80.609,48.891c-0.573-0.104-0.393-0.074-0.814,0.138c-0.438,0.224-0.408,0.059-0.451,0.632
	c0.392,0.15,0.752,0.196,1.294,0.046L80.609,48.891z"/>
<path fill="#6A6A6A" d="M51.703,45.923c0.452,0.195,1.13,0.165,1.733,0.105c0.046-0.692-0.226-0.573-0.859-0.588
	C51.914,45.425,51.763,45.319,51.703,45.923L51.703,45.923z"/>
<path fill="#C7C7C6" d="M93.87,29.194v-0.483c-0.558-0.286-0.423-0.633-1.282-1.236c-0.512-0.362-0.255-0.045-0.466-0.559h0.137
	c-0.68-0.18-0.332-0.24-0.905-0.376c-0.091,0.528,0.346,0.407,0.648,0.663l0.497,0.497C93.267,28.305,92.996,28.667,93.87,29.194
	L93.87,29.194z"/>
<path fill="#6A6A6A" d="M83.079,53.745c0.542,0.135,0.845-0.106,0.739-0.634c-0.031-0.182-0.197-0.362-0.24-0.422
	c-0.468,0.105-0.664,0.211-0.936,0.527C82.793,53.503,82.657,53.639,83.079,53.745L83.079,53.745z"/>
<path fill="#6A6A6A" d="M75.951,39.306c0.859,0.045,2.639-0.271,3-0.105c0.406,0.196-0.181,0.015,0.271,0.272
	c0.227,0.135,0.362-0.016,0.408-0.302c0-0.03,0-0.453,0-0.467L75.951,39.306z"/>
<path fill="#6A6A6A" d="M47.785,50.233c0.03-0.814-0.468-0.634-1.296-0.558c0,0.466,0.135,0.558,0.376,0.827
	C47.242,50.444,47.528,50.398,47.785,50.233L47.785,50.233z"/>
<path fill="#6A6A6A" d="M79.629,57.919l0.754-0.045l0.331-0.332l-0.045-0.543c-0.468-0.135-0.874,0.151-1.236,0.438L79.629,57.919z"
	/>
<path fill="#6A6A6A" d="M46.76,53.76c-0.301-0.347,0.045-0.121-0.453-0.361l-0.226,0.315c0.317,0.618,0.076,0.663,0.859,1.13
	C47.393,54.241,47.258,54.332,46.76,53.76L46.76,53.76z"/>
<path fill="#6A6A6A" d="M41.274,56.729c0.271,0.165,0.527,0.271,0.964,0.301c0-0.678-0.045-0.572-0.166-1.131l-0.648,0.076
	C41.319,56.186,41.274,56.397,41.274,56.729L41.274,56.729z"/>
<path fill="#6A6A6A" d="M91.037,24.944c-0.15-0.105-0.046-0.06-0.121-0.256c-0.361,0-1.236-0.588-2.336-0.996
	c-0.496-0.195-1.929-0.964-2.291-0.844c0.559,0.347,0.423,0.226,1.101,0.528l2.441,0.995C90.436,24.567,90.299,24.823,91.037,24.944
	L91.037,24.944z"/>
<path fill="#6A6A6A" d="M43.957,55.554l-0.06,0.437c-0.437-0.016-0.347,0.136-0.347-0.513l0.332-0.196
	c-0.316-0.286,0.393-0.3-0.377-0.227c-0.195,0.106-0.286,0.438-0.255,0.709c0.045,0.347,0.15,0.406,0.332,0.693
	c0.618-0.091,0.603-0.031,0.753-0.574C44.077,55.313,44.349,55.733,43.957,55.554L43.957,55.554z"/>
<path fill="#6A6A6A" d="M83.787,23.3l0.363-0.076c0.648,0.257,0.965,0.317,1.763,0.498c0.317,0.076,0.604,0.076,0.86,0.241
	c0.497,0.317,0.044,0.301,0.828,0.406c-0.137-0.12-0.754-0.618-0.859-0.647l-2.532-0.573c-0.647-0.104-0.678-0.286-1.266-0.391
	C83.44,23.3,83.396,23,83.787,23.3L83.787,23.3z"/>
<path fill="#9D9D9C" d="M42.901,59.456c-0.663-0.559-3.511-1.206-3.857-1.372c-0.693-0.332,0.06-0.121-1.281-0.527l1.146,0.679
	c0.422,0.181,0.949,0.15,1.265,0.332c0.512,0.301,0.046,0.195,0.437,0.256c0.302,0.059,0.482-0.015,0.859,0.09
	C42.042,59.079,41.952,59.306,42.901,59.456L42.901,59.456z"/>
<path fill="#6A6A6A" d="M87.557,45.154c0.481,0,0.692-0.121,0.994-0.361c-0.136-0.378-0.571-0.679-0.903-0.784
	C87.436,44.446,87.479,44.566,87.557,45.154L87.557,45.154z"/>
<path fill="#6A6A6A" d="M69.275,48.379c-0.242-0.016-0.904-0.075-1.085,0.03c-0.241,0.136-0.271,0.573-0.091,0.769
	C68.613,49.689,68.778,48.786,69.275,48.379L69.275,48.379z"/>
<path fill="#6A6A6A" d="M42.57,54.407c0.362-0.075,0.979-0.12,0.89-0.692c-0.121-0.784-0.693-0.257-1.01,0.136L42.57,54.407z"/>
<path fill="#6A6A6A" d="M93.373,32.524c-0.12,0.573-1.1,1.387-1.764,1.673l0.136-0.015c-0.15,0.316,0.031,0.166-0.24,0.392
	c0.587-0.166,1.673-1.116,2.063-1.643c0.271-0.362,0.061,0.105,0.212-0.467C93.493,32.659,93.734,32.555,93.373,32.524
	L93.373,32.524z"/>
<path fill="#6A6A6A" d="M41.847,44.009c0.015-0.332,0.121-0.828-0.15-0.979c-0.242-0.122-0.166-0.03-0.393,0.03
	c-0.512,0.166-0.18,0.09-0.346,0.195C40.942,43.616,40.852,43.947,41.847,44.009L41.847,44.009z"/>
<path fill="#6A6A6A" d="M81.15,45.952c-0.633-0.045-0.451,0.137-0.587,0.363c0.15,0.18-0.272,0.271,0.451,0.376
	c0.92,0.15,0.558-0.165,0.649-0.242C81.543,45.938,81.89,45.997,81.15,45.952L81.15,45.952z"/>
<path fill="#6A6A6A" d="M42.872,42.109c0.271,0.031,1.673,0.437,0.784-0.528c-0.228-0.24-0.302-0.286-0.709-0.286L42.872,42.109z"/>
<path fill="#C7C7C6" d="M91.609,34.198c0.664-0.286,1.644-1.101,1.764-1.673c-0.271,0-0.226-0.271-0.226,0.045
	c-0.56,0.317-0.783,0.965-1.447,1.206L91.609,34.198z"/>
<path fill="#C7C7C6" d="M88.354,35.9l0.333-0.045c0.36-0.15,0.769-0.407,1.266-0.528c0.075-0.06,0.21-0.181,0.331-0.271l0.437-0.332
	c-1.371,0.09-0.542,0.121-1.159,0.481c-0.136,0.077-0.815,0.241-1.039,0.347L88.354,35.9z"/>
<path fill="#6A6A6A" d="M50.919,54.483c0.362,0.15,0.377,0.09,0.738-0.046l-0.014-0.678c-0.227-0.137-0.317-0.242-0.648-0.211
	C50.829,53.88,50.904,54.438,50.919,54.483L50.919,54.483z"/>
<path fill="#9D9D9C" d="M85.372,36.895v0.271c1.04-0.105,0.541,0,1.234-0.316l1.025-0.527c-0.453,0.029-0.935,0.045-1.326,0.226
	C85.777,36.759,86.094,36.804,85.372,36.895L85.372,36.895z"/>
<path fill="#6A6A6A" d="M31.78,53.684h-0.045c0.03,0.031,0.06,0.031,0.075,0.091c0.015,0.045,1.07,0.965,1.538,1.176
	c-0.316-0.647-0.979-0.588-1.477-1.943l-0.573-0.137C31.644,53.398,31.598,53.036,31.78,53.684L31.78,53.684z"/>
<path fill="#6A6A6A" d="M53.692,55.281c0.196-0.104,0.211-0.014,0.362-0.316c0.256-0.558,0.287-0.995-0.452-0.995
	C53.511,54.604,53.481,54.8,53.692,55.281L53.692,55.281z"/>
<path fill="#6A6A6A" d="M82.703,38.101c0.211,0.03,0.045,0.089,0.391,0.015l0.98-0.286c1.221-0.227,1.084-0.242,1.296-0.603
	l-2.351,0.617C82.674,38.055,82.869,37.92,82.703,38.101L82.703,38.101z"/>
<path fill="#6A6A6A" d="M54.913,57.498c0.543,0.18,0.964,0.194,1.628,0.074c0.044-0.347,0.15-0.03-0.377-0.271
	c-0.347-0.151-0.512-0.242-0.693-0.483C55.275,57.165,55.169,57.271,54.913,57.498L54.913,57.498z"/>
<path fill="#6A6A6A" d="M34.462,55.885c0.422,0.166,0.708,0.528,1.295,0.737c-0.12-0.361-0.014-0.196-0.241-0.391
	c-0.075-0.076-0.15-0.092-0.271-0.15c-0.573-0.303-0.347-0.256-0.708-0.527c-0.813-0.604-0.392-0.438-1.146-0.604
	c0.181,0.255-0.09,0.031,0.302,0.317l0.557,0.33C34.447,55.778,34.296,55.628,34.462,55.885L34.462,55.885z"/>
<path fill="#6A6A6A" d="M70.3,48.801c-0.09,0.09-0.437-0.12-0.271,0.994l0.677-0.014C70.782,48.816,70.601,48.951,70.3,48.801
	L70.3,48.801z"/>
<path fill="#6A6A6A" d="M32.668,27.942h0.242c0.106-0.362,0.031-0.166,0.227-0.437c0.121-0.196,0.121-0.227,0.241-0.377
	c0.15-0.166,0.677-0.452,0.859-0.542c0.316-0.301,0,0.03,0.301-0.211c0.271-0.21,0.09,0.015,0.301-0.331
	c-0.723,0.15-0.693,0.346-1.326,0.738C33.045,27.069,32.85,27.31,32.668,27.942L32.668,27.942z"/>
<path fill="#6A6A6A" d="M39.043,42.23c0,0.195-0.046,0.572,0.044,0.738C39.541,43.723,40.565,42.17,39.043,42.23L39.043,42.23z"/>
<path fill="#6A6A6A" d="M31.222,46.314c0.196,0.315,0.287,0.361,0.799,0.285c0.452-0.06,0.422-0.135,0.498-0.405
	c-0.226-0.138,0.045-0.061-0.362-0.121C31.162,45.938,31.328,46.148,31.222,46.314L31.222,46.314z"/>
<path fill="#6A6A6A" d="M77.972,46.6c0.723,0.303,0.874-0.587-0.438-0.828C77.519,46.39,77.429,46.39,77.972,46.6L77.972,46.6z"/>
<path fill="#6A6A6A" d="M77.55,43.541c0.362-0.046,0.542-0.105,0.844-0.226v-0.739C77.368,42.742,77.534,43.226,77.55,43.541
	L77.55,43.541z"/>
<path fill="#6A6A6A" d="M43.339,47.008c1.266,0.481,1.115-0.182,1.115-0.182c-0.15-0.301,0.045-0.181-0.301-0.301
	c-0.015,0-0.376-0.015-0.392-0.015C43.324,46.587,43.429,46.63,43.339,47.008L43.339,47.008z"/>
<path fill="#6A6A6A" d="M91.354,26.541c0.573,0.136,0.227,0.196,0.905,0.376c-0.437-0.783-0.407-0.24-1.102-0.949
	c-0.271-0.286-0.903-0.573-1.401-0.724l0.196,0.287c0.106,0.091,0.061,0.046,0.257,0.136C90.66,25.878,91.129,25.878,91.354,26.541
	L91.354,26.541z"/>
<path fill="#6A6A6A" d="M76.268,47.054c-0.632-0.092-0.362-0.017-0.527,0.285c0.105,0.12-0.255,0.362,0.558,0.362
	c0.604,0,0.451-0.15,0.543-0.228C76.735,47.293,76.705,47.114,76.268,47.054L76.268,47.054z"/>
<path fill="#6A6A6A" d="M39.887,53.925c0.182-1.386-0.844-0.813-0.753-0.045C39.616,54.075,39.39,54.046,39.887,53.925
	L39.887,53.925z"/>
<path fill="#6A6A6A" d="M56.797,42.003c0.105,0.121,0.287,0.271,0.497,0.378c0.406,0.18,0.271,0.195,0.618-0.15
	C57.686,41.19,56.797,42.003,56.797,42.003L56.797,42.003z"/>
<path fill="#6A6A6A" d="M40.053,52.434c0.346-0.679,0.271-1.07-0.572-1.1c0.046,0.466-0.03,0.165,0.196,0.632
	C39.843,52.328,39.737,52.268,40.053,52.434L40.053,52.434z"/>
<path fill="#9D9D9C" d="M94.503,53.322c-0.15,0.407-0.181,0.512-0.513,0.753c-0.046,0.031-0.226,0.136-0.3,0.212
	c-0.272,0.256-0.167,0.21-0.228,0.393c0.377-0.183,0.228-0.137,0.558-0.469c0.212-0.241,0.285-0.257,0.469-0.513
	c0.301-0.422,0.678-1.069,0.603-1.581c-0.166,0.119-0.075-0.046-0.227,0.27c-0.06,0.137-0.045,0.196-0.121,0.377
	C94.593,53.111,94.563,52.961,94.503,53.322L94.503,53.322z"/>
<path fill="#6A6A6A" d="M94.684,38.929c0.423-0.121,0.407-0.166,0.634-0.527c-0.091-0.06-0.104-0.271-0.754-0.362
	C94.353,38.493,94.383,38.538,94.684,38.929L94.684,38.929z"/>
<path fill="#6A6A6A" d="M76.69,43.149c0.24-0.347,0.316-0.935,0-1.312c-0.303,0.196-0.453,0.437-0.242,1.01
	C76.63,43.36,76.524,42.999,76.69,43.149L76.69,43.149z"/>
<path fill="#6A6A6A" d="M93.281,26.526l-0.255-0.377c-0.226-0.301,0,0.121-0.256-0.392l-0.196-0.06
	c-0.18-0.061-0.737-0.333-0.844-0.407c-0.422-0.301-0.136-0.422-0.692-0.346c0.648,0.692,1.507,0.979,1.597,1.055
	C92.966,26.195,92.755,26.224,93.281,26.526L93.281,26.526z"/>
<path fill="#6A6A6A" d="M39.933,47.037c-0.693,0.046-0.317,0.783-0.06,1.147l0.391-1.043C39.978,47.008,40.626,46.992,39.933,47.037
	L39.933,47.037z"/>
<path fill="#9D9D9C" d="M91.037,24.944c0.558-0.076,0.271,0.045,0.692,0.346c0.106,0.075,0.663,0.346,0.845,0.407
	c-0.241-0.708-0.166-0.211-0.709-0.693c-0.376-0.332-0.346-0.362-0.949-0.316C90.991,24.883,90.887,24.838,91.037,24.944
	L91.037,24.944z"/>
<path fill="#6A6A6A" d="M54.657,56.186l0.03-0.512l-0.859-0.061C53.843,56.352,54.084,56.426,54.657,56.186L54.657,56.186z"/>
<path fill="#6A6A6A" d="M59.961,50.52c0.21-0.618,0.256-0.783-0.527-0.771C59.238,50.7,59.284,50.414,59.961,50.52L59.961,50.52z"/>
<path fill="#9D9D9C" d="M90.721,34.725l-0.438,0.332c-0.12,0.09-0.255,0.211-0.331,0.271l0.769-0.301
	c0.362-0.166,0.633-0.392,0.784-0.452c0.271-0.227,0.09-0.077,0.24-0.392l-0.482,0.075L90.721,34.725z"/>
<path fill="#9D9D9C" d="M34.462,55.885c-0.166-0.256-0.015-0.106-0.211-0.287l-0.558-0.33c-0.392-0.286-0.121-0.063-0.301-0.317
	h-0.045c-0.468-0.211-1.522-1.132-1.538-1.176c-0.015-0.061-0.045-0.061-0.075-0.091C32.081,54.604,33.558,55.251,34.462,55.885
	L34.462,55.885z"/>
<path fill="#6A6A6A" d="M31.719,48.018c0.693,0.21,0.663-0.513,0.437-0.903c-0.272,0.059-0.286-0.031-0.422,0.315
	C31.614,47.715,31.674,47.761,31.719,48.018L31.719,48.018z"/>
<path fill="#6A6A6A" d="M68.478,44.205c0.301-0.062,0.405-0.031,0.632-0.228c0.316-0.286,0.136-0.044,0.196-0.482h-0.828V44.205z"/>
<path fill="#6A6A6A" d="M88.731,52.192c0.227,0.196-0.06,0.104,0.333,0.21c0.737,0.196,0.813-0.375,0.813-0.375
	C89.439,51.831,89.123,51.74,88.731,52.192L88.731,52.192z"/>
<path fill="#6A6A6A" d="M48.659,48.485c-0.332,0.15,0,0.195-0.407,0.013C48.478,48.153,48.357,48.002,48.659,48.485L48.659,48.485z
	 M48.794,48.665c0.227-0.271,0.15-0.904-0.648-0.526c-0.03,0.03-0.06,0.074-0.06,0.104c-0.015,0.03-0.03,0.09-0.03,0.12
	c-0.061,0.212-0.031,0.03-0.015,0.317c0.166,0.061,0.196,0.12,0.437,0.12C49.126,48.786,48.538,48.816,48.794,48.665L48.794,48.665z
	"/>
<path fill="#6A6A6A" d="M45.675,54.03c-0.483-0.588,0.121,0.467-0.061-0.181l-0.195-0.514l-0.514,0.137l-0.014,0.588L45.675,54.03z"
	/>
<path fill="#6A6A6A" d="M65.326,46.073c-0.406-0.031-0.678,0.06-0.948,0.196c0.241,0.241,0.255,0.452,0.692,0.498
	C65.236,46.556,65.313,46.449,65.326,46.073L65.326,46.073z"/>
<path fill="#9D9D9C" d="M31.569,53.549l0.211,0.135c-0.182-0.647-0.136-0.285-0.482-0.813l-0.542-1.189
	C30.423,52.553,31.463,53.172,31.569,53.549L31.569,53.549z"/>
<path fill="#6A6A6A" d="M87.074,56.864c0.587-0.076,0.558-1.222,0-1.282V56.864z"/>
<path fill="#9D9D9C" d="M86.019,47.459l0.317-0.12c0.286-0.828,0.014-0.813-0.317-0.858C85.672,47.083,85.958,46.812,86.019,47.459
	L86.019,47.459z"/>
<path fill="#6A6A6A" d="M67.119,50.564c0.393-0.21,0.242-0.165,0.408-0.573c-0.423-0.12-0.286-0.135-0.828-0.135
	C66.743,50.444,66.714,50.338,67.119,50.564L67.119,50.564z"/>
<path fill="#6A6A6A" d="M83.833,46.118c-0.633,0-0.347,0.165-0.421,0.331c0.225,0.166-0.333,0.166,0.421,0.181
	c0.784,0.016,0.227-0.03,0.407-0.181C84.165,46.225,84.543,46.103,83.833,46.118L83.833,46.118z"/>
<path fill="#6A6A6A" d="M71.535,48.063c0.182-0.09,0.286-0.604-0.331-0.724c-0.135,0.182-0.135-0.271-0.15,0.377
	C71.054,47.942,71.115,48.243,71.535,48.063L71.535,48.063z"/>
<path fill="#9D9D9C" d="M92.046,55.538c-0.255,0.136-0.375,0.255-0.571,0.345c-0.061,0.123-0.212,0.394-0.272,0.498l1.583-1.085
	c0.076-0.104,0.09-0.166,0.135-0.256l-0.301,0.06c-0.211,0.317,0.256-0.075-0.24,0.286C92.122,55.582,92.423,55.401,92.046,55.538
	L92.046,55.538z"/>
<path fill="#6A6A6A" d="M92.619,55.101l0.301-0.061l0.543-0.36c0.061-0.183-0.045-0.137,0.228-0.393
	c0.075-0.076,0.254-0.181,0.3-0.212c0.332-0.241,0.362-0.346,0.513-0.753c-0.029,0.014-0.075,0.046-0.105,0.076l-0.211,0.225
	C93.568,54.361,92.92,54.769,92.619,55.101L92.619,55.101z"/>
<path fill="#6A6A6A" d="M50.166,49.223c0.512,0,0.436,0.015,0.738-0.226c-0.136-0.271,0.211-0.634-0.482-0.316
	C49.97,48.891,50.287,48.771,50.166,49.223L50.166,49.223z"/>
<path fill="#6A6A6A" d="M80.683,45.425c-0.06-0.271,0.105-0.738-0.692-0.255c0.105,0.24-0.12,0.331,0.272,0.421
	C80.788,45.711,80.683,45.425,80.683,45.425L80.683,45.425z"/>
<path fill="#6A6A6A" d="M86.019,43.376c0.045-0.483-0.06-0.332-0.407-0.393c-0.015,0.03-0.361-0.03,0,0.783
	C85.897,43.632,85.988,43.753,86.019,43.376L86.019,43.376z"/>
<path fill="#6A6A6A" d="M37.25,44.777c-0.21,0.782-0.03,1.101,0.634,0.527C37.747,45.123,37.446,44.943,37.25,44.777L37.25,44.777z"
	/>
<path fill="#6A6A6A" d="M52.321,53.051c0.271-0.377,0.241-0.271,0.075-0.693l-0.542,0.136
	C51.898,52.976,51.869,52.961,52.321,53.051L52.321,53.051z"/>
<path fill="#6A6A6A" d="M48.884,47.099c0.377,0,0.091,0.014,0.347-0.137L49.2,46.48c-0.467,0.104-0.481,0.045-0.738,0.481
	C48.644,47.037,48.764,47.099,48.884,47.099L48.884,47.099z"/>
<path fill="#6A6A6A" d="M61.755,52.629C60.956,53.91,62.734,53.76,61.755,52.629L61.755,52.629z"/>
<path fill="#9D9D9C" d="M35.623,35.734c-0.558-0.587-0.843-0.121-0.437,0.588L35.623,35.734z"/>
<path fill="#C7C7C6" d="M32.006,29.45c0.271-0.09,0.121,0.045,0.301-0.209c0.03-0.062,0.105-0.257,0.15-0.348
	c0.302-0.467,0.287-0.015,0.377-0.648l-0.407,0.362c-0.136,0.121-0.332,0.317-0.437,0.407L32.006,29.45z"/>
<path fill="#6A6A6A" d="M37.747,24.506l2.638-0.934c-1.809,0.196-1.055,0.377-1.975,0.618C37.942,24.31,38.064,24.145,37.747,24.506
	L37.747,24.506z"/>
<path fill="#9D9D9C" d="M88.354,35.9l0.061,0.076c0.814,0.045,0.935-0.333,1.538-0.437v-0.211c-0.497,0.121-0.905,0.377-1.266,0.528
	L88.354,35.9z"/>
<path fill="#6A6A6A" d="M49.818,40.829c-0.029,0.21-0.346-0.227-0.014,0.361c0.255,0.468-0.045,0.09,0.346,0.241l0.151-0.227
	c0.06-0.557,0-0.21-0.046-0.361L49.818,40.829z"/>
<path fill="#9D9D9C" d="M87.571,36.413c0.407,0.015,0.257,0.03,0.527-0.09c0.663-0.317,0.165-0.121,0.316-0.347
	c-0.181-0.031-0.256-0.151-0.572,0.045C87.479,36.232,87.691,36.126,87.571,36.413L87.571,36.413z"/>
<path fill="#9D9D9C" d="M50.798,47.596l0.031,0.06c0.136-0.227-0.015-0.227,0.151-0.316c-0.136-0.24-0.195-0.513-0.468-0.513
	l-0.06,0.693L50.798,47.596z"/>
<path fill="#6A6A6A" d="M47.633,51.047c0.166,0.18,0.121,0.662,0.679,0.12C48.146,50.64,47.996,50.715,47.633,51.047L47.633,51.047z
	"/>
<path fill="#6A6A6A" d="M82.432,47.249l0.377-0.287c-0.105-0.481-0.016-0.3-0.392-0.513C82.205,46.842,82.205,46.826,82.432,47.249
	L82.432,47.249z"/>
<path fill="#9D9D9C" d="M36.768,57.225c-0.105-0.134-0.076-0.12-0.196-0.256c-0.302-0.316,0.181,0.105-0.136-0.119
	c-0.211-0.167-0.226-0.183-0.573-0.213c0.105,0.303-0.076,0.242,0.317,0.469C36.452,57.271,36.527,57.21,36.768,57.225
	L36.768,57.225z"/>
<path fill="#6A6A6A" d="M33.271,33.338c-0.241-0.407,0.045-0.136-0.362-0.422c-0.242-0.15-0.301-0.136-0.528-0.226
	C32.427,33.232,32.729,33.249,33.271,33.338L33.271,33.338z"/>
<path fill="#6A6A6A" d="M90.54,56.486l0.663-0.104c0.06-0.105,0.211-0.376,0.272-0.497C91.021,56.065,90.54,56.11,90.54,56.486
	L90.54,56.486z"/>
<path fill="#6A6A6A" d="M72.605,48.726c0.255-0.482,0.046-0.468-0.286-0.648C72.063,48.59,72.094,48.65,72.605,48.726L72.605,48.726
	z"/>
<path fill="#9D9D9C" d="M43.957,55.554l-0.075-0.272l-0.332,0.196c0,0.648-0.09,0.497,0.347,0.513L43.957,55.554z"/>
<polygon fill="#C7C7C6" points="95.679,29.48 95.604,28.53 95.092,28.364 "/>
<path fill="#9D9D9C" d="M32.91,27.942c0.227-0.226,0.422-0.527,0.647-0.768c0.363-0.362,0.452-0.196,0.679-0.587
	c-0.182,0.09-0.709,0.376-0.859,0.542c-0.121,0.15-0.121,0.181-0.241,0.377C32.94,27.777,33.016,27.581,32.91,27.942L32.91,27.942z"
	/>
<path fill="#C7C7C6" d="M31.99,26.903c0.482-0.242,0.015,0.18,0.422-0.242c0.211-0.226,0.076-0.03,0.166-0.346
	C32.036,26.315,32.111,26.33,31.99,26.903L31.99,26.903z"/>
<path fill="#6A6A6A" d="M65.945,48.786c0.104-0.076,0.376-0.09,0.33-0.393c-0.015-0.166-0.226-0.331-0.361-0.421L65.945,48.786z"/>
<path fill="#6A6A6A" d="M69.923,43.376c0-0.046,0.045-0.227,0.03-0.257c-0.165-0.316,0.015-0.136-0.347-0.302
	C69.396,43.526,69.456,43.239,69.923,43.376L69.923,43.376z"/>
<path fill="#6A6A6A" d="M74.279,53.954c0.36-0.029,0.226,0.016,0.467-0.12c-0.12-0.347-0.062-0.302-0.467-0.347V53.954z"/>
<path fill="#6A6A6A" d="M58.982,42.969c0.362-0.107,0.347-0.107,0.483-0.452h-0.498L58.982,42.969z"/>
<path fill="#6A6A6A" d="M67.438,60.104c0.27,0.451,0.526,0.271,0.768-0.092L67.438,60.104z"/>
<path fill="#6A6A6A" d="M89.952,35.327v0.211c0.287-0.061,0.165,0.03,0.422-0.151c0.437-0.287-0.255,0.256,0.15-0.12
	c0.137-0.121,0.091-0.121,0.196-0.242L89.952,35.327z"/>
<path fill="#6A6A6A" d="M50.045,53.187c0.316-0.286,0.241-0.543-0.031-0.709C49.88,52.765,49.955,52.961,50.045,53.187
	L50.045,53.187z"/>
<path fill="#6A6A6A" d="M53.345,48.243c-0.377,0.015-0.06-0.045-0.195,0.242c0.104,0.046-0.166,0.361,0.452,0
	C53.481,48.243,53.752,48.228,53.345,48.243L53.345,48.243z"/>
<path fill="#6A6A6A" d="M36.497,25.215l0.979-0.618C36.979,24.672,36.633,24.777,36.497,25.215L36.497,25.215z"/>
<path fill="#6A6A6A" d="M92.046,55.538c0.377-0.137,0.076,0.044,0.333-0.151c0.496-0.362,0.029,0.03,0.24-0.286
	c-0.331,0.016-0.165-0.076-0.405,0.104C91.987,55.387,92.183,55.222,92.046,55.538L92.046,55.538z"/>
<path fill="#6A6A6A" d="M37.22,55.026c0.362,0.074,0.316,0.014,0.377-0.318l-0.423-0.028L37.22,55.026z"/>
<path fill="#9D9D9C" d="M48.251,48.5c0.406,0.181,0.076,0.137,0.406-0.015C48.357,48.002,48.478,48.153,48.251,48.5L48.251,48.5z"/>
<path fill="#9D9D9C" d="M92.92,55.04c0.347-0.09,0.138,0.046,0.318-0.09c0.375-0.242,0.12,0,0.226-0.271L92.92,55.04z"/>
</svg>
