<?xml version="1.0" encoding="utf-8"?>
<!-- Generator: Adobe Illustrator 15.0.0, SVG Export Plug-In  -->
<!DOCTYPE svg PUBLIC "-//W3C//DTD SVG 1.1//EN" "http://www.w3.org/Graphics/SVG/1.1/DTD/svg11.dtd" [
	<!ENTITY ns_flows "http://ns.adobe.com/Flows/1.0/">
]>
<svg version="1.1"
	 xmlns="http://www.w3.org/2000/svg" xmlns:xlink="http://www.w3.org/1999/xlink" xmlns:a="http://ns.adobe.com/AdobeSVGViewerExtensions/3.0/"
	 x="0px" y="0px" width="188px" height="149px" viewBox="1.918 0 188 149" enable-background="new 1.918 0 188 149"
	 xml:space="preserve">
<defs>
</defs>
<path fill-rule="evenodd" clip-rule="evenodd" fill="#F5853E" d="M40.725,20.74l7.059,117.516l94.763,1.172l6.173-117.943
	l-27.006-6.688c-5.516,6.716-3.801,8.259-15.574,18.576c-10.631,9.259-11.86,6.459-21.719-1.572
	c-4.115-3.344-5.459-4.145-8.859-8.287c-1.744-2.087-5.088-8.717-7.488-9.402C65.072,13.281,43.639,19.169,40.725,20.74
	L40.725,20.74z"/>
<path fill-rule="evenodd" clip-rule="evenodd" fill="#343434" d="M48.954,144.743c-0.058-5.716,1.4-4.487,8.173-4.173l76.703,0.886
	l8.059,5.259C128.943,146.687,54.898,146.972,48.954,144.743L48.954,144.743z M169.323,120.68c-0.143-3.115-2.886-2.029,7.688-7.345
	l10.146-4.601c0.257,5.801,1.257,2.571-1.915,4.772C182.47,115.393,171.81,120.337,169.323,120.68L169.323,120.68z M12.604,110.763
	c10.174,5.545,7.744,3.83,7.716,6.545c-3.715,0.314-7.116-2.458-10.316-4.087c-9.888-4.944-8.716-2.114-6.744-7.345L12.604,110.763z
	 M167.266,116.308c-3.114-6.802-17.518-31.094-18.604-37.124c-0.801-4.458,1.515-48.24,2.4-53.213l33.836,80.477L167.266,116.308z
	 M4.688,103.418C5.773,98.103,36.009,27.8,38.037,25.6l0.516,1.514c1.314,5.174-0.687-4.857,0.399,1.715
	c0.086,0.572,0.229,2.344,0.286,2.973c0.686,8.803,3.258,41.639,1.914,45.554c-1.285,3.802-17.375,34.065-19.262,35.752
	L4.688,103.418z M40.725,20.74c2.914-1.571,24.348-7.459,27.348-6.629c2.4,0.686,5.744,7.315,7.488,9.402
	c3.4,4.143,4.744,4.943,8.859,8.287c9.858,8.031,11.088,10.831,21.719,1.572c11.773-10.317,10.059-11.86,15.574-18.576l27.006,6.688
	l-6.173,117.943l-94.763-1.172L40.725,20.74z M72.359,9.652l10.23,11.889c21.662,22.748,26.635-6.316,34.951-11.774
	c2.372,4.345,1.057,6.688-1.572,10.317c-3.372,4.601-14.603,18.519-20.747,16.947c-5.858-1.486-17.403-13.347-21.033-18.234
	C70.931,14.368,70.016,14.711,72.359,9.652L72.359,9.652z M74.588,5.48c9.945-6.202,30.778-4.201,41.181,0.113L94.907,28.457
	C90.277,27.428,74.874,13.168,74.588,5.48L74.588,5.48z M21.348,120.822c1.772-4.372,18.291-37.095,20.719-39.152
	c1.001,15.176,2.83,53.442,5.174,65.788l96.449,1.4l4.687-64.159c3.201,6.002,18.433,35.752,20.719,38.639
	c5.201-2.4,16.519-6.888,20.434-10.86c-10.003-25.577-19.404-47.583-30.149-72.903c-9.031-21.348-3.229-18.662-27.206-24.264
	c-17.062-4.029-7.487-1.914-15.661-10.545c-6.201-6.545-38.693-6.115-43.181-0.143c-6.315,8.402,3.515,4.658-15.718,9.431
	c-5.001,1.229-17.432,3.2-19.747,6.458l-6.858,15.348C27.035,44.289,1.516,103.732,0,109.448L21.348,120.822z"/>
<path fill-rule="evenodd" clip-rule="evenodd" fill="#F5853E" d="M4.688,103.418l17.203,9.688
	c1.887-1.687,17.977-31.95,19.262-35.752c1.344-3.915-1.229-36.751-1.914-45.554c-0.058-0.629-0.2-2.4-0.286-2.973
	c-1.086-6.572,0.915,3.459-0.399-1.715L38.037,25.6C36.009,27.8,5.773,98.103,4.688,103.418L4.688,103.418z"/>
<path fill-rule="evenodd" clip-rule="evenodd" fill="#F5853E" d="M167.266,116.308l17.633-9.86l-33.836-80.477
	c-0.886,4.973-3.201,48.755-2.4,53.213C149.748,85.214,164.151,109.506,167.266,116.308L167.266,116.308z"/>
<path fill-rule="evenodd" clip-rule="evenodd" fill="#A99273" d="M74.588,5.48c0.286,7.688,15.689,21.947,20.319,22.977
	l20.861-22.863C105.366,1.279,84.533-0.722,74.588,5.48L74.588,5.48z"/>
<path fill-rule="evenodd" clip-rule="evenodd" fill="#FBAE48" d="M57.127,140.57c-6.772-0.314-8.23-1.543-8.173,4.173
	c5.944,2.229,79.989,1.943,92.935,1.972l-8.059-5.259L57.127,140.57z"/>
<path fill-rule="evenodd" clip-rule="evenodd" fill="#FBAE48" d="M117.541,9.767c-8.316,5.458-13.289,34.522-34.951,11.774
	L72.359,9.652c-2.344,5.059-1.429,4.716,1.829,9.145c3.63,4.888,15.175,16.748,21.033,18.234
	c6.145,1.571,17.375-12.347,20.747-16.947C118.598,16.454,119.913,14.111,117.541,9.767L117.541,9.767z"/>
<path fill-rule="evenodd" clip-rule="evenodd" fill="#FBAE48" d="M169.323,120.68c2.486-0.343,13.146-5.287,15.918-7.173
	c3.172-2.201,2.172,1.028,1.915-4.772l-10.146,4.601C166.438,118.65,169.181,117.564,169.323,120.68L169.323,120.68z"/>
<path fill-rule="evenodd" clip-rule="evenodd" fill="#FBAE48" d="M20.319,117.308c0.028-2.715,2.458-1-7.716-6.545l-9.345-4.887
	c-1.972,5.23-3.144,2.4,6.744,7.345C13.203,114.85,16.604,117.622,20.319,117.308L20.319,117.308z"/>
</svg>
