<?xml version="1.0" encoding="utf-8"?>
<!-- Generator: Adobe Illustrator 15.0.0, SVG Export Plug-In  -->
<!DOCTYPE svg PUBLIC "-//W3C//DTD SVG 1.1//EN" "http://www.w3.org/Graphics/SVG/1.1/DTD/svg11.dtd" [
	<!ENTITY ns_flows "http://ns.adobe.com/Flows/1.0/">
]>
<svg version="1.1"
	 xmlns="http://www.w3.org/2000/svg" xmlns:xlink="http://www.w3.org/1999/xlink" xmlns:a="http://ns.adobe.com/AdobeSVGViewerExtensions/3.0/"
	 x="0px" y="0px" width="323px" height="306px" viewBox="0 -5.311 323 306" enable-background="new 0 -5.311 323 306"
	 xml:space="preserve">
<defs>
</defs>
<path fill-rule="evenodd" clip-rule="evenodd" fill="#D6E034" d="M111.718,297.456c1.343,0.17,0.571,1.113,3.429,1
	c2.172-0.086,2-0.943,4.115-0.973c3.058-0.027,6.344,0.086,9.431,0.115c2.343,0,19.719-0.115,20.891-0.43
	c0.657-0.172,0.229-0.371,1.857-0.428c1.485-0.059,2.943-0.172,4.544-0.344c1.285-0.113,3.229-0.113,4.486-0.314l17.204-2.057
	c0.886-0.201,0.771-0.373,1.829-0.516c0.742-0.086,1.686-0.113,2.429-0.172l24.205-5.314c0-0.029,0.086-0.543,0.229-0.715
	c1.286,0,1.915-0.371,2.858-0.828c0.914-0.457,1.771-0.516,2.715-0.914l10.945-3.803c1.629-0.971,1.028-0.342,2-0.857l2.857-1.629
	c0.629-0.143,0.915-0.027,1.544-0.229c1.086-0.314,0.514-0.342,1.257-0.686c0.915-0.4,2.315-0.6,3.258-1.428
	c1.172-1.002,0.086-0.516,1.629-0.887c1.515-0.371,0.314-0.115,1.286-0.715c0.343-0.199,0.743-0.143,2.544-1.086l6.915-4.486
	c0.429-0.371,0.687-0.572,1.001-1.086c-0.258-1.029-0.172-0.43-0.486-1.057c1.058,0.113,0.172,0.713,1.4,0.256
	c0.972-0.342-0.028-0.57,1.601-0.885l0.229,0.027c0-1.143,0-0.514,0.457-1.029c0.715-0.855,0.972-0.514,2.229-2.172l1.715-1.914
	c0.742-0.771,0.171-0.428,1.171-0.857c0.286-0.258,0.743-0.771,0.915-0.943c1-16.375-0.114-34.236,0.6-50.727
	c0.343-8.115,0.286-16.861,0.343-25.148c0.029-4.287,0-8.574,0.058-12.832l1.114-88.079c-0.028-4.23-0.057-8.574,0-12.832
	l0.086-9.431c0.143-1.058,0.257-1.086,0.257-2.658c0,0.057,1.286,0.314-1.143,0.2c-0.571,0.429-0.915,1.058-1.601,1.629
	l-6.201,3.772c-0.8,0.6,0.086,0.314-0.857,0.743c-0.657,0.286-0.571,0.028-1.286,0.457c-0.028,0-0.943,0.686-1,0.715
	c-2.429,2.029-0.972,0.314-3.286,1.515c-1.001,0.543-1.258,0.257-2.286,0.886c-1.344,0.8-5.688,2.258-7.459,2.658
	c-1.314,0.286-1.258,0.543-2.315,0.8c-0.571,0.171-0.828,0.114-1.371,0.343c-0.915,0.343-0.372,0.257-1.058,0.629
	c-0.771,0.429-1.687,0.171-2.772,0.372c-1.543,0.257-3.601,1.114-5.572,0.857c-0.485,1.314-1.286,0.972-2.801,1.143
	c-0.543,0.085-1.172,0.143-1.715,0.286c-2.601,0.686-8.03,1.4-10.945,1.743c-1.114,0.143-1.914,0.429-2.914,0.658
	c-1.943,0.457-4.287,0.085-6.487,0.743c-2.058,0.629-4.458,0.429-6.802,0.629c-2.286,0.171-4.087,0.629-6.573,0.743
	c-4.687,0.171-8.688,0.886-13.088,1.143c-2.4,0.143-5.03,0.028-7.487,0.085l-21.291,0.572c-4.829,0-9.688-0.029-14.517-0.086
	c-4.715-0.057-8.974-0.543-14.032-0.543c-2.258,0-12.86-0.028-14.317-0.429c-3.601-1-6.344-0.314-8.23-0.886
	c-2.715-0.829-1.943-0.229-4.658-0.543l-6.401-0.886c-2.058-0.086-4.944-0.143-6.973-0.458c-2.201-0.314-2.229-0.743-6.373-0.915
	c-1.486-0.057-1.743-0.343-2.886-0.686c-1.143-0.314-2.115-0.2-3.372-0.286c-1.858-0.143-1.543-0.657-2.858-0.886
	c-1.286-0.257-1.972,0-3.229-0.429l-11.774-2.715c-1.171-0.257-1.572-0.772-2.601-0.972c-4.458-0.886-2.315-1.143-5.687-1.515
	c-0.915-0.114-2.143-0.486-3-0.743c-2.343-0.686-4.373-1.743-6.63-2.629c-0.458-0.171-0.829-0.229-1.286-0.4l-7.288-3.458
	c-1.372-0.229-3.029-1.257-4.058-1.943l-3.058-2.029c-0.057-0.028-0.114-0.057-0.143-0.085c-0.057-0.029-0.114-0.057-0.172-0.086
	c-1.4-0.915-1.457-1.8-2.915-2C3.666,57.396,3.952,73.057,3.98,75.829c0.057,6.573-0.2,13.26-0.143,19.833
	c0.114,13.231-0.029,26.464,0,39.667c0.028,13.175-0.314,26.578-0.086,39.695c0.257,12.975,0.172,26.664-0.028,39.695
	c-0.057,4.945-0.029,41.125,0.628,44.068c0.4,1.715,0.143,2.572,1.572,3.373l5.144,4.371c0.629,0.486,1.601,0.773,3.086,2.23
	c0.714,0.715,2,1.543,2.915,2.143c0.629,0.4,0.972,0.686,1.429,0.973l3.086,1.742c1.029,0.629,1,0.258,2,0.973
	c0.029,0.027,0.086,0.086,0.143,0.113l1.543,0.486c1.115,0.199,0.829,0.086,1.629,0.715c0.6,0.486,0.8,0.686,1.429,1
	c1.314,0.629,0.314-0.199,1.657,0.914c0.458,0.371,0.086,0.143,0.857,0.457c0.314,0.143,0.486,0.172,0.8,0.373
	c1.372,0.857,0.571,0.285,1.857,0.627c1.572,0.43-0.229,0.344,1.572,0.857c2.115,0.602,0.171-0.17,2,0.83
	c0.743,0.4,1.143,0.285,1.772,0.457l5.086,2.371c0.772,0.314,1.172,0.229,1.858,0.572c3.286,1.6,2.429,0.514,3.658,1.172
	c0.171,0.086,0.515,0.371,0.714,0.428c1.4,0.543,0.572-0.371,3.001,0.887c0.057,0.029,0.114,0.057,0.171,0.086
	c0.057,0.027,0.114,0.057,0.171,0.086c0.743,0.256,1.257,0.086,1.829,0.199c1.029,0.229,0.229,0.516,1.515,0.887
	c1.829,0.486,2-0.43,4.372,0.885c0.686,0.4,1.229,0.314,1.915,0.373c1.486,0.199,0.486,0.285,1.572,0.713
	c0.915,0.344,1.743,0,2.515,0.4l0.6,0.4c0.743,0.344,2.229,0.229,3.229,0.43c2.257,0.457-1.115,0.342,4.058,0.941
	c0.829,0.115,1.4,0.145,2,0.4c2.429,1,4.258,0.572,6.83,0.344c0.029,0.057,0.115,0.6,0.143,0.629
	c0.714,1.172,2.687,0.086,5.944,1.143c2.143,0.658,7.887,0.6,9.03,0.887C104.631,297.169,110.461,295.169,111.718,297.456
	L111.718,297.456z"/>
<path fill-rule="evenodd" clip-rule="evenodd" fill="#E5D6D7" d="M62.622,6.498c-0.628,1.458-1.343,1.115-3.115,1.086
	c-4.573-0.057-4.544,0.829-9.688,1.229c-2.029,0.143-1.314,0.629-3.115,0.8c-5.373,0.457-4.744,0.886-6.116,1.058
	c-2.772,0.371-1.086-0.343-2.372,1.2c-0.457-0.486,0-0.543-2.201-0.257c-1.571,0.229-1-0.057-1.686,0.886l-3.229,0.171
	c-0.486,0.714-0.143,0.372-0.4,1.057c-1.086,0-2.8-0.2-3.772,0.2c-1.086,0.486,0.114,0.372-1.314,0.657
	c-0.6,0.114-1.115,0.057-1.772,0.257c-1,0.286-0.486,0.343-1.229,0.657c-0.543,0.229-1.029,0.2-1.543,0.4
	c-0.6,0.257-0.458,0.4-1.172,0.657c-0.571,0.2-1.029,0.172-1.629,0.4l-5.373,2.343c-1.143,0.915-4.772,2.572-6.773,4.773
	c-2.543,2.772-2.429,4.973-0.114,7.716c0.057,0.086,0.372,0.458,0.429,0.515c0.229,0.286,0.343,0.457,0.429,0.6
	c1.257,1.486-1.086-0.771,0.486,0.429l2.572,1.943c0.057,0.028,0.114,0.057,0.171,0.085c0.572,0.257,0.743,0.372,1.315,0.629
	c1.857,0.886,0.143,0.372,2.458,1.429c1,0.458,0.886,0.743,1.029,1.201c0.028,0,1.257,0.6,1.372,0.657
	c1.115,0.229,2.029,0.886,2.972,1.143c3.344,0.857,0.771,0.886,3,1.058c2.315,0.171,1.543,0.714,3.201,1
	c1.572,0.286,0.658,0.086,1.687,0.572c0.4,0.171,1.029,0.286,1.486,0.4l6.315,1.943c0.429,0.143,1.144,0.143,1.829,0.314
	c0.6,0.143,0.972,0.429,1.343,0.543c1.314,0.314,2.058,0.085,3.315,0.657c1,0.457,0.143,0.257,1.629,0.4l12.231,1.972
	c0.972,0.171,2.743,0.429,3.429,0.6l7.344,0.857c1.744,0.143-0.028,0.257,3.373,0.543l10.631,1.572
	c4.201,0.028,6.773,0.943,11.374,0.972c3,0,1.572-0.057,3.801,0.4l35.179,1.258c6.573-0.029,22.233,0.286,28.549-0.2
	c1.429-0.114,2.2-0.4,3.372-0.515c5.03-0.486,10.517,0.029,15.632-0.628c3.401-0.458,8.03-0.543,11.488-0.857
	c1.344-0.114,1.887-0.543,3.173-0.657c4.743-0.486,10.202-0.543,14.603-1.858c1.144-0.343,2.344-0.343,3.744-0.4l7.059-1.172
	c1.143-0.457,0.143-0.6,3.115-0.714c2.972-0.114,2.058-0.314,3.314-0.771l6.916-1.315c1.715-0.371,1.657-0.771,2.886-0.971
	c3.602-0.629,1.229-0.458,3.287-0.886c2.114-0.457,8.059-2.744,9.345-2.972l10.116-6.344c0.429-0.458,0.286,0.085,0.286-0.657
	c0.057-1.486,3.458-4.63-1.829-9.06l-3.458-2.715c-2.314-0.972-3.601-1.829-5.658-2.858c-0.485-0.257-1.028-0.458-1.486-0.686
	c-2.172-1.086-2.314,0.114-2.915-1.572c-0.485-0.257-0.314,0.114-1.886-0.714c-1.028-0.572-1.4-0.286-2.601-0.6
	c-1.143-0.286-0.715-0.6-2.058-0.829c-1.687-0.257-1.114-0.086-2.429-0.686c-0.972-0.458-1.43-0.257-2.516-0.486
	c-1.257-0.257-1.028-0.629-2.314-0.8c-4.315-0.572-0.515-0.543-5.173-1.143c-4.801-0.6,0.172-0.372-5.115-0.943
	c-1.429-0.171-1.286-0.143-2.343-0.714c-1.029-0.571-1.458-0.257-2.772-0.429c-0.743-0.085-1.543-0.372-2.344-0.543
	c-0.8-0.143-2.058-0.314-2.829-0.372c-4.115-0.257-2.314-0.857-5.315-0.943c-3.086-0.086-3.114-0.458-5.172-0.829
	c-1.915-0.343-3.63-0.429-5.716-0.572c-1.086-0.085-1.343-0.314-2.372-0.514c-2.429-0.458-11.488-1-14.317-1.201
	c-1.314-0.085-1.229-0.429-2.658-0.457c-1.143-0.029-2.057-0.029-2.972-0.143c-3.086-0.486-8.545-0.543-11.803-0.6
	c-1.857-0.028-1.172-0.429-5.544-0.457l-18.404-0.314c-4.544-0.029-38.323-0.286-42.324,0.8c-1.772,0.486-4.144,0.171-6.087,0.2
	L70.881,5.612c-1.258,0.2-1.086,0.429-2.658,0.486C66.337,6.155,64.308,6.526,62.622,6.498L62.622,6.498z"/>
<path fill-rule="evenodd" clip-rule="evenodd" fill="#EF544D" d="M31.872,66.712c1.143-0.2,5.687,1.715,6.458,1.915
	c0.886,0.2,1.857,0.085,2.744,0.257c0.771,0.171,1.257,0.543,2.257,0.686l9.459,2.344c2.143,1.057,4.058,0.314,7.487,1.429
	l10.345,1.486c1.086,0.057,1.857,0.057,2.686,0.257c5.573,1.315,3.658,0.372,7.688,1c1.086,0.171,1,0.343,2.458,0.372
	c1.058,0.028,1.658,0.114,2.687,0.2c1.857,0.172,3.772,0.229,5.801,0.314c3.229,0.114,6.687,0.686,11.117,0.8
	c2,0.057,3.658,0.171,5.573,0.171c1.943,0.029,3.601,0.429,5.544,0.486c15.46,0.372,31.207,0.286,46.696-0.028
	c2.143-0.029,3.572-0.286,5.344-0.429l16.804-1.086c1.687-0.2,3.801-0.229,5.458-0.343c2.229-0.171,3.401-0.4,5.459-0.657
	l4.829-0.857c1.515-0.372,4.144-0.4,5.916-0.429c1.114,0.057,2.601,0.057,3.687-0.229l21.233-4.858
	c1.114-0.314,2.058-0.915,3.144-0.915c0.257-0.6,0.199-0.686,1.285-1.029c1.058-0.343,0.314,0.086,1.144-0.486
	c1.943-1.343,1.258-0.2,3.144-1.143c1.457-0.714,0.686-0.2,1.915-0.486c1-0.257,0.229-0.114,1.714-0.943
	c0.458-0.257,0.144-0.086,0.486-0.286c1.743-1.143,0.371,0.286,3.743-1.657l3.258-1.772c2.858-2,0.943,0.029,4.173-2.829
	l1.943-1.458c1.314-1.029,2.629-2.344,2.743-4.144l-0.028-13.718c-0.571,0.2-0.8,0.143-1.344,0.629
	c-0.057,0.057-0.199,0.2-0.229,0.257l-0.457,0.514c-0.771,0.771-1.172,0.629-2.144,1.2c-0.657,0.4-0.686,0.314-1.314,0.658
	c-1.143,0.6-0.229,0.457-1.257,0.914c-0.657,0.286-0.687,0.115-1.429,0.515c-0.429,0.257-0.972,0.486-1.43,0.771l-2.686,1.4
	c-1.2,0.714-0.801-0.257-3.115,0.943l-4.744,1.429c-0.686,0.171-1.257,0.114-1.943,0.257c-0.914,0.143-0.657,0.257-1.629,0.486
	c-2.915,0.543-1.857,0.171-3.001,0.8c-1.114,0.6-2.057,0.286-3.286,0.571c-1.372,0.343-1.172,0.657-3.172,0.886
	c-3.115,0.343-1.372,0.143-3.115,0.8c-1.286,0.486-1.857,0-2.943,0.458c-2.486,1.086-1.258,0.372-3.772,0.714
	c-2.801,0.372-1.229-0.229-5.315,0.629l-8.659,1.257c-4.314,0.2-5.258,0.886-6.744,0.943c-5.572,0.2-11.23,1.201-15.003,1.115
	l-6.002-0.086c-0.285,0.372,0.486,0.743-2.485,0.8c-0.972,0.029-1.658,0.114-2.43,0.171c-1.715,0.114-3.687,0.143-5.315,0.2
	c-3.658,0.171-7.459,0.057-11.146,0.114c-1.886,0.029-3.2,0.429-4.857,0.572c-2.687,0.257-13.089-0.171-16.175-0.171
	c-3.344-0.029-7.116-0.458-10.66-0.429c-3.601,0.028-7.259-0.029-10.888-0.086c-1.829-0.057-3.687-0.057-5.544-0.057
	c-2.543-0.029-2.858-0.486-4.858-0.714c-3.058-0.343-7.173-0.4-10.402-0.429c-2.258-0.029-2.887-0.6-4.83-0.743
	c-1.857-0.114-3.429-0.114-5.229-0.343c-1.715-0.229-2.772-0.6-4.715-0.714l-9.545-1.4c-1.429-0.486-3.201-0.601-4.944-0.658
	c-3.344-0.085-3.144-0.657-4.601-0.914l-4.43-0.886c-1.772-0.4-3.601,0-5.03-0.629c-2.4-1.057-2.8-0.2-4.629-0.914
	c-3.744-1.486-3.458,0.057-5.287-1.029c-0.029,0-0.429-0.257-0.458-0.286c-0.457-0.2-0.571-0.2-0.972-0.286
	c-4.373-0.714-1-0.714-4.572-1.058c-1.172-0.114-1.086-0.229-1.886-0.628l-0.314-0.171c-0.085-0.029-0.143-0.057-0.2-0.086
	l-5.859-1.857c-0.457-0.2-0.743-0.172-1.143-0.314c-1-0.343-0.143-0.458-1.714-0.915c-2-0.6-0.686-0.8-2.687-1
	c-1.029-0.085-4.086-1.743-5.144-2.314c-0.143-0.086-0.4-0.257-0.429-0.286l-0.971-0.486c-2.887-1.543-4.373-3.486-5.23-3.801
	c-0.229,2.029-0.343,13.403,0.171,14.689c0.4,0.943,2.172,2.915,3.001,3.772c0.143,0.143,0.257,0.257,0.371,0.343
	c1.572,1.429,2.172,2.058,4.144,3.144c2.115,1.115,1.229,0.4,3.543,2.229l14.061,6.316C30.758,65.855,31.101,65.398,31.872,66.712
	L31.872,66.712z"/>
<path fill-rule="evenodd" clip-rule="evenodd" fill="#2E2D2E" d="M26.957,279.907c1.429,0.258,2.058,0.801,3.258,1.373l3.001,1.57
	c0.571,0.258,1.343,0.4,1.886,0.572c0.914,0.285,0.914,0.457,1.629,0.771c0.657,0.258,1.229,0.258,1.857,0.6
	c0.486,0.258,0.543,0.629,1.286,0.572c2.4,0.086,3.687,1.914,8.745,1.914c-0.714-1,0.085-0.17-0.8-0.742
	c-0.057-0.057-0.114-0.086-0.171-0.115l-2.286-0.971c-1.743-0.428-2.086-0.943-3.401-1.43c-2.229-0.828-5.344-1.484-6.744-2.771
	l-10.974-5.201c-1.086-0.457-1.6-1.086-2.429-1.457c-2.057-1-0.886-0.686-2.629-1.457c-3.458-1.545-4.373-3.029-5.544-3.658
	c-0.429-0.229-0.372-0.145-0.686-0.314c-1.943-0.973,1.086,1.027-0.571-0.344l-0.343-0.371c-1.143-1.086-1.286-1-2.515-1.857
	l-3.658-3.344c-3.572-2.715-1.915-8.316-2.486-14.947c-0.229-2.514,0.171-5.602-0.172-7.859l-0.343-15.803
	c0.029-2.744,0-5.516-0.057-8.23c-0.143-10.832-0.029-21.834,0.028-32.666c0-5.344,0.314-10.518,0.229-15.975
	c-0.086-5.201-0.171-11.031,0-16.205c0.343-10.544,0.114-21.462,0.257-32.179c0.058-6.63-0.4-63.187,0.543-64.616
	c1.572,0.057,2.372,1.658,3.344,2.429c1.343,1.115,2.715,1.429,3.429,2.401l5.116,2.429c0.057,0.028,0.085,0.057,0.143,0.085
	c1.458,1.058,2.086,1.572,3.43,1.115c-0.114-2.601-1.515-0.515-4.401-3.629c-0.657,0.114-2.229-1.229-2.972-1.601
	c-1.601-0.8-1.286-0.628-2.858-1.915c-1.143-0.943-1.658-1.086-2.629-2.229c-0.829-0.972-1.2-1.057-2.172-2.4
	c-1.171-1.658-0.914-1.372-0.886-3.944c0.029-1.629-0.057-3.201-0.028-4.83c0.057-2.086-0.429-7.573,0.485-8.945
	c0.543,0.229,4.43,4.458,10.402,6.945c1.172,0.4,0.486,0.372,1.486,0.628c0.686,0.2,0.943,0.086,1.515,0.2
	c0.6,0.143,0.514,0.372,0.943,0.6c0.829,0.458,0.486,0.314,1.857,0.314c-0.314-2.343-0.028-1.458-2.115-1.715
	c-0.571-0.085-0.857-0.314-1.229-0.743l-0.458-0.686c-0.114-0.057-1.343-0.657-1.372-0.657c-1.515-0.229-3-1.429-3.629-1.744
	l-0.372-0.143c-0.085-0.029-0.143-0.029-0.2-0.057l-0.971-0.572c-0.058-0.057-0.172-0.2-0.229-0.257
	c-1.915-1.771-1.171-0.057-4.315-3.915c-1.772-2.201-2.515-3.658-0.657-6.973c1.486-2.629,4.315-4.144,7.173-5.687
	c1.029-0.572,0.028-0.4,2.058-1.115c3.515-1.229,4.658-2.4,6.659-2.744c1.657-0.286,1.229-0.543,2.429-0.915
	c0.915-0.314,1.715-0.4,2.515-0.686c1.057-0.372,1.458-0.372,2.601-0.6c1.486-0.286,0.657-0.515,2.2-0.886
	c1.829-0.429,3.115-0.771,5.087-1.143c1.543-0.314,1.257-0.628,2.286-0.829c0.829-0.171,1.943-0.171,2.83-0.343
	c1.286-0.257,1.143-0.486,2.886-0.629c4.315-0.4,3.401-0.714,5.172-1.029c2.401-0.429,1.572,0.143,5.487-0.829l5.858-0.572
	c1.486-0.029,1.572-0.314,2.858-0.458c1.686,0.029,3.715-0.343,5.602-0.4c1.572-0.057,1.4-0.286,2.658-0.486l14.003-1.229
	c1.943-0.028,4.315,0.286,6.087-0.2c4.001-1.086,37.78-0.829,42.324-0.8l18.404,0.314c4.372,0.028,3.687,0.429,5.544,0.457
	c3.258,0.057,8.717,0.114,11.803,0.6c0.915,0.114,1.829,0.114,2.972,0.143c1.43,0.028,1.344,0.372,2.658,0.457
	c2.829,0.2,11.889,0.743,14.317,1.201c1.029,0.2,1.286,0.429,2.372,0.514c2.086,0.143,3.801,0.229,5.716,0.572
	c2.058,0.371,2.086,0.743,5.172,0.829c3.001,0.085,1.2,0.686,5.315,0.943c0.771,0.058,2.029,0.229,2.829,0.372
	c0.801,0.171,1.601,0.458,2.344,0.543c1.314,0.171,1.743-0.143,2.772,0.429c1.057,0.572,0.914,0.543,2.343,0.714
	c5.287,0.572,0.314,0.343,5.115,0.943c4.658,0.6,0.857,0.571,5.173,1.143c1.286,0.171,1.058,0.543,2.314,0.8
	c1.086,0.229,1.544,0.028,2.516,0.486c1.314,0.6,0.742,0.429,2.429,0.686c1.343,0.229,0.915,0.543,2.058,0.829
	c1.2,0.314,1.572,0.028,2.601,0.6c1.571,0.829,1.4,0.457,1.886,0.714c3.458,0.486,5.059,2.115,6.487,2.687
	c2.4,0.943,3.915,1.915,5.658,3.144c2.601,1.829,5.688,4.63,5.002,8.259c-0.372,2.086-0.829,2.372-1.801,2.801
	c0,0.743,0.143,0.2-0.286,0.657l-10.116,6.344c-1.114,1.543-4.344,1.829-6.087,2.601c-1.344,0.6-11.146,3.487-12.917,3.601
	c-3.516,0.2,0.171,1.2-7.23,1.2c-0.457,1.086-0.429,0.771-1.915,0.714c-2.457-0.057-2.2,0.372-2.457,0.972
	c1.8,1.172,2.114,0,5.087,0c4.601,0,1.257-0.915,4.572-0.972c2.543-0.028,3.4-0.829,6.315-1.2c1.629-0.2,1.114-0.628,3.144-0.943
	c3.001-0.458,9.688-2.972,12.632-4.23l4-1.857l0.144,0.057l3.601-2.629c0.943-0.6,0.857-0.514,1.687-1.257
	c0.657-0.6,1.314-0.571,1.515-1.086c1.086,1.857,0.399,10.603,0.485,13.632c0.028,1.172,0.114,2.429-0.143,3.43
	c-0.286,1.057-0.771,1.171-1.372,1.915c-1.515,1.886-2.715,2.172-3.43,3.373l-0.972,0.143c-0.6,0.857-1.429,1-2.343,1.458
	c-0.629,0.314-0.629,0.543-2.372,1.458l-2.429,1.4c-2.687,1.743-10.889,5.001-13.66,5.258c-1.086,0-2.029,0.6-3.144,0.915
	l-21.233,4.858c-1.086,0.286-2.572,0.286-3.687,0.229c-0.972,0.829-1.372,0.343-1.943,0.486c-3.43,0.972-12.746,2.086-16.461,2.201
	c-2.058,0.086-3.344,0.543-5.544,0.629c-8.202,0.343-15.86,1.029-23.977,1.114c-8.316,0.114-16.575,0.171-24.92,0.171
	c-3.515,0-23.348-0.657-24.749-0.057c0.372,1.458,0.972,1.229,2.744,1.315c1.286,0.085,2.572,0.143,3.858,0.171
	c2.429,0.085,5.03-0.114,7.43,0.057c5.916,0.372,40.066,0.372,44.839-0.343c1.943-0.314,4.887-0.429,7.259-0.429
	c2.257-0.029,4.829-0.171,7.287-0.286c1.543-0.057,1.886-0.372,3.344-0.571l7.287-0.458c0.943-0.143,1.886-0.6,2.801-0.771
	c1.457-0.229,2.543,0.171,3.801-0.429c0.057-0.028,0.114-0.057,0.143-0.085c1.114-0.543,1.229-0.257,2.943-0.286
	c2.973-0.028,12.86-1.8,16.804-2.486c1-0.171,1.458-0.743,3.029-0.571c1.972,0.257,4.029-0.6,5.572-0.857
	c1.086-0.2,2.001,0.057,2.772-0.372c0.686-0.372,0.143-0.286,1.058-0.629c0.543-0.229,0.8-0.171,1.371-0.343
	c1.058-0.257,1.001-0.515,2.315-0.8c1.771-0.4,6.115-1.857,7.459-2.658c1.028-0.629,1.285-0.343,2.286-0.886
	c2.314-1.201,0.857,0.514,3.286-1.515c0.057-0.029,0.972-0.715,1-0.715c0.715-0.429,0.629-0.171,1.286-0.457
	c0.943-0.429,0.058-0.143,0.857-0.743l6.201-3.772c0.686-0.571,1.029-1.2,1.601-1.629c0.314-0.714,0.629-0.943,1.629-0.457
	c0.257,2.4,0,5.458,0.086,8.002c0.086,2.601-0.058,5.573-0.058,8.23l-0.457,46.726c0.086,1,0.229,1,0.914,1.572
	c0.372-0.486,0.486-1.229,0.515-1.887l0.114-15.432c-0.343-10.946,0.286-24.006,0.258-35.095c-0.029-3.001,0.313-5.63,0.229-8.716
	c-0.086-2.944-0.058-6.001,0.028-8.945c0.057-1.543-0.486-3.287,0.2-4.201c0.743-0.915,2.258-0.686,3.629-0.943
	c1.486-0.286,0.286-0.571,3.344-1l2.544-0.715c0.343-0.114,0.628-0.114,1-0.171c3.772-0.543,3.887-0.8,7.887-1.171
	c4.115-0.4,12.604-0.658,16.404,0.571c1.114,0.372,2.4,0.429,3.458,0.915c0.771,0.343,0.657,0.4,1.743,0.6
	c1.114,0.2,0.8,0.057,1.657,0.629l2.887,1.515c0.2,0.085,0.485,0.229,0.628,0.314c0.029,0.028,0.086,0.057,0.115,0.085
	c0.057,0.029,0.085,0.086,0.143,0.114c0.657,0.429,2.943,1.744,4.201,3.287c1,1.229,0.657,0.429,2.257,2.687
	c0.029,0.543,3.229,5.373,3.716,6.573c0.257,0.658,0.257,0.943,0.571,1.601c0.657,1.314,0.6,2.058,1.058,3.315
	c0.429,1.2,0.457,2.372,0.857,3.515c0.686,1.943,0.457,1.429,0.628,3.772c0.372,4.258,0.601,1.429,0.629,7.974
	c0.058,5.516-0.229,7.059-0.743,12.088c-0.114,1.229-0.571,2.087-0.8,3.544c-0.486,3-1.058,4.344-1.771,6.973
	c-0.172,0.572-0.286,1.115-0.486,1.687c-0.229,0.687-1.715,3.429-1.743,4.43c-0.485,1.4-1.4,2.743-1.857,3.801l-3.029,4.944
	c-3.086,4.744-6.345,7.716-10.374,11.402l-10.945,8.145c-1.171,0.915-9.259,4.659-10.888,5.316l-7.859,2.973
	c-0.942,0.313-3.972,1.171-4.543,1.057c-0.915,0.801-3.716,1.2-4.83,1.029c-0.657-1.486-0.371-11.26-0.2-13.575
	c2.001-1.571,3.601-1.058,5.83-2.114c0.914-0.43,1.4-0.286,2.286-0.629l5.688-2.287c0.628-0.399,0.856-0.686,1.828-0.914
	c0.429-0.543,0.258-0.371,0.857-0.743c0.629-0.399,2.772-1.2,3.858-1.972c2.172-1.572,0.629-0.057,3.086-1.943l2.286-1.829
	c0.629-0.543,1.314-0.743,2.001-1.4c0.285-0.257,0.543-0.543,0.857-0.857l4.2-4.029c1.887-2.144,3.658-3.687,5.173-6.517
	c0.687-1.257,1.857-2.943,2.4-4.314c0.4-1.029,1.687-2.544,0.886-3.916c-0.856,0.314-1.886,2.801-2.743,4.487l-1.886,3.173
	c-0.486,0.857-0.286,0.742-1.229,1.028l0.058-0.229c-0.286,1.286-1.515,2.515-2.372,3.429c-0.886,0.915-1.543,1.915-2.629,2.943
	l-2.857,2.716c-1.058,0.972-1.943,1.629-3.144,2.429c-1.229,0.857-2.001,1.4-3.315,2.229l-3.544,2.028
	c-1.515,0.83-5.83,2.944-7.516,3.344c-0.829,1.287-5.602,2.315-7.287,2.944c-0.743,0.257-1.4,1.028-2.344,0.372
	c-0.886-0.687-0.485-5.002-0.485-6.974c0-2.858-0.286-2.001-0.771-2.344c-1.029,1.172-0.801,1.028-0.829,3.572
	c-0.028,1.458,0,2.887,0,4.345l-0.372,38.98c-0.028,1.229-0.371,1.373-0.428,3.859c-0.058,5.629-0.286,11.402-0.229,17.117
	c0.058,5.459,0.086,11.66-0.114,17.09c-0.085,2.773-0.028,5.83,0,8.631c0,2.916-0.229,5.887-0.257,8.459
	c0,1.344,0.343,32.438-0.257,33.523c-0.543,1-0.229,0.342-0.743,0.742c-0.172,0.172-0.629,0.686-0.915,0.943
	c-0.143,1.486-2.629,3.602-3.743,4.631c-0.886,0.799-0.629,0.885-1.829,1.342l-0.229-0.027c-0.372,0.799-0.144,0.656-0.915,1.285
	c-1.743,1.43-1.8,1.771-3.258,2.771l-2.372,1.516c-0.428,0.258-0.571,0.428-1.114,0.801c-3.715,2.314-10.316,5.771-14.432,7.516
	c-0.914,0.4-2.114,0.656-3.086,1.086c-0.857,0.4-1.887,0.715-2.715,1.115l-4.487,1.57c-0.8,0.258-0.6,0.344-1.343,0.572
	l-9.831,2.801l-24.205,5.314c-1.372,1.658-24.005,3.545-27.577,4.031c-3.63,0.514-17.576,0.828-21.548,0.941
	c-2.943,0.086-6.001-0.027-8.945,0c-5.458,0.029-3.515-0.941-7.487,0.629c-0.458,0.172-0.171,0-0.572,0.258
	c8.831,1.686,16.804,0.801,25.234,0.371c2.915-0.143,5.801-0.086,8.716-0.229c3.115-0.113,5.401-0.57,8.23-0.771
	c1.314-0.113,2.629-0.199,3.973-0.285c1.571-0.086,2.372-0.4,4.001-0.572c1.343-0.143,2.486-0.285,3.886-0.371
	c1.43-0.086,2.601-0.514,3.973-0.715c1.372-0.199,2.658-0.113,3.943-0.4c1.486-0.371,2.401-0.742,4.173-0.686
	c0.771,0.143,2.572,0,3.229-0.172c1.314-0.342,0.886-0.656,2.571-0.771c2.973-0.143,3.602-0.514,5.888-1.143
	c3.029-0.828,6.458-1.285,8.573-1.857l21.09-6.717c0.915-0.342,1.687-0.428,2.572-0.857c2.543-1.314,5.716-2.371,7.373-3.258
	l6.916-3.486c0.686-0.371,1.857-0.771,2.286-1.113c0.457-0.314,0.171-0.23,1-0.715l2.2-1.4c1.458-1.314,0.429,0.113,2.315-1.543
	l8.602-8.316c1.771-2.801,1.2-0.973,2.286-2.801c0.601-1.029,0.715-1.172,0.715-2.887l0.057-24.207
	c0.029-9.201,0.172-18.232,0.2-27.578c0.058-9.029-0.343-18.891,0.114-27.807c0.2-4.314,0.4-9.174,0.457-13.574
	c0.144-15.576-0.972-13.26,2.315-13.861c0.629-0.113,1.057-0.457,1.743-0.656c1.114-0.314,2.801-0.258,3.857-0.744
	c2.401-1.114,1.058,0.171,3.572-1.229c0.829-0.486,1.086-0.258,1.915-0.543l3.115-1.457c0.8-0.314,1-0.372,1.743-0.687
	c0.714-0.314,1.114-0.343,1.829-0.601c1-0.371,0.657-0.457,1.457-0.771c0.743-0.285,1.2-0.229,1.829-0.571l4.315-2.343l0.399-0.601
	c0.658-0.714,1.801-1.001,3.259-2.114c4.286-3.316,7.772-5.23,11.773-9.289c1.486-1.514,5.887-6.287,7.145-8.088
	c1.543-2.2,1.657-3.258,2.915-3.715c0.028-0.172,0.457-1.057,0.714-1.572c1.001-2.086,1.286-0.628,1.887-3.4
	c0.485-2.258,0.972-0.257,2.114-4.629c0.286-1.029,0.058-0.201,0.4-0.887c0.571-1.057,0.172-1,0.486-2.172
	c0.171-0.629,0.514-0.886,0.771-1.657c0.257-0.857,0.2-1.372,0.543-2.115c1.457-3.001,0.143-1.571,1.143-4.173
	c0.743-1.971,0.286-4.915,0.771-7.03c0.4-1.772,0.372-2.629,0.4-4.687l-0.028-8.002c-0.086-1.457-0.314-1.029-0.457-2.172
	c-0.344-3.515-0.458-5.858-1.344-9.116c-0.171-0.6-0.485-1.144-0.686-1.915c-0.343-1.314-0.258-1.029-0.687-2
	c-0.343-0.8-0.313-1.143-0.742-1.943l-1.801-3.258c-0.343-0.743-0.485-1.115-0.886-1.8c-1.2-2.029-2.058-1.829-2.001-2.801
	c-0.742-0.314-0.257,0-0.914-0.572c-0.058-0.057-0.371-0.429-0.457-0.514l-2.115-1.972c-4.772-4.115-13.746-6.973-19.633-7.116
	c-3.887-0.086-12.803-0.429-16.175,0.343c-0.571,0.143-0.829,0.4-1.571,0.543l-4.973,1.029c-1.629,0.286-2.172,0.657-3.173,0.972
	c-1.371,0.372-0.714-0.171-3.144,0.771c-1.429-1.114-0.628-1.572-0.686-4.029c-0.086-2.429,0.4-10.889-0.286-12.546
	c-0.428-1.058-0.485-3.887-4.029-6.43c-0.571-0.4-1.057-0.572-1.515-0.915l-2.829-2.201c-0.857-0.486-1.485-0.486-2.571-1.314
	l-0.486-0.486c0-0.057-0.058-0.086-0.086-0.143c-1.371,0.057-3.601-1.458-4.887-2.086l-5.173-1.801
	c-1.771-0.457-6.43-1.743-7.973-2.515c-1.144-0.543-1.515-0.257-2.857-0.486c-1.086-0.2-1.286-0.543-2.915-0.772
	c-2.915-0.429-1.743-0.829-6.059-1.086c-1.172-0.057-1.572-0.457-2.544-0.771c-0.942-0.314-2.058-0.257-3.029-0.571
	c-3.429-1.144-3.857-0.229-6.973-1.4c-0.171-0.086-0.485-0.172-0.686-0.257c-0.543-0.229-0.314-0.086-0.543-0.286
	c-1.657,0.514-5.459-0.601-7.316-0.772c-2.657-0.257-4.857-0.543-7.229-0.829c-1.258-0.143-2.944-0.028-4.03-0.229
	c-1.2-0.2-1.399-0.657-3.2-0.715c-1.486-0.028-2.429-0.229-3.715-0.343c-1.258-0.114-2.544-0.028-3.801-0.143
	c-2.286-0.229-4.916-0.629-7.316-0.829c-2.515-0.229-5.372-0.028-7.858-0.314c-4.83-0.571-10.117-0.628-15.289-0.714
	c-4.887-0.085-28.492-1.171-31.464-0.429c-2.429,0.6-5.373-0.057-7.973,0.2l-15.26,0.657c-2.801-0.057-5.487,0.657-7.23,0.657
	c-2.8,0.029-5.315,0.143-8.001,0.372c-1.601,0.143-0.572,0.458-3.629,0.572c-6.944,0.2-13.432,2-17.918,2.143
	c-1.686,0.057-2.229,0.486-3.429,0.686c-1.143,0.2-2.629,0.2-3.801,0.343c-2.772,0.372-1.886,0.629-3.172,0.886
	c-1.057,0.2-2.857-0.029-3.715,0.257c-1.314,0.372,0.514,0.543-3.315,0.8c-1.686,0.115-1.801,0.572-2.944,0.857l-6.63,1.4
	c-1.314,0.429,0.171,0.343-1.314,0.714c-0.8,0.2-1.172,0.172-1.658,0.372c-0.743,0.286-0.486,0.343-1.486,0.629
	c-0.771,0.2-0.857,0.2-1.486,0.457c-1.771,0.772-4.344,1.143-5.887,2.144c-1.629,1.029-2.943,1.4-4.401,1.886
	c-1.515,0.486-4.573,3-5.83,4.087c-4.515,3.915-4.144,4.572-4.229,11.831L1.208,61.054c0,1.515,0.257,2.2,0.257,3.629
	c0,5.43-0.314,10.488-0.229,15.975c0.486,31.808-0.429,64.33-0.457,96.309c0,10.775-0.257,21.635-0.029,32.408
	c0.2,10.488,0.314,21.291,0.257,31.951c-0.029,3.029,0.429,4.943,0.429,7.744c0.028,2.629-0.029,5.344,0.057,7.975
	c0.2,7.23,0.457,5.086,3.801,8.23l4.344,3.658c0.743,0.543,1.715,1.113,2.4,1.715c3.201,2.742,9.773,6.543,13.603,8.373l1.172,0.715
	C26.842,279.679,26.928,279.851,26.957,279.907L26.957,279.907z"/>
<path fill-rule="evenodd" clip-rule="evenodd" fill="#93A3AC" d="M261.951,48.851l0.028,15.004c0.258-0.229,0.286-1.572,3.172-2.372
	c1.887-0.515,0.458-0.572,1.801-0.972c0.515-0.143,0.686-0.029,1.258-0.257c0.686-0.286,0.229-0.286,0.828-0.6
	c0.743-0.4,1.515,0,2.544-0.429c0.857-0.372,0.085-0.458,2.086-0.8c2.543-0.429,0.343-1.029,5.059-0.943
	c2.629,0.114,1.314-0.715,5.315-0.772c6.744-0.114,11.459,0.314,16.632,4.916l1.601,1.543c1.543,1.772,1.485,2.229,2.144,4.001
	c0.399,1.086,1.515,3.401,1.629,4.515c0.143,1.629,0.257,0.943,0.686,2.287c0.257,0.8,0.286,1.686,0.343,2.572
	c0.257,4.03,0.058,8.316-0.057,12.346c-0.086,1.943-0.029,1.171-0.601,2.543c-0.371,0.886-0.229,1.486-0.371,2.486
	c-0.172,1.029-0.629,1.515-0.857,2.2c-0.258,0.857-0.114,1.515-0.515,2.458c-0.257,0.629-0.457,1.457-0.771,2.372
	c-0.687,2.144-4.087,8.917-5.858,11.116c-0.886,1.115-1.314,2.029-1.887,2.23c-0.143,0.828-0.257,0.942-0.571,1.4l-8.459,7.973
	c-1.229,0.972-2.429,2.144-4.058,2.915c-0.771,0.372-0.172,0.058-0.629,0.372c-1.657,1.028-1.344,0.628-3.201,2.114
	c-1.171,0.942-2.028,0.399-3.515,1.857c-1.172,1.114-0.657,0.058-2.001,0.857c-0.028,0.028-0.085,0.086-0.143,0.114
	c-0.028,0.029-0.086,0.086-0.143,0.114c-0.515,0.372-0.515,0.372-1.286,0.485l-11.088,3.316c-0.144,1.914-0.572,11.602,0.028,12.545
	c0.314,0.314,0,0.314,1.857-0.028c0.943-0.171,1.572-0.257,2.544-0.114l0.229-0.257c1.028-0.915,5.258-1.572,8.287-3.058
	c1.829-0.887,2.086-0.715,2.943-1.172c0.915-0.486,1.029-0.314,1.972-0.686l5.487-2.716c1.314-0.343,3.315-1.601,4.287-2.544
	c1.143-1.113,0.714,0.029,2.114-1.257c0.457-0.429-0.057-0.058,0.343-0.314l3.401-2.229c2.371-2.029,1.972-1.285,4.687-4
	c1.257-1.287,1.143-0.629,2.715-2.115c1.886-1.771,1.571-1.771,2.543-2.801l2.372-3.229c0.4-0.657,0.943-0.743,1.372-1.257
	c0.571-0.629,0.485-0.943,1.058-1.887c0.028-0.028,0.057-0.086,0.085-0.143l1.001-1.372c0.857-1.172-0.144-0.571,1.143-2.001
	l1.943-2.886c0.114-0.286,0.314-0.886,0.429-1.028c0.571-0.801,0.257-0.4,1.086-0.687c0.028-1.001,1.515-3.743,1.743-4.43
	c0.2-0.571,0.314-1.114,0.486-1.687c0.714-2.629,1.285-3.973,1.771-6.973c0.229-1.457,0.686-2.315,0.8-3.544
	c0.515-5.03,0.801-6.573,0.743-12.088c-0.028-6.544-0.257-3.715-0.629-7.974c-0.171-2.343,0.058-1.829-0.628-3.772
	c-0.4-1.143-0.429-2.315-0.857-3.515c-0.458-1.257-0.4-2-1.058-3.315c-0.314-0.657-0.314-0.943-0.571-1.601
	c-0.486-1.2-3.687-6.03-3.716-6.573c-1.828-0.286-2.114-2.201-4.572-3.772c-1.257-0.8-0.257,0.4-1.543-1.086l-2.058-1.372
	c-0.257-0.114-0.371-0.114-0.686-0.257c-0.429-0.229-0.372-0.314-0.715-0.515c-1.886-1.057-3.715-1.257-4.486-1.572
	c-0.801-0.343-0.286-0.429-1.515-0.628c-1.286-0.257-2.658-0.172-3.772-0.4c-1.086-0.257-0.571-0.314-1.314-0.543
	c-0.629-0.171-1.4-0.143-2.086-0.171c-3.201-0.086-9.859-0.2-12.975,0.6c-0.058,0-0.143,0.029-0.2,0.057
	c-2.886,0.8-2.915-0.229-5.572,0.943c-1.144,0.515-2.315,0.257-3.516,0.601c-0.942,0.229-0.457,0.229-1.4,0.543
	c-0.628,0.229-1.114,0.257-1.771,0.343C264.009,48.022,262.522,48.565,261.951,48.851L261.951,48.851z"/>
<path fill-rule="evenodd" clip-rule="evenodd" fill="#BCBCBD" d="M26.957,279.907c-0.028-0.057-0.114-0.229-0.143-0.17l-1.172-0.715
	c-3.83-1.83-10.402-5.631-13.603-8.373c-0.686-0.602-1.657-1.172-2.4-1.715l-4.344-3.658c-3.344-3.145-3.601-1-3.801-8.23
	c-0.086-2.631-0.029-5.346-0.057-7.975c0-2.801-0.458-4.715-0.429-7.744c0.057-10.66-0.057-21.463-0.257-31.951
	c-0.229-10.773,0.029-21.633,0.029-32.408c0.028-31.979,0.943-64.501,0.457-96.309c-0.086-5.487,0.229-10.545,0.229-15.975
	c0-1.429-0.257-2.115-0.257-3.629l0.143-28.293c0.086-7.259-0.286-7.916,4.229-11.831c1.257-1.086,4.315-3.601,5.83-4.087
	c1.458-0.486,2.772-0.857,4.401-1.886c1.543-1,4.115-1.372,5.887-2.144c0.629-0.257,0.715-0.257,1.486-0.457
	c1-0.286,0.743-0.343,1.486-0.629c0.486-0.2,0.857-0.171,1.658-0.372c1.486-0.371,0-0.286,1.314-0.714l6.63-1.4
	c1.143-0.286,1.258-0.743,2.944-0.857c3.829-0.257,2-0.429,3.315-0.8c0.857-0.286,2.658-0.057,3.715-0.257
	c1.286-0.257,0.4-0.515,3.172-0.886c1.171-0.143,2.658-0.143,3.801-0.343c1.2-0.2,1.743-0.629,3.429-0.686
	c4.487-0.143,10.974-1.943,17.918-2.143c3.058-0.114,2.029-0.429,3.629-0.572c2.686-0.229,5.201-0.343,8.001-0.372
	c1.743,0,4.43-0.714,7.23-0.657l15.26-0.657c2.601-0.257,5.544,0.4,7.973-0.2c2.972-0.743,26.578,0.343,31.464,0.429
	c5.172,0.086,10.459,0.143,15.289,0.714c2.486,0.286,5.344,0.086,7.858,0.314c2.4,0.2,5.03,0.6,7.316,0.829
	c1.257,0.114,2.543,0.028,3.801,0.143c1.286,0.114,2.229,0.314,3.715,0.343c1.801,0.058,2,0.515,3.2,0.715
	c1.086,0.2,2.772,0.085,4.03,0.229c2.372,0.286,4.572,0.571,7.229,0.829c1.857,0.171,5.659,1.286,7.316,0.772
	c-1.344-0.857-2.943-0.915-4.602-1.086c-1.314-0.115-1.314-0.372-2.4-0.458l-5.601-0.514c-1.544-0.058-1.515-0.343-2.544-0.572
	l-22.119-1.943c-2.114-0.114-3.629-0.458-5.544-0.458c-3.829-0.028-7.83-0.171-11.631-0.371c-3.716-0.172-7.631-0.686-11.374-0.657
	c-7.916,0.057-16.032,0.028-23.948-0.058c-3.915-0.057-7.945,0.143-11.86,0.143c-2.886-0.029-5.658-0.143-8.373,0.543
	c-2.515,0.657-5.801,0.229-8.374,0.372c-1.943,0.114-3.629,0.543-5.487,0.657c-1.972,0.086-3.858,0.114-5.83,0.257
	c-2.058,0.143-3.458,0.657-5.315,0.743c-1.629,0.057-3.858,0.2-5.516,0.372c-1.658,0.171-3.029,0.714-5.144,0.914
	c-2.286,0.2-3.458-0.057-5.458,0.572L44.503,6.355c-2.058,0.886-3.229,0.286-5.144,0.915c-2.115,0.657-2.915,0.628-5.258,0.943
	c-1.772,0.229-0.457,0.857-5.087,1c-0.229,0.286-0.343,0.543-0.571,0.829c-1.4,0.057-3.687,0.372-4.772,0.743l-2.744,1.314
	c-0.571,0.2-0.543,0.143-1.057,0.4c-0.515,0.229-0.029,0.143-0.829,0.371c-1.915,0.515-1.6,0.515-3.058,1.258l-6.43,2.8
	c-0.057,0.029-0.114,0.057-0.171,0.086l-6.087,4.544c-0.029,0.029-0.086,0.086-0.114,0.114c-2.315,2.572-1.143,3.258-2.772,3.83
	c-0.2,8.631,0.514,28.55-0.143,35.037c-0.257,2.486,0.372,5.344,0.057,8.259c-0.286,2.543,0,22.834,0.029,26.149
	c0.372,23.377-0.257,46.954-0.143,70.389l-0.143,35.094c-0.2,11.633,0.115,23.664,0.229,35.324l0.257,21.805
	c0,1.457,0.429,1.887,0.458,3.857c0.028,1.857,1,2.086,2.029,3.258c0.686,0.771,1.143,0.688,2.086,1.516
	c0.314,0.314,0.829,0.828,1.086,1.057l8.888,6.602c0.4,0.229,0.114,0.086,0.571,0.4c0.857,0.543,1.943,1.029,2.687,1.715
	l4.972,2.688C24.928,279.165,25.071,279.88,26.957,279.907L26.957,279.907z"/>
<path fill-rule="evenodd" clip-rule="evenodd" fill="#79797A" d="M93.857,55.967c0.257-1.201-0.229-0.543,0.829-1
	c0.286-0.114,8.03-1.086,10.059,1.486c-1,0.085-1.4,0.257-2.658,0.257c-1.657,0-2.229-0.286-5.315-0.257
	C95.572,56.481,94.714,56.682,93.857,55.967L93.857,55.967z M23.527,44.05c-0.057-0.028-0.085-0.085-0.114-0.114
	c-0.057-0.029-0.086-0.086-0.143-0.114c-0.657-0.486-1.657-0.257-2.429-0.657c0.2-1.486,0.857-1.343,2.058-1.257
	c0.543,0.771,0.257,0.743,1.514,0.886c1.687,0.2,2.658,0.972,6.087,1.772c1.4,0.314,1.086,0.429,1.829,0.771
	c0.686,0.343,1.372,0.343,2.201,0.457c3.029,0.372,0.486,0.943,3.915,1c2.343,0.028,2.144,0.943,4.344,1
	c2.687,0.058,2.515,0.429,4.458,0.857c1.6,0.4,3.201,0.143,4.601,0.715c1.372,0.571,2.887,0.371,4.487,0.628
	c1.572,0.229,2.286,0.743,4.201,0.886c0.972,0.057,1.572-0.029,2.572,0.229l4.172,0.771c0.886,0.086,1.715-0.057,2.658,0.086
	c1.257,0.2,2.572,0.6,4.258,0.8c3.315,0.372,6.401,0.543,9.545,0.943c2.972,0.372,6.487,0.543,9.402,1.057
	c-0.343,0.6,0.572,1.058-2.429,0.972c-4.086-0.085-5.83,0.115-10.031-0.8c-1.6-0.372-5.515-0.314-7.373-0.629
	c-1.829-0.314-0.628-0.572-4.572-0.857c-1.886-0.143-2.687-0.543-4.401-0.8c-1.572-0.257-3.744-0.114-5.201-0.372
	c-1.029-0.171-2.486-0.714-4.058-0.915c-0.743-0.114-1.543-0.143-2.286-0.371l-11.146-2.172c-2.4-0.915-1.429,0.429-4.344-0.943
	c-1.2-0.543-3.172-0.515-4.487-0.915c-2.515-0.771-1.686-0.143-3.915-1.314l-4.029-1.115C24.013,44.421,24.156,44.536,23.527,44.05
	L23.527,44.05z M14.268,40.678c0.458,0.657-0.057,0.028,0.458,0.486c0.085,0.057,0.286,0.2,0.343,0.257
	c0.257,0.172,0.343,0.172,0.657,0.429c2,0.2,0.686,0.4,2.687,1c1.572,0.457,0.714,0.572,1.714,0.915
	c0.4,0.143,0.686,0.114,1.143,0.314l5.859,1.857c0.057,0.029,0.114,0.057,0.2,0.086l0.314,0.171c0.8,0.4,0.714,0.514,1.886,0.628
	c3.572,0.343,0.2,0.343,4.572,1.058c0.4,0.086,0.515,0.086,0.972,0.286c0.029,0.029,0.429,0.286,0.458,0.286
	c1.829,1.086,1.543-0.458,5.287,1.029c1.829,0.714,2.229-0.143,4.629,0.914c1.429,0.629,3.258,0.229,5.03,0.629l4.43,0.886
	c1.458,0.257,1.257,0.829,4.601,0.914c1.743,0.057,3.515,0.172,4.944,0.658l9.545,1.4c1.943,0.114,3,0.485,4.715,0.714
	c1.8,0.229,3.372,0.229,5.229,0.343c1.943,0.143,2.572,0.714,4.83,0.743C92,56.71,96.115,56.767,99.172,57.11
	c2,0.229,2.315,0.686,4.858,0.714c1.857,0,3.715,0,5.544,0.057c3.629,0.057,7.288,0.114,10.888,0.086
	c3.543-0.029,7.316,0.4,10.66,0.429c3.086,0,13.489,0.428,16.175,0.171c1.657-0.143,2.972-0.543,4.857-0.572
	c3.687-0.057,7.487,0.057,11.146-0.114c1.629-0.057,3.601-0.086,5.315-0.2c0.771-0.057,1.458-0.143,2.43-0.171
	c2.972-0.057,2.2-0.429,2.485-0.8c-5.486,0-10.802,0.6-16.289,0.886l-42.323-0.086l-7.259-1.143
	c-0.086-0.057-0.171-0.086-0.257-0.143c1.257-1.029,11.203-0.286,14.032-0.371l14.289,0.143c4.772,0.286,15.231-0.114,21.033-0.114
	c2.4,0,4.744-0.372,6.772-0.372c4.401,0.029,8.888-0.429,13.317-0.714c4.63-0.286,8.83-0.6,13.46-1c1-0.085,2.172-0.143,3.201-0.229
	c1.086-0.114,1.286-0.6,2.943-0.714c2.114-0.143,10.859-1.115,12.316-1.572l1.344-0.372c0.515-0.086,1.229-0.086,1.8-0.114
	l2.715-0.114c1.029,0.4,0.2-0.229,0.943,0.686c-2.144,0.972-5.973,1.4-8.259,1.829c-1.743,0.314-3.086,0.257-4.772,0.458
	c-1.343,0.171-2.629,0.686-4.229,0.857c-1.915,0.171-3.001,0.2-4.63,0.457c-4.315,0.743-7.887,0.515-12.717,1.257l-1.429,0.572
	c3.772,0.086,9.431-0.915,15.003-1.115c1.486-0.057,2.43-0.743,6.744-0.943l8.659-1.257c4.087-0.857,2.515-0.257,5.315-0.629
	c2.515-0.343,1.286,0.372,3.772-0.714c1.086-0.458,1.657,0.028,2.943-0.458c1.743-0.657,0-0.457,3.115-0.8
	c2-0.229,1.8-0.543,3.172-0.886c1.229-0.286,2.172,0.029,3.286-0.571c1.144-0.629,0.086-0.257,3.001-0.8
	c0.314-0.829-0.571-0.515,2.458-0.972l6.858-2.172c1.886-0.486,7.145-2.601,8.173-4.03l-4,1.857
	c-2.944,1.258-9.631,3.772-12.632,4.23c-2.029,0.314-1.515,0.743-3.144,0.943c-2.915,0.372-3.772,1.172-6.315,1.2
	c-3.315,0.057,0.028,0.972-4.572,0.972c-2.973,0-3.287,1.172-5.087,0c0.257-0.6,0-1.029,2.457-0.972
	c1.486,0.057,1.458,0.372,1.915-0.714c7.401,0,3.715-1,7.23-1.2c1.771-0.114,11.573-3.001,12.917-3.601
	c1.743-0.771,4.973-1.057,6.087-2.601c-1.286,0.229-7.23,2.515-9.345,2.972c-2.058,0.429,0.314,0.257-3.287,0.886
	c-1.229,0.2-1.171,0.6-2.886,0.971l-6.916,1.315c-1.257,0.457-0.343,0.657-3.314,0.771c-2.973,0.114-1.973,0.257-3.115,0.714
	l-7.059,1.172c-1.4,0.057-2.601,0.057-3.744,0.4c-4.4,1.315-9.859,1.372-14.603,1.858c-1.286,0.114-1.829,0.543-3.173,0.657
	c-3.458,0.314-8.087,0.4-11.488,0.857c-5.115,0.657-10.602,0.143-15.632,0.628c-1.172,0.115-1.943,0.4-3.372,0.515
	c-6.315,0.486-21.976,0.171-28.549,0.2l-35.179-1.258c-2.229-0.457-0.8-0.4-3.801-0.4c-4.601-0.029-7.173-0.943-11.374-0.972
	L69.423,51.28c-3.401-0.286-1.629-0.4-3.373-0.543l-7.344-0.857c-0.686-0.171-2.458-0.429-3.429-0.6l-12.231-1.972
	c-1.486-0.143-0.628,0.057-1.629-0.4c-1.257-0.572-2-0.343-3.315-0.657c-0.372-0.114-0.743-0.4-1.343-0.543
	c-0.686-0.171-1.4-0.171-1.829-0.314l-6.315-1.943c-0.457-0.114-1.086-0.229-1.486-0.4c-1.029-0.486-0.115-0.286-1.687-0.572
	c-1.657-0.286-0.886-0.829-3.201-1c-2.229-0.172,0.343-0.2-3-1.058c-0.943-0.257-1.857-0.915-2.972-1.143l0.458,0.686
	c0.372,0.429,0.657,0.657,1.229,0.743c2.086,0.257,1.801-0.628,2.115,1.715c-1.372,0-1.029,0.143-1.857-0.314
	c-0.429-0.229-0.343-0.457-0.943-0.6c-0.572-0.114-0.829,0-1.515-0.2C14.754,41.049,15.44,41.078,14.268,40.678L14.268,40.678z"/>
<path fill-rule="evenodd" clip-rule="evenodd" fill="#79797A" d="M104.259,79.944c-3.086,0-5.744-0.2-8.945-0.257
	c-3.086-0.057-5.087-0.8-8.459-0.886c-4.344-0.114-6.63-0.972-8.23-1.029c-6.258-0.2-5.086-0.686-7.859-0.972
	c-2-0.229-2.2,0.2-4.201-0.514c-1.257-0.486-2.543-0.372-4.086-0.486c-2.115-0.143-2.086-0.886-3.487-1
	c-1.515-0.114-3.058-0.057-4.572-0.286c-1.458-0.229-0.771-0.686-3.543-0.886c-3.229-0.229-0.629-0.743-3.715-0.915
	c-3.029-0.143-2.429-0.628-3.658-0.857c-2.086-0.372-2.515,0.171-3.115-1.858c0.343,0,1.172-0.028,1.515,0.029
	c1.915,0.229,0.343,0.372,1.601,0.857c0.657,0.257,2-0.057,3.229,0.514c3.058,1.343,2.058,0.171,5.458,1.343
	c1.143,0.429,2.829,0.286,4.172,0.486c1.486,0.229,2.4,0.686,3.944,0.8c3.543,0.314,1.429,0.143,3.744,0.771
	c1.171,0.314,2.829,0.143,4.201,0.343c1.772,0.229,1.829,0.715,3.83,0.772c4.115,0.085,7.401,0.943,8.459,1
	c1.429,0.029,2.972,0.057,4.372,0.171c1.4,0.114,2.658,0.486,3.973,0.629c3.315,0.372,10.259,0.028,12.231,0.686
	c2.658,0.886,3.029-0.086,5.058,0.6C105.774,80.059,106.46,79.944,104.259,79.944L104.259,79.944z M14.439,62.254l7.288,3.458
	c0.457,0.171,0.829,0.229,1.286,0.4c2.257,0.886,4.287,1.943,6.63,2.629c0.857,0.257,2.086,0.629,3,0.743
	c3.372,0.372,1.229,0.628,5.687,1.515c1.029,0.2,1.429,0.714,2.601,0.972l11.774,2.715c1.258,0.429,1.943,0.171,3.229,0.429
	c1.314,0.229,1,0.743,2.858,0.886c1.257,0.086,2.229-0.028,3.372,0.286c1.143,0.343,1.4,0.628,2.886,0.686
	c4.144,0.171,4.172,0.6,6.373,0.915c2.029,0.314,4.915,0.372,6.973,0.458l6.401,0.886c2.715,0.314,1.943-0.286,4.658,0.543
	c1.886,0.572,4.63-0.114,8.23,0.886c1.458,0.4,12.06,0.429,14.317,0.429c5.058,0,9.316,0.486,14.032,0.543
	c4.83,0.057,9.688,0.086,14.517,0.086l21.291-0.572c2.457-0.057,5.087,0.057,7.487-0.085c4.4-0.257,8.401-0.972,13.088-1.143
	c2.486-0.114,4.287-0.572,6.573-0.743c2.344-0.2,4.744,0,6.802-0.629c2.2-0.657,4.544-0.286,6.487-0.743
	c1-0.229,1.8-0.515,2.914-0.658c2.915-0.343,8.345-1.057,10.945-1.743c0.543-0.143,1.172-0.2,1.715-0.286
	c1.515-0.171,2.315,0.171,2.801-1.143c-1.571-0.171-2.029,0.4-3.029,0.571c-3.943,0.686-13.831,2.458-16.804,2.486
	c-1.715,0.029-1.829-0.257-2.943,0.286c-0.028,0.028-0.086,0.057-0.143,0.085c-1.258,0.6-2.344,0.2-3.801,0.429
	c-0.915,0.171-1.857,0.629-2.801,0.771l-7.287,0.458c-1.458,0.2-1.801,0.514-3.344,0.571c-2.458,0.115-5.03,0.257-7.287,0.286
	c-2.372,0-5.315,0.114-7.259,0.429c-4.772,0.714-38.923,0.714-44.839,0.343c-2.4-0.171-5.001,0.028-7.43-0.057
	c-1.286-0.029-2.572-0.086-3.858-0.171c-1.772-0.086-2.372,0.143-2.744-1.315c1.4-0.6,21.233,0.057,24.749,0.057
	c8.345,0,16.604-0.057,24.92-0.171c8.116-0.085,15.774-0.771,23.977-1.114c2.2-0.086,3.486-0.543,5.544-0.629
	c3.715-0.114,13.031-1.229,16.461-2.201c0.571-0.143,0.972,0.343,1.943-0.486c-1.772,0.029-4.401,0.057-5.916,0.429l-4.829,0.857
	c-2.058,0.257-3.229,0.486-5.459,0.657c-1.657,0.114-3.771,0.143-5.458,0.343l-16.804,1.086c-1.771,0.143-3.201,0.4-5.344,0.429
	c-15.489,0.314-31.236,0.4-46.696,0.028c-1.943-0.057-3.601-0.457-5.544-0.486c-1.915,0-3.572-0.114-5.573-0.171
	c-4.43-0.114-7.887-0.686-11.117-0.8c-2.029-0.085-3.944-0.143-5.801-0.314c-1.029-0.085-1.629-0.171-2.687-0.2
	c-1.457-0.029-1.372-0.2-2.458-0.372c-4.029-0.629-2.115,0.314-7.688-1c-0.829-0.2-1.6-0.2-2.686-0.257l-10.345-1.486
	c-3.429-1.115-5.344-0.372-7.487-1.429l-9.459-2.344c-1-0.143-1.486-0.514-2.257-0.686c-0.886-0.172-1.857-0.057-2.744-0.257
	c-0.771-0.2-5.315-2.115-6.458-1.915c-0.743-0.286-1.4-0.657-2.086-0.714c0.771,1.229,1.743,0.771,3.115,1.715
	c0.629,0.429,0.572,0.143,0.915,1.029c-0.915,0-1.715,0.086-2.572-0.257c-3.286-1.314-1.771-0.514-3.658-1.114l-4.858-2.144
	c-1.743-0.972-1.629,0.085-2.915-2.229c2.829,0,4.144,1.915,6.773,2.086c-0.058-0.057-0.143-0.085-0.2-0.114l-11.46-5.373
	c2.887,3.115,4.287,1.029,4.401,3.629c-1.343,0.457-1.972-0.057-3.43-1.115c-0.057-0.028-0.085-0.057-0.143-0.085l-5.116-2.429
	C11.639,60.997,13.497,61.025,14.439,62.254L14.439,62.254z"/>
<path fill-rule="evenodd" clip-rule="evenodd" fill="#79797A" d="M257.722,58.596c2.429,0.114,1.143-0.143,1.143-0.2
	c0,1.572-0.114,1.6-0.257,2.658l-0.086,9.431c-0.057,4.258-0.028,8.602,0,12.832l-1.114,88.079
	c-0.058,4.258-0.028,8.545-0.058,12.832c-0.057,8.287,0,17.033-0.343,25.148c-0.714,16.49,0.4,34.352-0.6,50.727
	c0.514-0.4,0.2,0.258,0.743-0.742c0.6-1.086,0.257-32.18,0.257-33.523c0.028-2.572,0.257-5.543,0.257-8.459
	c-0.028-2.801-0.085-5.857,0-8.631c0.2-5.43,0.172-11.631,0.114-17.09c-0.057-5.715,0.172-11.488,0.229-17.117
	c0.057-2.486,0.399-2.631,0.428-3.859l0.372-38.98c0-1.458-0.028-2.887,0-4.345c0.028-2.544-0.2-2.4,0.829-3.572
	c0.485,0.343,0.771-0.515,0.771,2.344c0,1.972-0.4,6.287,0.485,6.974c0.943,0.656,1.601-0.115,2.344-0.372
	c1.686-0.629,6.458-1.657,7.287-2.944c-2.058,0.687-7.83,3.23-9.373,2.572c-0.857-1.057-0.344-17.947-0.344-20.719l0.144-26.378
	c0.028-2.058,0.371-2.887,0.343-4.83c-0.028-5.173,0.371-25.806,0.114-29.293c-0.2-2.601-0.058-2,0.543-2.286
	c0.571-0.286,2.058-0.829,2.943-0.972c0.657-0.086,1.144-0.114,1.771-0.343c0.943-0.314,0.458-0.314,1.4-0.543
	c1.2-0.343,2.372-0.086,3.516-0.601c2.657-1.171,2.687-0.143,5.572-0.943c0.058-0.028,0.143-0.057,0.2-0.057
	c3.115-0.8,9.773-0.686,12.975-0.6c0.686,0.028,1.457,0,2.086,0.171c0.743,0.229,0.229,0.286,1.314,0.543
	c1.114,0.229,2.486,0.143,3.772,0.4c1.229,0.2,0.714,0.286,1.515,0.628c0.771,0.314,2.601,0.515,4.486,1.572
	c0.343,0.2,0.286,0.286,0.715,0.515c0.314,0.143,0.429,0.143,0.686,0.257l2.058,1.372c1.286,1.486,0.286,0.286,1.543,1.086
	c2.458,1.572,2.744,3.486,4.572,3.772c-1.6-2.258-1.257-1.458-2.257-2.687c-1.258-1.543-3.544-2.858-4.201-3.287
	c-0.058-0.028-0.086-0.085-0.143-0.114c-0.029-0.028-0.086-0.057-0.115-0.085c-0.143-0.086-0.428-0.229-0.628-0.314l-2.887-1.515
	c-0.857-0.572-0.543-0.429-1.657-0.629c-1.086-0.2-0.972-0.257-1.743-0.6c-1.058-0.486-2.344-0.543-3.458-0.915
	c-3.801-1.229-12.289-0.972-16.404-0.571c-4,0.371-4.114,0.628-7.887,1.171c-0.372,0.057-0.657,0.057-1,0.171l-2.544,0.715
	c-3.058,0.429-1.857,0.714-3.344,1c-1.371,0.257-2.886,0.029-3.629,0.943c-0.687,0.914-0.144,2.658-0.2,4.201
	c-0.086,2.944-0.114,6.001-0.028,8.945c0.085,3.086-0.258,5.715-0.229,8.716c0.028,11.088-0.601,24.149-0.258,35.095l-0.114,15.432
	c-0.028,0.658-0.143,1.4-0.515,1.887c-0.686-0.572-0.828-0.572-0.914-1.572l0.457-46.726c0-2.658,0.144-5.63,0.058-8.23
	c-0.086-2.543,0.171-5.602-0.086-8.002C258.351,57.653,258.036,57.882,257.722,58.596L257.722,58.596z"/>
<path fill-rule="evenodd" clip-rule="evenodd" fill="#BCBCBD" d="M35.216,281.251c1.229,0.029,4.201,1.6,6.287,2.143
	c1.6,0.43,0.915,0.516,2.058,1.002l13.117,4.201c1.372,0.6,3.086,0.57,4.658,1.143c1.6,0.6,3.143,0.771,4.629,1.172
	c1.543,0.428,3.287,0.543,4.772,1.027l19.719,3.459c3.458,0.229,6.858,0.914,10.402,1.057l10.86,1.002
	c-1.257-2.287-7.087-0.287-12.66-1.801c-1.143-0.287-6.887-0.229-9.03-0.887c-3.258-1.057-5.23,0.029-5.944-1.143
	c-0.028-0.029-0.114-0.572-0.143-0.629c-2.572,0.229-4.401,0.656-6.83-0.344c-0.6-0.256-1.171-0.285-2-0.4
	c-5.173-0.6-1.801-0.484-4.058-0.941c-1-0.201-2.486-0.086-3.229-0.43l-0.6-0.4c-0.771-0.4-1.6-0.057-2.515-0.4
	c-1.086-0.428-0.086-0.514-1.572-0.713c-0.686-0.059-1.229,0.027-1.915-0.373c-2.372-1.314-2.543-0.398-4.372-0.885
	c-1.286-0.371-0.486-0.658-1.515-0.887c-0.572-0.113-1.086,0.057-1.829-0.199c-0.057-0.029-0.114-0.059-0.171-0.086
	c-0.057-0.029-0.114-0.057-0.171-0.086c-2.429-1.258-1.601-0.344-3.001-0.887c-0.2-0.057-0.543-0.342-0.714-0.428
	c-1.229-0.658-0.372,0.428-3.658-1.172c-0.686-0.344-1.086-0.258-1.858-0.572l-5.086-2.371c-0.629-0.172-1.029-0.057-1.772-0.457
	c-1.829-1,0.114-0.229-2-0.83c-1.8-0.514,0-0.428-1.572-0.857c-1.286-0.342-0.486,0.23-1.857-0.627
	c-0.314-0.201-0.486-0.23-0.8-0.373c-0.771-0.314-0.4-0.086-0.857-0.457c-1.343-1.113-0.343-0.285-1.657-0.914
	c-0.629-0.314-0.829-0.514-1.429-1c-0.8-0.629-0.514-0.516-1.629-0.715l-1.543-0.486c-0.057-0.027-0.114-0.086-0.143-0.113
	c-1-0.715-0.972-0.344-2-0.973l-3.086-1.742c-0.457-0.287-0.8-0.572-1.429-0.973c-0.915-0.6-2.201-1.428-2.915-2.143
	c-1.486-1.457-2.458-1.744-3.086-2.23l-5.144-4.371c-1.429-0.801-1.171-1.658-1.572-3.373c-0.657-2.943-0.686-39.123-0.628-44.068
	c0.2-13.031,0.286-26.721,0.028-39.695c-0.229-13.117,0.114-26.52,0.086-39.695c-0.029-13.203,0.114-26.436,0-39.667
	c-0.057-6.573,0.2-13.26,0.143-19.833C3.952,73.057,3.666,57.396,4.095,56.11c1.458,0.2,1.515,1.086,2.915,2
	c0.058,0.029,0.115,0.057,0.172,0.086c0.028,0.028,0.085,0.057,0.143,0.085l3.058,2.029c1.029,0.686,2.686,1.715,4.058,1.943
	c-0.943-1.229-2.8-1.257-3.801-2.658c-0.714-0.972-2.086-1.286-3.429-2.401c-0.972-0.771-1.772-2.372-3.344-2.429
	c-0.943,1.429-0.485,57.986-0.543,64.616c-0.143,10.717,0.086,21.635-0.257,32.179c-0.171,5.174-0.086,11.004,0,16.205
	c0.085,5.457-0.229,10.631-0.229,15.975c-0.057,10.832-0.171,21.834-0.028,32.666c0.057,2.715,0.086,5.486,0.057,8.23l0.343,15.803
	c0.343,2.258-0.057,5.346,0.172,7.859c0.571,6.631-1.086,12.232,2.486,14.947l3.658,3.344c1.229,0.857,1.372,0.771,2.515,1.857
	l0.343,0.371c1.657,1.371-1.372-0.629,0.571,0.344c0.314,0.17,0.257,0.086,0.686,0.314c1.171,0.629,2.086,2.113,5.544,3.658
	c1.743,0.771,0.572,0.457,2.629,1.457c0.829,0.371,1.343,1,2.429,1.457L35.216,281.251z"/>
<path fill-rule="evenodd" clip-rule="evenodd" fill="#79797A" d="M49.104,287.538c2.286,0,4.029-0.086,6.116,1.086
	c3.058,1.744,4.172,0.801,9.402,2.486c1.172,0.371,2.543,0.516,3.572,0.943c1.286,0.486,2.687,0.314,4.144,0.715
	c0.686,0.172,0.543,0.199,0.743,0.285c1.372,0.572,4.487,0.516,7.116,1.258c1.429,0.4,2.772,0.344,4.201,0.486
	c1.629,0.199,2.229,0.715,3.887,0.857c3.201,0.256,5.744,0.771,8.716,0.943c1.458,0.084,2.687,0.199,4.115,0.285
	c1.629,0.086,2.772,0.572,4.115,0.6c1.372,0.029,3.287,0,4.544,0.172c1.286,0.172,2.143,0.742,3.144,1.314l0.4,0.229
	c-2.629,0.371-6.516,0.486-8.745-0.285c-2.029-0.686-6.03-0.43-8.63-0.771c-1.229-0.172-2.601-0.629-3.83-0.686
	c-3.858-0.201-8.831-0.973-12.631-1.801c-1.343-0.314-2.857-0.201-4.115-0.516l-12.888-3.057c-0.057-0.029-0.115-0.086-0.143-0.115
	c-1.372-0.857-1.772-0.342-3.086-0.686c-1-0.258-0.543-0.572-2.715-0.828c-2.229-0.258-1.915-0.801-3.801-1.086
	c-1.229-0.201-1.172-0.059-1.972-0.629L49.104,287.538z M39.874,285.366c0.4,0.486,0.085,0.115,0.486,0.457
	c0.057,0.086,0.314,0.287,0.428,0.371c0.658,0.43,0.115,0.115,0.829,0.373c2.086,0.713,1.543,0.943,3.858,1.199
	c1.629,0.201,0.743,0.172,1.8,0.6l7.773,2.43c0.971,0.229,1.057,0.457,1.972,0.658c0.629,0.172,1.429,0.143,2.172,0.314
	c1.486,0.371-0.2,0.371,3.944,1.057c1.886,0.314,0.171,0.486,4.144,0.973c2.429,0.314,7.288,1.799,8.431,1.885
	c1.857,0.143,2.686,0.201,4.287,0.686c1.314,0.43,3.429,0.23,4.601,0.543c4.315,1.23,4.258,0.486,8.802,1.4
	c2.829,0.572,3.772-0.057,8.973,1.086l13.975,1.145c6.087-0.057,13.917,0.656,20.033,0.172c2.829-0.229,6.916-0.459,9.745-0.459
	c2.058,0.029,2.601-0.371,4.601-0.398c1.687-0.029,3.372-0.115,5.087-0.115l17.861-2.258l8.259-1.943
	c-1.771-0.057-2.687,0.314-4.173,0.686c-1.285,0.287-2.571,0.201-3.943,0.4c-1.372,0.201-2.543,0.629-3.973,0.715
	c-1.399,0.086-2.543,0.229-3.886,0.371c-1.629,0.172-2.43,0.486-4.001,0.572c-1.344,0.086-2.658,0.172-3.973,0.285
	c-2.829,0.201-5.115,0.658-8.23,0.771c-2.915,0.143-5.801,0.086-8.716,0.229c-8.431,0.43-16.404,1.314-25.234-0.371
	c0.4-0.258,0.114-0.086,0.572-0.258c3.972-1.57,2.029-0.6,7.487-0.629c2.943-0.027,6.001,0.086,8.945,0
	c3.972-0.113,17.918-0.428,21.548-0.941c3.572-0.486,26.205-2.373,27.577-4.031c-0.743,0.059-1.687,0.086-2.429,0.172
	c-1.058,0.143-0.943,0.314-1.829,0.516l-17.204,2.057c-1.258,0.201-3.201,0.201-4.486,0.314c-1.601,0.172-3.059,0.285-4.544,0.344
	c-1.629,0.057-1.2,0.256-1.857,0.428c-1.172,0.314-18.547,0.43-20.891,0.43c-3.086-0.029-6.373-0.143-9.431-0.115
	c-2.115,0.029-1.943,0.887-4.115,0.973c-2.858,0.113-2.086-0.83-3.429-1l-10.86-1.002c-3.543-0.143-6.944-0.828-10.402-1.057
	l-19.719-3.459c-1.486-0.484-3.229-0.6-4.772-1.027c-1.486-0.4-3.029-0.572-4.629-1.172c-1.572-0.572-3.287-0.543-4.658-1.143
	l-13.117-4.201c-1.143-0.486-0.458-0.572-2.058-1.002c-2.086-0.543-5.059-2.113-6.287-2.143c1.4,1.287,4.515,1.943,6.744,2.771
	c1.314,0.486,1.658,1.002,3.401,1.43l2.286,0.971c0.057,0.029,0.114,0.059,0.171,0.115c0.886,0.572,0.086-0.258,0.8,0.742
	C43.561,287.28,42.274,285.452,39.874,285.366L39.874,285.366z"/>
<path fill-rule="evenodd" clip-rule="evenodd" fill="#2E2D2E" d="M173.531,56.71l6.002,0.086l1.429-0.572
	c4.83-0.743,8.401-0.514,12.717-1.257c1.629-0.257,2.715-0.286,4.63-0.457c1.601-0.171,2.887-0.686,4.229-0.857
	c1.687-0.2,3.029-0.143,4.772-0.458c2.286-0.429,6.115-0.857,8.259-1.829c-0.743-0.914,0.086-0.286-0.943-0.686l-2.715,0.114
	c-0.571,0.028-1.285,0.028-1.8,0.114l-1.344,0.372c-1.457,0.457-10.202,1.429-12.316,1.572c-1.657,0.114-1.857,0.6-2.943,0.714
	c-1.029,0.086-2.201,0.143-3.201,0.229c-4.63,0.4-8.83,0.715-13.46,1c-4.43,0.286-8.916,0.743-13.317,0.714
	c-2.028,0-4.372,0.372-6.772,0.372c-5.802,0-16.261,0.4-21.033,0.114l-14.289-0.143c-2.829,0.085-12.774-0.658-14.032,0.371
	c0.086,0.057,0.171,0.086,0.257,0.143l7.259,1.143l42.323,0.086C162.729,57.31,168.045,56.71,173.531,56.71L173.531,56.71z"/>
<path fill-rule="evenodd" clip-rule="evenodd" fill="#2E2D2E" d="M271.553,59.911l-4.572,1.543c-0.6,0.314-0.886,0.4-1.543,0.629
	c-0.743,0.286-2.486,0.743-2.687,1.686c-0.2,0.943,0,1.257,0.743,1.343l1.029-0.143c0.057-0.028,0.114-0.057,0.171-0.085
	c0.058-0.029,0.114-0.057,0.172-0.086l6.373-2.744c4.344-1.857,14.517-3.258,19.061-2.458c3.772,0.628,6.087,1.515,8.945,4.144
	c0.972,0.886,3.286,3.601,3.372,5.316c0.686,0.457,0.371,0.429,0.857,1.4c0.485,0.915,0.429,0.257,0.657,1.857
	c0.2,1.601,0.6,2.315,0.771,4.001c0.143,1.515,0.286,12.575-0.086,14.175c-0.285,1.286-0.371-0.343-0.686,1.515
	c-0.114,0.772-0.028,1.658-0.143,2.458c-0.344,2.029-0.572-1.286-1.058,3.857c-0.114,1.287-0.343,0.601-0.743,1.486
	c-0.343,0.715-0.257,1.658-0.257,2.629c1.086-0.6,0.257,0.086,0.972-0.8c0.856-1.058,0.771-2.314,1-3.2
	c0.171-0.771,0.429-0.686,0.714-1.943c0.114-0.543,0.144-1.772,0.372-2.258c0.485-1.029,0.6,0.2,0.743-1.943
	c0.229-3.001,0.942-5.516,0.972-7.288c0.199-7.374-0.286-6.688-0.915-12.403c-0.171-1.686-0.143-1.114-0.686-2.086
	c-1.029-1.772-0.629-3.687-2.601-5.687c-0.657-0.686-0.801-2.086-3.858-4.059c-5.658-3.629-11.374-3.601-18.232-2.943
	C278.641,57.996,272.61,59.854,271.553,59.911L271.553,59.911z"/>
<path fill-rule="evenodd" clip-rule="evenodd" fill="#BCBCBD" d="M270.524,129.785c1.686-0.399,6.001-2.514,7.516-3.344l3.544-2.028
	c1.314-0.829,2.086-1.372,3.315-2.229c1.2-0.8,2.086-1.457,3.144-2.429l2.857-2.716c1.086-1.028,1.743-2.028,2.629-2.943
	c0.857-0.914,2.086-2.143,2.372-3.429c-1.572,0.628-0.886,0.829-1.829,1.829c-0.229,0.257-0.057,0-0.371,0.343l-1.258,1.4
	c-1.2,1.458-3.943,3.743-5.287,5.087l-1.943,1.486c-0.8,0.543-1.086,1-1.8,1.543c-2.544,1.943-2.4,1.086-3.372,1.972
	c-1.115,1.028-0.857,0.343-3.144,1.715c-0.058,0.028-0.114,0.058-0.144,0.086c-0.057,0.028-0.085,0.058-0.143,0.085
	c-1.915,1.544-0.714,0.286-2.114,1.086c-1.029,0.601,0.114,0.258-1.115,0.601c-1.057,0.314-0.628-0.114-1.429,0.458
	c-0.629,0.485,0.571,0.171-1.086,0.628c-2.915,0.8-0.343,0.343-2.343,1.001l-4.173,1.199c-0.943,0.372-0.485,1.115-2.801,0.744
	l0.314-66.017c2.486,0.143,3.344-0.229,5.315-1.372c3.201-1.829,3.4-1.286,4.973-2.029l5.572-1.486
	c1.086-0.114,2.372-0.028,3.344-0.171s1.515-0.714,2.715-0.8c1.258-0.114,5.802-0.2,6.716,0.114
	c1.429,0.429-0.571,0.257,2.486,0.829c1.258,0.229,0.486,0.114,1.172,0.571c0.857,0.543,0.457,0.143,1.4,0.486
	c0.714,0.257,1,0.629,1.743,1.2c2.144,1.715,3.058,2.287,4.286,4.916c0.086,0.2,0.229,0.486,0.372,0.629
	c0.571,0.514-0.172,0.286,0.657,0.257c-0.086-1.715-2.4-4.43-3.372-5.316c-2.858-2.629-5.173-3.515-8.945-4.144
	c-4.544-0.8-14.717,0.6-19.061,2.458l-6.373,2.744c-0.058,0.029-0.114,0.057-0.172,0.086c-0.057,0.028-0.114,0.057-0.171,0.085
	l-1.029,0.143c-0.743-0.086-0.943-0.4-0.743-1.343c0.2-0.943,1.943-1.4,2.687-1.686c0.657-0.229,0.943-0.314,1.543-0.629
	l4.572-1.543c1.658-1.343,5.974-1.601,7.174-2.429c-4.716-0.086-2.516,0.514-5.059,0.943c-2.001,0.343-1.229,0.429-2.086,0.8
	c-1.029,0.429-1.801,0.028-2.544,0.429c-0.6,0.314-0.143,0.314-0.828,0.6c-0.572,0.229-0.743,0.114-1.258,0.257
	c-1.343,0.4,0.086,0.457-1.801,0.972c-2.886,0.8-2.914,2.143-3.172,2.372l-0.028-15.004c-0.601,0.286-0.743-0.314-0.543,2.286
	c0.257,3.487-0.143,24.12-0.114,29.293c0.028,1.943-0.314,2.772-0.343,4.83l-0.144,26.378c0,2.771-0.514,19.662,0.344,20.719
	C262.694,133.015,268.467,130.471,270.524,129.785L270.524,129.785z"/>
<path fill-rule="evenodd" clip-rule="evenodd" fill="#2E2D2E" d="M20.841,43.164c0.771,0.4,1.771,0.171,2.429,0.657
	c0.057,0.028,0.086,0.085,0.143,0.114c0.029,0.029,0.057,0.086,0.114,0.114c0.629,0.486,0.486,0.372,1.343,0.486L28.9,45.65
	c2.229,1.171,1.4,0.543,3.915,1.314c1.315,0.4,3.287,0.372,4.487,0.915c2.915,1.372,1.943,0.028,4.344,0.943l11.146,2.172
	c0.743,0.229,1.543,0.257,2.286,0.371c1.572,0.2,3.029,0.743,4.058,0.915c1.458,0.257,3.629,0.115,5.201,0.372
	c1.714,0.257,2.515,0.657,4.401,0.8c3.944,0.286,2.744,0.543,4.572,0.857c1.858,0.314,5.773,0.257,7.373,0.629
	c4.201,0.915,5.944,0.714,10.031,0.8c3.001,0.086,2.086-0.372,2.429-0.972c-2.915-0.514-6.43-0.686-9.402-1.057
	c-3.144-0.4-6.23-0.572-9.545-0.943c-1.686-0.2-3.001-0.6-4.258-0.8c-0.943-0.143-1.772,0-2.658-0.086l-4.172-0.771
	c-1-0.257-1.6-0.171-2.572-0.229c-1.915-0.143-2.629-0.658-4.201-0.886c-1.6-0.257-3.115-0.057-4.487-0.628
	c-1.4-0.572-3-0.314-4.601-0.715c-1.943-0.429-1.772-0.8-4.458-0.857c-2.2-0.057-2-0.972-4.344-1c-3.429-0.057-0.886-0.629-3.915-1
	c-0.829-0.114-1.515-0.114-2.201-0.457c-0.743-0.343-0.428-0.458-1.829-0.771c-3.429-0.8-4.401-1.572-6.087-1.772
	c-1.257-0.143-0.971-0.114-1.514-0.886C21.698,41.821,21.041,41.678,20.841,43.164L20.841,43.164z"/>
<path fill-rule="evenodd" clip-rule="evenodd" fill="#2E2D2E" d="M50.762,288.739c0.8,0.57,0.743,0.428,1.972,0.629
	c1.886,0.285,1.572,0.828,3.801,1.086c2.172,0.256,1.715,0.57,2.715,0.828c1.314,0.344,1.715-0.172,3.086,0.686
	c0.028,0.029,0.086,0.086,0.143,0.115l12.888,3.057c1.258,0.314,2.772,0.201,4.115,0.516c3.801,0.828,8.773,1.6,12.631,1.801
	c1.229,0.057,2.601,0.514,3.83,0.686c2.601,0.342,6.602,0.086,8.63,0.771c2.229,0.771,6.116,0.656,8.745,0.285l-0.4-0.229
	c-1-0.572-1.857-1.143-3.144-1.314c-1.257-0.172-3.172-0.143-4.544-0.172c-1.343-0.027-2.486-0.514-4.115-0.6
	c-1.429-0.086-2.658-0.201-4.115-0.285c-2.972-0.172-5.515-0.688-8.716-0.943c-1.658-0.143-2.258-0.658-3.887-0.857
	c-1.429-0.143-2.772-0.086-4.201-0.486c-2.629-0.742-5.744-0.686-7.116-1.258c-0.2-0.086-0.057-0.113-0.743-0.285
	c-1.457-0.4-2.857-0.229-4.144-0.715c-1.029-0.428-2.4-0.572-3.572-0.943c-5.229-1.686-6.344-0.742-9.402-2.486
	c-2.086-1.172-3.83-1.086-6.116-1.086L50.762,288.739z"/>
<path fill-rule="evenodd" clip-rule="evenodd" fill="#79797A" d="M278.727,57.482c-1.2,0.829-5.516,1.086-7.174,2.429
	c1.058-0.057,7.088-1.915,8.859-2.086c6.858-0.657,12.574-0.686,18.232,2.943c3.058,1.972,3.201,3.373,3.858,4.059
	c1.972,2,1.571,3.915,2.601,5.687c0.543,0.972,0.515,0.4,0.686,2.086c0.629,5.716,1.114,5.03,0.915,12.403
	c-0.029,1.772-0.743,4.287-0.972,7.288c-0.144,2.143-0.258,0.914-0.743,1.943c-0.229,0.485-0.258,1.714-0.372,2.258
	c-0.285,1.258-0.543,1.172-0.714,1.943c-0.229,0.886-0.144,2.143-1,3.2c-0.715,0.886,0.114,0.2-0.972,0.8
	c0-0.971-0.086-1.914,0.257-2.629c0.4-0.886,0.629-0.199,0.743-1.486c0.485-5.144,0.714-1.828,1.058-3.857
	c0.114-0.8,0.028-1.686,0.143-2.458c0.314-1.857,0.4-0.229,0.686-1.515c0.372-1.6,0.229-12.66,0.086-14.175
	c-0.172-1.686-0.571-2.4-0.771-4.001c-0.229-1.601-0.172-0.943-0.657-1.857c-0.486-0.972-0.172-0.943-0.857-1.4
	c-0.028,2,0.771,1.343,1.229,5.315c0.343,3.229,0.687,1.314,0.743,5.801c0.028,2.315-0.143,4.173-0.229,6.288
	c-0.058,1.372-0.314,1.6-0.457,2.686c-0.457,3.772,0.399,1.943-0.915,5.716c-0.314,0.886-0.343,1.972-0.6,2.744l-1.887,4.601
	c-0.399,0.771-0.028,0.058-0.285,0.458l-1.4,2.687c-0.2,0.6-0.114,0.714-0.457,1.257l-1.887,2.915c-0.629,1-0.399,0.114-0.629,1.372
	c0.943-0.286,0.743-0.171,1.229-1.028l1.886-3.173c0.857-1.687,1.887-4.173,2.743-4.487c0.801,1.372-0.485,2.887-0.886,3.916
	c-0.543,1.371-1.714,3.058-2.4,4.314c-1.515,2.83-3.286,4.373-5.173,6.517l-4.2,4.029c-0.314,0.314-0.572,0.601-0.857,0.857
	c-0.687,0.657-1.372,0.857-2.001,1.4l-2.286,1.829c-2.457,1.887-0.914,0.371-3.086,1.943c-1.086,0.771-3.229,1.572-3.858,1.972
	c-0.6,0.372-0.429,0.2-0.857,0.743c2.43-0.657,7.03-3.629,9.031-5.145l3.144-2.371c1.943-2.287,3.486-3.087,4.458-4.287l3.429-3.629
	c0.572-0.201,1.001-1.115,1.887-2.23c1.771-2.199,5.172-8.973,5.858-11.116c0.314-0.915,0.515-1.743,0.771-2.372
	c0.4-0.943,0.257-1.601,0.515-2.458c0.229-0.686,0.686-1.171,0.857-2.2c0.143-1,0-1.601,0.371-2.486
	c0.571-1.372,0.515-0.6,0.601-2.543c0.114-4.03,0.313-8.316,0.057-12.346c-0.057-0.886-0.086-1.771-0.343-2.572
	c-0.429-1.343-0.543-0.657-0.686-2.287c-0.114-1.114-1.229-3.429-1.629-4.515c-0.658-1.772-0.601-2.229-2.144-4.001l-1.601-1.543
	c-5.173-4.601-9.888-5.03-16.632-4.916C280.041,56.767,281.355,57.596,278.727,57.482L278.727,57.482z"/>
<path fill-rule="evenodd" clip-rule="evenodd" fill="#2E2D2E" d="M104.259,79.944c2.201,0,1.515,0.114,1.915-0.943
	c-2.029-0.686-2.4,0.286-5.058-0.6c-1.972-0.658-8.916-0.314-12.231-0.686c-1.315-0.143-2.572-0.515-3.973-0.629
	c-1.4-0.114-2.943-0.143-4.372-0.171c-1.058-0.057-4.344-0.915-8.459-1c-2-0.057-2.058-0.543-3.83-0.772
	c-1.372-0.2-3.029-0.028-4.201-0.343c-2.315-0.629-0.2-0.457-3.744-0.771c-1.543-0.114-2.458-0.572-3.944-0.8
	c-1.343-0.2-3.029-0.057-4.172-0.486c-3.401-1.172-2.4,0-5.458-1.343c-1.229-0.571-2.572-0.257-3.229-0.514
	c-1.258-0.486,0.314-0.629-1.601-0.857c-0.343-0.057-1.172-0.029-1.515-0.029c0.6,2.029,1.029,1.486,3.115,1.858
	c1.229,0.229,0.628,0.714,3.658,0.857c3.086,0.172,0.486,0.686,3.715,0.915c2.772,0.2,2.086,0.657,3.543,0.886
	c1.515,0.229,3.058,0.171,4.572,0.286c1.4,0.114,1.372,0.857,3.487,1c1.543,0.115,2.829,0,4.086,0.486
	c2,0.714,2.201,0.286,4.201,0.514c2.772,0.286,1.601,0.771,7.859,0.972c1.601,0.057,3.887,0.915,8.23,1.029
	c3.372,0.086,5.373,0.829,8.459,0.886C98.515,79.745,101.173,79.944,104.259,79.944L104.259,79.944z"/>
<path fill-rule="evenodd" clip-rule="evenodd" fill="#BCBCBD" d="M314.162,52.738c-0.085-1.086-0.972-1.915-1.743-2.629
	c-3.572-3.229-1.972-1.486-3.771-2.744l-0.4-0.371c-0.972-0.943-0.4-0.343-1.429-0.943l-3.602-1.943
	c-0.057-0.028-0.114-0.085-0.143-0.114c-0.057-0.028-0.114-0.057-0.143-0.086l-1.029-0.371c-2.4-0.429-1.343,0.171-3.343-0.829
	c-0.943-0.486-2.544-0.2-3.544-0.6c-0.771-0.314-0.4-0.6-1.314-0.743l-14.689,0.057c-0.257,0-1.543,0.172-1.829,0.257
	c-1.057,0.343,0.114,0.286-1.343,0.543c-1.286,0.229-3.001,0.029-4.115,0.314c-1.028,0.229-0.172,0-0.8,0.343
	c-0.258,0.143-0.2,0.2-0.687,0.343c-0.6,0.171-1.257,0.085-1.857,0.143c-1.601,0.115-1.686,0.572-2.286,0.772
	c-1.486,0.543-1.629-0.314-2.972,0.571l-1.258,0.572c0.086-4.401,0.058-8.831,0.058-13.26c0-1.086,0.114-2.229-0.086-3.315
	c-0.286-1.686-2.572-4.544-2.629-4.744l-0.029-1.458c-1.571-0.028-1.8,0.086-2.801-0.8c-4.029-3.487-1.057-1.458-4.372-2.744
	c-1.114-0.4-1.172-1.029-2.486-0.8c0.028,0.057,0.086,0.086,0.086,0.143l0.486,0.486c1.086,0.829,1.714,0.829,2.571,1.314
	l2.829,2.201c0.458,0.343,0.943,0.514,1.515,0.915c3.544,2.543,3.602,5.373,4.029,6.43c0.687,1.657,0.2,10.117,0.286,12.546
	c0.058,2.458-0.743,2.915,0.686,4.029c2.43-0.943,1.772-0.4,3.144-0.771c1.001-0.314,1.544-0.686,3.173-0.972l4.973-1.029
	c0.742-0.143,1-0.4,1.571-0.543c3.372-0.771,12.288-0.429,16.175-0.343c5.887,0.143,14.86,3,19.633,7.116l2.115,1.972
	c0.086,0.085,0.399,0.457,0.457,0.514C313.905,52.738,313.42,52.423,314.162,52.738L314.162,52.738z"/>
<path fill-rule="evenodd" clip-rule="evenodd" fill="#BCBCBD" d="M14.897,38.62c-0.143-0.458-0.029-0.743-1.029-1.201
	c-2.315-1.057-0.6-0.543-2.458-1.429c-0.572-0.257-0.743-0.372-1.315-0.629c-0.057-0.028-0.114-0.057-0.171-0.085l-2.572-1.943
	c-1.572-1.2,0.771,1.057-0.486-0.429c-0.086-0.143-0.2-0.314-0.429-0.6c-0.057-0.057-0.372-0.429-0.429-0.515
	c-2.315-2.743-2.429-4.944,0.114-7.716c2-2.201,5.63-3.858,6.773-4.773l5.373-2.343c0.6-0.229,1.058-0.2,1.629-0.4
	c0.714-0.257,0.572-0.4,1.172-0.657c0.514-0.2,1-0.171,1.543-0.4c0.743-0.314,0.229-0.372,1.229-0.657
	c0.657-0.2,1.172-0.143,1.772-0.257c1.429-0.286,0.229-0.171,1.314-0.657c0.972-0.4,2.686-0.2,3.772-0.2
	c0.257-0.686-0.085-0.343,0.4-1.057L34.33,12.5c0.686-0.943,0.115-0.658,1.686-0.886c2.201-0.286,1.744-0.229,2.201,0.257
	c1.286-1.543-0.4-0.829,2.372-1.2c1.372-0.172,0.743-0.601,6.116-1.058c1.8-0.171,1.086-0.657,3.115-0.8
	c5.144-0.4,5.115-1.286,9.688-1.229c1.771,0.029,2.486,0.372,3.115-1.086c-1.286,0.143-1.372,0.429-2.858,0.458l-5.858,0.572
	c-3.915,0.972-3.086,0.4-5.487,0.829c-1.771,0.314-0.857,0.628-5.172,1.029c-1.743,0.143-1.601,0.372-2.886,0.629
	c-0.886,0.171-2,0.171-2.83,0.343c-1.029,0.2-0.743,0.514-2.286,0.829c-1.972,0.372-3.258,0.714-5.087,1.143
	c-1.543,0.372-0.714,0.6-2.2,0.886c-1.143,0.229-1.543,0.229-2.601,0.6c-0.8,0.286-1.601,0.372-2.515,0.686
	c-1.2,0.372-0.771,0.629-2.429,0.915c-2,0.343-3.144,1.515-6.659,2.744c-2.029,0.714-1.029,0.543-2.058,1.115
	c-2.858,1.543-5.687,3.058-7.173,5.687c-1.858,3.315-1.115,4.772,0.657,6.973c3.144,3.858,2.4,2.144,4.315,3.915
	c0.057,0.057,0.171,0.2,0.229,0.257l0.971,0.572c0.058,0.028,0.115,0.028,0.2,0.057l0.372,0.143
	C11.896,37.191,13.382,38.391,14.897,38.62L14.897,38.62z"/>
<path fill-rule="evenodd" clip-rule="evenodd" fill="#BCBCBD" d="M252.178,41.506l-0.144-0.057c-1.028,1.429-6.287,3.544-8.173,4.03
	l-6.858,2.172c-3.029,0.457-2.144,0.143-2.458,0.972c0.972-0.229,0.715-0.343,1.629-0.486c0.687-0.143,1.258-0.086,1.943-0.257
	l4.744-1.429c2.314-1.201,1.915-0.229,3.115-0.943l2.686-1.4c0.458-0.286,1.001-0.514,1.43-0.771c0.742-0.4,0.771-0.229,1.429-0.515
	c1.028-0.457,0.114-0.314,1.257-0.914c0.629-0.343,0.657-0.257,1.314-0.658c0.972-0.571,1.372-0.429,2.144-1.2l0.457-0.514
	c0.029-0.057,0.172-0.2,0.229-0.257c0.544-0.486,0.772-0.429,1.344-0.629l0.028,13.718c-0.114,1.8-1.429,3.115-2.743,4.144
	l-1.943,1.458c-3.229,2.858-1.314,0.829-4.173,2.829l-3.258,1.772c-3.372,1.943-2,0.514-3.743,1.657
	c-0.343,0.2-0.028,0.029-0.486,0.286c-1.485,0.829-0.714,0.686-1.714,0.943c-1.229,0.286-0.458-0.229-1.915,0.486
	c-1.886,0.943-1.2-0.2-3.144,1.143c-0.829,0.572-0.086,0.143-1.144,0.486c-1.086,0.343-1.028,0.429-1.285,1.029
	c2.771-0.257,10.974-3.515,13.66-5.258l2.429-1.4c1.743-0.915,1.743-1.143,2.372-1.458c0.914-0.457,1.743-0.6,2.343-1.458
	c0.372-0.6,0-0.057,0.4-0.457l3.201-2.601c1.6-2.144,1.829-1.715,1.771-5.059c-0.028-2.115,0.371-12.117-0.058-13.061
	C256.921,37.534,256.093,40.306,252.178,41.506L252.178,41.506z"/>
<path fill-rule="evenodd" clip-rule="evenodd" fill="#9B9C9C" d="M265.495,148.218c0.571,0.114,3.601-0.743,4.543-1.057l7.859-2.973
	c1.629-0.657,9.717-4.401,10.888-5.316l10.945-8.145c4.029-3.687,7.288-6.658,10.374-11.402l3.029-4.944
	c0.457-1.058,1.372-2.4,1.857-3.801c-0.829,0.286-0.515-0.114-1.086,0.687c-0.114,0.143-0.314,0.742-0.429,1.028l-1.943,2.886
	c-1.286,1.43-0.285,0.829-1.143,2.001l-1.001,1.372c-0.028,0.057-0.057,0.114-0.085,0.143c-0.572,0.943-0.486,1.258-1.058,1.887
	c-0.429,0.514-0.972,0.6-1.372,1.257l-2.372,3.229c-0.972,1.029-0.657,1.029-2.543,2.801c-1.572,1.486-1.458,0.828-2.715,2.115
	c-2.715,2.715-2.315,1.971-4.687,4l-3.401,2.229c-0.399,0.257,0.114-0.114-0.343,0.314c-1.4,1.286-0.972,0.144-2.114,1.257
	c-0.972,0.943-2.973,2.201-4.287,2.544l-5.487,2.716c-0.942,0.371-1.057,0.199-1.972,0.686c-0.857,0.457-1.114,0.285-2.943,1.172
	c-3.029,1.485-7.259,2.143-8.287,3.058L265.495,148.218z"/>
<path fill-rule="evenodd" clip-rule="evenodd" fill="#BCBCBD" d="M206.139,288.024l9.831-2.801c0.743-0.229,0.543-0.314,1.343-0.572
	l4.487-1.57c0.828-0.4,1.857-0.715,2.715-1.115c0.972-0.43,2.172-0.686,3.086-1.086c4.115-1.744,10.717-5.201,14.432-7.516
	c0.543-0.373,0.687-0.543,1.114-0.801l2.372-1.516c1.458-1,1.515-1.342,3.258-2.771c0.771-0.629,0.543-0.486,0.915-1.285
	c-1.629,0.314-0.629,0.543-1.601,0.885c-1.229,0.457-0.343-0.143-1.4-0.256c0.314,0.627,0.229,0.027,0.486,1.057
	c-0.314,0.514-0.572,0.715-1.001,1.086l-6.915,4.486c-1.801,0.943-2.201,0.887-2.544,1.086c-0.972,0.6,0.229,0.344-1.286,0.715
	c-1.543,0.371-0.457-0.115-1.629,0.887c-0.942,0.828-2.343,1.027-3.258,1.428c-0.743,0.344-0.171,0.371-1.257,0.686
	c-0.629,0.201-0.915,0.086-1.544,0.229l-2.857,1.629c-0.972,0.516-0.371-0.113-2,0.857l-10.945,3.803
	c-0.943,0.398-1.801,0.457-2.715,0.914c-0.943,0.457-1.572,0.828-2.858,0.828C206.225,287.481,206.139,287.995,206.139,288.024
	L206.139,288.024z"/>
<path fill-rule="evenodd" clip-rule="evenodd" fill="#9B9C9C" d="M14.925,59.597l11.46,5.373c0.057,0.029,0.143,0.057,0.2,0.114
	c1.372,0.4,1.086,1,3.201,0.915c0.686,0.057,1.343,0.429,2.086,0.714c-0.771-1.314-1.114-0.857-2.629-1.257l-14.061-6.316
	c-2.314-1.829-1.429-1.114-3.543-2.229c-1.972-1.086-2.572-1.715-4.144-3.144c-0.114-0.086-0.229-0.2-0.371-0.343
	c-0.829-0.857-2.601-2.83-3.001-3.772c-0.514-1.286-0.4-12.66-0.171-14.689c0.857,0.314,2.343,2.258,5.23,3.801l0.971,0.486
	c0.029,0.029,0.286,0.2,0.429,0.286c1.058,0.571,4.115,2.229,5.144,2.314c-0.314-0.257-0.4-0.257-0.657-0.429
	c-0.057-0.057-0.257-0.2-0.343-0.257c-0.515-0.458,0,0.171-0.458-0.486c-5.973-2.486-9.859-6.716-10.402-6.945
	c-0.914,1.372-0.428,6.859-0.485,8.945c-0.029,1.629,0.057,3.201,0.028,4.83c-0.028,2.572-0.286,2.286,0.886,3.944
	c0.972,1.343,1.343,1.429,2.172,2.4c0.972,1.144,1.486,1.286,2.629,2.229c1.572,1.286,1.257,1.114,2.858,1.915
	C12.696,58.368,14.268,59.711,14.925,59.597L14.925,59.597z"/>
<path fill-rule="evenodd" clip-rule="evenodd" fill="#BCBCBD" d="M249.52,18.158c-0.143-1.086,0-0.028-1.886-1.515
	c-0.801-0.629-0.715-0.171-1.771-0.886l-0.4-0.286c-1-0.571-1.458,0-2.629-0.771c-1.629-1.057-1.286-0.257-2.744-0.915
	c-1.2-0.543-0.886-0.514-2.515-0.829c-1.172-0.229-0.515-0.086-1.257-0.457l-15.004-4.087c-0.886-0.257-2.172-0.2-3.344-0.343
	c-2.4-0.314-3.543-0.943-5.973-1.144c-1.629-0.143-3.801-1.458-6.115-0.8c0.229,0.2,0,0.057,0.543,0.286
	c0.2,0.085,0.515,0.171,0.686,0.257c3.115,1.171,3.544,0.257,6.973,1.4c0.972,0.314,2.087,0.257,3.029,0.571
	c0.972,0.314,1.372,0.714,2.544,0.771c4.315,0.257,3.144,0.657,6.059,1.086c1.629,0.229,1.829,0.572,2.915,0.772
	c1.343,0.229,1.714-0.057,2.857,0.486c1.543,0.771,6.201,2.058,7.973,2.515l5.173,1.801C245.919,16.7,248.148,18.215,249.52,18.158
	L249.52,18.158z"/>
<path fill-rule="evenodd" clip-rule="evenodd" fill="#9B9C9C" d="M276.097,129.728c-0.972,0.229-1.2,0.515-1.828,0.914l-5.688,2.287
	c-0.886,0.343-1.372,0.199-2.286,0.629c-2.229,1.057-3.829,0.543-5.83,2.114c-0.171,2.315-0.457,12.089,0.2,13.575
	c1.114,0.171,3.915-0.229,4.83-1.029c-0.972-0.143-1.601-0.057-2.544,0.114c-1.857,0.343-1.543,0.343-1.857,0.028
	c-0.601-0.943-0.172-10.631-0.028-12.545l11.088-3.316c0.771-0.113,0.771-0.113,1.286-0.485c0.057-0.028,0.114-0.085,0.143-0.114
	c0.058-0.028,0.114-0.086,0.143-0.114c1.344-0.8,0.829,0.257,2.001-0.857c1.486-1.458,2.344-0.915,3.515-1.857
	c1.857-1.486,1.544-1.086,3.201-2.114c0.457-0.314-0.143,0,0.629-0.372c1.629-0.771,2.829-1.943,4.058-2.915l8.459-7.973
	c0.314-0.458,0.429-0.572,0.571-1.4l-3.429,3.629c-0.972,1.2-2.515,2-4.458,4.287l-3.144,2.371
	C283.127,126.099,278.526,129.071,276.097,129.728L276.097,129.728z"/>
<path fill-rule="evenodd" clip-rule="evenodd" fill="#BCBCBD" d="M288.071,141.875l4.4-2.229c0.687-0.485,0.486-0.485,0.857-0.743
	c0.457-0.371,1.344-0.429,3.601-2.516c1.087-1,1.001-0.514,1.772-1.143l4.001-3.486c0.6-0.572,1.028-1,1.6-1.543
	c1.001-0.973,0.829-0.457,1.601-1.314l4.087-5.116c1.086-1.086,3.229-4.286,3.572-5.716c-1.258,0.457-1.372,1.515-2.915,3.715
	c-1.258,1.801-5.658,6.574-7.145,8.088c-4.001,4.059-7.487,5.973-11.773,9.289c-1.458,1.113-2.601,1.4-3.259,2.114L288.071,141.875z
	"/>
<path fill-rule="evenodd" clip-rule="evenodd" fill="#2E2D2E" d="M29.786,65.998c-2.115,0.086-1.829-0.514-3.201-0.915
	c-2.629-0.171-3.944-2.086-6.773-2.086c1.286,2.314,1.171,1.257,2.915,2.229l4.858,2.144c1.886,0.6,0.372-0.2,3.658,1.114
	c0.857,0.343,1.658,0.257,2.572,0.257c-0.343-0.886-0.286-0.6-0.915-1.029C31.529,66.77,30.558,67.227,29.786,65.998L29.786,65.998z
	"/>
<path fill-rule="evenodd" clip-rule="evenodd" fill="#BCBCBD" d="M257.293,34.562c0.972-0.429,1.429-0.715,1.801-2.801
	c0.686-3.629-2.401-6.43-5.002-8.259c-1.743-1.229-3.258-2.201-5.658-3.144c-1.429-0.572-3.029-2.201-6.487-2.687
	c0.601,1.686,0.743,0.486,2.915,1.572c0.458,0.229,1.001,0.429,1.486,0.686c2.058,1.029,3.344,1.886,5.658,2.858l3.458,2.715
	C260.751,29.932,257.35,33.076,257.293,34.562L257.293,34.562z"/>
<path fill-rule="evenodd" clip-rule="evenodd" fill="#2E2D2E" d="M102.087,56.71c1.257,0,1.658-0.171,2.658-0.257
	c-2.029-2.572-9.773-1.601-10.059-1.486c-1.058,0.458-0.572-0.2-0.829,1c0.857,0.714,1.715,0.514,2.915,0.486
	C99.858,56.424,100.43,56.71,102.087,56.71L102.087,56.71z"/>
<path fill-rule="evenodd" clip-rule="evenodd" fill="#79797A" d="M252.178,41.506c3.915-1.2,4.743-3.972,6.687-3.658
	c0.429,0.943,0.029,10.946,0.058,13.061c0.058,3.344-0.172,2.915-1.771,5.059l-3.201,2.601c-0.4,0.4-0.028-0.143-0.4,0.457
	l0.972-0.143c0.715-1.201,1.915-1.486,3.43-3.373c0.601-0.743,1.086-0.857,1.372-1.915c0.257-1,0.171-2.258,0.143-3.43
	c-0.086-3.029,0.601-11.774-0.485-13.632c-0.2,0.515-0.857,0.486-1.515,1.086c-0.829,0.743-0.743,0.657-1.687,1.257L252.178,41.506z
	"/>
<path fill-rule="evenodd" clip-rule="evenodd" fill="#BCBCBD" d="M249.92,267.019c1.2-0.457,0.943-0.543,1.829-1.342
	c1.114-1.029,3.601-3.145,3.743-4.631c-1,0.43-0.429,0.086-1.171,0.857l-1.715,1.914c-1.258,1.658-1.515,1.316-2.229,2.172
	C249.92,266.505,249.92,265.876,249.92,267.019L249.92,267.019z"/>
</svg>
