<?xml version="1.0" encoding="utf-8"?>
<!-- Generator: Adobe Illustrator 15.0.0, SVG Export Plug-In  -->
<!DOCTYPE svg PUBLIC "-//W3C//DTD SVG 1.1//EN" "http://www.w3.org/Graphics/SVG/1.1/DTD/svg11.dtd" [
	<!ENTITY ns_flows "http://ns.adobe.com/Flows/1.0/">
]>
<svg version="1.1"
	 xmlns="http://www.w3.org/2000/svg" xmlns:xlink="http://www.w3.org/1999/xlink" xmlns:a="http://ns.adobe.com/AdobeSVGViewerExtensions/3.0/"
	 x="0px" y="0px" width="347px" height="457px" viewBox="0 0 347 457" enable-background="new 0 0 347 457" xml:space="preserve">
<defs>
</defs>
<path fill-rule="evenodd" clip-rule="evenodd" fill="#F05B74" d="M333.016,356.202c-0.829-2.687-35.408-66.674-37.608-70.731
	c-6.115-11.317-12.917-23.263-18.861-34.58c-6.344-12.117-12.346-23.777-18.89-35.495c-24.034-42.839-51.954-97.681-75.245-141.521
	c-1,2.486,1.086,210.423,2.2,253.148c0.172,6.401,0.657,5.373,7.431,6.401C238.738,340.455,286.12,349.344,333.016,356.202
	L333.016,356.202z"/>
<path fill-rule="evenodd" clip-rule="evenodd" fill="#F05B74" d="M173.095,63.53l-39.466,58.329
	c-7.23,11.946-30.606,46.383-38.58,58.186l-38.637,58.1c-3.172,5.029-36.837,55.699-37.951,58.528l135.916,31.465L173.095,63.53z"/>
<path fill-rule="evenodd" clip-rule="evenodd" fill="#CE9360" d="M57.355,381.065c-13.231,1.486-16.689-21.548-10.831-23.92
	C54.669,353.858,65.557,373.035,57.355,381.065L57.355,381.065z M9.259,325.823c1.486,2.258,3.201,6.201,4.916,9.06l15.775,23.605
	c12.46,16.947,36.522,39.41,54.04,50.756c10.06,6.516,21.948,13.003,34.065,18.29c37.751,16.461,135.487,34.837,180.439,27.606
	l-1.686-1.543c-3.544-2.943-3.544-2.058-6.744-6.459c-7.517-10.288-9.031-23.605-10.603-35.637l-153.205-25.321
	c-22.319-7.173-43.896-14.575-64.014-24.777c-17.833-9.088-26.091-13.546-41.066-25.463C16.29,332.054,13.717,329.109,9.259,325.823
	L9.259,325.823z"/>
<path fill-rule="evenodd" clip-rule="evenodd" fill="#FDEC89" d="M23.319,321.794c5.001,7.401,18.461,16.433,27.835,22.462
	c50.097,32.151,135.515,50.127,194.557,57.529c19.261,2.429,28.377,3.086,44.495-2.486c7.201-2.516,31.264-9.688,36.008-12.89
	l-66.528-28.835c-11.946-3.83-23.577-7.431-36.322-11.089c-10.631-3.058-27.121-8.088-38.009-9.288l-1.886,20.977
	c-3.287,5.03-9.545,7.174-16.775,5.602c-17.833-3.801-13.317-20.319-12.488-30.722C138.23,331.339,38.065,320.45,23.319,321.794
	L23.319,321.794z"/>
<path fill-rule="evenodd" clip-rule="evenodd" fill="#1E1E1E" d="M281.576,411.901c7.002-3.572,50.697-17.833,61.643-21.548
	c-3.486,22.177-11.688,49.555-25.12,59.043c-11.202,7.916-21.805,3.772-27.148-5.115
	C285.292,434.879,283.034,424.477,281.576,411.901L281.576,411.901z M178.439,36.295c2.887,57.243,1.887,117.143,2.544,174.671
	l2.172,131.033c0.114,8.002,0.972,13.374-4.344,17.547c-6.659,5.201-24.72,2.4-23.32-14.375
	c3.916-46.783,7.03-97.481,10.345-144.378C167.094,183.074,176.553,40.467,178.439,36.295L178.439,36.295z M9.259,325.823
	c4.458,3.286,7.03,6.23,11.917,10.117c14.975,11.917,23.233,16.375,41.066,25.463c20.119,10.202,41.695,17.604,64.014,24.777
	l153.205,25.321c1.571,12.031,3.086,25.349,10.603,35.637c3.2,4.401,3.2,3.516,6.744,6.459l1.686,1.543
	c-44.952,7.23-142.688-11.146-180.439-27.606c-12.117-5.287-24.005-11.774-34.065-18.29c-17.518-11.346-41.58-33.809-54.04-50.756
	l-15.775-23.605C12.46,332.024,10.745,328.081,9.259,325.823L9.259,325.823z M23.319,321.794
	c14.746-1.344,114.911,9.545,130.886,11.26c-0.829,10.402-5.344,26.921,12.488,30.722c7.23,1.572,13.488-0.571,16.775-5.602
	l1.886-20.977c10.888,1.2,27.378,6.23,38.009,9.288c12.745,3.658,24.376,7.259,36.322,11.089l66.528,28.835
	c-4.744,3.201-28.807,10.374-36.008,12.89c-16.118,5.572-25.234,4.915-44.495,2.486c-59.042-7.402-144.46-25.378-194.557-57.529
	C41.781,338.227,28.321,329.195,23.319,321.794L23.319,321.794z M3.83,314.649c31.436,0.543,77.217,4.943,110.053,8.259
	c14.66,1.458,19.833,3.029,33.779,6.03c-1.458,0.771-54.526-4.802-62.985-5.401l-65.586-3.687
	c2.458,6.344,19.89,19.29,27.292,24.177c33.521,22.206,71.873,34.752,112.367,43.926c28.635,6.458,57.755,12.603,87.706,16.004
	c8.658,1,15.832,1.457,24.719,1.657c11.574,0.257,29.436-7.487,40.866-11.603l14.289-4.858c2.715-0.972,2.144-0.829,4.487-2.744
	c-8.488-7.688-52.04-24.72-67.101-29.979l-74.531-20.748c25.606-0.886,93.906,22.148,118.541,34.323l34.179,17.404
	c-0.715,0.686-0.172,0.399-1.801,1.314c-0.515,0.285-2.286,1.058-2.857,1.257c-9.088,3.373-54.354,19.034-58.041,19.405
	c-54.698,5.658-158.635-24.521-209.132-46.755c-19.376-8.545-36.465-19.29-52.326-32.351c-2.258-1.857-4.772-4.658-7.145-6.944
	C6.287,319.193,7.03,318.765,3.83,314.649L3.83,314.649z M154.377,328.138L18.461,296.673c1.114-2.829,34.779-53.499,37.951-58.528
	l38.637-58.1c7.974-11.803,31.35-46.24,38.58-58.186l39.466-58.329L154.377,328.138z M276.546,250.891
	c5.944,11.317,12.746,23.263,18.861,34.58c2.2,4.058,36.779,68.045,37.608,70.731c-46.896-6.858-94.278-15.747-140.974-22.777
	c-6.773-1.028-7.259,0-7.431-6.401c-1.114-42.725-3.2-250.662-2.2-253.148c23.291,43.839,51.211,98.682,75.245,141.521
	C264.201,227.113,270.203,238.773,276.546,250.891L276.546,250.891z M180.754,12.46c16.86-5.83,52.726-9.202,61.471,5.659
	c3.343,5.687,3.144,7.487,8.888,10.259c14.432,7.002,36.064-0.743,49.696-3.572l-1.458,31.922
	c-36.036,5.401-33.207,8.859-57.041-6.43c-22.919-14.689-43.295-7.573-61.299-8.316L180.754,12.46z M181.125,44.611
	c65.414-8.374,59.013,18.805,88.991,19.348c10.088,0.171,22.891-2.115,31.149-5.287l1.687-36.609
	c-15.175,3.115-37.408,10.146-50.126,4.602c-6.001-2.601-5.486-4.858-8.916-10.26c-10.859-17.09-46.981-9.345-63.386-6.83
	l-0.543-8.002L179.411,0c-3.687,7.345-2.857,38.209-5.115,53.699c-0.857,5.858-41.18,64.673-45.238,70.674
	c-3.887,5.802-7.659,11.46-11.603,17.576c-12.46,19.291-36.608,53.756-46.096,69.875c-8.287,14.032-24.119,35.895-34.093,51.555
	c-3.858,6.059-21.491,30.294-22.091,35.295l87.791,20.462L0,312.791l26.234,44.24c28.921,41.41,77.246,72.446,127.285,84.478
	c41.695,10.031,78.817,16.89,123.712,17.147c24.52,0.143,41.467-1.857,51.812-18.434c13.46-21.548,11.574-35.323,17.575-52.728
	l-97.192-42.067l86.762,13.604c-26.177-50.155-53.497-103.654-80.875-153.323c-20.89-37.895-40.752-77.848-61.327-115.114
	C181.612,68.16,179.554,68.188,181.125,44.611L181.125,44.611z"/>
<path fill-rule="evenodd" clip-rule="evenodd" fill="#C66C35" d="M178.439,36.295c-1.886,4.172-11.345,146.779-12.603,164.498
	c-3.315,46.897-6.43,97.595-10.345,144.378c-1.4,16.775,16.661,19.576,23.32,14.375c5.315-4.173,4.458-9.545,4.344-17.547
	l-2.172-131.033C180.326,153.438,181.326,93.538,178.439,36.295L178.439,36.295z"/>
<path fill-rule="evenodd" clip-rule="evenodd" fill="#FBCA0D" d="M180.754,12.46l0.257,29.521
	c18.004,0.743,38.38-6.373,61.299,8.316c23.834,15.29,21.005,11.832,57.041,6.43l1.458-31.922
	c-13.632,2.83-35.265,10.574-49.696,3.572c-5.744-2.772-5.545-4.572-8.888-10.259C233.48,3.258,197.615,6.63,180.754,12.46
	L180.754,12.46z"/>
<path fill-rule="evenodd" clip-rule="evenodd" fill="#FFFFFF" d="M3.83,314.649c3.201,4.115,2.458,4.544,6.773,8.688
	c2.372,2.286,4.887,5.087,7.145,6.944c15.86,13.061,32.95,23.806,52.326,32.351c50.497,22.234,154.434,52.413,209.132,46.755
	c3.687-0.371,48.953-16.032,58.041-19.405c0.571-0.199,2.343-0.972,2.857-1.257c1.629-0.915,1.086-0.629,1.801-1.314l-34.179-17.404
	c-24.635-12.175-92.935-35.209-118.541-34.323l74.531,20.748c15.061,5.259,58.612,22.291,67.101,29.979
	c-2.344,1.915-1.772,1.772-4.487,2.744l-14.289,4.858c-11.431,4.115-29.292,11.859-40.866,11.603
	c-8.887-0.2-16.061-0.657-24.719-1.657c-29.95-3.401-59.07-9.546-87.706-16.004c-40.495-9.174-78.846-21.72-112.367-43.926
	c-7.402-4.887-24.834-17.833-27.292-24.177l65.586,3.687c8.459,0.6,61.528,6.173,62.985,5.401
	c-13.946-3.001-19.119-4.572-33.779-6.03C81.046,319.593,35.265,315.192,3.83,314.649L3.83,314.649z"/>
<path fill-rule="evenodd" clip-rule="evenodd" fill="#CE9360" d="M291.15,412.302c7.544-2.915,37.551-13.804,45.267-14.575
	l0.429,10.86c-3.572,2.028-41.809,14.231-45.867,14.574L291.15,412.302z M281.576,411.901c1.458,12.575,3.716,22.978,9.374,32.38
	c5.344,8.888,15.946,13.031,27.148,5.115c13.432-9.488,21.634-36.866,25.12-59.043C332.273,394.068,288.578,408.329,281.576,411.901
	L281.576,411.901z"/>
<polygon fill-rule="evenodd" clip-rule="evenodd" fill="#FFFFFF" points="293.036,413.702 293.292,420.761 334.788,407.529 
	334.702,400.127 "/>
<path fill-rule="evenodd" clip-rule="evenodd" fill="#1E1E1E" d="M334.702,400.127l0.086,7.402l-41.495,13.231l-0.257-7.059
	L334.702,400.127z M291.15,412.302l-0.172,10.859c4.059-0.343,42.295-12.546,45.867-14.574l-0.429-10.86
	C328.701,398.498,298.694,409.387,291.15,412.302L291.15,412.302z"/>
<path fill-rule="evenodd" clip-rule="evenodd" fill="#FFFFFF" d="M46.982,359.746c-3.229,7.116,4.544,22.948,9.659,18.775
	C60.899,375.035,55.469,357.488,46.982,359.746L46.982,359.746z"/>
<path fill-rule="evenodd" clip-rule="evenodd" fill="#6C596C" d="M46.982,359.746c8.487-2.258,13.917,15.289,9.659,18.775
	C51.526,382.694,43.752,366.862,46.982,359.746L46.982,359.746z M57.355,381.065c8.202-8.03-2.686-27.207-10.831-23.92
	C40.666,359.518,44.124,382.552,57.355,381.065L57.355,381.065z"/>
</svg>
