<?xml version="1.0" encoding="utf-8"?>
<!-- Generator: Adobe Illustrator 15.0.0, SVG Export Plug-In  -->
<!DOCTYPE svg PUBLIC "-//W3C//DTD SVG 1.1//EN" "http://www.w3.org/Graphics/SVG/1.1/DTD/svg11.dtd" [
	<!ENTITY ns_flows "http://ns.adobe.com/Flows/1.0/">
]>
<svg version="1.1"
	 xmlns="http://www.w3.org/2000/svg" xmlns:xlink="http://www.w3.org/1999/xlink" xmlns:a="http://ns.adobe.com/AdobeSVGViewerExtensions/3.0/"
	 x="0px" y="0px" width="386px" height="362px" viewBox="0 0 386 362" enable-background="new 0 0 386 362" xml:space="preserve">
<defs>
</defs>
<path fill-rule="evenodd" clip-rule="evenodd" fill="#AC99A3" d="M52.381,187.782c-0.943,1.429-0.343,0.742-1.457,1.972
	c-0.086,0.086-1.343,1.314-1.572,1.543c-2.343,2.314-8.43,8.116-9.373,10.717l-2.944,20.548c-2.543,2.372-4.115,4.573-7.202,7.659
	c-4.572,4.544-16.946,26.835-16.146,31.865l23.062,40.61c0.114,0.457-1.372,23.434,17.204,32.236
	c12.66,6.029,28.178-0.286,41.609-3.973c2.743,4.944,9.974,6.602,12.688,11.089c10.374,1.086,14.946,7.658,28.721,1.399
	c4.543-2.058,7.23-3.857,10.574-6.572c3.372-2.744,4.515-5.259,8.688-7.717c11.26,6.716,15.86,11.718,30.75,7.831
	c10.974-2.887,18.089-10.317,23.062-17.233c4.344-3.114,15.489-0.2,28.378-14.975c7.03-8.088,3.2-8.174,6.573-15.461
	c2.143-4.688,6.83-3.43,5.601-15.09c-1.172-11.003-7.688-22.72-12.431-30.808c-5.716-9.717-11.26-16.861-19.462-23.377
	c-33.179,5.516-64.614,14.832-96.621,0.371c-28.206-12.745-12.203-12.889-30.55-26.892c-9.859-7.517-22.462-14.49-34.55-7.745
	C53.896,187.496,55.239,187.354,52.381,187.782L52.381,187.782z"/>
<path fill-rule="evenodd" clip-rule="evenodd" fill="#FDFADF" d="M290.262,188.382c-1.286-5.315-0.086-6.63,5.487-5.544
	l-0.086,5.373L290.262,188.382z M244.709,160.261c-5.716,8.659-14.089,27.979-9.545,41.811
	c4.601,13.975,17.289,17.062,22.548,30.894c4.4,11.574,2.657,27.234,23.662,30.722c9.288,1.543,15.718,1.601,20.376-4.373
	c3.229-4.144,7.201-14.604,4.63-19.604c-6.316,8.717-4.115,12.803-12.089,13.489l-8.63-15.032c-1.086-4.573-0.572-3.772-4.573-6.345
	c-6.001-3.858-4.658-3.401-5.029-6.116l11.031,7.145c11.831,6.945,32.179,5.401,44.409,0.601
	c14.146-5.544,32.265-18.976,32.122-38.095l-6.859-7.745L331.1,176.665c-5.688-5.458-11.174-12.46-14.632-21.52l-33.265-5.287
	L244.709,160.261z"/>
<path fill-rule="evenodd" clip-rule="evenodd" fill="#AC99A3" d="M254.969,88.472c-5.487-0.857-7.717-4.144-16.176-3.287
	c-14.632,1.458-15.746,14.089-23.977,34.551l15.403,5.487c-2.143,5.744-9.002,12.317-7.487,20.634
	c1.314,7.202,9.088,9.945,16.89,11.288l43.581-10.088c2.144,0.171,25.463,19.891,39.694-1.715c1.687-2.543,0.972-3.629,4.715-5.373
	c5.602-2.572,28.035-5.716,22.548-25.835c-3.229-11.746-13.745-11.517-25.205-13.975c-2.743-19.49-18.519-30.464-32.436-25.492
	c-10.945,3.944-10.231-8.174-22.605-2.429c-3.114,1.458-6.458,4.715-8.145,6.916C259.656,81.898,257.37,85.928,254.969,88.472
	L254.969,88.472z"/>
<path fill-rule="evenodd" clip-rule="evenodd" fill="#AC99A3" d="M46.38,121.766l4.801,11.117l-12.231,4.544
	c-2.401,4.401-3.258,10.974-1,16.061c3.915,8.917,17.404,9.031,28.406,6.259l14.289-5.202l2.4,2.115
	c1.143,1.115,1.143,1.315,2.543,2.486c6.344,5.202,13.146,4.344,18.89-0.457c2.543-2.144,6.059-6.173,7.487-10.688
	c2.229-7.145-0.457-9.631-3.372-14.146c1.915-2.086,14.432-7.831,8.116-24.006c-4.629-11.888-12.002-7.973-23.12-6.201
	c0.715-3.973,2.315-6.573,0.658-10.66c-5.001-12.604-17.519,2.686-23.234,3.572c-10.031-2.058-13.946-3.058-20.633,3.972
	C46.609,104.504,42.951,114.507,46.38,121.766L46.38,121.766z"/>
<path fill-rule="evenodd" clip-rule="evenodd" fill="#1C1C1C" d="M217.389,321.357l16.403-8.859
	c2.544,2.544,7.688,9.117,9.917,12.089l11.459,11.917l-4.887,14.118C234.536,350.422,224.848,331.76,217.389,321.357
	L217.389,321.357z M236.393,311.298c4.744-9.06,3.029,1.314,10.659-20.005c5.373,2.943,30.179,25.264,24.377,40.496
	C263.771,351.937,240.166,316.356,236.393,311.298L236.393,311.298z M296.292,250.997c-6.173-1.429-7.402-8.173-8.659-14.946
	l14.06,3.286C302.351,244.081,298.807,248.825,296.292,250.997L296.292,250.997z M223.419,220.562l0.914-1.314l11.488-9.717
	c0.2,0.171,0.485,0.143,0.543,0.457l8.716,10.574l-9.345,14.003c-2.572-2.086-3.743-4.544-5.915-7.001
	C227.106,224.448,225.562,223.276,223.419,220.562L223.419,220.562z M244.709,160.261l38.494-10.402l33.265,5.287
	c3.458,9.06,8.944,16.062,14.632,21.52l25.662,10.945l6.859,7.745c0.143,19.119-17.976,32.551-32.122,38.095
	c-12.23,4.801-32.578,6.345-44.409-0.601l-11.031-7.145c0.371,2.715-0.972,2.258,5.029,6.116c4.001,2.572,3.487,1.771,4.573,6.345
	l8.63,15.032c7.974-0.687,5.772-4.772,12.089-13.489c2.571,5.001-1.4,15.461-4.63,19.604c-4.658,5.974-11.088,5.916-20.376,4.373
	c-21.005-3.487-19.262-19.147-23.662-30.722c-5.259-13.832-17.947-16.919-22.548-30.894
	C230.621,188.239,238.994,168.92,244.709,160.261L244.709,160.261z M358.334,183.238c-2.229-18.776,25.233-21.72,27.463-3.916
	C388.141,198.213,360.278,199.728,358.334,183.238L358.334,183.238z M254.969,88.472c2.4-2.543,4.687-6.573,6.801-9.316
	c1.687-2.201,5.03-5.458,8.145-6.916c12.374-5.745,11.66,6.373,22.605,2.429c13.917-4.973,29.692,6.001,32.436,25.492
	c11.46,2.458,21.977,2.229,25.205,13.975c5.487,20.119-16.946,23.263-22.548,25.835c-3.743,1.743-3.028,2.829-4.715,5.373
	c-14.231,21.605-37.551,1.886-39.694,1.715l-43.581,10.088c-7.802-1.343-15.575-4.086-16.89-11.288
	c-1.515-8.316,5.345-14.89,7.487-20.634l-15.403-5.487c8.23-20.462,9.345-33.094,23.977-34.551
	C247.252,84.328,249.482,87.614,254.969,88.472L254.969,88.472z M210.501,43.118c1.486-10.746,30.893-36.066,41.467-38.638
	l20.462,63.844c-8.603,5.03-5.974,2.83-12.403,9.203C246.938,70.01,217.389,54.692,210.501,43.118L210.501,43.118z M288.233,73.411
	c-2.886-1.086-3.4-2.029-5.944-3.229c-2.457-1.172-5.858-1.144-6.915-2.144c-0.286-0.257-10.202-37.495-8.773-41.524
	c2.486-7.059,9.345-18.433,13.402-21.92c7.23-6.144,16.176,3.001,21.348,7.259c5.544,4.602,30.607,27.636,32.207,37.467
	C335.33,60.351,299.665,70.61,288.233,73.411L288.233,73.411z M44.522,121.766h1.858c-3.43-7.259,0.229-17.261,4-21.234
	c6.688-7.03,10.603-6.03,20.633-3.972c5.715-0.886,18.232-16.176,23.234-3.572c1.657,4.086,0.057,6.687-0.658,10.66
	c11.117-1.772,18.49-5.687,23.12,6.201c6.315,16.176-6.202,21.92-8.116,24.006c2.915,4.515,5.601,7.001,3.372,14.146
	c-1.429,4.516-4.944,8.545-7.487,10.688c-5.744,4.801-12.545,5.659-18.89,0.457c-1.4-1.171-1.4-1.372-2.543-2.486l-2.4-2.115
	l-14.289,5.202l2.086,0.971l6.287-0.857l-1.029,21.719l-7.316-0.371l-0.915-1h-1.972c-2.458,2.857-9.23,3.943-11.088,7.03
	l-0.029,0.543c2.858-0.429,1.515-0.286,4.601-2.001c12.088-6.745,24.691,0.229,34.55,7.745c18.347,14.003,2.344,14.146,30.55,26.892
	c32.007,14.461,63.442,5.145,96.621-0.371c8.202,6.516,13.746,13.66,19.462,23.377c4.743,8.088,11.259,19.805,12.431,30.808
	c1.229,11.66-3.458,10.402-5.601,15.09c-3.373,7.287,0.457,7.373-6.573,15.461c-12.889,14.774-24.034,11.86-28.378,14.975
	c-4.973,6.916-12.088,14.347-23.062,17.233c-14.889,3.887-19.49-1.115-30.75-7.831c-4.172,2.458-5.315,4.973-8.688,7.717
	c-3.344,2.715-6.03,4.515-10.574,6.572c-13.774,6.259-18.347-0.313-28.721-1.399l0.6,1.257c5.229,6.116,25.206,7.202,37.951-3.086
	l9.431-8.116c13.66,12.003,32.979,10.23,46.21-0.772l11.231-10.03c3.058,2.286,10.545,14.688,20.147,24.234l23.633-6.888
	c2.201-0.257,10.774,5.001,15.689-5.115c7.888-16.204-14.632-34.923-24.263-44.411c9.146-19.176,0.344-28.864-11.603-52.441
	l9.631-14.203c14.403,6.029,5.887,32.665,25.892,40.752c7.315,2.944,20.176,5.631,26.92,1.058l10.031-24.177
	c18.09-3.087,23.091-2.83,37.036-12.375c12.574-8.602,14.546-17.547,19.947-30.465c1.857-0.686,12.488,1.943,18.29-5.887
	c4.829-6.516,4.087-14.89-0.543-20.72c-3.486-4.401-11.517-7.716-19.147-4.115l-9.23,18.404
	c-22.404-0.657-27.663-16.204-37.551-32.093c7.43-4.43,4.344-8.888,15.289-12.603c32.121-10.974,15.375-33.666,14.518-34.237
	l-21.319-8.031c-2.172-15.775-11.116-21.063-22.805-26.635c4.973-3.344,28.692-8.63,31.407-18.319
	c3.429-12.203-35.122-47.926-46.41-52.27c-12.089-4.658-18.119,13.061-23.691,23.834c-1.829-1.829-0.343,1.115-2.2-2.915
	c-3.858-8.316,1.771-1.286-9.374-18.976c-7.973-1.257-21.719,10.117-27.206,16.204l-18.375,25.207
	c5.572,10.316,37.637,28.893,49.382,36.352l-3.801,5.144c-18.718-5.401-27.234-1.743-34.465,11.746
	c-2.172,4.059-7.115,13.146-7.344,18.348l13.975,12.088l15.46,32.237c-1.2,3.744-3.286,6.23-4.772,10.117
	c-1.343,3.601-2.715,7.43-3.658,11.46l1.229,25.635c-2.229,3.629-10.431,10.859-15.004,10.631
	c-18.204-0.857-57.698,21.377-105.309-3.601c-14.603-7.659-4.172-16.404-38.522-32.037c-0.714-39.752,8.259-19.919,14.06-17.976
	c12.66,4.287,23.663-10.317,24.12-14.518l-1.686-15.861c8.145-5.059,10.488-14.175,6.801-24.206L97.105,99.446
	c0.458-7.602-2.486-13.346-10.374-13.689l-17.175,8.316c-10.059-2.572-17.175,0.714-21.376,6.287
	C44.18,105.676,41.836,114.364,44.522,121.766L44.522,121.766z"/>
<path fill-rule="evenodd" clip-rule="evenodd" fill="#DFEFDC" d="M288.233,73.411c11.432-2.8,47.097-13.06,45.324-24.091
	c-1.6-9.831-26.663-32.865-32.207-37.467c-5.172-4.258-14.117-13.403-21.348-7.259c-4.058,3.487-10.916,14.861-13.402,21.92
	c-1.429,4.029,8.487,41.267,8.773,41.524c1.057,1,4.458,0.972,6.915,2.144C284.833,71.382,285.347,72.325,288.233,73.411
	L288.233,73.411z"/>
<path fill-rule="evenodd" clip-rule="evenodd" fill="#DFEFDC" d="M210.501,43.118c6.888,11.574,36.437,26.892,49.525,34.409
	c6.43-6.373,3.801-4.173,12.403-9.203L251.968,4.479C241.394,7.052,211.988,32.372,210.501,43.118L210.501,43.118z"/>
<path fill-rule="evenodd" clip-rule="evenodd" fill="#404040" d="M37.921,321.043l18.032,16.262
	c-0.886,3.657-1.686,4.144-5.944,8.859c-23.634,26.034-37.18,8.287-24.091-9.003L37.921,321.043z M8.029,346.135
	c-7.973-7.573-6.401-17.575,0.429-26.463c1.629-2.144,2.572-4.201,4.172-5.916l14.604-13.575l7.516,4.658l1.658,13.489
	c-0.229,0.915-11.431,16.976-14.946,20.462C17.888,342.334,14.945,346.135,8.029,346.135L8.029,346.135z M108.851,343.306
	l-0.6-1.257c-2.715-4.487-9.945-6.145-12.688-11.089c-13.432,3.687-28.949,10.002-41.609,3.973
	c-18.575-8.803-17.089-31.779-17.204-32.236l-23.062-40.61c-0.8-5.03,11.574-27.321,16.146-31.865
	c3.086-3.086,4.658-5.287,7.202-7.659l2.944-20.548c0.943-2.601,7.03-8.402,9.373-10.717c0.229-0.229,1.486-1.457,1.572-1.543
	c1.114-1.229,0.514-0.543,1.457-1.972l0.029-0.543c-19.89,8.944-14.46,29.606-18.004,35.637l-6.83,7.088
	C16.517,244.481,5.286,262,13.001,282.177c3.172,8.259,6.315,10.488,12.488,17.433c-12.06,7.088-32.036,29.036-23.376,43.811
	l16.261,2.115c0.572,14.203,6.973,20.548,19.747,13.003l20.348-19.634c12.746,0,15.803,1.286,28.663-2.943
	c6.373-2.086,6.001-2.486,10.345,0.857C101.106,339.647,104.05,342.306,108.851,343.306L108.851,343.306z"/>
<path fill-rule="evenodd" clip-rule="evenodd" fill="#FDFADF" d="M236.393,311.298c3.772,5.059,27.378,40.639,35.036,20.491
	c5.802-15.232-19.004-37.553-24.377-40.496C239.422,312.612,241.137,302.238,236.393,311.298L236.393,311.298z"/>
<path fill-rule="evenodd" clip-rule="evenodd" fill="#FDFADF" d="M8.029,346.135c6.916,0,9.859-3.801,13.432-7.345
	c3.515-3.486,14.718-19.547,14.946-20.462l-1.658-13.489l-7.516-4.658L12.63,313.756c-1.6,1.715-2.543,3.772-4.172,5.916
	C1.627,328.56,0.056,338.562,8.029,346.135L8.029,346.135z"/>
<path fill-rule="evenodd" clip-rule="evenodd" fill="#FDFADF" d="M25.918,337.161c-13.088,17.29,0.458,35.037,24.091,9.003
	c4.258-4.716,5.058-5.202,5.944-8.859l-18.032-16.262L25.918,337.161z"/>
<path fill-rule="evenodd" clip-rule="evenodd" fill="#FDFADF" d="M217.389,321.357c7.459,10.402,17.146,29.064,32.893,29.265
	l4.887-14.118l-11.459-11.917c-2.229-2.972-7.373-9.545-9.917-12.089L217.389,321.357z"/>
<path fill-rule="evenodd" clip-rule="evenodd" fill="#7E6D55" d="M358.334,183.238c1.943,16.489,29.807,14.975,27.463-3.916
	C383.568,161.518,356.105,164.462,358.334,183.238L358.334,183.238z"/>
<path fill-rule="evenodd" clip-rule="evenodd" fill="#FDFADF" d="M223.419,220.562c2.143,2.715,3.687,3.887,6.401,7.002
	c2.172,2.457,3.343,4.915,5.915,7.001l9.345-14.003l-8.716-10.574c-0.058-0.314-0.343-0.286-0.543-0.457l-11.488,9.717
	L223.419,220.562z"/>
<path fill-rule="evenodd" clip-rule="evenodd" fill="#404040" d="M63.498,180.209h1.972l0.057-17.376l2.915-2.115l-2.086-0.971
	c-11.002,2.772-24.491,2.658-28.406-6.259c-2.257-5.087-1.4-11.66,1-16.061l12.231-4.544l-4.801-11.117h-1.858l2.772,8.059
	c-18.547,4.458-14.975,29.55-1.943,32.208l18.061,1.143L63.498,180.209z"/>
<polygon fill-rule="evenodd" clip-rule="evenodd" fill="#FFFFFF" points="68.442,160.718 65.527,162.833 65.47,180.209 
	66.385,181.209 73.701,181.58 74.729,159.861 "/>
<path fill-rule="evenodd" clip-rule="evenodd" fill="#FFFFFF" d="M296.292,250.997c2.515-2.172,6.059-6.916,5.4-11.66l-14.06-3.286
	C288.89,242.824,290.12,249.568,296.292,250.997L296.292,250.997z"/>
<path fill-rule="evenodd" clip-rule="evenodd" fill="#1C1C1C" d="M290.262,188.382l5.401-0.171l0.086-5.373
	C290.176,181.752,288.976,183.066,290.262,188.382L290.262,188.382z"/>
</svg>
