<?xml version="1.0" encoding="utf-8"?>
<!-- Generator: Adobe Illustrator 15.0.0, SVG Export Plug-In . SVG Version: 6.00 Build 0)  -->
<!DOCTYPE svg PUBLIC "-//W3C//DTD SVG 1.1//EN" "http://www.w3.org/Graphics/SVG/1.1/DTD/svg11.dtd">
<svg version="1.1" id="Layer_1" xmlns="http://www.w3.org/2000/svg" xmlns:xlink="http://www.w3.org/1999/xlink" x="0px" y="0px"
	 width="32px" height="32px" viewBox="0 0 32 32" enable-background="new 0 0 32 32" xml:space="preserve">
<g>
	<g transform="translate(0 0)">
		<g id="icon-settings">
			<path fill="#BDC47A" d="M30.391,12.68l-3.063-0.614c-0.154-0.443-0.336-0.873-0.537-1.289l1.735-2.604
				c0.529-0.793,0.425-1.85-0.25-2.523l-1.924-1.924c-0.387-0.387-0.897-0.586-1.416-0.586c-0.383,0-0.77,0.11-1.106,0.336
				l-2.604,1.735c-0.418-0.202-0.848-0.382-1.291-0.536L19.32,1.61c-0.187-0.936-1.008-1.608-1.961-1.608h-2.72
				c-0.953,0-1.774,0.673-1.961,1.608l-0.614,3.065c-0.443,0.154-0.873,0.335-1.289,0.536L8.172,3.476
				C7.833,3.25,7.447,3.14,7.063,3.14c-0.517,0-1.028,0.199-1.415,0.586L3.725,5.65c-0.674,0.674-0.779,1.73-0.25,2.523l1.735,2.604
				c-0.202,0.417-0.382,0.847-0.536,1.29L1.608,12.68C0.673,12.867,0,13.688,0,14.641v2.72c0,0.953,0.673,1.774,1.608,1.961
				l3.065,0.615c0.154,0.442,0.335,0.873,0.536,1.289L3.475,23.83c-0.529,0.793-0.424,1.85,0.25,2.523l1.924,1.924
				c0.387,0.387,0.898,0.586,1.415,0.586c0.384,0,0.771-0.111,1.108-0.336l2.604-1.736c0.417,0.203,0.847,0.383,1.29,0.537
				l0.613,3.064c0.187,0.936,1.008,1.608,1.961,1.608h2.719c0.953,0,1.775-0.674,1.961-1.608l0.615-3.064
				c0.443-0.154,0.873-0.336,1.289-0.537l2.604,1.736c0.338,0.225,0.726,0.336,1.106,0.336c0.519,0,1.029-0.199,1.416-0.586
				l1.924-1.924c0.675-0.674,0.779-1.73,0.25-2.523l-1.735-2.604c0.203-0.418,0.383-0.849,0.537-1.291l3.063-0.613
				C31.326,19.137,32,18.314,32,17.361v-2.72C32,13.688,31.326,12.867,30.391,12.68z M26.934,17.975
				c-0.695,0.14-1.264,0.635-1.496,1.306c-0.129,0.368-0.278,0.727-0.446,1.073c-0.312,0.64-0.259,1.394,0.135,1.982l1.735,2.604
				l-1.924,1.925l-2.604-1.736c-0.334-0.223-0.721-0.336-1.109-0.336c-0.297,0-0.596,0.065-0.871,0.199
				c-0.348,0.168-0.705,0.319-1.076,0.448c-0.668,0.232-1.164,0.802-1.303,1.496l-0.615,3.066H14.64l-0.613-3.066
				c-0.139-0.694-0.635-1.264-1.304-1.496c-0.369-0.129-0.728-0.278-1.075-0.446c-0.276-0.136-0.574-0.201-0.872-0.201
				c-0.389,0-0.775,0.113-1.109,0.336l-2.604,1.736l-1.924-1.925l1.735-2.604c0.393-0.59,0.444-1.344,0.137-1.98
				c-0.168-0.348-0.319-0.705-0.448-1.075c-0.232-0.669-0.802-1.164-1.496-1.304l-3.065-0.615L2,14.641l3.066-0.613
				c0.694-0.139,1.264-0.635,1.496-1.304c0.129-0.369,0.278-0.728,0.447-1.075c0.31-0.638,0.258-1.392-0.136-1.981L5.139,7.064
				L7.062,5.14l2.604,1.735C10,7.098,10.387,7.211,10.775,7.211c0.297,0,0.595-0.066,0.871-0.199
				c0.347-0.168,0.705-0.319,1.075-0.448c0.669-0.232,1.165-0.802,1.304-1.496l0.614-3.065l2.72-0.001l0.613,3.066
				c0.139,0.694,0.635,1.264,1.305,1.496c0.369,0.129,0.727,0.278,1.074,0.447c0.276,0.134,0.573,0.2,0.873,0.2
				c0.389,0,0.774-0.113,1.108-0.336l2.604-1.735l1.924,1.924l-1.736,2.604c-0.393,0.59-0.443,1.343-0.137,1.98
				c0.168,0.347,0.32,0.705,0.449,1.075c0.231,0.669,0.801,1.165,1.496,1.304l3.063,0.614L30,17.361L26.934,17.975z M16,9.001
				c-3.865,0-7,3.135-7,7c0,3.866,3.135,7,7,7s7-3.135,7-7S19.865,9.001,16,9.001z M16,22.127c-3.382,0-6.125-2.744-6.125-6.125
				S12.618,9.877,16,9.877c3.381,0,6.125,2.743,6.125,6.125C22.125,19.383,19.381,22.127,16,22.127z M16,12.001c-2.21,0-4,1.79-4,4
				s1.79,4,4,4c2.209,0,4-1.791,4-4S18.209,12.001,16,12.001z M16,19.002c-1.656,0-3-1.344-3-3c0-1.656,1.344-3,3-3
				c1.656,0,3,1.344,3,3C19,17.658,17.656,19.002,16,19.002z"/>
		</g>
	</g>
</g>
</svg>
